M48
; DRILL file {KiCad (5.1.0)-1} date 4/8/2019 9:34:41 PM
; FORMAT={-:-/ absolute / inch / decimal}
; #@! TF.CreationDate,2019-04-08T21:34:41-05:00
; #@! TF.GenerationSoftware,Kicad,Pcbnew,(5.1.0)-1
FMAT,2
INCH
T1C0.0157
T2C0.0276
T3C0.0390
T4C0.0394
T5C0.0400
T6C0.0433
T7C0.1000
T8C0.1024
T9C0.1100
T10C0.1260
T11C0.1772
%
G90
G05
T1
X4.522Y-4.876
X5.2135Y-5.577
X5.731Y-6.1445
X5.7745Y-6.3035
X5.8395Y-7.5095
X5.936Y-4.751
T2
X4.3Y-4.15
X4.3Y-4.45
T3
X5.7005Y-6.5595
X5.7005Y-6.6595
X5.7005Y-6.7595
X5.7005Y-6.8595
X5.7005Y-6.9595
X5.7005Y-7.0595
X5.7005Y-7.1595
X5.7005Y-7.2595
X4.85Y-4.0
X4.85Y-4.1
X4.85Y-4.2
X4.85Y-4.3
X4.85Y-4.4
X4.85Y-4.5
X4.85Y-4.6
X4.85Y-4.7
X4.85Y-4.8
X4.85Y-4.9
X4.85Y-5.0
X4.85Y-5.1
X4.85Y-5.2
X4.85Y-5.3
X4.85Y-5.4
X4.85Y-5.5
X5.65Y-4.4
X5.65Y-4.5
X5.65Y-4.6
X5.65Y-4.7
X5.65Y-4.8
X5.65Y-4.9
X5.65Y-5.0
X5.65Y-5.1
X5.65Y-5.2
X5.65Y-5.3
X5.65Y-5.4
X5.65Y-5.5
X4.1Y-6.0
X4.1Y-6.1
X4.1Y-6.2
X4.1Y-6.3
X4.1Y-6.4
X4.1Y-6.5
X4.1Y-6.6
X4.1Y-6.7
X4.1Y-6.8
X5.1Y-6.0
X5.1Y-6.1
X5.1Y-6.2
X5.1Y-6.3
X5.1Y-6.4
X5.0455Y-7.634
X5.0455Y-7.734
X5.0455Y-7.834
X5.0455Y-7.934
X5.0455Y-8.034
X5.0455Y-8.134
X5.0455Y-8.234
T4
X4.1065Y-7.25
X4.1065Y-7.35
X4.1065Y-7.45
X4.0555Y-4.964
X4.1555Y-4.964
X4.2555Y-4.964
X4.0555Y-4.8205
X4.1555Y-4.8205
X4.2555Y-4.8205
T5
X4.7Y-7.775
X4.7Y-7.875
X4.7Y-7.975
X4.7Y-8.075
X5.4Y-7.675
X5.4Y-7.775
X5.4Y-7.875
X5.4Y-7.975
X5.4Y-8.075
X5.4Y-8.175
T6
X4.052Y-5.2885
X4.1375Y-5.493
X4.55Y-4.45
X5.0925Y-5.539
X5.231Y-4.82
X5.291Y-5.297
X5.3435Y-4.618
T7
X4.9Y-3.84
X4.9Y-5.64
X5.6Y-3.84
X5.6Y-5.64
T8
X4.4455Y-7.6639
X4.4455Y-8.2139
T9
X4.75Y-7.5
X4.75Y-8.35
X5.35Y-7.5
X5.35Y-8.35
T10
X4.039Y-3.7395
X5.8585Y-8.456
X5.86Y-3.7415
X4.0385Y-8.456
T11
X4.3284Y-3.8045
X4.604Y-3.8045
T0
M30
