G04 #@! TF.GenerationSoftware,KiCad,Pcbnew,(5.1.0)-1*
G04 #@! TF.CreationDate,2019-04-08T01:07:25-05:00*
G04 #@! TF.ProjectId,TheHub2,54686548-7562-4322-9e6b-696361645f70,1.0*
G04 #@! TF.SameCoordinates,Original*
G04 #@! TF.FileFunction,Legend,Top*
G04 #@! TF.FilePolarity,Positive*
%FSLAX46Y46*%
G04 Gerber Fmt 4.6, Leading zero omitted, Abs format (unit mm)*
G04 Created by KiCad (PCBNEW (5.1.0)-1) date 2019-04-08 01:07:25*
%MOMM*%
%LPD*%
G04 APERTURE LIST*
%ADD10C,0.300000*%
%ADD11C,0.127000*%
%ADD12C,0.120000*%
%ADD13C,0.150000*%
%ADD14C,0.050000*%
G04 APERTURE END LIST*
D10*
X108641271Y-137997557D02*
X107141271Y-137997557D01*
X107141271Y-137426128D01*
X107212700Y-137283271D01*
X107284128Y-137211842D01*
X107426985Y-137140414D01*
X107641271Y-137140414D01*
X107784128Y-137211842D01*
X107855557Y-137283271D01*
X107926985Y-137426128D01*
X107926985Y-137997557D01*
X107141271Y-136640414D02*
X108641271Y-136283271D01*
X107569842Y-135997557D01*
X108641271Y-135711842D01*
X107141271Y-135354700D01*
X108641271Y-134783271D02*
X107141271Y-134783271D01*
X108212700Y-134283271D01*
X107141271Y-133783271D01*
X108641271Y-133783271D01*
X109212700Y-131497557D02*
X109141271Y-131568985D01*
X108926985Y-131711842D01*
X108784128Y-131783271D01*
X108569842Y-131854700D01*
X108212700Y-131926128D01*
X107926985Y-131926128D01*
X107569842Y-131854700D01*
X107355557Y-131783271D01*
X107212700Y-131711842D01*
X106998414Y-131568985D01*
X106926985Y-131497557D01*
X108641271Y-130926128D02*
X107141271Y-130926128D01*
X107141271Y-130568985D01*
X107212700Y-130354700D01*
X107355557Y-130211842D01*
X107498414Y-130140414D01*
X107784128Y-130068985D01*
X107998414Y-130068985D01*
X108284128Y-130140414D01*
X108426985Y-130211842D01*
X108569842Y-130354700D01*
X108641271Y-130568985D01*
X108641271Y-130926128D01*
X108641271Y-129354700D02*
X108641271Y-129068985D01*
X108569842Y-128926128D01*
X108498414Y-128854700D01*
X108284128Y-128711842D01*
X107998414Y-128640414D01*
X107426985Y-128640414D01*
X107284128Y-128711842D01*
X107212700Y-128783271D01*
X107141271Y-128926128D01*
X107141271Y-129211842D01*
X107212700Y-129354700D01*
X107284128Y-129426128D01*
X107426985Y-129497557D01*
X107784128Y-129497557D01*
X107926985Y-129426128D01*
X107998414Y-129354700D01*
X108069842Y-129211842D01*
X108069842Y-128926128D01*
X107998414Y-128783271D01*
X107926985Y-128711842D01*
X107784128Y-128640414D01*
X109212700Y-128140414D02*
X109141271Y-128068985D01*
X108926985Y-127926128D01*
X108784128Y-127854700D01*
X108569842Y-127783271D01*
X108212700Y-127711842D01*
X107926985Y-127711842D01*
X107569842Y-127783271D01*
X107355557Y-127854700D01*
X107212700Y-127926128D01*
X106998414Y-128068985D01*
X106926985Y-128140414D01*
X104652071Y-129706642D02*
X104652071Y-129992357D01*
X104723500Y-130135214D01*
X104794928Y-130206642D01*
X105009214Y-130349500D01*
X105294928Y-130420928D01*
X105866357Y-130420928D01*
X106009214Y-130349500D01*
X106080642Y-130278071D01*
X106152071Y-130135214D01*
X106152071Y-129849500D01*
X106080642Y-129706642D01*
X106009214Y-129635214D01*
X105866357Y-129563785D01*
X105509214Y-129563785D01*
X105366357Y-129635214D01*
X105294928Y-129706642D01*
X105223500Y-129849500D01*
X105223500Y-130135214D01*
X105294928Y-130278071D01*
X105366357Y-130349500D01*
X105509214Y-130420928D01*
X104652071Y-129135214D02*
X106152071Y-128635214D01*
X104652071Y-128135214D01*
X102208900Y-130530457D02*
X102137471Y-130673314D01*
X102137471Y-130887600D01*
X102208900Y-131101885D01*
X102351757Y-131244742D01*
X102494614Y-131316171D01*
X102780328Y-131387600D01*
X102994614Y-131387600D01*
X103280328Y-131316171D01*
X103423185Y-131244742D01*
X103566042Y-131101885D01*
X103637471Y-130887600D01*
X103637471Y-130744742D01*
X103566042Y-130530457D01*
X103494614Y-130459028D01*
X102994614Y-130459028D01*
X102994614Y-130744742D01*
X103637471Y-129816171D02*
X102137471Y-129816171D01*
X103637471Y-128959028D01*
X102137471Y-128959028D01*
X103637471Y-128244742D02*
X102137471Y-128244742D01*
X102137471Y-127887600D01*
X102208900Y-127673314D01*
X102351757Y-127530457D01*
X102494614Y-127459028D01*
X102780328Y-127387600D01*
X102994614Y-127387600D01*
X103280328Y-127459028D01*
X103423185Y-127530457D01*
X103566042Y-127673314D01*
X103637471Y-127887600D01*
X103637471Y-128244742D01*
D11*
X144820000Y-154900000D02*
X144820000Y-149900000D01*
X148320000Y-149900000D02*
X146320000Y-149900000D01*
X149820000Y-149900000D02*
X149820000Y-153670000D01*
X149820000Y-153670000D02*
X148590000Y-154900000D01*
X148590000Y-154900000D02*
X146320000Y-154900000D01*
D12*
X111260000Y-104990000D02*
X112260000Y-104990000D01*
X112260000Y-103290000D02*
X111260000Y-103290000D01*
X106180000Y-104990000D02*
X107180000Y-104990000D01*
X107180000Y-103290000D02*
X106180000Y-103290000D01*
X108310000Y-117540000D02*
X105510000Y-117540000D01*
X108310000Y-116140000D02*
X105510000Y-116140000D01*
X108310000Y-117540000D02*
X108310000Y-116140000D01*
X150430000Y-124820000D02*
X151830000Y-124820000D01*
X151830000Y-124820000D02*
X151830000Y-122020000D01*
X150430000Y-124820000D02*
X150430000Y-122020000D01*
X151830000Y-126640000D02*
X151830000Y-129440000D01*
X150430000Y-126640000D02*
X150430000Y-129440000D01*
X151830000Y-126640000D02*
X150430000Y-126640000D01*
X109394300Y-126920300D02*
X109394300Y-124260300D01*
X104254300Y-126920300D02*
X109394300Y-126920300D01*
X104254300Y-124260300D02*
X109394300Y-124260300D01*
X104254300Y-126920300D02*
X104254300Y-124260300D01*
X102984300Y-126920300D02*
X101654300Y-126920300D01*
X101654300Y-126920300D02*
X101654300Y-125590300D01*
X102975100Y-182820000D02*
X104305100Y-182820000D01*
X102975100Y-184150000D02*
X102975100Y-182820000D01*
X102975100Y-185420000D02*
X105635100Y-185420000D01*
X105635100Y-185420000D02*
X105635100Y-190560000D01*
X102975100Y-185420000D02*
X102975100Y-190560000D01*
X102975100Y-190560000D02*
X105635100Y-190560000D01*
X112360000Y-117720000D02*
X111160000Y-117720000D01*
X111160000Y-115960000D02*
X112360000Y-115960000D01*
X147920000Y-148200000D02*
X146720000Y-148200000D01*
X146720000Y-146440000D02*
X147920000Y-146440000D01*
X146440000Y-123470000D02*
X146440000Y-122270000D01*
X148200000Y-122270000D02*
X148200000Y-123470000D01*
X148200000Y-127990000D02*
X148200000Y-129190000D01*
X146440000Y-129190000D02*
X146440000Y-127990000D01*
D13*
X138430000Y-190500000D02*
G75*
G03X138430000Y-190500000I-2540000J0D01*
G01*
X123190000Y-190500000D02*
G75*
G03X123190000Y-190500000I-2540000J0D01*
G01*
X123190000Y-212090000D02*
G75*
G03X123190000Y-212090000I-2540000J0D01*
G01*
X138430000Y-212090000D02*
G75*
G03X138430000Y-212090000I-2540000J0D01*
G01*
X138430000Y-214630000D02*
X138430000Y-187960000D01*
X138430000Y-187960000D02*
X118110000Y-187960000D01*
X118110000Y-187960000D02*
X118110000Y-214630000D01*
X118110000Y-214630000D02*
X138430000Y-214630000D01*
X121666000Y-95758000D02*
X121666000Y-144780000D01*
X121666000Y-144780000D02*
X121666000Y-145796000D01*
X121666000Y-145796000D02*
X144526000Y-145796000D01*
X144526000Y-145796000D02*
X144780000Y-145796000D01*
X144780000Y-145796000D02*
X145034000Y-145796000D01*
X145034000Y-145796000D02*
X145288000Y-145796000D01*
X145288000Y-145796000D02*
X145288000Y-138176000D01*
X145288000Y-138176000D02*
X145288000Y-95250000D01*
X145288000Y-95250000D02*
X121666000Y-95250000D01*
X121666000Y-95250000D02*
X121666000Y-95758000D01*
X101600000Y-152400000D02*
X101600000Y-149860000D01*
X101600000Y-149860000D02*
X132080000Y-149860000D01*
X132080000Y-149860000D02*
X132080000Y-170942000D01*
X101600000Y-152400000D02*
X101600000Y-175260000D01*
X101600000Y-175260000D02*
X132080000Y-175260000D01*
X132080000Y-175260000D02*
X132080000Y-170942000D01*
X131826000Y-166370000D02*
X125984000Y-166370000D01*
X125984000Y-166370000D02*
X125984000Y-174244000D01*
X125984000Y-174244000D02*
X131572000Y-174244000D01*
D12*
X113320000Y-113900000D02*
X107310000Y-113900000D01*
X111070000Y-107080000D02*
X107310000Y-107080000D01*
X107310000Y-113900000D02*
X107310000Y-112640000D01*
X107310000Y-107080000D02*
X107310000Y-108340000D01*
D13*
X101257266Y-91235680D02*
X100923933Y-90759490D01*
X100685838Y-91235680D02*
X100685838Y-90235680D01*
X101066790Y-90235680D01*
X101162028Y-90283300D01*
X101209647Y-90330919D01*
X101257266Y-90426157D01*
X101257266Y-90569014D01*
X101209647Y-90664252D01*
X101162028Y-90711871D01*
X101066790Y-90759490D01*
X100685838Y-90759490D01*
X101685838Y-90711871D02*
X102019171Y-90711871D01*
X102162028Y-91235680D02*
X101685838Y-91235680D01*
X101685838Y-90235680D01*
X102162028Y-90235680D01*
X102923933Y-90711871D02*
X102590600Y-90711871D01*
X102590600Y-91235680D02*
X102590600Y-90235680D01*
X103066790Y-90235680D01*
X103590600Y-90235680D02*
X103590600Y-90473776D01*
X103352504Y-90378538D02*
X103590600Y-90473776D01*
X103828695Y-90378538D01*
X103447742Y-90664252D02*
X103590600Y-90473776D01*
X103733457Y-90664252D01*
X104352504Y-90235680D02*
X104352504Y-90473776D01*
X104114409Y-90378538D02*
X104352504Y-90473776D01*
X104590600Y-90378538D01*
X104209647Y-90664252D02*
X104352504Y-90473776D01*
X104495361Y-90664252D01*
X147510666Y-91286480D02*
X147177333Y-90810290D01*
X146939238Y-91286480D02*
X146939238Y-90286480D01*
X147320190Y-90286480D01*
X147415428Y-90334100D01*
X147463047Y-90381719D01*
X147510666Y-90476957D01*
X147510666Y-90619814D01*
X147463047Y-90715052D01*
X147415428Y-90762671D01*
X147320190Y-90810290D01*
X146939238Y-90810290D01*
X147939238Y-90762671D02*
X148272571Y-90762671D01*
X148415428Y-91286480D02*
X147939238Y-91286480D01*
X147939238Y-90286480D01*
X148415428Y-90286480D01*
X149177333Y-90762671D02*
X148844000Y-90762671D01*
X148844000Y-91286480D02*
X148844000Y-90286480D01*
X149320190Y-90286480D01*
X149844000Y-90286480D02*
X149844000Y-90524576D01*
X149605904Y-90429338D02*
X149844000Y-90524576D01*
X150082095Y-90429338D01*
X149701142Y-90715052D02*
X149844000Y-90524576D01*
X149986857Y-90715052D01*
X150605904Y-90286480D02*
X150605904Y-90524576D01*
X150367809Y-90429338D02*
X150605904Y-90524576D01*
X150844000Y-90429338D01*
X150463047Y-90715052D02*
X150605904Y-90524576D01*
X150748761Y-90715052D01*
X101244566Y-211034780D02*
X100911233Y-210558590D01*
X100673138Y-211034780D02*
X100673138Y-210034780D01*
X101054090Y-210034780D01*
X101149328Y-210082400D01*
X101196947Y-210130019D01*
X101244566Y-210225257D01*
X101244566Y-210368114D01*
X101196947Y-210463352D01*
X101149328Y-210510971D01*
X101054090Y-210558590D01*
X100673138Y-210558590D01*
X101673138Y-210510971D02*
X102006471Y-210510971D01*
X102149328Y-211034780D02*
X101673138Y-211034780D01*
X101673138Y-210034780D01*
X102149328Y-210034780D01*
X102911233Y-210510971D02*
X102577900Y-210510971D01*
X102577900Y-211034780D02*
X102577900Y-210034780D01*
X103054090Y-210034780D01*
X103577900Y-210034780D02*
X103577900Y-210272876D01*
X103339804Y-210177638D02*
X103577900Y-210272876D01*
X103815995Y-210177638D01*
X103435042Y-210463352D02*
X103577900Y-210272876D01*
X103720757Y-210463352D01*
X104339804Y-210034780D02*
X104339804Y-210272876D01*
X104101709Y-210177638D02*
X104339804Y-210272876D01*
X104577900Y-210177638D01*
X104196947Y-210463352D02*
X104339804Y-210272876D01*
X104482661Y-210463352D01*
X147472566Y-211034780D02*
X147139233Y-210558590D01*
X146901138Y-211034780D02*
X146901138Y-210034780D01*
X147282090Y-210034780D01*
X147377328Y-210082400D01*
X147424947Y-210130019D01*
X147472566Y-210225257D01*
X147472566Y-210368114D01*
X147424947Y-210463352D01*
X147377328Y-210510971D01*
X147282090Y-210558590D01*
X146901138Y-210558590D01*
X147901138Y-210510971D02*
X148234471Y-210510971D01*
X148377328Y-211034780D02*
X147901138Y-211034780D01*
X147901138Y-210034780D01*
X148377328Y-210034780D01*
X149139233Y-210510971D02*
X148805900Y-210510971D01*
X148805900Y-211034780D02*
X148805900Y-210034780D01*
X149282090Y-210034780D01*
X149805900Y-210034780D02*
X149805900Y-210272876D01*
X149567804Y-210177638D02*
X149805900Y-210272876D01*
X150043995Y-210177638D01*
X149663042Y-210463352D02*
X149805900Y-210272876D01*
X149948757Y-210463352D01*
X150567804Y-210034780D02*
X150567804Y-210272876D01*
X150329709Y-210177638D02*
X150567804Y-210272876D01*
X150805900Y-210177638D01*
X150424947Y-210463352D02*
X150567804Y-210272876D01*
X150710661Y-210463352D01*
D14*
X150748495Y-153281886D02*
X150796165Y-153138877D01*
X150843834Y-153091208D01*
X150939173Y-153043538D01*
X151082182Y-153043538D01*
X151177521Y-153091208D01*
X151225190Y-153138877D01*
X151272860Y-153234216D01*
X151272860Y-153615572D01*
X150271800Y-153615572D01*
X150271800Y-153281886D01*
X150319470Y-153186547D01*
X150367139Y-153138877D01*
X150462478Y-153091208D01*
X150557817Y-153091208D01*
X150653156Y-153138877D01*
X150700826Y-153186547D01*
X150748495Y-153281886D01*
X150748495Y-153615572D01*
X150271800Y-152709851D02*
X150271800Y-152042478D01*
X151272860Y-152709851D01*
X151272860Y-152042478D01*
X151272860Y-151136757D02*
X151272860Y-151708791D01*
X151272860Y-151422774D02*
X150271800Y-151422774D01*
X150414809Y-151518113D01*
X150510148Y-151613452D01*
X150557817Y-151708791D01*
X143793122Y-154203802D02*
X143840747Y-154060926D01*
X143888372Y-154013301D01*
X143983623Y-153965675D01*
X144126498Y-153965675D01*
X144221749Y-154013301D01*
X144269374Y-154060926D01*
X144316999Y-154156176D01*
X144316999Y-154537178D01*
X143316869Y-154537178D01*
X143316869Y-154203802D01*
X143364495Y-154108551D01*
X143412120Y-154060926D01*
X143507370Y-154013301D01*
X143602621Y-154013301D01*
X143697871Y-154060926D01*
X143745496Y-154108551D01*
X143793122Y-154203802D01*
X143793122Y-154537178D01*
X143650246Y-153108421D02*
X144316999Y-153108421D01*
X143650246Y-153537048D02*
X144174124Y-153537048D01*
X144269374Y-153489423D01*
X144316999Y-153394173D01*
X144316999Y-153251297D01*
X144269374Y-153156046D01*
X144221749Y-153108421D01*
X143650246Y-152727419D02*
X143650246Y-152203542D01*
X144316999Y-152727419D01*
X144316999Y-152203542D01*
X143650246Y-151917790D02*
X143650246Y-151393913D01*
X144316999Y-151917790D01*
X144316999Y-151393913D01*
X144269374Y-150631909D02*
X144316999Y-150727159D01*
X144316999Y-150917660D01*
X144269374Y-151012911D01*
X144174124Y-151060536D01*
X143793122Y-151060536D01*
X143697871Y-151012911D01*
X143650246Y-150917660D01*
X143650246Y-150727159D01*
X143697871Y-150631909D01*
X143793122Y-150584284D01*
X143888372Y-150584284D01*
X143983623Y-151060536D01*
X144316999Y-150155656D02*
X143650246Y-150155656D01*
X143840747Y-150155656D02*
X143745496Y-150108031D01*
X143697871Y-150060406D01*
X143650246Y-149965155D01*
X143650246Y-149869905D01*
X144828758Y-149537572D02*
X144828758Y-148775667D01*
X145209710Y-149156620D02*
X144447806Y-149156620D01*
X145548018Y-156577972D02*
X145548018Y-155816067D01*
D13*
X111593333Y-105997142D02*
X111545714Y-106044761D01*
X111402857Y-106092380D01*
X111307619Y-106092380D01*
X111164761Y-106044761D01*
X111069523Y-105949523D01*
X111021904Y-105854285D01*
X110974285Y-105663809D01*
X110974285Y-105520952D01*
X111021904Y-105330476D01*
X111069523Y-105235238D01*
X111164761Y-105140000D01*
X111307619Y-105092380D01*
X111402857Y-105092380D01*
X111545714Y-105140000D01*
X111593333Y-105187619D01*
X112545714Y-106092380D02*
X111974285Y-106092380D01*
X112260000Y-106092380D02*
X112260000Y-105092380D01*
X112164761Y-105235238D01*
X112069523Y-105330476D01*
X111974285Y-105378095D01*
X106513333Y-102997142D02*
X106465714Y-103044761D01*
X106322857Y-103092380D01*
X106227619Y-103092380D01*
X106084761Y-103044761D01*
X105989523Y-102949523D01*
X105941904Y-102854285D01*
X105894285Y-102663809D01*
X105894285Y-102520952D01*
X105941904Y-102330476D01*
X105989523Y-102235238D01*
X106084761Y-102140000D01*
X106227619Y-102092380D01*
X106322857Y-102092380D01*
X106465714Y-102140000D01*
X106513333Y-102187619D01*
X106846666Y-102092380D02*
X107465714Y-102092380D01*
X107132380Y-102473333D01*
X107275238Y-102473333D01*
X107370476Y-102520952D01*
X107418095Y-102568571D01*
X107465714Y-102663809D01*
X107465714Y-102901904D01*
X107418095Y-102997142D01*
X107370476Y-103044761D01*
X107275238Y-103092380D01*
X106989523Y-103092380D01*
X106894285Y-103044761D01*
X106846666Y-102997142D01*
X105771904Y-118742380D02*
X105771904Y-117742380D01*
X106010000Y-117742380D01*
X106152857Y-117790000D01*
X106248095Y-117885238D01*
X106295714Y-117980476D01*
X106343333Y-118170952D01*
X106343333Y-118313809D01*
X106295714Y-118504285D01*
X106248095Y-118599523D01*
X106152857Y-118694761D01*
X106010000Y-118742380D01*
X105771904Y-118742380D01*
X107295714Y-118742380D02*
X106724285Y-118742380D01*
X107010000Y-118742380D02*
X107010000Y-117742380D01*
X106914761Y-117885238D01*
X106819523Y-117980476D01*
X106724285Y-118028095D01*
X151582380Y-120118095D02*
X150582380Y-120118095D01*
X150582380Y-119880000D01*
X150630000Y-119737142D01*
X150725238Y-119641904D01*
X150820476Y-119594285D01*
X151010952Y-119546666D01*
X151153809Y-119546666D01*
X151344285Y-119594285D01*
X151439523Y-119641904D01*
X151534761Y-119737142D01*
X151582380Y-119880000D01*
X151582380Y-120118095D01*
X150582380Y-118641904D02*
X150582380Y-119118095D01*
X151058571Y-119165714D01*
X151010952Y-119118095D01*
X150963333Y-119022857D01*
X150963333Y-118784761D01*
X151010952Y-118689523D01*
X151058571Y-118641904D01*
X151153809Y-118594285D01*
X151391904Y-118594285D01*
X151487142Y-118641904D01*
X151534761Y-118689523D01*
X151582380Y-118784761D01*
X151582380Y-119022857D01*
X151534761Y-119118095D01*
X151487142Y-119165714D01*
X151582380Y-132818095D02*
X150582380Y-132818095D01*
X150582380Y-132580000D01*
X150630000Y-132437142D01*
X150725238Y-132341904D01*
X150820476Y-132294285D01*
X151010952Y-132246666D01*
X151153809Y-132246666D01*
X151344285Y-132294285D01*
X151439523Y-132341904D01*
X151534761Y-132437142D01*
X151582380Y-132580000D01*
X151582380Y-132818095D01*
X150582380Y-131389523D02*
X150582380Y-131580000D01*
X150630000Y-131675238D01*
X150677619Y-131722857D01*
X150820476Y-131818095D01*
X151010952Y-131865714D01*
X151391904Y-131865714D01*
X151487142Y-131818095D01*
X151534761Y-131770476D01*
X151582380Y-131675238D01*
X151582380Y-131484761D01*
X151534761Y-131389523D01*
X151487142Y-131341904D01*
X151391904Y-131294285D01*
X151153809Y-131294285D01*
X151058571Y-131341904D01*
X151010952Y-131389523D01*
X150963333Y-131484761D01*
X150963333Y-131675238D01*
X151010952Y-131770476D01*
X151058571Y-131818095D01*
X151153809Y-131865714D01*
X113418266Y-93546680D02*
X113418266Y-94260966D01*
X113370647Y-94403823D01*
X113275409Y-94499061D01*
X113132552Y-94546680D01*
X113037314Y-94546680D01*
X114418266Y-94546680D02*
X113846838Y-94546680D01*
X114132552Y-94546680D02*
X114132552Y-93546680D01*
X114037314Y-93689538D01*
X113942076Y-93784776D01*
X113846838Y-93832395D01*
X100106680Y-125923633D02*
X100820966Y-125923633D01*
X100963823Y-125971252D01*
X101059061Y-126066490D01*
X101106680Y-126209347D01*
X101106680Y-126304585D01*
X100201919Y-125495061D02*
X100154300Y-125447442D01*
X100106680Y-125352204D01*
X100106680Y-125114109D01*
X100154300Y-125018871D01*
X100201919Y-124971252D01*
X100297157Y-124923633D01*
X100392395Y-124923633D01*
X100535252Y-124971252D01*
X101106680Y-125542680D01*
X101106680Y-124923633D01*
X110799061Y-127780776D02*
X110846680Y-127637919D01*
X110846680Y-127399823D01*
X110799061Y-127304585D01*
X110751442Y-127256966D01*
X110656204Y-127209347D01*
X110560966Y-127209347D01*
X110465728Y-127256966D01*
X110418109Y-127304585D01*
X110370490Y-127399823D01*
X110322871Y-127590300D01*
X110275252Y-127685538D01*
X110227633Y-127733157D01*
X110132395Y-127780776D01*
X110037157Y-127780776D01*
X109941919Y-127733157D01*
X109894300Y-127685538D01*
X109846680Y-127590300D01*
X109846680Y-127352204D01*
X109894300Y-127209347D01*
X110322871Y-126780776D02*
X110322871Y-126447442D01*
X110846680Y-126304585D02*
X110846680Y-126780776D01*
X109846680Y-126780776D01*
X109846680Y-126304585D01*
X110846680Y-125304585D02*
X110370490Y-125637919D01*
X110846680Y-125876014D02*
X109846680Y-125876014D01*
X109846680Y-125495061D01*
X109894300Y-125399823D01*
X109941919Y-125352204D01*
X110037157Y-125304585D01*
X110180014Y-125304585D01*
X110275252Y-125352204D01*
X110322871Y-125399823D01*
X110370490Y-125495061D01*
X110370490Y-125876014D01*
X109846680Y-125018871D02*
X110846680Y-124685538D01*
X109846680Y-124352204D01*
X109846680Y-123828395D02*
X109846680Y-123637919D01*
X109894300Y-123542680D01*
X109989538Y-123447442D01*
X110180014Y-123399823D01*
X110513347Y-123399823D01*
X110703823Y-123447442D01*
X110799061Y-123542680D01*
X110846680Y-123637919D01*
X110846680Y-123828395D01*
X110799061Y-123923633D01*
X110703823Y-124018871D01*
X110513347Y-124066490D01*
X110180014Y-124066490D01*
X109989538Y-124018871D01*
X109894300Y-123923633D01*
X109846680Y-123828395D01*
X103971766Y-181272380D02*
X103971766Y-181986666D01*
X103924147Y-182129523D01*
X103828909Y-182224761D01*
X103686052Y-182272380D01*
X103590814Y-182272380D01*
X104352719Y-181272380D02*
X104971766Y-181272380D01*
X104638433Y-181653333D01*
X104781290Y-181653333D01*
X104876528Y-181700952D01*
X104924147Y-181748571D01*
X104971766Y-181843809D01*
X104971766Y-182081904D01*
X104924147Y-182177142D01*
X104876528Y-182224761D01*
X104781290Y-182272380D01*
X104495576Y-182272380D01*
X104400338Y-182224761D01*
X104352719Y-182177142D01*
X103328909Y-192012380D02*
X103328909Y-191012380D01*
X103757480Y-191107619D02*
X103805100Y-191060000D01*
X103900338Y-191012380D01*
X104138433Y-191012380D01*
X104233671Y-191060000D01*
X104281290Y-191107619D01*
X104328909Y-191202857D01*
X104328909Y-191298095D01*
X104281290Y-191440952D01*
X103709861Y-192012380D01*
X104328909Y-192012380D01*
X105328909Y-191917142D02*
X105281290Y-191964761D01*
X105138433Y-192012380D01*
X105043195Y-192012380D01*
X104900338Y-191964761D01*
X104805100Y-191869523D01*
X104757480Y-191774285D01*
X104709861Y-191583809D01*
X104709861Y-191440952D01*
X104757480Y-191250476D01*
X104805100Y-191155238D01*
X104900338Y-191060000D01*
X105043195Y-191012380D01*
X105138433Y-191012380D01*
X105281290Y-191060000D01*
X105328909Y-191107619D01*
X111593333Y-115642380D02*
X111260000Y-115166190D01*
X111021904Y-115642380D02*
X111021904Y-114642380D01*
X111402857Y-114642380D01*
X111498095Y-114690000D01*
X111545714Y-114737619D01*
X111593333Y-114832857D01*
X111593333Y-114975714D01*
X111545714Y-115070952D01*
X111498095Y-115118571D01*
X111402857Y-115166190D01*
X111021904Y-115166190D01*
X112545714Y-115642380D02*
X111974285Y-115642380D01*
X112260000Y-115642380D02*
X112260000Y-114642380D01*
X112164761Y-114785238D01*
X112069523Y-114880476D01*
X111974285Y-114928095D01*
X147153333Y-146122380D02*
X146820000Y-145646190D01*
X146581904Y-146122380D02*
X146581904Y-145122380D01*
X146962857Y-145122380D01*
X147058095Y-145170000D01*
X147105714Y-145217619D01*
X147153333Y-145312857D01*
X147153333Y-145455714D01*
X147105714Y-145550952D01*
X147058095Y-145598571D01*
X146962857Y-145646190D01*
X146581904Y-145646190D01*
X148058095Y-145122380D02*
X147581904Y-145122380D01*
X147534285Y-145598571D01*
X147581904Y-145550952D01*
X147677142Y-145503333D01*
X147915238Y-145503333D01*
X148010476Y-145550952D01*
X148058095Y-145598571D01*
X148105714Y-145693809D01*
X148105714Y-145931904D01*
X148058095Y-146027142D01*
X148010476Y-146074761D01*
X147915238Y-146122380D01*
X147677142Y-146122380D01*
X147581904Y-146074761D01*
X147534285Y-146027142D01*
X147772380Y-119546666D02*
X147296190Y-119880000D01*
X147772380Y-120118095D02*
X146772380Y-120118095D01*
X146772380Y-119737142D01*
X146820000Y-119641904D01*
X146867619Y-119594285D01*
X146962857Y-119546666D01*
X147105714Y-119546666D01*
X147200952Y-119594285D01*
X147248571Y-119641904D01*
X147296190Y-119737142D01*
X147296190Y-120118095D01*
X147200952Y-118975238D02*
X147153333Y-119070476D01*
X147105714Y-119118095D01*
X147010476Y-119165714D01*
X146962857Y-119165714D01*
X146867619Y-119118095D01*
X146820000Y-119070476D01*
X146772380Y-118975238D01*
X146772380Y-118784761D01*
X146820000Y-118689523D01*
X146867619Y-118641904D01*
X146962857Y-118594285D01*
X147010476Y-118594285D01*
X147105714Y-118641904D01*
X147153333Y-118689523D01*
X147200952Y-118784761D01*
X147200952Y-118975238D01*
X147248571Y-119070476D01*
X147296190Y-119118095D01*
X147391428Y-119165714D01*
X147581904Y-119165714D01*
X147677142Y-119118095D01*
X147724761Y-119070476D01*
X147772380Y-118975238D01*
X147772380Y-118784761D01*
X147724761Y-118689523D01*
X147677142Y-118641904D01*
X147581904Y-118594285D01*
X147391428Y-118594285D01*
X147296190Y-118641904D01*
X147248571Y-118689523D01*
X147200952Y-118784761D01*
X147772380Y-132246666D02*
X147296190Y-132580000D01*
X147772380Y-132818095D02*
X146772380Y-132818095D01*
X146772380Y-132437142D01*
X146820000Y-132341904D01*
X146867619Y-132294285D01*
X146962857Y-132246666D01*
X147105714Y-132246666D01*
X147200952Y-132294285D01*
X147248571Y-132341904D01*
X147296190Y-132437142D01*
X147296190Y-132818095D01*
X147772380Y-131770476D02*
X147772380Y-131580000D01*
X147724761Y-131484761D01*
X147677142Y-131437142D01*
X147534285Y-131341904D01*
X147343809Y-131294285D01*
X146962857Y-131294285D01*
X146867619Y-131341904D01*
X146820000Y-131389523D01*
X146772380Y-131484761D01*
X146772380Y-131675238D01*
X146820000Y-131770476D01*
X146867619Y-131818095D01*
X146962857Y-131865714D01*
X147200952Y-131865714D01*
X147296190Y-131818095D01*
X147343809Y-131770476D01*
X147391428Y-131675238D01*
X147391428Y-131484761D01*
X147343809Y-131389523D01*
X147296190Y-131341904D01*
X147200952Y-131294285D01*
X132802380Y-196341904D02*
X133611904Y-196341904D01*
X133707142Y-196294285D01*
X133754761Y-196246666D01*
X133802380Y-196151428D01*
X133802380Y-195960952D01*
X133754761Y-195865714D01*
X133707142Y-195818095D01*
X133611904Y-195770476D01*
X132802380Y-195770476D01*
X133802380Y-194770476D02*
X133802380Y-195341904D01*
X133802380Y-195056190D02*
X132802380Y-195056190D01*
X132945238Y-195151428D01*
X133040476Y-195246666D01*
X133088095Y-195341904D01*
X128198571Y-203699761D02*
X128246190Y-203556904D01*
X128293809Y-203509285D01*
X128389047Y-203461666D01*
X128531904Y-203461666D01*
X128627142Y-203509285D01*
X128674761Y-203556904D01*
X128722380Y-203652142D01*
X128722380Y-204033095D01*
X127722380Y-204033095D01*
X127722380Y-203699761D01*
X127770000Y-203604523D01*
X127817619Y-203556904D01*
X127912857Y-203509285D01*
X128008095Y-203509285D01*
X128103333Y-203556904D01*
X128150952Y-203604523D01*
X128198571Y-203699761D01*
X128198571Y-204033095D01*
X128722380Y-203033095D02*
X127722380Y-203033095D01*
X128722380Y-202461666D01*
X127722380Y-202461666D01*
X127722380Y-201795000D02*
X127722380Y-201604523D01*
X127770000Y-201509285D01*
X127865238Y-201414047D01*
X128055714Y-201366428D01*
X128389047Y-201366428D01*
X128579523Y-201414047D01*
X128674761Y-201509285D01*
X128722380Y-201604523D01*
X128722380Y-201795000D01*
X128674761Y-201890238D01*
X128579523Y-201985476D01*
X128389047Y-202033095D01*
X128055714Y-202033095D01*
X127865238Y-201985476D01*
X127770000Y-201890238D01*
X127722380Y-201795000D01*
X127722380Y-200747380D02*
X127722380Y-200652142D01*
X127770000Y-200556904D01*
X127817619Y-200509285D01*
X127912857Y-200461666D01*
X128103333Y-200414047D01*
X128341428Y-200414047D01*
X128531904Y-200461666D01*
X128627142Y-200509285D01*
X128674761Y-200556904D01*
X128722380Y-200652142D01*
X128722380Y-200747380D01*
X128674761Y-200842619D01*
X128627142Y-200890238D01*
X128531904Y-200937857D01*
X128341428Y-200985476D01*
X128103333Y-200985476D01*
X127912857Y-200937857D01*
X127817619Y-200890238D01*
X127770000Y-200842619D01*
X127722380Y-200747380D01*
X127722380Y-199509285D02*
X127722380Y-199985476D01*
X128198571Y-200033095D01*
X128150952Y-199985476D01*
X128103333Y-199890238D01*
X128103333Y-199652142D01*
X128150952Y-199556904D01*
X128198571Y-199509285D01*
X128293809Y-199461666D01*
X128531904Y-199461666D01*
X128627142Y-199509285D01*
X128674761Y-199556904D01*
X128722380Y-199652142D01*
X128722380Y-199890238D01*
X128674761Y-199985476D01*
X128627142Y-200033095D01*
X127722380Y-198556904D02*
X127722380Y-199033095D01*
X128198571Y-199080714D01*
X128150952Y-199033095D01*
X128103333Y-198937857D01*
X128103333Y-198699761D01*
X128150952Y-198604523D01*
X128198571Y-198556904D01*
X128293809Y-198509285D01*
X128531904Y-198509285D01*
X128627142Y-198556904D01*
X128674761Y-198604523D01*
X128722380Y-198699761D01*
X128722380Y-198937857D01*
X128674761Y-199033095D01*
X128627142Y-199080714D01*
X134834380Y-119633904D02*
X135643904Y-119633904D01*
X135739142Y-119586285D01*
X135786761Y-119538666D01*
X135834380Y-119443428D01*
X135834380Y-119252952D01*
X135786761Y-119157714D01*
X135739142Y-119110095D01*
X135643904Y-119062476D01*
X134834380Y-119062476D01*
X134929619Y-118633904D02*
X134882000Y-118586285D01*
X134834380Y-118491047D01*
X134834380Y-118252952D01*
X134882000Y-118157714D01*
X134929619Y-118110095D01*
X135024857Y-118062476D01*
X135120095Y-118062476D01*
X135262952Y-118110095D01*
X135834380Y-118681523D01*
X135834380Y-118062476D01*
X133532571Y-121371904D02*
X133532571Y-121705238D01*
X134056380Y-121705238D02*
X133056380Y-121705238D01*
X133056380Y-121229047D01*
X134008761Y-120467142D02*
X134056380Y-120562380D01*
X134056380Y-120752857D01*
X134008761Y-120848095D01*
X133913523Y-120895714D01*
X133532571Y-120895714D01*
X133437333Y-120848095D01*
X133389714Y-120752857D01*
X133389714Y-120562380D01*
X133437333Y-120467142D01*
X133532571Y-120419523D01*
X133627809Y-120419523D01*
X133723047Y-120895714D01*
X134056380Y-119562380D02*
X133532571Y-119562380D01*
X133437333Y-119610000D01*
X133389714Y-119705238D01*
X133389714Y-119895714D01*
X133437333Y-119990952D01*
X134008761Y-119562380D02*
X134056380Y-119657619D01*
X134056380Y-119895714D01*
X134008761Y-119990952D01*
X133913523Y-120038571D01*
X133818285Y-120038571D01*
X133723047Y-119990952D01*
X133675428Y-119895714D01*
X133675428Y-119657619D01*
X133627809Y-119562380D01*
X133389714Y-119229047D02*
X133389714Y-118848095D01*
X133056380Y-119086190D02*
X133913523Y-119086190D01*
X134008761Y-119038571D01*
X134056380Y-118943333D01*
X134056380Y-118848095D01*
X134056380Y-118514761D02*
X133056380Y-118514761D01*
X134056380Y-118086190D02*
X133532571Y-118086190D01*
X133437333Y-118133809D01*
X133389714Y-118229047D01*
X133389714Y-118371904D01*
X133437333Y-118467142D01*
X133484952Y-118514761D01*
X134008761Y-117229047D02*
X134056380Y-117324285D01*
X134056380Y-117514761D01*
X134008761Y-117610000D01*
X133913523Y-117657619D01*
X133532571Y-117657619D01*
X133437333Y-117610000D01*
X133389714Y-117514761D01*
X133389714Y-117324285D01*
X133437333Y-117229047D01*
X133532571Y-117181428D01*
X133627809Y-117181428D01*
X133723047Y-117657619D01*
X134056380Y-116752857D02*
X133389714Y-116752857D01*
X133580190Y-116752857D02*
X133484952Y-116705238D01*
X133437333Y-116657619D01*
X133389714Y-116562380D01*
X133389714Y-116467142D01*
X134056380Y-116133809D02*
X133056380Y-116133809D01*
X133770666Y-115800476D01*
X133056380Y-115467142D01*
X134056380Y-115467142D01*
X133056380Y-114800476D02*
X133056380Y-114705238D01*
X133104000Y-114610000D01*
X133151619Y-114562380D01*
X133246857Y-114514761D01*
X133437333Y-114467142D01*
X133675428Y-114467142D01*
X133865904Y-114514761D01*
X133961142Y-114562380D01*
X134008761Y-114610000D01*
X134056380Y-114705238D01*
X134056380Y-114800476D01*
X134008761Y-114895714D01*
X133961142Y-114943333D01*
X133865904Y-114990952D01*
X133675428Y-115038571D01*
X133437333Y-115038571D01*
X133246857Y-114990952D01*
X133151619Y-114943333D01*
X133104000Y-114895714D01*
X133056380Y-114800476D01*
X114514380Y-162051904D02*
X115323904Y-162051904D01*
X115419142Y-162004285D01*
X115466761Y-161956666D01*
X115514380Y-161861428D01*
X115514380Y-161670952D01*
X115466761Y-161575714D01*
X115419142Y-161528095D01*
X115323904Y-161480476D01*
X114514380Y-161480476D01*
X114514380Y-161099523D02*
X114514380Y-160480476D01*
X114895333Y-160813809D01*
X114895333Y-160670952D01*
X114942952Y-160575714D01*
X114990571Y-160528095D01*
X115085809Y-160480476D01*
X115323904Y-160480476D01*
X115419142Y-160528095D01*
X115466761Y-160575714D01*
X115514380Y-160670952D01*
X115514380Y-160956666D01*
X115466761Y-161051904D01*
X115419142Y-161099523D01*
X118308380Y-166583619D02*
X117832190Y-166916952D01*
X118308380Y-167155047D02*
X117308380Y-167155047D01*
X117308380Y-166774095D01*
X117356000Y-166678857D01*
X117403619Y-166631238D01*
X117498857Y-166583619D01*
X117641714Y-166583619D01*
X117736952Y-166631238D01*
X117784571Y-166678857D01*
X117832190Y-166774095D01*
X117832190Y-167155047D01*
X117784571Y-165821714D02*
X117784571Y-166155047D01*
X118308380Y-166155047D02*
X117308380Y-166155047D01*
X117308380Y-165678857D01*
X118308380Y-165297904D02*
X117308380Y-165297904D01*
X118022666Y-164964571D01*
X117308380Y-164631238D01*
X118308380Y-164631238D01*
X118308380Y-164107428D02*
X118308380Y-163916952D01*
X118260761Y-163821714D01*
X118213142Y-163774095D01*
X118070285Y-163678857D01*
X117879809Y-163631238D01*
X117498857Y-163631238D01*
X117403619Y-163678857D01*
X117356000Y-163726476D01*
X117308380Y-163821714D01*
X117308380Y-164012190D01*
X117356000Y-164107428D01*
X117403619Y-164155047D01*
X117498857Y-164202666D01*
X117736952Y-164202666D01*
X117832190Y-164155047D01*
X117879809Y-164107428D01*
X117927428Y-164012190D01*
X117927428Y-163821714D01*
X117879809Y-163726476D01*
X117832190Y-163678857D01*
X117736952Y-163631238D01*
X117308380Y-162726476D02*
X117308380Y-163202666D01*
X117784571Y-163250285D01*
X117736952Y-163202666D01*
X117689333Y-163107428D01*
X117689333Y-162869333D01*
X117736952Y-162774095D01*
X117784571Y-162726476D01*
X117879809Y-162678857D01*
X118117904Y-162678857D01*
X118213142Y-162726476D01*
X118260761Y-162774095D01*
X118308380Y-162869333D01*
X118308380Y-163107428D01*
X118260761Y-163202666D01*
X118213142Y-163250285D01*
X117927428Y-162250285D02*
X117927428Y-161488380D01*
X117784571Y-160678857D02*
X117832190Y-160536000D01*
X117879809Y-160488380D01*
X117975047Y-160440761D01*
X118117904Y-160440761D01*
X118213142Y-160488380D01*
X118260761Y-160536000D01*
X118308380Y-160631238D01*
X118308380Y-161012190D01*
X117308380Y-161012190D01*
X117308380Y-160678857D01*
X117356000Y-160583619D01*
X117403619Y-160536000D01*
X117498857Y-160488380D01*
X117594095Y-160488380D01*
X117689333Y-160536000D01*
X117736952Y-160583619D01*
X117784571Y-160678857D01*
X117784571Y-161012190D01*
X118308380Y-160012190D02*
X117641714Y-160012190D01*
X117832190Y-160012190D02*
X117736952Y-159964571D01*
X117689333Y-159916952D01*
X117641714Y-159821714D01*
X117641714Y-159726476D01*
X118260761Y-159012190D02*
X118308380Y-159107428D01*
X118308380Y-159297904D01*
X118260761Y-159393142D01*
X118165523Y-159440761D01*
X117784571Y-159440761D01*
X117689333Y-159393142D01*
X117641714Y-159297904D01*
X117641714Y-159107428D01*
X117689333Y-159012190D01*
X117784571Y-158964571D01*
X117879809Y-158964571D01*
X117975047Y-159440761D01*
X118308380Y-158107428D02*
X117784571Y-158107428D01*
X117689333Y-158155047D01*
X117641714Y-158250285D01*
X117641714Y-158440761D01*
X117689333Y-158536000D01*
X118260761Y-158107428D02*
X118308380Y-158202666D01*
X118308380Y-158440761D01*
X118260761Y-158536000D01*
X118165523Y-158583619D01*
X118070285Y-158583619D01*
X117975047Y-158536000D01*
X117927428Y-158440761D01*
X117927428Y-158202666D01*
X117879809Y-158107428D01*
X118308380Y-157631238D02*
X117308380Y-157631238D01*
X117927428Y-157536000D02*
X118308380Y-157250285D01*
X117641714Y-157250285D02*
X118022666Y-157631238D01*
X118308380Y-156678857D02*
X118260761Y-156774095D01*
X118213142Y-156821714D01*
X118117904Y-156869333D01*
X117832190Y-156869333D01*
X117736952Y-156821714D01*
X117689333Y-156774095D01*
X117641714Y-156678857D01*
X117641714Y-156536000D01*
X117689333Y-156440761D01*
X117736952Y-156393142D01*
X117832190Y-156345523D01*
X118117904Y-156345523D01*
X118213142Y-156393142D01*
X118260761Y-156440761D01*
X118308380Y-156536000D01*
X118308380Y-156678857D01*
X117641714Y-155488380D02*
X118308380Y-155488380D01*
X117641714Y-155916952D02*
X118165523Y-155916952D01*
X118260761Y-155869333D01*
X118308380Y-155774095D01*
X118308380Y-155631238D01*
X118260761Y-155536000D01*
X118213142Y-155488380D01*
X117641714Y-155155047D02*
X117641714Y-154774095D01*
X117308380Y-155012190D02*
X118165523Y-155012190D01*
X118260761Y-154964571D01*
X118308380Y-154869333D01*
X118308380Y-154774095D01*
X124658380Y-173258571D02*
X124658380Y-173734761D01*
X123658380Y-173734761D01*
X124134571Y-172925238D02*
X124134571Y-172591904D01*
X124658380Y-172449047D02*
X124658380Y-172925238D01*
X123658380Y-172925238D01*
X123658380Y-172449047D01*
X124372666Y-172068095D02*
X124372666Y-171591904D01*
X124658380Y-172163333D02*
X123658380Y-171830000D01*
X124658380Y-171496666D01*
X123658380Y-171306190D02*
X124658380Y-170972857D01*
X123658380Y-170639523D01*
X124134571Y-170306190D02*
X124134571Y-169972857D01*
X124658380Y-169830000D02*
X124658380Y-170306190D01*
X123658380Y-170306190D01*
X123658380Y-169830000D01*
X124658380Y-168068095D02*
X124182190Y-168401428D01*
X124658380Y-168639523D02*
X123658380Y-168639523D01*
X123658380Y-168258571D01*
X123706000Y-168163333D01*
X123753619Y-168115714D01*
X123848857Y-168068095D01*
X123991714Y-168068095D01*
X124086952Y-168115714D01*
X124134571Y-168163333D01*
X124182190Y-168258571D01*
X124182190Y-168639523D01*
X123658380Y-167449047D02*
X123658380Y-167258571D01*
X123706000Y-167163333D01*
X123801238Y-167068095D01*
X123991714Y-167020476D01*
X124325047Y-167020476D01*
X124515523Y-167068095D01*
X124610761Y-167163333D01*
X124658380Y-167258571D01*
X124658380Y-167449047D01*
X124610761Y-167544285D01*
X124515523Y-167639523D01*
X124325047Y-167687142D01*
X123991714Y-167687142D01*
X123801238Y-167639523D01*
X123706000Y-167544285D01*
X123658380Y-167449047D01*
X123658380Y-166401428D02*
X123658380Y-166210952D01*
X123706000Y-166115714D01*
X123801238Y-166020476D01*
X123991714Y-165972857D01*
X124325047Y-165972857D01*
X124515523Y-166020476D01*
X124610761Y-166115714D01*
X124658380Y-166210952D01*
X124658380Y-166401428D01*
X124610761Y-166496666D01*
X124515523Y-166591904D01*
X124325047Y-166639523D01*
X123991714Y-166639523D01*
X123801238Y-166591904D01*
X123706000Y-166496666D01*
X123658380Y-166401428D01*
X124658380Y-165544285D02*
X123658380Y-165544285D01*
X124372666Y-165210952D01*
X123658380Y-164877619D01*
X124658380Y-164877619D01*
X124134571Y-163306190D02*
X124134571Y-163639523D01*
X124658380Y-163639523D02*
X123658380Y-163639523D01*
X123658380Y-163163333D01*
X123658380Y-162591904D02*
X123658380Y-162401428D01*
X123706000Y-162306190D01*
X123801238Y-162210952D01*
X123991714Y-162163333D01*
X124325047Y-162163333D01*
X124515523Y-162210952D01*
X124610761Y-162306190D01*
X124658380Y-162401428D01*
X124658380Y-162591904D01*
X124610761Y-162687142D01*
X124515523Y-162782380D01*
X124325047Y-162830000D01*
X123991714Y-162830000D01*
X123801238Y-162782380D01*
X123706000Y-162687142D01*
X123658380Y-162591904D01*
X124658380Y-161163333D02*
X124182190Y-161496666D01*
X124658380Y-161734761D02*
X123658380Y-161734761D01*
X123658380Y-161353809D01*
X123706000Y-161258571D01*
X123753619Y-161210952D01*
X123848857Y-161163333D01*
X123991714Y-161163333D01*
X124086952Y-161210952D01*
X124134571Y-161258571D01*
X124182190Y-161353809D01*
X124182190Y-161734761D01*
X124372666Y-160020476D02*
X124372666Y-159544285D01*
X124658380Y-160115714D02*
X123658380Y-159782380D01*
X124658380Y-159449047D01*
X124658380Y-159115714D02*
X123658380Y-159115714D01*
X124658380Y-158544285D01*
X123658380Y-158544285D01*
X123658380Y-158210952D02*
X123658380Y-157639523D01*
X124658380Y-157925238D02*
X123658380Y-157925238D01*
X124134571Y-157306190D02*
X124134571Y-156972857D01*
X124658380Y-156830000D02*
X124658380Y-157306190D01*
X123658380Y-157306190D01*
X123658380Y-156830000D01*
X124658380Y-156401428D02*
X123658380Y-156401428D01*
X124658380Y-155830000D01*
X123658380Y-155830000D01*
X124658380Y-155353809D02*
X123658380Y-155353809D01*
X124658380Y-154782380D01*
X123658380Y-154782380D01*
X124372666Y-154353809D02*
X124372666Y-153877619D01*
X124658380Y-154449047D02*
X123658380Y-154115714D01*
X124658380Y-153782380D01*
X108458095Y-114442380D02*
X108458095Y-115251904D01*
X108505714Y-115347142D01*
X108553333Y-115394761D01*
X108648571Y-115442380D01*
X108839047Y-115442380D01*
X108934285Y-115394761D01*
X108981904Y-115347142D01*
X109029523Y-115251904D01*
X109029523Y-114442380D01*
X109934285Y-114775714D02*
X109934285Y-115442380D01*
X109696190Y-114394761D02*
X109458095Y-115109047D01*
X110077142Y-115109047D01*
M02*
