G04 #@! TF.GenerationSoftware,KiCad,Pcbnew,(5.1.0)-1*
G04 #@! TF.CreationDate,2019-04-08T01:07:25-05:00*
G04 #@! TF.ProjectId,TheHub2,54686548-7562-4322-9e6b-696361645f70,1.0*
G04 #@! TF.SameCoordinates,Original*
G04 #@! TF.FileFunction,Copper,L1,Top*
G04 #@! TF.FilePolarity,Positive*
%FSLAX46Y46*%
G04 Gerber Fmt 4.6, Leading zero omitted, Abs format (unit mm)*
G04 Created by KiCad (PCBNEW (5.1.0)-1) date 2019-04-08 01:07:25*
%MOMM*%
%LPD*%
G04 APERTURE LIST*
%ADD10C,6.400000*%
%ADD11R,1.000000X1.700000*%
%ADD12R,1.000000X1.250000*%
%ADD13R,1.200000X1.200000*%
%ADD14C,6.000000*%
%ADD15R,1.700000X1.700000*%
%ADD16O,1.700000X1.700000*%
%ADD17R,0.700000X1.300000*%
%ADD18R,1.300000X0.700000*%
%ADD19C,1.778000*%
%ADD20C,4.318000*%
%ADD21C,3.048000*%
%ADD22R,2.000000X1.500000*%
%ADD23R,2.000000X3.800000*%
%ADD24C,1.524000*%
%ADD25C,5.080000*%
%ADD26C,4.200000*%
%ADD27C,1.500000*%
%ADD28C,1.000000*%
%ADD29C,0.600000*%
%ADD30C,1.000000*%
%ADD31C,0.500000*%
%ADD32C,0.250000*%
%ADD33C,1.500000*%
%ADD34C,0.254000*%
G04 APERTURE END LIST*
D10*
X102590600Y-94983300D03*
X148844000Y-95034100D03*
X102577900Y-214782400D03*
X148805900Y-214782400D03*
D11*
X145570000Y-150600000D03*
X145570000Y-154200000D03*
X149070000Y-150600000D03*
D12*
X112760000Y-104140000D03*
X110760000Y-104140000D03*
X107680000Y-104140000D03*
X105680000Y-104140000D03*
D13*
X107610000Y-116840000D03*
X105410000Y-116840000D03*
X151130000Y-121920000D03*
X151130000Y-124120000D03*
X151130000Y-127340000D03*
X151130000Y-129540000D03*
D14*
X109941600Y-96634300D03*
X116941600Y-96634300D03*
D15*
X102984300Y-125590300D03*
D16*
X105524300Y-125590300D03*
X108064300Y-125590300D03*
X104305100Y-189230000D03*
X104305100Y-186690000D03*
D15*
X104305100Y-184150000D03*
D17*
X110810000Y-116840000D03*
X112710000Y-116840000D03*
X146370000Y-147320000D03*
X148270000Y-147320000D03*
D18*
X147320000Y-121920000D03*
X147320000Y-123820000D03*
X147320000Y-129540000D03*
X147320000Y-127640000D03*
D19*
X137160000Y-207645000D03*
X137160000Y-205105000D03*
X137160000Y-202565000D03*
X137160000Y-200025000D03*
X137160000Y-197485000D03*
X137160000Y-194945000D03*
X119380000Y-205105000D03*
X119380000Y-202565000D03*
X119380000Y-200025000D03*
X119380000Y-197485000D03*
D20*
X135890000Y-212090000D03*
X135890000Y-190500000D03*
X120650000Y-190500000D03*
X120650000Y-212090000D03*
D19*
X123190000Y-101600000D03*
X123190000Y-104140000D03*
X123190000Y-106680000D03*
X123190000Y-109220000D03*
X123190000Y-111760000D03*
X123190000Y-114300000D03*
X123190000Y-116840000D03*
X123190000Y-119380000D03*
X123190000Y-121920000D03*
X123190000Y-124460000D03*
X123190000Y-127000000D03*
X123190000Y-129540000D03*
X123190000Y-132080000D03*
X123190000Y-134620000D03*
X123190000Y-137160000D03*
X123190000Y-139700000D03*
X143510000Y-139700000D03*
X143510000Y-137160000D03*
X143510000Y-134620000D03*
X143510000Y-132080000D03*
X143510000Y-129540000D03*
X143510000Y-127000000D03*
X143510000Y-124460000D03*
X143510000Y-121920000D03*
X143510000Y-119380000D03*
X143510000Y-116840000D03*
X143510000Y-114300000D03*
X143510000Y-111760000D03*
D21*
X124460000Y-97536000D03*
X142240000Y-97536000D03*
X124460000Y-143256000D03*
X142240000Y-143256000D03*
D19*
X104140000Y-152400000D03*
X104140000Y-154940000D03*
X104140000Y-157480000D03*
X104140000Y-160020000D03*
X104140000Y-162560000D03*
X104140000Y-165100000D03*
X104140000Y-167640000D03*
X104140000Y-170180000D03*
X104140000Y-172720000D03*
X129540000Y-152400000D03*
X129540000Y-154940000D03*
X129540000Y-157480000D03*
X129540000Y-160020000D03*
X129540000Y-162560000D03*
D22*
X112370000Y-112790000D03*
X112370000Y-108190000D03*
X112370000Y-110490000D03*
D23*
X106070000Y-110490000D03*
D24*
X144780000Y-166370000D03*
X144780000Y-168910000D03*
X144780000Y-171450000D03*
X144780000Y-173990000D03*
X144780000Y-176530000D03*
D25*
X123507500Y-180721000D03*
D19*
X128155700Y-193903600D03*
X128155700Y-196443600D03*
X128155700Y-198983600D03*
X128155700Y-201523600D03*
X128155700Y-204063600D03*
X128155700Y-206603600D03*
X128155700Y-209143600D03*
D26*
X112915700Y-194663600D03*
X112915700Y-208633600D03*
D27*
X134391400Y-134543800D03*
X129349500Y-140690600D03*
D28*
X109220000Y-113030000D03*
X109220000Y-105410000D03*
D27*
X115570000Y-113030000D03*
D29*
X151130000Y-125730000D03*
X145567400Y-156070300D03*
X132422900Y-141655800D03*
D27*
X135724900Y-117297200D03*
X132867400Y-122428000D03*
X105092500Y-139522200D03*
X102920800Y-134327900D03*
D29*
X148323300Y-190741300D03*
X114858800Y-123850400D03*
D30*
X130644900Y-113880900D02*
X130594100Y-113880900D01*
X135178800Y-134683500D02*
X134531100Y-134683500D01*
X134531100Y-134683500D02*
X134391400Y-134543800D01*
X112760000Y-107800000D02*
X112370000Y-108190000D01*
X112760000Y-104140000D02*
X112760000Y-107800000D01*
X112760000Y-104015000D02*
X109075000Y-100330000D01*
X112760000Y-104140000D02*
X112760000Y-104015000D01*
X109075000Y-98295000D02*
X107300000Y-96520000D01*
X109075000Y-100330000D02*
X109075000Y-98295000D01*
D31*
X112710000Y-113130000D02*
X112370000Y-112790000D01*
X112710000Y-116840000D02*
X112710000Y-113130000D01*
X112370000Y-112790000D02*
X109460000Y-112790000D01*
X109460000Y-112790000D02*
X109220000Y-113030000D01*
X109220000Y-104140000D02*
X109220000Y-105410000D01*
X109220000Y-104140000D02*
X110760000Y-104140000D01*
X107680000Y-104140000D02*
X109220000Y-104140000D01*
D30*
X112370000Y-112790000D02*
X115330000Y-112790000D01*
X115330000Y-112790000D02*
X115570000Y-113030000D01*
D31*
X151130000Y-125730000D02*
X151130000Y-127340000D01*
X151130000Y-124120000D02*
X151130000Y-125730000D01*
D32*
X145570000Y-156067700D02*
X145567400Y-156070300D01*
X145570000Y-154200000D02*
X145570000Y-156067700D01*
D33*
X112370000Y-110490000D02*
X106070000Y-110490000D01*
D31*
X106070000Y-110490000D02*
X106070000Y-107340000D01*
X105680000Y-106950000D02*
X105680000Y-104140000D01*
X106070000Y-107340000D02*
X105680000Y-106950000D01*
X106070000Y-110490000D02*
X106070000Y-113640000D01*
X105410000Y-114300000D02*
X105410000Y-116840000D01*
X106070000Y-113640000D02*
X105410000Y-114300000D01*
X112620000Y-110490000D02*
X117700000Y-105410000D01*
X112370000Y-110490000D02*
X112620000Y-110490000D01*
X121920000Y-105410000D02*
X123190000Y-104140000D01*
X117700000Y-105410000D02*
X121920000Y-105410000D01*
D30*
X123190000Y-104140000D02*
X129082800Y-104140000D01*
X129082800Y-104140000D02*
X135724900Y-110782100D01*
X135724900Y-110782100D02*
X135724900Y-117297200D01*
X104140000Y-152400000D02*
X104140000Y-140474700D01*
X104140000Y-140474700D02*
X105092500Y-139522200D01*
D31*
X110810000Y-116840000D02*
X107610000Y-116840000D01*
X147320000Y-121920000D02*
X151130000Y-121920000D01*
X147320000Y-129540000D02*
X151130000Y-129540000D01*
D32*
X145570000Y-148420000D02*
X145570000Y-150600000D01*
X146370000Y-147320000D02*
X146370000Y-147620000D01*
X146370000Y-147620000D02*
X145570000Y-148420000D01*
X105507181Y-189230000D02*
X104305100Y-189230000D01*
X112921722Y-189230000D02*
X105507181Y-189230000D01*
X123253500Y-199561778D02*
X112921722Y-189230000D01*
X123253500Y-204241400D02*
X123253500Y-199561778D01*
X128155700Y-209143600D02*
X123253500Y-204241400D01*
X137160000Y-197485000D02*
X141579600Y-197485000D01*
X141579600Y-197485000D02*
X148323300Y-190741300D01*
X123703510Y-202151410D02*
X128155700Y-206603600D01*
X123703510Y-199375378D02*
X123703510Y-202151410D01*
X104305100Y-186690000D02*
X111018132Y-186690000D01*
X111018132Y-186690000D02*
X123703510Y-199375378D01*
X148270000Y-147320000D02*
X148270000Y-136840000D01*
X148270000Y-136840000D02*
X146050000Y-134620000D01*
X146050000Y-134620000D02*
X143510000Y-134620000D01*
D31*
X146680000Y-124460000D02*
X147320000Y-123820000D01*
X143510000Y-124460000D02*
X146680000Y-124460000D01*
X146680000Y-127000000D02*
X147320000Y-127640000D01*
X143510000Y-127000000D02*
X146680000Y-127000000D01*
D32*
X104140000Y-170180000D02*
X102184200Y-168224200D01*
X102184200Y-139128565D02*
X102184200Y-168224200D01*
X121932765Y-119380000D02*
X102184200Y-139128565D01*
X123190000Y-119380000D02*
X121932765Y-119380000D01*
X101734191Y-170314191D02*
X101734190Y-168410600D01*
X104140000Y-172720000D02*
X101734191Y-170314191D01*
X101734190Y-168410600D02*
X101734191Y-138942164D01*
X101734191Y-138942164D02*
X114858800Y-125817555D01*
X114858800Y-125817555D02*
X114858800Y-123850400D01*
X119149990Y-124460000D02*
X123190000Y-124460000D01*
X108973191Y-134636799D02*
X119149990Y-124460000D01*
X108973190Y-156444045D02*
X108973191Y-134636799D01*
X104140000Y-160020000D02*
X105397235Y-160020000D01*
X105397235Y-160020000D02*
X108973190Y-156444045D01*
X109423200Y-159816800D02*
X109423200Y-134823200D01*
X104140000Y-165100000D02*
X109423200Y-159816800D01*
X112166400Y-132080000D02*
X123190000Y-132080000D01*
X109423200Y-134823200D02*
X112166400Y-132080000D01*
X123190000Y-134620000D02*
X129641600Y-134620000D01*
X129641600Y-134620000D02*
X138353800Y-143332200D01*
X138353800Y-143332200D02*
X138353800Y-164846000D01*
X142417800Y-168910000D02*
X144780000Y-168910000D01*
X138353800Y-164846000D02*
X142417800Y-168910000D01*
X131545190Y-137160000D02*
X123190000Y-137160000D01*
X137903790Y-143518600D02*
X131545190Y-137160000D01*
X137903790Y-165032400D02*
X137903790Y-143518600D01*
X144780000Y-171450000D02*
X144321390Y-171450000D01*
X144321390Y-171450000D02*
X137903790Y-165032400D01*
X108064300Y-125590300D02*
X111544100Y-125590300D01*
X142621001Y-128651001D02*
X143510000Y-129540000D01*
X132135999Y-118165999D02*
X142621001Y-128651001D01*
X118968401Y-118165999D02*
X132135999Y-118165999D01*
X111544100Y-125590300D02*
X118968401Y-118165999D01*
D34*
G36*
X110053835Y-102913966D02*
G01*
X110015820Y-102925498D01*
X109905506Y-102984463D01*
X109808815Y-103063815D01*
X109729463Y-103160506D01*
X109678954Y-103255000D01*
X109263476Y-103255000D01*
X109220000Y-103250718D01*
X109176523Y-103255000D01*
X108761046Y-103255000D01*
X108710537Y-103160506D01*
X108631185Y-103063815D01*
X108534494Y-102984463D01*
X108424180Y-102925498D01*
X108304482Y-102889188D01*
X108180000Y-102876928D01*
X107180000Y-102876928D01*
X107055518Y-102889188D01*
X106935820Y-102925498D01*
X106825506Y-102984463D01*
X106728815Y-103063815D01*
X106680000Y-103123296D01*
X106631185Y-103063815D01*
X106534494Y-102984463D01*
X106424180Y-102925498D01*
X106304482Y-102889188D01*
X106180000Y-102876928D01*
X105965750Y-102880000D01*
X105807000Y-103038750D01*
X105807000Y-104013000D01*
X105827000Y-104013000D01*
X105827000Y-104267000D01*
X105807000Y-104267000D01*
X105807000Y-105241250D01*
X105965750Y-105400000D01*
X106180000Y-105403072D01*
X106304482Y-105390812D01*
X106424180Y-105354502D01*
X106534494Y-105295537D01*
X106631185Y-105216185D01*
X106680000Y-105156704D01*
X106728815Y-105216185D01*
X106825506Y-105295537D01*
X106935820Y-105354502D01*
X107055518Y-105390812D01*
X107180000Y-105403072D01*
X108085000Y-105403072D01*
X108085000Y-105521788D01*
X108128617Y-105741067D01*
X108214176Y-105947624D01*
X108338388Y-106133520D01*
X108496480Y-106291612D01*
X108682376Y-106415824D01*
X108888933Y-106501383D01*
X109108212Y-106545000D01*
X109331788Y-106545000D01*
X109551067Y-106501383D01*
X109757624Y-106415824D01*
X109943520Y-106291612D01*
X110101612Y-106133520D01*
X110225824Y-105947624D01*
X110311383Y-105741067D01*
X110355000Y-105521788D01*
X110355000Y-105403072D01*
X111260000Y-105403072D01*
X111384482Y-105390812D01*
X111504180Y-105354502D01*
X111614494Y-105295537D01*
X111625000Y-105286915D01*
X111625001Y-106801928D01*
X111370000Y-106801928D01*
X111245518Y-106814188D01*
X111125820Y-106850498D01*
X111015506Y-106909463D01*
X110918815Y-106988815D01*
X110839463Y-107085506D01*
X110780498Y-107195820D01*
X110744188Y-107315518D01*
X110731928Y-107440000D01*
X110731928Y-108940000D01*
X110744188Y-109064482D01*
X110780498Y-109184180D01*
X110839463Y-109294494D01*
X110876809Y-109340000D01*
X110839463Y-109385506D01*
X110780498Y-109495820D01*
X110744188Y-109615518D01*
X110731928Y-109740000D01*
X110735000Y-110204250D01*
X110893750Y-110363000D01*
X112243000Y-110363000D01*
X112243000Y-110343000D01*
X112497000Y-110343000D01*
X112497000Y-110363000D01*
X113846250Y-110363000D01*
X114005000Y-110204250D01*
X114008072Y-109740000D01*
X113995812Y-109615518D01*
X113959502Y-109495820D01*
X113900537Y-109385506D01*
X113863191Y-109340000D01*
X113900537Y-109294494D01*
X113959502Y-109184180D01*
X113995812Y-109064482D01*
X114008072Y-108940000D01*
X114008072Y-107440000D01*
X113995812Y-107315518D01*
X113959502Y-107195820D01*
X113900537Y-107085506D01*
X113895000Y-107078759D01*
X113895000Y-104796192D01*
X113898072Y-104765000D01*
X113898072Y-104206988D01*
X121660092Y-104206988D01*
X121702557Y-104504171D01*
X121802184Y-104787359D01*
X121880711Y-104934273D01*
X122133769Y-105016626D01*
X123010395Y-104140000D01*
X123369605Y-104140000D01*
X124246231Y-105016626D01*
X124499289Y-104934273D01*
X124629086Y-104663582D01*
X124703580Y-104372770D01*
X124719908Y-104073012D01*
X124677443Y-103775829D01*
X124577816Y-103492641D01*
X124499289Y-103345727D01*
X124246231Y-103263374D01*
X123369605Y-104140000D01*
X123010395Y-104140000D01*
X122133769Y-103263374D01*
X121880711Y-103345727D01*
X121750914Y-103616418D01*
X121676420Y-103907230D01*
X121660092Y-104206988D01*
X113898072Y-104206988D01*
X113898072Y-104039561D01*
X113900491Y-104015000D01*
X113898072Y-103990439D01*
X113898072Y-103515000D01*
X113885812Y-103390518D01*
X113849502Y-103270820D01*
X113790537Y-103160506D01*
X113711185Y-103063815D01*
X113614494Y-102984463D01*
X113504180Y-102925498D01*
X113384482Y-102889188D01*
X113260000Y-102876928D01*
X113227060Y-102876928D01*
X111785032Y-101434900D01*
X121668983Y-101434900D01*
X121666000Y-101449899D01*
X121666000Y-101750101D01*
X121724566Y-102044534D01*
X121839449Y-102321885D01*
X122006232Y-102571493D01*
X122218507Y-102783768D01*
X122376622Y-102889417D01*
X122313374Y-103083769D01*
X123190000Y-103960395D01*
X124066626Y-103083769D01*
X124003378Y-102889417D01*
X124161493Y-102783768D01*
X124373768Y-102571493D01*
X124540551Y-102321885D01*
X124655434Y-102044534D01*
X124714000Y-101750101D01*
X124714000Y-101449899D01*
X124711017Y-101434900D01*
X151180800Y-101434900D01*
X151180800Y-120681928D01*
X150530000Y-120681928D01*
X150405518Y-120694188D01*
X150285820Y-120730498D01*
X150175506Y-120789463D01*
X150078815Y-120868815D01*
X149999463Y-120965506D01*
X149962317Y-121035000D01*
X148316144Y-121035000D01*
X148214180Y-120980498D01*
X148094482Y-120944188D01*
X147970000Y-120931928D01*
X146670000Y-120931928D01*
X146545518Y-120944188D01*
X146425820Y-120980498D01*
X146315506Y-121039463D01*
X146218815Y-121118815D01*
X146139463Y-121215506D01*
X146080498Y-121325820D01*
X146044188Y-121445518D01*
X146031928Y-121570000D01*
X146031928Y-122270000D01*
X146044188Y-122394482D01*
X146080498Y-122514180D01*
X146139463Y-122624494D01*
X146218815Y-122721185D01*
X146315506Y-122800537D01*
X146425820Y-122859502D01*
X146460427Y-122870000D01*
X146425820Y-122880498D01*
X146315506Y-122939463D01*
X146218815Y-123018815D01*
X146139463Y-123115506D01*
X146080498Y-123225820D01*
X146044188Y-123345518D01*
X146031928Y-123470000D01*
X146031928Y-123575000D01*
X144751561Y-123575000D01*
X144693768Y-123488507D01*
X144481493Y-123276232D01*
X144352438Y-123190000D01*
X144481493Y-123103768D01*
X144693768Y-122891493D01*
X144860551Y-122641885D01*
X144975434Y-122364534D01*
X145034000Y-122070101D01*
X145034000Y-121769899D01*
X144975434Y-121475466D01*
X144860551Y-121198115D01*
X144693768Y-120948507D01*
X144481493Y-120736232D01*
X144352438Y-120650000D01*
X144481493Y-120563768D01*
X144693768Y-120351493D01*
X144860551Y-120101885D01*
X144975434Y-119824534D01*
X145034000Y-119530101D01*
X145034000Y-119229899D01*
X144975434Y-118935466D01*
X144860551Y-118658115D01*
X144693768Y-118408507D01*
X144481493Y-118196232D01*
X144352438Y-118110000D01*
X144481493Y-118023768D01*
X144693768Y-117811493D01*
X144860551Y-117561885D01*
X144975434Y-117284534D01*
X145034000Y-116990101D01*
X145034000Y-116689899D01*
X144975434Y-116395466D01*
X144860551Y-116118115D01*
X144693768Y-115868507D01*
X144481493Y-115656232D01*
X144352438Y-115570000D01*
X144481493Y-115483768D01*
X144693768Y-115271493D01*
X144860551Y-115021885D01*
X144975434Y-114744534D01*
X145034000Y-114450101D01*
X145034000Y-114149899D01*
X144975434Y-113855466D01*
X144860551Y-113578115D01*
X144693768Y-113328507D01*
X144481493Y-113116232D01*
X144352438Y-113030000D01*
X144481493Y-112943768D01*
X144693768Y-112731493D01*
X144860551Y-112481885D01*
X144975434Y-112204534D01*
X145034000Y-111910101D01*
X145034000Y-111609899D01*
X144975434Y-111315466D01*
X144860551Y-111038115D01*
X144693768Y-110788507D01*
X144481493Y-110576232D01*
X144231885Y-110409449D01*
X143954534Y-110294566D01*
X143660101Y-110236000D01*
X143359899Y-110236000D01*
X143065466Y-110294566D01*
X142788115Y-110409449D01*
X142538507Y-110576232D01*
X142326232Y-110788507D01*
X142159449Y-111038115D01*
X142044566Y-111315466D01*
X141986000Y-111609899D01*
X141986000Y-111910101D01*
X142044566Y-112204534D01*
X142159449Y-112481885D01*
X142326232Y-112731493D01*
X142538507Y-112943768D01*
X142667562Y-113030000D01*
X142538507Y-113116232D01*
X142326232Y-113328507D01*
X142159449Y-113578115D01*
X142044566Y-113855466D01*
X141986000Y-114149899D01*
X141986000Y-114450101D01*
X142044566Y-114744534D01*
X142159449Y-115021885D01*
X142326232Y-115271493D01*
X142538507Y-115483768D01*
X142667562Y-115570000D01*
X142538507Y-115656232D01*
X142326232Y-115868507D01*
X142159449Y-116118115D01*
X142044566Y-116395466D01*
X141986000Y-116689899D01*
X141986000Y-116990101D01*
X142044566Y-117284534D01*
X142159449Y-117561885D01*
X142326232Y-117811493D01*
X142538507Y-118023768D01*
X142667562Y-118110000D01*
X142538507Y-118196232D01*
X142326232Y-118408507D01*
X142159449Y-118658115D01*
X142044566Y-118935466D01*
X141986000Y-119229899D01*
X141986000Y-119530101D01*
X142044566Y-119824534D01*
X142159449Y-120101885D01*
X142326232Y-120351493D01*
X142538507Y-120563768D01*
X142667562Y-120650000D01*
X142538507Y-120736232D01*
X142326232Y-120948507D01*
X142159449Y-121198115D01*
X142044566Y-121475466D01*
X141986000Y-121769899D01*
X141986000Y-122070101D01*
X142044566Y-122364534D01*
X142159449Y-122641885D01*
X142326232Y-122891493D01*
X142538507Y-123103768D01*
X142667562Y-123190000D01*
X142538507Y-123276232D01*
X142326232Y-123488507D01*
X142159449Y-123738115D01*
X142044566Y-124015466D01*
X141986000Y-124309899D01*
X141986000Y-124610101D01*
X142044566Y-124904534D01*
X142159449Y-125181885D01*
X142326232Y-125431493D01*
X142538507Y-125643768D01*
X142667562Y-125730000D01*
X142538507Y-125816232D01*
X142326232Y-126028507D01*
X142159449Y-126278115D01*
X142044566Y-126555466D01*
X141986000Y-126849899D01*
X141986000Y-126941198D01*
X132699803Y-117655002D01*
X132676000Y-117625998D01*
X132560275Y-117531025D01*
X132428246Y-117460453D01*
X132284985Y-117416996D01*
X132173332Y-117405999D01*
X132173321Y-117405999D01*
X132135999Y-117402323D01*
X132098677Y-117405999D01*
X124605121Y-117405999D01*
X124655434Y-117284534D01*
X124714000Y-116990101D01*
X124714000Y-116689899D01*
X124655434Y-116395466D01*
X124540551Y-116118115D01*
X124373768Y-115868507D01*
X124161493Y-115656232D01*
X124032438Y-115570000D01*
X124161493Y-115483768D01*
X124373768Y-115271493D01*
X124540551Y-115021885D01*
X124655434Y-114744534D01*
X124714000Y-114450101D01*
X124714000Y-114149899D01*
X124660494Y-113880900D01*
X129453609Y-113880900D01*
X129475523Y-114103399D01*
X129540424Y-114317347D01*
X129645816Y-114514523D01*
X129787651Y-114687349D01*
X129960477Y-114829184D01*
X130157653Y-114934576D01*
X130371601Y-114999477D01*
X130538348Y-115015900D01*
X130700652Y-115015900D01*
X130867399Y-114999477D01*
X131081347Y-114934576D01*
X131278523Y-114829184D01*
X131451349Y-114687349D01*
X131593184Y-114514523D01*
X131698576Y-114317347D01*
X131763477Y-114103399D01*
X131785391Y-113880900D01*
X131763477Y-113658401D01*
X131698576Y-113444453D01*
X131593184Y-113247277D01*
X131451349Y-113074451D01*
X131278523Y-112932616D01*
X131081347Y-112827224D01*
X130867399Y-112762323D01*
X130700652Y-112745900D01*
X130538348Y-112745900D01*
X130371601Y-112762323D01*
X130157653Y-112827224D01*
X129960477Y-112932616D01*
X129787651Y-113074451D01*
X129645816Y-113247277D01*
X129540424Y-113444453D01*
X129475523Y-113658401D01*
X129453609Y-113880900D01*
X124660494Y-113880900D01*
X124655434Y-113855466D01*
X124540551Y-113578115D01*
X124373768Y-113328507D01*
X124161493Y-113116232D01*
X124032438Y-113030000D01*
X124161493Y-112943768D01*
X124373768Y-112731493D01*
X124540551Y-112481885D01*
X124655434Y-112204534D01*
X124714000Y-111910101D01*
X124714000Y-111609899D01*
X124655434Y-111315466D01*
X124540551Y-111038115D01*
X124373768Y-110788507D01*
X124161493Y-110576232D01*
X124032438Y-110490000D01*
X124161493Y-110403768D01*
X124373768Y-110191493D01*
X124540551Y-109941885D01*
X124655434Y-109664534D01*
X124714000Y-109370101D01*
X124714000Y-109069899D01*
X124655434Y-108775466D01*
X124540551Y-108498115D01*
X124373768Y-108248507D01*
X124161493Y-108036232D01*
X124032438Y-107950000D01*
X124161493Y-107863768D01*
X124373768Y-107651493D01*
X124540551Y-107401885D01*
X124655434Y-107124534D01*
X124714000Y-106830101D01*
X124714000Y-106529899D01*
X124655434Y-106235466D01*
X124540551Y-105958115D01*
X124373768Y-105708507D01*
X124161493Y-105496232D01*
X124003378Y-105390583D01*
X124066626Y-105196231D01*
X123190000Y-104319605D01*
X122313374Y-105196231D01*
X122376622Y-105390583D01*
X122218507Y-105496232D01*
X122006232Y-105708507D01*
X121839449Y-105958115D01*
X121724566Y-106235466D01*
X121666000Y-106529899D01*
X121666000Y-106830101D01*
X121724566Y-107124534D01*
X121839449Y-107401885D01*
X122006232Y-107651493D01*
X122218507Y-107863768D01*
X122347562Y-107950000D01*
X122218507Y-108036232D01*
X122006232Y-108248507D01*
X121839449Y-108498115D01*
X121724566Y-108775466D01*
X121666000Y-109069899D01*
X121666000Y-109370101D01*
X121724566Y-109664534D01*
X121839449Y-109941885D01*
X122006232Y-110191493D01*
X122218507Y-110403768D01*
X122347562Y-110490000D01*
X122218507Y-110576232D01*
X122006232Y-110788507D01*
X121839449Y-111038115D01*
X121724566Y-111315466D01*
X121666000Y-111609899D01*
X121666000Y-111910101D01*
X121724566Y-112204534D01*
X121839449Y-112481885D01*
X122006232Y-112731493D01*
X122218507Y-112943768D01*
X122347562Y-113030000D01*
X122218507Y-113116232D01*
X122006232Y-113328507D01*
X121839449Y-113578115D01*
X121724566Y-113855466D01*
X121666000Y-114149899D01*
X121666000Y-114450101D01*
X121724566Y-114744534D01*
X121839449Y-115021885D01*
X122006232Y-115271493D01*
X122218507Y-115483768D01*
X122347562Y-115570000D01*
X122218507Y-115656232D01*
X122006232Y-115868507D01*
X121839449Y-116118115D01*
X121724566Y-116395466D01*
X121666000Y-116689899D01*
X121666000Y-116990101D01*
X121724566Y-117284534D01*
X121774879Y-117405999D01*
X119005723Y-117405999D01*
X118968400Y-117402323D01*
X118931077Y-117405999D01*
X118931068Y-117405999D01*
X118819415Y-117416996D01*
X118676154Y-117460453D01*
X118544125Y-117531025D01*
X118428400Y-117625998D01*
X118404602Y-117654996D01*
X111229299Y-124830300D01*
X109341895Y-124830300D01*
X109305006Y-124761286D01*
X109119434Y-124535166D01*
X108893314Y-124349594D01*
X108635334Y-124211701D01*
X108355411Y-124126787D01*
X108137250Y-124105300D01*
X107991350Y-124105300D01*
X107773189Y-124126787D01*
X107493266Y-124211701D01*
X107235286Y-124349594D01*
X107009166Y-124535166D01*
X106823594Y-124761286D01*
X106794300Y-124816091D01*
X106765006Y-124761286D01*
X106579434Y-124535166D01*
X106353314Y-124349594D01*
X106095334Y-124211701D01*
X105815411Y-124126787D01*
X105597250Y-124105300D01*
X105451350Y-124105300D01*
X105233189Y-124126787D01*
X104953266Y-124211701D01*
X104695286Y-124349594D01*
X104469166Y-124535166D01*
X104444693Y-124564987D01*
X104423802Y-124496120D01*
X104364837Y-124385806D01*
X104285485Y-124289115D01*
X104188794Y-124209763D01*
X104078480Y-124150798D01*
X103958782Y-124114488D01*
X103834300Y-124102228D01*
X102134300Y-124102228D01*
X102009818Y-124114488D01*
X101890120Y-124150798D01*
X101779806Y-124209763D01*
X101683115Y-124289115D01*
X101603763Y-124385806D01*
X101544798Y-124496120D01*
X101508488Y-124615818D01*
X101496228Y-124740300D01*
X101496228Y-126440300D01*
X101508488Y-126564782D01*
X101544798Y-126684480D01*
X101603763Y-126794794D01*
X101683115Y-126891485D01*
X101779806Y-126970837D01*
X101890120Y-127029802D01*
X102009818Y-127066112D01*
X102134300Y-127078372D01*
X103834300Y-127078372D01*
X103958782Y-127066112D01*
X104078480Y-127029802D01*
X104188794Y-126970837D01*
X104285485Y-126891485D01*
X104364837Y-126794794D01*
X104423802Y-126684480D01*
X104444693Y-126615613D01*
X104469166Y-126645434D01*
X104695286Y-126831006D01*
X104953266Y-126968899D01*
X105233189Y-127053813D01*
X105451350Y-127075300D01*
X105597250Y-127075300D01*
X105815411Y-127053813D01*
X106095334Y-126968899D01*
X106353314Y-126831006D01*
X106579434Y-126645434D01*
X106765006Y-126419314D01*
X106794300Y-126364509D01*
X106823594Y-126419314D01*
X107009166Y-126645434D01*
X107235286Y-126831006D01*
X107493266Y-126968899D01*
X107773189Y-127053813D01*
X107991350Y-127075300D01*
X108137250Y-127075300D01*
X108355411Y-127053813D01*
X108635334Y-126968899D01*
X108893314Y-126831006D01*
X109119434Y-126645434D01*
X109305006Y-126419314D01*
X109341895Y-126350300D01*
X111506778Y-126350300D01*
X111544100Y-126353976D01*
X111581422Y-126350300D01*
X111581433Y-126350300D01*
X111693086Y-126339303D01*
X111836347Y-126295846D01*
X111968376Y-126225274D01*
X112084101Y-126130301D01*
X112107904Y-126101297D01*
X113996736Y-124212465D01*
X114030214Y-124293289D01*
X114098801Y-124395936D01*
X114098800Y-125502753D01*
X101223189Y-138378365D01*
X101194191Y-138402163D01*
X101170393Y-138431161D01*
X101170392Y-138431162D01*
X101099217Y-138517888D01*
X101028645Y-138649918D01*
X100985189Y-138793179D01*
X100970515Y-138942164D01*
X100974192Y-138979496D01*
X100974190Y-168373267D01*
X100974190Y-168373268D01*
X100974192Y-170276859D01*
X100970515Y-170314191D01*
X100974192Y-170351523D01*
X100974192Y-170351524D01*
X100975508Y-170364880D01*
X100985189Y-170463176D01*
X101028645Y-170606437D01*
X101099217Y-170738467D01*
X101162048Y-170815026D01*
X101194191Y-170854192D01*
X101223189Y-170877990D01*
X102665623Y-172320425D01*
X102616000Y-172569899D01*
X102616000Y-172870101D01*
X102674566Y-173164534D01*
X102789449Y-173441885D01*
X102956232Y-173691493D01*
X103168507Y-173903768D01*
X103418115Y-174070551D01*
X103695466Y-174185434D01*
X103989899Y-174244000D01*
X104290101Y-174244000D01*
X104584534Y-174185434D01*
X104861885Y-174070551D01*
X105111493Y-173903768D01*
X105323768Y-173691493D01*
X105490551Y-173441885D01*
X105605434Y-173164534D01*
X105664000Y-172870101D01*
X105664000Y-172569899D01*
X105605434Y-172275466D01*
X105490551Y-171998115D01*
X105323768Y-171748507D01*
X105111493Y-171536232D01*
X104982438Y-171450000D01*
X105111493Y-171363768D01*
X105323768Y-171151493D01*
X105490551Y-170901885D01*
X105605434Y-170624534D01*
X105664000Y-170330101D01*
X105664000Y-170029899D01*
X105605434Y-169735466D01*
X105490551Y-169458115D01*
X105323768Y-169208507D01*
X105111493Y-168996232D01*
X104982438Y-168910000D01*
X105111493Y-168823768D01*
X105323768Y-168611493D01*
X105490551Y-168361885D01*
X105605434Y-168084534D01*
X105664000Y-167790101D01*
X105664000Y-167489899D01*
X105605434Y-167195466D01*
X105490551Y-166918115D01*
X105323768Y-166668507D01*
X105111493Y-166456232D01*
X104982438Y-166370000D01*
X105111493Y-166283768D01*
X105323768Y-166071493D01*
X105490551Y-165821885D01*
X105605434Y-165544534D01*
X105664000Y-165250101D01*
X105664000Y-164949899D01*
X105614377Y-164700424D01*
X109934204Y-160380598D01*
X109963201Y-160356801D01*
X109999766Y-160312246D01*
X110058174Y-160241077D01*
X110128746Y-160109047D01*
X110128746Y-160109046D01*
X110172203Y-159965786D01*
X110183200Y-159854133D01*
X110183200Y-159854124D01*
X110186876Y-159816801D01*
X110183200Y-159779478D01*
X110183200Y-152249899D01*
X128016000Y-152249899D01*
X128016000Y-152550101D01*
X128074566Y-152844534D01*
X128189449Y-153121885D01*
X128356232Y-153371493D01*
X128568507Y-153583768D01*
X128697562Y-153670000D01*
X128568507Y-153756232D01*
X128356232Y-153968507D01*
X128189449Y-154218115D01*
X128074566Y-154495466D01*
X128016000Y-154789899D01*
X128016000Y-155090101D01*
X128074566Y-155384534D01*
X128189449Y-155661885D01*
X128356232Y-155911493D01*
X128568507Y-156123768D01*
X128697562Y-156210000D01*
X128568507Y-156296232D01*
X128356232Y-156508507D01*
X128189449Y-156758115D01*
X128074566Y-157035466D01*
X128016000Y-157329899D01*
X128016000Y-157630101D01*
X128074566Y-157924534D01*
X128189449Y-158201885D01*
X128356232Y-158451493D01*
X128568507Y-158663768D01*
X128697562Y-158750000D01*
X128568507Y-158836232D01*
X128356232Y-159048507D01*
X128189449Y-159298115D01*
X128074566Y-159575466D01*
X128016000Y-159869899D01*
X128016000Y-160170101D01*
X128074566Y-160464534D01*
X128189449Y-160741885D01*
X128356232Y-160991493D01*
X128568507Y-161203768D01*
X128697562Y-161290000D01*
X128568507Y-161376232D01*
X128356232Y-161588507D01*
X128189449Y-161838115D01*
X128074566Y-162115466D01*
X128016000Y-162409899D01*
X128016000Y-162710101D01*
X128074566Y-163004534D01*
X128189449Y-163281885D01*
X128356232Y-163531493D01*
X128568507Y-163743768D01*
X128818115Y-163910551D01*
X129095466Y-164025434D01*
X129389899Y-164084000D01*
X129690101Y-164084000D01*
X129984534Y-164025434D01*
X130261885Y-163910551D01*
X130511493Y-163743768D01*
X130723768Y-163531493D01*
X130890551Y-163281885D01*
X131005434Y-163004534D01*
X131064000Y-162710101D01*
X131064000Y-162409899D01*
X131005434Y-162115466D01*
X130890551Y-161838115D01*
X130723768Y-161588507D01*
X130511493Y-161376232D01*
X130382438Y-161290000D01*
X130511493Y-161203768D01*
X130723768Y-160991493D01*
X130890551Y-160741885D01*
X131005434Y-160464534D01*
X131064000Y-160170101D01*
X131064000Y-159869899D01*
X131005434Y-159575466D01*
X130890551Y-159298115D01*
X130723768Y-159048507D01*
X130511493Y-158836232D01*
X130382438Y-158750000D01*
X130511493Y-158663768D01*
X130723768Y-158451493D01*
X130890551Y-158201885D01*
X131005434Y-157924534D01*
X131064000Y-157630101D01*
X131064000Y-157329899D01*
X131005434Y-157035466D01*
X130890551Y-156758115D01*
X130723768Y-156508507D01*
X130511493Y-156296232D01*
X130382438Y-156210000D01*
X130511493Y-156123768D01*
X130723768Y-155911493D01*
X130890551Y-155661885D01*
X131005434Y-155384534D01*
X131064000Y-155090101D01*
X131064000Y-154789899D01*
X131005434Y-154495466D01*
X130890551Y-154218115D01*
X130723768Y-153968507D01*
X130511493Y-153756232D01*
X130382438Y-153670000D01*
X130511493Y-153583768D01*
X130723768Y-153371493D01*
X130890551Y-153121885D01*
X131005434Y-152844534D01*
X131064000Y-152550101D01*
X131064000Y-152249899D01*
X131005434Y-151955466D01*
X130890551Y-151678115D01*
X130723768Y-151428507D01*
X130511493Y-151216232D01*
X130261885Y-151049449D01*
X129984534Y-150934566D01*
X129690101Y-150876000D01*
X129389899Y-150876000D01*
X129095466Y-150934566D01*
X128818115Y-151049449D01*
X128568507Y-151216232D01*
X128356232Y-151428507D01*
X128189449Y-151678115D01*
X128074566Y-151955466D01*
X128016000Y-152249899D01*
X110183200Y-152249899D01*
X110183200Y-143043357D01*
X122301000Y-143043357D01*
X122301000Y-143468643D01*
X122383970Y-143885757D01*
X122546719Y-144278670D01*
X122782996Y-144632282D01*
X123083718Y-144933004D01*
X123437330Y-145169281D01*
X123830243Y-145332030D01*
X124247357Y-145415000D01*
X124672643Y-145415000D01*
X125089757Y-145332030D01*
X125482670Y-145169281D01*
X125836282Y-144933004D01*
X126137004Y-144632282D01*
X126373281Y-144278670D01*
X126536030Y-143885757D01*
X126619000Y-143468643D01*
X126619000Y-143043357D01*
X126536030Y-142626243D01*
X126373281Y-142233330D01*
X126137004Y-141879718D01*
X125836282Y-141578996D01*
X125482670Y-141342719D01*
X125089757Y-141179970D01*
X124672643Y-141097000D01*
X124247357Y-141097000D01*
X123830243Y-141179970D01*
X123437330Y-141342719D01*
X123083718Y-141578996D01*
X122782996Y-141879718D01*
X122546719Y-142233330D01*
X122383970Y-142626243D01*
X122301000Y-143043357D01*
X110183200Y-143043357D01*
X110183200Y-135138001D01*
X112481202Y-132840000D01*
X121864917Y-132840000D01*
X122006232Y-133051493D01*
X122218507Y-133263768D01*
X122347562Y-133350000D01*
X122218507Y-133436232D01*
X122006232Y-133648507D01*
X121839449Y-133898115D01*
X121724566Y-134175466D01*
X121666000Y-134469899D01*
X121666000Y-134770101D01*
X121724566Y-135064534D01*
X121839449Y-135341885D01*
X122006232Y-135591493D01*
X122218507Y-135803768D01*
X122347562Y-135890000D01*
X122218507Y-135976232D01*
X122006232Y-136188507D01*
X121839449Y-136438115D01*
X121724566Y-136715466D01*
X121666000Y-137009899D01*
X121666000Y-137310101D01*
X121724566Y-137604534D01*
X121839449Y-137881885D01*
X122006232Y-138131493D01*
X122218507Y-138343768D01*
X122347562Y-138430000D01*
X122218507Y-138516232D01*
X122006232Y-138728507D01*
X121839449Y-138978115D01*
X121724566Y-139255466D01*
X121666000Y-139549899D01*
X121666000Y-139850101D01*
X121724566Y-140144534D01*
X121839449Y-140421885D01*
X122006232Y-140671493D01*
X122218507Y-140883768D01*
X122468115Y-141050551D01*
X122745466Y-141165434D01*
X123039899Y-141224000D01*
X123340101Y-141224000D01*
X123634534Y-141165434D01*
X123911885Y-141050551D01*
X124161493Y-140883768D01*
X124373768Y-140671493D01*
X124452148Y-140554189D01*
X127964500Y-140554189D01*
X127964500Y-140827011D01*
X128017725Y-141094589D01*
X128122129Y-141346643D01*
X128273701Y-141573486D01*
X128466614Y-141766399D01*
X128693457Y-141917971D01*
X128945511Y-142022375D01*
X129213089Y-142075600D01*
X129485911Y-142075600D01*
X129753489Y-142022375D01*
X130005543Y-141917971D01*
X130232386Y-141766399D01*
X130425299Y-141573486D01*
X130576871Y-141346643D01*
X130681275Y-141094589D01*
X130734500Y-140827011D01*
X130734500Y-140554189D01*
X130681275Y-140286611D01*
X130576871Y-140034557D01*
X130425299Y-139807714D01*
X130232386Y-139614801D01*
X130005543Y-139463229D01*
X129753489Y-139358825D01*
X129485911Y-139305600D01*
X129213089Y-139305600D01*
X128945511Y-139358825D01*
X128693457Y-139463229D01*
X128466614Y-139614801D01*
X128273701Y-139807714D01*
X128122129Y-140034557D01*
X128017725Y-140286611D01*
X127964500Y-140554189D01*
X124452148Y-140554189D01*
X124540551Y-140421885D01*
X124655434Y-140144534D01*
X124714000Y-139850101D01*
X124714000Y-139549899D01*
X124655434Y-139255466D01*
X124540551Y-138978115D01*
X124373768Y-138728507D01*
X124161493Y-138516232D01*
X124032438Y-138430000D01*
X124161493Y-138343768D01*
X124373768Y-138131493D01*
X124515083Y-137920000D01*
X131230389Y-137920000D01*
X137143791Y-143833403D01*
X137143790Y-164995078D01*
X137140114Y-165032400D01*
X137143790Y-165069722D01*
X137143790Y-165069732D01*
X137154787Y-165181385D01*
X137198244Y-165324646D01*
X137268816Y-165456676D01*
X137287519Y-165479465D01*
X137363789Y-165572401D01*
X137392793Y-165596204D01*
X143383000Y-171586412D01*
X143383000Y-171587592D01*
X143436686Y-171857490D01*
X143541995Y-172111727D01*
X143694880Y-172340535D01*
X143889465Y-172535120D01*
X144118273Y-172688005D01*
X144195515Y-172720000D01*
X144118273Y-172751995D01*
X143889465Y-172904880D01*
X143694880Y-173099465D01*
X143541995Y-173328273D01*
X143436686Y-173582510D01*
X143383000Y-173852408D01*
X143383000Y-174127592D01*
X143436686Y-174397490D01*
X143541995Y-174651727D01*
X143694880Y-174880535D01*
X143889465Y-175075120D01*
X144118273Y-175228005D01*
X144189943Y-175257692D01*
X144176977Y-175262364D01*
X144061020Y-175324344D01*
X143994040Y-175564435D01*
X144780000Y-176350395D01*
X145565960Y-175564435D01*
X145498980Y-175324344D01*
X145363240Y-175260515D01*
X145441727Y-175228005D01*
X145670535Y-175075120D01*
X145865120Y-174880535D01*
X146018005Y-174651727D01*
X146123314Y-174397490D01*
X146177000Y-174127592D01*
X146177000Y-173852408D01*
X146123314Y-173582510D01*
X146018005Y-173328273D01*
X145865120Y-173099465D01*
X145670535Y-172904880D01*
X145441727Y-172751995D01*
X145364485Y-172720000D01*
X145441727Y-172688005D01*
X145670535Y-172535120D01*
X145865120Y-172340535D01*
X146018005Y-172111727D01*
X146123314Y-171857490D01*
X146177000Y-171587592D01*
X146177000Y-171312408D01*
X146123314Y-171042510D01*
X146018005Y-170788273D01*
X145865120Y-170559465D01*
X145670535Y-170364880D01*
X145441727Y-170211995D01*
X145364485Y-170180000D01*
X145441727Y-170148005D01*
X145670535Y-169995120D01*
X145865120Y-169800535D01*
X146018005Y-169571727D01*
X146123314Y-169317490D01*
X146177000Y-169047592D01*
X146177000Y-168772408D01*
X146123314Y-168502510D01*
X146018005Y-168248273D01*
X145865120Y-168019465D01*
X145670535Y-167824880D01*
X145441727Y-167671995D01*
X145364485Y-167640000D01*
X145441727Y-167608005D01*
X145670535Y-167455120D01*
X145865120Y-167260535D01*
X146018005Y-167031727D01*
X146123314Y-166777490D01*
X146177000Y-166507592D01*
X146177000Y-166232408D01*
X146123314Y-165962510D01*
X146018005Y-165708273D01*
X145865120Y-165479465D01*
X145670535Y-165284880D01*
X145441727Y-165131995D01*
X145187490Y-165026686D01*
X144917592Y-164973000D01*
X144642408Y-164973000D01*
X144372510Y-165026686D01*
X144118273Y-165131995D01*
X143889465Y-165284880D01*
X143694880Y-165479465D01*
X143541995Y-165708273D01*
X143436686Y-165962510D01*
X143383000Y-166232408D01*
X143383000Y-166507592D01*
X143436686Y-166777490D01*
X143541995Y-167031727D01*
X143694880Y-167260535D01*
X143889465Y-167455120D01*
X144118273Y-167608005D01*
X144195515Y-167640000D01*
X144118273Y-167671995D01*
X143889465Y-167824880D01*
X143694880Y-168019465D01*
X143607659Y-168150000D01*
X142732602Y-168150000D01*
X139113800Y-164531199D01*
X139113800Y-153350000D01*
X144431928Y-153350000D01*
X144431928Y-155050000D01*
X144444188Y-155174482D01*
X144480498Y-155294180D01*
X144539463Y-155404494D01*
X144618815Y-155501185D01*
X144715506Y-155580537D01*
X144755758Y-155602052D01*
X144738814Y-155627411D01*
X144668332Y-155797571D01*
X144632400Y-155978211D01*
X144632400Y-156162389D01*
X144668332Y-156343029D01*
X144738814Y-156513189D01*
X144841138Y-156666328D01*
X144971372Y-156796562D01*
X145124511Y-156898886D01*
X145294671Y-156969368D01*
X145475311Y-157005300D01*
X145659489Y-157005300D01*
X145840129Y-156969368D01*
X146010289Y-156898886D01*
X146163428Y-156796562D01*
X146293662Y-156666328D01*
X146395986Y-156513189D01*
X146466468Y-156343029D01*
X146502400Y-156162389D01*
X146502400Y-155978211D01*
X146466468Y-155797571D01*
X146395986Y-155627411D01*
X146380410Y-155604101D01*
X146424494Y-155580537D01*
X146521185Y-155501185D01*
X146600537Y-155404494D01*
X146659502Y-155294180D01*
X146695812Y-155174482D01*
X146708072Y-155050000D01*
X146708072Y-153350000D01*
X146695812Y-153225518D01*
X146659502Y-153105820D01*
X146600537Y-152995506D01*
X146521185Y-152898815D01*
X146424494Y-152819463D01*
X146314180Y-152760498D01*
X146194482Y-152724188D01*
X146070000Y-152711928D01*
X145070000Y-152711928D01*
X144945518Y-152724188D01*
X144825820Y-152760498D01*
X144715506Y-152819463D01*
X144618815Y-152898815D01*
X144539463Y-152995506D01*
X144480498Y-153105820D01*
X144444188Y-153225518D01*
X144431928Y-153350000D01*
X139113800Y-153350000D01*
X139113800Y-143369522D01*
X139117476Y-143332199D01*
X139113800Y-143294876D01*
X139113800Y-143294867D01*
X139102803Y-143183214D01*
X139060379Y-143043357D01*
X140081000Y-143043357D01*
X140081000Y-143468643D01*
X140163970Y-143885757D01*
X140326719Y-144278670D01*
X140562996Y-144632282D01*
X140863718Y-144933004D01*
X141217330Y-145169281D01*
X141610243Y-145332030D01*
X142027357Y-145415000D01*
X142452643Y-145415000D01*
X142869757Y-145332030D01*
X143262670Y-145169281D01*
X143616282Y-144933004D01*
X143917004Y-144632282D01*
X144153281Y-144278670D01*
X144316030Y-143885757D01*
X144399000Y-143468643D01*
X144399000Y-143043357D01*
X144316030Y-142626243D01*
X144153281Y-142233330D01*
X143917004Y-141879718D01*
X143616282Y-141578996D01*
X143262670Y-141342719D01*
X142869757Y-141179970D01*
X142452643Y-141097000D01*
X142027357Y-141097000D01*
X141610243Y-141179970D01*
X141217330Y-141342719D01*
X140863718Y-141578996D01*
X140562996Y-141879718D01*
X140326719Y-142233330D01*
X140163970Y-142626243D01*
X140081000Y-143043357D01*
X139060379Y-143043357D01*
X139059346Y-143039953D01*
X138988774Y-142907924D01*
X138968833Y-142883626D01*
X138917599Y-142821196D01*
X138917595Y-142821192D01*
X138893801Y-142792199D01*
X138864809Y-142768406D01*
X130503791Y-134407389D01*
X133006400Y-134407389D01*
X133006400Y-134680211D01*
X133059625Y-134947789D01*
X133164029Y-135199843D01*
X133315601Y-135426686D01*
X133508514Y-135619599D01*
X133735357Y-135771171D01*
X133987411Y-135875575D01*
X134254989Y-135928800D01*
X134527811Y-135928800D01*
X134795389Y-135875575D01*
X134933180Y-135818500D01*
X135234552Y-135818500D01*
X135401299Y-135802077D01*
X135615247Y-135737176D01*
X135812423Y-135631784D01*
X135985249Y-135489949D01*
X136127084Y-135317123D01*
X136232476Y-135119947D01*
X136297377Y-134905999D01*
X136319291Y-134683500D01*
X136297377Y-134461001D01*
X136232476Y-134247053D01*
X136127084Y-134049877D01*
X135985249Y-133877051D01*
X135812423Y-133735216D01*
X135615247Y-133629824D01*
X135401299Y-133564923D01*
X135367921Y-133561636D01*
X135274286Y-133468001D01*
X135047443Y-133316429D01*
X134795389Y-133212025D01*
X134527811Y-133158800D01*
X134254989Y-133158800D01*
X133987411Y-133212025D01*
X133735357Y-133316429D01*
X133508514Y-133468001D01*
X133315601Y-133660914D01*
X133164029Y-133887757D01*
X133059625Y-134139811D01*
X133006400Y-134407389D01*
X130503791Y-134407389D01*
X130205404Y-134109003D01*
X130181601Y-134079999D01*
X130065876Y-133985026D01*
X129933847Y-133914454D01*
X129790586Y-133870997D01*
X129678933Y-133860000D01*
X129678922Y-133860000D01*
X129641600Y-133856324D01*
X129604278Y-133860000D01*
X124515083Y-133860000D01*
X124373768Y-133648507D01*
X124161493Y-133436232D01*
X124032438Y-133350000D01*
X124161493Y-133263768D01*
X124373768Y-133051493D01*
X124540551Y-132801885D01*
X124655434Y-132524534D01*
X124714000Y-132230101D01*
X124714000Y-131929899D01*
X124655434Y-131635466D01*
X124540551Y-131358115D01*
X124373768Y-131108507D01*
X124161493Y-130896232D01*
X124032438Y-130810000D01*
X124161493Y-130723768D01*
X124373768Y-130511493D01*
X124540551Y-130261885D01*
X124655434Y-129984534D01*
X124714000Y-129690101D01*
X124714000Y-129389899D01*
X124655434Y-129095466D01*
X124540551Y-128818115D01*
X124373768Y-128568507D01*
X124161493Y-128356232D01*
X124032438Y-128270000D01*
X124161493Y-128183768D01*
X124373768Y-127971493D01*
X124540551Y-127721885D01*
X124655434Y-127444534D01*
X124714000Y-127150101D01*
X124714000Y-126849899D01*
X124655434Y-126555466D01*
X124540551Y-126278115D01*
X124373768Y-126028507D01*
X124161493Y-125816232D01*
X124032438Y-125730000D01*
X124161493Y-125643768D01*
X124373768Y-125431493D01*
X124540551Y-125181885D01*
X124655434Y-124904534D01*
X124714000Y-124610101D01*
X124714000Y-124309899D01*
X124655434Y-124015466D01*
X124540551Y-123738115D01*
X124373768Y-123488507D01*
X124161493Y-123276232D01*
X124032438Y-123190000D01*
X124161493Y-123103768D01*
X124373768Y-122891493D01*
X124540551Y-122641885D01*
X124655434Y-122364534D01*
X124714000Y-122070101D01*
X124714000Y-121769899D01*
X124655434Y-121475466D01*
X124540551Y-121198115D01*
X124373768Y-120948507D01*
X124161493Y-120736232D01*
X124032438Y-120650000D01*
X124161493Y-120563768D01*
X124373768Y-120351493D01*
X124540551Y-120101885D01*
X124655434Y-119824534D01*
X124714000Y-119530101D01*
X124714000Y-119229899D01*
X124655434Y-118935466D01*
X124651513Y-118925999D01*
X131821198Y-118925999D01*
X142035623Y-129140425D01*
X141986000Y-129389899D01*
X141986000Y-129690101D01*
X142044566Y-129984534D01*
X142159449Y-130261885D01*
X142326232Y-130511493D01*
X142538507Y-130723768D01*
X142667562Y-130810000D01*
X142538507Y-130896232D01*
X142326232Y-131108507D01*
X142159449Y-131358115D01*
X142044566Y-131635466D01*
X141986000Y-131929899D01*
X141986000Y-132230101D01*
X142044566Y-132524534D01*
X142159449Y-132801885D01*
X142326232Y-133051493D01*
X142538507Y-133263768D01*
X142667562Y-133350000D01*
X142538507Y-133436232D01*
X142326232Y-133648507D01*
X142159449Y-133898115D01*
X142044566Y-134175466D01*
X141986000Y-134469899D01*
X141986000Y-134770101D01*
X142044566Y-135064534D01*
X142159449Y-135341885D01*
X142326232Y-135591493D01*
X142538507Y-135803768D01*
X142667562Y-135890000D01*
X142538507Y-135976232D01*
X142326232Y-136188507D01*
X142159449Y-136438115D01*
X142044566Y-136715466D01*
X141986000Y-137009899D01*
X141986000Y-137310101D01*
X142044566Y-137604534D01*
X142159449Y-137881885D01*
X142326232Y-138131493D01*
X142538507Y-138343768D01*
X142667562Y-138430000D01*
X142538507Y-138516232D01*
X142326232Y-138728507D01*
X142159449Y-138978115D01*
X142044566Y-139255466D01*
X141986000Y-139549899D01*
X141986000Y-139850101D01*
X142044566Y-140144534D01*
X142159449Y-140421885D01*
X142326232Y-140671493D01*
X142538507Y-140883768D01*
X142788115Y-141050551D01*
X143065466Y-141165434D01*
X143359899Y-141224000D01*
X143660101Y-141224000D01*
X143954534Y-141165434D01*
X144231885Y-141050551D01*
X144481493Y-140883768D01*
X144693768Y-140671493D01*
X144860551Y-140421885D01*
X144975434Y-140144534D01*
X145034000Y-139850101D01*
X145034000Y-139549899D01*
X144975434Y-139255466D01*
X144860551Y-138978115D01*
X144693768Y-138728507D01*
X144481493Y-138516232D01*
X144352438Y-138430000D01*
X144481493Y-138343768D01*
X144693768Y-138131493D01*
X144860551Y-137881885D01*
X144975434Y-137604534D01*
X145034000Y-137310101D01*
X145034000Y-137009899D01*
X144975434Y-136715466D01*
X144860551Y-136438115D01*
X144693768Y-136188507D01*
X144481493Y-135976232D01*
X144352438Y-135890000D01*
X144481493Y-135803768D01*
X144693768Y-135591493D01*
X144835083Y-135380000D01*
X145735199Y-135380000D01*
X147510001Y-137154803D01*
X147510000Y-146185015D01*
X147468815Y-146218815D01*
X147389463Y-146315506D01*
X147330498Y-146425820D01*
X147320000Y-146460427D01*
X147309502Y-146425820D01*
X147250537Y-146315506D01*
X147171185Y-146218815D01*
X147074494Y-146139463D01*
X146964180Y-146080498D01*
X146844482Y-146044188D01*
X146720000Y-146031928D01*
X146020000Y-146031928D01*
X145895518Y-146044188D01*
X145775820Y-146080498D01*
X145665506Y-146139463D01*
X145568815Y-146218815D01*
X145489463Y-146315506D01*
X145430498Y-146425820D01*
X145394188Y-146545518D01*
X145381928Y-146670000D01*
X145381928Y-147533271D01*
X145059002Y-147856197D01*
X145029999Y-147879999D01*
X144974871Y-147947174D01*
X144935026Y-147995724D01*
X144864455Y-148127753D01*
X144864454Y-148127754D01*
X144820997Y-148271015D01*
X144810000Y-148382668D01*
X144810000Y-148382678D01*
X144806324Y-148420000D01*
X144810000Y-148457323D01*
X144810000Y-149168954D01*
X144715506Y-149219463D01*
X144618815Y-149298815D01*
X144539463Y-149395506D01*
X144480498Y-149505820D01*
X144444188Y-149625518D01*
X144431928Y-149750000D01*
X144431928Y-151450000D01*
X144444188Y-151574482D01*
X144480498Y-151694180D01*
X144539463Y-151804494D01*
X144618815Y-151901185D01*
X144715506Y-151980537D01*
X144825820Y-152039502D01*
X144945518Y-152075812D01*
X145070000Y-152088072D01*
X146070000Y-152088072D01*
X146194482Y-152075812D01*
X146314180Y-152039502D01*
X146424494Y-151980537D01*
X146521185Y-151901185D01*
X146600537Y-151804494D01*
X146659502Y-151694180D01*
X146695812Y-151574482D01*
X146708072Y-151450000D01*
X146708072Y-149750000D01*
X147931928Y-149750000D01*
X147931928Y-151450000D01*
X147944188Y-151574482D01*
X147980498Y-151694180D01*
X148039463Y-151804494D01*
X148118815Y-151901185D01*
X148215506Y-151980537D01*
X148325820Y-152039502D01*
X148445518Y-152075812D01*
X148570000Y-152088072D01*
X149570000Y-152088072D01*
X149694482Y-152075812D01*
X149814180Y-152039502D01*
X149924494Y-151980537D01*
X150021185Y-151901185D01*
X150100537Y-151804494D01*
X150159502Y-151694180D01*
X150195812Y-151574482D01*
X150208072Y-151450000D01*
X150208072Y-149750000D01*
X150195812Y-149625518D01*
X150159502Y-149505820D01*
X150100537Y-149395506D01*
X150021185Y-149298815D01*
X149924494Y-149219463D01*
X149814180Y-149160498D01*
X149694482Y-149124188D01*
X149570000Y-149111928D01*
X148570000Y-149111928D01*
X148445518Y-149124188D01*
X148325820Y-149160498D01*
X148215506Y-149219463D01*
X148118815Y-149298815D01*
X148039463Y-149395506D01*
X147980498Y-149505820D01*
X147944188Y-149625518D01*
X147931928Y-149750000D01*
X146708072Y-149750000D01*
X146695812Y-149625518D01*
X146659502Y-149505820D01*
X146600537Y-149395506D01*
X146521185Y-149298815D01*
X146424494Y-149219463D01*
X146330000Y-149168954D01*
X146330000Y-148734801D01*
X146456729Y-148608072D01*
X146720000Y-148608072D01*
X146844482Y-148595812D01*
X146964180Y-148559502D01*
X147074494Y-148500537D01*
X147171185Y-148421185D01*
X147250537Y-148324494D01*
X147309502Y-148214180D01*
X147320000Y-148179573D01*
X147330498Y-148214180D01*
X147389463Y-148324494D01*
X147468815Y-148421185D01*
X147565506Y-148500537D01*
X147675820Y-148559502D01*
X147795518Y-148595812D01*
X147920000Y-148608072D01*
X148620000Y-148608072D01*
X148744482Y-148595812D01*
X148864180Y-148559502D01*
X148974494Y-148500537D01*
X149071185Y-148421185D01*
X149150537Y-148324494D01*
X149209502Y-148214180D01*
X149245812Y-148094482D01*
X149258072Y-147970000D01*
X149258072Y-146670000D01*
X149245812Y-146545518D01*
X149209502Y-146425820D01*
X149150537Y-146315506D01*
X149071185Y-146218815D01*
X149030000Y-146185015D01*
X149030000Y-136877322D01*
X149033676Y-136839999D01*
X149030000Y-136802676D01*
X149030000Y-136802667D01*
X149019003Y-136691014D01*
X148975546Y-136547753D01*
X148925676Y-136454454D01*
X148904974Y-136415723D01*
X148833799Y-136328997D01*
X148810001Y-136299999D01*
X148781003Y-136276201D01*
X146613804Y-134109003D01*
X146590001Y-134079999D01*
X146474276Y-133985026D01*
X146342247Y-133914454D01*
X146198986Y-133870997D01*
X146087333Y-133860000D01*
X146087322Y-133860000D01*
X146050000Y-133856324D01*
X146012678Y-133860000D01*
X144835083Y-133860000D01*
X144693768Y-133648507D01*
X144481493Y-133436232D01*
X144352438Y-133350000D01*
X144481493Y-133263768D01*
X144693768Y-133051493D01*
X144860551Y-132801885D01*
X144975434Y-132524534D01*
X145034000Y-132230101D01*
X145034000Y-131929899D01*
X144975434Y-131635466D01*
X144860551Y-131358115D01*
X144693768Y-131108507D01*
X144481493Y-130896232D01*
X144352438Y-130810000D01*
X144481493Y-130723768D01*
X144693768Y-130511493D01*
X144860551Y-130261885D01*
X144975434Y-129984534D01*
X145034000Y-129690101D01*
X145034000Y-129389899D01*
X144975434Y-129095466D01*
X144860551Y-128818115D01*
X144693768Y-128568507D01*
X144481493Y-128356232D01*
X144352438Y-128270000D01*
X144481493Y-128183768D01*
X144693768Y-127971493D01*
X144751561Y-127885000D01*
X146031928Y-127885000D01*
X146031928Y-127990000D01*
X146044188Y-128114482D01*
X146080498Y-128234180D01*
X146139463Y-128344494D01*
X146218815Y-128441185D01*
X146315506Y-128520537D01*
X146425820Y-128579502D01*
X146460427Y-128590000D01*
X146425820Y-128600498D01*
X146315506Y-128659463D01*
X146218815Y-128738815D01*
X146139463Y-128835506D01*
X146080498Y-128945820D01*
X146044188Y-129065518D01*
X146031928Y-129190000D01*
X146031928Y-129890000D01*
X146044188Y-130014482D01*
X146080498Y-130134180D01*
X146139463Y-130244494D01*
X146218815Y-130341185D01*
X146315506Y-130420537D01*
X146425820Y-130479502D01*
X146545518Y-130515812D01*
X146670000Y-130528072D01*
X147970000Y-130528072D01*
X148094482Y-130515812D01*
X148214180Y-130479502D01*
X148316144Y-130425000D01*
X149962317Y-130425000D01*
X149999463Y-130494494D01*
X150078815Y-130591185D01*
X150175506Y-130670537D01*
X150285820Y-130729502D01*
X150405518Y-130765812D01*
X150530000Y-130778072D01*
X151180800Y-130778072D01*
X151180800Y-208597500D01*
X138292108Y-208597500D01*
X138216233Y-208521625D01*
X138469289Y-208439273D01*
X138599086Y-208168582D01*
X138673580Y-207877770D01*
X138689908Y-207578012D01*
X138647443Y-207280829D01*
X138547816Y-206997641D01*
X138469289Y-206850727D01*
X138216231Y-206768374D01*
X137339605Y-207645000D01*
X137353748Y-207659143D01*
X137174143Y-207838748D01*
X137160000Y-207824605D01*
X137145858Y-207838748D01*
X136966253Y-207659143D01*
X136980395Y-207645000D01*
X136103769Y-206768374D01*
X135850711Y-206850727D01*
X135720914Y-207121418D01*
X135646420Y-207412230D01*
X135630092Y-207711988D01*
X135672557Y-208009171D01*
X135772184Y-208292359D01*
X135850711Y-208439273D01*
X136103767Y-208521625D01*
X136027892Y-208597500D01*
X129579064Y-208597500D01*
X129506251Y-208421715D01*
X129339468Y-208172107D01*
X129127193Y-207959832D01*
X128998138Y-207873600D01*
X129127193Y-207787368D01*
X129339468Y-207575093D01*
X129506251Y-207325485D01*
X129621134Y-207048134D01*
X129679700Y-206753701D01*
X129679700Y-206453499D01*
X129621134Y-206159066D01*
X129506251Y-205881715D01*
X129339468Y-205632107D01*
X129127193Y-205419832D01*
X128998138Y-205333600D01*
X129127193Y-205247368D01*
X129339468Y-205035093D01*
X129506251Y-204785485D01*
X129621134Y-204508134D01*
X129679700Y-204213701D01*
X129679700Y-203913499D01*
X129621134Y-203619066D01*
X129506251Y-203341715D01*
X129339468Y-203092107D01*
X129127193Y-202879832D01*
X128998138Y-202793600D01*
X129127193Y-202707368D01*
X129339468Y-202495093D01*
X129506251Y-202245485D01*
X129621134Y-201968134D01*
X129679700Y-201673701D01*
X129679700Y-201373499D01*
X129621134Y-201079066D01*
X129506251Y-200801715D01*
X129339468Y-200552107D01*
X129127193Y-200339832D01*
X128969078Y-200234183D01*
X129032326Y-200039831D01*
X128155700Y-199163205D01*
X127279074Y-200039831D01*
X127342322Y-200234183D01*
X127184207Y-200339832D01*
X126971932Y-200552107D01*
X126805149Y-200801715D01*
X126690266Y-201079066D01*
X126631700Y-201373499D01*
X126631700Y-201673701D01*
X126690266Y-201968134D01*
X126805149Y-202245485D01*
X126971932Y-202495093D01*
X127184207Y-202707368D01*
X127313262Y-202793600D01*
X127184207Y-202879832D01*
X126971932Y-203092107D01*
X126805149Y-203341715D01*
X126690266Y-203619066D01*
X126631700Y-203913499D01*
X126631700Y-204004798D01*
X124463510Y-201836609D01*
X124463510Y-199412711D01*
X124467187Y-199375378D01*
X124452513Y-199226392D01*
X124409056Y-199083131D01*
X124391662Y-199050588D01*
X126625792Y-199050588D01*
X126668257Y-199347771D01*
X126767884Y-199630959D01*
X126846411Y-199777873D01*
X127099469Y-199860226D01*
X127976095Y-198983600D01*
X128335305Y-198983600D01*
X129211931Y-199860226D01*
X129464989Y-199777873D01*
X129594786Y-199507182D01*
X129669280Y-199216370D01*
X129685608Y-198916612D01*
X129643143Y-198619429D01*
X129543516Y-198336241D01*
X129464989Y-198189327D01*
X129211931Y-198106974D01*
X128335305Y-198983600D01*
X127976095Y-198983600D01*
X127099469Y-198106974D01*
X126846411Y-198189327D01*
X126716614Y-198460018D01*
X126642120Y-198750830D01*
X126625792Y-199050588D01*
X124391662Y-199050588D01*
X124338484Y-198951102D01*
X124267309Y-198864375D01*
X124243511Y-198835377D01*
X124214514Y-198811580D01*
X119156433Y-193753499D01*
X126631700Y-193753499D01*
X126631700Y-194053701D01*
X126690266Y-194348134D01*
X126805149Y-194625485D01*
X126971932Y-194875093D01*
X127184207Y-195087368D01*
X127313262Y-195173600D01*
X127184207Y-195259832D01*
X126971932Y-195472107D01*
X126805149Y-195721715D01*
X126690266Y-195999066D01*
X126631700Y-196293499D01*
X126631700Y-196593701D01*
X126690266Y-196888134D01*
X126805149Y-197165485D01*
X126971932Y-197415093D01*
X127184207Y-197627368D01*
X127342322Y-197733017D01*
X127279074Y-197927369D01*
X128155700Y-198803995D01*
X129032326Y-197927369D01*
X128969078Y-197733017D01*
X129127193Y-197627368D01*
X129339468Y-197415093D01*
X129506251Y-197165485D01*
X129621134Y-196888134D01*
X129679700Y-196593701D01*
X129679700Y-196293499D01*
X129621134Y-195999066D01*
X129506251Y-195721715D01*
X129339468Y-195472107D01*
X129127193Y-195259832D01*
X128998138Y-195173600D01*
X129127193Y-195087368D01*
X129339468Y-194875093D01*
X129393052Y-194794899D01*
X135636000Y-194794899D01*
X135636000Y-195095101D01*
X135694566Y-195389534D01*
X135809449Y-195666885D01*
X135976232Y-195916493D01*
X136188507Y-196128768D01*
X136317562Y-196215000D01*
X136188507Y-196301232D01*
X135976232Y-196513507D01*
X135809449Y-196763115D01*
X135694566Y-197040466D01*
X135636000Y-197334899D01*
X135636000Y-197635101D01*
X135694566Y-197929534D01*
X135809449Y-198206885D01*
X135976232Y-198456493D01*
X136188507Y-198668768D01*
X136317562Y-198755000D01*
X136188507Y-198841232D01*
X135976232Y-199053507D01*
X135809449Y-199303115D01*
X135694566Y-199580466D01*
X135636000Y-199874899D01*
X135636000Y-200175101D01*
X135694566Y-200469534D01*
X135809449Y-200746885D01*
X135976232Y-200996493D01*
X136188507Y-201208768D01*
X136317562Y-201295000D01*
X136188507Y-201381232D01*
X135976232Y-201593507D01*
X135809449Y-201843115D01*
X135694566Y-202120466D01*
X135636000Y-202414899D01*
X135636000Y-202715101D01*
X135694566Y-203009534D01*
X135809449Y-203286885D01*
X135976232Y-203536493D01*
X136188507Y-203748768D01*
X136317562Y-203835000D01*
X136188507Y-203921232D01*
X135976232Y-204133507D01*
X135809449Y-204383115D01*
X135694566Y-204660466D01*
X135636000Y-204954899D01*
X135636000Y-205255101D01*
X135694566Y-205549534D01*
X135809449Y-205826885D01*
X135976232Y-206076493D01*
X136188507Y-206288768D01*
X136346622Y-206394417D01*
X136283374Y-206588769D01*
X137160000Y-207465395D01*
X138036626Y-206588769D01*
X137973378Y-206394417D01*
X138131493Y-206288768D01*
X138343768Y-206076493D01*
X138510551Y-205826885D01*
X138625434Y-205549534D01*
X138684000Y-205255101D01*
X138684000Y-204954899D01*
X138625434Y-204660466D01*
X138510551Y-204383115D01*
X138343768Y-204133507D01*
X138131493Y-203921232D01*
X138002438Y-203835000D01*
X138131493Y-203748768D01*
X138343768Y-203536493D01*
X138510551Y-203286885D01*
X138625434Y-203009534D01*
X138684000Y-202715101D01*
X138684000Y-202414899D01*
X138625434Y-202120466D01*
X138510551Y-201843115D01*
X138343768Y-201593507D01*
X138131493Y-201381232D01*
X138002438Y-201295000D01*
X138131493Y-201208768D01*
X138343768Y-200996493D01*
X138510551Y-200746885D01*
X138625434Y-200469534D01*
X138684000Y-200175101D01*
X138684000Y-199874899D01*
X138625434Y-199580466D01*
X138510551Y-199303115D01*
X138343768Y-199053507D01*
X138131493Y-198841232D01*
X138002438Y-198755000D01*
X138131493Y-198668768D01*
X138343768Y-198456493D01*
X138485083Y-198245000D01*
X141542278Y-198245000D01*
X141579600Y-198248676D01*
X141616922Y-198245000D01*
X141616933Y-198245000D01*
X141728586Y-198234003D01*
X141871847Y-198190546D01*
X142003876Y-198119974D01*
X142119601Y-198025001D01*
X142143404Y-197995997D01*
X148474949Y-191664453D01*
X148596029Y-191640368D01*
X148766189Y-191569886D01*
X148919328Y-191467562D01*
X149049562Y-191337328D01*
X149151886Y-191184189D01*
X149222368Y-191014029D01*
X149258300Y-190833389D01*
X149258300Y-190649211D01*
X149222368Y-190468571D01*
X149151886Y-190298411D01*
X149049562Y-190145272D01*
X148919328Y-190015038D01*
X148766189Y-189912714D01*
X148596029Y-189842232D01*
X148415389Y-189806300D01*
X148231211Y-189806300D01*
X148050571Y-189842232D01*
X147880411Y-189912714D01*
X147727272Y-190015038D01*
X147597038Y-190145272D01*
X147494714Y-190298411D01*
X147424232Y-190468571D01*
X147400147Y-190589651D01*
X141264799Y-196725000D01*
X138485083Y-196725000D01*
X138343768Y-196513507D01*
X138131493Y-196301232D01*
X138002438Y-196215000D01*
X138131493Y-196128768D01*
X138343768Y-195916493D01*
X138510551Y-195666885D01*
X138625434Y-195389534D01*
X138684000Y-195095101D01*
X138684000Y-194794899D01*
X138625434Y-194500466D01*
X138510551Y-194223115D01*
X138343768Y-193973507D01*
X138131493Y-193761232D01*
X137881885Y-193594449D01*
X137604534Y-193479566D01*
X137310101Y-193421000D01*
X137009899Y-193421000D01*
X136715466Y-193479566D01*
X136438115Y-193594449D01*
X136188507Y-193761232D01*
X135976232Y-193973507D01*
X135809449Y-194223115D01*
X135694566Y-194500466D01*
X135636000Y-194794899D01*
X129393052Y-194794899D01*
X129506251Y-194625485D01*
X129621134Y-194348134D01*
X129679700Y-194053701D01*
X129679700Y-193753499D01*
X129621134Y-193459066D01*
X129506251Y-193181715D01*
X129339468Y-192932107D01*
X129127193Y-192719832D01*
X128877585Y-192553049D01*
X128600234Y-192438166D01*
X128305801Y-192379600D01*
X128005599Y-192379600D01*
X127711166Y-192438166D01*
X127433815Y-192553049D01*
X127184207Y-192719832D01*
X126971932Y-192932107D01*
X126805149Y-193181715D01*
X126690266Y-193459066D01*
X126631700Y-193753499D01*
X119156433Y-193753499D01*
X115627749Y-190224815D01*
X117856000Y-190224815D01*
X117856000Y-190775185D01*
X117963372Y-191314980D01*
X118173989Y-191823455D01*
X118479758Y-192281071D01*
X118868929Y-192670242D01*
X119326545Y-192976011D01*
X119835020Y-193186628D01*
X120374815Y-193294000D01*
X120925185Y-193294000D01*
X121464980Y-193186628D01*
X121973455Y-192976011D01*
X122431071Y-192670242D01*
X122820242Y-192281071D01*
X123126011Y-191823455D01*
X123336628Y-191314980D01*
X123444000Y-190775185D01*
X123444000Y-190224815D01*
X133096000Y-190224815D01*
X133096000Y-190775185D01*
X133203372Y-191314980D01*
X133413989Y-191823455D01*
X133719758Y-192281071D01*
X134108929Y-192670242D01*
X134566545Y-192976011D01*
X135075020Y-193186628D01*
X135614815Y-193294000D01*
X136165185Y-193294000D01*
X136704980Y-193186628D01*
X137213455Y-192976011D01*
X137671071Y-192670242D01*
X138060242Y-192281071D01*
X138366011Y-191823455D01*
X138576628Y-191314980D01*
X138684000Y-190775185D01*
X138684000Y-190224815D01*
X138576628Y-189685020D01*
X138366011Y-189176545D01*
X138060242Y-188718929D01*
X137671071Y-188329758D01*
X137213455Y-188023989D01*
X136704980Y-187813372D01*
X136165185Y-187706000D01*
X135614815Y-187706000D01*
X135075020Y-187813372D01*
X134566545Y-188023989D01*
X134108929Y-188329758D01*
X133719758Y-188718929D01*
X133413989Y-189176545D01*
X133203372Y-189685020D01*
X133096000Y-190224815D01*
X123444000Y-190224815D01*
X123336628Y-189685020D01*
X123126011Y-189176545D01*
X122820242Y-188718929D01*
X122431071Y-188329758D01*
X121973455Y-188023989D01*
X121464980Y-187813372D01*
X120925185Y-187706000D01*
X120374815Y-187706000D01*
X119835020Y-187813372D01*
X119326545Y-188023989D01*
X118868929Y-188329758D01*
X118479758Y-188718929D01*
X118173989Y-189176545D01*
X117963372Y-189685020D01*
X117856000Y-190224815D01*
X115627749Y-190224815D01*
X111581936Y-186179003D01*
X111558133Y-186149999D01*
X111442408Y-186055026D01*
X111310379Y-185984454D01*
X111167118Y-185940997D01*
X111055465Y-185930000D01*
X111055454Y-185930000D01*
X111018132Y-185926324D01*
X110980810Y-185930000D01*
X105582695Y-185930000D01*
X105545806Y-185860986D01*
X105360234Y-185634866D01*
X105330413Y-185610393D01*
X105399280Y-185589502D01*
X105509594Y-185530537D01*
X105606285Y-185451185D01*
X105685637Y-185354494D01*
X105744602Y-185244180D01*
X105780912Y-185124482D01*
X105793172Y-185000000D01*
X105793172Y-183300000D01*
X105780912Y-183175518D01*
X105744602Y-183055820D01*
X105685637Y-182945506D01*
X105606285Y-182848815D01*
X105509594Y-182769463D01*
X105399280Y-182710498D01*
X105279582Y-182674188D01*
X105155100Y-182661928D01*
X103455100Y-182661928D01*
X103330618Y-182674188D01*
X103210920Y-182710498D01*
X103100606Y-182769463D01*
X103003915Y-182848815D01*
X102924563Y-182945506D01*
X102865598Y-183055820D01*
X102829288Y-183175518D01*
X102817028Y-183300000D01*
X102817028Y-185000000D01*
X102829288Y-185124482D01*
X102865598Y-185244180D01*
X102924563Y-185354494D01*
X103003915Y-185451185D01*
X103100606Y-185530537D01*
X103210920Y-185589502D01*
X103279787Y-185610393D01*
X103249966Y-185634866D01*
X103064394Y-185860986D01*
X102926501Y-186118966D01*
X102841587Y-186398889D01*
X102812915Y-186690000D01*
X102841587Y-186981111D01*
X102926501Y-187261034D01*
X103064394Y-187519014D01*
X103249966Y-187745134D01*
X103476086Y-187930706D01*
X103530891Y-187960000D01*
X103476086Y-187989294D01*
X103249966Y-188174866D01*
X103064394Y-188400986D01*
X102926501Y-188658966D01*
X102841587Y-188938889D01*
X102812915Y-189230000D01*
X102841587Y-189521111D01*
X102926501Y-189801034D01*
X103064394Y-190059014D01*
X103249966Y-190285134D01*
X103476086Y-190470706D01*
X103734066Y-190608599D01*
X104013989Y-190693513D01*
X104232150Y-190715000D01*
X104378050Y-190715000D01*
X104596211Y-190693513D01*
X104876134Y-190608599D01*
X105134114Y-190470706D01*
X105360234Y-190285134D01*
X105545806Y-190059014D01*
X105582695Y-189990000D01*
X112606921Y-189990000D01*
X118724056Y-196107135D01*
X118658115Y-196134449D01*
X118408507Y-196301232D01*
X118196232Y-196513507D01*
X118029449Y-196763115D01*
X117914566Y-197040466D01*
X117856000Y-197334899D01*
X117856000Y-197635101D01*
X117914566Y-197929534D01*
X118029449Y-198206885D01*
X118196232Y-198456493D01*
X118408507Y-198668768D01*
X118537562Y-198755000D01*
X118408507Y-198841232D01*
X118196232Y-199053507D01*
X118029449Y-199303115D01*
X117914566Y-199580466D01*
X117856000Y-199874899D01*
X117856000Y-200175101D01*
X117914566Y-200469534D01*
X118029449Y-200746885D01*
X118196232Y-200996493D01*
X118408507Y-201208768D01*
X118537562Y-201295000D01*
X118408507Y-201381232D01*
X118196232Y-201593507D01*
X118029449Y-201843115D01*
X117914566Y-202120466D01*
X117856000Y-202414899D01*
X117856000Y-202715101D01*
X117914566Y-203009534D01*
X118029449Y-203286885D01*
X118196232Y-203536493D01*
X118408507Y-203748768D01*
X118537562Y-203835000D01*
X118408507Y-203921232D01*
X118196232Y-204133507D01*
X118029449Y-204383115D01*
X117914566Y-204660466D01*
X117856000Y-204954899D01*
X117856000Y-205255101D01*
X117914566Y-205549534D01*
X118029449Y-205826885D01*
X118196232Y-206076493D01*
X118408507Y-206288768D01*
X118658115Y-206455551D01*
X118935466Y-206570434D01*
X119229899Y-206629000D01*
X119530101Y-206629000D01*
X119824534Y-206570434D01*
X120101885Y-206455551D01*
X120351493Y-206288768D01*
X120563768Y-206076493D01*
X120730551Y-205826885D01*
X120845434Y-205549534D01*
X120904000Y-205255101D01*
X120904000Y-204954899D01*
X120845434Y-204660466D01*
X120730551Y-204383115D01*
X120563768Y-204133507D01*
X120351493Y-203921232D01*
X120222438Y-203835000D01*
X120351493Y-203748768D01*
X120563768Y-203536493D01*
X120730551Y-203286885D01*
X120845434Y-203009534D01*
X120904000Y-202715101D01*
X120904000Y-202414899D01*
X120845434Y-202120466D01*
X120730551Y-201843115D01*
X120563768Y-201593507D01*
X120351493Y-201381232D01*
X120222438Y-201295000D01*
X120351493Y-201208768D01*
X120563768Y-200996493D01*
X120730551Y-200746885D01*
X120845434Y-200469534D01*
X120904000Y-200175101D01*
X120904000Y-199874899D01*
X120845434Y-199580466D01*
X120730551Y-199303115D01*
X120563768Y-199053507D01*
X120351493Y-198841232D01*
X120222438Y-198755000D01*
X120351493Y-198668768D01*
X120563768Y-198456493D01*
X120730551Y-198206885D01*
X120757865Y-198140944D01*
X122493501Y-199876581D01*
X122493500Y-204204077D01*
X122489824Y-204241400D01*
X122493500Y-204278722D01*
X122493500Y-204278732D01*
X122504497Y-204390385D01*
X122540215Y-204508134D01*
X122547954Y-204533646D01*
X122618526Y-204665676D01*
X122658371Y-204714226D01*
X122713499Y-204781401D01*
X122742503Y-204805204D01*
X126534798Y-208597500D01*
X115650700Y-208597500D01*
X115650700Y-208364226D01*
X115545595Y-207835830D01*
X115339425Y-207338092D01*
X115040113Y-206890139D01*
X114659161Y-206509187D01*
X114211208Y-206209875D01*
X113713470Y-206003705D01*
X113185074Y-205898600D01*
X112646326Y-205898600D01*
X112117930Y-206003705D01*
X111620192Y-206209875D01*
X111172239Y-206509187D01*
X110791287Y-206890139D01*
X110491975Y-207338092D01*
X110285805Y-207835830D01*
X110180700Y-208364226D01*
X110180700Y-208597500D01*
X100215655Y-208597500D01*
X100210618Y-194394226D01*
X110180700Y-194394226D01*
X110180700Y-194932974D01*
X110285805Y-195461370D01*
X110491975Y-195959108D01*
X110791287Y-196407061D01*
X111172239Y-196788013D01*
X111620192Y-197087325D01*
X112117930Y-197293495D01*
X112646326Y-197398600D01*
X113185074Y-197398600D01*
X113713470Y-197293495D01*
X114211208Y-197087325D01*
X114659161Y-196788013D01*
X115040113Y-196407061D01*
X115339425Y-195959108D01*
X115545595Y-195461370D01*
X115650700Y-194932974D01*
X115650700Y-194394226D01*
X115545595Y-193865830D01*
X115339425Y-193368092D01*
X115040113Y-192920139D01*
X114659161Y-192539187D01*
X114211208Y-192239875D01*
X113713470Y-192033705D01*
X113185074Y-191928600D01*
X112646326Y-191928600D01*
X112117930Y-192033705D01*
X111620192Y-192239875D01*
X111172239Y-192539187D01*
X110791287Y-192920139D01*
X110491975Y-193368092D01*
X110285805Y-193865830D01*
X110180700Y-194394226D01*
X100210618Y-194394226D01*
X100205658Y-180408290D01*
X120332500Y-180408290D01*
X120332500Y-181033710D01*
X120454514Y-181647113D01*
X120693852Y-182224926D01*
X121041317Y-182744944D01*
X121483556Y-183187183D01*
X122003574Y-183534648D01*
X122581387Y-183773986D01*
X123194790Y-183896000D01*
X123820210Y-183896000D01*
X124433613Y-183773986D01*
X125011426Y-183534648D01*
X125531444Y-183187183D01*
X125973683Y-182744944D01*
X126321148Y-182224926D01*
X126560486Y-181647113D01*
X126682500Y-181033710D01*
X126682500Y-180408290D01*
X126560486Y-179794887D01*
X126321148Y-179217074D01*
X125973683Y-178697056D01*
X125531444Y-178254817D01*
X125011426Y-177907352D01*
X124433613Y-177668014D01*
X123820210Y-177546000D01*
X123194790Y-177546000D01*
X122581387Y-177668014D01*
X122003574Y-177907352D01*
X121483556Y-178254817D01*
X121041317Y-178697056D01*
X120693852Y-179217074D01*
X120454514Y-179794887D01*
X120332500Y-180408290D01*
X100205658Y-180408290D01*
X100204625Y-177495565D01*
X143994040Y-177495565D01*
X144061020Y-177735656D01*
X144310048Y-177852756D01*
X144577135Y-177919023D01*
X144852017Y-177931910D01*
X145124133Y-177890922D01*
X145383023Y-177797636D01*
X145498980Y-177735656D01*
X145565960Y-177495565D01*
X144780000Y-176709605D01*
X143994040Y-177495565D01*
X100204625Y-177495565D01*
X100204308Y-176602017D01*
X143378090Y-176602017D01*
X143419078Y-176874133D01*
X143512364Y-177133023D01*
X143574344Y-177248980D01*
X143814435Y-177315960D01*
X144600395Y-176530000D01*
X144959605Y-176530000D01*
X145745565Y-177315960D01*
X145985656Y-177248980D01*
X146102756Y-176999952D01*
X146169023Y-176732865D01*
X146181910Y-176457983D01*
X146140922Y-176185867D01*
X146047636Y-175926977D01*
X145985656Y-175811020D01*
X145745565Y-175744040D01*
X144959605Y-176530000D01*
X144600395Y-176530000D01*
X143814435Y-175744040D01*
X143574344Y-175811020D01*
X143457244Y-176060048D01*
X143390977Y-176327135D01*
X143378090Y-176602017D01*
X100204308Y-176602017D01*
X100183322Y-117440000D01*
X104171928Y-117440000D01*
X104184188Y-117564482D01*
X104220498Y-117684180D01*
X104279463Y-117794494D01*
X104358815Y-117891185D01*
X104455506Y-117970537D01*
X104565820Y-118029502D01*
X104685518Y-118065812D01*
X104810000Y-118078072D01*
X105124250Y-118075000D01*
X105283000Y-117916250D01*
X105283000Y-116967000D01*
X104333750Y-116967000D01*
X104175000Y-117125750D01*
X104171928Y-117440000D01*
X100183322Y-117440000D01*
X100182897Y-116240000D01*
X104171928Y-116240000D01*
X104175000Y-116554250D01*
X104333750Y-116713000D01*
X105283000Y-116713000D01*
X105283000Y-115763750D01*
X105537000Y-115763750D01*
X105537000Y-116713000D01*
X105557000Y-116713000D01*
X105557000Y-116967000D01*
X105537000Y-116967000D01*
X105537000Y-117916250D01*
X105695750Y-118075000D01*
X106010000Y-118078072D01*
X106134482Y-118065812D01*
X106254180Y-118029502D01*
X106364494Y-117970537D01*
X106461185Y-117891185D01*
X106510000Y-117831704D01*
X106558815Y-117891185D01*
X106655506Y-117970537D01*
X106765820Y-118029502D01*
X106885518Y-118065812D01*
X107010000Y-118078072D01*
X108210000Y-118078072D01*
X108334482Y-118065812D01*
X108454180Y-118029502D01*
X108564494Y-117970537D01*
X108661185Y-117891185D01*
X108740537Y-117794494D01*
X108777683Y-117725000D01*
X109867713Y-117725000D01*
X109870498Y-117734180D01*
X109929463Y-117844494D01*
X110008815Y-117941185D01*
X110105506Y-118020537D01*
X110215820Y-118079502D01*
X110335518Y-118115812D01*
X110460000Y-118128072D01*
X111160000Y-118128072D01*
X111284482Y-118115812D01*
X111404180Y-118079502D01*
X111514494Y-118020537D01*
X111611185Y-117941185D01*
X111690537Y-117844494D01*
X111749502Y-117734180D01*
X111760000Y-117699573D01*
X111770498Y-117734180D01*
X111829463Y-117844494D01*
X111908815Y-117941185D01*
X112005506Y-118020537D01*
X112115820Y-118079502D01*
X112235518Y-118115812D01*
X112360000Y-118128072D01*
X113060000Y-118128072D01*
X113184482Y-118115812D01*
X113304180Y-118079502D01*
X113414494Y-118020537D01*
X113511185Y-117941185D01*
X113590537Y-117844494D01*
X113649502Y-117734180D01*
X113685812Y-117614482D01*
X113698072Y-117490000D01*
X113698072Y-116190000D01*
X113685812Y-116065518D01*
X113649502Y-115945820D01*
X113595000Y-115843856D01*
X113595000Y-114135320D01*
X113614180Y-114129502D01*
X113724494Y-114070537D01*
X113821185Y-113991185D01*
X113875501Y-113925000D01*
X114506315Y-113925000D01*
X114687114Y-114105799D01*
X114913957Y-114257371D01*
X115166011Y-114361775D01*
X115433589Y-114415000D01*
X115706411Y-114415000D01*
X115973989Y-114361775D01*
X116226043Y-114257371D01*
X116452886Y-114105799D01*
X116645799Y-113912886D01*
X116797371Y-113686043D01*
X116901775Y-113433989D01*
X116955000Y-113166411D01*
X116955000Y-112893589D01*
X116901775Y-112626011D01*
X116797371Y-112373957D01*
X116645799Y-112147114D01*
X116452886Y-111954201D01*
X116226043Y-111802629D01*
X115973989Y-111698225D01*
X115706411Y-111645000D01*
X115433589Y-111645000D01*
X115384123Y-111654840D01*
X115330000Y-111649509D01*
X115274249Y-111655000D01*
X113875501Y-111655000D01*
X113863191Y-111640000D01*
X113900537Y-111594494D01*
X113959502Y-111484180D01*
X113995812Y-111364482D01*
X114008072Y-111240000D01*
X114005000Y-110775750D01*
X113846250Y-110617000D01*
X112497000Y-110617000D01*
X112497000Y-110637000D01*
X112243000Y-110637000D01*
X112243000Y-110617000D01*
X110893750Y-110617000D01*
X110735000Y-110775750D01*
X110731928Y-111240000D01*
X110744188Y-111364482D01*
X110780498Y-111484180D01*
X110839463Y-111594494D01*
X110876809Y-111640000D01*
X110839463Y-111685506D01*
X110780498Y-111795820D01*
X110747379Y-111905000D01*
X109503465Y-111905000D01*
X109459999Y-111900719D01*
X109416533Y-111905000D01*
X109416523Y-111905000D01*
X109393474Y-111907270D01*
X109331788Y-111895000D01*
X109108212Y-111895000D01*
X108888933Y-111938617D01*
X108682376Y-112024176D01*
X108496480Y-112148388D01*
X108338388Y-112306480D01*
X108214176Y-112492376D01*
X108128617Y-112698933D01*
X108085000Y-112918212D01*
X108085000Y-113141788D01*
X108128617Y-113361067D01*
X108214176Y-113567624D01*
X108338388Y-113753520D01*
X108496480Y-113911612D01*
X108682376Y-114035824D01*
X108888933Y-114121383D01*
X109108212Y-114165000D01*
X109331788Y-114165000D01*
X109551067Y-114121383D01*
X109757624Y-114035824D01*
X109943520Y-113911612D01*
X110101612Y-113753520D01*
X110154077Y-113675000D01*
X110747379Y-113675000D01*
X110780498Y-113784180D01*
X110839463Y-113894494D01*
X110918815Y-113991185D01*
X111015506Y-114070537D01*
X111125820Y-114129502D01*
X111245518Y-114165812D01*
X111370000Y-114178072D01*
X111825001Y-114178072D01*
X111825000Y-115843855D01*
X111770498Y-115945820D01*
X111760000Y-115980427D01*
X111749502Y-115945820D01*
X111690537Y-115835506D01*
X111611185Y-115738815D01*
X111514494Y-115659463D01*
X111404180Y-115600498D01*
X111284482Y-115564188D01*
X111160000Y-115551928D01*
X110460000Y-115551928D01*
X110335518Y-115564188D01*
X110215820Y-115600498D01*
X110105506Y-115659463D01*
X110008815Y-115738815D01*
X109929463Y-115835506D01*
X109870498Y-115945820D01*
X109867713Y-115955000D01*
X108777683Y-115955000D01*
X108740537Y-115885506D01*
X108661185Y-115788815D01*
X108564494Y-115709463D01*
X108454180Y-115650498D01*
X108334482Y-115614188D01*
X108210000Y-115601928D01*
X107010000Y-115601928D01*
X106885518Y-115614188D01*
X106765820Y-115650498D01*
X106655506Y-115709463D01*
X106558815Y-115788815D01*
X106510000Y-115848296D01*
X106461185Y-115788815D01*
X106364494Y-115709463D01*
X106254180Y-115650498D01*
X106134482Y-115614188D01*
X106010000Y-115601928D01*
X105695750Y-115605000D01*
X105537000Y-115763750D01*
X105283000Y-115763750D01*
X105124250Y-115605000D01*
X104810000Y-115601928D01*
X104685518Y-115614188D01*
X104565820Y-115650498D01*
X104455506Y-115709463D01*
X104358815Y-115788815D01*
X104279463Y-115885506D01*
X104220498Y-115995820D01*
X104184188Y-116115518D01*
X104171928Y-116240000D01*
X100182897Y-116240000D01*
X100181532Y-112390000D01*
X104431928Y-112390000D01*
X104444188Y-112514482D01*
X104480498Y-112634180D01*
X104539463Y-112744494D01*
X104618815Y-112841185D01*
X104715506Y-112920537D01*
X104825820Y-112979502D01*
X104945518Y-113015812D01*
X105070000Y-113028072D01*
X105784250Y-113025000D01*
X105943000Y-112866250D01*
X105943000Y-110617000D01*
X106197000Y-110617000D01*
X106197000Y-112866250D01*
X106355750Y-113025000D01*
X107070000Y-113028072D01*
X107194482Y-113015812D01*
X107314180Y-112979502D01*
X107424494Y-112920537D01*
X107521185Y-112841185D01*
X107600537Y-112744494D01*
X107659502Y-112634180D01*
X107695812Y-112514482D01*
X107708072Y-112390000D01*
X107705000Y-110775750D01*
X107546250Y-110617000D01*
X106197000Y-110617000D01*
X105943000Y-110617000D01*
X104593750Y-110617000D01*
X104435000Y-110775750D01*
X104431928Y-112390000D01*
X100181532Y-112390000D01*
X100180184Y-108590000D01*
X104431928Y-108590000D01*
X104435000Y-110204250D01*
X104593750Y-110363000D01*
X105943000Y-110363000D01*
X105943000Y-108113750D01*
X106197000Y-108113750D01*
X106197000Y-110363000D01*
X107546250Y-110363000D01*
X107705000Y-110204250D01*
X107708072Y-108590000D01*
X107695812Y-108465518D01*
X107659502Y-108345820D01*
X107600537Y-108235506D01*
X107521185Y-108138815D01*
X107424494Y-108059463D01*
X107314180Y-108000498D01*
X107194482Y-107964188D01*
X107070000Y-107951928D01*
X106355750Y-107955000D01*
X106197000Y-108113750D01*
X105943000Y-108113750D01*
X105784250Y-107955000D01*
X105070000Y-107951928D01*
X104945518Y-107964188D01*
X104825820Y-108000498D01*
X104715506Y-108059463D01*
X104618815Y-108138815D01*
X104539463Y-108235506D01*
X104480498Y-108345820D01*
X104444188Y-108465518D01*
X104431928Y-108590000D01*
X100180184Y-108590000D01*
X100178827Y-104765000D01*
X104541928Y-104765000D01*
X104554188Y-104889482D01*
X104590498Y-105009180D01*
X104649463Y-105119494D01*
X104728815Y-105216185D01*
X104825506Y-105295537D01*
X104935820Y-105354502D01*
X105055518Y-105390812D01*
X105180000Y-105403072D01*
X105394250Y-105400000D01*
X105553000Y-105241250D01*
X105553000Y-104267000D01*
X104703750Y-104267000D01*
X104545000Y-104425750D01*
X104541928Y-104765000D01*
X100178827Y-104765000D01*
X100178384Y-103515000D01*
X104541928Y-103515000D01*
X104545000Y-103854250D01*
X104703750Y-104013000D01*
X105553000Y-104013000D01*
X105553000Y-103038750D01*
X105394250Y-102880000D01*
X105180000Y-102876928D01*
X105055518Y-102889188D01*
X104935820Y-102925498D01*
X104825506Y-102984463D01*
X104728815Y-103063815D01*
X104649463Y-103160506D01*
X104590498Y-103270820D01*
X104554188Y-103390518D01*
X104541928Y-103515000D01*
X100178384Y-103515000D01*
X100177645Y-101434900D01*
X108574769Y-101434900D01*
X110053835Y-102913966D01*
X110053835Y-102913966D01*
G37*
X110053835Y-102913966D02*
X110015820Y-102925498D01*
X109905506Y-102984463D01*
X109808815Y-103063815D01*
X109729463Y-103160506D01*
X109678954Y-103255000D01*
X109263476Y-103255000D01*
X109220000Y-103250718D01*
X109176523Y-103255000D01*
X108761046Y-103255000D01*
X108710537Y-103160506D01*
X108631185Y-103063815D01*
X108534494Y-102984463D01*
X108424180Y-102925498D01*
X108304482Y-102889188D01*
X108180000Y-102876928D01*
X107180000Y-102876928D01*
X107055518Y-102889188D01*
X106935820Y-102925498D01*
X106825506Y-102984463D01*
X106728815Y-103063815D01*
X106680000Y-103123296D01*
X106631185Y-103063815D01*
X106534494Y-102984463D01*
X106424180Y-102925498D01*
X106304482Y-102889188D01*
X106180000Y-102876928D01*
X105965750Y-102880000D01*
X105807000Y-103038750D01*
X105807000Y-104013000D01*
X105827000Y-104013000D01*
X105827000Y-104267000D01*
X105807000Y-104267000D01*
X105807000Y-105241250D01*
X105965750Y-105400000D01*
X106180000Y-105403072D01*
X106304482Y-105390812D01*
X106424180Y-105354502D01*
X106534494Y-105295537D01*
X106631185Y-105216185D01*
X106680000Y-105156704D01*
X106728815Y-105216185D01*
X106825506Y-105295537D01*
X106935820Y-105354502D01*
X107055518Y-105390812D01*
X107180000Y-105403072D01*
X108085000Y-105403072D01*
X108085000Y-105521788D01*
X108128617Y-105741067D01*
X108214176Y-105947624D01*
X108338388Y-106133520D01*
X108496480Y-106291612D01*
X108682376Y-106415824D01*
X108888933Y-106501383D01*
X109108212Y-106545000D01*
X109331788Y-106545000D01*
X109551067Y-106501383D01*
X109757624Y-106415824D01*
X109943520Y-106291612D01*
X110101612Y-106133520D01*
X110225824Y-105947624D01*
X110311383Y-105741067D01*
X110355000Y-105521788D01*
X110355000Y-105403072D01*
X111260000Y-105403072D01*
X111384482Y-105390812D01*
X111504180Y-105354502D01*
X111614494Y-105295537D01*
X111625000Y-105286915D01*
X111625001Y-106801928D01*
X111370000Y-106801928D01*
X111245518Y-106814188D01*
X111125820Y-106850498D01*
X111015506Y-106909463D01*
X110918815Y-106988815D01*
X110839463Y-107085506D01*
X110780498Y-107195820D01*
X110744188Y-107315518D01*
X110731928Y-107440000D01*
X110731928Y-108940000D01*
X110744188Y-109064482D01*
X110780498Y-109184180D01*
X110839463Y-109294494D01*
X110876809Y-109340000D01*
X110839463Y-109385506D01*
X110780498Y-109495820D01*
X110744188Y-109615518D01*
X110731928Y-109740000D01*
X110735000Y-110204250D01*
X110893750Y-110363000D01*
X112243000Y-110363000D01*
X112243000Y-110343000D01*
X112497000Y-110343000D01*
X112497000Y-110363000D01*
X113846250Y-110363000D01*
X114005000Y-110204250D01*
X114008072Y-109740000D01*
X113995812Y-109615518D01*
X113959502Y-109495820D01*
X113900537Y-109385506D01*
X113863191Y-109340000D01*
X113900537Y-109294494D01*
X113959502Y-109184180D01*
X113995812Y-109064482D01*
X114008072Y-108940000D01*
X114008072Y-107440000D01*
X113995812Y-107315518D01*
X113959502Y-107195820D01*
X113900537Y-107085506D01*
X113895000Y-107078759D01*
X113895000Y-104796192D01*
X113898072Y-104765000D01*
X113898072Y-104206988D01*
X121660092Y-104206988D01*
X121702557Y-104504171D01*
X121802184Y-104787359D01*
X121880711Y-104934273D01*
X122133769Y-105016626D01*
X123010395Y-104140000D01*
X123369605Y-104140000D01*
X124246231Y-105016626D01*
X124499289Y-104934273D01*
X124629086Y-104663582D01*
X124703580Y-104372770D01*
X124719908Y-104073012D01*
X124677443Y-103775829D01*
X124577816Y-103492641D01*
X124499289Y-103345727D01*
X124246231Y-103263374D01*
X123369605Y-104140000D01*
X123010395Y-104140000D01*
X122133769Y-103263374D01*
X121880711Y-103345727D01*
X121750914Y-103616418D01*
X121676420Y-103907230D01*
X121660092Y-104206988D01*
X113898072Y-104206988D01*
X113898072Y-104039561D01*
X113900491Y-104015000D01*
X113898072Y-103990439D01*
X113898072Y-103515000D01*
X113885812Y-103390518D01*
X113849502Y-103270820D01*
X113790537Y-103160506D01*
X113711185Y-103063815D01*
X113614494Y-102984463D01*
X113504180Y-102925498D01*
X113384482Y-102889188D01*
X113260000Y-102876928D01*
X113227060Y-102876928D01*
X111785032Y-101434900D01*
X121668983Y-101434900D01*
X121666000Y-101449899D01*
X121666000Y-101750101D01*
X121724566Y-102044534D01*
X121839449Y-102321885D01*
X122006232Y-102571493D01*
X122218507Y-102783768D01*
X122376622Y-102889417D01*
X122313374Y-103083769D01*
X123190000Y-103960395D01*
X124066626Y-103083769D01*
X124003378Y-102889417D01*
X124161493Y-102783768D01*
X124373768Y-102571493D01*
X124540551Y-102321885D01*
X124655434Y-102044534D01*
X124714000Y-101750101D01*
X124714000Y-101449899D01*
X124711017Y-101434900D01*
X151180800Y-101434900D01*
X151180800Y-120681928D01*
X150530000Y-120681928D01*
X150405518Y-120694188D01*
X150285820Y-120730498D01*
X150175506Y-120789463D01*
X150078815Y-120868815D01*
X149999463Y-120965506D01*
X149962317Y-121035000D01*
X148316144Y-121035000D01*
X148214180Y-120980498D01*
X148094482Y-120944188D01*
X147970000Y-120931928D01*
X146670000Y-120931928D01*
X146545518Y-120944188D01*
X146425820Y-120980498D01*
X146315506Y-121039463D01*
X146218815Y-121118815D01*
X146139463Y-121215506D01*
X146080498Y-121325820D01*
X146044188Y-121445518D01*
X146031928Y-121570000D01*
X146031928Y-122270000D01*
X146044188Y-122394482D01*
X146080498Y-122514180D01*
X146139463Y-122624494D01*
X146218815Y-122721185D01*
X146315506Y-122800537D01*
X146425820Y-122859502D01*
X146460427Y-122870000D01*
X146425820Y-122880498D01*
X146315506Y-122939463D01*
X146218815Y-123018815D01*
X146139463Y-123115506D01*
X146080498Y-123225820D01*
X146044188Y-123345518D01*
X146031928Y-123470000D01*
X146031928Y-123575000D01*
X144751561Y-123575000D01*
X144693768Y-123488507D01*
X144481493Y-123276232D01*
X144352438Y-123190000D01*
X144481493Y-123103768D01*
X144693768Y-122891493D01*
X144860551Y-122641885D01*
X144975434Y-122364534D01*
X145034000Y-122070101D01*
X145034000Y-121769899D01*
X144975434Y-121475466D01*
X144860551Y-121198115D01*
X144693768Y-120948507D01*
X144481493Y-120736232D01*
X144352438Y-120650000D01*
X144481493Y-120563768D01*
X144693768Y-120351493D01*
X144860551Y-120101885D01*
X144975434Y-119824534D01*
X145034000Y-119530101D01*
X145034000Y-119229899D01*
X144975434Y-118935466D01*
X144860551Y-118658115D01*
X144693768Y-118408507D01*
X144481493Y-118196232D01*
X144352438Y-118110000D01*
X144481493Y-118023768D01*
X144693768Y-117811493D01*
X144860551Y-117561885D01*
X144975434Y-117284534D01*
X145034000Y-116990101D01*
X145034000Y-116689899D01*
X144975434Y-116395466D01*
X144860551Y-116118115D01*
X144693768Y-115868507D01*
X144481493Y-115656232D01*
X144352438Y-115570000D01*
X144481493Y-115483768D01*
X144693768Y-115271493D01*
X144860551Y-115021885D01*
X144975434Y-114744534D01*
X145034000Y-114450101D01*
X145034000Y-114149899D01*
X144975434Y-113855466D01*
X144860551Y-113578115D01*
X144693768Y-113328507D01*
X144481493Y-113116232D01*
X144352438Y-113030000D01*
X144481493Y-112943768D01*
X144693768Y-112731493D01*
X144860551Y-112481885D01*
X144975434Y-112204534D01*
X145034000Y-111910101D01*
X145034000Y-111609899D01*
X144975434Y-111315466D01*
X144860551Y-111038115D01*
X144693768Y-110788507D01*
X144481493Y-110576232D01*
X144231885Y-110409449D01*
X143954534Y-110294566D01*
X143660101Y-110236000D01*
X143359899Y-110236000D01*
X143065466Y-110294566D01*
X142788115Y-110409449D01*
X142538507Y-110576232D01*
X142326232Y-110788507D01*
X142159449Y-111038115D01*
X142044566Y-111315466D01*
X141986000Y-111609899D01*
X141986000Y-111910101D01*
X142044566Y-112204534D01*
X142159449Y-112481885D01*
X142326232Y-112731493D01*
X142538507Y-112943768D01*
X142667562Y-113030000D01*
X142538507Y-113116232D01*
X142326232Y-113328507D01*
X142159449Y-113578115D01*
X142044566Y-113855466D01*
X141986000Y-114149899D01*
X141986000Y-114450101D01*
X142044566Y-114744534D01*
X142159449Y-115021885D01*
X142326232Y-115271493D01*
X142538507Y-115483768D01*
X142667562Y-115570000D01*
X142538507Y-115656232D01*
X142326232Y-115868507D01*
X142159449Y-116118115D01*
X142044566Y-116395466D01*
X141986000Y-116689899D01*
X141986000Y-116990101D01*
X142044566Y-117284534D01*
X142159449Y-117561885D01*
X142326232Y-117811493D01*
X142538507Y-118023768D01*
X142667562Y-118110000D01*
X142538507Y-118196232D01*
X142326232Y-118408507D01*
X142159449Y-118658115D01*
X142044566Y-118935466D01*
X141986000Y-119229899D01*
X141986000Y-119530101D01*
X142044566Y-119824534D01*
X142159449Y-120101885D01*
X142326232Y-120351493D01*
X142538507Y-120563768D01*
X142667562Y-120650000D01*
X142538507Y-120736232D01*
X142326232Y-120948507D01*
X142159449Y-121198115D01*
X142044566Y-121475466D01*
X141986000Y-121769899D01*
X141986000Y-122070101D01*
X142044566Y-122364534D01*
X142159449Y-122641885D01*
X142326232Y-122891493D01*
X142538507Y-123103768D01*
X142667562Y-123190000D01*
X142538507Y-123276232D01*
X142326232Y-123488507D01*
X142159449Y-123738115D01*
X142044566Y-124015466D01*
X141986000Y-124309899D01*
X141986000Y-124610101D01*
X142044566Y-124904534D01*
X142159449Y-125181885D01*
X142326232Y-125431493D01*
X142538507Y-125643768D01*
X142667562Y-125730000D01*
X142538507Y-125816232D01*
X142326232Y-126028507D01*
X142159449Y-126278115D01*
X142044566Y-126555466D01*
X141986000Y-126849899D01*
X141986000Y-126941198D01*
X132699803Y-117655002D01*
X132676000Y-117625998D01*
X132560275Y-117531025D01*
X132428246Y-117460453D01*
X132284985Y-117416996D01*
X132173332Y-117405999D01*
X132173321Y-117405999D01*
X132135999Y-117402323D01*
X132098677Y-117405999D01*
X124605121Y-117405999D01*
X124655434Y-117284534D01*
X124714000Y-116990101D01*
X124714000Y-116689899D01*
X124655434Y-116395466D01*
X124540551Y-116118115D01*
X124373768Y-115868507D01*
X124161493Y-115656232D01*
X124032438Y-115570000D01*
X124161493Y-115483768D01*
X124373768Y-115271493D01*
X124540551Y-115021885D01*
X124655434Y-114744534D01*
X124714000Y-114450101D01*
X124714000Y-114149899D01*
X124660494Y-113880900D01*
X129453609Y-113880900D01*
X129475523Y-114103399D01*
X129540424Y-114317347D01*
X129645816Y-114514523D01*
X129787651Y-114687349D01*
X129960477Y-114829184D01*
X130157653Y-114934576D01*
X130371601Y-114999477D01*
X130538348Y-115015900D01*
X130700652Y-115015900D01*
X130867399Y-114999477D01*
X131081347Y-114934576D01*
X131278523Y-114829184D01*
X131451349Y-114687349D01*
X131593184Y-114514523D01*
X131698576Y-114317347D01*
X131763477Y-114103399D01*
X131785391Y-113880900D01*
X131763477Y-113658401D01*
X131698576Y-113444453D01*
X131593184Y-113247277D01*
X131451349Y-113074451D01*
X131278523Y-112932616D01*
X131081347Y-112827224D01*
X130867399Y-112762323D01*
X130700652Y-112745900D01*
X130538348Y-112745900D01*
X130371601Y-112762323D01*
X130157653Y-112827224D01*
X129960477Y-112932616D01*
X129787651Y-113074451D01*
X129645816Y-113247277D01*
X129540424Y-113444453D01*
X129475523Y-113658401D01*
X129453609Y-113880900D01*
X124660494Y-113880900D01*
X124655434Y-113855466D01*
X124540551Y-113578115D01*
X124373768Y-113328507D01*
X124161493Y-113116232D01*
X124032438Y-113030000D01*
X124161493Y-112943768D01*
X124373768Y-112731493D01*
X124540551Y-112481885D01*
X124655434Y-112204534D01*
X124714000Y-111910101D01*
X124714000Y-111609899D01*
X124655434Y-111315466D01*
X124540551Y-111038115D01*
X124373768Y-110788507D01*
X124161493Y-110576232D01*
X124032438Y-110490000D01*
X124161493Y-110403768D01*
X124373768Y-110191493D01*
X124540551Y-109941885D01*
X124655434Y-109664534D01*
X124714000Y-109370101D01*
X124714000Y-109069899D01*
X124655434Y-108775466D01*
X124540551Y-108498115D01*
X124373768Y-108248507D01*
X124161493Y-108036232D01*
X124032438Y-107950000D01*
X124161493Y-107863768D01*
X124373768Y-107651493D01*
X124540551Y-107401885D01*
X124655434Y-107124534D01*
X124714000Y-106830101D01*
X124714000Y-106529899D01*
X124655434Y-106235466D01*
X124540551Y-105958115D01*
X124373768Y-105708507D01*
X124161493Y-105496232D01*
X124003378Y-105390583D01*
X124066626Y-105196231D01*
X123190000Y-104319605D01*
X122313374Y-105196231D01*
X122376622Y-105390583D01*
X122218507Y-105496232D01*
X122006232Y-105708507D01*
X121839449Y-105958115D01*
X121724566Y-106235466D01*
X121666000Y-106529899D01*
X121666000Y-106830101D01*
X121724566Y-107124534D01*
X121839449Y-107401885D01*
X122006232Y-107651493D01*
X122218507Y-107863768D01*
X122347562Y-107950000D01*
X122218507Y-108036232D01*
X122006232Y-108248507D01*
X121839449Y-108498115D01*
X121724566Y-108775466D01*
X121666000Y-109069899D01*
X121666000Y-109370101D01*
X121724566Y-109664534D01*
X121839449Y-109941885D01*
X122006232Y-110191493D01*
X122218507Y-110403768D01*
X122347562Y-110490000D01*
X122218507Y-110576232D01*
X122006232Y-110788507D01*
X121839449Y-111038115D01*
X121724566Y-111315466D01*
X121666000Y-111609899D01*
X121666000Y-111910101D01*
X121724566Y-112204534D01*
X121839449Y-112481885D01*
X122006232Y-112731493D01*
X122218507Y-112943768D01*
X122347562Y-113030000D01*
X122218507Y-113116232D01*
X122006232Y-113328507D01*
X121839449Y-113578115D01*
X121724566Y-113855466D01*
X121666000Y-114149899D01*
X121666000Y-114450101D01*
X121724566Y-114744534D01*
X121839449Y-115021885D01*
X122006232Y-115271493D01*
X122218507Y-115483768D01*
X122347562Y-115570000D01*
X122218507Y-115656232D01*
X122006232Y-115868507D01*
X121839449Y-116118115D01*
X121724566Y-116395466D01*
X121666000Y-116689899D01*
X121666000Y-116990101D01*
X121724566Y-117284534D01*
X121774879Y-117405999D01*
X119005723Y-117405999D01*
X118968400Y-117402323D01*
X118931077Y-117405999D01*
X118931068Y-117405999D01*
X118819415Y-117416996D01*
X118676154Y-117460453D01*
X118544125Y-117531025D01*
X118428400Y-117625998D01*
X118404602Y-117654996D01*
X111229299Y-124830300D01*
X109341895Y-124830300D01*
X109305006Y-124761286D01*
X109119434Y-124535166D01*
X108893314Y-124349594D01*
X108635334Y-124211701D01*
X108355411Y-124126787D01*
X108137250Y-124105300D01*
X107991350Y-124105300D01*
X107773189Y-124126787D01*
X107493266Y-124211701D01*
X107235286Y-124349594D01*
X107009166Y-124535166D01*
X106823594Y-124761286D01*
X106794300Y-124816091D01*
X106765006Y-124761286D01*
X106579434Y-124535166D01*
X106353314Y-124349594D01*
X106095334Y-124211701D01*
X105815411Y-124126787D01*
X105597250Y-124105300D01*
X105451350Y-124105300D01*
X105233189Y-124126787D01*
X104953266Y-124211701D01*
X104695286Y-124349594D01*
X104469166Y-124535166D01*
X104444693Y-124564987D01*
X104423802Y-124496120D01*
X104364837Y-124385806D01*
X104285485Y-124289115D01*
X104188794Y-124209763D01*
X104078480Y-124150798D01*
X103958782Y-124114488D01*
X103834300Y-124102228D01*
X102134300Y-124102228D01*
X102009818Y-124114488D01*
X101890120Y-124150798D01*
X101779806Y-124209763D01*
X101683115Y-124289115D01*
X101603763Y-124385806D01*
X101544798Y-124496120D01*
X101508488Y-124615818D01*
X101496228Y-124740300D01*
X101496228Y-126440300D01*
X101508488Y-126564782D01*
X101544798Y-126684480D01*
X101603763Y-126794794D01*
X101683115Y-126891485D01*
X101779806Y-126970837D01*
X101890120Y-127029802D01*
X102009818Y-127066112D01*
X102134300Y-127078372D01*
X103834300Y-127078372D01*
X103958782Y-127066112D01*
X104078480Y-127029802D01*
X104188794Y-126970837D01*
X104285485Y-126891485D01*
X104364837Y-126794794D01*
X104423802Y-126684480D01*
X104444693Y-126615613D01*
X104469166Y-126645434D01*
X104695286Y-126831006D01*
X104953266Y-126968899D01*
X105233189Y-127053813D01*
X105451350Y-127075300D01*
X105597250Y-127075300D01*
X105815411Y-127053813D01*
X106095334Y-126968899D01*
X106353314Y-126831006D01*
X106579434Y-126645434D01*
X106765006Y-126419314D01*
X106794300Y-126364509D01*
X106823594Y-126419314D01*
X107009166Y-126645434D01*
X107235286Y-126831006D01*
X107493266Y-126968899D01*
X107773189Y-127053813D01*
X107991350Y-127075300D01*
X108137250Y-127075300D01*
X108355411Y-127053813D01*
X108635334Y-126968899D01*
X108893314Y-126831006D01*
X109119434Y-126645434D01*
X109305006Y-126419314D01*
X109341895Y-126350300D01*
X111506778Y-126350300D01*
X111544100Y-126353976D01*
X111581422Y-126350300D01*
X111581433Y-126350300D01*
X111693086Y-126339303D01*
X111836347Y-126295846D01*
X111968376Y-126225274D01*
X112084101Y-126130301D01*
X112107904Y-126101297D01*
X113996736Y-124212465D01*
X114030214Y-124293289D01*
X114098801Y-124395936D01*
X114098800Y-125502753D01*
X101223189Y-138378365D01*
X101194191Y-138402163D01*
X101170393Y-138431161D01*
X101170392Y-138431162D01*
X101099217Y-138517888D01*
X101028645Y-138649918D01*
X100985189Y-138793179D01*
X100970515Y-138942164D01*
X100974192Y-138979496D01*
X100974190Y-168373267D01*
X100974190Y-168373268D01*
X100974192Y-170276859D01*
X100970515Y-170314191D01*
X100974192Y-170351523D01*
X100974192Y-170351524D01*
X100975508Y-170364880D01*
X100985189Y-170463176D01*
X101028645Y-170606437D01*
X101099217Y-170738467D01*
X101162048Y-170815026D01*
X101194191Y-170854192D01*
X101223189Y-170877990D01*
X102665623Y-172320425D01*
X102616000Y-172569899D01*
X102616000Y-172870101D01*
X102674566Y-173164534D01*
X102789449Y-173441885D01*
X102956232Y-173691493D01*
X103168507Y-173903768D01*
X103418115Y-174070551D01*
X103695466Y-174185434D01*
X103989899Y-174244000D01*
X104290101Y-174244000D01*
X104584534Y-174185434D01*
X104861885Y-174070551D01*
X105111493Y-173903768D01*
X105323768Y-173691493D01*
X105490551Y-173441885D01*
X105605434Y-173164534D01*
X105664000Y-172870101D01*
X105664000Y-172569899D01*
X105605434Y-172275466D01*
X105490551Y-171998115D01*
X105323768Y-171748507D01*
X105111493Y-171536232D01*
X104982438Y-171450000D01*
X105111493Y-171363768D01*
X105323768Y-171151493D01*
X105490551Y-170901885D01*
X105605434Y-170624534D01*
X105664000Y-170330101D01*
X105664000Y-170029899D01*
X105605434Y-169735466D01*
X105490551Y-169458115D01*
X105323768Y-169208507D01*
X105111493Y-168996232D01*
X104982438Y-168910000D01*
X105111493Y-168823768D01*
X105323768Y-168611493D01*
X105490551Y-168361885D01*
X105605434Y-168084534D01*
X105664000Y-167790101D01*
X105664000Y-167489899D01*
X105605434Y-167195466D01*
X105490551Y-166918115D01*
X105323768Y-166668507D01*
X105111493Y-166456232D01*
X104982438Y-166370000D01*
X105111493Y-166283768D01*
X105323768Y-166071493D01*
X105490551Y-165821885D01*
X105605434Y-165544534D01*
X105664000Y-165250101D01*
X105664000Y-164949899D01*
X105614377Y-164700424D01*
X109934204Y-160380598D01*
X109963201Y-160356801D01*
X109999766Y-160312246D01*
X110058174Y-160241077D01*
X110128746Y-160109047D01*
X110128746Y-160109046D01*
X110172203Y-159965786D01*
X110183200Y-159854133D01*
X110183200Y-159854124D01*
X110186876Y-159816801D01*
X110183200Y-159779478D01*
X110183200Y-152249899D01*
X128016000Y-152249899D01*
X128016000Y-152550101D01*
X128074566Y-152844534D01*
X128189449Y-153121885D01*
X128356232Y-153371493D01*
X128568507Y-153583768D01*
X128697562Y-153670000D01*
X128568507Y-153756232D01*
X128356232Y-153968507D01*
X128189449Y-154218115D01*
X128074566Y-154495466D01*
X128016000Y-154789899D01*
X128016000Y-155090101D01*
X128074566Y-155384534D01*
X128189449Y-155661885D01*
X128356232Y-155911493D01*
X128568507Y-156123768D01*
X128697562Y-156210000D01*
X128568507Y-156296232D01*
X128356232Y-156508507D01*
X128189449Y-156758115D01*
X128074566Y-157035466D01*
X128016000Y-157329899D01*
X128016000Y-157630101D01*
X128074566Y-157924534D01*
X128189449Y-158201885D01*
X128356232Y-158451493D01*
X128568507Y-158663768D01*
X128697562Y-158750000D01*
X128568507Y-158836232D01*
X128356232Y-159048507D01*
X128189449Y-159298115D01*
X128074566Y-159575466D01*
X128016000Y-159869899D01*
X128016000Y-160170101D01*
X128074566Y-160464534D01*
X128189449Y-160741885D01*
X128356232Y-160991493D01*
X128568507Y-161203768D01*
X128697562Y-161290000D01*
X128568507Y-161376232D01*
X128356232Y-161588507D01*
X128189449Y-161838115D01*
X128074566Y-162115466D01*
X128016000Y-162409899D01*
X128016000Y-162710101D01*
X128074566Y-163004534D01*
X128189449Y-163281885D01*
X128356232Y-163531493D01*
X128568507Y-163743768D01*
X128818115Y-163910551D01*
X129095466Y-164025434D01*
X129389899Y-164084000D01*
X129690101Y-164084000D01*
X129984534Y-164025434D01*
X130261885Y-163910551D01*
X130511493Y-163743768D01*
X130723768Y-163531493D01*
X130890551Y-163281885D01*
X131005434Y-163004534D01*
X131064000Y-162710101D01*
X131064000Y-162409899D01*
X131005434Y-162115466D01*
X130890551Y-161838115D01*
X130723768Y-161588507D01*
X130511493Y-161376232D01*
X130382438Y-161290000D01*
X130511493Y-161203768D01*
X130723768Y-160991493D01*
X130890551Y-160741885D01*
X131005434Y-160464534D01*
X131064000Y-160170101D01*
X131064000Y-159869899D01*
X131005434Y-159575466D01*
X130890551Y-159298115D01*
X130723768Y-159048507D01*
X130511493Y-158836232D01*
X130382438Y-158750000D01*
X130511493Y-158663768D01*
X130723768Y-158451493D01*
X130890551Y-158201885D01*
X131005434Y-157924534D01*
X131064000Y-157630101D01*
X131064000Y-157329899D01*
X131005434Y-157035466D01*
X130890551Y-156758115D01*
X130723768Y-156508507D01*
X130511493Y-156296232D01*
X130382438Y-156210000D01*
X130511493Y-156123768D01*
X130723768Y-155911493D01*
X130890551Y-155661885D01*
X131005434Y-155384534D01*
X131064000Y-155090101D01*
X131064000Y-154789899D01*
X131005434Y-154495466D01*
X130890551Y-154218115D01*
X130723768Y-153968507D01*
X130511493Y-153756232D01*
X130382438Y-153670000D01*
X130511493Y-153583768D01*
X130723768Y-153371493D01*
X130890551Y-153121885D01*
X131005434Y-152844534D01*
X131064000Y-152550101D01*
X131064000Y-152249899D01*
X131005434Y-151955466D01*
X130890551Y-151678115D01*
X130723768Y-151428507D01*
X130511493Y-151216232D01*
X130261885Y-151049449D01*
X129984534Y-150934566D01*
X129690101Y-150876000D01*
X129389899Y-150876000D01*
X129095466Y-150934566D01*
X128818115Y-151049449D01*
X128568507Y-151216232D01*
X128356232Y-151428507D01*
X128189449Y-151678115D01*
X128074566Y-151955466D01*
X128016000Y-152249899D01*
X110183200Y-152249899D01*
X110183200Y-143043357D01*
X122301000Y-143043357D01*
X122301000Y-143468643D01*
X122383970Y-143885757D01*
X122546719Y-144278670D01*
X122782996Y-144632282D01*
X123083718Y-144933004D01*
X123437330Y-145169281D01*
X123830243Y-145332030D01*
X124247357Y-145415000D01*
X124672643Y-145415000D01*
X125089757Y-145332030D01*
X125482670Y-145169281D01*
X125836282Y-144933004D01*
X126137004Y-144632282D01*
X126373281Y-144278670D01*
X126536030Y-143885757D01*
X126619000Y-143468643D01*
X126619000Y-143043357D01*
X126536030Y-142626243D01*
X126373281Y-142233330D01*
X126137004Y-141879718D01*
X125836282Y-141578996D01*
X125482670Y-141342719D01*
X125089757Y-141179970D01*
X124672643Y-141097000D01*
X124247357Y-141097000D01*
X123830243Y-141179970D01*
X123437330Y-141342719D01*
X123083718Y-141578996D01*
X122782996Y-141879718D01*
X122546719Y-142233330D01*
X122383970Y-142626243D01*
X122301000Y-143043357D01*
X110183200Y-143043357D01*
X110183200Y-135138001D01*
X112481202Y-132840000D01*
X121864917Y-132840000D01*
X122006232Y-133051493D01*
X122218507Y-133263768D01*
X122347562Y-133350000D01*
X122218507Y-133436232D01*
X122006232Y-133648507D01*
X121839449Y-133898115D01*
X121724566Y-134175466D01*
X121666000Y-134469899D01*
X121666000Y-134770101D01*
X121724566Y-135064534D01*
X121839449Y-135341885D01*
X122006232Y-135591493D01*
X122218507Y-135803768D01*
X122347562Y-135890000D01*
X122218507Y-135976232D01*
X122006232Y-136188507D01*
X121839449Y-136438115D01*
X121724566Y-136715466D01*
X121666000Y-137009899D01*
X121666000Y-137310101D01*
X121724566Y-137604534D01*
X121839449Y-137881885D01*
X122006232Y-138131493D01*
X122218507Y-138343768D01*
X122347562Y-138430000D01*
X122218507Y-138516232D01*
X122006232Y-138728507D01*
X121839449Y-138978115D01*
X121724566Y-139255466D01*
X121666000Y-139549899D01*
X121666000Y-139850101D01*
X121724566Y-140144534D01*
X121839449Y-140421885D01*
X122006232Y-140671493D01*
X122218507Y-140883768D01*
X122468115Y-141050551D01*
X122745466Y-141165434D01*
X123039899Y-141224000D01*
X123340101Y-141224000D01*
X123634534Y-141165434D01*
X123911885Y-141050551D01*
X124161493Y-140883768D01*
X124373768Y-140671493D01*
X124452148Y-140554189D01*
X127964500Y-140554189D01*
X127964500Y-140827011D01*
X128017725Y-141094589D01*
X128122129Y-141346643D01*
X128273701Y-141573486D01*
X128466614Y-141766399D01*
X128693457Y-141917971D01*
X128945511Y-142022375D01*
X129213089Y-142075600D01*
X129485911Y-142075600D01*
X129753489Y-142022375D01*
X130005543Y-141917971D01*
X130232386Y-141766399D01*
X130425299Y-141573486D01*
X130576871Y-141346643D01*
X130681275Y-141094589D01*
X130734500Y-140827011D01*
X130734500Y-140554189D01*
X130681275Y-140286611D01*
X130576871Y-140034557D01*
X130425299Y-139807714D01*
X130232386Y-139614801D01*
X130005543Y-139463229D01*
X129753489Y-139358825D01*
X129485911Y-139305600D01*
X129213089Y-139305600D01*
X128945511Y-139358825D01*
X128693457Y-139463229D01*
X128466614Y-139614801D01*
X128273701Y-139807714D01*
X128122129Y-140034557D01*
X128017725Y-140286611D01*
X127964500Y-140554189D01*
X124452148Y-140554189D01*
X124540551Y-140421885D01*
X124655434Y-140144534D01*
X124714000Y-139850101D01*
X124714000Y-139549899D01*
X124655434Y-139255466D01*
X124540551Y-138978115D01*
X124373768Y-138728507D01*
X124161493Y-138516232D01*
X124032438Y-138430000D01*
X124161493Y-138343768D01*
X124373768Y-138131493D01*
X124515083Y-137920000D01*
X131230389Y-137920000D01*
X137143791Y-143833403D01*
X137143790Y-164995078D01*
X137140114Y-165032400D01*
X137143790Y-165069722D01*
X137143790Y-165069732D01*
X137154787Y-165181385D01*
X137198244Y-165324646D01*
X137268816Y-165456676D01*
X137287519Y-165479465D01*
X137363789Y-165572401D01*
X137392793Y-165596204D01*
X143383000Y-171586412D01*
X143383000Y-171587592D01*
X143436686Y-171857490D01*
X143541995Y-172111727D01*
X143694880Y-172340535D01*
X143889465Y-172535120D01*
X144118273Y-172688005D01*
X144195515Y-172720000D01*
X144118273Y-172751995D01*
X143889465Y-172904880D01*
X143694880Y-173099465D01*
X143541995Y-173328273D01*
X143436686Y-173582510D01*
X143383000Y-173852408D01*
X143383000Y-174127592D01*
X143436686Y-174397490D01*
X143541995Y-174651727D01*
X143694880Y-174880535D01*
X143889465Y-175075120D01*
X144118273Y-175228005D01*
X144189943Y-175257692D01*
X144176977Y-175262364D01*
X144061020Y-175324344D01*
X143994040Y-175564435D01*
X144780000Y-176350395D01*
X145565960Y-175564435D01*
X145498980Y-175324344D01*
X145363240Y-175260515D01*
X145441727Y-175228005D01*
X145670535Y-175075120D01*
X145865120Y-174880535D01*
X146018005Y-174651727D01*
X146123314Y-174397490D01*
X146177000Y-174127592D01*
X146177000Y-173852408D01*
X146123314Y-173582510D01*
X146018005Y-173328273D01*
X145865120Y-173099465D01*
X145670535Y-172904880D01*
X145441727Y-172751995D01*
X145364485Y-172720000D01*
X145441727Y-172688005D01*
X145670535Y-172535120D01*
X145865120Y-172340535D01*
X146018005Y-172111727D01*
X146123314Y-171857490D01*
X146177000Y-171587592D01*
X146177000Y-171312408D01*
X146123314Y-171042510D01*
X146018005Y-170788273D01*
X145865120Y-170559465D01*
X145670535Y-170364880D01*
X145441727Y-170211995D01*
X145364485Y-170180000D01*
X145441727Y-170148005D01*
X145670535Y-169995120D01*
X145865120Y-169800535D01*
X146018005Y-169571727D01*
X146123314Y-169317490D01*
X146177000Y-169047592D01*
X146177000Y-168772408D01*
X146123314Y-168502510D01*
X146018005Y-168248273D01*
X145865120Y-168019465D01*
X145670535Y-167824880D01*
X145441727Y-167671995D01*
X145364485Y-167640000D01*
X145441727Y-167608005D01*
X145670535Y-167455120D01*
X145865120Y-167260535D01*
X146018005Y-167031727D01*
X146123314Y-166777490D01*
X146177000Y-166507592D01*
X146177000Y-166232408D01*
X146123314Y-165962510D01*
X146018005Y-165708273D01*
X145865120Y-165479465D01*
X145670535Y-165284880D01*
X145441727Y-165131995D01*
X145187490Y-165026686D01*
X144917592Y-164973000D01*
X144642408Y-164973000D01*
X144372510Y-165026686D01*
X144118273Y-165131995D01*
X143889465Y-165284880D01*
X143694880Y-165479465D01*
X143541995Y-165708273D01*
X143436686Y-165962510D01*
X143383000Y-166232408D01*
X143383000Y-166507592D01*
X143436686Y-166777490D01*
X143541995Y-167031727D01*
X143694880Y-167260535D01*
X143889465Y-167455120D01*
X144118273Y-167608005D01*
X144195515Y-167640000D01*
X144118273Y-167671995D01*
X143889465Y-167824880D01*
X143694880Y-168019465D01*
X143607659Y-168150000D01*
X142732602Y-168150000D01*
X139113800Y-164531199D01*
X139113800Y-153350000D01*
X144431928Y-153350000D01*
X144431928Y-155050000D01*
X144444188Y-155174482D01*
X144480498Y-155294180D01*
X144539463Y-155404494D01*
X144618815Y-155501185D01*
X144715506Y-155580537D01*
X144755758Y-155602052D01*
X144738814Y-155627411D01*
X144668332Y-155797571D01*
X144632400Y-155978211D01*
X144632400Y-156162389D01*
X144668332Y-156343029D01*
X144738814Y-156513189D01*
X144841138Y-156666328D01*
X144971372Y-156796562D01*
X145124511Y-156898886D01*
X145294671Y-156969368D01*
X145475311Y-157005300D01*
X145659489Y-157005300D01*
X145840129Y-156969368D01*
X146010289Y-156898886D01*
X146163428Y-156796562D01*
X146293662Y-156666328D01*
X146395986Y-156513189D01*
X146466468Y-156343029D01*
X146502400Y-156162389D01*
X146502400Y-155978211D01*
X146466468Y-155797571D01*
X146395986Y-155627411D01*
X146380410Y-155604101D01*
X146424494Y-155580537D01*
X146521185Y-155501185D01*
X146600537Y-155404494D01*
X146659502Y-155294180D01*
X146695812Y-155174482D01*
X146708072Y-155050000D01*
X146708072Y-153350000D01*
X146695812Y-153225518D01*
X146659502Y-153105820D01*
X146600537Y-152995506D01*
X146521185Y-152898815D01*
X146424494Y-152819463D01*
X146314180Y-152760498D01*
X146194482Y-152724188D01*
X146070000Y-152711928D01*
X145070000Y-152711928D01*
X144945518Y-152724188D01*
X144825820Y-152760498D01*
X144715506Y-152819463D01*
X144618815Y-152898815D01*
X144539463Y-152995506D01*
X144480498Y-153105820D01*
X144444188Y-153225518D01*
X144431928Y-153350000D01*
X139113800Y-153350000D01*
X139113800Y-143369522D01*
X139117476Y-143332199D01*
X139113800Y-143294876D01*
X139113800Y-143294867D01*
X139102803Y-143183214D01*
X139060379Y-143043357D01*
X140081000Y-143043357D01*
X140081000Y-143468643D01*
X140163970Y-143885757D01*
X140326719Y-144278670D01*
X140562996Y-144632282D01*
X140863718Y-144933004D01*
X141217330Y-145169281D01*
X141610243Y-145332030D01*
X142027357Y-145415000D01*
X142452643Y-145415000D01*
X142869757Y-145332030D01*
X143262670Y-145169281D01*
X143616282Y-144933004D01*
X143917004Y-144632282D01*
X144153281Y-144278670D01*
X144316030Y-143885757D01*
X144399000Y-143468643D01*
X144399000Y-143043357D01*
X144316030Y-142626243D01*
X144153281Y-142233330D01*
X143917004Y-141879718D01*
X143616282Y-141578996D01*
X143262670Y-141342719D01*
X142869757Y-141179970D01*
X142452643Y-141097000D01*
X142027357Y-141097000D01*
X141610243Y-141179970D01*
X141217330Y-141342719D01*
X140863718Y-141578996D01*
X140562996Y-141879718D01*
X140326719Y-142233330D01*
X140163970Y-142626243D01*
X140081000Y-143043357D01*
X139060379Y-143043357D01*
X139059346Y-143039953D01*
X138988774Y-142907924D01*
X138968833Y-142883626D01*
X138917599Y-142821196D01*
X138917595Y-142821192D01*
X138893801Y-142792199D01*
X138864809Y-142768406D01*
X130503791Y-134407389D01*
X133006400Y-134407389D01*
X133006400Y-134680211D01*
X133059625Y-134947789D01*
X133164029Y-135199843D01*
X133315601Y-135426686D01*
X133508514Y-135619599D01*
X133735357Y-135771171D01*
X133987411Y-135875575D01*
X134254989Y-135928800D01*
X134527811Y-135928800D01*
X134795389Y-135875575D01*
X134933180Y-135818500D01*
X135234552Y-135818500D01*
X135401299Y-135802077D01*
X135615247Y-135737176D01*
X135812423Y-135631784D01*
X135985249Y-135489949D01*
X136127084Y-135317123D01*
X136232476Y-135119947D01*
X136297377Y-134905999D01*
X136319291Y-134683500D01*
X136297377Y-134461001D01*
X136232476Y-134247053D01*
X136127084Y-134049877D01*
X135985249Y-133877051D01*
X135812423Y-133735216D01*
X135615247Y-133629824D01*
X135401299Y-133564923D01*
X135367921Y-133561636D01*
X135274286Y-133468001D01*
X135047443Y-133316429D01*
X134795389Y-133212025D01*
X134527811Y-133158800D01*
X134254989Y-133158800D01*
X133987411Y-133212025D01*
X133735357Y-133316429D01*
X133508514Y-133468001D01*
X133315601Y-133660914D01*
X133164029Y-133887757D01*
X133059625Y-134139811D01*
X133006400Y-134407389D01*
X130503791Y-134407389D01*
X130205404Y-134109003D01*
X130181601Y-134079999D01*
X130065876Y-133985026D01*
X129933847Y-133914454D01*
X129790586Y-133870997D01*
X129678933Y-133860000D01*
X129678922Y-133860000D01*
X129641600Y-133856324D01*
X129604278Y-133860000D01*
X124515083Y-133860000D01*
X124373768Y-133648507D01*
X124161493Y-133436232D01*
X124032438Y-133350000D01*
X124161493Y-133263768D01*
X124373768Y-133051493D01*
X124540551Y-132801885D01*
X124655434Y-132524534D01*
X124714000Y-132230101D01*
X124714000Y-131929899D01*
X124655434Y-131635466D01*
X124540551Y-131358115D01*
X124373768Y-131108507D01*
X124161493Y-130896232D01*
X124032438Y-130810000D01*
X124161493Y-130723768D01*
X124373768Y-130511493D01*
X124540551Y-130261885D01*
X124655434Y-129984534D01*
X124714000Y-129690101D01*
X124714000Y-129389899D01*
X124655434Y-129095466D01*
X124540551Y-128818115D01*
X124373768Y-128568507D01*
X124161493Y-128356232D01*
X124032438Y-128270000D01*
X124161493Y-128183768D01*
X124373768Y-127971493D01*
X124540551Y-127721885D01*
X124655434Y-127444534D01*
X124714000Y-127150101D01*
X124714000Y-126849899D01*
X124655434Y-126555466D01*
X124540551Y-126278115D01*
X124373768Y-126028507D01*
X124161493Y-125816232D01*
X124032438Y-125730000D01*
X124161493Y-125643768D01*
X124373768Y-125431493D01*
X124540551Y-125181885D01*
X124655434Y-124904534D01*
X124714000Y-124610101D01*
X124714000Y-124309899D01*
X124655434Y-124015466D01*
X124540551Y-123738115D01*
X124373768Y-123488507D01*
X124161493Y-123276232D01*
X124032438Y-123190000D01*
X124161493Y-123103768D01*
X124373768Y-122891493D01*
X124540551Y-122641885D01*
X124655434Y-122364534D01*
X124714000Y-122070101D01*
X124714000Y-121769899D01*
X124655434Y-121475466D01*
X124540551Y-121198115D01*
X124373768Y-120948507D01*
X124161493Y-120736232D01*
X124032438Y-120650000D01*
X124161493Y-120563768D01*
X124373768Y-120351493D01*
X124540551Y-120101885D01*
X124655434Y-119824534D01*
X124714000Y-119530101D01*
X124714000Y-119229899D01*
X124655434Y-118935466D01*
X124651513Y-118925999D01*
X131821198Y-118925999D01*
X142035623Y-129140425D01*
X141986000Y-129389899D01*
X141986000Y-129690101D01*
X142044566Y-129984534D01*
X142159449Y-130261885D01*
X142326232Y-130511493D01*
X142538507Y-130723768D01*
X142667562Y-130810000D01*
X142538507Y-130896232D01*
X142326232Y-131108507D01*
X142159449Y-131358115D01*
X142044566Y-131635466D01*
X141986000Y-131929899D01*
X141986000Y-132230101D01*
X142044566Y-132524534D01*
X142159449Y-132801885D01*
X142326232Y-133051493D01*
X142538507Y-133263768D01*
X142667562Y-133350000D01*
X142538507Y-133436232D01*
X142326232Y-133648507D01*
X142159449Y-133898115D01*
X142044566Y-134175466D01*
X141986000Y-134469899D01*
X141986000Y-134770101D01*
X142044566Y-135064534D01*
X142159449Y-135341885D01*
X142326232Y-135591493D01*
X142538507Y-135803768D01*
X142667562Y-135890000D01*
X142538507Y-135976232D01*
X142326232Y-136188507D01*
X142159449Y-136438115D01*
X142044566Y-136715466D01*
X141986000Y-137009899D01*
X141986000Y-137310101D01*
X142044566Y-137604534D01*
X142159449Y-137881885D01*
X142326232Y-138131493D01*
X142538507Y-138343768D01*
X142667562Y-138430000D01*
X142538507Y-138516232D01*
X142326232Y-138728507D01*
X142159449Y-138978115D01*
X142044566Y-139255466D01*
X141986000Y-139549899D01*
X141986000Y-139850101D01*
X142044566Y-140144534D01*
X142159449Y-140421885D01*
X142326232Y-140671493D01*
X142538507Y-140883768D01*
X142788115Y-141050551D01*
X143065466Y-141165434D01*
X143359899Y-141224000D01*
X143660101Y-141224000D01*
X143954534Y-141165434D01*
X144231885Y-141050551D01*
X144481493Y-140883768D01*
X144693768Y-140671493D01*
X144860551Y-140421885D01*
X144975434Y-140144534D01*
X145034000Y-139850101D01*
X145034000Y-139549899D01*
X144975434Y-139255466D01*
X144860551Y-138978115D01*
X144693768Y-138728507D01*
X144481493Y-138516232D01*
X144352438Y-138430000D01*
X144481493Y-138343768D01*
X144693768Y-138131493D01*
X144860551Y-137881885D01*
X144975434Y-137604534D01*
X145034000Y-137310101D01*
X145034000Y-137009899D01*
X144975434Y-136715466D01*
X144860551Y-136438115D01*
X144693768Y-136188507D01*
X144481493Y-135976232D01*
X144352438Y-135890000D01*
X144481493Y-135803768D01*
X144693768Y-135591493D01*
X144835083Y-135380000D01*
X145735199Y-135380000D01*
X147510001Y-137154803D01*
X147510000Y-146185015D01*
X147468815Y-146218815D01*
X147389463Y-146315506D01*
X147330498Y-146425820D01*
X147320000Y-146460427D01*
X147309502Y-146425820D01*
X147250537Y-146315506D01*
X147171185Y-146218815D01*
X147074494Y-146139463D01*
X146964180Y-146080498D01*
X146844482Y-146044188D01*
X146720000Y-146031928D01*
X146020000Y-146031928D01*
X145895518Y-146044188D01*
X145775820Y-146080498D01*
X145665506Y-146139463D01*
X145568815Y-146218815D01*
X145489463Y-146315506D01*
X145430498Y-146425820D01*
X145394188Y-146545518D01*
X145381928Y-146670000D01*
X145381928Y-147533271D01*
X145059002Y-147856197D01*
X145029999Y-147879999D01*
X144974871Y-147947174D01*
X144935026Y-147995724D01*
X144864455Y-148127753D01*
X144864454Y-148127754D01*
X144820997Y-148271015D01*
X144810000Y-148382668D01*
X144810000Y-148382678D01*
X144806324Y-148420000D01*
X144810000Y-148457323D01*
X144810000Y-149168954D01*
X144715506Y-149219463D01*
X144618815Y-149298815D01*
X144539463Y-149395506D01*
X144480498Y-149505820D01*
X144444188Y-149625518D01*
X144431928Y-149750000D01*
X144431928Y-151450000D01*
X144444188Y-151574482D01*
X144480498Y-151694180D01*
X144539463Y-151804494D01*
X144618815Y-151901185D01*
X144715506Y-151980537D01*
X144825820Y-152039502D01*
X144945518Y-152075812D01*
X145070000Y-152088072D01*
X146070000Y-152088072D01*
X146194482Y-152075812D01*
X146314180Y-152039502D01*
X146424494Y-151980537D01*
X146521185Y-151901185D01*
X146600537Y-151804494D01*
X146659502Y-151694180D01*
X146695812Y-151574482D01*
X146708072Y-151450000D01*
X146708072Y-149750000D01*
X147931928Y-149750000D01*
X147931928Y-151450000D01*
X147944188Y-151574482D01*
X147980498Y-151694180D01*
X148039463Y-151804494D01*
X148118815Y-151901185D01*
X148215506Y-151980537D01*
X148325820Y-152039502D01*
X148445518Y-152075812D01*
X148570000Y-152088072D01*
X149570000Y-152088072D01*
X149694482Y-152075812D01*
X149814180Y-152039502D01*
X149924494Y-151980537D01*
X150021185Y-151901185D01*
X150100537Y-151804494D01*
X150159502Y-151694180D01*
X150195812Y-151574482D01*
X150208072Y-151450000D01*
X150208072Y-149750000D01*
X150195812Y-149625518D01*
X150159502Y-149505820D01*
X150100537Y-149395506D01*
X150021185Y-149298815D01*
X149924494Y-149219463D01*
X149814180Y-149160498D01*
X149694482Y-149124188D01*
X149570000Y-149111928D01*
X148570000Y-149111928D01*
X148445518Y-149124188D01*
X148325820Y-149160498D01*
X148215506Y-149219463D01*
X148118815Y-149298815D01*
X148039463Y-149395506D01*
X147980498Y-149505820D01*
X147944188Y-149625518D01*
X147931928Y-149750000D01*
X146708072Y-149750000D01*
X146695812Y-149625518D01*
X146659502Y-149505820D01*
X146600537Y-149395506D01*
X146521185Y-149298815D01*
X146424494Y-149219463D01*
X146330000Y-149168954D01*
X146330000Y-148734801D01*
X146456729Y-148608072D01*
X146720000Y-148608072D01*
X146844482Y-148595812D01*
X146964180Y-148559502D01*
X147074494Y-148500537D01*
X147171185Y-148421185D01*
X147250537Y-148324494D01*
X147309502Y-148214180D01*
X147320000Y-148179573D01*
X147330498Y-148214180D01*
X147389463Y-148324494D01*
X147468815Y-148421185D01*
X147565506Y-148500537D01*
X147675820Y-148559502D01*
X147795518Y-148595812D01*
X147920000Y-148608072D01*
X148620000Y-148608072D01*
X148744482Y-148595812D01*
X148864180Y-148559502D01*
X148974494Y-148500537D01*
X149071185Y-148421185D01*
X149150537Y-148324494D01*
X149209502Y-148214180D01*
X149245812Y-148094482D01*
X149258072Y-147970000D01*
X149258072Y-146670000D01*
X149245812Y-146545518D01*
X149209502Y-146425820D01*
X149150537Y-146315506D01*
X149071185Y-146218815D01*
X149030000Y-146185015D01*
X149030000Y-136877322D01*
X149033676Y-136839999D01*
X149030000Y-136802676D01*
X149030000Y-136802667D01*
X149019003Y-136691014D01*
X148975546Y-136547753D01*
X148925676Y-136454454D01*
X148904974Y-136415723D01*
X148833799Y-136328997D01*
X148810001Y-136299999D01*
X148781003Y-136276201D01*
X146613804Y-134109003D01*
X146590001Y-134079999D01*
X146474276Y-133985026D01*
X146342247Y-133914454D01*
X146198986Y-133870997D01*
X146087333Y-133860000D01*
X146087322Y-133860000D01*
X146050000Y-133856324D01*
X146012678Y-133860000D01*
X144835083Y-133860000D01*
X144693768Y-133648507D01*
X144481493Y-133436232D01*
X144352438Y-133350000D01*
X144481493Y-133263768D01*
X144693768Y-133051493D01*
X144860551Y-132801885D01*
X144975434Y-132524534D01*
X145034000Y-132230101D01*
X145034000Y-131929899D01*
X144975434Y-131635466D01*
X144860551Y-131358115D01*
X144693768Y-131108507D01*
X144481493Y-130896232D01*
X144352438Y-130810000D01*
X144481493Y-130723768D01*
X144693768Y-130511493D01*
X144860551Y-130261885D01*
X144975434Y-129984534D01*
X145034000Y-129690101D01*
X145034000Y-129389899D01*
X144975434Y-129095466D01*
X144860551Y-128818115D01*
X144693768Y-128568507D01*
X144481493Y-128356232D01*
X144352438Y-128270000D01*
X144481493Y-128183768D01*
X144693768Y-127971493D01*
X144751561Y-127885000D01*
X146031928Y-127885000D01*
X146031928Y-127990000D01*
X146044188Y-128114482D01*
X146080498Y-128234180D01*
X146139463Y-128344494D01*
X146218815Y-128441185D01*
X146315506Y-128520537D01*
X146425820Y-128579502D01*
X146460427Y-128590000D01*
X146425820Y-128600498D01*
X146315506Y-128659463D01*
X146218815Y-128738815D01*
X146139463Y-128835506D01*
X146080498Y-128945820D01*
X146044188Y-129065518D01*
X146031928Y-129190000D01*
X146031928Y-129890000D01*
X146044188Y-130014482D01*
X146080498Y-130134180D01*
X146139463Y-130244494D01*
X146218815Y-130341185D01*
X146315506Y-130420537D01*
X146425820Y-130479502D01*
X146545518Y-130515812D01*
X146670000Y-130528072D01*
X147970000Y-130528072D01*
X148094482Y-130515812D01*
X148214180Y-130479502D01*
X148316144Y-130425000D01*
X149962317Y-130425000D01*
X149999463Y-130494494D01*
X150078815Y-130591185D01*
X150175506Y-130670537D01*
X150285820Y-130729502D01*
X150405518Y-130765812D01*
X150530000Y-130778072D01*
X151180800Y-130778072D01*
X151180800Y-208597500D01*
X138292108Y-208597500D01*
X138216233Y-208521625D01*
X138469289Y-208439273D01*
X138599086Y-208168582D01*
X138673580Y-207877770D01*
X138689908Y-207578012D01*
X138647443Y-207280829D01*
X138547816Y-206997641D01*
X138469289Y-206850727D01*
X138216231Y-206768374D01*
X137339605Y-207645000D01*
X137353748Y-207659143D01*
X137174143Y-207838748D01*
X137160000Y-207824605D01*
X137145858Y-207838748D01*
X136966253Y-207659143D01*
X136980395Y-207645000D01*
X136103769Y-206768374D01*
X135850711Y-206850727D01*
X135720914Y-207121418D01*
X135646420Y-207412230D01*
X135630092Y-207711988D01*
X135672557Y-208009171D01*
X135772184Y-208292359D01*
X135850711Y-208439273D01*
X136103767Y-208521625D01*
X136027892Y-208597500D01*
X129579064Y-208597500D01*
X129506251Y-208421715D01*
X129339468Y-208172107D01*
X129127193Y-207959832D01*
X128998138Y-207873600D01*
X129127193Y-207787368D01*
X129339468Y-207575093D01*
X129506251Y-207325485D01*
X129621134Y-207048134D01*
X129679700Y-206753701D01*
X129679700Y-206453499D01*
X129621134Y-206159066D01*
X129506251Y-205881715D01*
X129339468Y-205632107D01*
X129127193Y-205419832D01*
X128998138Y-205333600D01*
X129127193Y-205247368D01*
X129339468Y-205035093D01*
X129506251Y-204785485D01*
X129621134Y-204508134D01*
X129679700Y-204213701D01*
X129679700Y-203913499D01*
X129621134Y-203619066D01*
X129506251Y-203341715D01*
X129339468Y-203092107D01*
X129127193Y-202879832D01*
X128998138Y-202793600D01*
X129127193Y-202707368D01*
X129339468Y-202495093D01*
X129506251Y-202245485D01*
X129621134Y-201968134D01*
X129679700Y-201673701D01*
X129679700Y-201373499D01*
X129621134Y-201079066D01*
X129506251Y-200801715D01*
X129339468Y-200552107D01*
X129127193Y-200339832D01*
X128969078Y-200234183D01*
X129032326Y-200039831D01*
X128155700Y-199163205D01*
X127279074Y-200039831D01*
X127342322Y-200234183D01*
X127184207Y-200339832D01*
X126971932Y-200552107D01*
X126805149Y-200801715D01*
X126690266Y-201079066D01*
X126631700Y-201373499D01*
X126631700Y-201673701D01*
X126690266Y-201968134D01*
X126805149Y-202245485D01*
X126971932Y-202495093D01*
X127184207Y-202707368D01*
X127313262Y-202793600D01*
X127184207Y-202879832D01*
X126971932Y-203092107D01*
X126805149Y-203341715D01*
X126690266Y-203619066D01*
X126631700Y-203913499D01*
X126631700Y-204004798D01*
X124463510Y-201836609D01*
X124463510Y-199412711D01*
X124467187Y-199375378D01*
X124452513Y-199226392D01*
X124409056Y-199083131D01*
X124391662Y-199050588D01*
X126625792Y-199050588D01*
X126668257Y-199347771D01*
X126767884Y-199630959D01*
X126846411Y-199777873D01*
X127099469Y-199860226D01*
X127976095Y-198983600D01*
X128335305Y-198983600D01*
X129211931Y-199860226D01*
X129464989Y-199777873D01*
X129594786Y-199507182D01*
X129669280Y-199216370D01*
X129685608Y-198916612D01*
X129643143Y-198619429D01*
X129543516Y-198336241D01*
X129464989Y-198189327D01*
X129211931Y-198106974D01*
X128335305Y-198983600D01*
X127976095Y-198983600D01*
X127099469Y-198106974D01*
X126846411Y-198189327D01*
X126716614Y-198460018D01*
X126642120Y-198750830D01*
X126625792Y-199050588D01*
X124391662Y-199050588D01*
X124338484Y-198951102D01*
X124267309Y-198864375D01*
X124243511Y-198835377D01*
X124214514Y-198811580D01*
X119156433Y-193753499D01*
X126631700Y-193753499D01*
X126631700Y-194053701D01*
X126690266Y-194348134D01*
X126805149Y-194625485D01*
X126971932Y-194875093D01*
X127184207Y-195087368D01*
X127313262Y-195173600D01*
X127184207Y-195259832D01*
X126971932Y-195472107D01*
X126805149Y-195721715D01*
X126690266Y-195999066D01*
X126631700Y-196293499D01*
X126631700Y-196593701D01*
X126690266Y-196888134D01*
X126805149Y-197165485D01*
X126971932Y-197415093D01*
X127184207Y-197627368D01*
X127342322Y-197733017D01*
X127279074Y-197927369D01*
X128155700Y-198803995D01*
X129032326Y-197927369D01*
X128969078Y-197733017D01*
X129127193Y-197627368D01*
X129339468Y-197415093D01*
X129506251Y-197165485D01*
X129621134Y-196888134D01*
X129679700Y-196593701D01*
X129679700Y-196293499D01*
X129621134Y-195999066D01*
X129506251Y-195721715D01*
X129339468Y-195472107D01*
X129127193Y-195259832D01*
X128998138Y-195173600D01*
X129127193Y-195087368D01*
X129339468Y-194875093D01*
X129393052Y-194794899D01*
X135636000Y-194794899D01*
X135636000Y-195095101D01*
X135694566Y-195389534D01*
X135809449Y-195666885D01*
X135976232Y-195916493D01*
X136188507Y-196128768D01*
X136317562Y-196215000D01*
X136188507Y-196301232D01*
X135976232Y-196513507D01*
X135809449Y-196763115D01*
X135694566Y-197040466D01*
X135636000Y-197334899D01*
X135636000Y-197635101D01*
X135694566Y-197929534D01*
X135809449Y-198206885D01*
X135976232Y-198456493D01*
X136188507Y-198668768D01*
X136317562Y-198755000D01*
X136188507Y-198841232D01*
X135976232Y-199053507D01*
X135809449Y-199303115D01*
X135694566Y-199580466D01*
X135636000Y-199874899D01*
X135636000Y-200175101D01*
X135694566Y-200469534D01*
X135809449Y-200746885D01*
X135976232Y-200996493D01*
X136188507Y-201208768D01*
X136317562Y-201295000D01*
X136188507Y-201381232D01*
X135976232Y-201593507D01*
X135809449Y-201843115D01*
X135694566Y-202120466D01*
X135636000Y-202414899D01*
X135636000Y-202715101D01*
X135694566Y-203009534D01*
X135809449Y-203286885D01*
X135976232Y-203536493D01*
X136188507Y-203748768D01*
X136317562Y-203835000D01*
X136188507Y-203921232D01*
X135976232Y-204133507D01*
X135809449Y-204383115D01*
X135694566Y-204660466D01*
X135636000Y-204954899D01*
X135636000Y-205255101D01*
X135694566Y-205549534D01*
X135809449Y-205826885D01*
X135976232Y-206076493D01*
X136188507Y-206288768D01*
X136346622Y-206394417D01*
X136283374Y-206588769D01*
X137160000Y-207465395D01*
X138036626Y-206588769D01*
X137973378Y-206394417D01*
X138131493Y-206288768D01*
X138343768Y-206076493D01*
X138510551Y-205826885D01*
X138625434Y-205549534D01*
X138684000Y-205255101D01*
X138684000Y-204954899D01*
X138625434Y-204660466D01*
X138510551Y-204383115D01*
X138343768Y-204133507D01*
X138131493Y-203921232D01*
X138002438Y-203835000D01*
X138131493Y-203748768D01*
X138343768Y-203536493D01*
X138510551Y-203286885D01*
X138625434Y-203009534D01*
X138684000Y-202715101D01*
X138684000Y-202414899D01*
X138625434Y-202120466D01*
X138510551Y-201843115D01*
X138343768Y-201593507D01*
X138131493Y-201381232D01*
X138002438Y-201295000D01*
X138131493Y-201208768D01*
X138343768Y-200996493D01*
X138510551Y-200746885D01*
X138625434Y-200469534D01*
X138684000Y-200175101D01*
X138684000Y-199874899D01*
X138625434Y-199580466D01*
X138510551Y-199303115D01*
X138343768Y-199053507D01*
X138131493Y-198841232D01*
X138002438Y-198755000D01*
X138131493Y-198668768D01*
X138343768Y-198456493D01*
X138485083Y-198245000D01*
X141542278Y-198245000D01*
X141579600Y-198248676D01*
X141616922Y-198245000D01*
X141616933Y-198245000D01*
X141728586Y-198234003D01*
X141871847Y-198190546D01*
X142003876Y-198119974D01*
X142119601Y-198025001D01*
X142143404Y-197995997D01*
X148474949Y-191664453D01*
X148596029Y-191640368D01*
X148766189Y-191569886D01*
X148919328Y-191467562D01*
X149049562Y-191337328D01*
X149151886Y-191184189D01*
X149222368Y-191014029D01*
X149258300Y-190833389D01*
X149258300Y-190649211D01*
X149222368Y-190468571D01*
X149151886Y-190298411D01*
X149049562Y-190145272D01*
X148919328Y-190015038D01*
X148766189Y-189912714D01*
X148596029Y-189842232D01*
X148415389Y-189806300D01*
X148231211Y-189806300D01*
X148050571Y-189842232D01*
X147880411Y-189912714D01*
X147727272Y-190015038D01*
X147597038Y-190145272D01*
X147494714Y-190298411D01*
X147424232Y-190468571D01*
X147400147Y-190589651D01*
X141264799Y-196725000D01*
X138485083Y-196725000D01*
X138343768Y-196513507D01*
X138131493Y-196301232D01*
X138002438Y-196215000D01*
X138131493Y-196128768D01*
X138343768Y-195916493D01*
X138510551Y-195666885D01*
X138625434Y-195389534D01*
X138684000Y-195095101D01*
X138684000Y-194794899D01*
X138625434Y-194500466D01*
X138510551Y-194223115D01*
X138343768Y-193973507D01*
X138131493Y-193761232D01*
X137881885Y-193594449D01*
X137604534Y-193479566D01*
X137310101Y-193421000D01*
X137009899Y-193421000D01*
X136715466Y-193479566D01*
X136438115Y-193594449D01*
X136188507Y-193761232D01*
X135976232Y-193973507D01*
X135809449Y-194223115D01*
X135694566Y-194500466D01*
X135636000Y-194794899D01*
X129393052Y-194794899D01*
X129506251Y-194625485D01*
X129621134Y-194348134D01*
X129679700Y-194053701D01*
X129679700Y-193753499D01*
X129621134Y-193459066D01*
X129506251Y-193181715D01*
X129339468Y-192932107D01*
X129127193Y-192719832D01*
X128877585Y-192553049D01*
X128600234Y-192438166D01*
X128305801Y-192379600D01*
X128005599Y-192379600D01*
X127711166Y-192438166D01*
X127433815Y-192553049D01*
X127184207Y-192719832D01*
X126971932Y-192932107D01*
X126805149Y-193181715D01*
X126690266Y-193459066D01*
X126631700Y-193753499D01*
X119156433Y-193753499D01*
X115627749Y-190224815D01*
X117856000Y-190224815D01*
X117856000Y-190775185D01*
X117963372Y-191314980D01*
X118173989Y-191823455D01*
X118479758Y-192281071D01*
X118868929Y-192670242D01*
X119326545Y-192976011D01*
X119835020Y-193186628D01*
X120374815Y-193294000D01*
X120925185Y-193294000D01*
X121464980Y-193186628D01*
X121973455Y-192976011D01*
X122431071Y-192670242D01*
X122820242Y-192281071D01*
X123126011Y-191823455D01*
X123336628Y-191314980D01*
X123444000Y-190775185D01*
X123444000Y-190224815D01*
X133096000Y-190224815D01*
X133096000Y-190775185D01*
X133203372Y-191314980D01*
X133413989Y-191823455D01*
X133719758Y-192281071D01*
X134108929Y-192670242D01*
X134566545Y-192976011D01*
X135075020Y-193186628D01*
X135614815Y-193294000D01*
X136165185Y-193294000D01*
X136704980Y-193186628D01*
X137213455Y-192976011D01*
X137671071Y-192670242D01*
X138060242Y-192281071D01*
X138366011Y-191823455D01*
X138576628Y-191314980D01*
X138684000Y-190775185D01*
X138684000Y-190224815D01*
X138576628Y-189685020D01*
X138366011Y-189176545D01*
X138060242Y-188718929D01*
X137671071Y-188329758D01*
X137213455Y-188023989D01*
X136704980Y-187813372D01*
X136165185Y-187706000D01*
X135614815Y-187706000D01*
X135075020Y-187813372D01*
X134566545Y-188023989D01*
X134108929Y-188329758D01*
X133719758Y-188718929D01*
X133413989Y-189176545D01*
X133203372Y-189685020D01*
X133096000Y-190224815D01*
X123444000Y-190224815D01*
X123336628Y-189685020D01*
X123126011Y-189176545D01*
X122820242Y-188718929D01*
X122431071Y-188329758D01*
X121973455Y-188023989D01*
X121464980Y-187813372D01*
X120925185Y-187706000D01*
X120374815Y-187706000D01*
X119835020Y-187813372D01*
X119326545Y-188023989D01*
X118868929Y-188329758D01*
X118479758Y-188718929D01*
X118173989Y-189176545D01*
X117963372Y-189685020D01*
X117856000Y-190224815D01*
X115627749Y-190224815D01*
X111581936Y-186179003D01*
X111558133Y-186149999D01*
X111442408Y-186055026D01*
X111310379Y-185984454D01*
X111167118Y-185940997D01*
X111055465Y-185930000D01*
X111055454Y-185930000D01*
X111018132Y-185926324D01*
X110980810Y-185930000D01*
X105582695Y-185930000D01*
X105545806Y-185860986D01*
X105360234Y-185634866D01*
X105330413Y-185610393D01*
X105399280Y-185589502D01*
X105509594Y-185530537D01*
X105606285Y-185451185D01*
X105685637Y-185354494D01*
X105744602Y-185244180D01*
X105780912Y-185124482D01*
X105793172Y-185000000D01*
X105793172Y-183300000D01*
X105780912Y-183175518D01*
X105744602Y-183055820D01*
X105685637Y-182945506D01*
X105606285Y-182848815D01*
X105509594Y-182769463D01*
X105399280Y-182710498D01*
X105279582Y-182674188D01*
X105155100Y-182661928D01*
X103455100Y-182661928D01*
X103330618Y-182674188D01*
X103210920Y-182710498D01*
X103100606Y-182769463D01*
X103003915Y-182848815D01*
X102924563Y-182945506D01*
X102865598Y-183055820D01*
X102829288Y-183175518D01*
X102817028Y-183300000D01*
X102817028Y-185000000D01*
X102829288Y-185124482D01*
X102865598Y-185244180D01*
X102924563Y-185354494D01*
X103003915Y-185451185D01*
X103100606Y-185530537D01*
X103210920Y-185589502D01*
X103279787Y-185610393D01*
X103249966Y-185634866D01*
X103064394Y-185860986D01*
X102926501Y-186118966D01*
X102841587Y-186398889D01*
X102812915Y-186690000D01*
X102841587Y-186981111D01*
X102926501Y-187261034D01*
X103064394Y-187519014D01*
X103249966Y-187745134D01*
X103476086Y-187930706D01*
X103530891Y-187960000D01*
X103476086Y-187989294D01*
X103249966Y-188174866D01*
X103064394Y-188400986D01*
X102926501Y-188658966D01*
X102841587Y-188938889D01*
X102812915Y-189230000D01*
X102841587Y-189521111D01*
X102926501Y-189801034D01*
X103064394Y-190059014D01*
X103249966Y-190285134D01*
X103476086Y-190470706D01*
X103734066Y-190608599D01*
X104013989Y-190693513D01*
X104232150Y-190715000D01*
X104378050Y-190715000D01*
X104596211Y-190693513D01*
X104876134Y-190608599D01*
X105134114Y-190470706D01*
X105360234Y-190285134D01*
X105545806Y-190059014D01*
X105582695Y-189990000D01*
X112606921Y-189990000D01*
X118724056Y-196107135D01*
X118658115Y-196134449D01*
X118408507Y-196301232D01*
X118196232Y-196513507D01*
X118029449Y-196763115D01*
X117914566Y-197040466D01*
X117856000Y-197334899D01*
X117856000Y-197635101D01*
X117914566Y-197929534D01*
X118029449Y-198206885D01*
X118196232Y-198456493D01*
X118408507Y-198668768D01*
X118537562Y-198755000D01*
X118408507Y-198841232D01*
X118196232Y-199053507D01*
X118029449Y-199303115D01*
X117914566Y-199580466D01*
X117856000Y-199874899D01*
X117856000Y-200175101D01*
X117914566Y-200469534D01*
X118029449Y-200746885D01*
X118196232Y-200996493D01*
X118408507Y-201208768D01*
X118537562Y-201295000D01*
X118408507Y-201381232D01*
X118196232Y-201593507D01*
X118029449Y-201843115D01*
X117914566Y-202120466D01*
X117856000Y-202414899D01*
X117856000Y-202715101D01*
X117914566Y-203009534D01*
X118029449Y-203286885D01*
X118196232Y-203536493D01*
X118408507Y-203748768D01*
X118537562Y-203835000D01*
X118408507Y-203921232D01*
X118196232Y-204133507D01*
X118029449Y-204383115D01*
X117914566Y-204660466D01*
X117856000Y-204954899D01*
X117856000Y-205255101D01*
X117914566Y-205549534D01*
X118029449Y-205826885D01*
X118196232Y-206076493D01*
X118408507Y-206288768D01*
X118658115Y-206455551D01*
X118935466Y-206570434D01*
X119229899Y-206629000D01*
X119530101Y-206629000D01*
X119824534Y-206570434D01*
X120101885Y-206455551D01*
X120351493Y-206288768D01*
X120563768Y-206076493D01*
X120730551Y-205826885D01*
X120845434Y-205549534D01*
X120904000Y-205255101D01*
X120904000Y-204954899D01*
X120845434Y-204660466D01*
X120730551Y-204383115D01*
X120563768Y-204133507D01*
X120351493Y-203921232D01*
X120222438Y-203835000D01*
X120351493Y-203748768D01*
X120563768Y-203536493D01*
X120730551Y-203286885D01*
X120845434Y-203009534D01*
X120904000Y-202715101D01*
X120904000Y-202414899D01*
X120845434Y-202120466D01*
X120730551Y-201843115D01*
X120563768Y-201593507D01*
X120351493Y-201381232D01*
X120222438Y-201295000D01*
X120351493Y-201208768D01*
X120563768Y-200996493D01*
X120730551Y-200746885D01*
X120845434Y-200469534D01*
X120904000Y-200175101D01*
X120904000Y-199874899D01*
X120845434Y-199580466D01*
X120730551Y-199303115D01*
X120563768Y-199053507D01*
X120351493Y-198841232D01*
X120222438Y-198755000D01*
X120351493Y-198668768D01*
X120563768Y-198456493D01*
X120730551Y-198206885D01*
X120757865Y-198140944D01*
X122493501Y-199876581D01*
X122493500Y-204204077D01*
X122489824Y-204241400D01*
X122493500Y-204278722D01*
X122493500Y-204278732D01*
X122504497Y-204390385D01*
X122540215Y-204508134D01*
X122547954Y-204533646D01*
X122618526Y-204665676D01*
X122658371Y-204714226D01*
X122713499Y-204781401D01*
X122742503Y-204805204D01*
X126534798Y-208597500D01*
X115650700Y-208597500D01*
X115650700Y-208364226D01*
X115545595Y-207835830D01*
X115339425Y-207338092D01*
X115040113Y-206890139D01*
X114659161Y-206509187D01*
X114211208Y-206209875D01*
X113713470Y-206003705D01*
X113185074Y-205898600D01*
X112646326Y-205898600D01*
X112117930Y-206003705D01*
X111620192Y-206209875D01*
X111172239Y-206509187D01*
X110791287Y-206890139D01*
X110491975Y-207338092D01*
X110285805Y-207835830D01*
X110180700Y-208364226D01*
X110180700Y-208597500D01*
X100215655Y-208597500D01*
X100210618Y-194394226D01*
X110180700Y-194394226D01*
X110180700Y-194932974D01*
X110285805Y-195461370D01*
X110491975Y-195959108D01*
X110791287Y-196407061D01*
X111172239Y-196788013D01*
X111620192Y-197087325D01*
X112117930Y-197293495D01*
X112646326Y-197398600D01*
X113185074Y-197398600D01*
X113713470Y-197293495D01*
X114211208Y-197087325D01*
X114659161Y-196788013D01*
X115040113Y-196407061D01*
X115339425Y-195959108D01*
X115545595Y-195461370D01*
X115650700Y-194932974D01*
X115650700Y-194394226D01*
X115545595Y-193865830D01*
X115339425Y-193368092D01*
X115040113Y-192920139D01*
X114659161Y-192539187D01*
X114211208Y-192239875D01*
X113713470Y-192033705D01*
X113185074Y-191928600D01*
X112646326Y-191928600D01*
X112117930Y-192033705D01*
X111620192Y-192239875D01*
X111172239Y-192539187D01*
X110791287Y-192920139D01*
X110491975Y-193368092D01*
X110285805Y-193865830D01*
X110180700Y-194394226D01*
X100210618Y-194394226D01*
X100205658Y-180408290D01*
X120332500Y-180408290D01*
X120332500Y-181033710D01*
X120454514Y-181647113D01*
X120693852Y-182224926D01*
X121041317Y-182744944D01*
X121483556Y-183187183D01*
X122003574Y-183534648D01*
X122581387Y-183773986D01*
X123194790Y-183896000D01*
X123820210Y-183896000D01*
X124433613Y-183773986D01*
X125011426Y-183534648D01*
X125531444Y-183187183D01*
X125973683Y-182744944D01*
X126321148Y-182224926D01*
X126560486Y-181647113D01*
X126682500Y-181033710D01*
X126682500Y-180408290D01*
X126560486Y-179794887D01*
X126321148Y-179217074D01*
X125973683Y-178697056D01*
X125531444Y-178254817D01*
X125011426Y-177907352D01*
X124433613Y-177668014D01*
X123820210Y-177546000D01*
X123194790Y-177546000D01*
X122581387Y-177668014D01*
X122003574Y-177907352D01*
X121483556Y-178254817D01*
X121041317Y-178697056D01*
X120693852Y-179217074D01*
X120454514Y-179794887D01*
X120332500Y-180408290D01*
X100205658Y-180408290D01*
X100204625Y-177495565D01*
X143994040Y-177495565D01*
X144061020Y-177735656D01*
X144310048Y-177852756D01*
X144577135Y-177919023D01*
X144852017Y-177931910D01*
X145124133Y-177890922D01*
X145383023Y-177797636D01*
X145498980Y-177735656D01*
X145565960Y-177495565D01*
X144780000Y-176709605D01*
X143994040Y-177495565D01*
X100204625Y-177495565D01*
X100204308Y-176602017D01*
X143378090Y-176602017D01*
X143419078Y-176874133D01*
X143512364Y-177133023D01*
X143574344Y-177248980D01*
X143814435Y-177315960D01*
X144600395Y-176530000D01*
X144959605Y-176530000D01*
X145745565Y-177315960D01*
X145985656Y-177248980D01*
X146102756Y-176999952D01*
X146169023Y-176732865D01*
X146181910Y-176457983D01*
X146140922Y-176185867D01*
X146047636Y-175926977D01*
X145985656Y-175811020D01*
X145745565Y-175744040D01*
X144959605Y-176530000D01*
X144600395Y-176530000D01*
X143814435Y-175744040D01*
X143574344Y-175811020D01*
X143457244Y-176060048D01*
X143390977Y-176327135D01*
X143378090Y-176602017D01*
X100204308Y-176602017D01*
X100183322Y-117440000D01*
X104171928Y-117440000D01*
X104184188Y-117564482D01*
X104220498Y-117684180D01*
X104279463Y-117794494D01*
X104358815Y-117891185D01*
X104455506Y-117970537D01*
X104565820Y-118029502D01*
X104685518Y-118065812D01*
X104810000Y-118078072D01*
X105124250Y-118075000D01*
X105283000Y-117916250D01*
X105283000Y-116967000D01*
X104333750Y-116967000D01*
X104175000Y-117125750D01*
X104171928Y-117440000D01*
X100183322Y-117440000D01*
X100182897Y-116240000D01*
X104171928Y-116240000D01*
X104175000Y-116554250D01*
X104333750Y-116713000D01*
X105283000Y-116713000D01*
X105283000Y-115763750D01*
X105537000Y-115763750D01*
X105537000Y-116713000D01*
X105557000Y-116713000D01*
X105557000Y-116967000D01*
X105537000Y-116967000D01*
X105537000Y-117916250D01*
X105695750Y-118075000D01*
X106010000Y-118078072D01*
X106134482Y-118065812D01*
X106254180Y-118029502D01*
X106364494Y-117970537D01*
X106461185Y-117891185D01*
X106510000Y-117831704D01*
X106558815Y-117891185D01*
X106655506Y-117970537D01*
X106765820Y-118029502D01*
X106885518Y-118065812D01*
X107010000Y-118078072D01*
X108210000Y-118078072D01*
X108334482Y-118065812D01*
X108454180Y-118029502D01*
X108564494Y-117970537D01*
X108661185Y-117891185D01*
X108740537Y-117794494D01*
X108777683Y-117725000D01*
X109867713Y-117725000D01*
X109870498Y-117734180D01*
X109929463Y-117844494D01*
X110008815Y-117941185D01*
X110105506Y-118020537D01*
X110215820Y-118079502D01*
X110335518Y-118115812D01*
X110460000Y-118128072D01*
X111160000Y-118128072D01*
X111284482Y-118115812D01*
X111404180Y-118079502D01*
X111514494Y-118020537D01*
X111611185Y-117941185D01*
X111690537Y-117844494D01*
X111749502Y-117734180D01*
X111760000Y-117699573D01*
X111770498Y-117734180D01*
X111829463Y-117844494D01*
X111908815Y-117941185D01*
X112005506Y-118020537D01*
X112115820Y-118079502D01*
X112235518Y-118115812D01*
X112360000Y-118128072D01*
X113060000Y-118128072D01*
X113184482Y-118115812D01*
X113304180Y-118079502D01*
X113414494Y-118020537D01*
X113511185Y-117941185D01*
X113590537Y-117844494D01*
X113649502Y-117734180D01*
X113685812Y-117614482D01*
X113698072Y-117490000D01*
X113698072Y-116190000D01*
X113685812Y-116065518D01*
X113649502Y-115945820D01*
X113595000Y-115843856D01*
X113595000Y-114135320D01*
X113614180Y-114129502D01*
X113724494Y-114070537D01*
X113821185Y-113991185D01*
X113875501Y-113925000D01*
X114506315Y-113925000D01*
X114687114Y-114105799D01*
X114913957Y-114257371D01*
X115166011Y-114361775D01*
X115433589Y-114415000D01*
X115706411Y-114415000D01*
X115973989Y-114361775D01*
X116226043Y-114257371D01*
X116452886Y-114105799D01*
X116645799Y-113912886D01*
X116797371Y-113686043D01*
X116901775Y-113433989D01*
X116955000Y-113166411D01*
X116955000Y-112893589D01*
X116901775Y-112626011D01*
X116797371Y-112373957D01*
X116645799Y-112147114D01*
X116452886Y-111954201D01*
X116226043Y-111802629D01*
X115973989Y-111698225D01*
X115706411Y-111645000D01*
X115433589Y-111645000D01*
X115384123Y-111654840D01*
X115330000Y-111649509D01*
X115274249Y-111655000D01*
X113875501Y-111655000D01*
X113863191Y-111640000D01*
X113900537Y-111594494D01*
X113959502Y-111484180D01*
X113995812Y-111364482D01*
X114008072Y-111240000D01*
X114005000Y-110775750D01*
X113846250Y-110617000D01*
X112497000Y-110617000D01*
X112497000Y-110637000D01*
X112243000Y-110637000D01*
X112243000Y-110617000D01*
X110893750Y-110617000D01*
X110735000Y-110775750D01*
X110731928Y-111240000D01*
X110744188Y-111364482D01*
X110780498Y-111484180D01*
X110839463Y-111594494D01*
X110876809Y-111640000D01*
X110839463Y-111685506D01*
X110780498Y-111795820D01*
X110747379Y-111905000D01*
X109503465Y-111905000D01*
X109459999Y-111900719D01*
X109416533Y-111905000D01*
X109416523Y-111905000D01*
X109393474Y-111907270D01*
X109331788Y-111895000D01*
X109108212Y-111895000D01*
X108888933Y-111938617D01*
X108682376Y-112024176D01*
X108496480Y-112148388D01*
X108338388Y-112306480D01*
X108214176Y-112492376D01*
X108128617Y-112698933D01*
X108085000Y-112918212D01*
X108085000Y-113141788D01*
X108128617Y-113361067D01*
X108214176Y-113567624D01*
X108338388Y-113753520D01*
X108496480Y-113911612D01*
X108682376Y-114035824D01*
X108888933Y-114121383D01*
X109108212Y-114165000D01*
X109331788Y-114165000D01*
X109551067Y-114121383D01*
X109757624Y-114035824D01*
X109943520Y-113911612D01*
X110101612Y-113753520D01*
X110154077Y-113675000D01*
X110747379Y-113675000D01*
X110780498Y-113784180D01*
X110839463Y-113894494D01*
X110918815Y-113991185D01*
X111015506Y-114070537D01*
X111125820Y-114129502D01*
X111245518Y-114165812D01*
X111370000Y-114178072D01*
X111825001Y-114178072D01*
X111825000Y-115843855D01*
X111770498Y-115945820D01*
X111760000Y-115980427D01*
X111749502Y-115945820D01*
X111690537Y-115835506D01*
X111611185Y-115738815D01*
X111514494Y-115659463D01*
X111404180Y-115600498D01*
X111284482Y-115564188D01*
X111160000Y-115551928D01*
X110460000Y-115551928D01*
X110335518Y-115564188D01*
X110215820Y-115600498D01*
X110105506Y-115659463D01*
X110008815Y-115738815D01*
X109929463Y-115835506D01*
X109870498Y-115945820D01*
X109867713Y-115955000D01*
X108777683Y-115955000D01*
X108740537Y-115885506D01*
X108661185Y-115788815D01*
X108564494Y-115709463D01*
X108454180Y-115650498D01*
X108334482Y-115614188D01*
X108210000Y-115601928D01*
X107010000Y-115601928D01*
X106885518Y-115614188D01*
X106765820Y-115650498D01*
X106655506Y-115709463D01*
X106558815Y-115788815D01*
X106510000Y-115848296D01*
X106461185Y-115788815D01*
X106364494Y-115709463D01*
X106254180Y-115650498D01*
X106134482Y-115614188D01*
X106010000Y-115601928D01*
X105695750Y-115605000D01*
X105537000Y-115763750D01*
X105283000Y-115763750D01*
X105124250Y-115605000D01*
X104810000Y-115601928D01*
X104685518Y-115614188D01*
X104565820Y-115650498D01*
X104455506Y-115709463D01*
X104358815Y-115788815D01*
X104279463Y-115885506D01*
X104220498Y-115995820D01*
X104184188Y-116115518D01*
X104171928Y-116240000D01*
X100182897Y-116240000D01*
X100181532Y-112390000D01*
X104431928Y-112390000D01*
X104444188Y-112514482D01*
X104480498Y-112634180D01*
X104539463Y-112744494D01*
X104618815Y-112841185D01*
X104715506Y-112920537D01*
X104825820Y-112979502D01*
X104945518Y-113015812D01*
X105070000Y-113028072D01*
X105784250Y-113025000D01*
X105943000Y-112866250D01*
X105943000Y-110617000D01*
X106197000Y-110617000D01*
X106197000Y-112866250D01*
X106355750Y-113025000D01*
X107070000Y-113028072D01*
X107194482Y-113015812D01*
X107314180Y-112979502D01*
X107424494Y-112920537D01*
X107521185Y-112841185D01*
X107600537Y-112744494D01*
X107659502Y-112634180D01*
X107695812Y-112514482D01*
X107708072Y-112390000D01*
X107705000Y-110775750D01*
X107546250Y-110617000D01*
X106197000Y-110617000D01*
X105943000Y-110617000D01*
X104593750Y-110617000D01*
X104435000Y-110775750D01*
X104431928Y-112390000D01*
X100181532Y-112390000D01*
X100180184Y-108590000D01*
X104431928Y-108590000D01*
X104435000Y-110204250D01*
X104593750Y-110363000D01*
X105943000Y-110363000D01*
X105943000Y-108113750D01*
X106197000Y-108113750D01*
X106197000Y-110363000D01*
X107546250Y-110363000D01*
X107705000Y-110204250D01*
X107708072Y-108590000D01*
X107695812Y-108465518D01*
X107659502Y-108345820D01*
X107600537Y-108235506D01*
X107521185Y-108138815D01*
X107424494Y-108059463D01*
X107314180Y-108000498D01*
X107194482Y-107964188D01*
X107070000Y-107951928D01*
X106355750Y-107955000D01*
X106197000Y-108113750D01*
X105943000Y-108113750D01*
X105784250Y-107955000D01*
X105070000Y-107951928D01*
X104945518Y-107964188D01*
X104825820Y-108000498D01*
X104715506Y-108059463D01*
X104618815Y-108138815D01*
X104539463Y-108235506D01*
X104480498Y-108345820D01*
X104444188Y-108465518D01*
X104431928Y-108590000D01*
X100180184Y-108590000D01*
X100178827Y-104765000D01*
X104541928Y-104765000D01*
X104554188Y-104889482D01*
X104590498Y-105009180D01*
X104649463Y-105119494D01*
X104728815Y-105216185D01*
X104825506Y-105295537D01*
X104935820Y-105354502D01*
X105055518Y-105390812D01*
X105180000Y-105403072D01*
X105394250Y-105400000D01*
X105553000Y-105241250D01*
X105553000Y-104267000D01*
X104703750Y-104267000D01*
X104545000Y-104425750D01*
X104541928Y-104765000D01*
X100178827Y-104765000D01*
X100178384Y-103515000D01*
X104541928Y-103515000D01*
X104545000Y-103854250D01*
X104703750Y-104013000D01*
X105553000Y-104013000D01*
X105553000Y-103038750D01*
X105394250Y-102880000D01*
X105180000Y-102876928D01*
X105055518Y-102889188D01*
X104935820Y-102925498D01*
X104825506Y-102984463D01*
X104728815Y-103063815D01*
X104649463Y-103160506D01*
X104590498Y-103270820D01*
X104554188Y-103390518D01*
X104541928Y-103515000D01*
X100178384Y-103515000D01*
X100177645Y-101434900D01*
X108574769Y-101434900D01*
X110053835Y-102913966D01*
G36*
X122218507Y-120563768D02*
G01*
X122347562Y-120650000D01*
X122218507Y-120736232D01*
X122006232Y-120948507D01*
X121839449Y-121198115D01*
X121724566Y-121475466D01*
X121666000Y-121769899D01*
X121666000Y-122070101D01*
X121724566Y-122364534D01*
X121839449Y-122641885D01*
X122006232Y-122891493D01*
X122218507Y-123103768D01*
X122347562Y-123190000D01*
X122218507Y-123276232D01*
X122006232Y-123488507D01*
X121864917Y-123700000D01*
X119187312Y-123700000D01*
X119149989Y-123696324D01*
X119112666Y-123700000D01*
X119112657Y-123700000D01*
X119001004Y-123710997D01*
X118857743Y-123754454D01*
X118725714Y-123825026D01*
X118609989Y-123919999D01*
X118586191Y-123948997D01*
X108462189Y-134073000D01*
X108433191Y-134096798D01*
X108409393Y-134125796D01*
X108409392Y-134125797D01*
X108338217Y-134212523D01*
X108267645Y-134344553D01*
X108224189Y-134487814D01*
X108209515Y-134636799D01*
X108213192Y-134674131D01*
X108213190Y-156129243D01*
X105308847Y-159033586D01*
X105111493Y-158836232D01*
X104982438Y-158750000D01*
X105111493Y-158663768D01*
X105323768Y-158451493D01*
X105490551Y-158201885D01*
X105605434Y-157924534D01*
X105664000Y-157630101D01*
X105664000Y-157329899D01*
X105605434Y-157035466D01*
X105490551Y-156758115D01*
X105323768Y-156508507D01*
X105111493Y-156296232D01*
X104982438Y-156210000D01*
X105111493Y-156123768D01*
X105323768Y-155911493D01*
X105490551Y-155661885D01*
X105605434Y-155384534D01*
X105664000Y-155090101D01*
X105664000Y-154789899D01*
X105605434Y-154495466D01*
X105490551Y-154218115D01*
X105323768Y-153968507D01*
X105111493Y-153756232D01*
X104953378Y-153650583D01*
X105016626Y-153456231D01*
X104140000Y-152579605D01*
X103263374Y-153456231D01*
X103326622Y-153650583D01*
X103168507Y-153756232D01*
X102956232Y-153968507D01*
X102944200Y-153986514D01*
X102944200Y-153231206D01*
X103083769Y-153276626D01*
X103960395Y-152400000D01*
X104319605Y-152400000D01*
X105196231Y-153276626D01*
X105449289Y-153194273D01*
X105579086Y-152923582D01*
X105653580Y-152632770D01*
X105669908Y-152333012D01*
X105627443Y-152035829D01*
X105527816Y-151752641D01*
X105449289Y-151605727D01*
X105196231Y-151523374D01*
X104319605Y-152400000D01*
X103960395Y-152400000D01*
X103083769Y-151523374D01*
X102944200Y-151568794D01*
X102944200Y-151343769D01*
X103263374Y-151343769D01*
X104140000Y-152220395D01*
X105016626Y-151343769D01*
X104934273Y-151090711D01*
X104663582Y-150960914D01*
X104372770Y-150886420D01*
X104073012Y-150870092D01*
X103775829Y-150912557D01*
X103492641Y-151012184D01*
X103345727Y-151090711D01*
X103263374Y-151343769D01*
X102944200Y-151343769D01*
X102944200Y-139443366D01*
X122021153Y-120366414D01*
X122218507Y-120563768D01*
X122218507Y-120563768D01*
G37*
X122218507Y-120563768D02*
X122347562Y-120650000D01*
X122218507Y-120736232D01*
X122006232Y-120948507D01*
X121839449Y-121198115D01*
X121724566Y-121475466D01*
X121666000Y-121769899D01*
X121666000Y-122070101D01*
X121724566Y-122364534D01*
X121839449Y-122641885D01*
X122006232Y-122891493D01*
X122218507Y-123103768D01*
X122347562Y-123190000D01*
X122218507Y-123276232D01*
X122006232Y-123488507D01*
X121864917Y-123700000D01*
X119187312Y-123700000D01*
X119149989Y-123696324D01*
X119112666Y-123700000D01*
X119112657Y-123700000D01*
X119001004Y-123710997D01*
X118857743Y-123754454D01*
X118725714Y-123825026D01*
X118609989Y-123919999D01*
X118586191Y-123948997D01*
X108462189Y-134073000D01*
X108433191Y-134096798D01*
X108409393Y-134125796D01*
X108409392Y-134125797D01*
X108338217Y-134212523D01*
X108267645Y-134344553D01*
X108224189Y-134487814D01*
X108209515Y-134636799D01*
X108213192Y-134674131D01*
X108213190Y-156129243D01*
X105308847Y-159033586D01*
X105111493Y-158836232D01*
X104982438Y-158750000D01*
X105111493Y-158663768D01*
X105323768Y-158451493D01*
X105490551Y-158201885D01*
X105605434Y-157924534D01*
X105664000Y-157630101D01*
X105664000Y-157329899D01*
X105605434Y-157035466D01*
X105490551Y-156758115D01*
X105323768Y-156508507D01*
X105111493Y-156296232D01*
X104982438Y-156210000D01*
X105111493Y-156123768D01*
X105323768Y-155911493D01*
X105490551Y-155661885D01*
X105605434Y-155384534D01*
X105664000Y-155090101D01*
X105664000Y-154789899D01*
X105605434Y-154495466D01*
X105490551Y-154218115D01*
X105323768Y-153968507D01*
X105111493Y-153756232D01*
X104953378Y-153650583D01*
X105016626Y-153456231D01*
X104140000Y-152579605D01*
X103263374Y-153456231D01*
X103326622Y-153650583D01*
X103168507Y-153756232D01*
X102956232Y-153968507D01*
X102944200Y-153986514D01*
X102944200Y-153231206D01*
X103083769Y-153276626D01*
X103960395Y-152400000D01*
X104319605Y-152400000D01*
X105196231Y-153276626D01*
X105449289Y-153194273D01*
X105579086Y-152923582D01*
X105653580Y-152632770D01*
X105669908Y-152333012D01*
X105627443Y-152035829D01*
X105527816Y-151752641D01*
X105449289Y-151605727D01*
X105196231Y-151523374D01*
X104319605Y-152400000D01*
X103960395Y-152400000D01*
X103083769Y-151523374D01*
X102944200Y-151568794D01*
X102944200Y-151343769D01*
X103263374Y-151343769D01*
X104140000Y-152220395D01*
X105016626Y-151343769D01*
X104934273Y-151090711D01*
X104663582Y-150960914D01*
X104372770Y-150886420D01*
X104073012Y-150870092D01*
X103775829Y-150912557D01*
X103492641Y-151012184D01*
X103345727Y-151090711D01*
X103263374Y-151343769D01*
X102944200Y-151343769D01*
X102944200Y-139443366D01*
X122021153Y-120366414D01*
X122218507Y-120563768D01*
M02*
