G04 #@! TF.GenerationSoftware,KiCad,Pcbnew,(5.1.0)-1*
G04 #@! TF.CreationDate,2019-04-08T01:07:25-05:00*
G04 #@! TF.ProjectId,TheHub2,54686548-7562-4322-9e6b-696361645f70,1.0*
G04 #@! TF.SameCoordinates,Original*
G04 #@! TF.FileFunction,Copper,L2,Bot*
G04 #@! TF.FilePolarity,Positive*
%FSLAX46Y46*%
G04 Gerber Fmt 4.6, Leading zero omitted, Abs format (unit mm)*
G04 Created by KiCad (PCBNEW (5.1.0)-1) date 2019-04-08 01:07:25*
%MOMM*%
%LPD*%
G04 APERTURE LIST*
%ADD10C,6.400000*%
%ADD11R,1.250000X1.000000*%
%ADD12R,1.200000X1.200000*%
%ADD13C,6.000000*%
%ADD14R,1.700000X1.700000*%
%ADD15O,1.700000X1.700000*%
%ADD16R,1.300000X0.700000*%
%ADD17R,0.700000X1.300000*%
%ADD18C,1.778000*%
%ADD19C,4.318000*%
%ADD20C,3.048000*%
%ADD21R,5.250000X4.550000*%
%ADD22R,10.800000X9.400000*%
%ADD23R,1.100000X4.600000*%
%ADD24C,1.524000*%
%ADD25C,5.080000*%
%ADD26C,4.200000*%
%ADD27C,1.500000*%
%ADD28C,1.000000*%
%ADD29C,0.600000*%
%ADD30C,1.000000*%
%ADD31C,0.500000*%
%ADD32C,0.250000*%
%ADD33C,0.254000*%
G04 APERTURE END LIST*
D10*
X102590600Y-94983300D03*
X148844000Y-95034100D03*
X102577900Y-214782400D03*
X148805900Y-214782400D03*
D11*
X101600000Y-104410000D03*
X101600000Y-106410000D03*
X118110000Y-104410000D03*
X118110000Y-106410000D03*
D12*
X118110000Y-109390000D03*
X118110000Y-111590000D03*
D13*
X109941600Y-96634300D03*
X116941600Y-96634300D03*
D14*
X102984300Y-125590300D03*
D15*
X105524300Y-125590300D03*
X108064300Y-125590300D03*
X104305100Y-189230000D03*
X104305100Y-186690000D03*
D14*
X104305100Y-184150000D03*
D16*
X118110000Y-116200000D03*
X118110000Y-114300000D03*
D17*
X137800000Y-139700000D03*
X139700000Y-139700000D03*
X139605001Y-137160000D03*
X137705001Y-137160000D03*
D18*
X137160000Y-207645000D03*
X137160000Y-205105000D03*
X137160000Y-202565000D03*
X137160000Y-200025000D03*
X137160000Y-197485000D03*
X137160000Y-194945000D03*
X119380000Y-205105000D03*
X119380000Y-202565000D03*
X119380000Y-200025000D03*
X119380000Y-197485000D03*
D19*
X135890000Y-212090000D03*
X135890000Y-190500000D03*
X120650000Y-190500000D03*
X120650000Y-212090000D03*
D18*
X123190000Y-101600000D03*
X123190000Y-104140000D03*
X123190000Y-106680000D03*
X123190000Y-109220000D03*
X123190000Y-111760000D03*
X123190000Y-114300000D03*
X123190000Y-116840000D03*
X123190000Y-119380000D03*
X123190000Y-121920000D03*
X123190000Y-124460000D03*
X123190000Y-127000000D03*
X123190000Y-129540000D03*
X123190000Y-132080000D03*
X123190000Y-134620000D03*
X123190000Y-137160000D03*
X123190000Y-139700000D03*
X143510000Y-139700000D03*
X143510000Y-137160000D03*
X143510000Y-134620000D03*
X143510000Y-132080000D03*
X143510000Y-129540000D03*
X143510000Y-127000000D03*
X143510000Y-124460000D03*
X143510000Y-121920000D03*
X143510000Y-119380000D03*
X143510000Y-116840000D03*
X143510000Y-114300000D03*
X143510000Y-111760000D03*
D20*
X124460000Y-97536000D03*
X142240000Y-97536000D03*
X124460000Y-143256000D03*
X142240000Y-143256000D03*
D18*
X104140000Y-152400000D03*
X104140000Y-154940000D03*
X104140000Y-157480000D03*
X104140000Y-160020000D03*
X104140000Y-162560000D03*
X104140000Y-165100000D03*
X104140000Y-167640000D03*
X104140000Y-170180000D03*
X104140000Y-172720000D03*
X129540000Y-152400000D03*
X129540000Y-154940000D03*
X129540000Y-157480000D03*
X129540000Y-160020000D03*
X129540000Y-162560000D03*
D21*
X111995000Y-112710000D03*
X106445000Y-117560000D03*
X106445000Y-112710000D03*
X111995000Y-117560000D03*
D22*
X109220000Y-115135000D03*
D23*
X111760000Y-105985000D03*
X106680000Y-105985000D03*
D24*
X144780000Y-166370000D03*
X144780000Y-168910000D03*
X144780000Y-171450000D03*
X144780000Y-173990000D03*
X144780000Y-176530000D03*
D25*
X123507500Y-180721000D03*
D18*
X128155700Y-193903600D03*
X128155700Y-196443600D03*
X128155700Y-198983600D03*
X128155700Y-201523600D03*
X128155700Y-204063600D03*
X128155700Y-206603600D03*
X128155700Y-209143600D03*
D26*
X112915700Y-194663600D03*
X112915700Y-208633600D03*
D27*
X134391400Y-134543800D03*
X129349500Y-140690600D03*
D28*
X109220000Y-113030000D03*
X109220000Y-105410000D03*
D27*
X115570000Y-113030000D03*
D29*
X151130000Y-125730000D03*
X145567400Y-156070300D03*
X132422900Y-141655800D03*
D27*
X135724900Y-117297200D03*
X132867400Y-122428000D03*
X105092500Y-139522200D03*
X102920800Y-134327900D03*
D29*
X148323300Y-190741300D03*
X114858800Y-123850400D03*
D30*
X134391400Y-134543800D02*
X134391400Y-135648700D01*
X134391400Y-135648700D02*
X129349500Y-140690600D01*
X105105000Y-104410000D02*
X106680000Y-105985000D01*
X101600000Y-104410000D02*
X105105000Y-104410000D01*
X106680000Y-97140000D02*
X107300000Y-96520000D01*
X106680000Y-105985000D02*
X106680000Y-97140000D01*
X113355000Y-116200000D02*
X111995000Y-117560000D01*
X118110000Y-116200000D02*
X113355000Y-116200000D01*
X101600000Y-107865000D02*
X106445000Y-112710000D01*
X101600000Y-106410000D02*
X101600000Y-107865000D01*
X109220000Y-115135000D02*
X109220000Y-101600000D01*
D31*
X123190000Y-109220000D02*
X120650000Y-109220000D01*
D32*
X137800000Y-137254999D02*
X137705001Y-137160000D01*
X137800000Y-139700000D02*
X137800000Y-137254999D01*
X133509201Y-141655800D02*
X132422900Y-141655800D01*
X137705001Y-137160000D02*
X137705001Y-137460000D01*
X137705001Y-137460000D02*
X133509201Y-141655800D01*
D30*
X135724900Y-117297200D02*
X135724900Y-119570500D01*
X135724900Y-119570500D02*
X132867400Y-122428000D01*
X105092500Y-139522200D02*
X105092500Y-136499600D01*
X105092500Y-136499600D02*
X102920800Y-134327900D01*
X118110000Y-111590000D02*
X118110000Y-114300000D01*
X111760000Y-105985000D02*
X113605000Y-105985000D01*
X114030000Y-106410000D02*
X118110000Y-106410000D01*
X113605000Y-105985000D02*
X114030000Y-106410000D01*
X118110000Y-106410000D02*
X118110000Y-109390000D01*
X105524300Y-123799600D02*
X105524300Y-125590300D01*
X106883200Y-122440700D02*
X105524300Y-123799600D01*
X112699800Y-122440700D02*
X106883200Y-122440700D01*
X119476483Y-109390000D02*
X120497600Y-110411117D01*
X118110000Y-109390000D02*
X119476483Y-109390000D01*
X120497600Y-116814600D02*
X116777199Y-120535001D01*
X116777199Y-120535001D02*
X114605499Y-120535001D01*
X120497600Y-110411117D02*
X120497600Y-116814600D01*
X114605499Y-120535001D02*
X112699800Y-122440700D01*
D32*
X144398999Y-140588999D02*
X143510000Y-139700000D01*
X147945001Y-144135001D02*
X144398999Y-140588999D01*
X147945001Y-189239999D02*
X147945001Y-144135001D01*
X137160000Y-200025000D02*
X147945001Y-189239999D01*
X139700000Y-139700000D02*
X143510000Y-139700000D01*
X137160000Y-200139300D02*
X137160000Y-200025000D01*
X128155700Y-209143600D02*
X137160000Y-200139300D01*
X143510000Y-137160000D02*
X139605001Y-137160000D01*
X148395011Y-142045011D02*
X148395011Y-190586711D01*
X143510000Y-137160000D02*
X148395011Y-142045011D01*
X137160000Y-197599300D02*
X137160000Y-197485000D01*
X128155700Y-206603600D02*
X137160000Y-197599300D01*
X116789200Y-121920000D02*
X123190000Y-121920000D01*
X114858800Y-123850400D02*
X116789200Y-121920000D01*
X104140000Y-162560000D02*
X105867200Y-162560000D01*
X105867200Y-162560000D02*
X108229400Y-160197800D01*
X108229400Y-160197800D02*
X108229400Y-134188200D01*
X115417600Y-127000000D02*
X123190000Y-127000000D01*
X108229400Y-134188200D02*
X115417600Y-127000000D01*
X123190000Y-129540000D02*
X113514010Y-129540000D01*
X113514010Y-129540000D02*
X108679410Y-134374600D01*
X108679410Y-134374600D02*
X108679410Y-164853190D01*
X105892600Y-167640000D02*
X104140000Y-167640000D01*
X108679410Y-164853190D02*
X105892600Y-167640000D01*
D33*
G36*
X115841398Y-121793000D02*
G01*
X114952632Y-121793000D01*
X115075631Y-121670001D01*
X115964397Y-121670001D01*
X115841398Y-121793000D01*
X115841398Y-121793000D01*
G37*
X115841398Y-121793000D02*
X114952632Y-121793000D01*
X115075631Y-121670001D01*
X115964397Y-121670001D01*
X115841398Y-121793000D01*
G36*
X120523000Y-95923849D02*
G01*
X120322396Y-95251691D01*
X119987702Y-94618697D01*
X119969468Y-94591406D01*
X119500286Y-94255219D01*
X117121205Y-96634300D01*
X119500286Y-99013381D01*
X119969468Y-98677194D01*
X120309837Y-98047232D01*
X120520766Y-97362973D01*
X120523000Y-97341290D01*
X120523000Y-108831386D01*
X120318478Y-108626864D01*
X120282932Y-108583551D01*
X120110106Y-108441716D01*
X119912930Y-108336324D01*
X119698982Y-108271423D01*
X119532235Y-108255000D01*
X119532234Y-108255000D01*
X119476483Y-108249509D01*
X119420732Y-108255000D01*
X119245000Y-108255000D01*
X119245000Y-107289518D01*
X119265537Y-107264494D01*
X119324502Y-107154180D01*
X119360812Y-107034482D01*
X119373072Y-106910000D01*
X119373072Y-105910000D01*
X119360812Y-105785518D01*
X119324502Y-105665820D01*
X119265537Y-105555506D01*
X119186185Y-105458815D01*
X119126704Y-105410000D01*
X119186185Y-105361185D01*
X119265537Y-105264494D01*
X119324502Y-105154180D01*
X119360812Y-105034482D01*
X119373072Y-104910000D01*
X119370000Y-104695750D01*
X119211250Y-104537000D01*
X118237000Y-104537000D01*
X118237000Y-104557000D01*
X117983000Y-104557000D01*
X117983000Y-104537000D01*
X117008750Y-104537000D01*
X116850000Y-104695750D01*
X116846928Y-104910000D01*
X116859188Y-105034482D01*
X116895498Y-105154180D01*
X116954463Y-105264494D01*
X116963085Y-105275000D01*
X114500131Y-105275000D01*
X114446996Y-105221865D01*
X114411449Y-105178551D01*
X114238623Y-105036716D01*
X114041447Y-104931324D01*
X113827499Y-104866423D01*
X113660752Y-104850000D01*
X113660751Y-104850000D01*
X113605000Y-104844509D01*
X113549249Y-104850000D01*
X112948072Y-104850000D01*
X112948072Y-103910000D01*
X116846928Y-103910000D01*
X116850000Y-104124250D01*
X117008750Y-104283000D01*
X117983000Y-104283000D01*
X117983000Y-103433750D01*
X118237000Y-103433750D01*
X118237000Y-104283000D01*
X119211250Y-104283000D01*
X119370000Y-104124250D01*
X119373072Y-103910000D01*
X119360812Y-103785518D01*
X119324502Y-103665820D01*
X119265537Y-103555506D01*
X119186185Y-103458815D01*
X119089494Y-103379463D01*
X118979180Y-103320498D01*
X118859482Y-103284188D01*
X118735000Y-103271928D01*
X118395750Y-103275000D01*
X118237000Y-103433750D01*
X117983000Y-103433750D01*
X117824250Y-103275000D01*
X117485000Y-103271928D01*
X117360518Y-103284188D01*
X117240820Y-103320498D01*
X117130506Y-103379463D01*
X117033815Y-103458815D01*
X116954463Y-103555506D01*
X116895498Y-103665820D01*
X116859188Y-103785518D01*
X116846928Y-103910000D01*
X112948072Y-103910000D01*
X112948072Y-103685000D01*
X112935812Y-103560518D01*
X112899502Y-103440820D01*
X112840537Y-103330506D01*
X112761185Y-103233815D01*
X112664494Y-103154463D01*
X112554180Y-103095498D01*
X112434482Y-103059188D01*
X112310000Y-103046928D01*
X111210000Y-103046928D01*
X111085518Y-103059188D01*
X110965820Y-103095498D01*
X110855506Y-103154463D01*
X110758815Y-103233815D01*
X110679463Y-103330506D01*
X110620498Y-103440820D01*
X110584188Y-103560518D01*
X110571928Y-103685000D01*
X110571928Y-108285000D01*
X110584188Y-108409482D01*
X110620498Y-108529180D01*
X110679463Y-108639494D01*
X110758815Y-108736185D01*
X110855506Y-108815537D01*
X110965820Y-108874502D01*
X111085518Y-108910812D01*
X111210000Y-108923072D01*
X112310000Y-108923072D01*
X112434482Y-108910812D01*
X112554180Y-108874502D01*
X112664494Y-108815537D01*
X112761185Y-108736185D01*
X112840537Y-108639494D01*
X112899502Y-108529180D01*
X112935812Y-108409482D01*
X112948072Y-108285000D01*
X112948072Y-107120000D01*
X113134869Y-107120000D01*
X113188004Y-107173135D01*
X113223551Y-107216449D01*
X113396377Y-107358284D01*
X113593553Y-107463676D01*
X113807501Y-107528577D01*
X114030000Y-107550491D01*
X114085752Y-107545000D01*
X116975000Y-107545000D01*
X116975001Y-108443854D01*
X116920498Y-108545820D01*
X116884188Y-108665518D01*
X116871928Y-108790000D01*
X116871928Y-109990000D01*
X116884188Y-110114482D01*
X116920498Y-110234180D01*
X116979463Y-110344494D01*
X117058815Y-110441185D01*
X117118296Y-110490000D01*
X117058815Y-110538815D01*
X116979463Y-110635506D01*
X116920498Y-110745820D01*
X116884188Y-110865518D01*
X116871928Y-110990000D01*
X116871928Y-112190000D01*
X116884188Y-112314482D01*
X116920498Y-112434180D01*
X116975000Y-112536145D01*
X116975001Y-113540018D01*
X116929463Y-113595506D01*
X116870498Y-113705820D01*
X116834188Y-113825518D01*
X116821928Y-113950000D01*
X116821928Y-114650000D01*
X116834188Y-114774482D01*
X116870498Y-114894180D01*
X116929463Y-115004494D01*
X117008815Y-115101185D01*
X117105506Y-115180537D01*
X117215820Y-115239502D01*
X117250427Y-115250000D01*
X117215820Y-115260498D01*
X117105506Y-115319463D01*
X117008815Y-115398815D01*
X116929463Y-115495506D01*
X116870498Y-115605820D01*
X116834188Y-115725518D01*
X116821928Y-115850000D01*
X116825000Y-115914250D01*
X116983750Y-116073000D01*
X117983000Y-116073000D01*
X117983000Y-116053000D01*
X118237000Y-116053000D01*
X118237000Y-116073000D01*
X118257000Y-116073000D01*
X118257000Y-116327000D01*
X118237000Y-116327000D01*
X118237000Y-117026250D01*
X118395750Y-117185000D01*
X118521011Y-117186056D01*
X116307068Y-119400001D01*
X115257769Y-119400001D01*
X115255889Y-116698459D01*
X115256118Y-116550000D01*
X116821928Y-116550000D01*
X116834188Y-116674482D01*
X116870498Y-116794180D01*
X116929463Y-116904494D01*
X117008815Y-117001185D01*
X117105506Y-117080537D01*
X117215820Y-117139502D01*
X117335518Y-117175812D01*
X117460000Y-117188072D01*
X117824250Y-117185000D01*
X117983000Y-117026250D01*
X117983000Y-116327000D01*
X116983750Y-116327000D01*
X116825000Y-116485750D01*
X116821928Y-116550000D01*
X115256118Y-116550000D01*
X115258072Y-115285000D01*
X115245812Y-115160518D01*
X115238071Y-115135000D01*
X115245812Y-115109482D01*
X115258072Y-114985000D01*
X115255889Y-113571541D01*
X115258072Y-110435000D01*
X115245812Y-110310518D01*
X115209502Y-110190820D01*
X115150537Y-110080506D01*
X115071185Y-109983815D01*
X114974494Y-109904463D01*
X114864180Y-109845498D01*
X114744482Y-109809188D01*
X114620000Y-109796928D01*
X111017691Y-109799092D01*
X109370000Y-109796928D01*
X109245518Y-109809188D01*
X109220000Y-109816929D01*
X109194482Y-109809188D01*
X109070000Y-109796928D01*
X107422309Y-109799092D01*
X103820000Y-109796928D01*
X103695518Y-109809188D01*
X103575820Y-109845498D01*
X103465506Y-109904463D01*
X103368815Y-109983815D01*
X103289463Y-110080506D01*
X103230498Y-110190820D01*
X103194188Y-110310518D01*
X103181928Y-110435000D01*
X103184111Y-113571541D01*
X103181928Y-114985000D01*
X103194188Y-115109482D01*
X103201929Y-115135000D01*
X103194188Y-115160518D01*
X103181928Y-115285000D01*
X103184111Y-116698459D01*
X103181928Y-119835000D01*
X103194188Y-119959482D01*
X103230498Y-120079180D01*
X103289463Y-120189494D01*
X103368815Y-120286185D01*
X103465506Y-120365537D01*
X103575820Y-120424502D01*
X103695518Y-120460812D01*
X103820000Y-120473072D01*
X107422309Y-120470908D01*
X109070000Y-120473072D01*
X109194482Y-120460812D01*
X109220000Y-120453071D01*
X109245518Y-120460812D01*
X109370000Y-120473072D01*
X111017691Y-120470908D01*
X113063232Y-120472137D01*
X112229669Y-121305700D01*
X106938952Y-121305700D01*
X106883200Y-121300209D01*
X106827448Y-121305700D01*
X106660701Y-121322123D01*
X106446753Y-121387024D01*
X106249577Y-121492416D01*
X106076751Y-121634251D01*
X106041211Y-121677557D01*
X105925768Y-121793000D01*
X100457000Y-121793000D01*
X100457000Y-107279770D01*
X100523815Y-107361185D01*
X100620506Y-107440537D01*
X100730820Y-107499502D01*
X100850518Y-107535812D01*
X100975000Y-107548072D01*
X101314250Y-107545000D01*
X101473000Y-107386250D01*
X101473000Y-106537000D01*
X101727000Y-106537000D01*
X101727000Y-107386250D01*
X101885750Y-107545000D01*
X102225000Y-107548072D01*
X102349482Y-107535812D01*
X102469180Y-107499502D01*
X102579494Y-107440537D01*
X102676185Y-107361185D01*
X102755537Y-107264494D01*
X102814502Y-107154180D01*
X102850812Y-107034482D01*
X102863072Y-106910000D01*
X102860000Y-106695750D01*
X102701250Y-106537000D01*
X101727000Y-106537000D01*
X101473000Y-106537000D01*
X101453000Y-106537000D01*
X101453000Y-106283000D01*
X101473000Y-106283000D01*
X101473000Y-106263000D01*
X101727000Y-106263000D01*
X101727000Y-106283000D01*
X102701250Y-106283000D01*
X102860000Y-106124250D01*
X102863072Y-105910000D01*
X102850812Y-105785518D01*
X102814502Y-105665820D01*
X102755537Y-105555506D01*
X102746915Y-105545000D01*
X104634869Y-105545000D01*
X105491928Y-106402060D01*
X105491928Y-108285000D01*
X105504188Y-108409482D01*
X105540498Y-108529180D01*
X105599463Y-108639494D01*
X105678815Y-108736185D01*
X105775506Y-108815537D01*
X105885820Y-108874502D01*
X106005518Y-108910812D01*
X106130000Y-108923072D01*
X107230000Y-108923072D01*
X107354482Y-108910812D01*
X107474180Y-108874502D01*
X107584494Y-108815537D01*
X107681185Y-108736185D01*
X107760537Y-108639494D01*
X107819502Y-108529180D01*
X107855812Y-108409482D01*
X107868072Y-108285000D01*
X107868072Y-103685000D01*
X107855812Y-103560518D01*
X107819502Y-103440820D01*
X107815000Y-103432397D01*
X107815000Y-99585128D01*
X108219782Y-99855595D01*
X108881310Y-100129609D01*
X109583584Y-100269300D01*
X110299616Y-100269300D01*
X111001890Y-100129609D01*
X111663418Y-99855595D01*
X112258777Y-99457789D01*
X112523580Y-99192986D01*
X114562519Y-99192986D01*
X114898706Y-99662168D01*
X115528668Y-100002537D01*
X116212927Y-100213466D01*
X116925189Y-100286850D01*
X117638082Y-100219869D01*
X118324209Y-100015096D01*
X118957203Y-99680402D01*
X118984494Y-99662168D01*
X119320681Y-99192986D01*
X116941600Y-96813905D01*
X114562519Y-99192986D01*
X112523580Y-99192986D01*
X112765089Y-98951477D01*
X113162895Y-98356118D01*
X113436909Y-97694590D01*
X113447987Y-97638897D01*
X113560804Y-98016909D01*
X113895498Y-98649903D01*
X113913732Y-98677194D01*
X114382914Y-99013381D01*
X116761995Y-96634300D01*
X114382914Y-94255219D01*
X113913732Y-94591406D01*
X113573363Y-95221368D01*
X113447792Y-95628723D01*
X113436909Y-95574010D01*
X113162895Y-94912482D01*
X112765089Y-94317123D01*
X112523580Y-94075614D01*
X114562519Y-94075614D01*
X116941600Y-96454695D01*
X119320681Y-94075614D01*
X118984494Y-93606432D01*
X118354532Y-93266063D01*
X117670273Y-93055134D01*
X116958011Y-92981750D01*
X116245118Y-93048731D01*
X115558991Y-93253504D01*
X114925997Y-93588198D01*
X114898706Y-93606432D01*
X114562519Y-94075614D01*
X112523580Y-94075614D01*
X112258777Y-93810811D01*
X111663418Y-93413005D01*
X111001890Y-93138991D01*
X110299616Y-92999300D01*
X109583584Y-92999300D01*
X108881310Y-93138991D01*
X108219782Y-93413005D01*
X107624423Y-93810811D01*
X107118111Y-94317123D01*
X106720305Y-94912482D01*
X106446291Y-95574010D01*
X106397979Y-95816890D01*
X106319263Y-95895606D01*
X106425600Y-95361015D01*
X106425600Y-94605585D01*
X106278223Y-93864672D01*
X105989133Y-93166746D01*
X105768804Y-92837000D01*
X120523000Y-92837000D01*
X120523000Y-95923849D01*
X120523000Y-95923849D01*
G37*
X120523000Y-95923849D02*
X120322396Y-95251691D01*
X119987702Y-94618697D01*
X119969468Y-94591406D01*
X119500286Y-94255219D01*
X117121205Y-96634300D01*
X119500286Y-99013381D01*
X119969468Y-98677194D01*
X120309837Y-98047232D01*
X120520766Y-97362973D01*
X120523000Y-97341290D01*
X120523000Y-108831386D01*
X120318478Y-108626864D01*
X120282932Y-108583551D01*
X120110106Y-108441716D01*
X119912930Y-108336324D01*
X119698982Y-108271423D01*
X119532235Y-108255000D01*
X119532234Y-108255000D01*
X119476483Y-108249509D01*
X119420732Y-108255000D01*
X119245000Y-108255000D01*
X119245000Y-107289518D01*
X119265537Y-107264494D01*
X119324502Y-107154180D01*
X119360812Y-107034482D01*
X119373072Y-106910000D01*
X119373072Y-105910000D01*
X119360812Y-105785518D01*
X119324502Y-105665820D01*
X119265537Y-105555506D01*
X119186185Y-105458815D01*
X119126704Y-105410000D01*
X119186185Y-105361185D01*
X119265537Y-105264494D01*
X119324502Y-105154180D01*
X119360812Y-105034482D01*
X119373072Y-104910000D01*
X119370000Y-104695750D01*
X119211250Y-104537000D01*
X118237000Y-104537000D01*
X118237000Y-104557000D01*
X117983000Y-104557000D01*
X117983000Y-104537000D01*
X117008750Y-104537000D01*
X116850000Y-104695750D01*
X116846928Y-104910000D01*
X116859188Y-105034482D01*
X116895498Y-105154180D01*
X116954463Y-105264494D01*
X116963085Y-105275000D01*
X114500131Y-105275000D01*
X114446996Y-105221865D01*
X114411449Y-105178551D01*
X114238623Y-105036716D01*
X114041447Y-104931324D01*
X113827499Y-104866423D01*
X113660752Y-104850000D01*
X113660751Y-104850000D01*
X113605000Y-104844509D01*
X113549249Y-104850000D01*
X112948072Y-104850000D01*
X112948072Y-103910000D01*
X116846928Y-103910000D01*
X116850000Y-104124250D01*
X117008750Y-104283000D01*
X117983000Y-104283000D01*
X117983000Y-103433750D01*
X118237000Y-103433750D01*
X118237000Y-104283000D01*
X119211250Y-104283000D01*
X119370000Y-104124250D01*
X119373072Y-103910000D01*
X119360812Y-103785518D01*
X119324502Y-103665820D01*
X119265537Y-103555506D01*
X119186185Y-103458815D01*
X119089494Y-103379463D01*
X118979180Y-103320498D01*
X118859482Y-103284188D01*
X118735000Y-103271928D01*
X118395750Y-103275000D01*
X118237000Y-103433750D01*
X117983000Y-103433750D01*
X117824250Y-103275000D01*
X117485000Y-103271928D01*
X117360518Y-103284188D01*
X117240820Y-103320498D01*
X117130506Y-103379463D01*
X117033815Y-103458815D01*
X116954463Y-103555506D01*
X116895498Y-103665820D01*
X116859188Y-103785518D01*
X116846928Y-103910000D01*
X112948072Y-103910000D01*
X112948072Y-103685000D01*
X112935812Y-103560518D01*
X112899502Y-103440820D01*
X112840537Y-103330506D01*
X112761185Y-103233815D01*
X112664494Y-103154463D01*
X112554180Y-103095498D01*
X112434482Y-103059188D01*
X112310000Y-103046928D01*
X111210000Y-103046928D01*
X111085518Y-103059188D01*
X110965820Y-103095498D01*
X110855506Y-103154463D01*
X110758815Y-103233815D01*
X110679463Y-103330506D01*
X110620498Y-103440820D01*
X110584188Y-103560518D01*
X110571928Y-103685000D01*
X110571928Y-108285000D01*
X110584188Y-108409482D01*
X110620498Y-108529180D01*
X110679463Y-108639494D01*
X110758815Y-108736185D01*
X110855506Y-108815537D01*
X110965820Y-108874502D01*
X111085518Y-108910812D01*
X111210000Y-108923072D01*
X112310000Y-108923072D01*
X112434482Y-108910812D01*
X112554180Y-108874502D01*
X112664494Y-108815537D01*
X112761185Y-108736185D01*
X112840537Y-108639494D01*
X112899502Y-108529180D01*
X112935812Y-108409482D01*
X112948072Y-108285000D01*
X112948072Y-107120000D01*
X113134869Y-107120000D01*
X113188004Y-107173135D01*
X113223551Y-107216449D01*
X113396377Y-107358284D01*
X113593553Y-107463676D01*
X113807501Y-107528577D01*
X114030000Y-107550491D01*
X114085752Y-107545000D01*
X116975000Y-107545000D01*
X116975001Y-108443854D01*
X116920498Y-108545820D01*
X116884188Y-108665518D01*
X116871928Y-108790000D01*
X116871928Y-109990000D01*
X116884188Y-110114482D01*
X116920498Y-110234180D01*
X116979463Y-110344494D01*
X117058815Y-110441185D01*
X117118296Y-110490000D01*
X117058815Y-110538815D01*
X116979463Y-110635506D01*
X116920498Y-110745820D01*
X116884188Y-110865518D01*
X116871928Y-110990000D01*
X116871928Y-112190000D01*
X116884188Y-112314482D01*
X116920498Y-112434180D01*
X116975000Y-112536145D01*
X116975001Y-113540018D01*
X116929463Y-113595506D01*
X116870498Y-113705820D01*
X116834188Y-113825518D01*
X116821928Y-113950000D01*
X116821928Y-114650000D01*
X116834188Y-114774482D01*
X116870498Y-114894180D01*
X116929463Y-115004494D01*
X117008815Y-115101185D01*
X117105506Y-115180537D01*
X117215820Y-115239502D01*
X117250427Y-115250000D01*
X117215820Y-115260498D01*
X117105506Y-115319463D01*
X117008815Y-115398815D01*
X116929463Y-115495506D01*
X116870498Y-115605820D01*
X116834188Y-115725518D01*
X116821928Y-115850000D01*
X116825000Y-115914250D01*
X116983750Y-116073000D01*
X117983000Y-116073000D01*
X117983000Y-116053000D01*
X118237000Y-116053000D01*
X118237000Y-116073000D01*
X118257000Y-116073000D01*
X118257000Y-116327000D01*
X118237000Y-116327000D01*
X118237000Y-117026250D01*
X118395750Y-117185000D01*
X118521011Y-117186056D01*
X116307068Y-119400001D01*
X115257769Y-119400001D01*
X115255889Y-116698459D01*
X115256118Y-116550000D01*
X116821928Y-116550000D01*
X116834188Y-116674482D01*
X116870498Y-116794180D01*
X116929463Y-116904494D01*
X117008815Y-117001185D01*
X117105506Y-117080537D01*
X117215820Y-117139502D01*
X117335518Y-117175812D01*
X117460000Y-117188072D01*
X117824250Y-117185000D01*
X117983000Y-117026250D01*
X117983000Y-116327000D01*
X116983750Y-116327000D01*
X116825000Y-116485750D01*
X116821928Y-116550000D01*
X115256118Y-116550000D01*
X115258072Y-115285000D01*
X115245812Y-115160518D01*
X115238071Y-115135000D01*
X115245812Y-115109482D01*
X115258072Y-114985000D01*
X115255889Y-113571541D01*
X115258072Y-110435000D01*
X115245812Y-110310518D01*
X115209502Y-110190820D01*
X115150537Y-110080506D01*
X115071185Y-109983815D01*
X114974494Y-109904463D01*
X114864180Y-109845498D01*
X114744482Y-109809188D01*
X114620000Y-109796928D01*
X111017691Y-109799092D01*
X109370000Y-109796928D01*
X109245518Y-109809188D01*
X109220000Y-109816929D01*
X109194482Y-109809188D01*
X109070000Y-109796928D01*
X107422309Y-109799092D01*
X103820000Y-109796928D01*
X103695518Y-109809188D01*
X103575820Y-109845498D01*
X103465506Y-109904463D01*
X103368815Y-109983815D01*
X103289463Y-110080506D01*
X103230498Y-110190820D01*
X103194188Y-110310518D01*
X103181928Y-110435000D01*
X103184111Y-113571541D01*
X103181928Y-114985000D01*
X103194188Y-115109482D01*
X103201929Y-115135000D01*
X103194188Y-115160518D01*
X103181928Y-115285000D01*
X103184111Y-116698459D01*
X103181928Y-119835000D01*
X103194188Y-119959482D01*
X103230498Y-120079180D01*
X103289463Y-120189494D01*
X103368815Y-120286185D01*
X103465506Y-120365537D01*
X103575820Y-120424502D01*
X103695518Y-120460812D01*
X103820000Y-120473072D01*
X107422309Y-120470908D01*
X109070000Y-120473072D01*
X109194482Y-120460812D01*
X109220000Y-120453071D01*
X109245518Y-120460812D01*
X109370000Y-120473072D01*
X111017691Y-120470908D01*
X113063232Y-120472137D01*
X112229669Y-121305700D01*
X106938952Y-121305700D01*
X106883200Y-121300209D01*
X106827448Y-121305700D01*
X106660701Y-121322123D01*
X106446753Y-121387024D01*
X106249577Y-121492416D01*
X106076751Y-121634251D01*
X106041211Y-121677557D01*
X105925768Y-121793000D01*
X100457000Y-121793000D01*
X100457000Y-107279770D01*
X100523815Y-107361185D01*
X100620506Y-107440537D01*
X100730820Y-107499502D01*
X100850518Y-107535812D01*
X100975000Y-107548072D01*
X101314250Y-107545000D01*
X101473000Y-107386250D01*
X101473000Y-106537000D01*
X101727000Y-106537000D01*
X101727000Y-107386250D01*
X101885750Y-107545000D01*
X102225000Y-107548072D01*
X102349482Y-107535812D01*
X102469180Y-107499502D01*
X102579494Y-107440537D01*
X102676185Y-107361185D01*
X102755537Y-107264494D01*
X102814502Y-107154180D01*
X102850812Y-107034482D01*
X102863072Y-106910000D01*
X102860000Y-106695750D01*
X102701250Y-106537000D01*
X101727000Y-106537000D01*
X101473000Y-106537000D01*
X101453000Y-106537000D01*
X101453000Y-106283000D01*
X101473000Y-106283000D01*
X101473000Y-106263000D01*
X101727000Y-106263000D01*
X101727000Y-106283000D01*
X102701250Y-106283000D01*
X102860000Y-106124250D01*
X102863072Y-105910000D01*
X102850812Y-105785518D01*
X102814502Y-105665820D01*
X102755537Y-105555506D01*
X102746915Y-105545000D01*
X104634869Y-105545000D01*
X105491928Y-106402060D01*
X105491928Y-108285000D01*
X105504188Y-108409482D01*
X105540498Y-108529180D01*
X105599463Y-108639494D01*
X105678815Y-108736185D01*
X105775506Y-108815537D01*
X105885820Y-108874502D01*
X106005518Y-108910812D01*
X106130000Y-108923072D01*
X107230000Y-108923072D01*
X107354482Y-108910812D01*
X107474180Y-108874502D01*
X107584494Y-108815537D01*
X107681185Y-108736185D01*
X107760537Y-108639494D01*
X107819502Y-108529180D01*
X107855812Y-108409482D01*
X107868072Y-108285000D01*
X107868072Y-103685000D01*
X107855812Y-103560518D01*
X107819502Y-103440820D01*
X107815000Y-103432397D01*
X107815000Y-99585128D01*
X108219782Y-99855595D01*
X108881310Y-100129609D01*
X109583584Y-100269300D01*
X110299616Y-100269300D01*
X111001890Y-100129609D01*
X111663418Y-99855595D01*
X112258777Y-99457789D01*
X112523580Y-99192986D01*
X114562519Y-99192986D01*
X114898706Y-99662168D01*
X115528668Y-100002537D01*
X116212927Y-100213466D01*
X116925189Y-100286850D01*
X117638082Y-100219869D01*
X118324209Y-100015096D01*
X118957203Y-99680402D01*
X118984494Y-99662168D01*
X119320681Y-99192986D01*
X116941600Y-96813905D01*
X114562519Y-99192986D01*
X112523580Y-99192986D01*
X112765089Y-98951477D01*
X113162895Y-98356118D01*
X113436909Y-97694590D01*
X113447987Y-97638897D01*
X113560804Y-98016909D01*
X113895498Y-98649903D01*
X113913732Y-98677194D01*
X114382914Y-99013381D01*
X116761995Y-96634300D01*
X114382914Y-94255219D01*
X113913732Y-94591406D01*
X113573363Y-95221368D01*
X113447792Y-95628723D01*
X113436909Y-95574010D01*
X113162895Y-94912482D01*
X112765089Y-94317123D01*
X112523580Y-94075614D01*
X114562519Y-94075614D01*
X116941600Y-96454695D01*
X119320681Y-94075614D01*
X118984494Y-93606432D01*
X118354532Y-93266063D01*
X117670273Y-93055134D01*
X116958011Y-92981750D01*
X116245118Y-93048731D01*
X115558991Y-93253504D01*
X114925997Y-93588198D01*
X114898706Y-93606432D01*
X114562519Y-94075614D01*
X112523580Y-94075614D01*
X112258777Y-93810811D01*
X111663418Y-93413005D01*
X111001890Y-93138991D01*
X110299616Y-92999300D01*
X109583584Y-92999300D01*
X108881310Y-93138991D01*
X108219782Y-93413005D01*
X107624423Y-93810811D01*
X107118111Y-94317123D01*
X106720305Y-94912482D01*
X106446291Y-95574010D01*
X106397979Y-95816890D01*
X106319263Y-95895606D01*
X106425600Y-95361015D01*
X106425600Y-94605585D01*
X106278223Y-93864672D01*
X105989133Y-93166746D01*
X105768804Y-92837000D01*
X120523000Y-92837000D01*
X120523000Y-95923849D01*
G36*
X120523000Y-121160000D02*
G01*
X117757331Y-121160000D01*
X120523000Y-118394333D01*
X120523000Y-121160000D01*
X120523000Y-121160000D01*
G37*
X120523000Y-121160000D02*
X117757331Y-121160000D01*
X120523000Y-118394333D01*
X120523000Y-121160000D01*
G36*
X145445467Y-93217546D02*
G01*
X145156377Y-93915472D01*
X145009000Y-94656385D01*
X145009000Y-95411815D01*
X145156377Y-96152728D01*
X145445467Y-96850654D01*
X145865161Y-97478770D01*
X146399330Y-98012939D01*
X147027446Y-98432633D01*
X147725372Y-98721723D01*
X148466285Y-98869100D01*
X149221715Y-98869100D01*
X149962628Y-98721723D01*
X150660554Y-98432633D01*
X150901400Y-98271705D01*
X150901400Y-211570253D01*
X150622454Y-211383867D01*
X149924528Y-211094777D01*
X149183615Y-210947400D01*
X148428185Y-210947400D01*
X147687272Y-211094777D01*
X146989346Y-211383867D01*
X146361230Y-211803561D01*
X145827061Y-212337730D01*
X145407367Y-212965846D01*
X145118277Y-213663772D01*
X144970900Y-214404685D01*
X144970900Y-215160115D01*
X145118277Y-215901028D01*
X145196759Y-216090500D01*
X106187041Y-216090500D01*
X106265523Y-215901028D01*
X106412900Y-215160115D01*
X106412900Y-214404685D01*
X106265523Y-213663772D01*
X105976433Y-212965846D01*
X105556739Y-212337730D01*
X105033824Y-211814815D01*
X117856000Y-211814815D01*
X117856000Y-212365185D01*
X117963372Y-212904980D01*
X118173989Y-213413455D01*
X118479758Y-213871071D01*
X118868929Y-214260242D01*
X119326545Y-214566011D01*
X119835020Y-214776628D01*
X120374815Y-214884000D01*
X120925185Y-214884000D01*
X121464980Y-214776628D01*
X121973455Y-214566011D01*
X122431071Y-214260242D01*
X122820242Y-213871071D01*
X123126011Y-213413455D01*
X123336628Y-212904980D01*
X123444000Y-212365185D01*
X123444000Y-211814815D01*
X133096000Y-211814815D01*
X133096000Y-212365185D01*
X133203372Y-212904980D01*
X133413989Y-213413455D01*
X133719758Y-213871071D01*
X134108929Y-214260242D01*
X134566545Y-214566011D01*
X135075020Y-214776628D01*
X135614815Y-214884000D01*
X136165185Y-214884000D01*
X136704980Y-214776628D01*
X137213455Y-214566011D01*
X137671071Y-214260242D01*
X138060242Y-213871071D01*
X138366011Y-213413455D01*
X138576628Y-212904980D01*
X138684000Y-212365185D01*
X138684000Y-211814815D01*
X138576628Y-211275020D01*
X138366011Y-210766545D01*
X138060242Y-210308929D01*
X137671071Y-209919758D01*
X137213455Y-209613989D01*
X136704980Y-209403372D01*
X136165185Y-209296000D01*
X135614815Y-209296000D01*
X135075020Y-209403372D01*
X134566545Y-209613989D01*
X134108929Y-209919758D01*
X133719758Y-210308929D01*
X133413989Y-210766545D01*
X133203372Y-211275020D01*
X133096000Y-211814815D01*
X123444000Y-211814815D01*
X123336628Y-211275020D01*
X123126011Y-210766545D01*
X122820242Y-210308929D01*
X122431071Y-209919758D01*
X121973455Y-209613989D01*
X121464980Y-209403372D01*
X120925185Y-209296000D01*
X120374815Y-209296000D01*
X119835020Y-209403372D01*
X119326545Y-209613989D01*
X118868929Y-209919758D01*
X118479758Y-210308929D01*
X118173989Y-210766545D01*
X117963372Y-211275020D01*
X117856000Y-211814815D01*
X105033824Y-211814815D01*
X105022570Y-211803561D01*
X104394454Y-211383867D01*
X103696528Y-211094777D01*
X102955615Y-210947400D01*
X102200185Y-210947400D01*
X101459272Y-211094777D01*
X100761346Y-211383867D01*
X100432549Y-211603563D01*
X100433214Y-208364226D01*
X110180700Y-208364226D01*
X110180700Y-208902974D01*
X110285805Y-209431370D01*
X110491975Y-209929108D01*
X110791287Y-210377061D01*
X111172239Y-210758013D01*
X111620192Y-211057325D01*
X112117930Y-211263495D01*
X112646326Y-211368600D01*
X113185074Y-211368600D01*
X113713470Y-211263495D01*
X114211208Y-211057325D01*
X114659161Y-210758013D01*
X115040113Y-210377061D01*
X115339425Y-209929108D01*
X115545595Y-209431370D01*
X115650700Y-208902974D01*
X115650700Y-208364226D01*
X115545595Y-207835830D01*
X115339425Y-207338092D01*
X115040113Y-206890139D01*
X114659161Y-206509187D01*
X114211208Y-206209875D01*
X113713470Y-206003705D01*
X113185074Y-205898600D01*
X112646326Y-205898600D01*
X112117930Y-206003705D01*
X111620192Y-206209875D01*
X111172239Y-206509187D01*
X110791287Y-206890139D01*
X110491975Y-207338092D01*
X110285805Y-207835830D01*
X110180700Y-208364226D01*
X100433214Y-208364226D01*
X100436086Y-194394226D01*
X110180700Y-194394226D01*
X110180700Y-194932974D01*
X110285805Y-195461370D01*
X110491975Y-195959108D01*
X110791287Y-196407061D01*
X111172239Y-196788013D01*
X111620192Y-197087325D01*
X112117930Y-197293495D01*
X112646326Y-197398600D01*
X113185074Y-197398600D01*
X113505319Y-197334899D01*
X117856000Y-197334899D01*
X117856000Y-197635101D01*
X117914566Y-197929534D01*
X118029449Y-198206885D01*
X118196232Y-198456493D01*
X118408507Y-198668768D01*
X118537562Y-198755000D01*
X118408507Y-198841232D01*
X118196232Y-199053507D01*
X118029449Y-199303115D01*
X117914566Y-199580466D01*
X117856000Y-199874899D01*
X117856000Y-200175101D01*
X117914566Y-200469534D01*
X118029449Y-200746885D01*
X118196232Y-200996493D01*
X118408507Y-201208768D01*
X118537562Y-201295000D01*
X118408507Y-201381232D01*
X118196232Y-201593507D01*
X118029449Y-201843115D01*
X117914566Y-202120466D01*
X117856000Y-202414899D01*
X117856000Y-202715101D01*
X117914566Y-203009534D01*
X118029449Y-203286885D01*
X118196232Y-203536493D01*
X118408507Y-203748768D01*
X118537562Y-203835000D01*
X118408507Y-203921232D01*
X118196232Y-204133507D01*
X118029449Y-204383115D01*
X117914566Y-204660466D01*
X117856000Y-204954899D01*
X117856000Y-205255101D01*
X117914566Y-205549534D01*
X118029449Y-205826885D01*
X118196232Y-206076493D01*
X118408507Y-206288768D01*
X118658115Y-206455551D01*
X118935466Y-206570434D01*
X119229899Y-206629000D01*
X119530101Y-206629000D01*
X119824534Y-206570434D01*
X120101885Y-206455551D01*
X120351493Y-206288768D01*
X120563768Y-206076493D01*
X120730551Y-205826885D01*
X120845434Y-205549534D01*
X120904000Y-205255101D01*
X120904000Y-204954899D01*
X120845434Y-204660466D01*
X120730551Y-204383115D01*
X120563768Y-204133507D01*
X120351493Y-203921232D01*
X120222438Y-203835000D01*
X120351493Y-203748768D01*
X120563768Y-203536493D01*
X120730551Y-203286885D01*
X120845434Y-203009534D01*
X120904000Y-202715101D01*
X120904000Y-202414899D01*
X120845434Y-202120466D01*
X120730551Y-201843115D01*
X120563768Y-201593507D01*
X120351493Y-201381232D01*
X120222438Y-201295000D01*
X120351493Y-201208768D01*
X120563768Y-200996493D01*
X120730551Y-200746885D01*
X120845434Y-200469534D01*
X120904000Y-200175101D01*
X120904000Y-199874899D01*
X120845434Y-199580466D01*
X120730551Y-199303115D01*
X120563768Y-199053507D01*
X120351493Y-198841232D01*
X120339920Y-198833499D01*
X126631700Y-198833499D01*
X126631700Y-199133701D01*
X126690266Y-199428134D01*
X126805149Y-199705485D01*
X126971932Y-199955093D01*
X127184207Y-200167368D01*
X127313262Y-200253600D01*
X127184207Y-200339832D01*
X126971932Y-200552107D01*
X126805149Y-200801715D01*
X126690266Y-201079066D01*
X126631700Y-201373499D01*
X126631700Y-201673701D01*
X126690266Y-201968134D01*
X126805149Y-202245485D01*
X126971932Y-202495093D01*
X127184207Y-202707368D01*
X127313262Y-202793600D01*
X127184207Y-202879832D01*
X126971932Y-203092107D01*
X126805149Y-203341715D01*
X126690266Y-203619066D01*
X126631700Y-203913499D01*
X126631700Y-204213701D01*
X126690266Y-204508134D01*
X126805149Y-204785485D01*
X126971932Y-205035093D01*
X127184207Y-205247368D01*
X127313262Y-205333600D01*
X127184207Y-205419832D01*
X126971932Y-205632107D01*
X126805149Y-205881715D01*
X126690266Y-206159066D01*
X126631700Y-206453499D01*
X126631700Y-206753701D01*
X126690266Y-207048134D01*
X126805149Y-207325485D01*
X126971932Y-207575093D01*
X127184207Y-207787368D01*
X127313262Y-207873600D01*
X127184207Y-207959832D01*
X126971932Y-208172107D01*
X126805149Y-208421715D01*
X126690266Y-208699066D01*
X126631700Y-208993499D01*
X126631700Y-209293701D01*
X126690266Y-209588134D01*
X126805149Y-209865485D01*
X126971932Y-210115093D01*
X127184207Y-210327368D01*
X127433815Y-210494151D01*
X127711166Y-210609034D01*
X128005599Y-210667600D01*
X128305801Y-210667600D01*
X128600234Y-210609034D01*
X128877585Y-210494151D01*
X129127193Y-210327368D01*
X129339468Y-210115093D01*
X129506251Y-209865485D01*
X129621134Y-209588134D01*
X129679700Y-209293701D01*
X129679700Y-208993499D01*
X129630077Y-208744024D01*
X133419202Y-204954899D01*
X135636000Y-204954899D01*
X135636000Y-205255101D01*
X135694566Y-205549534D01*
X135809449Y-205826885D01*
X135976232Y-206076493D01*
X136188507Y-206288768D01*
X136317562Y-206375000D01*
X136188507Y-206461232D01*
X135976232Y-206673507D01*
X135809449Y-206923115D01*
X135694566Y-207200466D01*
X135636000Y-207494899D01*
X135636000Y-207795101D01*
X135694566Y-208089534D01*
X135809449Y-208366885D01*
X135976232Y-208616493D01*
X136188507Y-208828768D01*
X136438115Y-208995551D01*
X136715466Y-209110434D01*
X137009899Y-209169000D01*
X137310101Y-209169000D01*
X137604534Y-209110434D01*
X137881885Y-208995551D01*
X138131493Y-208828768D01*
X138343768Y-208616493D01*
X138510551Y-208366885D01*
X138625434Y-208089534D01*
X138684000Y-207795101D01*
X138684000Y-207494899D01*
X138625434Y-207200466D01*
X138510551Y-206923115D01*
X138343768Y-206673507D01*
X138131493Y-206461232D01*
X138002438Y-206375000D01*
X138131493Y-206288768D01*
X138343768Y-206076493D01*
X138510551Y-205826885D01*
X138625434Y-205549534D01*
X138684000Y-205255101D01*
X138684000Y-204954899D01*
X138625434Y-204660466D01*
X138510551Y-204383115D01*
X138343768Y-204133507D01*
X138131493Y-203921232D01*
X137973378Y-203815583D01*
X138036626Y-203621231D01*
X137160000Y-202744605D01*
X136283374Y-203621231D01*
X136346622Y-203815583D01*
X136188507Y-203921232D01*
X135976232Y-204133507D01*
X135809449Y-204383115D01*
X135694566Y-204660466D01*
X135636000Y-204954899D01*
X133419202Y-204954899D01*
X135644098Y-202730004D01*
X135672557Y-202929171D01*
X135772184Y-203212359D01*
X135850711Y-203359273D01*
X136103769Y-203441626D01*
X136980395Y-202565000D01*
X137339605Y-202565000D01*
X138216231Y-203441626D01*
X138469289Y-203359273D01*
X138599086Y-203088582D01*
X138673580Y-202797770D01*
X138689908Y-202498012D01*
X138647443Y-202200829D01*
X138547816Y-201917641D01*
X138469289Y-201770727D01*
X138216231Y-201688374D01*
X137339605Y-202565000D01*
X136980395Y-202565000D01*
X136966253Y-202550858D01*
X137145858Y-202371253D01*
X137160000Y-202385395D01*
X138036626Y-201508769D01*
X137973378Y-201314417D01*
X138131493Y-201208768D01*
X138343768Y-200996493D01*
X138510551Y-200746885D01*
X138625434Y-200469534D01*
X138684000Y-200175101D01*
X138684000Y-199874899D01*
X138634377Y-199625424D01*
X147394623Y-190865178D01*
X147424232Y-191014029D01*
X147494714Y-191184189D01*
X147597038Y-191337328D01*
X147727272Y-191467562D01*
X147880411Y-191569886D01*
X148050571Y-191640368D01*
X148231211Y-191676300D01*
X148415389Y-191676300D01*
X148596029Y-191640368D01*
X148766189Y-191569886D01*
X148919328Y-191467562D01*
X149049562Y-191337328D01*
X149151886Y-191184189D01*
X149222368Y-191014029D01*
X149258300Y-190833389D01*
X149258300Y-190649211D01*
X149222368Y-190468571D01*
X149155011Y-190305955D01*
X149155011Y-142082334D01*
X149158687Y-142045011D01*
X149155011Y-142007688D01*
X149155011Y-142007678D01*
X149144014Y-141896025D01*
X149100557Y-141752764D01*
X149029985Y-141620735D01*
X148935012Y-141505010D01*
X148906015Y-141481213D01*
X144984377Y-137559576D01*
X145034000Y-137310101D01*
X145034000Y-137009899D01*
X144975434Y-136715466D01*
X144860551Y-136438115D01*
X144693768Y-136188507D01*
X144481493Y-135976232D01*
X144352438Y-135890000D01*
X144481493Y-135803768D01*
X144693768Y-135591493D01*
X144860551Y-135341885D01*
X144975434Y-135064534D01*
X145034000Y-134770101D01*
X145034000Y-134469899D01*
X144975434Y-134175466D01*
X144860551Y-133898115D01*
X144693768Y-133648507D01*
X144481493Y-133436232D01*
X144352438Y-133350000D01*
X144481493Y-133263768D01*
X144693768Y-133051493D01*
X144860551Y-132801885D01*
X144975434Y-132524534D01*
X145034000Y-132230101D01*
X145034000Y-131929899D01*
X144975434Y-131635466D01*
X144860551Y-131358115D01*
X144693768Y-131108507D01*
X144481493Y-130896232D01*
X144352438Y-130810000D01*
X144481493Y-130723768D01*
X144693768Y-130511493D01*
X144860551Y-130261885D01*
X144975434Y-129984534D01*
X145034000Y-129690101D01*
X145034000Y-129389899D01*
X144975434Y-129095466D01*
X144860551Y-128818115D01*
X144693768Y-128568507D01*
X144481493Y-128356232D01*
X144352438Y-128270000D01*
X144481493Y-128183768D01*
X144693768Y-127971493D01*
X144860551Y-127721885D01*
X144975434Y-127444534D01*
X145034000Y-127150101D01*
X145034000Y-126849899D01*
X144975434Y-126555466D01*
X144860551Y-126278115D01*
X144693768Y-126028507D01*
X144481493Y-125816232D01*
X144352438Y-125730000D01*
X144481493Y-125643768D01*
X144693768Y-125431493D01*
X144860551Y-125181885D01*
X144975434Y-124904534D01*
X145034000Y-124610101D01*
X145034000Y-124309899D01*
X144975434Y-124015466D01*
X144860551Y-123738115D01*
X144693768Y-123488507D01*
X144481493Y-123276232D01*
X144352438Y-123190000D01*
X144481493Y-123103768D01*
X144693768Y-122891493D01*
X144860551Y-122641885D01*
X144975434Y-122364534D01*
X145034000Y-122070101D01*
X145034000Y-121769899D01*
X144975434Y-121475466D01*
X144860551Y-121198115D01*
X144693768Y-120948507D01*
X144481493Y-120736232D01*
X144352438Y-120650000D01*
X144481493Y-120563768D01*
X144693768Y-120351493D01*
X144860551Y-120101885D01*
X144975434Y-119824534D01*
X145034000Y-119530101D01*
X145034000Y-119229899D01*
X144975434Y-118935466D01*
X144860551Y-118658115D01*
X144693768Y-118408507D01*
X144481493Y-118196232D01*
X144352438Y-118110000D01*
X144481493Y-118023768D01*
X144693768Y-117811493D01*
X144860551Y-117561885D01*
X144975434Y-117284534D01*
X145034000Y-116990101D01*
X145034000Y-116689899D01*
X144975434Y-116395466D01*
X144860551Y-116118115D01*
X144693768Y-115868507D01*
X144481493Y-115656232D01*
X144352438Y-115570000D01*
X144481493Y-115483768D01*
X144693768Y-115271493D01*
X144860551Y-115021885D01*
X144975434Y-114744534D01*
X145034000Y-114450101D01*
X145034000Y-114149899D01*
X144975434Y-113855466D01*
X144860551Y-113578115D01*
X144693768Y-113328507D01*
X144481493Y-113116232D01*
X144352438Y-113030000D01*
X144481493Y-112943768D01*
X144693768Y-112731493D01*
X144860551Y-112481885D01*
X144975434Y-112204534D01*
X145034000Y-111910101D01*
X145034000Y-111609899D01*
X144975434Y-111315466D01*
X144860551Y-111038115D01*
X144693768Y-110788507D01*
X144481493Y-110576232D01*
X144231885Y-110409449D01*
X143954534Y-110294566D01*
X143660101Y-110236000D01*
X143359899Y-110236000D01*
X143065466Y-110294566D01*
X142788115Y-110409449D01*
X142538507Y-110576232D01*
X142326232Y-110788507D01*
X142159449Y-111038115D01*
X142044566Y-111315466D01*
X141986000Y-111609899D01*
X141986000Y-111910101D01*
X142044566Y-112204534D01*
X142159449Y-112481885D01*
X142326232Y-112731493D01*
X142538507Y-112943768D01*
X142667562Y-113030000D01*
X142538507Y-113116232D01*
X142326232Y-113328507D01*
X142159449Y-113578115D01*
X142044566Y-113855466D01*
X141986000Y-114149899D01*
X141986000Y-114450101D01*
X142044566Y-114744534D01*
X142159449Y-115021885D01*
X142326232Y-115271493D01*
X142538507Y-115483768D01*
X142667562Y-115570000D01*
X142538507Y-115656232D01*
X142326232Y-115868507D01*
X142159449Y-116118115D01*
X142044566Y-116395466D01*
X141986000Y-116689899D01*
X141986000Y-116990101D01*
X142044566Y-117284534D01*
X142159449Y-117561885D01*
X142326232Y-117811493D01*
X142538507Y-118023768D01*
X142667562Y-118110000D01*
X142538507Y-118196232D01*
X142326232Y-118408507D01*
X142159449Y-118658115D01*
X142044566Y-118935466D01*
X141986000Y-119229899D01*
X141986000Y-119530101D01*
X142044566Y-119824534D01*
X142159449Y-120101885D01*
X142326232Y-120351493D01*
X142538507Y-120563768D01*
X142667562Y-120650000D01*
X142538507Y-120736232D01*
X142326232Y-120948507D01*
X142159449Y-121198115D01*
X142044566Y-121475466D01*
X141986000Y-121769899D01*
X141986000Y-122070101D01*
X142044566Y-122364534D01*
X142159449Y-122641885D01*
X142326232Y-122891493D01*
X142538507Y-123103768D01*
X142667562Y-123190000D01*
X142538507Y-123276232D01*
X142326232Y-123488507D01*
X142159449Y-123738115D01*
X142044566Y-124015466D01*
X141986000Y-124309899D01*
X141986000Y-124610101D01*
X142044566Y-124904534D01*
X142159449Y-125181885D01*
X142326232Y-125431493D01*
X142538507Y-125643768D01*
X142667562Y-125730000D01*
X142538507Y-125816232D01*
X142326232Y-126028507D01*
X142159449Y-126278115D01*
X142044566Y-126555466D01*
X141986000Y-126849899D01*
X141986000Y-127150101D01*
X142044566Y-127444534D01*
X142159449Y-127721885D01*
X142326232Y-127971493D01*
X142538507Y-128183768D01*
X142667562Y-128270000D01*
X142538507Y-128356232D01*
X142326232Y-128568507D01*
X142159449Y-128818115D01*
X142044566Y-129095466D01*
X141986000Y-129389899D01*
X141986000Y-129690101D01*
X142044566Y-129984534D01*
X142159449Y-130261885D01*
X142326232Y-130511493D01*
X142538507Y-130723768D01*
X142667562Y-130810000D01*
X142538507Y-130896232D01*
X142326232Y-131108507D01*
X142159449Y-131358115D01*
X142044566Y-131635466D01*
X141986000Y-131929899D01*
X141986000Y-132230101D01*
X142044566Y-132524534D01*
X142159449Y-132801885D01*
X142326232Y-133051493D01*
X142538507Y-133263768D01*
X142667562Y-133350000D01*
X142538507Y-133436232D01*
X142326232Y-133648507D01*
X142159449Y-133898115D01*
X142044566Y-134175466D01*
X141986000Y-134469899D01*
X141986000Y-134770101D01*
X142044566Y-135064534D01*
X142159449Y-135341885D01*
X142326232Y-135591493D01*
X142538507Y-135803768D01*
X142667562Y-135890000D01*
X142538507Y-135976232D01*
X142326232Y-136188507D01*
X142184917Y-136400000D01*
X140582239Y-136400000D01*
X140580813Y-136385518D01*
X140544503Y-136265820D01*
X140485538Y-136155506D01*
X140406186Y-136058815D01*
X140309495Y-135979463D01*
X140199181Y-135920498D01*
X140079483Y-135884188D01*
X139955001Y-135871928D01*
X139255001Y-135871928D01*
X139130519Y-135884188D01*
X139010821Y-135920498D01*
X138900507Y-135979463D01*
X138803816Y-136058815D01*
X138724464Y-136155506D01*
X138665499Y-136265820D01*
X138655001Y-136300427D01*
X138644503Y-136265820D01*
X138585538Y-136155506D01*
X138506186Y-136058815D01*
X138409495Y-135979463D01*
X138299181Y-135920498D01*
X138179483Y-135884188D01*
X138055001Y-135871928D01*
X137355001Y-135871928D01*
X137230519Y-135884188D01*
X137110821Y-135920498D01*
X137000507Y-135979463D01*
X136903816Y-136058815D01*
X136824464Y-136155506D01*
X136765499Y-136265820D01*
X136729189Y-136385518D01*
X136716929Y-136510000D01*
X136716929Y-137373270D01*
X133194400Y-140895800D01*
X132968435Y-140895800D01*
X132865789Y-140827214D01*
X132695629Y-140756732D01*
X132514989Y-140720800D01*
X132330811Y-140720800D01*
X132150171Y-140756732D01*
X131980011Y-140827214D01*
X131826872Y-140929538D01*
X131696638Y-141059772D01*
X131594314Y-141212911D01*
X131523832Y-141383071D01*
X131487900Y-141563711D01*
X131487900Y-141747889D01*
X131523832Y-141928529D01*
X131594314Y-142098689D01*
X131696638Y-142251828D01*
X131826872Y-142382062D01*
X131980011Y-142484386D01*
X132150171Y-142554868D01*
X132330811Y-142590800D01*
X132514989Y-142590800D01*
X132695629Y-142554868D01*
X132865789Y-142484386D01*
X132968435Y-142415800D01*
X133471879Y-142415800D01*
X133509201Y-142419476D01*
X133546523Y-142415800D01*
X133546534Y-142415800D01*
X133658187Y-142404803D01*
X133801448Y-142361346D01*
X133933477Y-142290774D01*
X134049202Y-142195801D01*
X134073005Y-142166797D01*
X136811928Y-139427875D01*
X136811928Y-140350000D01*
X136824188Y-140474482D01*
X136860498Y-140594180D01*
X136919463Y-140704494D01*
X136998815Y-140801185D01*
X137095506Y-140880537D01*
X137205820Y-140939502D01*
X137325518Y-140975812D01*
X137450000Y-140988072D01*
X138150000Y-140988072D01*
X138274482Y-140975812D01*
X138394180Y-140939502D01*
X138504494Y-140880537D01*
X138601185Y-140801185D01*
X138680537Y-140704494D01*
X138739502Y-140594180D01*
X138750000Y-140559573D01*
X138760498Y-140594180D01*
X138819463Y-140704494D01*
X138898815Y-140801185D01*
X138995506Y-140880537D01*
X139105820Y-140939502D01*
X139225518Y-140975812D01*
X139350000Y-140988072D01*
X140050000Y-140988072D01*
X140174482Y-140975812D01*
X140294180Y-140939502D01*
X140404494Y-140880537D01*
X140501185Y-140801185D01*
X140580537Y-140704494D01*
X140639502Y-140594180D01*
X140675812Y-140474482D01*
X140677238Y-140460000D01*
X142184917Y-140460000D01*
X142326232Y-140671493D01*
X142538507Y-140883768D01*
X142788115Y-141050551D01*
X143065466Y-141165434D01*
X143359899Y-141224000D01*
X143660101Y-141224000D01*
X143909576Y-141174377D01*
X147185002Y-144449804D01*
X147185001Y-188925197D01*
X138684000Y-197426199D01*
X138684000Y-197334899D01*
X138625434Y-197040466D01*
X138510551Y-196763115D01*
X138343768Y-196513507D01*
X138131493Y-196301232D01*
X138002438Y-196215000D01*
X138131493Y-196128768D01*
X138343768Y-195916493D01*
X138510551Y-195666885D01*
X138625434Y-195389534D01*
X138684000Y-195095101D01*
X138684000Y-194794899D01*
X138625434Y-194500466D01*
X138510551Y-194223115D01*
X138343768Y-193973507D01*
X138131493Y-193761232D01*
X137881885Y-193594449D01*
X137604534Y-193479566D01*
X137310101Y-193421000D01*
X137009899Y-193421000D01*
X136715466Y-193479566D01*
X136438115Y-193594449D01*
X136188507Y-193761232D01*
X135976232Y-193973507D01*
X135809449Y-194223115D01*
X135694566Y-194500466D01*
X135636000Y-194794899D01*
X135636000Y-195095101D01*
X135694566Y-195389534D01*
X135809449Y-195666885D01*
X135976232Y-195916493D01*
X136188507Y-196128768D01*
X136317562Y-196215000D01*
X136188507Y-196301232D01*
X135976232Y-196513507D01*
X135809449Y-196763115D01*
X135694566Y-197040466D01*
X135636000Y-197334899D01*
X135636000Y-197635101D01*
X135694566Y-197929534D01*
X135712256Y-197972242D01*
X129679700Y-204004799D01*
X129679700Y-203913499D01*
X129621134Y-203619066D01*
X129506251Y-203341715D01*
X129339468Y-203092107D01*
X129127193Y-202879832D01*
X128998138Y-202793600D01*
X129127193Y-202707368D01*
X129339468Y-202495093D01*
X129506251Y-202245485D01*
X129621134Y-201968134D01*
X129679700Y-201673701D01*
X129679700Y-201373499D01*
X129621134Y-201079066D01*
X129506251Y-200801715D01*
X129339468Y-200552107D01*
X129127193Y-200339832D01*
X128998138Y-200253600D01*
X129127193Y-200167368D01*
X129339468Y-199955093D01*
X129506251Y-199705485D01*
X129621134Y-199428134D01*
X129679700Y-199133701D01*
X129679700Y-198833499D01*
X129621134Y-198539066D01*
X129506251Y-198261715D01*
X129339468Y-198012107D01*
X129127193Y-197799832D01*
X128969078Y-197694183D01*
X129032326Y-197499831D01*
X128155700Y-196623205D01*
X127279074Y-197499831D01*
X127342322Y-197694183D01*
X127184207Y-197799832D01*
X126971932Y-198012107D01*
X126805149Y-198261715D01*
X126690266Y-198539066D01*
X126631700Y-198833499D01*
X120339920Y-198833499D01*
X120222438Y-198755000D01*
X120351493Y-198668768D01*
X120563768Y-198456493D01*
X120730551Y-198206885D01*
X120845434Y-197929534D01*
X120904000Y-197635101D01*
X120904000Y-197334899D01*
X120845434Y-197040466D01*
X120730551Y-196763115D01*
X120563768Y-196513507D01*
X120560849Y-196510588D01*
X126625792Y-196510588D01*
X126668257Y-196807771D01*
X126767884Y-197090959D01*
X126846411Y-197237873D01*
X127099469Y-197320226D01*
X127976095Y-196443600D01*
X128335305Y-196443600D01*
X129211931Y-197320226D01*
X129464989Y-197237873D01*
X129594786Y-196967182D01*
X129669280Y-196676370D01*
X129685608Y-196376612D01*
X129643143Y-196079429D01*
X129543516Y-195796241D01*
X129464989Y-195649327D01*
X129211931Y-195566974D01*
X128335305Y-196443600D01*
X127976095Y-196443600D01*
X127099469Y-195566974D01*
X126846411Y-195649327D01*
X126716614Y-195920018D01*
X126642120Y-196210830D01*
X126625792Y-196510588D01*
X120560849Y-196510588D01*
X120351493Y-196301232D01*
X120101885Y-196134449D01*
X119824534Y-196019566D01*
X119530101Y-195961000D01*
X119229899Y-195961000D01*
X118935466Y-196019566D01*
X118658115Y-196134449D01*
X118408507Y-196301232D01*
X118196232Y-196513507D01*
X118029449Y-196763115D01*
X117914566Y-197040466D01*
X117856000Y-197334899D01*
X113505319Y-197334899D01*
X113713470Y-197293495D01*
X114211208Y-197087325D01*
X114659161Y-196788013D01*
X115040113Y-196407061D01*
X115339425Y-195959108D01*
X115545595Y-195461370D01*
X115650700Y-194932974D01*
X115650700Y-194394226D01*
X115545595Y-193865830D01*
X115499066Y-193753499D01*
X126631700Y-193753499D01*
X126631700Y-194053701D01*
X126690266Y-194348134D01*
X126805149Y-194625485D01*
X126971932Y-194875093D01*
X127184207Y-195087368D01*
X127342322Y-195193017D01*
X127279074Y-195387369D01*
X128155700Y-196263995D01*
X129032326Y-195387369D01*
X128969078Y-195193017D01*
X129127193Y-195087368D01*
X129339468Y-194875093D01*
X129506251Y-194625485D01*
X129621134Y-194348134D01*
X129679700Y-194053701D01*
X129679700Y-193753499D01*
X129621134Y-193459066D01*
X129506251Y-193181715D01*
X129339468Y-192932107D01*
X129127193Y-192719832D01*
X128877585Y-192553049D01*
X128600234Y-192438166D01*
X128305801Y-192379600D01*
X128005599Y-192379600D01*
X127711166Y-192438166D01*
X127433815Y-192553049D01*
X127184207Y-192719832D01*
X126971932Y-192932107D01*
X126805149Y-193181715D01*
X126690266Y-193459066D01*
X126631700Y-193753499D01*
X115499066Y-193753499D01*
X115339425Y-193368092D01*
X115040113Y-192920139D01*
X114659161Y-192539187D01*
X114211208Y-192239875D01*
X113713470Y-192033705D01*
X113185074Y-191928600D01*
X112646326Y-191928600D01*
X112117930Y-192033705D01*
X111620192Y-192239875D01*
X111172239Y-192539187D01*
X110791287Y-192920139D01*
X110491975Y-193368092D01*
X110285805Y-193865830D01*
X110180700Y-194394226D01*
X100436086Y-194394226D01*
X100437670Y-186690000D01*
X102812915Y-186690000D01*
X102841587Y-186981111D01*
X102926501Y-187261034D01*
X103064394Y-187519014D01*
X103249966Y-187745134D01*
X103476086Y-187930706D01*
X103530891Y-187960000D01*
X103476086Y-187989294D01*
X103249966Y-188174866D01*
X103064394Y-188400986D01*
X102926501Y-188658966D01*
X102841587Y-188938889D01*
X102812915Y-189230000D01*
X102841587Y-189521111D01*
X102926501Y-189801034D01*
X103064394Y-190059014D01*
X103249966Y-190285134D01*
X103476086Y-190470706D01*
X103734066Y-190608599D01*
X104013989Y-190693513D01*
X104232150Y-190715000D01*
X104378050Y-190715000D01*
X104596211Y-190693513D01*
X104876134Y-190608599D01*
X105134114Y-190470706D01*
X105360234Y-190285134D01*
X105409736Y-190224815D01*
X117856000Y-190224815D01*
X117856000Y-190775185D01*
X117963372Y-191314980D01*
X118173989Y-191823455D01*
X118479758Y-192281071D01*
X118868929Y-192670242D01*
X119326545Y-192976011D01*
X119835020Y-193186628D01*
X120374815Y-193294000D01*
X120925185Y-193294000D01*
X121464980Y-193186628D01*
X121973455Y-192976011D01*
X122431071Y-192670242D01*
X122820242Y-192281071D01*
X123126011Y-191823455D01*
X123336628Y-191314980D01*
X123444000Y-190775185D01*
X123444000Y-190224815D01*
X133096000Y-190224815D01*
X133096000Y-190775185D01*
X133203372Y-191314980D01*
X133413989Y-191823455D01*
X133719758Y-192281071D01*
X134108929Y-192670242D01*
X134566545Y-192976011D01*
X135075020Y-193186628D01*
X135614815Y-193294000D01*
X136165185Y-193294000D01*
X136704980Y-193186628D01*
X137213455Y-192976011D01*
X137671071Y-192670242D01*
X138060242Y-192281071D01*
X138366011Y-191823455D01*
X138576628Y-191314980D01*
X138684000Y-190775185D01*
X138684000Y-190224815D01*
X138576628Y-189685020D01*
X138366011Y-189176545D01*
X138060242Y-188718929D01*
X137671071Y-188329758D01*
X137213455Y-188023989D01*
X136704980Y-187813372D01*
X136165185Y-187706000D01*
X135614815Y-187706000D01*
X135075020Y-187813372D01*
X134566545Y-188023989D01*
X134108929Y-188329758D01*
X133719758Y-188718929D01*
X133413989Y-189176545D01*
X133203372Y-189685020D01*
X133096000Y-190224815D01*
X123444000Y-190224815D01*
X123336628Y-189685020D01*
X123126011Y-189176545D01*
X122820242Y-188718929D01*
X122431071Y-188329758D01*
X121973455Y-188023989D01*
X121464980Y-187813372D01*
X120925185Y-187706000D01*
X120374815Y-187706000D01*
X119835020Y-187813372D01*
X119326545Y-188023989D01*
X118868929Y-188329758D01*
X118479758Y-188718929D01*
X118173989Y-189176545D01*
X117963372Y-189685020D01*
X117856000Y-190224815D01*
X105409736Y-190224815D01*
X105545806Y-190059014D01*
X105683699Y-189801034D01*
X105768613Y-189521111D01*
X105797285Y-189230000D01*
X105768613Y-188938889D01*
X105683699Y-188658966D01*
X105545806Y-188400986D01*
X105360234Y-188174866D01*
X105134114Y-187989294D01*
X105079309Y-187960000D01*
X105134114Y-187930706D01*
X105360234Y-187745134D01*
X105545806Y-187519014D01*
X105683699Y-187261034D01*
X105768613Y-186981111D01*
X105797285Y-186690000D01*
X105768613Y-186398889D01*
X105683699Y-186118966D01*
X105545806Y-185860986D01*
X105360234Y-185634866D01*
X105330413Y-185610393D01*
X105399280Y-185589502D01*
X105509594Y-185530537D01*
X105606285Y-185451185D01*
X105685637Y-185354494D01*
X105744602Y-185244180D01*
X105780912Y-185124482D01*
X105793172Y-185000000D01*
X105790100Y-184435750D01*
X105631350Y-184277000D01*
X104432100Y-184277000D01*
X104432100Y-184297000D01*
X104178100Y-184297000D01*
X104178100Y-184277000D01*
X102978850Y-184277000D01*
X102820100Y-184435750D01*
X102817028Y-185000000D01*
X102829288Y-185124482D01*
X102865598Y-185244180D01*
X102924563Y-185354494D01*
X103003915Y-185451185D01*
X103100606Y-185530537D01*
X103210920Y-185589502D01*
X103279787Y-185610393D01*
X103249966Y-185634866D01*
X103064394Y-185860986D01*
X102926501Y-186118966D01*
X102841587Y-186398889D01*
X102812915Y-186690000D01*
X100437670Y-186690000D01*
X100438367Y-183300000D01*
X102817028Y-183300000D01*
X102820100Y-183864250D01*
X102978850Y-184023000D01*
X104178100Y-184023000D01*
X104178100Y-182823750D01*
X104432100Y-182823750D01*
X104432100Y-184023000D01*
X105631350Y-184023000D01*
X105790100Y-183864250D01*
X105793172Y-183300000D01*
X105780912Y-183175518D01*
X105744602Y-183055820D01*
X105685637Y-182945506D01*
X105606285Y-182848815D01*
X105509594Y-182769463D01*
X105399280Y-182710498D01*
X105279582Y-182674188D01*
X105155100Y-182661928D01*
X104590850Y-182665000D01*
X104432100Y-182823750D01*
X104178100Y-182823750D01*
X104019350Y-182665000D01*
X103455100Y-182661928D01*
X103330618Y-182674188D01*
X103210920Y-182710498D01*
X103100606Y-182769463D01*
X103003915Y-182848815D01*
X102924563Y-182945506D01*
X102865598Y-183055820D01*
X102829288Y-183175518D01*
X102817028Y-183300000D01*
X100438367Y-183300000D01*
X100438961Y-180408290D01*
X120332500Y-180408290D01*
X120332500Y-181033710D01*
X120454514Y-181647113D01*
X120693852Y-182224926D01*
X121041317Y-182744944D01*
X121483556Y-183187183D01*
X122003574Y-183534648D01*
X122581387Y-183773986D01*
X123194790Y-183896000D01*
X123820210Y-183896000D01*
X124433613Y-183773986D01*
X125011426Y-183534648D01*
X125531444Y-183187183D01*
X125973683Y-182744944D01*
X126321148Y-182224926D01*
X126560486Y-181647113D01*
X126682500Y-181033710D01*
X126682500Y-180408290D01*
X126560486Y-179794887D01*
X126321148Y-179217074D01*
X125973683Y-178697056D01*
X125531444Y-178254817D01*
X125011426Y-177907352D01*
X124433613Y-177668014D01*
X123820210Y-177546000D01*
X123194790Y-177546000D01*
X122581387Y-177668014D01*
X122003574Y-177907352D01*
X121483556Y-178254817D01*
X121041317Y-178697056D01*
X120693852Y-179217074D01*
X120454514Y-179794887D01*
X120332500Y-180408290D01*
X100438961Y-180408290D01*
X100439786Y-176392408D01*
X143383000Y-176392408D01*
X143383000Y-176667592D01*
X143436686Y-176937490D01*
X143541995Y-177191727D01*
X143694880Y-177420535D01*
X143889465Y-177615120D01*
X144118273Y-177768005D01*
X144372510Y-177873314D01*
X144642408Y-177927000D01*
X144917592Y-177927000D01*
X145187490Y-177873314D01*
X145441727Y-177768005D01*
X145670535Y-177615120D01*
X145865120Y-177420535D01*
X146018005Y-177191727D01*
X146123314Y-176937490D01*
X146177000Y-176667592D01*
X146177000Y-176392408D01*
X146123314Y-176122510D01*
X146018005Y-175868273D01*
X145865120Y-175639465D01*
X145670535Y-175444880D01*
X145441727Y-175291995D01*
X145370057Y-175262308D01*
X145383023Y-175257636D01*
X145498980Y-175195656D01*
X145565960Y-174955565D01*
X144780000Y-174169605D01*
X143994040Y-174955565D01*
X144061020Y-175195656D01*
X144196760Y-175259485D01*
X144118273Y-175291995D01*
X143889465Y-175444880D01*
X143694880Y-175639465D01*
X143541995Y-175868273D01*
X143436686Y-176122510D01*
X143383000Y-176392408D01*
X100439786Y-176392408D01*
X100443707Y-157329899D01*
X102616000Y-157329899D01*
X102616000Y-157630101D01*
X102674566Y-157924534D01*
X102789449Y-158201885D01*
X102956232Y-158451493D01*
X103168507Y-158663768D01*
X103297562Y-158750000D01*
X103168507Y-158836232D01*
X102956232Y-159048507D01*
X102789449Y-159298115D01*
X102674566Y-159575466D01*
X102616000Y-159869899D01*
X102616000Y-160170101D01*
X102674566Y-160464534D01*
X102789449Y-160741885D01*
X102956232Y-160991493D01*
X103168507Y-161203768D01*
X103297562Y-161290000D01*
X103168507Y-161376232D01*
X102956232Y-161588507D01*
X102789449Y-161838115D01*
X102674566Y-162115466D01*
X102616000Y-162409899D01*
X102616000Y-162710101D01*
X102674566Y-163004534D01*
X102789449Y-163281885D01*
X102956232Y-163531493D01*
X103168507Y-163743768D01*
X103297562Y-163830000D01*
X103168507Y-163916232D01*
X102956232Y-164128507D01*
X102789449Y-164378115D01*
X102674566Y-164655466D01*
X102616000Y-164949899D01*
X102616000Y-165250101D01*
X102674566Y-165544534D01*
X102789449Y-165821885D01*
X102956232Y-166071493D01*
X103168507Y-166283768D01*
X103297562Y-166370000D01*
X103168507Y-166456232D01*
X102956232Y-166668507D01*
X102789449Y-166918115D01*
X102674566Y-167195466D01*
X102616000Y-167489899D01*
X102616000Y-167790101D01*
X102674566Y-168084534D01*
X102789449Y-168361885D01*
X102956232Y-168611493D01*
X103168507Y-168823768D01*
X103297562Y-168910000D01*
X103168507Y-168996232D01*
X102956232Y-169208507D01*
X102789449Y-169458115D01*
X102674566Y-169735466D01*
X102616000Y-170029899D01*
X102616000Y-170330101D01*
X102674566Y-170624534D01*
X102789449Y-170901885D01*
X102956232Y-171151493D01*
X103168507Y-171363768D01*
X103297562Y-171450000D01*
X103168507Y-171536232D01*
X102956232Y-171748507D01*
X102789449Y-171998115D01*
X102674566Y-172275466D01*
X102616000Y-172569899D01*
X102616000Y-172870101D01*
X102674566Y-173164534D01*
X102789449Y-173441885D01*
X102956232Y-173691493D01*
X103168507Y-173903768D01*
X103418115Y-174070551D01*
X103695466Y-174185434D01*
X103989899Y-174244000D01*
X104290101Y-174244000D01*
X104584534Y-174185434D01*
X104861885Y-174070551D01*
X104874657Y-174062017D01*
X143378090Y-174062017D01*
X143419078Y-174334133D01*
X143512364Y-174593023D01*
X143574344Y-174708980D01*
X143814435Y-174775960D01*
X144600395Y-173990000D01*
X144959605Y-173990000D01*
X145745565Y-174775960D01*
X145985656Y-174708980D01*
X146102756Y-174459952D01*
X146169023Y-174192865D01*
X146181910Y-173917983D01*
X146140922Y-173645867D01*
X146047636Y-173386977D01*
X145985656Y-173271020D01*
X145745565Y-173204040D01*
X144959605Y-173990000D01*
X144600395Y-173990000D01*
X143814435Y-173204040D01*
X143574344Y-173271020D01*
X143457244Y-173520048D01*
X143390977Y-173787135D01*
X143378090Y-174062017D01*
X104874657Y-174062017D01*
X105111493Y-173903768D01*
X105323768Y-173691493D01*
X105490551Y-173441885D01*
X105605434Y-173164534D01*
X105664000Y-172870101D01*
X105664000Y-172569899D01*
X105605434Y-172275466D01*
X105490551Y-171998115D01*
X105323768Y-171748507D01*
X105111493Y-171536232D01*
X104982438Y-171450000D01*
X105111493Y-171363768D01*
X105323768Y-171151493D01*
X105490551Y-170901885D01*
X105605434Y-170624534D01*
X105664000Y-170330101D01*
X105664000Y-170029899D01*
X105605434Y-169735466D01*
X105490551Y-169458115D01*
X105323768Y-169208507D01*
X105111493Y-168996232D01*
X104982438Y-168910000D01*
X105111493Y-168823768D01*
X105323768Y-168611493D01*
X105465083Y-168400000D01*
X105855278Y-168400000D01*
X105892600Y-168403676D01*
X105929922Y-168400000D01*
X105929933Y-168400000D01*
X106041586Y-168389003D01*
X106184847Y-168345546D01*
X106316876Y-168274974D01*
X106432601Y-168180001D01*
X106456404Y-168150997D01*
X108374994Y-166232408D01*
X143383000Y-166232408D01*
X143383000Y-166507592D01*
X143436686Y-166777490D01*
X143541995Y-167031727D01*
X143694880Y-167260535D01*
X143889465Y-167455120D01*
X144118273Y-167608005D01*
X144195515Y-167640000D01*
X144118273Y-167671995D01*
X143889465Y-167824880D01*
X143694880Y-168019465D01*
X143541995Y-168248273D01*
X143436686Y-168502510D01*
X143383000Y-168772408D01*
X143383000Y-169047592D01*
X143436686Y-169317490D01*
X143541995Y-169571727D01*
X143694880Y-169800535D01*
X143889465Y-169995120D01*
X144118273Y-170148005D01*
X144195515Y-170180000D01*
X144118273Y-170211995D01*
X143889465Y-170364880D01*
X143694880Y-170559465D01*
X143541995Y-170788273D01*
X143436686Y-171042510D01*
X143383000Y-171312408D01*
X143383000Y-171587592D01*
X143436686Y-171857490D01*
X143541995Y-172111727D01*
X143694880Y-172340535D01*
X143889465Y-172535120D01*
X144118273Y-172688005D01*
X144189943Y-172717692D01*
X144176977Y-172722364D01*
X144061020Y-172784344D01*
X143994040Y-173024435D01*
X144780000Y-173810395D01*
X145565960Y-173024435D01*
X145498980Y-172784344D01*
X145363240Y-172720515D01*
X145441727Y-172688005D01*
X145670535Y-172535120D01*
X145865120Y-172340535D01*
X146018005Y-172111727D01*
X146123314Y-171857490D01*
X146177000Y-171587592D01*
X146177000Y-171312408D01*
X146123314Y-171042510D01*
X146018005Y-170788273D01*
X145865120Y-170559465D01*
X145670535Y-170364880D01*
X145441727Y-170211995D01*
X145364485Y-170180000D01*
X145441727Y-170148005D01*
X145670535Y-169995120D01*
X145865120Y-169800535D01*
X146018005Y-169571727D01*
X146123314Y-169317490D01*
X146177000Y-169047592D01*
X146177000Y-168772408D01*
X146123314Y-168502510D01*
X146018005Y-168248273D01*
X145865120Y-168019465D01*
X145670535Y-167824880D01*
X145441727Y-167671995D01*
X145364485Y-167640000D01*
X145441727Y-167608005D01*
X145670535Y-167455120D01*
X145865120Y-167260535D01*
X146018005Y-167031727D01*
X146123314Y-166777490D01*
X146177000Y-166507592D01*
X146177000Y-166232408D01*
X146123314Y-165962510D01*
X146018005Y-165708273D01*
X145865120Y-165479465D01*
X145670535Y-165284880D01*
X145441727Y-165131995D01*
X145187490Y-165026686D01*
X144917592Y-164973000D01*
X144642408Y-164973000D01*
X144372510Y-165026686D01*
X144118273Y-165131995D01*
X143889465Y-165284880D01*
X143694880Y-165479465D01*
X143541995Y-165708273D01*
X143436686Y-165962510D01*
X143383000Y-166232408D01*
X108374994Y-166232408D01*
X109190418Y-165416985D01*
X109219411Y-165393191D01*
X109243205Y-165364198D01*
X109243209Y-165364194D01*
X109314383Y-165277467D01*
X109329011Y-165250101D01*
X109384956Y-165145437D01*
X109428413Y-165002176D01*
X109439410Y-164890523D01*
X109439410Y-164890514D01*
X109443086Y-164853191D01*
X109439410Y-164815868D01*
X109439410Y-152249899D01*
X128016000Y-152249899D01*
X128016000Y-152550101D01*
X128074566Y-152844534D01*
X128189449Y-153121885D01*
X128356232Y-153371493D01*
X128568507Y-153583768D01*
X128697562Y-153670000D01*
X128568507Y-153756232D01*
X128356232Y-153968507D01*
X128189449Y-154218115D01*
X128074566Y-154495466D01*
X128016000Y-154789899D01*
X128016000Y-155090101D01*
X128074566Y-155384534D01*
X128189449Y-155661885D01*
X128356232Y-155911493D01*
X128568507Y-156123768D01*
X128697562Y-156210000D01*
X128568507Y-156296232D01*
X128356232Y-156508507D01*
X128189449Y-156758115D01*
X128074566Y-157035466D01*
X128016000Y-157329899D01*
X128016000Y-157630101D01*
X128074566Y-157924534D01*
X128189449Y-158201885D01*
X128356232Y-158451493D01*
X128568507Y-158663768D01*
X128697562Y-158750000D01*
X128568507Y-158836232D01*
X128356232Y-159048507D01*
X128189449Y-159298115D01*
X128074566Y-159575466D01*
X128016000Y-159869899D01*
X128016000Y-160170101D01*
X128074566Y-160464534D01*
X128189449Y-160741885D01*
X128356232Y-160991493D01*
X128568507Y-161203768D01*
X128697562Y-161290000D01*
X128568507Y-161376232D01*
X128356232Y-161588507D01*
X128189449Y-161838115D01*
X128074566Y-162115466D01*
X128016000Y-162409899D01*
X128016000Y-162710101D01*
X128074566Y-163004534D01*
X128189449Y-163281885D01*
X128356232Y-163531493D01*
X128568507Y-163743768D01*
X128818115Y-163910551D01*
X129095466Y-164025434D01*
X129389899Y-164084000D01*
X129690101Y-164084000D01*
X129984534Y-164025434D01*
X130261885Y-163910551D01*
X130511493Y-163743768D01*
X130723768Y-163531493D01*
X130890551Y-163281885D01*
X131005434Y-163004534D01*
X131064000Y-162710101D01*
X131064000Y-162409899D01*
X131005434Y-162115466D01*
X130890551Y-161838115D01*
X130723768Y-161588507D01*
X130511493Y-161376232D01*
X130382438Y-161290000D01*
X130511493Y-161203768D01*
X130723768Y-160991493D01*
X130890551Y-160741885D01*
X131005434Y-160464534D01*
X131064000Y-160170101D01*
X131064000Y-159869899D01*
X131005434Y-159575466D01*
X130890551Y-159298115D01*
X130723768Y-159048507D01*
X130511493Y-158836232D01*
X130382438Y-158750000D01*
X130511493Y-158663768D01*
X130723768Y-158451493D01*
X130890551Y-158201885D01*
X131005434Y-157924534D01*
X131064000Y-157630101D01*
X131064000Y-157329899D01*
X131005434Y-157035466D01*
X130890551Y-156758115D01*
X130723768Y-156508507D01*
X130511493Y-156296232D01*
X130382438Y-156210000D01*
X130511493Y-156123768D01*
X130723768Y-155911493D01*
X130890551Y-155661885D01*
X131005434Y-155384534D01*
X131064000Y-155090101D01*
X131064000Y-154789899D01*
X131005434Y-154495466D01*
X130890551Y-154218115D01*
X130723768Y-153968507D01*
X130511493Y-153756232D01*
X130382438Y-153670000D01*
X130511493Y-153583768D01*
X130723768Y-153371493D01*
X130890551Y-153121885D01*
X131005434Y-152844534D01*
X131064000Y-152550101D01*
X131064000Y-152249899D01*
X131005434Y-151955466D01*
X130890551Y-151678115D01*
X130723768Y-151428507D01*
X130511493Y-151216232D01*
X130261885Y-151049449D01*
X129984534Y-150934566D01*
X129690101Y-150876000D01*
X129389899Y-150876000D01*
X129095466Y-150934566D01*
X128818115Y-151049449D01*
X128568507Y-151216232D01*
X128356232Y-151428507D01*
X128189449Y-151678115D01*
X128074566Y-151955466D01*
X128016000Y-152249899D01*
X109439410Y-152249899D01*
X109439410Y-143043357D01*
X122301000Y-143043357D01*
X122301000Y-143468643D01*
X122383970Y-143885757D01*
X122546719Y-144278670D01*
X122782996Y-144632282D01*
X123083718Y-144933004D01*
X123437330Y-145169281D01*
X123830243Y-145332030D01*
X124247357Y-145415000D01*
X124672643Y-145415000D01*
X125089757Y-145332030D01*
X125482670Y-145169281D01*
X125836282Y-144933004D01*
X126137004Y-144632282D01*
X126373281Y-144278670D01*
X126536030Y-143885757D01*
X126619000Y-143468643D01*
X126619000Y-143043357D01*
X140081000Y-143043357D01*
X140081000Y-143468643D01*
X140163970Y-143885757D01*
X140326719Y-144278670D01*
X140562996Y-144632282D01*
X140863718Y-144933004D01*
X141217330Y-145169281D01*
X141610243Y-145332030D01*
X142027357Y-145415000D01*
X142452643Y-145415000D01*
X142869757Y-145332030D01*
X143262670Y-145169281D01*
X143616282Y-144933004D01*
X143917004Y-144632282D01*
X144153281Y-144278670D01*
X144316030Y-143885757D01*
X144399000Y-143468643D01*
X144399000Y-143043357D01*
X144316030Y-142626243D01*
X144153281Y-142233330D01*
X143917004Y-141879718D01*
X143616282Y-141578996D01*
X143262670Y-141342719D01*
X142869757Y-141179970D01*
X142452643Y-141097000D01*
X142027357Y-141097000D01*
X141610243Y-141179970D01*
X141217330Y-141342719D01*
X140863718Y-141578996D01*
X140562996Y-141879718D01*
X140326719Y-142233330D01*
X140163970Y-142626243D01*
X140081000Y-143043357D01*
X126619000Y-143043357D01*
X126536030Y-142626243D01*
X126373281Y-142233330D01*
X126137004Y-141879718D01*
X125836282Y-141578996D01*
X125482670Y-141342719D01*
X125089757Y-141179970D01*
X124672643Y-141097000D01*
X124247357Y-141097000D01*
X123830243Y-141179970D01*
X123437330Y-141342719D01*
X123083718Y-141578996D01*
X122782996Y-141879718D01*
X122546719Y-142233330D01*
X122383970Y-142626243D01*
X122301000Y-143043357D01*
X109439410Y-143043357D01*
X109439410Y-140756231D01*
X122313374Y-140756231D01*
X122395727Y-141009289D01*
X122666418Y-141139086D01*
X122957230Y-141213580D01*
X123256988Y-141229908D01*
X123554171Y-141187443D01*
X123837359Y-141087816D01*
X123984273Y-141009289D01*
X124066626Y-140756231D01*
X123190000Y-139879605D01*
X122313374Y-140756231D01*
X109439410Y-140756231D01*
X109439410Y-139766988D01*
X121660092Y-139766988D01*
X121702557Y-140064171D01*
X121802184Y-140347359D01*
X121880711Y-140494273D01*
X122133769Y-140576626D01*
X123010395Y-139700000D01*
X123369605Y-139700000D01*
X124246231Y-140576626D01*
X124315176Y-140554189D01*
X127964500Y-140554189D01*
X127964500Y-140827011D01*
X128017725Y-141094589D01*
X128122129Y-141346643D01*
X128273701Y-141573486D01*
X128466614Y-141766399D01*
X128693457Y-141917971D01*
X128945511Y-142022375D01*
X129213089Y-142075600D01*
X129485911Y-142075600D01*
X129753489Y-142022375D01*
X130005543Y-141917971D01*
X130232386Y-141766399D01*
X130425299Y-141573486D01*
X130576871Y-141346643D01*
X130681275Y-141094589D01*
X130713712Y-140931519D01*
X135154541Y-136490691D01*
X135197849Y-136455149D01*
X135339684Y-136282323D01*
X135445076Y-136085147D01*
X135509977Y-135871199D01*
X135526400Y-135704452D01*
X135526400Y-135704443D01*
X135531890Y-135648701D01*
X135526400Y-135592959D01*
X135526400Y-135338086D01*
X135618771Y-135199843D01*
X135723175Y-134947789D01*
X135776400Y-134680211D01*
X135776400Y-134407389D01*
X135723175Y-134139811D01*
X135618771Y-133887757D01*
X135467199Y-133660914D01*
X135274286Y-133468001D01*
X135047443Y-133316429D01*
X134795389Y-133212025D01*
X134527811Y-133158800D01*
X134254989Y-133158800D01*
X133987411Y-133212025D01*
X133735357Y-133316429D01*
X133508514Y-133468001D01*
X133315601Y-133660914D01*
X133164029Y-133887757D01*
X133059625Y-134139811D01*
X133006400Y-134407389D01*
X133006400Y-134680211D01*
X133059625Y-134947789D01*
X133164029Y-135199843D01*
X133192506Y-135242462D01*
X129108581Y-139326388D01*
X128945511Y-139358825D01*
X128693457Y-139463229D01*
X128466614Y-139614801D01*
X128273701Y-139807714D01*
X128122129Y-140034557D01*
X128017725Y-140286611D01*
X127964500Y-140554189D01*
X124315176Y-140554189D01*
X124499289Y-140494273D01*
X124629086Y-140223582D01*
X124703580Y-139932770D01*
X124719908Y-139633012D01*
X124677443Y-139335829D01*
X124577816Y-139052641D01*
X124499289Y-138905727D01*
X124246231Y-138823374D01*
X123369605Y-139700000D01*
X123010395Y-139700000D01*
X122133769Y-138823374D01*
X121880711Y-138905727D01*
X121750914Y-139176418D01*
X121676420Y-139467230D01*
X121660092Y-139766988D01*
X109439410Y-139766988D01*
X109439410Y-134689401D01*
X113828812Y-130300000D01*
X121864917Y-130300000D01*
X122006232Y-130511493D01*
X122218507Y-130723768D01*
X122347562Y-130810000D01*
X122218507Y-130896232D01*
X122006232Y-131108507D01*
X121839449Y-131358115D01*
X121724566Y-131635466D01*
X121666000Y-131929899D01*
X121666000Y-132230101D01*
X121724566Y-132524534D01*
X121839449Y-132801885D01*
X122006232Y-133051493D01*
X122218507Y-133263768D01*
X122347562Y-133350000D01*
X122218507Y-133436232D01*
X122006232Y-133648507D01*
X121839449Y-133898115D01*
X121724566Y-134175466D01*
X121666000Y-134469899D01*
X121666000Y-134770101D01*
X121724566Y-135064534D01*
X121839449Y-135341885D01*
X122006232Y-135591493D01*
X122218507Y-135803768D01*
X122347562Y-135890000D01*
X122218507Y-135976232D01*
X122006232Y-136188507D01*
X121839449Y-136438115D01*
X121724566Y-136715466D01*
X121666000Y-137009899D01*
X121666000Y-137310101D01*
X121724566Y-137604534D01*
X121839449Y-137881885D01*
X122006232Y-138131493D01*
X122218507Y-138343768D01*
X122376622Y-138449417D01*
X122313374Y-138643769D01*
X123190000Y-139520395D01*
X124066626Y-138643769D01*
X124003378Y-138449417D01*
X124161493Y-138343768D01*
X124373768Y-138131493D01*
X124540551Y-137881885D01*
X124655434Y-137604534D01*
X124714000Y-137310101D01*
X124714000Y-137009899D01*
X124655434Y-136715466D01*
X124540551Y-136438115D01*
X124373768Y-136188507D01*
X124161493Y-135976232D01*
X124032438Y-135890000D01*
X124161493Y-135803768D01*
X124373768Y-135591493D01*
X124540551Y-135341885D01*
X124655434Y-135064534D01*
X124714000Y-134770101D01*
X124714000Y-134469899D01*
X124655434Y-134175466D01*
X124540551Y-133898115D01*
X124373768Y-133648507D01*
X124161493Y-133436232D01*
X124032438Y-133350000D01*
X124161493Y-133263768D01*
X124373768Y-133051493D01*
X124540551Y-132801885D01*
X124655434Y-132524534D01*
X124714000Y-132230101D01*
X124714000Y-131929899D01*
X124655434Y-131635466D01*
X124540551Y-131358115D01*
X124373768Y-131108507D01*
X124161493Y-130896232D01*
X124032438Y-130810000D01*
X124161493Y-130723768D01*
X124373768Y-130511493D01*
X124540551Y-130261885D01*
X124655434Y-129984534D01*
X124714000Y-129690101D01*
X124714000Y-129389899D01*
X124655434Y-129095466D01*
X124540551Y-128818115D01*
X124373768Y-128568507D01*
X124161493Y-128356232D01*
X124032438Y-128270000D01*
X124161493Y-128183768D01*
X124373768Y-127971493D01*
X124540551Y-127721885D01*
X124655434Y-127444534D01*
X124714000Y-127150101D01*
X124714000Y-126849899D01*
X124655434Y-126555466D01*
X124540551Y-126278115D01*
X124373768Y-126028507D01*
X124161493Y-125816232D01*
X124032438Y-125730000D01*
X124161493Y-125643768D01*
X124373768Y-125431493D01*
X124540551Y-125181885D01*
X124655434Y-124904534D01*
X124714000Y-124610101D01*
X124714000Y-124309899D01*
X124655434Y-124015466D01*
X124540551Y-123738115D01*
X124373768Y-123488507D01*
X124161493Y-123276232D01*
X124032438Y-123190000D01*
X124161493Y-123103768D01*
X124373768Y-122891493D01*
X124540551Y-122641885D01*
X124655434Y-122364534D01*
X124669943Y-122291589D01*
X131482400Y-122291589D01*
X131482400Y-122564411D01*
X131535625Y-122831989D01*
X131640029Y-123084043D01*
X131791601Y-123310886D01*
X131984514Y-123503799D01*
X132211357Y-123655371D01*
X132463411Y-123759775D01*
X132730989Y-123813000D01*
X133003811Y-123813000D01*
X133271389Y-123759775D01*
X133523443Y-123655371D01*
X133750286Y-123503799D01*
X133943199Y-123310886D01*
X134094771Y-123084043D01*
X134199175Y-122831989D01*
X134231612Y-122668919D01*
X136488041Y-120412491D01*
X136531349Y-120376949D01*
X136673184Y-120204123D01*
X136778576Y-120006947D01*
X136843477Y-119792999D01*
X136859900Y-119626252D01*
X136859900Y-119626243D01*
X136865390Y-119570501D01*
X136859900Y-119514759D01*
X136859900Y-118091486D01*
X136952271Y-117953243D01*
X137056675Y-117701189D01*
X137109900Y-117433611D01*
X137109900Y-117160789D01*
X137056675Y-116893211D01*
X136952271Y-116641157D01*
X136800699Y-116414314D01*
X136607786Y-116221401D01*
X136380943Y-116069829D01*
X136128889Y-115965425D01*
X135861311Y-115912200D01*
X135588489Y-115912200D01*
X135320911Y-115965425D01*
X135068857Y-116069829D01*
X134842014Y-116221401D01*
X134649101Y-116414314D01*
X134497529Y-116641157D01*
X134393125Y-116893211D01*
X134339900Y-117160789D01*
X134339900Y-117433611D01*
X134393125Y-117701189D01*
X134497529Y-117953243D01*
X134589900Y-118091486D01*
X134589901Y-119100367D01*
X132626481Y-121063788D01*
X132463411Y-121096225D01*
X132211357Y-121200629D01*
X131984514Y-121352201D01*
X131791601Y-121545114D01*
X131640029Y-121771957D01*
X131535625Y-122024011D01*
X131482400Y-122291589D01*
X124669943Y-122291589D01*
X124714000Y-122070101D01*
X124714000Y-121769899D01*
X124655434Y-121475466D01*
X124540551Y-121198115D01*
X124373768Y-120948507D01*
X124161493Y-120736232D01*
X124032438Y-120650000D01*
X124161493Y-120563768D01*
X124373768Y-120351493D01*
X124540551Y-120101885D01*
X124655434Y-119824534D01*
X124714000Y-119530101D01*
X124714000Y-119229899D01*
X124655434Y-118935466D01*
X124540551Y-118658115D01*
X124373768Y-118408507D01*
X124161493Y-118196232D01*
X124032438Y-118110000D01*
X124161493Y-118023768D01*
X124373768Y-117811493D01*
X124540551Y-117561885D01*
X124655434Y-117284534D01*
X124714000Y-116990101D01*
X124714000Y-116689899D01*
X124655434Y-116395466D01*
X124540551Y-116118115D01*
X124373768Y-115868507D01*
X124161493Y-115656232D01*
X124032438Y-115570000D01*
X124161493Y-115483768D01*
X124373768Y-115271493D01*
X124540551Y-115021885D01*
X124655434Y-114744534D01*
X124714000Y-114450101D01*
X124714000Y-114149899D01*
X124655434Y-113855466D01*
X124540551Y-113578115D01*
X124373768Y-113328507D01*
X124161493Y-113116232D01*
X124032438Y-113030000D01*
X124161493Y-112943768D01*
X124373768Y-112731493D01*
X124540551Y-112481885D01*
X124655434Y-112204534D01*
X124714000Y-111910101D01*
X124714000Y-111609899D01*
X124655434Y-111315466D01*
X124540551Y-111038115D01*
X124373768Y-110788507D01*
X124161493Y-110576232D01*
X124003378Y-110470583D01*
X124066626Y-110276231D01*
X123190000Y-109399605D01*
X122313374Y-110276231D01*
X122376622Y-110470583D01*
X122218507Y-110576232D01*
X122006232Y-110788507D01*
X121839449Y-111038115D01*
X121724566Y-111315466D01*
X121666000Y-111609899D01*
X121666000Y-111910101D01*
X121724566Y-112204534D01*
X121839449Y-112481885D01*
X122006232Y-112731493D01*
X122218507Y-112943768D01*
X122347562Y-113030000D01*
X122218507Y-113116232D01*
X122006232Y-113328507D01*
X121839449Y-113578115D01*
X121724566Y-113855466D01*
X121666000Y-114149899D01*
X121666000Y-114450101D01*
X121724566Y-114744534D01*
X121839449Y-115021885D01*
X122006232Y-115271493D01*
X122218507Y-115483768D01*
X122347562Y-115570000D01*
X122218507Y-115656232D01*
X122006232Y-115868507D01*
X121839449Y-116118115D01*
X121724566Y-116395466D01*
X121666000Y-116689899D01*
X121666000Y-116990101D01*
X121724566Y-117284534D01*
X121839449Y-117561885D01*
X122006232Y-117811493D01*
X122218507Y-118023768D01*
X122347562Y-118110000D01*
X122218507Y-118196232D01*
X122006232Y-118408507D01*
X121839449Y-118658115D01*
X121724566Y-118935466D01*
X121666000Y-119229899D01*
X121666000Y-119530101D01*
X121724566Y-119824534D01*
X121839449Y-120101885D01*
X122006232Y-120351493D01*
X122218507Y-120563768D01*
X122347562Y-120650000D01*
X122218507Y-120736232D01*
X122006232Y-120948507D01*
X121864917Y-121160000D01*
X117757331Y-121160000D01*
X121260746Y-117656587D01*
X121304049Y-117621049D01*
X121445884Y-117448223D01*
X121551276Y-117251047D01*
X121616177Y-117037099D01*
X121632600Y-116870352D01*
X121638091Y-116814600D01*
X121632600Y-116758848D01*
X121632600Y-110466869D01*
X121638091Y-110411117D01*
X121616177Y-110188618D01*
X121551276Y-109974670D01*
X121445884Y-109777494D01*
X121339589Y-109647973D01*
X121339587Y-109647971D01*
X121304049Y-109604668D01*
X121260746Y-109569130D01*
X120978604Y-109286988D01*
X121660092Y-109286988D01*
X121702557Y-109584171D01*
X121802184Y-109867359D01*
X121880711Y-110014273D01*
X122133769Y-110096626D01*
X123010395Y-109220000D01*
X123369605Y-109220000D01*
X124246231Y-110096626D01*
X124499289Y-110014273D01*
X124629086Y-109743582D01*
X124703580Y-109452770D01*
X124719908Y-109153012D01*
X124677443Y-108855829D01*
X124577816Y-108572641D01*
X124499289Y-108425727D01*
X124246231Y-108343374D01*
X123369605Y-109220000D01*
X123010395Y-109220000D01*
X122133769Y-108343374D01*
X121880711Y-108425727D01*
X121750914Y-108696418D01*
X121676420Y-108987230D01*
X121660092Y-109286988D01*
X120978604Y-109286988D01*
X120318478Y-108626864D01*
X120282932Y-108583551D01*
X120110106Y-108441716D01*
X119912930Y-108336324D01*
X119698982Y-108271423D01*
X119532235Y-108255000D01*
X119532234Y-108255000D01*
X119476483Y-108249509D01*
X119420732Y-108255000D01*
X119245000Y-108255000D01*
X119245000Y-107289518D01*
X119265537Y-107264494D01*
X119324502Y-107154180D01*
X119360812Y-107034482D01*
X119373072Y-106910000D01*
X119373072Y-105910000D01*
X119360812Y-105785518D01*
X119324502Y-105665820D01*
X119265537Y-105555506D01*
X119186185Y-105458815D01*
X119126704Y-105410000D01*
X119186185Y-105361185D01*
X119265537Y-105264494D01*
X119324502Y-105154180D01*
X119360812Y-105034482D01*
X119373072Y-104910000D01*
X119370000Y-104695750D01*
X119211250Y-104537000D01*
X118237000Y-104537000D01*
X118237000Y-104557000D01*
X117983000Y-104557000D01*
X117983000Y-104537000D01*
X117008750Y-104537000D01*
X116850000Y-104695750D01*
X116846928Y-104910000D01*
X116859188Y-105034482D01*
X116895498Y-105154180D01*
X116954463Y-105264494D01*
X116963085Y-105275000D01*
X114500131Y-105275000D01*
X114446996Y-105221865D01*
X114411449Y-105178551D01*
X114238623Y-105036716D01*
X114041447Y-104931324D01*
X113827499Y-104866423D01*
X113660752Y-104850000D01*
X113660751Y-104850000D01*
X113605000Y-104844509D01*
X113549249Y-104850000D01*
X112948072Y-104850000D01*
X112948072Y-103910000D01*
X116846928Y-103910000D01*
X116850000Y-104124250D01*
X117008750Y-104283000D01*
X117983000Y-104283000D01*
X117983000Y-103433750D01*
X118237000Y-103433750D01*
X118237000Y-104283000D01*
X119211250Y-104283000D01*
X119370000Y-104124250D01*
X119373072Y-103910000D01*
X119360812Y-103785518D01*
X119324502Y-103665820D01*
X119265537Y-103555506D01*
X119186185Y-103458815D01*
X119089494Y-103379463D01*
X118979180Y-103320498D01*
X118859482Y-103284188D01*
X118735000Y-103271928D01*
X118395750Y-103275000D01*
X118237000Y-103433750D01*
X117983000Y-103433750D01*
X117824250Y-103275000D01*
X117485000Y-103271928D01*
X117360518Y-103284188D01*
X117240820Y-103320498D01*
X117130506Y-103379463D01*
X117033815Y-103458815D01*
X116954463Y-103555506D01*
X116895498Y-103665820D01*
X116859188Y-103785518D01*
X116846928Y-103910000D01*
X112948072Y-103910000D01*
X112948072Y-103685000D01*
X112935812Y-103560518D01*
X112899502Y-103440820D01*
X112840537Y-103330506D01*
X112761185Y-103233815D01*
X112664494Y-103154463D01*
X112554180Y-103095498D01*
X112434482Y-103059188D01*
X112310000Y-103046928D01*
X111210000Y-103046928D01*
X111085518Y-103059188D01*
X110965820Y-103095498D01*
X110855506Y-103154463D01*
X110758815Y-103233815D01*
X110679463Y-103330506D01*
X110620498Y-103440820D01*
X110584188Y-103560518D01*
X110571928Y-103685000D01*
X110571928Y-108285000D01*
X110584188Y-108409482D01*
X110620498Y-108529180D01*
X110679463Y-108639494D01*
X110758815Y-108736185D01*
X110855506Y-108815537D01*
X110965820Y-108874502D01*
X111085518Y-108910812D01*
X111210000Y-108923072D01*
X112310000Y-108923072D01*
X112434482Y-108910812D01*
X112554180Y-108874502D01*
X112664494Y-108815537D01*
X112761185Y-108736185D01*
X112840537Y-108639494D01*
X112899502Y-108529180D01*
X112935812Y-108409482D01*
X112948072Y-108285000D01*
X112948072Y-107120000D01*
X113134869Y-107120000D01*
X113188004Y-107173135D01*
X113223551Y-107216449D01*
X113396377Y-107358284D01*
X113593553Y-107463676D01*
X113807501Y-107528577D01*
X114030000Y-107550491D01*
X114085752Y-107545000D01*
X116975000Y-107545000D01*
X116975001Y-108443854D01*
X116920498Y-108545820D01*
X116884188Y-108665518D01*
X116871928Y-108790000D01*
X116871928Y-109990000D01*
X116884188Y-110114482D01*
X116920498Y-110234180D01*
X116979463Y-110344494D01*
X117058815Y-110441185D01*
X117118296Y-110490000D01*
X117058815Y-110538815D01*
X116979463Y-110635506D01*
X116920498Y-110745820D01*
X116884188Y-110865518D01*
X116871928Y-110990000D01*
X116871928Y-112190000D01*
X116884188Y-112314482D01*
X116920498Y-112434180D01*
X116975000Y-112536145D01*
X116975001Y-113540018D01*
X116929463Y-113595506D01*
X116870498Y-113705820D01*
X116834188Y-113825518D01*
X116821928Y-113950000D01*
X116821928Y-114650000D01*
X116834188Y-114774482D01*
X116870498Y-114894180D01*
X116929463Y-115004494D01*
X117008815Y-115101185D01*
X117105506Y-115180537D01*
X117215820Y-115239502D01*
X117250427Y-115250000D01*
X117215820Y-115260498D01*
X117105506Y-115319463D01*
X117008815Y-115398815D01*
X116929463Y-115495506D01*
X116870498Y-115605820D01*
X116834188Y-115725518D01*
X116821928Y-115850000D01*
X116825000Y-115914250D01*
X116983750Y-116073000D01*
X117983000Y-116073000D01*
X117983000Y-116053000D01*
X118237000Y-116053000D01*
X118237000Y-116073000D01*
X118257000Y-116073000D01*
X118257000Y-116327000D01*
X118237000Y-116327000D01*
X118237000Y-117026250D01*
X118395750Y-117185000D01*
X118521011Y-117186056D01*
X116307068Y-119400001D01*
X115257769Y-119400001D01*
X115255889Y-116698459D01*
X115256118Y-116550000D01*
X116821928Y-116550000D01*
X116834188Y-116674482D01*
X116870498Y-116794180D01*
X116929463Y-116904494D01*
X117008815Y-117001185D01*
X117105506Y-117080537D01*
X117215820Y-117139502D01*
X117335518Y-117175812D01*
X117460000Y-117188072D01*
X117824250Y-117185000D01*
X117983000Y-117026250D01*
X117983000Y-116327000D01*
X116983750Y-116327000D01*
X116825000Y-116485750D01*
X116821928Y-116550000D01*
X115256118Y-116550000D01*
X115258072Y-115285000D01*
X115245812Y-115160518D01*
X115238071Y-115135000D01*
X115245812Y-115109482D01*
X115258072Y-114985000D01*
X115255889Y-113571541D01*
X115258072Y-110435000D01*
X115245812Y-110310518D01*
X115209502Y-110190820D01*
X115150537Y-110080506D01*
X115071185Y-109983815D01*
X114974494Y-109904463D01*
X114864180Y-109845498D01*
X114744482Y-109809188D01*
X114620000Y-109796928D01*
X111017691Y-109799092D01*
X109370000Y-109796928D01*
X109245518Y-109809188D01*
X109220000Y-109816929D01*
X109194482Y-109809188D01*
X109070000Y-109796928D01*
X107422309Y-109799092D01*
X103820000Y-109796928D01*
X103695518Y-109809188D01*
X103575820Y-109845498D01*
X103465506Y-109904463D01*
X103368815Y-109983815D01*
X103289463Y-110080506D01*
X103230498Y-110190820D01*
X103194188Y-110310518D01*
X103181928Y-110435000D01*
X103184111Y-113571541D01*
X103181928Y-114985000D01*
X103194188Y-115109482D01*
X103201929Y-115135000D01*
X103194188Y-115160518D01*
X103181928Y-115285000D01*
X103184111Y-116698459D01*
X103181928Y-119835000D01*
X103194188Y-119959482D01*
X103230498Y-120079180D01*
X103289463Y-120189494D01*
X103368815Y-120286185D01*
X103465506Y-120365537D01*
X103575820Y-120424502D01*
X103695518Y-120460812D01*
X103820000Y-120473072D01*
X107422309Y-120470908D01*
X109070000Y-120473072D01*
X109194482Y-120460812D01*
X109220000Y-120453071D01*
X109245518Y-120460812D01*
X109370000Y-120473072D01*
X111017691Y-120470908D01*
X113063232Y-120472137D01*
X112229669Y-121305700D01*
X106938952Y-121305700D01*
X106883200Y-121300209D01*
X106827448Y-121305700D01*
X106660701Y-121322123D01*
X106446753Y-121387024D01*
X106249577Y-121492416D01*
X106076751Y-121634251D01*
X106041211Y-121677557D01*
X104761165Y-122957604D01*
X104717851Y-122993151D01*
X104576016Y-123165977D01*
X104483322Y-123339398D01*
X104470624Y-123363154D01*
X104405723Y-123577102D01*
X104383809Y-123799600D01*
X104389300Y-123855351D01*
X104389300Y-124431572D01*
X104364837Y-124385806D01*
X104285485Y-124289115D01*
X104188794Y-124209763D01*
X104078480Y-124150798D01*
X103958782Y-124114488D01*
X103834300Y-124102228D01*
X103270050Y-124105300D01*
X103111300Y-124264050D01*
X103111300Y-125463300D01*
X103131300Y-125463300D01*
X103131300Y-125717300D01*
X103111300Y-125717300D01*
X103111300Y-126916550D01*
X103270050Y-127075300D01*
X103834300Y-127078372D01*
X103958782Y-127066112D01*
X104078480Y-127029802D01*
X104188794Y-126970837D01*
X104285485Y-126891485D01*
X104364837Y-126794794D01*
X104423802Y-126684480D01*
X104444693Y-126615613D01*
X104469166Y-126645434D01*
X104695286Y-126831006D01*
X104953266Y-126968899D01*
X105233189Y-127053813D01*
X105451350Y-127075300D01*
X105597250Y-127075300D01*
X105815411Y-127053813D01*
X106095334Y-126968899D01*
X106353314Y-126831006D01*
X106579434Y-126645434D01*
X106765006Y-126419314D01*
X106794300Y-126364509D01*
X106823594Y-126419314D01*
X107009166Y-126645434D01*
X107235286Y-126831006D01*
X107493266Y-126968899D01*
X107773189Y-127053813D01*
X107991350Y-127075300D01*
X108137250Y-127075300D01*
X108355411Y-127053813D01*
X108635334Y-126968899D01*
X108893314Y-126831006D01*
X109119434Y-126645434D01*
X109305006Y-126419314D01*
X109442899Y-126161334D01*
X109527813Y-125881411D01*
X109556485Y-125590300D01*
X109527813Y-125299189D01*
X109442899Y-125019266D01*
X109305006Y-124761286D01*
X109119434Y-124535166D01*
X108893314Y-124349594D01*
X108635334Y-124211701D01*
X108355411Y-124126787D01*
X108137250Y-124105300D01*
X107991350Y-124105300D01*
X107773189Y-124126787D01*
X107493266Y-124211701D01*
X107235286Y-124349594D01*
X107009166Y-124535166D01*
X106823594Y-124761286D01*
X106794300Y-124816091D01*
X106765006Y-124761286D01*
X106659300Y-124632483D01*
X106659300Y-124269731D01*
X107353332Y-123575700D01*
X112644049Y-123575700D01*
X112699800Y-123581191D01*
X112755551Y-123575700D01*
X112755552Y-123575700D01*
X112922299Y-123559277D01*
X113136247Y-123494376D01*
X113333423Y-123388984D01*
X113506249Y-123247149D01*
X113541796Y-123203835D01*
X115075631Y-121670001D01*
X115964397Y-121670001D01*
X114707152Y-122927247D01*
X114586071Y-122951332D01*
X114415911Y-123021814D01*
X114262772Y-123124138D01*
X114132538Y-123254372D01*
X114030214Y-123407511D01*
X113959732Y-123577671D01*
X113923800Y-123758311D01*
X113923800Y-123942489D01*
X113959732Y-124123129D01*
X114030214Y-124293289D01*
X114132538Y-124446428D01*
X114262772Y-124576662D01*
X114415911Y-124678986D01*
X114586071Y-124749468D01*
X114766711Y-124785400D01*
X114950889Y-124785400D01*
X115131529Y-124749468D01*
X115301689Y-124678986D01*
X115454828Y-124576662D01*
X115585062Y-124446428D01*
X115687386Y-124293289D01*
X115757868Y-124123129D01*
X115781953Y-124002048D01*
X117104002Y-122680000D01*
X121864917Y-122680000D01*
X122006232Y-122891493D01*
X122218507Y-123103768D01*
X122347562Y-123190000D01*
X122218507Y-123276232D01*
X122006232Y-123488507D01*
X121839449Y-123738115D01*
X121724566Y-124015466D01*
X121666000Y-124309899D01*
X121666000Y-124610101D01*
X121724566Y-124904534D01*
X121839449Y-125181885D01*
X122006232Y-125431493D01*
X122218507Y-125643768D01*
X122347562Y-125730000D01*
X122218507Y-125816232D01*
X122006232Y-126028507D01*
X121864917Y-126240000D01*
X115454923Y-126240000D01*
X115417600Y-126236324D01*
X115380277Y-126240000D01*
X115380267Y-126240000D01*
X115268614Y-126250997D01*
X115125353Y-126294454D01*
X114993323Y-126365026D01*
X114954669Y-126396749D01*
X114877599Y-126459999D01*
X114853801Y-126488997D01*
X107718398Y-133624401D01*
X107689400Y-133648199D01*
X107665602Y-133677197D01*
X107665601Y-133677198D01*
X107594426Y-133763924D01*
X107523854Y-133895954D01*
X107480398Y-134039215D01*
X107465724Y-134188200D01*
X107469401Y-134225533D01*
X107469400Y-159882998D01*
X105552399Y-161800000D01*
X105465083Y-161800000D01*
X105323768Y-161588507D01*
X105111493Y-161376232D01*
X104982438Y-161290000D01*
X105111493Y-161203768D01*
X105323768Y-160991493D01*
X105490551Y-160741885D01*
X105605434Y-160464534D01*
X105664000Y-160170101D01*
X105664000Y-159869899D01*
X105605434Y-159575466D01*
X105490551Y-159298115D01*
X105323768Y-159048507D01*
X105111493Y-158836232D01*
X104982438Y-158750000D01*
X105111493Y-158663768D01*
X105323768Y-158451493D01*
X105490551Y-158201885D01*
X105605434Y-157924534D01*
X105664000Y-157630101D01*
X105664000Y-157329899D01*
X105605434Y-157035466D01*
X105490551Y-156758115D01*
X105323768Y-156508507D01*
X105111493Y-156296232D01*
X104953378Y-156190583D01*
X105016626Y-155996231D01*
X104140000Y-155119605D01*
X103263374Y-155996231D01*
X103326622Y-156190583D01*
X103168507Y-156296232D01*
X102956232Y-156508507D01*
X102789449Y-156758115D01*
X102674566Y-157035466D01*
X102616000Y-157329899D01*
X100443707Y-157329899D01*
X100444185Y-155006988D01*
X102610092Y-155006988D01*
X102652557Y-155304171D01*
X102752184Y-155587359D01*
X102830711Y-155734273D01*
X103083769Y-155816626D01*
X103960395Y-154940000D01*
X104319605Y-154940000D01*
X105196231Y-155816626D01*
X105449289Y-155734273D01*
X105579086Y-155463582D01*
X105653580Y-155172770D01*
X105669908Y-154873012D01*
X105627443Y-154575829D01*
X105527816Y-154292641D01*
X105449289Y-154145727D01*
X105196231Y-154063374D01*
X104319605Y-154940000D01*
X103960395Y-154940000D01*
X103083769Y-154063374D01*
X102830711Y-154145727D01*
X102700914Y-154416418D01*
X102626420Y-154707230D01*
X102610092Y-155006988D01*
X100444185Y-155006988D01*
X100444751Y-152249899D01*
X102616000Y-152249899D01*
X102616000Y-152550101D01*
X102674566Y-152844534D01*
X102789449Y-153121885D01*
X102956232Y-153371493D01*
X103168507Y-153583768D01*
X103326622Y-153689417D01*
X103263374Y-153883769D01*
X104140000Y-154760395D01*
X105016626Y-153883769D01*
X104953378Y-153689417D01*
X105111493Y-153583768D01*
X105323768Y-153371493D01*
X105490551Y-153121885D01*
X105605434Y-152844534D01*
X105664000Y-152550101D01*
X105664000Y-152249899D01*
X105605434Y-151955466D01*
X105490551Y-151678115D01*
X105323768Y-151428507D01*
X105111493Y-151216232D01*
X104861885Y-151049449D01*
X104584534Y-150934566D01*
X104290101Y-150876000D01*
X103989899Y-150876000D01*
X103695466Y-150934566D01*
X103418115Y-151049449D01*
X103168507Y-151216232D01*
X102956232Y-151428507D01*
X102789449Y-151678115D01*
X102674566Y-151955466D01*
X102616000Y-152249899D01*
X100444751Y-152249899D01*
X100448465Y-134191489D01*
X101535800Y-134191489D01*
X101535800Y-134464311D01*
X101589025Y-134731889D01*
X101693429Y-134983943D01*
X101845001Y-135210786D01*
X102037914Y-135403699D01*
X102264757Y-135555271D01*
X102516811Y-135659675D01*
X102679880Y-135692112D01*
X103957501Y-136969734D01*
X103957500Y-138727914D01*
X103865129Y-138866157D01*
X103760725Y-139118211D01*
X103707500Y-139385789D01*
X103707500Y-139658611D01*
X103760725Y-139926189D01*
X103865129Y-140178243D01*
X104016701Y-140405086D01*
X104209614Y-140597999D01*
X104436457Y-140749571D01*
X104688511Y-140853975D01*
X104956089Y-140907200D01*
X105228911Y-140907200D01*
X105496489Y-140853975D01*
X105748543Y-140749571D01*
X105975386Y-140597999D01*
X106168299Y-140405086D01*
X106319871Y-140178243D01*
X106424275Y-139926189D01*
X106477500Y-139658611D01*
X106477500Y-139385789D01*
X106424275Y-139118211D01*
X106319871Y-138866157D01*
X106227500Y-138727914D01*
X106227500Y-136555352D01*
X106232991Y-136499600D01*
X106211077Y-136277101D01*
X106146176Y-136063153D01*
X106040784Y-135865977D01*
X105934489Y-135736456D01*
X105934487Y-135736454D01*
X105898949Y-135693151D01*
X105855646Y-135657613D01*
X104285012Y-134086980D01*
X104252575Y-133923911D01*
X104148171Y-133671857D01*
X103996599Y-133445014D01*
X103803686Y-133252101D01*
X103576843Y-133100529D01*
X103324789Y-132996125D01*
X103057211Y-132942900D01*
X102784389Y-132942900D01*
X102516811Y-132996125D01*
X102264757Y-133100529D01*
X102037914Y-133252101D01*
X101845001Y-133445014D01*
X101693429Y-133671857D01*
X101589025Y-133923911D01*
X101535800Y-134191489D01*
X100448465Y-134191489D01*
X100450059Y-126440300D01*
X101496228Y-126440300D01*
X101508488Y-126564782D01*
X101544798Y-126684480D01*
X101603763Y-126794794D01*
X101683115Y-126891485D01*
X101779806Y-126970837D01*
X101890120Y-127029802D01*
X102009818Y-127066112D01*
X102134300Y-127078372D01*
X102698550Y-127075300D01*
X102857300Y-126916550D01*
X102857300Y-125717300D01*
X101658050Y-125717300D01*
X101499300Y-125876050D01*
X101496228Y-126440300D01*
X100450059Y-126440300D01*
X100450408Y-124740300D01*
X101496228Y-124740300D01*
X101499300Y-125304550D01*
X101658050Y-125463300D01*
X102857300Y-125463300D01*
X102857300Y-124264050D01*
X102698550Y-124105300D01*
X102134300Y-124102228D01*
X102009818Y-124114488D01*
X101890120Y-124150798D01*
X101779806Y-124209763D01*
X101683115Y-124289115D01*
X101603763Y-124385806D01*
X101544798Y-124496120D01*
X101508488Y-124615818D01*
X101496228Y-124740300D01*
X100450408Y-124740300D01*
X100454000Y-107276115D01*
X100523815Y-107361185D01*
X100620506Y-107440537D01*
X100730820Y-107499502D01*
X100850518Y-107535812D01*
X100975000Y-107548072D01*
X101314250Y-107545000D01*
X101473000Y-107386250D01*
X101473000Y-106537000D01*
X101727000Y-106537000D01*
X101727000Y-107386250D01*
X101885750Y-107545000D01*
X102225000Y-107548072D01*
X102349482Y-107535812D01*
X102469180Y-107499502D01*
X102579494Y-107440537D01*
X102676185Y-107361185D01*
X102755537Y-107264494D01*
X102814502Y-107154180D01*
X102850812Y-107034482D01*
X102863072Y-106910000D01*
X102860000Y-106695750D01*
X102701250Y-106537000D01*
X101727000Y-106537000D01*
X101473000Y-106537000D01*
X101453000Y-106537000D01*
X101453000Y-106283000D01*
X101473000Y-106283000D01*
X101473000Y-106263000D01*
X101727000Y-106263000D01*
X101727000Y-106283000D01*
X102701250Y-106283000D01*
X102860000Y-106124250D01*
X102863072Y-105910000D01*
X102850812Y-105785518D01*
X102814502Y-105665820D01*
X102755537Y-105555506D01*
X102746915Y-105545000D01*
X104634869Y-105545000D01*
X105491928Y-106402060D01*
X105491928Y-108285000D01*
X105504188Y-108409482D01*
X105540498Y-108529180D01*
X105599463Y-108639494D01*
X105678815Y-108736185D01*
X105775506Y-108815537D01*
X105885820Y-108874502D01*
X106005518Y-108910812D01*
X106130000Y-108923072D01*
X107230000Y-108923072D01*
X107354482Y-108910812D01*
X107474180Y-108874502D01*
X107584494Y-108815537D01*
X107681185Y-108736185D01*
X107760537Y-108639494D01*
X107819502Y-108529180D01*
X107855812Y-108409482D01*
X107868072Y-108285000D01*
X107868072Y-103685000D01*
X107855812Y-103560518D01*
X107819502Y-103440820D01*
X107815000Y-103432397D01*
X107815000Y-101449899D01*
X121666000Y-101449899D01*
X121666000Y-101750101D01*
X121724566Y-102044534D01*
X121839449Y-102321885D01*
X122006232Y-102571493D01*
X122218507Y-102783768D01*
X122347562Y-102870000D01*
X122218507Y-102956232D01*
X122006232Y-103168507D01*
X121839449Y-103418115D01*
X121724566Y-103695466D01*
X121666000Y-103989899D01*
X121666000Y-104290101D01*
X121724566Y-104584534D01*
X121839449Y-104861885D01*
X122006232Y-105111493D01*
X122218507Y-105323768D01*
X122347562Y-105410000D01*
X122218507Y-105496232D01*
X122006232Y-105708507D01*
X121839449Y-105958115D01*
X121724566Y-106235466D01*
X121666000Y-106529899D01*
X121666000Y-106830101D01*
X121724566Y-107124534D01*
X121839449Y-107401885D01*
X122006232Y-107651493D01*
X122218507Y-107863768D01*
X122376622Y-107969417D01*
X122313374Y-108163769D01*
X123190000Y-109040395D01*
X124066626Y-108163769D01*
X124003378Y-107969417D01*
X124161493Y-107863768D01*
X124373768Y-107651493D01*
X124540551Y-107401885D01*
X124655434Y-107124534D01*
X124714000Y-106830101D01*
X124714000Y-106529899D01*
X124655434Y-106235466D01*
X124540551Y-105958115D01*
X124373768Y-105708507D01*
X124161493Y-105496232D01*
X124032438Y-105410000D01*
X124161493Y-105323768D01*
X124373768Y-105111493D01*
X124540551Y-104861885D01*
X124655434Y-104584534D01*
X124714000Y-104290101D01*
X124714000Y-103989899D01*
X124655434Y-103695466D01*
X124540551Y-103418115D01*
X124373768Y-103168507D01*
X124161493Y-102956232D01*
X124032438Y-102870000D01*
X124161493Y-102783768D01*
X124373768Y-102571493D01*
X124540551Y-102321885D01*
X124655434Y-102044534D01*
X124714000Y-101750101D01*
X124714000Y-101449899D01*
X124655434Y-101155466D01*
X124540551Y-100878115D01*
X124373768Y-100628507D01*
X124161493Y-100416232D01*
X123911885Y-100249449D01*
X123634534Y-100134566D01*
X123340101Y-100076000D01*
X123039899Y-100076000D01*
X122745466Y-100134566D01*
X122468115Y-100249449D01*
X122218507Y-100416232D01*
X122006232Y-100628507D01*
X121839449Y-100878115D01*
X121724566Y-101155466D01*
X121666000Y-101449899D01*
X107815000Y-101449899D01*
X107815000Y-99585128D01*
X108219782Y-99855595D01*
X108881310Y-100129609D01*
X109583584Y-100269300D01*
X110299616Y-100269300D01*
X111001890Y-100129609D01*
X111663418Y-99855595D01*
X112258777Y-99457789D01*
X112523580Y-99192986D01*
X114562519Y-99192986D01*
X114898706Y-99662168D01*
X115528668Y-100002537D01*
X116212927Y-100213466D01*
X116925189Y-100286850D01*
X117638082Y-100219869D01*
X118324209Y-100015096D01*
X118957203Y-99680402D01*
X118984494Y-99662168D01*
X119320681Y-99192986D01*
X116941600Y-96813905D01*
X114562519Y-99192986D01*
X112523580Y-99192986D01*
X112765089Y-98951477D01*
X113162895Y-98356118D01*
X113436909Y-97694590D01*
X113447987Y-97638897D01*
X113560804Y-98016909D01*
X113895498Y-98649903D01*
X113913732Y-98677194D01*
X114382914Y-99013381D01*
X116761995Y-96634300D01*
X117121205Y-96634300D01*
X119500286Y-99013381D01*
X119969468Y-98677194D01*
X120309837Y-98047232D01*
X120520766Y-97362973D01*
X120524847Y-97323357D01*
X122301000Y-97323357D01*
X122301000Y-97748643D01*
X122383970Y-98165757D01*
X122546719Y-98558670D01*
X122782996Y-98912282D01*
X123083718Y-99213004D01*
X123437330Y-99449281D01*
X123830243Y-99612030D01*
X124247357Y-99695000D01*
X124672643Y-99695000D01*
X125089757Y-99612030D01*
X125482670Y-99449281D01*
X125836282Y-99213004D01*
X126137004Y-98912282D01*
X126373281Y-98558670D01*
X126536030Y-98165757D01*
X126619000Y-97748643D01*
X126619000Y-97323357D01*
X140081000Y-97323357D01*
X140081000Y-97748643D01*
X140163970Y-98165757D01*
X140326719Y-98558670D01*
X140562996Y-98912282D01*
X140863718Y-99213004D01*
X141217330Y-99449281D01*
X141610243Y-99612030D01*
X142027357Y-99695000D01*
X142452643Y-99695000D01*
X142869757Y-99612030D01*
X143262670Y-99449281D01*
X143616282Y-99213004D01*
X143917004Y-98912282D01*
X144153281Y-98558670D01*
X144316030Y-98165757D01*
X144399000Y-97748643D01*
X144399000Y-97323357D01*
X144316030Y-96906243D01*
X144153281Y-96513330D01*
X143917004Y-96159718D01*
X143616282Y-95858996D01*
X143262670Y-95622719D01*
X142869757Y-95459970D01*
X142452643Y-95377000D01*
X142027357Y-95377000D01*
X141610243Y-95459970D01*
X141217330Y-95622719D01*
X140863718Y-95858996D01*
X140562996Y-96159718D01*
X140326719Y-96513330D01*
X140163970Y-96906243D01*
X140081000Y-97323357D01*
X126619000Y-97323357D01*
X126536030Y-96906243D01*
X126373281Y-96513330D01*
X126137004Y-96159718D01*
X125836282Y-95858996D01*
X125482670Y-95622719D01*
X125089757Y-95459970D01*
X124672643Y-95377000D01*
X124247357Y-95377000D01*
X123830243Y-95459970D01*
X123437330Y-95622719D01*
X123083718Y-95858996D01*
X122782996Y-96159718D01*
X122546719Y-96513330D01*
X122383970Y-96906243D01*
X122301000Y-97323357D01*
X120524847Y-97323357D01*
X120594150Y-96650711D01*
X120527169Y-95937818D01*
X120322396Y-95251691D01*
X119987702Y-94618697D01*
X119969468Y-94591406D01*
X119500286Y-94255219D01*
X117121205Y-96634300D01*
X116761995Y-96634300D01*
X114382914Y-94255219D01*
X113913732Y-94591406D01*
X113573363Y-95221368D01*
X113447792Y-95628723D01*
X113436909Y-95574010D01*
X113162895Y-94912482D01*
X112765089Y-94317123D01*
X112523580Y-94075614D01*
X114562519Y-94075614D01*
X116941600Y-96454695D01*
X119320681Y-94075614D01*
X118984494Y-93606432D01*
X118354532Y-93266063D01*
X117670273Y-93055134D01*
X116958011Y-92981750D01*
X116245118Y-93048731D01*
X115558991Y-93253504D01*
X114925997Y-93588198D01*
X114898706Y-93606432D01*
X114562519Y-94075614D01*
X112523580Y-94075614D01*
X112258777Y-93810811D01*
X111663418Y-93413005D01*
X111001890Y-93138991D01*
X110299616Y-92999300D01*
X109583584Y-92999300D01*
X108881310Y-93138991D01*
X108219782Y-93413005D01*
X107624423Y-93810811D01*
X107118111Y-94317123D01*
X106720305Y-94912482D01*
X106446291Y-95574010D01*
X106397979Y-95816890D01*
X106319263Y-95895606D01*
X106425600Y-95361015D01*
X106425600Y-94605585D01*
X106278223Y-93864672D01*
X105989133Y-93166746D01*
X105751832Y-92811600D01*
X145716712Y-92811600D01*
X145445467Y-93217546D01*
X145445467Y-93217546D01*
G37*
X145445467Y-93217546D02*
X145156377Y-93915472D01*
X145009000Y-94656385D01*
X145009000Y-95411815D01*
X145156377Y-96152728D01*
X145445467Y-96850654D01*
X145865161Y-97478770D01*
X146399330Y-98012939D01*
X147027446Y-98432633D01*
X147725372Y-98721723D01*
X148466285Y-98869100D01*
X149221715Y-98869100D01*
X149962628Y-98721723D01*
X150660554Y-98432633D01*
X150901400Y-98271705D01*
X150901400Y-211570253D01*
X150622454Y-211383867D01*
X149924528Y-211094777D01*
X149183615Y-210947400D01*
X148428185Y-210947400D01*
X147687272Y-211094777D01*
X146989346Y-211383867D01*
X146361230Y-211803561D01*
X145827061Y-212337730D01*
X145407367Y-212965846D01*
X145118277Y-213663772D01*
X144970900Y-214404685D01*
X144970900Y-215160115D01*
X145118277Y-215901028D01*
X145196759Y-216090500D01*
X106187041Y-216090500D01*
X106265523Y-215901028D01*
X106412900Y-215160115D01*
X106412900Y-214404685D01*
X106265523Y-213663772D01*
X105976433Y-212965846D01*
X105556739Y-212337730D01*
X105033824Y-211814815D01*
X117856000Y-211814815D01*
X117856000Y-212365185D01*
X117963372Y-212904980D01*
X118173989Y-213413455D01*
X118479758Y-213871071D01*
X118868929Y-214260242D01*
X119326545Y-214566011D01*
X119835020Y-214776628D01*
X120374815Y-214884000D01*
X120925185Y-214884000D01*
X121464980Y-214776628D01*
X121973455Y-214566011D01*
X122431071Y-214260242D01*
X122820242Y-213871071D01*
X123126011Y-213413455D01*
X123336628Y-212904980D01*
X123444000Y-212365185D01*
X123444000Y-211814815D01*
X133096000Y-211814815D01*
X133096000Y-212365185D01*
X133203372Y-212904980D01*
X133413989Y-213413455D01*
X133719758Y-213871071D01*
X134108929Y-214260242D01*
X134566545Y-214566011D01*
X135075020Y-214776628D01*
X135614815Y-214884000D01*
X136165185Y-214884000D01*
X136704980Y-214776628D01*
X137213455Y-214566011D01*
X137671071Y-214260242D01*
X138060242Y-213871071D01*
X138366011Y-213413455D01*
X138576628Y-212904980D01*
X138684000Y-212365185D01*
X138684000Y-211814815D01*
X138576628Y-211275020D01*
X138366011Y-210766545D01*
X138060242Y-210308929D01*
X137671071Y-209919758D01*
X137213455Y-209613989D01*
X136704980Y-209403372D01*
X136165185Y-209296000D01*
X135614815Y-209296000D01*
X135075020Y-209403372D01*
X134566545Y-209613989D01*
X134108929Y-209919758D01*
X133719758Y-210308929D01*
X133413989Y-210766545D01*
X133203372Y-211275020D01*
X133096000Y-211814815D01*
X123444000Y-211814815D01*
X123336628Y-211275020D01*
X123126011Y-210766545D01*
X122820242Y-210308929D01*
X122431071Y-209919758D01*
X121973455Y-209613989D01*
X121464980Y-209403372D01*
X120925185Y-209296000D01*
X120374815Y-209296000D01*
X119835020Y-209403372D01*
X119326545Y-209613989D01*
X118868929Y-209919758D01*
X118479758Y-210308929D01*
X118173989Y-210766545D01*
X117963372Y-211275020D01*
X117856000Y-211814815D01*
X105033824Y-211814815D01*
X105022570Y-211803561D01*
X104394454Y-211383867D01*
X103696528Y-211094777D01*
X102955615Y-210947400D01*
X102200185Y-210947400D01*
X101459272Y-211094777D01*
X100761346Y-211383867D01*
X100432549Y-211603563D01*
X100433214Y-208364226D01*
X110180700Y-208364226D01*
X110180700Y-208902974D01*
X110285805Y-209431370D01*
X110491975Y-209929108D01*
X110791287Y-210377061D01*
X111172239Y-210758013D01*
X111620192Y-211057325D01*
X112117930Y-211263495D01*
X112646326Y-211368600D01*
X113185074Y-211368600D01*
X113713470Y-211263495D01*
X114211208Y-211057325D01*
X114659161Y-210758013D01*
X115040113Y-210377061D01*
X115339425Y-209929108D01*
X115545595Y-209431370D01*
X115650700Y-208902974D01*
X115650700Y-208364226D01*
X115545595Y-207835830D01*
X115339425Y-207338092D01*
X115040113Y-206890139D01*
X114659161Y-206509187D01*
X114211208Y-206209875D01*
X113713470Y-206003705D01*
X113185074Y-205898600D01*
X112646326Y-205898600D01*
X112117930Y-206003705D01*
X111620192Y-206209875D01*
X111172239Y-206509187D01*
X110791287Y-206890139D01*
X110491975Y-207338092D01*
X110285805Y-207835830D01*
X110180700Y-208364226D01*
X100433214Y-208364226D01*
X100436086Y-194394226D01*
X110180700Y-194394226D01*
X110180700Y-194932974D01*
X110285805Y-195461370D01*
X110491975Y-195959108D01*
X110791287Y-196407061D01*
X111172239Y-196788013D01*
X111620192Y-197087325D01*
X112117930Y-197293495D01*
X112646326Y-197398600D01*
X113185074Y-197398600D01*
X113505319Y-197334899D01*
X117856000Y-197334899D01*
X117856000Y-197635101D01*
X117914566Y-197929534D01*
X118029449Y-198206885D01*
X118196232Y-198456493D01*
X118408507Y-198668768D01*
X118537562Y-198755000D01*
X118408507Y-198841232D01*
X118196232Y-199053507D01*
X118029449Y-199303115D01*
X117914566Y-199580466D01*
X117856000Y-199874899D01*
X117856000Y-200175101D01*
X117914566Y-200469534D01*
X118029449Y-200746885D01*
X118196232Y-200996493D01*
X118408507Y-201208768D01*
X118537562Y-201295000D01*
X118408507Y-201381232D01*
X118196232Y-201593507D01*
X118029449Y-201843115D01*
X117914566Y-202120466D01*
X117856000Y-202414899D01*
X117856000Y-202715101D01*
X117914566Y-203009534D01*
X118029449Y-203286885D01*
X118196232Y-203536493D01*
X118408507Y-203748768D01*
X118537562Y-203835000D01*
X118408507Y-203921232D01*
X118196232Y-204133507D01*
X118029449Y-204383115D01*
X117914566Y-204660466D01*
X117856000Y-204954899D01*
X117856000Y-205255101D01*
X117914566Y-205549534D01*
X118029449Y-205826885D01*
X118196232Y-206076493D01*
X118408507Y-206288768D01*
X118658115Y-206455551D01*
X118935466Y-206570434D01*
X119229899Y-206629000D01*
X119530101Y-206629000D01*
X119824534Y-206570434D01*
X120101885Y-206455551D01*
X120351493Y-206288768D01*
X120563768Y-206076493D01*
X120730551Y-205826885D01*
X120845434Y-205549534D01*
X120904000Y-205255101D01*
X120904000Y-204954899D01*
X120845434Y-204660466D01*
X120730551Y-204383115D01*
X120563768Y-204133507D01*
X120351493Y-203921232D01*
X120222438Y-203835000D01*
X120351493Y-203748768D01*
X120563768Y-203536493D01*
X120730551Y-203286885D01*
X120845434Y-203009534D01*
X120904000Y-202715101D01*
X120904000Y-202414899D01*
X120845434Y-202120466D01*
X120730551Y-201843115D01*
X120563768Y-201593507D01*
X120351493Y-201381232D01*
X120222438Y-201295000D01*
X120351493Y-201208768D01*
X120563768Y-200996493D01*
X120730551Y-200746885D01*
X120845434Y-200469534D01*
X120904000Y-200175101D01*
X120904000Y-199874899D01*
X120845434Y-199580466D01*
X120730551Y-199303115D01*
X120563768Y-199053507D01*
X120351493Y-198841232D01*
X120339920Y-198833499D01*
X126631700Y-198833499D01*
X126631700Y-199133701D01*
X126690266Y-199428134D01*
X126805149Y-199705485D01*
X126971932Y-199955093D01*
X127184207Y-200167368D01*
X127313262Y-200253600D01*
X127184207Y-200339832D01*
X126971932Y-200552107D01*
X126805149Y-200801715D01*
X126690266Y-201079066D01*
X126631700Y-201373499D01*
X126631700Y-201673701D01*
X126690266Y-201968134D01*
X126805149Y-202245485D01*
X126971932Y-202495093D01*
X127184207Y-202707368D01*
X127313262Y-202793600D01*
X127184207Y-202879832D01*
X126971932Y-203092107D01*
X126805149Y-203341715D01*
X126690266Y-203619066D01*
X126631700Y-203913499D01*
X126631700Y-204213701D01*
X126690266Y-204508134D01*
X126805149Y-204785485D01*
X126971932Y-205035093D01*
X127184207Y-205247368D01*
X127313262Y-205333600D01*
X127184207Y-205419832D01*
X126971932Y-205632107D01*
X126805149Y-205881715D01*
X126690266Y-206159066D01*
X126631700Y-206453499D01*
X126631700Y-206753701D01*
X126690266Y-207048134D01*
X126805149Y-207325485D01*
X126971932Y-207575093D01*
X127184207Y-207787368D01*
X127313262Y-207873600D01*
X127184207Y-207959832D01*
X126971932Y-208172107D01*
X126805149Y-208421715D01*
X126690266Y-208699066D01*
X126631700Y-208993499D01*
X126631700Y-209293701D01*
X126690266Y-209588134D01*
X126805149Y-209865485D01*
X126971932Y-210115093D01*
X127184207Y-210327368D01*
X127433815Y-210494151D01*
X127711166Y-210609034D01*
X128005599Y-210667600D01*
X128305801Y-210667600D01*
X128600234Y-210609034D01*
X128877585Y-210494151D01*
X129127193Y-210327368D01*
X129339468Y-210115093D01*
X129506251Y-209865485D01*
X129621134Y-209588134D01*
X129679700Y-209293701D01*
X129679700Y-208993499D01*
X129630077Y-208744024D01*
X133419202Y-204954899D01*
X135636000Y-204954899D01*
X135636000Y-205255101D01*
X135694566Y-205549534D01*
X135809449Y-205826885D01*
X135976232Y-206076493D01*
X136188507Y-206288768D01*
X136317562Y-206375000D01*
X136188507Y-206461232D01*
X135976232Y-206673507D01*
X135809449Y-206923115D01*
X135694566Y-207200466D01*
X135636000Y-207494899D01*
X135636000Y-207795101D01*
X135694566Y-208089534D01*
X135809449Y-208366885D01*
X135976232Y-208616493D01*
X136188507Y-208828768D01*
X136438115Y-208995551D01*
X136715466Y-209110434D01*
X137009899Y-209169000D01*
X137310101Y-209169000D01*
X137604534Y-209110434D01*
X137881885Y-208995551D01*
X138131493Y-208828768D01*
X138343768Y-208616493D01*
X138510551Y-208366885D01*
X138625434Y-208089534D01*
X138684000Y-207795101D01*
X138684000Y-207494899D01*
X138625434Y-207200466D01*
X138510551Y-206923115D01*
X138343768Y-206673507D01*
X138131493Y-206461232D01*
X138002438Y-206375000D01*
X138131493Y-206288768D01*
X138343768Y-206076493D01*
X138510551Y-205826885D01*
X138625434Y-205549534D01*
X138684000Y-205255101D01*
X138684000Y-204954899D01*
X138625434Y-204660466D01*
X138510551Y-204383115D01*
X138343768Y-204133507D01*
X138131493Y-203921232D01*
X137973378Y-203815583D01*
X138036626Y-203621231D01*
X137160000Y-202744605D01*
X136283374Y-203621231D01*
X136346622Y-203815583D01*
X136188507Y-203921232D01*
X135976232Y-204133507D01*
X135809449Y-204383115D01*
X135694566Y-204660466D01*
X135636000Y-204954899D01*
X133419202Y-204954899D01*
X135644098Y-202730004D01*
X135672557Y-202929171D01*
X135772184Y-203212359D01*
X135850711Y-203359273D01*
X136103769Y-203441626D01*
X136980395Y-202565000D01*
X137339605Y-202565000D01*
X138216231Y-203441626D01*
X138469289Y-203359273D01*
X138599086Y-203088582D01*
X138673580Y-202797770D01*
X138689908Y-202498012D01*
X138647443Y-202200829D01*
X138547816Y-201917641D01*
X138469289Y-201770727D01*
X138216231Y-201688374D01*
X137339605Y-202565000D01*
X136980395Y-202565000D01*
X136966253Y-202550858D01*
X137145858Y-202371253D01*
X137160000Y-202385395D01*
X138036626Y-201508769D01*
X137973378Y-201314417D01*
X138131493Y-201208768D01*
X138343768Y-200996493D01*
X138510551Y-200746885D01*
X138625434Y-200469534D01*
X138684000Y-200175101D01*
X138684000Y-199874899D01*
X138634377Y-199625424D01*
X147394623Y-190865178D01*
X147424232Y-191014029D01*
X147494714Y-191184189D01*
X147597038Y-191337328D01*
X147727272Y-191467562D01*
X147880411Y-191569886D01*
X148050571Y-191640368D01*
X148231211Y-191676300D01*
X148415389Y-191676300D01*
X148596029Y-191640368D01*
X148766189Y-191569886D01*
X148919328Y-191467562D01*
X149049562Y-191337328D01*
X149151886Y-191184189D01*
X149222368Y-191014029D01*
X149258300Y-190833389D01*
X149258300Y-190649211D01*
X149222368Y-190468571D01*
X149155011Y-190305955D01*
X149155011Y-142082334D01*
X149158687Y-142045011D01*
X149155011Y-142007688D01*
X149155011Y-142007678D01*
X149144014Y-141896025D01*
X149100557Y-141752764D01*
X149029985Y-141620735D01*
X148935012Y-141505010D01*
X148906015Y-141481213D01*
X144984377Y-137559576D01*
X145034000Y-137310101D01*
X145034000Y-137009899D01*
X144975434Y-136715466D01*
X144860551Y-136438115D01*
X144693768Y-136188507D01*
X144481493Y-135976232D01*
X144352438Y-135890000D01*
X144481493Y-135803768D01*
X144693768Y-135591493D01*
X144860551Y-135341885D01*
X144975434Y-135064534D01*
X145034000Y-134770101D01*
X145034000Y-134469899D01*
X144975434Y-134175466D01*
X144860551Y-133898115D01*
X144693768Y-133648507D01*
X144481493Y-133436232D01*
X144352438Y-133350000D01*
X144481493Y-133263768D01*
X144693768Y-133051493D01*
X144860551Y-132801885D01*
X144975434Y-132524534D01*
X145034000Y-132230101D01*
X145034000Y-131929899D01*
X144975434Y-131635466D01*
X144860551Y-131358115D01*
X144693768Y-131108507D01*
X144481493Y-130896232D01*
X144352438Y-130810000D01*
X144481493Y-130723768D01*
X144693768Y-130511493D01*
X144860551Y-130261885D01*
X144975434Y-129984534D01*
X145034000Y-129690101D01*
X145034000Y-129389899D01*
X144975434Y-129095466D01*
X144860551Y-128818115D01*
X144693768Y-128568507D01*
X144481493Y-128356232D01*
X144352438Y-128270000D01*
X144481493Y-128183768D01*
X144693768Y-127971493D01*
X144860551Y-127721885D01*
X144975434Y-127444534D01*
X145034000Y-127150101D01*
X145034000Y-126849899D01*
X144975434Y-126555466D01*
X144860551Y-126278115D01*
X144693768Y-126028507D01*
X144481493Y-125816232D01*
X144352438Y-125730000D01*
X144481493Y-125643768D01*
X144693768Y-125431493D01*
X144860551Y-125181885D01*
X144975434Y-124904534D01*
X145034000Y-124610101D01*
X145034000Y-124309899D01*
X144975434Y-124015466D01*
X144860551Y-123738115D01*
X144693768Y-123488507D01*
X144481493Y-123276232D01*
X144352438Y-123190000D01*
X144481493Y-123103768D01*
X144693768Y-122891493D01*
X144860551Y-122641885D01*
X144975434Y-122364534D01*
X145034000Y-122070101D01*
X145034000Y-121769899D01*
X144975434Y-121475466D01*
X144860551Y-121198115D01*
X144693768Y-120948507D01*
X144481493Y-120736232D01*
X144352438Y-120650000D01*
X144481493Y-120563768D01*
X144693768Y-120351493D01*
X144860551Y-120101885D01*
X144975434Y-119824534D01*
X145034000Y-119530101D01*
X145034000Y-119229899D01*
X144975434Y-118935466D01*
X144860551Y-118658115D01*
X144693768Y-118408507D01*
X144481493Y-118196232D01*
X144352438Y-118110000D01*
X144481493Y-118023768D01*
X144693768Y-117811493D01*
X144860551Y-117561885D01*
X144975434Y-117284534D01*
X145034000Y-116990101D01*
X145034000Y-116689899D01*
X144975434Y-116395466D01*
X144860551Y-116118115D01*
X144693768Y-115868507D01*
X144481493Y-115656232D01*
X144352438Y-115570000D01*
X144481493Y-115483768D01*
X144693768Y-115271493D01*
X144860551Y-115021885D01*
X144975434Y-114744534D01*
X145034000Y-114450101D01*
X145034000Y-114149899D01*
X144975434Y-113855466D01*
X144860551Y-113578115D01*
X144693768Y-113328507D01*
X144481493Y-113116232D01*
X144352438Y-113030000D01*
X144481493Y-112943768D01*
X144693768Y-112731493D01*
X144860551Y-112481885D01*
X144975434Y-112204534D01*
X145034000Y-111910101D01*
X145034000Y-111609899D01*
X144975434Y-111315466D01*
X144860551Y-111038115D01*
X144693768Y-110788507D01*
X144481493Y-110576232D01*
X144231885Y-110409449D01*
X143954534Y-110294566D01*
X143660101Y-110236000D01*
X143359899Y-110236000D01*
X143065466Y-110294566D01*
X142788115Y-110409449D01*
X142538507Y-110576232D01*
X142326232Y-110788507D01*
X142159449Y-111038115D01*
X142044566Y-111315466D01*
X141986000Y-111609899D01*
X141986000Y-111910101D01*
X142044566Y-112204534D01*
X142159449Y-112481885D01*
X142326232Y-112731493D01*
X142538507Y-112943768D01*
X142667562Y-113030000D01*
X142538507Y-113116232D01*
X142326232Y-113328507D01*
X142159449Y-113578115D01*
X142044566Y-113855466D01*
X141986000Y-114149899D01*
X141986000Y-114450101D01*
X142044566Y-114744534D01*
X142159449Y-115021885D01*
X142326232Y-115271493D01*
X142538507Y-115483768D01*
X142667562Y-115570000D01*
X142538507Y-115656232D01*
X142326232Y-115868507D01*
X142159449Y-116118115D01*
X142044566Y-116395466D01*
X141986000Y-116689899D01*
X141986000Y-116990101D01*
X142044566Y-117284534D01*
X142159449Y-117561885D01*
X142326232Y-117811493D01*
X142538507Y-118023768D01*
X142667562Y-118110000D01*
X142538507Y-118196232D01*
X142326232Y-118408507D01*
X142159449Y-118658115D01*
X142044566Y-118935466D01*
X141986000Y-119229899D01*
X141986000Y-119530101D01*
X142044566Y-119824534D01*
X142159449Y-120101885D01*
X142326232Y-120351493D01*
X142538507Y-120563768D01*
X142667562Y-120650000D01*
X142538507Y-120736232D01*
X142326232Y-120948507D01*
X142159449Y-121198115D01*
X142044566Y-121475466D01*
X141986000Y-121769899D01*
X141986000Y-122070101D01*
X142044566Y-122364534D01*
X142159449Y-122641885D01*
X142326232Y-122891493D01*
X142538507Y-123103768D01*
X142667562Y-123190000D01*
X142538507Y-123276232D01*
X142326232Y-123488507D01*
X142159449Y-123738115D01*
X142044566Y-124015466D01*
X141986000Y-124309899D01*
X141986000Y-124610101D01*
X142044566Y-124904534D01*
X142159449Y-125181885D01*
X142326232Y-125431493D01*
X142538507Y-125643768D01*
X142667562Y-125730000D01*
X142538507Y-125816232D01*
X142326232Y-126028507D01*
X142159449Y-126278115D01*
X142044566Y-126555466D01*
X141986000Y-126849899D01*
X141986000Y-127150101D01*
X142044566Y-127444534D01*
X142159449Y-127721885D01*
X142326232Y-127971493D01*
X142538507Y-128183768D01*
X142667562Y-128270000D01*
X142538507Y-128356232D01*
X142326232Y-128568507D01*
X142159449Y-128818115D01*
X142044566Y-129095466D01*
X141986000Y-129389899D01*
X141986000Y-129690101D01*
X142044566Y-129984534D01*
X142159449Y-130261885D01*
X142326232Y-130511493D01*
X142538507Y-130723768D01*
X142667562Y-130810000D01*
X142538507Y-130896232D01*
X142326232Y-131108507D01*
X142159449Y-131358115D01*
X142044566Y-131635466D01*
X141986000Y-131929899D01*
X141986000Y-132230101D01*
X142044566Y-132524534D01*
X142159449Y-132801885D01*
X142326232Y-133051493D01*
X142538507Y-133263768D01*
X142667562Y-133350000D01*
X142538507Y-133436232D01*
X142326232Y-133648507D01*
X142159449Y-133898115D01*
X142044566Y-134175466D01*
X141986000Y-134469899D01*
X141986000Y-134770101D01*
X142044566Y-135064534D01*
X142159449Y-135341885D01*
X142326232Y-135591493D01*
X142538507Y-135803768D01*
X142667562Y-135890000D01*
X142538507Y-135976232D01*
X142326232Y-136188507D01*
X142184917Y-136400000D01*
X140582239Y-136400000D01*
X140580813Y-136385518D01*
X140544503Y-136265820D01*
X140485538Y-136155506D01*
X140406186Y-136058815D01*
X140309495Y-135979463D01*
X140199181Y-135920498D01*
X140079483Y-135884188D01*
X139955001Y-135871928D01*
X139255001Y-135871928D01*
X139130519Y-135884188D01*
X139010821Y-135920498D01*
X138900507Y-135979463D01*
X138803816Y-136058815D01*
X138724464Y-136155506D01*
X138665499Y-136265820D01*
X138655001Y-136300427D01*
X138644503Y-136265820D01*
X138585538Y-136155506D01*
X138506186Y-136058815D01*
X138409495Y-135979463D01*
X138299181Y-135920498D01*
X138179483Y-135884188D01*
X138055001Y-135871928D01*
X137355001Y-135871928D01*
X137230519Y-135884188D01*
X137110821Y-135920498D01*
X137000507Y-135979463D01*
X136903816Y-136058815D01*
X136824464Y-136155506D01*
X136765499Y-136265820D01*
X136729189Y-136385518D01*
X136716929Y-136510000D01*
X136716929Y-137373270D01*
X133194400Y-140895800D01*
X132968435Y-140895800D01*
X132865789Y-140827214D01*
X132695629Y-140756732D01*
X132514989Y-140720800D01*
X132330811Y-140720800D01*
X132150171Y-140756732D01*
X131980011Y-140827214D01*
X131826872Y-140929538D01*
X131696638Y-141059772D01*
X131594314Y-141212911D01*
X131523832Y-141383071D01*
X131487900Y-141563711D01*
X131487900Y-141747889D01*
X131523832Y-141928529D01*
X131594314Y-142098689D01*
X131696638Y-142251828D01*
X131826872Y-142382062D01*
X131980011Y-142484386D01*
X132150171Y-142554868D01*
X132330811Y-142590800D01*
X132514989Y-142590800D01*
X132695629Y-142554868D01*
X132865789Y-142484386D01*
X132968435Y-142415800D01*
X133471879Y-142415800D01*
X133509201Y-142419476D01*
X133546523Y-142415800D01*
X133546534Y-142415800D01*
X133658187Y-142404803D01*
X133801448Y-142361346D01*
X133933477Y-142290774D01*
X134049202Y-142195801D01*
X134073005Y-142166797D01*
X136811928Y-139427875D01*
X136811928Y-140350000D01*
X136824188Y-140474482D01*
X136860498Y-140594180D01*
X136919463Y-140704494D01*
X136998815Y-140801185D01*
X137095506Y-140880537D01*
X137205820Y-140939502D01*
X137325518Y-140975812D01*
X137450000Y-140988072D01*
X138150000Y-140988072D01*
X138274482Y-140975812D01*
X138394180Y-140939502D01*
X138504494Y-140880537D01*
X138601185Y-140801185D01*
X138680537Y-140704494D01*
X138739502Y-140594180D01*
X138750000Y-140559573D01*
X138760498Y-140594180D01*
X138819463Y-140704494D01*
X138898815Y-140801185D01*
X138995506Y-140880537D01*
X139105820Y-140939502D01*
X139225518Y-140975812D01*
X139350000Y-140988072D01*
X140050000Y-140988072D01*
X140174482Y-140975812D01*
X140294180Y-140939502D01*
X140404494Y-140880537D01*
X140501185Y-140801185D01*
X140580537Y-140704494D01*
X140639502Y-140594180D01*
X140675812Y-140474482D01*
X140677238Y-140460000D01*
X142184917Y-140460000D01*
X142326232Y-140671493D01*
X142538507Y-140883768D01*
X142788115Y-141050551D01*
X143065466Y-141165434D01*
X143359899Y-141224000D01*
X143660101Y-141224000D01*
X143909576Y-141174377D01*
X147185002Y-144449804D01*
X147185001Y-188925197D01*
X138684000Y-197426199D01*
X138684000Y-197334899D01*
X138625434Y-197040466D01*
X138510551Y-196763115D01*
X138343768Y-196513507D01*
X138131493Y-196301232D01*
X138002438Y-196215000D01*
X138131493Y-196128768D01*
X138343768Y-195916493D01*
X138510551Y-195666885D01*
X138625434Y-195389534D01*
X138684000Y-195095101D01*
X138684000Y-194794899D01*
X138625434Y-194500466D01*
X138510551Y-194223115D01*
X138343768Y-193973507D01*
X138131493Y-193761232D01*
X137881885Y-193594449D01*
X137604534Y-193479566D01*
X137310101Y-193421000D01*
X137009899Y-193421000D01*
X136715466Y-193479566D01*
X136438115Y-193594449D01*
X136188507Y-193761232D01*
X135976232Y-193973507D01*
X135809449Y-194223115D01*
X135694566Y-194500466D01*
X135636000Y-194794899D01*
X135636000Y-195095101D01*
X135694566Y-195389534D01*
X135809449Y-195666885D01*
X135976232Y-195916493D01*
X136188507Y-196128768D01*
X136317562Y-196215000D01*
X136188507Y-196301232D01*
X135976232Y-196513507D01*
X135809449Y-196763115D01*
X135694566Y-197040466D01*
X135636000Y-197334899D01*
X135636000Y-197635101D01*
X135694566Y-197929534D01*
X135712256Y-197972242D01*
X129679700Y-204004799D01*
X129679700Y-203913499D01*
X129621134Y-203619066D01*
X129506251Y-203341715D01*
X129339468Y-203092107D01*
X129127193Y-202879832D01*
X128998138Y-202793600D01*
X129127193Y-202707368D01*
X129339468Y-202495093D01*
X129506251Y-202245485D01*
X129621134Y-201968134D01*
X129679700Y-201673701D01*
X129679700Y-201373499D01*
X129621134Y-201079066D01*
X129506251Y-200801715D01*
X129339468Y-200552107D01*
X129127193Y-200339832D01*
X128998138Y-200253600D01*
X129127193Y-200167368D01*
X129339468Y-199955093D01*
X129506251Y-199705485D01*
X129621134Y-199428134D01*
X129679700Y-199133701D01*
X129679700Y-198833499D01*
X129621134Y-198539066D01*
X129506251Y-198261715D01*
X129339468Y-198012107D01*
X129127193Y-197799832D01*
X128969078Y-197694183D01*
X129032326Y-197499831D01*
X128155700Y-196623205D01*
X127279074Y-197499831D01*
X127342322Y-197694183D01*
X127184207Y-197799832D01*
X126971932Y-198012107D01*
X126805149Y-198261715D01*
X126690266Y-198539066D01*
X126631700Y-198833499D01*
X120339920Y-198833499D01*
X120222438Y-198755000D01*
X120351493Y-198668768D01*
X120563768Y-198456493D01*
X120730551Y-198206885D01*
X120845434Y-197929534D01*
X120904000Y-197635101D01*
X120904000Y-197334899D01*
X120845434Y-197040466D01*
X120730551Y-196763115D01*
X120563768Y-196513507D01*
X120560849Y-196510588D01*
X126625792Y-196510588D01*
X126668257Y-196807771D01*
X126767884Y-197090959D01*
X126846411Y-197237873D01*
X127099469Y-197320226D01*
X127976095Y-196443600D01*
X128335305Y-196443600D01*
X129211931Y-197320226D01*
X129464989Y-197237873D01*
X129594786Y-196967182D01*
X129669280Y-196676370D01*
X129685608Y-196376612D01*
X129643143Y-196079429D01*
X129543516Y-195796241D01*
X129464989Y-195649327D01*
X129211931Y-195566974D01*
X128335305Y-196443600D01*
X127976095Y-196443600D01*
X127099469Y-195566974D01*
X126846411Y-195649327D01*
X126716614Y-195920018D01*
X126642120Y-196210830D01*
X126625792Y-196510588D01*
X120560849Y-196510588D01*
X120351493Y-196301232D01*
X120101885Y-196134449D01*
X119824534Y-196019566D01*
X119530101Y-195961000D01*
X119229899Y-195961000D01*
X118935466Y-196019566D01*
X118658115Y-196134449D01*
X118408507Y-196301232D01*
X118196232Y-196513507D01*
X118029449Y-196763115D01*
X117914566Y-197040466D01*
X117856000Y-197334899D01*
X113505319Y-197334899D01*
X113713470Y-197293495D01*
X114211208Y-197087325D01*
X114659161Y-196788013D01*
X115040113Y-196407061D01*
X115339425Y-195959108D01*
X115545595Y-195461370D01*
X115650700Y-194932974D01*
X115650700Y-194394226D01*
X115545595Y-193865830D01*
X115499066Y-193753499D01*
X126631700Y-193753499D01*
X126631700Y-194053701D01*
X126690266Y-194348134D01*
X126805149Y-194625485D01*
X126971932Y-194875093D01*
X127184207Y-195087368D01*
X127342322Y-195193017D01*
X127279074Y-195387369D01*
X128155700Y-196263995D01*
X129032326Y-195387369D01*
X128969078Y-195193017D01*
X129127193Y-195087368D01*
X129339468Y-194875093D01*
X129506251Y-194625485D01*
X129621134Y-194348134D01*
X129679700Y-194053701D01*
X129679700Y-193753499D01*
X129621134Y-193459066D01*
X129506251Y-193181715D01*
X129339468Y-192932107D01*
X129127193Y-192719832D01*
X128877585Y-192553049D01*
X128600234Y-192438166D01*
X128305801Y-192379600D01*
X128005599Y-192379600D01*
X127711166Y-192438166D01*
X127433815Y-192553049D01*
X127184207Y-192719832D01*
X126971932Y-192932107D01*
X126805149Y-193181715D01*
X126690266Y-193459066D01*
X126631700Y-193753499D01*
X115499066Y-193753499D01*
X115339425Y-193368092D01*
X115040113Y-192920139D01*
X114659161Y-192539187D01*
X114211208Y-192239875D01*
X113713470Y-192033705D01*
X113185074Y-191928600D01*
X112646326Y-191928600D01*
X112117930Y-192033705D01*
X111620192Y-192239875D01*
X111172239Y-192539187D01*
X110791287Y-192920139D01*
X110491975Y-193368092D01*
X110285805Y-193865830D01*
X110180700Y-194394226D01*
X100436086Y-194394226D01*
X100437670Y-186690000D01*
X102812915Y-186690000D01*
X102841587Y-186981111D01*
X102926501Y-187261034D01*
X103064394Y-187519014D01*
X103249966Y-187745134D01*
X103476086Y-187930706D01*
X103530891Y-187960000D01*
X103476086Y-187989294D01*
X103249966Y-188174866D01*
X103064394Y-188400986D01*
X102926501Y-188658966D01*
X102841587Y-188938889D01*
X102812915Y-189230000D01*
X102841587Y-189521111D01*
X102926501Y-189801034D01*
X103064394Y-190059014D01*
X103249966Y-190285134D01*
X103476086Y-190470706D01*
X103734066Y-190608599D01*
X104013989Y-190693513D01*
X104232150Y-190715000D01*
X104378050Y-190715000D01*
X104596211Y-190693513D01*
X104876134Y-190608599D01*
X105134114Y-190470706D01*
X105360234Y-190285134D01*
X105409736Y-190224815D01*
X117856000Y-190224815D01*
X117856000Y-190775185D01*
X117963372Y-191314980D01*
X118173989Y-191823455D01*
X118479758Y-192281071D01*
X118868929Y-192670242D01*
X119326545Y-192976011D01*
X119835020Y-193186628D01*
X120374815Y-193294000D01*
X120925185Y-193294000D01*
X121464980Y-193186628D01*
X121973455Y-192976011D01*
X122431071Y-192670242D01*
X122820242Y-192281071D01*
X123126011Y-191823455D01*
X123336628Y-191314980D01*
X123444000Y-190775185D01*
X123444000Y-190224815D01*
X133096000Y-190224815D01*
X133096000Y-190775185D01*
X133203372Y-191314980D01*
X133413989Y-191823455D01*
X133719758Y-192281071D01*
X134108929Y-192670242D01*
X134566545Y-192976011D01*
X135075020Y-193186628D01*
X135614815Y-193294000D01*
X136165185Y-193294000D01*
X136704980Y-193186628D01*
X137213455Y-192976011D01*
X137671071Y-192670242D01*
X138060242Y-192281071D01*
X138366011Y-191823455D01*
X138576628Y-191314980D01*
X138684000Y-190775185D01*
X138684000Y-190224815D01*
X138576628Y-189685020D01*
X138366011Y-189176545D01*
X138060242Y-188718929D01*
X137671071Y-188329758D01*
X137213455Y-188023989D01*
X136704980Y-187813372D01*
X136165185Y-187706000D01*
X135614815Y-187706000D01*
X135075020Y-187813372D01*
X134566545Y-188023989D01*
X134108929Y-188329758D01*
X133719758Y-188718929D01*
X133413989Y-189176545D01*
X133203372Y-189685020D01*
X133096000Y-190224815D01*
X123444000Y-190224815D01*
X123336628Y-189685020D01*
X123126011Y-189176545D01*
X122820242Y-188718929D01*
X122431071Y-188329758D01*
X121973455Y-188023989D01*
X121464980Y-187813372D01*
X120925185Y-187706000D01*
X120374815Y-187706000D01*
X119835020Y-187813372D01*
X119326545Y-188023989D01*
X118868929Y-188329758D01*
X118479758Y-188718929D01*
X118173989Y-189176545D01*
X117963372Y-189685020D01*
X117856000Y-190224815D01*
X105409736Y-190224815D01*
X105545806Y-190059014D01*
X105683699Y-189801034D01*
X105768613Y-189521111D01*
X105797285Y-189230000D01*
X105768613Y-188938889D01*
X105683699Y-188658966D01*
X105545806Y-188400986D01*
X105360234Y-188174866D01*
X105134114Y-187989294D01*
X105079309Y-187960000D01*
X105134114Y-187930706D01*
X105360234Y-187745134D01*
X105545806Y-187519014D01*
X105683699Y-187261034D01*
X105768613Y-186981111D01*
X105797285Y-186690000D01*
X105768613Y-186398889D01*
X105683699Y-186118966D01*
X105545806Y-185860986D01*
X105360234Y-185634866D01*
X105330413Y-185610393D01*
X105399280Y-185589502D01*
X105509594Y-185530537D01*
X105606285Y-185451185D01*
X105685637Y-185354494D01*
X105744602Y-185244180D01*
X105780912Y-185124482D01*
X105793172Y-185000000D01*
X105790100Y-184435750D01*
X105631350Y-184277000D01*
X104432100Y-184277000D01*
X104432100Y-184297000D01*
X104178100Y-184297000D01*
X104178100Y-184277000D01*
X102978850Y-184277000D01*
X102820100Y-184435750D01*
X102817028Y-185000000D01*
X102829288Y-185124482D01*
X102865598Y-185244180D01*
X102924563Y-185354494D01*
X103003915Y-185451185D01*
X103100606Y-185530537D01*
X103210920Y-185589502D01*
X103279787Y-185610393D01*
X103249966Y-185634866D01*
X103064394Y-185860986D01*
X102926501Y-186118966D01*
X102841587Y-186398889D01*
X102812915Y-186690000D01*
X100437670Y-186690000D01*
X100438367Y-183300000D01*
X102817028Y-183300000D01*
X102820100Y-183864250D01*
X102978850Y-184023000D01*
X104178100Y-184023000D01*
X104178100Y-182823750D01*
X104432100Y-182823750D01*
X104432100Y-184023000D01*
X105631350Y-184023000D01*
X105790100Y-183864250D01*
X105793172Y-183300000D01*
X105780912Y-183175518D01*
X105744602Y-183055820D01*
X105685637Y-182945506D01*
X105606285Y-182848815D01*
X105509594Y-182769463D01*
X105399280Y-182710498D01*
X105279582Y-182674188D01*
X105155100Y-182661928D01*
X104590850Y-182665000D01*
X104432100Y-182823750D01*
X104178100Y-182823750D01*
X104019350Y-182665000D01*
X103455100Y-182661928D01*
X103330618Y-182674188D01*
X103210920Y-182710498D01*
X103100606Y-182769463D01*
X103003915Y-182848815D01*
X102924563Y-182945506D01*
X102865598Y-183055820D01*
X102829288Y-183175518D01*
X102817028Y-183300000D01*
X100438367Y-183300000D01*
X100438961Y-180408290D01*
X120332500Y-180408290D01*
X120332500Y-181033710D01*
X120454514Y-181647113D01*
X120693852Y-182224926D01*
X121041317Y-182744944D01*
X121483556Y-183187183D01*
X122003574Y-183534648D01*
X122581387Y-183773986D01*
X123194790Y-183896000D01*
X123820210Y-183896000D01*
X124433613Y-183773986D01*
X125011426Y-183534648D01*
X125531444Y-183187183D01*
X125973683Y-182744944D01*
X126321148Y-182224926D01*
X126560486Y-181647113D01*
X126682500Y-181033710D01*
X126682500Y-180408290D01*
X126560486Y-179794887D01*
X126321148Y-179217074D01*
X125973683Y-178697056D01*
X125531444Y-178254817D01*
X125011426Y-177907352D01*
X124433613Y-177668014D01*
X123820210Y-177546000D01*
X123194790Y-177546000D01*
X122581387Y-177668014D01*
X122003574Y-177907352D01*
X121483556Y-178254817D01*
X121041317Y-178697056D01*
X120693852Y-179217074D01*
X120454514Y-179794887D01*
X120332500Y-180408290D01*
X100438961Y-180408290D01*
X100439786Y-176392408D01*
X143383000Y-176392408D01*
X143383000Y-176667592D01*
X143436686Y-176937490D01*
X143541995Y-177191727D01*
X143694880Y-177420535D01*
X143889465Y-177615120D01*
X144118273Y-177768005D01*
X144372510Y-177873314D01*
X144642408Y-177927000D01*
X144917592Y-177927000D01*
X145187490Y-177873314D01*
X145441727Y-177768005D01*
X145670535Y-177615120D01*
X145865120Y-177420535D01*
X146018005Y-177191727D01*
X146123314Y-176937490D01*
X146177000Y-176667592D01*
X146177000Y-176392408D01*
X146123314Y-176122510D01*
X146018005Y-175868273D01*
X145865120Y-175639465D01*
X145670535Y-175444880D01*
X145441727Y-175291995D01*
X145370057Y-175262308D01*
X145383023Y-175257636D01*
X145498980Y-175195656D01*
X145565960Y-174955565D01*
X144780000Y-174169605D01*
X143994040Y-174955565D01*
X144061020Y-175195656D01*
X144196760Y-175259485D01*
X144118273Y-175291995D01*
X143889465Y-175444880D01*
X143694880Y-175639465D01*
X143541995Y-175868273D01*
X143436686Y-176122510D01*
X143383000Y-176392408D01*
X100439786Y-176392408D01*
X100443707Y-157329899D01*
X102616000Y-157329899D01*
X102616000Y-157630101D01*
X102674566Y-157924534D01*
X102789449Y-158201885D01*
X102956232Y-158451493D01*
X103168507Y-158663768D01*
X103297562Y-158750000D01*
X103168507Y-158836232D01*
X102956232Y-159048507D01*
X102789449Y-159298115D01*
X102674566Y-159575466D01*
X102616000Y-159869899D01*
X102616000Y-160170101D01*
X102674566Y-160464534D01*
X102789449Y-160741885D01*
X102956232Y-160991493D01*
X103168507Y-161203768D01*
X103297562Y-161290000D01*
X103168507Y-161376232D01*
X102956232Y-161588507D01*
X102789449Y-161838115D01*
X102674566Y-162115466D01*
X102616000Y-162409899D01*
X102616000Y-162710101D01*
X102674566Y-163004534D01*
X102789449Y-163281885D01*
X102956232Y-163531493D01*
X103168507Y-163743768D01*
X103297562Y-163830000D01*
X103168507Y-163916232D01*
X102956232Y-164128507D01*
X102789449Y-164378115D01*
X102674566Y-164655466D01*
X102616000Y-164949899D01*
X102616000Y-165250101D01*
X102674566Y-165544534D01*
X102789449Y-165821885D01*
X102956232Y-166071493D01*
X103168507Y-166283768D01*
X103297562Y-166370000D01*
X103168507Y-166456232D01*
X102956232Y-166668507D01*
X102789449Y-166918115D01*
X102674566Y-167195466D01*
X102616000Y-167489899D01*
X102616000Y-167790101D01*
X102674566Y-168084534D01*
X102789449Y-168361885D01*
X102956232Y-168611493D01*
X103168507Y-168823768D01*
X103297562Y-168910000D01*
X103168507Y-168996232D01*
X102956232Y-169208507D01*
X102789449Y-169458115D01*
X102674566Y-169735466D01*
X102616000Y-170029899D01*
X102616000Y-170330101D01*
X102674566Y-170624534D01*
X102789449Y-170901885D01*
X102956232Y-171151493D01*
X103168507Y-171363768D01*
X103297562Y-171450000D01*
X103168507Y-171536232D01*
X102956232Y-171748507D01*
X102789449Y-171998115D01*
X102674566Y-172275466D01*
X102616000Y-172569899D01*
X102616000Y-172870101D01*
X102674566Y-173164534D01*
X102789449Y-173441885D01*
X102956232Y-173691493D01*
X103168507Y-173903768D01*
X103418115Y-174070551D01*
X103695466Y-174185434D01*
X103989899Y-174244000D01*
X104290101Y-174244000D01*
X104584534Y-174185434D01*
X104861885Y-174070551D01*
X104874657Y-174062017D01*
X143378090Y-174062017D01*
X143419078Y-174334133D01*
X143512364Y-174593023D01*
X143574344Y-174708980D01*
X143814435Y-174775960D01*
X144600395Y-173990000D01*
X144959605Y-173990000D01*
X145745565Y-174775960D01*
X145985656Y-174708980D01*
X146102756Y-174459952D01*
X146169023Y-174192865D01*
X146181910Y-173917983D01*
X146140922Y-173645867D01*
X146047636Y-173386977D01*
X145985656Y-173271020D01*
X145745565Y-173204040D01*
X144959605Y-173990000D01*
X144600395Y-173990000D01*
X143814435Y-173204040D01*
X143574344Y-173271020D01*
X143457244Y-173520048D01*
X143390977Y-173787135D01*
X143378090Y-174062017D01*
X104874657Y-174062017D01*
X105111493Y-173903768D01*
X105323768Y-173691493D01*
X105490551Y-173441885D01*
X105605434Y-173164534D01*
X105664000Y-172870101D01*
X105664000Y-172569899D01*
X105605434Y-172275466D01*
X105490551Y-171998115D01*
X105323768Y-171748507D01*
X105111493Y-171536232D01*
X104982438Y-171450000D01*
X105111493Y-171363768D01*
X105323768Y-171151493D01*
X105490551Y-170901885D01*
X105605434Y-170624534D01*
X105664000Y-170330101D01*
X105664000Y-170029899D01*
X105605434Y-169735466D01*
X105490551Y-169458115D01*
X105323768Y-169208507D01*
X105111493Y-168996232D01*
X104982438Y-168910000D01*
X105111493Y-168823768D01*
X105323768Y-168611493D01*
X105465083Y-168400000D01*
X105855278Y-168400000D01*
X105892600Y-168403676D01*
X105929922Y-168400000D01*
X105929933Y-168400000D01*
X106041586Y-168389003D01*
X106184847Y-168345546D01*
X106316876Y-168274974D01*
X106432601Y-168180001D01*
X106456404Y-168150997D01*
X108374994Y-166232408D01*
X143383000Y-166232408D01*
X143383000Y-166507592D01*
X143436686Y-166777490D01*
X143541995Y-167031727D01*
X143694880Y-167260535D01*
X143889465Y-167455120D01*
X144118273Y-167608005D01*
X144195515Y-167640000D01*
X144118273Y-167671995D01*
X143889465Y-167824880D01*
X143694880Y-168019465D01*
X143541995Y-168248273D01*
X143436686Y-168502510D01*
X143383000Y-168772408D01*
X143383000Y-169047592D01*
X143436686Y-169317490D01*
X143541995Y-169571727D01*
X143694880Y-169800535D01*
X143889465Y-169995120D01*
X144118273Y-170148005D01*
X144195515Y-170180000D01*
X144118273Y-170211995D01*
X143889465Y-170364880D01*
X143694880Y-170559465D01*
X143541995Y-170788273D01*
X143436686Y-171042510D01*
X143383000Y-171312408D01*
X143383000Y-171587592D01*
X143436686Y-171857490D01*
X143541995Y-172111727D01*
X143694880Y-172340535D01*
X143889465Y-172535120D01*
X144118273Y-172688005D01*
X144189943Y-172717692D01*
X144176977Y-172722364D01*
X144061020Y-172784344D01*
X143994040Y-173024435D01*
X144780000Y-173810395D01*
X145565960Y-173024435D01*
X145498980Y-172784344D01*
X145363240Y-172720515D01*
X145441727Y-172688005D01*
X145670535Y-172535120D01*
X145865120Y-172340535D01*
X146018005Y-172111727D01*
X146123314Y-171857490D01*
X146177000Y-171587592D01*
X146177000Y-171312408D01*
X146123314Y-171042510D01*
X146018005Y-170788273D01*
X145865120Y-170559465D01*
X145670535Y-170364880D01*
X145441727Y-170211995D01*
X145364485Y-170180000D01*
X145441727Y-170148005D01*
X145670535Y-169995120D01*
X145865120Y-169800535D01*
X146018005Y-169571727D01*
X146123314Y-169317490D01*
X146177000Y-169047592D01*
X146177000Y-168772408D01*
X146123314Y-168502510D01*
X146018005Y-168248273D01*
X145865120Y-168019465D01*
X145670535Y-167824880D01*
X145441727Y-167671995D01*
X145364485Y-167640000D01*
X145441727Y-167608005D01*
X145670535Y-167455120D01*
X145865120Y-167260535D01*
X146018005Y-167031727D01*
X146123314Y-166777490D01*
X146177000Y-166507592D01*
X146177000Y-166232408D01*
X146123314Y-165962510D01*
X146018005Y-165708273D01*
X145865120Y-165479465D01*
X145670535Y-165284880D01*
X145441727Y-165131995D01*
X145187490Y-165026686D01*
X144917592Y-164973000D01*
X144642408Y-164973000D01*
X144372510Y-165026686D01*
X144118273Y-165131995D01*
X143889465Y-165284880D01*
X143694880Y-165479465D01*
X143541995Y-165708273D01*
X143436686Y-165962510D01*
X143383000Y-166232408D01*
X108374994Y-166232408D01*
X109190418Y-165416985D01*
X109219411Y-165393191D01*
X109243205Y-165364198D01*
X109243209Y-165364194D01*
X109314383Y-165277467D01*
X109329011Y-165250101D01*
X109384956Y-165145437D01*
X109428413Y-165002176D01*
X109439410Y-164890523D01*
X109439410Y-164890514D01*
X109443086Y-164853191D01*
X109439410Y-164815868D01*
X109439410Y-152249899D01*
X128016000Y-152249899D01*
X128016000Y-152550101D01*
X128074566Y-152844534D01*
X128189449Y-153121885D01*
X128356232Y-153371493D01*
X128568507Y-153583768D01*
X128697562Y-153670000D01*
X128568507Y-153756232D01*
X128356232Y-153968507D01*
X128189449Y-154218115D01*
X128074566Y-154495466D01*
X128016000Y-154789899D01*
X128016000Y-155090101D01*
X128074566Y-155384534D01*
X128189449Y-155661885D01*
X128356232Y-155911493D01*
X128568507Y-156123768D01*
X128697562Y-156210000D01*
X128568507Y-156296232D01*
X128356232Y-156508507D01*
X128189449Y-156758115D01*
X128074566Y-157035466D01*
X128016000Y-157329899D01*
X128016000Y-157630101D01*
X128074566Y-157924534D01*
X128189449Y-158201885D01*
X128356232Y-158451493D01*
X128568507Y-158663768D01*
X128697562Y-158750000D01*
X128568507Y-158836232D01*
X128356232Y-159048507D01*
X128189449Y-159298115D01*
X128074566Y-159575466D01*
X128016000Y-159869899D01*
X128016000Y-160170101D01*
X128074566Y-160464534D01*
X128189449Y-160741885D01*
X128356232Y-160991493D01*
X128568507Y-161203768D01*
X128697562Y-161290000D01*
X128568507Y-161376232D01*
X128356232Y-161588507D01*
X128189449Y-161838115D01*
X128074566Y-162115466D01*
X128016000Y-162409899D01*
X128016000Y-162710101D01*
X128074566Y-163004534D01*
X128189449Y-163281885D01*
X128356232Y-163531493D01*
X128568507Y-163743768D01*
X128818115Y-163910551D01*
X129095466Y-164025434D01*
X129389899Y-164084000D01*
X129690101Y-164084000D01*
X129984534Y-164025434D01*
X130261885Y-163910551D01*
X130511493Y-163743768D01*
X130723768Y-163531493D01*
X130890551Y-163281885D01*
X131005434Y-163004534D01*
X131064000Y-162710101D01*
X131064000Y-162409899D01*
X131005434Y-162115466D01*
X130890551Y-161838115D01*
X130723768Y-161588507D01*
X130511493Y-161376232D01*
X130382438Y-161290000D01*
X130511493Y-161203768D01*
X130723768Y-160991493D01*
X130890551Y-160741885D01*
X131005434Y-160464534D01*
X131064000Y-160170101D01*
X131064000Y-159869899D01*
X131005434Y-159575466D01*
X130890551Y-159298115D01*
X130723768Y-159048507D01*
X130511493Y-158836232D01*
X130382438Y-158750000D01*
X130511493Y-158663768D01*
X130723768Y-158451493D01*
X130890551Y-158201885D01*
X131005434Y-157924534D01*
X131064000Y-157630101D01*
X131064000Y-157329899D01*
X131005434Y-157035466D01*
X130890551Y-156758115D01*
X130723768Y-156508507D01*
X130511493Y-156296232D01*
X130382438Y-156210000D01*
X130511493Y-156123768D01*
X130723768Y-155911493D01*
X130890551Y-155661885D01*
X131005434Y-155384534D01*
X131064000Y-155090101D01*
X131064000Y-154789899D01*
X131005434Y-154495466D01*
X130890551Y-154218115D01*
X130723768Y-153968507D01*
X130511493Y-153756232D01*
X130382438Y-153670000D01*
X130511493Y-153583768D01*
X130723768Y-153371493D01*
X130890551Y-153121885D01*
X131005434Y-152844534D01*
X131064000Y-152550101D01*
X131064000Y-152249899D01*
X131005434Y-151955466D01*
X130890551Y-151678115D01*
X130723768Y-151428507D01*
X130511493Y-151216232D01*
X130261885Y-151049449D01*
X129984534Y-150934566D01*
X129690101Y-150876000D01*
X129389899Y-150876000D01*
X129095466Y-150934566D01*
X128818115Y-151049449D01*
X128568507Y-151216232D01*
X128356232Y-151428507D01*
X128189449Y-151678115D01*
X128074566Y-151955466D01*
X128016000Y-152249899D01*
X109439410Y-152249899D01*
X109439410Y-143043357D01*
X122301000Y-143043357D01*
X122301000Y-143468643D01*
X122383970Y-143885757D01*
X122546719Y-144278670D01*
X122782996Y-144632282D01*
X123083718Y-144933004D01*
X123437330Y-145169281D01*
X123830243Y-145332030D01*
X124247357Y-145415000D01*
X124672643Y-145415000D01*
X125089757Y-145332030D01*
X125482670Y-145169281D01*
X125836282Y-144933004D01*
X126137004Y-144632282D01*
X126373281Y-144278670D01*
X126536030Y-143885757D01*
X126619000Y-143468643D01*
X126619000Y-143043357D01*
X140081000Y-143043357D01*
X140081000Y-143468643D01*
X140163970Y-143885757D01*
X140326719Y-144278670D01*
X140562996Y-144632282D01*
X140863718Y-144933004D01*
X141217330Y-145169281D01*
X141610243Y-145332030D01*
X142027357Y-145415000D01*
X142452643Y-145415000D01*
X142869757Y-145332030D01*
X143262670Y-145169281D01*
X143616282Y-144933004D01*
X143917004Y-144632282D01*
X144153281Y-144278670D01*
X144316030Y-143885757D01*
X144399000Y-143468643D01*
X144399000Y-143043357D01*
X144316030Y-142626243D01*
X144153281Y-142233330D01*
X143917004Y-141879718D01*
X143616282Y-141578996D01*
X143262670Y-141342719D01*
X142869757Y-141179970D01*
X142452643Y-141097000D01*
X142027357Y-141097000D01*
X141610243Y-141179970D01*
X141217330Y-141342719D01*
X140863718Y-141578996D01*
X140562996Y-141879718D01*
X140326719Y-142233330D01*
X140163970Y-142626243D01*
X140081000Y-143043357D01*
X126619000Y-143043357D01*
X126536030Y-142626243D01*
X126373281Y-142233330D01*
X126137004Y-141879718D01*
X125836282Y-141578996D01*
X125482670Y-141342719D01*
X125089757Y-141179970D01*
X124672643Y-141097000D01*
X124247357Y-141097000D01*
X123830243Y-141179970D01*
X123437330Y-141342719D01*
X123083718Y-141578996D01*
X122782996Y-141879718D01*
X122546719Y-142233330D01*
X122383970Y-142626243D01*
X122301000Y-143043357D01*
X109439410Y-143043357D01*
X109439410Y-140756231D01*
X122313374Y-140756231D01*
X122395727Y-141009289D01*
X122666418Y-141139086D01*
X122957230Y-141213580D01*
X123256988Y-141229908D01*
X123554171Y-141187443D01*
X123837359Y-141087816D01*
X123984273Y-141009289D01*
X124066626Y-140756231D01*
X123190000Y-139879605D01*
X122313374Y-140756231D01*
X109439410Y-140756231D01*
X109439410Y-139766988D01*
X121660092Y-139766988D01*
X121702557Y-140064171D01*
X121802184Y-140347359D01*
X121880711Y-140494273D01*
X122133769Y-140576626D01*
X123010395Y-139700000D01*
X123369605Y-139700000D01*
X124246231Y-140576626D01*
X124315176Y-140554189D01*
X127964500Y-140554189D01*
X127964500Y-140827011D01*
X128017725Y-141094589D01*
X128122129Y-141346643D01*
X128273701Y-141573486D01*
X128466614Y-141766399D01*
X128693457Y-141917971D01*
X128945511Y-142022375D01*
X129213089Y-142075600D01*
X129485911Y-142075600D01*
X129753489Y-142022375D01*
X130005543Y-141917971D01*
X130232386Y-141766399D01*
X130425299Y-141573486D01*
X130576871Y-141346643D01*
X130681275Y-141094589D01*
X130713712Y-140931519D01*
X135154541Y-136490691D01*
X135197849Y-136455149D01*
X135339684Y-136282323D01*
X135445076Y-136085147D01*
X135509977Y-135871199D01*
X135526400Y-135704452D01*
X135526400Y-135704443D01*
X135531890Y-135648701D01*
X135526400Y-135592959D01*
X135526400Y-135338086D01*
X135618771Y-135199843D01*
X135723175Y-134947789D01*
X135776400Y-134680211D01*
X135776400Y-134407389D01*
X135723175Y-134139811D01*
X135618771Y-133887757D01*
X135467199Y-133660914D01*
X135274286Y-133468001D01*
X135047443Y-133316429D01*
X134795389Y-133212025D01*
X134527811Y-133158800D01*
X134254989Y-133158800D01*
X133987411Y-133212025D01*
X133735357Y-133316429D01*
X133508514Y-133468001D01*
X133315601Y-133660914D01*
X133164029Y-133887757D01*
X133059625Y-134139811D01*
X133006400Y-134407389D01*
X133006400Y-134680211D01*
X133059625Y-134947789D01*
X133164029Y-135199843D01*
X133192506Y-135242462D01*
X129108581Y-139326388D01*
X128945511Y-139358825D01*
X128693457Y-139463229D01*
X128466614Y-139614801D01*
X128273701Y-139807714D01*
X128122129Y-140034557D01*
X128017725Y-140286611D01*
X127964500Y-140554189D01*
X124315176Y-140554189D01*
X124499289Y-140494273D01*
X124629086Y-140223582D01*
X124703580Y-139932770D01*
X124719908Y-139633012D01*
X124677443Y-139335829D01*
X124577816Y-139052641D01*
X124499289Y-138905727D01*
X124246231Y-138823374D01*
X123369605Y-139700000D01*
X123010395Y-139700000D01*
X122133769Y-138823374D01*
X121880711Y-138905727D01*
X121750914Y-139176418D01*
X121676420Y-139467230D01*
X121660092Y-139766988D01*
X109439410Y-139766988D01*
X109439410Y-134689401D01*
X113828812Y-130300000D01*
X121864917Y-130300000D01*
X122006232Y-130511493D01*
X122218507Y-130723768D01*
X122347562Y-130810000D01*
X122218507Y-130896232D01*
X122006232Y-131108507D01*
X121839449Y-131358115D01*
X121724566Y-131635466D01*
X121666000Y-131929899D01*
X121666000Y-132230101D01*
X121724566Y-132524534D01*
X121839449Y-132801885D01*
X122006232Y-133051493D01*
X122218507Y-133263768D01*
X122347562Y-133350000D01*
X122218507Y-133436232D01*
X122006232Y-133648507D01*
X121839449Y-133898115D01*
X121724566Y-134175466D01*
X121666000Y-134469899D01*
X121666000Y-134770101D01*
X121724566Y-135064534D01*
X121839449Y-135341885D01*
X122006232Y-135591493D01*
X122218507Y-135803768D01*
X122347562Y-135890000D01*
X122218507Y-135976232D01*
X122006232Y-136188507D01*
X121839449Y-136438115D01*
X121724566Y-136715466D01*
X121666000Y-137009899D01*
X121666000Y-137310101D01*
X121724566Y-137604534D01*
X121839449Y-137881885D01*
X122006232Y-138131493D01*
X122218507Y-138343768D01*
X122376622Y-138449417D01*
X122313374Y-138643769D01*
X123190000Y-139520395D01*
X124066626Y-138643769D01*
X124003378Y-138449417D01*
X124161493Y-138343768D01*
X124373768Y-138131493D01*
X124540551Y-137881885D01*
X124655434Y-137604534D01*
X124714000Y-137310101D01*
X124714000Y-137009899D01*
X124655434Y-136715466D01*
X124540551Y-136438115D01*
X124373768Y-136188507D01*
X124161493Y-135976232D01*
X124032438Y-135890000D01*
X124161493Y-135803768D01*
X124373768Y-135591493D01*
X124540551Y-135341885D01*
X124655434Y-135064534D01*
X124714000Y-134770101D01*
X124714000Y-134469899D01*
X124655434Y-134175466D01*
X124540551Y-133898115D01*
X124373768Y-133648507D01*
X124161493Y-133436232D01*
X124032438Y-133350000D01*
X124161493Y-133263768D01*
X124373768Y-133051493D01*
X124540551Y-132801885D01*
X124655434Y-132524534D01*
X124714000Y-132230101D01*
X124714000Y-131929899D01*
X124655434Y-131635466D01*
X124540551Y-131358115D01*
X124373768Y-131108507D01*
X124161493Y-130896232D01*
X124032438Y-130810000D01*
X124161493Y-130723768D01*
X124373768Y-130511493D01*
X124540551Y-130261885D01*
X124655434Y-129984534D01*
X124714000Y-129690101D01*
X124714000Y-129389899D01*
X124655434Y-129095466D01*
X124540551Y-128818115D01*
X124373768Y-128568507D01*
X124161493Y-128356232D01*
X124032438Y-128270000D01*
X124161493Y-128183768D01*
X124373768Y-127971493D01*
X124540551Y-127721885D01*
X124655434Y-127444534D01*
X124714000Y-127150101D01*
X124714000Y-126849899D01*
X124655434Y-126555466D01*
X124540551Y-126278115D01*
X124373768Y-126028507D01*
X124161493Y-125816232D01*
X124032438Y-125730000D01*
X124161493Y-125643768D01*
X124373768Y-125431493D01*
X124540551Y-125181885D01*
X124655434Y-124904534D01*
X124714000Y-124610101D01*
X124714000Y-124309899D01*
X124655434Y-124015466D01*
X124540551Y-123738115D01*
X124373768Y-123488507D01*
X124161493Y-123276232D01*
X124032438Y-123190000D01*
X124161493Y-123103768D01*
X124373768Y-122891493D01*
X124540551Y-122641885D01*
X124655434Y-122364534D01*
X124669943Y-122291589D01*
X131482400Y-122291589D01*
X131482400Y-122564411D01*
X131535625Y-122831989D01*
X131640029Y-123084043D01*
X131791601Y-123310886D01*
X131984514Y-123503799D01*
X132211357Y-123655371D01*
X132463411Y-123759775D01*
X132730989Y-123813000D01*
X133003811Y-123813000D01*
X133271389Y-123759775D01*
X133523443Y-123655371D01*
X133750286Y-123503799D01*
X133943199Y-123310886D01*
X134094771Y-123084043D01*
X134199175Y-122831989D01*
X134231612Y-122668919D01*
X136488041Y-120412491D01*
X136531349Y-120376949D01*
X136673184Y-120204123D01*
X136778576Y-120006947D01*
X136843477Y-119792999D01*
X136859900Y-119626252D01*
X136859900Y-119626243D01*
X136865390Y-119570501D01*
X136859900Y-119514759D01*
X136859900Y-118091486D01*
X136952271Y-117953243D01*
X137056675Y-117701189D01*
X137109900Y-117433611D01*
X137109900Y-117160789D01*
X137056675Y-116893211D01*
X136952271Y-116641157D01*
X136800699Y-116414314D01*
X136607786Y-116221401D01*
X136380943Y-116069829D01*
X136128889Y-115965425D01*
X135861311Y-115912200D01*
X135588489Y-115912200D01*
X135320911Y-115965425D01*
X135068857Y-116069829D01*
X134842014Y-116221401D01*
X134649101Y-116414314D01*
X134497529Y-116641157D01*
X134393125Y-116893211D01*
X134339900Y-117160789D01*
X134339900Y-117433611D01*
X134393125Y-117701189D01*
X134497529Y-117953243D01*
X134589900Y-118091486D01*
X134589901Y-119100367D01*
X132626481Y-121063788D01*
X132463411Y-121096225D01*
X132211357Y-121200629D01*
X131984514Y-121352201D01*
X131791601Y-121545114D01*
X131640029Y-121771957D01*
X131535625Y-122024011D01*
X131482400Y-122291589D01*
X124669943Y-122291589D01*
X124714000Y-122070101D01*
X124714000Y-121769899D01*
X124655434Y-121475466D01*
X124540551Y-121198115D01*
X124373768Y-120948507D01*
X124161493Y-120736232D01*
X124032438Y-120650000D01*
X124161493Y-120563768D01*
X124373768Y-120351493D01*
X124540551Y-120101885D01*
X124655434Y-119824534D01*
X124714000Y-119530101D01*
X124714000Y-119229899D01*
X124655434Y-118935466D01*
X124540551Y-118658115D01*
X124373768Y-118408507D01*
X124161493Y-118196232D01*
X124032438Y-118110000D01*
X124161493Y-118023768D01*
X124373768Y-117811493D01*
X124540551Y-117561885D01*
X124655434Y-117284534D01*
X124714000Y-116990101D01*
X124714000Y-116689899D01*
X124655434Y-116395466D01*
X124540551Y-116118115D01*
X124373768Y-115868507D01*
X124161493Y-115656232D01*
X124032438Y-115570000D01*
X124161493Y-115483768D01*
X124373768Y-115271493D01*
X124540551Y-115021885D01*
X124655434Y-114744534D01*
X124714000Y-114450101D01*
X124714000Y-114149899D01*
X124655434Y-113855466D01*
X124540551Y-113578115D01*
X124373768Y-113328507D01*
X124161493Y-113116232D01*
X124032438Y-113030000D01*
X124161493Y-112943768D01*
X124373768Y-112731493D01*
X124540551Y-112481885D01*
X124655434Y-112204534D01*
X124714000Y-111910101D01*
X124714000Y-111609899D01*
X124655434Y-111315466D01*
X124540551Y-111038115D01*
X124373768Y-110788507D01*
X124161493Y-110576232D01*
X124003378Y-110470583D01*
X124066626Y-110276231D01*
X123190000Y-109399605D01*
X122313374Y-110276231D01*
X122376622Y-110470583D01*
X122218507Y-110576232D01*
X122006232Y-110788507D01*
X121839449Y-111038115D01*
X121724566Y-111315466D01*
X121666000Y-111609899D01*
X121666000Y-111910101D01*
X121724566Y-112204534D01*
X121839449Y-112481885D01*
X122006232Y-112731493D01*
X122218507Y-112943768D01*
X122347562Y-113030000D01*
X122218507Y-113116232D01*
X122006232Y-113328507D01*
X121839449Y-113578115D01*
X121724566Y-113855466D01*
X121666000Y-114149899D01*
X121666000Y-114450101D01*
X121724566Y-114744534D01*
X121839449Y-115021885D01*
X122006232Y-115271493D01*
X122218507Y-115483768D01*
X122347562Y-115570000D01*
X122218507Y-115656232D01*
X122006232Y-115868507D01*
X121839449Y-116118115D01*
X121724566Y-116395466D01*
X121666000Y-116689899D01*
X121666000Y-116990101D01*
X121724566Y-117284534D01*
X121839449Y-117561885D01*
X122006232Y-117811493D01*
X122218507Y-118023768D01*
X122347562Y-118110000D01*
X122218507Y-118196232D01*
X122006232Y-118408507D01*
X121839449Y-118658115D01*
X121724566Y-118935466D01*
X121666000Y-119229899D01*
X121666000Y-119530101D01*
X121724566Y-119824534D01*
X121839449Y-120101885D01*
X122006232Y-120351493D01*
X122218507Y-120563768D01*
X122347562Y-120650000D01*
X122218507Y-120736232D01*
X122006232Y-120948507D01*
X121864917Y-121160000D01*
X117757331Y-121160000D01*
X121260746Y-117656587D01*
X121304049Y-117621049D01*
X121445884Y-117448223D01*
X121551276Y-117251047D01*
X121616177Y-117037099D01*
X121632600Y-116870352D01*
X121638091Y-116814600D01*
X121632600Y-116758848D01*
X121632600Y-110466869D01*
X121638091Y-110411117D01*
X121616177Y-110188618D01*
X121551276Y-109974670D01*
X121445884Y-109777494D01*
X121339589Y-109647973D01*
X121339587Y-109647971D01*
X121304049Y-109604668D01*
X121260746Y-109569130D01*
X120978604Y-109286988D01*
X121660092Y-109286988D01*
X121702557Y-109584171D01*
X121802184Y-109867359D01*
X121880711Y-110014273D01*
X122133769Y-110096626D01*
X123010395Y-109220000D01*
X123369605Y-109220000D01*
X124246231Y-110096626D01*
X124499289Y-110014273D01*
X124629086Y-109743582D01*
X124703580Y-109452770D01*
X124719908Y-109153012D01*
X124677443Y-108855829D01*
X124577816Y-108572641D01*
X124499289Y-108425727D01*
X124246231Y-108343374D01*
X123369605Y-109220000D01*
X123010395Y-109220000D01*
X122133769Y-108343374D01*
X121880711Y-108425727D01*
X121750914Y-108696418D01*
X121676420Y-108987230D01*
X121660092Y-109286988D01*
X120978604Y-109286988D01*
X120318478Y-108626864D01*
X120282932Y-108583551D01*
X120110106Y-108441716D01*
X119912930Y-108336324D01*
X119698982Y-108271423D01*
X119532235Y-108255000D01*
X119532234Y-108255000D01*
X119476483Y-108249509D01*
X119420732Y-108255000D01*
X119245000Y-108255000D01*
X119245000Y-107289518D01*
X119265537Y-107264494D01*
X119324502Y-107154180D01*
X119360812Y-107034482D01*
X119373072Y-106910000D01*
X119373072Y-105910000D01*
X119360812Y-105785518D01*
X119324502Y-105665820D01*
X119265537Y-105555506D01*
X119186185Y-105458815D01*
X119126704Y-105410000D01*
X119186185Y-105361185D01*
X119265537Y-105264494D01*
X119324502Y-105154180D01*
X119360812Y-105034482D01*
X119373072Y-104910000D01*
X119370000Y-104695750D01*
X119211250Y-104537000D01*
X118237000Y-104537000D01*
X118237000Y-104557000D01*
X117983000Y-104557000D01*
X117983000Y-104537000D01*
X117008750Y-104537000D01*
X116850000Y-104695750D01*
X116846928Y-104910000D01*
X116859188Y-105034482D01*
X116895498Y-105154180D01*
X116954463Y-105264494D01*
X116963085Y-105275000D01*
X114500131Y-105275000D01*
X114446996Y-105221865D01*
X114411449Y-105178551D01*
X114238623Y-105036716D01*
X114041447Y-104931324D01*
X113827499Y-104866423D01*
X113660752Y-104850000D01*
X113660751Y-104850000D01*
X113605000Y-104844509D01*
X113549249Y-104850000D01*
X112948072Y-104850000D01*
X112948072Y-103910000D01*
X116846928Y-103910000D01*
X116850000Y-104124250D01*
X117008750Y-104283000D01*
X117983000Y-104283000D01*
X117983000Y-103433750D01*
X118237000Y-103433750D01*
X118237000Y-104283000D01*
X119211250Y-104283000D01*
X119370000Y-104124250D01*
X119373072Y-103910000D01*
X119360812Y-103785518D01*
X119324502Y-103665820D01*
X119265537Y-103555506D01*
X119186185Y-103458815D01*
X119089494Y-103379463D01*
X118979180Y-103320498D01*
X118859482Y-103284188D01*
X118735000Y-103271928D01*
X118395750Y-103275000D01*
X118237000Y-103433750D01*
X117983000Y-103433750D01*
X117824250Y-103275000D01*
X117485000Y-103271928D01*
X117360518Y-103284188D01*
X117240820Y-103320498D01*
X117130506Y-103379463D01*
X117033815Y-103458815D01*
X116954463Y-103555506D01*
X116895498Y-103665820D01*
X116859188Y-103785518D01*
X116846928Y-103910000D01*
X112948072Y-103910000D01*
X112948072Y-103685000D01*
X112935812Y-103560518D01*
X112899502Y-103440820D01*
X112840537Y-103330506D01*
X112761185Y-103233815D01*
X112664494Y-103154463D01*
X112554180Y-103095498D01*
X112434482Y-103059188D01*
X112310000Y-103046928D01*
X111210000Y-103046928D01*
X111085518Y-103059188D01*
X110965820Y-103095498D01*
X110855506Y-103154463D01*
X110758815Y-103233815D01*
X110679463Y-103330506D01*
X110620498Y-103440820D01*
X110584188Y-103560518D01*
X110571928Y-103685000D01*
X110571928Y-108285000D01*
X110584188Y-108409482D01*
X110620498Y-108529180D01*
X110679463Y-108639494D01*
X110758815Y-108736185D01*
X110855506Y-108815537D01*
X110965820Y-108874502D01*
X111085518Y-108910812D01*
X111210000Y-108923072D01*
X112310000Y-108923072D01*
X112434482Y-108910812D01*
X112554180Y-108874502D01*
X112664494Y-108815537D01*
X112761185Y-108736185D01*
X112840537Y-108639494D01*
X112899502Y-108529180D01*
X112935812Y-108409482D01*
X112948072Y-108285000D01*
X112948072Y-107120000D01*
X113134869Y-107120000D01*
X113188004Y-107173135D01*
X113223551Y-107216449D01*
X113396377Y-107358284D01*
X113593553Y-107463676D01*
X113807501Y-107528577D01*
X114030000Y-107550491D01*
X114085752Y-107545000D01*
X116975000Y-107545000D01*
X116975001Y-108443854D01*
X116920498Y-108545820D01*
X116884188Y-108665518D01*
X116871928Y-108790000D01*
X116871928Y-109990000D01*
X116884188Y-110114482D01*
X116920498Y-110234180D01*
X116979463Y-110344494D01*
X117058815Y-110441185D01*
X117118296Y-110490000D01*
X117058815Y-110538815D01*
X116979463Y-110635506D01*
X116920498Y-110745820D01*
X116884188Y-110865518D01*
X116871928Y-110990000D01*
X116871928Y-112190000D01*
X116884188Y-112314482D01*
X116920498Y-112434180D01*
X116975000Y-112536145D01*
X116975001Y-113540018D01*
X116929463Y-113595506D01*
X116870498Y-113705820D01*
X116834188Y-113825518D01*
X116821928Y-113950000D01*
X116821928Y-114650000D01*
X116834188Y-114774482D01*
X116870498Y-114894180D01*
X116929463Y-115004494D01*
X117008815Y-115101185D01*
X117105506Y-115180537D01*
X117215820Y-115239502D01*
X117250427Y-115250000D01*
X117215820Y-115260498D01*
X117105506Y-115319463D01*
X117008815Y-115398815D01*
X116929463Y-115495506D01*
X116870498Y-115605820D01*
X116834188Y-115725518D01*
X116821928Y-115850000D01*
X116825000Y-115914250D01*
X116983750Y-116073000D01*
X117983000Y-116073000D01*
X117983000Y-116053000D01*
X118237000Y-116053000D01*
X118237000Y-116073000D01*
X118257000Y-116073000D01*
X118257000Y-116327000D01*
X118237000Y-116327000D01*
X118237000Y-117026250D01*
X118395750Y-117185000D01*
X118521011Y-117186056D01*
X116307068Y-119400001D01*
X115257769Y-119400001D01*
X115255889Y-116698459D01*
X115256118Y-116550000D01*
X116821928Y-116550000D01*
X116834188Y-116674482D01*
X116870498Y-116794180D01*
X116929463Y-116904494D01*
X117008815Y-117001185D01*
X117105506Y-117080537D01*
X117215820Y-117139502D01*
X117335518Y-117175812D01*
X117460000Y-117188072D01*
X117824250Y-117185000D01*
X117983000Y-117026250D01*
X117983000Y-116327000D01*
X116983750Y-116327000D01*
X116825000Y-116485750D01*
X116821928Y-116550000D01*
X115256118Y-116550000D01*
X115258072Y-115285000D01*
X115245812Y-115160518D01*
X115238071Y-115135000D01*
X115245812Y-115109482D01*
X115258072Y-114985000D01*
X115255889Y-113571541D01*
X115258072Y-110435000D01*
X115245812Y-110310518D01*
X115209502Y-110190820D01*
X115150537Y-110080506D01*
X115071185Y-109983815D01*
X114974494Y-109904463D01*
X114864180Y-109845498D01*
X114744482Y-109809188D01*
X114620000Y-109796928D01*
X111017691Y-109799092D01*
X109370000Y-109796928D01*
X109245518Y-109809188D01*
X109220000Y-109816929D01*
X109194482Y-109809188D01*
X109070000Y-109796928D01*
X107422309Y-109799092D01*
X103820000Y-109796928D01*
X103695518Y-109809188D01*
X103575820Y-109845498D01*
X103465506Y-109904463D01*
X103368815Y-109983815D01*
X103289463Y-110080506D01*
X103230498Y-110190820D01*
X103194188Y-110310518D01*
X103181928Y-110435000D01*
X103184111Y-113571541D01*
X103181928Y-114985000D01*
X103194188Y-115109482D01*
X103201929Y-115135000D01*
X103194188Y-115160518D01*
X103181928Y-115285000D01*
X103184111Y-116698459D01*
X103181928Y-119835000D01*
X103194188Y-119959482D01*
X103230498Y-120079180D01*
X103289463Y-120189494D01*
X103368815Y-120286185D01*
X103465506Y-120365537D01*
X103575820Y-120424502D01*
X103695518Y-120460812D01*
X103820000Y-120473072D01*
X107422309Y-120470908D01*
X109070000Y-120473072D01*
X109194482Y-120460812D01*
X109220000Y-120453071D01*
X109245518Y-120460812D01*
X109370000Y-120473072D01*
X111017691Y-120470908D01*
X113063232Y-120472137D01*
X112229669Y-121305700D01*
X106938952Y-121305700D01*
X106883200Y-121300209D01*
X106827448Y-121305700D01*
X106660701Y-121322123D01*
X106446753Y-121387024D01*
X106249577Y-121492416D01*
X106076751Y-121634251D01*
X106041211Y-121677557D01*
X104761165Y-122957604D01*
X104717851Y-122993151D01*
X104576016Y-123165977D01*
X104483322Y-123339398D01*
X104470624Y-123363154D01*
X104405723Y-123577102D01*
X104383809Y-123799600D01*
X104389300Y-123855351D01*
X104389300Y-124431572D01*
X104364837Y-124385806D01*
X104285485Y-124289115D01*
X104188794Y-124209763D01*
X104078480Y-124150798D01*
X103958782Y-124114488D01*
X103834300Y-124102228D01*
X103270050Y-124105300D01*
X103111300Y-124264050D01*
X103111300Y-125463300D01*
X103131300Y-125463300D01*
X103131300Y-125717300D01*
X103111300Y-125717300D01*
X103111300Y-126916550D01*
X103270050Y-127075300D01*
X103834300Y-127078372D01*
X103958782Y-127066112D01*
X104078480Y-127029802D01*
X104188794Y-126970837D01*
X104285485Y-126891485D01*
X104364837Y-126794794D01*
X104423802Y-126684480D01*
X104444693Y-126615613D01*
X104469166Y-126645434D01*
X104695286Y-126831006D01*
X104953266Y-126968899D01*
X105233189Y-127053813D01*
X105451350Y-127075300D01*
X105597250Y-127075300D01*
X105815411Y-127053813D01*
X106095334Y-126968899D01*
X106353314Y-126831006D01*
X106579434Y-126645434D01*
X106765006Y-126419314D01*
X106794300Y-126364509D01*
X106823594Y-126419314D01*
X107009166Y-126645434D01*
X107235286Y-126831006D01*
X107493266Y-126968899D01*
X107773189Y-127053813D01*
X107991350Y-127075300D01*
X108137250Y-127075300D01*
X108355411Y-127053813D01*
X108635334Y-126968899D01*
X108893314Y-126831006D01*
X109119434Y-126645434D01*
X109305006Y-126419314D01*
X109442899Y-126161334D01*
X109527813Y-125881411D01*
X109556485Y-125590300D01*
X109527813Y-125299189D01*
X109442899Y-125019266D01*
X109305006Y-124761286D01*
X109119434Y-124535166D01*
X108893314Y-124349594D01*
X108635334Y-124211701D01*
X108355411Y-124126787D01*
X108137250Y-124105300D01*
X107991350Y-124105300D01*
X107773189Y-124126787D01*
X107493266Y-124211701D01*
X107235286Y-124349594D01*
X107009166Y-124535166D01*
X106823594Y-124761286D01*
X106794300Y-124816091D01*
X106765006Y-124761286D01*
X106659300Y-124632483D01*
X106659300Y-124269731D01*
X107353332Y-123575700D01*
X112644049Y-123575700D01*
X112699800Y-123581191D01*
X112755551Y-123575700D01*
X112755552Y-123575700D01*
X112922299Y-123559277D01*
X113136247Y-123494376D01*
X113333423Y-123388984D01*
X113506249Y-123247149D01*
X113541796Y-123203835D01*
X115075631Y-121670001D01*
X115964397Y-121670001D01*
X114707152Y-122927247D01*
X114586071Y-122951332D01*
X114415911Y-123021814D01*
X114262772Y-123124138D01*
X114132538Y-123254372D01*
X114030214Y-123407511D01*
X113959732Y-123577671D01*
X113923800Y-123758311D01*
X113923800Y-123942489D01*
X113959732Y-124123129D01*
X114030214Y-124293289D01*
X114132538Y-124446428D01*
X114262772Y-124576662D01*
X114415911Y-124678986D01*
X114586071Y-124749468D01*
X114766711Y-124785400D01*
X114950889Y-124785400D01*
X115131529Y-124749468D01*
X115301689Y-124678986D01*
X115454828Y-124576662D01*
X115585062Y-124446428D01*
X115687386Y-124293289D01*
X115757868Y-124123129D01*
X115781953Y-124002048D01*
X117104002Y-122680000D01*
X121864917Y-122680000D01*
X122006232Y-122891493D01*
X122218507Y-123103768D01*
X122347562Y-123190000D01*
X122218507Y-123276232D01*
X122006232Y-123488507D01*
X121839449Y-123738115D01*
X121724566Y-124015466D01*
X121666000Y-124309899D01*
X121666000Y-124610101D01*
X121724566Y-124904534D01*
X121839449Y-125181885D01*
X122006232Y-125431493D01*
X122218507Y-125643768D01*
X122347562Y-125730000D01*
X122218507Y-125816232D01*
X122006232Y-126028507D01*
X121864917Y-126240000D01*
X115454923Y-126240000D01*
X115417600Y-126236324D01*
X115380277Y-126240000D01*
X115380267Y-126240000D01*
X115268614Y-126250997D01*
X115125353Y-126294454D01*
X114993323Y-126365026D01*
X114954669Y-126396749D01*
X114877599Y-126459999D01*
X114853801Y-126488997D01*
X107718398Y-133624401D01*
X107689400Y-133648199D01*
X107665602Y-133677197D01*
X107665601Y-133677198D01*
X107594426Y-133763924D01*
X107523854Y-133895954D01*
X107480398Y-134039215D01*
X107465724Y-134188200D01*
X107469401Y-134225533D01*
X107469400Y-159882998D01*
X105552399Y-161800000D01*
X105465083Y-161800000D01*
X105323768Y-161588507D01*
X105111493Y-161376232D01*
X104982438Y-161290000D01*
X105111493Y-161203768D01*
X105323768Y-160991493D01*
X105490551Y-160741885D01*
X105605434Y-160464534D01*
X105664000Y-160170101D01*
X105664000Y-159869899D01*
X105605434Y-159575466D01*
X105490551Y-159298115D01*
X105323768Y-159048507D01*
X105111493Y-158836232D01*
X104982438Y-158750000D01*
X105111493Y-158663768D01*
X105323768Y-158451493D01*
X105490551Y-158201885D01*
X105605434Y-157924534D01*
X105664000Y-157630101D01*
X105664000Y-157329899D01*
X105605434Y-157035466D01*
X105490551Y-156758115D01*
X105323768Y-156508507D01*
X105111493Y-156296232D01*
X104953378Y-156190583D01*
X105016626Y-155996231D01*
X104140000Y-155119605D01*
X103263374Y-155996231D01*
X103326622Y-156190583D01*
X103168507Y-156296232D01*
X102956232Y-156508507D01*
X102789449Y-156758115D01*
X102674566Y-157035466D01*
X102616000Y-157329899D01*
X100443707Y-157329899D01*
X100444185Y-155006988D01*
X102610092Y-155006988D01*
X102652557Y-155304171D01*
X102752184Y-155587359D01*
X102830711Y-155734273D01*
X103083769Y-155816626D01*
X103960395Y-154940000D01*
X104319605Y-154940000D01*
X105196231Y-155816626D01*
X105449289Y-155734273D01*
X105579086Y-155463582D01*
X105653580Y-155172770D01*
X105669908Y-154873012D01*
X105627443Y-154575829D01*
X105527816Y-154292641D01*
X105449289Y-154145727D01*
X105196231Y-154063374D01*
X104319605Y-154940000D01*
X103960395Y-154940000D01*
X103083769Y-154063374D01*
X102830711Y-154145727D01*
X102700914Y-154416418D01*
X102626420Y-154707230D01*
X102610092Y-155006988D01*
X100444185Y-155006988D01*
X100444751Y-152249899D01*
X102616000Y-152249899D01*
X102616000Y-152550101D01*
X102674566Y-152844534D01*
X102789449Y-153121885D01*
X102956232Y-153371493D01*
X103168507Y-153583768D01*
X103326622Y-153689417D01*
X103263374Y-153883769D01*
X104140000Y-154760395D01*
X105016626Y-153883769D01*
X104953378Y-153689417D01*
X105111493Y-153583768D01*
X105323768Y-153371493D01*
X105490551Y-153121885D01*
X105605434Y-152844534D01*
X105664000Y-152550101D01*
X105664000Y-152249899D01*
X105605434Y-151955466D01*
X105490551Y-151678115D01*
X105323768Y-151428507D01*
X105111493Y-151216232D01*
X104861885Y-151049449D01*
X104584534Y-150934566D01*
X104290101Y-150876000D01*
X103989899Y-150876000D01*
X103695466Y-150934566D01*
X103418115Y-151049449D01*
X103168507Y-151216232D01*
X102956232Y-151428507D01*
X102789449Y-151678115D01*
X102674566Y-151955466D01*
X102616000Y-152249899D01*
X100444751Y-152249899D01*
X100448465Y-134191489D01*
X101535800Y-134191489D01*
X101535800Y-134464311D01*
X101589025Y-134731889D01*
X101693429Y-134983943D01*
X101845001Y-135210786D01*
X102037914Y-135403699D01*
X102264757Y-135555271D01*
X102516811Y-135659675D01*
X102679880Y-135692112D01*
X103957501Y-136969734D01*
X103957500Y-138727914D01*
X103865129Y-138866157D01*
X103760725Y-139118211D01*
X103707500Y-139385789D01*
X103707500Y-139658611D01*
X103760725Y-139926189D01*
X103865129Y-140178243D01*
X104016701Y-140405086D01*
X104209614Y-140597999D01*
X104436457Y-140749571D01*
X104688511Y-140853975D01*
X104956089Y-140907200D01*
X105228911Y-140907200D01*
X105496489Y-140853975D01*
X105748543Y-140749571D01*
X105975386Y-140597999D01*
X106168299Y-140405086D01*
X106319871Y-140178243D01*
X106424275Y-139926189D01*
X106477500Y-139658611D01*
X106477500Y-139385789D01*
X106424275Y-139118211D01*
X106319871Y-138866157D01*
X106227500Y-138727914D01*
X106227500Y-136555352D01*
X106232991Y-136499600D01*
X106211077Y-136277101D01*
X106146176Y-136063153D01*
X106040784Y-135865977D01*
X105934489Y-135736456D01*
X105934487Y-135736454D01*
X105898949Y-135693151D01*
X105855646Y-135657613D01*
X104285012Y-134086980D01*
X104252575Y-133923911D01*
X104148171Y-133671857D01*
X103996599Y-133445014D01*
X103803686Y-133252101D01*
X103576843Y-133100529D01*
X103324789Y-132996125D01*
X103057211Y-132942900D01*
X102784389Y-132942900D01*
X102516811Y-132996125D01*
X102264757Y-133100529D01*
X102037914Y-133252101D01*
X101845001Y-133445014D01*
X101693429Y-133671857D01*
X101589025Y-133923911D01*
X101535800Y-134191489D01*
X100448465Y-134191489D01*
X100450059Y-126440300D01*
X101496228Y-126440300D01*
X101508488Y-126564782D01*
X101544798Y-126684480D01*
X101603763Y-126794794D01*
X101683115Y-126891485D01*
X101779806Y-126970837D01*
X101890120Y-127029802D01*
X102009818Y-127066112D01*
X102134300Y-127078372D01*
X102698550Y-127075300D01*
X102857300Y-126916550D01*
X102857300Y-125717300D01*
X101658050Y-125717300D01*
X101499300Y-125876050D01*
X101496228Y-126440300D01*
X100450059Y-126440300D01*
X100450408Y-124740300D01*
X101496228Y-124740300D01*
X101499300Y-125304550D01*
X101658050Y-125463300D01*
X102857300Y-125463300D01*
X102857300Y-124264050D01*
X102698550Y-124105300D01*
X102134300Y-124102228D01*
X102009818Y-124114488D01*
X101890120Y-124150798D01*
X101779806Y-124209763D01*
X101683115Y-124289115D01*
X101603763Y-124385806D01*
X101544798Y-124496120D01*
X101508488Y-124615818D01*
X101496228Y-124740300D01*
X100450408Y-124740300D01*
X100454000Y-107276115D01*
X100523815Y-107361185D01*
X100620506Y-107440537D01*
X100730820Y-107499502D01*
X100850518Y-107535812D01*
X100975000Y-107548072D01*
X101314250Y-107545000D01*
X101473000Y-107386250D01*
X101473000Y-106537000D01*
X101727000Y-106537000D01*
X101727000Y-107386250D01*
X101885750Y-107545000D01*
X102225000Y-107548072D01*
X102349482Y-107535812D01*
X102469180Y-107499502D01*
X102579494Y-107440537D01*
X102676185Y-107361185D01*
X102755537Y-107264494D01*
X102814502Y-107154180D01*
X102850812Y-107034482D01*
X102863072Y-106910000D01*
X102860000Y-106695750D01*
X102701250Y-106537000D01*
X101727000Y-106537000D01*
X101473000Y-106537000D01*
X101453000Y-106537000D01*
X101453000Y-106283000D01*
X101473000Y-106283000D01*
X101473000Y-106263000D01*
X101727000Y-106263000D01*
X101727000Y-106283000D01*
X102701250Y-106283000D01*
X102860000Y-106124250D01*
X102863072Y-105910000D01*
X102850812Y-105785518D01*
X102814502Y-105665820D01*
X102755537Y-105555506D01*
X102746915Y-105545000D01*
X104634869Y-105545000D01*
X105491928Y-106402060D01*
X105491928Y-108285000D01*
X105504188Y-108409482D01*
X105540498Y-108529180D01*
X105599463Y-108639494D01*
X105678815Y-108736185D01*
X105775506Y-108815537D01*
X105885820Y-108874502D01*
X106005518Y-108910812D01*
X106130000Y-108923072D01*
X107230000Y-108923072D01*
X107354482Y-108910812D01*
X107474180Y-108874502D01*
X107584494Y-108815537D01*
X107681185Y-108736185D01*
X107760537Y-108639494D01*
X107819502Y-108529180D01*
X107855812Y-108409482D01*
X107868072Y-108285000D01*
X107868072Y-103685000D01*
X107855812Y-103560518D01*
X107819502Y-103440820D01*
X107815000Y-103432397D01*
X107815000Y-101449899D01*
X121666000Y-101449899D01*
X121666000Y-101750101D01*
X121724566Y-102044534D01*
X121839449Y-102321885D01*
X122006232Y-102571493D01*
X122218507Y-102783768D01*
X122347562Y-102870000D01*
X122218507Y-102956232D01*
X122006232Y-103168507D01*
X121839449Y-103418115D01*
X121724566Y-103695466D01*
X121666000Y-103989899D01*
X121666000Y-104290101D01*
X121724566Y-104584534D01*
X121839449Y-104861885D01*
X122006232Y-105111493D01*
X122218507Y-105323768D01*
X122347562Y-105410000D01*
X122218507Y-105496232D01*
X122006232Y-105708507D01*
X121839449Y-105958115D01*
X121724566Y-106235466D01*
X121666000Y-106529899D01*
X121666000Y-106830101D01*
X121724566Y-107124534D01*
X121839449Y-107401885D01*
X122006232Y-107651493D01*
X122218507Y-107863768D01*
X122376622Y-107969417D01*
X122313374Y-108163769D01*
X123190000Y-109040395D01*
X124066626Y-108163769D01*
X124003378Y-107969417D01*
X124161493Y-107863768D01*
X124373768Y-107651493D01*
X124540551Y-107401885D01*
X124655434Y-107124534D01*
X124714000Y-106830101D01*
X124714000Y-106529899D01*
X124655434Y-106235466D01*
X124540551Y-105958115D01*
X124373768Y-105708507D01*
X124161493Y-105496232D01*
X124032438Y-105410000D01*
X124161493Y-105323768D01*
X124373768Y-105111493D01*
X124540551Y-104861885D01*
X124655434Y-104584534D01*
X124714000Y-104290101D01*
X124714000Y-103989899D01*
X124655434Y-103695466D01*
X124540551Y-103418115D01*
X124373768Y-103168507D01*
X124161493Y-102956232D01*
X124032438Y-102870000D01*
X124161493Y-102783768D01*
X124373768Y-102571493D01*
X124540551Y-102321885D01*
X124655434Y-102044534D01*
X124714000Y-101750101D01*
X124714000Y-101449899D01*
X124655434Y-101155466D01*
X124540551Y-100878115D01*
X124373768Y-100628507D01*
X124161493Y-100416232D01*
X123911885Y-100249449D01*
X123634534Y-100134566D01*
X123340101Y-100076000D01*
X123039899Y-100076000D01*
X122745466Y-100134566D01*
X122468115Y-100249449D01*
X122218507Y-100416232D01*
X122006232Y-100628507D01*
X121839449Y-100878115D01*
X121724566Y-101155466D01*
X121666000Y-101449899D01*
X107815000Y-101449899D01*
X107815000Y-99585128D01*
X108219782Y-99855595D01*
X108881310Y-100129609D01*
X109583584Y-100269300D01*
X110299616Y-100269300D01*
X111001890Y-100129609D01*
X111663418Y-99855595D01*
X112258777Y-99457789D01*
X112523580Y-99192986D01*
X114562519Y-99192986D01*
X114898706Y-99662168D01*
X115528668Y-100002537D01*
X116212927Y-100213466D01*
X116925189Y-100286850D01*
X117638082Y-100219869D01*
X118324209Y-100015096D01*
X118957203Y-99680402D01*
X118984494Y-99662168D01*
X119320681Y-99192986D01*
X116941600Y-96813905D01*
X114562519Y-99192986D01*
X112523580Y-99192986D01*
X112765089Y-98951477D01*
X113162895Y-98356118D01*
X113436909Y-97694590D01*
X113447987Y-97638897D01*
X113560804Y-98016909D01*
X113895498Y-98649903D01*
X113913732Y-98677194D01*
X114382914Y-99013381D01*
X116761995Y-96634300D01*
X117121205Y-96634300D01*
X119500286Y-99013381D01*
X119969468Y-98677194D01*
X120309837Y-98047232D01*
X120520766Y-97362973D01*
X120524847Y-97323357D01*
X122301000Y-97323357D01*
X122301000Y-97748643D01*
X122383970Y-98165757D01*
X122546719Y-98558670D01*
X122782996Y-98912282D01*
X123083718Y-99213004D01*
X123437330Y-99449281D01*
X123830243Y-99612030D01*
X124247357Y-99695000D01*
X124672643Y-99695000D01*
X125089757Y-99612030D01*
X125482670Y-99449281D01*
X125836282Y-99213004D01*
X126137004Y-98912282D01*
X126373281Y-98558670D01*
X126536030Y-98165757D01*
X126619000Y-97748643D01*
X126619000Y-97323357D01*
X140081000Y-97323357D01*
X140081000Y-97748643D01*
X140163970Y-98165757D01*
X140326719Y-98558670D01*
X140562996Y-98912282D01*
X140863718Y-99213004D01*
X141217330Y-99449281D01*
X141610243Y-99612030D01*
X142027357Y-99695000D01*
X142452643Y-99695000D01*
X142869757Y-99612030D01*
X143262670Y-99449281D01*
X143616282Y-99213004D01*
X143917004Y-98912282D01*
X144153281Y-98558670D01*
X144316030Y-98165757D01*
X144399000Y-97748643D01*
X144399000Y-97323357D01*
X144316030Y-96906243D01*
X144153281Y-96513330D01*
X143917004Y-96159718D01*
X143616282Y-95858996D01*
X143262670Y-95622719D01*
X142869757Y-95459970D01*
X142452643Y-95377000D01*
X142027357Y-95377000D01*
X141610243Y-95459970D01*
X141217330Y-95622719D01*
X140863718Y-95858996D01*
X140562996Y-96159718D01*
X140326719Y-96513330D01*
X140163970Y-96906243D01*
X140081000Y-97323357D01*
X126619000Y-97323357D01*
X126536030Y-96906243D01*
X126373281Y-96513330D01*
X126137004Y-96159718D01*
X125836282Y-95858996D01*
X125482670Y-95622719D01*
X125089757Y-95459970D01*
X124672643Y-95377000D01*
X124247357Y-95377000D01*
X123830243Y-95459970D01*
X123437330Y-95622719D01*
X123083718Y-95858996D01*
X122782996Y-96159718D01*
X122546719Y-96513330D01*
X122383970Y-96906243D01*
X122301000Y-97323357D01*
X120524847Y-97323357D01*
X120594150Y-96650711D01*
X120527169Y-95937818D01*
X120322396Y-95251691D01*
X119987702Y-94618697D01*
X119969468Y-94591406D01*
X119500286Y-94255219D01*
X117121205Y-96634300D01*
X116761995Y-96634300D01*
X114382914Y-94255219D01*
X113913732Y-94591406D01*
X113573363Y-95221368D01*
X113447792Y-95628723D01*
X113436909Y-95574010D01*
X113162895Y-94912482D01*
X112765089Y-94317123D01*
X112523580Y-94075614D01*
X114562519Y-94075614D01*
X116941600Y-96454695D01*
X119320681Y-94075614D01*
X118984494Y-93606432D01*
X118354532Y-93266063D01*
X117670273Y-93055134D01*
X116958011Y-92981750D01*
X116245118Y-93048731D01*
X115558991Y-93253504D01*
X114925997Y-93588198D01*
X114898706Y-93606432D01*
X114562519Y-94075614D01*
X112523580Y-94075614D01*
X112258777Y-93810811D01*
X111663418Y-93413005D01*
X111001890Y-93138991D01*
X110299616Y-92999300D01*
X109583584Y-92999300D01*
X108881310Y-93138991D01*
X108219782Y-93413005D01*
X107624423Y-93810811D01*
X107118111Y-94317123D01*
X106720305Y-94912482D01*
X106446291Y-95574010D01*
X106397979Y-95816890D01*
X106319263Y-95895606D01*
X106425600Y-95361015D01*
X106425600Y-94605585D01*
X106278223Y-93864672D01*
X105989133Y-93166746D01*
X105751832Y-92811600D01*
X145716712Y-92811600D01*
X145445467Y-93217546D01*
M02*
