G04 #@! TF.GenerationSoftware,KiCad,Pcbnew,(5.1.0)-1*
G04 #@! TF.CreationDate,2019-04-08T01:07:25-05:00*
G04 #@! TF.ProjectId,TheHub2,54686548-7562-4322-9e6b-696361645f70,1.0*
G04 #@! TF.SameCoordinates,Original*
G04 #@! TF.FileFunction,Legend,Bot*
G04 #@! TF.FilePolarity,Positive*
%FSLAX46Y46*%
G04 Gerber Fmt 4.6, Leading zero omitted, Abs format (unit mm)*
G04 Created by KiCad (PCBNEW (5.1.0)-1) date 2019-04-08 01:07:25*
%MOMM*%
%LPD*%
G04 APERTURE LIST*
%ADD10C,0.010000*%
%ADD11C,0.120000*%
%ADD12C,0.150000*%
G04 APERTURE END LIST*
D10*
G36*
X126446966Y-167238023D02*
G01*
X126368565Y-167031829D01*
X126250890Y-166842788D01*
X126097728Y-166677965D01*
X125912868Y-166544423D01*
X125845982Y-166508633D01*
X125650723Y-166438952D01*
X125436167Y-166408754D01*
X125216085Y-166418960D01*
X125050175Y-166455343D01*
X124838462Y-166544827D01*
X124654929Y-166672986D01*
X124503148Y-166834055D01*
X124386692Y-167022268D01*
X124309133Y-167231856D01*
X124274043Y-167457056D01*
X124284803Y-167690800D01*
X124340913Y-167907106D01*
X124439434Y-168102553D01*
X124574723Y-168272760D01*
X124741138Y-168413346D01*
X124933037Y-168519928D01*
X125144777Y-168588126D01*
X125370715Y-168613558D01*
X125383576Y-168613144D01*
X125383576Y-168375454D01*
X125374400Y-168375411D01*
X125254633Y-168371914D01*
X125165562Y-168360373D01*
X125087254Y-168336874D01*
X125014621Y-168304744D01*
X124838100Y-168193619D01*
X124696612Y-168051506D01*
X124592579Y-167885370D01*
X124528423Y-167702173D01*
X124506565Y-167508878D01*
X124529427Y-167312451D01*
X124599431Y-167119852D01*
X124601270Y-167116203D01*
X124712062Y-166950774D01*
X124859596Y-166811175D01*
X125015042Y-166716659D01*
X125100282Y-166681069D01*
X125180147Y-166660494D01*
X125274581Y-166651207D01*
X125374935Y-166649400D01*
X125489693Y-166651625D01*
X125574365Y-166661274D01*
X125649576Y-166682813D01*
X125735952Y-166720706D01*
X125761218Y-166733017D01*
X125938887Y-166843921D01*
X126073974Y-166981543D01*
X126167588Y-167147635D01*
X126220835Y-167343948D01*
X126234037Y-167480987D01*
X126236975Y-167593762D01*
X126232553Y-167675045D01*
X126217319Y-167743993D01*
X126187824Y-167819763D01*
X126163406Y-167873137D01*
X126059556Y-168047974D01*
X125925905Y-168186131D01*
X125754182Y-168295988D01*
X125738192Y-168303981D01*
X125654794Y-168341410D01*
X125580989Y-168363228D01*
X125497130Y-168373290D01*
X125383576Y-168375454D01*
X125383576Y-168613144D01*
X125469048Y-168610391D01*
X125690287Y-168569216D01*
X125895308Y-168483560D01*
X126078568Y-168358609D01*
X126234520Y-168199546D01*
X126357621Y-168011558D01*
X126442326Y-167799829D01*
X126470790Y-167673620D01*
X126482304Y-167454308D01*
X126446966Y-167238023D01*
X126446966Y-167238023D01*
G37*
X126446966Y-167238023D02*
X126368565Y-167031829D01*
X126250890Y-166842788D01*
X126097728Y-166677965D01*
X125912868Y-166544423D01*
X125845982Y-166508633D01*
X125650723Y-166438952D01*
X125436167Y-166408754D01*
X125216085Y-166418960D01*
X125050175Y-166455343D01*
X124838462Y-166544827D01*
X124654929Y-166672986D01*
X124503148Y-166834055D01*
X124386692Y-167022268D01*
X124309133Y-167231856D01*
X124274043Y-167457056D01*
X124284803Y-167690800D01*
X124340913Y-167907106D01*
X124439434Y-168102553D01*
X124574723Y-168272760D01*
X124741138Y-168413346D01*
X124933037Y-168519928D01*
X125144777Y-168588126D01*
X125370715Y-168613558D01*
X125383576Y-168613144D01*
X125383576Y-168375454D01*
X125374400Y-168375411D01*
X125254633Y-168371914D01*
X125165562Y-168360373D01*
X125087254Y-168336874D01*
X125014621Y-168304744D01*
X124838100Y-168193619D01*
X124696612Y-168051506D01*
X124592579Y-167885370D01*
X124528423Y-167702173D01*
X124506565Y-167508878D01*
X124529427Y-167312451D01*
X124599431Y-167119852D01*
X124601270Y-167116203D01*
X124712062Y-166950774D01*
X124859596Y-166811175D01*
X125015042Y-166716659D01*
X125100282Y-166681069D01*
X125180147Y-166660494D01*
X125274581Y-166651207D01*
X125374935Y-166649400D01*
X125489693Y-166651625D01*
X125574365Y-166661274D01*
X125649576Y-166682813D01*
X125735952Y-166720706D01*
X125761218Y-166733017D01*
X125938887Y-166843921D01*
X126073974Y-166981543D01*
X126167588Y-167147635D01*
X126220835Y-167343948D01*
X126234037Y-167480987D01*
X126236975Y-167593762D01*
X126232553Y-167675045D01*
X126217319Y-167743993D01*
X126187824Y-167819763D01*
X126163406Y-167873137D01*
X126059556Y-168047974D01*
X125925905Y-168186131D01*
X125754182Y-168295988D01*
X125738192Y-168303981D01*
X125654794Y-168341410D01*
X125580989Y-168363228D01*
X125497130Y-168373290D01*
X125383576Y-168375454D01*
X125383576Y-168613144D01*
X125469048Y-168610391D01*
X125690287Y-168569216D01*
X125895308Y-168483560D01*
X126078568Y-168358609D01*
X126234520Y-168199546D01*
X126357621Y-168011558D01*
X126442326Y-167799829D01*
X126470790Y-167673620D01*
X126482304Y-167454308D01*
X126446966Y-167238023D01*
G36*
X123806591Y-167726483D02*
G01*
X123751805Y-167776377D01*
X123676542Y-167850487D01*
X123646319Y-167881300D01*
X123278811Y-168283917D01*
X122913674Y-168732709D01*
X122553718Y-169223051D01*
X122201753Y-169750321D01*
X121860588Y-170309895D01*
X121533032Y-170897149D01*
X121221895Y-171507460D01*
X120929985Y-172136204D01*
X120660113Y-172778758D01*
X120640541Y-172828132D01*
X120590915Y-172955781D01*
X120548772Y-173067857D01*
X120517380Y-173155372D01*
X120500009Y-173209342D01*
X120497600Y-173221072D01*
X120509705Y-173206952D01*
X120544178Y-173153313D01*
X120598258Y-173064784D01*
X120669182Y-172945992D01*
X120754188Y-172801569D01*
X120850515Y-172636142D01*
X120955400Y-172454341D01*
X120963727Y-172439841D01*
X121410351Y-171668002D01*
X121843532Y-170932395D01*
X122269630Y-170222469D01*
X122695005Y-169527676D01*
X123126019Y-168837467D01*
X123329395Y-168516300D01*
X123440891Y-168340850D01*
X123545380Y-168176182D01*
X123639288Y-168027948D01*
X123719042Y-167901799D01*
X123781066Y-167803385D01*
X123821787Y-167738359D01*
X123835423Y-167716200D01*
X123836072Y-167705019D01*
X123806591Y-167726483D01*
X123806591Y-167726483D01*
G37*
X123806591Y-167726483D02*
X123751805Y-167776377D01*
X123676542Y-167850487D01*
X123646319Y-167881300D01*
X123278811Y-168283917D01*
X122913674Y-168732709D01*
X122553718Y-169223051D01*
X122201753Y-169750321D01*
X121860588Y-170309895D01*
X121533032Y-170897149D01*
X121221895Y-171507460D01*
X120929985Y-172136204D01*
X120660113Y-172778758D01*
X120640541Y-172828132D01*
X120590915Y-172955781D01*
X120548772Y-173067857D01*
X120517380Y-173155372D01*
X120500009Y-173209342D01*
X120497600Y-173221072D01*
X120509705Y-173206952D01*
X120544178Y-173153313D01*
X120598258Y-173064784D01*
X120669182Y-172945992D01*
X120754188Y-172801569D01*
X120850515Y-172636142D01*
X120955400Y-172454341D01*
X120963727Y-172439841D01*
X121410351Y-171668002D01*
X121843532Y-170932395D01*
X122269630Y-170222469D01*
X122695005Y-169527676D01*
X123126019Y-168837467D01*
X123329395Y-168516300D01*
X123440891Y-168340850D01*
X123545380Y-168176182D01*
X123639288Y-168027948D01*
X123719042Y-167901799D01*
X123781066Y-167803385D01*
X123821787Y-167738359D01*
X123835423Y-167716200D01*
X123836072Y-167705019D01*
X123806591Y-167726483D01*
G36*
X114782600Y-122364500D02*
G01*
X114782600Y-121569011D01*
X114781992Y-121317531D01*
X114779671Y-121111003D01*
X114774897Y-120943589D01*
X114766927Y-120809451D01*
X114755018Y-120702749D01*
X114738430Y-120617647D01*
X114716420Y-120548304D01*
X114688246Y-120488884D01*
X114653167Y-120433546D01*
X114635139Y-120408700D01*
X114578015Y-120336784D01*
X114524717Y-120285175D01*
X114458982Y-120241077D01*
X114364550Y-120191692D01*
X114350800Y-120184941D01*
X114211100Y-120116600D01*
X113474500Y-120116600D01*
X113257920Y-120116871D01*
X113085697Y-120117925D01*
X112951390Y-120120124D01*
X112848558Y-120123829D01*
X112770761Y-120129402D01*
X112711557Y-120137204D01*
X112664505Y-120147598D01*
X112623166Y-120160944D01*
X112612390Y-120165007D01*
X112460734Y-120248369D01*
X112327882Y-120368926D01*
X112227968Y-120513293D01*
X112213728Y-120542633D01*
X112196067Y-120583514D01*
X112182195Y-120623316D01*
X112171597Y-120668671D01*
X112163760Y-120726211D01*
X112158170Y-120802566D01*
X112154313Y-120904368D01*
X112151674Y-121038249D01*
X112149740Y-121210841D01*
X112148315Y-121386600D01*
X112147284Y-121621187D01*
X112148225Y-121809686D01*
X112151293Y-121956776D01*
X112156649Y-122067136D01*
X112164449Y-122145447D01*
X112174853Y-122196388D01*
X112175796Y-122199400D01*
X112253043Y-122378972D01*
X112358489Y-122519715D01*
X112497999Y-122628428D01*
X112585500Y-122674349D01*
X112712500Y-122732800D01*
X114319050Y-122739878D01*
X114404275Y-122740253D01*
X114404275Y-122364500D01*
X113659988Y-122364359D01*
X113448920Y-122363413D01*
X113257918Y-122360790D01*
X113093228Y-122356686D01*
X112961094Y-122351296D01*
X112867759Y-122344817D01*
X112821500Y-122338055D01*
X112717586Y-122287832D01*
X112624999Y-122205722D01*
X112560695Y-122107974D01*
X112549171Y-122077094D01*
X112542523Y-122029267D01*
X112536986Y-121938870D01*
X112532790Y-121814124D01*
X112530167Y-121663250D01*
X112529345Y-121494471D01*
X112529824Y-121386600D01*
X112531588Y-121194075D01*
X112533810Y-121045435D01*
X112537085Y-120933767D01*
X112542011Y-120852156D01*
X112549185Y-120793688D01*
X112559203Y-120751450D01*
X112572661Y-120718527D01*
X112590096Y-120688100D01*
X112649176Y-120615256D01*
X112720758Y-120554145D01*
X112729796Y-120548400D01*
X112758780Y-120532772D01*
X112791834Y-120520711D01*
X112835566Y-120511760D01*
X112896582Y-120505460D01*
X112981488Y-120501353D01*
X113096892Y-120498980D01*
X113249401Y-120497882D01*
X113445620Y-120497601D01*
X113461800Y-120497600D01*
X113661462Y-120497840D01*
X113816932Y-120498862D01*
X113934816Y-120501127D01*
X114021721Y-120505093D01*
X114084254Y-120511217D01*
X114129022Y-120519960D01*
X114162631Y-120531778D01*
X114191688Y-120547132D01*
X114193805Y-120548400D01*
X114264762Y-120605593D01*
X114327308Y-120678610D01*
X114333505Y-120688100D01*
X114349018Y-120714853D01*
X114361408Y-120743768D01*
X114371095Y-120780703D01*
X114378496Y-120831519D01*
X114384031Y-120902075D01*
X114388119Y-120998230D01*
X114391178Y-121125844D01*
X114393626Y-121290777D01*
X114395884Y-121498889D01*
X114396588Y-121570750D01*
X114404275Y-122364500D01*
X114404275Y-122740253D01*
X115925600Y-122746955D01*
X115925600Y-122364500D01*
X114782600Y-122364500D01*
X114782600Y-122364500D01*
G37*
X114782600Y-122364500D02*
X114782600Y-121569011D01*
X114781992Y-121317531D01*
X114779671Y-121111003D01*
X114774897Y-120943589D01*
X114766927Y-120809451D01*
X114755018Y-120702749D01*
X114738430Y-120617647D01*
X114716420Y-120548304D01*
X114688246Y-120488884D01*
X114653167Y-120433546D01*
X114635139Y-120408700D01*
X114578015Y-120336784D01*
X114524717Y-120285175D01*
X114458982Y-120241077D01*
X114364550Y-120191692D01*
X114350800Y-120184941D01*
X114211100Y-120116600D01*
X113474500Y-120116600D01*
X113257920Y-120116871D01*
X113085697Y-120117925D01*
X112951390Y-120120124D01*
X112848558Y-120123829D01*
X112770761Y-120129402D01*
X112711557Y-120137204D01*
X112664505Y-120147598D01*
X112623166Y-120160944D01*
X112612390Y-120165007D01*
X112460734Y-120248369D01*
X112327882Y-120368926D01*
X112227968Y-120513293D01*
X112213728Y-120542633D01*
X112196067Y-120583514D01*
X112182195Y-120623316D01*
X112171597Y-120668671D01*
X112163760Y-120726211D01*
X112158170Y-120802566D01*
X112154313Y-120904368D01*
X112151674Y-121038249D01*
X112149740Y-121210841D01*
X112148315Y-121386600D01*
X112147284Y-121621187D01*
X112148225Y-121809686D01*
X112151293Y-121956776D01*
X112156649Y-122067136D01*
X112164449Y-122145447D01*
X112174853Y-122196388D01*
X112175796Y-122199400D01*
X112253043Y-122378972D01*
X112358489Y-122519715D01*
X112497999Y-122628428D01*
X112585500Y-122674349D01*
X112712500Y-122732800D01*
X114319050Y-122739878D01*
X114404275Y-122740253D01*
X114404275Y-122364500D01*
X113659988Y-122364359D01*
X113448920Y-122363413D01*
X113257918Y-122360790D01*
X113093228Y-122356686D01*
X112961094Y-122351296D01*
X112867759Y-122344817D01*
X112821500Y-122338055D01*
X112717586Y-122287832D01*
X112624999Y-122205722D01*
X112560695Y-122107974D01*
X112549171Y-122077094D01*
X112542523Y-122029267D01*
X112536986Y-121938870D01*
X112532790Y-121814124D01*
X112530167Y-121663250D01*
X112529345Y-121494471D01*
X112529824Y-121386600D01*
X112531588Y-121194075D01*
X112533810Y-121045435D01*
X112537085Y-120933767D01*
X112542011Y-120852156D01*
X112549185Y-120793688D01*
X112559203Y-120751450D01*
X112572661Y-120718527D01*
X112590096Y-120688100D01*
X112649176Y-120615256D01*
X112720758Y-120554145D01*
X112729796Y-120548400D01*
X112758780Y-120532772D01*
X112791834Y-120520711D01*
X112835566Y-120511760D01*
X112896582Y-120505460D01*
X112981488Y-120501353D01*
X113096892Y-120498980D01*
X113249401Y-120497882D01*
X113445620Y-120497601D01*
X113461800Y-120497600D01*
X113661462Y-120497840D01*
X113816932Y-120498862D01*
X113934816Y-120501127D01*
X114021721Y-120505093D01*
X114084254Y-120511217D01*
X114129022Y-120519960D01*
X114162631Y-120531778D01*
X114191688Y-120547132D01*
X114193805Y-120548400D01*
X114264762Y-120605593D01*
X114327308Y-120678610D01*
X114333505Y-120688100D01*
X114349018Y-120714853D01*
X114361408Y-120743768D01*
X114371095Y-120780703D01*
X114378496Y-120831519D01*
X114384031Y-120902075D01*
X114388119Y-120998230D01*
X114391178Y-121125844D01*
X114393626Y-121290777D01*
X114395884Y-121498889D01*
X114396588Y-121570750D01*
X114404275Y-122364500D01*
X114404275Y-122740253D01*
X115925600Y-122746955D01*
X115925600Y-122364500D01*
X114782600Y-122364500D01*
G36*
X113798350Y-125381868D02*
G01*
X113547902Y-125379851D01*
X113343125Y-125377784D01*
X113178892Y-125375389D01*
X113050073Y-125372385D01*
X112951542Y-125368494D01*
X112878170Y-125363435D01*
X112824829Y-125356929D01*
X112786391Y-125348696D01*
X112757727Y-125338457D01*
X112733711Y-125325932D01*
X112729796Y-125323600D01*
X112658839Y-125266408D01*
X112596293Y-125193391D01*
X112590096Y-125183900D01*
X112573123Y-125154564D01*
X112560022Y-125123346D01*
X112550292Y-125083600D01*
X112543433Y-125028681D01*
X112538946Y-124951940D01*
X112536331Y-124846732D01*
X112535088Y-124706409D01*
X112534717Y-124524325D01*
X112534700Y-124447300D01*
X112534880Y-124248562D01*
X112535752Y-124093976D01*
X112537815Y-123976897D01*
X112541571Y-123890677D01*
X112547519Y-123828670D01*
X112556158Y-123784229D01*
X112567989Y-123750708D01*
X112583511Y-123721460D01*
X112590096Y-123710700D01*
X112649176Y-123637856D01*
X112720758Y-123576745D01*
X112729796Y-123571000D01*
X112753537Y-123558067D01*
X112781068Y-123547466D01*
X112817519Y-123538918D01*
X112868018Y-123532143D01*
X112937692Y-123526862D01*
X113031670Y-123522796D01*
X113155080Y-123519664D01*
X113313049Y-123517186D01*
X113510706Y-123515084D01*
X113753179Y-123513078D01*
X113798350Y-123512733D01*
X114782600Y-123505265D01*
X114782600Y-123124358D01*
X113747550Y-123131779D01*
X113490927Y-123133685D01*
X113279932Y-123135567D01*
X113109391Y-123137718D01*
X112974134Y-123140429D01*
X112868989Y-123143996D01*
X112788785Y-123148710D01*
X112728348Y-123154864D01*
X112682508Y-123162752D01*
X112646093Y-123172666D01*
X112613930Y-123184900D01*
X112585500Y-123197604D01*
X112422176Y-123299045D01*
X112290756Y-123435661D01*
X112212420Y-123568273D01*
X112195128Y-123608483D01*
X112181543Y-123648187D01*
X112171159Y-123693998D01*
X112163475Y-123752530D01*
X112157984Y-123830397D01*
X112154183Y-123934214D01*
X112151568Y-124070593D01*
X112149634Y-124246150D01*
X112148315Y-124409200D01*
X112147284Y-124643787D01*
X112148225Y-124832286D01*
X112151293Y-124979376D01*
X112156649Y-125089736D01*
X112164449Y-125168047D01*
X112174853Y-125218988D01*
X112175796Y-125222000D01*
X112253043Y-125401572D01*
X112358489Y-125542315D01*
X112497999Y-125651028D01*
X112585500Y-125696949D01*
X112618152Y-125711441D01*
X112650560Y-125723358D01*
X112687895Y-125732992D01*
X112735329Y-125740637D01*
X112798034Y-125746587D01*
X112881181Y-125751134D01*
X112989942Y-125754571D01*
X113129489Y-125757191D01*
X113304993Y-125759289D01*
X113521625Y-125761156D01*
X113747550Y-125762822D01*
X114782600Y-125770243D01*
X114782600Y-125389336D01*
X113798350Y-125381868D01*
X113798350Y-125381868D01*
G37*
X113798350Y-125381868D02*
X113547902Y-125379851D01*
X113343125Y-125377784D01*
X113178892Y-125375389D01*
X113050073Y-125372385D01*
X112951542Y-125368494D01*
X112878170Y-125363435D01*
X112824829Y-125356929D01*
X112786391Y-125348696D01*
X112757727Y-125338457D01*
X112733711Y-125325932D01*
X112729796Y-125323600D01*
X112658839Y-125266408D01*
X112596293Y-125193391D01*
X112590096Y-125183900D01*
X112573123Y-125154564D01*
X112560022Y-125123346D01*
X112550292Y-125083600D01*
X112543433Y-125028681D01*
X112538946Y-124951940D01*
X112536331Y-124846732D01*
X112535088Y-124706409D01*
X112534717Y-124524325D01*
X112534700Y-124447300D01*
X112534880Y-124248562D01*
X112535752Y-124093976D01*
X112537815Y-123976897D01*
X112541571Y-123890677D01*
X112547519Y-123828670D01*
X112556158Y-123784229D01*
X112567989Y-123750708D01*
X112583511Y-123721460D01*
X112590096Y-123710700D01*
X112649176Y-123637856D01*
X112720758Y-123576745D01*
X112729796Y-123571000D01*
X112753537Y-123558067D01*
X112781068Y-123547466D01*
X112817519Y-123538918D01*
X112868018Y-123532143D01*
X112937692Y-123526862D01*
X113031670Y-123522796D01*
X113155080Y-123519664D01*
X113313049Y-123517186D01*
X113510706Y-123515084D01*
X113753179Y-123513078D01*
X113798350Y-123512733D01*
X114782600Y-123505265D01*
X114782600Y-123124358D01*
X113747550Y-123131779D01*
X113490927Y-123133685D01*
X113279932Y-123135567D01*
X113109391Y-123137718D01*
X112974134Y-123140429D01*
X112868989Y-123143996D01*
X112788785Y-123148710D01*
X112728348Y-123154864D01*
X112682508Y-123162752D01*
X112646093Y-123172666D01*
X112613930Y-123184900D01*
X112585500Y-123197604D01*
X112422176Y-123299045D01*
X112290756Y-123435661D01*
X112212420Y-123568273D01*
X112195128Y-123608483D01*
X112181543Y-123648187D01*
X112171159Y-123693998D01*
X112163475Y-123752530D01*
X112157984Y-123830397D01*
X112154183Y-123934214D01*
X112151568Y-124070593D01*
X112149634Y-124246150D01*
X112148315Y-124409200D01*
X112147284Y-124643787D01*
X112148225Y-124832286D01*
X112151293Y-124979376D01*
X112156649Y-125089736D01*
X112164449Y-125168047D01*
X112174853Y-125218988D01*
X112175796Y-125222000D01*
X112253043Y-125401572D01*
X112358489Y-125542315D01*
X112497999Y-125651028D01*
X112585500Y-125696949D01*
X112618152Y-125711441D01*
X112650560Y-125723358D01*
X112687895Y-125732992D01*
X112735329Y-125740637D01*
X112798034Y-125746587D01*
X112881181Y-125751134D01*
X112989942Y-125754571D01*
X113129489Y-125757191D01*
X113304993Y-125759289D01*
X113521625Y-125761156D01*
X113747550Y-125762822D01*
X114782600Y-125770243D01*
X114782600Y-125389336D01*
X113798350Y-125381868D01*
G36*
X112141000Y-126149100D02*
G01*
X112141000Y-126530100D01*
X115925600Y-126530100D01*
X115925600Y-126149100D01*
X112141000Y-126149100D01*
X112141000Y-126149100D01*
G37*
X112141000Y-126149100D02*
X112141000Y-126530100D01*
X115925600Y-126530100D01*
X115925600Y-126149100D01*
X112141000Y-126149100D01*
G36*
X115912216Y-127997083D02*
G01*
X115909394Y-127806588D01*
X115903287Y-127653947D01*
X115892743Y-127532693D01*
X115876614Y-127436357D01*
X115853749Y-127358472D01*
X115822999Y-127292570D01*
X115783213Y-127232182D01*
X115733243Y-127170841D01*
X115721987Y-127157959D01*
X115586062Y-127041698D01*
X115416066Y-126962226D01*
X115213811Y-126920374D01*
X115200959Y-126919103D01*
X115036600Y-126903755D01*
X115036600Y-127292100D01*
X115107419Y-127292100D01*
X115193231Y-127308921D01*
X115292885Y-127352104D01*
X115385712Y-127410731D01*
X115450772Y-127473503D01*
X115480718Y-127523810D01*
X115503663Y-127586626D01*
X115520433Y-127668769D01*
X115531849Y-127777055D01*
X115538735Y-127918301D01*
X115541916Y-128099324D01*
X115542388Y-128231900D01*
X115540891Y-128451702D01*
X115535185Y-128627125D01*
X115523443Y-128764533D01*
X115503842Y-128870291D01*
X115474557Y-128950765D01*
X115433762Y-129012317D01*
X115379634Y-129061314D01*
X115310346Y-129104119D01*
X115289114Y-129115282D01*
X115176300Y-129173163D01*
X113995200Y-129166082D01*
X113718999Y-129164343D01*
X113488981Y-129162593D01*
X113300530Y-129160621D01*
X113149030Y-129158216D01*
X113029864Y-129155166D01*
X112938417Y-129151261D01*
X112870071Y-129146289D01*
X112820211Y-129140039D01*
X112784221Y-129132300D01*
X112757484Y-129122861D01*
X112735384Y-129111510D01*
X112729796Y-129108200D01*
X112658839Y-129051008D01*
X112596293Y-128977991D01*
X112590096Y-128968500D01*
X112573123Y-128939164D01*
X112560022Y-128907946D01*
X112550292Y-128868200D01*
X112543433Y-128813281D01*
X112538946Y-128736540D01*
X112536331Y-128631332D01*
X112535088Y-128491009D01*
X112534717Y-128308925D01*
X112534700Y-128231900D01*
X112534880Y-128033162D01*
X112535752Y-127878576D01*
X112537815Y-127761497D01*
X112541571Y-127675277D01*
X112547519Y-127613270D01*
X112556158Y-127568829D01*
X112567989Y-127535308D01*
X112583511Y-127506060D01*
X112590096Y-127495300D01*
X112681452Y-127391910D01*
X112804628Y-127326151D01*
X112913606Y-127301149D01*
X113030000Y-127285196D01*
X113030000Y-126903755D01*
X112864233Y-126919234D01*
X112659494Y-126959901D01*
X112484279Y-127039906D01*
X112341215Y-127157502D01*
X112232927Y-127310942D01*
X112212420Y-127352873D01*
X112195128Y-127393083D01*
X112181543Y-127432787D01*
X112171159Y-127478598D01*
X112163475Y-127537130D01*
X112157984Y-127614997D01*
X112154183Y-127718814D01*
X112151568Y-127855193D01*
X112149634Y-128030750D01*
X112148315Y-128193800D01*
X112147284Y-128428387D01*
X112148225Y-128616886D01*
X112151293Y-128763976D01*
X112156649Y-128874336D01*
X112164449Y-128952647D01*
X112174853Y-129003588D01*
X112175796Y-129006600D01*
X112258173Y-129192754D01*
X112372605Y-129339789D01*
X112520017Y-129448729D01*
X112613349Y-129491960D01*
X112643839Y-129502711D01*
X112677812Y-129511733D01*
X112719756Y-129519178D01*
X112774158Y-129525194D01*
X112845507Y-129529934D01*
X112938290Y-129533546D01*
X113056996Y-129536183D01*
X113206111Y-129537993D01*
X113390124Y-129539129D01*
X113613523Y-129539739D01*
X113880796Y-129539976D01*
X114046000Y-129540000D01*
X115354100Y-129540000D01*
X115488407Y-129479311D01*
X115632614Y-129388598D01*
X115756369Y-129261410D01*
X115847263Y-129111433D01*
X115867080Y-129061732D01*
X115880983Y-129016332D01*
X115891809Y-128964890D01*
X115899930Y-128900711D01*
X115905713Y-128817098D01*
X115909529Y-128707357D01*
X115911748Y-128564792D01*
X115912739Y-128382706D01*
X115912900Y-128231900D01*
X115912216Y-127997083D01*
X115912216Y-127997083D01*
G37*
X115912216Y-127997083D02*
X115909394Y-127806588D01*
X115903287Y-127653947D01*
X115892743Y-127532693D01*
X115876614Y-127436357D01*
X115853749Y-127358472D01*
X115822999Y-127292570D01*
X115783213Y-127232182D01*
X115733243Y-127170841D01*
X115721987Y-127157959D01*
X115586062Y-127041698D01*
X115416066Y-126962226D01*
X115213811Y-126920374D01*
X115200959Y-126919103D01*
X115036600Y-126903755D01*
X115036600Y-127292100D01*
X115107419Y-127292100D01*
X115193231Y-127308921D01*
X115292885Y-127352104D01*
X115385712Y-127410731D01*
X115450772Y-127473503D01*
X115480718Y-127523810D01*
X115503663Y-127586626D01*
X115520433Y-127668769D01*
X115531849Y-127777055D01*
X115538735Y-127918301D01*
X115541916Y-128099324D01*
X115542388Y-128231900D01*
X115540891Y-128451702D01*
X115535185Y-128627125D01*
X115523443Y-128764533D01*
X115503842Y-128870291D01*
X115474557Y-128950765D01*
X115433762Y-129012317D01*
X115379634Y-129061314D01*
X115310346Y-129104119D01*
X115289114Y-129115282D01*
X115176300Y-129173163D01*
X113995200Y-129166082D01*
X113718999Y-129164343D01*
X113488981Y-129162593D01*
X113300530Y-129160621D01*
X113149030Y-129158216D01*
X113029864Y-129155166D01*
X112938417Y-129151261D01*
X112870071Y-129146289D01*
X112820211Y-129140039D01*
X112784221Y-129132300D01*
X112757484Y-129122861D01*
X112735384Y-129111510D01*
X112729796Y-129108200D01*
X112658839Y-129051008D01*
X112596293Y-128977991D01*
X112590096Y-128968500D01*
X112573123Y-128939164D01*
X112560022Y-128907946D01*
X112550292Y-128868200D01*
X112543433Y-128813281D01*
X112538946Y-128736540D01*
X112536331Y-128631332D01*
X112535088Y-128491009D01*
X112534717Y-128308925D01*
X112534700Y-128231900D01*
X112534880Y-128033162D01*
X112535752Y-127878576D01*
X112537815Y-127761497D01*
X112541571Y-127675277D01*
X112547519Y-127613270D01*
X112556158Y-127568829D01*
X112567989Y-127535308D01*
X112583511Y-127506060D01*
X112590096Y-127495300D01*
X112681452Y-127391910D01*
X112804628Y-127326151D01*
X112913606Y-127301149D01*
X113030000Y-127285196D01*
X113030000Y-126903755D01*
X112864233Y-126919234D01*
X112659494Y-126959901D01*
X112484279Y-127039906D01*
X112341215Y-127157502D01*
X112232927Y-127310942D01*
X112212420Y-127352873D01*
X112195128Y-127393083D01*
X112181543Y-127432787D01*
X112171159Y-127478598D01*
X112163475Y-127537130D01*
X112157984Y-127614997D01*
X112154183Y-127718814D01*
X112151568Y-127855193D01*
X112149634Y-128030750D01*
X112148315Y-128193800D01*
X112147284Y-128428387D01*
X112148225Y-128616886D01*
X112151293Y-128763976D01*
X112156649Y-128874336D01*
X112164449Y-128952647D01*
X112174853Y-129003588D01*
X112175796Y-129006600D01*
X112258173Y-129192754D01*
X112372605Y-129339789D01*
X112520017Y-129448729D01*
X112613349Y-129491960D01*
X112643839Y-129502711D01*
X112677812Y-129511733D01*
X112719756Y-129519178D01*
X112774158Y-129525194D01*
X112845507Y-129529934D01*
X112938290Y-129533546D01*
X113056996Y-129536183D01*
X113206111Y-129537993D01*
X113390124Y-129539129D01*
X113613523Y-129539739D01*
X113880796Y-129539976D01*
X114046000Y-129540000D01*
X115354100Y-129540000D01*
X115488407Y-129479311D01*
X115632614Y-129388598D01*
X115756369Y-129261410D01*
X115847263Y-129111433D01*
X115867080Y-129061732D01*
X115880983Y-129016332D01*
X115891809Y-128964890D01*
X115899930Y-128900711D01*
X115905713Y-128817098D01*
X115909529Y-128707357D01*
X115911748Y-128564792D01*
X115912739Y-128382706D01*
X115912900Y-128231900D01*
X115912216Y-127997083D01*
G36*
X114401600Y-134200900D02*
G01*
X114401600Y-134771150D01*
X114400038Y-135012145D01*
X114394485Y-135208985D01*
X114383646Y-135368244D01*
X114366223Y-135496496D01*
X114340919Y-135600315D01*
X114306438Y-135686275D01*
X114261482Y-135760951D01*
X114204755Y-135830915D01*
X114189207Y-135847776D01*
X114130042Y-135905836D01*
X114068439Y-135953499D01*
X113998867Y-135991763D01*
X113915797Y-136021630D01*
X113813699Y-136044098D01*
X113687042Y-136060167D01*
X113530297Y-136070837D01*
X113337934Y-136077108D01*
X113104423Y-136079978D01*
X112901750Y-136080500D01*
X112141000Y-136080500D01*
X112141000Y-136461500D01*
X112960150Y-136461125D01*
X113218079Y-136460417D01*
X113431459Y-136458048D01*
X113606534Y-136453260D01*
X113749549Y-136445294D01*
X113866745Y-136433393D01*
X113964368Y-136416800D01*
X114048660Y-136394755D01*
X114125865Y-136366503D01*
X114202227Y-136331284D01*
X114254988Y-136303966D01*
X114420825Y-136189528D01*
X114560348Y-136041232D01*
X114653662Y-135888450D01*
X114691534Y-135800842D01*
X114721361Y-135712575D01*
X114744050Y-135616175D01*
X114760509Y-135504169D01*
X114771644Y-135369083D01*
X114778365Y-135203443D01*
X114781577Y-134999776D01*
X114782225Y-134829550D01*
X114782600Y-134200900D01*
X114401600Y-134200900D01*
X114401600Y-134200900D01*
G37*
X114401600Y-134200900D02*
X114401600Y-134771150D01*
X114400038Y-135012145D01*
X114394485Y-135208985D01*
X114383646Y-135368244D01*
X114366223Y-135496496D01*
X114340919Y-135600315D01*
X114306438Y-135686275D01*
X114261482Y-135760951D01*
X114204755Y-135830915D01*
X114189207Y-135847776D01*
X114130042Y-135905836D01*
X114068439Y-135953499D01*
X113998867Y-135991763D01*
X113915797Y-136021630D01*
X113813699Y-136044098D01*
X113687042Y-136060167D01*
X113530297Y-136070837D01*
X113337934Y-136077108D01*
X113104423Y-136079978D01*
X112901750Y-136080500D01*
X112141000Y-136080500D01*
X112141000Y-136461500D01*
X112960150Y-136461125D01*
X113218079Y-136460417D01*
X113431459Y-136458048D01*
X113606534Y-136453260D01*
X113749549Y-136445294D01*
X113866745Y-136433393D01*
X113964368Y-136416800D01*
X114048660Y-136394755D01*
X114125865Y-136366503D01*
X114202227Y-136331284D01*
X114254988Y-136303966D01*
X114420825Y-136189528D01*
X114560348Y-136041232D01*
X114653662Y-135888450D01*
X114691534Y-135800842D01*
X114721361Y-135712575D01*
X114744050Y-135616175D01*
X114760509Y-135504169D01*
X114771644Y-135369083D01*
X114778365Y-135203443D01*
X114781577Y-134999776D01*
X114782225Y-134829550D01*
X114782600Y-134200900D01*
X114401600Y-134200900D01*
G36*
X114782600Y-137604500D02*
G01*
X114782600Y-136978975D01*
X114401600Y-136969421D01*
X114401600Y-137604500D01*
X113633250Y-137603943D01*
X113412279Y-137603538D01*
X113236026Y-137602457D01*
X113098410Y-137600367D01*
X112993352Y-137596935D01*
X112914770Y-137591827D01*
X112856583Y-137584711D01*
X112812712Y-137575253D01*
X112777076Y-137563120D01*
X112760876Y-137556142D01*
X112666841Y-137498880D01*
X112600036Y-137420734D01*
X112556537Y-137313710D01*
X112532417Y-137169816D01*
X112526258Y-137078395D01*
X112515941Y-136842500D01*
X112141000Y-136842500D01*
X112142770Y-137090150D01*
X112148260Y-137228578D01*
X112161422Y-137356289D01*
X112180239Y-137454587D01*
X112183168Y-137464800D01*
X112258832Y-137640147D01*
X112368625Y-137778137D01*
X112514348Y-137880601D01*
X112645326Y-137934298D01*
X112694471Y-137948756D01*
X112744868Y-137960223D01*
X112802916Y-137969043D01*
X112875014Y-137975557D01*
X112967562Y-137980106D01*
X113086958Y-137983032D01*
X113239601Y-137984677D01*
X113431891Y-137985382D01*
X113604176Y-137985500D01*
X114401600Y-137985500D01*
X114401600Y-138366500D01*
X114782600Y-138366500D01*
X114782600Y-137985500D01*
X115417600Y-137985500D01*
X115417600Y-137604500D01*
X114782600Y-137604500D01*
X114782600Y-137604500D01*
G37*
X114782600Y-137604500D02*
X114782600Y-136978975D01*
X114401600Y-136969421D01*
X114401600Y-137604500D01*
X113633250Y-137603943D01*
X113412279Y-137603538D01*
X113236026Y-137602457D01*
X113098410Y-137600367D01*
X112993352Y-137596935D01*
X112914770Y-137591827D01*
X112856583Y-137584711D01*
X112812712Y-137575253D01*
X112777076Y-137563120D01*
X112760876Y-137556142D01*
X112666841Y-137498880D01*
X112600036Y-137420734D01*
X112556537Y-137313710D01*
X112532417Y-137169816D01*
X112526258Y-137078395D01*
X112515941Y-136842500D01*
X112141000Y-136842500D01*
X112142770Y-137090150D01*
X112148260Y-137228578D01*
X112161422Y-137356289D01*
X112180239Y-137454587D01*
X112183168Y-137464800D01*
X112258832Y-137640147D01*
X112368625Y-137778137D01*
X112514348Y-137880601D01*
X112645326Y-137934298D01*
X112694471Y-137948756D01*
X112744868Y-137960223D01*
X112802916Y-137969043D01*
X112875014Y-137975557D01*
X112967562Y-137980106D01*
X113086958Y-137983032D01*
X113239601Y-137984677D01*
X113431891Y-137985382D01*
X113604176Y-137985500D01*
X114401600Y-137985500D01*
X114401600Y-138366500D01*
X114782600Y-138366500D01*
X114782600Y-137985500D01*
X115417600Y-137985500D01*
X115417600Y-137604500D01*
X114782600Y-137604500D01*
G36*
X114769782Y-139696673D02*
G01*
X114769156Y-139522011D01*
X114767617Y-139385679D01*
X114764762Y-139281441D01*
X114760184Y-139203063D01*
X114753481Y-139144309D01*
X114744245Y-139098945D01*
X114732074Y-139060735D01*
X114716561Y-139023444D01*
X114711181Y-139011473D01*
X114626406Y-138870817D01*
X114513842Y-138751536D01*
X114386771Y-138667220D01*
X114365397Y-138657639D01*
X114250310Y-138625787D01*
X114106252Y-138609186D01*
X113952992Y-138608757D01*
X113810295Y-138625423D01*
X113785866Y-138630631D01*
X113629230Y-138685420D01*
X113514165Y-138767917D01*
X113438812Y-138879473D01*
X113436469Y-138884860D01*
X113420865Y-138932950D01*
X113395829Y-139024407D01*
X113362894Y-139152999D01*
X113323595Y-139312490D01*
X113279468Y-139496647D01*
X113232047Y-139699236D01*
X113182868Y-139914023D01*
X113180408Y-139924889D01*
X112968676Y-140860978D01*
X112868187Y-140847499D01*
X112740212Y-140806635D01*
X112636044Y-140721193D01*
X112585500Y-140649845D01*
X112569725Y-140619919D01*
X112557588Y-140585944D01*
X112548616Y-140541211D01*
X112542337Y-140479009D01*
X112538279Y-140392628D01*
X112535969Y-140275359D01*
X112534933Y-140120491D01*
X112534700Y-139928600D01*
X112534952Y-139730980D01*
X112536022Y-139577448D01*
X112538382Y-139461296D01*
X112542505Y-139375812D01*
X112548864Y-139314287D01*
X112557932Y-139270012D01*
X112570181Y-139236275D01*
X112585500Y-139207356D01*
X112670227Y-139100517D01*
X112778600Y-139034469D01*
X112891922Y-139006179D01*
X113017300Y-138988315D01*
X113024719Y-138791708D01*
X113027610Y-138695160D01*
X113021891Y-138633632D01*
X112999078Y-138601853D01*
X112950691Y-138594552D01*
X112868249Y-138606458D01*
X112761927Y-138628400D01*
X112568799Y-138688590D01*
X112413953Y-138781260D01*
X112294894Y-138908598D01*
X112209124Y-139072790D01*
X112189379Y-139129986D01*
X112174243Y-139183912D01*
X112162621Y-139241114D01*
X112154085Y-139308927D01*
X112148210Y-139394683D01*
X112144568Y-139505718D01*
X112142734Y-139649366D01*
X112142280Y-139832960D01*
X112142427Y-139937213D01*
X112143283Y-140142877D01*
X112145145Y-140305036D01*
X112148467Y-140430986D01*
X112153704Y-140528020D01*
X112161307Y-140603431D01*
X112171731Y-140664513D01*
X112185429Y-140718560D01*
X112192422Y-140741400D01*
X112269787Y-140913504D01*
X112381470Y-141049479D01*
X112529094Y-141150668D01*
X112714279Y-141218413D01*
X112788037Y-141234428D01*
X112860023Y-141242977D01*
X112972186Y-141250453D01*
X113113909Y-141256420D01*
X113274572Y-141260442D01*
X113443557Y-141262084D01*
X113461800Y-141262100D01*
X113623320Y-141260804D01*
X113623320Y-140857750D01*
X113518416Y-140857702D01*
X113442510Y-140857461D01*
X113405896Y-140857045D01*
X113404650Y-140856986D01*
X113396516Y-140854627D01*
X113391506Y-140845722D01*
X113390521Y-140825630D01*
X113394459Y-140789706D01*
X113404219Y-140733307D01*
X113420701Y-140651791D01*
X113444804Y-140540515D01*
X113477427Y-140394835D01*
X113519469Y-140210108D01*
X113571829Y-139981692D01*
X113586653Y-139917147D01*
X113648223Y-139653211D01*
X113701614Y-139432956D01*
X113746497Y-139257617D01*
X113782543Y-139128432D01*
X113809425Y-139046637D01*
X113826601Y-139013619D01*
X113885060Y-138995239D01*
X113974268Y-138994543D01*
X114077620Y-139010824D01*
X114134283Y-139026697D01*
X114235474Y-139083892D01*
X114320949Y-139176412D01*
X114372744Y-139278341D01*
X114382760Y-139335211D01*
X114390686Y-139433249D01*
X114396523Y-139562879D01*
X114400271Y-139714522D01*
X114401932Y-139878602D01*
X114401504Y-140045541D01*
X114398990Y-140205763D01*
X114394389Y-140349690D01*
X114387702Y-140467745D01*
X114378929Y-140550351D01*
X114372682Y-140578860D01*
X114330571Y-140676165D01*
X114273666Y-140748987D01*
X114194997Y-140800432D01*
X114087594Y-140833604D01*
X113944486Y-140851608D01*
X113758703Y-140857549D01*
X113746925Y-140857588D01*
X113623320Y-140857750D01*
X113623320Y-141260804D01*
X113631049Y-141260741D01*
X113793118Y-141256954D01*
X113937389Y-141251175D01*
X114053245Y-141243841D01*
X114130066Y-141235387D01*
X114135564Y-141234428D01*
X114332318Y-141179122D01*
X114491913Y-141091246D01*
X114618595Y-140967663D01*
X114716613Y-140805233D01*
X114716768Y-140804900D01*
X114731838Y-140770030D01*
X114743759Y-140733459D01*
X114752900Y-140689044D01*
X114759626Y-140630640D01*
X114764306Y-140552103D01*
X114767306Y-140447290D01*
X114768993Y-140310055D01*
X114769736Y-140134255D01*
X114769900Y-139915900D01*
X114769782Y-139696673D01*
X114769782Y-139696673D01*
G37*
X114769782Y-139696673D02*
X114769156Y-139522011D01*
X114767617Y-139385679D01*
X114764762Y-139281441D01*
X114760184Y-139203063D01*
X114753481Y-139144309D01*
X114744245Y-139098945D01*
X114732074Y-139060735D01*
X114716561Y-139023444D01*
X114711181Y-139011473D01*
X114626406Y-138870817D01*
X114513842Y-138751536D01*
X114386771Y-138667220D01*
X114365397Y-138657639D01*
X114250310Y-138625787D01*
X114106252Y-138609186D01*
X113952992Y-138608757D01*
X113810295Y-138625423D01*
X113785866Y-138630631D01*
X113629230Y-138685420D01*
X113514165Y-138767917D01*
X113438812Y-138879473D01*
X113436469Y-138884860D01*
X113420865Y-138932950D01*
X113395829Y-139024407D01*
X113362894Y-139152999D01*
X113323595Y-139312490D01*
X113279468Y-139496647D01*
X113232047Y-139699236D01*
X113182868Y-139914023D01*
X113180408Y-139924889D01*
X112968676Y-140860978D01*
X112868187Y-140847499D01*
X112740212Y-140806635D01*
X112636044Y-140721193D01*
X112585500Y-140649845D01*
X112569725Y-140619919D01*
X112557588Y-140585944D01*
X112548616Y-140541211D01*
X112542337Y-140479009D01*
X112538279Y-140392628D01*
X112535969Y-140275359D01*
X112534933Y-140120491D01*
X112534700Y-139928600D01*
X112534952Y-139730980D01*
X112536022Y-139577448D01*
X112538382Y-139461296D01*
X112542505Y-139375812D01*
X112548864Y-139314287D01*
X112557932Y-139270012D01*
X112570181Y-139236275D01*
X112585500Y-139207356D01*
X112670227Y-139100517D01*
X112778600Y-139034469D01*
X112891922Y-139006179D01*
X113017300Y-138988315D01*
X113024719Y-138791708D01*
X113027610Y-138695160D01*
X113021891Y-138633632D01*
X112999078Y-138601853D01*
X112950691Y-138594552D01*
X112868249Y-138606458D01*
X112761927Y-138628400D01*
X112568799Y-138688590D01*
X112413953Y-138781260D01*
X112294894Y-138908598D01*
X112209124Y-139072790D01*
X112189379Y-139129986D01*
X112174243Y-139183912D01*
X112162621Y-139241114D01*
X112154085Y-139308927D01*
X112148210Y-139394683D01*
X112144568Y-139505718D01*
X112142734Y-139649366D01*
X112142280Y-139832960D01*
X112142427Y-139937213D01*
X112143283Y-140142877D01*
X112145145Y-140305036D01*
X112148467Y-140430986D01*
X112153704Y-140528020D01*
X112161307Y-140603431D01*
X112171731Y-140664513D01*
X112185429Y-140718560D01*
X112192422Y-140741400D01*
X112269787Y-140913504D01*
X112381470Y-141049479D01*
X112529094Y-141150668D01*
X112714279Y-141218413D01*
X112788037Y-141234428D01*
X112860023Y-141242977D01*
X112972186Y-141250453D01*
X113113909Y-141256420D01*
X113274572Y-141260442D01*
X113443557Y-141262084D01*
X113461800Y-141262100D01*
X113623320Y-141260804D01*
X113623320Y-140857750D01*
X113518416Y-140857702D01*
X113442510Y-140857461D01*
X113405896Y-140857045D01*
X113404650Y-140856986D01*
X113396516Y-140854627D01*
X113391506Y-140845722D01*
X113390521Y-140825630D01*
X113394459Y-140789706D01*
X113404219Y-140733307D01*
X113420701Y-140651791D01*
X113444804Y-140540515D01*
X113477427Y-140394835D01*
X113519469Y-140210108D01*
X113571829Y-139981692D01*
X113586653Y-139917147D01*
X113648223Y-139653211D01*
X113701614Y-139432956D01*
X113746497Y-139257617D01*
X113782543Y-139128432D01*
X113809425Y-139046637D01*
X113826601Y-139013619D01*
X113885060Y-138995239D01*
X113974268Y-138994543D01*
X114077620Y-139010824D01*
X114134283Y-139026697D01*
X114235474Y-139083892D01*
X114320949Y-139176412D01*
X114372744Y-139278341D01*
X114382760Y-139335211D01*
X114390686Y-139433249D01*
X114396523Y-139562879D01*
X114400271Y-139714522D01*
X114401932Y-139878602D01*
X114401504Y-140045541D01*
X114398990Y-140205763D01*
X114394389Y-140349690D01*
X114387702Y-140467745D01*
X114378929Y-140550351D01*
X114372682Y-140578860D01*
X114330571Y-140676165D01*
X114273666Y-140748987D01*
X114194997Y-140800432D01*
X114087594Y-140833604D01*
X113944486Y-140851608D01*
X113758703Y-140857549D01*
X113746925Y-140857588D01*
X113623320Y-140857750D01*
X113623320Y-141260804D01*
X113631049Y-141260741D01*
X113793118Y-141256954D01*
X113937389Y-141251175D01*
X114053245Y-141243841D01*
X114130066Y-141235387D01*
X114135564Y-141234428D01*
X114332318Y-141179122D01*
X114491913Y-141091246D01*
X114618595Y-140967663D01*
X114716613Y-140805233D01*
X114716768Y-140804900D01*
X114731838Y-140770030D01*
X114743759Y-140733459D01*
X114752900Y-140689044D01*
X114759626Y-140630640D01*
X114764306Y-140552103D01*
X114767306Y-140447290D01*
X114768993Y-140310055D01*
X114769736Y-140134255D01*
X114769900Y-139915900D01*
X114769782Y-139696673D01*
G36*
X114630200Y-143827500D02*
G01*
X114379045Y-143827265D01*
X114143940Y-143826588D01*
X113929647Y-143825516D01*
X113740928Y-143824094D01*
X113582545Y-143822368D01*
X113459260Y-143820383D01*
X113375834Y-143818186D01*
X113337029Y-143815821D01*
X113334800Y-143815092D01*
X113349995Y-143793204D01*
X113393512Y-143735404D01*
X113462250Y-143645698D01*
X113553108Y-143528089D01*
X113662985Y-143386581D01*
X113788780Y-143225179D01*
X113927393Y-143047886D01*
X114057717Y-142881642D01*
X114780633Y-141960600D01*
X114781617Y-141763750D01*
X114782600Y-141566900D01*
X114687350Y-141567041D01*
X114661634Y-141567878D01*
X114637489Y-141572898D01*
X114611366Y-141585980D01*
X114579712Y-141611005D01*
X114538977Y-141651854D01*
X114485608Y-141712408D01*
X114416055Y-141796547D01*
X114326765Y-141908153D01*
X114214189Y-142051107D01*
X114074774Y-142229288D01*
X114036523Y-142278241D01*
X113907444Y-142442710D01*
X113787809Y-142593738D01*
X113681284Y-142726807D01*
X113591530Y-142837401D01*
X113522212Y-142921001D01*
X113476993Y-142973091D01*
X113459854Y-142989300D01*
X113439904Y-142969950D01*
X113392566Y-142914918D01*
X113321500Y-142828728D01*
X113230365Y-142715909D01*
X113122819Y-142580985D01*
X113002521Y-142428484D01*
X112885132Y-142278349D01*
X112739093Y-142090950D01*
X112620693Y-141939762D01*
X112526383Y-141820897D01*
X112452614Y-141730465D01*
X112395839Y-141664577D01*
X112352509Y-141619344D01*
X112319075Y-141590877D01*
X112291990Y-141575288D01*
X112267704Y-141568686D01*
X112242671Y-141567183D01*
X112236250Y-141567149D01*
X112141000Y-141566900D01*
X112141000Y-141950831D01*
X112675123Y-142636422D01*
X112821002Y-142825227D01*
X112945671Y-142989781D01*
X113047071Y-143127224D01*
X113123144Y-143234697D01*
X113171831Y-143309342D01*
X113191072Y-143348300D01*
X113190854Y-143352507D01*
X113168354Y-143383996D01*
X113121573Y-143445800D01*
X113057775Y-143528416D01*
X112997681Y-143605250D01*
X112822899Y-143827500D01*
X112141000Y-143827500D01*
X112141000Y-144208500D01*
X115925600Y-144208500D01*
X115925600Y-143827500D01*
X114630200Y-143827500D01*
X114630200Y-143827500D01*
G37*
X114630200Y-143827500D02*
X114379045Y-143827265D01*
X114143940Y-143826588D01*
X113929647Y-143825516D01*
X113740928Y-143824094D01*
X113582545Y-143822368D01*
X113459260Y-143820383D01*
X113375834Y-143818186D01*
X113337029Y-143815821D01*
X113334800Y-143815092D01*
X113349995Y-143793204D01*
X113393512Y-143735404D01*
X113462250Y-143645698D01*
X113553108Y-143528089D01*
X113662985Y-143386581D01*
X113788780Y-143225179D01*
X113927393Y-143047886D01*
X114057717Y-142881642D01*
X114780633Y-141960600D01*
X114781617Y-141763750D01*
X114782600Y-141566900D01*
X114687350Y-141567041D01*
X114661634Y-141567878D01*
X114637489Y-141572898D01*
X114611366Y-141585980D01*
X114579712Y-141611005D01*
X114538977Y-141651854D01*
X114485608Y-141712408D01*
X114416055Y-141796547D01*
X114326765Y-141908153D01*
X114214189Y-142051107D01*
X114074774Y-142229288D01*
X114036523Y-142278241D01*
X113907444Y-142442710D01*
X113787809Y-142593738D01*
X113681284Y-142726807D01*
X113591530Y-142837401D01*
X113522212Y-142921001D01*
X113476993Y-142973091D01*
X113459854Y-142989300D01*
X113439904Y-142969950D01*
X113392566Y-142914918D01*
X113321500Y-142828728D01*
X113230365Y-142715909D01*
X113122819Y-142580985D01*
X113002521Y-142428484D01*
X112885132Y-142278349D01*
X112739093Y-142090950D01*
X112620693Y-141939762D01*
X112526383Y-141820897D01*
X112452614Y-141730465D01*
X112395839Y-141664577D01*
X112352509Y-141619344D01*
X112319075Y-141590877D01*
X112291990Y-141575288D01*
X112267704Y-141568686D01*
X112242671Y-141567183D01*
X112236250Y-141567149D01*
X112141000Y-141566900D01*
X112141000Y-141950831D01*
X112675123Y-142636422D01*
X112821002Y-142825227D01*
X112945671Y-142989781D01*
X113047071Y-143127224D01*
X113123144Y-143234697D01*
X113171831Y-143309342D01*
X113191072Y-143348300D01*
X113190854Y-143352507D01*
X113168354Y-143383996D01*
X113121573Y-143445800D01*
X113057775Y-143528416D01*
X112997681Y-143605250D01*
X112822899Y-143827500D01*
X112141000Y-143827500D01*
X112141000Y-144208500D01*
X115925600Y-144208500D01*
X115925600Y-143827500D01*
X114630200Y-143827500D01*
G36*
X114785774Y-145791191D02*
G01*
X114782357Y-145605308D01*
X114775855Y-145434693D01*
X114766269Y-145288772D01*
X114753594Y-145176971D01*
X114742055Y-145121161D01*
X114687285Y-144985454D01*
X114610254Y-144860533D01*
X114529634Y-144772141D01*
X114436003Y-144711983D01*
X114311037Y-144657832D01*
X114174185Y-144616928D01*
X114061187Y-144597804D01*
X113893600Y-144582155D01*
X113893600Y-144963596D01*
X114011197Y-144979714D01*
X114150049Y-145017921D01*
X114265064Y-145087452D01*
X114344250Y-145181022D01*
X114345066Y-145182503D01*
X114358734Y-145212848D01*
X114369279Y-145252073D01*
X114377093Y-145306650D01*
X114382565Y-145383051D01*
X114386084Y-145487749D01*
X114388041Y-145627218D01*
X114388826Y-145807929D01*
X114388900Y-145910300D01*
X114388721Y-146109039D01*
X114387849Y-146263625D01*
X114385786Y-146380704D01*
X114382030Y-146466924D01*
X114376082Y-146528931D01*
X114367443Y-146573372D01*
X114355612Y-146606893D01*
X114340090Y-146636141D01*
X114333505Y-146646900D01*
X114274425Y-146719745D01*
X114202843Y-146780856D01*
X114193805Y-146786600D01*
X114164821Y-146802229D01*
X114131767Y-146814290D01*
X114088035Y-146823241D01*
X114027019Y-146829541D01*
X113942113Y-146833648D01*
X113826709Y-146836021D01*
X113674200Y-146837119D01*
X113477981Y-146837400D01*
X113461800Y-146837400D01*
X113262139Y-146837161D01*
X113106669Y-146836139D01*
X112988785Y-146833874D01*
X112901880Y-146829908D01*
X112839347Y-146823784D01*
X112794579Y-146815041D01*
X112760970Y-146803223D01*
X112731913Y-146787869D01*
X112729796Y-146786600D01*
X112658839Y-146729408D01*
X112596293Y-146656391D01*
X112590096Y-146646900D01*
X112573123Y-146617564D01*
X112560022Y-146586346D01*
X112550292Y-146546600D01*
X112543433Y-146491681D01*
X112538946Y-146414940D01*
X112536331Y-146309732D01*
X112535088Y-146169409D01*
X112534717Y-145987325D01*
X112534700Y-145910300D01*
X112534880Y-145711562D01*
X112535752Y-145556976D01*
X112537815Y-145439897D01*
X112541571Y-145353677D01*
X112547519Y-145291670D01*
X112556158Y-145247229D01*
X112567989Y-145213708D01*
X112583511Y-145184460D01*
X112590096Y-145173700D01*
X112681452Y-145070310D01*
X112804628Y-145004551D01*
X112913606Y-144979549D01*
X113030000Y-144963596D01*
X113030000Y-144582155D01*
X112864233Y-144597634D01*
X112659494Y-144638301D01*
X112484279Y-144718306D01*
X112341215Y-144835902D01*
X112232927Y-144989342D01*
X112212420Y-145031273D01*
X112195128Y-145071483D01*
X112181543Y-145111187D01*
X112171159Y-145156998D01*
X112163475Y-145215530D01*
X112157984Y-145293397D01*
X112154183Y-145397214D01*
X112151568Y-145533593D01*
X112149634Y-145709150D01*
X112148315Y-145872200D01*
X112147284Y-146106787D01*
X112148225Y-146295286D01*
X112151293Y-146442376D01*
X112156649Y-146552736D01*
X112164449Y-146631047D01*
X112174853Y-146681988D01*
X112175796Y-146685000D01*
X112253043Y-146864572D01*
X112358489Y-147005315D01*
X112497999Y-147114028D01*
X112585500Y-147159949D01*
X112625592Y-147177387D01*
X112665629Y-147191073D01*
X112712323Y-147201549D01*
X112772386Y-147209359D01*
X112852529Y-147215045D01*
X112959464Y-147219149D01*
X113099903Y-147222214D01*
X113280556Y-147224782D01*
X113405691Y-147226250D01*
X113620911Y-147228251D01*
X113792146Y-147228644D01*
X113926189Y-147227154D01*
X114029836Y-147223503D01*
X114109885Y-147217416D01*
X114173130Y-147208617D01*
X114226367Y-147196827D01*
X114243046Y-147192191D01*
X114423610Y-147117264D01*
X114567076Y-147007756D01*
X114674509Y-146862614D01*
X114741664Y-146699328D01*
X114756697Y-146619760D01*
X114768660Y-146498910D01*
X114777552Y-146346203D01*
X114783370Y-146171064D01*
X114786111Y-145982919D01*
X114785774Y-145791191D01*
X114785774Y-145791191D01*
G37*
X114785774Y-145791191D02*
X114782357Y-145605308D01*
X114775855Y-145434693D01*
X114766269Y-145288772D01*
X114753594Y-145176971D01*
X114742055Y-145121161D01*
X114687285Y-144985454D01*
X114610254Y-144860533D01*
X114529634Y-144772141D01*
X114436003Y-144711983D01*
X114311037Y-144657832D01*
X114174185Y-144616928D01*
X114061187Y-144597804D01*
X113893600Y-144582155D01*
X113893600Y-144963596D01*
X114011197Y-144979714D01*
X114150049Y-145017921D01*
X114265064Y-145087452D01*
X114344250Y-145181022D01*
X114345066Y-145182503D01*
X114358734Y-145212848D01*
X114369279Y-145252073D01*
X114377093Y-145306650D01*
X114382565Y-145383051D01*
X114386084Y-145487749D01*
X114388041Y-145627218D01*
X114388826Y-145807929D01*
X114388900Y-145910300D01*
X114388721Y-146109039D01*
X114387849Y-146263625D01*
X114385786Y-146380704D01*
X114382030Y-146466924D01*
X114376082Y-146528931D01*
X114367443Y-146573372D01*
X114355612Y-146606893D01*
X114340090Y-146636141D01*
X114333505Y-146646900D01*
X114274425Y-146719745D01*
X114202843Y-146780856D01*
X114193805Y-146786600D01*
X114164821Y-146802229D01*
X114131767Y-146814290D01*
X114088035Y-146823241D01*
X114027019Y-146829541D01*
X113942113Y-146833648D01*
X113826709Y-146836021D01*
X113674200Y-146837119D01*
X113477981Y-146837400D01*
X113461800Y-146837400D01*
X113262139Y-146837161D01*
X113106669Y-146836139D01*
X112988785Y-146833874D01*
X112901880Y-146829908D01*
X112839347Y-146823784D01*
X112794579Y-146815041D01*
X112760970Y-146803223D01*
X112731913Y-146787869D01*
X112729796Y-146786600D01*
X112658839Y-146729408D01*
X112596293Y-146656391D01*
X112590096Y-146646900D01*
X112573123Y-146617564D01*
X112560022Y-146586346D01*
X112550292Y-146546600D01*
X112543433Y-146491681D01*
X112538946Y-146414940D01*
X112536331Y-146309732D01*
X112535088Y-146169409D01*
X112534717Y-145987325D01*
X112534700Y-145910300D01*
X112534880Y-145711562D01*
X112535752Y-145556976D01*
X112537815Y-145439897D01*
X112541571Y-145353677D01*
X112547519Y-145291670D01*
X112556158Y-145247229D01*
X112567989Y-145213708D01*
X112583511Y-145184460D01*
X112590096Y-145173700D01*
X112681452Y-145070310D01*
X112804628Y-145004551D01*
X112913606Y-144979549D01*
X113030000Y-144963596D01*
X113030000Y-144582155D01*
X112864233Y-144597634D01*
X112659494Y-144638301D01*
X112484279Y-144718306D01*
X112341215Y-144835902D01*
X112232927Y-144989342D01*
X112212420Y-145031273D01*
X112195128Y-145071483D01*
X112181543Y-145111187D01*
X112171159Y-145156998D01*
X112163475Y-145215530D01*
X112157984Y-145293397D01*
X112154183Y-145397214D01*
X112151568Y-145533593D01*
X112149634Y-145709150D01*
X112148315Y-145872200D01*
X112147284Y-146106787D01*
X112148225Y-146295286D01*
X112151293Y-146442376D01*
X112156649Y-146552736D01*
X112164449Y-146631047D01*
X112174853Y-146681988D01*
X112175796Y-146685000D01*
X112253043Y-146864572D01*
X112358489Y-147005315D01*
X112497999Y-147114028D01*
X112585500Y-147159949D01*
X112625592Y-147177387D01*
X112665629Y-147191073D01*
X112712323Y-147201549D01*
X112772386Y-147209359D01*
X112852529Y-147215045D01*
X112959464Y-147219149D01*
X113099903Y-147222214D01*
X113280556Y-147224782D01*
X113405691Y-147226250D01*
X113620911Y-147228251D01*
X113792146Y-147228644D01*
X113926189Y-147227154D01*
X114029836Y-147223503D01*
X114109885Y-147217416D01*
X114173130Y-147208617D01*
X114226367Y-147196827D01*
X114243046Y-147192191D01*
X114423610Y-147117264D01*
X114567076Y-147007756D01*
X114674509Y-146862614D01*
X114741664Y-146699328D01*
X114756697Y-146619760D01*
X114768660Y-146498910D01*
X114777552Y-146346203D01*
X114783370Y-146171064D01*
X114786111Y-145982919D01*
X114785774Y-145791191D01*
G36*
X114784389Y-148777251D02*
G01*
X114780358Y-148593371D01*
X114773256Y-148427204D01*
X114763083Y-148288525D01*
X114749838Y-148187108D01*
X114744071Y-148160647D01*
X114674675Y-147982318D01*
X114568008Y-147838246D01*
X114423463Y-147727823D01*
X114240433Y-147650442D01*
X114231191Y-147647701D01*
X114180673Y-147635703D01*
X114117708Y-147626649D01*
X114035841Y-147620299D01*
X113928613Y-147616413D01*
X113789570Y-147614749D01*
X113612253Y-147615067D01*
X113405691Y-147616951D01*
X113198772Y-147619480D01*
X113035941Y-147622194D01*
X112910484Y-147625635D01*
X112815691Y-147630345D01*
X112744848Y-147636866D01*
X112691244Y-147645740D01*
X112648168Y-147657509D01*
X112608906Y-147672716D01*
X112585500Y-147683204D01*
X112422176Y-147784645D01*
X112290756Y-147921261D01*
X112212420Y-148053873D01*
X112195128Y-148094083D01*
X112181543Y-148133787D01*
X112171159Y-148179598D01*
X112163475Y-148238130D01*
X112157984Y-148315997D01*
X112154183Y-148419814D01*
X112151568Y-148556193D01*
X112149634Y-148731750D01*
X112148315Y-148894800D01*
X112147284Y-149129387D01*
X112148225Y-149317886D01*
X112151293Y-149464976D01*
X112156649Y-149575336D01*
X112164449Y-149653647D01*
X112174853Y-149704588D01*
X112175796Y-149707600D01*
X112253043Y-149887172D01*
X112358489Y-150027915D01*
X112497999Y-150136628D01*
X112585500Y-150182549D01*
X112625592Y-150199987D01*
X112665629Y-150213673D01*
X112712323Y-150224149D01*
X112772386Y-150231959D01*
X112852529Y-150237645D01*
X112959464Y-150241749D01*
X113099903Y-150244814D01*
X113280556Y-150247382D01*
X113405691Y-150248850D01*
X113485531Y-150249592D01*
X113485531Y-149872559D01*
X113314437Y-149871365D01*
X113155193Y-149868103D01*
X113016647Y-149863124D01*
X112907650Y-149856779D01*
X112837048Y-149849417D01*
X112821500Y-149846255D01*
X112717586Y-149796032D01*
X112624999Y-149713922D01*
X112560695Y-149616174D01*
X112549171Y-149585294D01*
X112542523Y-149537467D01*
X112536986Y-149447070D01*
X112532790Y-149322324D01*
X112530167Y-149171450D01*
X112529345Y-149002671D01*
X112529824Y-148894800D01*
X112531588Y-148702275D01*
X112533810Y-148553635D01*
X112537085Y-148441967D01*
X112542011Y-148360356D01*
X112549185Y-148301888D01*
X112559203Y-148259650D01*
X112572661Y-148226727D01*
X112590096Y-148196300D01*
X112626702Y-148141028D01*
X112663928Y-148097591D01*
X112708219Y-148064467D01*
X112766022Y-148040137D01*
X112843783Y-148023078D01*
X112947948Y-148011770D01*
X113084962Y-148004693D01*
X113261272Y-148000324D01*
X113431331Y-147997804D01*
X113625327Y-147995507D01*
X113775633Y-147994566D01*
X113889353Y-147995435D01*
X113973589Y-147998562D01*
X114035444Y-148004398D01*
X114082020Y-148013395D01*
X114120420Y-148026001D01*
X114157746Y-148042668D01*
X114160623Y-148044057D01*
X114257836Y-148109140D01*
X114330793Y-148191753D01*
X114348570Y-148222022D01*
X114362295Y-148253025D01*
X114372492Y-148291440D01*
X114379684Y-148343946D01*
X114384394Y-148417222D01*
X114387147Y-148517945D01*
X114388466Y-148652796D01*
X114388874Y-148828451D01*
X114388900Y-148932900D01*
X114388750Y-149131299D01*
X114387949Y-149285577D01*
X114385973Y-149402411D01*
X114382300Y-149488482D01*
X114376406Y-149550466D01*
X114367767Y-149595044D01*
X114355859Y-149628893D01*
X114340160Y-149658691D01*
X114330793Y-149674048D01*
X114260210Y-149754593D01*
X114167661Y-149818308D01*
X114164023Y-149820098D01*
X114125020Y-149837290D01*
X114083519Y-149850283D01*
X114032039Y-149859657D01*
X113963099Y-149865990D01*
X113869218Y-149869860D01*
X113742916Y-149871846D01*
X113576712Y-149872525D01*
X113485531Y-149872559D01*
X113485531Y-150249592D01*
X113620911Y-150250851D01*
X113792146Y-150251244D01*
X113926189Y-150249754D01*
X114029836Y-150246103D01*
X114109885Y-150240016D01*
X114173130Y-150231217D01*
X114226367Y-150219427D01*
X114243046Y-150214791D01*
X114423890Y-150139625D01*
X114567449Y-150029977D01*
X114674000Y-149885564D01*
X114743823Y-149706101D01*
X114744071Y-149705154D01*
X114758469Y-149620254D01*
X114769796Y-149494421D01*
X114778051Y-149337430D01*
X114783235Y-149159055D01*
X114785348Y-148969071D01*
X114784389Y-148777251D01*
X114784389Y-148777251D01*
G37*
X114784389Y-148777251D02*
X114780358Y-148593371D01*
X114773256Y-148427204D01*
X114763083Y-148288525D01*
X114749838Y-148187108D01*
X114744071Y-148160647D01*
X114674675Y-147982318D01*
X114568008Y-147838246D01*
X114423463Y-147727823D01*
X114240433Y-147650442D01*
X114231191Y-147647701D01*
X114180673Y-147635703D01*
X114117708Y-147626649D01*
X114035841Y-147620299D01*
X113928613Y-147616413D01*
X113789570Y-147614749D01*
X113612253Y-147615067D01*
X113405691Y-147616951D01*
X113198772Y-147619480D01*
X113035941Y-147622194D01*
X112910484Y-147625635D01*
X112815691Y-147630345D01*
X112744848Y-147636866D01*
X112691244Y-147645740D01*
X112648168Y-147657509D01*
X112608906Y-147672716D01*
X112585500Y-147683204D01*
X112422176Y-147784645D01*
X112290756Y-147921261D01*
X112212420Y-148053873D01*
X112195128Y-148094083D01*
X112181543Y-148133787D01*
X112171159Y-148179598D01*
X112163475Y-148238130D01*
X112157984Y-148315997D01*
X112154183Y-148419814D01*
X112151568Y-148556193D01*
X112149634Y-148731750D01*
X112148315Y-148894800D01*
X112147284Y-149129387D01*
X112148225Y-149317886D01*
X112151293Y-149464976D01*
X112156649Y-149575336D01*
X112164449Y-149653647D01*
X112174853Y-149704588D01*
X112175796Y-149707600D01*
X112253043Y-149887172D01*
X112358489Y-150027915D01*
X112497999Y-150136628D01*
X112585500Y-150182549D01*
X112625592Y-150199987D01*
X112665629Y-150213673D01*
X112712323Y-150224149D01*
X112772386Y-150231959D01*
X112852529Y-150237645D01*
X112959464Y-150241749D01*
X113099903Y-150244814D01*
X113280556Y-150247382D01*
X113405691Y-150248850D01*
X113485531Y-150249592D01*
X113485531Y-149872559D01*
X113314437Y-149871365D01*
X113155193Y-149868103D01*
X113016647Y-149863124D01*
X112907650Y-149856779D01*
X112837048Y-149849417D01*
X112821500Y-149846255D01*
X112717586Y-149796032D01*
X112624999Y-149713922D01*
X112560695Y-149616174D01*
X112549171Y-149585294D01*
X112542523Y-149537467D01*
X112536986Y-149447070D01*
X112532790Y-149322324D01*
X112530167Y-149171450D01*
X112529345Y-149002671D01*
X112529824Y-148894800D01*
X112531588Y-148702275D01*
X112533810Y-148553635D01*
X112537085Y-148441967D01*
X112542011Y-148360356D01*
X112549185Y-148301888D01*
X112559203Y-148259650D01*
X112572661Y-148226727D01*
X112590096Y-148196300D01*
X112626702Y-148141028D01*
X112663928Y-148097591D01*
X112708219Y-148064467D01*
X112766022Y-148040137D01*
X112843783Y-148023078D01*
X112947948Y-148011770D01*
X113084962Y-148004693D01*
X113261272Y-148000324D01*
X113431331Y-147997804D01*
X113625327Y-147995507D01*
X113775633Y-147994566D01*
X113889353Y-147995435D01*
X113973589Y-147998562D01*
X114035444Y-148004398D01*
X114082020Y-148013395D01*
X114120420Y-148026001D01*
X114157746Y-148042668D01*
X114160623Y-148044057D01*
X114257836Y-148109140D01*
X114330793Y-148191753D01*
X114348570Y-148222022D01*
X114362295Y-148253025D01*
X114372492Y-148291440D01*
X114379684Y-148343946D01*
X114384394Y-148417222D01*
X114387147Y-148517945D01*
X114388466Y-148652796D01*
X114388874Y-148828451D01*
X114388900Y-148932900D01*
X114388750Y-149131299D01*
X114387949Y-149285577D01*
X114385973Y-149402411D01*
X114382300Y-149488482D01*
X114376406Y-149550466D01*
X114367767Y-149595044D01*
X114355859Y-149628893D01*
X114340160Y-149658691D01*
X114330793Y-149674048D01*
X114260210Y-149754593D01*
X114167661Y-149818308D01*
X114164023Y-149820098D01*
X114125020Y-149837290D01*
X114083519Y-149850283D01*
X114032039Y-149859657D01*
X113963099Y-149865990D01*
X113869218Y-149869860D01*
X113742916Y-149871846D01*
X113576712Y-149872525D01*
X113485531Y-149872559D01*
X113485531Y-150249592D01*
X113620911Y-150250851D01*
X113792146Y-150251244D01*
X113926189Y-150249754D01*
X114029836Y-150246103D01*
X114109885Y-150240016D01*
X114173130Y-150231217D01*
X114226367Y-150219427D01*
X114243046Y-150214791D01*
X114423890Y-150139625D01*
X114567449Y-150029977D01*
X114674000Y-149885564D01*
X114743823Y-149706101D01*
X114744071Y-149705154D01*
X114758469Y-149620254D01*
X114769796Y-149494421D01*
X114778051Y-149337430D01*
X114783235Y-149159055D01*
X114785348Y-148969071D01*
X114784389Y-148777251D01*
G36*
X115919707Y-152253950D02*
G01*
X115917218Y-151994525D01*
X115914599Y-151780762D01*
X115911607Y-151607522D01*
X115907998Y-151469667D01*
X115903526Y-151362059D01*
X115897949Y-151279560D01*
X115891021Y-151217032D01*
X115882498Y-151169336D01*
X115872137Y-151131335D01*
X115865434Y-151112359D01*
X115785577Y-150964032D01*
X115670227Y-150831895D01*
X115533302Y-150730873D01*
X115488407Y-150708098D01*
X115446507Y-150690033D01*
X115405705Y-150675856D01*
X115359242Y-150665007D01*
X115300361Y-150656923D01*
X115222305Y-150651043D01*
X115118315Y-150646805D01*
X114981636Y-150643647D01*
X114805508Y-150641008D01*
X114659846Y-150639223D01*
X114451211Y-150636997D01*
X114286174Y-150636066D01*
X114157538Y-150636806D01*
X114058110Y-150639597D01*
X113980694Y-150644815D01*
X113918097Y-150652839D01*
X113863122Y-150664047D01*
X113808576Y-150678815D01*
X113787886Y-150685007D01*
X113667453Y-150728892D01*
X113575785Y-150782523D01*
X113501206Y-150847958D01*
X113415722Y-150955834D01*
X113345279Y-151086555D01*
X113298458Y-151221199D01*
X113283612Y-151327803D01*
X113277523Y-151394711D01*
X113263540Y-151440378D01*
X113239897Y-151434138D01*
X113183710Y-151391622D01*
X113094621Y-151312508D01*
X112972271Y-151196473D01*
X112816300Y-151043193D01*
X112762529Y-150989528D01*
X112612316Y-150840031D01*
X112492998Y-150723563D01*
X112400357Y-150636440D01*
X112330179Y-150574978D01*
X112278246Y-150535492D01*
X112240342Y-150514298D01*
X112212251Y-150507712D01*
X112211101Y-150507700D01*
X112141000Y-150507700D01*
X112141000Y-150899976D01*
X113271300Y-152044400D01*
X113263766Y-152469850D01*
X113256231Y-152895300D01*
X112141000Y-152895300D01*
X112141000Y-153276300D01*
X113665858Y-153276300D01*
X113665858Y-152895300D01*
X113659079Y-152241250D01*
X113657143Y-151992858D01*
X113657272Y-151789795D01*
X113659884Y-151626619D01*
X113665400Y-151497887D01*
X113674238Y-151398156D01*
X113686819Y-151321981D01*
X113703561Y-151263920D01*
X113724885Y-151218530D01*
X113739659Y-151195665D01*
X113776922Y-151146643D01*
X113815057Y-151108218D01*
X113860603Y-151079009D01*
X113920102Y-151057634D01*
X114000094Y-151042710D01*
X114107119Y-151032858D01*
X114247719Y-151026694D01*
X114428432Y-151022838D01*
X114566700Y-151020961D01*
X114758661Y-151018787D01*
X114906968Y-151017878D01*
X115018764Y-151018736D01*
X115101190Y-151021862D01*
X115161387Y-151027759D01*
X115206498Y-151036928D01*
X115243663Y-151049873D01*
X115280024Y-151067096D01*
X115289114Y-151071761D01*
X115406023Y-151151271D01*
X115481206Y-151251753D01*
X115521002Y-151374903D01*
X115526699Y-151429366D01*
X115531905Y-151526750D01*
X115536405Y-151659178D01*
X115539980Y-151818772D01*
X115542415Y-151997654D01*
X115543490Y-152187946D01*
X115543494Y-152190450D01*
X115544600Y-152895300D01*
X113665858Y-152895300D01*
X113665858Y-153276300D01*
X115928731Y-153276300D01*
X115919707Y-152253950D01*
X115919707Y-152253950D01*
G37*
X115919707Y-152253950D02*
X115917218Y-151994525D01*
X115914599Y-151780762D01*
X115911607Y-151607522D01*
X115907998Y-151469667D01*
X115903526Y-151362059D01*
X115897949Y-151279560D01*
X115891021Y-151217032D01*
X115882498Y-151169336D01*
X115872137Y-151131335D01*
X115865434Y-151112359D01*
X115785577Y-150964032D01*
X115670227Y-150831895D01*
X115533302Y-150730873D01*
X115488407Y-150708098D01*
X115446507Y-150690033D01*
X115405705Y-150675856D01*
X115359242Y-150665007D01*
X115300361Y-150656923D01*
X115222305Y-150651043D01*
X115118315Y-150646805D01*
X114981636Y-150643647D01*
X114805508Y-150641008D01*
X114659846Y-150639223D01*
X114451211Y-150636997D01*
X114286174Y-150636066D01*
X114157538Y-150636806D01*
X114058110Y-150639597D01*
X113980694Y-150644815D01*
X113918097Y-150652839D01*
X113863122Y-150664047D01*
X113808576Y-150678815D01*
X113787886Y-150685007D01*
X113667453Y-150728892D01*
X113575785Y-150782523D01*
X113501206Y-150847958D01*
X113415722Y-150955834D01*
X113345279Y-151086555D01*
X113298458Y-151221199D01*
X113283612Y-151327803D01*
X113277523Y-151394711D01*
X113263540Y-151440378D01*
X113239897Y-151434138D01*
X113183710Y-151391622D01*
X113094621Y-151312508D01*
X112972271Y-151196473D01*
X112816300Y-151043193D01*
X112762529Y-150989528D01*
X112612316Y-150840031D01*
X112492998Y-150723563D01*
X112400357Y-150636440D01*
X112330179Y-150574978D01*
X112278246Y-150535492D01*
X112240342Y-150514298D01*
X112212251Y-150507712D01*
X112211101Y-150507700D01*
X112141000Y-150507700D01*
X112141000Y-150899976D01*
X113271300Y-152044400D01*
X113263766Y-152469850D01*
X113256231Y-152895300D01*
X112141000Y-152895300D01*
X112141000Y-153276300D01*
X113665858Y-153276300D01*
X113665858Y-152895300D01*
X113659079Y-152241250D01*
X113657143Y-151992858D01*
X113657272Y-151789795D01*
X113659884Y-151626619D01*
X113665400Y-151497887D01*
X113674238Y-151398156D01*
X113686819Y-151321981D01*
X113703561Y-151263920D01*
X113724885Y-151218530D01*
X113739659Y-151195665D01*
X113776922Y-151146643D01*
X113815057Y-151108218D01*
X113860603Y-151079009D01*
X113920102Y-151057634D01*
X114000094Y-151042710D01*
X114107119Y-151032858D01*
X114247719Y-151026694D01*
X114428432Y-151022838D01*
X114566700Y-151020961D01*
X114758661Y-151018787D01*
X114906968Y-151017878D01*
X115018764Y-151018736D01*
X115101190Y-151021862D01*
X115161387Y-151027759D01*
X115206498Y-151036928D01*
X115243663Y-151049873D01*
X115280024Y-151067096D01*
X115289114Y-151071761D01*
X115406023Y-151151271D01*
X115481206Y-151251753D01*
X115521002Y-151374903D01*
X115526699Y-151429366D01*
X115531905Y-151526750D01*
X115536405Y-151659178D01*
X115539980Y-151818772D01*
X115542415Y-151997654D01*
X115543490Y-152187946D01*
X115543494Y-152190450D01*
X115544600Y-152895300D01*
X113665858Y-152895300D01*
X113665858Y-153276300D01*
X115928731Y-153276300D01*
X115919707Y-152253950D01*
G36*
X114769782Y-155876473D02*
G01*
X114769156Y-155701811D01*
X114767617Y-155565479D01*
X114764762Y-155461241D01*
X114760184Y-155382863D01*
X114753481Y-155324109D01*
X114744245Y-155278745D01*
X114732074Y-155240535D01*
X114716561Y-155203244D01*
X114711181Y-155191273D01*
X114632013Y-155058356D01*
X114527536Y-154942809D01*
X114411478Y-154858919D01*
X114375109Y-154841497D01*
X114224505Y-154797193D01*
X114062586Y-154780816D01*
X113899583Y-154790304D01*
X113745726Y-154823596D01*
X113611245Y-154878631D01*
X113506370Y-154953347D01*
X113449578Y-155027978D01*
X113432555Y-155075722D01*
X113405240Y-155172923D01*
X113367699Y-155319304D01*
X113319998Y-155514589D01*
X113262202Y-155758502D01*
X113194380Y-156050768D01*
X113116595Y-156391108D01*
X113028916Y-156779248D01*
X113012105Y-156854089D01*
X112970161Y-157040977D01*
X112868930Y-157027399D01*
X112740705Y-156986662D01*
X112636540Y-156901581D01*
X112585500Y-156829645D01*
X112569725Y-156799719D01*
X112557588Y-156765744D01*
X112548616Y-156721011D01*
X112542337Y-156658809D01*
X112538279Y-156572428D01*
X112535969Y-156455159D01*
X112534933Y-156300291D01*
X112534700Y-156108400D01*
X112534952Y-155910780D01*
X112536022Y-155757248D01*
X112538382Y-155641096D01*
X112542505Y-155555612D01*
X112548864Y-155494087D01*
X112557932Y-155449812D01*
X112570181Y-155416075D01*
X112585500Y-155387156D01*
X112670227Y-155280317D01*
X112778600Y-155214269D01*
X112891922Y-155185979D01*
X113017300Y-155168115D01*
X113024719Y-154971508D01*
X113028001Y-154873167D01*
X113022869Y-154812050D01*
X113000338Y-154781744D01*
X112951425Y-154775836D01*
X112867145Y-154787912D01*
X112788037Y-154802573D01*
X112590358Y-154858326D01*
X112431115Y-154946382D01*
X112308045Y-155068647D01*
X112218885Y-155227021D01*
X112191048Y-155304626D01*
X112175440Y-155359747D01*
X112163451Y-155416743D01*
X112154637Y-155483026D01*
X112148556Y-155566011D01*
X112144762Y-155673109D01*
X112142814Y-155811734D01*
X112142267Y-155989300D01*
X112142427Y-156117426D01*
X112143283Y-156323027D01*
X112145147Y-156485127D01*
X112148474Y-156611025D01*
X112153716Y-156708016D01*
X112161328Y-156783399D01*
X112171764Y-156844469D01*
X112185477Y-156898525D01*
X112192422Y-156921200D01*
X112271114Y-157094830D01*
X112385278Y-157232392D01*
X112535416Y-157334310D01*
X112722033Y-157401009D01*
X112777494Y-157412803D01*
X112844791Y-157420581D01*
X112952863Y-157427418D01*
X113091687Y-157432935D01*
X113251239Y-157436756D01*
X113421499Y-157438502D01*
X113461800Y-157438571D01*
X113633118Y-157437364D01*
X113768041Y-157434575D01*
X113768041Y-157043330D01*
X113648459Y-157041530D01*
X113540021Y-157035964D01*
X113453302Y-157026926D01*
X113398882Y-157014708D01*
X113385623Y-157003750D01*
X113391143Y-156972356D01*
X113406825Y-156897325D01*
X113431374Y-156784512D01*
X113463489Y-156639771D01*
X113501875Y-156468956D01*
X113545234Y-156277922D01*
X113585999Y-156099795D01*
X113633350Y-155896074D01*
X113678184Y-155707764D01*
X113719033Y-155540683D01*
X113754431Y-155400650D01*
X113782910Y-155293483D01*
X113803002Y-155225003D01*
X113812519Y-155201422D01*
X113858348Y-155183452D01*
X113936002Y-155177576D01*
X114028028Y-155183552D01*
X114116973Y-155201137D01*
X114132360Y-155205862D01*
X114242802Y-155267605D01*
X114328449Y-155372491D01*
X114362288Y-155441181D01*
X114375625Y-155482656D01*
X114385693Y-155539293D01*
X114392882Y-155617830D01*
X114397580Y-155725007D01*
X114400174Y-155867560D01*
X114401053Y-156052227D01*
X114401043Y-156113935D01*
X114400434Y-156304888D01*
X114398683Y-156452346D01*
X114395281Y-156563613D01*
X114389717Y-156645989D01*
X114381483Y-156706776D01*
X114370068Y-156753277D01*
X114354964Y-156792794D01*
X114353434Y-156796197D01*
X114278243Y-156912146D01*
X114178191Y-156991458D01*
X114087874Y-157023207D01*
X113998325Y-157034462D01*
X113888189Y-157041072D01*
X113768041Y-157043330D01*
X113768041Y-157434575D01*
X113796074Y-157433995D01*
X113940645Y-157428841D01*
X114056810Y-157422279D01*
X114134545Y-157414687D01*
X114146107Y-157412803D01*
X114341551Y-157355929D01*
X114501384Y-157263745D01*
X114628493Y-157134084D01*
X114716768Y-156984700D01*
X114731838Y-156949830D01*
X114743759Y-156913259D01*
X114752900Y-156868844D01*
X114759626Y-156810440D01*
X114764306Y-156731903D01*
X114767306Y-156627090D01*
X114768993Y-156489855D01*
X114769736Y-156314055D01*
X114769900Y-156095700D01*
X114769782Y-155876473D01*
X114769782Y-155876473D01*
G37*
X114769782Y-155876473D02*
X114769156Y-155701811D01*
X114767617Y-155565479D01*
X114764762Y-155461241D01*
X114760184Y-155382863D01*
X114753481Y-155324109D01*
X114744245Y-155278745D01*
X114732074Y-155240535D01*
X114716561Y-155203244D01*
X114711181Y-155191273D01*
X114632013Y-155058356D01*
X114527536Y-154942809D01*
X114411478Y-154858919D01*
X114375109Y-154841497D01*
X114224505Y-154797193D01*
X114062586Y-154780816D01*
X113899583Y-154790304D01*
X113745726Y-154823596D01*
X113611245Y-154878631D01*
X113506370Y-154953347D01*
X113449578Y-155027978D01*
X113432555Y-155075722D01*
X113405240Y-155172923D01*
X113367699Y-155319304D01*
X113319998Y-155514589D01*
X113262202Y-155758502D01*
X113194380Y-156050768D01*
X113116595Y-156391108D01*
X113028916Y-156779248D01*
X113012105Y-156854089D01*
X112970161Y-157040977D01*
X112868930Y-157027399D01*
X112740705Y-156986662D01*
X112636540Y-156901581D01*
X112585500Y-156829645D01*
X112569725Y-156799719D01*
X112557588Y-156765744D01*
X112548616Y-156721011D01*
X112542337Y-156658809D01*
X112538279Y-156572428D01*
X112535969Y-156455159D01*
X112534933Y-156300291D01*
X112534700Y-156108400D01*
X112534952Y-155910780D01*
X112536022Y-155757248D01*
X112538382Y-155641096D01*
X112542505Y-155555612D01*
X112548864Y-155494087D01*
X112557932Y-155449812D01*
X112570181Y-155416075D01*
X112585500Y-155387156D01*
X112670227Y-155280317D01*
X112778600Y-155214269D01*
X112891922Y-155185979D01*
X113017300Y-155168115D01*
X113024719Y-154971508D01*
X113028001Y-154873167D01*
X113022869Y-154812050D01*
X113000338Y-154781744D01*
X112951425Y-154775836D01*
X112867145Y-154787912D01*
X112788037Y-154802573D01*
X112590358Y-154858326D01*
X112431115Y-154946382D01*
X112308045Y-155068647D01*
X112218885Y-155227021D01*
X112191048Y-155304626D01*
X112175440Y-155359747D01*
X112163451Y-155416743D01*
X112154637Y-155483026D01*
X112148556Y-155566011D01*
X112144762Y-155673109D01*
X112142814Y-155811734D01*
X112142267Y-155989300D01*
X112142427Y-156117426D01*
X112143283Y-156323027D01*
X112145147Y-156485127D01*
X112148474Y-156611025D01*
X112153716Y-156708016D01*
X112161328Y-156783399D01*
X112171764Y-156844469D01*
X112185477Y-156898525D01*
X112192422Y-156921200D01*
X112271114Y-157094830D01*
X112385278Y-157232392D01*
X112535416Y-157334310D01*
X112722033Y-157401009D01*
X112777494Y-157412803D01*
X112844791Y-157420581D01*
X112952863Y-157427418D01*
X113091687Y-157432935D01*
X113251239Y-157436756D01*
X113421499Y-157438502D01*
X113461800Y-157438571D01*
X113633118Y-157437364D01*
X113768041Y-157434575D01*
X113768041Y-157043330D01*
X113648459Y-157041530D01*
X113540021Y-157035964D01*
X113453302Y-157026926D01*
X113398882Y-157014708D01*
X113385623Y-157003750D01*
X113391143Y-156972356D01*
X113406825Y-156897325D01*
X113431374Y-156784512D01*
X113463489Y-156639771D01*
X113501875Y-156468956D01*
X113545234Y-156277922D01*
X113585999Y-156099795D01*
X113633350Y-155896074D01*
X113678184Y-155707764D01*
X113719033Y-155540683D01*
X113754431Y-155400650D01*
X113782910Y-155293483D01*
X113803002Y-155225003D01*
X113812519Y-155201422D01*
X113858348Y-155183452D01*
X113936002Y-155177576D01*
X114028028Y-155183552D01*
X114116973Y-155201137D01*
X114132360Y-155205862D01*
X114242802Y-155267605D01*
X114328449Y-155372491D01*
X114362288Y-155441181D01*
X114375625Y-155482656D01*
X114385693Y-155539293D01*
X114392882Y-155617830D01*
X114397580Y-155725007D01*
X114400174Y-155867560D01*
X114401053Y-156052227D01*
X114401043Y-156113935D01*
X114400434Y-156304888D01*
X114398683Y-156452346D01*
X114395281Y-156563613D01*
X114389717Y-156645989D01*
X114381483Y-156706776D01*
X114370068Y-156753277D01*
X114354964Y-156792794D01*
X114353434Y-156796197D01*
X114278243Y-156912146D01*
X114178191Y-156991458D01*
X114087874Y-157023207D01*
X113998325Y-157034462D01*
X113888189Y-157041072D01*
X113768041Y-157043330D01*
X113768041Y-157434575D01*
X113796074Y-157433995D01*
X113940645Y-157428841D01*
X114056810Y-157422279D01*
X114134545Y-157414687D01*
X114146107Y-157412803D01*
X114341551Y-157355929D01*
X114501384Y-157263745D01*
X114628493Y-157134084D01*
X114716768Y-156984700D01*
X114731838Y-156949830D01*
X114743759Y-156913259D01*
X114752900Y-156868844D01*
X114759626Y-156810440D01*
X114764306Y-156731903D01*
X114767306Y-156627090D01*
X114768993Y-156489855D01*
X114769736Y-156314055D01*
X114769900Y-156095700D01*
X114769782Y-155876473D01*
G36*
X114777314Y-159505650D02*
G01*
X114774962Y-159269274D01*
X114772550Y-159077731D01*
X114769700Y-158925054D01*
X114766033Y-158805278D01*
X114761169Y-158712436D01*
X114754730Y-158640563D01*
X114746338Y-158583692D01*
X114735613Y-158535856D01*
X114722176Y-158491091D01*
X114710782Y-158457900D01*
X114612289Y-158246757D01*
X114478428Y-158072056D01*
X114308696Y-157933297D01*
X114102589Y-157829974D01*
X114071400Y-157818519D01*
X114025193Y-157802927D01*
X113980151Y-157790315D01*
X113930310Y-157780306D01*
X113869702Y-157772519D01*
X113792361Y-157766576D01*
X113692322Y-157762098D01*
X113563618Y-157758707D01*
X113400284Y-157756023D01*
X113196352Y-157753668D01*
X113023650Y-157751987D01*
X112141000Y-157743701D01*
X112141000Y-158127700D01*
X112901750Y-158127700D01*
X113169293Y-158128697D01*
X113391593Y-158132354D01*
X113574180Y-158139670D01*
X113722584Y-158151645D01*
X113842335Y-158169279D01*
X113938963Y-158193572D01*
X114017998Y-158225522D01*
X114084970Y-158266130D01*
X114145409Y-158316395D01*
X114189207Y-158360425D01*
X114248959Y-158430236D01*
X114296628Y-158503178D01*
X114333511Y-158585823D01*
X114360904Y-158684745D01*
X114380105Y-158806519D01*
X114392409Y-158957718D01*
X114399115Y-159144916D01*
X114401520Y-159374687D01*
X114401600Y-159437051D01*
X114401600Y-160007300D01*
X112141000Y-160007300D01*
X112141000Y-160388300D01*
X114785600Y-160388300D01*
X114777314Y-159505650D01*
X114777314Y-159505650D01*
G37*
X114777314Y-159505650D02*
X114774962Y-159269274D01*
X114772550Y-159077731D01*
X114769700Y-158925054D01*
X114766033Y-158805278D01*
X114761169Y-158712436D01*
X114754730Y-158640563D01*
X114746338Y-158583692D01*
X114735613Y-158535856D01*
X114722176Y-158491091D01*
X114710782Y-158457900D01*
X114612289Y-158246757D01*
X114478428Y-158072056D01*
X114308696Y-157933297D01*
X114102589Y-157829974D01*
X114071400Y-157818519D01*
X114025193Y-157802927D01*
X113980151Y-157790315D01*
X113930310Y-157780306D01*
X113869702Y-157772519D01*
X113792361Y-157766576D01*
X113692322Y-157762098D01*
X113563618Y-157758707D01*
X113400284Y-157756023D01*
X113196352Y-157753668D01*
X113023650Y-157751987D01*
X112141000Y-157743701D01*
X112141000Y-158127700D01*
X112901750Y-158127700D01*
X113169293Y-158128697D01*
X113391593Y-158132354D01*
X113574180Y-158139670D01*
X113722584Y-158151645D01*
X113842335Y-158169279D01*
X113938963Y-158193572D01*
X114017998Y-158225522D01*
X114084970Y-158266130D01*
X114145409Y-158316395D01*
X114189207Y-158360425D01*
X114248959Y-158430236D01*
X114296628Y-158503178D01*
X114333511Y-158585823D01*
X114360904Y-158684745D01*
X114380105Y-158806519D01*
X114392409Y-158957718D01*
X114399115Y-159144916D01*
X114401520Y-159374687D01*
X114401600Y-159437051D01*
X114401600Y-160007300D01*
X112141000Y-160007300D01*
X112141000Y-160388300D01*
X114785600Y-160388300D01*
X114777314Y-159505650D01*
G36*
X114781607Y-161856409D02*
G01*
X114777992Y-161666937D01*
X114770804Y-161515130D01*
X114759092Y-161394434D01*
X114741905Y-161298297D01*
X114718291Y-161220164D01*
X114687300Y-161153482D01*
X114647981Y-161091698D01*
X114635139Y-161074100D01*
X114578015Y-161002184D01*
X114524717Y-160950575D01*
X114458982Y-160906477D01*
X114364550Y-160857092D01*
X114350800Y-160850341D01*
X114211100Y-160782000D01*
X113474500Y-160782000D01*
X113257920Y-160782271D01*
X113085697Y-160783325D01*
X112951390Y-160785524D01*
X112848558Y-160789229D01*
X112770761Y-160794802D01*
X112711557Y-160802604D01*
X112664505Y-160812998D01*
X112623166Y-160826344D01*
X112612390Y-160830407D01*
X112460734Y-160913769D01*
X112327882Y-161034326D01*
X112227968Y-161178693D01*
X112213728Y-161208033D01*
X112196066Y-161248923D01*
X112182191Y-161288749D01*
X112171588Y-161334142D01*
X112163741Y-161391735D01*
X112158136Y-161468159D01*
X112154257Y-161570047D01*
X112151589Y-161704030D01*
X112149616Y-161876740D01*
X112148155Y-162052000D01*
X112147063Y-162285716D01*
X112147925Y-162473440D01*
X112150902Y-162619948D01*
X112156155Y-162730016D01*
X112163845Y-162808422D01*
X112174135Y-162859942D01*
X112175636Y-162864800D01*
X112253008Y-163044301D01*
X112358249Y-163184874D01*
X112497318Y-163293426D01*
X112585500Y-163339749D01*
X112625592Y-163357187D01*
X112665629Y-163370873D01*
X112712323Y-163381349D01*
X112772386Y-163389159D01*
X112852529Y-163394845D01*
X112959464Y-163398949D01*
X113099903Y-163402014D01*
X113280556Y-163404582D01*
X113405691Y-163406050D01*
X113485531Y-163406792D01*
X113485531Y-163029759D01*
X113314437Y-163028565D01*
X113155193Y-163025303D01*
X113016647Y-163020324D01*
X112907650Y-163013979D01*
X112837048Y-163006617D01*
X112821500Y-163003455D01*
X112717586Y-162953232D01*
X112624999Y-162871122D01*
X112560695Y-162773374D01*
X112549171Y-162742494D01*
X112542523Y-162694667D01*
X112536986Y-162604270D01*
X112532790Y-162479524D01*
X112530167Y-162328650D01*
X112529345Y-162159871D01*
X112529824Y-162052000D01*
X112531588Y-161859475D01*
X112533810Y-161710835D01*
X112537085Y-161599167D01*
X112542011Y-161517556D01*
X112549185Y-161459088D01*
X112559203Y-161416850D01*
X112572661Y-161383927D01*
X112590096Y-161353500D01*
X112649176Y-161280656D01*
X112720758Y-161219545D01*
X112729796Y-161213800D01*
X112758780Y-161198172D01*
X112791834Y-161186111D01*
X112835566Y-161177160D01*
X112896582Y-161170860D01*
X112981488Y-161166753D01*
X113096892Y-161164380D01*
X113249401Y-161163282D01*
X113445620Y-161163001D01*
X113461800Y-161163000D01*
X113660042Y-161163136D01*
X113814176Y-161163901D01*
X113930897Y-161165831D01*
X114016897Y-161169463D01*
X114078870Y-161175333D01*
X114123509Y-161183978D01*
X114157507Y-161195935D01*
X114187557Y-161211740D01*
X114205366Y-161222603D01*
X114257923Y-161257075D01*
X114299359Y-161291840D01*
X114330993Y-161333135D01*
X114354147Y-161387199D01*
X114370139Y-161460273D01*
X114380291Y-161558594D01*
X114385921Y-161688403D01*
X114388350Y-161855937D01*
X114388898Y-162067436D01*
X114388900Y-162090100D01*
X114388750Y-162288499D01*
X114387949Y-162442777D01*
X114385973Y-162559611D01*
X114382300Y-162645682D01*
X114376406Y-162707666D01*
X114367767Y-162752244D01*
X114355859Y-162786093D01*
X114340160Y-162815891D01*
X114330793Y-162831248D01*
X114260210Y-162911793D01*
X114167661Y-162975508D01*
X114164023Y-162977298D01*
X114125020Y-162994490D01*
X114083519Y-163007483D01*
X114032039Y-163016857D01*
X113963099Y-163023190D01*
X113869218Y-163027060D01*
X113742916Y-163029046D01*
X113576712Y-163029725D01*
X113485531Y-163029759D01*
X113485531Y-163406792D01*
X113620911Y-163408051D01*
X113792146Y-163408444D01*
X113926189Y-163406954D01*
X114029836Y-163403303D01*
X114109885Y-163397216D01*
X114173130Y-163388417D01*
X114226367Y-163376627D01*
X114243046Y-163371991D01*
X114423610Y-163297064D01*
X114567076Y-163187556D01*
X114674509Y-163042414D01*
X114741664Y-162879128D01*
X114754946Y-162824846D01*
X114765159Y-162758049D01*
X114772656Y-162671937D01*
X114777788Y-162559710D01*
X114780909Y-162414569D01*
X114782372Y-162229714D01*
X114782600Y-162090100D01*
X114781607Y-161856409D01*
X114781607Y-161856409D01*
G37*
X114781607Y-161856409D02*
X114777992Y-161666937D01*
X114770804Y-161515130D01*
X114759092Y-161394434D01*
X114741905Y-161298297D01*
X114718291Y-161220164D01*
X114687300Y-161153482D01*
X114647981Y-161091698D01*
X114635139Y-161074100D01*
X114578015Y-161002184D01*
X114524717Y-160950575D01*
X114458982Y-160906477D01*
X114364550Y-160857092D01*
X114350800Y-160850341D01*
X114211100Y-160782000D01*
X113474500Y-160782000D01*
X113257920Y-160782271D01*
X113085697Y-160783325D01*
X112951390Y-160785524D01*
X112848558Y-160789229D01*
X112770761Y-160794802D01*
X112711557Y-160802604D01*
X112664505Y-160812998D01*
X112623166Y-160826344D01*
X112612390Y-160830407D01*
X112460734Y-160913769D01*
X112327882Y-161034326D01*
X112227968Y-161178693D01*
X112213728Y-161208033D01*
X112196066Y-161248923D01*
X112182191Y-161288749D01*
X112171588Y-161334142D01*
X112163741Y-161391735D01*
X112158136Y-161468159D01*
X112154257Y-161570047D01*
X112151589Y-161704030D01*
X112149616Y-161876740D01*
X112148155Y-162052000D01*
X112147063Y-162285716D01*
X112147925Y-162473440D01*
X112150902Y-162619948D01*
X112156155Y-162730016D01*
X112163845Y-162808422D01*
X112174135Y-162859942D01*
X112175636Y-162864800D01*
X112253008Y-163044301D01*
X112358249Y-163184874D01*
X112497318Y-163293426D01*
X112585500Y-163339749D01*
X112625592Y-163357187D01*
X112665629Y-163370873D01*
X112712323Y-163381349D01*
X112772386Y-163389159D01*
X112852529Y-163394845D01*
X112959464Y-163398949D01*
X113099903Y-163402014D01*
X113280556Y-163404582D01*
X113405691Y-163406050D01*
X113485531Y-163406792D01*
X113485531Y-163029759D01*
X113314437Y-163028565D01*
X113155193Y-163025303D01*
X113016647Y-163020324D01*
X112907650Y-163013979D01*
X112837048Y-163006617D01*
X112821500Y-163003455D01*
X112717586Y-162953232D01*
X112624999Y-162871122D01*
X112560695Y-162773374D01*
X112549171Y-162742494D01*
X112542523Y-162694667D01*
X112536986Y-162604270D01*
X112532790Y-162479524D01*
X112530167Y-162328650D01*
X112529345Y-162159871D01*
X112529824Y-162052000D01*
X112531588Y-161859475D01*
X112533810Y-161710835D01*
X112537085Y-161599167D01*
X112542011Y-161517556D01*
X112549185Y-161459088D01*
X112559203Y-161416850D01*
X112572661Y-161383927D01*
X112590096Y-161353500D01*
X112649176Y-161280656D01*
X112720758Y-161219545D01*
X112729796Y-161213800D01*
X112758780Y-161198172D01*
X112791834Y-161186111D01*
X112835566Y-161177160D01*
X112896582Y-161170860D01*
X112981488Y-161166753D01*
X113096892Y-161164380D01*
X113249401Y-161163282D01*
X113445620Y-161163001D01*
X113461800Y-161163000D01*
X113660042Y-161163136D01*
X113814176Y-161163901D01*
X113930897Y-161165831D01*
X114016897Y-161169463D01*
X114078870Y-161175333D01*
X114123509Y-161183978D01*
X114157507Y-161195935D01*
X114187557Y-161211740D01*
X114205366Y-161222603D01*
X114257923Y-161257075D01*
X114299359Y-161291840D01*
X114330993Y-161333135D01*
X114354147Y-161387199D01*
X114370139Y-161460273D01*
X114380291Y-161558594D01*
X114385921Y-161688403D01*
X114388350Y-161855937D01*
X114388898Y-162067436D01*
X114388900Y-162090100D01*
X114388750Y-162288499D01*
X114387949Y-162442777D01*
X114385973Y-162559611D01*
X114382300Y-162645682D01*
X114376406Y-162707666D01*
X114367767Y-162752244D01*
X114355859Y-162786093D01*
X114340160Y-162815891D01*
X114330793Y-162831248D01*
X114260210Y-162911793D01*
X114167661Y-162975508D01*
X114164023Y-162977298D01*
X114125020Y-162994490D01*
X114083519Y-163007483D01*
X114032039Y-163016857D01*
X113963099Y-163023190D01*
X113869218Y-163027060D01*
X113742916Y-163029046D01*
X113576712Y-163029725D01*
X113485531Y-163029759D01*
X113485531Y-163406792D01*
X113620911Y-163408051D01*
X113792146Y-163408444D01*
X113926189Y-163406954D01*
X114029836Y-163403303D01*
X114109885Y-163397216D01*
X114173130Y-163388417D01*
X114226367Y-163376627D01*
X114243046Y-163371991D01*
X114423610Y-163297064D01*
X114567076Y-163187556D01*
X114674509Y-163042414D01*
X114741664Y-162879128D01*
X114754946Y-162824846D01*
X114765159Y-162758049D01*
X114772656Y-162671937D01*
X114777788Y-162559710D01*
X114780909Y-162414569D01*
X114782372Y-162229714D01*
X114782600Y-162090100D01*
X114781607Y-161856409D01*
G36*
X112141000Y-163791900D02*
G01*
X112141000Y-164172900D01*
X115925600Y-164172900D01*
X115925600Y-163791900D01*
X112141000Y-163791900D01*
X112141000Y-163791900D01*
G37*
X112141000Y-163791900D02*
X112141000Y-164172900D01*
X115925600Y-164172900D01*
X115925600Y-163791900D01*
X112141000Y-163791900D01*
G36*
X114785382Y-165758233D02*
G01*
X114781892Y-165572911D01*
X114775295Y-165402915D01*
X114765579Y-165257678D01*
X114752735Y-165146634D01*
X114743427Y-165099978D01*
X114688072Y-164952265D01*
X114607196Y-164820034D01*
X114529634Y-164736541D01*
X114436003Y-164676383D01*
X114311037Y-164622232D01*
X114174185Y-164581328D01*
X114061187Y-164562204D01*
X113893600Y-164546555D01*
X113893600Y-164927996D01*
X114009995Y-164943949D01*
X114157887Y-164984141D01*
X114271558Y-165060524D01*
X114333505Y-165138100D01*
X114350478Y-165167437D01*
X114363579Y-165198655D01*
X114373309Y-165238401D01*
X114380168Y-165293320D01*
X114384655Y-165370061D01*
X114387270Y-165475269D01*
X114388513Y-165615592D01*
X114388884Y-165797676D01*
X114388900Y-165874700D01*
X114388721Y-166073439D01*
X114387849Y-166228025D01*
X114385786Y-166345104D01*
X114382030Y-166431324D01*
X114376082Y-166493331D01*
X114367443Y-166537772D01*
X114355612Y-166571293D01*
X114340090Y-166600541D01*
X114333505Y-166611300D01*
X114274425Y-166684145D01*
X114202843Y-166745256D01*
X114193805Y-166751000D01*
X114164821Y-166766629D01*
X114131767Y-166778690D01*
X114088035Y-166787641D01*
X114027019Y-166793941D01*
X113942113Y-166798048D01*
X113826709Y-166800421D01*
X113674200Y-166801519D01*
X113477981Y-166801800D01*
X113461800Y-166801800D01*
X113262139Y-166801561D01*
X113106669Y-166800539D01*
X112988785Y-166798274D01*
X112901880Y-166794308D01*
X112839347Y-166788184D01*
X112794579Y-166779441D01*
X112760970Y-166767623D01*
X112731913Y-166752269D01*
X112729796Y-166751000D01*
X112658839Y-166693808D01*
X112596293Y-166620791D01*
X112590096Y-166611300D01*
X112573123Y-166581964D01*
X112560022Y-166550746D01*
X112550292Y-166511000D01*
X112543433Y-166456081D01*
X112538946Y-166379340D01*
X112536331Y-166274132D01*
X112535088Y-166133809D01*
X112534717Y-165951725D01*
X112534700Y-165874700D01*
X112534880Y-165675962D01*
X112535752Y-165521376D01*
X112537815Y-165404297D01*
X112541571Y-165318077D01*
X112547519Y-165256070D01*
X112556158Y-165211629D01*
X112567989Y-165178108D01*
X112583511Y-165148860D01*
X112590096Y-165138100D01*
X112681452Y-165034710D01*
X112804628Y-164968951D01*
X112913606Y-164943949D01*
X113030000Y-164927996D01*
X113030000Y-164546945D01*
X112869696Y-164559813D01*
X112669026Y-164598135D01*
X112493785Y-164677056D01*
X112348570Y-164793528D01*
X112237980Y-164944502D01*
X112212420Y-164995673D01*
X112195128Y-165035883D01*
X112181543Y-165075587D01*
X112171159Y-165121398D01*
X112163475Y-165179930D01*
X112157984Y-165257797D01*
X112154183Y-165361614D01*
X112151568Y-165497993D01*
X112149634Y-165673550D01*
X112148315Y-165836600D01*
X112147284Y-166071187D01*
X112148225Y-166259686D01*
X112151293Y-166406776D01*
X112156649Y-166517136D01*
X112164449Y-166595447D01*
X112174853Y-166646388D01*
X112175796Y-166649400D01*
X112253043Y-166828972D01*
X112358489Y-166969715D01*
X112497999Y-167078428D01*
X112585500Y-167124349D01*
X112625592Y-167141787D01*
X112665629Y-167155473D01*
X112712323Y-167165949D01*
X112772386Y-167173759D01*
X112852529Y-167179445D01*
X112959464Y-167183549D01*
X113099903Y-167186614D01*
X113280556Y-167189182D01*
X113405691Y-167190650D01*
X113624717Y-167192608D01*
X113799423Y-167192808D01*
X113936265Y-167191011D01*
X114041698Y-167186976D01*
X114122180Y-167180462D01*
X114184167Y-167171230D01*
X114231191Y-167159900D01*
X114415647Y-167084274D01*
X114561795Y-166975590D01*
X114670981Y-166832536D01*
X114741664Y-166663728D01*
X114756595Y-166584556D01*
X114768482Y-166464109D01*
X114777315Y-166311819D01*
X114783083Y-166137121D01*
X114785776Y-165949448D01*
X114785382Y-165758233D01*
X114785382Y-165758233D01*
G37*
X114785382Y-165758233D02*
X114781892Y-165572911D01*
X114775295Y-165402915D01*
X114765579Y-165257678D01*
X114752735Y-165146634D01*
X114743427Y-165099978D01*
X114688072Y-164952265D01*
X114607196Y-164820034D01*
X114529634Y-164736541D01*
X114436003Y-164676383D01*
X114311037Y-164622232D01*
X114174185Y-164581328D01*
X114061187Y-164562204D01*
X113893600Y-164546555D01*
X113893600Y-164927996D01*
X114009995Y-164943949D01*
X114157887Y-164984141D01*
X114271558Y-165060524D01*
X114333505Y-165138100D01*
X114350478Y-165167437D01*
X114363579Y-165198655D01*
X114373309Y-165238401D01*
X114380168Y-165293320D01*
X114384655Y-165370061D01*
X114387270Y-165475269D01*
X114388513Y-165615592D01*
X114388884Y-165797676D01*
X114388900Y-165874700D01*
X114388721Y-166073439D01*
X114387849Y-166228025D01*
X114385786Y-166345104D01*
X114382030Y-166431324D01*
X114376082Y-166493331D01*
X114367443Y-166537772D01*
X114355612Y-166571293D01*
X114340090Y-166600541D01*
X114333505Y-166611300D01*
X114274425Y-166684145D01*
X114202843Y-166745256D01*
X114193805Y-166751000D01*
X114164821Y-166766629D01*
X114131767Y-166778690D01*
X114088035Y-166787641D01*
X114027019Y-166793941D01*
X113942113Y-166798048D01*
X113826709Y-166800421D01*
X113674200Y-166801519D01*
X113477981Y-166801800D01*
X113461800Y-166801800D01*
X113262139Y-166801561D01*
X113106669Y-166800539D01*
X112988785Y-166798274D01*
X112901880Y-166794308D01*
X112839347Y-166788184D01*
X112794579Y-166779441D01*
X112760970Y-166767623D01*
X112731913Y-166752269D01*
X112729796Y-166751000D01*
X112658839Y-166693808D01*
X112596293Y-166620791D01*
X112590096Y-166611300D01*
X112573123Y-166581964D01*
X112560022Y-166550746D01*
X112550292Y-166511000D01*
X112543433Y-166456081D01*
X112538946Y-166379340D01*
X112536331Y-166274132D01*
X112535088Y-166133809D01*
X112534717Y-165951725D01*
X112534700Y-165874700D01*
X112534880Y-165675962D01*
X112535752Y-165521376D01*
X112537815Y-165404297D01*
X112541571Y-165318077D01*
X112547519Y-165256070D01*
X112556158Y-165211629D01*
X112567989Y-165178108D01*
X112583511Y-165148860D01*
X112590096Y-165138100D01*
X112681452Y-165034710D01*
X112804628Y-164968951D01*
X112913606Y-164943949D01*
X113030000Y-164927996D01*
X113030000Y-164546945D01*
X112869696Y-164559813D01*
X112669026Y-164598135D01*
X112493785Y-164677056D01*
X112348570Y-164793528D01*
X112237980Y-164944502D01*
X112212420Y-164995673D01*
X112195128Y-165035883D01*
X112181543Y-165075587D01*
X112171159Y-165121398D01*
X112163475Y-165179930D01*
X112157984Y-165257797D01*
X112154183Y-165361614D01*
X112151568Y-165497993D01*
X112149634Y-165673550D01*
X112148315Y-165836600D01*
X112147284Y-166071187D01*
X112148225Y-166259686D01*
X112151293Y-166406776D01*
X112156649Y-166517136D01*
X112164449Y-166595447D01*
X112174853Y-166646388D01*
X112175796Y-166649400D01*
X112253043Y-166828972D01*
X112358489Y-166969715D01*
X112497999Y-167078428D01*
X112585500Y-167124349D01*
X112625592Y-167141787D01*
X112665629Y-167155473D01*
X112712323Y-167165949D01*
X112772386Y-167173759D01*
X112852529Y-167179445D01*
X112959464Y-167183549D01*
X113099903Y-167186614D01*
X113280556Y-167189182D01*
X113405691Y-167190650D01*
X113624717Y-167192608D01*
X113799423Y-167192808D01*
X113936265Y-167191011D01*
X114041698Y-167186976D01*
X114122180Y-167180462D01*
X114184167Y-167171230D01*
X114231191Y-167159900D01*
X114415647Y-167084274D01*
X114561795Y-166975590D01*
X114670981Y-166832536D01*
X114741664Y-166663728D01*
X114756595Y-166584556D01*
X114768482Y-166464109D01*
X114777315Y-166311819D01*
X114783083Y-166137121D01*
X114785776Y-165949448D01*
X114785382Y-165758233D01*
G36*
X115912216Y-171659683D02*
G01*
X115909394Y-171469188D01*
X115903287Y-171316547D01*
X115892743Y-171195293D01*
X115876614Y-171098957D01*
X115853749Y-171021072D01*
X115822999Y-170955170D01*
X115783213Y-170894782D01*
X115733243Y-170833441D01*
X115721987Y-170820559D01*
X115586062Y-170704298D01*
X115416066Y-170624826D01*
X115213811Y-170582974D01*
X115200959Y-170581703D01*
X115036600Y-170566355D01*
X115036600Y-170954700D01*
X115107419Y-170954700D01*
X115192596Y-170971374D01*
X115291823Y-171014118D01*
X115384322Y-171072015D01*
X115449320Y-171134151D01*
X115449550Y-171134466D01*
X115479974Y-171184348D01*
X115503283Y-171244438D01*
X115520341Y-171321736D01*
X115532013Y-171423238D01*
X115539161Y-171555941D01*
X115542651Y-171726844D01*
X115543389Y-171894500D01*
X115541918Y-172114074D01*
X115536282Y-172289276D01*
X115524647Y-172426483D01*
X115505177Y-172532068D01*
X115476037Y-172612407D01*
X115435392Y-172673875D01*
X115381408Y-172722848D01*
X115312248Y-172765701D01*
X115289114Y-172777882D01*
X115176300Y-172835763D01*
X113995200Y-172828682D01*
X113718999Y-172826943D01*
X113488981Y-172825193D01*
X113300530Y-172823221D01*
X113149030Y-172820816D01*
X113029864Y-172817766D01*
X112938417Y-172813861D01*
X112870071Y-172808889D01*
X112820211Y-172802639D01*
X112784221Y-172794900D01*
X112757484Y-172785461D01*
X112735384Y-172774110D01*
X112729796Y-172770800D01*
X112658839Y-172713608D01*
X112596293Y-172640591D01*
X112590096Y-172631100D01*
X112573123Y-172601764D01*
X112560022Y-172570546D01*
X112550292Y-172530800D01*
X112543433Y-172475881D01*
X112538946Y-172399140D01*
X112536331Y-172293932D01*
X112535088Y-172153609D01*
X112534717Y-171971525D01*
X112534700Y-171894500D01*
X112534880Y-171695762D01*
X112535752Y-171541176D01*
X112537815Y-171424097D01*
X112541571Y-171337877D01*
X112547519Y-171275870D01*
X112556158Y-171231429D01*
X112567989Y-171197908D01*
X112583511Y-171168660D01*
X112590096Y-171157900D01*
X112681452Y-171054510D01*
X112804628Y-170988751D01*
X112913606Y-170963749D01*
X113030000Y-170947796D01*
X113030000Y-170566745D01*
X112869696Y-170579613D01*
X112669026Y-170617935D01*
X112493785Y-170696856D01*
X112348570Y-170813328D01*
X112237980Y-170964302D01*
X112212420Y-171015473D01*
X112195128Y-171055683D01*
X112181543Y-171095387D01*
X112171159Y-171141198D01*
X112163475Y-171199730D01*
X112157984Y-171277597D01*
X112154183Y-171381414D01*
X112151568Y-171517793D01*
X112149634Y-171693350D01*
X112148315Y-171856400D01*
X112147284Y-172090987D01*
X112148225Y-172279486D01*
X112151293Y-172426576D01*
X112156649Y-172536936D01*
X112164449Y-172615247D01*
X112174853Y-172666188D01*
X112175796Y-172669200D01*
X112258173Y-172855354D01*
X112372605Y-173002389D01*
X112520017Y-173111329D01*
X112613349Y-173154560D01*
X112643839Y-173165311D01*
X112677812Y-173174333D01*
X112719756Y-173181778D01*
X112774158Y-173187794D01*
X112845507Y-173192534D01*
X112938290Y-173196146D01*
X113056996Y-173198783D01*
X113206111Y-173200593D01*
X113390124Y-173201729D01*
X113613523Y-173202339D01*
X113880796Y-173202576D01*
X114046000Y-173202600D01*
X115354100Y-173202600D01*
X115488407Y-173141911D01*
X115632614Y-173051198D01*
X115756369Y-172924010D01*
X115847263Y-172774033D01*
X115867080Y-172724332D01*
X115880983Y-172678932D01*
X115891809Y-172627490D01*
X115899930Y-172563311D01*
X115905713Y-172479698D01*
X115909529Y-172369957D01*
X115911748Y-172227392D01*
X115912739Y-172045306D01*
X115912900Y-171894500D01*
X115912216Y-171659683D01*
X115912216Y-171659683D01*
G37*
X115912216Y-171659683D02*
X115909394Y-171469188D01*
X115903287Y-171316547D01*
X115892743Y-171195293D01*
X115876614Y-171098957D01*
X115853749Y-171021072D01*
X115822999Y-170955170D01*
X115783213Y-170894782D01*
X115733243Y-170833441D01*
X115721987Y-170820559D01*
X115586062Y-170704298D01*
X115416066Y-170624826D01*
X115213811Y-170582974D01*
X115200959Y-170581703D01*
X115036600Y-170566355D01*
X115036600Y-170954700D01*
X115107419Y-170954700D01*
X115192596Y-170971374D01*
X115291823Y-171014118D01*
X115384322Y-171072015D01*
X115449320Y-171134151D01*
X115449550Y-171134466D01*
X115479974Y-171184348D01*
X115503283Y-171244438D01*
X115520341Y-171321736D01*
X115532013Y-171423238D01*
X115539161Y-171555941D01*
X115542651Y-171726844D01*
X115543389Y-171894500D01*
X115541918Y-172114074D01*
X115536282Y-172289276D01*
X115524647Y-172426483D01*
X115505177Y-172532068D01*
X115476037Y-172612407D01*
X115435392Y-172673875D01*
X115381408Y-172722848D01*
X115312248Y-172765701D01*
X115289114Y-172777882D01*
X115176300Y-172835763D01*
X113995200Y-172828682D01*
X113718999Y-172826943D01*
X113488981Y-172825193D01*
X113300530Y-172823221D01*
X113149030Y-172820816D01*
X113029864Y-172817766D01*
X112938417Y-172813861D01*
X112870071Y-172808889D01*
X112820211Y-172802639D01*
X112784221Y-172794900D01*
X112757484Y-172785461D01*
X112735384Y-172774110D01*
X112729796Y-172770800D01*
X112658839Y-172713608D01*
X112596293Y-172640591D01*
X112590096Y-172631100D01*
X112573123Y-172601764D01*
X112560022Y-172570546D01*
X112550292Y-172530800D01*
X112543433Y-172475881D01*
X112538946Y-172399140D01*
X112536331Y-172293932D01*
X112535088Y-172153609D01*
X112534717Y-171971525D01*
X112534700Y-171894500D01*
X112534880Y-171695762D01*
X112535752Y-171541176D01*
X112537815Y-171424097D01*
X112541571Y-171337877D01*
X112547519Y-171275870D01*
X112556158Y-171231429D01*
X112567989Y-171197908D01*
X112583511Y-171168660D01*
X112590096Y-171157900D01*
X112681452Y-171054510D01*
X112804628Y-170988751D01*
X112913606Y-170963749D01*
X113030000Y-170947796D01*
X113030000Y-170566745D01*
X112869696Y-170579613D01*
X112669026Y-170617935D01*
X112493785Y-170696856D01*
X112348570Y-170813328D01*
X112237980Y-170964302D01*
X112212420Y-171015473D01*
X112195128Y-171055683D01*
X112181543Y-171095387D01*
X112171159Y-171141198D01*
X112163475Y-171199730D01*
X112157984Y-171277597D01*
X112154183Y-171381414D01*
X112151568Y-171517793D01*
X112149634Y-171693350D01*
X112148315Y-171856400D01*
X112147284Y-172090987D01*
X112148225Y-172279486D01*
X112151293Y-172426576D01*
X112156649Y-172536936D01*
X112164449Y-172615247D01*
X112174853Y-172666188D01*
X112175796Y-172669200D01*
X112258173Y-172855354D01*
X112372605Y-173002389D01*
X112520017Y-173111329D01*
X112613349Y-173154560D01*
X112643839Y-173165311D01*
X112677812Y-173174333D01*
X112719756Y-173181778D01*
X112774158Y-173187794D01*
X112845507Y-173192534D01*
X112938290Y-173196146D01*
X113056996Y-173198783D01*
X113206111Y-173200593D01*
X113390124Y-173201729D01*
X113613523Y-173202339D01*
X113880796Y-173202576D01*
X114046000Y-173202600D01*
X115354100Y-173202600D01*
X115488407Y-173141911D01*
X115632614Y-173051198D01*
X115756369Y-172924010D01*
X115847263Y-172774033D01*
X115867080Y-172724332D01*
X115880983Y-172678932D01*
X115891809Y-172627490D01*
X115899930Y-172563311D01*
X115905713Y-172479698D01*
X115909529Y-172369957D01*
X115911748Y-172227392D01*
X115912739Y-172045306D01*
X115912900Y-171894500D01*
X115912216Y-171659683D01*
G36*
X111843877Y-153521578D02*
G01*
X111729168Y-153512729D01*
X111611318Y-153506729D01*
X111537750Y-153505081D01*
X111458851Y-153507602D01*
X111418617Y-153518286D01*
X111405062Y-153541396D01*
X111404400Y-153552525D01*
X111421099Y-153588374D01*
X111474273Y-153613063D01*
X111568537Y-153627836D01*
X111706025Y-153633906D01*
X111848900Y-153635911D01*
X111626650Y-153712222D01*
X111503882Y-153757741D01*
X111428821Y-153795860D01*
X111401877Y-153829818D01*
X111423458Y-153862851D01*
X111493970Y-153898197D01*
X111613823Y-153939093D01*
X111656884Y-153952161D01*
X111747894Y-153980341D01*
X111793999Y-153997957D01*
X111799408Y-154007424D01*
X111768328Y-154011162D01*
X111760000Y-154011395D01*
X111680587Y-154015731D01*
X111581869Y-154024464D01*
X111537750Y-154029359D01*
X111457396Y-154042547D01*
X111416691Y-154060678D01*
X111404483Y-154089044D01*
X111404400Y-154092638D01*
X111413478Y-154122812D01*
X111449071Y-154136769D01*
X111514868Y-154139900D01*
X111596572Y-154137666D01*
X111705563Y-154131802D01*
X111818563Y-154123566D01*
X111820991Y-154123362D01*
X112016646Y-154106823D01*
X112008973Y-154028765D01*
X112002098Y-153989518D01*
X111983963Y-153961464D01*
X111944416Y-153937818D01*
X111873306Y-153911797D01*
X111798939Y-153888421D01*
X111596577Y-153826136D01*
X111798939Y-153758782D01*
X111898247Y-153724456D01*
X111959012Y-153698050D01*
X111991285Y-153672667D01*
X112005115Y-153641410D01*
X112008977Y-153614661D01*
X112016653Y-153537894D01*
X111843877Y-153521578D01*
X111843877Y-153521578D01*
G37*
X111843877Y-153521578D02*
X111729168Y-153512729D01*
X111611318Y-153506729D01*
X111537750Y-153505081D01*
X111458851Y-153507602D01*
X111418617Y-153518286D01*
X111405062Y-153541396D01*
X111404400Y-153552525D01*
X111421099Y-153588374D01*
X111474273Y-153613063D01*
X111568537Y-153627836D01*
X111706025Y-153633906D01*
X111848900Y-153635911D01*
X111626650Y-153712222D01*
X111503882Y-153757741D01*
X111428821Y-153795860D01*
X111401877Y-153829818D01*
X111423458Y-153862851D01*
X111493970Y-153898197D01*
X111613823Y-153939093D01*
X111656884Y-153952161D01*
X111747894Y-153980341D01*
X111793999Y-153997957D01*
X111799408Y-154007424D01*
X111768328Y-154011162D01*
X111760000Y-154011395D01*
X111680587Y-154015731D01*
X111581869Y-154024464D01*
X111537750Y-154029359D01*
X111457396Y-154042547D01*
X111416691Y-154060678D01*
X111404483Y-154089044D01*
X111404400Y-154092638D01*
X111413478Y-154122812D01*
X111449071Y-154136769D01*
X111514868Y-154139900D01*
X111596572Y-154137666D01*
X111705563Y-154131802D01*
X111818563Y-154123566D01*
X111820991Y-154123362D01*
X112016646Y-154106823D01*
X112008973Y-154028765D01*
X112002098Y-153989518D01*
X111983963Y-153961464D01*
X111944416Y-153937818D01*
X111873306Y-153911797D01*
X111798939Y-153888421D01*
X111596577Y-153826136D01*
X111798939Y-153758782D01*
X111898247Y-153724456D01*
X111959012Y-153698050D01*
X111991285Y-153672667D01*
X112005115Y-153641410D01*
X112008977Y-153614661D01*
X112016653Y-153537894D01*
X111843877Y-153521578D01*
G36*
X112013152Y-154310690D02*
G01*
X112009173Y-154243201D01*
X111999915Y-154207166D01*
X111983230Y-154192914D01*
X111963200Y-154190700D01*
X111928188Y-154200645D01*
X111914061Y-154239467D01*
X111912400Y-154279600D01*
X111912400Y-154368500D01*
X111658400Y-154368500D01*
X111542675Y-154369244D01*
X111468576Y-154372661D01*
X111426941Y-154380531D01*
X111408606Y-154394631D01*
X111404404Y-154416741D01*
X111404400Y-154417801D01*
X111416150Y-154466485D01*
X111429979Y-154482911D01*
X111466201Y-154490041D01*
X111538774Y-154494529D01*
X111633279Y-154495569D01*
X111652229Y-154495315D01*
X111750340Y-154493906D01*
X111830260Y-154493285D01*
X111877001Y-154493559D01*
X111880650Y-154493706D01*
X111903437Y-154517382D01*
X111912400Y-154571700D01*
X111920384Y-154627477D01*
X111950087Y-154647114D01*
X111963200Y-154647900D01*
X111987336Y-154644081D01*
X112002334Y-154626176D01*
X112010342Y-154584517D01*
X112013509Y-154509435D01*
X112014000Y-154419300D01*
X112013152Y-154310690D01*
X112013152Y-154310690D01*
G37*
X112013152Y-154310690D02*
X112009173Y-154243201D01*
X111999915Y-154207166D01*
X111983230Y-154192914D01*
X111963200Y-154190700D01*
X111928188Y-154200645D01*
X111914061Y-154239467D01*
X111912400Y-154279600D01*
X111912400Y-154368500D01*
X111658400Y-154368500D01*
X111542675Y-154369244D01*
X111468576Y-154372661D01*
X111426941Y-154380531D01*
X111408606Y-154394631D01*
X111404404Y-154416741D01*
X111404400Y-154417801D01*
X111416150Y-154466485D01*
X111429979Y-154482911D01*
X111466201Y-154490041D01*
X111538774Y-154494529D01*
X111633279Y-154495569D01*
X111652229Y-154495315D01*
X111750340Y-154493906D01*
X111830260Y-154493285D01*
X111877001Y-154493559D01*
X111880650Y-154493706D01*
X111903437Y-154517382D01*
X111912400Y-154571700D01*
X111920384Y-154627477D01*
X111950087Y-154647114D01*
X111963200Y-154647900D01*
X111987336Y-154644081D01*
X112002334Y-154626176D01*
X112010342Y-154584517D01*
X112013509Y-154509435D01*
X112014000Y-154419300D01*
X112013152Y-154310690D01*
G36*
X113798350Y-133433668D02*
G01*
X113548642Y-133431695D01*
X113344582Y-133429734D01*
X113181022Y-133427484D01*
X113052812Y-133424644D01*
X112954802Y-133420912D01*
X112881843Y-133415986D01*
X112828785Y-133409565D01*
X112790477Y-133401347D01*
X112761771Y-133391030D01*
X112737517Y-133378313D01*
X112725200Y-133370805D01*
X112652356Y-133311725D01*
X112591245Y-133240143D01*
X112585500Y-133231105D01*
X112569872Y-133202121D01*
X112557811Y-133169067D01*
X112548860Y-133125335D01*
X112542560Y-133064319D01*
X112538453Y-132979413D01*
X112536080Y-132864009D01*
X112534982Y-132711500D01*
X112534701Y-132515281D01*
X112534700Y-132499100D01*
X112534940Y-132299439D01*
X112535962Y-132143969D01*
X112538227Y-132026085D01*
X112542193Y-131939180D01*
X112548317Y-131876647D01*
X112557060Y-131831879D01*
X112568878Y-131798270D01*
X112584232Y-131769213D01*
X112585500Y-131767096D01*
X112642693Y-131696139D01*
X112715710Y-131633593D01*
X112725200Y-131627396D01*
X112749167Y-131613338D01*
X112774959Y-131601835D01*
X112807726Y-131592584D01*
X112852617Y-131585284D01*
X112914782Y-131579633D01*
X112999370Y-131575330D01*
X113111533Y-131572073D01*
X113256418Y-131569560D01*
X113439177Y-131567489D01*
X113664958Y-131565560D01*
X113798350Y-131564533D01*
X114782600Y-131557065D01*
X114782600Y-131176169D01*
X113176050Y-131183585D01*
X112850497Y-131185128D01*
X112571786Y-131186618D01*
X112335960Y-131188193D01*
X112139063Y-131189992D01*
X111977137Y-131192155D01*
X111846225Y-131194821D01*
X111742371Y-131198129D01*
X111661617Y-131202218D01*
X111600006Y-131207228D01*
X111553582Y-131213298D01*
X111518386Y-131220567D01*
X111490462Y-131229174D01*
X111465854Y-131239259D01*
X111455200Y-131244133D01*
X111293158Y-131341872D01*
X111169358Y-131468625D01*
X111080336Y-131628949D01*
X111026560Y-131808201D01*
X111018108Y-131876137D01*
X111011039Y-131992216D01*
X111005423Y-132153799D01*
X111001332Y-132358247D01*
X110998834Y-132602919D01*
X110998000Y-132881351D01*
X110998000Y-133819900D01*
X111404400Y-133819900D01*
X111404400Y-132853885D01*
X111404594Y-132592567D01*
X111405545Y-132377018D01*
X111407806Y-132202204D01*
X111411929Y-132063095D01*
X111418469Y-131954659D01*
X111427979Y-131871863D01*
X111441011Y-131809676D01*
X111458119Y-131763067D01*
X111479856Y-131727004D01*
X111506776Y-131696454D01*
X111534477Y-131670769D01*
X111610402Y-131618703D01*
X111705753Y-131584359D01*
X111830507Y-131565355D01*
X111994642Y-131559307D01*
X112001149Y-131559300D01*
X112234716Y-131559300D01*
X112186409Y-131702392D01*
X112171977Y-131749263D01*
X112160868Y-131798443D01*
X112152755Y-131856764D01*
X112147310Y-131931059D01*
X112144205Y-132028158D01*
X112143113Y-132154896D01*
X112143705Y-132318105D01*
X112145655Y-132524616D01*
X112145901Y-132546942D01*
X112148397Y-132755171D01*
X112151069Y-132919283D01*
X112154453Y-133045958D01*
X112159084Y-133141878D01*
X112165495Y-133213722D01*
X112174222Y-133268173D01*
X112185799Y-133311910D01*
X112200761Y-133351616D01*
X112212420Y-133378128D01*
X112311797Y-133537690D01*
X112449573Y-133668530D01*
X112585500Y-133748797D01*
X112618160Y-133763277D01*
X112650591Y-133775185D01*
X112687964Y-133784812D01*
X112735452Y-133792451D01*
X112798227Y-133798397D01*
X112881459Y-133802941D01*
X112990321Y-133806376D01*
X113129985Y-133808996D01*
X113305623Y-133811094D01*
X113522405Y-133812962D01*
X113747550Y-133814622D01*
X114782600Y-133822043D01*
X114782600Y-133441136D01*
X113798350Y-133433668D01*
X113798350Y-133433668D01*
G37*
X113798350Y-133433668D02*
X113548642Y-133431695D01*
X113344582Y-133429734D01*
X113181022Y-133427484D01*
X113052812Y-133424644D01*
X112954802Y-133420912D01*
X112881843Y-133415986D01*
X112828785Y-133409565D01*
X112790477Y-133401347D01*
X112761771Y-133391030D01*
X112737517Y-133378313D01*
X112725200Y-133370805D01*
X112652356Y-133311725D01*
X112591245Y-133240143D01*
X112585500Y-133231105D01*
X112569872Y-133202121D01*
X112557811Y-133169067D01*
X112548860Y-133125335D01*
X112542560Y-133064319D01*
X112538453Y-132979413D01*
X112536080Y-132864009D01*
X112534982Y-132711500D01*
X112534701Y-132515281D01*
X112534700Y-132499100D01*
X112534940Y-132299439D01*
X112535962Y-132143969D01*
X112538227Y-132026085D01*
X112542193Y-131939180D01*
X112548317Y-131876647D01*
X112557060Y-131831879D01*
X112568878Y-131798270D01*
X112584232Y-131769213D01*
X112585500Y-131767096D01*
X112642693Y-131696139D01*
X112715710Y-131633593D01*
X112725200Y-131627396D01*
X112749167Y-131613338D01*
X112774959Y-131601835D01*
X112807726Y-131592584D01*
X112852617Y-131585284D01*
X112914782Y-131579633D01*
X112999370Y-131575330D01*
X113111533Y-131572073D01*
X113256418Y-131569560D01*
X113439177Y-131567489D01*
X113664958Y-131565560D01*
X113798350Y-131564533D01*
X114782600Y-131557065D01*
X114782600Y-131176169D01*
X113176050Y-131183585D01*
X112850497Y-131185128D01*
X112571786Y-131186618D01*
X112335960Y-131188193D01*
X112139063Y-131189992D01*
X111977137Y-131192155D01*
X111846225Y-131194821D01*
X111742371Y-131198129D01*
X111661617Y-131202218D01*
X111600006Y-131207228D01*
X111553582Y-131213298D01*
X111518386Y-131220567D01*
X111490462Y-131229174D01*
X111465854Y-131239259D01*
X111455200Y-131244133D01*
X111293158Y-131341872D01*
X111169358Y-131468625D01*
X111080336Y-131628949D01*
X111026560Y-131808201D01*
X111018108Y-131876137D01*
X111011039Y-131992216D01*
X111005423Y-132153799D01*
X111001332Y-132358247D01*
X110998834Y-132602919D01*
X110998000Y-132881351D01*
X110998000Y-133819900D01*
X111404400Y-133819900D01*
X111404400Y-132853885D01*
X111404594Y-132592567D01*
X111405545Y-132377018D01*
X111407806Y-132202204D01*
X111411929Y-132063095D01*
X111418469Y-131954659D01*
X111427979Y-131871863D01*
X111441011Y-131809676D01*
X111458119Y-131763067D01*
X111479856Y-131727004D01*
X111506776Y-131696454D01*
X111534477Y-131670769D01*
X111610402Y-131618703D01*
X111705753Y-131584359D01*
X111830507Y-131565355D01*
X111994642Y-131559307D01*
X112001149Y-131559300D01*
X112234716Y-131559300D01*
X112186409Y-131702392D01*
X112171977Y-131749263D01*
X112160868Y-131798443D01*
X112152755Y-131856764D01*
X112147310Y-131931059D01*
X112144205Y-132028158D01*
X112143113Y-132154896D01*
X112143705Y-132318105D01*
X112145655Y-132524616D01*
X112145901Y-132546942D01*
X112148397Y-132755171D01*
X112151069Y-132919283D01*
X112154453Y-133045958D01*
X112159084Y-133141878D01*
X112165495Y-133213722D01*
X112174222Y-133268173D01*
X112185799Y-133311910D01*
X112200761Y-133351616D01*
X112212420Y-133378128D01*
X112311797Y-133537690D01*
X112449573Y-133668530D01*
X112585500Y-133748797D01*
X112618160Y-133763277D01*
X112650591Y-133775185D01*
X112687964Y-133784812D01*
X112735452Y-133792451D01*
X112798227Y-133798397D01*
X112881459Y-133802941D01*
X112990321Y-133806376D01*
X113129985Y-133808996D01*
X113305623Y-133811094D01*
X113522405Y-133812962D01*
X113747550Y-133814622D01*
X114782600Y-133822043D01*
X114782600Y-133441136D01*
X113798350Y-133433668D01*
G36*
X113798350Y-169806468D02*
G01*
X113548642Y-169804495D01*
X113344582Y-169802534D01*
X113181022Y-169800284D01*
X113052812Y-169797444D01*
X112954802Y-169793712D01*
X112881843Y-169788786D01*
X112828785Y-169782365D01*
X112790477Y-169774147D01*
X112761771Y-169763830D01*
X112737517Y-169751113D01*
X112725200Y-169743605D01*
X112652356Y-169684525D01*
X112591245Y-169612943D01*
X112585500Y-169603905D01*
X112569872Y-169574921D01*
X112557811Y-169541867D01*
X112548860Y-169498135D01*
X112542560Y-169437119D01*
X112538453Y-169352213D01*
X112536080Y-169236809D01*
X112534982Y-169084300D01*
X112534701Y-168888081D01*
X112534700Y-168871900D01*
X112534940Y-168672239D01*
X112535962Y-168516769D01*
X112538227Y-168398885D01*
X112542193Y-168311980D01*
X112548317Y-168249447D01*
X112557060Y-168204679D01*
X112568878Y-168171070D01*
X112584232Y-168142013D01*
X112585500Y-168139896D01*
X112642693Y-168068939D01*
X112715710Y-168006393D01*
X112725200Y-168000196D01*
X112749167Y-167986138D01*
X112774959Y-167974635D01*
X112807726Y-167965384D01*
X112852617Y-167958084D01*
X112914782Y-167952433D01*
X112999370Y-167948130D01*
X113111533Y-167944873D01*
X113256418Y-167942360D01*
X113439177Y-167940289D01*
X113664958Y-167938360D01*
X113798350Y-167937333D01*
X114782600Y-167929865D01*
X114782600Y-167548969D01*
X113176050Y-167556385D01*
X112850497Y-167557928D01*
X112571786Y-167559418D01*
X112335960Y-167560993D01*
X112139063Y-167562792D01*
X111977137Y-167564955D01*
X111846225Y-167567621D01*
X111742371Y-167570929D01*
X111661617Y-167575018D01*
X111600006Y-167580028D01*
X111553582Y-167586098D01*
X111518386Y-167593367D01*
X111490462Y-167601974D01*
X111465854Y-167612059D01*
X111455200Y-167616933D01*
X111293158Y-167714672D01*
X111169358Y-167841425D01*
X111080336Y-168001749D01*
X111026560Y-168181001D01*
X111018108Y-168248937D01*
X111011039Y-168365016D01*
X111005423Y-168526599D01*
X111001332Y-168731047D01*
X110998834Y-168975719D01*
X110998000Y-169254151D01*
X110998000Y-170192700D01*
X111404400Y-170192700D01*
X111404400Y-169226685D01*
X111404594Y-168965367D01*
X111405545Y-168749818D01*
X111407806Y-168575004D01*
X111411929Y-168435895D01*
X111418469Y-168327459D01*
X111427979Y-168244663D01*
X111441011Y-168182476D01*
X111458119Y-168135867D01*
X111479856Y-168099804D01*
X111506776Y-168069254D01*
X111534477Y-168043569D01*
X111610402Y-167991503D01*
X111705753Y-167957159D01*
X111830507Y-167938155D01*
X111994642Y-167932107D01*
X112001149Y-167932100D01*
X112234716Y-167932100D01*
X112186409Y-168075192D01*
X112171977Y-168122063D01*
X112160868Y-168171243D01*
X112152755Y-168229564D01*
X112147310Y-168303859D01*
X112144205Y-168400958D01*
X112143113Y-168527696D01*
X112143705Y-168690905D01*
X112145655Y-168897416D01*
X112145901Y-168919742D01*
X112148397Y-169127971D01*
X112151069Y-169292083D01*
X112154453Y-169418758D01*
X112159084Y-169514678D01*
X112165495Y-169586522D01*
X112174222Y-169640973D01*
X112185799Y-169684710D01*
X112200761Y-169724416D01*
X112212420Y-169750928D01*
X112311797Y-169910490D01*
X112449573Y-170041330D01*
X112585500Y-170121597D01*
X112618160Y-170136077D01*
X112650591Y-170147985D01*
X112687964Y-170157612D01*
X112735452Y-170165251D01*
X112798227Y-170171197D01*
X112881459Y-170175741D01*
X112990321Y-170179176D01*
X113129985Y-170181796D01*
X113305623Y-170183894D01*
X113522405Y-170185762D01*
X113747550Y-170187422D01*
X114782600Y-170194843D01*
X114782600Y-169813936D01*
X113798350Y-169806468D01*
X113798350Y-169806468D01*
G37*
X113798350Y-169806468D02*
X113548642Y-169804495D01*
X113344582Y-169802534D01*
X113181022Y-169800284D01*
X113052812Y-169797444D01*
X112954802Y-169793712D01*
X112881843Y-169788786D01*
X112828785Y-169782365D01*
X112790477Y-169774147D01*
X112761771Y-169763830D01*
X112737517Y-169751113D01*
X112725200Y-169743605D01*
X112652356Y-169684525D01*
X112591245Y-169612943D01*
X112585500Y-169603905D01*
X112569872Y-169574921D01*
X112557811Y-169541867D01*
X112548860Y-169498135D01*
X112542560Y-169437119D01*
X112538453Y-169352213D01*
X112536080Y-169236809D01*
X112534982Y-169084300D01*
X112534701Y-168888081D01*
X112534700Y-168871900D01*
X112534940Y-168672239D01*
X112535962Y-168516769D01*
X112538227Y-168398885D01*
X112542193Y-168311980D01*
X112548317Y-168249447D01*
X112557060Y-168204679D01*
X112568878Y-168171070D01*
X112584232Y-168142013D01*
X112585500Y-168139896D01*
X112642693Y-168068939D01*
X112715710Y-168006393D01*
X112725200Y-168000196D01*
X112749167Y-167986138D01*
X112774959Y-167974635D01*
X112807726Y-167965384D01*
X112852617Y-167958084D01*
X112914782Y-167952433D01*
X112999370Y-167948130D01*
X113111533Y-167944873D01*
X113256418Y-167942360D01*
X113439177Y-167940289D01*
X113664958Y-167938360D01*
X113798350Y-167937333D01*
X114782600Y-167929865D01*
X114782600Y-167548969D01*
X113176050Y-167556385D01*
X112850497Y-167557928D01*
X112571786Y-167559418D01*
X112335960Y-167560993D01*
X112139063Y-167562792D01*
X111977137Y-167564955D01*
X111846225Y-167567621D01*
X111742371Y-167570929D01*
X111661617Y-167575018D01*
X111600006Y-167580028D01*
X111553582Y-167586098D01*
X111518386Y-167593367D01*
X111490462Y-167601974D01*
X111465854Y-167612059D01*
X111455200Y-167616933D01*
X111293158Y-167714672D01*
X111169358Y-167841425D01*
X111080336Y-168001749D01*
X111026560Y-168181001D01*
X111018108Y-168248937D01*
X111011039Y-168365016D01*
X111005423Y-168526599D01*
X111001332Y-168731047D01*
X110998834Y-168975719D01*
X110998000Y-169254151D01*
X110998000Y-170192700D01*
X111404400Y-170192700D01*
X111404400Y-169226685D01*
X111404594Y-168965367D01*
X111405545Y-168749818D01*
X111407806Y-168575004D01*
X111411929Y-168435895D01*
X111418469Y-168327459D01*
X111427979Y-168244663D01*
X111441011Y-168182476D01*
X111458119Y-168135867D01*
X111479856Y-168099804D01*
X111506776Y-168069254D01*
X111534477Y-168043569D01*
X111610402Y-167991503D01*
X111705753Y-167957159D01*
X111830507Y-167938155D01*
X111994642Y-167932107D01*
X112001149Y-167932100D01*
X112234716Y-167932100D01*
X112186409Y-168075192D01*
X112171977Y-168122063D01*
X112160868Y-168171243D01*
X112152755Y-168229564D01*
X112147310Y-168303859D01*
X112144205Y-168400958D01*
X112143113Y-168527696D01*
X112143705Y-168690905D01*
X112145655Y-168897416D01*
X112145901Y-168919742D01*
X112148397Y-169127971D01*
X112151069Y-169292083D01*
X112154453Y-169418758D01*
X112159084Y-169514678D01*
X112165495Y-169586522D01*
X112174222Y-169640973D01*
X112185799Y-169684710D01*
X112200761Y-169724416D01*
X112212420Y-169750928D01*
X112311797Y-169910490D01*
X112449573Y-170041330D01*
X112585500Y-170121597D01*
X112618160Y-170136077D01*
X112650591Y-170147985D01*
X112687964Y-170157612D01*
X112735452Y-170165251D01*
X112798227Y-170171197D01*
X112881459Y-170175741D01*
X112990321Y-170179176D01*
X113129985Y-170181796D01*
X113305623Y-170183894D01*
X113522405Y-170185762D01*
X113747550Y-170187422D01*
X114782600Y-170194843D01*
X114782600Y-169813936D01*
X113798350Y-169806468D01*
G36*
X106184700Y-127596900D02*
G01*
X106172000Y-127609600D01*
X106184700Y-127622300D01*
X106197400Y-127609600D01*
X106184700Y-127596900D01*
X106184700Y-127596900D01*
G37*
X106184700Y-127596900D02*
X106172000Y-127609600D01*
X106184700Y-127622300D01*
X106197400Y-127609600D01*
X106184700Y-127596900D01*
G36*
X127758019Y-164134551D02*
G01*
X127753844Y-164011919D01*
X127745743Y-163926154D01*
X127740419Y-163900712D01*
X127723900Y-163844424D01*
X127520700Y-163928374D01*
X127196287Y-164074646D01*
X126847053Y-164254612D01*
X126481154Y-164463321D01*
X126106747Y-164695824D01*
X125731986Y-164947172D01*
X125365028Y-165212416D01*
X125211228Y-165329851D01*
X124613387Y-165822927D01*
X124029908Y-166361299D01*
X123464445Y-166940604D01*
X122920651Y-167556478D01*
X122402178Y-168204559D01*
X121912681Y-168880484D01*
X121455813Y-169579889D01*
X121035228Y-170298413D01*
X121005600Y-170352307D01*
X120789700Y-170746808D01*
X120639796Y-170773964D01*
X120426281Y-170835800D01*
X120202486Y-170944247D01*
X119970352Y-171096611D01*
X119731821Y-171290196D01*
X119488835Y-171522306D01*
X119243336Y-171790244D01*
X118997264Y-172091317D01*
X118752563Y-172422827D01*
X118511173Y-172782078D01*
X118275036Y-173166376D01*
X118046095Y-173573025D01*
X117826290Y-173999328D01*
X117617564Y-174442591D01*
X117421857Y-174900117D01*
X117241113Y-175369210D01*
X117155614Y-175611174D01*
X117043708Y-175937883D01*
X117222453Y-175776742D01*
X117479335Y-175547749D01*
X117710076Y-175347891D01*
X117923691Y-175169627D01*
X118129193Y-175005419D01*
X118311550Y-174865751D01*
X118448770Y-174764798D01*
X118588434Y-174665875D01*
X118724164Y-174573104D01*
X118849583Y-174490607D01*
X118958310Y-174422506D01*
X119043969Y-174372923D01*
X119100180Y-174345979D01*
X119119682Y-174343516D01*
X119116392Y-174370258D01*
X119099741Y-174435274D01*
X119072469Y-174528655D01*
X119039096Y-174634993D01*
X119003372Y-174746369D01*
X118974250Y-174838819D01*
X118954833Y-174902380D01*
X118948200Y-174926917D01*
X118968143Y-174944656D01*
X119019291Y-174978532D01*
X119062500Y-175004658D01*
X119126931Y-175045591D01*
X119168288Y-175077967D01*
X119176594Y-175089621D01*
X119155304Y-175107420D01*
X119097133Y-175143554D01*
X119010391Y-175193151D01*
X118903387Y-175251340D01*
X118876366Y-175265646D01*
X118576344Y-175423692D01*
X118405403Y-175771622D01*
X118334201Y-175922112D01*
X118281824Y-176044722D01*
X118250422Y-176134019D01*
X118242081Y-176184045D01*
X118251973Y-176211748D01*
X118278948Y-176244825D01*
X118328314Y-176287430D01*
X118405379Y-176343717D01*
X118515451Y-176417841D01*
X118662370Y-176513018D01*
X119075040Y-176777498D01*
X118874750Y-176996649D01*
X118517511Y-177371685D01*
X118150447Y-177726774D01*
X117779651Y-178056748D01*
X117411213Y-178356437D01*
X117051225Y-178620669D01*
X116705780Y-178844275D01*
X116679313Y-178860041D01*
X116260918Y-179085163D01*
X115850947Y-179260333D01*
X115449339Y-179385532D01*
X115056032Y-179460740D01*
X114670966Y-179485936D01*
X114294078Y-179461099D01*
X113925308Y-179386210D01*
X113564594Y-179261248D01*
X113211875Y-179086193D01*
X112867090Y-178861024D01*
X112530178Y-178585721D01*
X112201076Y-178260264D01*
X111879725Y-177884632D01*
X111566062Y-177458805D01*
X111320614Y-177081971D01*
X111023703Y-176570266D01*
X110735024Y-176008656D01*
X110454617Y-175397370D01*
X110182523Y-174736638D01*
X109918783Y-174026691D01*
X109663437Y-173267758D01*
X109416528Y-172460069D01*
X109178094Y-171603854D01*
X108948178Y-170699344D01*
X108726821Y-169746767D01*
X108514062Y-168746354D01*
X108309943Y-167698335D01*
X108114504Y-166602939D01*
X107927787Y-165460397D01*
X107749832Y-164270939D01*
X107580680Y-163034794D01*
X107420373Y-161752192D01*
X107268950Y-160423364D01*
X107126452Y-159048539D01*
X106992921Y-157627947D01*
X106868398Y-156161818D01*
X106752922Y-154650382D01*
X106646535Y-153093869D01*
X106549278Y-151492509D01*
X106461192Y-149846531D01*
X106452397Y-149669500D01*
X106423439Y-149069375D01*
X106396177Y-148476619D01*
X106370437Y-147886149D01*
X106346043Y-147292885D01*
X106322819Y-146691744D01*
X106300591Y-146077643D01*
X106279182Y-145445500D01*
X106258418Y-144790232D01*
X106238123Y-144106759D01*
X106218122Y-143389996D01*
X106198240Y-142634863D01*
X106178300Y-141836276D01*
X106169356Y-141465300D01*
X106163585Y-141194577D01*
X106158252Y-140886278D01*
X106153353Y-140543180D01*
X106148885Y-140168058D01*
X106144842Y-139763689D01*
X106141222Y-139332849D01*
X106138021Y-138878315D01*
X106135235Y-138402862D01*
X106132860Y-137909266D01*
X106130892Y-137400304D01*
X106129327Y-136878753D01*
X106128162Y-136347387D01*
X106127393Y-135808984D01*
X106127015Y-135266319D01*
X106127026Y-134722169D01*
X106127421Y-134179310D01*
X106128196Y-133640519D01*
X106129348Y-133108570D01*
X106130872Y-132586241D01*
X106132766Y-132076307D01*
X106135024Y-131581546D01*
X106137644Y-131104732D01*
X106140622Y-130648643D01*
X106143952Y-130216054D01*
X106147633Y-129809742D01*
X106151660Y-129432482D01*
X106156029Y-129087052D01*
X106160736Y-128776226D01*
X106165777Y-128502782D01*
X106171149Y-128269496D01*
X106176848Y-128079143D01*
X106182870Y-127934500D01*
X106188131Y-127850900D01*
X106193396Y-127762708D01*
X106193424Y-127700708D01*
X106188318Y-127675876D01*
X106186520Y-127676487D01*
X106179642Y-127706110D01*
X106169528Y-127782877D01*
X106156453Y-127903255D01*
X106140696Y-128063710D01*
X106122533Y-128260707D01*
X106102240Y-128490712D01*
X106080094Y-128750193D01*
X106056372Y-129035614D01*
X106031351Y-129343442D01*
X106005307Y-129670143D01*
X105978518Y-130012183D01*
X105951260Y-130366028D01*
X105923809Y-130728144D01*
X105896443Y-131094997D01*
X105869438Y-131463053D01*
X105843072Y-131828779D01*
X105817620Y-132188640D01*
X105793359Y-132539102D01*
X105770567Y-132876632D01*
X105749520Y-133197695D01*
X105730495Y-133498758D01*
X105730270Y-133502400D01*
X105719821Y-133675764D01*
X105710429Y-133842194D01*
X105701990Y-134005839D01*
X105694403Y-134170847D01*
X105687565Y-134341365D01*
X105681373Y-134521540D01*
X105675724Y-134715521D01*
X105670516Y-134927455D01*
X105665646Y-135161490D01*
X105661011Y-135421773D01*
X105656510Y-135712453D01*
X105652039Y-136037676D01*
X105647495Y-136401591D01*
X105642777Y-136808345D01*
X105638198Y-137223500D01*
X105633769Y-137623608D01*
X105629061Y-138032537D01*
X105624150Y-138444518D01*
X105619112Y-138853783D01*
X105614023Y-139254564D01*
X105608959Y-139641091D01*
X105603996Y-140007596D01*
X105599210Y-140348311D01*
X105594677Y-140657466D01*
X105590474Y-140929293D01*
X105586675Y-141158024D01*
X105585506Y-141224000D01*
X105583281Y-141370434D01*
X105581040Y-141562493D01*
X105578793Y-141796893D01*
X105576549Y-142070351D01*
X105574319Y-142379584D01*
X105572112Y-142721309D01*
X105569938Y-143092242D01*
X105567807Y-143489099D01*
X105565730Y-143908598D01*
X105563715Y-144347456D01*
X105561773Y-144802388D01*
X105559914Y-145270111D01*
X105558147Y-145747343D01*
X105556483Y-146230800D01*
X105554932Y-146717198D01*
X105553503Y-147203254D01*
X105552207Y-147685685D01*
X105551052Y-148161208D01*
X105550050Y-148626539D01*
X105549210Y-149078395D01*
X105548542Y-149513492D01*
X105548056Y-149928548D01*
X105547761Y-150320279D01*
X105547669Y-150685401D01*
X105547788Y-151020631D01*
X105548128Y-151322686D01*
X105548700Y-151588283D01*
X105549513Y-151814138D01*
X105550578Y-151996969D01*
X105551903Y-152133490D01*
X105552459Y-152171400D01*
X105568465Y-153079353D01*
X105585566Y-153941271D01*
X105603907Y-154761913D01*
X105623635Y-155546035D01*
X105644894Y-156298395D01*
X105667829Y-157023750D01*
X105692586Y-157726857D01*
X105719311Y-158412473D01*
X105748149Y-159085355D01*
X105779245Y-159750262D01*
X105791958Y-160007300D01*
X105875248Y-161527481D01*
X105970007Y-162998300D01*
X106076262Y-164419891D01*
X106194043Y-165792387D01*
X106323378Y-167115922D01*
X106464297Y-168390629D01*
X106616827Y-169616641D01*
X106780998Y-170794093D01*
X106956839Y-171923118D01*
X107144378Y-173003849D01*
X107343643Y-174036419D01*
X107554665Y-175020963D01*
X107777471Y-175957613D01*
X108012090Y-176846504D01*
X108258551Y-177687768D01*
X108516883Y-178481539D01*
X108787114Y-179227951D01*
X109069274Y-179927137D01*
X109363390Y-180579231D01*
X109669492Y-181184366D01*
X109987609Y-181742675D01*
X110317769Y-182254293D01*
X110660001Y-182719352D01*
X110692370Y-182760150D01*
X111016603Y-183135978D01*
X111359774Y-183476464D01*
X111718082Y-183778782D01*
X112087725Y-184040108D01*
X112464901Y-184257616D01*
X112845809Y-184428482D01*
X113021329Y-184490672D01*
X113449430Y-184606338D01*
X113867785Y-184672406D01*
X114276976Y-184688756D01*
X114677585Y-184655270D01*
X115070194Y-184571827D01*
X115455385Y-184438309D01*
X115833741Y-184254597D01*
X116205842Y-184020572D01*
X116528670Y-183772842D01*
X116851266Y-183477492D01*
X117169738Y-183133051D01*
X117483096Y-182741132D01*
X117790351Y-182303347D01*
X118090513Y-181821309D01*
X118382595Y-181296630D01*
X118665605Y-180730923D01*
X118938555Y-180125800D01*
X119200455Y-179482873D01*
X119266021Y-179311300D01*
X119370612Y-179029239D01*
X119395558Y-178959855D01*
X119395558Y-176636323D01*
X119374090Y-176625787D01*
X119320235Y-176593606D01*
X119244141Y-176545914D01*
X119214411Y-176526872D01*
X119113095Y-176461684D01*
X118988971Y-176381899D01*
X118861996Y-176300340D01*
X118802150Y-176261925D01*
X118707468Y-176200112D01*
X118631039Y-176148211D01*
X118581564Y-176112264D01*
X118567200Y-176098807D01*
X118577637Y-176071623D01*
X118605152Y-176011430D01*
X118644054Y-175930632D01*
X118648852Y-175920881D01*
X118691378Y-175840209D01*
X118727673Y-175781281D01*
X118750569Y-175755602D01*
X118752018Y-175755300D01*
X118779082Y-175768487D01*
X118841789Y-175805226D01*
X118933251Y-175861289D01*
X119046580Y-175932449D01*
X119174889Y-176014474D01*
X119189593Y-176023960D01*
X119605654Y-176292620D01*
X119502524Y-176462110D01*
X119453508Y-176542478D01*
X119416038Y-176603561D01*
X119396741Y-176634566D01*
X119395558Y-176636323D01*
X119395558Y-178959855D01*
X119475259Y-178738177D01*
X119576291Y-178448829D01*
X119670036Y-178171906D01*
X119752822Y-177918123D01*
X119820978Y-177698191D01*
X119834310Y-177653140D01*
X119929352Y-177328480D01*
X120143626Y-177468525D01*
X120238822Y-177528033D01*
X120321968Y-177575078D01*
X120371159Y-177598472D01*
X120371159Y-177259196D01*
X120367267Y-177259114D01*
X120326383Y-177240276D01*
X120255739Y-177199411D01*
X120163126Y-177141790D01*
X120056334Y-177072683D01*
X119943154Y-176997361D01*
X119831375Y-176921096D01*
X119728787Y-176849159D01*
X119643182Y-176786821D01*
X119582349Y-176739352D01*
X119554078Y-176712023D01*
X119553227Y-176708316D01*
X119575570Y-176674755D01*
X119617330Y-176612781D01*
X119667971Y-176538017D01*
X119765442Y-176394444D01*
X120201371Y-176674168D01*
X120335224Y-176760521D01*
X120455485Y-176838982D01*
X120555186Y-176904934D01*
X120627360Y-176953760D01*
X120665041Y-176980845D01*
X120667824Y-176983246D01*
X120674654Y-177006481D01*
X120652387Y-177042445D01*
X120596121Y-177097494D01*
X120547251Y-177139600D01*
X120472057Y-177198973D01*
X120409543Y-177241372D01*
X120371159Y-177259196D01*
X120371159Y-177598472D01*
X120381702Y-177603487D01*
X120402174Y-177609036D01*
X120437895Y-177593152D01*
X120501712Y-177549637D01*
X120584360Y-177485285D01*
X120670045Y-177412650D01*
X120768421Y-177326359D01*
X120861885Y-177244931D01*
X120938633Y-177178621D01*
X120980348Y-177143109D01*
X121028718Y-177097279D01*
X121057748Y-177049768D01*
X121075036Y-176983193D01*
X121085822Y-176901809D01*
X121095720Y-176786022D01*
X121102996Y-176650563D01*
X121105896Y-176536350D01*
X121108306Y-176443617D01*
X121113526Y-176374387D01*
X121120535Y-176340873D01*
X121122329Y-176339500D01*
X121151402Y-176352828D01*
X121201649Y-176385230D01*
X121206121Y-176388393D01*
X121274784Y-176437285D01*
X121586020Y-176156888D01*
X121690321Y-176064209D01*
X121751492Y-176011496D01*
X121751492Y-175396695D01*
X121295996Y-175103593D01*
X121161394Y-175016915D01*
X121042215Y-174940049D01*
X120944723Y-174877044D01*
X120875183Y-174831950D01*
X120839858Y-174808817D01*
X120836724Y-174806645D01*
X120848873Y-174785130D01*
X120885071Y-174726123D01*
X120941990Y-174634926D01*
X121016302Y-174516839D01*
X121104680Y-174377163D01*
X121203795Y-174221198D01*
X121237818Y-174167800D01*
X121421535Y-173877778D01*
X121598794Y-173594309D01*
X121767605Y-173320792D01*
X121925978Y-173060627D01*
X122071923Y-172817212D01*
X122203451Y-172593947D01*
X122318570Y-172394230D01*
X122415291Y-172221461D01*
X122491624Y-172079039D01*
X122545579Y-171970362D01*
X122575167Y-171898830D01*
X122580400Y-171874610D01*
X122569699Y-171857412D01*
X122536965Y-171877068D01*
X122481251Y-171934692D01*
X122401612Y-172031395D01*
X122297103Y-172168290D01*
X122166777Y-172346489D01*
X122099988Y-172439704D01*
X122029137Y-172540666D01*
X121935050Y-172677099D01*
X121822133Y-172842430D01*
X121694792Y-173030086D01*
X121557433Y-173233494D01*
X121414461Y-173446080D01*
X121270284Y-173661271D01*
X121129305Y-173872494D01*
X120995933Y-174073176D01*
X120874571Y-174256743D01*
X120769627Y-174416622D01*
X120685506Y-174546240D01*
X120637300Y-174621918D01*
X120623539Y-174632006D01*
X120597963Y-174629813D01*
X120555307Y-174612549D01*
X120490304Y-174577428D01*
X120397688Y-174521663D01*
X120272193Y-174442466D01*
X120151243Y-174364668D01*
X119690585Y-174066976D01*
X119786507Y-173799888D01*
X119834707Y-173667536D01*
X119893635Y-173508504D01*
X119955588Y-173343450D01*
X120009189Y-173202600D01*
X120373997Y-172311049D01*
X120771183Y-171451890D01*
X121199825Y-170626361D01*
X121659003Y-169835698D01*
X122147797Y-169081137D01*
X122665285Y-168363916D01*
X123210548Y-167685270D01*
X123782664Y-167046436D01*
X124380714Y-166448651D01*
X125003777Y-165893151D01*
X125650932Y-165381173D01*
X126038316Y-165103718D01*
X126137026Y-165037257D01*
X126221876Y-164983114D01*
X126283480Y-164947081D01*
X126311811Y-164934900D01*
X126339325Y-164948079D01*
X126401922Y-164984483D01*
X126492246Y-165039417D01*
X126602941Y-165108184D01*
X126726652Y-165186089D01*
X126856023Y-165268435D01*
X126983699Y-165350527D01*
X127102323Y-165427668D01*
X127204540Y-165495162D01*
X127282995Y-165548313D01*
X127330332Y-165582425D01*
X127340739Y-165591803D01*
X127341994Y-165626326D01*
X127333112Y-165703155D01*
X127315475Y-165815119D01*
X127290467Y-165955049D01*
X127259473Y-166115772D01*
X127223876Y-166290120D01*
X127185061Y-166470922D01*
X127144410Y-166651007D01*
X127103308Y-166823205D01*
X127102230Y-166827578D01*
X126886772Y-167599122D01*
X126621669Y-168370715D01*
X126308034Y-169140336D01*
X125946980Y-169905967D01*
X125539619Y-170665590D01*
X125087065Y-171417185D01*
X124590430Y-172158734D01*
X124050827Y-172888218D01*
X123469368Y-173603618D01*
X123188962Y-173926500D01*
X123058842Y-174071279D01*
X122912305Y-174230910D01*
X122755487Y-174399003D01*
X122594521Y-174569168D01*
X122435543Y-174735016D01*
X122284686Y-174890157D01*
X122148085Y-175028201D01*
X122031876Y-175142758D01*
X121942191Y-175227438D01*
X121926274Y-175241739D01*
X121751492Y-175396695D01*
X121751492Y-176011496D01*
X121781201Y-175985894D01*
X121852201Y-175927315D01*
X121896859Y-175893845D01*
X121909065Y-175888298D01*
X121913138Y-175919430D01*
X121910978Y-175991787D01*
X121903504Y-176096300D01*
X121891633Y-176223900D01*
X121876285Y-176365520D01*
X121858377Y-176512089D01*
X121838828Y-176654539D01*
X121818556Y-176783801D01*
X121818112Y-176786412D01*
X121766433Y-177056344D01*
X121698114Y-177361130D01*
X121616092Y-177688749D01*
X121523301Y-178027176D01*
X121473691Y-178197001D01*
X121435308Y-178328396D01*
X121403735Y-178441789D01*
X121381208Y-178528702D01*
X121369964Y-178580659D01*
X121369588Y-178591554D01*
X121390402Y-178578187D01*
X121440411Y-178532449D01*
X121514642Y-178459560D01*
X121608123Y-178364741D01*
X121715881Y-178253214D01*
X121832942Y-178130200D01*
X121954335Y-178000920D01*
X122075086Y-177870595D01*
X122190223Y-177744446D01*
X122294773Y-177627694D01*
X122373883Y-177537090D01*
X122756383Y-177073066D01*
X123107327Y-176608815D01*
X123424714Y-176147727D01*
X123706545Y-175693191D01*
X123950819Y-175248597D01*
X124155536Y-174817335D01*
X124318697Y-174402796D01*
X124424375Y-174061791D01*
X124465307Y-173872614D01*
X124490488Y-173676863D01*
X124499729Y-173485986D01*
X124492840Y-173311433D01*
X124469631Y-173164654D01*
X124440703Y-173078162D01*
X124383306Y-172953724D01*
X124562721Y-172715027D01*
X124679521Y-172555618D01*
X124815155Y-172363869D01*
X124962123Y-172150882D01*
X125112928Y-171927761D01*
X125260070Y-171705608D01*
X125396051Y-171495526D01*
X125513374Y-171308617D01*
X125521178Y-171295897D01*
X125947946Y-170558722D01*
X126332269Y-169811026D01*
X126673197Y-169055591D01*
X126969779Y-168295200D01*
X127221065Y-167532636D01*
X127426106Y-166770682D01*
X127583950Y-166012121D01*
X127693648Y-165259736D01*
X127736301Y-164807900D01*
X127747409Y-164630726D01*
X127754759Y-164453247D01*
X127758310Y-164284758D01*
X127758019Y-164134551D01*
X127758019Y-164134551D01*
G37*
X127758019Y-164134551D02*
X127753844Y-164011919D01*
X127745743Y-163926154D01*
X127740419Y-163900712D01*
X127723900Y-163844424D01*
X127520700Y-163928374D01*
X127196287Y-164074646D01*
X126847053Y-164254612D01*
X126481154Y-164463321D01*
X126106747Y-164695824D01*
X125731986Y-164947172D01*
X125365028Y-165212416D01*
X125211228Y-165329851D01*
X124613387Y-165822927D01*
X124029908Y-166361299D01*
X123464445Y-166940604D01*
X122920651Y-167556478D01*
X122402178Y-168204559D01*
X121912681Y-168880484D01*
X121455813Y-169579889D01*
X121035228Y-170298413D01*
X121005600Y-170352307D01*
X120789700Y-170746808D01*
X120639796Y-170773964D01*
X120426281Y-170835800D01*
X120202486Y-170944247D01*
X119970352Y-171096611D01*
X119731821Y-171290196D01*
X119488835Y-171522306D01*
X119243336Y-171790244D01*
X118997264Y-172091317D01*
X118752563Y-172422827D01*
X118511173Y-172782078D01*
X118275036Y-173166376D01*
X118046095Y-173573025D01*
X117826290Y-173999328D01*
X117617564Y-174442591D01*
X117421857Y-174900117D01*
X117241113Y-175369210D01*
X117155614Y-175611174D01*
X117043708Y-175937883D01*
X117222453Y-175776742D01*
X117479335Y-175547749D01*
X117710076Y-175347891D01*
X117923691Y-175169627D01*
X118129193Y-175005419D01*
X118311550Y-174865751D01*
X118448770Y-174764798D01*
X118588434Y-174665875D01*
X118724164Y-174573104D01*
X118849583Y-174490607D01*
X118958310Y-174422506D01*
X119043969Y-174372923D01*
X119100180Y-174345979D01*
X119119682Y-174343516D01*
X119116392Y-174370258D01*
X119099741Y-174435274D01*
X119072469Y-174528655D01*
X119039096Y-174634993D01*
X119003372Y-174746369D01*
X118974250Y-174838819D01*
X118954833Y-174902380D01*
X118948200Y-174926917D01*
X118968143Y-174944656D01*
X119019291Y-174978532D01*
X119062500Y-175004658D01*
X119126931Y-175045591D01*
X119168288Y-175077967D01*
X119176594Y-175089621D01*
X119155304Y-175107420D01*
X119097133Y-175143554D01*
X119010391Y-175193151D01*
X118903387Y-175251340D01*
X118876366Y-175265646D01*
X118576344Y-175423692D01*
X118405403Y-175771622D01*
X118334201Y-175922112D01*
X118281824Y-176044722D01*
X118250422Y-176134019D01*
X118242081Y-176184045D01*
X118251973Y-176211748D01*
X118278948Y-176244825D01*
X118328314Y-176287430D01*
X118405379Y-176343717D01*
X118515451Y-176417841D01*
X118662370Y-176513018D01*
X119075040Y-176777498D01*
X118874750Y-176996649D01*
X118517511Y-177371685D01*
X118150447Y-177726774D01*
X117779651Y-178056748D01*
X117411213Y-178356437D01*
X117051225Y-178620669D01*
X116705780Y-178844275D01*
X116679313Y-178860041D01*
X116260918Y-179085163D01*
X115850947Y-179260333D01*
X115449339Y-179385532D01*
X115056032Y-179460740D01*
X114670966Y-179485936D01*
X114294078Y-179461099D01*
X113925308Y-179386210D01*
X113564594Y-179261248D01*
X113211875Y-179086193D01*
X112867090Y-178861024D01*
X112530178Y-178585721D01*
X112201076Y-178260264D01*
X111879725Y-177884632D01*
X111566062Y-177458805D01*
X111320614Y-177081971D01*
X111023703Y-176570266D01*
X110735024Y-176008656D01*
X110454617Y-175397370D01*
X110182523Y-174736638D01*
X109918783Y-174026691D01*
X109663437Y-173267758D01*
X109416528Y-172460069D01*
X109178094Y-171603854D01*
X108948178Y-170699344D01*
X108726821Y-169746767D01*
X108514062Y-168746354D01*
X108309943Y-167698335D01*
X108114504Y-166602939D01*
X107927787Y-165460397D01*
X107749832Y-164270939D01*
X107580680Y-163034794D01*
X107420373Y-161752192D01*
X107268950Y-160423364D01*
X107126452Y-159048539D01*
X106992921Y-157627947D01*
X106868398Y-156161818D01*
X106752922Y-154650382D01*
X106646535Y-153093869D01*
X106549278Y-151492509D01*
X106461192Y-149846531D01*
X106452397Y-149669500D01*
X106423439Y-149069375D01*
X106396177Y-148476619D01*
X106370437Y-147886149D01*
X106346043Y-147292885D01*
X106322819Y-146691744D01*
X106300591Y-146077643D01*
X106279182Y-145445500D01*
X106258418Y-144790232D01*
X106238123Y-144106759D01*
X106218122Y-143389996D01*
X106198240Y-142634863D01*
X106178300Y-141836276D01*
X106169356Y-141465300D01*
X106163585Y-141194577D01*
X106158252Y-140886278D01*
X106153353Y-140543180D01*
X106148885Y-140168058D01*
X106144842Y-139763689D01*
X106141222Y-139332849D01*
X106138021Y-138878315D01*
X106135235Y-138402862D01*
X106132860Y-137909266D01*
X106130892Y-137400304D01*
X106129327Y-136878753D01*
X106128162Y-136347387D01*
X106127393Y-135808984D01*
X106127015Y-135266319D01*
X106127026Y-134722169D01*
X106127421Y-134179310D01*
X106128196Y-133640519D01*
X106129348Y-133108570D01*
X106130872Y-132586241D01*
X106132766Y-132076307D01*
X106135024Y-131581546D01*
X106137644Y-131104732D01*
X106140622Y-130648643D01*
X106143952Y-130216054D01*
X106147633Y-129809742D01*
X106151660Y-129432482D01*
X106156029Y-129087052D01*
X106160736Y-128776226D01*
X106165777Y-128502782D01*
X106171149Y-128269496D01*
X106176848Y-128079143D01*
X106182870Y-127934500D01*
X106188131Y-127850900D01*
X106193396Y-127762708D01*
X106193424Y-127700708D01*
X106188318Y-127675876D01*
X106186520Y-127676487D01*
X106179642Y-127706110D01*
X106169528Y-127782877D01*
X106156453Y-127903255D01*
X106140696Y-128063710D01*
X106122533Y-128260707D01*
X106102240Y-128490712D01*
X106080094Y-128750193D01*
X106056372Y-129035614D01*
X106031351Y-129343442D01*
X106005307Y-129670143D01*
X105978518Y-130012183D01*
X105951260Y-130366028D01*
X105923809Y-130728144D01*
X105896443Y-131094997D01*
X105869438Y-131463053D01*
X105843072Y-131828779D01*
X105817620Y-132188640D01*
X105793359Y-132539102D01*
X105770567Y-132876632D01*
X105749520Y-133197695D01*
X105730495Y-133498758D01*
X105730270Y-133502400D01*
X105719821Y-133675764D01*
X105710429Y-133842194D01*
X105701990Y-134005839D01*
X105694403Y-134170847D01*
X105687565Y-134341365D01*
X105681373Y-134521540D01*
X105675724Y-134715521D01*
X105670516Y-134927455D01*
X105665646Y-135161490D01*
X105661011Y-135421773D01*
X105656510Y-135712453D01*
X105652039Y-136037676D01*
X105647495Y-136401591D01*
X105642777Y-136808345D01*
X105638198Y-137223500D01*
X105633769Y-137623608D01*
X105629061Y-138032537D01*
X105624150Y-138444518D01*
X105619112Y-138853783D01*
X105614023Y-139254564D01*
X105608959Y-139641091D01*
X105603996Y-140007596D01*
X105599210Y-140348311D01*
X105594677Y-140657466D01*
X105590474Y-140929293D01*
X105586675Y-141158024D01*
X105585506Y-141224000D01*
X105583281Y-141370434D01*
X105581040Y-141562493D01*
X105578793Y-141796893D01*
X105576549Y-142070351D01*
X105574319Y-142379584D01*
X105572112Y-142721309D01*
X105569938Y-143092242D01*
X105567807Y-143489099D01*
X105565730Y-143908598D01*
X105563715Y-144347456D01*
X105561773Y-144802388D01*
X105559914Y-145270111D01*
X105558147Y-145747343D01*
X105556483Y-146230800D01*
X105554932Y-146717198D01*
X105553503Y-147203254D01*
X105552207Y-147685685D01*
X105551052Y-148161208D01*
X105550050Y-148626539D01*
X105549210Y-149078395D01*
X105548542Y-149513492D01*
X105548056Y-149928548D01*
X105547761Y-150320279D01*
X105547669Y-150685401D01*
X105547788Y-151020631D01*
X105548128Y-151322686D01*
X105548700Y-151588283D01*
X105549513Y-151814138D01*
X105550578Y-151996969D01*
X105551903Y-152133490D01*
X105552459Y-152171400D01*
X105568465Y-153079353D01*
X105585566Y-153941271D01*
X105603907Y-154761913D01*
X105623635Y-155546035D01*
X105644894Y-156298395D01*
X105667829Y-157023750D01*
X105692586Y-157726857D01*
X105719311Y-158412473D01*
X105748149Y-159085355D01*
X105779245Y-159750262D01*
X105791958Y-160007300D01*
X105875248Y-161527481D01*
X105970007Y-162998300D01*
X106076262Y-164419891D01*
X106194043Y-165792387D01*
X106323378Y-167115922D01*
X106464297Y-168390629D01*
X106616827Y-169616641D01*
X106780998Y-170794093D01*
X106956839Y-171923118D01*
X107144378Y-173003849D01*
X107343643Y-174036419D01*
X107554665Y-175020963D01*
X107777471Y-175957613D01*
X108012090Y-176846504D01*
X108258551Y-177687768D01*
X108516883Y-178481539D01*
X108787114Y-179227951D01*
X109069274Y-179927137D01*
X109363390Y-180579231D01*
X109669492Y-181184366D01*
X109987609Y-181742675D01*
X110317769Y-182254293D01*
X110660001Y-182719352D01*
X110692370Y-182760150D01*
X111016603Y-183135978D01*
X111359774Y-183476464D01*
X111718082Y-183778782D01*
X112087725Y-184040108D01*
X112464901Y-184257616D01*
X112845809Y-184428482D01*
X113021329Y-184490672D01*
X113449430Y-184606338D01*
X113867785Y-184672406D01*
X114276976Y-184688756D01*
X114677585Y-184655270D01*
X115070194Y-184571827D01*
X115455385Y-184438309D01*
X115833741Y-184254597D01*
X116205842Y-184020572D01*
X116528670Y-183772842D01*
X116851266Y-183477492D01*
X117169738Y-183133051D01*
X117483096Y-182741132D01*
X117790351Y-182303347D01*
X118090513Y-181821309D01*
X118382595Y-181296630D01*
X118665605Y-180730923D01*
X118938555Y-180125800D01*
X119200455Y-179482873D01*
X119266021Y-179311300D01*
X119370612Y-179029239D01*
X119395558Y-178959855D01*
X119395558Y-176636323D01*
X119374090Y-176625787D01*
X119320235Y-176593606D01*
X119244141Y-176545914D01*
X119214411Y-176526872D01*
X119113095Y-176461684D01*
X118988971Y-176381899D01*
X118861996Y-176300340D01*
X118802150Y-176261925D01*
X118707468Y-176200112D01*
X118631039Y-176148211D01*
X118581564Y-176112264D01*
X118567200Y-176098807D01*
X118577637Y-176071623D01*
X118605152Y-176011430D01*
X118644054Y-175930632D01*
X118648852Y-175920881D01*
X118691378Y-175840209D01*
X118727673Y-175781281D01*
X118750569Y-175755602D01*
X118752018Y-175755300D01*
X118779082Y-175768487D01*
X118841789Y-175805226D01*
X118933251Y-175861289D01*
X119046580Y-175932449D01*
X119174889Y-176014474D01*
X119189593Y-176023960D01*
X119605654Y-176292620D01*
X119502524Y-176462110D01*
X119453508Y-176542478D01*
X119416038Y-176603561D01*
X119396741Y-176634566D01*
X119395558Y-176636323D01*
X119395558Y-178959855D01*
X119475259Y-178738177D01*
X119576291Y-178448829D01*
X119670036Y-178171906D01*
X119752822Y-177918123D01*
X119820978Y-177698191D01*
X119834310Y-177653140D01*
X119929352Y-177328480D01*
X120143626Y-177468525D01*
X120238822Y-177528033D01*
X120321968Y-177575078D01*
X120371159Y-177598472D01*
X120371159Y-177259196D01*
X120367267Y-177259114D01*
X120326383Y-177240276D01*
X120255739Y-177199411D01*
X120163126Y-177141790D01*
X120056334Y-177072683D01*
X119943154Y-176997361D01*
X119831375Y-176921096D01*
X119728787Y-176849159D01*
X119643182Y-176786821D01*
X119582349Y-176739352D01*
X119554078Y-176712023D01*
X119553227Y-176708316D01*
X119575570Y-176674755D01*
X119617330Y-176612781D01*
X119667971Y-176538017D01*
X119765442Y-176394444D01*
X120201371Y-176674168D01*
X120335224Y-176760521D01*
X120455485Y-176838982D01*
X120555186Y-176904934D01*
X120627360Y-176953760D01*
X120665041Y-176980845D01*
X120667824Y-176983246D01*
X120674654Y-177006481D01*
X120652387Y-177042445D01*
X120596121Y-177097494D01*
X120547251Y-177139600D01*
X120472057Y-177198973D01*
X120409543Y-177241372D01*
X120371159Y-177259196D01*
X120371159Y-177598472D01*
X120381702Y-177603487D01*
X120402174Y-177609036D01*
X120437895Y-177593152D01*
X120501712Y-177549637D01*
X120584360Y-177485285D01*
X120670045Y-177412650D01*
X120768421Y-177326359D01*
X120861885Y-177244931D01*
X120938633Y-177178621D01*
X120980348Y-177143109D01*
X121028718Y-177097279D01*
X121057748Y-177049768D01*
X121075036Y-176983193D01*
X121085822Y-176901809D01*
X121095720Y-176786022D01*
X121102996Y-176650563D01*
X121105896Y-176536350D01*
X121108306Y-176443617D01*
X121113526Y-176374387D01*
X121120535Y-176340873D01*
X121122329Y-176339500D01*
X121151402Y-176352828D01*
X121201649Y-176385230D01*
X121206121Y-176388393D01*
X121274784Y-176437285D01*
X121586020Y-176156888D01*
X121690321Y-176064209D01*
X121751492Y-176011496D01*
X121751492Y-175396695D01*
X121295996Y-175103593D01*
X121161394Y-175016915D01*
X121042215Y-174940049D01*
X120944723Y-174877044D01*
X120875183Y-174831950D01*
X120839858Y-174808817D01*
X120836724Y-174806645D01*
X120848873Y-174785130D01*
X120885071Y-174726123D01*
X120941990Y-174634926D01*
X121016302Y-174516839D01*
X121104680Y-174377163D01*
X121203795Y-174221198D01*
X121237818Y-174167800D01*
X121421535Y-173877778D01*
X121598794Y-173594309D01*
X121767605Y-173320792D01*
X121925978Y-173060627D01*
X122071923Y-172817212D01*
X122203451Y-172593947D01*
X122318570Y-172394230D01*
X122415291Y-172221461D01*
X122491624Y-172079039D01*
X122545579Y-171970362D01*
X122575167Y-171898830D01*
X122580400Y-171874610D01*
X122569699Y-171857412D01*
X122536965Y-171877068D01*
X122481251Y-171934692D01*
X122401612Y-172031395D01*
X122297103Y-172168290D01*
X122166777Y-172346489D01*
X122099988Y-172439704D01*
X122029137Y-172540666D01*
X121935050Y-172677099D01*
X121822133Y-172842430D01*
X121694792Y-173030086D01*
X121557433Y-173233494D01*
X121414461Y-173446080D01*
X121270284Y-173661271D01*
X121129305Y-173872494D01*
X120995933Y-174073176D01*
X120874571Y-174256743D01*
X120769627Y-174416622D01*
X120685506Y-174546240D01*
X120637300Y-174621918D01*
X120623539Y-174632006D01*
X120597963Y-174629813D01*
X120555307Y-174612549D01*
X120490304Y-174577428D01*
X120397688Y-174521663D01*
X120272193Y-174442466D01*
X120151243Y-174364668D01*
X119690585Y-174066976D01*
X119786507Y-173799888D01*
X119834707Y-173667536D01*
X119893635Y-173508504D01*
X119955588Y-173343450D01*
X120009189Y-173202600D01*
X120373997Y-172311049D01*
X120771183Y-171451890D01*
X121199825Y-170626361D01*
X121659003Y-169835698D01*
X122147797Y-169081137D01*
X122665285Y-168363916D01*
X123210548Y-167685270D01*
X123782664Y-167046436D01*
X124380714Y-166448651D01*
X125003777Y-165893151D01*
X125650932Y-165381173D01*
X126038316Y-165103718D01*
X126137026Y-165037257D01*
X126221876Y-164983114D01*
X126283480Y-164947081D01*
X126311811Y-164934900D01*
X126339325Y-164948079D01*
X126401922Y-164984483D01*
X126492246Y-165039417D01*
X126602941Y-165108184D01*
X126726652Y-165186089D01*
X126856023Y-165268435D01*
X126983699Y-165350527D01*
X127102323Y-165427668D01*
X127204540Y-165495162D01*
X127282995Y-165548313D01*
X127330332Y-165582425D01*
X127340739Y-165591803D01*
X127341994Y-165626326D01*
X127333112Y-165703155D01*
X127315475Y-165815119D01*
X127290467Y-165955049D01*
X127259473Y-166115772D01*
X127223876Y-166290120D01*
X127185061Y-166470922D01*
X127144410Y-166651007D01*
X127103308Y-166823205D01*
X127102230Y-166827578D01*
X126886772Y-167599122D01*
X126621669Y-168370715D01*
X126308034Y-169140336D01*
X125946980Y-169905967D01*
X125539619Y-170665590D01*
X125087065Y-171417185D01*
X124590430Y-172158734D01*
X124050827Y-172888218D01*
X123469368Y-173603618D01*
X123188962Y-173926500D01*
X123058842Y-174071279D01*
X122912305Y-174230910D01*
X122755487Y-174399003D01*
X122594521Y-174569168D01*
X122435543Y-174735016D01*
X122284686Y-174890157D01*
X122148085Y-175028201D01*
X122031876Y-175142758D01*
X121942191Y-175227438D01*
X121926274Y-175241739D01*
X121751492Y-175396695D01*
X121751492Y-176011496D01*
X121781201Y-175985894D01*
X121852201Y-175927315D01*
X121896859Y-175893845D01*
X121909065Y-175888298D01*
X121913138Y-175919430D01*
X121910978Y-175991787D01*
X121903504Y-176096300D01*
X121891633Y-176223900D01*
X121876285Y-176365520D01*
X121858377Y-176512089D01*
X121838828Y-176654539D01*
X121818556Y-176783801D01*
X121818112Y-176786412D01*
X121766433Y-177056344D01*
X121698114Y-177361130D01*
X121616092Y-177688749D01*
X121523301Y-178027176D01*
X121473691Y-178197001D01*
X121435308Y-178328396D01*
X121403735Y-178441789D01*
X121381208Y-178528702D01*
X121369964Y-178580659D01*
X121369588Y-178591554D01*
X121390402Y-178578187D01*
X121440411Y-178532449D01*
X121514642Y-178459560D01*
X121608123Y-178364741D01*
X121715881Y-178253214D01*
X121832942Y-178130200D01*
X121954335Y-178000920D01*
X122075086Y-177870595D01*
X122190223Y-177744446D01*
X122294773Y-177627694D01*
X122373883Y-177537090D01*
X122756383Y-177073066D01*
X123107327Y-176608815D01*
X123424714Y-176147727D01*
X123706545Y-175693191D01*
X123950819Y-175248597D01*
X124155536Y-174817335D01*
X124318697Y-174402796D01*
X124424375Y-174061791D01*
X124465307Y-173872614D01*
X124490488Y-173676863D01*
X124499729Y-173485986D01*
X124492840Y-173311433D01*
X124469631Y-173164654D01*
X124440703Y-173078162D01*
X124383306Y-172953724D01*
X124562721Y-172715027D01*
X124679521Y-172555618D01*
X124815155Y-172363869D01*
X124962123Y-172150882D01*
X125112928Y-171927761D01*
X125260070Y-171705608D01*
X125396051Y-171495526D01*
X125513374Y-171308617D01*
X125521178Y-171295897D01*
X125947946Y-170558722D01*
X126332269Y-169811026D01*
X126673197Y-169055591D01*
X126969779Y-168295200D01*
X127221065Y-167532636D01*
X127426106Y-166770682D01*
X127583950Y-166012121D01*
X127693648Y-165259736D01*
X127736301Y-164807900D01*
X127747409Y-164630726D01*
X127754759Y-164453247D01*
X127758310Y-164284758D01*
X127758019Y-164134551D01*
D11*
X100750000Y-105910000D02*
X100750000Y-104910000D01*
X102450000Y-104910000D02*
X102450000Y-105910000D01*
X117260000Y-105910000D02*
X117260000Y-104910000D01*
X118960000Y-104910000D02*
X118960000Y-105910000D01*
X118810000Y-112290000D02*
X117410000Y-112290000D01*
X117410000Y-112290000D02*
X117410000Y-109490000D01*
X118810000Y-112290000D02*
X118810000Y-109490000D01*
X117230000Y-114650000D02*
X117230000Y-115850000D01*
X118990000Y-115850000D02*
X118990000Y-114650000D01*
X139350000Y-138820000D02*
X138150000Y-138820000D01*
X138150000Y-140580000D02*
X139350000Y-140580000D01*
X138055001Y-138040000D02*
X139255001Y-138040000D01*
X139255001Y-136280000D02*
X138055001Y-136280000D01*
X112610000Y-108810000D02*
X112610000Y-107710000D01*
X114420000Y-108810000D02*
X112610000Y-108810000D01*
X114420000Y-110310000D02*
X114420000Y-108810000D01*
X105830000Y-108810000D02*
X105830000Y-103685000D01*
X104020000Y-108810000D02*
X105830000Y-108810000D01*
X104020000Y-110310000D02*
X104020000Y-108810000D01*
D12*
X146050000Y-158115000D02*
X146050000Y-184785000D01*
X146050000Y-184785000D02*
X118110000Y-184785000D01*
X118110000Y-184785000D02*
X118110000Y-158115000D01*
X118110000Y-158115000D02*
X146050000Y-158115000D01*
X128155700Y-192403600D02*
X110655700Y-192403600D01*
X110655700Y-192403600D02*
X110655700Y-210403600D01*
X129155700Y-210403600D02*
X129155700Y-192403600D01*
X129155700Y-192403600D02*
X128155700Y-192403600D01*
X110655700Y-210403600D02*
X110655700Y-210903600D01*
X110655700Y-210903600D02*
X129155700Y-210903600D01*
X129155700Y-210903600D02*
X129155700Y-210403600D01*
X100457142Y-105243333D02*
X100504761Y-105195714D01*
X100552380Y-105052857D01*
X100552380Y-104957619D01*
X100504761Y-104814761D01*
X100409523Y-104719523D01*
X100314285Y-104671904D01*
X100123809Y-104624285D01*
X99980952Y-104624285D01*
X99790476Y-104671904D01*
X99695238Y-104719523D01*
X99600000Y-104814761D01*
X99552380Y-104957619D01*
X99552380Y-105052857D01*
X99600000Y-105195714D01*
X99647619Y-105243333D01*
X99647619Y-105624285D02*
X99600000Y-105671904D01*
X99552380Y-105767142D01*
X99552380Y-106005238D01*
X99600000Y-106100476D01*
X99647619Y-106148095D01*
X99742857Y-106195714D01*
X99838095Y-106195714D01*
X99980952Y-106148095D01*
X100552380Y-105576666D01*
X100552380Y-106195714D01*
X119967142Y-105243333D02*
X120014761Y-105195714D01*
X120062380Y-105052857D01*
X120062380Y-104957619D01*
X120014761Y-104814761D01*
X119919523Y-104719523D01*
X119824285Y-104671904D01*
X119633809Y-104624285D01*
X119490952Y-104624285D01*
X119300476Y-104671904D01*
X119205238Y-104719523D01*
X119110000Y-104814761D01*
X119062380Y-104957619D01*
X119062380Y-105052857D01*
X119110000Y-105195714D01*
X119157619Y-105243333D01*
X119395714Y-106100476D02*
X120062380Y-106100476D01*
X119014761Y-105862380D02*
X119729047Y-105624285D01*
X119729047Y-106243333D01*
X120012380Y-109751904D02*
X119012380Y-109751904D01*
X119012380Y-109990000D01*
X119060000Y-110132857D01*
X119155238Y-110228095D01*
X119250476Y-110275714D01*
X119440952Y-110323333D01*
X119583809Y-110323333D01*
X119774285Y-110275714D01*
X119869523Y-110228095D01*
X119964761Y-110132857D01*
X120012380Y-109990000D01*
X120012380Y-109751904D01*
X119107619Y-110704285D02*
X119060000Y-110751904D01*
X119012380Y-110847142D01*
X119012380Y-111085238D01*
X119060000Y-111180476D01*
X119107619Y-111228095D01*
X119202857Y-111275714D01*
X119298095Y-111275714D01*
X119440952Y-111228095D01*
X120012380Y-110656666D01*
X120012380Y-111275714D01*
X116912380Y-115083333D02*
X116436190Y-114750000D01*
X116912380Y-114511904D02*
X115912380Y-114511904D01*
X115912380Y-114892857D01*
X115960000Y-114988095D01*
X116007619Y-115035714D01*
X116102857Y-115083333D01*
X116245714Y-115083333D01*
X116340952Y-115035714D01*
X116388571Y-114988095D01*
X116436190Y-114892857D01*
X116436190Y-114511904D01*
X116007619Y-115464285D02*
X115960000Y-115511904D01*
X115912380Y-115607142D01*
X115912380Y-115845238D01*
X115960000Y-115940476D01*
X116007619Y-115988095D01*
X116102857Y-116035714D01*
X116198095Y-116035714D01*
X116340952Y-115988095D01*
X116912380Y-115416666D01*
X116912380Y-116035714D01*
X138916666Y-141802380D02*
X139250000Y-141326190D01*
X139488095Y-141802380D02*
X139488095Y-140802380D01*
X139107142Y-140802380D01*
X139011904Y-140850000D01*
X138964285Y-140897619D01*
X138916666Y-140992857D01*
X138916666Y-141135714D01*
X138964285Y-141230952D01*
X139011904Y-141278571D01*
X139107142Y-141326190D01*
X139488095Y-141326190D01*
X138583333Y-140802380D02*
X137964285Y-140802380D01*
X138297619Y-141183333D01*
X138154761Y-141183333D01*
X138059523Y-141230952D01*
X138011904Y-141278571D01*
X137964285Y-141373809D01*
X137964285Y-141611904D01*
X138011904Y-141707142D01*
X138059523Y-141754761D01*
X138154761Y-141802380D01*
X138440476Y-141802380D01*
X138535714Y-141754761D01*
X138583333Y-141707142D01*
X138812566Y-135834380D02*
X139145900Y-135358190D01*
X139383995Y-135834380D02*
X139383995Y-134834380D01*
X139003042Y-134834380D01*
X138907804Y-134882000D01*
X138860185Y-134929619D01*
X138812566Y-135024857D01*
X138812566Y-135167714D01*
X138860185Y-135262952D01*
X138907804Y-135310571D01*
X139003042Y-135358190D01*
X139383995Y-135358190D01*
X137955423Y-135167714D02*
X137955423Y-135834380D01*
X138193519Y-134786761D02*
X138431614Y-135501047D01*
X137812566Y-135501047D01*
X102022380Y-110998095D02*
X102831904Y-110998095D01*
X102927142Y-111045714D01*
X102974761Y-111093333D01*
X103022380Y-111188571D01*
X103022380Y-111379047D01*
X102974761Y-111474285D01*
X102927142Y-111521904D01*
X102831904Y-111569523D01*
X102022380Y-111569523D01*
X102022380Y-112521904D02*
X102022380Y-112045714D01*
X102498571Y-111998095D01*
X102450952Y-112045714D01*
X102403333Y-112140952D01*
X102403333Y-112379047D01*
X102450952Y-112474285D01*
X102498571Y-112521904D01*
X102593809Y-112569523D01*
X102831904Y-112569523D01*
X102927142Y-112521904D01*
X102974761Y-112474285D01*
X103022380Y-112379047D01*
X103022380Y-112140952D01*
X102974761Y-112045714D01*
X102927142Y-111998095D01*
X132841904Y-158837380D02*
X132841904Y-159646904D01*
X132794285Y-159742142D01*
X132746666Y-159789761D01*
X132651428Y-159837380D01*
X132460952Y-159837380D01*
X132365714Y-159789761D01*
X132318095Y-159742142D01*
X132270476Y-159646904D01*
X132270476Y-158837380D01*
X131365714Y-158837380D02*
X131556190Y-158837380D01*
X131651428Y-158885000D01*
X131699047Y-158932619D01*
X131794285Y-159075476D01*
X131841904Y-159265952D01*
X131841904Y-159646904D01*
X131794285Y-159742142D01*
X131746666Y-159789761D01*
X131651428Y-159837380D01*
X131460952Y-159837380D01*
X131365714Y-159789761D01*
X131318095Y-159742142D01*
X131270476Y-159646904D01*
X131270476Y-159408809D01*
X131318095Y-159313571D01*
X131365714Y-159265952D01*
X131460952Y-159218333D01*
X131651428Y-159218333D01*
X131746666Y-159265952D01*
X131794285Y-159313571D01*
X131841904Y-159408809D01*
X135675238Y-160790000D02*
X135770476Y-160742380D01*
X135913333Y-160742380D01*
X136056190Y-160790000D01*
X136151428Y-160885238D01*
X136199047Y-160980476D01*
X136246666Y-161170952D01*
X136246666Y-161313809D01*
X136199047Y-161504285D01*
X136151428Y-161599523D01*
X136056190Y-161694761D01*
X135913333Y-161742380D01*
X135818095Y-161742380D01*
X135675238Y-161694761D01*
X135627619Y-161647142D01*
X135627619Y-161313809D01*
X135818095Y-161313809D01*
X135341904Y-160742380D02*
X134770476Y-160742380D01*
X135056190Y-161742380D02*
X135056190Y-160742380D01*
X134437142Y-161361428D02*
X133675238Y-161361428D01*
X133199047Y-160742380D02*
X133199047Y-161551904D01*
X133151428Y-161647142D01*
X133103809Y-161694761D01*
X133008571Y-161742380D01*
X132818095Y-161742380D01*
X132722857Y-161694761D01*
X132675238Y-161647142D01*
X132627619Y-161551904D01*
X132627619Y-160742380D01*
X132246666Y-160742380D02*
X131580000Y-160742380D01*
X132008571Y-161742380D01*
X131437142Y-161837619D02*
X130675238Y-161837619D01*
X129913333Y-160790000D02*
X130008571Y-160742380D01*
X130151428Y-160742380D01*
X130294285Y-160790000D01*
X130389523Y-160885238D01*
X130437142Y-160980476D01*
X130484761Y-161170952D01*
X130484761Y-161313809D01*
X130437142Y-161504285D01*
X130389523Y-161599523D01*
X130294285Y-161694761D01*
X130151428Y-161742380D01*
X130056190Y-161742380D01*
X129913333Y-161694761D01*
X129865714Y-161647142D01*
X129865714Y-161313809D01*
X130056190Y-161313809D01*
X129437142Y-161742380D02*
X129437142Y-160742380D01*
X129056190Y-160742380D01*
X128960952Y-160790000D01*
X128913333Y-160837619D01*
X128865714Y-160932857D01*
X128865714Y-161075714D01*
X128913333Y-161170952D01*
X128960952Y-161218571D01*
X129056190Y-161266190D01*
X129437142Y-161266190D01*
X128484761Y-161694761D02*
X128341904Y-161742380D01*
X128103809Y-161742380D01*
X128008571Y-161694761D01*
X127960952Y-161647142D01*
X127913333Y-161551904D01*
X127913333Y-161456666D01*
X127960952Y-161361428D01*
X128008571Y-161313809D01*
X128103809Y-161266190D01*
X128294285Y-161218571D01*
X128389523Y-161170952D01*
X128437142Y-161123333D01*
X128484761Y-161028095D01*
X128484761Y-160932857D01*
X128437142Y-160837619D01*
X128389523Y-160790000D01*
X128294285Y-160742380D01*
X128056190Y-160742380D01*
X127913333Y-160790000D01*
X123188480Y-199948895D02*
X123998004Y-199948895D01*
X124093242Y-199996514D01*
X124140861Y-200044133D01*
X124188480Y-200139371D01*
X124188480Y-200329847D01*
X124140861Y-200425085D01*
X124093242Y-200472704D01*
X123998004Y-200520323D01*
X123188480Y-200520323D01*
X123188480Y-200901276D02*
X123188480Y-201567942D01*
X124188480Y-201139371D01*
X121808080Y-193751219D02*
X120808080Y-193751219D01*
X121522366Y-194084552D01*
X120808080Y-194417885D01*
X121808080Y-194417885D01*
X121808080Y-194894076D02*
X120808080Y-194894076D01*
X120808080Y-195275028D01*
X120855700Y-195370266D01*
X120903319Y-195417885D01*
X120998557Y-195465504D01*
X121141414Y-195465504D01*
X121236652Y-195417885D01*
X121284271Y-195370266D01*
X121331890Y-195275028D01*
X121331890Y-194894076D01*
X121808080Y-196370266D02*
X121808080Y-195894076D01*
X120808080Y-195894076D01*
X120808080Y-196608361D02*
X120808080Y-197227409D01*
X121189033Y-196894076D01*
X121189033Y-197036933D01*
X121236652Y-197132171D01*
X121284271Y-197179790D01*
X121379509Y-197227409D01*
X121617604Y-197227409D01*
X121712842Y-197179790D01*
X121760461Y-197132171D01*
X121808080Y-197036933D01*
X121808080Y-196751219D01*
X121760461Y-196655980D01*
X121712842Y-196608361D01*
X121808080Y-198179790D02*
X121808080Y-197608361D01*
X121808080Y-197894076D02*
X120808080Y-197894076D01*
X120950938Y-197798838D01*
X121046176Y-197703600D01*
X121093795Y-197608361D01*
X121808080Y-199132171D02*
X121808080Y-198560742D01*
X121808080Y-198846457D02*
X120808080Y-198846457D01*
X120950938Y-198751219D01*
X121046176Y-198655980D01*
X121093795Y-198560742D01*
X120808080Y-200036933D02*
X120808080Y-199560742D01*
X121284271Y-199513123D01*
X121236652Y-199560742D01*
X121189033Y-199655980D01*
X121189033Y-199894076D01*
X121236652Y-199989314D01*
X121284271Y-200036933D01*
X121379509Y-200084552D01*
X121617604Y-200084552D01*
X121712842Y-200036933D01*
X121760461Y-199989314D01*
X121808080Y-199894076D01*
X121808080Y-199655980D01*
X121760461Y-199560742D01*
X121712842Y-199513123D01*
X121522366Y-200465504D02*
X121522366Y-200941695D01*
X121808080Y-200370266D02*
X120808080Y-200703600D01*
X121808080Y-201036933D01*
X120903319Y-201322647D02*
X120855700Y-201370266D01*
X120808080Y-201465504D01*
X120808080Y-201703600D01*
X120855700Y-201798838D01*
X120903319Y-201846457D01*
X120998557Y-201894076D01*
X121093795Y-201894076D01*
X121236652Y-201846457D01*
X121808080Y-201275028D01*
X121808080Y-201894076D01*
X121427128Y-202322647D02*
X121427128Y-203084552D01*
X121284271Y-203894076D02*
X121331890Y-204036933D01*
X121379509Y-204084552D01*
X121474747Y-204132171D01*
X121617604Y-204132171D01*
X121712842Y-204084552D01*
X121760461Y-204036933D01*
X121808080Y-203941695D01*
X121808080Y-203560742D01*
X120808080Y-203560742D01*
X120808080Y-203894076D01*
X120855700Y-203989314D01*
X120903319Y-204036933D01*
X120998557Y-204084552D01*
X121093795Y-204084552D01*
X121189033Y-204036933D01*
X121236652Y-203989314D01*
X121284271Y-203894076D01*
X121284271Y-203560742D01*
X121808080Y-204560742D02*
X121141414Y-204560742D01*
X121331890Y-204560742D02*
X121236652Y-204608361D01*
X121189033Y-204655980D01*
X121141414Y-204751219D01*
X121141414Y-204846457D01*
X121760461Y-205560742D02*
X121808080Y-205465504D01*
X121808080Y-205275028D01*
X121760461Y-205179790D01*
X121665223Y-205132171D01*
X121284271Y-205132171D01*
X121189033Y-205179790D01*
X121141414Y-205275028D01*
X121141414Y-205465504D01*
X121189033Y-205560742D01*
X121284271Y-205608361D01*
X121379509Y-205608361D01*
X121474747Y-205132171D01*
X121808080Y-206465504D02*
X121284271Y-206465504D01*
X121189033Y-206417885D01*
X121141414Y-206322647D01*
X121141414Y-206132171D01*
X121189033Y-206036933D01*
X121760461Y-206465504D02*
X121808080Y-206370266D01*
X121808080Y-206132171D01*
X121760461Y-206036933D01*
X121665223Y-205989314D01*
X121569985Y-205989314D01*
X121474747Y-206036933D01*
X121427128Y-206132171D01*
X121427128Y-206370266D01*
X121379509Y-206465504D01*
X121808080Y-206941695D02*
X120808080Y-206941695D01*
X121427128Y-207036933D02*
X121808080Y-207322647D01*
X121141414Y-207322647D02*
X121522366Y-206941695D01*
X121808080Y-207894076D02*
X121760461Y-207798838D01*
X121712842Y-207751219D01*
X121617604Y-207703600D01*
X121331890Y-207703600D01*
X121236652Y-207751219D01*
X121189033Y-207798838D01*
X121141414Y-207894076D01*
X121141414Y-208036933D01*
X121189033Y-208132171D01*
X121236652Y-208179790D01*
X121331890Y-208227409D01*
X121617604Y-208227409D01*
X121712842Y-208179790D01*
X121760461Y-208132171D01*
X121808080Y-208036933D01*
X121808080Y-207894076D01*
X121141414Y-209084552D02*
X121808080Y-209084552D01*
X121141414Y-208655980D02*
X121665223Y-208655980D01*
X121760461Y-208703600D01*
X121808080Y-208798838D01*
X121808080Y-208941695D01*
X121760461Y-209036933D01*
X121712842Y-209084552D01*
X121141414Y-209417885D02*
X121141414Y-209798838D01*
X120808080Y-209560742D02*
X121665223Y-209560742D01*
X121760461Y-209608361D01*
X121808080Y-209703600D01*
X121808080Y-209798838D01*
M02*
