G04 #@! TF.FileFunction,Soldermask,Top*
%FSLAX46Y46*%
G04 Gerber Fmt 4.6, Leading zero omitted, Abs format (unit mm)*
G04 Created by KiCad (PCBNEW 4.0.7) date 06/23/18 17:57:27*
%MOMM*%
%LPD*%
G01*
G04 APERTURE LIST*
%ADD10C,0.100000*%
%ADD11R,1.400000X1.650000*%
%ADD12R,2.000000X1.400000*%
%ADD13R,1.650000X1.400000*%
%ADD14R,1.400000X2.000000*%
%ADD15R,1.600000X1.300000*%
%ADD16R,1.900000X1.900000*%
%ADD17R,2.700000X0.900000*%
%ADD18R,2.900000X2.400000*%
%ADD19C,1.300000*%
%ADD20C,6.400000*%
%ADD21R,2.100000X2.100000*%
%ADD22O,2.100000X2.100000*%
%ADD23R,2.400000X1.850000*%
%ADD24R,1.900000X1.200000*%
%ADD25R,2.310000X2.750000*%
%ADD26R,7.510000X1.910000*%
%ADD27C,2.130000*%
%ADD28R,1.100000X1.700000*%
%ADD29R,1.700000X1.100000*%
%ADD30R,1.700000X0.650000*%
%ADD31R,0.650000X1.700000*%
%ADD32R,1.460000X1.050000*%
%ADD33R,1.900000X1.000000*%
%ADD34R,1.350000X0.950000*%
%ADD35R,1.800000X1.400000*%
%ADD36R,1.700000X2.300000*%
%ADD37R,2.400000X4.200000*%
%ADD38R,2.400000X1.900000*%
%ADD39C,5.400000*%
%ADD40R,1.700000X1.200000*%
%ADD41R,0.875000X0.650000*%
%ADD42R,0.650000X0.875000*%
G04 APERTURE END LIST*
D10*
D11*
X113109500Y-70421500D03*
X115109500Y-70421500D03*
X117014500Y-84899500D03*
X115014500Y-84899500D03*
X116824000Y-75057000D03*
X114824000Y-75057000D03*
D12*
X71310500Y-51840000D03*
X71310500Y-54840000D03*
D11*
X97298000Y-88519000D03*
X99298000Y-88519000D03*
D12*
X89789000Y-55284500D03*
X89789000Y-52284500D03*
D13*
X86233000Y-54276500D03*
X86233000Y-52276500D03*
D14*
X75326500Y-63817500D03*
X72326500Y-63817500D03*
D13*
X73787000Y-85772500D03*
X73787000Y-83772500D03*
X120777000Y-69770500D03*
X120777000Y-67770500D03*
D12*
X135509000Y-55260500D03*
X135509000Y-52260500D03*
X151796750Y-75279250D03*
X151796750Y-72279250D03*
D13*
X132207000Y-54387500D03*
X132207000Y-52387500D03*
X148177250Y-74802750D03*
X148177250Y-72802750D03*
D14*
X93559500Y-101473000D03*
X96559500Y-101473000D03*
X91543000Y-101473000D03*
X88543000Y-101473000D03*
D11*
X85010500Y-96710500D03*
X83010500Y-96710500D03*
X111363000Y-97345500D03*
X109363000Y-97345500D03*
X111236000Y-93916500D03*
X109236000Y-93916500D03*
D15*
X108077000Y-55879000D03*
X108077000Y-52579000D03*
D16*
X81469500Y-67056000D03*
X78169500Y-67056000D03*
X78042500Y-62293500D03*
X81342500Y-62293500D03*
D12*
X71437500Y-60936000D03*
X71437500Y-57936000D03*
D17*
X68840000Y-78473500D03*
X68840000Y-79273500D03*
X68840000Y-80073500D03*
X68840000Y-80873500D03*
X68840000Y-81673500D03*
D18*
X68740000Y-75623500D03*
X63240000Y-75623500D03*
X68740000Y-84523500D03*
X63240000Y-84523500D03*
D19*
X66240000Y-77873500D03*
X66240000Y-82273500D03*
D20*
X63627000Y-61277500D03*
X63627000Y-54277500D03*
D21*
X126174500Y-97917000D03*
D22*
X123634500Y-97917000D03*
X121094500Y-97917000D03*
X118554500Y-97917000D03*
D21*
X103505000Y-52641500D03*
D22*
X103505000Y-55181500D03*
D23*
X62708500Y-88057500D03*
X62708500Y-101807500D03*
X71008500Y-101807500D03*
X71008500Y-88057500D03*
D24*
X65308500Y-90432500D03*
X65308500Y-91532500D03*
X65308500Y-92632500D03*
X65308500Y-93732500D03*
X65308500Y-94832500D03*
X65308500Y-95932500D03*
X65308500Y-97032500D03*
X65308500Y-98132500D03*
D10*
G36*
X156552783Y-67646709D02*
X156073955Y-66331139D01*
X158329217Y-65510291D01*
X158808045Y-66825861D01*
X156552783Y-67646709D01*
X156552783Y-67646709D01*
G37*
G36*
X154373955Y-66825861D02*
X154852783Y-65510291D01*
X157108045Y-66331139D01*
X156629217Y-67646709D01*
X154373955Y-66825861D01*
X154373955Y-66825861D01*
G37*
G36*
X156073955Y-62065861D02*
X156552783Y-60750291D01*
X158808045Y-61571139D01*
X158329217Y-62886709D01*
X156073955Y-62065861D01*
X156073955Y-62065861D01*
G37*
G36*
X154852783Y-62886709D02*
X154373955Y-61571139D01*
X156629217Y-60750291D01*
X157108045Y-62065861D01*
X154852783Y-62886709D01*
X154852783Y-62886709D01*
G37*
G36*
X158000769Y-66772986D02*
X157311329Y-66194477D01*
X158211231Y-65122014D01*
X158900671Y-65700523D01*
X158000769Y-66772986D01*
X158000769Y-66772986D01*
G37*
G36*
X154281329Y-65700523D02*
X154970769Y-65122014D01*
X155870671Y-66194477D01*
X155181231Y-66772986D01*
X154281329Y-65700523D01*
X154281329Y-65700523D01*
G37*
G36*
X157311329Y-62202523D02*
X158000769Y-61624014D01*
X158900671Y-62696477D01*
X158211231Y-63274986D01*
X157311329Y-62202523D01*
X157311329Y-62202523D01*
G37*
G36*
X154970769Y-63274986D02*
X154281329Y-62696477D01*
X155181231Y-61624014D01*
X155870671Y-62202523D01*
X154970769Y-63274986D01*
X154970769Y-63274986D01*
G37*
D25*
X159191000Y-66578500D03*
D26*
X156591000Y-66998500D03*
D25*
X153991000Y-66578500D03*
X159191000Y-61818500D03*
D27*
X156591000Y-64198500D03*
D26*
X156591000Y-61398500D03*
D25*
X153991000Y-61818500D03*
D21*
X125158500Y-58166000D03*
D22*
X122618500Y-58166000D03*
X125158500Y-55626000D03*
X122618500Y-55626000D03*
X125158500Y-53086000D03*
X122618500Y-53086000D03*
D21*
X114744500Y-53086000D03*
D22*
X117284500Y-53086000D03*
X114744500Y-55626000D03*
X117284500Y-55626000D03*
D21*
X133731000Y-93027500D03*
D22*
X133731000Y-95567500D03*
X133731000Y-98107500D03*
D21*
X135636000Y-61785500D03*
D22*
X133096000Y-61785500D03*
X130556000Y-61785500D03*
D15*
X81003500Y-70104000D03*
X78803500Y-70104000D03*
D28*
X85854500Y-79375000D03*
X87754500Y-79375000D03*
X85793500Y-75628500D03*
X87693500Y-75628500D03*
X74866500Y-72199500D03*
X72966500Y-72199500D03*
D15*
X103781500Y-64960500D03*
X105981500Y-64960500D03*
X108775500Y-64960500D03*
X110975500Y-64960500D03*
D29*
X130683000Y-66934000D03*
X130683000Y-68834000D03*
X127381000Y-66934000D03*
X127381000Y-68834000D03*
D28*
X143348750Y-68802250D03*
X141448750Y-68802250D03*
X83126500Y-100076000D03*
X85026500Y-100076000D03*
X84958000Y-93535500D03*
X83058000Y-93535500D03*
X86870500Y-85852000D03*
X88770500Y-85852000D03*
D15*
X84350500Y-62293500D03*
X86550500Y-62293500D03*
D30*
X103410000Y-79775500D03*
X103410000Y-79275500D03*
X103410000Y-78775500D03*
X103410000Y-78275500D03*
X103410000Y-77775500D03*
X103410000Y-77275500D03*
X103410000Y-76775500D03*
X103410000Y-76275500D03*
X103410000Y-75775500D03*
X103410000Y-75275500D03*
X103410000Y-74775500D03*
X103410000Y-74275500D03*
D31*
X101810000Y-72675500D03*
X101310000Y-72675500D03*
X100810000Y-72675500D03*
X100310000Y-72675500D03*
X99810000Y-72675500D03*
X99310000Y-72675500D03*
X98810000Y-72675500D03*
X98310000Y-72675500D03*
X97810000Y-72675500D03*
X97310000Y-72675500D03*
X96810000Y-72675500D03*
X96310000Y-72675500D03*
D30*
X94710000Y-74275500D03*
X94710000Y-74775500D03*
X94710000Y-75275500D03*
X94710000Y-75775500D03*
X94710000Y-76275500D03*
X94710000Y-76775500D03*
X94710000Y-77275500D03*
X94710000Y-77775500D03*
X94710000Y-78275500D03*
X94710000Y-78775500D03*
X94710000Y-79275500D03*
X94710000Y-79775500D03*
D31*
X96310000Y-81375500D03*
X96810000Y-81375500D03*
X97310000Y-81375500D03*
X97810000Y-81375500D03*
X98310000Y-81375500D03*
X98810000Y-81375500D03*
X99310000Y-81375500D03*
X99810000Y-81375500D03*
X100310000Y-81375500D03*
X100810000Y-81375500D03*
X101310000Y-81375500D03*
X101810000Y-81375500D03*
D32*
X75057000Y-68765500D03*
X75057000Y-67815500D03*
X75057000Y-66865500D03*
X72857000Y-66865500D03*
X72857000Y-68765500D03*
D33*
X125002500Y-74549000D03*
X125002500Y-75819000D03*
X125002500Y-77089000D03*
X125002500Y-78359000D03*
X125002500Y-79629000D03*
X125002500Y-80899000D03*
X125002500Y-82169000D03*
X125002500Y-83439000D03*
X134302500Y-83439000D03*
X134302500Y-82169000D03*
X134302500Y-80899000D03*
X134302500Y-79629000D03*
X134302500Y-78359000D03*
X134302500Y-77089000D03*
X134302500Y-75819000D03*
X134302500Y-74549000D03*
D34*
X143786750Y-71342250D03*
X143786750Y-75092250D03*
X143786750Y-73842250D03*
X143786750Y-72592250D03*
X141636750Y-75092250D03*
X141636750Y-73842250D03*
X141636750Y-72592250D03*
X141636750Y-71342250D03*
D35*
X143258000Y-79376000D03*
X143258000Y-81376000D03*
X143258000Y-83376000D03*
X143258000Y-85376000D03*
X143258000Y-87376000D03*
X143258000Y-89376000D03*
X143258000Y-91376000D03*
X143258000Y-93376000D03*
X159258000Y-93376000D03*
X159258000Y-91376000D03*
X159258000Y-89376000D03*
X159258000Y-87376000D03*
X159258000Y-85376000D03*
X159258000Y-83376000D03*
X159258000Y-81376000D03*
X159258000Y-79376000D03*
D36*
X113054500Y-81432000D03*
X118554500Y-81432000D03*
X118554500Y-78232000D03*
X113054500Y-78232000D03*
X101219000Y-97218500D03*
X106719000Y-97218500D03*
X106719000Y-94018500D03*
X101219000Y-94018500D03*
D21*
X157289500Y-74676000D03*
D37*
X82461500Y-54737000D03*
D38*
X76161500Y-54737000D03*
X76161500Y-57037000D03*
X76161500Y-52437000D03*
D39*
X155956000Y-54356000D03*
X157480000Y-99187000D03*
X65341500Y-69659500D03*
D21*
X142430500Y-98488500D03*
D22*
X144970500Y-98488500D03*
X147510500Y-98488500D03*
X150050500Y-98488500D03*
D40*
X140779000Y-52371000D03*
X140779000Y-53471000D03*
X140779000Y-54571000D03*
X140779000Y-55671000D03*
X140779000Y-56771000D03*
X140779000Y-57871000D03*
X140779000Y-58971000D03*
X140779000Y-60071000D03*
X140779000Y-61171000D03*
X149479000Y-61171000D03*
X149479000Y-60071000D03*
X149479000Y-58971000D03*
X149479000Y-57871000D03*
X149479000Y-56771000D03*
X149479000Y-55671000D03*
X149479000Y-54571000D03*
X149479000Y-53471000D03*
X149479000Y-52371000D03*
D41*
X93789500Y-92329000D03*
X93789500Y-92829000D03*
X93789500Y-93329000D03*
X93789500Y-93829000D03*
X93789500Y-94329000D03*
X93789500Y-94829000D03*
X93789500Y-95329000D03*
X93789500Y-95829000D03*
X93789500Y-96329000D03*
X93789500Y-96829000D03*
X90664500Y-92329000D03*
X90664500Y-92829000D03*
X90664500Y-93329000D03*
X90664500Y-93829000D03*
X90664500Y-94329000D03*
X90664500Y-94829000D03*
X90664500Y-95329000D03*
X90664500Y-95829000D03*
X90664500Y-96329000D03*
X90664500Y-96829000D03*
D42*
X92977000Y-92209000D03*
X92477000Y-92209000D03*
X91977000Y-92209000D03*
X91477000Y-92209000D03*
X92977000Y-96939000D03*
X92477000Y-96939000D03*
X91977000Y-96939000D03*
X91477000Y-96939000D03*
M02*
