G04 #@! TF.FileFunction,Legend,Top*
%FSLAX46Y46*%
G04 Gerber Fmt 4.6, Leading zero omitted, Abs format (unit mm)*
G04 Created by KiCad (PCBNEW 4.0.7) date 08/24/18 12:30:51*
%MOMM*%
%LPD*%
G01*
G04 APERTURE LIST*
%ADD10C,0.100000*%
%ADD11C,0.300000*%
%ADD12C,0.120000*%
%ADD13C,0.150000*%
%ADD14C,0.125000*%
%ADD15C,0.031750*%
%ADD16C,0.050000*%
G04 APERTURE END LIST*
D10*
D11*
X108641571Y-101659500D02*
X109355857Y-101659500D01*
X108498714Y-102088071D02*
X108998714Y-100588071D01*
X109498714Y-102088071D01*
X109855857Y-101088071D02*
X110213000Y-102088071D01*
X110570142Y-101088071D01*
X111141571Y-102088071D02*
X111141571Y-101088071D01*
X111141571Y-100588071D02*
X111070142Y-100659500D01*
X111141571Y-100730929D01*
X111212999Y-100659500D01*
X111141571Y-100588071D01*
X111141571Y-100730929D01*
X112070143Y-102088071D02*
X111927285Y-102016643D01*
X111855857Y-101945214D01*
X111784428Y-101802357D01*
X111784428Y-101373786D01*
X111855857Y-101230929D01*
X111927285Y-101159500D01*
X112070143Y-101088071D01*
X112284428Y-101088071D01*
X112427285Y-101159500D01*
X112498714Y-101230929D01*
X112570143Y-101373786D01*
X112570143Y-101802357D01*
X112498714Y-101945214D01*
X112427285Y-102016643D01*
X112284428Y-102088071D01*
X112070143Y-102088071D01*
X113213000Y-101088071D02*
X113213000Y-102088071D01*
X113213000Y-101230929D02*
X113284428Y-101159500D01*
X113427286Y-101088071D01*
X113641571Y-101088071D01*
X113784428Y-101159500D01*
X113855857Y-101302357D01*
X113855857Y-102088071D01*
X114570143Y-102088071D02*
X114570143Y-101088071D01*
X114570143Y-100588071D02*
X114498714Y-100659500D01*
X114570143Y-100730929D01*
X114641571Y-100659500D01*
X114570143Y-100588071D01*
X114570143Y-100730929D01*
X115927286Y-102016643D02*
X115784429Y-102088071D01*
X115498715Y-102088071D01*
X115355857Y-102016643D01*
X115284429Y-101945214D01*
X115213000Y-101802357D01*
X115213000Y-101373786D01*
X115284429Y-101230929D01*
X115355857Y-101159500D01*
X115498715Y-101088071D01*
X115784429Y-101088071D01*
X115927286Y-101159500D01*
X116498714Y-102016643D02*
X116641571Y-102088071D01*
X116927286Y-102088071D01*
X117070143Y-102016643D01*
X117141571Y-101873786D01*
X117141571Y-101802357D01*
X117070143Y-101659500D01*
X116927286Y-101588071D01*
X116713000Y-101588071D01*
X116570143Y-101516643D01*
X116498714Y-101373786D01*
X116498714Y-101302357D01*
X116570143Y-101159500D01*
X116713000Y-101088071D01*
X116927286Y-101088071D01*
X117070143Y-101159500D01*
X119427286Y-101302357D02*
X119641572Y-101373786D01*
X119713000Y-101445214D01*
X119784429Y-101588071D01*
X119784429Y-101802357D01*
X119713000Y-101945214D01*
X119641572Y-102016643D01*
X119498714Y-102088071D01*
X118927286Y-102088071D01*
X118927286Y-100588071D01*
X119427286Y-100588071D01*
X119570143Y-100659500D01*
X119641572Y-100730929D01*
X119713000Y-100873786D01*
X119713000Y-101016643D01*
X119641572Y-101159500D01*
X119570143Y-101230929D01*
X119427286Y-101302357D01*
X118927286Y-101302357D01*
X120641572Y-102088071D02*
X120498714Y-102016643D01*
X120427286Y-101945214D01*
X120355857Y-101802357D01*
X120355857Y-101373786D01*
X120427286Y-101230929D01*
X120498714Y-101159500D01*
X120641572Y-101088071D01*
X120855857Y-101088071D01*
X120998714Y-101159500D01*
X121070143Y-101230929D01*
X121141572Y-101373786D01*
X121141572Y-101802357D01*
X121070143Y-101945214D01*
X120998714Y-102016643D01*
X120855857Y-102088071D01*
X120641572Y-102088071D01*
X122427286Y-102088071D02*
X122427286Y-101302357D01*
X122355857Y-101159500D01*
X122213000Y-101088071D01*
X121927286Y-101088071D01*
X121784429Y-101159500D01*
X122427286Y-102016643D02*
X122284429Y-102088071D01*
X121927286Y-102088071D01*
X121784429Y-102016643D01*
X121713000Y-101873786D01*
X121713000Y-101730929D01*
X121784429Y-101588071D01*
X121927286Y-101516643D01*
X122284429Y-101516643D01*
X122427286Y-101445214D01*
X123141572Y-102088071D02*
X123141572Y-101088071D01*
X123141572Y-101373786D02*
X123213000Y-101230929D01*
X123284429Y-101159500D01*
X123427286Y-101088071D01*
X123570143Y-101088071D01*
X124713000Y-102088071D02*
X124713000Y-100588071D01*
X124713000Y-102016643D02*
X124570143Y-102088071D01*
X124284429Y-102088071D01*
X124141571Y-102016643D01*
X124070143Y-101945214D01*
X123998714Y-101802357D01*
X123998714Y-101373786D01*
X124070143Y-101230929D01*
X124141571Y-101159500D01*
X124284429Y-101088071D01*
X124570143Y-101088071D01*
X124713000Y-101159500D01*
D10*
X98409310Y-52220881D02*
X99075977Y-52220881D01*
X98647405Y-53220881D01*
X99456929Y-53125643D02*
X99504548Y-53173262D01*
X99456929Y-53220881D01*
X99409310Y-53173262D01*
X99456929Y-53125643D01*
X99456929Y-53220881D01*
X99885500Y-52316119D02*
X99933119Y-52268500D01*
X100028357Y-52220881D01*
X100266453Y-52220881D01*
X100361691Y-52268500D01*
X100409310Y-52316119D01*
X100456929Y-52411357D01*
X100456929Y-52506595D01*
X100409310Y-52649452D01*
X99837881Y-53220881D01*
X100456929Y-53220881D01*
X100742643Y-52220881D02*
X101075976Y-53220881D01*
X101409310Y-52220881D01*
X153590715Y-58682000D02*
X153495477Y-58634381D01*
X153352620Y-58634381D01*
X153209762Y-58682000D01*
X153114524Y-58777238D01*
X153066905Y-58872476D01*
X153019286Y-59062952D01*
X153019286Y-59205810D01*
X153066905Y-59396286D01*
X153114524Y-59491524D01*
X153209762Y-59586762D01*
X153352620Y-59634381D01*
X153447858Y-59634381D01*
X153590715Y-59586762D01*
X153638334Y-59539143D01*
X153638334Y-59205810D01*
X153447858Y-59205810D01*
X154066905Y-59634381D02*
X154066905Y-58634381D01*
X154447858Y-58634381D01*
X154543096Y-58682000D01*
X154590715Y-58729619D01*
X154638334Y-58824857D01*
X154638334Y-58967714D01*
X154590715Y-59062952D01*
X154543096Y-59110571D01*
X154447858Y-59158190D01*
X154066905Y-59158190D01*
X155019286Y-59586762D02*
X155162143Y-59634381D01*
X155400239Y-59634381D01*
X155495477Y-59586762D01*
X155543096Y-59539143D01*
X155590715Y-59443905D01*
X155590715Y-59348667D01*
X155543096Y-59253429D01*
X155495477Y-59205810D01*
X155400239Y-59158190D01*
X155209762Y-59110571D01*
X155114524Y-59062952D01*
X155066905Y-59015333D01*
X155019286Y-58920095D01*
X155019286Y-58824857D01*
X155066905Y-58729619D01*
X155114524Y-58682000D01*
X155209762Y-58634381D01*
X155447858Y-58634381D01*
X155590715Y-58682000D01*
X160091381Y-77001357D02*
X160091381Y-76810881D01*
X160043762Y-76715642D01*
X159996143Y-76668023D01*
X159853286Y-76572785D01*
X159662810Y-76525166D01*
X159281857Y-76525166D01*
X159186619Y-76572785D01*
X159139000Y-76620404D01*
X159091381Y-76715642D01*
X159091381Y-76906119D01*
X159139000Y-77001357D01*
X159186619Y-77048976D01*
X159281857Y-77096595D01*
X159519952Y-77096595D01*
X159615190Y-77048976D01*
X159662810Y-77001357D01*
X159710429Y-76906119D01*
X159710429Y-76715642D01*
X159662810Y-76620404D01*
X159615190Y-76572785D01*
X159519952Y-76525166D01*
X159091381Y-75906119D02*
X159091381Y-75810880D01*
X159139000Y-75715642D01*
X159186619Y-75668023D01*
X159281857Y-75620404D01*
X159472333Y-75572785D01*
X159710429Y-75572785D01*
X159900905Y-75620404D01*
X159996143Y-75668023D01*
X160043762Y-75715642D01*
X160091381Y-75810880D01*
X160091381Y-75906119D01*
X160043762Y-76001357D01*
X159996143Y-76048976D01*
X159900905Y-76096595D01*
X159710429Y-76144214D01*
X159472333Y-76144214D01*
X159281857Y-76096595D01*
X159186619Y-76048976D01*
X159139000Y-76001357D01*
X159091381Y-75906119D01*
X159091381Y-74953738D02*
X159091381Y-74858499D01*
X159139000Y-74763261D01*
X159186619Y-74715642D01*
X159281857Y-74668023D01*
X159472333Y-74620404D01*
X159710429Y-74620404D01*
X159900905Y-74668023D01*
X159996143Y-74715642D01*
X160043762Y-74763261D01*
X160091381Y-74858499D01*
X160091381Y-74953738D01*
X160043762Y-75048976D01*
X159996143Y-75096595D01*
X159900905Y-75144214D01*
X159710429Y-75191833D01*
X159472333Y-75191833D01*
X159281857Y-75144214D01*
X159186619Y-75096595D01*
X159139000Y-75048976D01*
X159091381Y-74953738D01*
X160091381Y-74191833D02*
X159091381Y-74191833D01*
X159805667Y-73858499D01*
X159091381Y-73525166D01*
X160091381Y-73525166D01*
X160091381Y-73048976D02*
X159091381Y-73048976D01*
X159567571Y-73048976D02*
X159567571Y-72477547D01*
X160091381Y-72477547D02*
X159091381Y-72477547D01*
X159424714Y-72096595D02*
X159424714Y-71572785D01*
X160091381Y-72096595D01*
X160091381Y-71572785D01*
X68270500Y-62356904D02*
X68222881Y-62452142D01*
X68222881Y-62594999D01*
X68270500Y-62737857D01*
X68365738Y-62833095D01*
X68460976Y-62880714D01*
X68651452Y-62928333D01*
X68794310Y-62928333D01*
X68984786Y-62880714D01*
X69080024Y-62833095D01*
X69175262Y-62737857D01*
X69222881Y-62594999D01*
X69222881Y-62499761D01*
X69175262Y-62356904D01*
X69127643Y-62309285D01*
X68794310Y-62309285D01*
X68794310Y-62499761D01*
X69222881Y-61880714D02*
X68222881Y-61880714D01*
X69222881Y-61309285D01*
X68222881Y-61309285D01*
X69222881Y-60833095D02*
X68222881Y-60833095D01*
X68222881Y-60595000D01*
X68270500Y-60452142D01*
X68365738Y-60356904D01*
X68460976Y-60309285D01*
X68651452Y-60261666D01*
X68794310Y-60261666D01*
X68984786Y-60309285D01*
X69080024Y-60356904D01*
X69175262Y-60452142D01*
X69222881Y-60595000D01*
X69222881Y-60833095D01*
X68159381Y-56371833D02*
X68159381Y-55705166D01*
X69159381Y-56133738D01*
X68778429Y-55324214D02*
X68778429Y-54562309D01*
X68254619Y-54133738D02*
X68207000Y-54086119D01*
X68159381Y-53990881D01*
X68159381Y-53752785D01*
X68207000Y-53657547D01*
X68254619Y-53609928D01*
X68349857Y-53562309D01*
X68445095Y-53562309D01*
X68587952Y-53609928D01*
X69159381Y-54181357D01*
X69159381Y-53562309D01*
X68159381Y-52943262D02*
X68159381Y-52848023D01*
X68207000Y-52752785D01*
X68254619Y-52705166D01*
X68349857Y-52657547D01*
X68540333Y-52609928D01*
X68778429Y-52609928D01*
X68968905Y-52657547D01*
X69064143Y-52705166D01*
X69111762Y-52752785D01*
X69159381Y-52848023D01*
X69159381Y-52943262D01*
X69111762Y-53038500D01*
X69064143Y-53086119D01*
X68968905Y-53133738D01*
X68778429Y-53181357D01*
X68540333Y-53181357D01*
X68349857Y-53133738D01*
X68254619Y-53086119D01*
X68207000Y-53038500D01*
X68159381Y-52943262D01*
X68159381Y-52324214D02*
X69159381Y-51990881D01*
X68159381Y-51657547D01*
X99250596Y-54745000D02*
X99155358Y-54697381D01*
X99012501Y-54697381D01*
X98869643Y-54745000D01*
X98774405Y-54840238D01*
X98726786Y-54935476D01*
X98679167Y-55125952D01*
X98679167Y-55268810D01*
X98726786Y-55459286D01*
X98774405Y-55554524D01*
X98869643Y-55649762D01*
X99012501Y-55697381D01*
X99107739Y-55697381D01*
X99250596Y-55649762D01*
X99298215Y-55602143D01*
X99298215Y-55268810D01*
X99107739Y-55268810D01*
X99726786Y-55697381D02*
X99726786Y-54697381D01*
X100298215Y-55697381D01*
X100298215Y-54697381D01*
X100774405Y-55697381D02*
X100774405Y-54697381D01*
X101012500Y-54697381D01*
X101155358Y-54745000D01*
X101250596Y-54840238D01*
X101298215Y-54935476D01*
X101345834Y-55125952D01*
X101345834Y-55268810D01*
X101298215Y-55459286D01*
X101250596Y-55554524D01*
X101155358Y-55649762D01*
X101012500Y-55697381D01*
X100774405Y-55697381D01*
X109259929Y-53347881D02*
X109259929Y-52347881D01*
X109498024Y-52347881D01*
X109640882Y-52395500D01*
X109736120Y-52490738D01*
X109783739Y-52585976D01*
X109831358Y-52776452D01*
X109831358Y-52919310D01*
X109783739Y-53109786D01*
X109736120Y-53205024D01*
X109640882Y-53300262D01*
X109498024Y-53347881D01*
X109259929Y-53347881D01*
X110307548Y-53347881D02*
X110498024Y-53347881D01*
X110593263Y-53300262D01*
X110640882Y-53252643D01*
X110736120Y-53109786D01*
X110783739Y-52919310D01*
X110783739Y-52538357D01*
X110736120Y-52443119D01*
X110688501Y-52395500D01*
X110593263Y-52347881D01*
X110402786Y-52347881D01*
X110307548Y-52395500D01*
X110259929Y-52443119D01*
X110212310Y-52538357D01*
X110212310Y-52776452D01*
X110259929Y-52871690D01*
X110307548Y-52919310D01*
X110402786Y-52966929D01*
X110593263Y-52966929D01*
X110688501Y-52919310D01*
X110736120Y-52871690D01*
X110783739Y-52776452D01*
X111259929Y-53300262D02*
X111259929Y-53347881D01*
X111212310Y-53443119D01*
X111164691Y-53490738D01*
X112212310Y-53347881D02*
X111640881Y-53347881D01*
X111926595Y-53347881D02*
X111926595Y-52347881D01*
X111831357Y-52490738D01*
X111736119Y-52585976D01*
X111640881Y-52633595D01*
X112831357Y-52347881D02*
X112926596Y-52347881D01*
X113021834Y-52395500D01*
X113069453Y-52443119D01*
X113117072Y-52538357D01*
X113164691Y-52728833D01*
X113164691Y-52966929D01*
X113117072Y-53157405D01*
X113069453Y-53252643D01*
X113021834Y-53300262D01*
X112926596Y-53347881D01*
X112831357Y-53347881D01*
X112736119Y-53300262D01*
X112688500Y-53252643D01*
X112640881Y-53157405D01*
X112593262Y-52966929D01*
X112593262Y-52728833D01*
X112640881Y-52538357D01*
X112688500Y-52443119D01*
X112736119Y-52395500D01*
X112831357Y-52347881D01*
X110934596Y-56142000D02*
X110839358Y-56094381D01*
X110696501Y-56094381D01*
X110553643Y-56142000D01*
X110458405Y-56237238D01*
X110410786Y-56332476D01*
X110363167Y-56522952D01*
X110363167Y-56665810D01*
X110410786Y-56856286D01*
X110458405Y-56951524D01*
X110553643Y-57046762D01*
X110696501Y-57094381D01*
X110791739Y-57094381D01*
X110934596Y-57046762D01*
X110982215Y-56999143D01*
X110982215Y-56665810D01*
X110791739Y-56665810D01*
X111410786Y-57094381D02*
X111410786Y-56094381D01*
X111982215Y-57094381D01*
X111982215Y-56094381D01*
X112458405Y-57094381D02*
X112458405Y-56094381D01*
X112696500Y-56094381D01*
X112839358Y-56142000D01*
X112934596Y-56237238D01*
X112982215Y-56332476D01*
X113029834Y-56522952D01*
X113029834Y-56665810D01*
X112982215Y-56856286D01*
X112934596Y-56951524D01*
X112839358Y-57046762D01*
X112696500Y-57094381D01*
X112458405Y-57094381D01*
X135024881Y-59745405D02*
X135024881Y-59173976D01*
X136024881Y-59459691D02*
X135024881Y-59459691D01*
X135024881Y-58935881D02*
X136024881Y-58269214D01*
X135024881Y-58269214D02*
X136024881Y-58935881D01*
X136024881Y-57888262D02*
X135024881Y-57888262D01*
X135024881Y-57650167D01*
X135072500Y-57507309D01*
X135167738Y-57412071D01*
X135262976Y-57364452D01*
X135453452Y-57316833D01*
X135596310Y-57316833D01*
X135786786Y-57364452D01*
X135882024Y-57412071D01*
X135977262Y-57507309D01*
X136024881Y-57650167D01*
X136024881Y-57888262D01*
X133548381Y-59086666D02*
X133072190Y-59420000D01*
X133548381Y-59658095D02*
X132548381Y-59658095D01*
X132548381Y-59277142D01*
X132596000Y-59181904D01*
X132643619Y-59134285D01*
X132738857Y-59086666D01*
X132881714Y-59086666D01*
X132976952Y-59134285D01*
X133024571Y-59181904D01*
X133072190Y-59277142D01*
X133072190Y-59658095D01*
X132548381Y-58753333D02*
X133548381Y-58086666D01*
X132548381Y-58086666D02*
X133548381Y-58753333D01*
X133548381Y-57705714D02*
X132548381Y-57705714D01*
X132548381Y-57467619D01*
X132596000Y-57324761D01*
X132691238Y-57229523D01*
X132786476Y-57181904D01*
X132976952Y-57134285D01*
X133119810Y-57134285D01*
X133310286Y-57181904D01*
X133405524Y-57229523D01*
X133500762Y-57324761D01*
X133548381Y-57467619D01*
X133548381Y-57705714D01*
X130056000Y-59181904D02*
X130008381Y-59277142D01*
X130008381Y-59419999D01*
X130056000Y-59562857D01*
X130151238Y-59658095D01*
X130246476Y-59705714D01*
X130436952Y-59753333D01*
X130579810Y-59753333D01*
X130770286Y-59705714D01*
X130865524Y-59658095D01*
X130960762Y-59562857D01*
X131008381Y-59419999D01*
X131008381Y-59324761D01*
X130960762Y-59181904D01*
X130913143Y-59134285D01*
X130579810Y-59134285D01*
X130579810Y-59324761D01*
X131008381Y-58705714D02*
X130008381Y-58705714D01*
X131008381Y-58134285D01*
X130008381Y-58134285D01*
X131008381Y-57658095D02*
X130008381Y-57658095D01*
X130008381Y-57420000D01*
X130056000Y-57277142D01*
X130151238Y-57181904D01*
X130246476Y-57134285D01*
X130436952Y-57086666D01*
X130579810Y-57086666D01*
X130770286Y-57134285D01*
X130865524Y-57181904D01*
X130960762Y-57277142D01*
X131008381Y-57420000D01*
X131008381Y-57658095D01*
X127095405Y-57808881D02*
X127714453Y-57808881D01*
X127381119Y-58189833D01*
X127523977Y-58189833D01*
X127619215Y-58237452D01*
X127666834Y-58285071D01*
X127714453Y-58380310D01*
X127714453Y-58618405D01*
X127666834Y-58713643D01*
X127619215Y-58761262D01*
X127523977Y-58808881D01*
X127238262Y-58808881D01*
X127143024Y-58761262D01*
X127095405Y-58713643D01*
X128000167Y-57808881D02*
X128333500Y-58808881D01*
X128666834Y-57808881D01*
X128904929Y-57808881D02*
X129523977Y-57808881D01*
X129190643Y-58189833D01*
X129333501Y-58189833D01*
X129428739Y-58237452D01*
X129476358Y-58285071D01*
X129523977Y-58380310D01*
X129523977Y-58618405D01*
X129476358Y-58713643D01*
X129428739Y-58761262D01*
X129333501Y-58808881D01*
X129047786Y-58808881D01*
X128952548Y-58761262D01*
X128904929Y-58713643D01*
X127174857Y-55792667D02*
X127651048Y-55792667D01*
X127079619Y-56078381D02*
X127412952Y-55078381D01*
X127746286Y-56078381D01*
X128032000Y-55173619D02*
X128079619Y-55126000D01*
X128174857Y-55078381D01*
X128412953Y-55078381D01*
X128508191Y-55126000D01*
X128555810Y-55173619D01*
X128603429Y-55268857D01*
X128603429Y-55364095D01*
X128555810Y-55506952D01*
X127984381Y-56078381D01*
X128603429Y-56078381D01*
X129079619Y-56030762D02*
X129079619Y-56078381D01*
X129032000Y-56173619D01*
X128984381Y-56221238D01*
X129460571Y-55792667D02*
X129936762Y-55792667D01*
X129365333Y-56078381D02*
X129698666Y-55078381D01*
X130032000Y-56078381D01*
X130889143Y-56078381D02*
X130317714Y-56078381D01*
X130603428Y-56078381D02*
X130603428Y-55078381D01*
X130508190Y-55221238D01*
X130412952Y-55316476D01*
X130317714Y-55364095D01*
X127698596Y-52586000D02*
X127603358Y-52538381D01*
X127460501Y-52538381D01*
X127317643Y-52586000D01*
X127222405Y-52681238D01*
X127174786Y-52776476D01*
X127127167Y-52966952D01*
X127127167Y-53109810D01*
X127174786Y-53300286D01*
X127222405Y-53395524D01*
X127317643Y-53490762D01*
X127460501Y-53538381D01*
X127555739Y-53538381D01*
X127698596Y-53490762D01*
X127746215Y-53443143D01*
X127746215Y-53109810D01*
X127555739Y-53109810D01*
X128174786Y-53538381D02*
X128174786Y-52538381D01*
X128746215Y-53538381D01*
X128746215Y-52538381D01*
X129222405Y-53538381D02*
X129222405Y-52538381D01*
X129460500Y-52538381D01*
X129603358Y-52586000D01*
X129698596Y-52681238D01*
X129746215Y-52776476D01*
X129793834Y-52966952D01*
X129793834Y-53109810D01*
X129746215Y-53300286D01*
X129698596Y-53395524D01*
X129603358Y-53490762D01*
X129460500Y-53538381D01*
X129222405Y-53538381D01*
X149614000Y-102234904D02*
X149566381Y-102330142D01*
X149566381Y-102472999D01*
X149614000Y-102615857D01*
X149709238Y-102711095D01*
X149804476Y-102758714D01*
X149994952Y-102806333D01*
X150137810Y-102806333D01*
X150328286Y-102758714D01*
X150423524Y-102711095D01*
X150518762Y-102615857D01*
X150566381Y-102472999D01*
X150566381Y-102377761D01*
X150518762Y-102234904D01*
X150471143Y-102187285D01*
X150137810Y-102187285D01*
X150137810Y-102377761D01*
X150566381Y-101758714D02*
X149566381Y-101758714D01*
X150566381Y-101187285D01*
X149566381Y-101187285D01*
X150566381Y-100711095D02*
X149566381Y-100711095D01*
X149566381Y-100473000D01*
X149614000Y-100330142D01*
X149709238Y-100234904D01*
X149804476Y-100187285D01*
X149994952Y-100139666D01*
X150137810Y-100139666D01*
X150328286Y-100187285D01*
X150423524Y-100234904D01*
X150518762Y-100330142D01*
X150566381Y-100473000D01*
X150566381Y-100711095D01*
X148216881Y-103298428D02*
X147216881Y-103298428D01*
X147931167Y-102965094D01*
X147216881Y-102631761D01*
X148216881Y-102631761D01*
X147216881Y-101965095D02*
X147216881Y-101774618D01*
X147264500Y-101679380D01*
X147359738Y-101584142D01*
X147550214Y-101536523D01*
X147883548Y-101536523D01*
X148074024Y-101584142D01*
X148169262Y-101679380D01*
X148216881Y-101774618D01*
X148216881Y-101965095D01*
X148169262Y-102060333D01*
X148074024Y-102155571D01*
X147883548Y-102203190D01*
X147550214Y-102203190D01*
X147359738Y-102155571D01*
X147264500Y-102060333D01*
X147216881Y-101965095D01*
X148169262Y-101155571D02*
X148216881Y-101012714D01*
X148216881Y-100774618D01*
X148169262Y-100679380D01*
X148121643Y-100631761D01*
X148026405Y-100584142D01*
X147931167Y-100584142D01*
X147835929Y-100631761D01*
X147788310Y-100679380D01*
X147740690Y-100774618D01*
X147693071Y-100965095D01*
X147645452Y-101060333D01*
X147597833Y-101107952D01*
X147502595Y-101155571D01*
X147407357Y-101155571D01*
X147312119Y-101107952D01*
X147264500Y-101060333D01*
X147216881Y-100965095D01*
X147216881Y-100726999D01*
X147264500Y-100584142D01*
X148216881Y-100155571D02*
X147216881Y-100155571D01*
X145311762Y-102758714D02*
X145359381Y-102615857D01*
X145359381Y-102377761D01*
X145311762Y-102282523D01*
X145264143Y-102234904D01*
X145168905Y-102187285D01*
X145073667Y-102187285D01*
X144978429Y-102234904D01*
X144930810Y-102282523D01*
X144883190Y-102377761D01*
X144835571Y-102568238D01*
X144787952Y-102663476D01*
X144740333Y-102711095D01*
X144645095Y-102758714D01*
X144549857Y-102758714D01*
X144454619Y-102711095D01*
X144407000Y-102663476D01*
X144359381Y-102568238D01*
X144359381Y-102330142D01*
X144407000Y-102187285D01*
X145264143Y-101187285D02*
X145311762Y-101234904D01*
X145359381Y-101377761D01*
X145359381Y-101472999D01*
X145311762Y-101615857D01*
X145216524Y-101711095D01*
X145121286Y-101758714D01*
X144930810Y-101806333D01*
X144787952Y-101806333D01*
X144597476Y-101758714D01*
X144502238Y-101711095D01*
X144407000Y-101615857D01*
X144359381Y-101472999D01*
X144359381Y-101377761D01*
X144407000Y-101234904D01*
X144454619Y-101187285D01*
X145359381Y-100758714D02*
X144359381Y-100758714D01*
X145359381Y-100187285D02*
X144787952Y-100615857D01*
X144359381Y-100187285D02*
X144930810Y-100758714D01*
X142882881Y-103298428D02*
X141882881Y-103298428D01*
X142597167Y-102965094D01*
X141882881Y-102631761D01*
X142882881Y-102631761D01*
X142882881Y-102155571D02*
X141882881Y-102155571D01*
X142835262Y-101727000D02*
X142882881Y-101584143D01*
X142882881Y-101346047D01*
X142835262Y-101250809D01*
X142787643Y-101203190D01*
X142692405Y-101155571D01*
X142597167Y-101155571D01*
X142501929Y-101203190D01*
X142454310Y-101250809D01*
X142406690Y-101346047D01*
X142359071Y-101536524D01*
X142311452Y-101631762D01*
X142263833Y-101679381D01*
X142168595Y-101727000D01*
X142073357Y-101727000D01*
X141978119Y-101679381D01*
X141930500Y-101631762D01*
X141882881Y-101536524D01*
X141882881Y-101298428D01*
X141930500Y-101155571D01*
X141882881Y-100536524D02*
X141882881Y-100346047D01*
X141930500Y-100250809D01*
X142025738Y-100155571D01*
X142216214Y-100107952D01*
X142549548Y-100107952D01*
X142740024Y-100155571D01*
X142835262Y-100250809D01*
X142882881Y-100346047D01*
X142882881Y-100536524D01*
X142835262Y-100631762D01*
X142740024Y-100727000D01*
X142549548Y-100774619D01*
X142216214Y-100774619D01*
X142025738Y-100727000D01*
X141930500Y-100631762D01*
X141882881Y-100536524D01*
X136271096Y-97671000D02*
X136175858Y-97623381D01*
X136033001Y-97623381D01*
X135890143Y-97671000D01*
X135794905Y-97766238D01*
X135747286Y-97861476D01*
X135699667Y-98051952D01*
X135699667Y-98194810D01*
X135747286Y-98385286D01*
X135794905Y-98480524D01*
X135890143Y-98575762D01*
X136033001Y-98623381D01*
X136128239Y-98623381D01*
X136271096Y-98575762D01*
X136318715Y-98528143D01*
X136318715Y-98194810D01*
X136128239Y-98194810D01*
X136747286Y-98623381D02*
X136747286Y-97623381D01*
X137318715Y-98623381D01*
X137318715Y-97623381D01*
X137794905Y-98623381D02*
X137794905Y-97623381D01*
X138033000Y-97623381D01*
X138175858Y-97671000D01*
X138271096Y-97766238D01*
X138318715Y-97861476D01*
X138366334Y-98051952D01*
X138366334Y-98194810D01*
X138318715Y-98385286D01*
X138271096Y-98480524D01*
X138175858Y-98575762D01*
X138033000Y-98623381D01*
X137794905Y-98623381D01*
X135691714Y-95908762D02*
X135834571Y-95956381D01*
X136072667Y-95956381D01*
X136167905Y-95908762D01*
X136215524Y-95861143D01*
X136263143Y-95765905D01*
X136263143Y-95670667D01*
X136215524Y-95575429D01*
X136167905Y-95527810D01*
X136072667Y-95480190D01*
X135882190Y-95432571D01*
X135786952Y-95384952D01*
X135739333Y-95337333D01*
X135691714Y-95242095D01*
X135691714Y-95146857D01*
X135739333Y-95051619D01*
X135786952Y-95004000D01*
X135882190Y-94956381D01*
X136120286Y-94956381D01*
X136263143Y-95004000D01*
X136691714Y-95956381D02*
X136691714Y-94956381D01*
X136929809Y-94956381D01*
X137072667Y-95004000D01*
X137167905Y-95099238D01*
X137215524Y-95194476D01*
X137263143Y-95384952D01*
X137263143Y-95527810D01*
X137215524Y-95718286D01*
X137167905Y-95813524D01*
X137072667Y-95908762D01*
X136929809Y-95956381D01*
X136691714Y-95956381D01*
X137644095Y-95670667D02*
X138120286Y-95670667D01*
X137548857Y-95956381D02*
X137882190Y-94956381D01*
X138215524Y-95956381D01*
X135715524Y-93305262D02*
X135858381Y-93352881D01*
X136096477Y-93352881D01*
X136191715Y-93305262D01*
X136239334Y-93257643D01*
X136286953Y-93162405D01*
X136286953Y-93067167D01*
X136239334Y-92971929D01*
X136191715Y-92924310D01*
X136096477Y-92876690D01*
X135906000Y-92829071D01*
X135810762Y-92781452D01*
X135763143Y-92733833D01*
X135715524Y-92638595D01*
X135715524Y-92543357D01*
X135763143Y-92448119D01*
X135810762Y-92400500D01*
X135906000Y-92352881D01*
X136144096Y-92352881D01*
X136286953Y-92400500D01*
X137286953Y-93257643D02*
X137239334Y-93305262D01*
X137096477Y-93352881D01*
X137001239Y-93352881D01*
X136858381Y-93305262D01*
X136763143Y-93210024D01*
X136715524Y-93114786D01*
X136667905Y-92924310D01*
X136667905Y-92781452D01*
X136715524Y-92590976D01*
X136763143Y-92495738D01*
X136858381Y-92400500D01*
X137001239Y-92352881D01*
X137096477Y-92352881D01*
X137239334Y-92400500D01*
X137286953Y-92448119D01*
X138191715Y-93352881D02*
X137715524Y-93352881D01*
X137715524Y-92352881D01*
X117991000Y-95440404D02*
X117943381Y-95535642D01*
X117943381Y-95678499D01*
X117991000Y-95821357D01*
X118086238Y-95916595D01*
X118181476Y-95964214D01*
X118371952Y-96011833D01*
X118514810Y-96011833D01*
X118705286Y-95964214D01*
X118800524Y-95916595D01*
X118895762Y-95821357D01*
X118943381Y-95678499D01*
X118943381Y-95583261D01*
X118895762Y-95440404D01*
X118848143Y-95392785D01*
X118514810Y-95392785D01*
X118514810Y-95583261D01*
X118943381Y-94964214D02*
X117943381Y-94964214D01*
X118943381Y-94392785D01*
X117943381Y-94392785D01*
X118943381Y-93916595D02*
X117943381Y-93916595D01*
X117943381Y-93678500D01*
X117991000Y-93535642D01*
X118086238Y-93440404D01*
X118181476Y-93392785D01*
X118371952Y-93345166D01*
X118514810Y-93345166D01*
X118705286Y-93392785D01*
X118800524Y-93440404D01*
X118895762Y-93535642D01*
X118943381Y-93678500D01*
X118943381Y-93916595D01*
X123023381Y-95916595D02*
X123023381Y-95297547D01*
X123404333Y-95630881D01*
X123404333Y-95488023D01*
X123451952Y-95392785D01*
X123499571Y-95345166D01*
X123594810Y-95297547D01*
X123832905Y-95297547D01*
X123928143Y-95345166D01*
X123975762Y-95392785D01*
X124023381Y-95488023D01*
X124023381Y-95773738D01*
X123975762Y-95868976D01*
X123928143Y-95916595D01*
X123023381Y-95011833D02*
X124023381Y-94678500D01*
X123023381Y-94345166D01*
X123023381Y-94107071D02*
X123023381Y-93488023D01*
X123404333Y-93821357D01*
X123404333Y-93678499D01*
X123451952Y-93583261D01*
X123499571Y-93535642D01*
X123594810Y-93488023D01*
X123832905Y-93488023D01*
X123928143Y-93535642D01*
X123975762Y-93583261D01*
X124023381Y-93678499D01*
X124023381Y-93964214D01*
X123975762Y-94059452D01*
X123928143Y-94107071D01*
X126515762Y-95845047D02*
X126563381Y-95702190D01*
X126563381Y-95464094D01*
X126515762Y-95368856D01*
X126468143Y-95321237D01*
X126372905Y-95273618D01*
X126277667Y-95273618D01*
X126182429Y-95321237D01*
X126134810Y-95368856D01*
X126087190Y-95464094D01*
X126039571Y-95654571D01*
X125991952Y-95749809D01*
X125944333Y-95797428D01*
X125849095Y-95845047D01*
X125753857Y-95845047D01*
X125658619Y-95797428D01*
X125611000Y-95749809D01*
X125563381Y-95654571D01*
X125563381Y-95416475D01*
X125611000Y-95273618D01*
X125563381Y-94940285D02*
X126563381Y-94702190D01*
X125849095Y-94511713D01*
X126563381Y-94321237D01*
X125563381Y-94083142D01*
X126563381Y-93702190D02*
X125563381Y-93702190D01*
X125563381Y-93464095D01*
X125611000Y-93321237D01*
X125706238Y-93225999D01*
X125801476Y-93178380D01*
X125991952Y-93130761D01*
X126134810Y-93130761D01*
X126325286Y-93178380D01*
X126420524Y-93225999D01*
X126515762Y-93321237D01*
X126563381Y-93464095D01*
X126563381Y-93702190D01*
X126563381Y-92702190D02*
X125563381Y-92702190D01*
X125563381Y-92035524D02*
X125563381Y-91845047D01*
X125611000Y-91749809D01*
X125706238Y-91654571D01*
X125896714Y-91606952D01*
X126230048Y-91606952D01*
X126420524Y-91654571D01*
X126515762Y-91749809D01*
X126563381Y-91845047D01*
X126563381Y-92035524D01*
X126515762Y-92130762D01*
X126420524Y-92226000D01*
X126230048Y-92273619D01*
X125896714Y-92273619D01*
X125706238Y-92226000D01*
X125611000Y-92130762D01*
X125563381Y-92035524D01*
X121499262Y-96051405D02*
X121546881Y-95908548D01*
X121546881Y-95670452D01*
X121499262Y-95575214D01*
X121451643Y-95527595D01*
X121356405Y-95479976D01*
X121261167Y-95479976D01*
X121165929Y-95527595D01*
X121118310Y-95575214D01*
X121070690Y-95670452D01*
X121023071Y-95860929D01*
X120975452Y-95956167D01*
X120927833Y-96003786D01*
X120832595Y-96051405D01*
X120737357Y-96051405D01*
X120642119Y-96003786D01*
X120594500Y-95956167D01*
X120546881Y-95860929D01*
X120546881Y-95622833D01*
X120594500Y-95479976D01*
X120546881Y-95146643D02*
X121546881Y-94908548D01*
X120832595Y-94718071D01*
X121546881Y-94527595D01*
X120546881Y-94289500D01*
X121451643Y-93337119D02*
X121499262Y-93384738D01*
X121546881Y-93527595D01*
X121546881Y-93622833D01*
X121499262Y-93765691D01*
X121404024Y-93860929D01*
X121308786Y-93908548D01*
X121118310Y-93956167D01*
X120975452Y-93956167D01*
X120784976Y-93908548D01*
X120689738Y-93860929D01*
X120594500Y-93765691D01*
X120546881Y-93622833D01*
X120546881Y-93527595D01*
X120594500Y-93384738D01*
X120642119Y-93337119D01*
X121546881Y-92432357D02*
X121546881Y-92908548D01*
X120546881Y-92908548D01*
X121546881Y-92099024D02*
X120546881Y-92099024D01*
X121546881Y-91527595D02*
X120975452Y-91956167D01*
X120546881Y-91527595D02*
X121118310Y-92099024D01*
D12*
X114609500Y-69571500D02*
X113609500Y-69571500D01*
X113609500Y-71271500D02*
X114609500Y-71271500D01*
X115514500Y-85749500D02*
X116514500Y-85749500D01*
X116514500Y-84049500D02*
X115514500Y-84049500D01*
X115324000Y-75907000D02*
X116324000Y-75907000D01*
X116324000Y-74207000D02*
X115324000Y-74207000D01*
X72330500Y-54340000D02*
X72330500Y-52340000D01*
X70290500Y-52340000D02*
X70290500Y-54340000D01*
X98798000Y-87669000D02*
X97798000Y-87669000D01*
X97798000Y-89369000D02*
X98798000Y-89369000D01*
X88769000Y-52784500D02*
X88769000Y-54784500D01*
X90809000Y-54784500D02*
X90809000Y-52784500D01*
X85383000Y-52776500D02*
X85383000Y-53776500D01*
X87083000Y-53776500D02*
X87083000Y-52776500D01*
X72826500Y-64837500D02*
X74826500Y-64837500D01*
X74826500Y-62797500D02*
X72826500Y-62797500D01*
X72937000Y-84272500D02*
X72937000Y-85272500D01*
X74637000Y-85272500D02*
X74637000Y-84272500D01*
X119927000Y-68270500D02*
X119927000Y-69270500D01*
X121627000Y-69270500D02*
X121627000Y-68270500D01*
X134489000Y-52760500D02*
X134489000Y-54760500D01*
X136529000Y-54760500D02*
X136529000Y-52760500D01*
X149165500Y-70405500D02*
X149165500Y-68405500D01*
X147125500Y-68405500D02*
X147125500Y-70405500D01*
X131357000Y-52887500D02*
X131357000Y-53887500D01*
X133057000Y-53887500D02*
X133057000Y-52887500D01*
X147327250Y-73302750D02*
X147327250Y-74302750D01*
X149027250Y-74302750D02*
X149027250Y-73302750D01*
X96059500Y-100453000D02*
X94059500Y-100453000D01*
X94059500Y-102493000D02*
X96059500Y-102493000D01*
X89043000Y-102493000D02*
X91043000Y-102493000D01*
X91043000Y-100453000D02*
X89043000Y-100453000D01*
X103624000Y-94971500D02*
X102624000Y-94971500D01*
X102624000Y-96671500D02*
X103624000Y-96671500D01*
X79367000Y-93574500D02*
X78367000Y-93574500D01*
X78367000Y-95274500D02*
X79367000Y-95274500D01*
X79494000Y-97003500D02*
X78494000Y-97003500D01*
X78494000Y-98703500D02*
X79494000Y-98703500D01*
X107077000Y-56479000D02*
X109077000Y-56479000D01*
X109077000Y-56479000D02*
X109077000Y-52579000D01*
X107077000Y-56479000D02*
X107077000Y-52579000D01*
X77319500Y-66206000D02*
X77319500Y-67906000D01*
X77369500Y-67906000D02*
X81419500Y-67906000D01*
X77369500Y-66206000D02*
X81419500Y-66206000D01*
X82192500Y-63143500D02*
X82192500Y-61443500D01*
X82142500Y-61443500D02*
X78092500Y-61443500D01*
X82142500Y-63143500D02*
X78092500Y-63143500D01*
X70417500Y-58436000D02*
X70417500Y-60436000D01*
X72457500Y-60436000D02*
X72457500Y-58436000D01*
X61790000Y-76223500D02*
X61790000Y-83923500D01*
X60790000Y-76223500D02*
X60790000Y-83923500D01*
X60790000Y-83923500D02*
X69990000Y-83923500D01*
X69990000Y-83923500D02*
X69990000Y-76223500D01*
X69990000Y-76223500D02*
X60790000Y-76223500D01*
X117224500Y-96587000D02*
X117224500Y-99247000D01*
X124904500Y-96587000D02*
X117224500Y-96587000D01*
X124904500Y-99247000D02*
X117224500Y-99247000D01*
X124904500Y-96587000D02*
X124904500Y-99247000D01*
X126174500Y-96587000D02*
X127504500Y-96587000D01*
X127504500Y-96587000D02*
X127504500Y-97917000D01*
X102175000Y-56511500D02*
X104835000Y-56511500D01*
X102175000Y-53911500D02*
X102175000Y-56511500D01*
X104835000Y-53911500D02*
X104835000Y-56511500D01*
X102175000Y-53911500D02*
X104835000Y-53911500D01*
X102175000Y-52641500D02*
X102175000Y-51311500D01*
X102175000Y-51311500D02*
X103505000Y-51311500D01*
X60248500Y-89932500D02*
X60148500Y-89432500D01*
X60548500Y-91232500D02*
X60248500Y-89932500D01*
X60748500Y-92732500D02*
X60548500Y-91232500D01*
X60848500Y-94032500D02*
X60748500Y-92732500D01*
X60848500Y-95832500D02*
X60848500Y-94032500D01*
X60748500Y-97132500D02*
X60848500Y-95832500D01*
X60648500Y-97932500D02*
X60748500Y-97132500D01*
X60348500Y-99632500D02*
X60648500Y-97932500D01*
X60148500Y-100432500D02*
X60348500Y-99632500D01*
X59548500Y-99932500D02*
X59548500Y-89932500D01*
X60048500Y-89432500D02*
G75*
G03X59548500Y-89932500I0J-500000D01*
G01*
X61048500Y-100432500D02*
X60048500Y-100432500D01*
X61048500Y-89432500D02*
X60048500Y-89432500D01*
X61048500Y-101842500D02*
X61048500Y-88022500D01*
X74968500Y-88022500D02*
X74968500Y-101842500D01*
X72268500Y-88022500D02*
X74968500Y-88022500D01*
X59548500Y-99932500D02*
G75*
G03X60048500Y-100432500I500000J0D01*
G01*
X61048500Y-88022500D02*
X61448500Y-88022500D01*
X63968500Y-88022500D02*
X69748500Y-88022500D01*
X72268500Y-101842500D02*
X74968500Y-101842500D01*
X63968500Y-101842500D02*
X69748500Y-101842500D01*
X61048500Y-101842500D02*
X61448500Y-101842500D01*
X153291000Y-61928500D02*
X153291000Y-63928500D01*
X159891000Y-61928500D02*
X159891000Y-63928500D01*
X126488500Y-51756000D02*
X121288500Y-51756000D01*
X126488500Y-56896000D02*
X126488500Y-51756000D01*
X121288500Y-59496000D02*
X121288500Y-51756000D01*
X126488500Y-56896000D02*
X123888500Y-56896000D01*
X123888500Y-56896000D02*
X123888500Y-59496000D01*
X123888500Y-59496000D02*
X121288500Y-59496000D01*
X126488500Y-58166000D02*
X126488500Y-59496000D01*
X126488500Y-59496000D02*
X125158500Y-59496000D01*
X113414500Y-56956000D02*
X118614500Y-56956000D01*
X113414500Y-54356000D02*
X113414500Y-56956000D01*
X118614500Y-51756000D02*
X118614500Y-56956000D01*
X113414500Y-54356000D02*
X116014500Y-54356000D01*
X116014500Y-54356000D02*
X116014500Y-51756000D01*
X116014500Y-51756000D02*
X118614500Y-51756000D01*
X113414500Y-53086000D02*
X113414500Y-51756000D01*
X113414500Y-51756000D02*
X114744500Y-51756000D01*
X132401000Y-99437500D02*
X135061000Y-99437500D01*
X132401000Y-94297500D02*
X132401000Y-99437500D01*
X135061000Y-94297500D02*
X135061000Y-99437500D01*
X132401000Y-94297500D02*
X135061000Y-94297500D01*
X132401000Y-93027500D02*
X132401000Y-91697500D01*
X132401000Y-91697500D02*
X133731000Y-91697500D01*
X129226000Y-60455500D02*
X129226000Y-63115500D01*
X134366000Y-60455500D02*
X129226000Y-60455500D01*
X134366000Y-63115500D02*
X129226000Y-63115500D01*
X134366000Y-60455500D02*
X134366000Y-63115500D01*
X135636000Y-60455500D02*
X136966000Y-60455500D01*
X136966000Y-60455500D02*
X136966000Y-61785500D01*
X79403500Y-69424000D02*
X80403500Y-69424000D01*
X80403500Y-70784000D02*
X79403500Y-70784000D01*
X87404500Y-80255000D02*
X86204500Y-80255000D01*
X86204500Y-78495000D02*
X87404500Y-78495000D01*
X87343500Y-76508500D02*
X86143500Y-76508500D01*
X86143500Y-74748500D02*
X87343500Y-74748500D01*
X73316500Y-71319500D02*
X74516500Y-71319500D01*
X74516500Y-73079500D02*
X73316500Y-73079500D01*
X105381500Y-65640500D02*
X104381500Y-65640500D01*
X104381500Y-64280500D02*
X105381500Y-64280500D01*
X110375500Y-65640500D02*
X109375500Y-65640500D01*
X109375500Y-64280500D02*
X110375500Y-64280500D01*
X129803000Y-68484000D02*
X129803000Y-67284000D01*
X131563000Y-67284000D02*
X131563000Y-68484000D01*
X126501000Y-68484000D02*
X126501000Y-67284000D01*
X128261000Y-67284000D02*
X128261000Y-68484000D01*
X141798750Y-67922250D02*
X142998750Y-67922250D01*
X142998750Y-69682250D02*
X141798750Y-69682250D01*
X102397000Y-98688000D02*
X103597000Y-98688000D01*
X103597000Y-100448000D02*
X102397000Y-100448000D01*
X103724000Y-93336000D02*
X102524000Y-93336000D01*
X102524000Y-91576000D02*
X103724000Y-91576000D01*
X98523500Y-90560000D02*
X99723500Y-90560000D01*
X99723500Y-92320000D02*
X98523500Y-92320000D01*
X85950500Y-62973500D02*
X84950500Y-62973500D01*
X84950500Y-61613500D02*
X85950500Y-61613500D01*
D13*
X102685000Y-80650500D02*
X102685000Y-80225500D01*
X95435000Y-80650500D02*
X95435000Y-80125500D01*
X95435000Y-73400500D02*
X95435000Y-73925500D01*
X102685000Y-73400500D02*
X102685000Y-73925500D01*
X102685000Y-80650500D02*
X102160000Y-80650500D01*
X102685000Y-73400500D02*
X102160000Y-73400500D01*
X95435000Y-73400500D02*
X95960000Y-73400500D01*
X95435000Y-80650500D02*
X95960000Y-80650500D01*
X102685000Y-80225500D02*
X104060000Y-80225500D01*
D12*
X74857000Y-66205500D02*
X73057000Y-66205500D01*
X73057000Y-69425500D02*
X75507000Y-69425500D01*
D13*
X125777500Y-73669000D02*
X125777500Y-73944000D01*
X133527500Y-73669000D02*
X133527500Y-74024000D01*
X133527500Y-84319000D02*
X133527500Y-83964000D01*
X125777500Y-84319000D02*
X125777500Y-83964000D01*
X125777500Y-73669000D02*
X133527500Y-73669000D01*
X125777500Y-84319000D02*
X133527500Y-84319000D01*
X125777500Y-73944000D02*
X124252500Y-73944000D01*
D12*
X141561750Y-75817250D02*
X141061750Y-75817250D01*
X141061750Y-75817250D02*
X141061750Y-75317250D01*
X141061750Y-71117250D02*
X141061750Y-70617250D01*
X141061750Y-70617250D02*
X141561750Y-70617250D01*
X143861750Y-70617250D02*
X144361750Y-70617250D01*
X144361750Y-70617250D02*
X144361750Y-71117250D01*
X144261750Y-75817250D02*
X143311750Y-75817250D01*
D13*
X144274000Y-78868000D02*
X158244000Y-78868000D01*
X144274000Y-93854000D02*
X158244000Y-93854000D01*
D12*
X81221500Y-58147000D02*
X81221500Y-56887000D01*
X81221500Y-51327000D02*
X81221500Y-52587000D01*
X77461500Y-58147000D02*
X81221500Y-58147000D01*
X75211500Y-51327000D02*
X81221500Y-51327000D01*
X151380500Y-99818500D02*
X151380500Y-97158500D01*
X143700500Y-99818500D02*
X151380500Y-99818500D01*
X143700500Y-97158500D02*
X151380500Y-97158500D01*
X143700500Y-99818500D02*
X143700500Y-97158500D01*
X142430500Y-99818500D02*
X141100500Y-99818500D01*
X141100500Y-99818500D02*
X141100500Y-98488500D01*
X155591000Y-77150500D02*
X157591000Y-77150500D01*
X155591000Y-70550500D02*
X157591000Y-70550500D01*
D13*
X90164500Y-97732000D02*
X90164500Y-92332000D01*
X94164500Y-97732000D02*
X94164500Y-92332000D01*
X94064500Y-92232000D02*
X90264500Y-92232000D01*
X90264500Y-97832000D02*
X94064500Y-97832000D01*
X91096861Y-97312000D02*
G75*
G03X91096861Y-97312000I-22361J0D01*
G01*
X113942834Y-69278643D02*
X113895215Y-69326262D01*
X113752358Y-69373881D01*
X113657120Y-69373881D01*
X113514262Y-69326262D01*
X113419024Y-69231024D01*
X113371405Y-69135786D01*
X113323786Y-68945310D01*
X113323786Y-68802452D01*
X113371405Y-68611976D01*
X113419024Y-68516738D01*
X113514262Y-68421500D01*
X113657120Y-68373881D01*
X113752358Y-68373881D01*
X113895215Y-68421500D01*
X113942834Y-68469119D01*
X114895215Y-69373881D02*
X114323786Y-69373881D01*
X114609500Y-69373881D02*
X114609500Y-68373881D01*
X114514262Y-68516738D01*
X114419024Y-68611976D01*
X114323786Y-68659595D01*
X115847834Y-86756643D02*
X115800215Y-86804262D01*
X115657358Y-86851881D01*
X115562120Y-86851881D01*
X115419262Y-86804262D01*
X115324024Y-86709024D01*
X115276405Y-86613786D01*
X115228786Y-86423310D01*
X115228786Y-86280452D01*
X115276405Y-86089976D01*
X115324024Y-85994738D01*
X115419262Y-85899500D01*
X115562120Y-85851881D01*
X115657358Y-85851881D01*
X115800215Y-85899500D01*
X115847834Y-85947119D01*
X116228786Y-85947119D02*
X116276405Y-85899500D01*
X116371643Y-85851881D01*
X116609739Y-85851881D01*
X116704977Y-85899500D01*
X116752596Y-85947119D01*
X116800215Y-86042357D01*
X116800215Y-86137595D01*
X116752596Y-86280452D01*
X116181167Y-86851881D01*
X116800215Y-86851881D01*
X115657334Y-76914143D02*
X115609715Y-76961762D01*
X115466858Y-77009381D01*
X115371620Y-77009381D01*
X115228762Y-76961762D01*
X115133524Y-76866524D01*
X115085905Y-76771286D01*
X115038286Y-76580810D01*
X115038286Y-76437952D01*
X115085905Y-76247476D01*
X115133524Y-76152238D01*
X115228762Y-76057000D01*
X115371620Y-76009381D01*
X115466858Y-76009381D01*
X115609715Y-76057000D01*
X115657334Y-76104619D01*
X115990667Y-76009381D02*
X116609715Y-76009381D01*
X116276381Y-76390333D01*
X116419239Y-76390333D01*
X116514477Y-76437952D01*
X116562096Y-76485571D01*
X116609715Y-76580810D01*
X116609715Y-76818905D01*
X116562096Y-76914143D01*
X116514477Y-76961762D01*
X116419239Y-77009381D01*
X116133524Y-77009381D01*
X116038286Y-76961762D01*
X115990667Y-76914143D01*
X73417643Y-53506666D02*
X73465262Y-53554285D01*
X73512881Y-53697142D01*
X73512881Y-53792380D01*
X73465262Y-53935238D01*
X73370024Y-54030476D01*
X73274786Y-54078095D01*
X73084310Y-54125714D01*
X72941452Y-54125714D01*
X72750976Y-54078095D01*
X72655738Y-54030476D01*
X72560500Y-53935238D01*
X72512881Y-53792380D01*
X72512881Y-53697142D01*
X72560500Y-53554285D01*
X72608119Y-53506666D01*
X72846214Y-52649523D02*
X73512881Y-52649523D01*
X72465262Y-52887619D02*
X73179548Y-53125714D01*
X73179548Y-52506666D01*
X98131334Y-87376143D02*
X98083715Y-87423762D01*
X97940858Y-87471381D01*
X97845620Y-87471381D01*
X97702762Y-87423762D01*
X97607524Y-87328524D01*
X97559905Y-87233286D01*
X97512286Y-87042810D01*
X97512286Y-86899952D01*
X97559905Y-86709476D01*
X97607524Y-86614238D01*
X97702762Y-86519000D01*
X97845620Y-86471381D01*
X97940858Y-86471381D01*
X98083715Y-86519000D01*
X98131334Y-86566619D01*
X99036096Y-86471381D02*
X98559905Y-86471381D01*
X98512286Y-86947571D01*
X98559905Y-86899952D01*
X98655143Y-86852333D01*
X98893239Y-86852333D01*
X98988477Y-86899952D01*
X99036096Y-86947571D01*
X99083715Y-87042810D01*
X99083715Y-87280905D01*
X99036096Y-87376143D01*
X98988477Y-87423762D01*
X98893239Y-87471381D01*
X98655143Y-87471381D01*
X98559905Y-87423762D01*
X98512286Y-87376143D01*
X88396143Y-53951166D02*
X88443762Y-53998785D01*
X88491381Y-54141642D01*
X88491381Y-54236880D01*
X88443762Y-54379738D01*
X88348524Y-54474976D01*
X88253286Y-54522595D01*
X88062810Y-54570214D01*
X87919952Y-54570214D01*
X87729476Y-54522595D01*
X87634238Y-54474976D01*
X87539000Y-54379738D01*
X87491381Y-54236880D01*
X87491381Y-54141642D01*
X87539000Y-53998785D01*
X87586619Y-53951166D01*
X87491381Y-53094023D02*
X87491381Y-53284500D01*
X87539000Y-53379738D01*
X87586619Y-53427357D01*
X87729476Y-53522595D01*
X87919952Y-53570214D01*
X88300905Y-53570214D01*
X88396143Y-53522595D01*
X88443762Y-53474976D01*
X88491381Y-53379738D01*
X88491381Y-53189261D01*
X88443762Y-53094023D01*
X88396143Y-53046404D01*
X88300905Y-52998785D01*
X88062810Y-52998785D01*
X87967571Y-53046404D01*
X87919952Y-53094023D01*
X87872333Y-53189261D01*
X87872333Y-53379738D01*
X87919952Y-53474976D01*
X87967571Y-53522595D01*
X88062810Y-53570214D01*
X85090143Y-53443166D02*
X85137762Y-53490785D01*
X85185381Y-53633642D01*
X85185381Y-53728880D01*
X85137762Y-53871738D01*
X85042524Y-53966976D01*
X84947286Y-54014595D01*
X84756810Y-54062214D01*
X84613952Y-54062214D01*
X84423476Y-54014595D01*
X84328238Y-53966976D01*
X84233000Y-53871738D01*
X84185381Y-53728880D01*
X84185381Y-53633642D01*
X84233000Y-53490785D01*
X84280619Y-53443166D01*
X84185381Y-53109833D02*
X84185381Y-52443166D01*
X85185381Y-52871738D01*
X73659834Y-65924643D02*
X73612215Y-65972262D01*
X73469358Y-66019881D01*
X73374120Y-66019881D01*
X73231262Y-65972262D01*
X73136024Y-65877024D01*
X73088405Y-65781786D01*
X73040786Y-65591310D01*
X73040786Y-65448452D01*
X73088405Y-65257976D01*
X73136024Y-65162738D01*
X73231262Y-65067500D01*
X73374120Y-65019881D01*
X73469358Y-65019881D01*
X73612215Y-65067500D01*
X73659834Y-65115119D01*
X74231262Y-65448452D02*
X74136024Y-65400833D01*
X74088405Y-65353214D01*
X74040786Y-65257976D01*
X74040786Y-65210357D01*
X74088405Y-65115119D01*
X74136024Y-65067500D01*
X74231262Y-65019881D01*
X74421739Y-65019881D01*
X74516977Y-65067500D01*
X74564596Y-65115119D01*
X74612215Y-65210357D01*
X74612215Y-65257976D01*
X74564596Y-65353214D01*
X74516977Y-65400833D01*
X74421739Y-65448452D01*
X74231262Y-65448452D01*
X74136024Y-65496071D01*
X74088405Y-65543690D01*
X74040786Y-65638929D01*
X74040786Y-65829405D01*
X74088405Y-65924643D01*
X74136024Y-65972262D01*
X74231262Y-66019881D01*
X74421739Y-66019881D01*
X74516977Y-65972262D01*
X74564596Y-65924643D01*
X74612215Y-65829405D01*
X74612215Y-65638929D01*
X74564596Y-65543690D01*
X74516977Y-65496071D01*
X74421739Y-65448452D01*
X72644143Y-84939166D02*
X72691762Y-84986785D01*
X72739381Y-85129642D01*
X72739381Y-85224880D01*
X72691762Y-85367738D01*
X72596524Y-85462976D01*
X72501286Y-85510595D01*
X72310810Y-85558214D01*
X72167952Y-85558214D01*
X71977476Y-85510595D01*
X71882238Y-85462976D01*
X71787000Y-85367738D01*
X71739381Y-85224880D01*
X71739381Y-85129642D01*
X71787000Y-84986785D01*
X71834619Y-84939166D01*
X72739381Y-84462976D02*
X72739381Y-84272500D01*
X72691762Y-84177261D01*
X72644143Y-84129642D01*
X72501286Y-84034404D01*
X72310810Y-83986785D01*
X71929857Y-83986785D01*
X71834619Y-84034404D01*
X71787000Y-84082023D01*
X71739381Y-84177261D01*
X71739381Y-84367738D01*
X71787000Y-84462976D01*
X71834619Y-84510595D01*
X71929857Y-84558214D01*
X72167952Y-84558214D01*
X72263190Y-84510595D01*
X72310810Y-84462976D01*
X72358429Y-84367738D01*
X72358429Y-84177261D01*
X72310810Y-84082023D01*
X72263190Y-84034404D01*
X72167952Y-83986785D01*
X119634143Y-69413357D02*
X119681762Y-69460976D01*
X119729381Y-69603833D01*
X119729381Y-69699071D01*
X119681762Y-69841929D01*
X119586524Y-69937167D01*
X119491286Y-69984786D01*
X119300810Y-70032405D01*
X119157952Y-70032405D01*
X118967476Y-69984786D01*
X118872238Y-69937167D01*
X118777000Y-69841929D01*
X118729381Y-69699071D01*
X118729381Y-69603833D01*
X118777000Y-69460976D01*
X118824619Y-69413357D01*
X119729381Y-68460976D02*
X119729381Y-69032405D01*
X119729381Y-68746691D02*
X118729381Y-68746691D01*
X118872238Y-68841929D01*
X118967476Y-68937167D01*
X119015095Y-69032405D01*
X118729381Y-67841929D02*
X118729381Y-67746690D01*
X118777000Y-67651452D01*
X118824619Y-67603833D01*
X118919857Y-67556214D01*
X119110333Y-67508595D01*
X119348429Y-67508595D01*
X119538905Y-67556214D01*
X119634143Y-67603833D01*
X119681762Y-67651452D01*
X119729381Y-67746690D01*
X119729381Y-67841929D01*
X119681762Y-67937167D01*
X119634143Y-67984786D01*
X119538905Y-68032405D01*
X119348429Y-68080024D01*
X119110333Y-68080024D01*
X118919857Y-68032405D01*
X118824619Y-67984786D01*
X118777000Y-67937167D01*
X118729381Y-67841929D01*
X134116143Y-54403357D02*
X134163762Y-54450976D01*
X134211381Y-54593833D01*
X134211381Y-54689071D01*
X134163762Y-54831929D01*
X134068524Y-54927167D01*
X133973286Y-54974786D01*
X133782810Y-55022405D01*
X133639952Y-55022405D01*
X133449476Y-54974786D01*
X133354238Y-54927167D01*
X133259000Y-54831929D01*
X133211381Y-54689071D01*
X133211381Y-54593833D01*
X133259000Y-54450976D01*
X133306619Y-54403357D01*
X134211381Y-53450976D02*
X134211381Y-54022405D01*
X134211381Y-53736691D02*
X133211381Y-53736691D01*
X133354238Y-53831929D01*
X133449476Y-53927167D01*
X133497095Y-54022405D01*
X134211381Y-52498595D02*
X134211381Y-53070024D01*
X134211381Y-52784310D02*
X133211381Y-52784310D01*
X133354238Y-52879548D01*
X133449476Y-52974786D01*
X133497095Y-53070024D01*
X150252643Y-70048357D02*
X150300262Y-70095976D01*
X150347881Y-70238833D01*
X150347881Y-70334071D01*
X150300262Y-70476929D01*
X150205024Y-70572167D01*
X150109786Y-70619786D01*
X149919310Y-70667405D01*
X149776452Y-70667405D01*
X149585976Y-70619786D01*
X149490738Y-70572167D01*
X149395500Y-70476929D01*
X149347881Y-70334071D01*
X149347881Y-70238833D01*
X149395500Y-70095976D01*
X149443119Y-70048357D01*
X150347881Y-69095976D02*
X150347881Y-69667405D01*
X150347881Y-69381691D02*
X149347881Y-69381691D01*
X149490738Y-69476929D01*
X149585976Y-69572167D01*
X149633595Y-69667405D01*
X149443119Y-68715024D02*
X149395500Y-68667405D01*
X149347881Y-68572167D01*
X149347881Y-68334071D01*
X149395500Y-68238833D01*
X149443119Y-68191214D01*
X149538357Y-68143595D01*
X149633595Y-68143595D01*
X149776452Y-68191214D01*
X150347881Y-68762643D01*
X150347881Y-68143595D01*
X131064143Y-54030357D02*
X131111762Y-54077976D01*
X131159381Y-54220833D01*
X131159381Y-54316071D01*
X131111762Y-54458929D01*
X131016524Y-54554167D01*
X130921286Y-54601786D01*
X130730810Y-54649405D01*
X130587952Y-54649405D01*
X130397476Y-54601786D01*
X130302238Y-54554167D01*
X130207000Y-54458929D01*
X130159381Y-54316071D01*
X130159381Y-54220833D01*
X130207000Y-54077976D01*
X130254619Y-54030357D01*
X131159381Y-53077976D02*
X131159381Y-53649405D01*
X131159381Y-53363691D02*
X130159381Y-53363691D01*
X130302238Y-53458929D01*
X130397476Y-53554167D01*
X130445095Y-53649405D01*
X130159381Y-52744643D02*
X130159381Y-52125595D01*
X130540333Y-52458929D01*
X130540333Y-52316071D01*
X130587952Y-52220833D01*
X130635571Y-52173214D01*
X130730810Y-52125595D01*
X130968905Y-52125595D01*
X131064143Y-52173214D01*
X131111762Y-52220833D01*
X131159381Y-52316071D01*
X131159381Y-52601786D01*
X131111762Y-52697024D01*
X131064143Y-52744643D01*
X147034393Y-74445607D02*
X147082012Y-74493226D01*
X147129631Y-74636083D01*
X147129631Y-74731321D01*
X147082012Y-74874179D01*
X146986774Y-74969417D01*
X146891536Y-75017036D01*
X146701060Y-75064655D01*
X146558202Y-75064655D01*
X146367726Y-75017036D01*
X146272488Y-74969417D01*
X146177250Y-74874179D01*
X146129631Y-74731321D01*
X146129631Y-74636083D01*
X146177250Y-74493226D01*
X146224869Y-74445607D01*
X147129631Y-73493226D02*
X147129631Y-74064655D01*
X147129631Y-73778941D02*
X146129631Y-73778941D01*
X146272488Y-73874179D01*
X146367726Y-73969417D01*
X146415345Y-74064655D01*
X146462964Y-72636083D02*
X147129631Y-72636083D01*
X146082012Y-72874179D02*
X146796298Y-73112274D01*
X146796298Y-72493226D01*
X94416643Y-100080143D02*
X94369024Y-100127762D01*
X94226167Y-100175381D01*
X94130929Y-100175381D01*
X93988071Y-100127762D01*
X93892833Y-100032524D01*
X93845214Y-99937286D01*
X93797595Y-99746810D01*
X93797595Y-99603952D01*
X93845214Y-99413476D01*
X93892833Y-99318238D01*
X93988071Y-99223000D01*
X94130929Y-99175381D01*
X94226167Y-99175381D01*
X94369024Y-99223000D01*
X94416643Y-99270619D01*
X95369024Y-100175381D02*
X94797595Y-100175381D01*
X95083309Y-100175381D02*
X95083309Y-99175381D01*
X94988071Y-99318238D01*
X94892833Y-99413476D01*
X94797595Y-99461095D01*
X96273786Y-99175381D02*
X95797595Y-99175381D01*
X95749976Y-99651571D01*
X95797595Y-99603952D01*
X95892833Y-99556333D01*
X96130929Y-99556333D01*
X96226167Y-99603952D01*
X96273786Y-99651571D01*
X96321405Y-99746810D01*
X96321405Y-99984905D01*
X96273786Y-100080143D01*
X96226167Y-100127762D01*
X96130929Y-100175381D01*
X95892833Y-100175381D01*
X95797595Y-100127762D01*
X95749976Y-100080143D01*
X89400143Y-103580143D02*
X89352524Y-103627762D01*
X89209667Y-103675381D01*
X89114429Y-103675381D01*
X88971571Y-103627762D01*
X88876333Y-103532524D01*
X88828714Y-103437286D01*
X88781095Y-103246810D01*
X88781095Y-103103952D01*
X88828714Y-102913476D01*
X88876333Y-102818238D01*
X88971571Y-102723000D01*
X89114429Y-102675381D01*
X89209667Y-102675381D01*
X89352524Y-102723000D01*
X89400143Y-102770619D01*
X90352524Y-103675381D02*
X89781095Y-103675381D01*
X90066809Y-103675381D02*
X90066809Y-102675381D01*
X89971571Y-102818238D01*
X89876333Y-102913476D01*
X89781095Y-102961095D01*
X91209667Y-102675381D02*
X91019190Y-102675381D01*
X90923952Y-102723000D01*
X90876333Y-102770619D01*
X90781095Y-102913476D01*
X90733476Y-103103952D01*
X90733476Y-103484905D01*
X90781095Y-103580143D01*
X90828714Y-103627762D01*
X90923952Y-103675381D01*
X91114429Y-103675381D01*
X91209667Y-103627762D01*
X91257286Y-103580143D01*
X91304905Y-103484905D01*
X91304905Y-103246810D01*
X91257286Y-103151571D01*
X91209667Y-103103952D01*
X91114429Y-103056333D01*
X90923952Y-103056333D01*
X90828714Y-103103952D01*
X90781095Y-103151571D01*
X90733476Y-103246810D01*
X102608143Y-97702643D02*
X102560524Y-97750262D01*
X102417667Y-97797881D01*
X102322429Y-97797881D01*
X102179571Y-97750262D01*
X102084333Y-97655024D01*
X102036714Y-97559786D01*
X101989095Y-97369310D01*
X101989095Y-97226452D01*
X102036714Y-97035976D01*
X102084333Y-96940738D01*
X102179571Y-96845500D01*
X102322429Y-96797881D01*
X102417667Y-96797881D01*
X102560524Y-96845500D01*
X102608143Y-96893119D01*
X103560524Y-97797881D02*
X102989095Y-97797881D01*
X103274809Y-97797881D02*
X103274809Y-96797881D01*
X103179571Y-96940738D01*
X103084333Y-97035976D01*
X102989095Y-97083595D01*
X103893857Y-96797881D02*
X104560524Y-96797881D01*
X104131952Y-97797881D01*
X78224143Y-93281643D02*
X78176524Y-93329262D01*
X78033667Y-93376881D01*
X77938429Y-93376881D01*
X77795571Y-93329262D01*
X77700333Y-93234024D01*
X77652714Y-93138786D01*
X77605095Y-92948310D01*
X77605095Y-92805452D01*
X77652714Y-92614976D01*
X77700333Y-92519738D01*
X77795571Y-92424500D01*
X77938429Y-92376881D01*
X78033667Y-92376881D01*
X78176524Y-92424500D01*
X78224143Y-92472119D01*
X79176524Y-93376881D02*
X78605095Y-93376881D01*
X78890809Y-93376881D02*
X78890809Y-92376881D01*
X78795571Y-92519738D01*
X78700333Y-92614976D01*
X78605095Y-92662595D01*
X79747952Y-92805452D02*
X79652714Y-92757833D01*
X79605095Y-92710214D01*
X79557476Y-92614976D01*
X79557476Y-92567357D01*
X79605095Y-92472119D01*
X79652714Y-92424500D01*
X79747952Y-92376881D01*
X79938429Y-92376881D01*
X80033667Y-92424500D01*
X80081286Y-92472119D01*
X80128905Y-92567357D01*
X80128905Y-92614976D01*
X80081286Y-92710214D01*
X80033667Y-92757833D01*
X79938429Y-92805452D01*
X79747952Y-92805452D01*
X79652714Y-92853071D01*
X79605095Y-92900690D01*
X79557476Y-92995929D01*
X79557476Y-93186405D01*
X79605095Y-93281643D01*
X79652714Y-93329262D01*
X79747952Y-93376881D01*
X79938429Y-93376881D01*
X80033667Y-93329262D01*
X80081286Y-93281643D01*
X80128905Y-93186405D01*
X80128905Y-92995929D01*
X80081286Y-92900690D01*
X80033667Y-92853071D01*
X79938429Y-92805452D01*
X78351143Y-96710643D02*
X78303524Y-96758262D01*
X78160667Y-96805881D01*
X78065429Y-96805881D01*
X77922571Y-96758262D01*
X77827333Y-96663024D01*
X77779714Y-96567786D01*
X77732095Y-96377310D01*
X77732095Y-96234452D01*
X77779714Y-96043976D01*
X77827333Y-95948738D01*
X77922571Y-95853500D01*
X78065429Y-95805881D01*
X78160667Y-95805881D01*
X78303524Y-95853500D01*
X78351143Y-95901119D01*
X79303524Y-96805881D02*
X78732095Y-96805881D01*
X79017809Y-96805881D02*
X79017809Y-95805881D01*
X78922571Y-95948738D01*
X78827333Y-96043976D01*
X78732095Y-96091595D01*
X79779714Y-96805881D02*
X79970190Y-96805881D01*
X80065429Y-96758262D01*
X80113048Y-96710643D01*
X80208286Y-96567786D01*
X80255905Y-96377310D01*
X80255905Y-95996357D01*
X80208286Y-95901119D01*
X80160667Y-95853500D01*
X80065429Y-95805881D01*
X79874952Y-95805881D01*
X79779714Y-95853500D01*
X79732095Y-95901119D01*
X79684476Y-95996357D01*
X79684476Y-96234452D01*
X79732095Y-96329690D01*
X79779714Y-96377310D01*
X79874952Y-96424929D01*
X80065429Y-96424929D01*
X80160667Y-96377310D01*
X80208286Y-96329690D01*
X80255905Y-96234452D01*
X106529381Y-54967095D02*
X105529381Y-54967095D01*
X105529381Y-54729000D01*
X105577000Y-54586142D01*
X105672238Y-54490904D01*
X105767476Y-54443285D01*
X105957952Y-54395666D01*
X106100810Y-54395666D01*
X106291286Y-54443285D01*
X106386524Y-54490904D01*
X106481762Y-54586142D01*
X106529381Y-54729000D01*
X106529381Y-54967095D01*
X106529381Y-53443285D02*
X106529381Y-54014714D01*
X106529381Y-53729000D02*
X105529381Y-53729000D01*
X105672238Y-53824238D01*
X105767476Y-53919476D01*
X105815095Y-54014714D01*
X79081405Y-65908381D02*
X79081405Y-64908381D01*
X79319500Y-64908381D01*
X79462358Y-64956000D01*
X79557596Y-65051238D01*
X79605215Y-65146476D01*
X79652834Y-65336952D01*
X79652834Y-65479810D01*
X79605215Y-65670286D01*
X79557596Y-65765524D01*
X79462358Y-65860762D01*
X79319500Y-65908381D01*
X79081405Y-65908381D01*
X80033786Y-65003619D02*
X80081405Y-64956000D01*
X80176643Y-64908381D01*
X80414739Y-64908381D01*
X80509977Y-64956000D01*
X80557596Y-65003619D01*
X80605215Y-65098857D01*
X80605215Y-65194095D01*
X80557596Y-65336952D01*
X79986167Y-65908381D01*
X80605215Y-65908381D01*
X78954405Y-64345881D02*
X78954405Y-63345881D01*
X79192500Y-63345881D01*
X79335358Y-63393500D01*
X79430596Y-63488738D01*
X79478215Y-63583976D01*
X79525834Y-63774452D01*
X79525834Y-63917310D01*
X79478215Y-64107786D01*
X79430596Y-64203024D01*
X79335358Y-64298262D01*
X79192500Y-64345881D01*
X78954405Y-64345881D01*
X79859167Y-63345881D02*
X80478215Y-63345881D01*
X80144881Y-63726833D01*
X80287739Y-63726833D01*
X80382977Y-63774452D01*
X80430596Y-63822071D01*
X80478215Y-63917310D01*
X80478215Y-64155405D01*
X80430596Y-64250643D01*
X80382977Y-64298262D01*
X80287739Y-64345881D01*
X80002024Y-64345881D01*
X79906786Y-64298262D01*
X79859167Y-64250643D01*
X69616071Y-59769333D02*
X69616071Y-60102667D01*
X70139881Y-60102667D02*
X69139881Y-60102667D01*
X69139881Y-59626476D01*
X70139881Y-58721714D02*
X70139881Y-59293143D01*
X70139881Y-59007429D02*
X69139881Y-59007429D01*
X69282738Y-59102667D01*
X69377976Y-59197905D01*
X69425595Y-59293143D01*
X70977167Y-82319881D02*
X70977167Y-83034167D01*
X70929547Y-83177024D01*
X70834309Y-83272262D01*
X70691452Y-83319881D01*
X70596214Y-83319881D01*
X71977167Y-83319881D02*
X71405738Y-83319881D01*
X71691452Y-83319881D02*
X71691452Y-82319881D01*
X71596214Y-82462738D01*
X71500976Y-82557976D01*
X71405738Y-82605595D01*
X66000381Y-58039833D02*
X66714667Y-58039833D01*
X66857524Y-58087453D01*
X66952762Y-58182691D01*
X67000381Y-58325548D01*
X67000381Y-58420786D01*
X66095619Y-57611262D02*
X66048000Y-57563643D01*
X66000381Y-57468405D01*
X66000381Y-57230309D01*
X66048000Y-57135071D01*
X66095619Y-57087452D01*
X66190857Y-57039833D01*
X66286095Y-57039833D01*
X66428952Y-57087452D01*
X67000381Y-57658881D01*
X67000381Y-57039833D01*
X128909262Y-99274143D02*
X128956881Y-99131286D01*
X128956881Y-98893190D01*
X128909262Y-98797952D01*
X128861643Y-98750333D01*
X128766405Y-98702714D01*
X128671167Y-98702714D01*
X128575929Y-98750333D01*
X128528310Y-98797952D01*
X128480690Y-98893190D01*
X128433071Y-99083667D01*
X128385452Y-99178905D01*
X128337833Y-99226524D01*
X128242595Y-99274143D01*
X128147357Y-99274143D01*
X128052119Y-99226524D01*
X128004500Y-99178905D01*
X127956881Y-99083667D01*
X127956881Y-98845571D01*
X128004500Y-98702714D01*
X127956881Y-98369381D02*
X128956881Y-98131286D01*
X128242595Y-97940809D01*
X128956881Y-97750333D01*
X127956881Y-97512238D01*
X128956881Y-97131286D02*
X127956881Y-97131286D01*
X127956881Y-96893191D01*
X128004500Y-96750333D01*
X128099738Y-96655095D01*
X128194976Y-96607476D01*
X128385452Y-96559857D01*
X128528310Y-96559857D01*
X128718786Y-96607476D01*
X128814024Y-96655095D01*
X128909262Y-96750333D01*
X128956881Y-96893191D01*
X128956881Y-97131286D01*
X100616072Y-56919881D02*
X101282739Y-56919881D01*
X100854167Y-57919881D01*
X101663691Y-57824643D02*
X101711310Y-57872262D01*
X101663691Y-57919881D01*
X101616072Y-57872262D01*
X101663691Y-57824643D01*
X101663691Y-57919881D01*
X102092262Y-57015119D02*
X102139881Y-56967500D01*
X102235119Y-56919881D01*
X102473215Y-56919881D01*
X102568453Y-56967500D01*
X102616072Y-57015119D01*
X102663691Y-57110357D01*
X102663691Y-57205595D01*
X102616072Y-57348452D01*
X102044643Y-57919881D01*
X102663691Y-57919881D01*
X102997024Y-57253214D02*
X103235119Y-57919881D01*
X103473215Y-57253214D01*
X104616072Y-57919881D02*
X104616072Y-56919881D01*
X105092262Y-57919881D02*
X105092262Y-56919881D01*
X105663691Y-57919881D01*
X105663691Y-56919881D01*
X75271381Y-102060333D02*
X75985667Y-102060333D01*
X76128524Y-102107953D01*
X76223762Y-102203191D01*
X76271381Y-102346048D01*
X76271381Y-102441286D01*
X75271381Y-101155571D02*
X75271381Y-101346048D01*
X75319000Y-101441286D01*
X75366619Y-101488905D01*
X75509476Y-101584143D01*
X75699952Y-101631762D01*
X76080905Y-101631762D01*
X76176143Y-101584143D01*
X76223762Y-101536524D01*
X76271381Y-101441286D01*
X76271381Y-101250809D01*
X76223762Y-101155571D01*
X76176143Y-101107952D01*
X76080905Y-101060333D01*
X75842810Y-101060333D01*
X75747571Y-101107952D01*
X75699952Y-101155571D01*
X75652333Y-101250809D01*
X75652333Y-101441286D01*
X75699952Y-101536524D01*
X75747571Y-101584143D01*
X75842810Y-101631762D01*
X158924667Y-57491381D02*
X158924667Y-58205667D01*
X158877047Y-58348524D01*
X158781809Y-58443762D01*
X158638952Y-58491381D01*
X158543714Y-58491381D01*
X159305619Y-57491381D02*
X159972286Y-57491381D01*
X159543714Y-58491381D01*
X122531358Y-60424571D02*
X122198024Y-60424571D01*
X122198024Y-60948381D02*
X122198024Y-59948381D01*
X122674215Y-59948381D01*
X123055167Y-60948381D02*
X123055167Y-59948381D01*
X123293262Y-59948381D01*
X123436120Y-59996000D01*
X123531358Y-60091238D01*
X123578977Y-60186476D01*
X123626596Y-60376952D01*
X123626596Y-60519810D01*
X123578977Y-60710286D01*
X123531358Y-60805524D01*
X123436120Y-60900762D01*
X123293262Y-60948381D01*
X123055167Y-60948381D01*
X124388501Y-60424571D02*
X124531358Y-60472190D01*
X124578977Y-60519810D01*
X124626596Y-60615048D01*
X124626596Y-60757905D01*
X124578977Y-60853143D01*
X124531358Y-60900762D01*
X124436120Y-60948381D01*
X124055167Y-60948381D01*
X124055167Y-59948381D01*
X124388501Y-59948381D01*
X124483739Y-59996000D01*
X124531358Y-60043619D01*
X124578977Y-60138857D01*
X124578977Y-60234095D01*
X124531358Y-60329333D01*
X124483739Y-60376952D01*
X124388501Y-60424571D01*
X124055167Y-60424571D01*
X125055167Y-60948381D02*
X125055167Y-59948381D01*
X125626596Y-60948381D02*
X125198024Y-60376952D01*
X125626596Y-59948381D02*
X125055167Y-60519810D01*
X114546238Y-58427881D02*
X114546238Y-57427881D01*
X114927191Y-57427881D01*
X115022429Y-57475500D01*
X115070048Y-57523119D01*
X115117667Y-57618357D01*
X115117667Y-57761214D01*
X115070048Y-57856452D01*
X115022429Y-57904071D01*
X114927191Y-57951690D01*
X114546238Y-57951690D01*
X115451000Y-57427881D02*
X115689095Y-58427881D01*
X115879572Y-57713595D01*
X116070048Y-58427881D01*
X116308143Y-57427881D01*
X116689095Y-58427881D02*
X116689095Y-57427881D01*
X117022429Y-58142167D01*
X117355762Y-57427881D01*
X117355762Y-58427881D01*
X132921477Y-90149881D02*
X132921477Y-90864167D01*
X132873857Y-91007024D01*
X132778619Y-91102262D01*
X132635762Y-91149881D01*
X132540524Y-91149881D01*
X133921477Y-91149881D02*
X133350048Y-91149881D01*
X133635762Y-91149881D02*
X133635762Y-90149881D01*
X133540524Y-90292738D01*
X133445286Y-90387976D01*
X133350048Y-90435595D01*
X134540524Y-90149881D02*
X134635763Y-90149881D01*
X134731001Y-90197500D01*
X134778620Y-90245119D01*
X134826239Y-90340357D01*
X134873858Y-90530833D01*
X134873858Y-90768929D01*
X134826239Y-90959405D01*
X134778620Y-91054643D01*
X134731001Y-91102262D01*
X134635763Y-91149881D01*
X134540524Y-91149881D01*
X134445286Y-91102262D01*
X134397667Y-91054643D01*
X134350048Y-90959405D01*
X134302429Y-90768929D01*
X134302429Y-90530833D01*
X134350048Y-90340357D01*
X134397667Y-90245119D01*
X134445286Y-90197500D01*
X134540524Y-90149881D01*
X137418381Y-62595023D02*
X138132667Y-62595023D01*
X138275524Y-62642643D01*
X138370762Y-62737881D01*
X138418381Y-62880738D01*
X138418381Y-62975976D01*
X138418381Y-61595023D02*
X138418381Y-62166452D01*
X138418381Y-61880738D02*
X137418381Y-61880738D01*
X137561238Y-61975976D01*
X137656476Y-62071214D01*
X137704095Y-62166452D01*
X138418381Y-60642642D02*
X138418381Y-61214071D01*
X138418381Y-60928357D02*
X137418381Y-60928357D01*
X137561238Y-61023595D01*
X137656476Y-61118833D01*
X137704095Y-61214071D01*
X79736834Y-72006381D02*
X79403500Y-71530190D01*
X79165405Y-72006381D02*
X79165405Y-71006381D01*
X79546358Y-71006381D01*
X79641596Y-71054000D01*
X79689215Y-71101619D01*
X79736834Y-71196857D01*
X79736834Y-71339714D01*
X79689215Y-71434952D01*
X79641596Y-71482571D01*
X79546358Y-71530190D01*
X79165405Y-71530190D01*
X80689215Y-72006381D02*
X80117786Y-72006381D01*
X80403500Y-72006381D02*
X80403500Y-71006381D01*
X80308262Y-71149238D01*
X80213024Y-71244476D01*
X80117786Y-71292095D01*
X86637834Y-78177381D02*
X86304500Y-77701190D01*
X86066405Y-78177381D02*
X86066405Y-77177381D01*
X86447358Y-77177381D01*
X86542596Y-77225000D01*
X86590215Y-77272619D01*
X86637834Y-77367857D01*
X86637834Y-77510714D01*
X86590215Y-77605952D01*
X86542596Y-77653571D01*
X86447358Y-77701190D01*
X86066405Y-77701190D01*
X87018786Y-77272619D02*
X87066405Y-77225000D01*
X87161643Y-77177381D01*
X87399739Y-77177381D01*
X87494977Y-77225000D01*
X87542596Y-77272619D01*
X87590215Y-77367857D01*
X87590215Y-77463095D01*
X87542596Y-77605952D01*
X86971167Y-78177381D01*
X87590215Y-78177381D01*
X86576834Y-74430881D02*
X86243500Y-73954690D01*
X86005405Y-74430881D02*
X86005405Y-73430881D01*
X86386358Y-73430881D01*
X86481596Y-73478500D01*
X86529215Y-73526119D01*
X86576834Y-73621357D01*
X86576834Y-73764214D01*
X86529215Y-73859452D01*
X86481596Y-73907071D01*
X86386358Y-73954690D01*
X86005405Y-73954690D01*
X86910167Y-73430881D02*
X87529215Y-73430881D01*
X87195881Y-73811833D01*
X87338739Y-73811833D01*
X87433977Y-73859452D01*
X87481596Y-73907071D01*
X87529215Y-74002310D01*
X87529215Y-74240405D01*
X87481596Y-74335643D01*
X87433977Y-74383262D01*
X87338739Y-74430881D01*
X87053024Y-74430881D01*
X86957786Y-74383262D01*
X86910167Y-74335643D01*
X73749834Y-74301881D02*
X73416500Y-73825690D01*
X73178405Y-74301881D02*
X73178405Y-73301881D01*
X73559358Y-73301881D01*
X73654596Y-73349500D01*
X73702215Y-73397119D01*
X73749834Y-73492357D01*
X73749834Y-73635214D01*
X73702215Y-73730452D01*
X73654596Y-73778071D01*
X73559358Y-73825690D01*
X73178405Y-73825690D01*
X74606977Y-73635214D02*
X74606977Y-74301881D01*
X74368881Y-73254262D02*
X74130786Y-73968548D01*
X74749834Y-73968548D01*
X104714834Y-63962881D02*
X104381500Y-63486690D01*
X104143405Y-63962881D02*
X104143405Y-62962881D01*
X104524358Y-62962881D01*
X104619596Y-63010500D01*
X104667215Y-63058119D01*
X104714834Y-63153357D01*
X104714834Y-63296214D01*
X104667215Y-63391452D01*
X104619596Y-63439071D01*
X104524358Y-63486690D01*
X104143405Y-63486690D01*
X105619596Y-62962881D02*
X105143405Y-62962881D01*
X105095786Y-63439071D01*
X105143405Y-63391452D01*
X105238643Y-63343833D01*
X105476739Y-63343833D01*
X105571977Y-63391452D01*
X105619596Y-63439071D01*
X105667215Y-63534310D01*
X105667215Y-63772405D01*
X105619596Y-63867643D01*
X105571977Y-63915262D01*
X105476739Y-63962881D01*
X105238643Y-63962881D01*
X105143405Y-63915262D01*
X105095786Y-63867643D01*
X109708834Y-63962881D02*
X109375500Y-63486690D01*
X109137405Y-63962881D02*
X109137405Y-62962881D01*
X109518358Y-62962881D01*
X109613596Y-63010500D01*
X109661215Y-63058119D01*
X109708834Y-63153357D01*
X109708834Y-63296214D01*
X109661215Y-63391452D01*
X109613596Y-63439071D01*
X109518358Y-63486690D01*
X109137405Y-63486690D01*
X110565977Y-62962881D02*
X110375500Y-62962881D01*
X110280262Y-63010500D01*
X110232643Y-63058119D01*
X110137405Y-63200976D01*
X110089786Y-63391452D01*
X110089786Y-63772405D01*
X110137405Y-63867643D01*
X110185024Y-63915262D01*
X110280262Y-63962881D01*
X110470739Y-63962881D01*
X110565977Y-63915262D01*
X110613596Y-63867643D01*
X110661215Y-63772405D01*
X110661215Y-63534310D01*
X110613596Y-63439071D01*
X110565977Y-63391452D01*
X110470739Y-63343833D01*
X110280262Y-63343833D01*
X110185024Y-63391452D01*
X110137405Y-63439071D01*
X110089786Y-63534310D01*
X132785381Y-68050666D02*
X132309190Y-68384000D01*
X132785381Y-68622095D02*
X131785381Y-68622095D01*
X131785381Y-68241142D01*
X131833000Y-68145904D01*
X131880619Y-68098285D01*
X131975857Y-68050666D01*
X132118714Y-68050666D01*
X132213952Y-68098285D01*
X132261571Y-68145904D01*
X132309190Y-68241142D01*
X132309190Y-68622095D01*
X131785381Y-67717333D02*
X131785381Y-67050666D01*
X132785381Y-67479238D01*
X129483381Y-68050666D02*
X129007190Y-68384000D01*
X129483381Y-68622095D02*
X128483381Y-68622095D01*
X128483381Y-68241142D01*
X128531000Y-68145904D01*
X128578619Y-68098285D01*
X128673857Y-68050666D01*
X128816714Y-68050666D01*
X128911952Y-68098285D01*
X128959571Y-68145904D01*
X129007190Y-68241142D01*
X129007190Y-68622095D01*
X128911952Y-67479238D02*
X128864333Y-67574476D01*
X128816714Y-67622095D01*
X128721476Y-67669714D01*
X128673857Y-67669714D01*
X128578619Y-67622095D01*
X128531000Y-67574476D01*
X128483381Y-67479238D01*
X128483381Y-67288761D01*
X128531000Y-67193523D01*
X128578619Y-67145904D01*
X128673857Y-67098285D01*
X128721476Y-67098285D01*
X128816714Y-67145904D01*
X128864333Y-67193523D01*
X128911952Y-67288761D01*
X128911952Y-67479238D01*
X128959571Y-67574476D01*
X129007190Y-67622095D01*
X129102429Y-67669714D01*
X129292905Y-67669714D01*
X129388143Y-67622095D01*
X129435762Y-67574476D01*
X129483381Y-67479238D01*
X129483381Y-67288761D01*
X129435762Y-67193523D01*
X129388143Y-67145904D01*
X129292905Y-67098285D01*
X129102429Y-67098285D01*
X129007190Y-67145904D01*
X128959571Y-67193523D01*
X128911952Y-67288761D01*
X142232084Y-70904631D02*
X141898750Y-70428440D01*
X141660655Y-70904631D02*
X141660655Y-69904631D01*
X142041608Y-69904631D01*
X142136846Y-69952250D01*
X142184465Y-69999869D01*
X142232084Y-70095107D01*
X142232084Y-70237964D01*
X142184465Y-70333202D01*
X142136846Y-70380821D01*
X142041608Y-70428440D01*
X141660655Y-70428440D01*
X142708274Y-70904631D02*
X142898750Y-70904631D01*
X142993989Y-70857012D01*
X143041608Y-70809393D01*
X143136846Y-70666536D01*
X143184465Y-70476060D01*
X143184465Y-70095107D01*
X143136846Y-69999869D01*
X143089227Y-69952250D01*
X142993989Y-69904631D01*
X142803512Y-69904631D01*
X142708274Y-69952250D01*
X142660655Y-69999869D01*
X142613036Y-70095107D01*
X142613036Y-70333202D01*
X142660655Y-70428440D01*
X142708274Y-70476060D01*
X142803512Y-70523679D01*
X142993989Y-70523679D01*
X143089227Y-70476060D01*
X143136846Y-70428440D01*
X143184465Y-70333202D01*
X102354143Y-101670381D02*
X102020809Y-101194190D01*
X101782714Y-101670381D02*
X101782714Y-100670381D01*
X102163667Y-100670381D01*
X102258905Y-100718000D01*
X102306524Y-100765619D01*
X102354143Y-100860857D01*
X102354143Y-101003714D01*
X102306524Y-101098952D01*
X102258905Y-101146571D01*
X102163667Y-101194190D01*
X101782714Y-101194190D01*
X103306524Y-101670381D02*
X102735095Y-101670381D01*
X103020809Y-101670381D02*
X103020809Y-100670381D01*
X102925571Y-100813238D01*
X102830333Y-100908476D01*
X102735095Y-100956095D01*
X103925571Y-100670381D02*
X104020810Y-100670381D01*
X104116048Y-100718000D01*
X104163667Y-100765619D01*
X104211286Y-100860857D01*
X104258905Y-101051333D01*
X104258905Y-101289429D01*
X104211286Y-101479905D01*
X104163667Y-101575143D01*
X104116048Y-101622762D01*
X104020810Y-101670381D01*
X103925571Y-101670381D01*
X103830333Y-101622762D01*
X103782714Y-101575143D01*
X103735095Y-101479905D01*
X103687476Y-101289429D01*
X103687476Y-101051333D01*
X103735095Y-100860857D01*
X103782714Y-100765619D01*
X103830333Y-100718000D01*
X103925571Y-100670381D01*
X102478643Y-94495881D02*
X102145309Y-94019690D01*
X101907214Y-94495881D02*
X101907214Y-93495881D01*
X102288167Y-93495881D01*
X102383405Y-93543500D01*
X102431024Y-93591119D01*
X102478643Y-93686357D01*
X102478643Y-93829214D01*
X102431024Y-93924452D01*
X102383405Y-93972071D01*
X102288167Y-94019690D01*
X101907214Y-94019690D01*
X103431024Y-94495881D02*
X102859595Y-94495881D01*
X103145309Y-94495881D02*
X103145309Y-93495881D01*
X103050071Y-93638738D01*
X102954833Y-93733976D01*
X102859595Y-93781595D01*
X104383405Y-94495881D02*
X103811976Y-94495881D01*
X104097690Y-94495881D02*
X104097690Y-93495881D01*
X104002452Y-93638738D01*
X103907214Y-93733976D01*
X103811976Y-93781595D01*
X98480643Y-93542381D02*
X98147309Y-93066190D01*
X97909214Y-93542381D02*
X97909214Y-92542381D01*
X98290167Y-92542381D01*
X98385405Y-92590000D01*
X98433024Y-92637619D01*
X98480643Y-92732857D01*
X98480643Y-92875714D01*
X98433024Y-92970952D01*
X98385405Y-93018571D01*
X98290167Y-93066190D01*
X97909214Y-93066190D01*
X99433024Y-93542381D02*
X98861595Y-93542381D01*
X99147309Y-93542381D02*
X99147309Y-92542381D01*
X99052071Y-92685238D01*
X98956833Y-92780476D01*
X98861595Y-92828095D01*
X99813976Y-92637619D02*
X99861595Y-92590000D01*
X99956833Y-92542381D01*
X100194929Y-92542381D01*
X100290167Y-92590000D01*
X100337786Y-92637619D01*
X100385405Y-92732857D01*
X100385405Y-92828095D01*
X100337786Y-92970952D01*
X99766357Y-93542381D01*
X100385405Y-93542381D01*
X84807643Y-61295881D02*
X84474309Y-60819690D01*
X84236214Y-61295881D02*
X84236214Y-60295881D01*
X84617167Y-60295881D01*
X84712405Y-60343500D01*
X84760024Y-60391119D01*
X84807643Y-60486357D01*
X84807643Y-60629214D01*
X84760024Y-60724452D01*
X84712405Y-60772071D01*
X84617167Y-60819690D01*
X84236214Y-60819690D01*
X85760024Y-61295881D02*
X85188595Y-61295881D01*
X85474309Y-61295881D02*
X85474309Y-60295881D01*
X85379071Y-60438738D01*
X85283833Y-60533976D01*
X85188595Y-60581595D01*
X86093357Y-60295881D02*
X86712405Y-60295881D01*
X86379071Y-60676833D01*
X86521929Y-60676833D01*
X86617167Y-60724452D01*
X86664786Y-60772071D01*
X86712405Y-60867310D01*
X86712405Y-61105405D01*
X86664786Y-61200643D01*
X86617167Y-61248262D01*
X86521929Y-61295881D01*
X86236214Y-61295881D01*
X86140976Y-61248262D01*
X86093357Y-61200643D01*
X98298095Y-82477881D02*
X98298095Y-83287405D01*
X98345714Y-83382643D01*
X98393333Y-83430262D01*
X98488571Y-83477881D01*
X98679048Y-83477881D01*
X98774286Y-83430262D01*
X98821905Y-83382643D01*
X98869524Y-83287405D01*
X98869524Y-82477881D01*
X99298095Y-82573119D02*
X99345714Y-82525500D01*
X99440952Y-82477881D01*
X99679048Y-82477881D01*
X99774286Y-82525500D01*
X99821905Y-82573119D01*
X99869524Y-82668357D01*
X99869524Y-82763595D01*
X99821905Y-82906452D01*
X99250476Y-83477881D01*
X99869524Y-83477881D01*
X73195095Y-70167881D02*
X73195095Y-70977405D01*
X73242714Y-71072643D01*
X73290333Y-71120262D01*
X73385571Y-71167881D01*
X73576048Y-71167881D01*
X73671286Y-71120262D01*
X73718905Y-71072643D01*
X73766524Y-70977405D01*
X73766524Y-70167881D01*
X74147476Y-70167881D02*
X74766524Y-70167881D01*
X74433190Y-70548833D01*
X74576048Y-70548833D01*
X74671286Y-70596452D01*
X74718905Y-70644071D01*
X74766524Y-70739310D01*
X74766524Y-70977405D01*
X74718905Y-71072643D01*
X74671286Y-71120262D01*
X74576048Y-71167881D01*
X74290333Y-71167881D01*
X74195095Y-71120262D01*
X74147476Y-71072643D01*
X128890595Y-72196381D02*
X128890595Y-73005905D01*
X128938214Y-73101143D01*
X128985833Y-73148762D01*
X129081071Y-73196381D01*
X129271548Y-73196381D01*
X129366786Y-73148762D01*
X129414405Y-73101143D01*
X129462024Y-73005905D01*
X129462024Y-72196381D01*
X130414405Y-72196381D02*
X129938214Y-72196381D01*
X129890595Y-72672571D01*
X129938214Y-72624952D01*
X130033452Y-72577333D01*
X130271548Y-72577333D01*
X130366786Y-72624952D01*
X130414405Y-72672571D01*
X130462024Y-72767810D01*
X130462024Y-73005905D01*
X130414405Y-73101143D01*
X130366786Y-73148762D01*
X130271548Y-73196381D01*
X130033452Y-73196381D01*
X129938214Y-73148762D01*
X129890595Y-73101143D01*
X141949845Y-76319631D02*
X141949845Y-77129155D01*
X141997464Y-77224393D01*
X142045083Y-77272012D01*
X142140321Y-77319631D01*
X142330798Y-77319631D01*
X142426036Y-77272012D01*
X142473655Y-77224393D01*
X142521274Y-77129155D01*
X142521274Y-76319631D01*
X143426036Y-76319631D02*
X143235559Y-76319631D01*
X143140321Y-76367250D01*
X143092702Y-76414869D01*
X142997464Y-76557726D01*
X142949845Y-76748202D01*
X142949845Y-77129155D01*
X142997464Y-77224393D01*
X143045083Y-77272012D01*
X143140321Y-77319631D01*
X143330798Y-77319631D01*
X143426036Y-77272012D01*
X143473655Y-77224393D01*
X143521274Y-77129155D01*
X143521274Y-76891060D01*
X143473655Y-76795821D01*
X143426036Y-76748202D01*
X143330798Y-76700583D01*
X143140321Y-76700583D01*
X143045083Y-76748202D01*
X142997464Y-76795821D01*
X142949845Y-76891060D01*
X150624095Y-83400381D02*
X150624095Y-84209905D01*
X150671714Y-84305143D01*
X150719333Y-84352762D01*
X150814571Y-84400381D01*
X151005048Y-84400381D01*
X151100286Y-84352762D01*
X151147905Y-84305143D01*
X151195524Y-84209905D01*
X151195524Y-83400381D01*
X151814571Y-83828952D02*
X151719333Y-83781333D01*
X151671714Y-83733714D01*
X151624095Y-83638476D01*
X151624095Y-83590857D01*
X151671714Y-83495619D01*
X151719333Y-83448000D01*
X151814571Y-83400381D01*
X152005048Y-83400381D01*
X152100286Y-83448000D01*
X152147905Y-83495619D01*
X152195524Y-83590857D01*
X152195524Y-83638476D01*
X152147905Y-83733714D01*
X152100286Y-83781333D01*
X152005048Y-83828952D01*
X151814571Y-83828952D01*
X151719333Y-83876571D01*
X151671714Y-83924190D01*
X151624095Y-84019429D01*
X151624095Y-84209905D01*
X151671714Y-84305143D01*
X151719333Y-84352762D01*
X151814571Y-84400381D01*
X152005048Y-84400381D01*
X152100286Y-84352762D01*
X152147905Y-84305143D01*
X152195524Y-84209905D01*
X152195524Y-84019429D01*
X152147905Y-83924190D01*
X152100286Y-83876571D01*
X152005048Y-83828952D01*
X148917715Y-86432381D02*
X148584381Y-85956190D01*
X148346286Y-86432381D02*
X148346286Y-85432381D01*
X148727239Y-85432381D01*
X148822477Y-85480000D01*
X148870096Y-85527619D01*
X148917715Y-85622857D01*
X148917715Y-85765714D01*
X148870096Y-85860952D01*
X148822477Y-85908571D01*
X148727239Y-85956190D01*
X148346286Y-85956190D01*
X149679620Y-85908571D02*
X149346286Y-85908571D01*
X149346286Y-86432381D02*
X149346286Y-85432381D01*
X149822477Y-85432381D01*
X150203429Y-86432381D02*
X150203429Y-85432381D01*
X150536763Y-86146667D01*
X150870096Y-85432381D01*
X150870096Y-86432381D01*
X151393905Y-86432381D02*
X151584381Y-86432381D01*
X151679620Y-86384762D01*
X151727239Y-86337143D01*
X151822477Y-86194286D01*
X151870096Y-86003810D01*
X151870096Y-85622857D01*
X151822477Y-85527619D01*
X151774858Y-85480000D01*
X151679620Y-85432381D01*
X151489143Y-85432381D01*
X151393905Y-85480000D01*
X151346286Y-85527619D01*
X151298667Y-85622857D01*
X151298667Y-85860952D01*
X151346286Y-85956190D01*
X151393905Y-86003810D01*
X151489143Y-86051429D01*
X151679620Y-86051429D01*
X151774858Y-86003810D01*
X151822477Y-85956190D01*
X151870096Y-85860952D01*
X152774858Y-85432381D02*
X152298667Y-85432381D01*
X152251048Y-85908571D01*
X152298667Y-85860952D01*
X152393905Y-85813333D01*
X152632001Y-85813333D01*
X152727239Y-85860952D01*
X152774858Y-85908571D01*
X152822477Y-86003810D01*
X152822477Y-86241905D01*
X152774858Y-86337143D01*
X152727239Y-86384762D01*
X152632001Y-86432381D01*
X152393905Y-86432381D01*
X152298667Y-86384762D01*
X152251048Y-86337143D01*
X153155810Y-85432381D02*
X153393905Y-86432381D01*
X153584382Y-85718095D01*
X153774858Y-86432381D01*
X154012953Y-85432381D01*
D14*
X145432857Y-79856190D02*
X145147143Y-79856190D01*
X145290000Y-79856190D02*
X145290000Y-79356190D01*
X145242381Y-79427619D01*
X145194762Y-79475238D01*
X145147143Y-79499048D01*
D13*
X109855095Y-81201881D02*
X109855095Y-82011405D01*
X109902714Y-82106643D01*
X109950333Y-82154262D01*
X110045571Y-82201881D01*
X110236048Y-82201881D01*
X110331286Y-82154262D01*
X110378905Y-82106643D01*
X110426524Y-82011405D01*
X110426524Y-81201881D01*
X110950333Y-82201881D02*
X111140809Y-82201881D01*
X111236048Y-82154262D01*
X111283667Y-82106643D01*
X111378905Y-81963786D01*
X111426524Y-81773310D01*
X111426524Y-81392357D01*
X111378905Y-81297119D01*
X111331286Y-81249500D01*
X111236048Y-81201881D01*
X111045571Y-81201881D01*
X110950333Y-81249500D01*
X110902714Y-81297119D01*
X110855095Y-81392357D01*
X110855095Y-81630452D01*
X110902714Y-81725690D01*
X110950333Y-81773310D01*
X111045571Y-81820929D01*
X111236048Y-81820929D01*
X111331286Y-81773310D01*
X111378905Y-81725690D01*
X111426524Y-81630452D01*
X84105905Y-94067381D02*
X84105905Y-94876905D01*
X84153524Y-94972143D01*
X84201143Y-95019762D01*
X84296381Y-95067381D01*
X84486858Y-95067381D01*
X84582096Y-95019762D01*
X84629715Y-94972143D01*
X84677334Y-94876905D01*
X84677334Y-94067381D01*
X85677334Y-95067381D02*
X85105905Y-95067381D01*
X85391619Y-95067381D02*
X85391619Y-94067381D01*
X85296381Y-94210238D01*
X85201143Y-94305476D01*
X85105905Y-94353095D01*
X86296381Y-94067381D02*
X86391620Y-94067381D01*
X86486858Y-94115000D01*
X86534477Y-94162619D01*
X86582096Y-94257857D01*
X86629715Y-94448333D01*
X86629715Y-94686429D01*
X86582096Y-94876905D01*
X86534477Y-94972143D01*
X86486858Y-95019762D01*
X86391620Y-95067381D01*
X86296381Y-95067381D01*
X86201143Y-95019762D01*
X86153524Y-94972143D01*
X86105905Y-94876905D01*
X86058286Y-94686429D01*
X86058286Y-94448333D01*
X86105905Y-94257857D01*
X86153524Y-94162619D01*
X86201143Y-94115000D01*
X86296381Y-94067381D01*
X81978595Y-57364381D02*
X81978595Y-58173905D01*
X82026214Y-58269143D01*
X82073833Y-58316762D01*
X82169071Y-58364381D01*
X82359548Y-58364381D01*
X82454786Y-58316762D01*
X82502405Y-58269143D01*
X82550024Y-58173905D01*
X82550024Y-57364381D01*
X83550024Y-58364381D02*
X82978595Y-58364381D01*
X83264309Y-58364381D02*
X83264309Y-57364381D01*
X83169071Y-57507238D01*
X83073833Y-57602476D01*
X82978595Y-57650095D01*
X152527167Y-52458881D02*
X152193833Y-51982690D01*
X151955738Y-52458881D02*
X151955738Y-51458881D01*
X152336691Y-51458881D01*
X152431929Y-51506500D01*
X152479548Y-51554119D01*
X152527167Y-51649357D01*
X152527167Y-51792214D01*
X152479548Y-51887452D01*
X152431929Y-51935071D01*
X152336691Y-51982690D01*
X151955738Y-51982690D01*
X152955738Y-51935071D02*
X153289072Y-51935071D01*
X153431929Y-52458881D02*
X152955738Y-52458881D01*
X152955738Y-51458881D01*
X153431929Y-51458881D01*
X154193834Y-51935071D02*
X153860500Y-51935071D01*
X153860500Y-52458881D02*
X153860500Y-51458881D01*
X154336691Y-51458881D01*
X154860500Y-51458881D02*
X154860500Y-51696976D01*
X154622405Y-51601738D02*
X154860500Y-51696976D01*
X155098596Y-51601738D01*
X154717643Y-51887452D02*
X154860500Y-51696976D01*
X155003358Y-51887452D01*
X155622405Y-51458881D02*
X155622405Y-51696976D01*
X155384310Y-51601738D02*
X155622405Y-51696976D01*
X155860501Y-51601738D01*
X155479548Y-51887452D02*
X155622405Y-51696976D01*
X155765263Y-51887452D01*
X149733167Y-100147381D02*
X149399833Y-99671190D01*
X149161738Y-100147381D02*
X149161738Y-99147381D01*
X149542691Y-99147381D01*
X149637929Y-99195000D01*
X149685548Y-99242619D01*
X149733167Y-99337857D01*
X149733167Y-99480714D01*
X149685548Y-99575952D01*
X149637929Y-99623571D01*
X149542691Y-99671190D01*
X149161738Y-99671190D01*
X150161738Y-99623571D02*
X150495072Y-99623571D01*
X150637929Y-100147381D02*
X150161738Y-100147381D01*
X150161738Y-99147381D01*
X150637929Y-99147381D01*
X151399834Y-99623571D02*
X151066500Y-99623571D01*
X151066500Y-100147381D02*
X151066500Y-99147381D01*
X151542691Y-99147381D01*
X152066500Y-99147381D02*
X152066500Y-99385476D01*
X151828405Y-99290238D02*
X152066500Y-99385476D01*
X152304596Y-99290238D01*
X151923643Y-99575952D02*
X152066500Y-99385476D01*
X152209358Y-99575952D01*
X152828405Y-99147381D02*
X152828405Y-99385476D01*
X152590310Y-99290238D02*
X152828405Y-99385476D01*
X153066501Y-99290238D01*
X152685548Y-99575952D02*
X152828405Y-99385476D01*
X152971263Y-99575952D01*
X64008167Y-66611881D02*
X63674833Y-66135690D01*
X63436738Y-66611881D02*
X63436738Y-65611881D01*
X63817691Y-65611881D01*
X63912929Y-65659500D01*
X63960548Y-65707119D01*
X64008167Y-65802357D01*
X64008167Y-65945214D01*
X63960548Y-66040452D01*
X63912929Y-66088071D01*
X63817691Y-66135690D01*
X63436738Y-66135690D01*
X64436738Y-66088071D02*
X64770072Y-66088071D01*
X64912929Y-66611881D02*
X64436738Y-66611881D01*
X64436738Y-65611881D01*
X64912929Y-65611881D01*
X65674834Y-66088071D02*
X65341500Y-66088071D01*
X65341500Y-66611881D02*
X65341500Y-65611881D01*
X65817691Y-65611881D01*
X66341500Y-65611881D02*
X66341500Y-65849976D01*
X66103405Y-65754738D02*
X66341500Y-65849976D01*
X66579596Y-65754738D01*
X66198643Y-66040452D02*
X66341500Y-65849976D01*
X66484358Y-66040452D01*
X67103405Y-65611881D02*
X67103405Y-65849976D01*
X66865310Y-65754738D02*
X67103405Y-65849976D01*
X67341501Y-65754738D01*
X66960548Y-66040452D02*
X67103405Y-65849976D01*
X67246263Y-66040452D01*
X139552881Y-98821833D02*
X140267167Y-98821833D01*
X140410024Y-98869453D01*
X140505262Y-98964691D01*
X140552881Y-99107548D01*
X140552881Y-99202786D01*
X139552881Y-97869452D02*
X139552881Y-98345643D01*
X140029071Y-98393262D01*
X139981452Y-98345643D01*
X139933833Y-98250405D01*
X139933833Y-98012309D01*
X139981452Y-97917071D01*
X140029071Y-97869452D01*
X140124310Y-97821833D01*
X140362405Y-97821833D01*
X140457643Y-97869452D01*
X140505262Y-97917071D01*
X140552881Y-98012309D01*
X140552881Y-98250405D01*
X140505262Y-98345643D01*
X140457643Y-98393262D01*
X143764095Y-62126881D02*
X143764095Y-62936405D01*
X143811714Y-63031643D01*
X143859333Y-63079262D01*
X143954571Y-63126881D01*
X144145048Y-63126881D01*
X144240286Y-63079262D01*
X144287905Y-63031643D01*
X144335524Y-62936405D01*
X144335524Y-62126881D01*
X145240286Y-62460214D02*
X145240286Y-63126881D01*
X145002190Y-62079262D02*
X144764095Y-62793548D01*
X145383143Y-62793548D01*
D14*
X148033857Y-61233190D02*
X147748143Y-61233190D01*
X147891000Y-61233190D02*
X147891000Y-60733190D01*
X147843381Y-60804619D01*
X147795762Y-60852238D01*
X147748143Y-60876048D01*
D13*
X142430333Y-57395381D02*
X142430333Y-56395381D01*
X142763667Y-57109667D01*
X143097000Y-56395381D01*
X143097000Y-57395381D01*
X143525571Y-57109667D02*
X144001762Y-57109667D01*
X143430333Y-57395381D02*
X143763666Y-56395381D01*
X144097000Y-57395381D01*
X144335095Y-56395381D02*
X145001762Y-57395381D01*
X145001762Y-56395381D02*
X144335095Y-57395381D01*
X146144619Y-57395381D02*
X146144619Y-56395381D01*
X146477953Y-57109667D01*
X146811286Y-56395381D01*
X146811286Y-57395381D01*
X147430333Y-56823952D02*
X147335095Y-56776333D01*
X147287476Y-56728714D01*
X147239857Y-56633476D01*
X147239857Y-56585857D01*
X147287476Y-56490619D01*
X147335095Y-56443000D01*
X147430333Y-56395381D01*
X147620810Y-56395381D01*
X147716048Y-56443000D01*
X147763667Y-56490619D01*
X147811286Y-56585857D01*
X147811286Y-56633476D01*
X147763667Y-56728714D01*
X147716048Y-56776333D01*
X147620810Y-56823952D01*
X147430333Y-56823952D01*
X147335095Y-56871571D01*
X147287476Y-56919190D01*
X147239857Y-57014429D01*
X147239857Y-57204905D01*
X147287476Y-57300143D01*
X147335095Y-57347762D01*
X147430333Y-57395381D01*
X147620810Y-57395381D01*
X147716048Y-57347762D01*
X147763667Y-57300143D01*
X147811286Y-57204905D01*
X147811286Y-57014429D01*
X147763667Y-56919190D01*
X147716048Y-56871571D01*
X147620810Y-56823952D01*
X151043381Y-74660023D02*
X151757667Y-74660023D01*
X151900524Y-74707643D01*
X151995762Y-74802881D01*
X152043381Y-74945738D01*
X152043381Y-75040976D01*
X152043381Y-73660023D02*
X152043381Y-74231452D01*
X152043381Y-73945738D02*
X151043381Y-73945738D01*
X151186238Y-74040976D01*
X151281476Y-74136214D01*
X151329095Y-74231452D01*
X151138619Y-73279071D02*
X151091000Y-73231452D01*
X151043381Y-73136214D01*
X151043381Y-72898118D01*
X151091000Y-72802880D01*
X151138619Y-72755261D01*
X151233857Y-72707642D01*
X151329095Y-72707642D01*
X151471952Y-72755261D01*
X152043381Y-73326690D01*
X152043381Y-72707642D01*
X86510881Y-101091905D02*
X87320405Y-101091905D01*
X87415643Y-101044286D01*
X87463262Y-100996667D01*
X87510881Y-100901429D01*
X87510881Y-100710952D01*
X87463262Y-100615714D01*
X87415643Y-100568095D01*
X87320405Y-100520476D01*
X86510881Y-100520476D01*
X86510881Y-100139524D02*
X86510881Y-99472857D01*
X87510881Y-99901429D01*
D15*
X90671952Y-97995714D02*
X90671952Y-98068286D01*
X90671952Y-98032000D02*
X90544952Y-98032000D01*
X90563095Y-98044095D01*
X90575190Y-98056190D01*
X90581238Y-98068286D01*
D16*
X92166643Y-95573190D02*
X92178548Y-95537476D01*
X92190452Y-95525571D01*
X92214262Y-95513666D01*
X92249976Y-95513666D01*
X92273786Y-95525571D01*
X92285690Y-95537476D01*
X92297595Y-95561285D01*
X92297595Y-95656523D01*
X92047595Y-95656523D01*
X92047595Y-95573190D01*
X92059500Y-95549380D01*
X92071405Y-95537476D01*
X92095214Y-95525571D01*
X92119024Y-95525571D01*
X92142833Y-95537476D01*
X92154738Y-95549380D01*
X92166643Y-95573190D01*
X92166643Y-95656523D01*
X92297595Y-95406523D02*
X92047595Y-95406523D01*
X92297595Y-95263666D01*
X92047595Y-95263666D01*
X92047595Y-95096999D02*
X92047595Y-95049380D01*
X92059500Y-95025571D01*
X92083310Y-95001761D01*
X92130929Y-94989856D01*
X92214262Y-94989856D01*
X92261881Y-95001761D01*
X92285690Y-95025571D01*
X92297595Y-95049380D01*
X92297595Y-95096999D01*
X92285690Y-95120809D01*
X92261881Y-95144618D01*
X92214262Y-95156523D01*
X92130929Y-95156523D01*
X92083310Y-95144618D01*
X92059500Y-95120809D01*
X92047595Y-95096999D01*
X92047595Y-94835094D02*
X92047595Y-94811285D01*
X92059500Y-94787475D01*
X92071405Y-94775570D01*
X92095214Y-94763666D01*
X92142833Y-94751761D01*
X92202357Y-94751761D01*
X92249976Y-94763666D01*
X92273786Y-94775570D01*
X92285690Y-94787475D01*
X92297595Y-94811285D01*
X92297595Y-94835094D01*
X92285690Y-94858904D01*
X92273786Y-94870808D01*
X92249976Y-94882713D01*
X92202357Y-94894618D01*
X92142833Y-94894618D01*
X92095214Y-94882713D01*
X92071405Y-94870808D01*
X92059500Y-94858904D01*
X92047595Y-94835094D01*
X92047595Y-94525571D02*
X92047595Y-94644618D01*
X92166643Y-94656523D01*
X92154738Y-94644618D01*
X92142833Y-94620809D01*
X92142833Y-94561285D01*
X92154738Y-94537475D01*
X92166643Y-94525571D01*
X92190452Y-94513666D01*
X92249976Y-94513666D01*
X92273786Y-94525571D01*
X92285690Y-94537475D01*
X92297595Y-94561285D01*
X92297595Y-94620809D01*
X92285690Y-94644618D01*
X92273786Y-94656523D01*
X92047595Y-94287476D02*
X92047595Y-94406523D01*
X92166643Y-94418428D01*
X92154738Y-94406523D01*
X92142833Y-94382714D01*
X92142833Y-94323190D01*
X92154738Y-94299380D01*
X92166643Y-94287476D01*
X92190452Y-94275571D01*
X92249976Y-94275571D01*
X92273786Y-94287476D01*
X92285690Y-94299380D01*
X92297595Y-94323190D01*
X92297595Y-94382714D01*
X92285690Y-94406523D01*
X92273786Y-94418428D01*
M02*
