M48
;DRILL file {KiCad 4.0.7} date 06/23/18 17:58:28
;FORMAT={-:-/ absolute / inch / decimal}
FMAT,2
INCH,TZ
T1C0.016
T2C0.024
T3C0.039
T4C0.098
T5C0.177
T6C0.035
%
G90
G05
M72
T1
X2.845Y-3.095
X2.85Y-3.135
X2.8675Y-3.5875
X2.9025Y-3.615
X2.925Y-3.6575
X2.945Y-3.69
X3.1275Y-3.1325
X3.1475Y-3.0875
X3.1975Y-3.8125
X3.2Y-3.515
X3.2Y-3.55
X3.2Y-3.5875
X3.3725Y-3.385
X3.51Y-3.645
X3.51Y-3.835
X3.5125Y-2.8125
X3.535Y-3.125
X3.54Y-2.775
X3.5575Y-2.82
X3.585Y-3.005
X3.6025Y-3.265
X3.63Y-2.8325
X3.6425Y-3.67
X3.66Y-3.245
X3.675Y-2.745
X3.6825Y-3.855
X3.7175Y-2.82
X3.725Y-3.9275
X3.76Y-3.72
X3.775Y-3.4825
X3.8Y-3.12
X3.8025Y-3.355
X3.8575Y-3.37
X3.89Y-3.1375
X3.9075Y-2.925
X3.9425Y-3.31
X4.0025Y-3.0625
X4.04Y-3.2725
X4.355Y-2.185
X4.3725Y-2.34
X4.3794Y-3.765
X4.43Y-2.53
X4.4875Y-3.51
X4.4925Y-3.6125
X4.5275Y-3.6875
X4.6325Y-2.7125
X4.66Y-2.955
X4.6725Y-3.345
X4.87Y-2.76
X4.94Y-2.64
X4.965Y-2.8575
X5.1575Y-2.87
X5.1775Y-3.03
X5.1875Y-2.95
X5.3975Y-3.345
X5.4175Y-3.0175
X5.42Y-2.62
X5.445Y-3.2375
X5.45Y-2.8775
X5.535Y-3.29
X5.5425Y-3.48
X5.6175Y-2.5275
X5.625Y-2.1125
X5.72Y-3.4525
X5.725Y-2.8525
X5.795Y-2.3625
X5.9Y-2.8662
X5.9725Y-2.52
X6.1975Y-3.7025
T2
X2.48Y-3.6475
X2.75Y-2.51
X2.905Y-3.25
X3.0125Y-2.6325
X3.0175Y-2.845
X3.4875Y-2.45
X4.925Y-2.4975
X5.1875Y-3.12
X5.4075Y-2.0575
X5.875Y-2.4775
T3
X2.805Y-2.64
X3.1225Y-2.0825
X3.715Y-2.11
X4.0575Y-2.3325
X4.075Y-2.0725
X4.075Y-2.1725
X4.5175Y-2.09
X4.5175Y-2.19
X4.6175Y-2.09
X4.6175Y-2.19
X4.6675Y-3.855
X4.7675Y-3.855
X4.8275Y-2.09
X4.8275Y-2.19
X4.8275Y-2.29
X4.8675Y-3.855
X4.9275Y-2.09
X4.9275Y-2.19
X4.9275Y-2.29
X4.9675Y-3.855
X5.14Y-2.4325
X5.24Y-2.4325
X5.265Y-3.6625
X5.265Y-3.7625
X5.265Y-3.8625
X5.34Y-2.4325
X5.6075Y-3.8775
X5.6325Y-3.75
X5.7075Y-3.8775
X5.785Y-3.1675
X5.8075Y-3.8775
X5.9075Y-3.8775
X6.14Y-3.6225
X6.1925Y-2.94
X6.195Y-2.3225
X6.2Y-2.7525
T4
X2.5725Y-2.7425
X6.14Y-2.14
X6.2Y-3.905
T5
X2.505Y-2.1369
X2.505Y-2.4125
T6
X2.6079Y-3.0659
X2.6079Y-3.2391
T0
M30
