G04 #@! TF.FileFunction,Legend,Bot*
%FSLAX46Y46*%
G04 Gerber Fmt 4.6, Leading zero omitted, Abs format (unit mm)*
G04 Created by KiCad (PCBNEW 4.0.7) date 08/24/18 12:30:51*
%MOMM*%
%LPD*%
G01*
G04 APERTURE LIST*
%ADD10C,0.100000*%
%ADD11C,0.300000*%
%ADD12C,0.010000*%
G04 APERTURE END LIST*
D10*
D11*
X82493429Y-102040500D02*
X81779143Y-102040500D01*
X82636286Y-102469071D02*
X82136286Y-100969071D01*
X81636286Y-102469071D01*
X81279143Y-101469071D02*
X80922000Y-102469071D01*
X80564858Y-101469071D01*
X79993429Y-102469071D02*
X79993429Y-101469071D01*
X79993429Y-100969071D02*
X80064858Y-101040500D01*
X79993429Y-101111929D01*
X79922001Y-101040500D01*
X79993429Y-100969071D01*
X79993429Y-101111929D01*
X79064857Y-102469071D02*
X79207715Y-102397643D01*
X79279143Y-102326214D01*
X79350572Y-102183357D01*
X79350572Y-101754786D01*
X79279143Y-101611929D01*
X79207715Y-101540500D01*
X79064857Y-101469071D01*
X78850572Y-101469071D01*
X78707715Y-101540500D01*
X78636286Y-101611929D01*
X78564857Y-101754786D01*
X78564857Y-102183357D01*
X78636286Y-102326214D01*
X78707715Y-102397643D01*
X78850572Y-102469071D01*
X79064857Y-102469071D01*
X77922000Y-101469071D02*
X77922000Y-102469071D01*
X77922000Y-101611929D02*
X77850572Y-101540500D01*
X77707714Y-101469071D01*
X77493429Y-101469071D01*
X77350572Y-101540500D01*
X77279143Y-101683357D01*
X77279143Y-102469071D01*
X76564857Y-102469071D02*
X76564857Y-101469071D01*
X76564857Y-100969071D02*
X76636286Y-101040500D01*
X76564857Y-101111929D01*
X76493429Y-101040500D01*
X76564857Y-100969071D01*
X76564857Y-101111929D01*
X75207714Y-102397643D02*
X75350571Y-102469071D01*
X75636285Y-102469071D01*
X75779143Y-102397643D01*
X75850571Y-102326214D01*
X75922000Y-102183357D01*
X75922000Y-101754786D01*
X75850571Y-101611929D01*
X75779143Y-101540500D01*
X75636285Y-101469071D01*
X75350571Y-101469071D01*
X75207714Y-101540500D01*
X74636286Y-102397643D02*
X74493429Y-102469071D01*
X74207714Y-102469071D01*
X74064857Y-102397643D01*
X73993429Y-102254786D01*
X73993429Y-102183357D01*
X74064857Y-102040500D01*
X74207714Y-101969071D01*
X74422000Y-101969071D01*
X74564857Y-101897643D01*
X74636286Y-101754786D01*
X74636286Y-101683357D01*
X74564857Y-101540500D01*
X74422000Y-101469071D01*
X74207714Y-101469071D01*
X74064857Y-101540500D01*
X71707714Y-101683357D02*
X71493428Y-101754786D01*
X71422000Y-101826214D01*
X71350571Y-101969071D01*
X71350571Y-102183357D01*
X71422000Y-102326214D01*
X71493428Y-102397643D01*
X71636286Y-102469071D01*
X72207714Y-102469071D01*
X72207714Y-100969071D01*
X71707714Y-100969071D01*
X71564857Y-101040500D01*
X71493428Y-101111929D01*
X71422000Y-101254786D01*
X71422000Y-101397643D01*
X71493428Y-101540500D01*
X71564857Y-101611929D01*
X71707714Y-101683357D01*
X72207714Y-101683357D01*
X70493428Y-102469071D02*
X70636286Y-102397643D01*
X70707714Y-102326214D01*
X70779143Y-102183357D01*
X70779143Y-101754786D01*
X70707714Y-101611929D01*
X70636286Y-101540500D01*
X70493428Y-101469071D01*
X70279143Y-101469071D01*
X70136286Y-101540500D01*
X70064857Y-101611929D01*
X69993428Y-101754786D01*
X69993428Y-102183357D01*
X70064857Y-102326214D01*
X70136286Y-102397643D01*
X70279143Y-102469071D01*
X70493428Y-102469071D01*
X68707714Y-102469071D02*
X68707714Y-101683357D01*
X68779143Y-101540500D01*
X68922000Y-101469071D01*
X69207714Y-101469071D01*
X69350571Y-101540500D01*
X68707714Y-102397643D02*
X68850571Y-102469071D01*
X69207714Y-102469071D01*
X69350571Y-102397643D01*
X69422000Y-102254786D01*
X69422000Y-102111929D01*
X69350571Y-101969071D01*
X69207714Y-101897643D01*
X68850571Y-101897643D01*
X68707714Y-101826214D01*
X67993428Y-102469071D02*
X67993428Y-101469071D01*
X67993428Y-101754786D02*
X67922000Y-101611929D01*
X67850571Y-101540500D01*
X67707714Y-101469071D01*
X67564857Y-101469071D01*
X66422000Y-102469071D02*
X66422000Y-100969071D01*
X66422000Y-102397643D02*
X66564857Y-102469071D01*
X66850571Y-102469071D01*
X66993429Y-102397643D01*
X67064857Y-102326214D01*
X67136286Y-102183357D01*
X67136286Y-101754786D01*
X67064857Y-101611929D01*
X66993429Y-101540500D01*
X66850571Y-101469071D01*
X66564857Y-101469071D01*
X66422000Y-101540500D01*
X151477927Y-102215071D02*
X151477927Y-100715071D01*
X151120784Y-100715071D01*
X150906499Y-100786500D01*
X150763641Y-100929357D01*
X150692213Y-101072214D01*
X150620784Y-101357929D01*
X150620784Y-101572214D01*
X150692213Y-101857929D01*
X150763641Y-102000786D01*
X150906499Y-102143643D01*
X151120784Y-102215071D01*
X151477927Y-102215071D01*
X149335070Y-102215071D02*
X149335070Y-101429357D01*
X149406499Y-101286500D01*
X149549356Y-101215071D01*
X149835070Y-101215071D01*
X149977927Y-101286500D01*
X149335070Y-102143643D02*
X149477927Y-102215071D01*
X149835070Y-102215071D01*
X149977927Y-102143643D01*
X150049356Y-102000786D01*
X150049356Y-101857929D01*
X149977927Y-101715071D01*
X149835070Y-101643643D01*
X149477927Y-101643643D01*
X149335070Y-101572214D01*
X148620784Y-101215071D02*
X148620784Y-102215071D01*
X148620784Y-101357929D02*
X148549356Y-101286500D01*
X148406498Y-101215071D01*
X148192213Y-101215071D01*
X148049356Y-101286500D01*
X147977927Y-101429357D01*
X147977927Y-102215071D01*
X147263641Y-101215071D02*
X147263641Y-102215071D01*
X147263641Y-101357929D02*
X147192213Y-101286500D01*
X147049355Y-101215071D01*
X146835070Y-101215071D01*
X146692213Y-101286500D01*
X146620784Y-101429357D01*
X146620784Y-102215071D01*
X146049355Y-101215071D02*
X145692212Y-102215071D01*
X145335070Y-101215071D02*
X145692212Y-102215071D01*
X145835070Y-102572214D01*
X145906498Y-102643643D01*
X146049355Y-102715071D01*
X143620784Y-102215071D02*
X143620784Y-100715071D01*
X143120784Y-101786500D01*
X142620784Y-100715071D01*
X142620784Y-102215071D01*
X141263641Y-102215071D02*
X141263641Y-101429357D01*
X141335070Y-101286500D01*
X141477927Y-101215071D01*
X141763641Y-101215071D01*
X141906498Y-101286500D01*
X141263641Y-102143643D02*
X141406498Y-102215071D01*
X141763641Y-102215071D01*
X141906498Y-102143643D01*
X141977927Y-102000786D01*
X141977927Y-101857929D01*
X141906498Y-101715071D01*
X141763641Y-101643643D01*
X141406498Y-101643643D01*
X141263641Y-101572214D01*
X140335069Y-102215071D02*
X140477927Y-102143643D01*
X140549355Y-102000786D01*
X140549355Y-100715071D01*
X139549355Y-102215071D02*
X139692213Y-102143643D01*
X139763641Y-102000786D01*
X139763641Y-100715071D01*
X138406499Y-102143643D02*
X138549356Y-102215071D01*
X138835070Y-102215071D01*
X138977927Y-102143643D01*
X139049356Y-102000786D01*
X139049356Y-101429357D01*
X138977927Y-101286500D01*
X138835070Y-101215071D01*
X138549356Y-101215071D01*
X138406499Y-101286500D01*
X138335070Y-101429357D01*
X138335070Y-101572214D01*
X139049356Y-101715071D01*
X137692213Y-102215071D02*
X137692213Y-100715071D01*
X137549356Y-101643643D02*
X137120785Y-102215071D01*
X137120785Y-101215071D02*
X137692213Y-101786500D01*
X135406499Y-100857929D02*
X135335070Y-100786500D01*
X135192213Y-100715071D01*
X134835070Y-100715071D01*
X134692213Y-100786500D01*
X134620784Y-100857929D01*
X134549356Y-101000786D01*
X134549356Y-101143643D01*
X134620784Y-101357929D01*
X135477927Y-102215071D01*
X134549356Y-102215071D01*
X133620785Y-100715071D02*
X133477928Y-100715071D01*
X133335071Y-100786500D01*
X133263642Y-100857929D01*
X133192213Y-101000786D01*
X133120785Y-101286500D01*
X133120785Y-101643643D01*
X133192213Y-101929357D01*
X133263642Y-102072214D01*
X133335071Y-102143643D01*
X133477928Y-102215071D01*
X133620785Y-102215071D01*
X133763642Y-102143643D01*
X133835071Y-102072214D01*
X133906499Y-101929357D01*
X133977928Y-101643643D01*
X133977928Y-101286500D01*
X133906499Y-101000786D01*
X133835071Y-100857929D01*
X133763642Y-100786500D01*
X133620785Y-100715071D01*
X131692214Y-102215071D02*
X132549357Y-102215071D01*
X132120785Y-102215071D02*
X132120785Y-100715071D01*
X132263642Y-100929357D01*
X132406500Y-101072214D01*
X132549357Y-101143643D01*
X130835071Y-101357929D02*
X130977929Y-101286500D01*
X131049357Y-101215071D01*
X131120786Y-101072214D01*
X131120786Y-101000786D01*
X131049357Y-100857929D01*
X130977929Y-100786500D01*
X130835071Y-100715071D01*
X130549357Y-100715071D01*
X130406500Y-100786500D01*
X130335071Y-100857929D01*
X130263643Y-101000786D01*
X130263643Y-101072214D01*
X130335071Y-101215071D01*
X130406500Y-101286500D01*
X130549357Y-101357929D01*
X130835071Y-101357929D01*
X130977929Y-101429357D01*
X131049357Y-101500786D01*
X131120786Y-101643643D01*
X131120786Y-101929357D01*
X131049357Y-102072214D01*
X130977929Y-102143643D01*
X130835071Y-102215071D01*
X130549357Y-102215071D01*
X130406500Y-102143643D01*
X130335071Y-102072214D01*
X130263643Y-101929357D01*
X130263643Y-101643643D01*
X130335071Y-101500786D01*
X130406500Y-101429357D01*
X130549357Y-101357929D01*
D12*
G36*
X91859100Y-58617187D02*
X91925105Y-58878709D01*
X92132698Y-59335957D01*
X92496248Y-60013982D01*
X93030124Y-60937836D01*
X93748693Y-62132574D01*
X94666326Y-63623248D01*
X95465703Y-64905595D01*
X96372548Y-66398334D01*
X97434781Y-68224795D01*
X98633365Y-70351631D01*
X99949265Y-72745499D01*
X100103551Y-73029580D01*
X100582606Y-73906769D01*
X101107700Y-74858652D01*
X101634612Y-75806175D01*
X102119122Y-76670283D01*
X102517012Y-77371922D01*
X102784060Y-77832039D01*
X102850194Y-77939900D01*
X103031778Y-78270344D01*
X103320771Y-78847100D01*
X103655469Y-79546935D01*
X103664149Y-79565500D01*
X104073576Y-80432133D01*
X104507587Y-81336097D01*
X104805921Y-81946944D01*
X105330526Y-83007589D01*
X104852043Y-83395041D01*
X104549707Y-83696241D01*
X104469014Y-84025533D01*
X104566933Y-84559963D01*
X104567931Y-84563975D01*
X104741628Y-85070508D01*
X105027735Y-85378953D01*
X105558090Y-85619824D01*
X105676700Y-85661601D01*
X106097929Y-85827488D01*
X106427532Y-86036921D01*
X106731576Y-86364823D01*
X107076125Y-86886116D01*
X107527245Y-87675723D01*
X107652615Y-87902422D01*
X108058942Y-88656814D01*
X108556245Y-89607633D01*
X109115684Y-90696817D01*
X109708423Y-91866306D01*
X110305623Y-93058036D01*
X110878445Y-94213948D01*
X111398053Y-95275979D01*
X111835607Y-96186068D01*
X112162270Y-96886153D01*
X112349204Y-97318174D01*
X112382300Y-97424993D01*
X112497231Y-97687858D01*
X112776599Y-98096417D01*
X112803449Y-98130896D01*
X113246431Y-98520667D01*
X113705369Y-98666881D01*
X114056319Y-98536377D01*
X114100368Y-98477877D01*
X114096001Y-98161531D01*
X113914822Y-97556544D01*
X113585280Y-96725033D01*
X113135825Y-95729110D01*
X112594904Y-94630892D01*
X111990966Y-93492494D01*
X111352460Y-92376029D01*
X111158856Y-92055365D01*
X110772738Y-91410837D01*
X110486933Y-90907680D01*
X110353957Y-90638968D01*
X110350300Y-90622338D01*
X110269071Y-90408761D01*
X110044948Y-89892835D01*
X109707284Y-89140308D01*
X109285427Y-88216925D01*
X109021225Y-87645123D01*
X108566609Y-86640369D01*
X108186729Y-85753318D01*
X107909996Y-85054178D01*
X107764817Y-84613155D01*
X107751225Y-84506555D01*
X107939408Y-84478174D01*
X108430521Y-84709312D01*
X109217697Y-85196451D01*
X109603877Y-85455349D01*
X110387881Y-85965182D01*
X111089284Y-86377252D01*
X111617100Y-86640515D01*
X111839077Y-86709305D01*
X112661143Y-86782244D01*
X113239755Y-86879590D01*
X113737755Y-87034786D01*
X114052174Y-87163767D01*
X114760508Y-87423295D01*
X115241553Y-87460672D01*
X115606856Y-87278134D01*
X115694881Y-87196691D01*
X115861046Y-86923484D01*
X115888990Y-86499106D01*
X115797998Y-85855021D01*
X115705377Y-85250839D01*
X115673591Y-84833357D01*
X115690904Y-84723562D01*
X115912099Y-84740943D01*
X116359634Y-84887179D01*
X116510175Y-84947632D01*
X117005347Y-85144041D01*
X117319899Y-85249419D01*
X117354174Y-85255100D01*
X117479306Y-85158893D01*
X117354069Y-84858738D01*
X116965622Y-84337333D01*
X116301123Y-83577377D01*
X115379500Y-82594724D01*
X114585621Y-81757077D01*
X113843539Y-80958223D01*
X113223058Y-80274406D01*
X112793982Y-79781869D01*
X112709712Y-79678637D01*
X112213604Y-79148040D01*
X111687336Y-78723304D01*
X111541312Y-78636523D01*
X111142487Y-78452463D01*
X110985332Y-78480996D01*
X110959900Y-78680100D01*
X111074387Y-78995577D01*
X111379013Y-79533062D01*
X111815529Y-80192905D01*
X111971856Y-80411292D01*
X112680317Y-81451663D01*
X113299933Y-82493274D01*
X113802092Y-83473291D01*
X114158181Y-84328882D01*
X114339588Y-84997213D01*
X114317701Y-85415450D01*
X114277074Y-85473606D01*
X113993821Y-85569938D01*
X113428666Y-85645998D01*
X112733358Y-85684244D01*
X111928881Y-85675939D01*
X111334906Y-85574904D01*
X110757703Y-85330344D01*
X110227702Y-85027245D01*
X109116008Y-84242362D01*
X108018969Y-83262993D01*
X107057909Y-82208555D01*
X106375073Y-81235187D01*
X106013704Y-80633976D01*
X105694032Y-80146880D01*
X105562408Y-79971900D01*
X105349616Y-79619403D01*
X105076017Y-79031699D01*
X104882469Y-78549500D01*
X104635124Y-77973994D01*
X104235041Y-77138990D01*
X103729333Y-76138856D01*
X103165118Y-75067958D01*
X102904132Y-74587100D01*
X102291792Y-73445227D01*
X101681593Y-72263885D01*
X101132952Y-71160948D01*
X100705289Y-70254290D01*
X100599473Y-70015100D01*
X99548504Y-67861011D01*
X98210205Y-65616049D01*
X96563509Y-63248329D01*
X94587347Y-60725966D01*
X93979226Y-59996084D01*
X93317200Y-59275188D01*
X92726961Y-58750845D01*
X92255925Y-58453896D01*
X91951509Y-58415179D01*
X91859100Y-58617187D01*
X91859100Y-58617187D01*
G37*
X91859100Y-58617187D02*
X91925105Y-58878709D01*
X92132698Y-59335957D01*
X92496248Y-60013982D01*
X93030124Y-60937836D01*
X93748693Y-62132574D01*
X94666326Y-63623248D01*
X95465703Y-64905595D01*
X96372548Y-66398334D01*
X97434781Y-68224795D01*
X98633365Y-70351631D01*
X99949265Y-72745499D01*
X100103551Y-73029580D01*
X100582606Y-73906769D01*
X101107700Y-74858652D01*
X101634612Y-75806175D01*
X102119122Y-76670283D01*
X102517012Y-77371922D01*
X102784060Y-77832039D01*
X102850194Y-77939900D01*
X103031778Y-78270344D01*
X103320771Y-78847100D01*
X103655469Y-79546935D01*
X103664149Y-79565500D01*
X104073576Y-80432133D01*
X104507587Y-81336097D01*
X104805921Y-81946944D01*
X105330526Y-83007589D01*
X104852043Y-83395041D01*
X104549707Y-83696241D01*
X104469014Y-84025533D01*
X104566933Y-84559963D01*
X104567931Y-84563975D01*
X104741628Y-85070508D01*
X105027735Y-85378953D01*
X105558090Y-85619824D01*
X105676700Y-85661601D01*
X106097929Y-85827488D01*
X106427532Y-86036921D01*
X106731576Y-86364823D01*
X107076125Y-86886116D01*
X107527245Y-87675723D01*
X107652615Y-87902422D01*
X108058942Y-88656814D01*
X108556245Y-89607633D01*
X109115684Y-90696817D01*
X109708423Y-91866306D01*
X110305623Y-93058036D01*
X110878445Y-94213948D01*
X111398053Y-95275979D01*
X111835607Y-96186068D01*
X112162270Y-96886153D01*
X112349204Y-97318174D01*
X112382300Y-97424993D01*
X112497231Y-97687858D01*
X112776599Y-98096417D01*
X112803449Y-98130896D01*
X113246431Y-98520667D01*
X113705369Y-98666881D01*
X114056319Y-98536377D01*
X114100368Y-98477877D01*
X114096001Y-98161531D01*
X113914822Y-97556544D01*
X113585280Y-96725033D01*
X113135825Y-95729110D01*
X112594904Y-94630892D01*
X111990966Y-93492494D01*
X111352460Y-92376029D01*
X111158856Y-92055365D01*
X110772738Y-91410837D01*
X110486933Y-90907680D01*
X110353957Y-90638968D01*
X110350300Y-90622338D01*
X110269071Y-90408761D01*
X110044948Y-89892835D01*
X109707284Y-89140308D01*
X109285427Y-88216925D01*
X109021225Y-87645123D01*
X108566609Y-86640369D01*
X108186729Y-85753318D01*
X107909996Y-85054178D01*
X107764817Y-84613155D01*
X107751225Y-84506555D01*
X107939408Y-84478174D01*
X108430521Y-84709312D01*
X109217697Y-85196451D01*
X109603877Y-85455349D01*
X110387881Y-85965182D01*
X111089284Y-86377252D01*
X111617100Y-86640515D01*
X111839077Y-86709305D01*
X112661143Y-86782244D01*
X113239755Y-86879590D01*
X113737755Y-87034786D01*
X114052174Y-87163767D01*
X114760508Y-87423295D01*
X115241553Y-87460672D01*
X115606856Y-87278134D01*
X115694881Y-87196691D01*
X115861046Y-86923484D01*
X115888990Y-86499106D01*
X115797998Y-85855021D01*
X115705377Y-85250839D01*
X115673591Y-84833357D01*
X115690904Y-84723562D01*
X115912099Y-84740943D01*
X116359634Y-84887179D01*
X116510175Y-84947632D01*
X117005347Y-85144041D01*
X117319899Y-85249419D01*
X117354174Y-85255100D01*
X117479306Y-85158893D01*
X117354069Y-84858738D01*
X116965622Y-84337333D01*
X116301123Y-83577377D01*
X115379500Y-82594724D01*
X114585621Y-81757077D01*
X113843539Y-80958223D01*
X113223058Y-80274406D01*
X112793982Y-79781869D01*
X112709712Y-79678637D01*
X112213604Y-79148040D01*
X111687336Y-78723304D01*
X111541312Y-78636523D01*
X111142487Y-78452463D01*
X110985332Y-78480996D01*
X110959900Y-78680100D01*
X111074387Y-78995577D01*
X111379013Y-79533062D01*
X111815529Y-80192905D01*
X111971856Y-80411292D01*
X112680317Y-81451663D01*
X113299933Y-82493274D01*
X113802092Y-83473291D01*
X114158181Y-84328882D01*
X114339588Y-84997213D01*
X114317701Y-85415450D01*
X114277074Y-85473606D01*
X113993821Y-85569938D01*
X113428666Y-85645998D01*
X112733358Y-85684244D01*
X111928881Y-85675939D01*
X111334906Y-85574904D01*
X110757703Y-85330344D01*
X110227702Y-85027245D01*
X109116008Y-84242362D01*
X108018969Y-83262993D01*
X107057909Y-82208555D01*
X106375073Y-81235187D01*
X106013704Y-80633976D01*
X105694032Y-80146880D01*
X105562408Y-79971900D01*
X105349616Y-79619403D01*
X105076017Y-79031699D01*
X104882469Y-78549500D01*
X104635124Y-77973994D01*
X104235041Y-77138990D01*
X103729333Y-76138856D01*
X103165118Y-75067958D01*
X102904132Y-74587100D01*
X102291792Y-73445227D01*
X101681593Y-72263885D01*
X101132952Y-71160948D01*
X100705289Y-70254290D01*
X100599473Y-70015100D01*
X99548504Y-67861011D01*
X98210205Y-65616049D01*
X96563509Y-63248329D01*
X94587347Y-60725966D01*
X93979226Y-59996084D01*
X93317200Y-59275188D01*
X92726961Y-58750845D01*
X92255925Y-58453896D01*
X91951509Y-58415179D01*
X91859100Y-58617187D01*
G36*
X106136325Y-90353631D02*
X106028627Y-90447625D01*
X105956226Y-90674682D01*
X105912140Y-91092399D01*
X105889386Y-91758377D01*
X105880984Y-92730214D01*
X105879900Y-93687900D01*
X105879900Y-97040700D01*
X104254300Y-97040700D01*
X103420219Y-97055056D01*
X102919656Y-97107144D01*
X102680450Y-97210496D01*
X102628700Y-97345500D01*
X102695848Y-97487634D01*
X102941855Y-97578887D01*
X103433565Y-97629286D01*
X104237822Y-97648857D01*
X104660700Y-97650300D01*
X106692700Y-97650300D01*
X106692700Y-93992700D01*
X106690776Y-92692395D01*
X106680914Y-91743312D01*
X106656986Y-91090277D01*
X106612860Y-90678117D01*
X106542406Y-90451657D01*
X106439493Y-90355724D01*
X106297992Y-90335144D01*
X106286300Y-90335100D01*
X106136325Y-90353631D01*
X106136325Y-90353631D01*
G37*
X106136325Y-90353631D02*
X106028627Y-90447625D01*
X105956226Y-90674682D01*
X105912140Y-91092399D01*
X105889386Y-91758377D01*
X105880984Y-92730214D01*
X105879900Y-93687900D01*
X105879900Y-97040700D01*
X104254300Y-97040700D01*
X103420219Y-97055056D01*
X102919656Y-97107144D01*
X102680450Y-97210496D01*
X102628700Y-97345500D01*
X102695848Y-97487634D01*
X102941855Y-97578887D01*
X103433565Y-97629286D01*
X104237822Y-97648857D01*
X104660700Y-97650300D01*
X106692700Y-97650300D01*
X106692700Y-93992700D01*
X106690776Y-92692395D01*
X106680914Y-91743312D01*
X106656986Y-91090277D01*
X106612860Y-90678117D01*
X106542406Y-90451657D01*
X106439493Y-90355724D01*
X106297992Y-90335144D01*
X106286300Y-90335100D01*
X106136325Y-90353631D01*
G36*
X98995869Y-92211324D02*
X98288985Y-92444366D01*
X98130012Y-92551924D01*
X97922336Y-92747826D01*
X97781378Y-92990952D01*
X97690929Y-93362436D01*
X97634782Y-93943414D01*
X97596728Y-94815023D01*
X97582015Y-95295124D01*
X97558949Y-96314703D01*
X97564737Y-96994230D01*
X97606469Y-97399472D01*
X97691239Y-97596195D01*
X97826140Y-97650165D01*
X97836015Y-97650300D01*
X98103197Y-97480522D01*
X98158300Y-97243900D01*
X98208882Y-96913266D01*
X98278650Y-96837500D01*
X98505970Y-96950879D01*
X98892258Y-97225592D01*
X98915653Y-97243900D01*
X99604523Y-97564300D01*
X100418925Y-97634004D01*
X101171841Y-97446132D01*
X101364287Y-97333977D01*
X101698141Y-96952872D01*
X101813725Y-96361802D01*
X101815900Y-96231126D01*
X101811837Y-96210071D01*
X101129538Y-96210071D01*
X101007208Y-96626624D01*
X100635524Y-96936872D01*
X100054353Y-97055600D01*
X99412923Y-96982296D01*
X98860462Y-96716449D01*
X98767900Y-96634300D01*
X98436217Y-96041523D01*
X98361500Y-95504249D01*
X98361500Y-94780598D01*
X99326700Y-94920622D01*
X99977199Y-95040847D01*
X100496200Y-95181402D01*
X100633739Y-95237657D01*
X101022918Y-95641800D01*
X101129538Y-96210071D01*
X101811837Y-96210071D01*
X101676938Y-95511035D01*
X101239928Y-94991605D01*
X100474689Y-94649401D01*
X99563676Y-94482617D01*
X98894603Y-94394376D01*
X98534880Y-94286471D01*
X98389011Y-94103735D01*
X98361501Y-93791001D01*
X98361500Y-93788134D01*
X98466118Y-93230461D01*
X98812068Y-92909555D01*
X99447494Y-92798835D01*
X100092502Y-92832382D01*
X100777620Y-92860204D01*
X101146843Y-92786121D01*
X101172619Y-92631999D01*
X100827396Y-92419705D01*
X100685072Y-92362070D01*
X99849599Y-92179803D01*
X98995869Y-92211324D01*
X98995869Y-92211324D01*
G37*
X98995869Y-92211324D02*
X98288985Y-92444366D01*
X98130012Y-92551924D01*
X97922336Y-92747826D01*
X97781378Y-92990952D01*
X97690929Y-93362436D01*
X97634782Y-93943414D01*
X97596728Y-94815023D01*
X97582015Y-95295124D01*
X97558949Y-96314703D01*
X97564737Y-96994230D01*
X97606469Y-97399472D01*
X97691239Y-97596195D01*
X97826140Y-97650165D01*
X97836015Y-97650300D01*
X98103197Y-97480522D01*
X98158300Y-97243900D01*
X98208882Y-96913266D01*
X98278650Y-96837500D01*
X98505970Y-96950879D01*
X98892258Y-97225592D01*
X98915653Y-97243900D01*
X99604523Y-97564300D01*
X100418925Y-97634004D01*
X101171841Y-97446132D01*
X101364287Y-97333977D01*
X101698141Y-96952872D01*
X101813725Y-96361802D01*
X101815900Y-96231126D01*
X101811837Y-96210071D01*
X101129538Y-96210071D01*
X101007208Y-96626624D01*
X100635524Y-96936872D01*
X100054353Y-97055600D01*
X99412923Y-96982296D01*
X98860462Y-96716449D01*
X98767900Y-96634300D01*
X98436217Y-96041523D01*
X98361500Y-95504249D01*
X98361500Y-94780598D01*
X99326700Y-94920622D01*
X99977199Y-95040847D01*
X100496200Y-95181402D01*
X100633739Y-95237657D01*
X101022918Y-95641800D01*
X101129538Y-96210071D01*
X101811837Y-96210071D01*
X101676938Y-95511035D01*
X101239928Y-94991605D01*
X100474689Y-94649401D01*
X99563676Y-94482617D01*
X98894603Y-94394376D01*
X98534880Y-94286471D01*
X98389011Y-94103735D01*
X98361501Y-93791001D01*
X98361500Y-93788134D01*
X98466118Y-93230461D01*
X98812068Y-92909555D01*
X99447494Y-92798835D01*
X100092502Y-92832382D01*
X100777620Y-92860204D01*
X101146843Y-92786121D01*
X101172619Y-92631999D01*
X100827396Y-92419705D01*
X100685072Y-92362070D01*
X99849599Y-92179803D01*
X98995869Y-92211324D01*
G36*
X95051789Y-90008027D02*
X94957486Y-90294877D01*
X94914470Y-90862554D01*
X94907100Y-91467448D01*
X94907100Y-93006196D01*
X94371697Y-92585048D01*
X93626687Y-92234884D01*
X92777296Y-92189163D01*
X91986256Y-92448125D01*
X91789802Y-92581195D01*
X91269949Y-93227822D01*
X90972636Y-94096444D01*
X90901401Y-95066710D01*
X91059785Y-96018270D01*
X91451327Y-96830773D01*
X91657674Y-97073735D01*
X92380827Y-97534193D01*
X93215616Y-97661096D01*
X94033817Y-97446511D01*
X94356994Y-97240717D01*
X94877694Y-96831134D01*
X95007690Y-97240717D01*
X95166776Y-97620508D01*
X95294126Y-97647382D01*
X95391256Y-97311061D01*
X95459681Y-96601264D01*
X95500918Y-95507714D01*
X95507234Y-94904068D01*
X94805500Y-94904068D01*
X94805500Y-94907100D01*
X94726204Y-95903507D01*
X94468830Y-96563137D01*
X94004152Y-96927372D01*
X93302942Y-97037596D01*
X93300807Y-97037588D01*
X92750740Y-96996404D01*
X92372124Y-96899826D01*
X92346720Y-96885188D01*
X91946578Y-96392985D01*
X91709036Y-95604197D01*
X91655900Y-94907100D01*
X91758384Y-93960087D01*
X92045392Y-93246882D01*
X92346720Y-92929011D01*
X92688434Y-92827747D01*
X93228180Y-92777632D01*
X93300807Y-92776611D01*
X94002663Y-92886235D01*
X94467913Y-93249764D01*
X94725783Y-93908581D01*
X94805500Y-94904068D01*
X95507234Y-94904068D01*
X95516483Y-94020131D01*
X95516700Y-93789500D01*
X95512719Y-92427192D01*
X95498101Y-91420470D01*
X95468841Y-90718575D01*
X95420931Y-90270746D01*
X95350363Y-90026223D01*
X95253130Y-89934246D01*
X95211900Y-89928700D01*
X95051789Y-90008027D01*
X95051789Y-90008027D01*
G37*
X95051789Y-90008027D02*
X94957486Y-90294877D01*
X94914470Y-90862554D01*
X94907100Y-91467448D01*
X94907100Y-93006196D01*
X94371697Y-92585048D01*
X93626687Y-92234884D01*
X92777296Y-92189163D01*
X91986256Y-92448125D01*
X91789802Y-92581195D01*
X91269949Y-93227822D01*
X90972636Y-94096444D01*
X90901401Y-95066710D01*
X91059785Y-96018270D01*
X91451327Y-96830773D01*
X91657674Y-97073735D01*
X92380827Y-97534193D01*
X93215616Y-97661096D01*
X94033817Y-97446511D01*
X94356994Y-97240717D01*
X94877694Y-96831134D01*
X95007690Y-97240717D01*
X95166776Y-97620508D01*
X95294126Y-97647382D01*
X95391256Y-97311061D01*
X95459681Y-96601264D01*
X95500918Y-95507714D01*
X95507234Y-94904068D01*
X94805500Y-94904068D01*
X94805500Y-94907100D01*
X94726204Y-95903507D01*
X94468830Y-96563137D01*
X94004152Y-96927372D01*
X93302942Y-97037596D01*
X93300807Y-97037588D01*
X92750740Y-96996404D01*
X92372124Y-96899826D01*
X92346720Y-96885188D01*
X91946578Y-96392985D01*
X91709036Y-95604197D01*
X91655900Y-94907100D01*
X91758384Y-93960087D01*
X92045392Y-93246882D01*
X92346720Y-92929011D01*
X92688434Y-92827747D01*
X93228180Y-92777632D01*
X93300807Y-92776611D01*
X94002663Y-92886235D01*
X94467913Y-93249764D01*
X94725783Y-93908581D01*
X94805500Y-94904068D01*
X95507234Y-94904068D01*
X95516483Y-94020131D01*
X95516700Y-93789500D01*
X95512719Y-92427192D01*
X95498101Y-91420470D01*
X95468841Y-90718575D01*
X95420931Y-90270746D01*
X95350363Y-90026223D01*
X95253130Y-89934246D01*
X95211900Y-89928700D01*
X95051789Y-90008027D01*
G36*
X86841386Y-92217837D02*
X86282008Y-92357162D01*
X86075799Y-92573574D01*
X86088988Y-92653580D01*
X86339757Y-92801276D01*
X86949595Y-92836179D01*
X87353134Y-92815416D01*
X88095824Y-92794126D01*
X88546216Y-92875548D01*
X88791241Y-93054370D01*
X88968236Y-93405604D01*
X88861973Y-93744341D01*
X88439291Y-94109935D01*
X87667029Y-94541740D01*
X87447321Y-94649340D01*
X86677977Y-95052101D01*
X86226113Y-95380678D01*
X86023500Y-95688916D01*
X86000259Y-95791368D01*
X86027451Y-96611268D01*
X86359898Y-97196901D01*
X86682190Y-97412263D01*
X87210915Y-97549293D01*
X87942183Y-97622222D01*
X88691291Y-97623942D01*
X89273540Y-97547343D01*
X89369900Y-97515724D01*
X89606001Y-97253259D01*
X89623900Y-97148765D01*
X89517461Y-97004836D01*
X89153534Y-96950630D01*
X88465203Y-96977647D01*
X88348074Y-96986709D01*
X87584054Y-97022497D01*
X87116603Y-96968263D01*
X86842976Y-96809546D01*
X86807295Y-96769871D01*
X86596850Y-96343925D01*
X86721168Y-95937136D01*
X87202566Y-95517213D01*
X87960802Y-95100769D01*
X88631685Y-94749084D01*
X89159435Y-94420999D01*
X89430329Y-94187251D01*
X89430891Y-94186369D01*
X89620468Y-93577155D01*
X89462124Y-93004225D01*
X89013138Y-92535071D01*
X88330787Y-92237190D01*
X87716897Y-92166674D01*
X86841386Y-92217837D01*
X86841386Y-92217837D01*
G37*
X86841386Y-92217837D02*
X86282008Y-92357162D01*
X86075799Y-92573574D01*
X86088988Y-92653580D01*
X86339757Y-92801276D01*
X86949595Y-92836179D01*
X87353134Y-92815416D01*
X88095824Y-92794126D01*
X88546216Y-92875548D01*
X88791241Y-93054370D01*
X88968236Y-93405604D01*
X88861973Y-93744341D01*
X88439291Y-94109935D01*
X87667029Y-94541740D01*
X87447321Y-94649340D01*
X86677977Y-95052101D01*
X86226113Y-95380678D01*
X86023500Y-95688916D01*
X86000259Y-95791368D01*
X86027451Y-96611268D01*
X86359898Y-97196901D01*
X86682190Y-97412263D01*
X87210915Y-97549293D01*
X87942183Y-97622222D01*
X88691291Y-97623942D01*
X89273540Y-97547343D01*
X89369900Y-97515724D01*
X89606001Y-97253259D01*
X89623900Y-97148765D01*
X89517461Y-97004836D01*
X89153534Y-96950630D01*
X88465203Y-96977647D01*
X88348074Y-96986709D01*
X87584054Y-97022497D01*
X87116603Y-96968263D01*
X86842976Y-96809546D01*
X86807295Y-96769871D01*
X86596850Y-96343925D01*
X86721168Y-95937136D01*
X87202566Y-95517213D01*
X87960802Y-95100769D01*
X88631685Y-94749084D01*
X89159435Y-94420999D01*
X89430329Y-94187251D01*
X89430891Y-94186369D01*
X89620468Y-93577155D01*
X89462124Y-93004225D01*
X89013138Y-92535071D01*
X88330787Y-92237190D01*
X87716897Y-92166674D01*
X86841386Y-92217837D01*
G36*
X75255777Y-60686939D02*
X75220121Y-60800053D01*
X75299824Y-61091230D01*
X75510344Y-61644462D01*
X75623686Y-61930377D01*
X75836785Y-62492712D01*
X76147347Y-63346343D01*
X76521957Y-64397816D01*
X76927201Y-65553676D01*
X77170282Y-66255900D01*
X77571709Y-67399771D01*
X77959497Y-68465561D01*
X78301957Y-69368985D01*
X78567398Y-70025755D01*
X78682969Y-70279180D01*
X78932029Y-70828943D01*
X79253362Y-71621430D01*
X79589937Y-72514089D01*
X79699155Y-72819180D01*
X80026262Y-73710121D01*
X80356102Y-74546996D01*
X80632400Y-75188836D01*
X80705883Y-75341004D01*
X81009746Y-76124233D01*
X81065216Y-76747998D01*
X80870764Y-77144147D01*
X80747918Y-77214697D01*
X80624756Y-77330969D01*
X80701451Y-77554676D01*
X81012780Y-77941634D01*
X81552752Y-78506437D01*
X82207247Y-79256923D01*
X82935974Y-80266879D01*
X83767114Y-81577741D01*
X84542886Y-82902823D01*
X85704616Y-84884362D01*
X86719615Y-86493025D01*
X87591269Y-87733595D01*
X88322966Y-88610854D01*
X88918091Y-89129586D01*
X88977781Y-89166384D01*
X89583937Y-89521669D01*
X89306674Y-88600393D01*
X89099125Y-88072444D01*
X88732622Y-87296096D01*
X88257022Y-86371605D01*
X87722180Y-85399227D01*
X87664774Y-85298709D01*
X86812211Y-83805982D01*
X86139855Y-82608123D01*
X85622807Y-81649153D01*
X85236169Y-80873092D01*
X84955044Y-80223962D01*
X84754533Y-79645783D01*
X84609738Y-79082578D01*
X84495761Y-78478367D01*
X84422019Y-78007958D01*
X84285441Y-77152706D01*
X84157930Y-76448767D01*
X84057903Y-75993500D01*
X84019769Y-75881797D01*
X83752641Y-75743292D01*
X83430881Y-75704700D01*
X83154801Y-75651254D01*
X82885653Y-75459618D01*
X82593759Y-75082849D01*
X82249437Y-74473998D01*
X81823007Y-73586122D01*
X81284788Y-72372274D01*
X81199645Y-72175542D01*
X80736677Y-71127233D01*
X80174371Y-69891340D01*
X79545364Y-68536026D01*
X78882293Y-67129455D01*
X78217794Y-65739790D01*
X77584503Y-64435195D01*
X77015058Y-63283833D01*
X76542095Y-62353868D01*
X76198250Y-61713463D01*
X76151942Y-61633100D01*
X75806899Y-61100217D01*
X75517468Y-60749673D01*
X75391335Y-60667900D01*
X75255777Y-60686939D01*
X75255777Y-60686939D01*
G37*
X75255777Y-60686939D02*
X75220121Y-60800053D01*
X75299824Y-61091230D01*
X75510344Y-61644462D01*
X75623686Y-61930377D01*
X75836785Y-62492712D01*
X76147347Y-63346343D01*
X76521957Y-64397816D01*
X76927201Y-65553676D01*
X77170282Y-66255900D01*
X77571709Y-67399771D01*
X77959497Y-68465561D01*
X78301957Y-69368985D01*
X78567398Y-70025755D01*
X78682969Y-70279180D01*
X78932029Y-70828943D01*
X79253362Y-71621430D01*
X79589937Y-72514089D01*
X79699155Y-72819180D01*
X80026262Y-73710121D01*
X80356102Y-74546996D01*
X80632400Y-75188836D01*
X80705883Y-75341004D01*
X81009746Y-76124233D01*
X81065216Y-76747998D01*
X80870764Y-77144147D01*
X80747918Y-77214697D01*
X80624756Y-77330969D01*
X80701451Y-77554676D01*
X81012780Y-77941634D01*
X81552752Y-78506437D01*
X82207247Y-79256923D01*
X82935974Y-80266879D01*
X83767114Y-81577741D01*
X84542886Y-82902823D01*
X85704616Y-84884362D01*
X86719615Y-86493025D01*
X87591269Y-87733595D01*
X88322966Y-88610854D01*
X88918091Y-89129586D01*
X88977781Y-89166384D01*
X89583937Y-89521669D01*
X89306674Y-88600393D01*
X89099125Y-88072444D01*
X88732622Y-87296096D01*
X88257022Y-86371605D01*
X87722180Y-85399227D01*
X87664774Y-85298709D01*
X86812211Y-83805982D01*
X86139855Y-82608123D01*
X85622807Y-81649153D01*
X85236169Y-80873092D01*
X84955044Y-80223962D01*
X84754533Y-79645783D01*
X84609738Y-79082578D01*
X84495761Y-78478367D01*
X84422019Y-78007958D01*
X84285441Y-77152706D01*
X84157930Y-76448767D01*
X84057903Y-75993500D01*
X84019769Y-75881797D01*
X83752641Y-75743292D01*
X83430881Y-75704700D01*
X83154801Y-75651254D01*
X82885653Y-75459618D01*
X82593759Y-75082849D01*
X82249437Y-74473998D01*
X81823007Y-73586122D01*
X81284788Y-72372274D01*
X81199645Y-72175542D01*
X80736677Y-71127233D01*
X80174371Y-69891340D01*
X79545364Y-68536026D01*
X78882293Y-67129455D01*
X78217794Y-65739790D01*
X77584503Y-64435195D01*
X77015058Y-63283833D01*
X76542095Y-62353868D01*
X76198250Y-61713463D01*
X76151942Y-61633100D01*
X75806899Y-61100217D01*
X75517468Y-60749673D01*
X75391335Y-60667900D01*
X75255777Y-60686939D01*
G36*
X96302791Y-78238867D02*
X95753847Y-78556826D01*
X95431431Y-79142966D01*
X95386289Y-79303148D01*
X95363851Y-79540648D01*
X95439190Y-79802533D01*
X95646874Y-80127721D01*
X96021472Y-80555128D01*
X96597553Y-81123671D01*
X97409686Y-81872267D01*
X98492437Y-82839832D01*
X98658453Y-82986896D01*
X99356776Y-83587915D01*
X99860039Y-83960044D01*
X100265605Y-84156617D01*
X100670839Y-84230965D01*
X100944453Y-84239100D01*
X101698285Y-84362183D01*
X102282376Y-84688160D01*
X102598903Y-85152117D01*
X102628700Y-85356700D01*
X102494186Y-85717269D01*
X102222300Y-86067900D01*
X101691721Y-86351423D01*
X100897056Y-86475033D01*
X99950946Y-86431254D01*
X99161732Y-86270971D01*
X98322900Y-86058337D01*
X97583473Y-85907368D01*
X97020675Y-85829413D01*
X96711730Y-85835823D01*
X96698912Y-85908991D01*
X97008871Y-86131670D01*
X97591351Y-86478293D01*
X98366116Y-86907602D01*
X99252931Y-87378335D01*
X100171561Y-87849234D01*
X101041771Y-88279040D01*
X101783324Y-88626491D01*
X102315987Y-88850331D01*
X102540068Y-88912700D01*
X103001433Y-88768075D01*
X103338037Y-88508358D01*
X103580274Y-88060590D01*
X103757495Y-87410331D01*
X103795189Y-87136758D01*
X103815384Y-86689171D01*
X103765216Y-86261370D01*
X103616256Y-85765742D01*
X103340075Y-85114675D01*
X102908247Y-84220557D01*
X102738985Y-83881635D01*
X102176220Y-82801217D01*
X101819405Y-82205465D01*
X100674259Y-82205465D01*
X100476661Y-82395957D01*
X100326075Y-82410300D01*
X100038464Y-82305326D01*
X99530597Y-82031298D01*
X98966467Y-81682082D01*
X97899541Y-80927183D01*
X97167973Y-80281505D01*
X96788518Y-79761128D01*
X96735900Y-79541667D01*
X96878478Y-79310122D01*
X97261205Y-79310514D01*
X97816570Y-79509247D01*
X98477063Y-79872727D01*
X99175174Y-80367360D01*
X99843392Y-80959549D01*
X100075970Y-81203766D01*
X100539792Y-81803707D01*
X100674259Y-82205465D01*
X101819405Y-82205465D01*
X101675309Y-81964879D01*
X101142288Y-81241357D01*
X100483195Y-80499387D01*
X99866219Y-79868435D01*
X99131589Y-79139992D01*
X98606762Y-78652230D01*
X98215732Y-78356906D01*
X97882497Y-78205776D01*
X97531056Y-78150597D01*
X97148106Y-78143100D01*
X96302791Y-78238867D01*
X96302791Y-78238867D01*
G37*
X96302791Y-78238867D02*
X95753847Y-78556826D01*
X95431431Y-79142966D01*
X95386289Y-79303148D01*
X95363851Y-79540648D01*
X95439190Y-79802533D01*
X95646874Y-80127721D01*
X96021472Y-80555128D01*
X96597553Y-81123671D01*
X97409686Y-81872267D01*
X98492437Y-82839832D01*
X98658453Y-82986896D01*
X99356776Y-83587915D01*
X99860039Y-83960044D01*
X100265605Y-84156617D01*
X100670839Y-84230965D01*
X100944453Y-84239100D01*
X101698285Y-84362183D01*
X102282376Y-84688160D01*
X102598903Y-85152117D01*
X102628700Y-85356700D01*
X102494186Y-85717269D01*
X102222300Y-86067900D01*
X101691721Y-86351423D01*
X100897056Y-86475033D01*
X99950946Y-86431254D01*
X99161732Y-86270971D01*
X98322900Y-86058337D01*
X97583473Y-85907368D01*
X97020675Y-85829413D01*
X96711730Y-85835823D01*
X96698912Y-85908991D01*
X97008871Y-86131670D01*
X97591351Y-86478293D01*
X98366116Y-86907602D01*
X99252931Y-87378335D01*
X100171561Y-87849234D01*
X101041771Y-88279040D01*
X101783324Y-88626491D01*
X102315987Y-88850331D01*
X102540068Y-88912700D01*
X103001433Y-88768075D01*
X103338037Y-88508358D01*
X103580274Y-88060590D01*
X103757495Y-87410331D01*
X103795189Y-87136758D01*
X103815384Y-86689171D01*
X103765216Y-86261370D01*
X103616256Y-85765742D01*
X103340075Y-85114675D01*
X102908247Y-84220557D01*
X102738985Y-83881635D01*
X102176220Y-82801217D01*
X101819405Y-82205465D01*
X100674259Y-82205465D01*
X100476661Y-82395957D01*
X100326075Y-82410300D01*
X100038464Y-82305326D01*
X99530597Y-82031298D01*
X98966467Y-81682082D01*
X97899541Y-80927183D01*
X97167973Y-80281505D01*
X96788518Y-79761128D01*
X96735900Y-79541667D01*
X96878478Y-79310122D01*
X97261205Y-79310514D01*
X97816570Y-79509247D01*
X98477063Y-79872727D01*
X99175174Y-80367360D01*
X99843392Y-80959549D01*
X100075970Y-81203766D01*
X100539792Y-81803707D01*
X100674259Y-82205465D01*
X101819405Y-82205465D01*
X101675309Y-81964879D01*
X101142288Y-81241357D01*
X100483195Y-80499387D01*
X99866219Y-79868435D01*
X99131589Y-79139992D01*
X98606762Y-78652230D01*
X98215732Y-78356906D01*
X97882497Y-78205776D01*
X97531056Y-78150597D01*
X97148106Y-78143100D01*
X96302791Y-78238867D01*
G36*
X130705860Y-63078602D02*
X130670300Y-63408920D01*
X130760596Y-64036302D01*
X131042261Y-64847149D01*
X131531464Y-65875899D01*
X132244373Y-67156990D01*
X133071400Y-68523295D01*
X133643612Y-69451931D01*
X134130768Y-70258875D01*
X134495906Y-70881592D01*
X134702066Y-71257550D01*
X134734300Y-71336727D01*
X134840940Y-71583931D01*
X135099280Y-71991821D01*
X135116110Y-72015731D01*
X135445874Y-72577781D01*
X135850084Y-73405869D01*
X136277071Y-74379694D01*
X136675167Y-75378958D01*
X136992702Y-76283361D01*
X137093264Y-76619100D01*
X137249104Y-77305580D01*
X137412723Y-78225942D01*
X137554574Y-79209388D01*
X137585346Y-79463900D01*
X137695473Y-80388658D01*
X137804800Y-81252701D01*
X137894496Y-81908756D01*
X137916608Y-82054700D01*
X137954194Y-82596976D01*
X137833888Y-82783498D01*
X137548360Y-82612180D01*
X137090278Y-82080939D01*
X136844602Y-81749900D01*
X136414477Y-81175675D01*
X135804242Y-80390263D01*
X135093577Y-79495000D01*
X134362166Y-78591217D01*
X134328018Y-78549500D01*
X133594976Y-77632428D01*
X132714724Y-76496813D01*
X131773953Y-75256453D01*
X130859353Y-74025147D01*
X130380752Y-73367900D01*
X129592102Y-72279980D01*
X128800996Y-71197185D01*
X128071429Y-70206512D01*
X127467400Y-69394960D01*
X127139630Y-68961877D01*
X126593031Y-68217076D01*
X126096613Y-67485135D01*
X125744214Y-66905460D01*
X125703436Y-66828277D01*
X125228006Y-65977645D01*
X124780574Y-65325080D01*
X124398007Y-64908043D01*
X124117173Y-64763994D01*
X123974940Y-64930393D01*
X123964700Y-65061580D01*
X123912785Y-65277426D01*
X123694221Y-65166270D01*
X123654990Y-65134224D01*
X123343891Y-64970075D01*
X123200599Y-65094230D01*
X123207395Y-65433414D01*
X123346557Y-65914350D01*
X123600364Y-66463763D01*
X123951095Y-67008377D01*
X124171966Y-67271900D01*
X124698005Y-67912782D01*
X125358982Y-68831862D01*
X126102500Y-69946689D01*
X126876159Y-71174815D01*
X127627563Y-72433789D01*
X128304313Y-73641163D01*
X128691747Y-74383900D01*
X129974185Y-77071330D01*
X130999699Y-79508527D01*
X131762161Y-81679625D01*
X132255445Y-83568761D01*
X132273619Y-83658990D01*
X132492051Y-84793845D01*
X132625272Y-85612221D01*
X132674923Y-86194650D01*
X132642648Y-86621662D01*
X132530089Y-86973790D01*
X132348210Y-87315822D01*
X132060601Y-87706537D01*
X131715536Y-87858285D01*
X131179810Y-87855175D01*
X130365500Y-87795100D01*
X130221299Y-86633831D01*
X130118295Y-86110592D01*
X129044700Y-86110592D01*
X128935661Y-86274286D01*
X128617049Y-86106045D01*
X128101623Y-85614123D01*
X127852733Y-85339410D01*
X127458482Y-84824194D01*
X126994013Y-84114871D01*
X126501447Y-83289751D01*
X126022899Y-82427144D01*
X125600489Y-81605359D01*
X125276334Y-80902706D01*
X125092552Y-80397495D01*
X125078492Y-80181262D01*
X125352967Y-80079886D01*
X125811006Y-80237603D01*
X126281571Y-80561586D01*
X126821358Y-81151128D01*
X127400354Y-82003571D01*
X127964537Y-83010424D01*
X128459883Y-84063196D01*
X128832370Y-85053397D01*
X129027974Y-85872535D01*
X129044700Y-86110592D01*
X130118295Y-86110592D01*
X129841123Y-84702627D01*
X129213143Y-82894336D01*
X128374161Y-81291915D01*
X127360979Y-79978318D01*
X127193331Y-79808459D01*
X126438296Y-79221751D01*
X125600656Y-78809502D01*
X124800318Y-78617342D01*
X124206481Y-78671864D01*
X123772631Y-78885082D01*
X123525348Y-79189820D01*
X123467987Y-79638673D01*
X123603906Y-80284238D01*
X123936459Y-81179111D01*
X124438670Y-82310430D01*
X125028859Y-83645134D01*
X125487076Y-84803560D01*
X125804148Y-85751557D01*
X125970902Y-86454975D01*
X125978164Y-86879663D01*
X125816763Y-86991473D01*
X125678183Y-86924988D01*
X125535447Y-86701704D01*
X125261636Y-86162113D01*
X124884020Y-85364188D01*
X124429871Y-84365904D01*
X123926462Y-83225235D01*
X123793380Y-82918300D01*
X123155148Y-81467313D01*
X122636655Y-80352527D01*
X122214729Y-79529700D01*
X121866199Y-78954589D01*
X121567895Y-78582949D01*
X121479328Y-78499830D01*
X121048228Y-78190894D01*
X120735374Y-78079358D01*
X120673846Y-78101474D01*
X120654867Y-78356020D01*
X120740385Y-78889215D01*
X120904771Y-79594705D01*
X121122400Y-80366133D01*
X121367645Y-81097144D01*
X121442786Y-81292700D01*
X121404212Y-81394899D01*
X121108501Y-81219257D01*
X120580260Y-80780817D01*
X120525096Y-80731618D01*
X119652080Y-80035599D01*
X118948599Y-79657709D01*
X118434970Y-79606992D01*
X118245431Y-79717089D01*
X118156626Y-80081349D01*
X118275051Y-80773442D01*
X118595656Y-81774649D01*
X119113392Y-83066253D01*
X119207680Y-83283742D01*
X119616979Y-84265440D01*
X119838285Y-84940920D01*
X119873753Y-85363137D01*
X119725534Y-85585048D01*
X119395781Y-85659607D01*
X119304329Y-85661500D01*
X118595716Y-85741051D01*
X118024154Y-85947809D01*
X117700677Y-86233929D01*
X117665500Y-86367670D01*
X117801157Y-86587197D01*
X118250205Y-86673669D01*
X118435336Y-86677500D01*
X118970015Y-86728259D01*
X119551212Y-86905347D01*
X120271834Y-87245983D01*
X121224786Y-87787382D01*
X121263486Y-87810423D01*
X121748531Y-88051647D01*
X122049270Y-88064718D01*
X122170786Y-87818906D01*
X122118163Y-87283477D01*
X121896484Y-86427700D01*
X121631550Y-85585239D01*
X121345064Y-84691538D01*
X121113291Y-83932094D01*
X120962232Y-83394536D01*
X120916700Y-83176028D01*
X121016866Y-83085189D01*
X121291395Y-83293953D01*
X121701339Y-83756007D01*
X122207748Y-84425037D01*
X122771672Y-85254731D01*
X123092439Y-85763100D01*
X123605550Y-86577307D01*
X124086348Y-87303507D01*
X124468569Y-87843431D01*
X124633823Y-88049100D01*
X125112466Y-88409347D01*
X125560881Y-88481529D01*
X125875270Y-88260468D01*
X125934147Y-88113960D01*
X126139873Y-87829835D01*
X126347524Y-87840878D01*
X126705329Y-87782644D01*
X126989710Y-87520779D01*
X127321117Y-87081423D01*
X128100028Y-87610707D01*
X128778475Y-87976439D01*
X129410002Y-88070106D01*
X129614263Y-88054146D01*
X130309159Y-88081373D01*
X131117096Y-88266452D01*
X131324923Y-88338901D01*
X131991501Y-88582628D01*
X132408287Y-88678681D01*
X132704630Y-88625722D01*
X133009877Y-88422413D01*
X133136989Y-88320168D01*
X133368298Y-88099086D01*
X133509107Y-87830779D01*
X133580117Y-87417492D01*
X133602025Y-86761470D01*
X133599524Y-86135768D01*
X133543011Y-84889754D01*
X133385764Y-83651569D01*
X133109688Y-82352753D01*
X132696685Y-80924847D01*
X132128660Y-79299391D01*
X131387516Y-77407924D01*
X131121318Y-76760560D01*
X130821380Y-76005747D01*
X130607018Y-75403698D01*
X130508782Y-75043482D01*
X130511569Y-74982897D01*
X130666377Y-75084297D01*
X130975780Y-75439427D01*
X131290004Y-75857437D01*
X131819011Y-76578767D01*
X132434126Y-77388838D01*
X132797408Y-77853554D01*
X134083274Y-79480365D01*
X135136609Y-80833797D01*
X135985001Y-81952721D01*
X136656036Y-82876006D01*
X137177303Y-83642523D01*
X137576389Y-84291141D01*
X137880882Y-84860730D01*
X138078855Y-85294960D01*
X138520024Y-86314788D01*
X138851488Y-87009213D01*
X139105810Y-87433516D01*
X139315555Y-87642979D01*
X139491769Y-87693500D01*
X139841405Y-87836552D01*
X140017500Y-87998300D01*
X140399133Y-88294310D01*
X140718327Y-88204910D01*
X140967636Y-87747349D01*
X141139616Y-86938878D01*
X141226822Y-85796747D01*
X141236423Y-85173977D01*
X141197645Y-84055413D01*
X141095618Y-82819051D01*
X140951359Y-81711729D01*
X140931900Y-81597500D01*
X140799018Y-80827933D01*
X139331257Y-80827933D01*
X139299439Y-81182354D01*
X139227817Y-81179660D01*
X139128237Y-80841998D01*
X139012548Y-80191514D01*
X138901104Y-79327209D01*
X138838881Y-78626967D01*
X138854682Y-78278430D01*
X138952587Y-78233688D01*
X138991519Y-78265449D01*
X139112812Y-78564283D01*
X139222625Y-79153814D01*
X139300736Y-79918434D01*
X139311423Y-80094249D01*
X139331257Y-80827933D01*
X140799018Y-80827933D01*
X140794177Y-80799900D01*
X140688874Y-80160100D01*
X140632520Y-79779775D01*
X140627378Y-79724277D01*
X140732940Y-79611791D01*
X141010223Y-79783060D01*
X141398580Y-80188423D01*
X141739255Y-80634691D01*
X142292475Y-81326852D01*
X143072773Y-82172671D01*
X144009054Y-83107311D01*
X145030224Y-84065937D01*
X146065190Y-84983713D01*
X147042859Y-85795805D01*
X147892136Y-86437377D01*
X148541928Y-86843592D01*
X148554284Y-86849812D01*
X149714185Y-87293224D01*
X150851636Y-87483788D01*
X151905574Y-87437147D01*
X152814937Y-87168940D01*
X153518665Y-86694809D01*
X153955696Y-86030393D01*
X154071156Y-85436674D01*
X153962520Y-84576484D01*
X153625518Y-83730193D01*
X153125965Y-82991548D01*
X152529676Y-82454297D01*
X151902466Y-82212185D01*
X151803835Y-82207100D01*
X151146373Y-82276366D01*
X150476674Y-82451769D01*
X149947624Y-82684718D01*
X149737699Y-82863787D01*
X149580317Y-83384229D01*
X149652487Y-83926426D01*
X149844862Y-84215996D01*
X150033317Y-84314314D01*
X150052189Y-84099704D01*
X150024150Y-83934909D01*
X150068716Y-83331279D01*
X150471740Y-82913175D01*
X151123681Y-82695731D01*
X151859655Y-82746135D01*
X152491902Y-83174586D01*
X152989610Y-83959324D01*
X153022623Y-84036678D01*
X153198122Y-84824582D01*
X152995940Y-85475449D01*
X152433451Y-86010117D01*
X151488800Y-86407436D01*
X150403810Y-86426722D01*
X149182991Y-86069654D01*
X147830850Y-85337909D01*
X146351895Y-84233165D01*
X145409102Y-83395330D01*
X144675785Y-82700474D01*
X144028426Y-82073530D01*
X143538558Y-81584651D01*
X143281851Y-81309114D01*
X142996819Y-80975987D01*
X142528670Y-80445438D01*
X141968253Y-79820222D01*
X141844625Y-79683514D01*
X140901446Y-78598866D01*
X140115409Y-77580631D01*
X139409602Y-76513608D01*
X138707115Y-75282599D01*
X138027777Y-73966541D01*
X136722901Y-71525486D01*
X135256881Y-69074379D01*
X133735251Y-66786461D01*
X133209482Y-66056859D01*
X132644191Y-65275113D01*
X132099420Y-64495749D01*
X131676855Y-63864762D01*
X131614372Y-63766699D01*
X131180306Y-63162465D01*
X130875613Y-62932396D01*
X130705860Y-63078602D01*
X130705860Y-63078602D01*
G37*
X130705860Y-63078602D02*
X130670300Y-63408920D01*
X130760596Y-64036302D01*
X131042261Y-64847149D01*
X131531464Y-65875899D01*
X132244373Y-67156990D01*
X133071400Y-68523295D01*
X133643612Y-69451931D01*
X134130768Y-70258875D01*
X134495906Y-70881592D01*
X134702066Y-71257550D01*
X134734300Y-71336727D01*
X134840940Y-71583931D01*
X135099280Y-71991821D01*
X135116110Y-72015731D01*
X135445874Y-72577781D01*
X135850084Y-73405869D01*
X136277071Y-74379694D01*
X136675167Y-75378958D01*
X136992702Y-76283361D01*
X137093264Y-76619100D01*
X137249104Y-77305580D01*
X137412723Y-78225942D01*
X137554574Y-79209388D01*
X137585346Y-79463900D01*
X137695473Y-80388658D01*
X137804800Y-81252701D01*
X137894496Y-81908756D01*
X137916608Y-82054700D01*
X137954194Y-82596976D01*
X137833888Y-82783498D01*
X137548360Y-82612180D01*
X137090278Y-82080939D01*
X136844602Y-81749900D01*
X136414477Y-81175675D01*
X135804242Y-80390263D01*
X135093577Y-79495000D01*
X134362166Y-78591217D01*
X134328018Y-78549500D01*
X133594976Y-77632428D01*
X132714724Y-76496813D01*
X131773953Y-75256453D01*
X130859353Y-74025147D01*
X130380752Y-73367900D01*
X129592102Y-72279980D01*
X128800996Y-71197185D01*
X128071429Y-70206512D01*
X127467400Y-69394960D01*
X127139630Y-68961877D01*
X126593031Y-68217076D01*
X126096613Y-67485135D01*
X125744214Y-66905460D01*
X125703436Y-66828277D01*
X125228006Y-65977645D01*
X124780574Y-65325080D01*
X124398007Y-64908043D01*
X124117173Y-64763994D01*
X123974940Y-64930393D01*
X123964700Y-65061580D01*
X123912785Y-65277426D01*
X123694221Y-65166270D01*
X123654990Y-65134224D01*
X123343891Y-64970075D01*
X123200599Y-65094230D01*
X123207395Y-65433414D01*
X123346557Y-65914350D01*
X123600364Y-66463763D01*
X123951095Y-67008377D01*
X124171966Y-67271900D01*
X124698005Y-67912782D01*
X125358982Y-68831862D01*
X126102500Y-69946689D01*
X126876159Y-71174815D01*
X127627563Y-72433789D01*
X128304313Y-73641163D01*
X128691747Y-74383900D01*
X129974185Y-77071330D01*
X130999699Y-79508527D01*
X131762161Y-81679625D01*
X132255445Y-83568761D01*
X132273619Y-83658990D01*
X132492051Y-84793845D01*
X132625272Y-85612221D01*
X132674923Y-86194650D01*
X132642648Y-86621662D01*
X132530089Y-86973790D01*
X132348210Y-87315822D01*
X132060601Y-87706537D01*
X131715536Y-87858285D01*
X131179810Y-87855175D01*
X130365500Y-87795100D01*
X130221299Y-86633831D01*
X130118295Y-86110592D01*
X129044700Y-86110592D01*
X128935661Y-86274286D01*
X128617049Y-86106045D01*
X128101623Y-85614123D01*
X127852733Y-85339410D01*
X127458482Y-84824194D01*
X126994013Y-84114871D01*
X126501447Y-83289751D01*
X126022899Y-82427144D01*
X125600489Y-81605359D01*
X125276334Y-80902706D01*
X125092552Y-80397495D01*
X125078492Y-80181262D01*
X125352967Y-80079886D01*
X125811006Y-80237603D01*
X126281571Y-80561586D01*
X126821358Y-81151128D01*
X127400354Y-82003571D01*
X127964537Y-83010424D01*
X128459883Y-84063196D01*
X128832370Y-85053397D01*
X129027974Y-85872535D01*
X129044700Y-86110592D01*
X130118295Y-86110592D01*
X129841123Y-84702627D01*
X129213143Y-82894336D01*
X128374161Y-81291915D01*
X127360979Y-79978318D01*
X127193331Y-79808459D01*
X126438296Y-79221751D01*
X125600656Y-78809502D01*
X124800318Y-78617342D01*
X124206481Y-78671864D01*
X123772631Y-78885082D01*
X123525348Y-79189820D01*
X123467987Y-79638673D01*
X123603906Y-80284238D01*
X123936459Y-81179111D01*
X124438670Y-82310430D01*
X125028859Y-83645134D01*
X125487076Y-84803560D01*
X125804148Y-85751557D01*
X125970902Y-86454975D01*
X125978164Y-86879663D01*
X125816763Y-86991473D01*
X125678183Y-86924988D01*
X125535447Y-86701704D01*
X125261636Y-86162113D01*
X124884020Y-85364188D01*
X124429871Y-84365904D01*
X123926462Y-83225235D01*
X123793380Y-82918300D01*
X123155148Y-81467313D01*
X122636655Y-80352527D01*
X122214729Y-79529700D01*
X121866199Y-78954589D01*
X121567895Y-78582949D01*
X121479328Y-78499830D01*
X121048228Y-78190894D01*
X120735374Y-78079358D01*
X120673846Y-78101474D01*
X120654867Y-78356020D01*
X120740385Y-78889215D01*
X120904771Y-79594705D01*
X121122400Y-80366133D01*
X121367645Y-81097144D01*
X121442786Y-81292700D01*
X121404212Y-81394899D01*
X121108501Y-81219257D01*
X120580260Y-80780817D01*
X120525096Y-80731618D01*
X119652080Y-80035599D01*
X118948599Y-79657709D01*
X118434970Y-79606992D01*
X118245431Y-79717089D01*
X118156626Y-80081349D01*
X118275051Y-80773442D01*
X118595656Y-81774649D01*
X119113392Y-83066253D01*
X119207680Y-83283742D01*
X119616979Y-84265440D01*
X119838285Y-84940920D01*
X119873753Y-85363137D01*
X119725534Y-85585048D01*
X119395781Y-85659607D01*
X119304329Y-85661500D01*
X118595716Y-85741051D01*
X118024154Y-85947809D01*
X117700677Y-86233929D01*
X117665500Y-86367670D01*
X117801157Y-86587197D01*
X118250205Y-86673669D01*
X118435336Y-86677500D01*
X118970015Y-86728259D01*
X119551212Y-86905347D01*
X120271834Y-87245983D01*
X121224786Y-87787382D01*
X121263486Y-87810423D01*
X121748531Y-88051647D01*
X122049270Y-88064718D01*
X122170786Y-87818906D01*
X122118163Y-87283477D01*
X121896484Y-86427700D01*
X121631550Y-85585239D01*
X121345064Y-84691538D01*
X121113291Y-83932094D01*
X120962232Y-83394536D01*
X120916700Y-83176028D01*
X121016866Y-83085189D01*
X121291395Y-83293953D01*
X121701339Y-83756007D01*
X122207748Y-84425037D01*
X122771672Y-85254731D01*
X123092439Y-85763100D01*
X123605550Y-86577307D01*
X124086348Y-87303507D01*
X124468569Y-87843431D01*
X124633823Y-88049100D01*
X125112466Y-88409347D01*
X125560881Y-88481529D01*
X125875270Y-88260468D01*
X125934147Y-88113960D01*
X126139873Y-87829835D01*
X126347524Y-87840878D01*
X126705329Y-87782644D01*
X126989710Y-87520779D01*
X127321117Y-87081423D01*
X128100028Y-87610707D01*
X128778475Y-87976439D01*
X129410002Y-88070106D01*
X129614263Y-88054146D01*
X130309159Y-88081373D01*
X131117096Y-88266452D01*
X131324923Y-88338901D01*
X131991501Y-88582628D01*
X132408287Y-88678681D01*
X132704630Y-88625722D01*
X133009877Y-88422413D01*
X133136989Y-88320168D01*
X133368298Y-88099086D01*
X133509107Y-87830779D01*
X133580117Y-87417492D01*
X133602025Y-86761470D01*
X133599524Y-86135768D01*
X133543011Y-84889754D01*
X133385764Y-83651569D01*
X133109688Y-82352753D01*
X132696685Y-80924847D01*
X132128660Y-79299391D01*
X131387516Y-77407924D01*
X131121318Y-76760560D01*
X130821380Y-76005747D01*
X130607018Y-75403698D01*
X130508782Y-75043482D01*
X130511569Y-74982897D01*
X130666377Y-75084297D01*
X130975780Y-75439427D01*
X131290004Y-75857437D01*
X131819011Y-76578767D01*
X132434126Y-77388838D01*
X132797408Y-77853554D01*
X134083274Y-79480365D01*
X135136609Y-80833797D01*
X135985001Y-81952721D01*
X136656036Y-82876006D01*
X137177303Y-83642523D01*
X137576389Y-84291141D01*
X137880882Y-84860730D01*
X138078855Y-85294960D01*
X138520024Y-86314788D01*
X138851488Y-87009213D01*
X139105810Y-87433516D01*
X139315555Y-87642979D01*
X139491769Y-87693500D01*
X139841405Y-87836552D01*
X140017500Y-87998300D01*
X140399133Y-88294310D01*
X140718327Y-88204910D01*
X140967636Y-87747349D01*
X141139616Y-86938878D01*
X141226822Y-85796747D01*
X141236423Y-85173977D01*
X141197645Y-84055413D01*
X141095618Y-82819051D01*
X140951359Y-81711729D01*
X140931900Y-81597500D01*
X140799018Y-80827933D01*
X139331257Y-80827933D01*
X139299439Y-81182354D01*
X139227817Y-81179660D01*
X139128237Y-80841998D01*
X139012548Y-80191514D01*
X138901104Y-79327209D01*
X138838881Y-78626967D01*
X138854682Y-78278430D01*
X138952587Y-78233688D01*
X138991519Y-78265449D01*
X139112812Y-78564283D01*
X139222625Y-79153814D01*
X139300736Y-79918434D01*
X139311423Y-80094249D01*
X139331257Y-80827933D01*
X140799018Y-80827933D01*
X140794177Y-80799900D01*
X140688874Y-80160100D01*
X140632520Y-79779775D01*
X140627378Y-79724277D01*
X140732940Y-79611791D01*
X141010223Y-79783060D01*
X141398580Y-80188423D01*
X141739255Y-80634691D01*
X142292475Y-81326852D01*
X143072773Y-82172671D01*
X144009054Y-83107311D01*
X145030224Y-84065937D01*
X146065190Y-84983713D01*
X147042859Y-85795805D01*
X147892136Y-86437377D01*
X148541928Y-86843592D01*
X148554284Y-86849812D01*
X149714185Y-87293224D01*
X150851636Y-87483788D01*
X151905574Y-87437147D01*
X152814937Y-87168940D01*
X153518665Y-86694809D01*
X153955696Y-86030393D01*
X154071156Y-85436674D01*
X153962520Y-84576484D01*
X153625518Y-83730193D01*
X153125965Y-82991548D01*
X152529676Y-82454297D01*
X151902466Y-82212185D01*
X151803835Y-82207100D01*
X151146373Y-82276366D01*
X150476674Y-82451769D01*
X149947624Y-82684718D01*
X149737699Y-82863787D01*
X149580317Y-83384229D01*
X149652487Y-83926426D01*
X149844862Y-84215996D01*
X150033317Y-84314314D01*
X150052189Y-84099704D01*
X150024150Y-83934909D01*
X150068716Y-83331279D01*
X150471740Y-82913175D01*
X151123681Y-82695731D01*
X151859655Y-82746135D01*
X152491902Y-83174586D01*
X152989610Y-83959324D01*
X153022623Y-84036678D01*
X153198122Y-84824582D01*
X152995940Y-85475449D01*
X152433451Y-86010117D01*
X151488800Y-86407436D01*
X150403810Y-86426722D01*
X149182991Y-86069654D01*
X147830850Y-85337909D01*
X146351895Y-84233165D01*
X145409102Y-83395330D01*
X144675785Y-82700474D01*
X144028426Y-82073530D01*
X143538558Y-81584651D01*
X143281851Y-81309114D01*
X142996819Y-80975987D01*
X142528670Y-80445438D01*
X141968253Y-79820222D01*
X141844625Y-79683514D01*
X140901446Y-78598866D01*
X140115409Y-77580631D01*
X139409602Y-76513608D01*
X138707115Y-75282599D01*
X138027777Y-73966541D01*
X136722901Y-71525486D01*
X135256881Y-69074379D01*
X133735251Y-66786461D01*
X133209482Y-66056859D01*
X132644191Y-65275113D01*
X132099420Y-64495749D01*
X131676855Y-63864762D01*
X131614372Y-63766699D01*
X131180306Y-63162465D01*
X130875613Y-62932396D01*
X130705860Y-63078602D01*
G36*
X86180621Y-74140512D02*
X86238068Y-74511194D01*
X86599798Y-75111537D01*
X87269698Y-75927457D01*
X87380432Y-76049509D01*
X88068248Y-76818841D01*
X88590738Y-77478567D01*
X88970713Y-78103709D01*
X89230985Y-78769286D01*
X89394367Y-79550318D01*
X89483671Y-80521825D01*
X89521709Y-81758829D01*
X89530880Y-83121500D01*
X89540750Y-84646566D01*
X89572270Y-85817151D01*
X89639765Y-86685106D01*
X89757561Y-87302283D01*
X89939984Y-87720533D01*
X90201359Y-87991709D01*
X90556014Y-88167663D01*
X90957510Y-88285128D01*
X91685324Y-88449294D01*
X92139198Y-88471075D01*
X92433935Y-88326567D01*
X92684341Y-87991868D01*
X92729689Y-87916147D01*
X92971794Y-87421397D01*
X93078085Y-87036096D01*
X93078300Y-87025117D01*
X92906640Y-86686706D01*
X92491579Y-86349052D01*
X91982996Y-86115343D01*
X91687931Y-86067900D01*
X91179228Y-85919660D01*
X90950667Y-85487095D01*
X91011058Y-84788432D01*
X91031789Y-84710159D01*
X91154585Y-84059874D01*
X91236415Y-83231675D01*
X91255462Y-82715100D01*
X91263691Y-81495900D01*
X92086584Y-82456411D01*
X92879498Y-83280719D01*
X93744741Y-84014542D01*
X94584044Y-84584434D01*
X95299137Y-84916951D01*
X95422062Y-84949259D01*
X95730813Y-85002580D01*
X95709676Y-84945003D01*
X95339467Y-84753344D01*
X95207568Y-84690072D01*
X94502190Y-84226557D01*
X93686034Y-83484781D01*
X92837874Y-82545970D01*
X92036481Y-81491351D01*
X91876542Y-81255284D01*
X91517683Y-80651185D01*
X91327514Y-80105682D01*
X91255587Y-79435454D01*
X91248162Y-78971862D01*
X91146419Y-77955390D01*
X90816366Y-77071081D01*
X90217457Y-76266982D01*
X89309148Y-75491144D01*
X88050895Y-74691613D01*
X87795100Y-74547278D01*
X86963025Y-74144470D01*
X86423569Y-74013576D01*
X86180621Y-74140512D01*
X86180621Y-74140512D01*
G37*
X86180621Y-74140512D02*
X86238068Y-74511194D01*
X86599798Y-75111537D01*
X87269698Y-75927457D01*
X87380432Y-76049509D01*
X88068248Y-76818841D01*
X88590738Y-77478567D01*
X88970713Y-78103709D01*
X89230985Y-78769286D01*
X89394367Y-79550318D01*
X89483671Y-80521825D01*
X89521709Y-81758829D01*
X89530880Y-83121500D01*
X89540750Y-84646566D01*
X89572270Y-85817151D01*
X89639765Y-86685106D01*
X89757561Y-87302283D01*
X89939984Y-87720533D01*
X90201359Y-87991709D01*
X90556014Y-88167663D01*
X90957510Y-88285128D01*
X91685324Y-88449294D01*
X92139198Y-88471075D01*
X92433935Y-88326567D01*
X92684341Y-87991868D01*
X92729689Y-87916147D01*
X92971794Y-87421397D01*
X93078085Y-87036096D01*
X93078300Y-87025117D01*
X92906640Y-86686706D01*
X92491579Y-86349052D01*
X91982996Y-86115343D01*
X91687931Y-86067900D01*
X91179228Y-85919660D01*
X90950667Y-85487095D01*
X91011058Y-84788432D01*
X91031789Y-84710159D01*
X91154585Y-84059874D01*
X91236415Y-83231675D01*
X91255462Y-82715100D01*
X91263691Y-81495900D01*
X92086584Y-82456411D01*
X92879498Y-83280719D01*
X93744741Y-84014542D01*
X94584044Y-84584434D01*
X95299137Y-84916951D01*
X95422062Y-84949259D01*
X95730813Y-85002580D01*
X95709676Y-84945003D01*
X95339467Y-84753344D01*
X95207568Y-84690072D01*
X94502190Y-84226557D01*
X93686034Y-83484781D01*
X92837874Y-82545970D01*
X92036481Y-81491351D01*
X91876542Y-81255284D01*
X91517683Y-80651185D01*
X91327514Y-80105682D01*
X91255587Y-79435454D01*
X91248162Y-78971862D01*
X91146419Y-77955390D01*
X90816366Y-77071081D01*
X90217457Y-76266982D01*
X89309148Y-75491144D01*
X88050895Y-74691613D01*
X87795100Y-74547278D01*
X86963025Y-74144470D01*
X86423569Y-74013576D01*
X86180621Y-74140512D01*
G36*
X96377931Y-85115485D02*
X96330431Y-85170411D01*
X96622238Y-85201231D01*
X96837500Y-85203856D01*
X97231014Y-85183849D01*
X97290716Y-85137955D01*
X97190731Y-85111384D01*
X96661267Y-85078668D01*
X96377931Y-85115485D01*
X96377931Y-85115485D01*
G37*
X96377931Y-85115485D02*
X96330431Y-85170411D01*
X96622238Y-85201231D01*
X96837500Y-85203856D01*
X97231014Y-85183849D01*
X97290716Y-85137955D01*
X97190731Y-85111384D01*
X96661267Y-85078668D01*
X96377931Y-85115485D01*
G36*
X109470034Y-75184497D02*
X109040599Y-75399009D01*
X108675862Y-75658117D01*
X108499300Y-75881301D01*
X108521500Y-75955363D01*
X108813098Y-76109524D01*
X109345737Y-76334629D01*
X109980285Y-76578186D01*
X110577607Y-76787700D01*
X110998569Y-76910679D01*
X111088598Y-76923900D01*
X111341025Y-76797235D01*
X111366300Y-76707142D01*
X111218158Y-76299414D01*
X110854895Y-75813109D01*
X110398257Y-75376872D01*
X109969989Y-75119344D01*
X109840694Y-75095100D01*
X109470034Y-75184497D01*
X109470034Y-75184497D01*
G37*
X109470034Y-75184497D02*
X109040599Y-75399009D01*
X108675862Y-75658117D01*
X108499300Y-75881301D01*
X108521500Y-75955363D01*
X108813098Y-76109524D01*
X109345737Y-76334629D01*
X109980285Y-76578186D01*
X110577607Y-76787700D01*
X110998569Y-76910679D01*
X111088598Y-76923900D01*
X111341025Y-76797235D01*
X111366300Y-76707142D01*
X111218158Y-76299414D01*
X110854895Y-75813109D01*
X110398257Y-75376872D01*
X109969989Y-75119344D01*
X109840694Y-75095100D01*
X109470034Y-75184497D01*
M02*
