G04 #@! TF.FileFunction,Copper,L2,Bot,Signal*
%FSLAX46Y46*%
G04 Gerber Fmt 4.6, Leading zero omitted, Abs format (unit mm)*
G04 Created by KiCad (PCBNEW 4.0.7) date 06/23/18 17:57:27*
%MOMM*%
%LPD*%
G01*
G04 APERTURE LIST*
%ADD10C,0.100000*%
%ADD11C,6.000000*%
%ADD12R,1.700000X1.700000*%
%ADD13O,1.700000X1.700000*%
%ADD14C,5.000000*%
%ADD15C,0.600000*%
%ADD16C,0.800000*%
%ADD17C,1.250000*%
%ADD18C,0.250000*%
%ADD19C,0.500000*%
%ADD20C,1.000000*%
%ADD21C,2.000000*%
%ADD22C,0.254000*%
G04 APERTURE END LIST*
D10*
D11*
X63627000Y-61277500D03*
X63627000Y-54277500D03*
D12*
X126174500Y-97917000D03*
D13*
X123634500Y-97917000D03*
X121094500Y-97917000D03*
X118554500Y-97917000D03*
D12*
X103505000Y-52641500D03*
D13*
X103505000Y-55181500D03*
D12*
X125158500Y-58166000D03*
D13*
X122618500Y-58166000D03*
X125158500Y-55626000D03*
X122618500Y-55626000D03*
X125158500Y-53086000D03*
X122618500Y-53086000D03*
D12*
X114744500Y-53086000D03*
D13*
X117284500Y-53086000D03*
X114744500Y-55626000D03*
X117284500Y-55626000D03*
D12*
X133731000Y-93027500D03*
D13*
X133731000Y-95567500D03*
X133731000Y-98107500D03*
D12*
X135636000Y-61785500D03*
D13*
X133096000Y-61785500D03*
X130556000Y-61785500D03*
D12*
X157289500Y-74676000D03*
D14*
X155956000Y-54356000D03*
X157480000Y-99187000D03*
X65341500Y-69659500D03*
D12*
X142430500Y-98488500D03*
D13*
X144970500Y-98488500D03*
X147510500Y-98488500D03*
X150050500Y-98488500D03*
D15*
X102616000Y-83121500D03*
X100139500Y-84074000D03*
D16*
X125095000Y-63436500D03*
D17*
X103060500Y-59245500D03*
X79311500Y-52895500D03*
X71247000Y-67056000D03*
D15*
X110617000Y-55499000D03*
X111061500Y-59436000D03*
X79946500Y-78422500D03*
X72263000Y-78613000D03*
X79438500Y-79565500D03*
X72390000Y-79629000D03*
X140779500Y-88392000D03*
X138303000Y-82232500D03*
X81280000Y-89281000D03*
X93345000Y-69723000D03*
X72834500Y-91122500D03*
X81280000Y-90170000D03*
X137096500Y-84963000D03*
X89916000Y-70485000D03*
X73723500Y-91821000D03*
X81280000Y-91122500D03*
X140589000Y-83566000D03*
X74295000Y-92900500D03*
X89217500Y-71437500D03*
X94424500Y-71628000D03*
X126111000Y-72580500D03*
X131000500Y-72898000D03*
X145288000Y-87693500D03*
X142875000Y-53657500D03*
X151701500Y-64008000D03*
X92202000Y-71945500D03*
X131762500Y-74930000D03*
X131508500Y-76962000D03*
X113982500Y-89154000D03*
X114109500Y-91757500D03*
X91503500Y-82931000D03*
X89789000Y-79375000D03*
X138430000Y-73088500D03*
X137604500Y-76644500D03*
X114998500Y-93662500D03*
X92964000Y-82423000D03*
X91059000Y-76327000D03*
X96583500Y-85217000D03*
X142684500Y-64198500D03*
X137668000Y-66548000D03*
X147193000Y-60007500D03*
X97980500Y-85598000D03*
X125476000Y-67056000D03*
X123698000Y-70104000D03*
X157416500Y-94043500D03*
X89154000Y-92583000D03*
X94615000Y-99758500D03*
X111236000Y-95631000D03*
X93535500Y-97917000D03*
X92519500Y-93218000D03*
X95504000Y-94488000D03*
X89154000Y-97409000D03*
X81216500Y-96837500D03*
D16*
X62992000Y-92646500D03*
D15*
X85661500Y-85979000D03*
X95885000Y-88455500D03*
X96520000Y-79248000D03*
X98806000Y-79692500D03*
X101663500Y-77787500D03*
X99250500Y-74295000D03*
X118681500Y-84963000D03*
X118364000Y-75057000D03*
X117665500Y-68897500D03*
X112522000Y-64262000D03*
D16*
X149225000Y-62928500D03*
X137350500Y-52260500D03*
D17*
X157353000Y-58991500D03*
X157480000Y-69913500D03*
D15*
X149860000Y-72802750D03*
X145415000Y-72453500D03*
D16*
X131762500Y-79248000D03*
D17*
X143065500Y-95250000D03*
X155956000Y-92011500D03*
X146939000Y-80454500D03*
D16*
X88582500Y-62230000D03*
X76644500Y-72263000D03*
X73787000Y-82550000D03*
D17*
X94361000Y-53594000D03*
D16*
X69850000Y-63754000D03*
X76517500Y-66865500D03*
D15*
X90360500Y-71628000D03*
X74803000Y-93726000D03*
D18*
X101536500Y-84201000D02*
X102616000Y-83121500D01*
X100266500Y-84201000D02*
X101536500Y-84201000D01*
X100139500Y-84074000D02*
X100266500Y-84201000D01*
D19*
X125158500Y-58166000D02*
X125158500Y-63373000D01*
X125158500Y-63373000D02*
X125095000Y-63436500D01*
D20*
X85788500Y-59372500D02*
X79311500Y-52895500D01*
X102933500Y-59372500D02*
X85788500Y-59372500D01*
X103060500Y-59245500D02*
X102933500Y-59372500D01*
X74295000Y-60896500D02*
X74295000Y-63944500D01*
X79311500Y-52895500D02*
X79311500Y-58166000D01*
X79311500Y-58166000D02*
X78041500Y-59436000D01*
X78041500Y-59436000D02*
X75819000Y-59436000D01*
X75819000Y-59436000D02*
X74358500Y-60896500D01*
X74358500Y-60896500D02*
X74295000Y-60896500D01*
X71247000Y-66992500D02*
X71247000Y-67056000D01*
X72707500Y-65532000D02*
X71247000Y-66992500D01*
X74295000Y-63944500D02*
X72707500Y-65532000D01*
D18*
X110617000Y-58991500D02*
X110617000Y-55499000D01*
X111061500Y-59436000D02*
X110617000Y-58991500D01*
X72453500Y-78422500D02*
X79946500Y-78422500D01*
X72263000Y-78613000D02*
X72453500Y-78422500D01*
X72453500Y-79565500D02*
X79438500Y-79565500D01*
X72390000Y-79629000D02*
X72453500Y-79565500D01*
X140906500Y-82232500D02*
X138303000Y-82232500D01*
X141605000Y-82931000D02*
X140906500Y-82232500D01*
X141605000Y-87566500D02*
X141605000Y-82931000D01*
X140779500Y-88392000D02*
X141605000Y-87566500D01*
X111887000Y-90222496D02*
X121166208Y-90222496D01*
X136207500Y-84328000D02*
X138303000Y-82232500D01*
X136207500Y-86674704D02*
X136207500Y-84328000D01*
X135326708Y-87555496D02*
X136207500Y-86674704D01*
X123833208Y-87555496D02*
X135326708Y-87555496D01*
X121166208Y-90222496D02*
X123833208Y-87555496D01*
X81280000Y-89281000D02*
X82243504Y-89281000D01*
X83185000Y-90222496D02*
X111887000Y-90222496D01*
X111887000Y-90222496D02*
X111950500Y-90222496D01*
X82243504Y-89281000D02*
X83185000Y-90222496D01*
X89090500Y-69723000D02*
X93345000Y-69723000D01*
X84328000Y-74485500D02*
X89090500Y-69723000D01*
X84328000Y-77978000D02*
X84328000Y-74485500D01*
X79248000Y-83058000D02*
X84328000Y-77978000D01*
X79248000Y-84709000D02*
X79248000Y-83058000D01*
X72834500Y-91122500D02*
X79248000Y-84709000D01*
X115316000Y-90672498D02*
X121352604Y-90672498D01*
X82111002Y-90170000D02*
X82613500Y-90672498D01*
X82613500Y-90672498D02*
X115316000Y-90672498D01*
X81280000Y-90170000D02*
X82111002Y-90170000D01*
X137096500Y-86422102D02*
X137096500Y-84963000D01*
X135513104Y-88005498D02*
X137096500Y-86422102D01*
X124019604Y-88005498D02*
X135513104Y-88005498D01*
X121352604Y-90672498D02*
X124019604Y-88005498D01*
X88964898Y-70485000D02*
X89916000Y-70485000D01*
X84778002Y-74671896D02*
X88964898Y-70485000D01*
X84778002Y-78226498D02*
X84778002Y-74671896D01*
X83375500Y-79629000D02*
X84778002Y-78226498D01*
X83313398Y-79629000D02*
X83375500Y-79629000D01*
X79698002Y-83244396D02*
X83313398Y-79629000D01*
X79698002Y-85147998D02*
X79698002Y-83244396D01*
X75470449Y-89375551D02*
X79698002Y-85147998D01*
X75470449Y-90074051D02*
X75470449Y-89375551D01*
X73723500Y-91821000D02*
X75470449Y-90074051D01*
X116522500Y-91122500D02*
X121539000Y-91122500D01*
X81280000Y-91122500D02*
X116522500Y-91122500D01*
X135699500Y-88455500D02*
X140589000Y-83566000D01*
X124206000Y-88455500D02*
X135699500Y-88455500D01*
X121539000Y-91122500D02*
X124206000Y-88455500D01*
X74295000Y-92900500D02*
X75920451Y-91275049D01*
X75920451Y-91275049D02*
X75920451Y-89624049D01*
X75920451Y-89624049D02*
X80148004Y-85396496D01*
X80148004Y-85396496D02*
X80148004Y-83430792D01*
X80148004Y-83430792D02*
X83441796Y-80137000D01*
X83441796Y-80137000D02*
X83693000Y-80137000D01*
X83693000Y-80137000D02*
X85228004Y-78601996D01*
X85228004Y-78601996D02*
X85228004Y-74858292D01*
X85228004Y-74858292D02*
X88648796Y-71437500D01*
X88648796Y-71437500D02*
X89217500Y-71437500D01*
X151193500Y-88455500D02*
X146050000Y-88455500D01*
X94424500Y-71628000D02*
X97853500Y-68199000D01*
X97853500Y-68199000D02*
X103949500Y-68199000D01*
X103949500Y-68199000D02*
X106235500Y-70485000D01*
X106235500Y-70485000D02*
X109474000Y-70485000D01*
X109474000Y-70485000D02*
X111506000Y-72517000D01*
X111506000Y-72517000D02*
X126047500Y-72517000D01*
X126047500Y-72517000D02*
X126111000Y-72580500D01*
X131000500Y-72898000D02*
X131064000Y-72961500D01*
X131064000Y-72961500D02*
X135382000Y-72961500D01*
X135382000Y-72961500D02*
X136271000Y-73850500D01*
X136271000Y-73850500D02*
X136271000Y-78168500D01*
X136271000Y-78168500D02*
X137223500Y-79121000D01*
X137223500Y-79121000D02*
X139700000Y-79121000D01*
X139700000Y-79121000D02*
X141351000Y-77470000D01*
X141351000Y-77470000D02*
X148780500Y-77470000D01*
X148780500Y-77470000D02*
X151193500Y-79883000D01*
X151193500Y-79883000D02*
X151193500Y-88455500D01*
X146050000Y-88455500D02*
X145288000Y-87693500D01*
X147447000Y-53657500D02*
X142875000Y-53657500D01*
X151193500Y-57404000D02*
X147447000Y-53657500D01*
X151193500Y-63500000D02*
X151193500Y-57404000D01*
X151701500Y-64008000D02*
X151193500Y-63500000D01*
X118808500Y-53086000D02*
X117284500Y-53086000D01*
X119507000Y-53784500D02*
X118808500Y-53086000D01*
X119507000Y-56451500D02*
X119507000Y-53784500D01*
X117792500Y-58166000D02*
X119507000Y-56451500D01*
X114681000Y-58166000D02*
X117792500Y-58166000D01*
X111061500Y-61785500D02*
X114681000Y-58166000D01*
X102743000Y-61785500D02*
X111061500Y-61785500D01*
X93154500Y-71374000D02*
X102743000Y-61785500D01*
X92773500Y-71374000D02*
X93154500Y-71374000D01*
X92202000Y-71945500D02*
X92773500Y-71374000D01*
X131762500Y-76708000D02*
X131762500Y-74930000D01*
X131508500Y-76962000D02*
X131762500Y-76708000D01*
X133477000Y-92773500D02*
X117030500Y-92773500D01*
X91503500Y-84899500D02*
X93408500Y-86804500D01*
X93408500Y-86804500D02*
X109220000Y-86804500D01*
X109220000Y-86804500D02*
X110934500Y-88519000D01*
X110934500Y-88519000D02*
X113347500Y-88519000D01*
X113347500Y-88519000D02*
X113982500Y-89154000D01*
X114109500Y-91757500D02*
X115125500Y-92773500D01*
X115125500Y-92773500D02*
X117030500Y-92773500D01*
X91503500Y-84899500D02*
X91503500Y-82931000D01*
X133477000Y-92773500D02*
X133731000Y-93027500D01*
X89789000Y-79438500D02*
X89789000Y-79375000D01*
X89789000Y-81216500D02*
X89789000Y-79438500D01*
X91503500Y-82931000D02*
X89789000Y-81216500D01*
X138112500Y-73406000D02*
X138430000Y-73088500D01*
X138112500Y-76136500D02*
X138112500Y-73406000D01*
X137604500Y-76644500D02*
X138112500Y-76136500D01*
X131381500Y-95567500D02*
X133731000Y-95567500D01*
X130683000Y-94869000D02*
X131381500Y-95567500D01*
X116205000Y-94869000D02*
X130683000Y-94869000D01*
X114998500Y-93662500D02*
X116205000Y-94869000D01*
X92964000Y-82423000D02*
X91059000Y-80518000D01*
X91059000Y-80518000D02*
X91059000Y-76327000D01*
X137164104Y-65208998D02*
X137164104Y-63313604D01*
X137164104Y-63313604D02*
X135636000Y-61785500D01*
X96583500Y-85217000D02*
X96964500Y-84836000D01*
X96964500Y-84836000D02*
X100647500Y-84836000D01*
X100647500Y-84836000D02*
X100959498Y-85147998D01*
X100959498Y-85147998D02*
X110549396Y-85147998D01*
X110549396Y-85147998D02*
X111946396Y-86544998D01*
X111946396Y-86544998D02*
X127512104Y-86544998D01*
X127512104Y-86544998D02*
X128518498Y-85538604D01*
X128518498Y-85538604D02*
X128518498Y-72267104D01*
X128518498Y-72267104D02*
X129671104Y-71114498D01*
X129671104Y-71114498D02*
X134243104Y-71114498D01*
X134243104Y-71114498D02*
X134931998Y-70425604D01*
X134931998Y-70425604D02*
X134931998Y-67441104D01*
X134931998Y-67441104D02*
X137164104Y-65208998D01*
X137164104Y-65208998D02*
X141674002Y-65208998D01*
X141674002Y-65208998D02*
X142684500Y-64198500D01*
X137985500Y-65659000D02*
X137985500Y-66230500D01*
X137985500Y-66230500D02*
X137668000Y-66548000D01*
X146685000Y-60515500D02*
X147193000Y-60007500D01*
X146685000Y-62928500D02*
X146685000Y-60515500D01*
X110363000Y-85598000D02*
X111760000Y-86995000D01*
X111760000Y-86995000D02*
X127698500Y-86995000D01*
X127698500Y-86995000D02*
X128968500Y-85725000D01*
X128968500Y-85725000D02*
X128968500Y-72453500D01*
X128968500Y-72453500D02*
X129857500Y-71564500D01*
X129857500Y-71564500D02*
X134429500Y-71564500D01*
X134429500Y-71564500D02*
X135382000Y-70612000D01*
X135382000Y-70612000D02*
X135382000Y-67627500D01*
X135382000Y-67627500D02*
X137350500Y-65659000D01*
X137350500Y-65659000D02*
X137985500Y-65659000D01*
X137985500Y-65659000D02*
X144018000Y-65659000D01*
X144018000Y-65659000D02*
X146685000Y-62992000D01*
X146685000Y-62992000D02*
X146685000Y-62928500D01*
X97980500Y-85598000D02*
X110363000Y-85598000D01*
X125476000Y-68326000D02*
X125476000Y-67056000D01*
X123698000Y-70104000D02*
X125476000Y-68326000D01*
X157480000Y-93980000D02*
X157480000Y-74866500D01*
X157416500Y-94043500D02*
X157480000Y-93980000D01*
X157480000Y-74866500D02*
X157289500Y-74676000D01*
X111236000Y-95631000D02*
X111252000Y-95631000D01*
X99250500Y-74295000D02*
X99250500Y-74358500D01*
X149860000Y-72802750D02*
X149860000Y-72771000D01*
D21*
X63627000Y-61277500D02*
X63627000Y-65151000D01*
X63627000Y-65151000D02*
X62992000Y-65786000D01*
X63627000Y-61277500D02*
X68707000Y-61277500D01*
D18*
X89090500Y-72898000D02*
X90360500Y-71628000D01*
X89090500Y-82486500D02*
X89090500Y-72898000D01*
X88646000Y-82931000D02*
X89090500Y-82486500D01*
X83249898Y-82931000D02*
X88646000Y-82931000D01*
X76370453Y-89810445D02*
X83249898Y-82931000D01*
X76370453Y-91461445D02*
X76370453Y-89810445D01*
X75628500Y-92203398D02*
X76370453Y-91461445D01*
X75628500Y-92900500D02*
X75628500Y-92203398D01*
X74803000Y-93726000D02*
X75628500Y-92900500D01*
D22*
G36*
X60547194Y-52215749D02*
X59992632Y-53551282D01*
X59991370Y-54997374D01*
X60543600Y-56333872D01*
X61565249Y-57357306D01*
X62579974Y-57778657D01*
X61583361Y-58185646D01*
X61552566Y-58206223D01*
X61209975Y-58680870D01*
X63627000Y-61097895D01*
X66044025Y-58680870D01*
X65701434Y-58206223D01*
X64678015Y-57776305D01*
X65683372Y-57360900D01*
X66706806Y-56339251D01*
X67261368Y-55003718D01*
X67262630Y-53557626D01*
X66710400Y-52221128D01*
X66000512Y-51510000D01*
X102078801Y-51510000D01*
X102058569Y-51539610D01*
X102007560Y-51791500D01*
X102007560Y-53491500D01*
X102051838Y-53726817D01*
X102190910Y-53942941D01*
X102403110Y-54087931D01*
X102511107Y-54109801D01*
X102233355Y-54414576D01*
X102063524Y-54824610D01*
X102184845Y-55054500D01*
X103378000Y-55054500D01*
X103378000Y-55034500D01*
X103632000Y-55034500D01*
X103632000Y-55054500D01*
X104825155Y-55054500D01*
X104946476Y-54824610D01*
X104776645Y-54414576D01*
X104500499Y-54111563D01*
X104590317Y-54094662D01*
X104806441Y-53955590D01*
X104951431Y-53743390D01*
X105002440Y-53491500D01*
X105002440Y-51791500D01*
X104958162Y-51556183D01*
X104928444Y-51510000D01*
X154634399Y-51510000D01*
X154182485Y-51696727D01*
X153299826Y-52577847D01*
X152821546Y-53729674D01*
X152820457Y-54976854D01*
X153296727Y-56129515D01*
X154177847Y-57012174D01*
X155329674Y-57490454D01*
X156576854Y-57491543D01*
X157729515Y-57015273D01*
X158612174Y-56134153D01*
X159090454Y-54982326D01*
X159091543Y-53735146D01*
X158615273Y-52582485D01*
X157734153Y-51699826D01*
X157277001Y-51510000D01*
X160199000Y-51510000D01*
X160199000Y-97558035D01*
X160139273Y-97413485D01*
X159258153Y-96530826D01*
X158106326Y-96052546D01*
X156859146Y-96051457D01*
X155706485Y-96527727D01*
X154823826Y-97408847D01*
X154345546Y-98560674D01*
X154344457Y-99807854D01*
X154820727Y-100960515D01*
X155701847Y-101843174D01*
X156853674Y-102321454D01*
X158100854Y-102322543D01*
X159253515Y-101846273D01*
X160136174Y-100965153D01*
X160199000Y-100813851D01*
X160199000Y-103303000D01*
X59955500Y-103303000D01*
X59955500Y-98273892D01*
X117113014Y-98273892D01*
X117359317Y-98798358D01*
X117787576Y-99188645D01*
X118197610Y-99358476D01*
X118427500Y-99237155D01*
X118427500Y-98044000D01*
X117233681Y-98044000D01*
X117113014Y-98273892D01*
X59955500Y-98273892D01*
X59955500Y-97560108D01*
X117113014Y-97560108D01*
X117233681Y-97790000D01*
X118427500Y-97790000D01*
X118427500Y-96596845D01*
X118681500Y-96596845D01*
X118681500Y-97790000D01*
X118701500Y-97790000D01*
X118701500Y-98044000D01*
X118681500Y-98044000D01*
X118681500Y-99237155D01*
X118911390Y-99358476D01*
X119321424Y-99188645D01*
X119749683Y-98798358D01*
X119816798Y-98655447D01*
X120044446Y-98996147D01*
X120526215Y-99318054D01*
X121094500Y-99431093D01*
X121662785Y-99318054D01*
X122144554Y-98996147D01*
X122364500Y-98666974D01*
X122584446Y-98996147D01*
X123066215Y-99318054D01*
X123634500Y-99431093D01*
X124202785Y-99318054D01*
X124684554Y-98996147D01*
X124712350Y-98954548D01*
X124721338Y-99002317D01*
X124860410Y-99218441D01*
X125072610Y-99363431D01*
X125324500Y-99414440D01*
X127024500Y-99414440D01*
X127259817Y-99370162D01*
X127475941Y-99231090D01*
X127620931Y-99018890D01*
X127671940Y-98767000D01*
X127671940Y-98464390D01*
X132289524Y-98464390D01*
X132459355Y-98874424D01*
X132849642Y-99302683D01*
X133374108Y-99548986D01*
X133604000Y-99428319D01*
X133604000Y-98234500D01*
X133858000Y-98234500D01*
X133858000Y-99428319D01*
X134087892Y-99548986D01*
X134612358Y-99302683D01*
X135002645Y-98874424D01*
X135172476Y-98464390D01*
X135051155Y-98234500D01*
X133858000Y-98234500D01*
X133604000Y-98234500D01*
X132410845Y-98234500D01*
X132289524Y-98464390D01*
X127671940Y-98464390D01*
X127671940Y-97067000D01*
X127627662Y-96831683D01*
X127488590Y-96615559D01*
X127276390Y-96470569D01*
X127024500Y-96419560D01*
X125324500Y-96419560D01*
X125089183Y-96463838D01*
X124873059Y-96602910D01*
X124728069Y-96815110D01*
X124714414Y-96882541D01*
X124684554Y-96837853D01*
X124202785Y-96515946D01*
X123634500Y-96402907D01*
X123066215Y-96515946D01*
X122584446Y-96837853D01*
X122364500Y-97167026D01*
X122144554Y-96837853D01*
X121662785Y-96515946D01*
X121094500Y-96402907D01*
X120526215Y-96515946D01*
X120044446Y-96837853D01*
X119816798Y-97178553D01*
X119749683Y-97035642D01*
X119321424Y-96645355D01*
X118911390Y-96475524D01*
X118681500Y-96596845D01*
X118427500Y-96596845D01*
X118197610Y-96475524D01*
X117787576Y-96645355D01*
X117359317Y-97035642D01*
X117113014Y-97560108D01*
X59955500Y-97560108D01*
X59955500Y-91307667D01*
X71899338Y-91307667D01*
X72041383Y-91651443D01*
X72304173Y-91914692D01*
X72647701Y-92057338D01*
X72809540Y-92057479D01*
X72930383Y-92349943D01*
X73193173Y-92613192D01*
X73371201Y-92687116D01*
X73360162Y-92713701D01*
X73359838Y-93085667D01*
X73501883Y-93429443D01*
X73764673Y-93692692D01*
X73867991Y-93735594D01*
X73867838Y-93911167D01*
X74009883Y-94254943D01*
X74272673Y-94518192D01*
X74616201Y-94660838D01*
X74988167Y-94661162D01*
X75331943Y-94519117D01*
X75595192Y-94256327D01*
X75737838Y-93912799D01*
X75737879Y-93865923D01*
X76165901Y-93437901D01*
X76330648Y-93191340D01*
X76388500Y-92900500D01*
X76388500Y-92518200D01*
X76907854Y-91998846D01*
X77072601Y-91752284D01*
X77130453Y-91461445D01*
X77130453Y-90125247D01*
X83564700Y-83691000D01*
X88646000Y-83691000D01*
X88936839Y-83633148D01*
X89183401Y-83468401D01*
X89627901Y-83023901D01*
X89792648Y-82777339D01*
X89850500Y-82486500D01*
X89850500Y-82352802D01*
X90568378Y-83070680D01*
X90568338Y-83116167D01*
X90710383Y-83459943D01*
X90743500Y-83493118D01*
X90743500Y-84899500D01*
X90801352Y-85190339D01*
X90966099Y-85436901D01*
X92871099Y-87341901D01*
X93117661Y-87506648D01*
X93408500Y-87564500D01*
X108905198Y-87564500D01*
X110397099Y-89056401D01*
X110643661Y-89221148D01*
X110934500Y-89279000D01*
X113032698Y-89279000D01*
X113047378Y-89293680D01*
X113047338Y-89339167D01*
X113098296Y-89462496D01*
X83499802Y-89462496D01*
X82780905Y-88743599D01*
X82534343Y-88578852D01*
X82243504Y-88521000D01*
X81842463Y-88521000D01*
X81810327Y-88488808D01*
X81466799Y-88346162D01*
X81094833Y-88345838D01*
X80751057Y-88487883D01*
X80487808Y-88750673D01*
X80345162Y-89094201D01*
X80344838Y-89466167D01*
X80452080Y-89725714D01*
X80345162Y-89983201D01*
X80344838Y-90355167D01*
X80465232Y-90646543D01*
X80345162Y-90935701D01*
X80344838Y-91307667D01*
X80486883Y-91651443D01*
X80749673Y-91914692D01*
X81093201Y-92057338D01*
X81465167Y-92057662D01*
X81808943Y-91915617D01*
X81842118Y-91882500D01*
X113174390Y-91882500D01*
X113174338Y-91942667D01*
X113316383Y-92286443D01*
X113579173Y-92549692D01*
X113922701Y-92692338D01*
X113969577Y-92692379D01*
X114307928Y-93030730D01*
X114206308Y-93132173D01*
X114063662Y-93475701D01*
X114063338Y-93847667D01*
X114205383Y-94191443D01*
X114468173Y-94454692D01*
X114811701Y-94597338D01*
X114858577Y-94597379D01*
X115667599Y-95406401D01*
X115914161Y-95571148D01*
X116205000Y-95629000D01*
X130368198Y-95629000D01*
X130844099Y-96104901D01*
X131090660Y-96269648D01*
X131381500Y-96327500D01*
X132458046Y-96327500D01*
X132651853Y-96617554D01*
X132992553Y-96845202D01*
X132849642Y-96912317D01*
X132459355Y-97340576D01*
X132289524Y-97750610D01*
X132410845Y-97980500D01*
X133604000Y-97980500D01*
X133604000Y-97960500D01*
X133858000Y-97960500D01*
X133858000Y-97980500D01*
X135051155Y-97980500D01*
X135172476Y-97750610D01*
X135126042Y-97638500D01*
X140933060Y-97638500D01*
X140933060Y-99338500D01*
X140977338Y-99573817D01*
X141116410Y-99789941D01*
X141328610Y-99934931D01*
X141580500Y-99985940D01*
X143280500Y-99985940D01*
X143515817Y-99941662D01*
X143731941Y-99802590D01*
X143876931Y-99590390D01*
X143890586Y-99522959D01*
X143920446Y-99567647D01*
X144402215Y-99889554D01*
X144970500Y-100002593D01*
X145538785Y-99889554D01*
X146020554Y-99567647D01*
X146240500Y-99238474D01*
X146460446Y-99567647D01*
X146942215Y-99889554D01*
X147510500Y-100002593D01*
X148078785Y-99889554D01*
X148560554Y-99567647D01*
X148788202Y-99226947D01*
X148855317Y-99369858D01*
X149283576Y-99760145D01*
X149693610Y-99929976D01*
X149923500Y-99808655D01*
X149923500Y-98615500D01*
X150177500Y-98615500D01*
X150177500Y-99808655D01*
X150407390Y-99929976D01*
X150817424Y-99760145D01*
X151245683Y-99369858D01*
X151491986Y-98845392D01*
X151371319Y-98615500D01*
X150177500Y-98615500D01*
X149923500Y-98615500D01*
X149903500Y-98615500D01*
X149903500Y-98361500D01*
X149923500Y-98361500D01*
X149923500Y-97168345D01*
X150177500Y-97168345D01*
X150177500Y-98361500D01*
X151371319Y-98361500D01*
X151491986Y-98131608D01*
X151245683Y-97607142D01*
X150817424Y-97216855D01*
X150407390Y-97047024D01*
X150177500Y-97168345D01*
X149923500Y-97168345D01*
X149693610Y-97047024D01*
X149283576Y-97216855D01*
X148855317Y-97607142D01*
X148788202Y-97750053D01*
X148560554Y-97409353D01*
X148078785Y-97087446D01*
X147510500Y-96974407D01*
X146942215Y-97087446D01*
X146460446Y-97409353D01*
X146240500Y-97738526D01*
X146020554Y-97409353D01*
X145538785Y-97087446D01*
X144970500Y-96974407D01*
X144402215Y-97087446D01*
X143920446Y-97409353D01*
X143892650Y-97450952D01*
X143883662Y-97403183D01*
X143744590Y-97187059D01*
X143532390Y-97042069D01*
X143280500Y-96991060D01*
X141580500Y-96991060D01*
X141345183Y-97035338D01*
X141129059Y-97174410D01*
X140984069Y-97386610D01*
X140933060Y-97638500D01*
X135126042Y-97638500D01*
X135002645Y-97340576D01*
X134612358Y-96912317D01*
X134469447Y-96845202D01*
X134810147Y-96617554D01*
X135132054Y-96135785D01*
X135245093Y-95567500D01*
X135132054Y-94999215D01*
X134810147Y-94517446D01*
X134768548Y-94489650D01*
X134816317Y-94480662D01*
X135032441Y-94341590D01*
X135177431Y-94129390D01*
X135228440Y-93877500D01*
X135228440Y-92177500D01*
X135184162Y-91942183D01*
X135045090Y-91726059D01*
X134832890Y-91581069D01*
X134581000Y-91530060D01*
X132881000Y-91530060D01*
X132645683Y-91574338D01*
X132429559Y-91713410D01*
X132284569Y-91925610D01*
X132266771Y-92013500D01*
X115440302Y-92013500D01*
X115309302Y-91882500D01*
X121539000Y-91882500D01*
X121829839Y-91824648D01*
X122076401Y-91659901D01*
X124520802Y-89215500D01*
X135699500Y-89215500D01*
X135990339Y-89157648D01*
X136236901Y-88992901D01*
X140728680Y-84501122D01*
X140774167Y-84501162D01*
X140845000Y-84471894D01*
X140845000Y-87251698D01*
X140639820Y-87456878D01*
X140594333Y-87456838D01*
X140250557Y-87598883D01*
X139987308Y-87861673D01*
X139844662Y-88205201D01*
X139844338Y-88577167D01*
X139986383Y-88920943D01*
X140249173Y-89184192D01*
X140592701Y-89326838D01*
X140964667Y-89327162D01*
X141308443Y-89185117D01*
X141571692Y-88922327D01*
X141714338Y-88578799D01*
X141714379Y-88531923D01*
X142142401Y-88103901D01*
X142307148Y-87857340D01*
X142365000Y-87566500D01*
X142365000Y-82931000D01*
X142307148Y-82640161D01*
X142307148Y-82640160D01*
X142142401Y-82393599D01*
X141443901Y-81695099D01*
X141197339Y-81530352D01*
X140906500Y-81472500D01*
X138865463Y-81472500D01*
X138833327Y-81440308D01*
X138489799Y-81297662D01*
X138117833Y-81297338D01*
X137774057Y-81439383D01*
X137510808Y-81702173D01*
X137368162Y-82045701D01*
X137368121Y-82092577D01*
X135670099Y-83790599D01*
X135505352Y-84037161D01*
X135447500Y-84328000D01*
X135447500Y-86359902D01*
X135011906Y-86795496D01*
X128972806Y-86795496D01*
X129505901Y-86262401D01*
X129670648Y-86015840D01*
X129728500Y-85725000D01*
X129728500Y-77147167D01*
X130573338Y-77147167D01*
X130715383Y-77490943D01*
X130978173Y-77754192D01*
X131321701Y-77896838D01*
X131693667Y-77897162D01*
X132037443Y-77755117D01*
X132300692Y-77492327D01*
X132443338Y-77148799D01*
X132443441Y-77030579D01*
X132464648Y-76998840D01*
X132522500Y-76708000D01*
X132522500Y-75492463D01*
X132554692Y-75460327D01*
X132697338Y-75116799D01*
X132697662Y-74744833D01*
X132555617Y-74401057D01*
X132292827Y-74137808D01*
X131949299Y-73995162D01*
X131577333Y-73994838D01*
X131233557Y-74136883D01*
X130970308Y-74399673D01*
X130827662Y-74743201D01*
X130827338Y-75115167D01*
X130969383Y-75458943D01*
X131002500Y-75492118D01*
X131002500Y-76159403D01*
X130979557Y-76168883D01*
X130716308Y-76431673D01*
X130573662Y-76775201D01*
X130573338Y-77147167D01*
X129728500Y-77147167D01*
X129728500Y-72768302D01*
X130172302Y-72324500D01*
X130251556Y-72324500D01*
X130208308Y-72367673D01*
X130065662Y-72711201D01*
X130065338Y-73083167D01*
X130207383Y-73426943D01*
X130470173Y-73690192D01*
X130813701Y-73832838D01*
X131185667Y-73833162D01*
X131455910Y-73721500D01*
X135067198Y-73721500D01*
X135511000Y-74165302D01*
X135511000Y-78168500D01*
X135568852Y-78459339D01*
X135733599Y-78705901D01*
X136686099Y-79658401D01*
X136932660Y-79823148D01*
X136980914Y-79832746D01*
X137223500Y-79881000D01*
X139700000Y-79881000D01*
X139990839Y-79823148D01*
X140237401Y-79658401D01*
X141665802Y-78230000D01*
X148465698Y-78230000D01*
X150433500Y-80197802D01*
X150433500Y-87695500D01*
X146364802Y-87695500D01*
X146223122Y-87553820D01*
X146223162Y-87508333D01*
X146081117Y-87164557D01*
X145818327Y-86901308D01*
X145474799Y-86758662D01*
X145102833Y-86758338D01*
X144759057Y-86900383D01*
X144495808Y-87163173D01*
X144353162Y-87506701D01*
X144352838Y-87878667D01*
X144494883Y-88222443D01*
X144757673Y-88485692D01*
X145101201Y-88628338D01*
X145148077Y-88628379D01*
X145512599Y-88992901D01*
X145759161Y-89157648D01*
X146050000Y-89215500D01*
X151193500Y-89215500D01*
X151484339Y-89157648D01*
X151730901Y-88992901D01*
X151895648Y-88746339D01*
X151953500Y-88455500D01*
X151953500Y-79883000D01*
X151895648Y-79592161D01*
X151895648Y-79592160D01*
X151730901Y-79345599D01*
X149317901Y-76932599D01*
X149071339Y-76767852D01*
X148780500Y-76710000D01*
X141351000Y-76710000D01*
X141060161Y-76767852D01*
X140813599Y-76932599D01*
X139385198Y-78361000D01*
X137538302Y-78361000D01*
X137031000Y-77853698D01*
X137031000Y-77393444D01*
X137074173Y-77436692D01*
X137417701Y-77579338D01*
X137789667Y-77579662D01*
X138133443Y-77437617D01*
X138396692Y-77174827D01*
X138539338Y-76831299D01*
X138539379Y-76784423D01*
X138649901Y-76673901D01*
X138814647Y-76427340D01*
X138814648Y-76427339D01*
X138872500Y-76136500D01*
X138872500Y-73917334D01*
X138958943Y-73881617D01*
X139014657Y-73826000D01*
X155792060Y-73826000D01*
X155792060Y-75526000D01*
X155836338Y-75761317D01*
X155975410Y-75977441D01*
X156187610Y-76122431D01*
X156439500Y-76173440D01*
X156720000Y-76173440D01*
X156720000Y-93417648D01*
X156624308Y-93513173D01*
X156481662Y-93856701D01*
X156481338Y-94228667D01*
X156623383Y-94572443D01*
X156886173Y-94835692D01*
X157229701Y-94978338D01*
X157601667Y-94978662D01*
X157945443Y-94836617D01*
X158208692Y-94573827D01*
X158351338Y-94230299D01*
X158351662Y-93858333D01*
X158240000Y-93588090D01*
X158240000Y-76154530D01*
X158374817Y-76129162D01*
X158590941Y-75990090D01*
X158735931Y-75777890D01*
X158786940Y-75526000D01*
X158786940Y-73826000D01*
X158742662Y-73590683D01*
X158603590Y-73374559D01*
X158391390Y-73229569D01*
X158139500Y-73178560D01*
X156439500Y-73178560D01*
X156204183Y-73222838D01*
X155988059Y-73361910D01*
X155843069Y-73574110D01*
X155792060Y-73826000D01*
X139014657Y-73826000D01*
X139222192Y-73618827D01*
X139364838Y-73275299D01*
X139365162Y-72903333D01*
X139223117Y-72559557D01*
X138960327Y-72296308D01*
X138616799Y-72153662D01*
X138244833Y-72153338D01*
X137901057Y-72295383D01*
X137637808Y-72558173D01*
X137495162Y-72901701D01*
X137495087Y-72988346D01*
X137410352Y-73115161D01*
X137352500Y-73406000D01*
X137352500Y-75736953D01*
X137075557Y-75851383D01*
X137031000Y-75895862D01*
X137031000Y-73850500D01*
X136973148Y-73559661D01*
X136808401Y-73313099D01*
X135919401Y-72424099D01*
X135672839Y-72259352D01*
X135382000Y-72201500D01*
X134817840Y-72201500D01*
X134966901Y-72101901D01*
X135919401Y-71149401D01*
X136084148Y-70902840D01*
X136109410Y-70775839D01*
X136142000Y-70612000D01*
X136142000Y-67942302D01*
X136941063Y-67143239D01*
X137137673Y-67340192D01*
X137481201Y-67482838D01*
X137853167Y-67483162D01*
X138196943Y-67341117D01*
X138460192Y-67078327D01*
X138602838Y-66734799D01*
X138602913Y-66648154D01*
X138687648Y-66521339D01*
X138708005Y-66419000D01*
X144018000Y-66419000D01*
X144308839Y-66361148D01*
X144555401Y-66196401D01*
X147222401Y-63529401D01*
X147387148Y-63282839D01*
X147445000Y-62992000D01*
X147445000Y-60915047D01*
X147721943Y-60800617D01*
X147985192Y-60537827D01*
X148127838Y-60194299D01*
X148128162Y-59822333D01*
X147986117Y-59478557D01*
X147723327Y-59215308D01*
X147379799Y-59072662D01*
X147007833Y-59072338D01*
X146664057Y-59214383D01*
X146400808Y-59477173D01*
X146258162Y-59820701D01*
X146258121Y-59867577D01*
X146147599Y-59978099D01*
X145982852Y-60224661D01*
X145925000Y-60515500D01*
X145925000Y-62677198D01*
X143703198Y-64899000D01*
X143306222Y-64899000D01*
X143476692Y-64728827D01*
X143619338Y-64385299D01*
X143619662Y-64013333D01*
X143477617Y-63669557D01*
X143214827Y-63406308D01*
X142871299Y-63263662D01*
X142499333Y-63263338D01*
X142155557Y-63405383D01*
X141892308Y-63668173D01*
X141749662Y-64011701D01*
X141749621Y-64058577D01*
X141359200Y-64448998D01*
X137924104Y-64448998D01*
X137924104Y-63313604D01*
X137873091Y-63057145D01*
X137866252Y-63022764D01*
X137701505Y-62776203D01*
X137133440Y-62208138D01*
X137133440Y-60935500D01*
X137089162Y-60700183D01*
X136950090Y-60484059D01*
X136737890Y-60339069D01*
X136486000Y-60288060D01*
X134786000Y-60288060D01*
X134550683Y-60332338D01*
X134334559Y-60471410D01*
X134189569Y-60683610D01*
X134175914Y-60751041D01*
X134146054Y-60706353D01*
X133664285Y-60384446D01*
X133096000Y-60271407D01*
X132527715Y-60384446D01*
X132045946Y-60706353D01*
X131818298Y-61047053D01*
X131751183Y-60904142D01*
X131322924Y-60513855D01*
X130912890Y-60344024D01*
X130683000Y-60465345D01*
X130683000Y-61658500D01*
X130703000Y-61658500D01*
X130703000Y-61912500D01*
X130683000Y-61912500D01*
X130683000Y-63105655D01*
X130912890Y-63226976D01*
X131322924Y-63057145D01*
X131751183Y-62666858D01*
X131818298Y-62523947D01*
X132045946Y-62864647D01*
X132527715Y-63186554D01*
X133096000Y-63299593D01*
X133664285Y-63186554D01*
X134146054Y-62864647D01*
X134173850Y-62823048D01*
X134182838Y-62870817D01*
X134321910Y-63086941D01*
X134534110Y-63231931D01*
X134786000Y-63282940D01*
X136058638Y-63282940D01*
X136404104Y-63628406D01*
X136404104Y-64894196D01*
X134394597Y-66903703D01*
X134229850Y-67150265D01*
X134171998Y-67441104D01*
X134171998Y-70110802D01*
X133928302Y-70354498D01*
X129671104Y-70354498D01*
X129380265Y-70412350D01*
X129133703Y-70577097D01*
X127981097Y-71729703D01*
X127816350Y-71976265D01*
X127758498Y-72267104D01*
X127758498Y-85223802D01*
X127197302Y-85784998D01*
X112261198Y-85784998D01*
X111086797Y-84610597D01*
X110840235Y-84445850D01*
X110549396Y-84387998D01*
X102424304Y-84387998D01*
X102755680Y-84056622D01*
X102801167Y-84056662D01*
X103144943Y-83914617D01*
X103408192Y-83651827D01*
X103550838Y-83308299D01*
X103551162Y-82936333D01*
X103409117Y-82592557D01*
X103146327Y-82329308D01*
X102802799Y-82186662D01*
X102430833Y-82186338D01*
X102087057Y-82328383D01*
X101823808Y-82591173D01*
X101681162Y-82934701D01*
X101681121Y-82981577D01*
X101221698Y-83441000D01*
X100828741Y-83441000D01*
X100669827Y-83281808D01*
X100326299Y-83139162D01*
X99954333Y-83138838D01*
X99610557Y-83280883D01*
X99347308Y-83543673D01*
X99204662Y-83887201D01*
X99204498Y-84076000D01*
X96964500Y-84076000D01*
X96673660Y-84133852D01*
X96452113Y-84281885D01*
X96398333Y-84281838D01*
X96054557Y-84423883D01*
X95791308Y-84686673D01*
X95648662Y-85030201D01*
X95648338Y-85402167D01*
X95790383Y-85745943D01*
X96053173Y-86009192D01*
X96138204Y-86044500D01*
X93723302Y-86044500D01*
X92263500Y-84584698D01*
X92263500Y-83493463D01*
X92295692Y-83461327D01*
X92408407Y-83189881D01*
X92433673Y-83215192D01*
X92777201Y-83357838D01*
X93149167Y-83358162D01*
X93492943Y-83216117D01*
X93756192Y-82953327D01*
X93898838Y-82609799D01*
X93899162Y-82237833D01*
X93757117Y-81894057D01*
X93494327Y-81630808D01*
X93150799Y-81488162D01*
X93103923Y-81488121D01*
X91819000Y-80203198D01*
X91819000Y-76889463D01*
X91851192Y-76857327D01*
X91993838Y-76513799D01*
X91994162Y-76141833D01*
X91852117Y-75798057D01*
X91589327Y-75534808D01*
X91245799Y-75392162D01*
X90873833Y-75391838D01*
X90530057Y-75533883D01*
X90266808Y-75796673D01*
X90124162Y-76140201D01*
X90123838Y-76512167D01*
X90265883Y-76855943D01*
X90299000Y-76889118D01*
X90299000Y-78574367D01*
X89975799Y-78440162D01*
X89850500Y-78440053D01*
X89850500Y-73212802D01*
X90500180Y-72563122D01*
X90545667Y-72563162D01*
X90889443Y-72421117D01*
X91152692Y-72158327D01*
X91267054Y-71882915D01*
X91266838Y-72130667D01*
X91408883Y-72474443D01*
X91671673Y-72737692D01*
X92015201Y-72880338D01*
X92387167Y-72880662D01*
X92730943Y-72738617D01*
X92994192Y-72475827D01*
X93136132Y-72134000D01*
X93154500Y-72134000D01*
X93445339Y-72076148D01*
X93564971Y-71996213D01*
X93631383Y-72156943D01*
X93894173Y-72420192D01*
X94237701Y-72562838D01*
X94609667Y-72563162D01*
X94953443Y-72421117D01*
X95216692Y-72158327D01*
X95359338Y-71814799D01*
X95359379Y-71767923D01*
X98168302Y-68959000D01*
X103634698Y-68959000D01*
X105698099Y-71022401D01*
X105944660Y-71187148D01*
X106235500Y-71245000D01*
X109159198Y-71245000D01*
X110968599Y-73054401D01*
X111215161Y-73219148D01*
X111506000Y-73277000D01*
X125485148Y-73277000D01*
X125580673Y-73372692D01*
X125924201Y-73515338D01*
X126296167Y-73515662D01*
X126639943Y-73373617D01*
X126903192Y-73110827D01*
X127045838Y-72767299D01*
X127046162Y-72395333D01*
X126904117Y-72051557D01*
X126641327Y-71788308D01*
X126297799Y-71645662D01*
X125925833Y-71645338D01*
X125655590Y-71757000D01*
X111820802Y-71757000D01*
X110352969Y-70289167D01*
X122762838Y-70289167D01*
X122904883Y-70632943D01*
X123167673Y-70896192D01*
X123511201Y-71038838D01*
X123883167Y-71039162D01*
X124226943Y-70897117D01*
X124490192Y-70634327D01*
X124632838Y-70290799D01*
X124632879Y-70243923D01*
X126013401Y-68863401D01*
X126178148Y-68616839D01*
X126236000Y-68326000D01*
X126236000Y-67618463D01*
X126268192Y-67586327D01*
X126410838Y-67242799D01*
X126411162Y-66870833D01*
X126269117Y-66527057D01*
X126006327Y-66263808D01*
X125662799Y-66121162D01*
X125290833Y-66120838D01*
X124947057Y-66262883D01*
X124683808Y-66525673D01*
X124541162Y-66869201D01*
X124540838Y-67241167D01*
X124682883Y-67584943D01*
X124716000Y-67618118D01*
X124716000Y-68011198D01*
X123558320Y-69168878D01*
X123512833Y-69168838D01*
X123169057Y-69310883D01*
X122905808Y-69573673D01*
X122763162Y-69917201D01*
X122762838Y-70289167D01*
X110352969Y-70289167D01*
X110011401Y-69947599D01*
X109764839Y-69782852D01*
X109474000Y-69725000D01*
X106550302Y-69725000D01*
X104486901Y-67661599D01*
X104240339Y-67496852D01*
X103949500Y-67439000D01*
X98164302Y-67439000D01*
X103057802Y-62545500D01*
X111061500Y-62545500D01*
X111352339Y-62487648D01*
X111598901Y-62322901D01*
X114995802Y-58926000D01*
X117792500Y-58926000D01*
X118083339Y-58868148D01*
X118329901Y-58703401D01*
X120044401Y-56988901D01*
X120209148Y-56742339D01*
X120267000Y-56451500D01*
X120267000Y-55626000D01*
X121104407Y-55626000D01*
X121217446Y-56194285D01*
X121539353Y-56676054D01*
X121868526Y-56896000D01*
X121539353Y-57115946D01*
X121217446Y-57597715D01*
X121104407Y-58166000D01*
X121217446Y-58734285D01*
X121539353Y-59216054D01*
X122021122Y-59537961D01*
X122589407Y-59651000D01*
X122647593Y-59651000D01*
X123215878Y-59537961D01*
X123697647Y-59216054D01*
X123698471Y-59214821D01*
X123705338Y-59251317D01*
X123844410Y-59467441D01*
X124056610Y-59612431D01*
X124273500Y-59656352D01*
X124273500Y-62794132D01*
X124218081Y-62849454D01*
X124060180Y-63229723D01*
X124059821Y-63641471D01*
X124217058Y-64022015D01*
X124507954Y-64313419D01*
X124888223Y-64471320D01*
X125299971Y-64471679D01*
X125680515Y-64314442D01*
X125971919Y-64023546D01*
X126129820Y-63643277D01*
X126130179Y-63231529D01*
X126043500Y-63021749D01*
X126043500Y-62142392D01*
X129114514Y-62142392D01*
X129360817Y-62666858D01*
X129789076Y-63057145D01*
X130199110Y-63226976D01*
X130429000Y-63105655D01*
X130429000Y-61912500D01*
X129235181Y-61912500D01*
X129114514Y-62142392D01*
X126043500Y-62142392D01*
X126043500Y-61428608D01*
X129114514Y-61428608D01*
X129235181Y-61658500D01*
X130429000Y-61658500D01*
X130429000Y-60465345D01*
X130199110Y-60344024D01*
X129789076Y-60513855D01*
X129360817Y-60904142D01*
X129114514Y-61428608D01*
X126043500Y-61428608D01*
X126043500Y-59656854D01*
X126243817Y-59619162D01*
X126459941Y-59480090D01*
X126604931Y-59267890D01*
X126655940Y-59016000D01*
X126655940Y-57316000D01*
X126611662Y-57080683D01*
X126472590Y-56864559D01*
X126260390Y-56719569D01*
X126192959Y-56705914D01*
X126237647Y-56676054D01*
X126559554Y-56194285D01*
X126672593Y-55626000D01*
X126559554Y-55057715D01*
X126237647Y-54575946D01*
X125896947Y-54348298D01*
X126039858Y-54281183D01*
X126430145Y-53852924D01*
X126434393Y-53842667D01*
X141939838Y-53842667D01*
X142081883Y-54186443D01*
X142344673Y-54449692D01*
X142688201Y-54592338D01*
X143060167Y-54592662D01*
X143403943Y-54450617D01*
X143437118Y-54417500D01*
X147132198Y-54417500D01*
X150433500Y-57718802D01*
X150433500Y-63500000D01*
X150491352Y-63790839D01*
X150656099Y-64037401D01*
X150766378Y-64147680D01*
X150766338Y-64193167D01*
X150908383Y-64536943D01*
X151171173Y-64800192D01*
X151514701Y-64942838D01*
X151886667Y-64943162D01*
X152230443Y-64801117D01*
X152493692Y-64538327D01*
X152636338Y-64194799D01*
X152636662Y-63822833D01*
X152494617Y-63479057D01*
X152231827Y-63215808D01*
X151953500Y-63100236D01*
X151953500Y-57404000D01*
X151895648Y-57113161D01*
X151730901Y-56866599D01*
X147984401Y-53120099D01*
X147737839Y-52955352D01*
X147447000Y-52897500D01*
X143437463Y-52897500D01*
X143405327Y-52865308D01*
X143061799Y-52722662D01*
X142689833Y-52722338D01*
X142346057Y-52864383D01*
X142082808Y-53127173D01*
X141940162Y-53470701D01*
X141939838Y-53842667D01*
X126434393Y-53842667D01*
X126599976Y-53442890D01*
X126478655Y-53213000D01*
X125285500Y-53213000D01*
X125285500Y-53233000D01*
X125031500Y-53233000D01*
X125031500Y-53213000D01*
X122745500Y-53213000D01*
X122745500Y-53233000D01*
X122491500Y-53233000D01*
X122491500Y-53213000D01*
X121298345Y-53213000D01*
X121177024Y-53442890D01*
X121346855Y-53852924D01*
X121737142Y-54281183D01*
X121880053Y-54348298D01*
X121539353Y-54575946D01*
X121217446Y-55057715D01*
X121104407Y-55626000D01*
X120267000Y-55626000D01*
X120267000Y-53784500D01*
X120209148Y-53493661D01*
X120209148Y-53493660D01*
X120044401Y-53247099D01*
X119526412Y-52729110D01*
X121177024Y-52729110D01*
X121298345Y-52959000D01*
X122491500Y-52959000D01*
X122491500Y-51765181D01*
X122745500Y-51765181D01*
X122745500Y-52959000D01*
X125031500Y-52959000D01*
X125031500Y-51765181D01*
X125285500Y-51765181D01*
X125285500Y-52959000D01*
X126478655Y-52959000D01*
X126599976Y-52729110D01*
X126430145Y-52319076D01*
X126039858Y-51890817D01*
X125515392Y-51644514D01*
X125285500Y-51765181D01*
X125031500Y-51765181D01*
X124801608Y-51644514D01*
X124277142Y-51890817D01*
X123888500Y-52317271D01*
X123499858Y-51890817D01*
X122975392Y-51644514D01*
X122745500Y-51765181D01*
X122491500Y-51765181D01*
X122261608Y-51644514D01*
X121737142Y-51890817D01*
X121346855Y-52319076D01*
X121177024Y-52729110D01*
X119526412Y-52729110D01*
X119345901Y-52548599D01*
X119099339Y-52383852D01*
X118808500Y-52326000D01*
X118557454Y-52326000D01*
X118363647Y-52035946D01*
X117881878Y-51714039D01*
X117313593Y-51601000D01*
X117255407Y-51601000D01*
X116687122Y-51714039D01*
X116205353Y-52035946D01*
X116204529Y-52037179D01*
X116197662Y-52000683D01*
X116058590Y-51784559D01*
X115846390Y-51639569D01*
X115594500Y-51588560D01*
X113894500Y-51588560D01*
X113659183Y-51632838D01*
X113443059Y-51771910D01*
X113298069Y-51984110D01*
X113247060Y-52236000D01*
X113247060Y-53936000D01*
X113291338Y-54171317D01*
X113430410Y-54387441D01*
X113642610Y-54532431D01*
X113750607Y-54554301D01*
X113472855Y-54859076D01*
X113303024Y-55269110D01*
X113424345Y-55499000D01*
X114617500Y-55499000D01*
X114617500Y-55479000D01*
X114871500Y-55479000D01*
X114871500Y-55499000D01*
X117157500Y-55499000D01*
X117157500Y-55479000D01*
X117411500Y-55479000D01*
X117411500Y-55499000D01*
X117431500Y-55499000D01*
X117431500Y-55753000D01*
X117411500Y-55753000D01*
X117411500Y-56946819D01*
X117641392Y-57067486D01*
X117971009Y-56912689D01*
X117477698Y-57406000D01*
X114681000Y-57406000D01*
X114390161Y-57463852D01*
X114143599Y-57628599D01*
X111887650Y-59884548D01*
X111996338Y-59622799D01*
X111996662Y-59250833D01*
X111854617Y-58907057D01*
X111591827Y-58643808D01*
X111377000Y-58554604D01*
X111377000Y-56061463D01*
X111409192Y-56029327D01*
X111428474Y-55982890D01*
X113303024Y-55982890D01*
X113472855Y-56392924D01*
X113863142Y-56821183D01*
X114387608Y-57067486D01*
X114617500Y-56946819D01*
X114617500Y-55753000D01*
X114871500Y-55753000D01*
X114871500Y-56946819D01*
X115101392Y-57067486D01*
X115625858Y-56821183D01*
X116014500Y-56394729D01*
X116403142Y-56821183D01*
X116927608Y-57067486D01*
X117157500Y-56946819D01*
X117157500Y-55753000D01*
X114871500Y-55753000D01*
X114617500Y-55753000D01*
X113424345Y-55753000D01*
X113303024Y-55982890D01*
X111428474Y-55982890D01*
X111551838Y-55685799D01*
X111552162Y-55313833D01*
X111410117Y-54970057D01*
X111147327Y-54706808D01*
X110803799Y-54564162D01*
X110431833Y-54563838D01*
X110088057Y-54705883D01*
X109824808Y-54968673D01*
X109682162Y-55312201D01*
X109681838Y-55684167D01*
X109823883Y-56027943D01*
X109857000Y-56061118D01*
X109857000Y-58991500D01*
X109914852Y-59282339D01*
X110079599Y-59528901D01*
X110126378Y-59575680D01*
X110126338Y-59621167D01*
X110268383Y-59964943D01*
X110531173Y-60228192D01*
X110874701Y-60370838D01*
X111246667Y-60371162D01*
X111509732Y-60262466D01*
X110746698Y-61025500D01*
X102743000Y-61025500D01*
X102452161Y-61083352D01*
X102205599Y-61248099D01*
X94173648Y-69280050D01*
X94138117Y-69194057D01*
X93875327Y-68930808D01*
X93531799Y-68788162D01*
X93159833Y-68787838D01*
X92816057Y-68929883D01*
X92782882Y-68963000D01*
X89090500Y-68963000D01*
X88799661Y-69020852D01*
X88553099Y-69185599D01*
X83790599Y-73948099D01*
X83625852Y-74194661D01*
X83568000Y-74485500D01*
X83568000Y-77663198D01*
X78710599Y-82520599D01*
X78545852Y-82767161D01*
X78488000Y-83058000D01*
X78488000Y-84394198D01*
X72694820Y-90187378D01*
X72649333Y-90187338D01*
X72305557Y-90329383D01*
X72042308Y-90592173D01*
X71899662Y-90935701D01*
X71899338Y-91307667D01*
X59955500Y-91307667D01*
X59955500Y-82488373D01*
X65154812Y-82488373D01*
X65319646Y-82887300D01*
X65624595Y-83192782D01*
X66023233Y-83358311D01*
X66454873Y-83358688D01*
X66853800Y-83193854D01*
X67159282Y-82888905D01*
X67324811Y-82490267D01*
X67325188Y-82058627D01*
X67160354Y-81659700D01*
X66855405Y-81354218D01*
X66456767Y-81188689D01*
X66025127Y-81188312D01*
X65626200Y-81353146D01*
X65320718Y-81658095D01*
X65155189Y-82056733D01*
X65154812Y-82488373D01*
X59955500Y-82488373D01*
X59955500Y-78088373D01*
X65154812Y-78088373D01*
X65319646Y-78487300D01*
X65624595Y-78792782D01*
X66023233Y-78958311D01*
X66454873Y-78958688D01*
X66843361Y-78798167D01*
X71327838Y-78798167D01*
X71469883Y-79141943D01*
X71547539Y-79219734D01*
X71455162Y-79442201D01*
X71454838Y-79814167D01*
X71596883Y-80157943D01*
X71859673Y-80421192D01*
X72203201Y-80563838D01*
X72575167Y-80564162D01*
X72918943Y-80422117D01*
X73015729Y-80325500D01*
X78876037Y-80325500D01*
X78908173Y-80357692D01*
X79251701Y-80500338D01*
X79623667Y-80500662D01*
X79967443Y-80358617D01*
X80230692Y-80095827D01*
X80373338Y-79752299D01*
X80373662Y-79380333D01*
X80330371Y-79275560D01*
X80475443Y-79215617D01*
X80738692Y-78952827D01*
X80881338Y-78609299D01*
X80881662Y-78237333D01*
X80739617Y-77893557D01*
X80476827Y-77630308D01*
X80133299Y-77487662D01*
X79761333Y-77487338D01*
X79417557Y-77629383D01*
X79384382Y-77662500D01*
X72453500Y-77662500D01*
X72375090Y-77678097D01*
X72077833Y-77677838D01*
X71734057Y-77819883D01*
X71470808Y-78082673D01*
X71328162Y-78426201D01*
X71327838Y-78798167D01*
X66843361Y-78798167D01*
X66853800Y-78793854D01*
X67159282Y-78488905D01*
X67324811Y-78090267D01*
X67325188Y-77658627D01*
X67160354Y-77259700D01*
X66855405Y-76954218D01*
X66456767Y-76788689D01*
X66025127Y-76788312D01*
X65626200Y-76953146D01*
X65320718Y-77258095D01*
X65155189Y-77656733D01*
X65154812Y-78088373D01*
X59955500Y-78088373D01*
X59955500Y-70280354D01*
X62205957Y-70280354D01*
X62682227Y-71433015D01*
X63563347Y-72315674D01*
X64715174Y-72793954D01*
X65962354Y-72795043D01*
X67115015Y-72318773D01*
X67997674Y-71437653D01*
X68475954Y-70285826D01*
X68477043Y-69038646D01*
X68000773Y-67885985D01*
X67421331Y-67305530D01*
X69986782Y-67305530D01*
X70178201Y-67768800D01*
X70532335Y-68123553D01*
X70995271Y-68315781D01*
X71496530Y-68316218D01*
X71959800Y-68124799D01*
X72314553Y-67770665D01*
X72485392Y-67359240D01*
X75097566Y-64747066D01*
X75110678Y-64727443D01*
X75343603Y-64378846D01*
X75430000Y-63944500D01*
X75430000Y-61430132D01*
X76289132Y-60571000D01*
X78041500Y-60571000D01*
X78475846Y-60484603D01*
X78844066Y-60238566D01*
X80114066Y-58968566D01*
X80156090Y-58905673D01*
X80360103Y-58600346D01*
X80446500Y-58166000D01*
X80446500Y-55635632D01*
X84985934Y-60175066D01*
X85354154Y-60421103D01*
X85788500Y-60507500D01*
X102933500Y-60507500D01*
X102944063Y-60505399D01*
X103310030Y-60505718D01*
X103773300Y-60314299D01*
X104128053Y-59960165D01*
X104320281Y-59497229D01*
X104320718Y-58995970D01*
X104129299Y-58532700D01*
X103775165Y-58177947D01*
X103312229Y-57985719D01*
X102810970Y-57985282D01*
X102347700Y-58176701D01*
X102286795Y-58237500D01*
X86258632Y-58237500D01*
X83559522Y-55538390D01*
X102063524Y-55538390D01*
X102233355Y-55948424D01*
X102623642Y-56376683D01*
X103148108Y-56622986D01*
X103378000Y-56502319D01*
X103378000Y-55308500D01*
X103632000Y-55308500D01*
X103632000Y-56502319D01*
X103861892Y-56622986D01*
X104386358Y-56376683D01*
X104776645Y-55948424D01*
X104946476Y-55538390D01*
X104825155Y-55308500D01*
X103632000Y-55308500D01*
X103378000Y-55308500D01*
X102184845Y-55308500D01*
X102063524Y-55538390D01*
X83559522Y-55538390D01*
X80504555Y-52483423D01*
X80380299Y-52182700D01*
X80026165Y-51827947D01*
X79563229Y-51635719D01*
X79061970Y-51635282D01*
X78598700Y-51826701D01*
X78243947Y-52180835D01*
X78051719Y-52643771D01*
X78051282Y-53145030D01*
X78176500Y-53448081D01*
X78176500Y-57695868D01*
X77571368Y-58301000D01*
X75819000Y-58301000D01*
X75384654Y-58387397D01*
X75065955Y-58600345D01*
X75016434Y-58633434D01*
X73683802Y-59966066D01*
X73492434Y-60093934D01*
X73246397Y-60462154D01*
X73160000Y-60896500D01*
X73160000Y-63474368D01*
X70726711Y-65907657D01*
X70534200Y-65987201D01*
X70179447Y-66341335D01*
X69987219Y-66804271D01*
X69986782Y-67305530D01*
X67421331Y-67305530D01*
X67119653Y-67003326D01*
X65967826Y-66525046D01*
X64720646Y-66523957D01*
X63567985Y-67000227D01*
X62685326Y-67881347D01*
X62207046Y-69033174D01*
X62205957Y-70280354D01*
X59955500Y-70280354D01*
X59955500Y-63874130D01*
X61209975Y-63874130D01*
X61552566Y-64348777D01*
X62885800Y-64908842D01*
X64331875Y-64916068D01*
X65670639Y-64369354D01*
X65701434Y-64348777D01*
X66044025Y-63874130D01*
X63627000Y-61457105D01*
X61209975Y-63874130D01*
X59955500Y-63874130D01*
X59955500Y-61982375D01*
X59988432Y-61982375D01*
X60535146Y-63321139D01*
X60555723Y-63351934D01*
X61030370Y-63694525D01*
X63447395Y-61277500D01*
X63806605Y-61277500D01*
X66223630Y-63694525D01*
X66698277Y-63351934D01*
X67258342Y-62018700D01*
X67265568Y-60572625D01*
X66718854Y-59233861D01*
X66698277Y-59203066D01*
X66223630Y-58860475D01*
X63806605Y-61277500D01*
X63447395Y-61277500D01*
X61030370Y-58860475D01*
X60555723Y-59203066D01*
X59995658Y-60536300D01*
X59988432Y-61982375D01*
X59955500Y-61982375D01*
X59955500Y-51510000D01*
X61254176Y-51510000D01*
X60547194Y-52215749D01*
X60547194Y-52215749D01*
G37*
X60547194Y-52215749D02*
X59992632Y-53551282D01*
X59991370Y-54997374D01*
X60543600Y-56333872D01*
X61565249Y-57357306D01*
X62579974Y-57778657D01*
X61583361Y-58185646D01*
X61552566Y-58206223D01*
X61209975Y-58680870D01*
X63627000Y-61097895D01*
X66044025Y-58680870D01*
X65701434Y-58206223D01*
X64678015Y-57776305D01*
X65683372Y-57360900D01*
X66706806Y-56339251D01*
X67261368Y-55003718D01*
X67262630Y-53557626D01*
X66710400Y-52221128D01*
X66000512Y-51510000D01*
X102078801Y-51510000D01*
X102058569Y-51539610D01*
X102007560Y-51791500D01*
X102007560Y-53491500D01*
X102051838Y-53726817D01*
X102190910Y-53942941D01*
X102403110Y-54087931D01*
X102511107Y-54109801D01*
X102233355Y-54414576D01*
X102063524Y-54824610D01*
X102184845Y-55054500D01*
X103378000Y-55054500D01*
X103378000Y-55034500D01*
X103632000Y-55034500D01*
X103632000Y-55054500D01*
X104825155Y-55054500D01*
X104946476Y-54824610D01*
X104776645Y-54414576D01*
X104500499Y-54111563D01*
X104590317Y-54094662D01*
X104806441Y-53955590D01*
X104951431Y-53743390D01*
X105002440Y-53491500D01*
X105002440Y-51791500D01*
X104958162Y-51556183D01*
X104928444Y-51510000D01*
X154634399Y-51510000D01*
X154182485Y-51696727D01*
X153299826Y-52577847D01*
X152821546Y-53729674D01*
X152820457Y-54976854D01*
X153296727Y-56129515D01*
X154177847Y-57012174D01*
X155329674Y-57490454D01*
X156576854Y-57491543D01*
X157729515Y-57015273D01*
X158612174Y-56134153D01*
X159090454Y-54982326D01*
X159091543Y-53735146D01*
X158615273Y-52582485D01*
X157734153Y-51699826D01*
X157277001Y-51510000D01*
X160199000Y-51510000D01*
X160199000Y-97558035D01*
X160139273Y-97413485D01*
X159258153Y-96530826D01*
X158106326Y-96052546D01*
X156859146Y-96051457D01*
X155706485Y-96527727D01*
X154823826Y-97408847D01*
X154345546Y-98560674D01*
X154344457Y-99807854D01*
X154820727Y-100960515D01*
X155701847Y-101843174D01*
X156853674Y-102321454D01*
X158100854Y-102322543D01*
X159253515Y-101846273D01*
X160136174Y-100965153D01*
X160199000Y-100813851D01*
X160199000Y-103303000D01*
X59955500Y-103303000D01*
X59955500Y-98273892D01*
X117113014Y-98273892D01*
X117359317Y-98798358D01*
X117787576Y-99188645D01*
X118197610Y-99358476D01*
X118427500Y-99237155D01*
X118427500Y-98044000D01*
X117233681Y-98044000D01*
X117113014Y-98273892D01*
X59955500Y-98273892D01*
X59955500Y-97560108D01*
X117113014Y-97560108D01*
X117233681Y-97790000D01*
X118427500Y-97790000D01*
X118427500Y-96596845D01*
X118681500Y-96596845D01*
X118681500Y-97790000D01*
X118701500Y-97790000D01*
X118701500Y-98044000D01*
X118681500Y-98044000D01*
X118681500Y-99237155D01*
X118911390Y-99358476D01*
X119321424Y-99188645D01*
X119749683Y-98798358D01*
X119816798Y-98655447D01*
X120044446Y-98996147D01*
X120526215Y-99318054D01*
X121094500Y-99431093D01*
X121662785Y-99318054D01*
X122144554Y-98996147D01*
X122364500Y-98666974D01*
X122584446Y-98996147D01*
X123066215Y-99318054D01*
X123634500Y-99431093D01*
X124202785Y-99318054D01*
X124684554Y-98996147D01*
X124712350Y-98954548D01*
X124721338Y-99002317D01*
X124860410Y-99218441D01*
X125072610Y-99363431D01*
X125324500Y-99414440D01*
X127024500Y-99414440D01*
X127259817Y-99370162D01*
X127475941Y-99231090D01*
X127620931Y-99018890D01*
X127671940Y-98767000D01*
X127671940Y-98464390D01*
X132289524Y-98464390D01*
X132459355Y-98874424D01*
X132849642Y-99302683D01*
X133374108Y-99548986D01*
X133604000Y-99428319D01*
X133604000Y-98234500D01*
X133858000Y-98234500D01*
X133858000Y-99428319D01*
X134087892Y-99548986D01*
X134612358Y-99302683D01*
X135002645Y-98874424D01*
X135172476Y-98464390D01*
X135051155Y-98234500D01*
X133858000Y-98234500D01*
X133604000Y-98234500D01*
X132410845Y-98234500D01*
X132289524Y-98464390D01*
X127671940Y-98464390D01*
X127671940Y-97067000D01*
X127627662Y-96831683D01*
X127488590Y-96615559D01*
X127276390Y-96470569D01*
X127024500Y-96419560D01*
X125324500Y-96419560D01*
X125089183Y-96463838D01*
X124873059Y-96602910D01*
X124728069Y-96815110D01*
X124714414Y-96882541D01*
X124684554Y-96837853D01*
X124202785Y-96515946D01*
X123634500Y-96402907D01*
X123066215Y-96515946D01*
X122584446Y-96837853D01*
X122364500Y-97167026D01*
X122144554Y-96837853D01*
X121662785Y-96515946D01*
X121094500Y-96402907D01*
X120526215Y-96515946D01*
X120044446Y-96837853D01*
X119816798Y-97178553D01*
X119749683Y-97035642D01*
X119321424Y-96645355D01*
X118911390Y-96475524D01*
X118681500Y-96596845D01*
X118427500Y-96596845D01*
X118197610Y-96475524D01*
X117787576Y-96645355D01*
X117359317Y-97035642D01*
X117113014Y-97560108D01*
X59955500Y-97560108D01*
X59955500Y-91307667D01*
X71899338Y-91307667D01*
X72041383Y-91651443D01*
X72304173Y-91914692D01*
X72647701Y-92057338D01*
X72809540Y-92057479D01*
X72930383Y-92349943D01*
X73193173Y-92613192D01*
X73371201Y-92687116D01*
X73360162Y-92713701D01*
X73359838Y-93085667D01*
X73501883Y-93429443D01*
X73764673Y-93692692D01*
X73867991Y-93735594D01*
X73867838Y-93911167D01*
X74009883Y-94254943D01*
X74272673Y-94518192D01*
X74616201Y-94660838D01*
X74988167Y-94661162D01*
X75331943Y-94519117D01*
X75595192Y-94256327D01*
X75737838Y-93912799D01*
X75737879Y-93865923D01*
X76165901Y-93437901D01*
X76330648Y-93191340D01*
X76388500Y-92900500D01*
X76388500Y-92518200D01*
X76907854Y-91998846D01*
X77072601Y-91752284D01*
X77130453Y-91461445D01*
X77130453Y-90125247D01*
X83564700Y-83691000D01*
X88646000Y-83691000D01*
X88936839Y-83633148D01*
X89183401Y-83468401D01*
X89627901Y-83023901D01*
X89792648Y-82777339D01*
X89850500Y-82486500D01*
X89850500Y-82352802D01*
X90568378Y-83070680D01*
X90568338Y-83116167D01*
X90710383Y-83459943D01*
X90743500Y-83493118D01*
X90743500Y-84899500D01*
X90801352Y-85190339D01*
X90966099Y-85436901D01*
X92871099Y-87341901D01*
X93117661Y-87506648D01*
X93408500Y-87564500D01*
X108905198Y-87564500D01*
X110397099Y-89056401D01*
X110643661Y-89221148D01*
X110934500Y-89279000D01*
X113032698Y-89279000D01*
X113047378Y-89293680D01*
X113047338Y-89339167D01*
X113098296Y-89462496D01*
X83499802Y-89462496D01*
X82780905Y-88743599D01*
X82534343Y-88578852D01*
X82243504Y-88521000D01*
X81842463Y-88521000D01*
X81810327Y-88488808D01*
X81466799Y-88346162D01*
X81094833Y-88345838D01*
X80751057Y-88487883D01*
X80487808Y-88750673D01*
X80345162Y-89094201D01*
X80344838Y-89466167D01*
X80452080Y-89725714D01*
X80345162Y-89983201D01*
X80344838Y-90355167D01*
X80465232Y-90646543D01*
X80345162Y-90935701D01*
X80344838Y-91307667D01*
X80486883Y-91651443D01*
X80749673Y-91914692D01*
X81093201Y-92057338D01*
X81465167Y-92057662D01*
X81808943Y-91915617D01*
X81842118Y-91882500D01*
X113174390Y-91882500D01*
X113174338Y-91942667D01*
X113316383Y-92286443D01*
X113579173Y-92549692D01*
X113922701Y-92692338D01*
X113969577Y-92692379D01*
X114307928Y-93030730D01*
X114206308Y-93132173D01*
X114063662Y-93475701D01*
X114063338Y-93847667D01*
X114205383Y-94191443D01*
X114468173Y-94454692D01*
X114811701Y-94597338D01*
X114858577Y-94597379D01*
X115667599Y-95406401D01*
X115914161Y-95571148D01*
X116205000Y-95629000D01*
X130368198Y-95629000D01*
X130844099Y-96104901D01*
X131090660Y-96269648D01*
X131381500Y-96327500D01*
X132458046Y-96327500D01*
X132651853Y-96617554D01*
X132992553Y-96845202D01*
X132849642Y-96912317D01*
X132459355Y-97340576D01*
X132289524Y-97750610D01*
X132410845Y-97980500D01*
X133604000Y-97980500D01*
X133604000Y-97960500D01*
X133858000Y-97960500D01*
X133858000Y-97980500D01*
X135051155Y-97980500D01*
X135172476Y-97750610D01*
X135126042Y-97638500D01*
X140933060Y-97638500D01*
X140933060Y-99338500D01*
X140977338Y-99573817D01*
X141116410Y-99789941D01*
X141328610Y-99934931D01*
X141580500Y-99985940D01*
X143280500Y-99985940D01*
X143515817Y-99941662D01*
X143731941Y-99802590D01*
X143876931Y-99590390D01*
X143890586Y-99522959D01*
X143920446Y-99567647D01*
X144402215Y-99889554D01*
X144970500Y-100002593D01*
X145538785Y-99889554D01*
X146020554Y-99567647D01*
X146240500Y-99238474D01*
X146460446Y-99567647D01*
X146942215Y-99889554D01*
X147510500Y-100002593D01*
X148078785Y-99889554D01*
X148560554Y-99567647D01*
X148788202Y-99226947D01*
X148855317Y-99369858D01*
X149283576Y-99760145D01*
X149693610Y-99929976D01*
X149923500Y-99808655D01*
X149923500Y-98615500D01*
X150177500Y-98615500D01*
X150177500Y-99808655D01*
X150407390Y-99929976D01*
X150817424Y-99760145D01*
X151245683Y-99369858D01*
X151491986Y-98845392D01*
X151371319Y-98615500D01*
X150177500Y-98615500D01*
X149923500Y-98615500D01*
X149903500Y-98615500D01*
X149903500Y-98361500D01*
X149923500Y-98361500D01*
X149923500Y-97168345D01*
X150177500Y-97168345D01*
X150177500Y-98361500D01*
X151371319Y-98361500D01*
X151491986Y-98131608D01*
X151245683Y-97607142D01*
X150817424Y-97216855D01*
X150407390Y-97047024D01*
X150177500Y-97168345D01*
X149923500Y-97168345D01*
X149693610Y-97047024D01*
X149283576Y-97216855D01*
X148855317Y-97607142D01*
X148788202Y-97750053D01*
X148560554Y-97409353D01*
X148078785Y-97087446D01*
X147510500Y-96974407D01*
X146942215Y-97087446D01*
X146460446Y-97409353D01*
X146240500Y-97738526D01*
X146020554Y-97409353D01*
X145538785Y-97087446D01*
X144970500Y-96974407D01*
X144402215Y-97087446D01*
X143920446Y-97409353D01*
X143892650Y-97450952D01*
X143883662Y-97403183D01*
X143744590Y-97187059D01*
X143532390Y-97042069D01*
X143280500Y-96991060D01*
X141580500Y-96991060D01*
X141345183Y-97035338D01*
X141129059Y-97174410D01*
X140984069Y-97386610D01*
X140933060Y-97638500D01*
X135126042Y-97638500D01*
X135002645Y-97340576D01*
X134612358Y-96912317D01*
X134469447Y-96845202D01*
X134810147Y-96617554D01*
X135132054Y-96135785D01*
X135245093Y-95567500D01*
X135132054Y-94999215D01*
X134810147Y-94517446D01*
X134768548Y-94489650D01*
X134816317Y-94480662D01*
X135032441Y-94341590D01*
X135177431Y-94129390D01*
X135228440Y-93877500D01*
X135228440Y-92177500D01*
X135184162Y-91942183D01*
X135045090Y-91726059D01*
X134832890Y-91581069D01*
X134581000Y-91530060D01*
X132881000Y-91530060D01*
X132645683Y-91574338D01*
X132429559Y-91713410D01*
X132284569Y-91925610D01*
X132266771Y-92013500D01*
X115440302Y-92013500D01*
X115309302Y-91882500D01*
X121539000Y-91882500D01*
X121829839Y-91824648D01*
X122076401Y-91659901D01*
X124520802Y-89215500D01*
X135699500Y-89215500D01*
X135990339Y-89157648D01*
X136236901Y-88992901D01*
X140728680Y-84501122D01*
X140774167Y-84501162D01*
X140845000Y-84471894D01*
X140845000Y-87251698D01*
X140639820Y-87456878D01*
X140594333Y-87456838D01*
X140250557Y-87598883D01*
X139987308Y-87861673D01*
X139844662Y-88205201D01*
X139844338Y-88577167D01*
X139986383Y-88920943D01*
X140249173Y-89184192D01*
X140592701Y-89326838D01*
X140964667Y-89327162D01*
X141308443Y-89185117D01*
X141571692Y-88922327D01*
X141714338Y-88578799D01*
X141714379Y-88531923D01*
X142142401Y-88103901D01*
X142307148Y-87857340D01*
X142365000Y-87566500D01*
X142365000Y-82931000D01*
X142307148Y-82640161D01*
X142307148Y-82640160D01*
X142142401Y-82393599D01*
X141443901Y-81695099D01*
X141197339Y-81530352D01*
X140906500Y-81472500D01*
X138865463Y-81472500D01*
X138833327Y-81440308D01*
X138489799Y-81297662D01*
X138117833Y-81297338D01*
X137774057Y-81439383D01*
X137510808Y-81702173D01*
X137368162Y-82045701D01*
X137368121Y-82092577D01*
X135670099Y-83790599D01*
X135505352Y-84037161D01*
X135447500Y-84328000D01*
X135447500Y-86359902D01*
X135011906Y-86795496D01*
X128972806Y-86795496D01*
X129505901Y-86262401D01*
X129670648Y-86015840D01*
X129728500Y-85725000D01*
X129728500Y-77147167D01*
X130573338Y-77147167D01*
X130715383Y-77490943D01*
X130978173Y-77754192D01*
X131321701Y-77896838D01*
X131693667Y-77897162D01*
X132037443Y-77755117D01*
X132300692Y-77492327D01*
X132443338Y-77148799D01*
X132443441Y-77030579D01*
X132464648Y-76998840D01*
X132522500Y-76708000D01*
X132522500Y-75492463D01*
X132554692Y-75460327D01*
X132697338Y-75116799D01*
X132697662Y-74744833D01*
X132555617Y-74401057D01*
X132292827Y-74137808D01*
X131949299Y-73995162D01*
X131577333Y-73994838D01*
X131233557Y-74136883D01*
X130970308Y-74399673D01*
X130827662Y-74743201D01*
X130827338Y-75115167D01*
X130969383Y-75458943D01*
X131002500Y-75492118D01*
X131002500Y-76159403D01*
X130979557Y-76168883D01*
X130716308Y-76431673D01*
X130573662Y-76775201D01*
X130573338Y-77147167D01*
X129728500Y-77147167D01*
X129728500Y-72768302D01*
X130172302Y-72324500D01*
X130251556Y-72324500D01*
X130208308Y-72367673D01*
X130065662Y-72711201D01*
X130065338Y-73083167D01*
X130207383Y-73426943D01*
X130470173Y-73690192D01*
X130813701Y-73832838D01*
X131185667Y-73833162D01*
X131455910Y-73721500D01*
X135067198Y-73721500D01*
X135511000Y-74165302D01*
X135511000Y-78168500D01*
X135568852Y-78459339D01*
X135733599Y-78705901D01*
X136686099Y-79658401D01*
X136932660Y-79823148D01*
X136980914Y-79832746D01*
X137223500Y-79881000D01*
X139700000Y-79881000D01*
X139990839Y-79823148D01*
X140237401Y-79658401D01*
X141665802Y-78230000D01*
X148465698Y-78230000D01*
X150433500Y-80197802D01*
X150433500Y-87695500D01*
X146364802Y-87695500D01*
X146223122Y-87553820D01*
X146223162Y-87508333D01*
X146081117Y-87164557D01*
X145818327Y-86901308D01*
X145474799Y-86758662D01*
X145102833Y-86758338D01*
X144759057Y-86900383D01*
X144495808Y-87163173D01*
X144353162Y-87506701D01*
X144352838Y-87878667D01*
X144494883Y-88222443D01*
X144757673Y-88485692D01*
X145101201Y-88628338D01*
X145148077Y-88628379D01*
X145512599Y-88992901D01*
X145759161Y-89157648D01*
X146050000Y-89215500D01*
X151193500Y-89215500D01*
X151484339Y-89157648D01*
X151730901Y-88992901D01*
X151895648Y-88746339D01*
X151953500Y-88455500D01*
X151953500Y-79883000D01*
X151895648Y-79592161D01*
X151895648Y-79592160D01*
X151730901Y-79345599D01*
X149317901Y-76932599D01*
X149071339Y-76767852D01*
X148780500Y-76710000D01*
X141351000Y-76710000D01*
X141060161Y-76767852D01*
X140813599Y-76932599D01*
X139385198Y-78361000D01*
X137538302Y-78361000D01*
X137031000Y-77853698D01*
X137031000Y-77393444D01*
X137074173Y-77436692D01*
X137417701Y-77579338D01*
X137789667Y-77579662D01*
X138133443Y-77437617D01*
X138396692Y-77174827D01*
X138539338Y-76831299D01*
X138539379Y-76784423D01*
X138649901Y-76673901D01*
X138814647Y-76427340D01*
X138814648Y-76427339D01*
X138872500Y-76136500D01*
X138872500Y-73917334D01*
X138958943Y-73881617D01*
X139014657Y-73826000D01*
X155792060Y-73826000D01*
X155792060Y-75526000D01*
X155836338Y-75761317D01*
X155975410Y-75977441D01*
X156187610Y-76122431D01*
X156439500Y-76173440D01*
X156720000Y-76173440D01*
X156720000Y-93417648D01*
X156624308Y-93513173D01*
X156481662Y-93856701D01*
X156481338Y-94228667D01*
X156623383Y-94572443D01*
X156886173Y-94835692D01*
X157229701Y-94978338D01*
X157601667Y-94978662D01*
X157945443Y-94836617D01*
X158208692Y-94573827D01*
X158351338Y-94230299D01*
X158351662Y-93858333D01*
X158240000Y-93588090D01*
X158240000Y-76154530D01*
X158374817Y-76129162D01*
X158590941Y-75990090D01*
X158735931Y-75777890D01*
X158786940Y-75526000D01*
X158786940Y-73826000D01*
X158742662Y-73590683D01*
X158603590Y-73374559D01*
X158391390Y-73229569D01*
X158139500Y-73178560D01*
X156439500Y-73178560D01*
X156204183Y-73222838D01*
X155988059Y-73361910D01*
X155843069Y-73574110D01*
X155792060Y-73826000D01*
X139014657Y-73826000D01*
X139222192Y-73618827D01*
X139364838Y-73275299D01*
X139365162Y-72903333D01*
X139223117Y-72559557D01*
X138960327Y-72296308D01*
X138616799Y-72153662D01*
X138244833Y-72153338D01*
X137901057Y-72295383D01*
X137637808Y-72558173D01*
X137495162Y-72901701D01*
X137495087Y-72988346D01*
X137410352Y-73115161D01*
X137352500Y-73406000D01*
X137352500Y-75736953D01*
X137075557Y-75851383D01*
X137031000Y-75895862D01*
X137031000Y-73850500D01*
X136973148Y-73559661D01*
X136808401Y-73313099D01*
X135919401Y-72424099D01*
X135672839Y-72259352D01*
X135382000Y-72201500D01*
X134817840Y-72201500D01*
X134966901Y-72101901D01*
X135919401Y-71149401D01*
X136084148Y-70902840D01*
X136109410Y-70775839D01*
X136142000Y-70612000D01*
X136142000Y-67942302D01*
X136941063Y-67143239D01*
X137137673Y-67340192D01*
X137481201Y-67482838D01*
X137853167Y-67483162D01*
X138196943Y-67341117D01*
X138460192Y-67078327D01*
X138602838Y-66734799D01*
X138602913Y-66648154D01*
X138687648Y-66521339D01*
X138708005Y-66419000D01*
X144018000Y-66419000D01*
X144308839Y-66361148D01*
X144555401Y-66196401D01*
X147222401Y-63529401D01*
X147387148Y-63282839D01*
X147445000Y-62992000D01*
X147445000Y-60915047D01*
X147721943Y-60800617D01*
X147985192Y-60537827D01*
X148127838Y-60194299D01*
X148128162Y-59822333D01*
X147986117Y-59478557D01*
X147723327Y-59215308D01*
X147379799Y-59072662D01*
X147007833Y-59072338D01*
X146664057Y-59214383D01*
X146400808Y-59477173D01*
X146258162Y-59820701D01*
X146258121Y-59867577D01*
X146147599Y-59978099D01*
X145982852Y-60224661D01*
X145925000Y-60515500D01*
X145925000Y-62677198D01*
X143703198Y-64899000D01*
X143306222Y-64899000D01*
X143476692Y-64728827D01*
X143619338Y-64385299D01*
X143619662Y-64013333D01*
X143477617Y-63669557D01*
X143214827Y-63406308D01*
X142871299Y-63263662D01*
X142499333Y-63263338D01*
X142155557Y-63405383D01*
X141892308Y-63668173D01*
X141749662Y-64011701D01*
X141749621Y-64058577D01*
X141359200Y-64448998D01*
X137924104Y-64448998D01*
X137924104Y-63313604D01*
X137873091Y-63057145D01*
X137866252Y-63022764D01*
X137701505Y-62776203D01*
X137133440Y-62208138D01*
X137133440Y-60935500D01*
X137089162Y-60700183D01*
X136950090Y-60484059D01*
X136737890Y-60339069D01*
X136486000Y-60288060D01*
X134786000Y-60288060D01*
X134550683Y-60332338D01*
X134334559Y-60471410D01*
X134189569Y-60683610D01*
X134175914Y-60751041D01*
X134146054Y-60706353D01*
X133664285Y-60384446D01*
X133096000Y-60271407D01*
X132527715Y-60384446D01*
X132045946Y-60706353D01*
X131818298Y-61047053D01*
X131751183Y-60904142D01*
X131322924Y-60513855D01*
X130912890Y-60344024D01*
X130683000Y-60465345D01*
X130683000Y-61658500D01*
X130703000Y-61658500D01*
X130703000Y-61912500D01*
X130683000Y-61912500D01*
X130683000Y-63105655D01*
X130912890Y-63226976D01*
X131322924Y-63057145D01*
X131751183Y-62666858D01*
X131818298Y-62523947D01*
X132045946Y-62864647D01*
X132527715Y-63186554D01*
X133096000Y-63299593D01*
X133664285Y-63186554D01*
X134146054Y-62864647D01*
X134173850Y-62823048D01*
X134182838Y-62870817D01*
X134321910Y-63086941D01*
X134534110Y-63231931D01*
X134786000Y-63282940D01*
X136058638Y-63282940D01*
X136404104Y-63628406D01*
X136404104Y-64894196D01*
X134394597Y-66903703D01*
X134229850Y-67150265D01*
X134171998Y-67441104D01*
X134171998Y-70110802D01*
X133928302Y-70354498D01*
X129671104Y-70354498D01*
X129380265Y-70412350D01*
X129133703Y-70577097D01*
X127981097Y-71729703D01*
X127816350Y-71976265D01*
X127758498Y-72267104D01*
X127758498Y-85223802D01*
X127197302Y-85784998D01*
X112261198Y-85784998D01*
X111086797Y-84610597D01*
X110840235Y-84445850D01*
X110549396Y-84387998D01*
X102424304Y-84387998D01*
X102755680Y-84056622D01*
X102801167Y-84056662D01*
X103144943Y-83914617D01*
X103408192Y-83651827D01*
X103550838Y-83308299D01*
X103551162Y-82936333D01*
X103409117Y-82592557D01*
X103146327Y-82329308D01*
X102802799Y-82186662D01*
X102430833Y-82186338D01*
X102087057Y-82328383D01*
X101823808Y-82591173D01*
X101681162Y-82934701D01*
X101681121Y-82981577D01*
X101221698Y-83441000D01*
X100828741Y-83441000D01*
X100669827Y-83281808D01*
X100326299Y-83139162D01*
X99954333Y-83138838D01*
X99610557Y-83280883D01*
X99347308Y-83543673D01*
X99204662Y-83887201D01*
X99204498Y-84076000D01*
X96964500Y-84076000D01*
X96673660Y-84133852D01*
X96452113Y-84281885D01*
X96398333Y-84281838D01*
X96054557Y-84423883D01*
X95791308Y-84686673D01*
X95648662Y-85030201D01*
X95648338Y-85402167D01*
X95790383Y-85745943D01*
X96053173Y-86009192D01*
X96138204Y-86044500D01*
X93723302Y-86044500D01*
X92263500Y-84584698D01*
X92263500Y-83493463D01*
X92295692Y-83461327D01*
X92408407Y-83189881D01*
X92433673Y-83215192D01*
X92777201Y-83357838D01*
X93149167Y-83358162D01*
X93492943Y-83216117D01*
X93756192Y-82953327D01*
X93898838Y-82609799D01*
X93899162Y-82237833D01*
X93757117Y-81894057D01*
X93494327Y-81630808D01*
X93150799Y-81488162D01*
X93103923Y-81488121D01*
X91819000Y-80203198D01*
X91819000Y-76889463D01*
X91851192Y-76857327D01*
X91993838Y-76513799D01*
X91994162Y-76141833D01*
X91852117Y-75798057D01*
X91589327Y-75534808D01*
X91245799Y-75392162D01*
X90873833Y-75391838D01*
X90530057Y-75533883D01*
X90266808Y-75796673D01*
X90124162Y-76140201D01*
X90123838Y-76512167D01*
X90265883Y-76855943D01*
X90299000Y-76889118D01*
X90299000Y-78574367D01*
X89975799Y-78440162D01*
X89850500Y-78440053D01*
X89850500Y-73212802D01*
X90500180Y-72563122D01*
X90545667Y-72563162D01*
X90889443Y-72421117D01*
X91152692Y-72158327D01*
X91267054Y-71882915D01*
X91266838Y-72130667D01*
X91408883Y-72474443D01*
X91671673Y-72737692D01*
X92015201Y-72880338D01*
X92387167Y-72880662D01*
X92730943Y-72738617D01*
X92994192Y-72475827D01*
X93136132Y-72134000D01*
X93154500Y-72134000D01*
X93445339Y-72076148D01*
X93564971Y-71996213D01*
X93631383Y-72156943D01*
X93894173Y-72420192D01*
X94237701Y-72562838D01*
X94609667Y-72563162D01*
X94953443Y-72421117D01*
X95216692Y-72158327D01*
X95359338Y-71814799D01*
X95359379Y-71767923D01*
X98168302Y-68959000D01*
X103634698Y-68959000D01*
X105698099Y-71022401D01*
X105944660Y-71187148D01*
X106235500Y-71245000D01*
X109159198Y-71245000D01*
X110968599Y-73054401D01*
X111215161Y-73219148D01*
X111506000Y-73277000D01*
X125485148Y-73277000D01*
X125580673Y-73372692D01*
X125924201Y-73515338D01*
X126296167Y-73515662D01*
X126639943Y-73373617D01*
X126903192Y-73110827D01*
X127045838Y-72767299D01*
X127046162Y-72395333D01*
X126904117Y-72051557D01*
X126641327Y-71788308D01*
X126297799Y-71645662D01*
X125925833Y-71645338D01*
X125655590Y-71757000D01*
X111820802Y-71757000D01*
X110352969Y-70289167D01*
X122762838Y-70289167D01*
X122904883Y-70632943D01*
X123167673Y-70896192D01*
X123511201Y-71038838D01*
X123883167Y-71039162D01*
X124226943Y-70897117D01*
X124490192Y-70634327D01*
X124632838Y-70290799D01*
X124632879Y-70243923D01*
X126013401Y-68863401D01*
X126178148Y-68616839D01*
X126236000Y-68326000D01*
X126236000Y-67618463D01*
X126268192Y-67586327D01*
X126410838Y-67242799D01*
X126411162Y-66870833D01*
X126269117Y-66527057D01*
X126006327Y-66263808D01*
X125662799Y-66121162D01*
X125290833Y-66120838D01*
X124947057Y-66262883D01*
X124683808Y-66525673D01*
X124541162Y-66869201D01*
X124540838Y-67241167D01*
X124682883Y-67584943D01*
X124716000Y-67618118D01*
X124716000Y-68011198D01*
X123558320Y-69168878D01*
X123512833Y-69168838D01*
X123169057Y-69310883D01*
X122905808Y-69573673D01*
X122763162Y-69917201D01*
X122762838Y-70289167D01*
X110352969Y-70289167D01*
X110011401Y-69947599D01*
X109764839Y-69782852D01*
X109474000Y-69725000D01*
X106550302Y-69725000D01*
X104486901Y-67661599D01*
X104240339Y-67496852D01*
X103949500Y-67439000D01*
X98164302Y-67439000D01*
X103057802Y-62545500D01*
X111061500Y-62545500D01*
X111352339Y-62487648D01*
X111598901Y-62322901D01*
X114995802Y-58926000D01*
X117792500Y-58926000D01*
X118083339Y-58868148D01*
X118329901Y-58703401D01*
X120044401Y-56988901D01*
X120209148Y-56742339D01*
X120267000Y-56451500D01*
X120267000Y-55626000D01*
X121104407Y-55626000D01*
X121217446Y-56194285D01*
X121539353Y-56676054D01*
X121868526Y-56896000D01*
X121539353Y-57115946D01*
X121217446Y-57597715D01*
X121104407Y-58166000D01*
X121217446Y-58734285D01*
X121539353Y-59216054D01*
X122021122Y-59537961D01*
X122589407Y-59651000D01*
X122647593Y-59651000D01*
X123215878Y-59537961D01*
X123697647Y-59216054D01*
X123698471Y-59214821D01*
X123705338Y-59251317D01*
X123844410Y-59467441D01*
X124056610Y-59612431D01*
X124273500Y-59656352D01*
X124273500Y-62794132D01*
X124218081Y-62849454D01*
X124060180Y-63229723D01*
X124059821Y-63641471D01*
X124217058Y-64022015D01*
X124507954Y-64313419D01*
X124888223Y-64471320D01*
X125299971Y-64471679D01*
X125680515Y-64314442D01*
X125971919Y-64023546D01*
X126129820Y-63643277D01*
X126130179Y-63231529D01*
X126043500Y-63021749D01*
X126043500Y-62142392D01*
X129114514Y-62142392D01*
X129360817Y-62666858D01*
X129789076Y-63057145D01*
X130199110Y-63226976D01*
X130429000Y-63105655D01*
X130429000Y-61912500D01*
X129235181Y-61912500D01*
X129114514Y-62142392D01*
X126043500Y-62142392D01*
X126043500Y-61428608D01*
X129114514Y-61428608D01*
X129235181Y-61658500D01*
X130429000Y-61658500D01*
X130429000Y-60465345D01*
X130199110Y-60344024D01*
X129789076Y-60513855D01*
X129360817Y-60904142D01*
X129114514Y-61428608D01*
X126043500Y-61428608D01*
X126043500Y-59656854D01*
X126243817Y-59619162D01*
X126459941Y-59480090D01*
X126604931Y-59267890D01*
X126655940Y-59016000D01*
X126655940Y-57316000D01*
X126611662Y-57080683D01*
X126472590Y-56864559D01*
X126260390Y-56719569D01*
X126192959Y-56705914D01*
X126237647Y-56676054D01*
X126559554Y-56194285D01*
X126672593Y-55626000D01*
X126559554Y-55057715D01*
X126237647Y-54575946D01*
X125896947Y-54348298D01*
X126039858Y-54281183D01*
X126430145Y-53852924D01*
X126434393Y-53842667D01*
X141939838Y-53842667D01*
X142081883Y-54186443D01*
X142344673Y-54449692D01*
X142688201Y-54592338D01*
X143060167Y-54592662D01*
X143403943Y-54450617D01*
X143437118Y-54417500D01*
X147132198Y-54417500D01*
X150433500Y-57718802D01*
X150433500Y-63500000D01*
X150491352Y-63790839D01*
X150656099Y-64037401D01*
X150766378Y-64147680D01*
X150766338Y-64193167D01*
X150908383Y-64536943D01*
X151171173Y-64800192D01*
X151514701Y-64942838D01*
X151886667Y-64943162D01*
X152230443Y-64801117D01*
X152493692Y-64538327D01*
X152636338Y-64194799D01*
X152636662Y-63822833D01*
X152494617Y-63479057D01*
X152231827Y-63215808D01*
X151953500Y-63100236D01*
X151953500Y-57404000D01*
X151895648Y-57113161D01*
X151730901Y-56866599D01*
X147984401Y-53120099D01*
X147737839Y-52955352D01*
X147447000Y-52897500D01*
X143437463Y-52897500D01*
X143405327Y-52865308D01*
X143061799Y-52722662D01*
X142689833Y-52722338D01*
X142346057Y-52864383D01*
X142082808Y-53127173D01*
X141940162Y-53470701D01*
X141939838Y-53842667D01*
X126434393Y-53842667D01*
X126599976Y-53442890D01*
X126478655Y-53213000D01*
X125285500Y-53213000D01*
X125285500Y-53233000D01*
X125031500Y-53233000D01*
X125031500Y-53213000D01*
X122745500Y-53213000D01*
X122745500Y-53233000D01*
X122491500Y-53233000D01*
X122491500Y-53213000D01*
X121298345Y-53213000D01*
X121177024Y-53442890D01*
X121346855Y-53852924D01*
X121737142Y-54281183D01*
X121880053Y-54348298D01*
X121539353Y-54575946D01*
X121217446Y-55057715D01*
X121104407Y-55626000D01*
X120267000Y-55626000D01*
X120267000Y-53784500D01*
X120209148Y-53493661D01*
X120209148Y-53493660D01*
X120044401Y-53247099D01*
X119526412Y-52729110D01*
X121177024Y-52729110D01*
X121298345Y-52959000D01*
X122491500Y-52959000D01*
X122491500Y-51765181D01*
X122745500Y-51765181D01*
X122745500Y-52959000D01*
X125031500Y-52959000D01*
X125031500Y-51765181D01*
X125285500Y-51765181D01*
X125285500Y-52959000D01*
X126478655Y-52959000D01*
X126599976Y-52729110D01*
X126430145Y-52319076D01*
X126039858Y-51890817D01*
X125515392Y-51644514D01*
X125285500Y-51765181D01*
X125031500Y-51765181D01*
X124801608Y-51644514D01*
X124277142Y-51890817D01*
X123888500Y-52317271D01*
X123499858Y-51890817D01*
X122975392Y-51644514D01*
X122745500Y-51765181D01*
X122491500Y-51765181D01*
X122261608Y-51644514D01*
X121737142Y-51890817D01*
X121346855Y-52319076D01*
X121177024Y-52729110D01*
X119526412Y-52729110D01*
X119345901Y-52548599D01*
X119099339Y-52383852D01*
X118808500Y-52326000D01*
X118557454Y-52326000D01*
X118363647Y-52035946D01*
X117881878Y-51714039D01*
X117313593Y-51601000D01*
X117255407Y-51601000D01*
X116687122Y-51714039D01*
X116205353Y-52035946D01*
X116204529Y-52037179D01*
X116197662Y-52000683D01*
X116058590Y-51784559D01*
X115846390Y-51639569D01*
X115594500Y-51588560D01*
X113894500Y-51588560D01*
X113659183Y-51632838D01*
X113443059Y-51771910D01*
X113298069Y-51984110D01*
X113247060Y-52236000D01*
X113247060Y-53936000D01*
X113291338Y-54171317D01*
X113430410Y-54387441D01*
X113642610Y-54532431D01*
X113750607Y-54554301D01*
X113472855Y-54859076D01*
X113303024Y-55269110D01*
X113424345Y-55499000D01*
X114617500Y-55499000D01*
X114617500Y-55479000D01*
X114871500Y-55479000D01*
X114871500Y-55499000D01*
X117157500Y-55499000D01*
X117157500Y-55479000D01*
X117411500Y-55479000D01*
X117411500Y-55499000D01*
X117431500Y-55499000D01*
X117431500Y-55753000D01*
X117411500Y-55753000D01*
X117411500Y-56946819D01*
X117641392Y-57067486D01*
X117971009Y-56912689D01*
X117477698Y-57406000D01*
X114681000Y-57406000D01*
X114390161Y-57463852D01*
X114143599Y-57628599D01*
X111887650Y-59884548D01*
X111996338Y-59622799D01*
X111996662Y-59250833D01*
X111854617Y-58907057D01*
X111591827Y-58643808D01*
X111377000Y-58554604D01*
X111377000Y-56061463D01*
X111409192Y-56029327D01*
X111428474Y-55982890D01*
X113303024Y-55982890D01*
X113472855Y-56392924D01*
X113863142Y-56821183D01*
X114387608Y-57067486D01*
X114617500Y-56946819D01*
X114617500Y-55753000D01*
X114871500Y-55753000D01*
X114871500Y-56946819D01*
X115101392Y-57067486D01*
X115625858Y-56821183D01*
X116014500Y-56394729D01*
X116403142Y-56821183D01*
X116927608Y-57067486D01*
X117157500Y-56946819D01*
X117157500Y-55753000D01*
X114871500Y-55753000D01*
X114617500Y-55753000D01*
X113424345Y-55753000D01*
X113303024Y-55982890D01*
X111428474Y-55982890D01*
X111551838Y-55685799D01*
X111552162Y-55313833D01*
X111410117Y-54970057D01*
X111147327Y-54706808D01*
X110803799Y-54564162D01*
X110431833Y-54563838D01*
X110088057Y-54705883D01*
X109824808Y-54968673D01*
X109682162Y-55312201D01*
X109681838Y-55684167D01*
X109823883Y-56027943D01*
X109857000Y-56061118D01*
X109857000Y-58991500D01*
X109914852Y-59282339D01*
X110079599Y-59528901D01*
X110126378Y-59575680D01*
X110126338Y-59621167D01*
X110268383Y-59964943D01*
X110531173Y-60228192D01*
X110874701Y-60370838D01*
X111246667Y-60371162D01*
X111509732Y-60262466D01*
X110746698Y-61025500D01*
X102743000Y-61025500D01*
X102452161Y-61083352D01*
X102205599Y-61248099D01*
X94173648Y-69280050D01*
X94138117Y-69194057D01*
X93875327Y-68930808D01*
X93531799Y-68788162D01*
X93159833Y-68787838D01*
X92816057Y-68929883D01*
X92782882Y-68963000D01*
X89090500Y-68963000D01*
X88799661Y-69020852D01*
X88553099Y-69185599D01*
X83790599Y-73948099D01*
X83625852Y-74194661D01*
X83568000Y-74485500D01*
X83568000Y-77663198D01*
X78710599Y-82520599D01*
X78545852Y-82767161D01*
X78488000Y-83058000D01*
X78488000Y-84394198D01*
X72694820Y-90187378D01*
X72649333Y-90187338D01*
X72305557Y-90329383D01*
X72042308Y-90592173D01*
X71899662Y-90935701D01*
X71899338Y-91307667D01*
X59955500Y-91307667D01*
X59955500Y-82488373D01*
X65154812Y-82488373D01*
X65319646Y-82887300D01*
X65624595Y-83192782D01*
X66023233Y-83358311D01*
X66454873Y-83358688D01*
X66853800Y-83193854D01*
X67159282Y-82888905D01*
X67324811Y-82490267D01*
X67325188Y-82058627D01*
X67160354Y-81659700D01*
X66855405Y-81354218D01*
X66456767Y-81188689D01*
X66025127Y-81188312D01*
X65626200Y-81353146D01*
X65320718Y-81658095D01*
X65155189Y-82056733D01*
X65154812Y-82488373D01*
X59955500Y-82488373D01*
X59955500Y-78088373D01*
X65154812Y-78088373D01*
X65319646Y-78487300D01*
X65624595Y-78792782D01*
X66023233Y-78958311D01*
X66454873Y-78958688D01*
X66843361Y-78798167D01*
X71327838Y-78798167D01*
X71469883Y-79141943D01*
X71547539Y-79219734D01*
X71455162Y-79442201D01*
X71454838Y-79814167D01*
X71596883Y-80157943D01*
X71859673Y-80421192D01*
X72203201Y-80563838D01*
X72575167Y-80564162D01*
X72918943Y-80422117D01*
X73015729Y-80325500D01*
X78876037Y-80325500D01*
X78908173Y-80357692D01*
X79251701Y-80500338D01*
X79623667Y-80500662D01*
X79967443Y-80358617D01*
X80230692Y-80095827D01*
X80373338Y-79752299D01*
X80373662Y-79380333D01*
X80330371Y-79275560D01*
X80475443Y-79215617D01*
X80738692Y-78952827D01*
X80881338Y-78609299D01*
X80881662Y-78237333D01*
X80739617Y-77893557D01*
X80476827Y-77630308D01*
X80133299Y-77487662D01*
X79761333Y-77487338D01*
X79417557Y-77629383D01*
X79384382Y-77662500D01*
X72453500Y-77662500D01*
X72375090Y-77678097D01*
X72077833Y-77677838D01*
X71734057Y-77819883D01*
X71470808Y-78082673D01*
X71328162Y-78426201D01*
X71327838Y-78798167D01*
X66843361Y-78798167D01*
X66853800Y-78793854D01*
X67159282Y-78488905D01*
X67324811Y-78090267D01*
X67325188Y-77658627D01*
X67160354Y-77259700D01*
X66855405Y-76954218D01*
X66456767Y-76788689D01*
X66025127Y-76788312D01*
X65626200Y-76953146D01*
X65320718Y-77258095D01*
X65155189Y-77656733D01*
X65154812Y-78088373D01*
X59955500Y-78088373D01*
X59955500Y-70280354D01*
X62205957Y-70280354D01*
X62682227Y-71433015D01*
X63563347Y-72315674D01*
X64715174Y-72793954D01*
X65962354Y-72795043D01*
X67115015Y-72318773D01*
X67997674Y-71437653D01*
X68475954Y-70285826D01*
X68477043Y-69038646D01*
X68000773Y-67885985D01*
X67421331Y-67305530D01*
X69986782Y-67305530D01*
X70178201Y-67768800D01*
X70532335Y-68123553D01*
X70995271Y-68315781D01*
X71496530Y-68316218D01*
X71959800Y-68124799D01*
X72314553Y-67770665D01*
X72485392Y-67359240D01*
X75097566Y-64747066D01*
X75110678Y-64727443D01*
X75343603Y-64378846D01*
X75430000Y-63944500D01*
X75430000Y-61430132D01*
X76289132Y-60571000D01*
X78041500Y-60571000D01*
X78475846Y-60484603D01*
X78844066Y-60238566D01*
X80114066Y-58968566D01*
X80156090Y-58905673D01*
X80360103Y-58600346D01*
X80446500Y-58166000D01*
X80446500Y-55635632D01*
X84985934Y-60175066D01*
X85354154Y-60421103D01*
X85788500Y-60507500D01*
X102933500Y-60507500D01*
X102944063Y-60505399D01*
X103310030Y-60505718D01*
X103773300Y-60314299D01*
X104128053Y-59960165D01*
X104320281Y-59497229D01*
X104320718Y-58995970D01*
X104129299Y-58532700D01*
X103775165Y-58177947D01*
X103312229Y-57985719D01*
X102810970Y-57985282D01*
X102347700Y-58176701D01*
X102286795Y-58237500D01*
X86258632Y-58237500D01*
X83559522Y-55538390D01*
X102063524Y-55538390D01*
X102233355Y-55948424D01*
X102623642Y-56376683D01*
X103148108Y-56622986D01*
X103378000Y-56502319D01*
X103378000Y-55308500D01*
X103632000Y-55308500D01*
X103632000Y-56502319D01*
X103861892Y-56622986D01*
X104386358Y-56376683D01*
X104776645Y-55948424D01*
X104946476Y-55538390D01*
X104825155Y-55308500D01*
X103632000Y-55308500D01*
X103378000Y-55308500D01*
X102184845Y-55308500D01*
X102063524Y-55538390D01*
X83559522Y-55538390D01*
X80504555Y-52483423D01*
X80380299Y-52182700D01*
X80026165Y-51827947D01*
X79563229Y-51635719D01*
X79061970Y-51635282D01*
X78598700Y-51826701D01*
X78243947Y-52180835D01*
X78051719Y-52643771D01*
X78051282Y-53145030D01*
X78176500Y-53448081D01*
X78176500Y-57695868D01*
X77571368Y-58301000D01*
X75819000Y-58301000D01*
X75384654Y-58387397D01*
X75065955Y-58600345D01*
X75016434Y-58633434D01*
X73683802Y-59966066D01*
X73492434Y-60093934D01*
X73246397Y-60462154D01*
X73160000Y-60896500D01*
X73160000Y-63474368D01*
X70726711Y-65907657D01*
X70534200Y-65987201D01*
X70179447Y-66341335D01*
X69987219Y-66804271D01*
X69986782Y-67305530D01*
X67421331Y-67305530D01*
X67119653Y-67003326D01*
X65967826Y-66525046D01*
X64720646Y-66523957D01*
X63567985Y-67000227D01*
X62685326Y-67881347D01*
X62207046Y-69033174D01*
X62205957Y-70280354D01*
X59955500Y-70280354D01*
X59955500Y-63874130D01*
X61209975Y-63874130D01*
X61552566Y-64348777D01*
X62885800Y-64908842D01*
X64331875Y-64916068D01*
X65670639Y-64369354D01*
X65701434Y-64348777D01*
X66044025Y-63874130D01*
X63627000Y-61457105D01*
X61209975Y-63874130D01*
X59955500Y-63874130D01*
X59955500Y-61982375D01*
X59988432Y-61982375D01*
X60535146Y-63321139D01*
X60555723Y-63351934D01*
X61030370Y-63694525D01*
X63447395Y-61277500D01*
X63806605Y-61277500D01*
X66223630Y-63694525D01*
X66698277Y-63351934D01*
X67258342Y-62018700D01*
X67265568Y-60572625D01*
X66718854Y-59233861D01*
X66698277Y-59203066D01*
X66223630Y-58860475D01*
X63806605Y-61277500D01*
X63447395Y-61277500D01*
X61030370Y-58860475D01*
X60555723Y-59203066D01*
X59995658Y-60536300D01*
X59988432Y-61982375D01*
X59955500Y-61982375D01*
X59955500Y-51510000D01*
X61254176Y-51510000D01*
X60547194Y-52215749D01*
M02*
