M48
;DRILL file {KiCad 4.0.7} date 12/10/18 00:11:24
;FORMAT={-:-/ absolute / inch / decimal}
FMAT,2
INCH,TZ
T1C0.016
T2C0.024
T3C0.031
T4C0.039
T5C0.047
T6C0.063
T7C0.106
T8C0.177
T9C0.035
%
G90
G05
M72
T1
X2.68Y-3.8225
X2.845Y-3.095
X2.85Y-3.135
X2.8675Y-3.5875
X2.9025Y-3.615
X2.925Y-3.6575
X3.0706Y-3.785
X3.1275Y-3.1325
X3.1475Y-3.0875
X3.2Y-3.515
X3.2Y-3.55
X3.2Y-3.5875
X3.475Y-2.7275
X3.5125Y-2.8125
X3.535Y-3.125
X3.54Y-2.775
X3.585Y-3.005
X3.6025Y-3.265
X3.63Y-3.79
X3.66Y-3.245
X3.666Y-2.813
X3.675Y-2.745
X3.6825Y-3.925
X3.745Y-3.295
X3.755Y-3.6525
X3.793Y-3.483
X3.8Y-3.12
X3.8025Y-3.355
X3.8575Y-3.37
X3.87Y-2.975
X3.89Y-3.1375
X3.9075Y-2.925
X3.9125Y-3.65
X3.9425Y-3.31
X3.9625Y-2.7475
X4.0025Y-3.0625
X4.04Y-3.2725
X4.155Y-3.77
X4.4875Y-3.525
X4.4925Y-3.6125
X4.496Y-3.182
X4.5875Y-3.77
X4.6025Y-3.0075
X4.6325Y-2.7125
X4.87Y-2.76
X4.94Y-2.64
X4.965Y-2.8575
X5.1575Y-2.87
X5.1775Y-3.03
X5.1875Y-2.95
X5.21Y-2.5
X5.2147Y-2.15
X5.215Y-2.185
X5.23Y-3.765
X5.265Y-3.71
X5.28Y-2.09
X5.28Y-2.2503
X5.31Y-2.0897
X5.31Y-2.25
X5.365Y-2.355
X5.3975Y-3.345
X5.4175Y-3.0175
X5.42Y-2.06
X5.425Y-2.21
X5.445Y-2.06
X5.445Y-2.19
X5.445Y-3.2375
X5.45Y-2.8775
X5.4625Y-2.1725
X5.47Y-2.06
X5.48Y-2.155
X5.495Y-2.06
X5.5Y-2.1466
X5.535Y-3.29
X5.5425Y-3.48
X5.56Y-2.46
X5.6Y-2.02
X5.6Y-2.06
X5.6Y-2.14
X5.6Y-2.46
X5.62Y-2.1
X5.64Y-2.02
X5.64Y-2.46
X5.68Y-2.02
X5.68Y-2.46
X5.72Y-2.02
X5.72Y-2.06
X5.72Y-2.1
X5.72Y-2.14
X5.72Y-2.18
X5.72Y-2.22
X5.72Y-2.26
X5.72Y-2.3
X5.72Y-2.34
X5.72Y-2.38
X5.72Y-2.42
X5.72Y-2.46
X5.72Y-3.4525
X5.725Y-2.8525
X5.76Y-2.02
X5.76Y-2.46
X5.8Y-2.02
X5.8Y-2.46
X5.84Y-2.02
X5.84Y-2.46
X5.88Y-2.46
X6.05Y-2.465
X6.075Y-2.355
X6.1097Y-3.825
X6.11Y-3.965
X6.11Y-3.995
X6.13Y-3.79
X6.14Y-3.66
X6.14Y-3.69
X6.14Y-3.72
X6.14Y-3.755
X6.165Y-3.5975
X6.175Y-4.06
X6.185Y-2.305
X6.185Y-2.4
X6.205Y-3.5975
X6.21Y-4.0603
X6.27Y-3.965
X6.2703Y-3.825
X6.2703Y-3.995
X6.285Y-3.785
X6.3175Y-3.7525
X6.34Y-3.725
X6.345Y-3.62
X6.345Y-3.655
X6.345Y-3.69
T2
X2.48Y-3.6475
X2.905Y-3.25
X3.47Y-2.4505
X4.925Y-2.4975
X5.1875Y-3.12
T3
X3.Y-2.925
X3.125Y-2.075
X5.9363Y-2.88
X6.085Y-2.2044
X6.0934Y-2.6734
X6.265Y-2.675
X6.33Y-2.88
T4
X2.85Y-2.275
X2.85Y-2.375
X4.14Y-2.76
X4.35Y-2.075
X4.35Y-2.175
X4.45Y-2.075
X4.45Y-2.175
X4.665Y-3.925
X4.765Y-3.925
X4.825Y-2.075
X4.825Y-2.175
X4.825Y-2.275
X4.865Y-3.925
X4.925Y-2.075
X4.925Y-2.175
X4.925Y-2.275
X4.965Y-3.925
X5.205Y-3.925
X5.305Y-3.925
X5.405Y-3.925
X5.61Y-3.92
X5.6325Y-3.75
X5.71Y-3.92
X5.785Y-3.1675
X5.81Y-3.92
X5.91Y-3.92
X5.995Y-2.405
X6.14Y-3.6225
X6.29Y-2.355
X6.29Y-2.455
X6.29Y-2.555
T5
X3.625Y-2.05
X4.34Y-2.785
T6
X5.2147Y-2.0897
X5.2147Y-2.2503
X5.295Y-2.17
X5.3753Y-2.0897
X5.3753Y-2.2503
X6.1097Y-3.8997
X6.1097Y-4.0603
X6.19Y-3.98
X6.2703Y-3.8997
X6.2703Y-4.0603
T7
X2.45Y-2.075
X2.45Y-4.2
X6.4Y-2.075
X6.4Y-4.2
T8
X2.55Y-2.4
X2.55Y-2.6756
T9
X2.6079Y-3.0659
X2.6079Y-3.2391
T0
M30
