G04 #@! TF.FileFunction,Soldermask,Top*
%FSLAX46Y46*%
G04 Gerber Fmt 4.6, Leading zero omitted, Abs format (unit mm)*
G04 Created by KiCad (PCBNEW 4.0.7) date 12/10/18 00:11:19*
%MOMM*%
%LPD*%
G01*
G04 APERTURE LIST*
%ADD10C,0.100000*%
%ADD11R,1.700000X1.200000*%
%ADD12R,2.700000X0.900000*%
%ADD13R,2.900000X2.400000*%
%ADD14C,1.300000*%
%ADD15R,1.800000X1.400000*%
%ADD16R,1.400000X1.650000*%
%ADD17R,2.000000X1.400000*%
%ADD18R,1.650000X1.400000*%
%ADD19R,1.400000X2.000000*%
%ADD20R,1.600000X1.300000*%
%ADD21R,1.900000X1.900000*%
%ADD22C,6.400000*%
%ADD23R,2.400000X1.850000*%
%ADD24R,1.900000X1.200000*%
%ADD25R,2.100000X2.100000*%
%ADD26O,2.100000X2.100000*%
%ADD27R,1.100000X1.700000*%
%ADD28R,1.700000X1.100000*%
%ADD29R,1.700000X0.650000*%
%ADD30R,0.650000X1.700000*%
%ADD31R,1.900000X1.000000*%
%ADD32R,1.700000X2.300000*%
%ADD33R,2.400000X4.200000*%
%ADD34R,2.400000X1.900000*%
%ADD35R,1.000000X0.650000*%
%ADD36R,0.650000X1.000000*%
%ADD37C,2.600000*%
%ADD38C,2.400000*%
%ADD39R,1.350000X0.950000*%
%ADD40C,1.924000*%
%ADD41C,5.800000*%
G04 APERTURE END LIST*
D10*
D11*
X140843000Y-52324000D03*
X140843000Y-53424000D03*
X140843000Y-54524000D03*
X140843000Y-55624000D03*
X140843000Y-56724000D03*
X140843000Y-57824000D03*
X140843000Y-58924000D03*
X140843000Y-60024000D03*
X140843000Y-61124000D03*
X149543000Y-61124000D03*
X149543000Y-60024000D03*
X149543000Y-58924000D03*
X149543000Y-57824000D03*
X149543000Y-56724000D03*
X149543000Y-55624000D03*
X149543000Y-54524000D03*
X149543000Y-53424000D03*
X149543000Y-52324000D03*
D12*
X68840000Y-78473500D03*
X68840000Y-79273500D03*
X68840000Y-80073500D03*
X68840000Y-80873500D03*
X68840000Y-81673500D03*
D13*
X68740000Y-75623500D03*
X63240000Y-75623500D03*
X68740000Y-84523500D03*
X63240000Y-84523500D03*
D14*
X66240000Y-77873500D03*
X66240000Y-82273500D03*
D15*
X143258000Y-79376000D03*
X143258000Y-81376000D03*
X143258000Y-83376000D03*
X143258000Y-85376000D03*
X143258000Y-87376000D03*
X143258000Y-89376000D03*
X143258000Y-91376000D03*
X143258000Y-93376000D03*
X159258000Y-93376000D03*
X159258000Y-91376000D03*
X159258000Y-89376000D03*
X159258000Y-87376000D03*
X159258000Y-85376000D03*
X159258000Y-83376000D03*
X159258000Y-81376000D03*
X159258000Y-79376000D03*
D16*
X113109500Y-70421500D03*
X115109500Y-70421500D03*
X115236500Y-85344000D03*
X113236500Y-85344000D03*
X115046000Y-76327000D03*
X113046000Y-76327000D03*
D17*
X71310500Y-51840000D03*
X71310500Y-54840000D03*
D16*
X97298000Y-88519000D03*
X99298000Y-88519000D03*
D17*
X89789000Y-55284500D03*
X89789000Y-52284500D03*
D18*
X86233000Y-54276500D03*
X86233000Y-52276500D03*
X73787000Y-85772500D03*
X73787000Y-83772500D03*
X120777000Y-69770500D03*
X120777000Y-67770500D03*
D17*
X156337000Y-53491000D03*
X156337000Y-56491000D03*
X148145500Y-67905500D03*
X148145500Y-70905500D03*
D18*
X152781000Y-53991000D03*
X152781000Y-55991000D03*
X148177250Y-74802750D03*
X148177250Y-72802750D03*
D19*
X93559500Y-101473000D03*
X96559500Y-101473000D03*
X91543000Y-101473000D03*
X88543000Y-101473000D03*
D16*
X102124000Y-95821500D03*
X104124000Y-95821500D03*
X77867000Y-94424500D03*
X79867000Y-94424500D03*
X77994000Y-97853500D03*
X79994000Y-97853500D03*
D20*
X68580000Y-51690000D03*
X68580000Y-54990000D03*
D21*
X78042500Y-62293500D03*
X81342500Y-62293500D03*
D22*
X64770000Y-60960000D03*
X64770000Y-67960000D03*
D23*
X62708500Y-88057500D03*
X62708500Y-101807500D03*
X71008500Y-101807500D03*
X71008500Y-88057500D03*
D24*
X65308500Y-90432500D03*
X65308500Y-91532500D03*
X65308500Y-92632500D03*
X65308500Y-93732500D03*
X65308500Y-94832500D03*
X65308500Y-95932500D03*
X65308500Y-97032500D03*
X65308500Y-98132500D03*
D25*
X159766000Y-59817000D03*
D26*
X159766000Y-62357000D03*
X159766000Y-64897000D03*
D27*
X85854500Y-79375000D03*
X87754500Y-79375000D03*
X85793500Y-75628500D03*
X87693500Y-75628500D03*
D28*
X130683000Y-66934000D03*
X130683000Y-68834000D03*
X127381000Y-66934000D03*
X127381000Y-68834000D03*
D27*
X103947000Y-99568000D03*
X102047000Y-99568000D03*
X102174000Y-92456000D03*
X104074000Y-92456000D03*
X100073500Y-91440000D03*
X98173500Y-91440000D03*
D29*
X103410000Y-79775500D03*
X103410000Y-79275500D03*
X103410000Y-78775500D03*
X103410000Y-78275500D03*
X103410000Y-77775500D03*
X103410000Y-77275500D03*
X103410000Y-76775500D03*
X103410000Y-76275500D03*
X103410000Y-75775500D03*
X103410000Y-75275500D03*
X103410000Y-74775500D03*
X103410000Y-74275500D03*
D30*
X101810000Y-72675500D03*
X101310000Y-72675500D03*
X100810000Y-72675500D03*
X100310000Y-72675500D03*
X99810000Y-72675500D03*
X99310000Y-72675500D03*
X98810000Y-72675500D03*
X98310000Y-72675500D03*
X97810000Y-72675500D03*
X97310000Y-72675500D03*
X96810000Y-72675500D03*
X96310000Y-72675500D03*
D29*
X94710000Y-74275500D03*
X94710000Y-74775500D03*
X94710000Y-75275500D03*
X94710000Y-75775500D03*
X94710000Y-76275500D03*
X94710000Y-76775500D03*
X94710000Y-77275500D03*
X94710000Y-77775500D03*
X94710000Y-78275500D03*
X94710000Y-78775500D03*
X94710000Y-79275500D03*
X94710000Y-79775500D03*
D30*
X96310000Y-81375500D03*
X96810000Y-81375500D03*
X97310000Y-81375500D03*
X97810000Y-81375500D03*
X98310000Y-81375500D03*
X98810000Y-81375500D03*
X99310000Y-81375500D03*
X99810000Y-81375500D03*
X100310000Y-81375500D03*
X100810000Y-81375500D03*
X101310000Y-81375500D03*
X101810000Y-81375500D03*
D31*
X125002500Y-74549000D03*
X125002500Y-75819000D03*
X125002500Y-77089000D03*
X125002500Y-78359000D03*
X125002500Y-79629000D03*
X125002500Y-80899000D03*
X125002500Y-82169000D03*
X125002500Y-83439000D03*
X134302500Y-83439000D03*
X134302500Y-82169000D03*
X134302500Y-80899000D03*
X134302500Y-79629000D03*
X134302500Y-78359000D03*
X134302500Y-77089000D03*
X134302500Y-75819000D03*
X134302500Y-74549000D03*
D32*
X110871000Y-82486500D03*
X116371000Y-82486500D03*
X116371000Y-79286500D03*
X110871000Y-79286500D03*
X88011000Y-94551500D03*
X82511000Y-94551500D03*
X82511000Y-97751500D03*
X88011000Y-97751500D03*
D33*
X82461500Y-54737000D03*
D34*
X76161500Y-54737000D03*
X76161500Y-57037000D03*
X76161500Y-52437000D03*
D35*
X90614500Y-97282000D03*
X90614500Y-96782000D03*
X90614500Y-96282000D03*
X90614500Y-95782000D03*
X90614500Y-95282000D03*
X90614500Y-94782000D03*
X90614500Y-94282000D03*
X90614500Y-93782000D03*
X90614500Y-93282000D03*
X90614500Y-92782000D03*
X93739500Y-97282000D03*
X93739500Y-96782000D03*
X93739500Y-96282000D03*
X93739500Y-95782000D03*
X93739500Y-95282000D03*
X93739500Y-94782000D03*
X93739500Y-94282000D03*
X93739500Y-93782000D03*
X93739500Y-93282000D03*
X93739500Y-92782000D03*
D36*
X91427000Y-97402000D03*
X91927000Y-97402000D03*
X92427000Y-97402000D03*
X92927000Y-97402000D03*
X91427000Y-92672000D03*
X91927000Y-92672000D03*
X92427000Y-92672000D03*
X92927000Y-92672000D03*
D21*
X95885000Y-59435000D03*
X95885000Y-56135000D03*
X99060000Y-59435000D03*
X99060000Y-56135000D03*
X102235000Y-59435000D03*
X102235000Y-56135000D03*
D28*
X95885000Y-51755000D03*
X95885000Y-53655000D03*
X99060000Y-51755000D03*
X99060000Y-53655000D03*
X102235000Y-51755000D03*
X102235000Y-53655000D03*
D25*
X126111000Y-99695000D03*
D26*
X123571000Y-99695000D03*
X121031000Y-99695000D03*
X118491000Y-99695000D03*
D25*
X72390000Y-57785000D03*
D26*
X72390000Y-60325000D03*
D25*
X142494000Y-99568000D03*
D26*
X145034000Y-99568000D03*
X147574000Y-99568000D03*
X150114000Y-99568000D03*
D25*
X125095000Y-57785000D03*
D26*
X122555000Y-57785000D03*
X125095000Y-55245000D03*
X122555000Y-55245000D03*
X125095000Y-52705000D03*
X122555000Y-52705000D03*
D25*
X113030000Y-55245000D03*
D26*
X110490000Y-55245000D03*
X113030000Y-52705000D03*
X110490000Y-52705000D03*
D25*
X137287000Y-99695000D03*
D26*
X134747000Y-99695000D03*
X132207000Y-99695000D03*
D37*
X134493000Y-55118000D03*
D38*
X136533000Y-57158000D03*
X132453000Y-57158000D03*
X136533000Y-53078000D03*
X132453000Y-53078000D03*
D37*
X157226000Y-101092000D03*
D38*
X159266000Y-103132000D03*
X155186000Y-103132000D03*
X159266000Y-99052000D03*
X155186000Y-99052000D03*
D16*
X133334000Y-60198000D03*
X131334000Y-60198000D03*
D28*
X135509000Y-63307000D03*
X135509000Y-61407000D03*
D27*
X84500500Y-62293500D03*
X86400500Y-62293500D03*
D39*
X143786750Y-71342250D03*
X143786750Y-75092250D03*
X143786750Y-73842250D03*
X143786750Y-72592250D03*
X141636750Y-75092250D03*
X141636750Y-73842250D03*
X141636750Y-72592250D03*
X141636750Y-71342250D03*
D40*
X160782000Y-73152000D03*
X150782000Y-73152000D03*
D41*
X62230000Y-106680000D03*
X62230000Y-52705000D03*
X162560000Y-106680000D03*
X162560000Y-52705000D03*
M02*
