M48
;DRILL file {KiCad 4.0.7} date 01/06/19 15:08:08
;FORMAT={-:-/ absolute / inch / decimal}
FMAT,2
INCH,TZ
T1C0.016
T2C0.024
T3C0.031
T4C0.039
T5C0.047
T6C0.063
T7C0.106
T8C0.177
T9C0.035
%
G90
G05
M72
T1
X2.68Y-3.8225
X2.845Y-3.095
X2.85Y-3.135
X2.8675Y-3.5875
X2.9025Y-3.615
X2.925Y-3.6575
X3.0706Y-3.785
X3.1275Y-3.1325
X3.1475Y-3.0875
X3.2Y-3.515
X3.2Y-3.55
X3.2Y-3.5875
X3.475Y-2.7275
X3.5125Y-2.8125
X3.535Y-3.125
X3.54Y-2.775
X3.585Y-3.005
X3.6025Y-3.265
X3.63Y-3.79
X3.66Y-3.245
X3.675Y-2.745
X3.675Y-2.8475
X3.6825Y-3.925
X3.71Y-2.55
X3.745Y-3.295
X3.755Y-3.6525
X3.793Y-3.483
X3.8Y-3.12
X3.8025Y-3.355
X3.8575Y-3.37
X3.8625Y-2.6175
X3.87Y-2.975
X3.89Y-3.1375
X3.9Y-2.72
X3.9075Y-2.925
X3.9125Y-3.65
X3.9425Y-3.31
X3.9625Y-2.7475
X3.985Y-2.6325
X4.0025Y-3.0625
X4.12Y-3.2725
X4.155Y-3.77
X4.172Y-3.506
X4.181Y-3.354
X4.186Y-3.248
X4.21Y-2.905
X4.21Y-2.95
X4.273Y-3.469
X4.378Y-4.017
X4.4875Y-3.525
X4.4925Y-3.6125
X4.496Y-3.182
X4.5875Y-3.77
X4.59Y-2.78
X4.6025Y-3.0075
X4.838Y-3.341
X4.87Y-2.76
X4.877Y-2.885
X4.879Y-2.82
X4.94Y-2.64
X4.965Y-2.8575
X5.024Y-2.8
X5.036Y-3.537
X5.1575Y-2.87
X5.1775Y-3.03
X5.1875Y-2.95
X5.21Y-2.5
X5.23Y-3.765
X5.2522Y-2.0825
X5.2525Y-2.1175
X5.265Y-3.71
X5.3175Y-2.0225
X5.3175Y-2.1828
X5.3475Y-2.0222
X5.3475Y-2.1825
X5.365Y-2.355
X5.3975Y-3.345
X5.4175Y-3.0175
X5.424Y-3.572
X5.445Y-3.2375
X5.45Y-2.8775
X5.451Y-3.45
X5.46Y-2.1466
X5.465Y-2.06
X5.468Y-2.781
X5.495Y-2.06
X5.495Y-2.1466
X5.535Y-3.29
X5.5425Y-3.48
X5.584Y-3.529
X5.605Y-2.03
X5.615Y-2.45
X5.64Y-2.03
X5.655Y-2.45
X5.675Y-2.03
X5.695Y-2.45
X5.72Y-3.4525
X5.725Y-2.045
X5.725Y-2.075
X5.725Y-2.11
X5.725Y-2.155
X5.725Y-2.195
X5.725Y-2.235
X5.725Y-2.275
X5.725Y-2.315
X5.725Y-2.36
X5.725Y-2.405
X5.725Y-2.45
X5.725Y-2.8525
X5.74Y-3.66
X5.755Y-2.03
X5.765Y-2.45
X5.785Y-3.66
X5.795Y-2.03
X5.805Y-2.45
X5.83Y-3.66
X5.845Y-2.44
X5.875Y-3.66
X5.925Y-3.66
X5.97Y-3.66
X5.98Y-2.035
X6.02Y-2.035
X6.02Y-3.66
X6.05Y-2.465
X6.0625Y-2.035
X6.07Y-3.66
X6.075Y-2.355
X6.08Y-3.095
X6.08Y-3.14
X6.08Y-3.185
X6.08Y-3.235
X6.08Y-3.285
X6.08Y-3.33
X6.08Y-3.385
X6.08Y-3.445
X6.08Y-3.51
X6.08Y-3.555
X6.08Y-3.595
X6.105Y-2.035
X6.115Y-3.625
X6.178Y-3.266
X6.185Y-2.305
X6.185Y-2.4
X6.1897Y-3.655
X6.1897Y-3.735
X6.19Y-3.69
X6.19Y-3.865
X6.19Y-3.895
X6.195Y-3.615
X6.255Y-3.96
X6.29Y-3.9603
X6.35Y-3.62
X6.35Y-3.69
X6.35Y-3.865
X6.3503Y-3.655
X6.3503Y-3.73
X6.3503Y-3.895
T2
X2.48Y-3.6475
X2.905Y-3.25
X3.615Y-2.4605
X4.925Y-2.4975
X5.1875Y-3.12
T3
X5.9363Y-2.88
X6.085Y-2.2044
X6.0934Y-2.6734
X6.265Y-2.675
X6.33Y-2.88
T4
X2.85Y-2.275
X2.85Y-2.375
X2.9Y-2.17
X2.99Y-2.72
X4.14Y-2.76
X4.35Y-2.075
X4.35Y-2.175
X4.45Y-2.075
X4.45Y-2.175
X4.665Y-3.925
X4.765Y-3.925
X4.825Y-2.075
X4.825Y-2.175
X4.825Y-2.275
X4.865Y-3.925
X4.925Y-2.075
X4.925Y-2.175
X4.925Y-2.275
X4.965Y-3.925
X5.205Y-3.925
X5.305Y-3.925
X5.405Y-3.925
X5.61Y-3.92
X5.6325Y-3.75
X5.71Y-3.92
X5.785Y-3.1675
X5.81Y-3.92
X5.91Y-3.92
X5.995Y-2.405
X6.29Y-2.355
X6.29Y-2.455
X6.29Y-2.555
T5
X3.625Y-2.05
X4.34Y-2.785
T6
X5.2522Y-2.0222
X5.2522Y-2.1828
X5.3325Y-2.1025
X5.4128Y-2.0222
X5.4128Y-2.1828
X6.1897Y-3.7997
X6.1897Y-3.9603
X6.27Y-3.88
X6.3503Y-3.7997
X6.3503Y-3.9603
T7
X2.45Y-2.075
X2.45Y-4.2
X6.4Y-2.075
X6.4Y-4.2
T8
X2.55Y-2.4
X2.55Y-2.6756
T9
X2.6079Y-3.0659
X2.6079Y-3.2391
T0
M30
