G04 #@! TF.FileFunction,Legend,Bot*
%FSLAX46Y46*%
G04 Gerber Fmt 4.6, Leading zero omitted, Abs format (unit mm)*
G04 Created by KiCad (PCBNEW 4.0.7) date 12/10/18 00:11:19*
%MOMM*%
%LPD*%
G01*
G04 APERTURE LIST*
%ADD10C,0.100000*%
%ADD11C,0.300000*%
%ADD12C,0.150000*%
%ADD13C,0.010000*%
G04 APERTURE END LIST*
D10*
D11*
X153709971Y-107590400D02*
X152995685Y-107590400D01*
X153852828Y-108018971D02*
X153352828Y-106518971D01*
X152852828Y-108018971D01*
X152495685Y-107018971D02*
X152138542Y-108018971D01*
X151781400Y-107018971D01*
X151209971Y-108018971D02*
X151209971Y-107018971D01*
X151209971Y-106518971D02*
X151281400Y-106590400D01*
X151209971Y-106661829D01*
X151138543Y-106590400D01*
X151209971Y-106518971D01*
X151209971Y-106661829D01*
X150281399Y-108018971D02*
X150424257Y-107947543D01*
X150495685Y-107876114D01*
X150567114Y-107733257D01*
X150567114Y-107304686D01*
X150495685Y-107161829D01*
X150424257Y-107090400D01*
X150281399Y-107018971D01*
X150067114Y-107018971D01*
X149924257Y-107090400D01*
X149852828Y-107161829D01*
X149781399Y-107304686D01*
X149781399Y-107733257D01*
X149852828Y-107876114D01*
X149924257Y-107947543D01*
X150067114Y-108018971D01*
X150281399Y-108018971D01*
X149138542Y-107018971D02*
X149138542Y-108018971D01*
X149138542Y-107161829D02*
X149067114Y-107090400D01*
X148924256Y-107018971D01*
X148709971Y-107018971D01*
X148567114Y-107090400D01*
X148495685Y-107233257D01*
X148495685Y-108018971D01*
X147781399Y-108018971D02*
X147781399Y-107018971D01*
X147781399Y-106518971D02*
X147852828Y-106590400D01*
X147781399Y-106661829D01*
X147709971Y-106590400D01*
X147781399Y-106518971D01*
X147781399Y-106661829D01*
X146424256Y-107947543D02*
X146567113Y-108018971D01*
X146852827Y-108018971D01*
X146995685Y-107947543D01*
X147067113Y-107876114D01*
X147138542Y-107733257D01*
X147138542Y-107304686D01*
X147067113Y-107161829D01*
X146995685Y-107090400D01*
X146852827Y-107018971D01*
X146567113Y-107018971D01*
X146424256Y-107090400D01*
X145852828Y-107947543D02*
X145709971Y-108018971D01*
X145424256Y-108018971D01*
X145281399Y-107947543D01*
X145209971Y-107804686D01*
X145209971Y-107733257D01*
X145281399Y-107590400D01*
X145424256Y-107518971D01*
X145638542Y-107518971D01*
X145781399Y-107447543D01*
X145852828Y-107304686D01*
X145852828Y-107233257D01*
X145781399Y-107090400D01*
X145638542Y-107018971D01*
X145424256Y-107018971D01*
X145281399Y-107090400D01*
X142924256Y-107233257D02*
X142709970Y-107304686D01*
X142638542Y-107376114D01*
X142567113Y-107518971D01*
X142567113Y-107733257D01*
X142638542Y-107876114D01*
X142709970Y-107947543D01*
X142852828Y-108018971D01*
X143424256Y-108018971D01*
X143424256Y-106518971D01*
X142924256Y-106518971D01*
X142781399Y-106590400D01*
X142709970Y-106661829D01*
X142638542Y-106804686D01*
X142638542Y-106947543D01*
X142709970Y-107090400D01*
X142781399Y-107161829D01*
X142924256Y-107233257D01*
X143424256Y-107233257D01*
X141709970Y-108018971D02*
X141852828Y-107947543D01*
X141924256Y-107876114D01*
X141995685Y-107733257D01*
X141995685Y-107304686D01*
X141924256Y-107161829D01*
X141852828Y-107090400D01*
X141709970Y-107018971D01*
X141495685Y-107018971D01*
X141352828Y-107090400D01*
X141281399Y-107161829D01*
X141209970Y-107304686D01*
X141209970Y-107733257D01*
X141281399Y-107876114D01*
X141352828Y-107947543D01*
X141495685Y-108018971D01*
X141709970Y-108018971D01*
X139924256Y-108018971D02*
X139924256Y-107233257D01*
X139995685Y-107090400D01*
X140138542Y-107018971D01*
X140424256Y-107018971D01*
X140567113Y-107090400D01*
X139924256Y-107947543D02*
X140067113Y-108018971D01*
X140424256Y-108018971D01*
X140567113Y-107947543D01*
X140638542Y-107804686D01*
X140638542Y-107661829D01*
X140567113Y-107518971D01*
X140424256Y-107447543D01*
X140067113Y-107447543D01*
X139924256Y-107376114D01*
X139209970Y-108018971D02*
X139209970Y-107018971D01*
X139209970Y-107304686D02*
X139138542Y-107161829D01*
X139067113Y-107090400D01*
X138924256Y-107018971D01*
X138781399Y-107018971D01*
X137638542Y-108018971D02*
X137638542Y-106518971D01*
X137638542Y-107947543D02*
X137781399Y-108018971D01*
X138067113Y-108018971D01*
X138209971Y-107947543D01*
X138281399Y-107876114D01*
X138352828Y-107733257D01*
X138352828Y-107304686D01*
X138281399Y-107161829D01*
X138209971Y-107090400D01*
X138067113Y-107018971D01*
X137781399Y-107018971D01*
X137638542Y-107090400D01*
X135924256Y-106518971D02*
X134995685Y-106518971D01*
X135495685Y-107090400D01*
X135281399Y-107090400D01*
X135138542Y-107161829D01*
X135067113Y-107233257D01*
X134995685Y-107376114D01*
X134995685Y-107733257D01*
X135067113Y-107876114D01*
X135138542Y-107947543D01*
X135281399Y-108018971D01*
X135709971Y-108018971D01*
X135852828Y-107947543D01*
X135924256Y-107876114D01*
X134352828Y-107876114D02*
X134281400Y-107947543D01*
X134352828Y-108018971D01*
X134424257Y-107947543D01*
X134352828Y-107876114D01*
X134352828Y-108018971D01*
X132852828Y-108018971D02*
X133709971Y-108018971D01*
X133281399Y-108018971D02*
X133281399Y-106518971D01*
X133424256Y-106733257D01*
X133567114Y-106876114D01*
X133709971Y-106947543D01*
X87457227Y-108196771D02*
X87457227Y-106696771D01*
X87100084Y-106696771D01*
X86885799Y-106768200D01*
X86742941Y-106911057D01*
X86671513Y-107053914D01*
X86600084Y-107339629D01*
X86600084Y-107553914D01*
X86671513Y-107839629D01*
X86742941Y-107982486D01*
X86885799Y-108125343D01*
X87100084Y-108196771D01*
X87457227Y-108196771D01*
X85314370Y-108196771D02*
X85314370Y-107411057D01*
X85385799Y-107268200D01*
X85528656Y-107196771D01*
X85814370Y-107196771D01*
X85957227Y-107268200D01*
X85314370Y-108125343D02*
X85457227Y-108196771D01*
X85814370Y-108196771D01*
X85957227Y-108125343D01*
X86028656Y-107982486D01*
X86028656Y-107839629D01*
X85957227Y-107696771D01*
X85814370Y-107625343D01*
X85457227Y-107625343D01*
X85314370Y-107553914D01*
X84600084Y-107196771D02*
X84600084Y-108196771D01*
X84600084Y-107339629D02*
X84528656Y-107268200D01*
X84385798Y-107196771D01*
X84171513Y-107196771D01*
X84028656Y-107268200D01*
X83957227Y-107411057D01*
X83957227Y-108196771D01*
X83242941Y-107196771D02*
X83242941Y-108196771D01*
X83242941Y-107339629D02*
X83171513Y-107268200D01*
X83028655Y-107196771D01*
X82814370Y-107196771D01*
X82671513Y-107268200D01*
X82600084Y-107411057D01*
X82600084Y-108196771D01*
X82028655Y-107196771D02*
X81671512Y-108196771D01*
X81314370Y-107196771D02*
X81671512Y-108196771D01*
X81814370Y-108553914D01*
X81885798Y-108625343D01*
X82028655Y-108696771D01*
X79600084Y-108196771D02*
X79600084Y-106696771D01*
X79100084Y-107768200D01*
X78600084Y-106696771D01*
X78600084Y-108196771D01*
X77242941Y-108196771D02*
X77242941Y-107411057D01*
X77314370Y-107268200D01*
X77457227Y-107196771D01*
X77742941Y-107196771D01*
X77885798Y-107268200D01*
X77242941Y-108125343D02*
X77385798Y-108196771D01*
X77742941Y-108196771D01*
X77885798Y-108125343D01*
X77957227Y-107982486D01*
X77957227Y-107839629D01*
X77885798Y-107696771D01*
X77742941Y-107625343D01*
X77385798Y-107625343D01*
X77242941Y-107553914D01*
X76314369Y-108196771D02*
X76457227Y-108125343D01*
X76528655Y-107982486D01*
X76528655Y-106696771D01*
X75528655Y-108196771D02*
X75671513Y-108125343D01*
X75742941Y-107982486D01*
X75742941Y-106696771D01*
X74385799Y-108125343D02*
X74528656Y-108196771D01*
X74814370Y-108196771D01*
X74957227Y-108125343D01*
X75028656Y-107982486D01*
X75028656Y-107411057D01*
X74957227Y-107268200D01*
X74814370Y-107196771D01*
X74528656Y-107196771D01*
X74385799Y-107268200D01*
X74314370Y-107411057D01*
X74314370Y-107553914D01*
X75028656Y-107696771D01*
X73671513Y-108196771D02*
X73671513Y-106696771D01*
X73528656Y-107625343D02*
X73100085Y-108196771D01*
X73100085Y-107196771D02*
X73671513Y-107768200D01*
X71385799Y-106839629D02*
X71314370Y-106768200D01*
X71171513Y-106696771D01*
X70814370Y-106696771D01*
X70671513Y-106768200D01*
X70600084Y-106839629D01*
X70528656Y-106982486D01*
X70528656Y-107125343D01*
X70600084Y-107339629D01*
X71457227Y-108196771D01*
X70528656Y-108196771D01*
X69600085Y-106696771D02*
X69457228Y-106696771D01*
X69314371Y-106768200D01*
X69242942Y-106839629D01*
X69171513Y-106982486D01*
X69100085Y-107268200D01*
X69100085Y-107625343D01*
X69171513Y-107911057D01*
X69242942Y-108053914D01*
X69314371Y-108125343D01*
X69457228Y-108196771D01*
X69600085Y-108196771D01*
X69742942Y-108125343D01*
X69814371Y-108053914D01*
X69885799Y-107911057D01*
X69957228Y-107625343D01*
X69957228Y-107268200D01*
X69885799Y-106982486D01*
X69814371Y-106839629D01*
X69742942Y-106768200D01*
X69600085Y-106696771D01*
X67671514Y-108196771D02*
X68528657Y-108196771D01*
X68100085Y-108196771D02*
X68100085Y-106696771D01*
X68242942Y-106911057D01*
X68385800Y-107053914D01*
X68528657Y-107125343D01*
X66814371Y-107339629D02*
X66957229Y-107268200D01*
X67028657Y-107196771D01*
X67100086Y-107053914D01*
X67100086Y-106982486D01*
X67028657Y-106839629D01*
X66957229Y-106768200D01*
X66814371Y-106696771D01*
X66528657Y-106696771D01*
X66385800Y-106768200D01*
X66314371Y-106839629D01*
X66242943Y-106982486D01*
X66242943Y-107053914D01*
X66314371Y-107196771D01*
X66385800Y-107268200D01*
X66528657Y-107339629D01*
X66814371Y-107339629D01*
X66957229Y-107411057D01*
X67028657Y-107482486D01*
X67100086Y-107625343D01*
X67100086Y-107911057D01*
X67028657Y-108053914D01*
X66957229Y-108125343D01*
X66814371Y-108196771D01*
X66528657Y-108196771D01*
X66385800Y-108125343D01*
X66314371Y-108053914D01*
X66242943Y-107911057D01*
X66242943Y-107625343D01*
X66314371Y-107482486D01*
X66385800Y-107411057D01*
X66528657Y-107339629D01*
D12*
X160782000Y-73152000D02*
G75*
G03X160782000Y-73152000I-7500000J0D01*
G01*
D13*
G36*
X76352400Y-54102000D02*
X73863200Y-54102000D01*
X73863200Y-56235600D01*
X74218800Y-56235600D01*
X74218800Y-54457600D01*
X75996800Y-54457600D01*
X75996800Y-56235600D01*
X74218800Y-56235600D01*
X73863200Y-56235600D01*
X73863200Y-56591200D01*
X76352400Y-56591200D01*
X76352400Y-54102000D01*
X76352400Y-54102000D01*
G37*
X76352400Y-54102000D02*
X73863200Y-54102000D01*
X73863200Y-56235600D01*
X74218800Y-56235600D01*
X74218800Y-54457600D01*
X75996800Y-54457600D01*
X75996800Y-56235600D01*
X74218800Y-56235600D01*
X73863200Y-56235600D01*
X73863200Y-56591200D01*
X76352400Y-56591200D01*
X76352400Y-54102000D01*
G36*
X77419200Y-55168800D02*
X77241400Y-55168800D01*
X77122232Y-55160937D01*
X77073361Y-55116569D01*
X77063622Y-55004534D01*
X77063600Y-54991000D01*
X77063600Y-54813200D01*
X77774800Y-54813200D01*
X77774800Y-55168800D01*
X78486000Y-55168800D01*
X78486000Y-54991000D01*
X78478136Y-54871833D01*
X78433768Y-54822962D01*
X78321733Y-54813223D01*
X78308200Y-54813200D01*
X78130400Y-54813200D01*
X78130400Y-54102000D01*
X76708000Y-54102000D01*
X76708000Y-55880000D01*
X77419200Y-55880000D01*
X77419200Y-55168800D01*
X77419200Y-55168800D01*
G37*
X77419200Y-55168800D02*
X77241400Y-55168800D01*
X77122232Y-55160937D01*
X77073361Y-55116569D01*
X77063622Y-55004534D01*
X77063600Y-54991000D01*
X77063600Y-54813200D01*
X77774800Y-54813200D01*
X77774800Y-55168800D01*
X78486000Y-55168800D01*
X78486000Y-54991000D01*
X78478136Y-54871833D01*
X78433768Y-54822962D01*
X78321733Y-54813223D01*
X78308200Y-54813200D01*
X78130400Y-54813200D01*
X78130400Y-54102000D01*
X76708000Y-54102000D01*
X76708000Y-55880000D01*
X77419200Y-55880000D01*
X77419200Y-55168800D01*
G36*
X80205367Y-54449737D02*
X80254238Y-54405369D01*
X80263977Y-54293334D01*
X80264000Y-54279800D01*
X80256136Y-54160633D01*
X80211768Y-54111762D01*
X80099733Y-54102023D01*
X80086200Y-54102000D01*
X79967032Y-54109864D01*
X79918161Y-54154232D01*
X79908422Y-54266267D01*
X79908400Y-54279800D01*
X79916263Y-54398968D01*
X79960631Y-54447839D01*
X80072666Y-54457578D01*
X80086200Y-54457600D01*
X80205367Y-54449737D01*
X80205367Y-54449737D01*
G37*
X80205367Y-54449737D02*
X80254238Y-54405369D01*
X80263977Y-54293334D01*
X80264000Y-54279800D01*
X80256136Y-54160633D01*
X80211768Y-54111762D01*
X80099733Y-54102023D01*
X80086200Y-54102000D01*
X79967032Y-54109864D01*
X79918161Y-54154232D01*
X79908422Y-54266267D01*
X79908400Y-54279800D01*
X79916263Y-54398968D01*
X79960631Y-54447839D01*
X80072666Y-54457578D01*
X80086200Y-54457600D01*
X80205367Y-54449737D01*
G36*
X85598000Y-56591200D02*
X85242400Y-56591200D01*
X85242400Y-57302400D01*
X85598000Y-57302400D01*
X85598000Y-56591200D01*
X85598000Y-56591200D01*
G37*
X85598000Y-56591200D02*
X85242400Y-56591200D01*
X85242400Y-57302400D01*
X85598000Y-57302400D01*
X85598000Y-56591200D01*
G36*
X85598000Y-55880000D02*
X85598000Y-55168800D01*
X84886800Y-55168800D01*
X84886800Y-54457600D01*
X85064600Y-54457600D01*
X85183767Y-54449737D01*
X85232638Y-54405369D01*
X85242377Y-54293334D01*
X85242400Y-54279800D01*
X85234536Y-54160633D01*
X85190168Y-54111762D01*
X85078133Y-54102023D01*
X85064600Y-54102000D01*
X84945432Y-54109864D01*
X84896561Y-54154232D01*
X84886822Y-54266267D01*
X84886800Y-54279800D01*
X84878936Y-54398968D01*
X84834568Y-54447839D01*
X84722533Y-54457578D01*
X84709000Y-54457600D01*
X84589832Y-54449737D01*
X84540961Y-54405369D01*
X84531222Y-54293334D01*
X84531200Y-54279800D01*
X84523336Y-54160633D01*
X84478968Y-54111762D01*
X84366933Y-54102023D01*
X84353400Y-54102000D01*
X84175600Y-54102000D01*
X84175600Y-54813200D01*
X84353400Y-54813200D01*
X84472567Y-54821064D01*
X84521438Y-54865432D01*
X84531177Y-54977467D01*
X84531200Y-54991000D01*
X84531200Y-55168800D01*
X83464400Y-55168800D01*
X83464400Y-54457600D01*
X83286600Y-54457600D01*
X83167432Y-54449737D01*
X83118561Y-54405369D01*
X83108822Y-54293334D01*
X83108800Y-54279800D01*
X83108800Y-54102000D01*
X82042000Y-54102000D01*
X82042000Y-54457600D01*
X80975200Y-54457600D01*
X80975200Y-54279800D01*
X80967336Y-54160633D01*
X80922968Y-54111762D01*
X80810933Y-54102023D01*
X80797400Y-54102000D01*
X80619600Y-54102000D01*
X80619600Y-54813200D01*
X79197200Y-54813200D01*
X79197200Y-54635400D01*
X79189336Y-54516233D01*
X79144968Y-54467362D01*
X79032933Y-54457623D01*
X79019400Y-54457600D01*
X78900232Y-54465464D01*
X78851361Y-54509832D01*
X78841622Y-54621867D01*
X78841600Y-54635400D01*
X78849463Y-54754568D01*
X78893831Y-54803439D01*
X79005866Y-54813178D01*
X79019400Y-54813200D01*
X79138567Y-54821064D01*
X79187438Y-54865432D01*
X79197177Y-54977467D01*
X79197200Y-54991000D01*
X79205063Y-55110168D01*
X79249431Y-55159039D01*
X79361466Y-55168778D01*
X79375000Y-55168800D01*
X79494167Y-55176664D01*
X79543038Y-55221032D01*
X79552777Y-55333067D01*
X79552800Y-55346600D01*
X79552800Y-55524400D01*
X78841600Y-55524400D01*
X78841600Y-55702200D01*
X79552800Y-55702200D01*
X79560663Y-55583033D01*
X79605031Y-55534162D01*
X79717066Y-55524423D01*
X79730600Y-55524400D01*
X79849767Y-55516537D01*
X79898638Y-55472169D01*
X79908377Y-55360134D01*
X79908400Y-55346600D01*
X79916263Y-55227433D01*
X79960631Y-55178562D01*
X80072666Y-55168823D01*
X80086200Y-55168800D01*
X80619600Y-55168800D01*
X80619600Y-54813200D01*
X81330800Y-54813200D01*
X81330800Y-55168800D01*
X80619600Y-55168800D01*
X80086200Y-55168800D01*
X80205367Y-55176664D01*
X80254238Y-55221032D01*
X80263977Y-55333067D01*
X80264000Y-55346600D01*
X80264000Y-55524400D01*
X81686400Y-55524400D01*
X81686400Y-55168800D01*
X82397600Y-55168800D01*
X82397600Y-54991000D01*
X82389736Y-54871833D01*
X82345368Y-54822962D01*
X82233333Y-54813223D01*
X82219800Y-54813200D01*
X82100632Y-54805337D01*
X82051761Y-54760969D01*
X82042022Y-54648934D01*
X82042000Y-54635400D01*
X82042000Y-54457600D01*
X83108800Y-54457600D01*
X83108800Y-55168800D01*
X83286600Y-55168800D01*
X83405767Y-55176664D01*
X83454638Y-55221032D01*
X83464377Y-55333067D01*
X83464400Y-55346600D01*
X83456536Y-55465768D01*
X83412168Y-55514639D01*
X83300133Y-55524378D01*
X83286600Y-55524400D01*
X83167432Y-55516537D01*
X83118561Y-55472169D01*
X83108822Y-55360134D01*
X83108800Y-55346600D01*
X83100936Y-55227433D01*
X83056568Y-55178562D01*
X82944533Y-55168823D01*
X82931000Y-55168800D01*
X82811832Y-55176664D01*
X82762961Y-55221032D01*
X82753222Y-55333067D01*
X82753200Y-55346600D01*
X82745336Y-55465768D01*
X82700968Y-55514639D01*
X82588933Y-55524378D01*
X82575400Y-55524400D01*
X82456232Y-55532264D01*
X82407361Y-55576632D01*
X82397622Y-55688667D01*
X82397600Y-55702200D01*
X82389736Y-55821368D01*
X82345368Y-55870239D01*
X82233333Y-55879978D01*
X82219800Y-55880000D01*
X82100632Y-55887864D01*
X82051761Y-55932232D01*
X82042022Y-56044267D01*
X82042000Y-56057800D01*
X82034136Y-56176968D01*
X81989768Y-56225839D01*
X81877733Y-56235578D01*
X81864200Y-56235600D01*
X81745032Y-56227737D01*
X81696161Y-56183369D01*
X81686422Y-56071334D01*
X81686400Y-56057800D01*
X81686400Y-55880000D01*
X80975200Y-55880000D01*
X80975200Y-56591200D01*
X80264000Y-56591200D01*
X80264000Y-56413400D01*
X80256136Y-56294233D01*
X80211768Y-56245362D01*
X80099733Y-56235623D01*
X80086200Y-56235600D01*
X79967032Y-56227737D01*
X79918161Y-56183369D01*
X79908422Y-56071334D01*
X79908400Y-56057800D01*
X79900536Y-55938633D01*
X79856168Y-55889762D01*
X79744133Y-55880023D01*
X79730600Y-55880000D01*
X79611432Y-55872137D01*
X79562561Y-55827769D01*
X79552822Y-55715734D01*
X79552800Y-55702200D01*
X78841600Y-55702200D01*
X78833736Y-55821368D01*
X78789368Y-55870239D01*
X78677333Y-55879978D01*
X78663800Y-55880000D01*
X78544632Y-55872137D01*
X78495761Y-55827769D01*
X78486022Y-55715734D01*
X78486000Y-55702200D01*
X78478136Y-55583033D01*
X78433768Y-55534162D01*
X78321733Y-55524423D01*
X78308200Y-55524400D01*
X78130400Y-55524400D01*
X78130400Y-56057800D01*
X78841600Y-56057800D01*
X78849463Y-55938633D01*
X78893831Y-55889762D01*
X79005866Y-55880023D01*
X79019400Y-55880000D01*
X79138567Y-55887864D01*
X79187438Y-55932232D01*
X79197177Y-56044267D01*
X79197200Y-56057800D01*
X79189336Y-56176968D01*
X79144968Y-56225839D01*
X79032933Y-56235578D01*
X79019400Y-56235600D01*
X78900232Y-56227737D01*
X78851361Y-56183369D01*
X78841622Y-56071334D01*
X78841600Y-56057800D01*
X78130400Y-56057800D01*
X78130400Y-56235600D01*
X78308200Y-56235600D01*
X78427367Y-56243464D01*
X78476238Y-56287832D01*
X78485977Y-56399867D01*
X78486000Y-56413400D01*
X78478136Y-56532568D01*
X78433768Y-56581439D01*
X78321733Y-56591178D01*
X78308200Y-56591200D01*
X78189032Y-56599064D01*
X78140161Y-56643432D01*
X78130422Y-56755467D01*
X78130400Y-56769000D01*
X78122536Y-56888168D01*
X78078168Y-56937039D01*
X77966133Y-56946778D01*
X77952600Y-56946800D01*
X77774800Y-56946800D01*
X77774800Y-57658000D01*
X77063600Y-57658000D01*
X77063600Y-56591200D01*
X77241400Y-56591200D01*
X77360567Y-56583337D01*
X77409438Y-56538969D01*
X77419177Y-56426934D01*
X77419200Y-56413400D01*
X77419200Y-56235600D01*
X76708000Y-56235600D01*
X76708000Y-57658000D01*
X75996800Y-57658000D01*
X75996800Y-57480200D01*
X76004663Y-57361033D01*
X76049031Y-57312162D01*
X76161066Y-57302423D01*
X76174600Y-57302400D01*
X76293767Y-57294537D01*
X76342638Y-57250169D01*
X76352377Y-57138134D01*
X76352400Y-57124600D01*
X76352400Y-56946800D01*
X74574400Y-56946800D01*
X74574400Y-57658000D01*
X75285600Y-57658000D01*
X75285600Y-58369200D01*
X75463400Y-58369200D01*
X75582567Y-58377064D01*
X75631438Y-58421432D01*
X75641177Y-58533467D01*
X75641200Y-58547000D01*
X75633336Y-58666168D01*
X75588968Y-58715039D01*
X75476933Y-58724778D01*
X75463400Y-58724800D01*
X75285600Y-58724800D01*
X75285600Y-59436000D01*
X75107800Y-59436000D01*
X74988632Y-59443864D01*
X74939761Y-59488232D01*
X74930022Y-59600267D01*
X74930000Y-59613800D01*
X74922136Y-59732968D01*
X74877768Y-59781839D01*
X74765733Y-59791578D01*
X74752200Y-59791600D01*
X74574400Y-59791600D01*
X74574400Y-58724800D01*
X74752200Y-58724800D01*
X74871367Y-58716937D01*
X74920238Y-58672569D01*
X74929977Y-58560534D01*
X74930000Y-58547000D01*
X74922136Y-58427833D01*
X74877768Y-58378962D01*
X74765733Y-58369223D01*
X74752200Y-58369200D01*
X74633032Y-58361337D01*
X74584161Y-58316969D01*
X74574422Y-58204934D01*
X74574400Y-58191400D01*
X74566536Y-58072233D01*
X74522168Y-58023362D01*
X74410133Y-58013623D01*
X74396600Y-58013600D01*
X74218800Y-58013600D01*
X74218800Y-56946800D01*
X73863200Y-56946800D01*
X73863200Y-58547000D01*
X74218800Y-58547000D01*
X74226663Y-58427833D01*
X74271031Y-58378962D01*
X74383066Y-58369223D01*
X74396600Y-58369200D01*
X74515767Y-58377064D01*
X74564638Y-58421432D01*
X74574377Y-58533467D01*
X74574400Y-58547000D01*
X74566536Y-58666168D01*
X74522168Y-58715039D01*
X74410133Y-58724778D01*
X74396600Y-58724800D01*
X74277432Y-58716937D01*
X74228561Y-58672569D01*
X74218822Y-58560534D01*
X74218800Y-58547000D01*
X73863200Y-58547000D01*
X73863200Y-58724800D01*
X74218800Y-58724800D01*
X74218800Y-59436000D01*
X73863200Y-59436000D01*
X73863200Y-60147200D01*
X74041000Y-60147200D01*
X74160167Y-60155064D01*
X74209038Y-60199432D01*
X74218777Y-60311467D01*
X74218800Y-60325000D01*
X74210936Y-60444168D01*
X74166568Y-60493039D01*
X74054533Y-60502778D01*
X74041000Y-60502800D01*
X73921832Y-60510664D01*
X73872961Y-60555032D01*
X73863222Y-60667067D01*
X73863200Y-60680600D01*
X73871063Y-60799768D01*
X73915431Y-60848639D01*
X74027466Y-60858378D01*
X74041000Y-60858400D01*
X74160167Y-60866264D01*
X74209038Y-60910632D01*
X74218777Y-61022667D01*
X74218800Y-61036200D01*
X74574400Y-61036200D01*
X74582263Y-60917033D01*
X74626631Y-60868162D01*
X74738666Y-60858423D01*
X74752200Y-60858400D01*
X74930000Y-60858400D01*
X74930000Y-59791600D01*
X75107800Y-59791600D01*
X75226967Y-59783737D01*
X75275838Y-59739369D01*
X75285577Y-59627334D01*
X75285600Y-59613800D01*
X75293463Y-59494633D01*
X75337831Y-59445762D01*
X75449866Y-59436023D01*
X75463400Y-59436000D01*
X75582567Y-59428137D01*
X75631438Y-59383769D01*
X75641177Y-59271734D01*
X75641200Y-59258200D01*
X75649063Y-59139033D01*
X75693431Y-59090162D01*
X75805466Y-59080423D01*
X75819000Y-59080400D01*
X75938167Y-59072537D01*
X75987038Y-59028169D01*
X75996777Y-58916134D01*
X75996800Y-58902600D01*
X76004663Y-58783433D01*
X76049031Y-58734562D01*
X76161066Y-58724823D01*
X76174600Y-58724800D01*
X76293767Y-58716937D01*
X76342638Y-58672569D01*
X76352377Y-58560534D01*
X76352400Y-58547000D01*
X76352400Y-58369200D01*
X75641200Y-58369200D01*
X75641200Y-57658000D01*
X75819000Y-57658000D01*
X75938167Y-57665864D01*
X75987038Y-57710232D01*
X75996777Y-57822267D01*
X75996800Y-57835800D01*
X75996800Y-58013600D01*
X76708000Y-58013600D01*
X76708000Y-57835800D01*
X76715863Y-57716633D01*
X76760231Y-57667762D01*
X76872266Y-57658023D01*
X76885800Y-57658000D01*
X77004967Y-57665864D01*
X77053838Y-57710232D01*
X77063577Y-57822267D01*
X77063600Y-57835800D01*
X77063600Y-58013600D01*
X78486000Y-58013600D01*
X78486000Y-57835800D01*
X78478136Y-57716633D01*
X78433768Y-57667762D01*
X78321733Y-57658023D01*
X78308200Y-57658000D01*
X78130400Y-57658000D01*
X78130400Y-56946800D01*
X79197200Y-56946800D01*
X79197200Y-56769000D01*
X79205063Y-56649833D01*
X79249431Y-56600962D01*
X79361466Y-56591223D01*
X79375000Y-56591200D01*
X79494167Y-56599064D01*
X79543038Y-56643432D01*
X79552777Y-56755467D01*
X79552800Y-56769000D01*
X79544936Y-56888168D01*
X79500568Y-56937039D01*
X79388533Y-56946778D01*
X79375000Y-56946800D01*
X79255832Y-56954664D01*
X79206961Y-56999032D01*
X79197222Y-57111067D01*
X79197200Y-57124600D01*
X79189336Y-57243768D01*
X79144968Y-57292639D01*
X79032933Y-57302378D01*
X79019400Y-57302400D01*
X78900232Y-57310264D01*
X78851361Y-57354632D01*
X78841622Y-57466667D01*
X78841600Y-57480200D01*
X78849463Y-57599368D01*
X78893831Y-57648239D01*
X79005866Y-57657978D01*
X79019400Y-57658000D01*
X79138567Y-57665864D01*
X79187438Y-57710232D01*
X79197177Y-57822267D01*
X79197200Y-57835800D01*
X79205063Y-57954968D01*
X79249431Y-58003839D01*
X79361466Y-58013578D01*
X79375000Y-58013600D01*
X79494167Y-58005737D01*
X79543038Y-57961369D01*
X79552777Y-57849334D01*
X79552800Y-57835800D01*
X79560663Y-57716633D01*
X79605031Y-57667762D01*
X79717066Y-57658023D01*
X79730600Y-57658000D01*
X79849767Y-57650137D01*
X79898638Y-57605769D01*
X79908377Y-57493734D01*
X79908400Y-57480200D01*
X79916263Y-57361033D01*
X79960631Y-57312162D01*
X80072666Y-57302423D01*
X80086200Y-57302400D01*
X80205367Y-57294537D01*
X80254238Y-57250169D01*
X80263977Y-57138134D01*
X80264000Y-57124600D01*
X80264000Y-56946800D01*
X81686400Y-56946800D01*
X81686400Y-57302400D01*
X80975200Y-57302400D01*
X80975200Y-57480200D01*
X80983063Y-57599368D01*
X81027431Y-57648239D01*
X81139466Y-57657978D01*
X81153000Y-57658000D01*
X81272167Y-57665864D01*
X81321038Y-57710232D01*
X81330777Y-57822267D01*
X81330800Y-57835800D01*
X81330800Y-58013600D01*
X80619600Y-58013600D01*
X80619600Y-58191400D01*
X80627463Y-58310568D01*
X80671831Y-58359439D01*
X80783866Y-58369178D01*
X80797400Y-58369200D01*
X80975200Y-58369200D01*
X80975200Y-58547000D01*
X81330800Y-58547000D01*
X81338663Y-58427833D01*
X81383031Y-58378962D01*
X81495066Y-58369223D01*
X81508600Y-58369200D01*
X81686400Y-58369200D01*
X81686400Y-57658000D01*
X82042000Y-57658000D01*
X82042000Y-56591200D01*
X82397600Y-56591200D01*
X82397600Y-56946800D01*
X82753200Y-56946800D01*
X82753200Y-55880000D01*
X83820000Y-55880000D01*
X84531200Y-55880000D01*
X84531200Y-55524400D01*
X85242400Y-55524400D01*
X85242400Y-55880000D01*
X84531200Y-55880000D01*
X83820000Y-55880000D01*
X83820000Y-56769000D01*
X84175600Y-56769000D01*
X84183463Y-56649833D01*
X84227831Y-56600962D01*
X84339866Y-56591223D01*
X84353400Y-56591200D01*
X84472567Y-56583337D01*
X84521438Y-56538969D01*
X84531177Y-56426934D01*
X84531200Y-56413400D01*
X84539063Y-56294233D01*
X84583431Y-56245362D01*
X84695466Y-56235623D01*
X84709000Y-56235600D01*
X84828167Y-56243464D01*
X84877038Y-56287832D01*
X84886777Y-56399867D01*
X84886800Y-56413400D01*
X84878936Y-56532568D01*
X84834568Y-56581439D01*
X84722533Y-56591178D01*
X84709000Y-56591200D01*
X84589832Y-56599064D01*
X84540961Y-56643432D01*
X84531222Y-56755467D01*
X84531200Y-56769000D01*
X84523336Y-56888168D01*
X84478968Y-56937039D01*
X84366933Y-56946778D01*
X84353400Y-56946800D01*
X84234232Y-56938937D01*
X84185361Y-56894569D01*
X84175622Y-56782534D01*
X84175600Y-56769000D01*
X83820000Y-56769000D01*
X83820000Y-56946800D01*
X82753200Y-56946800D01*
X82397600Y-56946800D01*
X82397600Y-57302400D01*
X82753200Y-57302400D01*
X82753200Y-58013600D01*
X82931000Y-58013600D01*
X83050167Y-58005737D01*
X83099038Y-57961369D01*
X83108777Y-57849334D01*
X83108800Y-57835800D01*
X83116663Y-57716633D01*
X83161031Y-57667762D01*
X83273066Y-57658023D01*
X83286600Y-57658000D01*
X83405767Y-57650137D01*
X83454638Y-57605769D01*
X83464377Y-57493734D01*
X83464400Y-57480200D01*
X83472263Y-57361033D01*
X83516631Y-57312162D01*
X83628666Y-57302423D01*
X83642200Y-57302400D01*
X83820000Y-57302400D01*
X83820000Y-58013600D01*
X83997800Y-58013600D01*
X84116967Y-58021464D01*
X84165838Y-58065832D01*
X84175577Y-58177867D01*
X84175600Y-58191400D01*
X84183463Y-58310568D01*
X84227831Y-58359439D01*
X84339866Y-58369178D01*
X84353400Y-58369200D01*
X84531200Y-58369200D01*
X84531200Y-57658000D01*
X84886800Y-57658000D01*
X84886800Y-58724800D01*
X84709000Y-58724800D01*
X84589832Y-58732664D01*
X84540961Y-58777032D01*
X84531222Y-58889067D01*
X84531200Y-58902600D01*
X84531200Y-59080400D01*
X83820000Y-59080400D01*
X83820000Y-58724800D01*
X83108800Y-58724800D01*
X83108800Y-58902600D01*
X83100936Y-59021768D01*
X83056568Y-59070639D01*
X82944533Y-59080378D01*
X82931000Y-59080400D01*
X82811832Y-59088264D01*
X82762961Y-59132632D01*
X82753222Y-59244667D01*
X82753200Y-59258200D01*
X82761063Y-59377368D01*
X82805431Y-59426239D01*
X82917466Y-59435978D01*
X82931000Y-59436000D01*
X83050167Y-59443864D01*
X83099038Y-59488232D01*
X83108777Y-59600267D01*
X83108800Y-59613800D01*
X83100936Y-59732968D01*
X83056568Y-59781839D01*
X82944533Y-59791578D01*
X82931000Y-59791600D01*
X82811832Y-59799464D01*
X82762961Y-59843832D01*
X82753222Y-59955867D01*
X82753200Y-59969400D01*
X82753200Y-60147200D01*
X82042000Y-60147200D01*
X82042000Y-59969400D01*
X82049863Y-59850233D01*
X82094231Y-59801362D01*
X82206266Y-59791623D01*
X82219800Y-59791600D01*
X82338967Y-59783737D01*
X82387838Y-59739369D01*
X82397577Y-59627334D01*
X82397600Y-59613800D01*
X82389736Y-59494633D01*
X82345368Y-59445762D01*
X82233333Y-59436023D01*
X82219800Y-59436000D01*
X82100632Y-59428137D01*
X82051761Y-59383769D01*
X82042022Y-59271734D01*
X82042000Y-59258200D01*
X82034136Y-59139033D01*
X81989768Y-59090162D01*
X81877733Y-59080423D01*
X81864200Y-59080400D01*
X81745032Y-59072537D01*
X81696161Y-59028169D01*
X81686422Y-58916134D01*
X81686400Y-58902600D01*
X81678536Y-58783433D01*
X81634168Y-58734562D01*
X81522133Y-58724823D01*
X81508600Y-58724800D01*
X81389432Y-58716937D01*
X81340561Y-58672569D01*
X81330822Y-58560534D01*
X81330800Y-58547000D01*
X80975200Y-58547000D01*
X80975200Y-59436000D01*
X79552800Y-59436000D01*
X79552800Y-60147200D01*
X80619600Y-60147200D01*
X80975200Y-60147200D01*
X80975200Y-59436000D01*
X81153000Y-59436000D01*
X81272167Y-59443864D01*
X81321038Y-59488232D01*
X81330777Y-59600267D01*
X81330800Y-59613800D01*
X81338663Y-59732968D01*
X81383031Y-59781839D01*
X81495066Y-59791578D01*
X81508600Y-59791600D01*
X81627767Y-59799464D01*
X81676638Y-59843832D01*
X81686377Y-59955867D01*
X81686400Y-59969400D01*
X81686400Y-60147200D01*
X80975200Y-60147200D01*
X80619600Y-60147200D01*
X80619600Y-60325000D01*
X80627463Y-60444168D01*
X80671831Y-60493039D01*
X80783866Y-60502778D01*
X80797400Y-60502800D01*
X80916567Y-60510664D01*
X80965438Y-60555032D01*
X80975177Y-60667067D01*
X80975200Y-60680600D01*
X80975200Y-60858400D01*
X81330800Y-60858400D01*
X81330800Y-60502800D01*
X82397600Y-60502800D01*
X82397600Y-60858400D01*
X81330800Y-60858400D01*
X80975200Y-60858400D01*
X80264000Y-60858400D01*
X80264000Y-61214000D01*
X81686400Y-61214000D01*
X82397600Y-61214000D01*
X82397600Y-60858400D01*
X83108800Y-60858400D01*
X83108800Y-61214000D01*
X82397600Y-61214000D01*
X81686400Y-61214000D01*
X81686400Y-61391800D01*
X81678536Y-61510968D01*
X81634168Y-61559839D01*
X81522133Y-61569578D01*
X81508600Y-61569600D01*
X81389432Y-61577464D01*
X81340561Y-61621832D01*
X81330822Y-61733867D01*
X81330800Y-61747400D01*
X81322936Y-61866568D01*
X81278568Y-61915439D01*
X81166533Y-61925178D01*
X81153000Y-61925200D01*
X81033832Y-61933064D01*
X80984961Y-61977432D01*
X80975222Y-62089467D01*
X80975200Y-62103000D01*
X80975200Y-62280800D01*
X80264000Y-62280800D01*
X80264000Y-62103000D01*
X80256136Y-61983833D01*
X80211768Y-61934962D01*
X80099733Y-61925223D01*
X80086200Y-61925200D01*
X79967032Y-61917337D01*
X79918161Y-61872969D01*
X79908422Y-61760934D01*
X79908400Y-61747400D01*
X79900536Y-61628233D01*
X79856168Y-61579362D01*
X79744133Y-61569623D01*
X79730600Y-61569600D01*
X79611432Y-61577464D01*
X79562561Y-61621832D01*
X79552822Y-61733867D01*
X79552800Y-61747400D01*
X79552800Y-61925200D01*
X78841600Y-61925200D01*
X78841600Y-61747400D01*
X78833736Y-61628233D01*
X78789368Y-61579362D01*
X78677333Y-61569623D01*
X78663800Y-61569600D01*
X78544632Y-61561737D01*
X78495761Y-61517369D01*
X78486022Y-61405334D01*
X78486000Y-61391800D01*
X78478136Y-61272633D01*
X78433768Y-61223762D01*
X78321733Y-61214023D01*
X78308200Y-61214000D01*
X78130400Y-61214000D01*
X78130400Y-61925200D01*
X78308200Y-61925200D01*
X78427367Y-61933064D01*
X78476238Y-61977432D01*
X78485977Y-62089467D01*
X78486000Y-62103000D01*
X78478136Y-62222168D01*
X78433768Y-62271039D01*
X78321733Y-62280778D01*
X78308200Y-62280800D01*
X78189032Y-62288664D01*
X78140161Y-62333032D01*
X78130422Y-62445067D01*
X78130400Y-62458600D01*
X78122536Y-62577768D01*
X78078168Y-62626639D01*
X77966133Y-62636378D01*
X77952600Y-62636400D01*
X77833432Y-62644264D01*
X77784561Y-62688632D01*
X77774822Y-62800667D01*
X77774800Y-62814200D01*
X77766936Y-62933368D01*
X77722568Y-62982239D01*
X77610533Y-62991978D01*
X77597000Y-62992000D01*
X77477832Y-62984137D01*
X77428961Y-62939769D01*
X77419222Y-62827734D01*
X77419200Y-62814200D01*
X77411336Y-62695033D01*
X77366968Y-62646162D01*
X77254933Y-62636423D01*
X77241400Y-62636400D01*
X77122232Y-62628537D01*
X77073361Y-62584169D01*
X77063622Y-62472134D01*
X77063600Y-62458600D01*
X77055736Y-62339433D01*
X77011368Y-62290562D01*
X76899333Y-62280823D01*
X76885800Y-62280800D01*
X76708000Y-62280800D01*
X76708000Y-61569600D01*
X76530200Y-61569600D01*
X76411032Y-61577464D01*
X76362161Y-61621832D01*
X76352422Y-61733867D01*
X76352400Y-61747400D01*
X76344536Y-61866568D01*
X76300168Y-61915439D01*
X76188133Y-61925178D01*
X76174600Y-61925200D01*
X76055432Y-61917337D01*
X76006561Y-61872969D01*
X75996822Y-61760934D01*
X75996800Y-61747400D01*
X76004663Y-61628233D01*
X76049031Y-61579362D01*
X76161066Y-61569623D01*
X76174600Y-61569600D01*
X76293767Y-61561737D01*
X76342638Y-61517369D01*
X76352377Y-61405334D01*
X76352400Y-61391800D01*
X76352400Y-61214000D01*
X75285600Y-61214000D01*
X75285600Y-61391800D01*
X75277736Y-61510968D01*
X75233368Y-61559839D01*
X75121333Y-61569578D01*
X75107800Y-61569600D01*
X74988632Y-61561737D01*
X74939761Y-61517369D01*
X74930022Y-61405334D01*
X74930000Y-61391800D01*
X74922136Y-61272633D01*
X74877768Y-61223762D01*
X74765733Y-61214023D01*
X74752200Y-61214000D01*
X74633032Y-61206137D01*
X74584161Y-61161769D01*
X74574422Y-61049734D01*
X74574400Y-61036200D01*
X74218800Y-61036200D01*
X74226663Y-61155368D01*
X74271031Y-61204239D01*
X74383066Y-61213978D01*
X74396600Y-61214000D01*
X74574400Y-61214000D01*
X74574400Y-61925200D01*
X74396600Y-61925200D01*
X74277432Y-61917337D01*
X74228561Y-61872969D01*
X74218822Y-61760934D01*
X74218800Y-61747400D01*
X74210936Y-61628233D01*
X74166568Y-61579362D01*
X74054533Y-61569623D01*
X74041000Y-61569600D01*
X73921832Y-61577464D01*
X73872961Y-61621832D01*
X73863222Y-61733867D01*
X73863200Y-61747400D01*
X73871063Y-61866568D01*
X73915431Y-61915439D01*
X74027466Y-61925178D01*
X74041000Y-61925200D01*
X74160167Y-61933064D01*
X74209038Y-61977432D01*
X74218777Y-62089467D01*
X74218800Y-62103000D01*
X74210936Y-62222168D01*
X74166568Y-62271039D01*
X74054533Y-62280778D01*
X74041000Y-62280800D01*
X73863200Y-62280800D01*
X73863200Y-62636400D01*
X74574400Y-62636400D01*
X74574400Y-62280800D01*
X75285600Y-62280800D01*
X75285600Y-62103000D01*
X75293463Y-61983833D01*
X75337831Y-61934962D01*
X75449866Y-61925223D01*
X75463400Y-61925200D01*
X75641200Y-61925200D01*
X75641200Y-62458600D01*
X75996800Y-62458600D01*
X76004663Y-62339433D01*
X76049031Y-62290562D01*
X76161066Y-62280823D01*
X76174600Y-62280800D01*
X76293767Y-62288664D01*
X76342638Y-62333032D01*
X76352377Y-62445067D01*
X76352400Y-62458600D01*
X76344536Y-62577768D01*
X76300168Y-62626639D01*
X76188133Y-62636378D01*
X76174600Y-62636400D01*
X76055432Y-62628537D01*
X76006561Y-62584169D01*
X75996822Y-62472134D01*
X75996800Y-62458600D01*
X75641200Y-62458600D01*
X75641200Y-62636400D01*
X74574400Y-62636400D01*
X73863200Y-62636400D01*
X73863200Y-62992000D01*
X75641200Y-62992000D01*
X75641200Y-62814200D01*
X75649063Y-62695033D01*
X75693431Y-62646162D01*
X75805466Y-62636423D01*
X75819000Y-62636400D01*
X75938167Y-62644264D01*
X75987038Y-62688632D01*
X75996777Y-62800667D01*
X75996800Y-62814200D01*
X75996800Y-62992000D01*
X77063600Y-62992000D01*
X77063600Y-63169800D01*
X77055736Y-63288968D01*
X77011368Y-63337839D01*
X76899333Y-63347578D01*
X76885800Y-63347600D01*
X76708000Y-63347600D01*
X76708000Y-63525400D01*
X77063600Y-63525400D01*
X77071463Y-63406233D01*
X77115831Y-63357362D01*
X77227866Y-63347623D01*
X77241400Y-63347600D01*
X77360567Y-63355464D01*
X77409438Y-63399832D01*
X77419177Y-63511867D01*
X77419200Y-63525400D01*
X77774800Y-63525400D01*
X77782663Y-63406233D01*
X77827031Y-63357362D01*
X77939066Y-63347623D01*
X77952600Y-63347600D01*
X78071767Y-63355464D01*
X78120638Y-63399832D01*
X78130377Y-63511867D01*
X78130400Y-63525400D01*
X78122536Y-63644568D01*
X78078168Y-63693439D01*
X77966133Y-63703178D01*
X77952600Y-63703200D01*
X77833432Y-63695337D01*
X77784561Y-63650969D01*
X77774822Y-63538934D01*
X77774800Y-63525400D01*
X77419200Y-63525400D01*
X77411336Y-63644568D01*
X77366968Y-63693439D01*
X77254933Y-63703178D01*
X77241400Y-63703200D01*
X77122232Y-63695337D01*
X77073361Y-63650969D01*
X77063622Y-63538934D01*
X77063600Y-63525400D01*
X76708000Y-63525400D01*
X76708000Y-64058800D01*
X76885800Y-64058800D01*
X77004967Y-64066664D01*
X77053838Y-64111032D01*
X77063577Y-64223067D01*
X77063600Y-64236600D01*
X77055736Y-64355768D01*
X77011368Y-64404639D01*
X76899333Y-64414378D01*
X76885800Y-64414400D01*
X76766632Y-64422264D01*
X76717761Y-64466632D01*
X76708022Y-64578667D01*
X76708000Y-64592200D01*
X76708000Y-64770000D01*
X77774800Y-64770000D01*
X77774800Y-64592200D01*
X77766936Y-64473033D01*
X77722568Y-64424162D01*
X77610533Y-64414423D01*
X77597000Y-64414400D01*
X77419200Y-64414400D01*
X77419200Y-63703200D01*
X77597000Y-63703200D01*
X77716167Y-63711064D01*
X77765038Y-63755432D01*
X77774777Y-63867467D01*
X77774800Y-63881000D01*
X77774800Y-64058800D01*
X78486000Y-64058800D01*
X78486000Y-63347600D01*
X78130400Y-63347600D01*
X78130400Y-62636400D01*
X79552800Y-62636400D01*
X79552800Y-62458600D01*
X79560663Y-62339433D01*
X79605031Y-62290562D01*
X79717066Y-62280823D01*
X79730600Y-62280800D01*
X79908400Y-62280800D01*
X79908400Y-62992000D01*
X79552800Y-62992000D01*
X79552800Y-63703200D01*
X79730600Y-63703200D01*
X79849767Y-63711064D01*
X79898638Y-63755432D01*
X79908377Y-63867467D01*
X79908400Y-63881000D01*
X79908400Y-64058800D01*
X79197200Y-64058800D01*
X79197200Y-64236600D01*
X79189336Y-64355768D01*
X79144968Y-64404639D01*
X79032933Y-64414378D01*
X79019400Y-64414400D01*
X78900232Y-64422264D01*
X78851361Y-64466632D01*
X78841622Y-64578667D01*
X78841600Y-64592200D01*
X78833736Y-64711368D01*
X78789368Y-64760239D01*
X78677333Y-64769978D01*
X78663800Y-64770000D01*
X78544632Y-64762137D01*
X78495761Y-64717769D01*
X78486022Y-64605734D01*
X78486000Y-64592200D01*
X78478136Y-64473033D01*
X78433768Y-64424162D01*
X78321733Y-64414423D01*
X78308200Y-64414400D01*
X78130400Y-64414400D01*
X78130400Y-64947800D01*
X78841600Y-64947800D01*
X78849463Y-64828633D01*
X78893831Y-64779762D01*
X79005866Y-64770023D01*
X79019400Y-64770000D01*
X79138567Y-64777864D01*
X79187438Y-64822232D01*
X79197177Y-64934267D01*
X79197200Y-64947800D01*
X79189336Y-65066968D01*
X79144968Y-65115839D01*
X79032933Y-65125578D01*
X79019400Y-65125600D01*
X79552800Y-65125600D01*
X79552800Y-64414400D01*
X79730600Y-64414400D01*
X79849767Y-64422264D01*
X79898638Y-64466632D01*
X79908377Y-64578667D01*
X79908400Y-64592200D01*
X79916263Y-64711368D01*
X79960631Y-64760239D01*
X80072666Y-64769978D01*
X80086200Y-64770000D01*
X80205367Y-64762137D01*
X80254238Y-64717769D01*
X80263977Y-64605734D01*
X80264000Y-64592200D01*
X80264000Y-64414400D01*
X81330800Y-64414400D01*
X81330800Y-64236600D01*
X81338663Y-64117433D01*
X81383031Y-64068562D01*
X81495066Y-64058823D01*
X81508600Y-64058800D01*
X81627767Y-64050937D01*
X81676638Y-64006569D01*
X81686377Y-63894534D01*
X81686400Y-63881000D01*
X81678536Y-63761833D01*
X81634168Y-63712962D01*
X81522133Y-63703223D01*
X81508600Y-63703200D01*
X81389432Y-63695337D01*
X81340561Y-63650969D01*
X81330822Y-63538934D01*
X81330800Y-63525400D01*
X81322936Y-63406233D01*
X81278568Y-63357362D01*
X81166533Y-63347623D01*
X81153000Y-63347600D01*
X80975200Y-63347600D01*
X80975200Y-64058800D01*
X80264000Y-64058800D01*
X80264000Y-63881000D01*
X80256136Y-63761833D01*
X80211768Y-63712962D01*
X80099733Y-63703223D01*
X80086200Y-63703200D01*
X79908400Y-63703200D01*
X79908400Y-62992000D01*
X80086200Y-62992000D01*
X80205367Y-62984137D01*
X80254238Y-62939769D01*
X80263977Y-62827734D01*
X80264000Y-62814200D01*
X80271863Y-62695033D01*
X80316231Y-62646162D01*
X80428266Y-62636423D01*
X80441800Y-62636400D01*
X80560967Y-62644264D01*
X80609838Y-62688632D01*
X80619577Y-62800667D01*
X80619600Y-62814200D01*
X80619600Y-62992000D01*
X81330800Y-62992000D01*
X81330800Y-62814200D01*
X81338663Y-62695033D01*
X81383031Y-62646162D01*
X81495066Y-62636423D01*
X81508600Y-62636400D01*
X81686400Y-62636400D01*
X81686400Y-61925200D01*
X81864200Y-61925200D01*
X81983367Y-61917337D01*
X82032238Y-61872969D01*
X82041977Y-61760934D01*
X82042000Y-61747400D01*
X82049863Y-61628233D01*
X82094231Y-61579362D01*
X82206266Y-61569623D01*
X82219800Y-61569600D01*
X82338967Y-61577464D01*
X82387838Y-61621832D01*
X82397577Y-61733867D01*
X82397600Y-61747400D01*
X82405463Y-61866568D01*
X82449831Y-61915439D01*
X82561866Y-61925178D01*
X82575400Y-61925200D01*
X82694567Y-61917337D01*
X82743438Y-61872969D01*
X82753177Y-61760934D01*
X82753200Y-61747400D01*
X82761063Y-61628233D01*
X82805431Y-61579362D01*
X82917466Y-61569623D01*
X82931000Y-61569600D01*
X83050167Y-61577464D01*
X83099038Y-61621832D01*
X83108777Y-61733867D01*
X83108800Y-61747400D01*
X83100936Y-61866568D01*
X83056568Y-61915439D01*
X82944533Y-61925178D01*
X82931000Y-61925200D01*
X82811832Y-61933064D01*
X82762961Y-61977432D01*
X82753222Y-62089467D01*
X82753200Y-62103000D01*
X83464400Y-62103000D01*
X83472263Y-61983833D01*
X83516631Y-61934962D01*
X83628666Y-61925223D01*
X83642200Y-61925200D01*
X83761367Y-61917337D01*
X83810238Y-61872969D01*
X83819977Y-61760934D01*
X83820000Y-61747400D01*
X83820000Y-61569600D01*
X84531200Y-61569600D01*
X84531200Y-61747400D01*
X84539063Y-61866568D01*
X84583431Y-61915439D01*
X84695466Y-61925178D01*
X84709000Y-61925200D01*
X84828167Y-61933064D01*
X84877038Y-61977432D01*
X84886777Y-62089467D01*
X84886800Y-62103000D01*
X84878936Y-62222168D01*
X84834568Y-62271039D01*
X84722533Y-62280778D01*
X84709000Y-62280800D01*
X84589832Y-62272937D01*
X84540961Y-62228569D01*
X84531222Y-62116534D01*
X84531200Y-62103000D01*
X84531200Y-61925200D01*
X83820000Y-61925200D01*
X83820000Y-62103000D01*
X83812136Y-62222168D01*
X83767768Y-62271039D01*
X83655733Y-62280778D01*
X83642200Y-62280800D01*
X83523032Y-62272937D01*
X83474161Y-62228569D01*
X83464422Y-62116534D01*
X83464400Y-62103000D01*
X82753200Y-62103000D01*
X82761063Y-62222168D01*
X82805431Y-62271039D01*
X82917466Y-62280778D01*
X82931000Y-62280800D01*
X83050167Y-62288664D01*
X83099038Y-62333032D01*
X83108777Y-62445067D01*
X83108800Y-62458600D01*
X83108800Y-62636400D01*
X82397600Y-62636400D01*
X82397600Y-62458600D01*
X82389736Y-62339433D01*
X82345368Y-62290562D01*
X82233333Y-62280823D01*
X82219800Y-62280800D01*
X82100632Y-62288664D01*
X82051761Y-62333032D01*
X82042022Y-62445067D01*
X82042000Y-62458600D01*
X82034136Y-62577768D01*
X81989768Y-62626639D01*
X81877733Y-62636378D01*
X81864200Y-62636400D01*
X81745032Y-62644264D01*
X81696161Y-62688632D01*
X81686422Y-62800667D01*
X81686400Y-62814200D01*
X81678536Y-62933368D01*
X81634168Y-62982239D01*
X81522133Y-62991978D01*
X81508600Y-62992000D01*
X81389432Y-62999864D01*
X81340561Y-63044232D01*
X81330822Y-63156267D01*
X81330800Y-63169800D01*
X81338663Y-63288968D01*
X81383031Y-63337839D01*
X81495066Y-63347578D01*
X81508600Y-63347600D01*
X81627767Y-63355464D01*
X81676638Y-63399832D01*
X81686377Y-63511867D01*
X81686400Y-63525400D01*
X81694263Y-63644568D01*
X81738631Y-63693439D01*
X81850666Y-63703178D01*
X81864200Y-63703200D01*
X81983367Y-63695337D01*
X82032238Y-63650969D01*
X82041977Y-63538934D01*
X82042000Y-63525400D01*
X82049863Y-63406233D01*
X82094231Y-63357362D01*
X82206266Y-63347623D01*
X82219800Y-63347600D01*
X82397600Y-63347600D01*
X82397600Y-64058800D01*
X82219800Y-64058800D01*
X82100632Y-64066664D01*
X82051761Y-64111032D01*
X82042022Y-64223067D01*
X82042000Y-64236600D01*
X82049863Y-64355768D01*
X82094231Y-64404639D01*
X82206266Y-64414378D01*
X82219800Y-64414400D01*
X82338967Y-64422264D01*
X82387838Y-64466632D01*
X82397577Y-64578667D01*
X82397600Y-64592200D01*
X82389736Y-64711368D01*
X82345368Y-64760239D01*
X82233333Y-64769978D01*
X82219800Y-64770000D01*
X82100632Y-64777864D01*
X82051761Y-64822232D01*
X82042022Y-64934267D01*
X82042000Y-64947800D01*
X82034136Y-65066968D01*
X81989768Y-65115839D01*
X81877733Y-65125578D01*
X81864200Y-65125600D01*
X81745032Y-65117737D01*
X81696161Y-65073369D01*
X81686422Y-64961334D01*
X81686400Y-64947800D01*
X81678536Y-64828633D01*
X81634168Y-64779762D01*
X81522133Y-64770023D01*
X81508600Y-64770000D01*
X81389432Y-64777864D01*
X81340561Y-64822232D01*
X81330822Y-64934267D01*
X81330800Y-64947800D01*
X81322936Y-65066968D01*
X81278568Y-65115839D01*
X81166533Y-65125578D01*
X81153000Y-65125600D01*
X81033832Y-65133464D01*
X80984961Y-65177832D01*
X80975222Y-65289867D01*
X80975200Y-65303400D01*
X80975200Y-65481200D01*
X79908400Y-65481200D01*
X79908400Y-65303400D01*
X79900536Y-65184233D01*
X79856168Y-65135362D01*
X79744133Y-65125623D01*
X79730600Y-65125600D01*
X79552800Y-65125600D01*
X79019400Y-65125600D01*
X78900232Y-65117737D01*
X78851361Y-65073369D01*
X78841622Y-64961334D01*
X78841600Y-64947800D01*
X78130400Y-64947800D01*
X78130400Y-65125600D01*
X78308200Y-65125600D01*
X78427367Y-65133464D01*
X78476238Y-65177832D01*
X78485977Y-65289867D01*
X78486000Y-65303400D01*
X78478136Y-65422568D01*
X78433768Y-65471439D01*
X78321733Y-65481178D01*
X78308200Y-65481200D01*
X78189032Y-65489064D01*
X78140161Y-65533432D01*
X78130422Y-65645467D01*
X78130400Y-65659000D01*
X78130400Y-65836800D01*
X79552800Y-65836800D01*
X79552800Y-65659000D01*
X79560663Y-65539833D01*
X79605031Y-65490962D01*
X79717066Y-65481223D01*
X79730600Y-65481200D01*
X79849767Y-65489064D01*
X79898638Y-65533432D01*
X79908377Y-65645467D01*
X79908400Y-65659000D01*
X79908400Y-65836800D01*
X81330800Y-65836800D01*
X81330800Y-65125600D01*
X81508600Y-65125600D01*
X81627767Y-65133464D01*
X81676638Y-65177832D01*
X81686377Y-65289867D01*
X81686400Y-65303400D01*
X81694263Y-65422568D01*
X81738631Y-65471439D01*
X81850666Y-65481178D01*
X81864200Y-65481200D01*
X81983367Y-65489064D01*
X82032238Y-65533432D01*
X82041977Y-65645467D01*
X82042000Y-65659000D01*
X82042000Y-65836800D01*
X82753200Y-65836800D01*
X82753200Y-65481200D01*
X82042000Y-65481200D01*
X82042000Y-65303400D01*
X82049863Y-65184233D01*
X82094231Y-65135362D01*
X82206266Y-65125623D01*
X82219800Y-65125600D01*
X82338967Y-65117737D01*
X82387838Y-65073369D01*
X82397577Y-64961334D01*
X82397600Y-64947800D01*
X82405463Y-64828633D01*
X82449831Y-64779762D01*
X82561866Y-64770023D01*
X82575400Y-64770000D01*
X82694567Y-64762137D01*
X82743438Y-64717769D01*
X82753177Y-64605734D01*
X82753200Y-64592200D01*
X82745336Y-64473033D01*
X82700968Y-64424162D01*
X82588933Y-64414423D01*
X82575400Y-64414400D01*
X82456232Y-64406537D01*
X82407361Y-64362169D01*
X82397622Y-64250134D01*
X82397600Y-64236600D01*
X82405463Y-64117433D01*
X82449831Y-64068562D01*
X82561866Y-64058823D01*
X82575400Y-64058800D01*
X82753200Y-64058800D01*
X82753200Y-63347600D01*
X82575400Y-63347600D01*
X82456232Y-63339737D01*
X82407361Y-63295369D01*
X82397622Y-63183334D01*
X82397600Y-63169800D01*
X82397600Y-62992000D01*
X83108800Y-62992000D01*
X83108800Y-62814200D01*
X83116663Y-62695033D01*
X83161031Y-62646162D01*
X83273066Y-62636423D01*
X83286600Y-62636400D01*
X83405767Y-62644264D01*
X83454638Y-62688632D01*
X83464377Y-62800667D01*
X83464400Y-62814200D01*
X83472263Y-62933368D01*
X83516631Y-62982239D01*
X83628666Y-62991978D01*
X83642200Y-62992000D01*
X83820000Y-62992000D01*
X83820000Y-62280800D01*
X84531200Y-62280800D01*
X84531200Y-62458600D01*
X84523336Y-62577768D01*
X84478968Y-62626639D01*
X84366933Y-62636378D01*
X84353400Y-62636400D01*
X84234232Y-62644264D01*
X84185361Y-62688632D01*
X84175622Y-62800667D01*
X84175600Y-62814200D01*
X84183463Y-62933368D01*
X84227831Y-62982239D01*
X84339866Y-62991978D01*
X84353400Y-62992000D01*
X84472567Y-62984137D01*
X84521438Y-62939769D01*
X84531177Y-62827734D01*
X84531200Y-62814200D01*
X84539063Y-62695033D01*
X84583431Y-62646162D01*
X84695466Y-62636423D01*
X84709000Y-62636400D01*
X84828167Y-62644264D01*
X84877038Y-62688632D01*
X84886777Y-62800667D01*
X84886800Y-62814200D01*
X84894663Y-62933368D01*
X84939031Y-62982239D01*
X85051066Y-62991978D01*
X85064600Y-62992000D01*
X85183767Y-62984137D01*
X85232638Y-62939769D01*
X85242377Y-62827734D01*
X85242400Y-62814200D01*
X85250263Y-62695033D01*
X85294631Y-62646162D01*
X85406666Y-62636423D01*
X85420200Y-62636400D01*
X85539367Y-62628537D01*
X85588238Y-62584169D01*
X85597977Y-62472134D01*
X85598000Y-62458600D01*
X85590136Y-62339433D01*
X85545768Y-62290562D01*
X85433733Y-62280823D01*
X85420200Y-62280800D01*
X85301032Y-62272937D01*
X85252161Y-62228569D01*
X85242422Y-62116534D01*
X85242400Y-62103000D01*
X85234536Y-61983833D01*
X85190168Y-61934962D01*
X85078133Y-61925223D01*
X85064600Y-61925200D01*
X84945432Y-61917337D01*
X84896561Y-61872969D01*
X84886822Y-61760934D01*
X84886800Y-61747400D01*
X84878936Y-61628233D01*
X84834568Y-61579362D01*
X84722533Y-61569623D01*
X84709000Y-61569600D01*
X84589832Y-61561737D01*
X84540961Y-61517369D01*
X84531222Y-61405334D01*
X84531200Y-61391800D01*
X84531200Y-61214000D01*
X83820000Y-61214000D01*
X83820000Y-61569600D01*
X83108800Y-61569600D01*
X83108800Y-61391800D01*
X83116663Y-61272633D01*
X83161031Y-61223762D01*
X83273066Y-61214023D01*
X83286600Y-61214000D01*
X83405767Y-61206137D01*
X83454638Y-61161769D01*
X83464377Y-61049734D01*
X83464400Y-61036200D01*
X83456536Y-60917033D01*
X83412168Y-60868162D01*
X83300133Y-60858423D01*
X83286600Y-60858400D01*
X83108800Y-60858400D01*
X83108800Y-59791600D01*
X83286600Y-59791600D01*
X83464400Y-59791600D01*
X83464400Y-59436000D01*
X84175600Y-59436000D01*
X84175600Y-59791600D01*
X83464400Y-59791600D01*
X83286600Y-59791600D01*
X83405767Y-59799464D01*
X83454638Y-59843832D01*
X83464377Y-59955867D01*
X83464400Y-59969400D01*
X83464400Y-60147200D01*
X84175600Y-60147200D01*
X84175600Y-59969400D01*
X84183463Y-59850233D01*
X84227831Y-59801362D01*
X84339866Y-59791623D01*
X84353400Y-59791600D01*
X84531200Y-59791600D01*
X84531200Y-59080400D01*
X84886800Y-59080400D01*
X84886800Y-60147200D01*
X84709000Y-60147200D01*
X84589832Y-60155064D01*
X84540961Y-60199432D01*
X84531222Y-60311467D01*
X84531200Y-60325000D01*
X84539063Y-60444168D01*
X84583431Y-60493039D01*
X84695466Y-60502778D01*
X84709000Y-60502800D01*
X84886800Y-60502800D01*
X84886800Y-61214000D01*
X85598000Y-61214000D01*
X85598000Y-61036200D01*
X85590136Y-60917033D01*
X85545768Y-60868162D01*
X85433733Y-60858423D01*
X85420200Y-60858400D01*
X85301032Y-60850537D01*
X85252161Y-60806169D01*
X85242422Y-60694134D01*
X85242400Y-60680600D01*
X85234536Y-60561433D01*
X85190168Y-60512562D01*
X85078133Y-60502823D01*
X85064600Y-60502800D01*
X84945432Y-60494937D01*
X84896561Y-60450569D01*
X84886822Y-60338534D01*
X84886800Y-60325000D01*
X84894663Y-60205833D01*
X84939031Y-60156962D01*
X85051066Y-60147223D01*
X85064600Y-60147200D01*
X85183767Y-60139337D01*
X85232638Y-60094969D01*
X85242377Y-59982934D01*
X85242400Y-59969400D01*
X85250263Y-59850233D01*
X85294631Y-59801362D01*
X85406666Y-59791623D01*
X85420200Y-59791600D01*
X85539367Y-59783737D01*
X85588238Y-59739369D01*
X85597977Y-59627334D01*
X85598000Y-59613800D01*
X85590136Y-59494633D01*
X85545768Y-59445762D01*
X85433733Y-59436023D01*
X85420200Y-59436000D01*
X85301032Y-59428137D01*
X85252161Y-59383769D01*
X85242422Y-59271734D01*
X85242400Y-59258200D01*
X85234536Y-59139033D01*
X85190168Y-59090162D01*
X85078133Y-59080423D01*
X85064600Y-59080400D01*
X84945432Y-59072537D01*
X84896561Y-59028169D01*
X84886822Y-58916134D01*
X84886800Y-58902600D01*
X84894663Y-58783433D01*
X84939031Y-58734562D01*
X85051066Y-58724823D01*
X85064600Y-58724800D01*
X85183767Y-58716937D01*
X85232638Y-58672569D01*
X85242377Y-58560534D01*
X85242400Y-58547000D01*
X85250263Y-58427833D01*
X85294631Y-58378962D01*
X85406666Y-58369223D01*
X85420200Y-58369200D01*
X85539367Y-58361337D01*
X85588238Y-58316969D01*
X85597977Y-58204934D01*
X85598000Y-58191400D01*
X85590136Y-58072233D01*
X85545768Y-58023362D01*
X85433733Y-58013623D01*
X85420200Y-58013600D01*
X85301032Y-58005737D01*
X85252161Y-57961369D01*
X85242422Y-57849334D01*
X85242400Y-57835800D01*
X85234536Y-57716633D01*
X85190168Y-57667762D01*
X85078133Y-57658023D01*
X85064600Y-57658000D01*
X84945432Y-57650137D01*
X84896561Y-57605769D01*
X84886822Y-57493734D01*
X84886800Y-57480200D01*
X84878936Y-57361033D01*
X84834568Y-57312162D01*
X84722533Y-57302423D01*
X84709000Y-57302400D01*
X84589832Y-57294537D01*
X84540961Y-57250169D01*
X84531222Y-57138134D01*
X84531200Y-57124600D01*
X84539063Y-57005433D01*
X84583431Y-56956562D01*
X84695466Y-56946823D01*
X84709000Y-56946800D01*
X84828167Y-56938937D01*
X84877038Y-56894569D01*
X84886777Y-56782534D01*
X84886800Y-56769000D01*
X84894663Y-56649833D01*
X84939031Y-56600962D01*
X85051066Y-56591223D01*
X85064600Y-56591200D01*
X85242400Y-56591200D01*
X85242400Y-55880000D01*
X85598000Y-55880000D01*
X85598000Y-55880000D01*
G37*
X85598000Y-55880000D02*
X85598000Y-55168800D01*
X84886800Y-55168800D01*
X84886800Y-54457600D01*
X85064600Y-54457600D01*
X85183767Y-54449737D01*
X85232638Y-54405369D01*
X85242377Y-54293334D01*
X85242400Y-54279800D01*
X85234536Y-54160633D01*
X85190168Y-54111762D01*
X85078133Y-54102023D01*
X85064600Y-54102000D01*
X84945432Y-54109864D01*
X84896561Y-54154232D01*
X84886822Y-54266267D01*
X84886800Y-54279800D01*
X84878936Y-54398968D01*
X84834568Y-54447839D01*
X84722533Y-54457578D01*
X84709000Y-54457600D01*
X84589832Y-54449737D01*
X84540961Y-54405369D01*
X84531222Y-54293334D01*
X84531200Y-54279800D01*
X84523336Y-54160633D01*
X84478968Y-54111762D01*
X84366933Y-54102023D01*
X84353400Y-54102000D01*
X84175600Y-54102000D01*
X84175600Y-54813200D01*
X84353400Y-54813200D01*
X84472567Y-54821064D01*
X84521438Y-54865432D01*
X84531177Y-54977467D01*
X84531200Y-54991000D01*
X84531200Y-55168800D01*
X83464400Y-55168800D01*
X83464400Y-54457600D01*
X83286600Y-54457600D01*
X83167432Y-54449737D01*
X83118561Y-54405369D01*
X83108822Y-54293334D01*
X83108800Y-54279800D01*
X83108800Y-54102000D01*
X82042000Y-54102000D01*
X82042000Y-54457600D01*
X80975200Y-54457600D01*
X80975200Y-54279800D01*
X80967336Y-54160633D01*
X80922968Y-54111762D01*
X80810933Y-54102023D01*
X80797400Y-54102000D01*
X80619600Y-54102000D01*
X80619600Y-54813200D01*
X79197200Y-54813200D01*
X79197200Y-54635400D01*
X79189336Y-54516233D01*
X79144968Y-54467362D01*
X79032933Y-54457623D01*
X79019400Y-54457600D01*
X78900232Y-54465464D01*
X78851361Y-54509832D01*
X78841622Y-54621867D01*
X78841600Y-54635400D01*
X78849463Y-54754568D01*
X78893831Y-54803439D01*
X79005866Y-54813178D01*
X79019400Y-54813200D01*
X79138567Y-54821064D01*
X79187438Y-54865432D01*
X79197177Y-54977467D01*
X79197200Y-54991000D01*
X79205063Y-55110168D01*
X79249431Y-55159039D01*
X79361466Y-55168778D01*
X79375000Y-55168800D01*
X79494167Y-55176664D01*
X79543038Y-55221032D01*
X79552777Y-55333067D01*
X79552800Y-55346600D01*
X79552800Y-55524400D01*
X78841600Y-55524400D01*
X78841600Y-55702200D01*
X79552800Y-55702200D01*
X79560663Y-55583033D01*
X79605031Y-55534162D01*
X79717066Y-55524423D01*
X79730600Y-55524400D01*
X79849767Y-55516537D01*
X79898638Y-55472169D01*
X79908377Y-55360134D01*
X79908400Y-55346600D01*
X79916263Y-55227433D01*
X79960631Y-55178562D01*
X80072666Y-55168823D01*
X80086200Y-55168800D01*
X80619600Y-55168800D01*
X80619600Y-54813200D01*
X81330800Y-54813200D01*
X81330800Y-55168800D01*
X80619600Y-55168800D01*
X80086200Y-55168800D01*
X80205367Y-55176664D01*
X80254238Y-55221032D01*
X80263977Y-55333067D01*
X80264000Y-55346600D01*
X80264000Y-55524400D01*
X81686400Y-55524400D01*
X81686400Y-55168800D01*
X82397600Y-55168800D01*
X82397600Y-54991000D01*
X82389736Y-54871833D01*
X82345368Y-54822962D01*
X82233333Y-54813223D01*
X82219800Y-54813200D01*
X82100632Y-54805337D01*
X82051761Y-54760969D01*
X82042022Y-54648934D01*
X82042000Y-54635400D01*
X82042000Y-54457600D01*
X83108800Y-54457600D01*
X83108800Y-55168800D01*
X83286600Y-55168800D01*
X83405767Y-55176664D01*
X83454638Y-55221032D01*
X83464377Y-55333067D01*
X83464400Y-55346600D01*
X83456536Y-55465768D01*
X83412168Y-55514639D01*
X83300133Y-55524378D01*
X83286600Y-55524400D01*
X83167432Y-55516537D01*
X83118561Y-55472169D01*
X83108822Y-55360134D01*
X83108800Y-55346600D01*
X83100936Y-55227433D01*
X83056568Y-55178562D01*
X82944533Y-55168823D01*
X82931000Y-55168800D01*
X82811832Y-55176664D01*
X82762961Y-55221032D01*
X82753222Y-55333067D01*
X82753200Y-55346600D01*
X82745336Y-55465768D01*
X82700968Y-55514639D01*
X82588933Y-55524378D01*
X82575400Y-55524400D01*
X82456232Y-55532264D01*
X82407361Y-55576632D01*
X82397622Y-55688667D01*
X82397600Y-55702200D01*
X82389736Y-55821368D01*
X82345368Y-55870239D01*
X82233333Y-55879978D01*
X82219800Y-55880000D01*
X82100632Y-55887864D01*
X82051761Y-55932232D01*
X82042022Y-56044267D01*
X82042000Y-56057800D01*
X82034136Y-56176968D01*
X81989768Y-56225839D01*
X81877733Y-56235578D01*
X81864200Y-56235600D01*
X81745032Y-56227737D01*
X81696161Y-56183369D01*
X81686422Y-56071334D01*
X81686400Y-56057800D01*
X81686400Y-55880000D01*
X80975200Y-55880000D01*
X80975200Y-56591200D01*
X80264000Y-56591200D01*
X80264000Y-56413400D01*
X80256136Y-56294233D01*
X80211768Y-56245362D01*
X80099733Y-56235623D01*
X80086200Y-56235600D01*
X79967032Y-56227737D01*
X79918161Y-56183369D01*
X79908422Y-56071334D01*
X79908400Y-56057800D01*
X79900536Y-55938633D01*
X79856168Y-55889762D01*
X79744133Y-55880023D01*
X79730600Y-55880000D01*
X79611432Y-55872137D01*
X79562561Y-55827769D01*
X79552822Y-55715734D01*
X79552800Y-55702200D01*
X78841600Y-55702200D01*
X78833736Y-55821368D01*
X78789368Y-55870239D01*
X78677333Y-55879978D01*
X78663800Y-55880000D01*
X78544632Y-55872137D01*
X78495761Y-55827769D01*
X78486022Y-55715734D01*
X78486000Y-55702200D01*
X78478136Y-55583033D01*
X78433768Y-55534162D01*
X78321733Y-55524423D01*
X78308200Y-55524400D01*
X78130400Y-55524400D01*
X78130400Y-56057800D01*
X78841600Y-56057800D01*
X78849463Y-55938633D01*
X78893831Y-55889762D01*
X79005866Y-55880023D01*
X79019400Y-55880000D01*
X79138567Y-55887864D01*
X79187438Y-55932232D01*
X79197177Y-56044267D01*
X79197200Y-56057800D01*
X79189336Y-56176968D01*
X79144968Y-56225839D01*
X79032933Y-56235578D01*
X79019400Y-56235600D01*
X78900232Y-56227737D01*
X78851361Y-56183369D01*
X78841622Y-56071334D01*
X78841600Y-56057800D01*
X78130400Y-56057800D01*
X78130400Y-56235600D01*
X78308200Y-56235600D01*
X78427367Y-56243464D01*
X78476238Y-56287832D01*
X78485977Y-56399867D01*
X78486000Y-56413400D01*
X78478136Y-56532568D01*
X78433768Y-56581439D01*
X78321733Y-56591178D01*
X78308200Y-56591200D01*
X78189032Y-56599064D01*
X78140161Y-56643432D01*
X78130422Y-56755467D01*
X78130400Y-56769000D01*
X78122536Y-56888168D01*
X78078168Y-56937039D01*
X77966133Y-56946778D01*
X77952600Y-56946800D01*
X77774800Y-56946800D01*
X77774800Y-57658000D01*
X77063600Y-57658000D01*
X77063600Y-56591200D01*
X77241400Y-56591200D01*
X77360567Y-56583337D01*
X77409438Y-56538969D01*
X77419177Y-56426934D01*
X77419200Y-56413400D01*
X77419200Y-56235600D01*
X76708000Y-56235600D01*
X76708000Y-57658000D01*
X75996800Y-57658000D01*
X75996800Y-57480200D01*
X76004663Y-57361033D01*
X76049031Y-57312162D01*
X76161066Y-57302423D01*
X76174600Y-57302400D01*
X76293767Y-57294537D01*
X76342638Y-57250169D01*
X76352377Y-57138134D01*
X76352400Y-57124600D01*
X76352400Y-56946800D01*
X74574400Y-56946800D01*
X74574400Y-57658000D01*
X75285600Y-57658000D01*
X75285600Y-58369200D01*
X75463400Y-58369200D01*
X75582567Y-58377064D01*
X75631438Y-58421432D01*
X75641177Y-58533467D01*
X75641200Y-58547000D01*
X75633336Y-58666168D01*
X75588968Y-58715039D01*
X75476933Y-58724778D01*
X75463400Y-58724800D01*
X75285600Y-58724800D01*
X75285600Y-59436000D01*
X75107800Y-59436000D01*
X74988632Y-59443864D01*
X74939761Y-59488232D01*
X74930022Y-59600267D01*
X74930000Y-59613800D01*
X74922136Y-59732968D01*
X74877768Y-59781839D01*
X74765733Y-59791578D01*
X74752200Y-59791600D01*
X74574400Y-59791600D01*
X74574400Y-58724800D01*
X74752200Y-58724800D01*
X74871367Y-58716937D01*
X74920238Y-58672569D01*
X74929977Y-58560534D01*
X74930000Y-58547000D01*
X74922136Y-58427833D01*
X74877768Y-58378962D01*
X74765733Y-58369223D01*
X74752200Y-58369200D01*
X74633032Y-58361337D01*
X74584161Y-58316969D01*
X74574422Y-58204934D01*
X74574400Y-58191400D01*
X74566536Y-58072233D01*
X74522168Y-58023362D01*
X74410133Y-58013623D01*
X74396600Y-58013600D01*
X74218800Y-58013600D01*
X74218800Y-56946800D01*
X73863200Y-56946800D01*
X73863200Y-58547000D01*
X74218800Y-58547000D01*
X74226663Y-58427833D01*
X74271031Y-58378962D01*
X74383066Y-58369223D01*
X74396600Y-58369200D01*
X74515767Y-58377064D01*
X74564638Y-58421432D01*
X74574377Y-58533467D01*
X74574400Y-58547000D01*
X74566536Y-58666168D01*
X74522168Y-58715039D01*
X74410133Y-58724778D01*
X74396600Y-58724800D01*
X74277432Y-58716937D01*
X74228561Y-58672569D01*
X74218822Y-58560534D01*
X74218800Y-58547000D01*
X73863200Y-58547000D01*
X73863200Y-58724800D01*
X74218800Y-58724800D01*
X74218800Y-59436000D01*
X73863200Y-59436000D01*
X73863200Y-60147200D01*
X74041000Y-60147200D01*
X74160167Y-60155064D01*
X74209038Y-60199432D01*
X74218777Y-60311467D01*
X74218800Y-60325000D01*
X74210936Y-60444168D01*
X74166568Y-60493039D01*
X74054533Y-60502778D01*
X74041000Y-60502800D01*
X73921832Y-60510664D01*
X73872961Y-60555032D01*
X73863222Y-60667067D01*
X73863200Y-60680600D01*
X73871063Y-60799768D01*
X73915431Y-60848639D01*
X74027466Y-60858378D01*
X74041000Y-60858400D01*
X74160167Y-60866264D01*
X74209038Y-60910632D01*
X74218777Y-61022667D01*
X74218800Y-61036200D01*
X74574400Y-61036200D01*
X74582263Y-60917033D01*
X74626631Y-60868162D01*
X74738666Y-60858423D01*
X74752200Y-60858400D01*
X74930000Y-60858400D01*
X74930000Y-59791600D01*
X75107800Y-59791600D01*
X75226967Y-59783737D01*
X75275838Y-59739369D01*
X75285577Y-59627334D01*
X75285600Y-59613800D01*
X75293463Y-59494633D01*
X75337831Y-59445762D01*
X75449866Y-59436023D01*
X75463400Y-59436000D01*
X75582567Y-59428137D01*
X75631438Y-59383769D01*
X75641177Y-59271734D01*
X75641200Y-59258200D01*
X75649063Y-59139033D01*
X75693431Y-59090162D01*
X75805466Y-59080423D01*
X75819000Y-59080400D01*
X75938167Y-59072537D01*
X75987038Y-59028169D01*
X75996777Y-58916134D01*
X75996800Y-58902600D01*
X76004663Y-58783433D01*
X76049031Y-58734562D01*
X76161066Y-58724823D01*
X76174600Y-58724800D01*
X76293767Y-58716937D01*
X76342638Y-58672569D01*
X76352377Y-58560534D01*
X76352400Y-58547000D01*
X76352400Y-58369200D01*
X75641200Y-58369200D01*
X75641200Y-57658000D01*
X75819000Y-57658000D01*
X75938167Y-57665864D01*
X75987038Y-57710232D01*
X75996777Y-57822267D01*
X75996800Y-57835800D01*
X75996800Y-58013600D01*
X76708000Y-58013600D01*
X76708000Y-57835800D01*
X76715863Y-57716633D01*
X76760231Y-57667762D01*
X76872266Y-57658023D01*
X76885800Y-57658000D01*
X77004967Y-57665864D01*
X77053838Y-57710232D01*
X77063577Y-57822267D01*
X77063600Y-57835800D01*
X77063600Y-58013600D01*
X78486000Y-58013600D01*
X78486000Y-57835800D01*
X78478136Y-57716633D01*
X78433768Y-57667762D01*
X78321733Y-57658023D01*
X78308200Y-57658000D01*
X78130400Y-57658000D01*
X78130400Y-56946800D01*
X79197200Y-56946800D01*
X79197200Y-56769000D01*
X79205063Y-56649833D01*
X79249431Y-56600962D01*
X79361466Y-56591223D01*
X79375000Y-56591200D01*
X79494167Y-56599064D01*
X79543038Y-56643432D01*
X79552777Y-56755467D01*
X79552800Y-56769000D01*
X79544936Y-56888168D01*
X79500568Y-56937039D01*
X79388533Y-56946778D01*
X79375000Y-56946800D01*
X79255832Y-56954664D01*
X79206961Y-56999032D01*
X79197222Y-57111067D01*
X79197200Y-57124600D01*
X79189336Y-57243768D01*
X79144968Y-57292639D01*
X79032933Y-57302378D01*
X79019400Y-57302400D01*
X78900232Y-57310264D01*
X78851361Y-57354632D01*
X78841622Y-57466667D01*
X78841600Y-57480200D01*
X78849463Y-57599368D01*
X78893831Y-57648239D01*
X79005866Y-57657978D01*
X79019400Y-57658000D01*
X79138567Y-57665864D01*
X79187438Y-57710232D01*
X79197177Y-57822267D01*
X79197200Y-57835800D01*
X79205063Y-57954968D01*
X79249431Y-58003839D01*
X79361466Y-58013578D01*
X79375000Y-58013600D01*
X79494167Y-58005737D01*
X79543038Y-57961369D01*
X79552777Y-57849334D01*
X79552800Y-57835800D01*
X79560663Y-57716633D01*
X79605031Y-57667762D01*
X79717066Y-57658023D01*
X79730600Y-57658000D01*
X79849767Y-57650137D01*
X79898638Y-57605769D01*
X79908377Y-57493734D01*
X79908400Y-57480200D01*
X79916263Y-57361033D01*
X79960631Y-57312162D01*
X80072666Y-57302423D01*
X80086200Y-57302400D01*
X80205367Y-57294537D01*
X80254238Y-57250169D01*
X80263977Y-57138134D01*
X80264000Y-57124600D01*
X80264000Y-56946800D01*
X81686400Y-56946800D01*
X81686400Y-57302400D01*
X80975200Y-57302400D01*
X80975200Y-57480200D01*
X80983063Y-57599368D01*
X81027431Y-57648239D01*
X81139466Y-57657978D01*
X81153000Y-57658000D01*
X81272167Y-57665864D01*
X81321038Y-57710232D01*
X81330777Y-57822267D01*
X81330800Y-57835800D01*
X81330800Y-58013600D01*
X80619600Y-58013600D01*
X80619600Y-58191400D01*
X80627463Y-58310568D01*
X80671831Y-58359439D01*
X80783866Y-58369178D01*
X80797400Y-58369200D01*
X80975200Y-58369200D01*
X80975200Y-58547000D01*
X81330800Y-58547000D01*
X81338663Y-58427833D01*
X81383031Y-58378962D01*
X81495066Y-58369223D01*
X81508600Y-58369200D01*
X81686400Y-58369200D01*
X81686400Y-57658000D01*
X82042000Y-57658000D01*
X82042000Y-56591200D01*
X82397600Y-56591200D01*
X82397600Y-56946800D01*
X82753200Y-56946800D01*
X82753200Y-55880000D01*
X83820000Y-55880000D01*
X84531200Y-55880000D01*
X84531200Y-55524400D01*
X85242400Y-55524400D01*
X85242400Y-55880000D01*
X84531200Y-55880000D01*
X83820000Y-55880000D01*
X83820000Y-56769000D01*
X84175600Y-56769000D01*
X84183463Y-56649833D01*
X84227831Y-56600962D01*
X84339866Y-56591223D01*
X84353400Y-56591200D01*
X84472567Y-56583337D01*
X84521438Y-56538969D01*
X84531177Y-56426934D01*
X84531200Y-56413400D01*
X84539063Y-56294233D01*
X84583431Y-56245362D01*
X84695466Y-56235623D01*
X84709000Y-56235600D01*
X84828167Y-56243464D01*
X84877038Y-56287832D01*
X84886777Y-56399867D01*
X84886800Y-56413400D01*
X84878936Y-56532568D01*
X84834568Y-56581439D01*
X84722533Y-56591178D01*
X84709000Y-56591200D01*
X84589832Y-56599064D01*
X84540961Y-56643432D01*
X84531222Y-56755467D01*
X84531200Y-56769000D01*
X84523336Y-56888168D01*
X84478968Y-56937039D01*
X84366933Y-56946778D01*
X84353400Y-56946800D01*
X84234232Y-56938937D01*
X84185361Y-56894569D01*
X84175622Y-56782534D01*
X84175600Y-56769000D01*
X83820000Y-56769000D01*
X83820000Y-56946800D01*
X82753200Y-56946800D01*
X82397600Y-56946800D01*
X82397600Y-57302400D01*
X82753200Y-57302400D01*
X82753200Y-58013600D01*
X82931000Y-58013600D01*
X83050167Y-58005737D01*
X83099038Y-57961369D01*
X83108777Y-57849334D01*
X83108800Y-57835800D01*
X83116663Y-57716633D01*
X83161031Y-57667762D01*
X83273066Y-57658023D01*
X83286600Y-57658000D01*
X83405767Y-57650137D01*
X83454638Y-57605769D01*
X83464377Y-57493734D01*
X83464400Y-57480200D01*
X83472263Y-57361033D01*
X83516631Y-57312162D01*
X83628666Y-57302423D01*
X83642200Y-57302400D01*
X83820000Y-57302400D01*
X83820000Y-58013600D01*
X83997800Y-58013600D01*
X84116967Y-58021464D01*
X84165838Y-58065832D01*
X84175577Y-58177867D01*
X84175600Y-58191400D01*
X84183463Y-58310568D01*
X84227831Y-58359439D01*
X84339866Y-58369178D01*
X84353400Y-58369200D01*
X84531200Y-58369200D01*
X84531200Y-57658000D01*
X84886800Y-57658000D01*
X84886800Y-58724800D01*
X84709000Y-58724800D01*
X84589832Y-58732664D01*
X84540961Y-58777032D01*
X84531222Y-58889067D01*
X84531200Y-58902600D01*
X84531200Y-59080400D01*
X83820000Y-59080400D01*
X83820000Y-58724800D01*
X83108800Y-58724800D01*
X83108800Y-58902600D01*
X83100936Y-59021768D01*
X83056568Y-59070639D01*
X82944533Y-59080378D01*
X82931000Y-59080400D01*
X82811832Y-59088264D01*
X82762961Y-59132632D01*
X82753222Y-59244667D01*
X82753200Y-59258200D01*
X82761063Y-59377368D01*
X82805431Y-59426239D01*
X82917466Y-59435978D01*
X82931000Y-59436000D01*
X83050167Y-59443864D01*
X83099038Y-59488232D01*
X83108777Y-59600267D01*
X83108800Y-59613800D01*
X83100936Y-59732968D01*
X83056568Y-59781839D01*
X82944533Y-59791578D01*
X82931000Y-59791600D01*
X82811832Y-59799464D01*
X82762961Y-59843832D01*
X82753222Y-59955867D01*
X82753200Y-59969400D01*
X82753200Y-60147200D01*
X82042000Y-60147200D01*
X82042000Y-59969400D01*
X82049863Y-59850233D01*
X82094231Y-59801362D01*
X82206266Y-59791623D01*
X82219800Y-59791600D01*
X82338967Y-59783737D01*
X82387838Y-59739369D01*
X82397577Y-59627334D01*
X82397600Y-59613800D01*
X82389736Y-59494633D01*
X82345368Y-59445762D01*
X82233333Y-59436023D01*
X82219800Y-59436000D01*
X82100632Y-59428137D01*
X82051761Y-59383769D01*
X82042022Y-59271734D01*
X82042000Y-59258200D01*
X82034136Y-59139033D01*
X81989768Y-59090162D01*
X81877733Y-59080423D01*
X81864200Y-59080400D01*
X81745032Y-59072537D01*
X81696161Y-59028169D01*
X81686422Y-58916134D01*
X81686400Y-58902600D01*
X81678536Y-58783433D01*
X81634168Y-58734562D01*
X81522133Y-58724823D01*
X81508600Y-58724800D01*
X81389432Y-58716937D01*
X81340561Y-58672569D01*
X81330822Y-58560534D01*
X81330800Y-58547000D01*
X80975200Y-58547000D01*
X80975200Y-59436000D01*
X79552800Y-59436000D01*
X79552800Y-60147200D01*
X80619600Y-60147200D01*
X80975200Y-60147200D01*
X80975200Y-59436000D01*
X81153000Y-59436000D01*
X81272167Y-59443864D01*
X81321038Y-59488232D01*
X81330777Y-59600267D01*
X81330800Y-59613800D01*
X81338663Y-59732968D01*
X81383031Y-59781839D01*
X81495066Y-59791578D01*
X81508600Y-59791600D01*
X81627767Y-59799464D01*
X81676638Y-59843832D01*
X81686377Y-59955867D01*
X81686400Y-59969400D01*
X81686400Y-60147200D01*
X80975200Y-60147200D01*
X80619600Y-60147200D01*
X80619600Y-60325000D01*
X80627463Y-60444168D01*
X80671831Y-60493039D01*
X80783866Y-60502778D01*
X80797400Y-60502800D01*
X80916567Y-60510664D01*
X80965438Y-60555032D01*
X80975177Y-60667067D01*
X80975200Y-60680600D01*
X80975200Y-60858400D01*
X81330800Y-60858400D01*
X81330800Y-60502800D01*
X82397600Y-60502800D01*
X82397600Y-60858400D01*
X81330800Y-60858400D01*
X80975200Y-60858400D01*
X80264000Y-60858400D01*
X80264000Y-61214000D01*
X81686400Y-61214000D01*
X82397600Y-61214000D01*
X82397600Y-60858400D01*
X83108800Y-60858400D01*
X83108800Y-61214000D01*
X82397600Y-61214000D01*
X81686400Y-61214000D01*
X81686400Y-61391800D01*
X81678536Y-61510968D01*
X81634168Y-61559839D01*
X81522133Y-61569578D01*
X81508600Y-61569600D01*
X81389432Y-61577464D01*
X81340561Y-61621832D01*
X81330822Y-61733867D01*
X81330800Y-61747400D01*
X81322936Y-61866568D01*
X81278568Y-61915439D01*
X81166533Y-61925178D01*
X81153000Y-61925200D01*
X81033832Y-61933064D01*
X80984961Y-61977432D01*
X80975222Y-62089467D01*
X80975200Y-62103000D01*
X80975200Y-62280800D01*
X80264000Y-62280800D01*
X80264000Y-62103000D01*
X80256136Y-61983833D01*
X80211768Y-61934962D01*
X80099733Y-61925223D01*
X80086200Y-61925200D01*
X79967032Y-61917337D01*
X79918161Y-61872969D01*
X79908422Y-61760934D01*
X79908400Y-61747400D01*
X79900536Y-61628233D01*
X79856168Y-61579362D01*
X79744133Y-61569623D01*
X79730600Y-61569600D01*
X79611432Y-61577464D01*
X79562561Y-61621832D01*
X79552822Y-61733867D01*
X79552800Y-61747400D01*
X79552800Y-61925200D01*
X78841600Y-61925200D01*
X78841600Y-61747400D01*
X78833736Y-61628233D01*
X78789368Y-61579362D01*
X78677333Y-61569623D01*
X78663800Y-61569600D01*
X78544632Y-61561737D01*
X78495761Y-61517369D01*
X78486022Y-61405334D01*
X78486000Y-61391800D01*
X78478136Y-61272633D01*
X78433768Y-61223762D01*
X78321733Y-61214023D01*
X78308200Y-61214000D01*
X78130400Y-61214000D01*
X78130400Y-61925200D01*
X78308200Y-61925200D01*
X78427367Y-61933064D01*
X78476238Y-61977432D01*
X78485977Y-62089467D01*
X78486000Y-62103000D01*
X78478136Y-62222168D01*
X78433768Y-62271039D01*
X78321733Y-62280778D01*
X78308200Y-62280800D01*
X78189032Y-62288664D01*
X78140161Y-62333032D01*
X78130422Y-62445067D01*
X78130400Y-62458600D01*
X78122536Y-62577768D01*
X78078168Y-62626639D01*
X77966133Y-62636378D01*
X77952600Y-62636400D01*
X77833432Y-62644264D01*
X77784561Y-62688632D01*
X77774822Y-62800667D01*
X77774800Y-62814200D01*
X77766936Y-62933368D01*
X77722568Y-62982239D01*
X77610533Y-62991978D01*
X77597000Y-62992000D01*
X77477832Y-62984137D01*
X77428961Y-62939769D01*
X77419222Y-62827734D01*
X77419200Y-62814200D01*
X77411336Y-62695033D01*
X77366968Y-62646162D01*
X77254933Y-62636423D01*
X77241400Y-62636400D01*
X77122232Y-62628537D01*
X77073361Y-62584169D01*
X77063622Y-62472134D01*
X77063600Y-62458600D01*
X77055736Y-62339433D01*
X77011368Y-62290562D01*
X76899333Y-62280823D01*
X76885800Y-62280800D01*
X76708000Y-62280800D01*
X76708000Y-61569600D01*
X76530200Y-61569600D01*
X76411032Y-61577464D01*
X76362161Y-61621832D01*
X76352422Y-61733867D01*
X76352400Y-61747400D01*
X76344536Y-61866568D01*
X76300168Y-61915439D01*
X76188133Y-61925178D01*
X76174600Y-61925200D01*
X76055432Y-61917337D01*
X76006561Y-61872969D01*
X75996822Y-61760934D01*
X75996800Y-61747400D01*
X76004663Y-61628233D01*
X76049031Y-61579362D01*
X76161066Y-61569623D01*
X76174600Y-61569600D01*
X76293767Y-61561737D01*
X76342638Y-61517369D01*
X76352377Y-61405334D01*
X76352400Y-61391800D01*
X76352400Y-61214000D01*
X75285600Y-61214000D01*
X75285600Y-61391800D01*
X75277736Y-61510968D01*
X75233368Y-61559839D01*
X75121333Y-61569578D01*
X75107800Y-61569600D01*
X74988632Y-61561737D01*
X74939761Y-61517369D01*
X74930022Y-61405334D01*
X74930000Y-61391800D01*
X74922136Y-61272633D01*
X74877768Y-61223762D01*
X74765733Y-61214023D01*
X74752200Y-61214000D01*
X74633032Y-61206137D01*
X74584161Y-61161769D01*
X74574422Y-61049734D01*
X74574400Y-61036200D01*
X74218800Y-61036200D01*
X74226663Y-61155368D01*
X74271031Y-61204239D01*
X74383066Y-61213978D01*
X74396600Y-61214000D01*
X74574400Y-61214000D01*
X74574400Y-61925200D01*
X74396600Y-61925200D01*
X74277432Y-61917337D01*
X74228561Y-61872969D01*
X74218822Y-61760934D01*
X74218800Y-61747400D01*
X74210936Y-61628233D01*
X74166568Y-61579362D01*
X74054533Y-61569623D01*
X74041000Y-61569600D01*
X73921832Y-61577464D01*
X73872961Y-61621832D01*
X73863222Y-61733867D01*
X73863200Y-61747400D01*
X73871063Y-61866568D01*
X73915431Y-61915439D01*
X74027466Y-61925178D01*
X74041000Y-61925200D01*
X74160167Y-61933064D01*
X74209038Y-61977432D01*
X74218777Y-62089467D01*
X74218800Y-62103000D01*
X74210936Y-62222168D01*
X74166568Y-62271039D01*
X74054533Y-62280778D01*
X74041000Y-62280800D01*
X73863200Y-62280800D01*
X73863200Y-62636400D01*
X74574400Y-62636400D01*
X74574400Y-62280800D01*
X75285600Y-62280800D01*
X75285600Y-62103000D01*
X75293463Y-61983833D01*
X75337831Y-61934962D01*
X75449866Y-61925223D01*
X75463400Y-61925200D01*
X75641200Y-61925200D01*
X75641200Y-62458600D01*
X75996800Y-62458600D01*
X76004663Y-62339433D01*
X76049031Y-62290562D01*
X76161066Y-62280823D01*
X76174600Y-62280800D01*
X76293767Y-62288664D01*
X76342638Y-62333032D01*
X76352377Y-62445067D01*
X76352400Y-62458600D01*
X76344536Y-62577768D01*
X76300168Y-62626639D01*
X76188133Y-62636378D01*
X76174600Y-62636400D01*
X76055432Y-62628537D01*
X76006561Y-62584169D01*
X75996822Y-62472134D01*
X75996800Y-62458600D01*
X75641200Y-62458600D01*
X75641200Y-62636400D01*
X74574400Y-62636400D01*
X73863200Y-62636400D01*
X73863200Y-62992000D01*
X75641200Y-62992000D01*
X75641200Y-62814200D01*
X75649063Y-62695033D01*
X75693431Y-62646162D01*
X75805466Y-62636423D01*
X75819000Y-62636400D01*
X75938167Y-62644264D01*
X75987038Y-62688632D01*
X75996777Y-62800667D01*
X75996800Y-62814200D01*
X75996800Y-62992000D01*
X77063600Y-62992000D01*
X77063600Y-63169800D01*
X77055736Y-63288968D01*
X77011368Y-63337839D01*
X76899333Y-63347578D01*
X76885800Y-63347600D01*
X76708000Y-63347600D01*
X76708000Y-63525400D01*
X77063600Y-63525400D01*
X77071463Y-63406233D01*
X77115831Y-63357362D01*
X77227866Y-63347623D01*
X77241400Y-63347600D01*
X77360567Y-63355464D01*
X77409438Y-63399832D01*
X77419177Y-63511867D01*
X77419200Y-63525400D01*
X77774800Y-63525400D01*
X77782663Y-63406233D01*
X77827031Y-63357362D01*
X77939066Y-63347623D01*
X77952600Y-63347600D01*
X78071767Y-63355464D01*
X78120638Y-63399832D01*
X78130377Y-63511867D01*
X78130400Y-63525400D01*
X78122536Y-63644568D01*
X78078168Y-63693439D01*
X77966133Y-63703178D01*
X77952600Y-63703200D01*
X77833432Y-63695337D01*
X77784561Y-63650969D01*
X77774822Y-63538934D01*
X77774800Y-63525400D01*
X77419200Y-63525400D01*
X77411336Y-63644568D01*
X77366968Y-63693439D01*
X77254933Y-63703178D01*
X77241400Y-63703200D01*
X77122232Y-63695337D01*
X77073361Y-63650969D01*
X77063622Y-63538934D01*
X77063600Y-63525400D01*
X76708000Y-63525400D01*
X76708000Y-64058800D01*
X76885800Y-64058800D01*
X77004967Y-64066664D01*
X77053838Y-64111032D01*
X77063577Y-64223067D01*
X77063600Y-64236600D01*
X77055736Y-64355768D01*
X77011368Y-64404639D01*
X76899333Y-64414378D01*
X76885800Y-64414400D01*
X76766632Y-64422264D01*
X76717761Y-64466632D01*
X76708022Y-64578667D01*
X76708000Y-64592200D01*
X76708000Y-64770000D01*
X77774800Y-64770000D01*
X77774800Y-64592200D01*
X77766936Y-64473033D01*
X77722568Y-64424162D01*
X77610533Y-64414423D01*
X77597000Y-64414400D01*
X77419200Y-64414400D01*
X77419200Y-63703200D01*
X77597000Y-63703200D01*
X77716167Y-63711064D01*
X77765038Y-63755432D01*
X77774777Y-63867467D01*
X77774800Y-63881000D01*
X77774800Y-64058800D01*
X78486000Y-64058800D01*
X78486000Y-63347600D01*
X78130400Y-63347600D01*
X78130400Y-62636400D01*
X79552800Y-62636400D01*
X79552800Y-62458600D01*
X79560663Y-62339433D01*
X79605031Y-62290562D01*
X79717066Y-62280823D01*
X79730600Y-62280800D01*
X79908400Y-62280800D01*
X79908400Y-62992000D01*
X79552800Y-62992000D01*
X79552800Y-63703200D01*
X79730600Y-63703200D01*
X79849767Y-63711064D01*
X79898638Y-63755432D01*
X79908377Y-63867467D01*
X79908400Y-63881000D01*
X79908400Y-64058800D01*
X79197200Y-64058800D01*
X79197200Y-64236600D01*
X79189336Y-64355768D01*
X79144968Y-64404639D01*
X79032933Y-64414378D01*
X79019400Y-64414400D01*
X78900232Y-64422264D01*
X78851361Y-64466632D01*
X78841622Y-64578667D01*
X78841600Y-64592200D01*
X78833736Y-64711368D01*
X78789368Y-64760239D01*
X78677333Y-64769978D01*
X78663800Y-64770000D01*
X78544632Y-64762137D01*
X78495761Y-64717769D01*
X78486022Y-64605734D01*
X78486000Y-64592200D01*
X78478136Y-64473033D01*
X78433768Y-64424162D01*
X78321733Y-64414423D01*
X78308200Y-64414400D01*
X78130400Y-64414400D01*
X78130400Y-64947800D01*
X78841600Y-64947800D01*
X78849463Y-64828633D01*
X78893831Y-64779762D01*
X79005866Y-64770023D01*
X79019400Y-64770000D01*
X79138567Y-64777864D01*
X79187438Y-64822232D01*
X79197177Y-64934267D01*
X79197200Y-64947800D01*
X79189336Y-65066968D01*
X79144968Y-65115839D01*
X79032933Y-65125578D01*
X79019400Y-65125600D01*
X79552800Y-65125600D01*
X79552800Y-64414400D01*
X79730600Y-64414400D01*
X79849767Y-64422264D01*
X79898638Y-64466632D01*
X79908377Y-64578667D01*
X79908400Y-64592200D01*
X79916263Y-64711368D01*
X79960631Y-64760239D01*
X80072666Y-64769978D01*
X80086200Y-64770000D01*
X80205367Y-64762137D01*
X80254238Y-64717769D01*
X80263977Y-64605734D01*
X80264000Y-64592200D01*
X80264000Y-64414400D01*
X81330800Y-64414400D01*
X81330800Y-64236600D01*
X81338663Y-64117433D01*
X81383031Y-64068562D01*
X81495066Y-64058823D01*
X81508600Y-64058800D01*
X81627767Y-64050937D01*
X81676638Y-64006569D01*
X81686377Y-63894534D01*
X81686400Y-63881000D01*
X81678536Y-63761833D01*
X81634168Y-63712962D01*
X81522133Y-63703223D01*
X81508600Y-63703200D01*
X81389432Y-63695337D01*
X81340561Y-63650969D01*
X81330822Y-63538934D01*
X81330800Y-63525400D01*
X81322936Y-63406233D01*
X81278568Y-63357362D01*
X81166533Y-63347623D01*
X81153000Y-63347600D01*
X80975200Y-63347600D01*
X80975200Y-64058800D01*
X80264000Y-64058800D01*
X80264000Y-63881000D01*
X80256136Y-63761833D01*
X80211768Y-63712962D01*
X80099733Y-63703223D01*
X80086200Y-63703200D01*
X79908400Y-63703200D01*
X79908400Y-62992000D01*
X80086200Y-62992000D01*
X80205367Y-62984137D01*
X80254238Y-62939769D01*
X80263977Y-62827734D01*
X80264000Y-62814200D01*
X80271863Y-62695033D01*
X80316231Y-62646162D01*
X80428266Y-62636423D01*
X80441800Y-62636400D01*
X80560967Y-62644264D01*
X80609838Y-62688632D01*
X80619577Y-62800667D01*
X80619600Y-62814200D01*
X80619600Y-62992000D01*
X81330800Y-62992000D01*
X81330800Y-62814200D01*
X81338663Y-62695033D01*
X81383031Y-62646162D01*
X81495066Y-62636423D01*
X81508600Y-62636400D01*
X81686400Y-62636400D01*
X81686400Y-61925200D01*
X81864200Y-61925200D01*
X81983367Y-61917337D01*
X82032238Y-61872969D01*
X82041977Y-61760934D01*
X82042000Y-61747400D01*
X82049863Y-61628233D01*
X82094231Y-61579362D01*
X82206266Y-61569623D01*
X82219800Y-61569600D01*
X82338967Y-61577464D01*
X82387838Y-61621832D01*
X82397577Y-61733867D01*
X82397600Y-61747400D01*
X82405463Y-61866568D01*
X82449831Y-61915439D01*
X82561866Y-61925178D01*
X82575400Y-61925200D01*
X82694567Y-61917337D01*
X82743438Y-61872969D01*
X82753177Y-61760934D01*
X82753200Y-61747400D01*
X82761063Y-61628233D01*
X82805431Y-61579362D01*
X82917466Y-61569623D01*
X82931000Y-61569600D01*
X83050167Y-61577464D01*
X83099038Y-61621832D01*
X83108777Y-61733867D01*
X83108800Y-61747400D01*
X83100936Y-61866568D01*
X83056568Y-61915439D01*
X82944533Y-61925178D01*
X82931000Y-61925200D01*
X82811832Y-61933064D01*
X82762961Y-61977432D01*
X82753222Y-62089467D01*
X82753200Y-62103000D01*
X83464400Y-62103000D01*
X83472263Y-61983833D01*
X83516631Y-61934962D01*
X83628666Y-61925223D01*
X83642200Y-61925200D01*
X83761367Y-61917337D01*
X83810238Y-61872969D01*
X83819977Y-61760934D01*
X83820000Y-61747400D01*
X83820000Y-61569600D01*
X84531200Y-61569600D01*
X84531200Y-61747400D01*
X84539063Y-61866568D01*
X84583431Y-61915439D01*
X84695466Y-61925178D01*
X84709000Y-61925200D01*
X84828167Y-61933064D01*
X84877038Y-61977432D01*
X84886777Y-62089467D01*
X84886800Y-62103000D01*
X84878936Y-62222168D01*
X84834568Y-62271039D01*
X84722533Y-62280778D01*
X84709000Y-62280800D01*
X84589832Y-62272937D01*
X84540961Y-62228569D01*
X84531222Y-62116534D01*
X84531200Y-62103000D01*
X84531200Y-61925200D01*
X83820000Y-61925200D01*
X83820000Y-62103000D01*
X83812136Y-62222168D01*
X83767768Y-62271039D01*
X83655733Y-62280778D01*
X83642200Y-62280800D01*
X83523032Y-62272937D01*
X83474161Y-62228569D01*
X83464422Y-62116534D01*
X83464400Y-62103000D01*
X82753200Y-62103000D01*
X82761063Y-62222168D01*
X82805431Y-62271039D01*
X82917466Y-62280778D01*
X82931000Y-62280800D01*
X83050167Y-62288664D01*
X83099038Y-62333032D01*
X83108777Y-62445067D01*
X83108800Y-62458600D01*
X83108800Y-62636400D01*
X82397600Y-62636400D01*
X82397600Y-62458600D01*
X82389736Y-62339433D01*
X82345368Y-62290562D01*
X82233333Y-62280823D01*
X82219800Y-62280800D01*
X82100632Y-62288664D01*
X82051761Y-62333032D01*
X82042022Y-62445067D01*
X82042000Y-62458600D01*
X82034136Y-62577768D01*
X81989768Y-62626639D01*
X81877733Y-62636378D01*
X81864200Y-62636400D01*
X81745032Y-62644264D01*
X81696161Y-62688632D01*
X81686422Y-62800667D01*
X81686400Y-62814200D01*
X81678536Y-62933368D01*
X81634168Y-62982239D01*
X81522133Y-62991978D01*
X81508600Y-62992000D01*
X81389432Y-62999864D01*
X81340561Y-63044232D01*
X81330822Y-63156267D01*
X81330800Y-63169800D01*
X81338663Y-63288968D01*
X81383031Y-63337839D01*
X81495066Y-63347578D01*
X81508600Y-63347600D01*
X81627767Y-63355464D01*
X81676638Y-63399832D01*
X81686377Y-63511867D01*
X81686400Y-63525400D01*
X81694263Y-63644568D01*
X81738631Y-63693439D01*
X81850666Y-63703178D01*
X81864200Y-63703200D01*
X81983367Y-63695337D01*
X82032238Y-63650969D01*
X82041977Y-63538934D01*
X82042000Y-63525400D01*
X82049863Y-63406233D01*
X82094231Y-63357362D01*
X82206266Y-63347623D01*
X82219800Y-63347600D01*
X82397600Y-63347600D01*
X82397600Y-64058800D01*
X82219800Y-64058800D01*
X82100632Y-64066664D01*
X82051761Y-64111032D01*
X82042022Y-64223067D01*
X82042000Y-64236600D01*
X82049863Y-64355768D01*
X82094231Y-64404639D01*
X82206266Y-64414378D01*
X82219800Y-64414400D01*
X82338967Y-64422264D01*
X82387838Y-64466632D01*
X82397577Y-64578667D01*
X82397600Y-64592200D01*
X82389736Y-64711368D01*
X82345368Y-64760239D01*
X82233333Y-64769978D01*
X82219800Y-64770000D01*
X82100632Y-64777864D01*
X82051761Y-64822232D01*
X82042022Y-64934267D01*
X82042000Y-64947800D01*
X82034136Y-65066968D01*
X81989768Y-65115839D01*
X81877733Y-65125578D01*
X81864200Y-65125600D01*
X81745032Y-65117737D01*
X81696161Y-65073369D01*
X81686422Y-64961334D01*
X81686400Y-64947800D01*
X81678536Y-64828633D01*
X81634168Y-64779762D01*
X81522133Y-64770023D01*
X81508600Y-64770000D01*
X81389432Y-64777864D01*
X81340561Y-64822232D01*
X81330822Y-64934267D01*
X81330800Y-64947800D01*
X81322936Y-65066968D01*
X81278568Y-65115839D01*
X81166533Y-65125578D01*
X81153000Y-65125600D01*
X81033832Y-65133464D01*
X80984961Y-65177832D01*
X80975222Y-65289867D01*
X80975200Y-65303400D01*
X80975200Y-65481200D01*
X79908400Y-65481200D01*
X79908400Y-65303400D01*
X79900536Y-65184233D01*
X79856168Y-65135362D01*
X79744133Y-65125623D01*
X79730600Y-65125600D01*
X79552800Y-65125600D01*
X79019400Y-65125600D01*
X78900232Y-65117737D01*
X78851361Y-65073369D01*
X78841622Y-64961334D01*
X78841600Y-64947800D01*
X78130400Y-64947800D01*
X78130400Y-65125600D01*
X78308200Y-65125600D01*
X78427367Y-65133464D01*
X78476238Y-65177832D01*
X78485977Y-65289867D01*
X78486000Y-65303400D01*
X78478136Y-65422568D01*
X78433768Y-65471439D01*
X78321733Y-65481178D01*
X78308200Y-65481200D01*
X78189032Y-65489064D01*
X78140161Y-65533432D01*
X78130422Y-65645467D01*
X78130400Y-65659000D01*
X78130400Y-65836800D01*
X79552800Y-65836800D01*
X79552800Y-65659000D01*
X79560663Y-65539833D01*
X79605031Y-65490962D01*
X79717066Y-65481223D01*
X79730600Y-65481200D01*
X79849767Y-65489064D01*
X79898638Y-65533432D01*
X79908377Y-65645467D01*
X79908400Y-65659000D01*
X79908400Y-65836800D01*
X81330800Y-65836800D01*
X81330800Y-65125600D01*
X81508600Y-65125600D01*
X81627767Y-65133464D01*
X81676638Y-65177832D01*
X81686377Y-65289867D01*
X81686400Y-65303400D01*
X81694263Y-65422568D01*
X81738631Y-65471439D01*
X81850666Y-65481178D01*
X81864200Y-65481200D01*
X81983367Y-65489064D01*
X82032238Y-65533432D01*
X82041977Y-65645467D01*
X82042000Y-65659000D01*
X82042000Y-65836800D01*
X82753200Y-65836800D01*
X82753200Y-65481200D01*
X82042000Y-65481200D01*
X82042000Y-65303400D01*
X82049863Y-65184233D01*
X82094231Y-65135362D01*
X82206266Y-65125623D01*
X82219800Y-65125600D01*
X82338967Y-65117737D01*
X82387838Y-65073369D01*
X82397577Y-64961334D01*
X82397600Y-64947800D01*
X82405463Y-64828633D01*
X82449831Y-64779762D01*
X82561866Y-64770023D01*
X82575400Y-64770000D01*
X82694567Y-64762137D01*
X82743438Y-64717769D01*
X82753177Y-64605734D01*
X82753200Y-64592200D01*
X82745336Y-64473033D01*
X82700968Y-64424162D01*
X82588933Y-64414423D01*
X82575400Y-64414400D01*
X82456232Y-64406537D01*
X82407361Y-64362169D01*
X82397622Y-64250134D01*
X82397600Y-64236600D01*
X82405463Y-64117433D01*
X82449831Y-64068562D01*
X82561866Y-64058823D01*
X82575400Y-64058800D01*
X82753200Y-64058800D01*
X82753200Y-63347600D01*
X82575400Y-63347600D01*
X82456232Y-63339737D01*
X82407361Y-63295369D01*
X82397622Y-63183334D01*
X82397600Y-63169800D01*
X82397600Y-62992000D01*
X83108800Y-62992000D01*
X83108800Y-62814200D01*
X83116663Y-62695033D01*
X83161031Y-62646162D01*
X83273066Y-62636423D01*
X83286600Y-62636400D01*
X83405767Y-62644264D01*
X83454638Y-62688632D01*
X83464377Y-62800667D01*
X83464400Y-62814200D01*
X83472263Y-62933368D01*
X83516631Y-62982239D01*
X83628666Y-62991978D01*
X83642200Y-62992000D01*
X83820000Y-62992000D01*
X83820000Y-62280800D01*
X84531200Y-62280800D01*
X84531200Y-62458600D01*
X84523336Y-62577768D01*
X84478968Y-62626639D01*
X84366933Y-62636378D01*
X84353400Y-62636400D01*
X84234232Y-62644264D01*
X84185361Y-62688632D01*
X84175622Y-62800667D01*
X84175600Y-62814200D01*
X84183463Y-62933368D01*
X84227831Y-62982239D01*
X84339866Y-62991978D01*
X84353400Y-62992000D01*
X84472567Y-62984137D01*
X84521438Y-62939769D01*
X84531177Y-62827734D01*
X84531200Y-62814200D01*
X84539063Y-62695033D01*
X84583431Y-62646162D01*
X84695466Y-62636423D01*
X84709000Y-62636400D01*
X84828167Y-62644264D01*
X84877038Y-62688632D01*
X84886777Y-62800667D01*
X84886800Y-62814200D01*
X84894663Y-62933368D01*
X84939031Y-62982239D01*
X85051066Y-62991978D01*
X85064600Y-62992000D01*
X85183767Y-62984137D01*
X85232638Y-62939769D01*
X85242377Y-62827734D01*
X85242400Y-62814200D01*
X85250263Y-62695033D01*
X85294631Y-62646162D01*
X85406666Y-62636423D01*
X85420200Y-62636400D01*
X85539367Y-62628537D01*
X85588238Y-62584169D01*
X85597977Y-62472134D01*
X85598000Y-62458600D01*
X85590136Y-62339433D01*
X85545768Y-62290562D01*
X85433733Y-62280823D01*
X85420200Y-62280800D01*
X85301032Y-62272937D01*
X85252161Y-62228569D01*
X85242422Y-62116534D01*
X85242400Y-62103000D01*
X85234536Y-61983833D01*
X85190168Y-61934962D01*
X85078133Y-61925223D01*
X85064600Y-61925200D01*
X84945432Y-61917337D01*
X84896561Y-61872969D01*
X84886822Y-61760934D01*
X84886800Y-61747400D01*
X84878936Y-61628233D01*
X84834568Y-61579362D01*
X84722533Y-61569623D01*
X84709000Y-61569600D01*
X84589832Y-61561737D01*
X84540961Y-61517369D01*
X84531222Y-61405334D01*
X84531200Y-61391800D01*
X84531200Y-61214000D01*
X83820000Y-61214000D01*
X83820000Y-61569600D01*
X83108800Y-61569600D01*
X83108800Y-61391800D01*
X83116663Y-61272633D01*
X83161031Y-61223762D01*
X83273066Y-61214023D01*
X83286600Y-61214000D01*
X83405767Y-61206137D01*
X83454638Y-61161769D01*
X83464377Y-61049734D01*
X83464400Y-61036200D01*
X83456536Y-60917033D01*
X83412168Y-60868162D01*
X83300133Y-60858423D01*
X83286600Y-60858400D01*
X83108800Y-60858400D01*
X83108800Y-59791600D01*
X83286600Y-59791600D01*
X83464400Y-59791600D01*
X83464400Y-59436000D01*
X84175600Y-59436000D01*
X84175600Y-59791600D01*
X83464400Y-59791600D01*
X83286600Y-59791600D01*
X83405767Y-59799464D01*
X83454638Y-59843832D01*
X83464377Y-59955867D01*
X83464400Y-59969400D01*
X83464400Y-60147200D01*
X84175600Y-60147200D01*
X84175600Y-59969400D01*
X84183463Y-59850233D01*
X84227831Y-59801362D01*
X84339866Y-59791623D01*
X84353400Y-59791600D01*
X84531200Y-59791600D01*
X84531200Y-59080400D01*
X84886800Y-59080400D01*
X84886800Y-60147200D01*
X84709000Y-60147200D01*
X84589832Y-60155064D01*
X84540961Y-60199432D01*
X84531222Y-60311467D01*
X84531200Y-60325000D01*
X84539063Y-60444168D01*
X84583431Y-60493039D01*
X84695466Y-60502778D01*
X84709000Y-60502800D01*
X84886800Y-60502800D01*
X84886800Y-61214000D01*
X85598000Y-61214000D01*
X85598000Y-61036200D01*
X85590136Y-60917033D01*
X85545768Y-60868162D01*
X85433733Y-60858423D01*
X85420200Y-60858400D01*
X85301032Y-60850537D01*
X85252161Y-60806169D01*
X85242422Y-60694134D01*
X85242400Y-60680600D01*
X85234536Y-60561433D01*
X85190168Y-60512562D01*
X85078133Y-60502823D01*
X85064600Y-60502800D01*
X84945432Y-60494937D01*
X84896561Y-60450569D01*
X84886822Y-60338534D01*
X84886800Y-60325000D01*
X84894663Y-60205833D01*
X84939031Y-60156962D01*
X85051066Y-60147223D01*
X85064600Y-60147200D01*
X85183767Y-60139337D01*
X85232638Y-60094969D01*
X85242377Y-59982934D01*
X85242400Y-59969400D01*
X85250263Y-59850233D01*
X85294631Y-59801362D01*
X85406666Y-59791623D01*
X85420200Y-59791600D01*
X85539367Y-59783737D01*
X85588238Y-59739369D01*
X85597977Y-59627334D01*
X85598000Y-59613800D01*
X85590136Y-59494633D01*
X85545768Y-59445762D01*
X85433733Y-59436023D01*
X85420200Y-59436000D01*
X85301032Y-59428137D01*
X85252161Y-59383769D01*
X85242422Y-59271734D01*
X85242400Y-59258200D01*
X85234536Y-59139033D01*
X85190168Y-59090162D01*
X85078133Y-59080423D01*
X85064600Y-59080400D01*
X84945432Y-59072537D01*
X84896561Y-59028169D01*
X84886822Y-58916134D01*
X84886800Y-58902600D01*
X84894663Y-58783433D01*
X84939031Y-58734562D01*
X85051066Y-58724823D01*
X85064600Y-58724800D01*
X85183767Y-58716937D01*
X85232638Y-58672569D01*
X85242377Y-58560534D01*
X85242400Y-58547000D01*
X85250263Y-58427833D01*
X85294631Y-58378962D01*
X85406666Y-58369223D01*
X85420200Y-58369200D01*
X85539367Y-58361337D01*
X85588238Y-58316969D01*
X85597977Y-58204934D01*
X85598000Y-58191400D01*
X85590136Y-58072233D01*
X85545768Y-58023362D01*
X85433733Y-58013623D01*
X85420200Y-58013600D01*
X85301032Y-58005737D01*
X85252161Y-57961369D01*
X85242422Y-57849334D01*
X85242400Y-57835800D01*
X85234536Y-57716633D01*
X85190168Y-57667762D01*
X85078133Y-57658023D01*
X85064600Y-57658000D01*
X84945432Y-57650137D01*
X84896561Y-57605769D01*
X84886822Y-57493734D01*
X84886800Y-57480200D01*
X84878936Y-57361033D01*
X84834568Y-57312162D01*
X84722533Y-57302423D01*
X84709000Y-57302400D01*
X84589832Y-57294537D01*
X84540961Y-57250169D01*
X84531222Y-57138134D01*
X84531200Y-57124600D01*
X84539063Y-57005433D01*
X84583431Y-56956562D01*
X84695466Y-56946823D01*
X84709000Y-56946800D01*
X84828167Y-56938937D01*
X84877038Y-56894569D01*
X84886777Y-56782534D01*
X84886800Y-56769000D01*
X84894663Y-56649833D01*
X84939031Y-56600962D01*
X85051066Y-56591223D01*
X85064600Y-56591200D01*
X85242400Y-56591200D01*
X85242400Y-55880000D01*
X85598000Y-55880000D01*
G36*
X84116967Y-60850537D02*
X84165838Y-60806169D01*
X84175577Y-60694134D01*
X84175600Y-60680600D01*
X84167736Y-60561433D01*
X84123368Y-60512562D01*
X84011333Y-60502823D01*
X83997800Y-60502800D01*
X83878632Y-60510664D01*
X83829761Y-60555032D01*
X83820022Y-60667067D01*
X83820000Y-60680600D01*
X83827863Y-60799768D01*
X83872231Y-60848639D01*
X83984266Y-60858378D01*
X83997800Y-60858400D01*
X84116967Y-60850537D01*
X84116967Y-60850537D01*
G37*
X84116967Y-60850537D02*
X84165838Y-60806169D01*
X84175577Y-60694134D01*
X84175600Y-60680600D01*
X84167736Y-60561433D01*
X84123368Y-60512562D01*
X84011333Y-60502823D01*
X83997800Y-60502800D01*
X83878632Y-60510664D01*
X83829761Y-60555032D01*
X83820022Y-60667067D01*
X83820000Y-60680600D01*
X83827863Y-60799768D01*
X83872231Y-60848639D01*
X83984266Y-60858378D01*
X83997800Y-60858400D01*
X84116967Y-60850537D01*
G36*
X79197200Y-62992000D02*
X78841600Y-62992000D01*
X78841600Y-63703200D01*
X79197200Y-63703200D01*
X79197200Y-62992000D01*
X79197200Y-62992000D01*
G37*
X79197200Y-62992000D02*
X78841600Y-62992000D01*
X78841600Y-63703200D01*
X79197200Y-63703200D01*
X79197200Y-62992000D01*
G36*
X76352400Y-63347600D02*
X73863200Y-63347600D01*
X73863200Y-65481200D01*
X74218800Y-65481200D01*
X74218800Y-63703200D01*
X75996800Y-63703200D01*
X75996800Y-65481200D01*
X74218800Y-65481200D01*
X73863200Y-65481200D01*
X73863200Y-65836800D01*
X76352400Y-65836800D01*
X76352400Y-63347600D01*
X76352400Y-63347600D01*
G37*
X76352400Y-63347600D02*
X73863200Y-63347600D01*
X73863200Y-65481200D01*
X74218800Y-65481200D01*
X74218800Y-63703200D01*
X75996800Y-63703200D01*
X75996800Y-65481200D01*
X74218800Y-65481200D01*
X73863200Y-65481200D01*
X73863200Y-65836800D01*
X76352400Y-65836800D01*
X76352400Y-63347600D01*
G36*
X85598000Y-63347600D02*
X83108800Y-63347600D01*
X83108800Y-65481200D01*
X83464400Y-65481200D01*
X83464400Y-63703200D01*
X85242400Y-63703200D01*
X85242400Y-65481200D01*
X83464400Y-65481200D01*
X83108800Y-65481200D01*
X83108800Y-65836800D01*
X85598000Y-65836800D01*
X85598000Y-63347600D01*
X85598000Y-63347600D01*
G37*
X85598000Y-63347600D02*
X83108800Y-63347600D01*
X83108800Y-65481200D01*
X83464400Y-65481200D01*
X83464400Y-63703200D01*
X85242400Y-63703200D01*
X85242400Y-65481200D01*
X83464400Y-65481200D01*
X83108800Y-65481200D01*
X83108800Y-65836800D01*
X85598000Y-65836800D01*
X85598000Y-63347600D01*
G36*
X77004967Y-65473337D02*
X77053838Y-65428969D01*
X77063577Y-65316934D01*
X77063600Y-65303400D01*
X77055736Y-65184233D01*
X77011368Y-65135362D01*
X76899333Y-65125623D01*
X76885800Y-65125600D01*
X76766632Y-65133464D01*
X76717761Y-65177832D01*
X76708022Y-65289867D01*
X76708000Y-65303400D01*
X76715863Y-65422568D01*
X76760231Y-65471439D01*
X76872266Y-65481178D01*
X76885800Y-65481200D01*
X77004967Y-65473337D01*
X77004967Y-65473337D01*
G37*
X77004967Y-65473337D02*
X77053838Y-65428969D01*
X77063577Y-65316934D01*
X77063600Y-65303400D01*
X77055736Y-65184233D01*
X77011368Y-65135362D01*
X76899333Y-65125623D01*
X76885800Y-65125600D01*
X76766632Y-65133464D01*
X76717761Y-65177832D01*
X76708022Y-65289867D01*
X76708000Y-65303400D01*
X76715863Y-65422568D01*
X76760231Y-65471439D01*
X76872266Y-65481178D01*
X76885800Y-65481200D01*
X77004967Y-65473337D01*
G36*
X77774800Y-65125600D02*
X77419200Y-65125600D01*
X77419200Y-65836800D01*
X77774800Y-65836800D01*
X77774800Y-65125600D01*
X77774800Y-65125600D01*
G37*
X77774800Y-65125600D02*
X77419200Y-65125600D01*
X77419200Y-65836800D01*
X77774800Y-65836800D01*
X77774800Y-65125600D01*
G36*
X75641200Y-54813200D02*
X74574400Y-54813200D01*
X74574400Y-55880000D01*
X75641200Y-55880000D01*
X75641200Y-54813200D01*
X75641200Y-54813200D01*
G37*
X75641200Y-54813200D02*
X74574400Y-54813200D01*
X74574400Y-55880000D01*
X75641200Y-55880000D01*
X75641200Y-54813200D01*
G36*
X80205367Y-55872137D02*
X80254238Y-55827769D01*
X80263977Y-55715734D01*
X80264000Y-55702200D01*
X80256136Y-55583033D01*
X80211768Y-55534162D01*
X80099733Y-55524423D01*
X80086200Y-55524400D01*
X79967032Y-55532264D01*
X79918161Y-55576632D01*
X79908422Y-55688667D01*
X79908400Y-55702200D01*
X79916263Y-55821368D01*
X79960631Y-55870239D01*
X80072666Y-55879978D01*
X80086200Y-55880000D01*
X80205367Y-55872137D01*
X80205367Y-55872137D01*
G37*
X80205367Y-55872137D02*
X80254238Y-55827769D01*
X80263977Y-55715734D01*
X80264000Y-55702200D01*
X80256136Y-55583033D01*
X80211768Y-55534162D01*
X80099733Y-55524423D01*
X80086200Y-55524400D01*
X79967032Y-55532264D01*
X79918161Y-55576632D01*
X79908422Y-55688667D01*
X79908400Y-55702200D01*
X79916263Y-55821368D01*
X79960631Y-55870239D01*
X80072666Y-55879978D01*
X80086200Y-55880000D01*
X80205367Y-55872137D01*
G36*
X81983367Y-55872137D02*
X82032238Y-55827769D01*
X82041977Y-55715734D01*
X82042000Y-55702200D01*
X82034136Y-55583033D01*
X81989768Y-55534162D01*
X81877733Y-55524423D01*
X81864200Y-55524400D01*
X81745032Y-55532264D01*
X81696161Y-55576632D01*
X81686422Y-55688667D01*
X81686400Y-55702200D01*
X81694263Y-55821368D01*
X81738631Y-55870239D01*
X81850666Y-55879978D01*
X81864200Y-55880000D01*
X81983367Y-55872137D01*
X81983367Y-55872137D01*
G37*
X81983367Y-55872137D02*
X82032238Y-55827769D01*
X82041977Y-55715734D01*
X82042000Y-55702200D01*
X82034136Y-55583033D01*
X81989768Y-55534162D01*
X81877733Y-55524423D01*
X81864200Y-55524400D01*
X81745032Y-55532264D01*
X81696161Y-55576632D01*
X81686422Y-55688667D01*
X81686400Y-55702200D01*
X81694263Y-55821368D01*
X81738631Y-55870239D01*
X81850666Y-55879978D01*
X81864200Y-55880000D01*
X81983367Y-55872137D01*
G36*
X83405767Y-56583337D02*
X83454638Y-56538969D01*
X83464377Y-56426934D01*
X83464400Y-56413400D01*
X83456536Y-56294233D01*
X83412168Y-56245362D01*
X83300133Y-56235623D01*
X83286600Y-56235600D01*
X83167432Y-56243464D01*
X83118561Y-56287832D01*
X83108822Y-56399867D01*
X83108800Y-56413400D01*
X83116663Y-56532568D01*
X83161031Y-56581439D01*
X83273066Y-56591178D01*
X83286600Y-56591200D01*
X83405767Y-56583337D01*
X83405767Y-56583337D01*
G37*
X83405767Y-56583337D02*
X83454638Y-56538969D01*
X83464377Y-56426934D01*
X83464400Y-56413400D01*
X83456536Y-56294233D01*
X83412168Y-56245362D01*
X83300133Y-56235623D01*
X83286600Y-56235600D01*
X83167432Y-56243464D01*
X83118561Y-56287832D01*
X83108822Y-56399867D01*
X83108800Y-56413400D01*
X83116663Y-56532568D01*
X83161031Y-56581439D01*
X83273066Y-56591178D01*
X83286600Y-56591200D01*
X83405767Y-56583337D01*
G36*
X78486000Y-60680600D02*
X78478136Y-60561433D01*
X78433768Y-60512562D01*
X78321733Y-60502823D01*
X78308200Y-60502800D01*
X78130400Y-60502800D01*
X78130400Y-59791600D01*
X79197200Y-59791600D01*
X79197200Y-59613800D01*
X79205063Y-59494633D01*
X79249431Y-59445762D01*
X79361466Y-59436023D01*
X79375000Y-59436000D01*
X79494167Y-59428137D01*
X79543038Y-59383769D01*
X79552777Y-59271734D01*
X79552800Y-59258200D01*
X79552800Y-59080400D01*
X78841600Y-59080400D01*
X78841600Y-58724800D01*
X80264000Y-58724800D01*
X80264000Y-58547000D01*
X80256136Y-58427833D01*
X80211768Y-58378962D01*
X80099733Y-58369223D01*
X80086200Y-58369200D01*
X79967032Y-58361337D01*
X79918161Y-58316969D01*
X79908422Y-58204934D01*
X79908400Y-58191400D01*
X79908400Y-58013600D01*
X80619600Y-58013600D01*
X80619600Y-57302400D01*
X80441800Y-57302400D01*
X80322632Y-57310264D01*
X80273761Y-57354632D01*
X80264022Y-57466667D01*
X80264000Y-57480200D01*
X80256136Y-57599368D01*
X80211768Y-57648239D01*
X80099733Y-57657978D01*
X80086200Y-57658000D01*
X79967032Y-57665864D01*
X79918161Y-57710232D01*
X79908422Y-57822267D01*
X79908400Y-57835800D01*
X79900536Y-57954968D01*
X79856168Y-58003839D01*
X79744133Y-58013578D01*
X79730600Y-58013600D01*
X79611432Y-58021464D01*
X79562561Y-58065832D01*
X79552822Y-58177867D01*
X79552800Y-58191400D01*
X79552800Y-58369200D01*
X78841600Y-58369200D01*
X78841600Y-58547000D01*
X78833736Y-58666168D01*
X78789368Y-58715039D01*
X78677333Y-58724778D01*
X78663800Y-58724800D01*
X78544632Y-58716937D01*
X78495761Y-58672569D01*
X78486022Y-58560534D01*
X78486000Y-58547000D01*
X78478136Y-58427833D01*
X78433768Y-58378962D01*
X78321733Y-58369223D01*
X78308200Y-58369200D01*
X78130400Y-58369200D01*
X78130400Y-59080400D01*
X78308200Y-59080400D01*
X78427367Y-59088264D01*
X78476238Y-59132632D01*
X78485977Y-59244667D01*
X78486000Y-59258200D01*
X78478136Y-59377368D01*
X78433768Y-59426239D01*
X78321733Y-59435978D01*
X78308200Y-59436000D01*
X78189032Y-59443864D01*
X78140161Y-59488232D01*
X78130422Y-59600267D01*
X78130400Y-59613800D01*
X78122536Y-59732968D01*
X78078168Y-59781839D01*
X77966133Y-59791578D01*
X77952600Y-59791600D01*
X77774800Y-59791600D01*
X77774800Y-60858400D01*
X78486000Y-60858400D01*
X78486000Y-60680600D01*
X78486000Y-60680600D01*
G37*
X78486000Y-60680600D02*
X78478136Y-60561433D01*
X78433768Y-60512562D01*
X78321733Y-60502823D01*
X78308200Y-60502800D01*
X78130400Y-60502800D01*
X78130400Y-59791600D01*
X79197200Y-59791600D01*
X79197200Y-59613800D01*
X79205063Y-59494633D01*
X79249431Y-59445762D01*
X79361466Y-59436023D01*
X79375000Y-59436000D01*
X79494167Y-59428137D01*
X79543038Y-59383769D01*
X79552777Y-59271734D01*
X79552800Y-59258200D01*
X79552800Y-59080400D01*
X78841600Y-59080400D01*
X78841600Y-58724800D01*
X80264000Y-58724800D01*
X80264000Y-58547000D01*
X80256136Y-58427833D01*
X80211768Y-58378962D01*
X80099733Y-58369223D01*
X80086200Y-58369200D01*
X79967032Y-58361337D01*
X79918161Y-58316969D01*
X79908422Y-58204934D01*
X79908400Y-58191400D01*
X79908400Y-58013600D01*
X80619600Y-58013600D01*
X80619600Y-57302400D01*
X80441800Y-57302400D01*
X80322632Y-57310264D01*
X80273761Y-57354632D01*
X80264022Y-57466667D01*
X80264000Y-57480200D01*
X80256136Y-57599368D01*
X80211768Y-57648239D01*
X80099733Y-57657978D01*
X80086200Y-57658000D01*
X79967032Y-57665864D01*
X79918161Y-57710232D01*
X79908422Y-57822267D01*
X79908400Y-57835800D01*
X79900536Y-57954968D01*
X79856168Y-58003839D01*
X79744133Y-58013578D01*
X79730600Y-58013600D01*
X79611432Y-58021464D01*
X79562561Y-58065832D01*
X79552822Y-58177867D01*
X79552800Y-58191400D01*
X79552800Y-58369200D01*
X78841600Y-58369200D01*
X78841600Y-58547000D01*
X78833736Y-58666168D01*
X78789368Y-58715039D01*
X78677333Y-58724778D01*
X78663800Y-58724800D01*
X78544632Y-58716937D01*
X78495761Y-58672569D01*
X78486022Y-58560534D01*
X78486000Y-58547000D01*
X78478136Y-58427833D01*
X78433768Y-58378962D01*
X78321733Y-58369223D01*
X78308200Y-58369200D01*
X78130400Y-58369200D01*
X78130400Y-59080400D01*
X78308200Y-59080400D01*
X78427367Y-59088264D01*
X78476238Y-59132632D01*
X78485977Y-59244667D01*
X78486000Y-59258200D01*
X78478136Y-59377368D01*
X78433768Y-59426239D01*
X78321733Y-59435978D01*
X78308200Y-59436000D01*
X78189032Y-59443864D01*
X78140161Y-59488232D01*
X78130422Y-59600267D01*
X78130400Y-59613800D01*
X78122536Y-59732968D01*
X78078168Y-59781839D01*
X77966133Y-59791578D01*
X77952600Y-59791600D01*
X77774800Y-59791600D01*
X77774800Y-60858400D01*
X78486000Y-60858400D01*
X78486000Y-60680600D01*
G36*
X77419200Y-59613800D02*
X77411336Y-59494633D01*
X77366968Y-59445762D01*
X77254933Y-59436023D01*
X77241400Y-59436000D01*
X77063600Y-59436000D01*
X77063600Y-58013600D01*
X76708000Y-58013600D01*
X76708000Y-59791600D01*
X77419200Y-59791600D01*
X77419200Y-59613800D01*
X77419200Y-59613800D01*
G37*
X77419200Y-59613800D02*
X77411336Y-59494633D01*
X77366968Y-59445762D01*
X77254933Y-59436023D01*
X77241400Y-59436000D01*
X77063600Y-59436000D01*
X77063600Y-58013600D01*
X76708000Y-58013600D01*
X76708000Y-59791600D01*
X77419200Y-59791600D01*
X77419200Y-59613800D01*
G36*
X77716167Y-59072537D02*
X77765038Y-59028169D01*
X77774777Y-58916134D01*
X77774800Y-58902600D01*
X77766936Y-58783433D01*
X77722568Y-58734562D01*
X77610533Y-58724823D01*
X77597000Y-58724800D01*
X77477832Y-58732664D01*
X77428961Y-58777032D01*
X77419222Y-58889067D01*
X77419200Y-58902600D01*
X77427063Y-59021768D01*
X77471431Y-59070639D01*
X77583466Y-59080378D01*
X77597000Y-59080400D01*
X77716167Y-59072537D01*
X77716167Y-59072537D01*
G37*
X77716167Y-59072537D02*
X77765038Y-59028169D01*
X77774777Y-58916134D01*
X77774800Y-58902600D01*
X77766936Y-58783433D01*
X77722568Y-58734562D01*
X77610533Y-58724823D01*
X77597000Y-58724800D01*
X77477832Y-58732664D01*
X77428961Y-58777032D01*
X77419222Y-58889067D01*
X77419200Y-58902600D01*
X77427063Y-59021768D01*
X77471431Y-59070639D01*
X77583466Y-59080378D01*
X77597000Y-59080400D01*
X77716167Y-59072537D01*
G36*
X76293767Y-59428137D02*
X76342638Y-59383769D01*
X76352377Y-59271734D01*
X76352400Y-59258200D01*
X76344536Y-59139033D01*
X76300168Y-59090162D01*
X76188133Y-59080423D01*
X76174600Y-59080400D01*
X76055432Y-59088264D01*
X76006561Y-59132632D01*
X75996822Y-59244667D01*
X75996800Y-59258200D01*
X76004663Y-59377368D01*
X76049031Y-59426239D01*
X76161066Y-59435978D01*
X76174600Y-59436000D01*
X76293767Y-59428137D01*
X76293767Y-59428137D01*
G37*
X76293767Y-59428137D02*
X76342638Y-59383769D01*
X76352377Y-59271734D01*
X76352400Y-59258200D01*
X76344536Y-59139033D01*
X76300168Y-59090162D01*
X76188133Y-59080423D01*
X76174600Y-59080400D01*
X76055432Y-59088264D01*
X76006561Y-59132632D01*
X75996822Y-59244667D01*
X75996800Y-59258200D01*
X76004663Y-59377368D01*
X76049031Y-59426239D01*
X76161066Y-59435978D01*
X76174600Y-59436000D01*
X76293767Y-59428137D01*
G36*
X76352400Y-59791600D02*
X75285600Y-59791600D01*
X75285600Y-60147200D01*
X76352400Y-60147200D01*
X76352400Y-59791600D01*
X76352400Y-59791600D01*
G37*
X76352400Y-59791600D02*
X75285600Y-59791600D01*
X75285600Y-60147200D01*
X76352400Y-60147200D01*
X76352400Y-59791600D01*
G36*
X77774800Y-61391800D02*
X77766936Y-61272633D01*
X77722568Y-61223762D01*
X77610533Y-61214023D01*
X77597000Y-61214000D01*
X77477832Y-61206137D01*
X77428961Y-61161769D01*
X77419222Y-61049734D01*
X77419200Y-61036200D01*
X77411336Y-60917033D01*
X77366968Y-60868162D01*
X77254933Y-60858423D01*
X77241400Y-60858400D01*
X77122232Y-60850537D01*
X77073361Y-60806169D01*
X77063622Y-60694134D01*
X77063600Y-60680600D01*
X77071463Y-60561433D01*
X77115831Y-60512562D01*
X77227866Y-60502823D01*
X77241400Y-60502800D01*
X77360567Y-60494937D01*
X77409438Y-60450569D01*
X77419177Y-60338534D01*
X77419200Y-60325000D01*
X77419200Y-60147200D01*
X76708000Y-60147200D01*
X76708000Y-60502800D01*
X75641200Y-60502800D01*
X75641200Y-60858400D01*
X76708000Y-60858400D01*
X76708000Y-61569600D01*
X77774800Y-61569600D01*
X77774800Y-61391800D01*
X77774800Y-61391800D01*
G37*
X77774800Y-61391800D02*
X77766936Y-61272633D01*
X77722568Y-61223762D01*
X77610533Y-61214023D01*
X77597000Y-61214000D01*
X77477832Y-61206137D01*
X77428961Y-61161769D01*
X77419222Y-61049734D01*
X77419200Y-61036200D01*
X77411336Y-60917033D01*
X77366968Y-60868162D01*
X77254933Y-60858423D01*
X77241400Y-60858400D01*
X77122232Y-60850537D01*
X77073361Y-60806169D01*
X77063622Y-60694134D01*
X77063600Y-60680600D01*
X77071463Y-60561433D01*
X77115831Y-60512562D01*
X77227866Y-60502823D01*
X77241400Y-60502800D01*
X77360567Y-60494937D01*
X77409438Y-60450569D01*
X77419177Y-60338534D01*
X77419200Y-60325000D01*
X77419200Y-60147200D01*
X76708000Y-60147200D01*
X76708000Y-60502800D01*
X75641200Y-60502800D01*
X75641200Y-60858400D01*
X76708000Y-60858400D01*
X76708000Y-61569600D01*
X77774800Y-61569600D01*
X77774800Y-61391800D01*
G36*
X79908400Y-60680600D02*
X79900536Y-60561433D01*
X79856168Y-60512562D01*
X79744133Y-60502823D01*
X79730600Y-60502800D01*
X79611432Y-60494937D01*
X79562561Y-60450569D01*
X79552822Y-60338534D01*
X79552800Y-60325000D01*
X79552800Y-60147200D01*
X78841600Y-60147200D01*
X78841600Y-60325000D01*
X78849463Y-60444168D01*
X78893831Y-60493039D01*
X79005866Y-60502778D01*
X79019400Y-60502800D01*
X79138567Y-60510664D01*
X79187438Y-60555032D01*
X79197177Y-60667067D01*
X79197200Y-60680600D01*
X79197200Y-60858400D01*
X79908400Y-60858400D01*
X79908400Y-60680600D01*
X79908400Y-60680600D01*
G37*
X79908400Y-60680600D02*
X79900536Y-60561433D01*
X79856168Y-60512562D01*
X79744133Y-60502823D01*
X79730600Y-60502800D01*
X79611432Y-60494937D01*
X79562561Y-60450569D01*
X79552822Y-60338534D01*
X79552800Y-60325000D01*
X79552800Y-60147200D01*
X78841600Y-60147200D01*
X78841600Y-60325000D01*
X78849463Y-60444168D01*
X78893831Y-60493039D01*
X79005866Y-60502778D01*
X79019400Y-60502800D01*
X79138567Y-60510664D01*
X79187438Y-60555032D01*
X79197177Y-60667067D01*
X79197200Y-60680600D01*
X79197200Y-60858400D01*
X79908400Y-60858400D01*
X79908400Y-60680600D01*
G36*
X79138567Y-61561737D02*
X79187438Y-61517369D01*
X79197177Y-61405334D01*
X79197200Y-61391800D01*
X79189336Y-61272633D01*
X79144968Y-61223762D01*
X79032933Y-61214023D01*
X79019400Y-61214000D01*
X78900232Y-61221864D01*
X78851361Y-61266232D01*
X78841622Y-61378267D01*
X78841600Y-61391800D01*
X78849463Y-61510968D01*
X78893831Y-61559839D01*
X79005866Y-61569578D01*
X79019400Y-61569600D01*
X79138567Y-61561737D01*
X79138567Y-61561737D01*
G37*
X79138567Y-61561737D02*
X79187438Y-61517369D01*
X79197177Y-61405334D01*
X79197200Y-61391800D01*
X79189336Y-61272633D01*
X79144968Y-61223762D01*
X79032933Y-61214023D01*
X79019400Y-61214000D01*
X78900232Y-61221864D01*
X78851361Y-61266232D01*
X78841622Y-61378267D01*
X78841600Y-61391800D01*
X78849463Y-61510968D01*
X78893831Y-61559839D01*
X79005866Y-61569578D01*
X79019400Y-61569600D01*
X79138567Y-61561737D01*
G36*
X80975200Y-61569600D02*
X80264000Y-61569600D01*
X80264000Y-61391800D01*
X80256136Y-61272633D01*
X80211768Y-61223762D01*
X80099733Y-61214023D01*
X80086200Y-61214000D01*
X79967032Y-61221864D01*
X79918161Y-61266232D01*
X79908422Y-61378267D01*
X79908400Y-61391800D01*
X79916263Y-61510968D01*
X79960631Y-61559839D01*
X80072666Y-61569578D01*
X80086200Y-61569600D01*
X80205367Y-61577464D01*
X80254238Y-61621832D01*
X80263977Y-61733867D01*
X80264000Y-61747400D01*
X80264000Y-61925200D01*
X80975200Y-61925200D01*
X80975200Y-61569600D01*
X80975200Y-61569600D01*
G37*
X80975200Y-61569600D02*
X80264000Y-61569600D01*
X80264000Y-61391800D01*
X80256136Y-61272633D01*
X80211768Y-61223762D01*
X80099733Y-61214023D01*
X80086200Y-61214000D01*
X79967032Y-61221864D01*
X79918161Y-61266232D01*
X79908422Y-61378267D01*
X79908400Y-61391800D01*
X79916263Y-61510968D01*
X79960631Y-61559839D01*
X80072666Y-61569578D01*
X80086200Y-61569600D01*
X80205367Y-61577464D01*
X80254238Y-61621832D01*
X80263977Y-61733867D01*
X80264000Y-61747400D01*
X80264000Y-61925200D01*
X80975200Y-61925200D01*
X80975200Y-61569600D01*
G36*
X77774800Y-61925200D02*
X77419200Y-61925200D01*
X77419200Y-62636400D01*
X77774800Y-62636400D01*
X77774800Y-61925200D01*
X77774800Y-61925200D01*
G37*
X77774800Y-61925200D02*
X77419200Y-61925200D01*
X77419200Y-62636400D01*
X77774800Y-62636400D01*
X77774800Y-61925200D01*
G36*
X83108800Y-58547000D02*
X83116663Y-58427833D01*
X83161031Y-58378962D01*
X83273066Y-58369223D01*
X83286600Y-58369200D01*
X83405767Y-58361337D01*
X83454638Y-58316969D01*
X83464377Y-58204934D01*
X83464400Y-58191400D01*
X83456536Y-58072233D01*
X83412168Y-58023362D01*
X83300133Y-58013623D01*
X83286600Y-58013600D01*
X83167432Y-58021464D01*
X83118561Y-58065832D01*
X83108822Y-58177867D01*
X83108800Y-58191400D01*
X83108800Y-58369200D01*
X82397600Y-58369200D01*
X82397600Y-58191400D01*
X82389736Y-58072233D01*
X82345368Y-58023362D01*
X82233333Y-58013623D01*
X82219800Y-58013600D01*
X82100632Y-58021464D01*
X82051761Y-58065832D01*
X82042022Y-58177867D01*
X82042000Y-58191400D01*
X82034136Y-58310568D01*
X81989768Y-58359439D01*
X81877733Y-58369178D01*
X81864200Y-58369200D01*
X81745032Y-58377064D01*
X81696161Y-58421432D01*
X81686422Y-58533467D01*
X81686400Y-58547000D01*
X81694263Y-58666168D01*
X81738631Y-58715039D01*
X81850666Y-58724778D01*
X81864200Y-58724800D01*
X81983367Y-58716937D01*
X82032238Y-58672569D01*
X82041977Y-58560534D01*
X82042000Y-58547000D01*
X82049863Y-58427833D01*
X82094231Y-58378962D01*
X82206266Y-58369223D01*
X82219800Y-58369200D01*
X82338967Y-58377064D01*
X82387838Y-58421432D01*
X82397577Y-58533467D01*
X82397600Y-58547000D01*
X82397600Y-58724800D01*
X83108800Y-58724800D01*
X83108800Y-58547000D01*
X83108800Y-58547000D01*
G37*
X83108800Y-58547000D02*
X83116663Y-58427833D01*
X83161031Y-58378962D01*
X83273066Y-58369223D01*
X83286600Y-58369200D01*
X83405767Y-58361337D01*
X83454638Y-58316969D01*
X83464377Y-58204934D01*
X83464400Y-58191400D01*
X83456536Y-58072233D01*
X83412168Y-58023362D01*
X83300133Y-58013623D01*
X83286600Y-58013600D01*
X83167432Y-58021464D01*
X83118561Y-58065832D01*
X83108822Y-58177867D01*
X83108800Y-58191400D01*
X83108800Y-58369200D01*
X82397600Y-58369200D01*
X82397600Y-58191400D01*
X82389736Y-58072233D01*
X82345368Y-58023362D01*
X82233333Y-58013623D01*
X82219800Y-58013600D01*
X82100632Y-58021464D01*
X82051761Y-58065832D01*
X82042022Y-58177867D01*
X82042000Y-58191400D01*
X82034136Y-58310568D01*
X81989768Y-58359439D01*
X81877733Y-58369178D01*
X81864200Y-58369200D01*
X81745032Y-58377064D01*
X81696161Y-58421432D01*
X81686422Y-58533467D01*
X81686400Y-58547000D01*
X81694263Y-58666168D01*
X81738631Y-58715039D01*
X81850666Y-58724778D01*
X81864200Y-58724800D01*
X81983367Y-58716937D01*
X82032238Y-58672569D01*
X82041977Y-58560534D01*
X82042000Y-58547000D01*
X82049863Y-58427833D01*
X82094231Y-58378962D01*
X82206266Y-58369223D01*
X82219800Y-58369200D01*
X82338967Y-58377064D01*
X82387838Y-58421432D01*
X82397577Y-58533467D01*
X82397600Y-58547000D01*
X82397600Y-58724800D01*
X83108800Y-58724800D01*
X83108800Y-58547000D01*
G36*
X84116967Y-58716937D02*
X84165838Y-58672569D01*
X84175577Y-58560534D01*
X84175600Y-58547000D01*
X84167736Y-58427833D01*
X84123368Y-58378962D01*
X84011333Y-58369223D01*
X83997800Y-58369200D01*
X83878632Y-58377064D01*
X83829761Y-58421432D01*
X83820022Y-58533467D01*
X83820000Y-58547000D01*
X83827863Y-58666168D01*
X83872231Y-58715039D01*
X83984266Y-58724778D01*
X83997800Y-58724800D01*
X84116967Y-58716937D01*
X84116967Y-58716937D01*
G37*
X84116967Y-58716937D02*
X84165838Y-58672569D01*
X84175577Y-58560534D01*
X84175600Y-58547000D01*
X84167736Y-58427833D01*
X84123368Y-58378962D01*
X84011333Y-58369223D01*
X83997800Y-58369200D01*
X83878632Y-58377064D01*
X83829761Y-58421432D01*
X83820022Y-58533467D01*
X83820000Y-58547000D01*
X83827863Y-58666168D01*
X83872231Y-58715039D01*
X83984266Y-58724778D01*
X83997800Y-58724800D01*
X84116967Y-58716937D01*
G36*
X80560967Y-63695337D02*
X80609838Y-63650969D01*
X80619577Y-63538934D01*
X80619600Y-63525400D01*
X80611736Y-63406233D01*
X80567368Y-63357362D01*
X80455333Y-63347623D01*
X80441800Y-63347600D01*
X80322632Y-63355464D01*
X80273761Y-63399832D01*
X80264022Y-63511867D01*
X80264000Y-63525400D01*
X80271863Y-63644568D01*
X80316231Y-63693439D01*
X80428266Y-63703178D01*
X80441800Y-63703200D01*
X80560967Y-63695337D01*
X80560967Y-63695337D01*
G37*
X80560967Y-63695337D02*
X80609838Y-63650969D01*
X80619577Y-63538934D01*
X80619600Y-63525400D01*
X80611736Y-63406233D01*
X80567368Y-63357362D01*
X80455333Y-63347623D01*
X80441800Y-63347600D01*
X80322632Y-63355464D01*
X80273761Y-63399832D01*
X80264022Y-63511867D01*
X80264000Y-63525400D01*
X80271863Y-63644568D01*
X80316231Y-63693439D01*
X80428266Y-63703178D01*
X80441800Y-63703200D01*
X80560967Y-63695337D01*
G36*
X81983367Y-64762137D02*
X82032238Y-64717769D01*
X82041977Y-64605734D01*
X82042000Y-64592200D01*
X82034136Y-64473033D01*
X81989768Y-64424162D01*
X81877733Y-64414423D01*
X81864200Y-64414400D01*
X81745032Y-64422264D01*
X81696161Y-64466632D01*
X81686422Y-64578667D01*
X81686400Y-64592200D01*
X81694263Y-64711368D01*
X81738631Y-64760239D01*
X81850666Y-64769978D01*
X81864200Y-64770000D01*
X81983367Y-64762137D01*
X81983367Y-64762137D01*
G37*
X81983367Y-64762137D02*
X82032238Y-64717769D01*
X82041977Y-64605734D01*
X82042000Y-64592200D01*
X82034136Y-64473033D01*
X81989768Y-64424162D01*
X81877733Y-64414423D01*
X81864200Y-64414400D01*
X81745032Y-64422264D01*
X81696161Y-64466632D01*
X81686422Y-64578667D01*
X81686400Y-64592200D01*
X81694263Y-64711368D01*
X81738631Y-64760239D01*
X81850666Y-64769978D01*
X81864200Y-64770000D01*
X81983367Y-64762137D01*
G36*
X80975200Y-64770000D02*
X80264000Y-64770000D01*
X80264000Y-65125600D01*
X80975200Y-65125600D01*
X80975200Y-64770000D01*
X80975200Y-64770000D01*
G37*
X80975200Y-64770000D02*
X80264000Y-64770000D01*
X80264000Y-65125600D01*
X80975200Y-65125600D01*
X80975200Y-64770000D01*
G36*
X75641200Y-64058800D02*
X74574400Y-64058800D01*
X74574400Y-65125600D01*
X75641200Y-65125600D01*
X75641200Y-64058800D01*
X75641200Y-64058800D01*
G37*
X75641200Y-64058800D02*
X74574400Y-64058800D01*
X74574400Y-65125600D01*
X75641200Y-65125600D01*
X75641200Y-64058800D01*
G36*
X84886800Y-64058800D02*
X83820000Y-64058800D01*
X83820000Y-65125600D01*
X84886800Y-65125600D01*
X84886800Y-64058800D01*
X84886800Y-64058800D01*
G37*
X84886800Y-64058800D02*
X83820000Y-64058800D01*
X83820000Y-65125600D01*
X84886800Y-65125600D01*
X84886800Y-64058800D01*
G36*
X137631714Y-80752091D02*
X137631714Y-84182470D01*
X138018524Y-84672521D01*
X138405333Y-85162572D01*
X138857552Y-85162572D01*
X138244633Y-86374280D01*
X138106372Y-86648182D01*
X137979016Y-86901577D01*
X137866167Y-87127215D01*
X137771425Y-87317847D01*
X137698393Y-87466222D01*
X137650673Y-87565090D01*
X137631866Y-87607202D01*
X137631714Y-87607994D01*
X137666404Y-87613924D01*
X137764094Y-87619249D01*
X137915212Y-87623743D01*
X138110187Y-87627182D01*
X138339449Y-87629340D01*
X138566498Y-87630000D01*
X139501282Y-87630000D01*
X140117286Y-86396286D01*
X140733289Y-85162572D01*
X141404463Y-85162572D01*
X141423571Y-87611858D01*
X143147143Y-87631314D01*
X143147143Y-81824286D01*
X141405428Y-81824286D01*
X141405428Y-83420858D01*
X139523513Y-83420858D01*
X139448471Y-83315470D01*
X139420160Y-83269980D01*
X139399978Y-83217399D01*
X139386572Y-83145262D01*
X139378587Y-83041101D01*
X139374669Y-82892451D01*
X139373464Y-82686845D01*
X139373428Y-82624573D01*
X139374064Y-82403767D01*
X139376925Y-82243025D01*
X139383445Y-82129843D01*
X139395057Y-82051717D01*
X139413192Y-81996144D01*
X139439284Y-81950620D01*
X139452824Y-81931674D01*
X139532219Y-81824286D01*
X141405428Y-81824286D01*
X143147143Y-81824286D01*
X143147143Y-79901143D01*
X138259558Y-79901143D01*
X137631714Y-80752091D01*
X137631714Y-80752091D01*
G37*
X137631714Y-80752091D02*
X137631714Y-84182470D01*
X138018524Y-84672521D01*
X138405333Y-85162572D01*
X138857552Y-85162572D01*
X138244633Y-86374280D01*
X138106372Y-86648182D01*
X137979016Y-86901577D01*
X137866167Y-87127215D01*
X137771425Y-87317847D01*
X137698393Y-87466222D01*
X137650673Y-87565090D01*
X137631866Y-87607202D01*
X137631714Y-87607994D01*
X137666404Y-87613924D01*
X137764094Y-87619249D01*
X137915212Y-87623743D01*
X138110187Y-87627182D01*
X138339449Y-87629340D01*
X138566498Y-87630000D01*
X139501282Y-87630000D01*
X140117286Y-86396286D01*
X140733289Y-85162572D01*
X141404463Y-85162572D01*
X141423571Y-87611858D01*
X143147143Y-87631314D01*
X143147143Y-81824286D01*
X141405428Y-81824286D01*
X141405428Y-83420858D01*
X139523513Y-83420858D01*
X139448471Y-83315470D01*
X139420160Y-83269980D01*
X139399978Y-83217399D01*
X139386572Y-83145262D01*
X139378587Y-83041101D01*
X139374669Y-82892451D01*
X139373464Y-82686845D01*
X139373428Y-82624573D01*
X139374064Y-82403767D01*
X139376925Y-82243025D01*
X139383445Y-82129843D01*
X139395057Y-82051717D01*
X139413192Y-81996144D01*
X139439284Y-81950620D01*
X139452824Y-81931674D01*
X139532219Y-81824286D01*
X141405428Y-81824286D01*
X143147143Y-81824286D01*
X143147143Y-79901143D01*
X138259558Y-79901143D01*
X137631714Y-80752091D01*
G36*
X131644571Y-80329302D02*
X131336143Y-80753858D01*
X131355789Y-86798956D01*
X131663694Y-87215080D01*
X131971599Y-87631205D01*
X132923871Y-87621531D01*
X133876143Y-87611858D01*
X133876143Y-85698257D01*
X133572643Y-85699957D01*
X133421036Y-85699014D01*
X133322841Y-85691117D01*
X133258938Y-85671772D01*
X133210208Y-85636484D01*
X133182572Y-85608245D01*
X133096000Y-85514832D01*
X133096000Y-83774946D01*
X133096080Y-83374536D01*
X133096496Y-83040271D01*
X133097507Y-82765727D01*
X133099377Y-82544476D01*
X133102365Y-82370094D01*
X133106734Y-82236154D01*
X133112744Y-82136230D01*
X133120657Y-82063898D01*
X133130735Y-82012731D01*
X133143238Y-81976303D01*
X133158427Y-81948189D01*
X133171042Y-81929673D01*
X133246084Y-81824286D01*
X134977915Y-81824286D01*
X135052958Y-81929673D01*
X135070223Y-81955784D01*
X135084614Y-81985627D01*
X135096394Y-82025628D01*
X135105824Y-82082213D01*
X135113164Y-82161807D01*
X135118676Y-82270837D01*
X135122622Y-82415728D01*
X135125262Y-82602907D01*
X135126859Y-82838798D01*
X135127673Y-83129827D01*
X135127965Y-83482421D01*
X135128000Y-83774946D01*
X135128000Y-85514832D01*
X135041536Y-85608128D01*
X134993306Y-85654090D01*
X134940965Y-85681523D01*
X134865433Y-85694800D01*
X134747630Y-85698295D01*
X134651464Y-85697552D01*
X134347857Y-85693679D01*
X134347857Y-87611858D01*
X135297184Y-87621525D01*
X136246510Y-87631193D01*
X136869714Y-86779873D01*
X136869714Y-80749807D01*
X136567652Y-80334546D01*
X136265591Y-79919286D01*
X134109295Y-79912016D01*
X131953000Y-79904746D01*
X131644571Y-80329302D01*
X131644571Y-80329302D01*
G37*
X131644571Y-80329302D02*
X131336143Y-80753858D01*
X131355789Y-86798956D01*
X131663694Y-87215080D01*
X131971599Y-87631205D01*
X132923871Y-87621531D01*
X133876143Y-87611858D01*
X133876143Y-85698257D01*
X133572643Y-85699957D01*
X133421036Y-85699014D01*
X133322841Y-85691117D01*
X133258938Y-85671772D01*
X133210208Y-85636484D01*
X133182572Y-85608245D01*
X133096000Y-85514832D01*
X133096000Y-83774946D01*
X133096080Y-83374536D01*
X133096496Y-83040271D01*
X133097507Y-82765727D01*
X133099377Y-82544476D01*
X133102365Y-82370094D01*
X133106734Y-82236154D01*
X133112744Y-82136230D01*
X133120657Y-82063898D01*
X133130735Y-82012731D01*
X133143238Y-81976303D01*
X133158427Y-81948189D01*
X133171042Y-81929673D01*
X133246084Y-81824286D01*
X134977915Y-81824286D01*
X135052958Y-81929673D01*
X135070223Y-81955784D01*
X135084614Y-81985627D01*
X135096394Y-82025628D01*
X135105824Y-82082213D01*
X135113164Y-82161807D01*
X135118676Y-82270837D01*
X135122622Y-82415728D01*
X135125262Y-82602907D01*
X135126859Y-82838798D01*
X135127673Y-83129827D01*
X135127965Y-83482421D01*
X135128000Y-83774946D01*
X135128000Y-85514832D01*
X135041536Y-85608128D01*
X134993306Y-85654090D01*
X134940965Y-85681523D01*
X134865433Y-85694800D01*
X134747630Y-85698295D01*
X134651464Y-85697552D01*
X134347857Y-85693679D01*
X134347857Y-87611858D01*
X135297184Y-87621525D01*
X136246510Y-87631193D01*
X136869714Y-86779873D01*
X136869714Y-80749807D01*
X136567652Y-80334546D01*
X136265591Y-79919286D01*
X134109295Y-79912016D01*
X131953000Y-79904746D01*
X131644571Y-80329302D01*
G36*
X125748143Y-79905299D02*
X125431708Y-80341335D01*
X125115274Y-80777371D01*
X125122511Y-81881400D01*
X125129749Y-82985429D01*
X126891143Y-82985429D01*
X126891143Y-82510242D01*
X126892984Y-82301573D01*
X126899494Y-82151618D01*
X126912151Y-82046590D01*
X126932433Y-81972703D01*
X126953395Y-81929671D01*
X127015647Y-81824286D01*
X128700487Y-81824286D01*
X128775529Y-81929673D01*
X128792810Y-81955809D01*
X128807212Y-81985681D01*
X128818997Y-82025722D01*
X128828428Y-82082364D01*
X128835767Y-82162041D01*
X128841276Y-82271185D01*
X128845216Y-82416229D01*
X128847850Y-82603606D01*
X128849441Y-82839749D01*
X128850249Y-83131090D01*
X128850538Y-83484063D01*
X128850571Y-83771544D01*
X128850571Y-85508028D01*
X128763444Y-85601991D01*
X128676316Y-85695954D01*
X127863958Y-85703652D01*
X127576998Y-85707088D01*
X127354250Y-85707562D01*
X127187399Y-85699473D01*
X127068132Y-85677219D01*
X126988137Y-85635201D01*
X126939101Y-85567815D01*
X126912710Y-85469461D01*
X126900653Y-85334538D01*
X126894615Y-85157445D01*
X126891143Y-85048176D01*
X126873000Y-84541937D01*
X126005325Y-84540960D01*
X125137651Y-84539983D01*
X125134468Y-85658634D01*
X125131285Y-86777286D01*
X125765851Y-87630000D01*
X129966692Y-87630000D01*
X130278688Y-87203643D01*
X130590685Y-86777286D01*
X130591485Y-83764279D01*
X130592286Y-80751271D01*
X130281120Y-80326207D01*
X129969955Y-79901143D01*
X125748143Y-79905299D01*
X125748143Y-79905299D01*
G37*
X125748143Y-79905299D02*
X125431708Y-80341335D01*
X125115274Y-80777371D01*
X125122511Y-81881400D01*
X125129749Y-82985429D01*
X126891143Y-82985429D01*
X126891143Y-82510242D01*
X126892984Y-82301573D01*
X126899494Y-82151618D01*
X126912151Y-82046590D01*
X126932433Y-81972703D01*
X126953395Y-81929671D01*
X127015647Y-81824286D01*
X128700487Y-81824286D01*
X128775529Y-81929673D01*
X128792810Y-81955809D01*
X128807212Y-81985681D01*
X128818997Y-82025722D01*
X128828428Y-82082364D01*
X128835767Y-82162041D01*
X128841276Y-82271185D01*
X128845216Y-82416229D01*
X128847850Y-82603606D01*
X128849441Y-82839749D01*
X128850249Y-83131090D01*
X128850538Y-83484063D01*
X128850571Y-83771544D01*
X128850571Y-85508028D01*
X128763444Y-85601991D01*
X128676316Y-85695954D01*
X127863958Y-85703652D01*
X127576998Y-85707088D01*
X127354250Y-85707562D01*
X127187399Y-85699473D01*
X127068132Y-85677219D01*
X126988137Y-85635201D01*
X126939101Y-85567815D01*
X126912710Y-85469461D01*
X126900653Y-85334538D01*
X126894615Y-85157445D01*
X126891143Y-85048176D01*
X126873000Y-84541937D01*
X126005325Y-84540960D01*
X125137651Y-84539983D01*
X125134468Y-85658634D01*
X125131285Y-86777286D01*
X125765851Y-87630000D01*
X129966692Y-87630000D01*
X130278688Y-87203643D01*
X130590685Y-86777286D01*
X130591485Y-83764279D01*
X130592286Y-80751271D01*
X130281120Y-80326207D01*
X129969955Y-79901143D01*
X125748143Y-79905299D01*
G36*
X122673387Y-81196907D02*
X122663857Y-82492671D01*
X121629714Y-81196926D01*
X120595571Y-79901180D01*
X119479786Y-79901162D01*
X119203567Y-79901768D01*
X118952236Y-79903492D01*
X118734553Y-79906182D01*
X118559278Y-79909684D01*
X118435172Y-79913845D01*
X118370995Y-79918511D01*
X118364000Y-79920700D01*
X118386016Y-79952119D01*
X118449049Y-80034329D01*
X118548577Y-80161615D01*
X118680081Y-80328262D01*
X118839037Y-80528556D01*
X119020925Y-80756781D01*
X119221223Y-81007223D01*
X119398996Y-81228845D01*
X119612841Y-81495385D01*
X119813478Y-81746040D01*
X119996159Y-81974836D01*
X120156135Y-82175799D01*
X120288657Y-82342954D01*
X120388976Y-82470328D01*
X120452343Y-82551945D01*
X120473264Y-82580316D01*
X120477602Y-82606615D01*
X120469410Y-82656925D01*
X120446778Y-82736251D01*
X120407799Y-82849597D01*
X120350565Y-83001966D01*
X120273167Y-83198363D01*
X120173697Y-83443792D01*
X120050247Y-83743256D01*
X119900909Y-84101760D01*
X119813259Y-84311100D01*
X119670434Y-84651852D01*
X119531852Y-84982643D01*
X119400908Y-85295365D01*
X119280994Y-85581904D01*
X119175504Y-85834151D01*
X119087830Y-86043994D01*
X119021367Y-86203322D01*
X118979507Y-86304025D01*
X118978867Y-86305572D01*
X118899784Y-86496753D01*
X118811843Y-86709408D01*
X118731511Y-86903718D01*
X118716279Y-86940572D01*
X118648429Y-87103731D01*
X118580656Y-87265025D01*
X118524947Y-87395973D01*
X118512689Y-87424366D01*
X118469903Y-87525675D01*
X118442290Y-87596308D01*
X118436571Y-87615440D01*
X118471317Y-87619192D01*
X118569405Y-87621942D01*
X118721614Y-87623634D01*
X118918721Y-87624212D01*
X119151504Y-87623621D01*
X119410740Y-87621806D01*
X119443147Y-87621503D01*
X120449723Y-87611858D01*
X120596888Y-87249000D01*
X120839701Y-86651690D01*
X121056549Y-86121165D01*
X121247388Y-85657526D01*
X121412179Y-85260870D01*
X121550877Y-84931298D01*
X121663442Y-84668909D01*
X121749832Y-84473801D01*
X121810005Y-84346075D01*
X121843918Y-84285828D01*
X121851042Y-84281069D01*
X121881844Y-84317708D01*
X121949731Y-84401635D01*
X122046907Y-84523111D01*
X122165575Y-84672394D01*
X122280665Y-84817858D01*
X122681755Y-85325858D01*
X122681877Y-86477929D01*
X122682000Y-87630000D01*
X124387428Y-87630000D01*
X124387428Y-79901143D01*
X122682916Y-79901143D01*
X122673387Y-81196907D01*
X122673387Y-81196907D01*
G37*
X122673387Y-81196907D02*
X122663857Y-82492671D01*
X121629714Y-81196926D01*
X120595571Y-79901180D01*
X119479786Y-79901162D01*
X119203567Y-79901768D01*
X118952236Y-79903492D01*
X118734553Y-79906182D01*
X118559278Y-79909684D01*
X118435172Y-79913845D01*
X118370995Y-79918511D01*
X118364000Y-79920700D01*
X118386016Y-79952119D01*
X118449049Y-80034329D01*
X118548577Y-80161615D01*
X118680081Y-80328262D01*
X118839037Y-80528556D01*
X119020925Y-80756781D01*
X119221223Y-81007223D01*
X119398996Y-81228845D01*
X119612841Y-81495385D01*
X119813478Y-81746040D01*
X119996159Y-81974836D01*
X120156135Y-82175799D01*
X120288657Y-82342954D01*
X120388976Y-82470328D01*
X120452343Y-82551945D01*
X120473264Y-82580316D01*
X120477602Y-82606615D01*
X120469410Y-82656925D01*
X120446778Y-82736251D01*
X120407799Y-82849597D01*
X120350565Y-83001966D01*
X120273167Y-83198363D01*
X120173697Y-83443792D01*
X120050247Y-83743256D01*
X119900909Y-84101760D01*
X119813259Y-84311100D01*
X119670434Y-84651852D01*
X119531852Y-84982643D01*
X119400908Y-85295365D01*
X119280994Y-85581904D01*
X119175504Y-85834151D01*
X119087830Y-86043994D01*
X119021367Y-86203322D01*
X118979507Y-86304025D01*
X118978867Y-86305572D01*
X118899784Y-86496753D01*
X118811843Y-86709408D01*
X118731511Y-86903718D01*
X118716279Y-86940572D01*
X118648429Y-87103731D01*
X118580656Y-87265025D01*
X118524947Y-87395973D01*
X118512689Y-87424366D01*
X118469903Y-87525675D01*
X118442290Y-87596308D01*
X118436571Y-87615440D01*
X118471317Y-87619192D01*
X118569405Y-87621942D01*
X118721614Y-87623634D01*
X118918721Y-87624212D01*
X119151504Y-87623621D01*
X119410740Y-87621806D01*
X119443147Y-87621503D01*
X120449723Y-87611858D01*
X120596888Y-87249000D01*
X120839701Y-86651690D01*
X121056549Y-86121165D01*
X121247388Y-85657526D01*
X121412179Y-85260870D01*
X121550877Y-84931298D01*
X121663442Y-84668909D01*
X121749832Y-84473801D01*
X121810005Y-84346075D01*
X121843918Y-84285828D01*
X121851042Y-84281069D01*
X121881844Y-84317708D01*
X121949731Y-84401635D01*
X122046907Y-84523111D01*
X122165575Y-84672394D01*
X122280665Y-84817858D01*
X122681755Y-85325858D01*
X122681877Y-86477929D01*
X122682000Y-87630000D01*
X124387428Y-87630000D01*
X124387428Y-79901143D01*
X122682916Y-79901143D01*
X122673387Y-81196907D01*
G36*
X112884857Y-81824286D02*
X116186857Y-81824286D01*
X116186857Y-87630000D01*
X117033524Y-87630000D01*
X117274412Y-87629006D01*
X117490715Y-87626214D01*
X117671987Y-87621916D01*
X117807787Y-87616401D01*
X117887671Y-87609961D01*
X117904381Y-87605810D01*
X117907667Y-87566976D01*
X117910821Y-87460333D01*
X117913814Y-87290643D01*
X117916615Y-87062667D01*
X117919196Y-86781167D01*
X117921526Y-86450905D01*
X117923575Y-86076644D01*
X117925315Y-85663144D01*
X117926713Y-85215169D01*
X117927742Y-84737480D01*
X117928371Y-84234838D01*
X117928571Y-83741381D01*
X117928571Y-79901143D01*
X112884857Y-79901143D01*
X112884857Y-81824286D01*
X112884857Y-81824286D01*
G37*
X112884857Y-81824286D02*
X116186857Y-81824286D01*
X116186857Y-87630000D01*
X117033524Y-87630000D01*
X117274412Y-87629006D01*
X117490715Y-87626214D01*
X117671987Y-87621916D01*
X117807787Y-87616401D01*
X117887671Y-87609961D01*
X117904381Y-87605810D01*
X117907667Y-87566976D01*
X117910821Y-87460333D01*
X117913814Y-87290643D01*
X117916615Y-87062667D01*
X117919196Y-86781167D01*
X117921526Y-86450905D01*
X117923575Y-86076644D01*
X117925315Y-85663144D01*
X117926713Y-85215169D01*
X117927742Y-84737480D01*
X117928371Y-84234838D01*
X117928571Y-83741381D01*
X117928571Y-79901143D01*
X112884857Y-79901143D01*
X112884857Y-81824286D01*
G36*
X112903000Y-87611858D02*
X114309071Y-87621355D01*
X115715143Y-87630853D01*
X115715143Y-85706858D01*
X114399786Y-85702542D01*
X114094253Y-85701419D01*
X113808843Y-85700141D01*
X113552383Y-85698763D01*
X113333700Y-85697344D01*
X113161620Y-85695940D01*
X113044971Y-85694608D01*
X112993714Y-85693470D01*
X112903000Y-85688715D01*
X112903000Y-87611858D01*
X112903000Y-87611858D01*
G37*
X112903000Y-87611858D02*
X114309071Y-87621355D01*
X115715143Y-87630853D01*
X115715143Y-85706858D01*
X114399786Y-85702542D01*
X114094253Y-85701419D01*
X113808843Y-85700141D01*
X113552383Y-85698763D01*
X113333700Y-85697344D01*
X113161620Y-85695940D01*
X113044971Y-85694608D01*
X112993714Y-85693470D01*
X112903000Y-85688715D01*
X112903000Y-87611858D01*
G36*
X109890234Y-82466512D02*
X109661367Y-82468274D01*
X109537500Y-82469682D01*
X108712000Y-82480079D01*
X108712000Y-87630000D01*
X109558666Y-87630000D01*
X109799555Y-87629006D01*
X110015857Y-87626214D01*
X110197130Y-87621916D01*
X110332930Y-87616401D01*
X110412814Y-87609961D01*
X110429524Y-87605810D01*
X110433541Y-87566399D01*
X110437350Y-87460288D01*
X110440896Y-87293346D01*
X110444122Y-87071445D01*
X110446974Y-86800455D01*
X110449396Y-86486247D01*
X110451334Y-86134691D01*
X110452732Y-85751658D01*
X110453535Y-85343018D01*
X110453714Y-85033406D01*
X110453463Y-84521592D01*
X110452661Y-84078153D01*
X110451233Y-83698898D01*
X110449105Y-83379633D01*
X110446203Y-83116164D01*
X110442453Y-82904298D01*
X110437779Y-82739841D01*
X110432109Y-82618601D01*
X110425368Y-82536384D01*
X110417481Y-82488996D01*
X110408375Y-82472245D01*
X110408357Y-82472240D01*
X110360313Y-82468956D01*
X110250650Y-82466885D01*
X110090309Y-82466060D01*
X109890234Y-82466512D01*
X109890234Y-82466512D01*
G37*
X109890234Y-82466512D02*
X109661367Y-82468274D01*
X109537500Y-82469682D01*
X108712000Y-82480079D01*
X108712000Y-87630000D01*
X109558666Y-87630000D01*
X109799555Y-87629006D01*
X110015857Y-87626214D01*
X110197130Y-87621916D01*
X110332930Y-87616401D01*
X110412814Y-87609961D01*
X110429524Y-87605810D01*
X110433541Y-87566399D01*
X110437350Y-87460288D01*
X110440896Y-87293346D01*
X110444122Y-87071445D01*
X110446974Y-86800455D01*
X110449396Y-86486247D01*
X110451334Y-86134691D01*
X110452732Y-85751658D01*
X110453535Y-85343018D01*
X110453714Y-85033406D01*
X110453463Y-84521592D01*
X110452661Y-84078153D01*
X110451233Y-83698898D01*
X110449105Y-83379633D01*
X110446203Y-83116164D01*
X110442453Y-82904298D01*
X110437779Y-82739841D01*
X110432109Y-82618601D01*
X110425368Y-82536384D01*
X110417481Y-82488996D01*
X110408375Y-82472245D01*
X110408357Y-82472240D01*
X110360313Y-82468956D01*
X110250650Y-82466885D01*
X110090309Y-82466060D01*
X109890234Y-82466512D01*
G36*
X99277714Y-81824286D02*
X102428652Y-81824286D01*
X102504183Y-81946498D01*
X102548463Y-82039449D01*
X102572024Y-82152604D01*
X102579644Y-82310364D01*
X102579714Y-82332286D01*
X102573609Y-82496685D01*
X102552107Y-82613694D01*
X102510433Y-82707717D01*
X102504183Y-82718075D01*
X102428652Y-82840286D01*
X101134397Y-82841665D01*
X99840143Y-82843043D01*
X99540786Y-83247374D01*
X99241428Y-83651705D01*
X99241428Y-86782003D01*
X99553367Y-87206002D01*
X99865306Y-87630000D01*
X104240393Y-87630000D01*
X104262396Y-87548358D01*
X104268201Y-87490176D01*
X104272712Y-87370530D01*
X104275777Y-87200519D01*
X104277242Y-86991243D01*
X104276954Y-86753798D01*
X104275699Y-86583987D01*
X104267000Y-85701260D01*
X101171652Y-85709468D01*
X101068662Y-85620879D01*
X101018100Y-85572558D01*
X100987083Y-85521713D01*
X100970397Y-85449344D01*
X100962832Y-85336452D01*
X100960214Y-85225581D01*
X100960751Y-85059970D01*
X100971614Y-84945811D01*
X100996097Y-84862327D01*
X101026942Y-84804865D01*
X101099126Y-84690858D01*
X102388777Y-84690858D01*
X102737161Y-84690453D01*
X103019738Y-84689063D01*
X103243271Y-84686423D01*
X103414522Y-84682267D01*
X103540253Y-84676329D01*
X103627225Y-84668346D01*
X103682200Y-84658052D01*
X103711940Y-84645182D01*
X103718714Y-84638712D01*
X103755916Y-84590385D01*
X103826919Y-84498009D01*
X103921336Y-84375103D01*
X104022971Y-84242749D01*
X104286942Y-83898933D01*
X104321708Y-80786317D01*
X103686428Y-79904869D01*
X99277714Y-79901143D01*
X99277714Y-81824286D01*
X99277714Y-81824286D01*
G37*
X99277714Y-81824286D02*
X102428652Y-81824286D01*
X102504183Y-81946498D01*
X102548463Y-82039449D01*
X102572024Y-82152604D01*
X102579644Y-82310364D01*
X102579714Y-82332286D01*
X102573609Y-82496685D01*
X102552107Y-82613694D01*
X102510433Y-82707717D01*
X102504183Y-82718075D01*
X102428652Y-82840286D01*
X101134397Y-82841665D01*
X99840143Y-82843043D01*
X99540786Y-83247374D01*
X99241428Y-83651705D01*
X99241428Y-86782003D01*
X99553367Y-87206002D01*
X99865306Y-87630000D01*
X104240393Y-87630000D01*
X104262396Y-87548358D01*
X104268201Y-87490176D01*
X104272712Y-87370530D01*
X104275777Y-87200519D01*
X104277242Y-86991243D01*
X104276954Y-86753798D01*
X104275699Y-86583987D01*
X104267000Y-85701260D01*
X101171652Y-85709468D01*
X101068662Y-85620879D01*
X101018100Y-85572558D01*
X100987083Y-85521713D01*
X100970397Y-85449344D01*
X100962832Y-85336452D01*
X100960214Y-85225581D01*
X100960751Y-85059970D01*
X100971614Y-84945811D01*
X100996097Y-84862327D01*
X101026942Y-84804865D01*
X101099126Y-84690858D01*
X102388777Y-84690858D01*
X102737161Y-84690453D01*
X103019738Y-84689063D01*
X103243271Y-84686423D01*
X103414522Y-84682267D01*
X103540253Y-84676329D01*
X103627225Y-84668346D01*
X103682200Y-84658052D01*
X103711940Y-84645182D01*
X103718714Y-84638712D01*
X103755916Y-84590385D01*
X103826919Y-84498009D01*
X103921336Y-84375103D01*
X104022971Y-84242749D01*
X104286942Y-83898933D01*
X104321708Y-80786317D01*
X103686428Y-79904869D01*
X99277714Y-79901143D01*
X99277714Y-81824286D01*
G36*
X96771798Y-79919286D02*
X96772169Y-83765572D01*
X96772539Y-87611858D01*
X97625984Y-87621586D01*
X98479428Y-87631314D01*
X98479428Y-79899830D01*
X96771798Y-79919286D01*
X96771798Y-79919286D01*
G37*
X96771798Y-79919286D02*
X96772169Y-83765572D01*
X96772539Y-87611858D01*
X97625984Y-87621586D01*
X98479428Y-87631314D01*
X98479428Y-79899830D01*
X96771798Y-79919286D01*
G36*
X92927714Y-87630000D02*
X93780428Y-87630000D01*
X94020625Y-87628895D01*
X94234802Y-87625793D01*
X94412907Y-87621013D01*
X94544888Y-87614877D01*
X94620696Y-87607703D01*
X94635088Y-87602786D01*
X94635423Y-87561644D01*
X94635552Y-87455884D01*
X94635486Y-87293459D01*
X94635233Y-87082321D01*
X94634805Y-86830423D01*
X94634211Y-86545719D01*
X94633462Y-86236160D01*
X94633240Y-86151358D01*
X94629447Y-84727143D01*
X96302286Y-84727143D01*
X96302286Y-82804000D01*
X94628576Y-82804000D01*
X94635904Y-81361643D01*
X94643233Y-79919286D01*
X93785473Y-79909558D01*
X92927714Y-79899830D01*
X92927714Y-87630000D01*
X92927714Y-87630000D01*
G37*
X92927714Y-87630000D02*
X93780428Y-87630000D01*
X94020625Y-87628895D01*
X94234802Y-87625793D01*
X94412907Y-87621013D01*
X94544888Y-87614877D01*
X94620696Y-87607703D01*
X94635088Y-87602786D01*
X94635423Y-87561644D01*
X94635552Y-87455884D01*
X94635486Y-87293459D01*
X94635233Y-87082321D01*
X94634805Y-86830423D01*
X94634211Y-86545719D01*
X94633462Y-86236160D01*
X94633240Y-86151358D01*
X94629447Y-84727143D01*
X96302286Y-84727143D01*
X96302286Y-82804000D01*
X94628576Y-82804000D01*
X94635904Y-81361643D01*
X94643233Y-79919286D01*
X93785473Y-79909558D01*
X92927714Y-79899830D01*
X92927714Y-87630000D01*
G36*
X86940571Y-80329300D02*
X86632143Y-80753858D01*
X86638834Y-83765572D01*
X86645526Y-86777286D01*
X86947263Y-87202272D01*
X87249000Y-87627257D01*
X88210571Y-87619557D01*
X89172143Y-87611858D01*
X89172143Y-85698257D01*
X88868643Y-85699957D01*
X88717036Y-85699014D01*
X88618841Y-85691117D01*
X88554938Y-85671772D01*
X88506208Y-85636484D01*
X88478572Y-85608245D01*
X88392000Y-85514832D01*
X88392000Y-83774943D01*
X88392184Y-83371165D01*
X88392881Y-83033590D01*
X88394305Y-82755852D01*
X88396671Y-82531586D01*
X88400193Y-82354424D01*
X88405087Y-82217999D01*
X88411568Y-82115945D01*
X88419849Y-82041894D01*
X88430146Y-81989482D01*
X88442673Y-81952340D01*
X88454252Y-81929671D01*
X88516504Y-81824286D01*
X90273915Y-81824286D01*
X90348958Y-81929673D01*
X90366223Y-81955784D01*
X90380614Y-81985627D01*
X90392394Y-82025628D01*
X90401824Y-82082213D01*
X90409164Y-82161807D01*
X90414676Y-82270837D01*
X90418622Y-82415728D01*
X90421262Y-82602907D01*
X90422859Y-82838798D01*
X90423673Y-83129827D01*
X90423965Y-83482421D01*
X90424000Y-83774946D01*
X90424000Y-85514832D01*
X90337536Y-85608128D01*
X90289306Y-85654090D01*
X90236965Y-85681523D01*
X90161433Y-85694800D01*
X90043630Y-85698295D01*
X89947464Y-85697552D01*
X89643857Y-85693679D01*
X89643857Y-87611858D01*
X90592197Y-87621523D01*
X91540537Y-87631189D01*
X91853125Y-87204790D01*
X92165714Y-86778391D01*
X92165714Y-80753420D01*
X91561068Y-79919286D01*
X89405034Y-79912015D01*
X87249000Y-79904743D01*
X86940571Y-80329300D01*
X86940571Y-80329300D01*
G37*
X86940571Y-80329300D02*
X86632143Y-80753858D01*
X86638834Y-83765572D01*
X86645526Y-86777286D01*
X86947263Y-87202272D01*
X87249000Y-87627257D01*
X88210571Y-87619557D01*
X89172143Y-87611858D01*
X89172143Y-85698257D01*
X88868643Y-85699957D01*
X88717036Y-85699014D01*
X88618841Y-85691117D01*
X88554938Y-85671772D01*
X88506208Y-85636484D01*
X88478572Y-85608245D01*
X88392000Y-85514832D01*
X88392000Y-83774943D01*
X88392184Y-83371165D01*
X88392881Y-83033590D01*
X88394305Y-82755852D01*
X88396671Y-82531586D01*
X88400193Y-82354424D01*
X88405087Y-82217999D01*
X88411568Y-82115945D01*
X88419849Y-82041894D01*
X88430146Y-81989482D01*
X88442673Y-81952340D01*
X88454252Y-81929671D01*
X88516504Y-81824286D01*
X90273915Y-81824286D01*
X90348958Y-81929673D01*
X90366223Y-81955784D01*
X90380614Y-81985627D01*
X90392394Y-82025628D01*
X90401824Y-82082213D01*
X90409164Y-82161807D01*
X90414676Y-82270837D01*
X90418622Y-82415728D01*
X90421262Y-82602907D01*
X90422859Y-82838798D01*
X90423673Y-83129827D01*
X90423965Y-83482421D01*
X90424000Y-83774946D01*
X90424000Y-85514832D01*
X90337536Y-85608128D01*
X90289306Y-85654090D01*
X90236965Y-85681523D01*
X90161433Y-85694800D01*
X90043630Y-85698295D01*
X89947464Y-85697552D01*
X89643857Y-85693679D01*
X89643857Y-87611858D01*
X90592197Y-87621523D01*
X91540537Y-87631189D01*
X91853125Y-87204790D01*
X92165714Y-86778391D01*
X92165714Y-80753420D01*
X91561068Y-79919286D01*
X89405034Y-79912015D01*
X87249000Y-79904743D01*
X86940571Y-80329300D01*
G36*
X80372857Y-80752753D02*
X80373754Y-82549448D01*
X80374650Y-84346143D01*
X80685111Y-84772939D01*
X80995573Y-85199735D01*
X82344286Y-85190225D01*
X83693000Y-85180715D01*
X83693000Y-83366429D01*
X82973617Y-83357994D01*
X82702718Y-83355606D01*
X82495673Y-83350654D01*
X82343929Y-83335700D01*
X82238933Y-83303305D01*
X82172130Y-83246032D01*
X82134968Y-83156442D01*
X82118894Y-83027099D01*
X82115353Y-82850563D01*
X82115792Y-82619398D01*
X82115778Y-82612031D01*
X82115975Y-82393884D01*
X82118601Y-82235613D01*
X82125114Y-82124531D01*
X82136972Y-82047948D01*
X82155634Y-81993175D01*
X82182558Y-81947525D01*
X82193966Y-81931674D01*
X82273362Y-81824286D01*
X84146137Y-81824286D01*
X84155425Y-84718072D01*
X84164714Y-87611858D01*
X85888286Y-87631314D01*
X85888286Y-79901143D01*
X80997163Y-79901143D01*
X80372857Y-80752753D01*
X80372857Y-80752753D01*
G37*
X80372857Y-80752753D02*
X80373754Y-82549448D01*
X80374650Y-84346143D01*
X80685111Y-84772939D01*
X80995573Y-85199735D01*
X82344286Y-85190225D01*
X83693000Y-85180715D01*
X83693000Y-83366429D01*
X82973617Y-83357994D01*
X82702718Y-83355606D01*
X82495673Y-83350654D01*
X82343929Y-83335700D01*
X82238933Y-83303305D01*
X82172130Y-83246032D01*
X82134968Y-83156442D01*
X82118894Y-83027099D01*
X82115353Y-82850563D01*
X82115792Y-82619398D01*
X82115778Y-82612031D01*
X82115975Y-82393884D01*
X82118601Y-82235613D01*
X82125114Y-82124531D01*
X82136972Y-82047948D01*
X82155634Y-81993175D01*
X82182558Y-81947525D01*
X82193966Y-81931674D01*
X82273362Y-81824286D01*
X84146137Y-81824286D01*
X84155425Y-84718072D01*
X84164714Y-87611858D01*
X85888286Y-87631314D01*
X85888286Y-79901143D01*
X80997163Y-79901143D01*
X80372857Y-80752753D01*
G36*
X113284000Y-84690858D02*
X114499571Y-84690858D01*
X114788439Y-84690076D01*
X115052862Y-84687858D01*
X115284432Y-84684390D01*
X115474742Y-84679861D01*
X115615384Y-84674459D01*
X115697951Y-84668372D01*
X115716721Y-84663643D01*
X115716990Y-84623849D01*
X115717161Y-84523602D01*
X115717244Y-84375019D01*
X115717246Y-84190218D01*
X115717176Y-83981318D01*
X115717041Y-83760436D01*
X115716852Y-83539690D01*
X115716615Y-83331198D01*
X115716339Y-83147078D01*
X115716033Y-82999448D01*
X115715705Y-82900426D01*
X115715479Y-82867500D01*
X115680511Y-82861035D01*
X115581368Y-82855119D01*
X115426447Y-82849939D01*
X115224144Y-82845684D01*
X114982856Y-82842542D01*
X114710978Y-82840701D01*
X114499571Y-82840286D01*
X113284000Y-82840286D01*
X113284000Y-84690858D01*
X113284000Y-84690858D01*
G37*
X113284000Y-84690858D02*
X114499571Y-84690858D01*
X114788439Y-84690076D01*
X115052862Y-84687858D01*
X115284432Y-84684390D01*
X115474742Y-84679861D01*
X115615384Y-84674459D01*
X115697951Y-84668372D01*
X115716721Y-84663643D01*
X115716990Y-84623849D01*
X115717161Y-84523602D01*
X115717244Y-84375019D01*
X115717246Y-84190218D01*
X115717176Y-83981318D01*
X115717041Y-83760436D01*
X115716852Y-83539690D01*
X115716615Y-83331198D01*
X115716339Y-83147078D01*
X115716033Y-82999448D01*
X115715705Y-82900426D01*
X115715479Y-82867500D01*
X115680511Y-82861035D01*
X115581368Y-82855119D01*
X115426447Y-82849939D01*
X115224144Y-82845684D01*
X114982856Y-82842542D01*
X114710978Y-82840701D01*
X114499571Y-82840286D01*
X113284000Y-82840286D01*
X113284000Y-84690858D01*
G36*
X106897714Y-81824286D02*
X112268000Y-81824286D01*
X112268000Y-79901143D01*
X106897714Y-79901143D01*
X106897714Y-81824286D01*
X106897714Y-81824286D01*
G37*
X106897714Y-81824286D02*
X112268000Y-81824286D01*
X112268000Y-79901143D01*
X106897714Y-79901143D01*
X106897714Y-81824286D01*
G36*
X93249366Y-74953021D02*
X92774392Y-74972668D01*
X92326534Y-75003016D01*
X91913546Y-75043449D01*
X91543184Y-75093350D01*
X91223202Y-75152103D01*
X90961358Y-75219092D01*
X90796118Y-75279448D01*
X90757978Y-75293407D01*
X90707776Y-75305146D01*
X90639166Y-75314888D01*
X90545802Y-75322857D01*
X90421338Y-75329278D01*
X90259426Y-75334373D01*
X90053721Y-75338367D01*
X89797877Y-75341484D01*
X89485546Y-75343947D01*
X89110383Y-75345980D01*
X88881857Y-75346969D01*
X88383391Y-75349759D01*
X87946020Y-75354147D01*
X87558274Y-75360654D01*
X87208684Y-75369803D01*
X86885781Y-75382116D01*
X86578096Y-75398115D01*
X86274161Y-75418322D01*
X85962505Y-75443261D01*
X85631659Y-75473452D01*
X85270156Y-75509418D01*
X85235143Y-75513016D01*
X84813967Y-75560687D01*
X84362993Y-75619404D01*
X83897668Y-75686667D01*
X83433435Y-75759971D01*
X82985741Y-75836815D01*
X82570031Y-75914696D01*
X82201750Y-75991111D01*
X82005714Y-76036244D01*
X81677279Y-76118227D01*
X81366157Y-76200980D01*
X81079936Y-76282098D01*
X80826204Y-76359180D01*
X80612552Y-76429822D01*
X80446567Y-76491622D01*
X80335839Y-76542177D01*
X80287955Y-76579085D01*
X80287434Y-76580295D01*
X80284541Y-76625007D01*
X80320114Y-76666560D01*
X80404437Y-76712273D01*
X80547792Y-76769465D01*
X80559137Y-76773658D01*
X80840862Y-76868156D01*
X81183194Y-76967638D01*
X81574547Y-77069691D01*
X82003333Y-77171901D01*
X82457967Y-77271853D01*
X82926862Y-77367134D01*
X83398431Y-77455329D01*
X83861089Y-77534025D01*
X84303249Y-77600807D01*
X84713324Y-77653262D01*
X84854143Y-77668509D01*
X85007378Y-77684342D01*
X85161064Y-77700489D01*
X85235143Y-77708408D01*
X85920001Y-77773691D01*
X86629025Y-77823653D01*
X87371333Y-77858608D01*
X88156047Y-77878871D01*
X88992288Y-77884756D01*
X89889176Y-77876575D01*
X90043000Y-77873907D01*
X90293021Y-77869747D01*
X90483957Y-77868430D01*
X90629271Y-77870989D01*
X90742428Y-77878459D01*
X90836890Y-77891873D01*
X90926123Y-77912265D01*
X91023588Y-77940670D01*
X91059907Y-77951995D01*
X91245098Y-78005215D01*
X91437996Y-78049708D01*
X91646959Y-78086228D01*
X91880348Y-78115529D01*
X92146519Y-78138363D01*
X92453834Y-78155485D01*
X92810650Y-78167647D01*
X93225326Y-78175605D01*
X93580857Y-78179278D01*
X93907420Y-78180712D01*
X94231274Y-78180283D01*
X94540264Y-78178138D01*
X94822237Y-78174428D01*
X95065039Y-78169303D01*
X95256515Y-78162911D01*
X95358857Y-78157396D01*
X95653007Y-78135230D01*
X95944129Y-78110408D01*
X96225722Y-78083779D01*
X96491282Y-78056192D01*
X96734308Y-78028497D01*
X96948298Y-78001542D01*
X97126749Y-77976177D01*
X97263159Y-77953251D01*
X97351027Y-77933613D01*
X97383849Y-77918113D01*
X97355124Y-77907601D01*
X97300143Y-77903836D01*
X97194422Y-77896624D01*
X97118714Y-77887043D01*
X97057959Y-77877392D01*
X96940327Y-77859705D01*
X96780786Y-77836196D01*
X96594302Y-77809083D01*
X96519157Y-77798249D01*
X96310406Y-77766260D01*
X96081126Y-77727823D01*
X95843300Y-77685303D01*
X95608913Y-77641065D01*
X95389948Y-77597474D01*
X95198391Y-77556896D01*
X95046225Y-77521696D01*
X94945434Y-77494239D01*
X94912135Y-77481063D01*
X94922254Y-77462688D01*
X94989863Y-77439889D01*
X95100478Y-77417496D01*
X95104857Y-77416794D01*
X95340714Y-77379286D01*
X95351636Y-77229895D01*
X95362558Y-77080503D01*
X95823350Y-77212359D01*
X96284143Y-77344214D01*
X96628857Y-77301355D01*
X96777763Y-77282649D01*
X96896340Y-77267388D01*
X96968450Y-77257669D01*
X96982643Y-77255391D01*
X96988403Y-77219123D01*
X96991974Y-77124525D01*
X96993558Y-76985797D01*
X96993403Y-76858129D01*
X96777652Y-76858129D01*
X96777447Y-76997579D01*
X96775951Y-77077630D01*
X96760030Y-77115471D01*
X96707026Y-77141869D01*
X96604793Y-77160485D01*
X96456500Y-77173908D01*
X96425699Y-77174238D01*
X96403820Y-77163146D01*
X96389338Y-77130142D01*
X96380726Y-77064736D01*
X96376459Y-76956439D01*
X96375011Y-76794760D01*
X96374857Y-76612670D01*
X96374857Y-76045624D01*
X96557083Y-76063134D01*
X96664393Y-76075981D01*
X96737475Y-76089480D01*
X96754724Y-76096058D01*
X96759699Y-76134550D01*
X96764672Y-76229686D01*
X96769298Y-76365539D01*
X96773233Y-76526182D01*
X96776133Y-76695687D01*
X96777652Y-76858129D01*
X96993403Y-76858129D01*
X96993353Y-76817143D01*
X96991562Y-76632764D01*
X96988384Y-76446862D01*
X96984020Y-76273637D01*
X96978670Y-76127293D01*
X96972534Y-76022031D01*
X96965814Y-75972052D01*
X96964500Y-75969986D01*
X96916681Y-75958104D01*
X96818532Y-75943364D01*
X96701428Y-75930025D01*
X96562611Y-75914944D01*
X96440660Y-75899423D01*
X96373509Y-75888852D01*
X96303390Y-75892550D01*
X96179774Y-75916170D01*
X96017879Y-75956285D01*
X95832922Y-76009471D01*
X95820152Y-76013396D01*
X95358857Y-76155735D01*
X95358857Y-75998084D01*
X95359026Y-75985575D01*
X95177428Y-75985575D01*
X95177428Y-77239730D01*
X94896214Y-77281888D01*
X94350752Y-77358335D01*
X93778134Y-77427893D01*
X93170855Y-77491229D01*
X92521414Y-77549006D01*
X91822307Y-77601891D01*
X91066030Y-77650547D01*
X90245082Y-77695641D01*
X90206286Y-77697608D01*
X89984302Y-77705898D01*
X89704602Y-77711781D01*
X89382000Y-77715300D01*
X89031307Y-77716500D01*
X88667338Y-77715423D01*
X88304907Y-77712114D01*
X87958827Y-77706616D01*
X87643911Y-77698973D01*
X87376000Y-77689273D01*
X86182395Y-77618648D01*
X85053283Y-77516189D01*
X83987886Y-77381784D01*
X82985427Y-77215320D01*
X82045126Y-77016684D01*
X81207428Y-76797711D01*
X80981119Y-76732641D01*
X80820152Y-76684382D01*
X80720580Y-76648172D01*
X80678453Y-76619253D01*
X80689823Y-76592864D01*
X80750741Y-76564245D01*
X80857259Y-76528634D01*
X80957743Y-76496709D01*
X81565501Y-76319380D01*
X82237194Y-76155959D01*
X82965308Y-76007638D01*
X83742330Y-75875606D01*
X84560745Y-75761054D01*
X85413040Y-75665171D01*
X86291702Y-75589148D01*
X86958714Y-75546142D01*
X87379299Y-75527949D01*
X87857174Y-75515919D01*
X88377334Y-75509873D01*
X88924774Y-75509635D01*
X89484490Y-75515028D01*
X90041478Y-75525874D01*
X90580732Y-75541997D01*
X91087248Y-75563218D01*
X91546022Y-75589362D01*
X91730286Y-75602485D01*
X92248756Y-75644501D01*
X92765810Y-75690911D01*
X93270340Y-75740502D01*
X93751237Y-75792062D01*
X94197392Y-75844379D01*
X94597696Y-75896241D01*
X94941041Y-75946437D01*
X95059500Y-75965703D01*
X95177428Y-75985575D01*
X95359026Y-75985575D01*
X95359748Y-75932252D01*
X95354893Y-75886350D01*
X95332995Y-75854766D01*
X95282762Y-75831887D01*
X95192897Y-75812100D01*
X95052107Y-75789792D01*
X94891409Y-75765783D01*
X94770129Y-75745647D01*
X94680999Y-75727470D01*
X94645033Y-75715987D01*
X94668457Y-75699334D01*
X94753980Y-75672180D01*
X94892202Y-75636449D01*
X95073724Y-75594067D01*
X95289144Y-75546959D01*
X95529063Y-75497052D01*
X95784081Y-75446271D01*
X96044798Y-75396541D01*
X96301813Y-75349788D01*
X96545727Y-75307937D01*
X96767139Y-75272915D01*
X96901000Y-75253855D01*
X97056589Y-75232257D01*
X97170569Y-75213720D01*
X97239444Y-75197190D01*
X97259716Y-75181612D01*
X97227890Y-75165931D01*
X97140468Y-75149093D01*
X96993955Y-75130044D01*
X96784853Y-75107729D01*
X96509666Y-75081093D01*
X96247141Y-75056663D01*
X96051366Y-75040491D01*
X95801537Y-75022752D01*
X95516121Y-75004588D01*
X95213586Y-74987146D01*
X94912397Y-74971569D01*
X94759426Y-74964452D01*
X94249638Y-74948297D01*
X93743700Y-74944692D01*
X93249366Y-74953021D01*
X93249366Y-74953021D01*
G37*
X93249366Y-74953021D02*
X92774392Y-74972668D01*
X92326534Y-75003016D01*
X91913546Y-75043449D01*
X91543184Y-75093350D01*
X91223202Y-75152103D01*
X90961358Y-75219092D01*
X90796118Y-75279448D01*
X90757978Y-75293407D01*
X90707776Y-75305146D01*
X90639166Y-75314888D01*
X90545802Y-75322857D01*
X90421338Y-75329278D01*
X90259426Y-75334373D01*
X90053721Y-75338367D01*
X89797877Y-75341484D01*
X89485546Y-75343947D01*
X89110383Y-75345980D01*
X88881857Y-75346969D01*
X88383391Y-75349759D01*
X87946020Y-75354147D01*
X87558274Y-75360654D01*
X87208684Y-75369803D01*
X86885781Y-75382116D01*
X86578096Y-75398115D01*
X86274161Y-75418322D01*
X85962505Y-75443261D01*
X85631659Y-75473452D01*
X85270156Y-75509418D01*
X85235143Y-75513016D01*
X84813967Y-75560687D01*
X84362993Y-75619404D01*
X83897668Y-75686667D01*
X83433435Y-75759971D01*
X82985741Y-75836815D01*
X82570031Y-75914696D01*
X82201750Y-75991111D01*
X82005714Y-76036244D01*
X81677279Y-76118227D01*
X81366157Y-76200980D01*
X81079936Y-76282098D01*
X80826204Y-76359180D01*
X80612552Y-76429822D01*
X80446567Y-76491622D01*
X80335839Y-76542177D01*
X80287955Y-76579085D01*
X80287434Y-76580295D01*
X80284541Y-76625007D01*
X80320114Y-76666560D01*
X80404437Y-76712273D01*
X80547792Y-76769465D01*
X80559137Y-76773658D01*
X80840862Y-76868156D01*
X81183194Y-76967638D01*
X81574547Y-77069691D01*
X82003333Y-77171901D01*
X82457967Y-77271853D01*
X82926862Y-77367134D01*
X83398431Y-77455329D01*
X83861089Y-77534025D01*
X84303249Y-77600807D01*
X84713324Y-77653262D01*
X84854143Y-77668509D01*
X85007378Y-77684342D01*
X85161064Y-77700489D01*
X85235143Y-77708408D01*
X85920001Y-77773691D01*
X86629025Y-77823653D01*
X87371333Y-77858608D01*
X88156047Y-77878871D01*
X88992288Y-77884756D01*
X89889176Y-77876575D01*
X90043000Y-77873907D01*
X90293021Y-77869747D01*
X90483957Y-77868430D01*
X90629271Y-77870989D01*
X90742428Y-77878459D01*
X90836890Y-77891873D01*
X90926123Y-77912265D01*
X91023588Y-77940670D01*
X91059907Y-77951995D01*
X91245098Y-78005215D01*
X91437996Y-78049708D01*
X91646959Y-78086228D01*
X91880348Y-78115529D01*
X92146519Y-78138363D01*
X92453834Y-78155485D01*
X92810650Y-78167647D01*
X93225326Y-78175605D01*
X93580857Y-78179278D01*
X93907420Y-78180712D01*
X94231274Y-78180283D01*
X94540264Y-78178138D01*
X94822237Y-78174428D01*
X95065039Y-78169303D01*
X95256515Y-78162911D01*
X95358857Y-78157396D01*
X95653007Y-78135230D01*
X95944129Y-78110408D01*
X96225722Y-78083779D01*
X96491282Y-78056192D01*
X96734308Y-78028497D01*
X96948298Y-78001542D01*
X97126749Y-77976177D01*
X97263159Y-77953251D01*
X97351027Y-77933613D01*
X97383849Y-77918113D01*
X97355124Y-77907601D01*
X97300143Y-77903836D01*
X97194422Y-77896624D01*
X97118714Y-77887043D01*
X97057959Y-77877392D01*
X96940327Y-77859705D01*
X96780786Y-77836196D01*
X96594302Y-77809083D01*
X96519157Y-77798249D01*
X96310406Y-77766260D01*
X96081126Y-77727823D01*
X95843300Y-77685303D01*
X95608913Y-77641065D01*
X95389948Y-77597474D01*
X95198391Y-77556896D01*
X95046225Y-77521696D01*
X94945434Y-77494239D01*
X94912135Y-77481063D01*
X94922254Y-77462688D01*
X94989863Y-77439889D01*
X95100478Y-77417496D01*
X95104857Y-77416794D01*
X95340714Y-77379286D01*
X95351636Y-77229895D01*
X95362558Y-77080503D01*
X95823350Y-77212359D01*
X96284143Y-77344214D01*
X96628857Y-77301355D01*
X96777763Y-77282649D01*
X96896340Y-77267388D01*
X96968450Y-77257669D01*
X96982643Y-77255391D01*
X96988403Y-77219123D01*
X96991974Y-77124525D01*
X96993558Y-76985797D01*
X96993403Y-76858129D01*
X96777652Y-76858129D01*
X96777447Y-76997579D01*
X96775951Y-77077630D01*
X96760030Y-77115471D01*
X96707026Y-77141869D01*
X96604793Y-77160485D01*
X96456500Y-77173908D01*
X96425699Y-77174238D01*
X96403820Y-77163146D01*
X96389338Y-77130142D01*
X96380726Y-77064736D01*
X96376459Y-76956439D01*
X96375011Y-76794760D01*
X96374857Y-76612670D01*
X96374857Y-76045624D01*
X96557083Y-76063134D01*
X96664393Y-76075981D01*
X96737475Y-76089480D01*
X96754724Y-76096058D01*
X96759699Y-76134550D01*
X96764672Y-76229686D01*
X96769298Y-76365539D01*
X96773233Y-76526182D01*
X96776133Y-76695687D01*
X96777652Y-76858129D01*
X96993403Y-76858129D01*
X96993353Y-76817143D01*
X96991562Y-76632764D01*
X96988384Y-76446862D01*
X96984020Y-76273637D01*
X96978670Y-76127293D01*
X96972534Y-76022031D01*
X96965814Y-75972052D01*
X96964500Y-75969986D01*
X96916681Y-75958104D01*
X96818532Y-75943364D01*
X96701428Y-75930025D01*
X96562611Y-75914944D01*
X96440660Y-75899423D01*
X96373509Y-75888852D01*
X96303390Y-75892550D01*
X96179774Y-75916170D01*
X96017879Y-75956285D01*
X95832922Y-76009471D01*
X95820152Y-76013396D01*
X95358857Y-76155735D01*
X95358857Y-75998084D01*
X95359026Y-75985575D01*
X95177428Y-75985575D01*
X95177428Y-77239730D01*
X94896214Y-77281888D01*
X94350752Y-77358335D01*
X93778134Y-77427893D01*
X93170855Y-77491229D01*
X92521414Y-77549006D01*
X91822307Y-77601891D01*
X91066030Y-77650547D01*
X90245082Y-77695641D01*
X90206286Y-77697608D01*
X89984302Y-77705898D01*
X89704602Y-77711781D01*
X89382000Y-77715300D01*
X89031307Y-77716500D01*
X88667338Y-77715423D01*
X88304907Y-77712114D01*
X87958827Y-77706616D01*
X87643911Y-77698973D01*
X87376000Y-77689273D01*
X86182395Y-77618648D01*
X85053283Y-77516189D01*
X83987886Y-77381784D01*
X82985427Y-77215320D01*
X82045126Y-77016684D01*
X81207428Y-76797711D01*
X80981119Y-76732641D01*
X80820152Y-76684382D01*
X80720580Y-76648172D01*
X80678453Y-76619253D01*
X80689823Y-76592864D01*
X80750741Y-76564245D01*
X80857259Y-76528634D01*
X80957743Y-76496709D01*
X81565501Y-76319380D01*
X82237194Y-76155959D01*
X82965308Y-76007638D01*
X83742330Y-75875606D01*
X84560745Y-75761054D01*
X85413040Y-75665171D01*
X86291702Y-75589148D01*
X86958714Y-75546142D01*
X87379299Y-75527949D01*
X87857174Y-75515919D01*
X88377334Y-75509873D01*
X88924774Y-75509635D01*
X89484490Y-75515028D01*
X90041478Y-75525874D01*
X90580732Y-75541997D01*
X91087248Y-75563218D01*
X91546022Y-75589362D01*
X91730286Y-75602485D01*
X92248756Y-75644501D01*
X92765810Y-75690911D01*
X93270340Y-75740502D01*
X93751237Y-75792062D01*
X94197392Y-75844379D01*
X94597696Y-75896241D01*
X94941041Y-75946437D01*
X95059500Y-75965703D01*
X95177428Y-75985575D01*
X95359026Y-75985575D01*
X95359748Y-75932252D01*
X95354893Y-75886350D01*
X95332995Y-75854766D01*
X95282762Y-75831887D01*
X95192897Y-75812100D01*
X95052107Y-75789792D01*
X94891409Y-75765783D01*
X94770129Y-75745647D01*
X94680999Y-75727470D01*
X94645033Y-75715987D01*
X94668457Y-75699334D01*
X94753980Y-75672180D01*
X94892202Y-75636449D01*
X95073724Y-75594067D01*
X95289144Y-75546959D01*
X95529063Y-75497052D01*
X95784081Y-75446271D01*
X96044798Y-75396541D01*
X96301813Y-75349788D01*
X96545727Y-75307937D01*
X96767139Y-75272915D01*
X96901000Y-75253855D01*
X97056589Y-75232257D01*
X97170569Y-75213720D01*
X97239444Y-75197190D01*
X97259716Y-75181612D01*
X97227890Y-75165931D01*
X97140468Y-75149093D01*
X96993955Y-75130044D01*
X96784853Y-75107729D01*
X96509666Y-75081093D01*
X96247141Y-75056663D01*
X96051366Y-75040491D01*
X95801537Y-75022752D01*
X95516121Y-75004588D01*
X95213586Y-74987146D01*
X94912397Y-74971569D01*
X94759426Y-74964452D01*
X94249638Y-74948297D01*
X93743700Y-74944692D01*
X93249366Y-74953021D01*
G36*
X98085528Y-76001234D02*
X98078844Y-76016213D01*
X98093852Y-76031260D01*
X98137027Y-76047650D01*
X98214845Y-76066659D01*
X98333782Y-76089563D01*
X98500316Y-76117638D01*
X98720922Y-76152159D01*
X99002077Y-76194402D01*
X99256763Y-76231947D01*
X99537548Y-76274242D01*
X99795956Y-76315294D01*
X100023029Y-76353511D01*
X100209808Y-76387304D01*
X100347333Y-76415083D01*
X100426646Y-76435259D01*
X100441964Y-76442272D01*
X100466700Y-76508163D01*
X100462009Y-76573961D01*
X100452495Y-76600943D01*
X100433425Y-76624237D01*
X100396741Y-76646091D01*
X100334384Y-76668749D01*
X100238297Y-76694459D01*
X100100421Y-76725467D01*
X99912696Y-76764018D01*
X99667066Y-76812358D01*
X99468623Y-76850851D01*
X99208038Y-76901769D01*
X98967148Y-76949775D01*
X98756270Y-76992739D01*
X98585722Y-77028530D01*
X98465820Y-77055019D01*
X98406883Y-77070074D01*
X98406857Y-77070083D01*
X98395265Y-77073333D01*
X98381150Y-77076424D01*
X98366635Y-77079340D01*
X98353844Y-77082063D01*
X98344901Y-77084578D01*
X98341930Y-77086866D01*
X98347055Y-77088910D01*
X98362399Y-77090694D01*
X98390086Y-77092201D01*
X98432240Y-77093413D01*
X98490985Y-77094315D01*
X98568445Y-77094887D01*
X98666744Y-77095115D01*
X98788005Y-77094980D01*
X98934352Y-77094466D01*
X99107909Y-77093556D01*
X99310801Y-77092232D01*
X99545150Y-77090478D01*
X99813080Y-77088277D01*
X100116716Y-77085612D01*
X100458182Y-77082465D01*
X100839600Y-77078820D01*
X101263095Y-77074660D01*
X101730791Y-77069968D01*
X102244812Y-77064727D01*
X102807281Y-77058919D01*
X103420323Y-77052528D01*
X104086060Y-77045537D01*
X104806617Y-77037929D01*
X105584119Y-77029686D01*
X106420687Y-77020792D01*
X107318447Y-77011231D01*
X108279523Y-77000984D01*
X109306037Y-76990035D01*
X110400115Y-76978366D01*
X111563879Y-76965962D01*
X111995857Y-76961360D01*
X113030839Y-76950358D01*
X114083397Y-76939210D01*
X115148923Y-76927963D01*
X116222811Y-76916666D01*
X117300454Y-76905364D01*
X118377245Y-76894107D01*
X119448577Y-76882940D01*
X120509845Y-76871912D01*
X121556440Y-76861071D01*
X122583757Y-76850463D01*
X123587188Y-76840136D01*
X124562128Y-76830137D01*
X125503968Y-76820515D01*
X126408103Y-76811315D01*
X127269926Y-76802587D01*
X128084830Y-76794377D01*
X128848208Y-76786732D01*
X129555454Y-76779701D01*
X130201960Y-76773330D01*
X130783121Y-76767667D01*
X131082143Y-76764787D01*
X131764031Y-76758136D01*
X132432505Y-76751398D01*
X133083387Y-76744624D01*
X133712499Y-76737865D01*
X134315663Y-76731174D01*
X134888702Y-76724602D01*
X135427438Y-76718201D01*
X135927693Y-76712023D01*
X136385289Y-76706119D01*
X136796049Y-76700541D01*
X137155796Y-76695342D01*
X137460351Y-76690572D01*
X137705536Y-76686284D01*
X137887175Y-76682529D01*
X138001088Y-76679359D01*
X138012714Y-76678911D01*
X138094444Y-76674510D01*
X138128164Y-76669902D01*
X138111843Y-76665031D01*
X138043447Y-76659842D01*
X137920946Y-76654280D01*
X137742306Y-76648291D01*
X137505498Y-76641818D01*
X137208487Y-76634807D01*
X136849242Y-76627202D01*
X136425732Y-76618949D01*
X135935925Y-76609992D01*
X135377788Y-76600277D01*
X134749289Y-76589747D01*
X134692571Y-76588813D01*
X134385888Y-76583765D01*
X134009730Y-76577567D01*
X133567184Y-76570270D01*
X133061337Y-76561926D01*
X132495275Y-76552585D01*
X131872084Y-76542298D01*
X131194852Y-76531117D01*
X130466665Y-76519092D01*
X129690611Y-76506274D01*
X128869774Y-76492714D01*
X128007243Y-76478464D01*
X127106103Y-76463574D01*
X126169443Y-76448096D01*
X125200347Y-76432080D01*
X124201903Y-76415577D01*
X123177198Y-76398638D01*
X122129318Y-76381315D01*
X121061349Y-76363658D01*
X119976380Y-76345719D01*
X118877495Y-76327548D01*
X117767782Y-76309196D01*
X116650328Y-76290715D01*
X115528219Y-76272155D01*
X114429218Y-76253975D01*
X113344551Y-76236071D01*
X112278227Y-76218546D01*
X111232542Y-76201436D01*
X110209786Y-76184776D01*
X109212254Y-76168602D01*
X108242239Y-76152949D01*
X107302032Y-76137852D01*
X106393928Y-76123348D01*
X105520219Y-76109471D01*
X104683199Y-76096257D01*
X103885160Y-76083742D01*
X103128395Y-76071961D01*
X102415197Y-76060949D01*
X101747860Y-76050742D01*
X101128675Y-76041375D01*
X100559937Y-76032884D01*
X100043938Y-76025304D01*
X99582971Y-76018671D01*
X99179330Y-76013020D01*
X98835306Y-76008386D01*
X98553193Y-76004806D01*
X98335285Y-76002314D01*
X98183873Y-76000946D01*
X98101252Y-76000738D01*
X98085528Y-76001234D01*
X98085528Y-76001234D01*
G37*
X98085528Y-76001234D02*
X98078844Y-76016213D01*
X98093852Y-76031260D01*
X98137027Y-76047650D01*
X98214845Y-76066659D01*
X98333782Y-76089563D01*
X98500316Y-76117638D01*
X98720922Y-76152159D01*
X99002077Y-76194402D01*
X99256763Y-76231947D01*
X99537548Y-76274242D01*
X99795956Y-76315294D01*
X100023029Y-76353511D01*
X100209808Y-76387304D01*
X100347333Y-76415083D01*
X100426646Y-76435259D01*
X100441964Y-76442272D01*
X100466700Y-76508163D01*
X100462009Y-76573961D01*
X100452495Y-76600943D01*
X100433425Y-76624237D01*
X100396741Y-76646091D01*
X100334384Y-76668749D01*
X100238297Y-76694459D01*
X100100421Y-76725467D01*
X99912696Y-76764018D01*
X99667066Y-76812358D01*
X99468623Y-76850851D01*
X99208038Y-76901769D01*
X98967148Y-76949775D01*
X98756270Y-76992739D01*
X98585722Y-77028530D01*
X98465820Y-77055019D01*
X98406883Y-77070074D01*
X98406857Y-77070083D01*
X98395265Y-77073333D01*
X98381150Y-77076424D01*
X98366635Y-77079340D01*
X98353844Y-77082063D01*
X98344901Y-77084578D01*
X98341930Y-77086866D01*
X98347055Y-77088910D01*
X98362399Y-77090694D01*
X98390086Y-77092201D01*
X98432240Y-77093413D01*
X98490985Y-77094315D01*
X98568445Y-77094887D01*
X98666744Y-77095115D01*
X98788005Y-77094980D01*
X98934352Y-77094466D01*
X99107909Y-77093556D01*
X99310801Y-77092232D01*
X99545150Y-77090478D01*
X99813080Y-77088277D01*
X100116716Y-77085612D01*
X100458182Y-77082465D01*
X100839600Y-77078820D01*
X101263095Y-77074660D01*
X101730791Y-77069968D01*
X102244812Y-77064727D01*
X102807281Y-77058919D01*
X103420323Y-77052528D01*
X104086060Y-77045537D01*
X104806617Y-77037929D01*
X105584119Y-77029686D01*
X106420687Y-77020792D01*
X107318447Y-77011231D01*
X108279523Y-77000984D01*
X109306037Y-76990035D01*
X110400115Y-76978366D01*
X111563879Y-76965962D01*
X111995857Y-76961360D01*
X113030839Y-76950358D01*
X114083397Y-76939210D01*
X115148923Y-76927963D01*
X116222811Y-76916666D01*
X117300454Y-76905364D01*
X118377245Y-76894107D01*
X119448577Y-76882940D01*
X120509845Y-76871912D01*
X121556440Y-76861071D01*
X122583757Y-76850463D01*
X123587188Y-76840136D01*
X124562128Y-76830137D01*
X125503968Y-76820515D01*
X126408103Y-76811315D01*
X127269926Y-76802587D01*
X128084830Y-76794377D01*
X128848208Y-76786732D01*
X129555454Y-76779701D01*
X130201960Y-76773330D01*
X130783121Y-76767667D01*
X131082143Y-76764787D01*
X131764031Y-76758136D01*
X132432505Y-76751398D01*
X133083387Y-76744624D01*
X133712499Y-76737865D01*
X134315663Y-76731174D01*
X134888702Y-76724602D01*
X135427438Y-76718201D01*
X135927693Y-76712023D01*
X136385289Y-76706119D01*
X136796049Y-76700541D01*
X137155796Y-76695342D01*
X137460351Y-76690572D01*
X137705536Y-76686284D01*
X137887175Y-76682529D01*
X138001088Y-76679359D01*
X138012714Y-76678911D01*
X138094444Y-76674510D01*
X138128164Y-76669902D01*
X138111843Y-76665031D01*
X138043447Y-76659842D01*
X137920946Y-76654280D01*
X137742306Y-76648291D01*
X137505498Y-76641818D01*
X137208487Y-76634807D01*
X136849242Y-76627202D01*
X136425732Y-76618949D01*
X135935925Y-76609992D01*
X135377788Y-76600277D01*
X134749289Y-76589747D01*
X134692571Y-76588813D01*
X134385888Y-76583765D01*
X134009730Y-76577567D01*
X133567184Y-76570270D01*
X133061337Y-76561926D01*
X132495275Y-76552585D01*
X131872084Y-76542298D01*
X131194852Y-76531117D01*
X130466665Y-76519092D01*
X129690611Y-76506274D01*
X128869774Y-76492714D01*
X128007243Y-76478464D01*
X127106103Y-76463574D01*
X126169443Y-76448096D01*
X125200347Y-76432080D01*
X124201903Y-76415577D01*
X123177198Y-76398638D01*
X122129318Y-76381315D01*
X121061349Y-76363658D01*
X119976380Y-76345719D01*
X118877495Y-76327548D01*
X117767782Y-76309196D01*
X116650328Y-76290715D01*
X115528219Y-76272155D01*
X114429218Y-76253975D01*
X113344551Y-76236071D01*
X112278227Y-76218546D01*
X111232542Y-76201436D01*
X110209786Y-76184776D01*
X109212254Y-76168602D01*
X108242239Y-76152949D01*
X107302032Y-76137852D01*
X106393928Y-76123348D01*
X105520219Y-76109471D01*
X104683199Y-76096257D01*
X103885160Y-76083742D01*
X103128395Y-76071961D01*
X102415197Y-76060949D01*
X101747860Y-76050742D01*
X101128675Y-76041375D01*
X100559937Y-76032884D01*
X100043938Y-76025304D01*
X99582971Y-76018671D01*
X99179330Y-76013020D01*
X98835306Y-76008386D01*
X98553193Y-76004806D01*
X98335285Y-76002314D01*
X98183873Y-76000946D01*
X98101252Y-76000738D01*
X98085528Y-76001234D01*
G36*
X85960167Y-75815031D02*
X85863433Y-75839369D01*
X85714645Y-75926884D01*
X85577361Y-76062817D01*
X85466547Y-76226399D01*
X85397173Y-76396859D01*
X85381285Y-76508429D01*
X85411165Y-76710195D01*
X85494798Y-76906590D01*
X85619932Y-77078156D01*
X85774313Y-77205433D01*
X85841763Y-77239690D01*
X86012698Y-77280558D01*
X86208744Y-77280873D01*
X86395598Y-77241757D01*
X86450714Y-77219779D01*
X86569651Y-77150195D01*
X86677653Y-77064370D01*
X86694233Y-77047705D01*
X86776626Y-76931570D01*
X86847752Y-76782798D01*
X86893924Y-76633902D01*
X86904083Y-76549224D01*
X86901067Y-76531750D01*
X86758356Y-76531750D01*
X86758346Y-76534198D01*
X86734653Y-76675038D01*
X86675125Y-76828632D01*
X86594617Y-76961109D01*
X86549498Y-77010316D01*
X86390318Y-77106375D01*
X86200817Y-77150124D01*
X86003319Y-77139209D01*
X85844804Y-77084668D01*
X85761140Y-77023955D01*
X85670865Y-76932920D01*
X85645233Y-76901363D01*
X85585394Y-76810345D01*
X85554620Y-76719397D01*
X85544100Y-76597609D01*
X85543571Y-76544715D01*
X85549290Y-76405743D01*
X85572321Y-76307934D01*
X85621474Y-76220377D01*
X85645233Y-76188066D01*
X85788890Y-76043878D01*
X85957865Y-75962851D01*
X86142564Y-75937748D01*
X86327927Y-75966908D01*
X86495898Y-76054168D01*
X86632766Y-76186248D01*
X86724822Y-76349868D01*
X86758356Y-76531750D01*
X86901067Y-76531750D01*
X86872325Y-76365282D01*
X86787441Y-76179324D01*
X86663638Y-76012891D01*
X86515120Y-75887523D01*
X86442808Y-75849739D01*
X86301633Y-75814149D01*
X86128484Y-75802360D01*
X85960167Y-75815031D01*
X85960167Y-75815031D01*
G37*
X85960167Y-75815031D02*
X85863433Y-75839369D01*
X85714645Y-75926884D01*
X85577361Y-76062817D01*
X85466547Y-76226399D01*
X85397173Y-76396859D01*
X85381285Y-76508429D01*
X85411165Y-76710195D01*
X85494798Y-76906590D01*
X85619932Y-77078156D01*
X85774313Y-77205433D01*
X85841763Y-77239690D01*
X86012698Y-77280558D01*
X86208744Y-77280873D01*
X86395598Y-77241757D01*
X86450714Y-77219779D01*
X86569651Y-77150195D01*
X86677653Y-77064370D01*
X86694233Y-77047705D01*
X86776626Y-76931570D01*
X86847752Y-76782798D01*
X86893924Y-76633902D01*
X86904083Y-76549224D01*
X86901067Y-76531750D01*
X86758356Y-76531750D01*
X86758346Y-76534198D01*
X86734653Y-76675038D01*
X86675125Y-76828632D01*
X86594617Y-76961109D01*
X86549498Y-77010316D01*
X86390318Y-77106375D01*
X86200817Y-77150124D01*
X86003319Y-77139209D01*
X85844804Y-77084668D01*
X85761140Y-77023955D01*
X85670865Y-76932920D01*
X85645233Y-76901363D01*
X85585394Y-76810345D01*
X85554620Y-76719397D01*
X85544100Y-76597609D01*
X85543571Y-76544715D01*
X85549290Y-76405743D01*
X85572321Y-76307934D01*
X85621474Y-76220377D01*
X85645233Y-76188066D01*
X85788890Y-76043878D01*
X85957865Y-75962851D01*
X86142564Y-75937748D01*
X86327927Y-75966908D01*
X86495898Y-76054168D01*
X86632766Y-76186248D01*
X86724822Y-76349868D01*
X86758356Y-76531750D01*
X86901067Y-76531750D01*
X86872325Y-76365282D01*
X86787441Y-76179324D01*
X86663638Y-76012891D01*
X86515120Y-75887523D01*
X86442808Y-75849739D01*
X86301633Y-75814149D01*
X86128484Y-75802360D01*
X85960167Y-75815031D01*
D12*
X156367714Y-73280571D02*
X156224857Y-73328190D01*
X156177238Y-73375810D01*
X156129619Y-73471048D01*
X156129619Y-73613905D01*
X156177238Y-73709143D01*
X156224857Y-73756762D01*
X156320095Y-73804381D01*
X156701048Y-73804381D01*
X156701048Y-72804381D01*
X156367714Y-72804381D01*
X156272476Y-72852000D01*
X156224857Y-72899619D01*
X156177238Y-72994857D01*
X156177238Y-73090095D01*
X156224857Y-73185333D01*
X156272476Y-73232952D01*
X156367714Y-73280571D01*
X156701048Y-73280571D01*
X155843905Y-72804381D02*
X155272476Y-72804381D01*
X155558191Y-73804381D02*
X155558191Y-72804381D01*
X154415333Y-73804381D02*
X154986762Y-73804381D01*
X154701048Y-73804381D02*
X154701048Y-72804381D01*
X154796286Y-72947238D01*
X154891524Y-73042476D01*
X154986762Y-73090095D01*
M02*
