G04 #@! TF.FileFunction,Legend,Top*
%FSLAX46Y46*%
G04 Gerber Fmt 4.6, Leading zero omitted, Abs format (unit mm)*
G04 Created by KiCad (PCBNEW 4.0.7) date 01/19/19 15:00:20*
%MOMM*%
%LPD*%
G01*
G04 APERTURE LIST*
%ADD10C,0.100000*%
%ADD11C,0.150000*%
%ADD12C,0.300000*%
%ADD13C,0.254000*%
%ADD14C,0.120000*%
%ADD15C,0.127000*%
%ADD16C,0.125000*%
%ADD17C,0.031750*%
%ADD18C,0.050000*%
G04 APERTURE END LIST*
D10*
D11*
X161099691Y-56522881D02*
X161099691Y-55522881D01*
X161433025Y-56237167D01*
X161766358Y-55522881D01*
X161766358Y-56522881D01*
X162194929Y-55618119D02*
X162242548Y-55570500D01*
X162337786Y-55522881D01*
X162575882Y-55522881D01*
X162671120Y-55570500D01*
X162718739Y-55618119D01*
X162766358Y-55713357D01*
X162766358Y-55808595D01*
X162718739Y-55951452D01*
X162147310Y-56522881D01*
X162766358Y-56522881D01*
X163194929Y-56427643D02*
X163242548Y-56475262D01*
X163194929Y-56522881D01*
X163147310Y-56475262D01*
X163194929Y-56427643D01*
X163194929Y-56522881D01*
X164147310Y-55522881D02*
X163671119Y-55522881D01*
X163623500Y-55999071D01*
X163671119Y-55951452D01*
X163766357Y-55903833D01*
X164004453Y-55903833D01*
X164099691Y-55951452D01*
X164147310Y-55999071D01*
X164194929Y-56094310D01*
X164194929Y-56332405D01*
X164147310Y-56427643D01*
X164099691Y-56475262D01*
X164004453Y-56522881D01*
X163766357Y-56522881D01*
X163671119Y-56475262D01*
X163623500Y-56427643D01*
X60706191Y-56586381D02*
X60706191Y-55586381D01*
X61039525Y-56300667D01*
X61372858Y-55586381D01*
X61372858Y-56586381D01*
X61801429Y-55681619D02*
X61849048Y-55634000D01*
X61944286Y-55586381D01*
X62182382Y-55586381D01*
X62277620Y-55634000D01*
X62325239Y-55681619D01*
X62372858Y-55776857D01*
X62372858Y-55872095D01*
X62325239Y-56014952D01*
X61753810Y-56586381D01*
X62372858Y-56586381D01*
X62801429Y-56491143D02*
X62849048Y-56538762D01*
X62801429Y-56586381D01*
X62753810Y-56538762D01*
X62801429Y-56491143D01*
X62801429Y-56586381D01*
X63753810Y-55586381D02*
X63277619Y-55586381D01*
X63230000Y-56062571D01*
X63277619Y-56014952D01*
X63372857Y-55967333D01*
X63610953Y-55967333D01*
X63706191Y-56014952D01*
X63753810Y-56062571D01*
X63801429Y-56157810D01*
X63801429Y-56395905D01*
X63753810Y-56491143D01*
X63706191Y-56538762D01*
X63610953Y-56586381D01*
X63372857Y-56586381D01*
X63277619Y-56538762D01*
X63230000Y-56491143D01*
X61023691Y-104020881D02*
X61023691Y-103020881D01*
X61357025Y-103735167D01*
X61690358Y-103020881D01*
X61690358Y-104020881D01*
X62118929Y-103116119D02*
X62166548Y-103068500D01*
X62261786Y-103020881D01*
X62499882Y-103020881D01*
X62595120Y-103068500D01*
X62642739Y-103116119D01*
X62690358Y-103211357D01*
X62690358Y-103306595D01*
X62642739Y-103449452D01*
X62071310Y-104020881D01*
X62690358Y-104020881D01*
X63118929Y-103925643D02*
X63166548Y-103973262D01*
X63118929Y-104020881D01*
X63071310Y-103973262D01*
X63118929Y-103925643D01*
X63118929Y-104020881D01*
X64071310Y-103020881D02*
X63595119Y-103020881D01*
X63547500Y-103497071D01*
X63595119Y-103449452D01*
X63690357Y-103401833D01*
X63928453Y-103401833D01*
X64023691Y-103449452D01*
X64071310Y-103497071D01*
X64118929Y-103592310D01*
X64118929Y-103830405D01*
X64071310Y-103925643D01*
X64023691Y-103973262D01*
X63928453Y-104020881D01*
X63690357Y-104020881D01*
X63595119Y-103973262D01*
X63547500Y-103925643D01*
X161036191Y-103830381D02*
X161036191Y-102830381D01*
X161369525Y-103544667D01*
X161702858Y-102830381D01*
X161702858Y-103830381D01*
X162131429Y-102925619D02*
X162179048Y-102878000D01*
X162274286Y-102830381D01*
X162512382Y-102830381D01*
X162607620Y-102878000D01*
X162655239Y-102925619D01*
X162702858Y-103020857D01*
X162702858Y-103116095D01*
X162655239Y-103258952D01*
X162083810Y-103830381D01*
X162702858Y-103830381D01*
X163131429Y-103735143D02*
X163179048Y-103782762D01*
X163131429Y-103830381D01*
X163083810Y-103782762D01*
X163131429Y-103735143D01*
X163131429Y-103830381D01*
X164083810Y-102830381D02*
X163607619Y-102830381D01*
X163560000Y-103306571D01*
X163607619Y-103258952D01*
X163702857Y-103211333D01*
X163940953Y-103211333D01*
X164036191Y-103258952D01*
X164083810Y-103306571D01*
X164131429Y-103401810D01*
X164131429Y-103639905D01*
X164083810Y-103735143D01*
X164036191Y-103782762D01*
X163940953Y-103830381D01*
X163702857Y-103830381D01*
X163607619Y-103782762D01*
X163560000Y-103735143D01*
D10*
X87187143Y-60729523D02*
X87234762Y-60777142D01*
X87282381Y-60919999D01*
X87282381Y-61015237D01*
X87234762Y-61158095D01*
X87139524Y-61253333D01*
X87044286Y-61300952D01*
X86853810Y-61348571D01*
X86710952Y-61348571D01*
X86520476Y-61300952D01*
X86425238Y-61253333D01*
X86330000Y-61158095D01*
X86282381Y-61015237D01*
X86282381Y-60919999D01*
X86330000Y-60777142D01*
X86377619Y-60729523D01*
X87282381Y-60300952D02*
X86282381Y-60300952D01*
X86758571Y-60300952D02*
X86758571Y-59729523D01*
X87282381Y-59729523D02*
X86282381Y-59729523D01*
X86996667Y-59300952D02*
X86996667Y-58824761D01*
X87282381Y-59396190D02*
X86282381Y-59062857D01*
X87282381Y-58729523D01*
X87234762Y-58443809D02*
X87282381Y-58300952D01*
X87282381Y-58062856D01*
X87234762Y-57967618D01*
X87187143Y-57919999D01*
X87091905Y-57872380D01*
X86996667Y-57872380D01*
X86901429Y-57919999D01*
X86853810Y-57967618D01*
X86806190Y-58062856D01*
X86758571Y-58253333D01*
X86710952Y-58348571D01*
X86663333Y-58396190D01*
X86568095Y-58443809D01*
X86472857Y-58443809D01*
X86377619Y-58396190D01*
X86330000Y-58348571D01*
X86282381Y-58253333D01*
X86282381Y-58015237D01*
X86330000Y-57872380D01*
X87234762Y-57491428D02*
X87282381Y-57348571D01*
X87282381Y-57110475D01*
X87234762Y-57015237D01*
X87187143Y-56967618D01*
X87091905Y-56919999D01*
X86996667Y-56919999D01*
X86901429Y-56967618D01*
X86853810Y-57015237D01*
X86806190Y-57110475D01*
X86758571Y-57300952D01*
X86710952Y-57396190D01*
X86663333Y-57443809D01*
X86568095Y-57491428D01*
X86472857Y-57491428D01*
X86377619Y-57443809D01*
X86330000Y-57396190D01*
X86282381Y-57300952D01*
X86282381Y-57062856D01*
X86330000Y-56919999D01*
X87282381Y-56491428D02*
X86282381Y-56491428D01*
X87234762Y-56062857D02*
X87282381Y-55920000D01*
X87282381Y-55681904D01*
X87234762Y-55586666D01*
X87187143Y-55539047D01*
X87091905Y-55491428D01*
X86996667Y-55491428D01*
X86901429Y-55539047D01*
X86853810Y-55586666D01*
X86806190Y-55681904D01*
X86758571Y-55872381D01*
X86710952Y-55967619D01*
X86663333Y-56015238D01*
X86568095Y-56062857D01*
X86472857Y-56062857D01*
X86377619Y-56015238D01*
X86330000Y-55967619D01*
X86282381Y-55872381D01*
X86282381Y-55634285D01*
X86330000Y-55491428D01*
X88882381Y-59062857D02*
X88882381Y-59539048D01*
X87882381Y-59539048D01*
X88358571Y-58729524D02*
X88358571Y-58396190D01*
X88882381Y-58253333D02*
X88882381Y-58729524D01*
X87882381Y-58729524D01*
X87882381Y-58253333D01*
X88882381Y-57824762D02*
X87882381Y-57824762D01*
X87882381Y-57586667D01*
X87930000Y-57443809D01*
X88025238Y-57348571D01*
X88120476Y-57300952D01*
X88310952Y-57253333D01*
X88453810Y-57253333D01*
X88644286Y-57300952D01*
X88739524Y-57348571D01*
X88834762Y-57443809D01*
X88882381Y-57586667D01*
X88882381Y-57824762D01*
X127031905Y-57237381D02*
X127650953Y-57237381D01*
X127317619Y-57618333D01*
X127460477Y-57618333D01*
X127555715Y-57665952D01*
X127603334Y-57713571D01*
X127650953Y-57808810D01*
X127650953Y-58046905D01*
X127603334Y-58142143D01*
X127555715Y-58189762D01*
X127460477Y-58237381D01*
X127174762Y-58237381D01*
X127079524Y-58189762D01*
X127031905Y-58142143D01*
X127936667Y-57237381D02*
X128270000Y-58237381D01*
X128603334Y-57237381D01*
X128841429Y-57237381D02*
X129460477Y-57237381D01*
X129127143Y-57618333D01*
X129270001Y-57618333D01*
X129365239Y-57665952D01*
X129412858Y-57713571D01*
X129460477Y-57808810D01*
X129460477Y-58046905D01*
X129412858Y-58142143D01*
X129365239Y-58189762D01*
X129270001Y-58237381D01*
X128984286Y-58237381D01*
X128889048Y-58189762D01*
X128841429Y-58142143D01*
X127508096Y-52205000D02*
X127412858Y-52157381D01*
X127270001Y-52157381D01*
X127127143Y-52205000D01*
X127031905Y-52300238D01*
X126984286Y-52395476D01*
X126936667Y-52585952D01*
X126936667Y-52728810D01*
X126984286Y-52919286D01*
X127031905Y-53014524D01*
X127127143Y-53109762D01*
X127270001Y-53157381D01*
X127365239Y-53157381D01*
X127508096Y-53109762D01*
X127555715Y-53062143D01*
X127555715Y-52728810D01*
X127365239Y-52728810D01*
X127984286Y-53157381D02*
X127984286Y-52157381D01*
X128555715Y-53157381D01*
X128555715Y-52157381D01*
X129031905Y-53157381D02*
X129031905Y-52157381D01*
X129270000Y-52157381D01*
X129412858Y-52205000D01*
X129508096Y-52300238D01*
X129555715Y-52395476D01*
X129603334Y-52585952D01*
X129603334Y-52728810D01*
X129555715Y-52919286D01*
X129508096Y-53014524D01*
X129412858Y-53109762D01*
X129270000Y-53157381D01*
X129031905Y-53157381D01*
X115443096Y-52205000D02*
X115347858Y-52157381D01*
X115205001Y-52157381D01*
X115062143Y-52205000D01*
X114966905Y-52300238D01*
X114919286Y-52395476D01*
X114871667Y-52585952D01*
X114871667Y-52728810D01*
X114919286Y-52919286D01*
X114966905Y-53014524D01*
X115062143Y-53109762D01*
X115205001Y-53157381D01*
X115300239Y-53157381D01*
X115443096Y-53109762D01*
X115490715Y-53062143D01*
X115490715Y-52728810D01*
X115300239Y-52728810D01*
X115919286Y-53157381D02*
X115919286Y-52157381D01*
X116490715Y-53157381D01*
X116490715Y-52157381D01*
X116966905Y-53157381D02*
X116966905Y-52157381D01*
X117205000Y-52157381D01*
X117347858Y-52205000D01*
X117443096Y-52300238D01*
X117490715Y-52395476D01*
X117538334Y-52585952D01*
X117538334Y-52728810D01*
X117490715Y-52919286D01*
X117443096Y-53014524D01*
X117347858Y-53109762D01*
X117205000Y-53157381D01*
X116966905Y-53157381D01*
X126920714Y-55411667D02*
X127396905Y-55411667D01*
X126825476Y-55697381D02*
X127158809Y-54697381D01*
X127492143Y-55697381D01*
X128349286Y-55697381D02*
X127777857Y-55697381D01*
X128063571Y-55697381D02*
X128063571Y-54697381D01*
X127968333Y-54840238D01*
X127873095Y-54935476D01*
X127777857Y-54983095D01*
X106100714Y-55697381D02*
X106100714Y-54697381D01*
X106338809Y-54697381D01*
X106481667Y-54745000D01*
X106576905Y-54840238D01*
X106624524Y-54935476D01*
X106672143Y-55125952D01*
X106672143Y-55268810D01*
X106624524Y-55459286D01*
X106576905Y-55554524D01*
X106481667Y-55649762D01*
X106338809Y-55697381D01*
X106100714Y-55697381D01*
X107624524Y-55697381D02*
X107053095Y-55697381D01*
X107338809Y-55697381D02*
X107338809Y-54697381D01*
X107243571Y-54840238D01*
X107148333Y-54935476D01*
X107053095Y-54983095D01*
X108243571Y-54697381D02*
X108338810Y-54697381D01*
X108434048Y-54745000D01*
X108481667Y-54792619D01*
X108529286Y-54887857D01*
X108576905Y-55078333D01*
X108576905Y-55316429D01*
X108529286Y-55506905D01*
X108481667Y-55602143D01*
X108434048Y-55649762D01*
X108338810Y-55697381D01*
X108243571Y-55697381D01*
X108148333Y-55649762D01*
X108100714Y-55602143D01*
X108053095Y-55506905D01*
X108005476Y-55316429D01*
X108005476Y-55078333D01*
X108053095Y-54887857D01*
X108100714Y-54792619D01*
X108148333Y-54745000D01*
X108243571Y-54697381D01*
D12*
X93952143Y-61035000D02*
X94023571Y-60820714D01*
X94023571Y-60463571D01*
X93952143Y-60320714D01*
X93880714Y-60249285D01*
X93737857Y-60177857D01*
X93595000Y-60177857D01*
X93452143Y-60249285D01*
X93380714Y-60320714D01*
X93309286Y-60463571D01*
X93237857Y-60749285D01*
X93166429Y-60892143D01*
X93095000Y-60963571D01*
X92952143Y-61035000D01*
X92809286Y-61035000D01*
X92666429Y-60963571D01*
X92595000Y-60892143D01*
X92523571Y-60749285D01*
X92523571Y-60392143D01*
X92595000Y-60177857D01*
X93023571Y-59749286D02*
X93023571Y-59177857D01*
X92523571Y-59535000D02*
X93809286Y-59535000D01*
X93952143Y-59463572D01*
X94023571Y-59320714D01*
X94023571Y-59177857D01*
X94023571Y-58035000D02*
X93237857Y-58035000D01*
X93095000Y-58106429D01*
X93023571Y-58249286D01*
X93023571Y-58535000D01*
X93095000Y-58677857D01*
X93952143Y-58035000D02*
X94023571Y-58177857D01*
X94023571Y-58535000D01*
X93952143Y-58677857D01*
X93809286Y-58749286D01*
X93666429Y-58749286D01*
X93523571Y-58677857D01*
X93452143Y-58535000D01*
X93452143Y-58177857D01*
X93380714Y-58035000D01*
X93023571Y-57535000D02*
X93023571Y-56963571D01*
X92523571Y-57320714D02*
X93809286Y-57320714D01*
X93952143Y-57249286D01*
X94023571Y-57106428D01*
X94023571Y-56963571D01*
X93023571Y-55820714D02*
X94023571Y-55820714D01*
X93023571Y-56463571D02*
X93809286Y-56463571D01*
X93952143Y-56392143D01*
X94023571Y-56249285D01*
X94023571Y-56035000D01*
X93952143Y-55892143D01*
X93880714Y-55820714D01*
X93952143Y-55177857D02*
X94023571Y-55035000D01*
X94023571Y-54749285D01*
X93952143Y-54606428D01*
X93809286Y-54535000D01*
X93737857Y-54535000D01*
X93595000Y-54606428D01*
X93523571Y-54749285D01*
X93523571Y-54963571D01*
X93452143Y-55106428D01*
X93309286Y-55177857D01*
X93237857Y-55177857D01*
X93095000Y-55106428D01*
X93023571Y-54963571D01*
X93023571Y-54749285D01*
X93095000Y-54606428D01*
X80411215Y-65448571D02*
X80411215Y-63948571D01*
X80982643Y-63948571D01*
X81125501Y-64020000D01*
X81196929Y-64091429D01*
X81268358Y-64234286D01*
X81268358Y-64448571D01*
X81196929Y-64591429D01*
X81125501Y-64662857D01*
X80982643Y-64734286D01*
X80411215Y-64734286D01*
X82125501Y-65448571D02*
X81982643Y-65377143D01*
X81911215Y-65305714D01*
X81839786Y-65162857D01*
X81839786Y-64734286D01*
X81911215Y-64591429D01*
X81982643Y-64520000D01*
X82125501Y-64448571D01*
X82339786Y-64448571D01*
X82482643Y-64520000D01*
X82554072Y-64591429D01*
X82625501Y-64734286D01*
X82625501Y-65162857D01*
X82554072Y-65305714D01*
X82482643Y-65377143D01*
X82339786Y-65448571D01*
X82125501Y-65448571D01*
X83125501Y-64448571D02*
X83411215Y-65448571D01*
X83696929Y-64734286D01*
X83982644Y-65448571D01*
X84268358Y-64448571D01*
X85411215Y-65377143D02*
X85268358Y-65448571D01*
X84982644Y-65448571D01*
X84839787Y-65377143D01*
X84768358Y-65234286D01*
X84768358Y-64662857D01*
X84839787Y-64520000D01*
X84982644Y-64448571D01*
X85268358Y-64448571D01*
X85411215Y-64520000D01*
X85482644Y-64662857D01*
X85482644Y-64805714D01*
X84768358Y-64948571D01*
X86125501Y-65448571D02*
X86125501Y-64448571D01*
X86125501Y-64734286D02*
X86196929Y-64591429D01*
X86268358Y-64520000D01*
X86411215Y-64448571D01*
X86554072Y-64448571D01*
X61003571Y-69313572D02*
X59503571Y-69313572D01*
X59503571Y-68742144D01*
X59575000Y-68599286D01*
X59646429Y-68527858D01*
X59789286Y-68456429D01*
X60003571Y-68456429D01*
X60146429Y-68527858D01*
X60217857Y-68599286D01*
X60289286Y-68742144D01*
X60289286Y-69313572D01*
X59503571Y-67527858D02*
X59503571Y-67242144D01*
X59575000Y-67099286D01*
X59717857Y-66956429D01*
X60003571Y-66885001D01*
X60503571Y-66885001D01*
X60789286Y-66956429D01*
X60932143Y-67099286D01*
X61003571Y-67242144D01*
X61003571Y-67527858D01*
X60932143Y-67670715D01*
X60789286Y-67813572D01*
X60503571Y-67885001D01*
X60003571Y-67885001D01*
X59717857Y-67813572D01*
X59575000Y-67670715D01*
X59503571Y-67527858D01*
X59503571Y-66385000D02*
X61003571Y-66027857D01*
X59932143Y-65742143D01*
X61003571Y-65456429D01*
X59503571Y-65099286D01*
X60217857Y-64527857D02*
X60217857Y-64027857D01*
X61003571Y-63813571D02*
X61003571Y-64527857D01*
X59503571Y-64527857D01*
X59503571Y-63813571D01*
X61003571Y-62313571D02*
X60289286Y-62813571D01*
X61003571Y-63170714D02*
X59503571Y-63170714D01*
X59503571Y-62599286D01*
X59575000Y-62456428D01*
X59646429Y-62385000D01*
X59789286Y-62313571D01*
X60003571Y-62313571D01*
X60146429Y-62385000D01*
X60217857Y-62456428D01*
X60289286Y-62599286D01*
X60289286Y-63170714D01*
X61003571Y-60527857D02*
X59503571Y-60527857D01*
X61003571Y-59813571D02*
X59503571Y-59813571D01*
X61003571Y-58956428D01*
X59503571Y-58956428D01*
X133485072Y-57416000D02*
X133342215Y-57344571D01*
X133127929Y-57344571D01*
X132913644Y-57416000D01*
X132770786Y-57558857D01*
X132699358Y-57701714D01*
X132627929Y-57987429D01*
X132627929Y-58201714D01*
X132699358Y-58487429D01*
X132770786Y-58630286D01*
X132913644Y-58773143D01*
X133127929Y-58844571D01*
X133270786Y-58844571D01*
X133485072Y-58773143D01*
X133556501Y-58701714D01*
X133556501Y-58201714D01*
X133270786Y-58201714D01*
X134199358Y-58844571D02*
X134199358Y-57344571D01*
X134770786Y-57344571D01*
X134913644Y-57416000D01*
X134985072Y-57487429D01*
X135056501Y-57630286D01*
X135056501Y-57844571D01*
X134985072Y-57987429D01*
X134913644Y-58058857D01*
X134770786Y-58130286D01*
X134199358Y-58130286D01*
X135627929Y-58773143D02*
X135842215Y-58844571D01*
X136199358Y-58844571D01*
X136342215Y-58773143D01*
X136413644Y-58701714D01*
X136485072Y-58558857D01*
X136485072Y-58416000D01*
X136413644Y-58273143D01*
X136342215Y-58201714D01*
X136199358Y-58130286D01*
X135913644Y-58058857D01*
X135770786Y-57987429D01*
X135699358Y-57916000D01*
X135627929Y-57773143D01*
X135627929Y-57630286D01*
X135699358Y-57487429D01*
X135770786Y-57416000D01*
X135913644Y-57344571D01*
X136270786Y-57344571D01*
X136485072Y-57416000D01*
X164953071Y-101158642D02*
X164953071Y-101872928D01*
X163453071Y-101872928D01*
X164953071Y-100444356D02*
X164881643Y-100587214D01*
X164810214Y-100658642D01*
X164667357Y-100730071D01*
X164238786Y-100730071D01*
X164095929Y-100658642D01*
X164024500Y-100587214D01*
X163953071Y-100444356D01*
X163953071Y-100230071D01*
X164024500Y-100087214D01*
X164095929Y-100015785D01*
X164238786Y-99944356D01*
X164667357Y-99944356D01*
X164810214Y-100015785D01*
X164881643Y-100087214D01*
X164953071Y-100230071D01*
X164953071Y-100444356D01*
X164953071Y-98444356D02*
X164238786Y-98944356D01*
X164953071Y-99301499D02*
X163453071Y-99301499D01*
X163453071Y-98730071D01*
X163524500Y-98587213D01*
X163595929Y-98515785D01*
X163738786Y-98444356D01*
X163953071Y-98444356D01*
X164095929Y-98515785D01*
X164167357Y-98587213D01*
X164238786Y-98730071D01*
X164238786Y-99301499D01*
X164953071Y-97158642D02*
X164167357Y-97158642D01*
X164024500Y-97230071D01*
X163953071Y-97372928D01*
X163953071Y-97658642D01*
X164024500Y-97801499D01*
X164881643Y-97158642D02*
X164953071Y-97301499D01*
X164953071Y-97658642D01*
X164881643Y-97801499D01*
X164738786Y-97872928D01*
X164595929Y-97872928D01*
X164453071Y-97801499D01*
X164381643Y-97658642D01*
X164381643Y-97301499D01*
X164310214Y-97158642D01*
X164953071Y-95230071D02*
X164953071Y-94944356D01*
X164881643Y-94801499D01*
X164810214Y-94730071D01*
X164595929Y-94587213D01*
X164310214Y-94515785D01*
X163738786Y-94515785D01*
X163595929Y-94587213D01*
X163524500Y-94658642D01*
X163453071Y-94801499D01*
X163453071Y-95087213D01*
X163524500Y-95230071D01*
X163595929Y-95301499D01*
X163738786Y-95372928D01*
X164095929Y-95372928D01*
X164238786Y-95301499D01*
X164310214Y-95230071D01*
X164381643Y-95087213D01*
X164381643Y-94801499D01*
X164310214Y-94658642D01*
X164238786Y-94587213D01*
X164095929Y-94515785D01*
X163453071Y-93587214D02*
X163453071Y-93444357D01*
X163524500Y-93301500D01*
X163595929Y-93230071D01*
X163738786Y-93158642D01*
X164024500Y-93087214D01*
X164381643Y-93087214D01*
X164667357Y-93158642D01*
X164810214Y-93230071D01*
X164881643Y-93301500D01*
X164953071Y-93444357D01*
X164953071Y-93587214D01*
X164881643Y-93730071D01*
X164810214Y-93801500D01*
X164667357Y-93872928D01*
X164381643Y-93944357D01*
X164024500Y-93944357D01*
X163738786Y-93872928D01*
X163595929Y-93801500D01*
X163524500Y-93730071D01*
X163453071Y-93587214D01*
X163453071Y-92158643D02*
X163453071Y-92015786D01*
X163524500Y-91872929D01*
X163595929Y-91801500D01*
X163738786Y-91730071D01*
X164024500Y-91658643D01*
X164381643Y-91658643D01*
X164667357Y-91730071D01*
X164810214Y-91801500D01*
X164881643Y-91872929D01*
X164953071Y-92015786D01*
X164953071Y-92158643D01*
X164881643Y-92301500D01*
X164810214Y-92372929D01*
X164667357Y-92444357D01*
X164381643Y-92515786D01*
X164024500Y-92515786D01*
X163738786Y-92444357D01*
X163595929Y-92372929D01*
X163524500Y-92301500D01*
X163453071Y-92158643D01*
X164953071Y-91015786D02*
X163453071Y-91015786D01*
X164524500Y-90515786D01*
X163453071Y-90015786D01*
X164953071Y-90015786D01*
X164953071Y-89301500D02*
X163453071Y-89301500D01*
X164167357Y-89301500D02*
X164167357Y-88444357D01*
X164953071Y-88444357D02*
X163453071Y-88444357D01*
X163953071Y-87872928D02*
X163953071Y-87087214D01*
X164953071Y-87872928D01*
X164953071Y-87087214D01*
D10*
X101687381Y-61293333D02*
X101687381Y-60674285D01*
X102068333Y-61007619D01*
X102068333Y-60864761D01*
X102115952Y-60769523D01*
X102163571Y-60721904D01*
X102258810Y-60674285D01*
X102496905Y-60674285D01*
X102592143Y-60721904D01*
X102639762Y-60769523D01*
X102687381Y-60864761D01*
X102687381Y-61150476D01*
X102639762Y-61245714D01*
X102592143Y-61293333D01*
X98607619Y-61245714D02*
X98560000Y-61198095D01*
X98512381Y-61102857D01*
X98512381Y-60864761D01*
X98560000Y-60769523D01*
X98607619Y-60721904D01*
X98702857Y-60674285D01*
X98798095Y-60674285D01*
X98940952Y-60721904D01*
X99512381Y-61293333D01*
X99512381Y-60674285D01*
X96337381Y-60674285D02*
X96337381Y-61245714D01*
X96337381Y-60960000D02*
X95337381Y-60960000D01*
X95480238Y-61055238D01*
X95575476Y-61150476D01*
X95623095Y-61245714D01*
D13*
X83316838Y-107331933D02*
X84526361Y-107331933D01*
X83074933Y-108057648D02*
X83921599Y-105517648D01*
X84768266Y-108057648D01*
X85373028Y-106364314D02*
X85977790Y-108057648D01*
X86582552Y-106364314D01*
X87550171Y-108057648D02*
X87550171Y-106364314D01*
X87550171Y-105517648D02*
X87429219Y-105638600D01*
X87550171Y-105759552D01*
X87671123Y-105638600D01*
X87550171Y-105517648D01*
X87550171Y-105759552D01*
X89122552Y-108057648D02*
X88880647Y-107936695D01*
X88759695Y-107815743D01*
X88638743Y-107573838D01*
X88638743Y-106848124D01*
X88759695Y-106606219D01*
X88880647Y-106485267D01*
X89122552Y-106364314D01*
X89485409Y-106364314D01*
X89727314Y-106485267D01*
X89848266Y-106606219D01*
X89969219Y-106848124D01*
X89969219Y-107573838D01*
X89848266Y-107815743D01*
X89727314Y-107936695D01*
X89485409Y-108057648D01*
X89122552Y-108057648D01*
X91057790Y-106364314D02*
X91057790Y-108057648D01*
X91057790Y-106606219D02*
X91178742Y-106485267D01*
X91420647Y-106364314D01*
X91783504Y-106364314D01*
X92025409Y-106485267D01*
X92146361Y-106727171D01*
X92146361Y-108057648D01*
X93355885Y-108057648D02*
X93355885Y-106364314D01*
X93355885Y-105517648D02*
X93234933Y-105638600D01*
X93355885Y-105759552D01*
X93476837Y-105638600D01*
X93355885Y-105517648D01*
X93355885Y-105759552D01*
X95653980Y-107936695D02*
X95412076Y-108057648D01*
X94928266Y-108057648D01*
X94686361Y-107936695D01*
X94565409Y-107815743D01*
X94444457Y-107573838D01*
X94444457Y-106848124D01*
X94565409Y-106606219D01*
X94686361Y-106485267D01*
X94928266Y-106364314D01*
X95412076Y-106364314D01*
X95653980Y-106485267D01*
X96621600Y-107936695D02*
X96863504Y-108057648D01*
X97347314Y-108057648D01*
X97589219Y-107936695D01*
X97710171Y-107694790D01*
X97710171Y-107573838D01*
X97589219Y-107331933D01*
X97347314Y-107210981D01*
X96984457Y-107210981D01*
X96742552Y-107090029D01*
X96621600Y-106848124D01*
X96621600Y-106727171D01*
X96742552Y-106485267D01*
X96984457Y-106364314D01*
X97347314Y-106364314D01*
X97589219Y-106485267D01*
X100733980Y-107090029D02*
X102669218Y-107090029D01*
X101701599Y-108057648D02*
X101701599Y-106122410D01*
X105451123Y-105517648D02*
X106902551Y-105517648D01*
X106176837Y-108057648D02*
X106176837Y-105517648D01*
X108716837Y-107936695D02*
X108474932Y-108057648D01*
X107991123Y-108057648D01*
X107749218Y-107936695D01*
X107628266Y-107694790D01*
X107628266Y-106727171D01*
X107749218Y-106485267D01*
X107991123Y-106364314D01*
X108474932Y-106364314D01*
X108716837Y-106485267D01*
X108837789Y-106727171D01*
X108837789Y-106969076D01*
X107628266Y-107210981D01*
X110289218Y-108057648D02*
X110047313Y-107936695D01*
X109926361Y-107694790D01*
X109926361Y-105517648D01*
X112224456Y-107936695D02*
X111982551Y-108057648D01*
X111498742Y-108057648D01*
X111256837Y-107936695D01*
X111135885Y-107694790D01*
X111135885Y-106727171D01*
X111256837Y-106485267D01*
X111498742Y-106364314D01*
X111982551Y-106364314D01*
X112224456Y-106485267D01*
X112345408Y-106727171D01*
X112345408Y-106969076D01*
X111135885Y-107210981D01*
X113433980Y-108057648D02*
X113433980Y-106364314D01*
X113433980Y-106606219D02*
X113554932Y-106485267D01*
X113796837Y-106364314D01*
X114159694Y-106364314D01*
X114401599Y-106485267D01*
X114522551Y-106727171D01*
X114522551Y-108057648D01*
X114522551Y-106727171D02*
X114643504Y-106485267D01*
X114885408Y-106364314D01*
X115248266Y-106364314D01*
X115490170Y-106485267D01*
X115611123Y-106727171D01*
X115611123Y-108057648D01*
X117788266Y-107936695D02*
X117546361Y-108057648D01*
X117062552Y-108057648D01*
X116820647Y-107936695D01*
X116699695Y-107694790D01*
X116699695Y-106727171D01*
X116820647Y-106485267D01*
X117062552Y-106364314D01*
X117546361Y-106364314D01*
X117788266Y-106485267D01*
X117909218Y-106727171D01*
X117909218Y-106969076D01*
X116699695Y-107210981D01*
X118634933Y-106364314D02*
X119602552Y-106364314D01*
X118997790Y-105517648D02*
X118997790Y-107694790D01*
X119118742Y-107936695D01*
X119360647Y-108057648D01*
X119602552Y-108057648D01*
X121416838Y-107936695D02*
X121174933Y-108057648D01*
X120691124Y-108057648D01*
X120449219Y-107936695D01*
X120328267Y-107694790D01*
X120328267Y-106727171D01*
X120449219Y-106485267D01*
X120691124Y-106364314D01*
X121174933Y-106364314D01*
X121416838Y-106485267D01*
X121537790Y-106727171D01*
X121537790Y-106969076D01*
X120328267Y-107210981D01*
X122626362Y-108057648D02*
X122626362Y-106364314D01*
X122626362Y-106848124D02*
X122747314Y-106606219D01*
X122868267Y-106485267D01*
X123110171Y-106364314D01*
X123352076Y-106364314D01*
X123956838Y-106364314D02*
X124561600Y-108057648D01*
X125166362Y-106364314D02*
X124561600Y-108057648D01*
X124319695Y-108662410D01*
X124198743Y-108783362D01*
X123956838Y-108904314D01*
X127948267Y-107936695D02*
X128311124Y-108057648D01*
X128915886Y-108057648D01*
X129157790Y-107936695D01*
X129278743Y-107815743D01*
X129399695Y-107573838D01*
X129399695Y-107331933D01*
X129278743Y-107090029D01*
X129157790Y-106969076D01*
X128915886Y-106848124D01*
X128432076Y-106727171D01*
X128190171Y-106606219D01*
X128069219Y-106485267D01*
X127948267Y-106243362D01*
X127948267Y-106001457D01*
X128069219Y-105759552D01*
X128190171Y-105638600D01*
X128432076Y-105517648D01*
X129036838Y-105517648D01*
X129399695Y-105638600D01*
X130246362Y-106364314D02*
X130851124Y-108057648D01*
X131455886Y-106364314D02*
X130851124Y-108057648D01*
X130609219Y-108662410D01*
X130488267Y-108783362D01*
X130246362Y-108904314D01*
X132302553Y-107936695D02*
X132544457Y-108057648D01*
X133028267Y-108057648D01*
X133270172Y-107936695D01*
X133391124Y-107694790D01*
X133391124Y-107573838D01*
X133270172Y-107331933D01*
X133028267Y-107210981D01*
X132665410Y-107210981D01*
X132423505Y-107090029D01*
X132302553Y-106848124D01*
X132302553Y-106727171D01*
X132423505Y-106485267D01*
X132665410Y-106364314D01*
X133028267Y-106364314D01*
X133270172Y-106485267D01*
X134116838Y-106364314D02*
X135084457Y-106364314D01*
X134479695Y-105517648D02*
X134479695Y-107694790D01*
X134600647Y-107936695D01*
X134842552Y-108057648D01*
X135084457Y-108057648D01*
X136898743Y-107936695D02*
X136656838Y-108057648D01*
X136173029Y-108057648D01*
X135931124Y-107936695D01*
X135810172Y-107694790D01*
X135810172Y-106727171D01*
X135931124Y-106485267D01*
X136173029Y-106364314D01*
X136656838Y-106364314D01*
X136898743Y-106485267D01*
X137019695Y-106727171D01*
X137019695Y-106969076D01*
X135810172Y-107210981D01*
X138108267Y-108057648D02*
X138108267Y-106364314D01*
X138108267Y-106606219D02*
X138229219Y-106485267D01*
X138471124Y-106364314D01*
X138833981Y-106364314D01*
X139075886Y-106485267D01*
X139196838Y-106727171D01*
X139196838Y-108057648D01*
X139196838Y-106727171D02*
X139317791Y-106485267D01*
X139559695Y-106364314D01*
X139922553Y-106364314D01*
X140164457Y-106485267D01*
X140285410Y-106727171D01*
X140285410Y-108057648D01*
D10*
X68595953Y-58237381D02*
X68024524Y-58237381D01*
X68310238Y-58237381D02*
X68310238Y-57237381D01*
X68215000Y-57380238D01*
X68119762Y-57475476D01*
X68024524Y-57523095D01*
X68976905Y-57332619D02*
X69024524Y-57285000D01*
X69119762Y-57237381D01*
X69357858Y-57237381D01*
X69453096Y-57285000D01*
X69500715Y-57332619D01*
X69548334Y-57427857D01*
X69548334Y-57523095D01*
X69500715Y-57665952D01*
X68929286Y-58237381D01*
X69548334Y-58237381D01*
X69834048Y-57237381D02*
X70167381Y-58237381D01*
X70500715Y-57237381D01*
X144065715Y-63635000D02*
X143970477Y-63587381D01*
X143827620Y-63587381D01*
X143684762Y-63635000D01*
X143589524Y-63730238D01*
X143541905Y-63825476D01*
X143494286Y-64015952D01*
X143494286Y-64158810D01*
X143541905Y-64349286D01*
X143589524Y-64444524D01*
X143684762Y-64539762D01*
X143827620Y-64587381D01*
X143922858Y-64587381D01*
X144065715Y-64539762D01*
X144113334Y-64492143D01*
X144113334Y-64158810D01*
X143922858Y-64158810D01*
X144541905Y-64587381D02*
X144541905Y-63587381D01*
X144922858Y-63587381D01*
X145018096Y-63635000D01*
X145065715Y-63682619D01*
X145113334Y-63777857D01*
X145113334Y-63920714D01*
X145065715Y-64015952D01*
X145018096Y-64063571D01*
X144922858Y-64111190D01*
X144541905Y-64111190D01*
X145494286Y-64539762D02*
X145637143Y-64587381D01*
X145875239Y-64587381D01*
X145970477Y-64539762D01*
X146018096Y-64492143D01*
X146065715Y-64396905D01*
X146065715Y-64301667D01*
X146018096Y-64206429D01*
X145970477Y-64158810D01*
X145875239Y-64111190D01*
X145684762Y-64063571D01*
X145589524Y-64015952D01*
X145541905Y-63968333D01*
X145494286Y-63873095D01*
X145494286Y-63777857D01*
X145541905Y-63682619D01*
X145589524Y-63635000D01*
X145684762Y-63587381D01*
X145922858Y-63587381D01*
X146065715Y-63635000D01*
X152297143Y-95067381D02*
X152487619Y-95067381D01*
X152582858Y-95019762D01*
X152630477Y-94972143D01*
X152725715Y-94829286D01*
X152773334Y-94638810D01*
X152773334Y-94257857D01*
X152725715Y-94162619D01*
X152678096Y-94115000D01*
X152582858Y-94067381D01*
X152392381Y-94067381D01*
X152297143Y-94115000D01*
X152249524Y-94162619D01*
X152201905Y-94257857D01*
X152201905Y-94495952D01*
X152249524Y-94591190D01*
X152297143Y-94638810D01*
X152392381Y-94686429D01*
X152582858Y-94686429D01*
X152678096Y-94638810D01*
X152725715Y-94591190D01*
X152773334Y-94495952D01*
X153392381Y-94067381D02*
X153487620Y-94067381D01*
X153582858Y-94115000D01*
X153630477Y-94162619D01*
X153678096Y-94257857D01*
X153725715Y-94448333D01*
X153725715Y-94686429D01*
X153678096Y-94876905D01*
X153630477Y-94972143D01*
X153582858Y-95019762D01*
X153487620Y-95067381D01*
X153392381Y-95067381D01*
X153297143Y-95019762D01*
X153249524Y-94972143D01*
X153201905Y-94876905D01*
X153154286Y-94686429D01*
X153154286Y-94448333D01*
X153201905Y-94257857D01*
X153249524Y-94162619D01*
X153297143Y-94115000D01*
X153392381Y-94067381D01*
X154344762Y-94067381D02*
X154440001Y-94067381D01*
X154535239Y-94115000D01*
X154582858Y-94162619D01*
X154630477Y-94257857D01*
X154678096Y-94448333D01*
X154678096Y-94686429D01*
X154630477Y-94876905D01*
X154582858Y-94972143D01*
X154535239Y-95019762D01*
X154440001Y-95067381D01*
X154344762Y-95067381D01*
X154249524Y-95019762D01*
X154201905Y-94972143D01*
X154154286Y-94876905D01*
X154106667Y-94686429D01*
X154106667Y-94448333D01*
X154154286Y-94257857D01*
X154201905Y-94162619D01*
X154249524Y-94115000D01*
X154344762Y-94067381D01*
X155106667Y-95067381D02*
X155106667Y-94067381D01*
X155440001Y-94781667D01*
X155773334Y-94067381D01*
X155773334Y-95067381D01*
X156249524Y-95067381D02*
X156249524Y-94067381D01*
X156249524Y-94543571D02*
X156820953Y-94543571D01*
X156820953Y-95067381D02*
X156820953Y-94067381D01*
X157201905Y-94400714D02*
X157725715Y-94400714D01*
X157201905Y-95067381D01*
X157725715Y-95067381D01*
X64643096Y-71890000D02*
X64547858Y-71842381D01*
X64405001Y-71842381D01*
X64262143Y-71890000D01*
X64166905Y-71985238D01*
X64119286Y-72080476D01*
X64071667Y-72270952D01*
X64071667Y-72413810D01*
X64119286Y-72604286D01*
X64166905Y-72699524D01*
X64262143Y-72794762D01*
X64405001Y-72842381D01*
X64500239Y-72842381D01*
X64643096Y-72794762D01*
X64690715Y-72747143D01*
X64690715Y-72413810D01*
X64500239Y-72413810D01*
X65119286Y-72842381D02*
X65119286Y-71842381D01*
X65690715Y-72842381D01*
X65690715Y-71842381D01*
X66166905Y-72842381D02*
X66166905Y-71842381D01*
X66405000Y-71842381D01*
X66547858Y-71890000D01*
X66643096Y-71985238D01*
X66690715Y-72080476D01*
X66738334Y-72270952D01*
X66738334Y-72413810D01*
X66690715Y-72604286D01*
X66643096Y-72699524D01*
X66547858Y-72794762D01*
X66405000Y-72842381D01*
X66166905Y-72842381D01*
X68453096Y-59825000D02*
X68357858Y-59777381D01*
X68215001Y-59777381D01*
X68072143Y-59825000D01*
X67976905Y-59920238D01*
X67929286Y-60015476D01*
X67881667Y-60205952D01*
X67881667Y-60348810D01*
X67929286Y-60539286D01*
X67976905Y-60634524D01*
X68072143Y-60729762D01*
X68215001Y-60777381D01*
X68310239Y-60777381D01*
X68453096Y-60729762D01*
X68500715Y-60682143D01*
X68500715Y-60348810D01*
X68310239Y-60348810D01*
X68929286Y-60777381D02*
X68929286Y-59777381D01*
X69500715Y-60777381D01*
X69500715Y-59777381D01*
X69976905Y-60777381D02*
X69976905Y-59777381D01*
X70215000Y-59777381D01*
X70357858Y-59825000D01*
X70453096Y-59920238D01*
X70500715Y-60015476D01*
X70548334Y-60205952D01*
X70548334Y-60348810D01*
X70500715Y-60539286D01*
X70453096Y-60634524D01*
X70357858Y-60729762D01*
X70215000Y-60777381D01*
X69976905Y-60777381D01*
X114831905Y-55697381D02*
X114831905Y-54697381D01*
X115070000Y-54697381D01*
X115212858Y-54745000D01*
X115308096Y-54840238D01*
X115355715Y-54935476D01*
X115403334Y-55125952D01*
X115403334Y-55268810D01*
X115355715Y-55459286D01*
X115308096Y-55554524D01*
X115212858Y-55649762D01*
X115070000Y-55697381D01*
X114831905Y-55697381D01*
X115879524Y-55697381D02*
X116070000Y-55697381D01*
X116165239Y-55649762D01*
X116212858Y-55602143D01*
X116308096Y-55459286D01*
X116355715Y-55268810D01*
X116355715Y-54887857D01*
X116308096Y-54792619D01*
X116260477Y-54745000D01*
X116165239Y-54697381D01*
X115974762Y-54697381D01*
X115879524Y-54745000D01*
X115831905Y-54792619D01*
X115784286Y-54887857D01*
X115784286Y-55125952D01*
X115831905Y-55221190D01*
X115879524Y-55268810D01*
X115974762Y-55316429D01*
X116165239Y-55316429D01*
X116260477Y-55268810D01*
X116308096Y-55221190D01*
X116355715Y-55125952D01*
X106553096Y-52205000D02*
X106457858Y-52157381D01*
X106315001Y-52157381D01*
X106172143Y-52205000D01*
X106076905Y-52300238D01*
X106029286Y-52395476D01*
X105981667Y-52585952D01*
X105981667Y-52728810D01*
X106029286Y-52919286D01*
X106076905Y-53014524D01*
X106172143Y-53109762D01*
X106315001Y-53157381D01*
X106410239Y-53157381D01*
X106553096Y-53109762D01*
X106600715Y-53062143D01*
X106600715Y-52728810D01*
X106410239Y-52728810D01*
X107029286Y-53157381D02*
X107029286Y-52157381D01*
X107600715Y-53157381D01*
X107600715Y-52157381D01*
X108076905Y-53157381D02*
X108076905Y-52157381D01*
X108315000Y-52157381D01*
X108457858Y-52205000D01*
X108553096Y-52300238D01*
X108600715Y-52395476D01*
X108648334Y-52585952D01*
X108648334Y-52728810D01*
X108600715Y-52919286D01*
X108553096Y-53014524D01*
X108457858Y-53109762D01*
X108315000Y-53157381D01*
X108076905Y-53157381D01*
X118776905Y-57237381D02*
X119395953Y-57237381D01*
X119062619Y-57618333D01*
X119205477Y-57618333D01*
X119300715Y-57665952D01*
X119348334Y-57713571D01*
X119395953Y-57808810D01*
X119395953Y-58046905D01*
X119348334Y-58142143D01*
X119300715Y-58189762D01*
X119205477Y-58237381D01*
X118919762Y-58237381D01*
X118824524Y-58189762D01*
X118776905Y-58142143D01*
X119681667Y-57237381D02*
X120015000Y-58237381D01*
X120348334Y-57237381D01*
X120586429Y-57237381D02*
X121205477Y-57237381D01*
X120872143Y-57618333D01*
X121015001Y-57618333D01*
X121110239Y-57665952D01*
X121157858Y-57713571D01*
X121205477Y-57808810D01*
X121205477Y-58046905D01*
X121157858Y-58142143D01*
X121110239Y-58189762D01*
X121015001Y-58237381D01*
X120729286Y-58237381D01*
X120634048Y-58189762D01*
X120586429Y-58142143D01*
X119300714Y-55411667D02*
X119776905Y-55411667D01*
X119205476Y-55697381D02*
X119538809Y-54697381D01*
X119872143Y-55697381D01*
X120157857Y-54792619D02*
X120205476Y-54745000D01*
X120300714Y-54697381D01*
X120538810Y-54697381D01*
X120634048Y-54745000D01*
X120681667Y-54792619D01*
X120729286Y-54887857D01*
X120729286Y-54983095D01*
X120681667Y-55125952D01*
X120110238Y-55697381D01*
X120729286Y-55697381D01*
X118618096Y-52205000D02*
X118522858Y-52157381D01*
X118380001Y-52157381D01*
X118237143Y-52205000D01*
X118141905Y-52300238D01*
X118094286Y-52395476D01*
X118046667Y-52585952D01*
X118046667Y-52728810D01*
X118094286Y-52919286D01*
X118141905Y-53014524D01*
X118237143Y-53109762D01*
X118380001Y-53157381D01*
X118475239Y-53157381D01*
X118618096Y-53109762D01*
X118665715Y-53062143D01*
X118665715Y-52728810D01*
X118475239Y-52728810D01*
X119094286Y-53157381D02*
X119094286Y-52157381D01*
X119665715Y-53157381D01*
X119665715Y-52157381D01*
X120141905Y-53157381D02*
X120141905Y-52157381D01*
X120380000Y-52157381D01*
X120522858Y-52205000D01*
X120618096Y-52300238D01*
X120665715Y-52395476D01*
X120713334Y-52585952D01*
X120713334Y-52728810D01*
X120665715Y-52919286D01*
X120618096Y-53014524D01*
X120522858Y-53109762D01*
X120380000Y-53157381D01*
X120141905Y-53157381D01*
X149639400Y-96951704D02*
X149591781Y-97046942D01*
X149591781Y-97189799D01*
X149639400Y-97332657D01*
X149734638Y-97427895D01*
X149829876Y-97475514D01*
X150020352Y-97523133D01*
X150163210Y-97523133D01*
X150353686Y-97475514D01*
X150448924Y-97427895D01*
X150544162Y-97332657D01*
X150591781Y-97189799D01*
X150591781Y-97094561D01*
X150544162Y-96951704D01*
X150496543Y-96904085D01*
X150163210Y-96904085D01*
X150163210Y-97094561D01*
X150591781Y-96475514D02*
X149591781Y-96475514D01*
X150591781Y-95904085D01*
X149591781Y-95904085D01*
X150591781Y-95427895D02*
X149591781Y-95427895D01*
X149591781Y-95189800D01*
X149639400Y-95046942D01*
X149734638Y-94951704D01*
X149829876Y-94904085D01*
X150020352Y-94856466D01*
X150163210Y-94856466D01*
X150353686Y-94904085D01*
X150448924Y-94951704D01*
X150544162Y-95046942D01*
X150591781Y-95189800D01*
X150591781Y-95427895D01*
X148026381Y-97608828D02*
X147026381Y-97608828D01*
X147740667Y-97275494D01*
X147026381Y-96942161D01*
X148026381Y-96942161D01*
X147026381Y-96275495D02*
X147026381Y-96085018D01*
X147074000Y-95989780D01*
X147169238Y-95894542D01*
X147359714Y-95846923D01*
X147693048Y-95846923D01*
X147883524Y-95894542D01*
X147978762Y-95989780D01*
X148026381Y-96085018D01*
X148026381Y-96275495D01*
X147978762Y-96370733D01*
X147883524Y-96465971D01*
X147693048Y-96513590D01*
X147359714Y-96513590D01*
X147169238Y-96465971D01*
X147074000Y-96370733D01*
X147026381Y-96275495D01*
X147978762Y-95465971D02*
X148026381Y-95323114D01*
X148026381Y-95085018D01*
X147978762Y-94989780D01*
X147931143Y-94942161D01*
X147835905Y-94894542D01*
X147740667Y-94894542D01*
X147645429Y-94942161D01*
X147597810Y-94989780D01*
X147550190Y-95085018D01*
X147502571Y-95275495D01*
X147454952Y-95370733D01*
X147407333Y-95418352D01*
X147312095Y-95465971D01*
X147216857Y-95465971D01*
X147121619Y-95418352D01*
X147074000Y-95370733D01*
X147026381Y-95275495D01*
X147026381Y-95037399D01*
X147074000Y-94894542D01*
X148026381Y-94465971D02*
X147026381Y-94465971D01*
X145413362Y-97500914D02*
X145460981Y-97358057D01*
X145460981Y-97119961D01*
X145413362Y-97024723D01*
X145365743Y-96977104D01*
X145270505Y-96929485D01*
X145175267Y-96929485D01*
X145080029Y-96977104D01*
X145032410Y-97024723D01*
X144984790Y-97119961D01*
X144937171Y-97310438D01*
X144889552Y-97405676D01*
X144841933Y-97453295D01*
X144746695Y-97500914D01*
X144651457Y-97500914D01*
X144556219Y-97453295D01*
X144508600Y-97405676D01*
X144460981Y-97310438D01*
X144460981Y-97072342D01*
X144508600Y-96929485D01*
X145365743Y-95929485D02*
X145413362Y-95977104D01*
X145460981Y-96119961D01*
X145460981Y-96215199D01*
X145413362Y-96358057D01*
X145318124Y-96453295D01*
X145222886Y-96500914D01*
X145032410Y-96548533D01*
X144889552Y-96548533D01*
X144699076Y-96500914D01*
X144603838Y-96453295D01*
X144508600Y-96358057D01*
X144460981Y-96215199D01*
X144460981Y-96119961D01*
X144508600Y-95977104D01*
X144556219Y-95929485D01*
X145460981Y-95500914D02*
X144460981Y-95500914D01*
X145460981Y-94929485D02*
X144889552Y-95358057D01*
X144460981Y-94929485D02*
X145032410Y-95500914D01*
X142489181Y-97888228D02*
X141489181Y-97888228D01*
X142203467Y-97554894D01*
X141489181Y-97221561D01*
X142489181Y-97221561D01*
X142489181Y-96745371D02*
X141489181Y-96745371D01*
X142441562Y-96316800D02*
X142489181Y-96173943D01*
X142489181Y-95935847D01*
X142441562Y-95840609D01*
X142393943Y-95792990D01*
X142298705Y-95745371D01*
X142203467Y-95745371D01*
X142108229Y-95792990D01*
X142060610Y-95840609D01*
X142012990Y-95935847D01*
X141965371Y-96126324D01*
X141917752Y-96221562D01*
X141870133Y-96269181D01*
X141774895Y-96316800D01*
X141679657Y-96316800D01*
X141584419Y-96269181D01*
X141536800Y-96221562D01*
X141489181Y-96126324D01*
X141489181Y-95888228D01*
X141536800Y-95745371D01*
X141489181Y-95126324D02*
X141489181Y-94935847D01*
X141536800Y-94840609D01*
X141632038Y-94745371D01*
X141822514Y-94697752D01*
X142155848Y-94697752D01*
X142346324Y-94745371D01*
X142441562Y-94840609D01*
X142489181Y-94935847D01*
X142489181Y-95126324D01*
X142441562Y-95221562D01*
X142346324Y-95316800D01*
X142155848Y-95364419D01*
X141822514Y-95364419D01*
X141632038Y-95316800D01*
X141536800Y-95221562D01*
X141489181Y-95126324D01*
X131808600Y-97104104D02*
X131760981Y-97199342D01*
X131760981Y-97342199D01*
X131808600Y-97485057D01*
X131903838Y-97580295D01*
X131999076Y-97627914D01*
X132189552Y-97675533D01*
X132332410Y-97675533D01*
X132522886Y-97627914D01*
X132618124Y-97580295D01*
X132713362Y-97485057D01*
X132760981Y-97342199D01*
X132760981Y-97246961D01*
X132713362Y-97104104D01*
X132665743Y-97056485D01*
X132332410Y-97056485D01*
X132332410Y-97246961D01*
X132760981Y-96627914D02*
X131760981Y-96627914D01*
X132760981Y-96056485D01*
X131760981Y-96056485D01*
X132760981Y-95580295D02*
X131760981Y-95580295D01*
X131760981Y-95342200D01*
X131808600Y-95199342D01*
X131903838Y-95104104D01*
X131999076Y-95056485D01*
X132189552Y-95008866D01*
X132332410Y-95008866D01*
X132522886Y-95056485D01*
X132618124Y-95104104D01*
X132713362Y-95199342D01*
X132760981Y-95342200D01*
X132760981Y-95580295D01*
X135202562Y-97556486D02*
X135250181Y-97413629D01*
X135250181Y-97175533D01*
X135202562Y-97080295D01*
X135154943Y-97032676D01*
X135059705Y-96985057D01*
X134964467Y-96985057D01*
X134869229Y-97032676D01*
X134821610Y-97080295D01*
X134773990Y-97175533D01*
X134726371Y-97366010D01*
X134678752Y-97461248D01*
X134631133Y-97508867D01*
X134535895Y-97556486D01*
X134440657Y-97556486D01*
X134345419Y-97508867D01*
X134297800Y-97461248D01*
X134250181Y-97366010D01*
X134250181Y-97127914D01*
X134297800Y-96985057D01*
X135250181Y-96556486D02*
X134250181Y-96556486D01*
X134250181Y-96318391D01*
X134297800Y-96175533D01*
X134393038Y-96080295D01*
X134488276Y-96032676D01*
X134678752Y-95985057D01*
X134821610Y-95985057D01*
X135012086Y-96032676D01*
X135107324Y-96080295D01*
X135202562Y-96175533D01*
X135250181Y-96318391D01*
X135250181Y-96556486D01*
X134964467Y-95604105D02*
X134964467Y-95127914D01*
X135250181Y-95699343D02*
X134250181Y-95366010D01*
X135250181Y-95032676D01*
X137742562Y-97608876D02*
X137790181Y-97466019D01*
X137790181Y-97227923D01*
X137742562Y-97132685D01*
X137694943Y-97085066D01*
X137599705Y-97037447D01*
X137504467Y-97037447D01*
X137409229Y-97085066D01*
X137361610Y-97132685D01*
X137313990Y-97227923D01*
X137266371Y-97418400D01*
X137218752Y-97513638D01*
X137171133Y-97561257D01*
X137075895Y-97608876D01*
X136980657Y-97608876D01*
X136885419Y-97561257D01*
X136837800Y-97513638D01*
X136790181Y-97418400D01*
X136790181Y-97180304D01*
X136837800Y-97037447D01*
X137694943Y-96037447D02*
X137742562Y-96085066D01*
X137790181Y-96227923D01*
X137790181Y-96323161D01*
X137742562Y-96466019D01*
X137647324Y-96561257D01*
X137552086Y-96608876D01*
X137361610Y-96656495D01*
X137218752Y-96656495D01*
X137028276Y-96608876D01*
X136933038Y-96561257D01*
X136837800Y-96466019D01*
X136790181Y-96323161D01*
X136790181Y-96227923D01*
X136837800Y-96085066D01*
X136885419Y-96037447D01*
X137790181Y-95132685D02*
X137790181Y-95608876D01*
X136790181Y-95608876D01*
X118067200Y-97002504D02*
X118019581Y-97097742D01*
X118019581Y-97240599D01*
X118067200Y-97383457D01*
X118162438Y-97478695D01*
X118257676Y-97526314D01*
X118448152Y-97573933D01*
X118591010Y-97573933D01*
X118781486Y-97526314D01*
X118876724Y-97478695D01*
X118971962Y-97383457D01*
X119019581Y-97240599D01*
X119019581Y-97145361D01*
X118971962Y-97002504D01*
X118924343Y-96954885D01*
X118591010Y-96954885D01*
X118591010Y-97145361D01*
X119019581Y-96526314D02*
X118019581Y-96526314D01*
X119019581Y-95954885D01*
X118019581Y-95954885D01*
X119019581Y-95478695D02*
X118019581Y-95478695D01*
X118019581Y-95240600D01*
X118067200Y-95097742D01*
X118162438Y-95002504D01*
X118257676Y-94954885D01*
X118448152Y-94907266D01*
X118591010Y-94907266D01*
X118781486Y-94954885D01*
X118876724Y-95002504D01*
X118971962Y-95097742D01*
X119019581Y-95240600D01*
X119019581Y-95478695D01*
X123175781Y-97453295D02*
X123175781Y-96834247D01*
X123556733Y-97167581D01*
X123556733Y-97024723D01*
X123604352Y-96929485D01*
X123651971Y-96881866D01*
X123747210Y-96834247D01*
X123985305Y-96834247D01*
X124080543Y-96881866D01*
X124128162Y-96929485D01*
X124175781Y-97024723D01*
X124175781Y-97310438D01*
X124128162Y-97405676D01*
X124080543Y-97453295D01*
X123175781Y-96548533D02*
X124175781Y-96215200D01*
X123175781Y-95881866D01*
X123175781Y-95643771D02*
X123175781Y-95024723D01*
X123556733Y-95358057D01*
X123556733Y-95215199D01*
X123604352Y-95119961D01*
X123651971Y-95072342D01*
X123747210Y-95024723D01*
X123985305Y-95024723D01*
X124080543Y-95072342D01*
X124128162Y-95119961D01*
X124175781Y-95215199D01*
X124175781Y-95500914D01*
X124128162Y-95596152D01*
X124080543Y-95643771D01*
X126642762Y-97521447D02*
X126690381Y-97378590D01*
X126690381Y-97140494D01*
X126642762Y-97045256D01*
X126595143Y-96997637D01*
X126499905Y-96950018D01*
X126404667Y-96950018D01*
X126309429Y-96997637D01*
X126261810Y-97045256D01*
X126214190Y-97140494D01*
X126166571Y-97330971D01*
X126118952Y-97426209D01*
X126071333Y-97473828D01*
X125976095Y-97521447D01*
X125880857Y-97521447D01*
X125785619Y-97473828D01*
X125738000Y-97426209D01*
X125690381Y-97330971D01*
X125690381Y-97092875D01*
X125738000Y-96950018D01*
X125690381Y-96616685D02*
X126690381Y-96378590D01*
X125976095Y-96188113D01*
X126690381Y-95997637D01*
X125690381Y-95759542D01*
X126690381Y-95378590D02*
X125690381Y-95378590D01*
X125690381Y-95140495D01*
X125738000Y-94997637D01*
X125833238Y-94902399D01*
X125928476Y-94854780D01*
X126118952Y-94807161D01*
X126261810Y-94807161D01*
X126452286Y-94854780D01*
X126547524Y-94902399D01*
X126642762Y-94997637D01*
X126690381Y-95140495D01*
X126690381Y-95378590D01*
X126690381Y-94378590D02*
X125690381Y-94378590D01*
X125690381Y-93711924D02*
X125690381Y-93521447D01*
X125738000Y-93426209D01*
X125833238Y-93330971D01*
X126023714Y-93283352D01*
X126357048Y-93283352D01*
X126547524Y-93330971D01*
X126642762Y-93426209D01*
X126690381Y-93521447D01*
X126690381Y-93711924D01*
X126642762Y-93807162D01*
X126547524Y-93902400D01*
X126357048Y-93950019D01*
X126023714Y-93950019D01*
X125833238Y-93902400D01*
X125738000Y-93807162D01*
X125690381Y-93711924D01*
X121562762Y-97511905D02*
X121610381Y-97369048D01*
X121610381Y-97130952D01*
X121562762Y-97035714D01*
X121515143Y-96988095D01*
X121419905Y-96940476D01*
X121324667Y-96940476D01*
X121229429Y-96988095D01*
X121181810Y-97035714D01*
X121134190Y-97130952D01*
X121086571Y-97321429D01*
X121038952Y-97416667D01*
X120991333Y-97464286D01*
X120896095Y-97511905D01*
X120800857Y-97511905D01*
X120705619Y-97464286D01*
X120658000Y-97416667D01*
X120610381Y-97321429D01*
X120610381Y-97083333D01*
X120658000Y-96940476D01*
X120610381Y-96607143D02*
X121610381Y-96369048D01*
X120896095Y-96178571D01*
X121610381Y-95988095D01*
X120610381Y-95750000D01*
X121515143Y-94797619D02*
X121562762Y-94845238D01*
X121610381Y-94988095D01*
X121610381Y-95083333D01*
X121562762Y-95226191D01*
X121467524Y-95321429D01*
X121372286Y-95369048D01*
X121181810Y-95416667D01*
X121038952Y-95416667D01*
X120848476Y-95369048D01*
X120753238Y-95321429D01*
X120658000Y-95226191D01*
X120610381Y-95083333D01*
X120610381Y-94988095D01*
X120658000Y-94845238D01*
X120705619Y-94797619D01*
X121610381Y-93892857D02*
X121610381Y-94369048D01*
X120610381Y-94369048D01*
X121610381Y-93559524D02*
X120610381Y-93559524D01*
X121610381Y-92988095D02*
X121038952Y-93416667D01*
X120610381Y-92988095D02*
X121181810Y-93559524D01*
D11*
X131124000Y-57153500D02*
X138624000Y-57153500D01*
X138624000Y-57153500D02*
X138624000Y-49653500D01*
X138624000Y-49653500D02*
X131124000Y-49653500D01*
X131124000Y-49653500D02*
X131124000Y-57153500D01*
D14*
X61790000Y-76223500D02*
X61790000Y-83923500D01*
X60790000Y-76223500D02*
X60790000Y-83923500D01*
X60790000Y-83923500D02*
X69990000Y-83923500D01*
X69990000Y-83923500D02*
X69990000Y-76223500D01*
X69990000Y-76223500D02*
X60790000Y-76223500D01*
D11*
X144274000Y-78868000D02*
X158244000Y-78868000D01*
X144274000Y-93854000D02*
X158244000Y-93854000D01*
D14*
X114546000Y-72873500D02*
X113546000Y-72873500D01*
X113546000Y-74573500D02*
X114546000Y-74573500D01*
X113736500Y-86194000D02*
X114736500Y-86194000D01*
X114736500Y-84494000D02*
X113736500Y-84494000D01*
X113546000Y-77177000D02*
X114546000Y-77177000D01*
X114546000Y-75477000D02*
X113546000Y-75477000D01*
X72330500Y-54340000D02*
X72330500Y-52340000D01*
X70290500Y-52340000D02*
X70290500Y-54340000D01*
X98798000Y-87669000D02*
X97798000Y-87669000D01*
X97798000Y-89369000D02*
X98798000Y-89369000D01*
X88769000Y-52784500D02*
X88769000Y-54784500D01*
X90809000Y-54784500D02*
X90809000Y-52784500D01*
X85383000Y-52776500D02*
X85383000Y-53776500D01*
X87083000Y-53776500D02*
X87083000Y-52776500D01*
X72937000Y-84272500D02*
X72937000Y-85272500D01*
X74637000Y-85272500D02*
X74637000Y-84272500D01*
X114609500Y-69762000D02*
X113609500Y-69762000D01*
X113609500Y-71462000D02*
X114609500Y-71462000D01*
X157357000Y-55991000D02*
X157357000Y-53991000D01*
X155317000Y-53991000D02*
X155317000Y-55991000D01*
X149165500Y-70405500D02*
X149165500Y-68405500D01*
X147125500Y-68405500D02*
X147125500Y-70405500D01*
X153631000Y-55491000D02*
X153631000Y-54491000D01*
X151931000Y-54491000D02*
X151931000Y-55491000D01*
X147327250Y-73302750D02*
X147327250Y-74302750D01*
X149027250Y-74302750D02*
X149027250Y-73302750D01*
X96059500Y-100453000D02*
X94059500Y-100453000D01*
X94059500Y-102493000D02*
X96059500Y-102493000D01*
X89043000Y-102493000D02*
X91043000Y-102493000D01*
X91043000Y-100453000D02*
X89043000Y-100453000D01*
X103624000Y-94971500D02*
X102624000Y-94971500D01*
X102624000Y-96671500D02*
X103624000Y-96671500D01*
X79367000Y-93574500D02*
X78367000Y-93574500D01*
X78367000Y-95274500D02*
X79367000Y-95274500D01*
X79494000Y-97003500D02*
X78494000Y-97003500D01*
X78494000Y-98703500D02*
X79494000Y-98703500D01*
X69580000Y-51090000D02*
X67580000Y-51090000D01*
X67580000Y-51090000D02*
X67580000Y-54990000D01*
X69580000Y-51090000D02*
X69580000Y-54990000D01*
X85875500Y-63397500D02*
X85875500Y-61697500D01*
X85825500Y-61697500D02*
X81775500Y-61697500D01*
X85825500Y-63397500D02*
X81775500Y-63397500D01*
X60248500Y-89932500D02*
X60148500Y-89432500D01*
X60548500Y-91232500D02*
X60248500Y-89932500D01*
X60748500Y-92732500D02*
X60548500Y-91232500D01*
X60848500Y-94032500D02*
X60748500Y-92732500D01*
X60848500Y-95832500D02*
X60848500Y-94032500D01*
X60748500Y-97132500D02*
X60848500Y-95832500D01*
X60648500Y-97932500D02*
X60748500Y-97132500D01*
X60348500Y-99632500D02*
X60648500Y-97932500D01*
X60148500Y-100432500D02*
X60348500Y-99632500D01*
X59548500Y-99932500D02*
X59548500Y-89932500D01*
X60048500Y-89432500D02*
G75*
G03X59548500Y-89932500I0J-500000D01*
G01*
X61048500Y-100432500D02*
X60048500Y-100432500D01*
X61048500Y-89432500D02*
X60048500Y-89432500D01*
X61048500Y-101842500D02*
X61048500Y-88022500D01*
X74968500Y-88022500D02*
X74968500Y-101842500D01*
X72268500Y-88022500D02*
X74968500Y-88022500D01*
X59548500Y-99932500D02*
G75*
G03X60048500Y-100432500I500000J0D01*
G01*
X61048500Y-88022500D02*
X61448500Y-88022500D01*
X63968500Y-88022500D02*
X69748500Y-88022500D01*
X72268500Y-101842500D02*
X74968500Y-101842500D01*
X63968500Y-101842500D02*
X69748500Y-101842500D01*
X61048500Y-101842500D02*
X61448500Y-101842500D01*
X158436000Y-66227000D02*
X161096000Y-66227000D01*
X158436000Y-61087000D02*
X158436000Y-66227000D01*
X161096000Y-61087000D02*
X161096000Y-66227000D01*
X158436000Y-61087000D02*
X161096000Y-61087000D01*
X158436000Y-59817000D02*
X158436000Y-58487000D01*
X158436000Y-58487000D02*
X159766000Y-58487000D01*
X87404500Y-80255000D02*
X86204500Y-80255000D01*
X86204500Y-78495000D02*
X87404500Y-78495000D01*
X87343500Y-76508500D02*
X86143500Y-76508500D01*
X86143500Y-74748500D02*
X87343500Y-74748500D01*
X129803000Y-68484000D02*
X129803000Y-67284000D01*
X131563000Y-67284000D02*
X131563000Y-68484000D01*
X126501000Y-68484000D02*
X126501000Y-67284000D01*
X128261000Y-67284000D02*
X128261000Y-68484000D01*
X102397000Y-98688000D02*
X103597000Y-98688000D01*
X103597000Y-100448000D02*
X102397000Y-100448000D01*
X103724000Y-93336000D02*
X102524000Y-93336000D01*
X102524000Y-91576000D02*
X103724000Y-91576000D01*
X98523500Y-90560000D02*
X99723500Y-90560000D01*
X99723500Y-92320000D02*
X98523500Y-92320000D01*
D11*
X102685000Y-80650500D02*
X102685000Y-80225500D01*
X95435000Y-80650500D02*
X95435000Y-80125500D01*
X95435000Y-73400500D02*
X95435000Y-73925500D01*
X102685000Y-73400500D02*
X102685000Y-73925500D01*
X102685000Y-80650500D02*
X102160000Y-80650500D01*
X102685000Y-73400500D02*
X102160000Y-73400500D01*
X95435000Y-73400500D02*
X95960000Y-73400500D01*
X95435000Y-80650500D02*
X95960000Y-80650500D01*
X102685000Y-80225500D02*
X104060000Y-80225500D01*
X125777500Y-73669000D02*
X125777500Y-73944000D01*
X133527500Y-73669000D02*
X133527500Y-74024000D01*
X133527500Y-84319000D02*
X133527500Y-83964000D01*
X125777500Y-84319000D02*
X125777500Y-83964000D01*
X125777500Y-73669000D02*
X133527500Y-73669000D01*
X125777500Y-84319000D02*
X133527500Y-84319000D01*
X125777500Y-73944000D02*
X124252500Y-73944000D01*
X90164500Y-97732000D02*
X90164500Y-92332000D01*
X94164500Y-97732000D02*
X94164500Y-92332000D01*
X94064500Y-92232000D02*
X90264500Y-92232000D01*
X90264500Y-97832000D02*
X94064500Y-97832000D01*
X91096861Y-97312000D02*
G75*
G03X91096861Y-97312000I-22361J0D01*
G01*
D14*
X96735000Y-55285000D02*
X95035000Y-55285000D01*
X95035000Y-55335000D02*
X95035000Y-59385000D01*
X96735000Y-55335000D02*
X96735000Y-59385000D01*
X99910000Y-55285000D02*
X98210000Y-55285000D01*
X98210000Y-55335000D02*
X98210000Y-59385000D01*
X99910000Y-55335000D02*
X99910000Y-59385000D01*
X103085000Y-55285000D02*
X101385000Y-55285000D01*
X101385000Y-55335000D02*
X101385000Y-59385000D01*
X103085000Y-55335000D02*
X103085000Y-59385000D01*
X95005000Y-53305000D02*
X95005000Y-52105000D01*
X96765000Y-52105000D02*
X96765000Y-53305000D01*
X98180000Y-53305000D02*
X98180000Y-52105000D01*
X99940000Y-52105000D02*
X99940000Y-53305000D01*
X101355000Y-53305000D02*
X101355000Y-52105000D01*
X103115000Y-52105000D02*
X103115000Y-53305000D01*
X117161000Y-98365000D02*
X117161000Y-101025000D01*
X124841000Y-98365000D02*
X117161000Y-98365000D01*
X124841000Y-101025000D02*
X117161000Y-101025000D01*
X124841000Y-98365000D02*
X124841000Y-101025000D01*
X126111000Y-98365000D02*
X127441000Y-98365000D01*
X127441000Y-98365000D02*
X127441000Y-99695000D01*
X71060000Y-61655000D02*
X73720000Y-61655000D01*
X71060000Y-59055000D02*
X71060000Y-61655000D01*
X73720000Y-59055000D02*
X73720000Y-61655000D01*
X71060000Y-59055000D02*
X73720000Y-59055000D01*
X71060000Y-57785000D02*
X71060000Y-56455000D01*
X71060000Y-56455000D02*
X72390000Y-56455000D01*
X151444000Y-100898000D02*
X151444000Y-98238000D01*
X143764000Y-100898000D02*
X151444000Y-100898000D01*
X143764000Y-98238000D02*
X151444000Y-98238000D01*
X143764000Y-100898000D02*
X143764000Y-98238000D01*
X142494000Y-100898000D02*
X141164000Y-100898000D01*
X141164000Y-100898000D02*
X141164000Y-99568000D01*
X126425000Y-51375000D02*
X121225000Y-51375000D01*
X126425000Y-56515000D02*
X126425000Y-51375000D01*
X121225000Y-59115000D02*
X121225000Y-51375000D01*
X126425000Y-56515000D02*
X123825000Y-56515000D01*
X123825000Y-56515000D02*
X123825000Y-59115000D01*
X123825000Y-59115000D02*
X121225000Y-59115000D01*
X126425000Y-57785000D02*
X126425000Y-59115000D01*
X126425000Y-59115000D02*
X125095000Y-59115000D01*
X114360000Y-51375000D02*
X109160000Y-51375000D01*
X114360000Y-53975000D02*
X114360000Y-51375000D01*
X109160000Y-56575000D02*
X109160000Y-51375000D01*
X114360000Y-53975000D02*
X111760000Y-53975000D01*
X111760000Y-53975000D02*
X111760000Y-56575000D01*
X111760000Y-56575000D02*
X109160000Y-56575000D01*
X114360000Y-55245000D02*
X114360000Y-56575000D01*
X114360000Y-56575000D02*
X113030000Y-56575000D01*
X130877000Y-98365000D02*
X130877000Y-101025000D01*
X136017000Y-98365000D02*
X130877000Y-98365000D01*
X136017000Y-101025000D02*
X130877000Y-101025000D01*
X136017000Y-98365000D02*
X136017000Y-101025000D01*
X137287000Y-98365000D02*
X138617000Y-98365000D01*
X138617000Y-98365000D02*
X138617000Y-99695000D01*
X131834000Y-61048000D02*
X132834000Y-61048000D01*
X132834000Y-59348000D02*
X131834000Y-59348000D01*
X136389000Y-61757000D02*
X136389000Y-62957000D01*
X134629000Y-62957000D02*
X134629000Y-61757000D01*
X89733500Y-63427500D02*
X88533500Y-63427500D01*
X88533500Y-61667500D02*
X89733500Y-61667500D01*
X141561750Y-75817250D02*
X141061750Y-75817250D01*
X141061750Y-75817250D02*
X141061750Y-75317250D01*
X141061750Y-71117250D02*
X141061750Y-70617250D01*
X141061750Y-70617250D02*
X141561750Y-70617250D01*
X143861750Y-70617250D02*
X144361750Y-70617250D01*
X144361750Y-70617250D02*
X144361750Y-71117250D01*
X144261750Y-75817250D02*
X143311750Y-75817250D01*
D15*
X108371000Y-102474400D02*
X108371000Y-97474400D01*
X111871000Y-97474400D02*
X109871000Y-97474400D01*
X113371000Y-97474400D02*
X113371000Y-101244400D01*
X113371000Y-101244400D02*
X112141000Y-102474400D01*
X112141000Y-102474400D02*
X109871000Y-102474400D01*
D14*
X108263800Y-95088000D02*
X108263800Y-93888000D01*
X110023800Y-93888000D02*
X110023800Y-95088000D01*
X76092000Y-57028000D02*
X77352000Y-57028000D01*
X82912000Y-57028000D02*
X81652000Y-57028000D01*
X76092000Y-53268000D02*
X76092000Y-57028000D01*
X82912000Y-51018000D02*
X82912000Y-57028000D01*
X69338000Y-69358000D02*
X69338000Y-71358000D01*
X71378000Y-71358000D02*
X71378000Y-69358000D01*
X80514000Y-69358000D02*
X80514000Y-71358000D01*
X82554000Y-71358000D02*
X82554000Y-69358000D01*
X79398001Y-66797000D02*
X78138001Y-66797000D01*
X72578001Y-66797000D02*
X73838001Y-66797000D01*
X79398001Y-70557000D02*
X79398001Y-66797000D01*
X72578001Y-72807000D02*
X72578001Y-66797000D01*
X146773000Y-69588000D02*
X146773000Y-68588000D01*
X145073000Y-68588000D02*
X145073000Y-69588000D01*
X77600500Y-104454000D02*
X80260500Y-104454000D01*
X77600500Y-104394000D02*
X77600500Y-104454000D01*
X80260500Y-104394000D02*
X80260500Y-104454000D01*
X77600500Y-104394000D02*
X80260500Y-104394000D01*
X77600500Y-103124000D02*
X77600500Y-101794000D01*
X77600500Y-101794000D02*
X78930500Y-101794000D01*
X89411500Y-60067500D02*
X92071500Y-60067500D01*
X89411500Y-60007500D02*
X89411500Y-60067500D01*
X92071500Y-60007500D02*
X92071500Y-60067500D01*
X89411500Y-60007500D02*
X92071500Y-60007500D01*
X89411500Y-58737500D02*
X89411500Y-57407500D01*
X89411500Y-57407500D02*
X90741500Y-57407500D01*
D11*
X155571500Y-102556000D02*
X163071500Y-102556000D01*
X163071500Y-102556000D02*
X163071500Y-95056000D01*
X163071500Y-95056000D02*
X155571500Y-95056000D01*
X155571500Y-95056000D02*
X155571500Y-102556000D01*
X129841667Y-53808381D02*
X129841667Y-54522667D01*
X129794047Y-54665524D01*
X129698809Y-54760762D01*
X129555952Y-54808381D01*
X129460714Y-54808381D01*
X130222619Y-53808381D02*
X130889286Y-53808381D01*
X130460714Y-54808381D01*
X140081095Y-62507881D02*
X140081095Y-63317405D01*
X140128714Y-63412643D01*
X140176333Y-63460262D01*
X140271571Y-63507881D01*
X140462048Y-63507881D01*
X140557286Y-63460262D01*
X140604905Y-63412643D01*
X140652524Y-63317405D01*
X140652524Y-62507881D01*
X141557286Y-62841214D02*
X141557286Y-63507881D01*
X141319190Y-62460262D02*
X141081095Y-63174548D01*
X141700143Y-63174548D01*
D16*
X148097857Y-61186190D02*
X147812143Y-61186190D01*
X147955000Y-61186190D02*
X147955000Y-60686190D01*
X147907381Y-60757619D01*
X147859762Y-60805238D01*
X147812143Y-60829048D01*
D11*
X147772381Y-58546667D02*
X146772381Y-58546667D01*
X147486667Y-58213333D01*
X146772381Y-57880000D01*
X147772381Y-57880000D01*
X147486667Y-57451429D02*
X147486667Y-56975238D01*
X147772381Y-57546667D02*
X146772381Y-57213334D01*
X147772381Y-56880000D01*
X146772381Y-56641905D02*
X147772381Y-55975238D01*
X146772381Y-55975238D02*
X147772381Y-56641905D01*
X147772381Y-54832381D02*
X146772381Y-54832381D01*
X147486667Y-54499047D01*
X146772381Y-54165714D01*
X147772381Y-54165714D01*
X147200952Y-53546667D02*
X147153333Y-53641905D01*
X147105714Y-53689524D01*
X147010476Y-53737143D01*
X146962857Y-53737143D01*
X146867619Y-53689524D01*
X146820000Y-53641905D01*
X146772381Y-53546667D01*
X146772381Y-53356190D01*
X146820000Y-53260952D01*
X146867619Y-53213333D01*
X146962857Y-53165714D01*
X147010476Y-53165714D01*
X147105714Y-53213333D01*
X147153333Y-53260952D01*
X147200952Y-53356190D01*
X147200952Y-53546667D01*
X147248571Y-53641905D01*
X147296190Y-53689524D01*
X147391429Y-53737143D01*
X147581905Y-53737143D01*
X147677143Y-53689524D01*
X147724762Y-53641905D01*
X147772381Y-53546667D01*
X147772381Y-53356190D01*
X147724762Y-53260952D01*
X147677143Y-53213333D01*
X147581905Y-53165714D01*
X147391429Y-53165714D01*
X147296190Y-53213333D01*
X147248571Y-53260952D01*
X147200952Y-53356190D01*
X70977167Y-82319881D02*
X70977167Y-83034167D01*
X70929547Y-83177024D01*
X70834309Y-83272262D01*
X70691452Y-83319881D01*
X70596214Y-83319881D01*
X71977167Y-83319881D02*
X71405738Y-83319881D01*
X71691452Y-83319881D02*
X71691452Y-82319881D01*
X71596214Y-82462738D01*
X71500976Y-82557976D01*
X71405738Y-82605595D01*
X150624095Y-83400381D02*
X150624095Y-84209905D01*
X150671714Y-84305143D01*
X150719333Y-84352762D01*
X150814571Y-84400381D01*
X151005048Y-84400381D01*
X151100286Y-84352762D01*
X151147905Y-84305143D01*
X151195524Y-84209905D01*
X151195524Y-83400381D01*
X151814571Y-83828952D02*
X151719333Y-83781333D01*
X151671714Y-83733714D01*
X151624095Y-83638476D01*
X151624095Y-83590857D01*
X151671714Y-83495619D01*
X151719333Y-83448000D01*
X151814571Y-83400381D01*
X152005048Y-83400381D01*
X152100286Y-83448000D01*
X152147905Y-83495619D01*
X152195524Y-83590857D01*
X152195524Y-83638476D01*
X152147905Y-83733714D01*
X152100286Y-83781333D01*
X152005048Y-83828952D01*
X151814571Y-83828952D01*
X151719333Y-83876571D01*
X151671714Y-83924190D01*
X151624095Y-84019429D01*
X151624095Y-84209905D01*
X151671714Y-84305143D01*
X151719333Y-84352762D01*
X151814571Y-84400381D01*
X152005048Y-84400381D01*
X152100286Y-84352762D01*
X152147905Y-84305143D01*
X152195524Y-84209905D01*
X152195524Y-84019429D01*
X152147905Y-83924190D01*
X152100286Y-83876571D01*
X152005048Y-83828952D01*
X148917715Y-86432381D02*
X148584381Y-85956190D01*
X148346286Y-86432381D02*
X148346286Y-85432381D01*
X148727239Y-85432381D01*
X148822477Y-85480000D01*
X148870096Y-85527619D01*
X148917715Y-85622857D01*
X148917715Y-85765714D01*
X148870096Y-85860952D01*
X148822477Y-85908571D01*
X148727239Y-85956190D01*
X148346286Y-85956190D01*
X149679620Y-85908571D02*
X149346286Y-85908571D01*
X149346286Y-86432381D02*
X149346286Y-85432381D01*
X149822477Y-85432381D01*
X150203429Y-86432381D02*
X150203429Y-85432381D01*
X150536763Y-86146667D01*
X150870096Y-85432381D01*
X150870096Y-86432381D01*
X151393905Y-86432381D02*
X151584381Y-86432381D01*
X151679620Y-86384762D01*
X151727239Y-86337143D01*
X151822477Y-86194286D01*
X151870096Y-86003810D01*
X151870096Y-85622857D01*
X151822477Y-85527619D01*
X151774858Y-85480000D01*
X151679620Y-85432381D01*
X151489143Y-85432381D01*
X151393905Y-85480000D01*
X151346286Y-85527619D01*
X151298667Y-85622857D01*
X151298667Y-85860952D01*
X151346286Y-85956190D01*
X151393905Y-86003810D01*
X151489143Y-86051429D01*
X151679620Y-86051429D01*
X151774858Y-86003810D01*
X151822477Y-85956190D01*
X151870096Y-85860952D01*
X152774858Y-85432381D02*
X152298667Y-85432381D01*
X152251048Y-85908571D01*
X152298667Y-85860952D01*
X152393905Y-85813333D01*
X152632001Y-85813333D01*
X152727239Y-85860952D01*
X152774858Y-85908571D01*
X152822477Y-86003810D01*
X152822477Y-86241905D01*
X152774858Y-86337143D01*
X152727239Y-86384762D01*
X152632001Y-86432381D01*
X152393905Y-86432381D01*
X152298667Y-86384762D01*
X152251048Y-86337143D01*
X153155810Y-85432381D02*
X153393905Y-86432381D01*
X153584382Y-85718095D01*
X153774858Y-86432381D01*
X154012953Y-85432381D01*
D16*
X145432857Y-79856190D02*
X145147143Y-79856190D01*
X145290000Y-79856190D02*
X145290000Y-79356190D01*
X145242381Y-79427619D01*
X145194762Y-79475238D01*
X145147143Y-79499048D01*
D11*
X113879334Y-72580643D02*
X113831715Y-72628262D01*
X113688858Y-72675881D01*
X113593620Y-72675881D01*
X113450762Y-72628262D01*
X113355524Y-72533024D01*
X113307905Y-72437786D01*
X113260286Y-72247310D01*
X113260286Y-72104452D01*
X113307905Y-71913976D01*
X113355524Y-71818738D01*
X113450762Y-71723500D01*
X113593620Y-71675881D01*
X113688858Y-71675881D01*
X113831715Y-71723500D01*
X113879334Y-71771119D01*
X114831715Y-72675881D02*
X114260286Y-72675881D01*
X114546000Y-72675881D02*
X114546000Y-71675881D01*
X114450762Y-71818738D01*
X114355524Y-71913976D01*
X114260286Y-71961595D01*
X114069834Y-87201143D02*
X114022215Y-87248762D01*
X113879358Y-87296381D01*
X113784120Y-87296381D01*
X113641262Y-87248762D01*
X113546024Y-87153524D01*
X113498405Y-87058286D01*
X113450786Y-86867810D01*
X113450786Y-86724952D01*
X113498405Y-86534476D01*
X113546024Y-86439238D01*
X113641262Y-86344000D01*
X113784120Y-86296381D01*
X113879358Y-86296381D01*
X114022215Y-86344000D01*
X114069834Y-86391619D01*
X114450786Y-86391619D02*
X114498405Y-86344000D01*
X114593643Y-86296381D01*
X114831739Y-86296381D01*
X114926977Y-86344000D01*
X114974596Y-86391619D01*
X115022215Y-86486857D01*
X115022215Y-86582095D01*
X114974596Y-86724952D01*
X114403167Y-87296381D01*
X115022215Y-87296381D01*
X113879334Y-78184143D02*
X113831715Y-78231762D01*
X113688858Y-78279381D01*
X113593620Y-78279381D01*
X113450762Y-78231762D01*
X113355524Y-78136524D01*
X113307905Y-78041286D01*
X113260286Y-77850810D01*
X113260286Y-77707952D01*
X113307905Y-77517476D01*
X113355524Y-77422238D01*
X113450762Y-77327000D01*
X113593620Y-77279381D01*
X113688858Y-77279381D01*
X113831715Y-77327000D01*
X113879334Y-77374619D01*
X114212667Y-77279381D02*
X114831715Y-77279381D01*
X114498381Y-77660333D01*
X114641239Y-77660333D01*
X114736477Y-77707952D01*
X114784096Y-77755571D01*
X114831715Y-77850810D01*
X114831715Y-78088905D01*
X114784096Y-78184143D01*
X114736477Y-78231762D01*
X114641239Y-78279381D01*
X114355524Y-78279381D01*
X114260286Y-78231762D01*
X114212667Y-78184143D01*
X73417643Y-53506666D02*
X73465262Y-53554285D01*
X73512881Y-53697142D01*
X73512881Y-53792380D01*
X73465262Y-53935238D01*
X73370024Y-54030476D01*
X73274786Y-54078095D01*
X73084310Y-54125714D01*
X72941452Y-54125714D01*
X72750976Y-54078095D01*
X72655738Y-54030476D01*
X72560500Y-53935238D01*
X72512881Y-53792380D01*
X72512881Y-53697142D01*
X72560500Y-53554285D01*
X72608119Y-53506666D01*
X72846214Y-52649523D02*
X73512881Y-52649523D01*
X72465262Y-52887619D02*
X73179548Y-53125714D01*
X73179548Y-52506666D01*
X98131334Y-87376143D02*
X98083715Y-87423762D01*
X97940858Y-87471381D01*
X97845620Y-87471381D01*
X97702762Y-87423762D01*
X97607524Y-87328524D01*
X97559905Y-87233286D01*
X97512286Y-87042810D01*
X97512286Y-86899952D01*
X97559905Y-86709476D01*
X97607524Y-86614238D01*
X97702762Y-86519000D01*
X97845620Y-86471381D01*
X97940858Y-86471381D01*
X98083715Y-86519000D01*
X98131334Y-86566619D01*
X99036096Y-86471381D02*
X98559905Y-86471381D01*
X98512286Y-86947571D01*
X98559905Y-86899952D01*
X98655143Y-86852333D01*
X98893239Y-86852333D01*
X98988477Y-86899952D01*
X99036096Y-86947571D01*
X99083715Y-87042810D01*
X99083715Y-87280905D01*
X99036096Y-87376143D01*
X98988477Y-87423762D01*
X98893239Y-87471381D01*
X98655143Y-87471381D01*
X98559905Y-87423762D01*
X98512286Y-87376143D01*
X88396143Y-53951166D02*
X88443762Y-53998785D01*
X88491381Y-54141642D01*
X88491381Y-54236880D01*
X88443762Y-54379738D01*
X88348524Y-54474976D01*
X88253286Y-54522595D01*
X88062810Y-54570214D01*
X87919952Y-54570214D01*
X87729476Y-54522595D01*
X87634238Y-54474976D01*
X87539000Y-54379738D01*
X87491381Y-54236880D01*
X87491381Y-54141642D01*
X87539000Y-53998785D01*
X87586619Y-53951166D01*
X87491381Y-53094023D02*
X87491381Y-53284500D01*
X87539000Y-53379738D01*
X87586619Y-53427357D01*
X87729476Y-53522595D01*
X87919952Y-53570214D01*
X88300905Y-53570214D01*
X88396143Y-53522595D01*
X88443762Y-53474976D01*
X88491381Y-53379738D01*
X88491381Y-53189261D01*
X88443762Y-53094023D01*
X88396143Y-53046404D01*
X88300905Y-52998785D01*
X88062810Y-52998785D01*
X87967571Y-53046404D01*
X87919952Y-53094023D01*
X87872333Y-53189261D01*
X87872333Y-53379738D01*
X87919952Y-53474976D01*
X87967571Y-53522595D01*
X88062810Y-53570214D01*
X85090143Y-53443166D02*
X85137762Y-53490785D01*
X85185381Y-53633642D01*
X85185381Y-53728880D01*
X85137762Y-53871738D01*
X85042524Y-53966976D01*
X84947286Y-54014595D01*
X84756810Y-54062214D01*
X84613952Y-54062214D01*
X84423476Y-54014595D01*
X84328238Y-53966976D01*
X84233000Y-53871738D01*
X84185381Y-53728880D01*
X84185381Y-53633642D01*
X84233000Y-53490785D01*
X84280619Y-53443166D01*
X84185381Y-53109833D02*
X84185381Y-52443166D01*
X85185381Y-52871738D01*
X72644143Y-84939166D02*
X72691762Y-84986785D01*
X72739381Y-85129642D01*
X72739381Y-85224880D01*
X72691762Y-85367738D01*
X72596524Y-85462976D01*
X72501286Y-85510595D01*
X72310810Y-85558214D01*
X72167952Y-85558214D01*
X71977476Y-85510595D01*
X71882238Y-85462976D01*
X71787000Y-85367738D01*
X71739381Y-85224880D01*
X71739381Y-85129642D01*
X71787000Y-84986785D01*
X71834619Y-84939166D01*
X72739381Y-84462976D02*
X72739381Y-84272500D01*
X72691762Y-84177261D01*
X72644143Y-84129642D01*
X72501286Y-84034404D01*
X72310810Y-83986785D01*
X71929857Y-83986785D01*
X71834619Y-84034404D01*
X71787000Y-84082023D01*
X71739381Y-84177261D01*
X71739381Y-84367738D01*
X71787000Y-84462976D01*
X71834619Y-84510595D01*
X71929857Y-84558214D01*
X72167952Y-84558214D01*
X72263190Y-84510595D01*
X72310810Y-84462976D01*
X72358429Y-84367738D01*
X72358429Y-84177261D01*
X72310810Y-84082023D01*
X72263190Y-84034404D01*
X72167952Y-83986785D01*
X113466643Y-69469143D02*
X113419024Y-69516762D01*
X113276167Y-69564381D01*
X113180929Y-69564381D01*
X113038071Y-69516762D01*
X112942833Y-69421524D01*
X112895214Y-69326286D01*
X112847595Y-69135810D01*
X112847595Y-68992952D01*
X112895214Y-68802476D01*
X112942833Y-68707238D01*
X113038071Y-68612000D01*
X113180929Y-68564381D01*
X113276167Y-68564381D01*
X113419024Y-68612000D01*
X113466643Y-68659619D01*
X114419024Y-69564381D02*
X113847595Y-69564381D01*
X114133309Y-69564381D02*
X114133309Y-68564381D01*
X114038071Y-68707238D01*
X113942833Y-68802476D01*
X113847595Y-68850095D01*
X115038071Y-68564381D02*
X115133310Y-68564381D01*
X115228548Y-68612000D01*
X115276167Y-68659619D01*
X115323786Y-68754857D01*
X115371405Y-68945333D01*
X115371405Y-69183429D01*
X115323786Y-69373905D01*
X115276167Y-69469143D01*
X115228548Y-69516762D01*
X115133310Y-69564381D01*
X115038071Y-69564381D01*
X114942833Y-69516762D01*
X114895214Y-69469143D01*
X114847595Y-69373905D01*
X114799976Y-69183429D01*
X114799976Y-68945333D01*
X114847595Y-68754857D01*
X114895214Y-68659619D01*
X114942833Y-68612000D01*
X115038071Y-68564381D01*
X158444143Y-55633857D02*
X158491762Y-55681476D01*
X158539381Y-55824333D01*
X158539381Y-55919571D01*
X158491762Y-56062429D01*
X158396524Y-56157667D01*
X158301286Y-56205286D01*
X158110810Y-56252905D01*
X157967952Y-56252905D01*
X157777476Y-56205286D01*
X157682238Y-56157667D01*
X157587000Y-56062429D01*
X157539381Y-55919571D01*
X157539381Y-55824333D01*
X157587000Y-55681476D01*
X157634619Y-55633857D01*
X158539381Y-54681476D02*
X158539381Y-55252905D01*
X158539381Y-54967191D02*
X157539381Y-54967191D01*
X157682238Y-55062429D01*
X157777476Y-55157667D01*
X157825095Y-55252905D01*
X158539381Y-53729095D02*
X158539381Y-54300524D01*
X158539381Y-54014810D02*
X157539381Y-54014810D01*
X157682238Y-54110048D01*
X157777476Y-54205286D01*
X157825095Y-54300524D01*
X150252643Y-70048357D02*
X150300262Y-70095976D01*
X150347881Y-70238833D01*
X150347881Y-70334071D01*
X150300262Y-70476929D01*
X150205024Y-70572167D01*
X150109786Y-70619786D01*
X149919310Y-70667405D01*
X149776452Y-70667405D01*
X149585976Y-70619786D01*
X149490738Y-70572167D01*
X149395500Y-70476929D01*
X149347881Y-70334071D01*
X149347881Y-70238833D01*
X149395500Y-70095976D01*
X149443119Y-70048357D01*
X150347881Y-69095976D02*
X150347881Y-69667405D01*
X150347881Y-69381691D02*
X149347881Y-69381691D01*
X149490738Y-69476929D01*
X149585976Y-69572167D01*
X149633595Y-69667405D01*
X149443119Y-68715024D02*
X149395500Y-68667405D01*
X149347881Y-68572167D01*
X149347881Y-68334071D01*
X149395500Y-68238833D01*
X149443119Y-68191214D01*
X149538357Y-68143595D01*
X149633595Y-68143595D01*
X149776452Y-68191214D01*
X150347881Y-68762643D01*
X150347881Y-68143595D01*
X154638143Y-55633857D02*
X154685762Y-55681476D01*
X154733381Y-55824333D01*
X154733381Y-55919571D01*
X154685762Y-56062429D01*
X154590524Y-56157667D01*
X154495286Y-56205286D01*
X154304810Y-56252905D01*
X154161952Y-56252905D01*
X153971476Y-56205286D01*
X153876238Y-56157667D01*
X153781000Y-56062429D01*
X153733381Y-55919571D01*
X153733381Y-55824333D01*
X153781000Y-55681476D01*
X153828619Y-55633857D01*
X154733381Y-54681476D02*
X154733381Y-55252905D01*
X154733381Y-54967191D02*
X153733381Y-54967191D01*
X153876238Y-55062429D01*
X153971476Y-55157667D01*
X154019095Y-55252905D01*
X153733381Y-54348143D02*
X153733381Y-53729095D01*
X154114333Y-54062429D01*
X154114333Y-53919571D01*
X154161952Y-53824333D01*
X154209571Y-53776714D01*
X154304810Y-53729095D01*
X154542905Y-53729095D01*
X154638143Y-53776714D01*
X154685762Y-53824333D01*
X154733381Y-53919571D01*
X154733381Y-54205286D01*
X154685762Y-54300524D01*
X154638143Y-54348143D01*
X147034393Y-74445607D02*
X147082012Y-74493226D01*
X147129631Y-74636083D01*
X147129631Y-74731321D01*
X147082012Y-74874179D01*
X146986774Y-74969417D01*
X146891536Y-75017036D01*
X146701060Y-75064655D01*
X146558202Y-75064655D01*
X146367726Y-75017036D01*
X146272488Y-74969417D01*
X146177250Y-74874179D01*
X146129631Y-74731321D01*
X146129631Y-74636083D01*
X146177250Y-74493226D01*
X146224869Y-74445607D01*
X147129631Y-73493226D02*
X147129631Y-74064655D01*
X147129631Y-73778941D02*
X146129631Y-73778941D01*
X146272488Y-73874179D01*
X146367726Y-73969417D01*
X146415345Y-74064655D01*
X146462964Y-72636083D02*
X147129631Y-72636083D01*
X146082012Y-72874179D02*
X146796298Y-73112274D01*
X146796298Y-72493226D01*
X94416643Y-100080143D02*
X94369024Y-100127762D01*
X94226167Y-100175381D01*
X94130929Y-100175381D01*
X93988071Y-100127762D01*
X93892833Y-100032524D01*
X93845214Y-99937286D01*
X93797595Y-99746810D01*
X93797595Y-99603952D01*
X93845214Y-99413476D01*
X93892833Y-99318238D01*
X93988071Y-99223000D01*
X94130929Y-99175381D01*
X94226167Y-99175381D01*
X94369024Y-99223000D01*
X94416643Y-99270619D01*
X95369024Y-100175381D02*
X94797595Y-100175381D01*
X95083309Y-100175381D02*
X95083309Y-99175381D01*
X94988071Y-99318238D01*
X94892833Y-99413476D01*
X94797595Y-99461095D01*
X96273786Y-99175381D02*
X95797595Y-99175381D01*
X95749976Y-99651571D01*
X95797595Y-99603952D01*
X95892833Y-99556333D01*
X96130929Y-99556333D01*
X96226167Y-99603952D01*
X96273786Y-99651571D01*
X96321405Y-99746810D01*
X96321405Y-99984905D01*
X96273786Y-100080143D01*
X96226167Y-100127762D01*
X96130929Y-100175381D01*
X95892833Y-100175381D01*
X95797595Y-100127762D01*
X95749976Y-100080143D01*
X89400143Y-103580143D02*
X89352524Y-103627762D01*
X89209667Y-103675381D01*
X89114429Y-103675381D01*
X88971571Y-103627762D01*
X88876333Y-103532524D01*
X88828714Y-103437286D01*
X88781095Y-103246810D01*
X88781095Y-103103952D01*
X88828714Y-102913476D01*
X88876333Y-102818238D01*
X88971571Y-102723000D01*
X89114429Y-102675381D01*
X89209667Y-102675381D01*
X89352524Y-102723000D01*
X89400143Y-102770619D01*
X90352524Y-103675381D02*
X89781095Y-103675381D01*
X90066809Y-103675381D02*
X90066809Y-102675381D01*
X89971571Y-102818238D01*
X89876333Y-102913476D01*
X89781095Y-102961095D01*
X91209667Y-102675381D02*
X91019190Y-102675381D01*
X90923952Y-102723000D01*
X90876333Y-102770619D01*
X90781095Y-102913476D01*
X90733476Y-103103952D01*
X90733476Y-103484905D01*
X90781095Y-103580143D01*
X90828714Y-103627762D01*
X90923952Y-103675381D01*
X91114429Y-103675381D01*
X91209667Y-103627762D01*
X91257286Y-103580143D01*
X91304905Y-103484905D01*
X91304905Y-103246810D01*
X91257286Y-103151571D01*
X91209667Y-103103952D01*
X91114429Y-103056333D01*
X90923952Y-103056333D01*
X90828714Y-103103952D01*
X90781095Y-103151571D01*
X90733476Y-103246810D01*
X102608143Y-97702643D02*
X102560524Y-97750262D01*
X102417667Y-97797881D01*
X102322429Y-97797881D01*
X102179571Y-97750262D01*
X102084333Y-97655024D01*
X102036714Y-97559786D01*
X101989095Y-97369310D01*
X101989095Y-97226452D01*
X102036714Y-97035976D01*
X102084333Y-96940738D01*
X102179571Y-96845500D01*
X102322429Y-96797881D01*
X102417667Y-96797881D01*
X102560524Y-96845500D01*
X102608143Y-96893119D01*
X103560524Y-97797881D02*
X102989095Y-97797881D01*
X103274809Y-97797881D02*
X103274809Y-96797881D01*
X103179571Y-96940738D01*
X103084333Y-97035976D01*
X102989095Y-97083595D01*
X103893857Y-96797881D02*
X104560524Y-96797881D01*
X104131952Y-97797881D01*
X78224143Y-93281643D02*
X78176524Y-93329262D01*
X78033667Y-93376881D01*
X77938429Y-93376881D01*
X77795571Y-93329262D01*
X77700333Y-93234024D01*
X77652714Y-93138786D01*
X77605095Y-92948310D01*
X77605095Y-92805452D01*
X77652714Y-92614976D01*
X77700333Y-92519738D01*
X77795571Y-92424500D01*
X77938429Y-92376881D01*
X78033667Y-92376881D01*
X78176524Y-92424500D01*
X78224143Y-92472119D01*
X79176524Y-93376881D02*
X78605095Y-93376881D01*
X78890809Y-93376881D02*
X78890809Y-92376881D01*
X78795571Y-92519738D01*
X78700333Y-92614976D01*
X78605095Y-92662595D01*
X79747952Y-92805452D02*
X79652714Y-92757833D01*
X79605095Y-92710214D01*
X79557476Y-92614976D01*
X79557476Y-92567357D01*
X79605095Y-92472119D01*
X79652714Y-92424500D01*
X79747952Y-92376881D01*
X79938429Y-92376881D01*
X80033667Y-92424500D01*
X80081286Y-92472119D01*
X80128905Y-92567357D01*
X80128905Y-92614976D01*
X80081286Y-92710214D01*
X80033667Y-92757833D01*
X79938429Y-92805452D01*
X79747952Y-92805452D01*
X79652714Y-92853071D01*
X79605095Y-92900690D01*
X79557476Y-92995929D01*
X79557476Y-93186405D01*
X79605095Y-93281643D01*
X79652714Y-93329262D01*
X79747952Y-93376881D01*
X79938429Y-93376881D01*
X80033667Y-93329262D01*
X80081286Y-93281643D01*
X80128905Y-93186405D01*
X80128905Y-92995929D01*
X80081286Y-92900690D01*
X80033667Y-92853071D01*
X79938429Y-92805452D01*
X78351143Y-96710643D02*
X78303524Y-96758262D01*
X78160667Y-96805881D01*
X78065429Y-96805881D01*
X77922571Y-96758262D01*
X77827333Y-96663024D01*
X77779714Y-96567786D01*
X77732095Y-96377310D01*
X77732095Y-96234452D01*
X77779714Y-96043976D01*
X77827333Y-95948738D01*
X77922571Y-95853500D01*
X78065429Y-95805881D01*
X78160667Y-95805881D01*
X78303524Y-95853500D01*
X78351143Y-95901119D01*
X79303524Y-96805881D02*
X78732095Y-96805881D01*
X79017809Y-96805881D02*
X79017809Y-95805881D01*
X78922571Y-95948738D01*
X78827333Y-96043976D01*
X78732095Y-96091595D01*
X79779714Y-96805881D02*
X79970190Y-96805881D01*
X80065429Y-96758262D01*
X80113048Y-96710643D01*
X80208286Y-96567786D01*
X80255905Y-96377310D01*
X80255905Y-95996357D01*
X80208286Y-95901119D01*
X80160667Y-95853500D01*
X80065429Y-95805881D01*
X79874952Y-95805881D01*
X79779714Y-95853500D01*
X79732095Y-95901119D01*
X79684476Y-95996357D01*
X79684476Y-96234452D01*
X79732095Y-96329690D01*
X79779714Y-96377310D01*
X79874952Y-96424929D01*
X80065429Y-96424929D01*
X80160667Y-96377310D01*
X80208286Y-96329690D01*
X80255905Y-96234452D01*
X67000381Y-56110095D02*
X66000381Y-56110095D01*
X66000381Y-55872000D01*
X66048000Y-55729142D01*
X66143238Y-55633904D01*
X66238476Y-55586285D01*
X66428952Y-55538666D01*
X66571810Y-55538666D01*
X66762286Y-55586285D01*
X66857524Y-55633904D01*
X66952762Y-55729142D01*
X67000381Y-55872000D01*
X67000381Y-56110095D01*
X67000381Y-54586285D02*
X67000381Y-55157714D01*
X67000381Y-54872000D02*
X66000381Y-54872000D01*
X66143238Y-54967238D01*
X66238476Y-55062476D01*
X66286095Y-55157714D01*
X82700905Y-61285381D02*
X82700905Y-60285381D01*
X82939000Y-60285381D01*
X83081858Y-60333000D01*
X83177096Y-60428238D01*
X83224715Y-60523476D01*
X83272334Y-60713952D01*
X83272334Y-60856810D01*
X83224715Y-61047286D01*
X83177096Y-61142524D01*
X83081858Y-61237762D01*
X82939000Y-61285381D01*
X82700905Y-61285381D01*
X83605667Y-60285381D02*
X84224715Y-60285381D01*
X83891381Y-60666333D01*
X84034239Y-60666333D01*
X84129477Y-60713952D01*
X84177096Y-60761571D01*
X84224715Y-60856810D01*
X84224715Y-61094905D01*
X84177096Y-61190143D01*
X84129477Y-61237762D01*
X84034239Y-61285381D01*
X83748524Y-61285381D01*
X83653286Y-61237762D01*
X83605667Y-61190143D01*
X61301381Y-64864333D02*
X62015667Y-64864333D01*
X62158524Y-64911953D01*
X62253762Y-65007191D01*
X62301381Y-65150048D01*
X62301381Y-65245286D01*
X61396619Y-64435762D02*
X61349000Y-64388143D01*
X61301381Y-64292905D01*
X61301381Y-64054809D01*
X61349000Y-63959571D01*
X61396619Y-63911952D01*
X61491857Y-63864333D01*
X61587095Y-63864333D01*
X61729952Y-63911952D01*
X62301381Y-64483381D01*
X62301381Y-63864333D01*
X75271381Y-102060333D02*
X75985667Y-102060333D01*
X76128524Y-102107953D01*
X76223762Y-102203191D01*
X76271381Y-102346048D01*
X76271381Y-102441286D01*
X75271381Y-101155571D02*
X75271381Y-101346048D01*
X75319000Y-101441286D01*
X75366619Y-101488905D01*
X75509476Y-101584143D01*
X75699952Y-101631762D01*
X76080905Y-101631762D01*
X76176143Y-101584143D01*
X76223762Y-101536524D01*
X76271381Y-101441286D01*
X76271381Y-101250809D01*
X76223762Y-101155571D01*
X76176143Y-101107952D01*
X76080905Y-101060333D01*
X75842810Y-101060333D01*
X75747571Y-101107952D01*
X75699952Y-101155571D01*
X75652333Y-101250809D01*
X75652333Y-101441286D01*
X75699952Y-101536524D01*
X75747571Y-101584143D01*
X75842810Y-101631762D01*
X158956477Y-56939381D02*
X158956477Y-57653667D01*
X158908857Y-57796524D01*
X158813619Y-57891762D01*
X158670762Y-57939381D01*
X158575524Y-57939381D01*
X159956477Y-57939381D02*
X159385048Y-57939381D01*
X159670762Y-57939381D02*
X159670762Y-56939381D01*
X159575524Y-57082238D01*
X159480286Y-57177476D01*
X159385048Y-57225095D01*
X160908858Y-57939381D02*
X160337429Y-57939381D01*
X160623143Y-57939381D02*
X160623143Y-56939381D01*
X160527905Y-57082238D01*
X160432667Y-57177476D01*
X160337429Y-57225095D01*
X86637834Y-78177381D02*
X86304500Y-77701190D01*
X86066405Y-78177381D02*
X86066405Y-77177381D01*
X86447358Y-77177381D01*
X86542596Y-77225000D01*
X86590215Y-77272619D01*
X86637834Y-77367857D01*
X86637834Y-77510714D01*
X86590215Y-77605952D01*
X86542596Y-77653571D01*
X86447358Y-77701190D01*
X86066405Y-77701190D01*
X87018786Y-77272619D02*
X87066405Y-77225000D01*
X87161643Y-77177381D01*
X87399739Y-77177381D01*
X87494977Y-77225000D01*
X87542596Y-77272619D01*
X87590215Y-77367857D01*
X87590215Y-77463095D01*
X87542596Y-77605952D01*
X86971167Y-78177381D01*
X87590215Y-78177381D01*
X86576834Y-74430881D02*
X86243500Y-73954690D01*
X86005405Y-74430881D02*
X86005405Y-73430881D01*
X86386358Y-73430881D01*
X86481596Y-73478500D01*
X86529215Y-73526119D01*
X86576834Y-73621357D01*
X86576834Y-73764214D01*
X86529215Y-73859452D01*
X86481596Y-73907071D01*
X86386358Y-73954690D01*
X86005405Y-73954690D01*
X86910167Y-73430881D02*
X87529215Y-73430881D01*
X87195881Y-73811833D01*
X87338739Y-73811833D01*
X87433977Y-73859452D01*
X87481596Y-73907071D01*
X87529215Y-74002310D01*
X87529215Y-74240405D01*
X87481596Y-74335643D01*
X87433977Y-74383262D01*
X87338739Y-74430881D01*
X87053024Y-74430881D01*
X86957786Y-74383262D01*
X86910167Y-74335643D01*
X132785381Y-68050666D02*
X132309190Y-68384000D01*
X132785381Y-68622095D02*
X131785381Y-68622095D01*
X131785381Y-68241142D01*
X131833000Y-68145904D01*
X131880619Y-68098285D01*
X131975857Y-68050666D01*
X132118714Y-68050666D01*
X132213952Y-68098285D01*
X132261571Y-68145904D01*
X132309190Y-68241142D01*
X132309190Y-68622095D01*
X131785381Y-67717333D02*
X131785381Y-67050666D01*
X132785381Y-67479238D01*
X129483381Y-68050666D02*
X129007190Y-68384000D01*
X129483381Y-68622095D02*
X128483381Y-68622095D01*
X128483381Y-68241142D01*
X128531000Y-68145904D01*
X128578619Y-68098285D01*
X128673857Y-68050666D01*
X128816714Y-68050666D01*
X128911952Y-68098285D01*
X128959571Y-68145904D01*
X129007190Y-68241142D01*
X129007190Y-68622095D01*
X128911952Y-67479238D02*
X128864333Y-67574476D01*
X128816714Y-67622095D01*
X128721476Y-67669714D01*
X128673857Y-67669714D01*
X128578619Y-67622095D01*
X128531000Y-67574476D01*
X128483381Y-67479238D01*
X128483381Y-67288761D01*
X128531000Y-67193523D01*
X128578619Y-67145904D01*
X128673857Y-67098285D01*
X128721476Y-67098285D01*
X128816714Y-67145904D01*
X128864333Y-67193523D01*
X128911952Y-67288761D01*
X128911952Y-67479238D01*
X128959571Y-67574476D01*
X129007190Y-67622095D01*
X129102429Y-67669714D01*
X129292905Y-67669714D01*
X129388143Y-67622095D01*
X129435762Y-67574476D01*
X129483381Y-67479238D01*
X129483381Y-67288761D01*
X129435762Y-67193523D01*
X129388143Y-67145904D01*
X129292905Y-67098285D01*
X129102429Y-67098285D01*
X129007190Y-67145904D01*
X128959571Y-67193523D01*
X128911952Y-67288761D01*
X102354143Y-101670381D02*
X102020809Y-101194190D01*
X101782714Y-101670381D02*
X101782714Y-100670381D01*
X102163667Y-100670381D01*
X102258905Y-100718000D01*
X102306524Y-100765619D01*
X102354143Y-100860857D01*
X102354143Y-101003714D01*
X102306524Y-101098952D01*
X102258905Y-101146571D01*
X102163667Y-101194190D01*
X101782714Y-101194190D01*
X103306524Y-101670381D02*
X102735095Y-101670381D01*
X103020809Y-101670381D02*
X103020809Y-100670381D01*
X102925571Y-100813238D01*
X102830333Y-100908476D01*
X102735095Y-100956095D01*
X103925571Y-100670381D02*
X104020810Y-100670381D01*
X104116048Y-100718000D01*
X104163667Y-100765619D01*
X104211286Y-100860857D01*
X104258905Y-101051333D01*
X104258905Y-101289429D01*
X104211286Y-101479905D01*
X104163667Y-101575143D01*
X104116048Y-101622762D01*
X104020810Y-101670381D01*
X103925571Y-101670381D01*
X103830333Y-101622762D01*
X103782714Y-101575143D01*
X103735095Y-101479905D01*
X103687476Y-101289429D01*
X103687476Y-101051333D01*
X103735095Y-100860857D01*
X103782714Y-100765619D01*
X103830333Y-100718000D01*
X103925571Y-100670381D01*
X102478643Y-94495881D02*
X102145309Y-94019690D01*
X101907214Y-94495881D02*
X101907214Y-93495881D01*
X102288167Y-93495881D01*
X102383405Y-93543500D01*
X102431024Y-93591119D01*
X102478643Y-93686357D01*
X102478643Y-93829214D01*
X102431024Y-93924452D01*
X102383405Y-93972071D01*
X102288167Y-94019690D01*
X101907214Y-94019690D01*
X103431024Y-94495881D02*
X102859595Y-94495881D01*
X103145309Y-94495881D02*
X103145309Y-93495881D01*
X103050071Y-93638738D01*
X102954833Y-93733976D01*
X102859595Y-93781595D01*
X104383405Y-94495881D02*
X103811976Y-94495881D01*
X104097690Y-94495881D02*
X104097690Y-93495881D01*
X104002452Y-93638738D01*
X103907214Y-93733976D01*
X103811976Y-93781595D01*
X98480643Y-93542381D02*
X98147309Y-93066190D01*
X97909214Y-93542381D02*
X97909214Y-92542381D01*
X98290167Y-92542381D01*
X98385405Y-92590000D01*
X98433024Y-92637619D01*
X98480643Y-92732857D01*
X98480643Y-92875714D01*
X98433024Y-92970952D01*
X98385405Y-93018571D01*
X98290167Y-93066190D01*
X97909214Y-93066190D01*
X99433024Y-93542381D02*
X98861595Y-93542381D01*
X99147309Y-93542381D02*
X99147309Y-92542381D01*
X99052071Y-92685238D01*
X98956833Y-92780476D01*
X98861595Y-92828095D01*
X99813976Y-92637619D02*
X99861595Y-92590000D01*
X99956833Y-92542381D01*
X100194929Y-92542381D01*
X100290167Y-92590000D01*
X100337786Y-92637619D01*
X100385405Y-92732857D01*
X100385405Y-92828095D01*
X100337786Y-92970952D01*
X99766357Y-93542381D01*
X100385405Y-93542381D01*
X98298095Y-82477881D02*
X98298095Y-83287405D01*
X98345714Y-83382643D01*
X98393333Y-83430262D01*
X98488571Y-83477881D01*
X98679048Y-83477881D01*
X98774286Y-83430262D01*
X98821905Y-83382643D01*
X98869524Y-83287405D01*
X98869524Y-82477881D01*
X99298095Y-82573119D02*
X99345714Y-82525500D01*
X99440952Y-82477881D01*
X99679048Y-82477881D01*
X99774286Y-82525500D01*
X99821905Y-82573119D01*
X99869524Y-82668357D01*
X99869524Y-82763595D01*
X99821905Y-82906452D01*
X99250476Y-83477881D01*
X99869524Y-83477881D01*
X128890595Y-72196381D02*
X128890595Y-73005905D01*
X128938214Y-73101143D01*
X128985833Y-73148762D01*
X129081071Y-73196381D01*
X129271548Y-73196381D01*
X129366786Y-73148762D01*
X129414405Y-73101143D01*
X129462024Y-73005905D01*
X129462024Y-72196381D01*
X130414405Y-72196381D02*
X129938214Y-72196381D01*
X129890595Y-72672571D01*
X129938214Y-72624952D01*
X130033452Y-72577333D01*
X130271548Y-72577333D01*
X130366786Y-72624952D01*
X130414405Y-72672571D01*
X130462024Y-72767810D01*
X130462024Y-73005905D01*
X130414405Y-73101143D01*
X130366786Y-73148762D01*
X130271548Y-73196381D01*
X130033452Y-73196381D01*
X129938214Y-73148762D01*
X129890595Y-73101143D01*
X107671595Y-82256381D02*
X107671595Y-83065905D01*
X107719214Y-83161143D01*
X107766833Y-83208762D01*
X107862071Y-83256381D01*
X108052548Y-83256381D01*
X108147786Y-83208762D01*
X108195405Y-83161143D01*
X108243024Y-83065905D01*
X108243024Y-82256381D01*
X108766833Y-83256381D02*
X108957309Y-83256381D01*
X109052548Y-83208762D01*
X109100167Y-83161143D01*
X109195405Y-83018286D01*
X109243024Y-82827810D01*
X109243024Y-82446857D01*
X109195405Y-82351619D01*
X109147786Y-82304000D01*
X109052548Y-82256381D01*
X108862071Y-82256381D01*
X108766833Y-82304000D01*
X108719214Y-82351619D01*
X108671595Y-82446857D01*
X108671595Y-82684952D01*
X108719214Y-82780190D01*
X108766833Y-82827810D01*
X108862071Y-82875429D01*
X109052548Y-82875429D01*
X109147786Y-82827810D01*
X109195405Y-82780190D01*
X109243024Y-82684952D01*
X84105905Y-94067381D02*
X84105905Y-94876905D01*
X84153524Y-94972143D01*
X84201143Y-95019762D01*
X84296381Y-95067381D01*
X84486858Y-95067381D01*
X84582096Y-95019762D01*
X84629715Y-94972143D01*
X84677334Y-94876905D01*
X84677334Y-94067381D01*
X85677334Y-95067381D02*
X85105905Y-95067381D01*
X85391619Y-95067381D02*
X85391619Y-94067381D01*
X85296381Y-94210238D01*
X85201143Y-94305476D01*
X85105905Y-94353095D01*
X86296381Y-94067381D02*
X86391620Y-94067381D01*
X86486858Y-94115000D01*
X86534477Y-94162619D01*
X86582096Y-94257857D01*
X86629715Y-94448333D01*
X86629715Y-94686429D01*
X86582096Y-94876905D01*
X86534477Y-94972143D01*
X86486858Y-95019762D01*
X86391620Y-95067381D01*
X86296381Y-95067381D01*
X86201143Y-95019762D01*
X86153524Y-94972143D01*
X86105905Y-94876905D01*
X86058286Y-94686429D01*
X86058286Y-94448333D01*
X86105905Y-94257857D01*
X86153524Y-94162619D01*
X86201143Y-94115000D01*
X86296381Y-94067381D01*
X86510881Y-101091905D02*
X87320405Y-101091905D01*
X87415643Y-101044286D01*
X87463262Y-100996667D01*
X87510881Y-100901429D01*
X87510881Y-100710952D01*
X87463262Y-100615714D01*
X87415643Y-100568095D01*
X87320405Y-100520476D01*
X86510881Y-100520476D01*
X86510881Y-100139524D02*
X86510881Y-99472857D01*
X87510881Y-99901429D01*
D17*
X90671952Y-97995714D02*
X90671952Y-98068286D01*
X90671952Y-98032000D02*
X90544952Y-98032000D01*
X90563095Y-98044095D01*
X90575190Y-98056190D01*
X90581238Y-98068286D01*
D18*
X92166643Y-95573190D02*
X92178548Y-95537476D01*
X92190452Y-95525571D01*
X92214262Y-95513666D01*
X92249976Y-95513666D01*
X92273786Y-95525571D01*
X92285690Y-95537476D01*
X92297595Y-95561285D01*
X92297595Y-95656523D01*
X92047595Y-95656523D01*
X92047595Y-95573190D01*
X92059500Y-95549380D01*
X92071405Y-95537476D01*
X92095214Y-95525571D01*
X92119024Y-95525571D01*
X92142833Y-95537476D01*
X92154738Y-95549380D01*
X92166643Y-95573190D01*
X92166643Y-95656523D01*
X92297595Y-95406523D02*
X92047595Y-95406523D01*
X92297595Y-95263666D01*
X92047595Y-95263666D01*
X92047595Y-95096999D02*
X92047595Y-95049380D01*
X92059500Y-95025571D01*
X92083310Y-95001761D01*
X92130929Y-94989856D01*
X92214262Y-94989856D01*
X92261881Y-95001761D01*
X92285690Y-95025571D01*
X92297595Y-95049380D01*
X92297595Y-95096999D01*
X92285690Y-95120809D01*
X92261881Y-95144618D01*
X92214262Y-95156523D01*
X92130929Y-95156523D01*
X92083310Y-95144618D01*
X92059500Y-95120809D01*
X92047595Y-95096999D01*
X92047595Y-94835094D02*
X92047595Y-94811285D01*
X92059500Y-94787475D01*
X92071405Y-94775570D01*
X92095214Y-94763666D01*
X92142833Y-94751761D01*
X92202357Y-94751761D01*
X92249976Y-94763666D01*
X92273786Y-94775570D01*
X92285690Y-94787475D01*
X92297595Y-94811285D01*
X92297595Y-94835094D01*
X92285690Y-94858904D01*
X92273786Y-94870808D01*
X92249976Y-94882713D01*
X92202357Y-94894618D01*
X92142833Y-94894618D01*
X92095214Y-94882713D01*
X92071405Y-94870808D01*
X92059500Y-94858904D01*
X92047595Y-94835094D01*
X92047595Y-94525571D02*
X92047595Y-94644618D01*
X92166643Y-94656523D01*
X92154738Y-94644618D01*
X92142833Y-94620809D01*
X92142833Y-94561285D01*
X92154738Y-94537475D01*
X92166643Y-94525571D01*
X92190452Y-94513666D01*
X92249976Y-94513666D01*
X92273786Y-94525571D01*
X92285690Y-94537475D01*
X92297595Y-94561285D01*
X92297595Y-94620809D01*
X92285690Y-94644618D01*
X92273786Y-94656523D01*
X92047595Y-94287476D02*
X92047595Y-94406523D01*
X92166643Y-94418428D01*
X92154738Y-94406523D01*
X92142833Y-94382714D01*
X92142833Y-94323190D01*
X92154738Y-94299380D01*
X92166643Y-94287476D01*
X92190452Y-94275571D01*
X92249976Y-94275571D01*
X92273786Y-94287476D01*
X92285690Y-94299380D01*
X92297595Y-94323190D01*
X92297595Y-94382714D01*
X92285690Y-94406523D01*
X92273786Y-94418428D01*
D11*
X95261205Y-58288181D02*
X95261205Y-57288181D01*
X95499300Y-57288181D01*
X95642158Y-57335800D01*
X95737396Y-57431038D01*
X95785015Y-57526276D01*
X95832634Y-57716752D01*
X95832634Y-57859610D01*
X95785015Y-58050086D01*
X95737396Y-58145324D01*
X95642158Y-58240562D01*
X95499300Y-58288181D01*
X95261205Y-58288181D01*
X96689777Y-57621514D02*
X96689777Y-58288181D01*
X96451681Y-57240562D02*
X96213586Y-57954848D01*
X96832634Y-57954848D01*
X98398105Y-58351681D02*
X98398105Y-57351681D01*
X98636200Y-57351681D01*
X98779058Y-57399300D01*
X98874296Y-57494538D01*
X98921915Y-57589776D01*
X98969534Y-57780252D01*
X98969534Y-57923110D01*
X98921915Y-58113586D01*
X98874296Y-58208824D01*
X98779058Y-58304062D01*
X98636200Y-58351681D01*
X98398105Y-58351681D01*
X99874296Y-57351681D02*
X99398105Y-57351681D01*
X99350486Y-57827871D01*
X99398105Y-57780252D01*
X99493343Y-57732633D01*
X99731439Y-57732633D01*
X99826677Y-57780252D01*
X99874296Y-57827871D01*
X99921915Y-57923110D01*
X99921915Y-58161205D01*
X99874296Y-58256443D01*
X99826677Y-58304062D01*
X99731439Y-58351681D01*
X99493343Y-58351681D01*
X99398105Y-58304062D01*
X99350486Y-58256443D01*
X101522305Y-58250081D02*
X101522305Y-57250081D01*
X101760400Y-57250081D01*
X101903258Y-57297700D01*
X101998496Y-57392938D01*
X102046115Y-57488176D01*
X102093734Y-57678652D01*
X102093734Y-57821510D01*
X102046115Y-58011986D01*
X101998496Y-58107224D01*
X101903258Y-58202462D01*
X101760400Y-58250081D01*
X101522305Y-58250081D01*
X102950877Y-57250081D02*
X102760400Y-57250081D01*
X102665162Y-57297700D01*
X102617543Y-57345319D01*
X102522305Y-57488176D01*
X102474686Y-57678652D01*
X102474686Y-58059605D01*
X102522305Y-58154843D01*
X102569924Y-58202462D01*
X102665162Y-58250081D01*
X102855639Y-58250081D01*
X102950877Y-58202462D01*
X102998496Y-58154843D01*
X103046115Y-58059605D01*
X103046115Y-57821510D01*
X102998496Y-57726271D01*
X102950877Y-57678652D01*
X102855639Y-57631033D01*
X102665162Y-57631033D01*
X102569924Y-57678652D01*
X102522305Y-57726271D01*
X102474686Y-57821510D01*
X97988381Y-53474857D02*
X97512190Y-53808191D01*
X97988381Y-54046286D02*
X96988381Y-54046286D01*
X96988381Y-53665333D01*
X97036000Y-53570095D01*
X97083619Y-53522476D01*
X97178857Y-53474857D01*
X97321714Y-53474857D01*
X97416952Y-53522476D01*
X97464571Y-53570095D01*
X97512190Y-53665333D01*
X97512190Y-54046286D01*
X97988381Y-52522476D02*
X97988381Y-53093905D01*
X97988381Y-52808191D02*
X96988381Y-52808191D01*
X97131238Y-52903429D01*
X97226476Y-52998667D01*
X97274095Y-53093905D01*
X97988381Y-52046286D02*
X97988381Y-51855810D01*
X97940762Y-51760571D01*
X97893143Y-51712952D01*
X97750286Y-51617714D01*
X97559810Y-51570095D01*
X97178857Y-51570095D01*
X97083619Y-51617714D01*
X97036000Y-51665333D01*
X96988381Y-51760571D01*
X96988381Y-51951048D01*
X97036000Y-52046286D01*
X97083619Y-52093905D01*
X97178857Y-52141524D01*
X97416952Y-52141524D01*
X97512190Y-52093905D01*
X97559810Y-52046286D01*
X97607429Y-51951048D01*
X97607429Y-51760571D01*
X97559810Y-51665333D01*
X97512190Y-51617714D01*
X97416952Y-51570095D01*
X101036381Y-53474857D02*
X100560190Y-53808191D01*
X101036381Y-54046286D02*
X100036381Y-54046286D01*
X100036381Y-53665333D01*
X100084000Y-53570095D01*
X100131619Y-53522476D01*
X100226857Y-53474857D01*
X100369714Y-53474857D01*
X100464952Y-53522476D01*
X100512571Y-53570095D01*
X100560190Y-53665333D01*
X100560190Y-54046286D01*
X100131619Y-53093905D02*
X100084000Y-53046286D01*
X100036381Y-52951048D01*
X100036381Y-52712952D01*
X100084000Y-52617714D01*
X100131619Y-52570095D01*
X100226857Y-52522476D01*
X100322095Y-52522476D01*
X100464952Y-52570095D01*
X101036381Y-53141524D01*
X101036381Y-52522476D01*
X100036381Y-51903429D02*
X100036381Y-51808190D01*
X100084000Y-51712952D01*
X100131619Y-51665333D01*
X100226857Y-51617714D01*
X100417333Y-51570095D01*
X100655429Y-51570095D01*
X100845905Y-51617714D01*
X100941143Y-51665333D01*
X100988762Y-51712952D01*
X101036381Y-51808190D01*
X101036381Y-51903429D01*
X100988762Y-51998667D01*
X100941143Y-52046286D01*
X100845905Y-52093905D01*
X100655429Y-52141524D01*
X100417333Y-52141524D01*
X100226857Y-52093905D01*
X100131619Y-52046286D01*
X100084000Y-51998667D01*
X100036381Y-51903429D01*
X104338381Y-53474857D02*
X103862190Y-53808191D01*
X104338381Y-54046286D02*
X103338381Y-54046286D01*
X103338381Y-53665333D01*
X103386000Y-53570095D01*
X103433619Y-53522476D01*
X103528857Y-53474857D01*
X103671714Y-53474857D01*
X103766952Y-53522476D01*
X103814571Y-53570095D01*
X103862190Y-53665333D01*
X103862190Y-54046286D01*
X103433619Y-53093905D02*
X103386000Y-53046286D01*
X103338381Y-52951048D01*
X103338381Y-52712952D01*
X103386000Y-52617714D01*
X103433619Y-52570095D01*
X103528857Y-52522476D01*
X103624095Y-52522476D01*
X103766952Y-52570095D01*
X104338381Y-53141524D01*
X104338381Y-52522476D01*
X104338381Y-51570095D02*
X104338381Y-52141524D01*
X104338381Y-51855810D02*
X103338381Y-51855810D01*
X103481238Y-51951048D01*
X103576476Y-52046286D01*
X103624095Y-52141524D01*
X127893381Y-100028333D02*
X128607667Y-100028333D01*
X128750524Y-100075953D01*
X128845762Y-100171191D01*
X128893381Y-100314048D01*
X128893381Y-100409286D01*
X127893381Y-99647381D02*
X127893381Y-99028333D01*
X128274333Y-99361667D01*
X128274333Y-99218809D01*
X128321952Y-99123571D01*
X128369571Y-99075952D01*
X128464810Y-99028333D01*
X128702905Y-99028333D01*
X128798143Y-99075952D01*
X128845762Y-99123571D01*
X128893381Y-99218809D01*
X128893381Y-99504524D01*
X128845762Y-99599762D01*
X128798143Y-99647381D01*
X72056667Y-62317381D02*
X72056667Y-63031667D01*
X72009047Y-63174524D01*
X71913809Y-63269762D01*
X71770952Y-63317381D01*
X71675714Y-63317381D01*
X72961429Y-62650714D02*
X72961429Y-63317381D01*
X72723333Y-62269762D02*
X72485238Y-62984048D01*
X73104286Y-62984048D01*
X151852381Y-99901333D02*
X152566667Y-99901333D01*
X152709524Y-99948953D01*
X152804762Y-100044191D01*
X152852381Y-100187048D01*
X152852381Y-100282286D01*
X151852381Y-98948952D02*
X151852381Y-99425143D01*
X152328571Y-99472762D01*
X152280952Y-99425143D01*
X152233333Y-99329905D01*
X152233333Y-99091809D01*
X152280952Y-98996571D01*
X152328571Y-98948952D01*
X152423810Y-98901333D01*
X152661905Y-98901333D01*
X152757143Y-98948952D01*
X152804762Y-98996571D01*
X152852381Y-99091809D01*
X152852381Y-99329905D01*
X152804762Y-99425143D01*
X152757143Y-99472762D01*
X123491667Y-50252381D02*
X123491667Y-50966667D01*
X123444047Y-51109524D01*
X123348809Y-51204762D01*
X123205952Y-51252381D01*
X123110714Y-51252381D01*
X124110714Y-50680952D02*
X124015476Y-50633333D01*
X123967857Y-50585714D01*
X123920238Y-50490476D01*
X123920238Y-50442857D01*
X123967857Y-50347619D01*
X124015476Y-50300000D01*
X124110714Y-50252381D01*
X124301191Y-50252381D01*
X124396429Y-50300000D01*
X124444048Y-50347619D01*
X124491667Y-50442857D01*
X124491667Y-50490476D01*
X124444048Y-50585714D01*
X124396429Y-50633333D01*
X124301191Y-50680952D01*
X124110714Y-50680952D01*
X124015476Y-50728571D01*
X123967857Y-50776190D01*
X123920238Y-50871429D01*
X123920238Y-51061905D01*
X123967857Y-51157143D01*
X124015476Y-51204762D01*
X124110714Y-51252381D01*
X124301191Y-51252381D01*
X124396429Y-51204762D01*
X124444048Y-51157143D01*
X124491667Y-51061905D01*
X124491667Y-50871429D01*
X124444048Y-50776190D01*
X124396429Y-50728571D01*
X124301191Y-50680952D01*
X111426667Y-50252381D02*
X111426667Y-50966667D01*
X111379047Y-51109524D01*
X111283809Y-51204762D01*
X111140952Y-51252381D01*
X111045714Y-51252381D01*
X111950476Y-51252381D02*
X112140952Y-51252381D01*
X112236191Y-51204762D01*
X112283810Y-51157143D01*
X112379048Y-51014286D01*
X112426667Y-50823810D01*
X112426667Y-50442857D01*
X112379048Y-50347619D01*
X112331429Y-50300000D01*
X112236191Y-50252381D01*
X112045714Y-50252381D01*
X111950476Y-50300000D01*
X111902857Y-50347619D01*
X111855238Y-50442857D01*
X111855238Y-50680952D01*
X111902857Y-50776190D01*
X111950476Y-50823810D01*
X112045714Y-50871429D01*
X112236191Y-50871429D01*
X112331429Y-50823810D01*
X112379048Y-50776190D01*
X112426667Y-50680952D01*
X139069381Y-100504523D02*
X139783667Y-100504523D01*
X139926524Y-100552143D01*
X140021762Y-100647381D01*
X140069381Y-100790238D01*
X140069381Y-100885476D01*
X140069381Y-99504523D02*
X140069381Y-100075952D01*
X140069381Y-99790238D02*
X139069381Y-99790238D01*
X139212238Y-99885476D01*
X139307476Y-99980714D01*
X139355095Y-100075952D01*
X139069381Y-98885476D02*
X139069381Y-98790237D01*
X139117000Y-98694999D01*
X139164619Y-98647380D01*
X139259857Y-98599761D01*
X139450333Y-98552142D01*
X139688429Y-98552142D01*
X139878905Y-98599761D01*
X139974143Y-98647380D01*
X140021762Y-98694999D01*
X140069381Y-98790237D01*
X140069381Y-98885476D01*
X140021762Y-98980714D01*
X139974143Y-99028333D01*
X139878905Y-99075952D01*
X139688429Y-99123571D01*
X139450333Y-99123571D01*
X139259857Y-99075952D01*
X139164619Y-99028333D01*
X139117000Y-98980714D01*
X139069381Y-98885476D01*
X132167334Y-62055143D02*
X132119715Y-62102762D01*
X131976858Y-62150381D01*
X131881620Y-62150381D01*
X131738762Y-62102762D01*
X131643524Y-62007524D01*
X131595905Y-61912286D01*
X131548286Y-61721810D01*
X131548286Y-61578952D01*
X131595905Y-61388476D01*
X131643524Y-61293238D01*
X131738762Y-61198000D01*
X131881620Y-61150381D01*
X131976858Y-61150381D01*
X132119715Y-61198000D01*
X132167334Y-61245619D01*
X132738762Y-61578952D02*
X132643524Y-61531333D01*
X132595905Y-61483714D01*
X132548286Y-61388476D01*
X132548286Y-61340857D01*
X132595905Y-61245619D01*
X132643524Y-61198000D01*
X132738762Y-61150381D01*
X132929239Y-61150381D01*
X133024477Y-61198000D01*
X133072096Y-61245619D01*
X133119715Y-61340857D01*
X133119715Y-61388476D01*
X133072096Y-61483714D01*
X133024477Y-61531333D01*
X132929239Y-61578952D01*
X132738762Y-61578952D01*
X132643524Y-61626571D01*
X132595905Y-61674190D01*
X132548286Y-61769429D01*
X132548286Y-61959905D01*
X132595905Y-62055143D01*
X132643524Y-62102762D01*
X132738762Y-62150381D01*
X132929239Y-62150381D01*
X133024477Y-62102762D01*
X133072096Y-62055143D01*
X133119715Y-61959905D01*
X133119715Y-61769429D01*
X133072096Y-61674190D01*
X133024477Y-61626571D01*
X132929239Y-61578952D01*
X134311381Y-62523666D02*
X133835190Y-62857000D01*
X134311381Y-63095095D02*
X133311381Y-63095095D01*
X133311381Y-62714142D01*
X133359000Y-62618904D01*
X133406619Y-62571285D01*
X133501857Y-62523666D01*
X133644714Y-62523666D01*
X133739952Y-62571285D01*
X133787571Y-62618904D01*
X133835190Y-62714142D01*
X133835190Y-63095095D01*
X134311381Y-61571285D02*
X134311381Y-62142714D01*
X134311381Y-61857000D02*
X133311381Y-61857000D01*
X133454238Y-61952238D01*
X133549476Y-62047476D01*
X133597095Y-62142714D01*
X88490643Y-61349881D02*
X88157309Y-60873690D01*
X87919214Y-61349881D02*
X87919214Y-60349881D01*
X88300167Y-60349881D01*
X88395405Y-60397500D01*
X88443024Y-60445119D01*
X88490643Y-60540357D01*
X88490643Y-60683214D01*
X88443024Y-60778452D01*
X88395405Y-60826071D01*
X88300167Y-60873690D01*
X87919214Y-60873690D01*
X89443024Y-61349881D02*
X88871595Y-61349881D01*
X89157309Y-61349881D02*
X89157309Y-60349881D01*
X89062071Y-60492738D01*
X88966833Y-60587976D01*
X88871595Y-60635595D01*
X89776357Y-60349881D02*
X90395405Y-60349881D01*
X90062071Y-60730833D01*
X90204929Y-60730833D01*
X90300167Y-60778452D01*
X90347786Y-60826071D01*
X90395405Y-60921310D01*
X90395405Y-61159405D01*
X90347786Y-61254643D01*
X90300167Y-61302262D01*
X90204929Y-61349881D01*
X89919214Y-61349881D01*
X89823976Y-61302262D01*
X89776357Y-61254643D01*
X141949845Y-76319631D02*
X141949845Y-77129155D01*
X141997464Y-77224393D01*
X142045083Y-77272012D01*
X142140321Y-77319631D01*
X142330798Y-77319631D01*
X142426036Y-77272012D01*
X142473655Y-77224393D01*
X142521274Y-77129155D01*
X142521274Y-76319631D01*
X143426036Y-76319631D02*
X143235559Y-76319631D01*
X143140321Y-76367250D01*
X143092702Y-76414869D01*
X142997464Y-76557726D01*
X142949845Y-76748202D01*
X142949845Y-77129155D01*
X142997464Y-77224393D01*
X143045083Y-77272012D01*
X143140321Y-77319631D01*
X143330798Y-77319631D01*
X143426036Y-77272012D01*
X143473655Y-77224393D01*
X143521274Y-77129155D01*
X143521274Y-76891060D01*
X143473655Y-76795821D01*
X143426036Y-76748202D01*
X143330798Y-76700583D01*
X143140321Y-76700583D01*
X143045083Y-76748202D01*
X142997464Y-76795821D01*
X142949845Y-76891060D01*
D18*
X114299496Y-100856286D02*
X114347165Y-100713277D01*
X114394835Y-100665608D01*
X114490174Y-100617938D01*
X114633182Y-100617938D01*
X114728521Y-100665608D01*
X114776191Y-100713277D01*
X114823860Y-100808616D01*
X114823860Y-101189972D01*
X113822800Y-101189972D01*
X113822800Y-100856286D01*
X113870470Y-100760947D01*
X113918140Y-100713277D01*
X114013479Y-100665608D01*
X114108818Y-100665608D01*
X114204157Y-100713277D01*
X114251826Y-100760947D01*
X114299496Y-100856286D01*
X114299496Y-101189972D01*
X113822800Y-100284251D02*
X113822800Y-99616878D01*
X114823860Y-100284251D01*
X114823860Y-99616878D01*
X114823860Y-98711158D02*
X114823860Y-99283192D01*
X114823860Y-98997175D02*
X113822800Y-98997175D01*
X113965809Y-99092514D01*
X114061148Y-99187853D01*
X114108818Y-99283192D01*
X107344122Y-101778202D02*
X107391747Y-101635326D01*
X107439373Y-101587701D01*
X107534623Y-101540076D01*
X107677499Y-101540076D01*
X107772749Y-101587701D01*
X107820375Y-101635326D01*
X107868000Y-101730577D01*
X107868000Y-102111579D01*
X106867870Y-102111579D01*
X106867870Y-101778202D01*
X106915495Y-101682952D01*
X106963120Y-101635326D01*
X107058371Y-101587701D01*
X107153621Y-101587701D01*
X107248872Y-101635326D01*
X107296497Y-101682952D01*
X107344122Y-101778202D01*
X107344122Y-102111579D01*
X107201246Y-100682822D02*
X107868000Y-100682822D01*
X107201246Y-101111449D02*
X107725124Y-101111449D01*
X107820375Y-101063824D01*
X107868000Y-100968573D01*
X107868000Y-100825697D01*
X107820375Y-100730447D01*
X107772749Y-100682822D01*
X107201246Y-100301819D02*
X107201246Y-99777942D01*
X107868000Y-100301819D01*
X107868000Y-99777942D01*
X107201246Y-99492190D02*
X107201246Y-98968313D01*
X107868000Y-99492190D01*
X107868000Y-98968313D01*
X107820375Y-98206309D02*
X107868000Y-98301559D01*
X107868000Y-98492060D01*
X107820375Y-98587311D01*
X107725124Y-98634936D01*
X107344122Y-98634936D01*
X107248872Y-98587311D01*
X107201246Y-98492060D01*
X107201246Y-98301559D01*
X107248872Y-98206309D01*
X107344122Y-98158684D01*
X107439373Y-98158684D01*
X107534623Y-98634936D01*
X107868000Y-97730057D02*
X107201246Y-97730057D01*
X107391747Y-97730057D02*
X107296497Y-97682432D01*
X107248872Y-97634806D01*
X107201246Y-97539556D01*
X107201246Y-97444305D01*
X108379759Y-97111972D02*
X108379759Y-96350067D01*
X108760711Y-96731019D02*
X107998806Y-96731019D01*
X109099019Y-104152372D02*
X109099019Y-103390467D01*
D11*
X111246181Y-94654666D02*
X110769990Y-94988000D01*
X111246181Y-95226095D02*
X110246181Y-95226095D01*
X110246181Y-94845142D01*
X110293800Y-94749904D01*
X110341419Y-94702285D01*
X110436657Y-94654666D01*
X110579514Y-94654666D01*
X110674752Y-94702285D01*
X110722371Y-94749904D01*
X110769990Y-94845142D01*
X110769990Y-95226095D01*
X110579514Y-93797523D02*
X111246181Y-93797523D01*
X110198562Y-94035619D02*
X110912848Y-94273714D01*
X110912848Y-93654666D01*
X83454381Y-55879905D02*
X84263905Y-55879905D01*
X84359143Y-55832286D01*
X84406762Y-55784667D01*
X84454381Y-55689429D01*
X84454381Y-55498952D01*
X84406762Y-55403714D01*
X84359143Y-55356095D01*
X84263905Y-55308476D01*
X83454381Y-55308476D01*
X84454381Y-54308476D02*
X84454381Y-54879905D01*
X84454381Y-54594191D02*
X83454381Y-54594191D01*
X83597238Y-54689429D01*
X83692476Y-54784667D01*
X83740095Y-54879905D01*
X70715143Y-67000357D02*
X70762762Y-67047976D01*
X70810381Y-67190833D01*
X70810381Y-67286071D01*
X70762762Y-67428929D01*
X70667524Y-67524167D01*
X70572286Y-67571786D01*
X70381810Y-67619405D01*
X70238952Y-67619405D01*
X70048476Y-67571786D01*
X69953238Y-67524167D01*
X69858000Y-67428929D01*
X69810381Y-67286071D01*
X69810381Y-67190833D01*
X69858000Y-67047976D01*
X69905619Y-67000357D01*
X69905619Y-66619405D02*
X69858000Y-66571786D01*
X69810381Y-66476548D01*
X69810381Y-66238452D01*
X69858000Y-66143214D01*
X69905619Y-66095595D01*
X70000857Y-66047976D01*
X70096095Y-66047976D01*
X70238952Y-66095595D01*
X70810381Y-66667024D01*
X70810381Y-66047976D01*
X69810381Y-65428929D02*
X69810381Y-65333690D01*
X69858000Y-65238452D01*
X69905619Y-65190833D01*
X70000857Y-65143214D01*
X70191333Y-65095595D01*
X70429429Y-65095595D01*
X70619905Y-65143214D01*
X70715143Y-65190833D01*
X70762762Y-65238452D01*
X70810381Y-65333690D01*
X70810381Y-65428929D01*
X70762762Y-65524167D01*
X70715143Y-65571786D01*
X70619905Y-65619405D01*
X70429429Y-65667024D01*
X70191333Y-65667024D01*
X70000857Y-65619405D01*
X69905619Y-65571786D01*
X69858000Y-65524167D01*
X69810381Y-65428929D01*
X83923143Y-70873857D02*
X83970762Y-70921476D01*
X84018381Y-71064333D01*
X84018381Y-71159571D01*
X83970762Y-71302429D01*
X83875524Y-71397667D01*
X83780286Y-71445286D01*
X83589810Y-71492905D01*
X83446952Y-71492905D01*
X83256476Y-71445286D01*
X83161238Y-71397667D01*
X83066000Y-71302429D01*
X83018381Y-71159571D01*
X83018381Y-71064333D01*
X83066000Y-70921476D01*
X83113619Y-70873857D01*
X83113619Y-70492905D02*
X83066000Y-70445286D01*
X83018381Y-70350048D01*
X83018381Y-70111952D01*
X83066000Y-70016714D01*
X83113619Y-69969095D01*
X83208857Y-69921476D01*
X83304095Y-69921476D01*
X83446952Y-69969095D01*
X84018381Y-70540524D01*
X84018381Y-69921476D01*
X84018381Y-68969095D02*
X84018381Y-69540524D01*
X84018381Y-69254810D02*
X83018381Y-69254810D01*
X83161238Y-69350048D01*
X83256476Y-69445286D01*
X83304095Y-69540524D01*
X71334381Y-66293905D02*
X72143905Y-66293905D01*
X72239143Y-66246286D01*
X72286762Y-66198667D01*
X72334381Y-66103429D01*
X72334381Y-65912952D01*
X72286762Y-65817714D01*
X72239143Y-65770095D01*
X72143905Y-65722476D01*
X71334381Y-65722476D01*
X71334381Y-65341524D02*
X71334381Y-64722476D01*
X71715333Y-65055810D01*
X71715333Y-64912952D01*
X71762952Y-64817714D01*
X71810571Y-64770095D01*
X71905810Y-64722476D01*
X72143905Y-64722476D01*
X72239143Y-64770095D01*
X72286762Y-64817714D01*
X72334381Y-64912952D01*
X72334381Y-65198667D01*
X72286762Y-65293905D01*
X72239143Y-65341524D01*
X144692643Y-69476857D02*
X144740262Y-69524476D01*
X144787881Y-69667333D01*
X144787881Y-69762571D01*
X144740262Y-69905429D01*
X144645024Y-70000667D01*
X144549786Y-70048286D01*
X144359310Y-70095905D01*
X144216452Y-70095905D01*
X144025976Y-70048286D01*
X143930738Y-70000667D01*
X143835500Y-69905429D01*
X143787881Y-69762571D01*
X143787881Y-69667333D01*
X143835500Y-69524476D01*
X143883119Y-69476857D01*
X143883119Y-69095905D02*
X143835500Y-69048286D01*
X143787881Y-68953048D01*
X143787881Y-68714952D01*
X143835500Y-68619714D01*
X143883119Y-68572095D01*
X143978357Y-68524476D01*
X144073595Y-68524476D01*
X144216452Y-68572095D01*
X144787881Y-69143524D01*
X144787881Y-68524476D01*
X143883119Y-68143524D02*
X143835500Y-68095905D01*
X143787881Y-68000667D01*
X143787881Y-67762571D01*
X143835500Y-67667333D01*
X143883119Y-67619714D01*
X143978357Y-67572095D01*
X144073595Y-67572095D01*
X144216452Y-67619714D01*
X144787881Y-68191143D01*
X144787881Y-67572095D01*
X78120977Y-100246381D02*
X78120977Y-100960667D01*
X78073357Y-101103524D01*
X77978119Y-101198762D01*
X77835262Y-101246381D01*
X77740024Y-101246381D01*
X79120977Y-101246381D02*
X78549548Y-101246381D01*
X78835262Y-101246381D02*
X78835262Y-100246381D01*
X78740024Y-100389238D01*
X78644786Y-100484476D01*
X78549548Y-100532095D01*
X79454310Y-100246381D02*
X80073358Y-100246381D01*
X79740024Y-100627333D01*
X79882882Y-100627333D01*
X79978120Y-100674952D01*
X80025739Y-100722571D01*
X80073358Y-100817810D01*
X80073358Y-101055905D01*
X80025739Y-101151143D01*
X79978120Y-101198762D01*
X79882882Y-101246381D01*
X79597167Y-101246381D01*
X79501929Y-101198762D01*
X79454310Y-101151143D01*
X89931977Y-55859881D02*
X89931977Y-56574167D01*
X89884357Y-56717024D01*
X89789119Y-56812262D01*
X89646262Y-56859881D01*
X89551024Y-56859881D01*
X90931977Y-56859881D02*
X90360548Y-56859881D01*
X90646262Y-56859881D02*
X90646262Y-55859881D01*
X90551024Y-56002738D01*
X90455786Y-56097976D01*
X90360548Y-56145595D01*
X91789120Y-56193214D02*
X91789120Y-56859881D01*
X91551024Y-55812262D02*
X91312929Y-56526548D01*
X91931977Y-56526548D01*
X156761977Y-102758381D02*
X156761977Y-103472667D01*
X156714357Y-103615524D01*
X156619119Y-103710762D01*
X156476262Y-103758381D01*
X156381024Y-103758381D01*
X157761977Y-103758381D02*
X157190548Y-103758381D01*
X157476262Y-103758381D02*
X157476262Y-102758381D01*
X157381024Y-102901238D01*
X157285786Y-102996476D01*
X157190548Y-103044095D01*
X158142929Y-102853619D02*
X158190548Y-102806000D01*
X158285786Y-102758381D01*
X158523882Y-102758381D01*
X158619120Y-102806000D01*
X158666739Y-102853619D01*
X158714358Y-102948857D01*
X158714358Y-103044095D01*
X158666739Y-103186952D01*
X158095310Y-103758381D01*
X158714358Y-103758381D01*
M02*
