G04 #@! TF.FileFunction,Copper,L2,Bot,Signal*
%FSLAX46Y46*%
G04 Gerber Fmt 4.6, Leading zero omitted, Abs format (unit mm)*
G04 Created by KiCad (PCBNEW 4.0.7) date 12/10/18 00:11:19*
%MOMM*%
%LPD*%
G01*
G04 APERTURE LIST*
%ADD10C,0.100000*%
%ADD11C,6.000000*%
%ADD12R,1.700000X1.700000*%
%ADD13O,1.700000X1.700000*%
%ADD14C,2.200000*%
%ADD15C,2.000000*%
%ADD16C,1.524000*%
%ADD17C,5.400000*%
%ADD18C,1.500000*%
%ADD19C,1.250000*%
%ADD20C,0.600000*%
%ADD21C,1.000000*%
%ADD22C,0.800000*%
%ADD23C,0.250000*%
%ADD24C,1.250000*%
%ADD25C,0.500000*%
%ADD26C,1.000000*%
%ADD27C,0.254000*%
G04 APERTURE END LIST*
D10*
D11*
X64770000Y-60960000D03*
X64770000Y-67960000D03*
D12*
X159766000Y-59817000D03*
D13*
X159766000Y-62357000D03*
X159766000Y-64897000D03*
D12*
X126111000Y-99695000D03*
D13*
X123571000Y-99695000D03*
X121031000Y-99695000D03*
X118491000Y-99695000D03*
D12*
X72390000Y-57785000D03*
D13*
X72390000Y-60325000D03*
D12*
X142494000Y-99568000D03*
D13*
X145034000Y-99568000D03*
X147574000Y-99568000D03*
X150114000Y-99568000D03*
D12*
X125095000Y-57785000D03*
D13*
X122555000Y-57785000D03*
X125095000Y-55245000D03*
X122555000Y-55245000D03*
X125095000Y-52705000D03*
X122555000Y-52705000D03*
D12*
X113030000Y-55245000D03*
D13*
X110490000Y-55245000D03*
X113030000Y-52705000D03*
X110490000Y-52705000D03*
D12*
X137287000Y-99695000D03*
D13*
X134747000Y-99695000D03*
X132207000Y-99695000D03*
D14*
X134493000Y-55118000D03*
D15*
X136533000Y-57158000D03*
X132453000Y-57158000D03*
X136533000Y-53078000D03*
X132453000Y-53078000D03*
D14*
X157226000Y-101092000D03*
D15*
X159266000Y-103132000D03*
X155186000Y-103132000D03*
X159266000Y-99052000D03*
X155186000Y-99052000D03*
D16*
X160782000Y-73152000D03*
X150782000Y-73152000D03*
D17*
X62230000Y-106680000D03*
X62230000Y-52705000D03*
X162560000Y-106680000D03*
X162560000Y-52705000D03*
D18*
X110236000Y-70739000D03*
D19*
X105156000Y-70104000D03*
D20*
X142748000Y-53340000D03*
X142240000Y-54356000D03*
X142240000Y-52324000D03*
X142240000Y-51308000D03*
X143256000Y-51308000D03*
X144272000Y-51308000D03*
X148336000Y-51308000D03*
X147320000Y-51308000D03*
X146304000Y-51308000D03*
X145288000Y-51308000D03*
X145288000Y-52324000D03*
X145288000Y-53340000D03*
X145288000Y-54356000D03*
X145288000Y-55372000D03*
X145288000Y-56388000D03*
X145288000Y-57404000D03*
X145288000Y-58420000D03*
X145288000Y-59436000D03*
X145288000Y-60452000D03*
X145288000Y-61468000D03*
X149352000Y-62484000D03*
X148336000Y-62484000D03*
X147320000Y-62484000D03*
X146304000Y-62484000D03*
X145288000Y-62484000D03*
X144272000Y-62484000D03*
X143256000Y-62484000D03*
X142240000Y-62484000D03*
X141224000Y-62484000D03*
D21*
X159131000Y-67945000D03*
X154773500Y-67905500D03*
D20*
X132334000Y-63500000D03*
X136271000Y-59817000D03*
D22*
X125095000Y-63436500D03*
D20*
X95123000Y-83693000D03*
X102616000Y-83121500D03*
X100139500Y-84074000D03*
D21*
X79375000Y-52705000D03*
X76200000Y-74295000D03*
D20*
X79946500Y-78422500D03*
X72263000Y-78613000D03*
X79438500Y-79565500D03*
X72390000Y-79629000D03*
X140779500Y-88392000D03*
X138303000Y-82232500D03*
X81280000Y-89281000D03*
X93345000Y-69723000D03*
X72834500Y-91122500D03*
X89916000Y-70485000D03*
X81280000Y-90170000D03*
X137096500Y-84963000D03*
X73723500Y-91821000D03*
X89217500Y-71437500D03*
X74295000Y-92900500D03*
X81280000Y-91122500D03*
X140589000Y-83566000D03*
X93116400Y-71450200D03*
X131508500Y-76962000D03*
X131762500Y-74930000D03*
X133731000Y-94234000D03*
X113982500Y-89535000D03*
X114109500Y-91757500D03*
X89789000Y-79375000D03*
X91503500Y-82931000D03*
X132842000Y-95631000D03*
X116522500Y-95758000D03*
X138430000Y-73088500D03*
X137604500Y-76644500D03*
X92964000Y-82423000D03*
X91059000Y-76327000D03*
X96583500Y-85217000D03*
X153670000Y-62611000D03*
X97980500Y-85598000D03*
X154305000Y-59817000D03*
X125476000Y-67056000D03*
X123698000Y-70104000D03*
X88265000Y-69278500D03*
X68072000Y-97091500D03*
X100647500Y-69786500D03*
X145288000Y-87693500D03*
X131000500Y-72898000D03*
X126111000Y-72580500D03*
X98298000Y-75565000D03*
D18*
X92075000Y-52070000D03*
D20*
X155186000Y-97155000D03*
X159266000Y-97155000D03*
X156845000Y-103124000D03*
X157734000Y-103132000D03*
X155194000Y-100711000D03*
X155194000Y-101473000D03*
X159266000Y-101473000D03*
X159258000Y-100711000D03*
X159639000Y-96139000D03*
X160464500Y-95313500D03*
X161036000Y-94615000D03*
X161163000Y-93726000D03*
X161163000Y-92837000D03*
X161163000Y-91948000D03*
X157607000Y-91376000D03*
X156591500Y-91376000D03*
X155956000Y-92964000D03*
X155956000Y-93726000D03*
X155956000Y-94488000D03*
X155956000Y-95377000D03*
X155702000Y-96266000D03*
D19*
X155956000Y-92011500D03*
D20*
X137668000Y-52324000D03*
D19*
X152273000Y-61087000D03*
D20*
X139700000Y-54524000D03*
X138303000Y-52324000D03*
X139192000Y-54737000D03*
X138747500Y-55181500D03*
X138303000Y-55626000D03*
X137795000Y-56134000D03*
X134874000Y-57150000D03*
X134112000Y-57158000D03*
X134112000Y-53086000D03*
X134874000Y-53078000D03*
X132461000Y-55499000D03*
X132453000Y-54610000D03*
X138938000Y-52324000D03*
X139573000Y-52324000D03*
D21*
X154559000Y-55991000D03*
D19*
X143065500Y-95250000D03*
X146939000Y-80454500D03*
D20*
X145415000Y-72453500D03*
X116903500Y-76390500D03*
X114198400Y-80822800D03*
X105537000Y-95758000D03*
X99377500Y-92710000D03*
X93535500Y-99695000D03*
X92202000Y-96266000D03*
X95377000Y-92773500D03*
X77994000Y-96139000D03*
D22*
X62992000Y-92646500D03*
D20*
X96342200Y-88468200D03*
X96520000Y-79248000D03*
X98806000Y-79692500D03*
X101663500Y-77787500D03*
X99250500Y-74295000D03*
X117665500Y-68897500D03*
D22*
X88138000Y-62242700D03*
X73787000Y-82550000D03*
D20*
X157099000Y-58547000D03*
X157099000Y-60960000D03*
D22*
X131762500Y-79248000D03*
D23*
X105156000Y-70104000D02*
X105283000Y-70104000D01*
D24*
X105918000Y-70739000D02*
X105283000Y-70104000D01*
X105918000Y-70739000D02*
X110236000Y-70739000D01*
D25*
X154773500Y-67905500D02*
X154813000Y-67945000D01*
X154813000Y-67945000D02*
X159131000Y-67945000D01*
D23*
X136017000Y-59817000D02*
X132334000Y-63500000D01*
X136271000Y-59817000D02*
X136017000Y-59817000D01*
D25*
X125158500Y-58166000D02*
X125158500Y-63373000D01*
X125158500Y-63373000D02*
X125095000Y-63436500D01*
D23*
X100139500Y-84074000D02*
X95504000Y-84074000D01*
X95504000Y-84074000D02*
X95123000Y-83693000D01*
X101536500Y-84201000D02*
X102616000Y-83121500D01*
X100266500Y-84201000D02*
X101536500Y-84201000D01*
X100139500Y-84074000D02*
X100266500Y-84201000D01*
D25*
X79375000Y-71120000D02*
X79375000Y-52705000D01*
X76200000Y-74295000D02*
X79375000Y-71120000D01*
D23*
X72453500Y-78422500D02*
X79946500Y-78422500D01*
X72263000Y-78613000D02*
X72453500Y-78422500D01*
X72453500Y-79565500D02*
X79438500Y-79565500D01*
X72390000Y-79629000D02*
X72453500Y-79565500D01*
X140906500Y-82232500D02*
X138303000Y-82232500D01*
X141605000Y-82931000D02*
X140906500Y-82232500D01*
X141605000Y-87566500D02*
X141605000Y-82931000D01*
X140779500Y-88392000D02*
X141605000Y-87566500D01*
X111887000Y-90222496D02*
X121166208Y-90222496D01*
X136207500Y-84328000D02*
X138303000Y-82232500D01*
X136207500Y-86674704D02*
X136207500Y-84328000D01*
X135326708Y-87555496D02*
X136207500Y-86674704D01*
X123833208Y-87555496D02*
X135326708Y-87555496D01*
X121166208Y-90222496D02*
X123833208Y-87555496D01*
X81280000Y-89281000D02*
X82243504Y-89281000D01*
X83185000Y-90222496D02*
X111887000Y-90222496D01*
X111887000Y-90222496D02*
X111950500Y-90222496D01*
X82243504Y-89281000D02*
X83185000Y-90222496D01*
X89090500Y-69723000D02*
X93345000Y-69723000D01*
X84328000Y-74485500D02*
X89090500Y-69723000D01*
X84328000Y-77978000D02*
X84328000Y-74485500D01*
X79248000Y-83058000D02*
X84328000Y-77978000D01*
X79248000Y-84709000D02*
X79248000Y-83058000D01*
X72834500Y-91122500D02*
X79248000Y-84709000D01*
X84778002Y-78164396D02*
X84646199Y-78296199D01*
X88964898Y-70485000D02*
X89916000Y-70485000D01*
X84778002Y-74671896D02*
X88964898Y-70485000D01*
X84646199Y-78296199D02*
X83312699Y-79629699D01*
X84778002Y-74671896D02*
X84778002Y-78164396D01*
X115316000Y-90672498D02*
X121352604Y-90672498D01*
X82111002Y-90170000D02*
X82613500Y-90672498D01*
X82613500Y-90672498D02*
X115316000Y-90672498D01*
X81280000Y-90170000D02*
X82111002Y-90170000D01*
X137096500Y-86422102D02*
X137096500Y-84963000D01*
X135513104Y-88005498D02*
X137096500Y-86422102D01*
X124019604Y-88005498D02*
X135513104Y-88005498D01*
X121352604Y-90672498D02*
X124019604Y-88005498D01*
X79698002Y-83244396D02*
X83312699Y-79629699D01*
X73723500Y-91821000D02*
X75470449Y-90074051D01*
X75470449Y-90074051D02*
X75470449Y-89375551D01*
X75470449Y-89375551D02*
X79698002Y-85147998D01*
X79698002Y-85147998D02*
X79698002Y-83244396D01*
X83312699Y-79629699D02*
X83313398Y-79629000D01*
X136715500Y-87439500D02*
X136842500Y-87439500D01*
X147574000Y-97917000D02*
X147574000Y-99568000D01*
X147066000Y-97409000D02*
X147574000Y-97917000D01*
X141478000Y-97409000D02*
X147066000Y-97409000D01*
X139573000Y-95504000D02*
X141478000Y-97409000D01*
X139573000Y-90170000D02*
X139573000Y-95504000D01*
X136842500Y-87439500D02*
X139573000Y-90170000D01*
X85228004Y-78350792D02*
X85228004Y-74858292D01*
X85228004Y-74858292D02*
X88648796Y-71437500D01*
X88648796Y-71437500D02*
X89217500Y-71437500D01*
X85228004Y-78350792D02*
X85096201Y-78482595D01*
X83441796Y-80137000D02*
X85096201Y-78482595D01*
X85096201Y-78482595D02*
X85228004Y-78350792D01*
X80148004Y-83430792D02*
X83441796Y-80137000D01*
X80148004Y-85396496D02*
X80148004Y-83430792D01*
X75920451Y-89624049D02*
X80148004Y-85396496D01*
X75920451Y-91275049D02*
X75920451Y-89624049D01*
X74295000Y-92900500D02*
X75920451Y-91275049D01*
X116522500Y-91122500D02*
X121539000Y-91122500D01*
X81280000Y-91122500D02*
X116522500Y-91122500D01*
X135699500Y-88455500D02*
X136715500Y-87439500D01*
X136715500Y-87439500D02*
X140589000Y-83566000D01*
X124206000Y-88455500D02*
X135699500Y-88455500D01*
X121539000Y-91122500D02*
X124206000Y-88455500D01*
X102743000Y-61785500D02*
X105854500Y-61785500D01*
X93154500Y-71374000D02*
X102743000Y-61785500D01*
X93116400Y-71450200D02*
X93154500Y-71412100D01*
X93154500Y-71412100D02*
X93154500Y-71374000D01*
X110490000Y-57150000D02*
X110490000Y-55245000D01*
X105854500Y-61785500D02*
X110490000Y-57150000D01*
X131508500Y-76962000D02*
X131762500Y-76708000D01*
X131762500Y-76708000D02*
X131762500Y-74930000D01*
X115125500Y-92773500D02*
X116586000Y-94234000D01*
X116586000Y-94234000D02*
X133731000Y-94234000D01*
X114109500Y-91757500D02*
X115125500Y-92773500D01*
X91503500Y-82931000D02*
X91503500Y-84899500D01*
X113982500Y-89535000D02*
X113982500Y-89535000D01*
X111760000Y-89535000D02*
X113982500Y-89535000D01*
X108902500Y-86804500D02*
X111760000Y-89535000D01*
X93408500Y-86804500D02*
X108902500Y-86804500D01*
X91503500Y-84899500D02*
X93408500Y-86804500D01*
X89789000Y-79438500D02*
X89789000Y-79375000D01*
X89789000Y-81216500D02*
X89789000Y-79438500D01*
X91503500Y-82931000D02*
X89789000Y-81216500D01*
X131381500Y-95567500D02*
X116713000Y-95567500D01*
X132778500Y-95567500D02*
X132842000Y-95631000D01*
X131381500Y-95567500D02*
X132778500Y-95567500D01*
X116713000Y-95567500D02*
X116522500Y-95758000D01*
X138112500Y-73406000D02*
X138430000Y-73088500D01*
X138112500Y-76136500D02*
X138112500Y-73406000D01*
X137604500Y-76644500D02*
X138112500Y-76136500D01*
X91059000Y-80518000D02*
X91059000Y-76327000D01*
X92964000Y-82423000D02*
X91059000Y-80518000D01*
X134931998Y-67441104D02*
X134931998Y-67379002D01*
X134931998Y-70425604D02*
X134931998Y-67441104D01*
X134243104Y-71114498D02*
X134931998Y-70425604D01*
X129671104Y-71114498D02*
X134243104Y-71114498D01*
X128518498Y-72267104D02*
X129671104Y-71114498D01*
X128460500Y-85153500D02*
X128518498Y-72267104D01*
X127512104Y-86227498D02*
X128460500Y-85153500D01*
X111946396Y-86227498D02*
X127512104Y-86227498D01*
X110549396Y-85147998D02*
X111946396Y-86227498D01*
X100959498Y-85147998D02*
X110549396Y-85147998D01*
X100647500Y-84836000D02*
X100959498Y-85147998D01*
X96964500Y-84836000D02*
X100647500Y-84836000D01*
X96583500Y-85217000D02*
X96964500Y-84836000D01*
X153670000Y-63498602D02*
X153670000Y-62611000D01*
X151070604Y-66097998D02*
X153670000Y-63498602D01*
X136213002Y-66097998D02*
X151070604Y-66097998D01*
X134931998Y-67379002D02*
X136213002Y-66097998D01*
X153543000Y-62738000D02*
X153670000Y-62611000D01*
X155194000Y-62611000D02*
X159512000Y-62611000D01*
X159512000Y-62611000D02*
X159766000Y-62357000D01*
X136461500Y-66548000D02*
X151257000Y-66548000D01*
X135382000Y-67665600D02*
X135382000Y-67627500D01*
X135382000Y-67627500D02*
X136461500Y-66548000D01*
X110363000Y-85598000D02*
X111887000Y-86868000D01*
X111887000Y-86868000D02*
X127825500Y-86868000D01*
X127825500Y-86868000D02*
X128968500Y-85725000D01*
X128968500Y-85725000D02*
X128968500Y-72453500D01*
X128968500Y-72453500D02*
X129857500Y-71564500D01*
X129857500Y-71564500D02*
X134429500Y-71564500D01*
X134429500Y-71564500D02*
X135382000Y-70612000D01*
X135382000Y-70612000D02*
X135382000Y-67665600D01*
X97980500Y-85598000D02*
X110363000Y-85598000D01*
X151257000Y-66548000D02*
X151536400Y-66268600D01*
X154432000Y-59817000D02*
X154305000Y-59817000D01*
X155194000Y-60579000D02*
X154432000Y-59817000D01*
X155194000Y-62611000D02*
X155194000Y-60579000D01*
X151536400Y-66268600D02*
X155194000Y-62611000D01*
X125476000Y-68326000D02*
X125476000Y-67056000D01*
X123698000Y-70104000D02*
X125476000Y-68326000D01*
X78797998Y-84522604D02*
X78797998Y-82871604D01*
X88265000Y-69278500D02*
X87693500Y-69850000D01*
X87693500Y-69850000D02*
X87693500Y-70483602D01*
X87693500Y-70483602D02*
X83877998Y-74299104D01*
X83877998Y-74299104D02*
X83877998Y-77791604D01*
X83877998Y-77791604D02*
X79215551Y-82454051D01*
X78797998Y-84522604D02*
X73595102Y-89725500D01*
X73595102Y-89725500D02*
X71628000Y-89725500D01*
X71628000Y-89725500D02*
X69024500Y-92329000D01*
X69024500Y-92329000D02*
X69024500Y-96202500D01*
X69024500Y-96202500D02*
X68135500Y-97091500D01*
X68135500Y-97091500D02*
X68072000Y-97091500D01*
X78797998Y-82871604D02*
X79215551Y-82454051D01*
X100647500Y-69786500D02*
X102552500Y-69786500D01*
X105283000Y-72517000D02*
X106680000Y-72517000D01*
X102552500Y-69786500D02*
X105283000Y-72517000D01*
X106426000Y-72517000D02*
X106680000Y-72517000D01*
X106680000Y-72517000D02*
X111760000Y-72517000D01*
X146050000Y-88455500D02*
X145288000Y-87693500D01*
X151193500Y-88455500D02*
X146050000Y-88455500D01*
X151193500Y-79883000D02*
X151193500Y-88455500D01*
X148780500Y-77470000D02*
X151193500Y-79883000D01*
X141351000Y-77470000D02*
X148780500Y-77470000D01*
X139700000Y-79121000D02*
X141351000Y-77470000D01*
X137223500Y-79121000D02*
X139700000Y-79121000D01*
X136271000Y-78168500D02*
X137223500Y-79121000D01*
X136271000Y-73850500D02*
X136271000Y-78168500D01*
X135382000Y-72961500D02*
X136271000Y-73850500D01*
X131064000Y-72961500D02*
X135382000Y-72961500D01*
X131000500Y-72898000D02*
X131064000Y-72961500D01*
X111506000Y-72517000D02*
X111760000Y-72517000D01*
X111760000Y-72517000D02*
X126047500Y-72517000D01*
X126047500Y-72517000D02*
X126111000Y-72580500D01*
X113724396Y-83115998D02*
X117534396Y-83115998D01*
X111628896Y-81020498D02*
X113724396Y-83115998D01*
X102738896Y-81020498D02*
X111628896Y-81020498D01*
X98742500Y-77024102D02*
X102738896Y-81020498D01*
X98742500Y-76009500D02*
X98742500Y-77024102D01*
X98298000Y-75565000D02*
X98742500Y-76009500D01*
D26*
X157734000Y-103132000D02*
X157734000Y-103124000D01*
X159266000Y-101473000D02*
X159258000Y-101473000D01*
X159266000Y-97155000D02*
X159258000Y-97155000D01*
X160464500Y-95313500D02*
X160401000Y-95250000D01*
X157607000Y-91376000D02*
X157607000Y-91440000D01*
X156591000Y-91440000D02*
X156591000Y-91376500D01*
X156591000Y-91376500D02*
X156591500Y-91376000D01*
X155186000Y-97155000D02*
X155194000Y-97155000D01*
D23*
X139700000Y-54524000D02*
X139700000Y-54483000D01*
X139192000Y-54737000D02*
X139255500Y-54800500D01*
X138747500Y-55181500D02*
X138811000Y-55118000D01*
X134112000Y-57158000D02*
X134112000Y-57150000D01*
X134874000Y-53078000D02*
X134874000Y-53086000D01*
X132453000Y-54610000D02*
X132461000Y-54610000D01*
D25*
X154559000Y-55991000D02*
X154559000Y-56007000D01*
D23*
X99250500Y-74295000D02*
X99250500Y-74358500D01*
X157099000Y-58547000D02*
X157099000Y-60960000D01*
D27*
G36*
X159734373Y-50813407D02*
X159225580Y-52038717D01*
X159224422Y-53365462D01*
X159731076Y-54591658D01*
X160668407Y-55530627D01*
X161893717Y-56039420D01*
X163220462Y-56040578D01*
X164446658Y-55533924D01*
X164973000Y-55008500D01*
X164973000Y-104376691D01*
X164451593Y-103854373D01*
X163226283Y-103345580D01*
X161899538Y-103344422D01*
X160673342Y-103851076D01*
X159734373Y-104788407D01*
X159225580Y-106013717D01*
X159224422Y-107340462D01*
X159731076Y-108566658D01*
X160256500Y-109093000D01*
X64533309Y-109093000D01*
X65055627Y-108571593D01*
X65564420Y-107346283D01*
X65565578Y-106019538D01*
X65058924Y-104793342D01*
X64121593Y-103854373D01*
X62896283Y-103345580D01*
X61569538Y-103344422D01*
X60343342Y-103851076D01*
X59817000Y-104376500D01*
X59817000Y-101435599D01*
X155490699Y-101435599D01*
X155754281Y-102073515D01*
X156241918Y-102562004D01*
X156879373Y-102826699D01*
X157569599Y-102827301D01*
X158207515Y-102563719D01*
X158696004Y-102076082D01*
X158960699Y-101438627D01*
X158961301Y-100748401D01*
X158697719Y-100110485D01*
X158210082Y-99621996D01*
X157572627Y-99357301D01*
X156882401Y-99356699D01*
X156244485Y-99620281D01*
X155755996Y-100107918D01*
X155491301Y-100745373D01*
X155490699Y-101435599D01*
X59817000Y-101435599D01*
X59817000Y-99665907D01*
X119546000Y-99665907D01*
X119546000Y-99724093D01*
X119659039Y-100292378D01*
X119980946Y-100774147D01*
X120462715Y-101096054D01*
X121031000Y-101209093D01*
X121599285Y-101096054D01*
X122081054Y-100774147D01*
X122301000Y-100444974D01*
X122520946Y-100774147D01*
X123002715Y-101096054D01*
X123571000Y-101209093D01*
X124139285Y-101096054D01*
X124621054Y-100774147D01*
X124648850Y-100732548D01*
X124657838Y-100780317D01*
X124796910Y-100996441D01*
X125009110Y-101141431D01*
X125261000Y-101192440D01*
X126961000Y-101192440D01*
X127196317Y-101148162D01*
X127412441Y-101009090D01*
X127557431Y-100796890D01*
X127608440Y-100545000D01*
X127608440Y-99665907D01*
X133262000Y-99665907D01*
X133262000Y-99724093D01*
X133375039Y-100292378D01*
X133696946Y-100774147D01*
X134178715Y-101096054D01*
X134747000Y-101209093D01*
X135315285Y-101096054D01*
X135797054Y-100774147D01*
X135824850Y-100732548D01*
X135833838Y-100780317D01*
X135972910Y-100996441D01*
X136185110Y-101141431D01*
X136437000Y-101192440D01*
X138137000Y-101192440D01*
X138372317Y-101148162D01*
X138588441Y-101009090D01*
X138733431Y-100796890D01*
X138784440Y-100545000D01*
X138784440Y-98845000D01*
X138740162Y-98609683D01*
X138601090Y-98393559D01*
X138388890Y-98248569D01*
X138137000Y-98197560D01*
X136437000Y-98197560D01*
X136201683Y-98241838D01*
X135985559Y-98380910D01*
X135840569Y-98593110D01*
X135826914Y-98660541D01*
X135797054Y-98615853D01*
X135315285Y-98293946D01*
X134747000Y-98180907D01*
X134178715Y-98293946D01*
X133696946Y-98615853D01*
X133375039Y-99097622D01*
X133262000Y-99665907D01*
X127608440Y-99665907D01*
X127608440Y-98845000D01*
X127564162Y-98609683D01*
X127425090Y-98393559D01*
X127212890Y-98248569D01*
X126961000Y-98197560D01*
X125261000Y-98197560D01*
X125025683Y-98241838D01*
X124809559Y-98380910D01*
X124664569Y-98593110D01*
X124650914Y-98660541D01*
X124621054Y-98615853D01*
X124139285Y-98293946D01*
X123571000Y-98180907D01*
X123002715Y-98293946D01*
X122520946Y-98615853D01*
X122301000Y-98945026D01*
X122081054Y-98615853D01*
X121599285Y-98293946D01*
X121031000Y-98180907D01*
X120462715Y-98293946D01*
X119980946Y-98615853D01*
X119659039Y-99097622D01*
X119546000Y-99665907D01*
X59817000Y-99665907D01*
X59817000Y-97276667D01*
X67136838Y-97276667D01*
X67278883Y-97620443D01*
X67541673Y-97883692D01*
X67885201Y-98026338D01*
X68257167Y-98026662D01*
X68600943Y-97884617D01*
X68864192Y-97621827D01*
X68995004Y-97306798D01*
X69561901Y-96739901D01*
X69726648Y-96493339D01*
X69784500Y-96202500D01*
X69784500Y-92643802D01*
X71942802Y-90485500D01*
X72149167Y-90485500D01*
X72042308Y-90592173D01*
X71899662Y-90935701D01*
X71899338Y-91307667D01*
X72041383Y-91651443D01*
X72304173Y-91914692D01*
X72647701Y-92057338D01*
X72809540Y-92057479D01*
X72930383Y-92349943D01*
X73193173Y-92613192D01*
X73371201Y-92687116D01*
X73360162Y-92713701D01*
X73359838Y-93085667D01*
X73501883Y-93429443D01*
X73764673Y-93692692D01*
X74108201Y-93835338D01*
X74480167Y-93835662D01*
X74823943Y-93693617D01*
X75087192Y-93430827D01*
X75229838Y-93087299D01*
X75229879Y-93040423D01*
X76457852Y-91812450D01*
X76622599Y-91565888D01*
X76680451Y-91275049D01*
X76680451Y-89938851D01*
X77153135Y-89466167D01*
X80344838Y-89466167D01*
X80452080Y-89725714D01*
X80345162Y-89983201D01*
X80344838Y-90355167D01*
X80465232Y-90646543D01*
X80345162Y-90935701D01*
X80344838Y-91307667D01*
X80486883Y-91651443D01*
X80749673Y-91914692D01*
X81093201Y-92057338D01*
X81465167Y-92057662D01*
X81808943Y-91915617D01*
X81842118Y-91882500D01*
X113174390Y-91882500D01*
X113174338Y-91942667D01*
X113316383Y-92286443D01*
X113579173Y-92549692D01*
X113922701Y-92692338D01*
X113969577Y-92692379D01*
X116048599Y-94771401D01*
X116206491Y-94876901D01*
X115993557Y-94964883D01*
X115730308Y-95227673D01*
X115587662Y-95571201D01*
X115587338Y-95943167D01*
X115729383Y-96286943D01*
X115992173Y-96550192D01*
X116335701Y-96692838D01*
X116707667Y-96693162D01*
X117051443Y-96551117D01*
X117275451Y-96327500D01*
X132216148Y-96327500D01*
X132311673Y-96423192D01*
X132655201Y-96565838D01*
X133027167Y-96566162D01*
X133370943Y-96424117D01*
X133634192Y-96161327D01*
X133776838Y-95817799D01*
X133777162Y-95445833D01*
X133662753Y-95168941D01*
X133916167Y-95169162D01*
X134259943Y-95027117D01*
X134523192Y-94764327D01*
X134665838Y-94420799D01*
X134666162Y-94048833D01*
X134524117Y-93705057D01*
X134261327Y-93441808D01*
X133917799Y-93299162D01*
X133545833Y-93298838D01*
X133202057Y-93440883D01*
X133168882Y-93474000D01*
X116900802Y-93474000D01*
X115309302Y-91882500D01*
X121539000Y-91882500D01*
X121829839Y-91824648D01*
X122076401Y-91659901D01*
X124520802Y-89215500D01*
X135699500Y-89215500D01*
X135990339Y-89157648D01*
X136236901Y-88992901D01*
X136779000Y-88450802D01*
X138813000Y-90484802D01*
X138813000Y-95504000D01*
X138870852Y-95794839D01*
X139035599Y-96041401D01*
X140940599Y-97946401D01*
X141187161Y-98111148D01*
X141360756Y-98145678D01*
X141192559Y-98253910D01*
X141047569Y-98466110D01*
X140996560Y-98718000D01*
X140996560Y-100418000D01*
X141040838Y-100653317D01*
X141179910Y-100869441D01*
X141392110Y-101014431D01*
X141644000Y-101065440D01*
X143344000Y-101065440D01*
X143579317Y-101021162D01*
X143795441Y-100882090D01*
X143940431Y-100669890D01*
X143954086Y-100602459D01*
X143983946Y-100647147D01*
X144465715Y-100969054D01*
X145034000Y-101082093D01*
X145602285Y-100969054D01*
X146084054Y-100647147D01*
X146304000Y-100317974D01*
X146523946Y-100647147D01*
X147005715Y-100969054D01*
X147574000Y-101082093D01*
X148142285Y-100969054D01*
X148624054Y-100647147D01*
X148945961Y-100165378D01*
X149059000Y-99597093D01*
X149059000Y-99538907D01*
X148945961Y-98970622D01*
X148624054Y-98488853D01*
X148334000Y-98295046D01*
X148334000Y-97917000D01*
X148276148Y-97626161D01*
X148111401Y-97379599D01*
X147603401Y-96871599D01*
X147356839Y-96706852D01*
X147066000Y-96649000D01*
X141792802Y-96649000D01*
X140333000Y-95189198D01*
X140333000Y-90170000D01*
X140275148Y-89879161D01*
X140110401Y-89632599D01*
X137853802Y-87376000D01*
X140728680Y-84501122D01*
X140774167Y-84501162D01*
X140845000Y-84471894D01*
X140845000Y-87251698D01*
X140639820Y-87456878D01*
X140594333Y-87456838D01*
X140250557Y-87598883D01*
X139987308Y-87861673D01*
X139844662Y-88205201D01*
X139844338Y-88577167D01*
X139986383Y-88920943D01*
X140249173Y-89184192D01*
X140592701Y-89326838D01*
X140964667Y-89327162D01*
X141308443Y-89185117D01*
X141571692Y-88922327D01*
X141714338Y-88578799D01*
X141714379Y-88531923D01*
X142142401Y-88103901D01*
X142307148Y-87857340D01*
X142365000Y-87566500D01*
X142365000Y-82931000D01*
X142307148Y-82640161D01*
X142307148Y-82640160D01*
X142142401Y-82393599D01*
X141443901Y-81695099D01*
X141197339Y-81530352D01*
X140906500Y-81472500D01*
X138865463Y-81472500D01*
X138833327Y-81440308D01*
X138489799Y-81297662D01*
X138117833Y-81297338D01*
X137774057Y-81439383D01*
X137510808Y-81702173D01*
X137368162Y-82045701D01*
X137368121Y-82092577D01*
X135670099Y-83790599D01*
X135505352Y-84037161D01*
X135447500Y-84328000D01*
X135447500Y-86359902D01*
X135011906Y-86795496D01*
X128972806Y-86795496D01*
X129505901Y-86262401D01*
X129670648Y-86015839D01*
X129728500Y-85725000D01*
X129728500Y-79452971D01*
X130727321Y-79452971D01*
X130884558Y-79833515D01*
X131175454Y-80124919D01*
X131555723Y-80282820D01*
X131967471Y-80283179D01*
X132348015Y-80125942D01*
X132639419Y-79835046D01*
X132797320Y-79454777D01*
X132797679Y-79043029D01*
X132640442Y-78662485D01*
X132349546Y-78371081D01*
X131969277Y-78213180D01*
X131557529Y-78212821D01*
X131176985Y-78370058D01*
X130885581Y-78660954D01*
X130727680Y-79041223D01*
X130727321Y-79452971D01*
X129728500Y-79452971D01*
X129728500Y-77147167D01*
X130573338Y-77147167D01*
X130715383Y-77490943D01*
X130978173Y-77754192D01*
X131321701Y-77896838D01*
X131693667Y-77897162D01*
X132037443Y-77755117D01*
X132300692Y-77492327D01*
X132443338Y-77148799D01*
X132443441Y-77030579D01*
X132464648Y-76998840D01*
X132522500Y-76708000D01*
X132522500Y-75492463D01*
X132554692Y-75460327D01*
X132697338Y-75116799D01*
X132697662Y-74744833D01*
X132555617Y-74401057D01*
X132292827Y-74137808D01*
X131949299Y-73995162D01*
X131577333Y-73994838D01*
X131233557Y-74136883D01*
X130970308Y-74399673D01*
X130827662Y-74743201D01*
X130827338Y-75115167D01*
X130969383Y-75458943D01*
X131002500Y-75492118D01*
X131002500Y-76159403D01*
X130979557Y-76168883D01*
X130716308Y-76431673D01*
X130573662Y-76775201D01*
X130573338Y-77147167D01*
X129728500Y-77147167D01*
X129728500Y-72768302D01*
X130172302Y-72324500D01*
X130251556Y-72324500D01*
X130208308Y-72367673D01*
X130065662Y-72711201D01*
X130065338Y-73083167D01*
X130207383Y-73426943D01*
X130470173Y-73690192D01*
X130813701Y-73832838D01*
X131185667Y-73833162D01*
X131455910Y-73721500D01*
X135067198Y-73721500D01*
X135511000Y-74165302D01*
X135511000Y-78168500D01*
X135568852Y-78459339D01*
X135733599Y-78705901D01*
X136686099Y-79658401D01*
X136932660Y-79823148D01*
X136980914Y-79832746D01*
X137223500Y-79881000D01*
X139700000Y-79881000D01*
X139990839Y-79823148D01*
X140237401Y-79658401D01*
X141665802Y-78230000D01*
X148465698Y-78230000D01*
X150433500Y-80197802D01*
X150433500Y-87695500D01*
X146364802Y-87695500D01*
X146223122Y-87553820D01*
X146223162Y-87508333D01*
X146081117Y-87164557D01*
X145818327Y-86901308D01*
X145474799Y-86758662D01*
X145102833Y-86758338D01*
X144759057Y-86900383D01*
X144495808Y-87163173D01*
X144353162Y-87506701D01*
X144352838Y-87878667D01*
X144494883Y-88222443D01*
X144757673Y-88485692D01*
X145101201Y-88628338D01*
X145148077Y-88628379D01*
X145512599Y-88992901D01*
X145759161Y-89157648D01*
X146050000Y-89215500D01*
X151193500Y-89215500D01*
X151484339Y-89157648D01*
X151730901Y-88992901D01*
X151895648Y-88746339D01*
X151953500Y-88455500D01*
X151953500Y-79883000D01*
X151895648Y-79592161D01*
X151895648Y-79592160D01*
X151730901Y-79345599D01*
X149317901Y-76932599D01*
X149071339Y-76767852D01*
X148780500Y-76710000D01*
X141351000Y-76710000D01*
X141060161Y-76767852D01*
X140813599Y-76932599D01*
X139385198Y-78361000D01*
X137538302Y-78361000D01*
X137031000Y-77853698D01*
X137031000Y-77393444D01*
X137074173Y-77436692D01*
X137417701Y-77579338D01*
X137789667Y-77579662D01*
X138133443Y-77437617D01*
X138396692Y-77174827D01*
X138539338Y-76831299D01*
X138539379Y-76784423D01*
X138649901Y-76673901D01*
X138766206Y-76499838D01*
X138814648Y-76427339D01*
X138872500Y-76136500D01*
X138872500Y-73917334D01*
X138958943Y-73881617D01*
X139222192Y-73618827D01*
X139301156Y-73428661D01*
X159384758Y-73428661D01*
X159596990Y-73942303D01*
X159989630Y-74335629D01*
X160502900Y-74548757D01*
X161058661Y-74549242D01*
X161572303Y-74337010D01*
X161965629Y-73944370D01*
X162178757Y-73431100D01*
X162179242Y-72875339D01*
X161967010Y-72361697D01*
X161574370Y-71968371D01*
X161061100Y-71755243D01*
X160505339Y-71754758D01*
X159991697Y-71966990D01*
X159598371Y-72359630D01*
X159385243Y-72872900D01*
X159384758Y-73428661D01*
X139301156Y-73428661D01*
X139364838Y-73275299D01*
X139365162Y-72903333D01*
X139223117Y-72559557D01*
X138960327Y-72296308D01*
X138616799Y-72153662D01*
X138244833Y-72153338D01*
X137901057Y-72295383D01*
X137637808Y-72558173D01*
X137495162Y-72901701D01*
X137495087Y-72988346D01*
X137410352Y-73115161D01*
X137352500Y-73406000D01*
X137352500Y-75736953D01*
X137075557Y-75851383D01*
X137031000Y-75895862D01*
X137031000Y-73850500D01*
X136973148Y-73559661D01*
X136808401Y-73313099D01*
X135919401Y-72424099D01*
X135672839Y-72259352D01*
X135382000Y-72201500D01*
X134817840Y-72201500D01*
X134966901Y-72101901D01*
X135919401Y-71149401D01*
X136084148Y-70902840D01*
X136103709Y-70804500D01*
X136142000Y-70612000D01*
X136142000Y-68130275D01*
X153638303Y-68130275D01*
X153810733Y-68547586D01*
X154129735Y-68867145D01*
X154546744Y-69040303D01*
X154998275Y-69040697D01*
X155415586Y-68868267D01*
X155453920Y-68830000D01*
X158410724Y-68830000D01*
X158487235Y-68906645D01*
X158904244Y-69079803D01*
X159355775Y-69080197D01*
X159773086Y-68907767D01*
X160092645Y-68588765D01*
X160265803Y-68171756D01*
X160266197Y-67720225D01*
X160093767Y-67302914D01*
X159774765Y-66983355D01*
X159357756Y-66810197D01*
X158906225Y-66809803D01*
X158488914Y-66982233D01*
X158411011Y-67060000D01*
X155533208Y-67060000D01*
X155417265Y-66943855D01*
X155000256Y-66770697D01*
X154548725Y-66770303D01*
X154131414Y-66942733D01*
X153811855Y-67261735D01*
X153638697Y-67678744D01*
X153638303Y-68130275D01*
X136142000Y-68130275D01*
X136142000Y-67942302D01*
X136776302Y-67308000D01*
X151257000Y-67308000D01*
X151547839Y-67250148D01*
X151794401Y-67085401D01*
X155508802Y-63371000D01*
X158662763Y-63371000D01*
X158686853Y-63407054D01*
X159168622Y-63728961D01*
X159736907Y-63842000D01*
X159795093Y-63842000D01*
X160363378Y-63728961D01*
X160845147Y-63407054D01*
X161167054Y-62925285D01*
X161280093Y-62357000D01*
X161167054Y-61788715D01*
X160845147Y-61306946D01*
X160803548Y-61279150D01*
X160851317Y-61270162D01*
X161067441Y-61131090D01*
X161212431Y-60918890D01*
X161263440Y-60667000D01*
X161263440Y-58967000D01*
X161219162Y-58731683D01*
X161080090Y-58515559D01*
X160867890Y-58370569D01*
X160616000Y-58319560D01*
X158916000Y-58319560D01*
X158680683Y-58363838D01*
X158464559Y-58502910D01*
X158319569Y-58715110D01*
X158268560Y-58967000D01*
X158268560Y-60667000D01*
X158312838Y-60902317D01*
X158451910Y-61118441D01*
X158664110Y-61263431D01*
X158731541Y-61277086D01*
X158686853Y-61306946D01*
X158364946Y-61788715D01*
X158352557Y-61851000D01*
X157391047Y-61851000D01*
X157627943Y-61753117D01*
X157891192Y-61490327D01*
X158033838Y-61146799D01*
X158034162Y-60774833D01*
X157892117Y-60431057D01*
X157859000Y-60397882D01*
X157859000Y-59109463D01*
X157891192Y-59077327D01*
X158033838Y-58733799D01*
X158034162Y-58361833D01*
X157892117Y-58018057D01*
X157629327Y-57754808D01*
X157285799Y-57612162D01*
X156913833Y-57611838D01*
X156570057Y-57753883D01*
X156306808Y-58016673D01*
X156164162Y-58360201D01*
X156163838Y-58732167D01*
X156305883Y-59075943D01*
X156339000Y-59109118D01*
X156339000Y-60397537D01*
X156306808Y-60429673D01*
X156164162Y-60773201D01*
X156163838Y-61145167D01*
X156305883Y-61488943D01*
X156568673Y-61752192D01*
X156806628Y-61851000D01*
X155954000Y-61851000D01*
X155954000Y-60579000D01*
X155896148Y-60288161D01*
X155731401Y-60041599D01*
X155182794Y-59492992D01*
X155098117Y-59288057D01*
X154835327Y-59024808D01*
X154491799Y-58882162D01*
X154119833Y-58881838D01*
X153776057Y-59023883D01*
X153512808Y-59286673D01*
X153370162Y-59630201D01*
X153369838Y-60002167D01*
X153511883Y-60345943D01*
X153774673Y-60609192D01*
X154118201Y-60751838D01*
X154292188Y-60751990D01*
X154434000Y-60893802D01*
X154434000Y-62052889D01*
X154200327Y-61818808D01*
X153856799Y-61676162D01*
X153484833Y-61675838D01*
X153141057Y-61817883D01*
X152877808Y-62080673D01*
X152735162Y-62424201D01*
X152734838Y-62796167D01*
X152876883Y-63139943D01*
X152910000Y-63173118D01*
X152910000Y-63183800D01*
X150755802Y-65337998D01*
X136213002Y-65337998D01*
X135922162Y-65395850D01*
X135675601Y-65560597D01*
X134394597Y-66841601D01*
X134229850Y-67088163D01*
X134171998Y-67379002D01*
X134171998Y-70110802D01*
X133928302Y-70354498D01*
X129671104Y-70354498D01*
X129380265Y-70412350D01*
X129133703Y-70577097D01*
X127981097Y-71729703D01*
X127899719Y-71851494D01*
X127817666Y-71973107D01*
X127817318Y-71974816D01*
X127816350Y-71976265D01*
X127787752Y-72120034D01*
X127758506Y-72263683D01*
X127701793Y-84864506D01*
X127169320Y-85467498D01*
X112205818Y-85467498D01*
X111014096Y-84546621D01*
X110923946Y-84501783D01*
X110840235Y-84445850D01*
X110792324Y-84436320D01*
X110748586Y-84414566D01*
X110648145Y-84407641D01*
X110549396Y-84387998D01*
X102424304Y-84387998D01*
X102755680Y-84056622D01*
X102801167Y-84056662D01*
X103144943Y-83914617D01*
X103408192Y-83651827D01*
X103550838Y-83308299D01*
X103551162Y-82936333D01*
X103409117Y-82592557D01*
X103146327Y-82329308D01*
X102802799Y-82186662D01*
X102430833Y-82186338D01*
X102087057Y-82328383D01*
X101823808Y-82591173D01*
X101681162Y-82934701D01*
X101681121Y-82981577D01*
X101221698Y-83441000D01*
X100828741Y-83441000D01*
X100669827Y-83281808D01*
X100326299Y-83139162D01*
X99954333Y-83138838D01*
X99610557Y-83280883D01*
X99577382Y-83314000D01*
X95978072Y-83314000D01*
X95916117Y-83164057D01*
X95653327Y-82900808D01*
X95309799Y-82758162D01*
X94937833Y-82757838D01*
X94594057Y-82899883D01*
X94330808Y-83162673D01*
X94188162Y-83506201D01*
X94187838Y-83878167D01*
X94329883Y-84221943D01*
X94592673Y-84485192D01*
X94936201Y-84627838D01*
X94991270Y-84627886D01*
X95213160Y-84776148D01*
X95504000Y-84834000D01*
X95730132Y-84834000D01*
X95648662Y-85030201D01*
X95648338Y-85402167D01*
X95790383Y-85745943D01*
X96053173Y-86009192D01*
X96138204Y-86044500D01*
X93723302Y-86044500D01*
X92263500Y-84584698D01*
X92263500Y-83493463D01*
X92295692Y-83461327D01*
X92408407Y-83189881D01*
X92433673Y-83215192D01*
X92777201Y-83357838D01*
X93149167Y-83358162D01*
X93492943Y-83216117D01*
X93756192Y-82953327D01*
X93898838Y-82609799D01*
X93899162Y-82237833D01*
X93757117Y-81894057D01*
X93494327Y-81630808D01*
X93150799Y-81488162D01*
X93103923Y-81488121D01*
X91819000Y-80203198D01*
X91819000Y-76889463D01*
X91851192Y-76857327D01*
X91993838Y-76513799D01*
X91994162Y-76141833D01*
X91852117Y-75798057D01*
X91804311Y-75750167D01*
X97362838Y-75750167D01*
X97504883Y-76093943D01*
X97767673Y-76357192D01*
X97982500Y-76446396D01*
X97982500Y-77024102D01*
X98040352Y-77314941D01*
X98205099Y-77561503D01*
X102201495Y-81557899D01*
X102448056Y-81722646D01*
X102496310Y-81732244D01*
X102738896Y-81780498D01*
X111314094Y-81780498D01*
X113186995Y-83653399D01*
X113433557Y-83818146D01*
X113724396Y-83875998D01*
X117534396Y-83875998D01*
X117825235Y-83818146D01*
X118071797Y-83653399D01*
X118236544Y-83406837D01*
X118294396Y-83115998D01*
X118236544Y-82825159D01*
X118071797Y-82578597D01*
X117825235Y-82413850D01*
X117534396Y-82355998D01*
X114039198Y-82355998D01*
X112166297Y-80483097D01*
X111919735Y-80318350D01*
X111628896Y-80260498D01*
X103053698Y-80260498D01*
X99502500Y-76709300D01*
X99502500Y-76009500D01*
X99444648Y-75718661D01*
X99279901Y-75472099D01*
X99233122Y-75425320D01*
X99233162Y-75379833D01*
X99091117Y-75036057D01*
X98828327Y-74772808D01*
X98484799Y-74630162D01*
X98112833Y-74629838D01*
X97769057Y-74771883D01*
X97505808Y-75034673D01*
X97363162Y-75378201D01*
X97362838Y-75750167D01*
X91804311Y-75750167D01*
X91589327Y-75534808D01*
X91245799Y-75392162D01*
X90873833Y-75391838D01*
X90530057Y-75533883D01*
X90266808Y-75796673D01*
X90124162Y-76140201D01*
X90123838Y-76512167D01*
X90265883Y-76855943D01*
X90299000Y-76889118D01*
X90299000Y-78574367D01*
X89975799Y-78440162D01*
X89603833Y-78439838D01*
X89260057Y-78581883D01*
X88996808Y-78844673D01*
X88854162Y-79188201D01*
X88853838Y-79560167D01*
X88995883Y-79903943D01*
X89029000Y-79937118D01*
X89029000Y-81216500D01*
X89086852Y-81507339D01*
X89251599Y-81753901D01*
X90568378Y-83070680D01*
X90568338Y-83116167D01*
X90710383Y-83459943D01*
X90743500Y-83493118D01*
X90743500Y-84899500D01*
X90801352Y-85190339D01*
X90966099Y-85436901D01*
X92871099Y-87341901D01*
X93117661Y-87506648D01*
X93408500Y-87564500D01*
X108597767Y-87564500D01*
X110584042Y-89462496D01*
X83499802Y-89462496D01*
X82780905Y-88743599D01*
X82534343Y-88578852D01*
X82243504Y-88521000D01*
X81842463Y-88521000D01*
X81810327Y-88488808D01*
X81466799Y-88346162D01*
X81094833Y-88345838D01*
X80751057Y-88487883D01*
X80487808Y-88750673D01*
X80345162Y-89094201D01*
X80344838Y-89466167D01*
X77153135Y-89466167D01*
X80685405Y-85933897D01*
X80850152Y-85687335D01*
X80908004Y-85396496D01*
X80908004Y-83745594D01*
X85765405Y-78888193D01*
X85930152Y-78641631D01*
X85988004Y-78350792D01*
X85988004Y-75173094D01*
X88859747Y-72301351D01*
X89030701Y-72372338D01*
X89402667Y-72372662D01*
X89746443Y-72230617D01*
X90009692Y-71967827D01*
X90152338Y-71624299D01*
X90152534Y-71398938D01*
X90444943Y-71278117D01*
X90708192Y-71015327D01*
X90850838Y-70671799D01*
X90851002Y-70483000D01*
X92782537Y-70483000D01*
X92814673Y-70515192D01*
X92872623Y-70539255D01*
X92587457Y-70657083D01*
X92324208Y-70919873D01*
X92181562Y-71263401D01*
X92181238Y-71635367D01*
X92323283Y-71979143D01*
X92586073Y-72242392D01*
X92929601Y-72385038D01*
X93301567Y-72385362D01*
X93645343Y-72243317D01*
X93908592Y-71980527D01*
X94051238Y-71636999D01*
X94051312Y-71551990D01*
X95631635Y-69971667D01*
X99712338Y-69971667D01*
X99854383Y-70315443D01*
X100117173Y-70578692D01*
X100460701Y-70721338D01*
X100832667Y-70721662D01*
X101176443Y-70579617D01*
X101209618Y-70546500D01*
X102237698Y-70546500D01*
X104745599Y-73054401D01*
X104992161Y-73219148D01*
X105283000Y-73277000D01*
X125485148Y-73277000D01*
X125580673Y-73372692D01*
X125924201Y-73515338D01*
X126296167Y-73515662D01*
X126639943Y-73373617D01*
X126903192Y-73110827D01*
X127045838Y-72767299D01*
X127046162Y-72395333D01*
X126904117Y-72051557D01*
X126641327Y-71788308D01*
X126297799Y-71645662D01*
X125925833Y-71645338D01*
X125655590Y-71757000D01*
X111176620Y-71757000D01*
X111409461Y-71524564D01*
X111620759Y-71015702D01*
X111621240Y-70464715D01*
X111548706Y-70289167D01*
X122762838Y-70289167D01*
X122904883Y-70632943D01*
X123167673Y-70896192D01*
X123511201Y-71038838D01*
X123883167Y-71039162D01*
X124226943Y-70897117D01*
X124490192Y-70634327D01*
X124632838Y-70290799D01*
X124632879Y-70243923D01*
X126013401Y-68863401D01*
X126178148Y-68616839D01*
X126236000Y-68326000D01*
X126236000Y-67618463D01*
X126268192Y-67586327D01*
X126410838Y-67242799D01*
X126411162Y-66870833D01*
X126269117Y-66527057D01*
X126006327Y-66263808D01*
X125662799Y-66121162D01*
X125290833Y-66120838D01*
X124947057Y-66262883D01*
X124683808Y-66525673D01*
X124541162Y-66869201D01*
X124540838Y-67241167D01*
X124682883Y-67584943D01*
X124716000Y-67618118D01*
X124716000Y-68011198D01*
X123558320Y-69168878D01*
X123512833Y-69168838D01*
X123169057Y-69310883D01*
X122905808Y-69573673D01*
X122763162Y-69917201D01*
X122762838Y-70289167D01*
X111548706Y-70289167D01*
X111410831Y-69955485D01*
X111021564Y-69565539D01*
X110512702Y-69354241D01*
X109961715Y-69353760D01*
X109658610Y-69479000D01*
X106439910Y-69479000D01*
X106173955Y-69213045D01*
X105765181Y-68939912D01*
X105521404Y-68891421D01*
X105407729Y-68844219D01*
X105283562Y-68844111D01*
X105283000Y-68843999D01*
X105282443Y-68844110D01*
X104906470Y-68843782D01*
X104443200Y-69035201D01*
X104088447Y-69389335D01*
X103896219Y-69852271D01*
X103896042Y-70055240D01*
X103089901Y-69249099D01*
X102843339Y-69084352D01*
X102552500Y-69026500D01*
X101209963Y-69026500D01*
X101177827Y-68994308D01*
X100834299Y-68851662D01*
X100462333Y-68851338D01*
X100118557Y-68993383D01*
X99855308Y-69256173D01*
X99712662Y-69599701D01*
X99712338Y-69971667D01*
X95631635Y-69971667D01*
X103057802Y-62545500D01*
X105854500Y-62545500D01*
X106145339Y-62487648D01*
X106391901Y-62322901D01*
X111027401Y-57687401D01*
X111192148Y-57440839D01*
X111250000Y-57150000D01*
X111250000Y-56508301D01*
X111569147Y-56295054D01*
X111569971Y-56293821D01*
X111576838Y-56330317D01*
X111715910Y-56546441D01*
X111928110Y-56691431D01*
X112180000Y-56742440D01*
X113880000Y-56742440D01*
X114115317Y-56698162D01*
X114331441Y-56559090D01*
X114476431Y-56346890D01*
X114527440Y-56095000D01*
X114527440Y-55245000D01*
X121040907Y-55245000D01*
X121153946Y-55813285D01*
X121475853Y-56295054D01*
X121805026Y-56515000D01*
X121475853Y-56734946D01*
X121153946Y-57216715D01*
X121040907Y-57785000D01*
X121153946Y-58353285D01*
X121475853Y-58835054D01*
X121957622Y-59156961D01*
X122525907Y-59270000D01*
X122584093Y-59270000D01*
X123152378Y-59156961D01*
X123634147Y-58835054D01*
X123634971Y-58833821D01*
X123641838Y-58870317D01*
X123780910Y-59086441D01*
X123993110Y-59231431D01*
X124245000Y-59282440D01*
X124273500Y-59282440D01*
X124273500Y-62794132D01*
X124218081Y-62849454D01*
X124060180Y-63229723D01*
X124059821Y-63641471D01*
X124217058Y-64022015D01*
X124507954Y-64313419D01*
X124888223Y-64471320D01*
X125299971Y-64471679D01*
X125680515Y-64314442D01*
X125971919Y-64023546D01*
X126112425Y-63685167D01*
X131398838Y-63685167D01*
X131540883Y-64028943D01*
X131803673Y-64292192D01*
X132147201Y-64434838D01*
X132519167Y-64435162D01*
X132862943Y-64293117D01*
X133126192Y-64030327D01*
X133268838Y-63686799D01*
X133268879Y-63639923D01*
X136156901Y-60751901D01*
X136456167Y-60752162D01*
X136799943Y-60610117D01*
X137063192Y-60347327D01*
X137205838Y-60003799D01*
X137206162Y-59631833D01*
X137064117Y-59288057D01*
X136801327Y-59024808D01*
X136457799Y-58882162D01*
X136085833Y-58881838D01*
X135742057Y-59023883D01*
X135498638Y-59266878D01*
X135479599Y-59279599D01*
X132194320Y-62564878D01*
X132148833Y-62564838D01*
X131805057Y-62706883D01*
X131541808Y-62969673D01*
X131399162Y-63313201D01*
X131398838Y-63685167D01*
X126112425Y-63685167D01*
X126129820Y-63643277D01*
X126130179Y-63231529D01*
X126043500Y-63021749D01*
X126043500Y-59263906D01*
X126180317Y-59238162D01*
X126396441Y-59099090D01*
X126541431Y-58886890D01*
X126592440Y-58635000D01*
X126592440Y-56935000D01*
X126548162Y-56699683D01*
X126409090Y-56483559D01*
X126196890Y-56338569D01*
X126129459Y-56324914D01*
X126174147Y-56295054D01*
X126496054Y-55813285D01*
X126566008Y-55461599D01*
X132757699Y-55461599D01*
X133021281Y-56099515D01*
X133508918Y-56588004D01*
X134146373Y-56852699D01*
X134836599Y-56853301D01*
X135474515Y-56589719D01*
X135963004Y-56102082D01*
X136227699Y-55464627D01*
X136228301Y-54774401D01*
X135964719Y-54136485D01*
X135477082Y-53647996D01*
X134839627Y-53383301D01*
X134149401Y-53382699D01*
X133511485Y-53646281D01*
X133022996Y-54133918D01*
X132758301Y-54771373D01*
X132757699Y-55461599D01*
X126566008Y-55461599D01*
X126609093Y-55245000D01*
X126496054Y-54676715D01*
X126174147Y-54194946D01*
X125692378Y-53873039D01*
X125124093Y-53760000D01*
X125065907Y-53760000D01*
X124497622Y-53873039D01*
X124015853Y-54194946D01*
X123825000Y-54480578D01*
X123634147Y-54194946D01*
X123152378Y-53873039D01*
X122584093Y-53760000D01*
X122525907Y-53760000D01*
X121957622Y-53873039D01*
X121475853Y-54194946D01*
X121153946Y-54676715D01*
X121040907Y-55245000D01*
X114527440Y-55245000D01*
X114527440Y-54395000D01*
X114483162Y-54159683D01*
X114344090Y-53943559D01*
X114131890Y-53798569D01*
X113880000Y-53747560D01*
X112180000Y-53747560D01*
X111944683Y-53791838D01*
X111728559Y-53930910D01*
X111583569Y-54143110D01*
X111572159Y-54199454D01*
X111569147Y-54194946D01*
X111087378Y-53873039D01*
X110519093Y-53760000D01*
X110460907Y-53760000D01*
X109892622Y-53873039D01*
X109410853Y-54194946D01*
X109088946Y-54676715D01*
X108975907Y-55245000D01*
X109088946Y-55813285D01*
X109410853Y-56295054D01*
X109730000Y-56508301D01*
X109730000Y-56835198D01*
X105539698Y-61025500D01*
X102743000Y-61025500D01*
X102452161Y-61083352D01*
X102205599Y-61248099D01*
X94173648Y-69280050D01*
X94138117Y-69194057D01*
X93875327Y-68930808D01*
X93531799Y-68788162D01*
X93159833Y-68787838D01*
X92816057Y-68929883D01*
X92782882Y-68963000D01*
X89146310Y-68963000D01*
X89058117Y-68749557D01*
X88795327Y-68486308D01*
X88451799Y-68343662D01*
X88079833Y-68343338D01*
X87736057Y-68485383D01*
X87472808Y-68748173D01*
X87330162Y-69091701D01*
X87330121Y-69138577D01*
X87156099Y-69312599D01*
X86991352Y-69559161D01*
X86933500Y-69850000D01*
X86933500Y-70168800D01*
X83340597Y-73761703D01*
X83175850Y-74008265D01*
X83117998Y-74299104D01*
X83117998Y-77476802D01*
X78260597Y-82334203D01*
X78095850Y-82580765D01*
X78037998Y-82871604D01*
X78037998Y-84207802D01*
X73280300Y-88965500D01*
X71628000Y-88965500D01*
X71337161Y-89023352D01*
X71090599Y-89188099D01*
X68487099Y-91791599D01*
X68322352Y-92038161D01*
X68264500Y-92329000D01*
X68264500Y-95887698D01*
X67995765Y-96156433D01*
X67886833Y-96156338D01*
X67543057Y-96298383D01*
X67279808Y-96561173D01*
X67137162Y-96904701D01*
X67136838Y-97276667D01*
X59817000Y-97276667D01*
X59817000Y-82488373D01*
X65154812Y-82488373D01*
X65319646Y-82887300D01*
X65624595Y-83192782D01*
X66023233Y-83358311D01*
X66454873Y-83358688D01*
X66853800Y-83193854D01*
X67159282Y-82888905D01*
X67324811Y-82490267D01*
X67325188Y-82058627D01*
X67160354Y-81659700D01*
X66855405Y-81354218D01*
X66456767Y-81188689D01*
X66025127Y-81188312D01*
X65626200Y-81353146D01*
X65320718Y-81658095D01*
X65155189Y-82056733D01*
X65154812Y-82488373D01*
X59817000Y-82488373D01*
X59817000Y-78088373D01*
X65154812Y-78088373D01*
X65319646Y-78487300D01*
X65624595Y-78792782D01*
X66023233Y-78958311D01*
X66454873Y-78958688D01*
X66843361Y-78798167D01*
X71327838Y-78798167D01*
X71469883Y-79141943D01*
X71547539Y-79219734D01*
X71455162Y-79442201D01*
X71454838Y-79814167D01*
X71596883Y-80157943D01*
X71859673Y-80421192D01*
X72203201Y-80563838D01*
X72575167Y-80564162D01*
X72918943Y-80422117D01*
X73015729Y-80325500D01*
X78876037Y-80325500D01*
X78908173Y-80357692D01*
X79251701Y-80500338D01*
X79623667Y-80500662D01*
X79967443Y-80358617D01*
X80230692Y-80095827D01*
X80373338Y-79752299D01*
X80373662Y-79380333D01*
X80330371Y-79275560D01*
X80475443Y-79215617D01*
X80738692Y-78952827D01*
X80881338Y-78609299D01*
X80881662Y-78237333D01*
X80739617Y-77893557D01*
X80476827Y-77630308D01*
X80133299Y-77487662D01*
X79761333Y-77487338D01*
X79417557Y-77629383D01*
X79384382Y-77662500D01*
X72453500Y-77662500D01*
X72375090Y-77678097D01*
X72077833Y-77677838D01*
X71734057Y-77819883D01*
X71470808Y-78082673D01*
X71328162Y-78426201D01*
X71327838Y-78798167D01*
X66843361Y-78798167D01*
X66853800Y-78793854D01*
X67159282Y-78488905D01*
X67324811Y-78090267D01*
X67325188Y-77658627D01*
X67160354Y-77259700D01*
X66855405Y-76954218D01*
X66456767Y-76788689D01*
X66025127Y-76788312D01*
X65626200Y-76953146D01*
X65320718Y-77258095D01*
X65155189Y-77656733D01*
X65154812Y-78088373D01*
X59817000Y-78088373D01*
X59817000Y-74519775D01*
X75064803Y-74519775D01*
X75237233Y-74937086D01*
X75556235Y-75256645D01*
X75973244Y-75429803D01*
X76424775Y-75430197D01*
X76842086Y-75257767D01*
X77161645Y-74938765D01*
X77334803Y-74521756D01*
X77334899Y-74411681D01*
X80000787Y-71745792D01*
X80000790Y-71745790D01*
X80192633Y-71458675D01*
X80211509Y-71363781D01*
X80260001Y-71120000D01*
X80260000Y-71119995D01*
X80260000Y-53425276D01*
X80336645Y-53348765D01*
X80509803Y-52931756D01*
X80510197Y-52480225D01*
X80337767Y-52062914D01*
X80018765Y-51743355D01*
X79601756Y-51570197D01*
X79150225Y-51569803D01*
X78732914Y-51742233D01*
X78413355Y-52061235D01*
X78240197Y-52478244D01*
X78239803Y-52929775D01*
X78412233Y-53347086D01*
X78490000Y-53424989D01*
X78490000Y-70753421D01*
X76083523Y-73159897D01*
X75975225Y-73159803D01*
X75557914Y-73332233D01*
X75238355Y-73651235D01*
X75065197Y-74068244D01*
X75064803Y-74519775D01*
X59817000Y-74519775D01*
X59817000Y-61679874D01*
X61134370Y-61679874D01*
X61686600Y-63016372D01*
X62708249Y-64039806D01*
X64043782Y-64594368D01*
X65489874Y-64595630D01*
X66826372Y-64043400D01*
X67849806Y-63021751D01*
X68404368Y-61686218D01*
X68405630Y-60240126D01*
X67853400Y-58903628D01*
X66831751Y-57880194D01*
X65496218Y-57325632D01*
X64050126Y-57324370D01*
X62713628Y-57876600D01*
X61690194Y-58898249D01*
X61135632Y-60233782D01*
X61134370Y-61679874D01*
X59817000Y-61679874D01*
X59817000Y-56935000D01*
X70892560Y-56935000D01*
X70892560Y-58635000D01*
X70936838Y-58870317D01*
X71075910Y-59086441D01*
X71288110Y-59231431D01*
X71540000Y-59282440D01*
X73240000Y-59282440D01*
X73475317Y-59238162D01*
X73691441Y-59099090D01*
X73836431Y-58886890D01*
X73887440Y-58635000D01*
X73887440Y-56935000D01*
X73843162Y-56699683D01*
X73704090Y-56483559D01*
X73491890Y-56338569D01*
X73240000Y-56287560D01*
X71540000Y-56287560D01*
X71304683Y-56331838D01*
X71088559Y-56470910D01*
X70943569Y-56683110D01*
X70892560Y-56935000D01*
X59817000Y-56935000D01*
X59817000Y-55008309D01*
X60338407Y-55530627D01*
X61563717Y-56039420D01*
X62890462Y-56040578D01*
X64116658Y-55533924D01*
X65055627Y-54596593D01*
X65564420Y-53371283D01*
X65565578Y-52044538D01*
X65058924Y-50818342D01*
X64533500Y-50292000D01*
X160256691Y-50292000D01*
X159734373Y-50813407D01*
X159734373Y-50813407D01*
G37*
X159734373Y-50813407D02*
X159225580Y-52038717D01*
X159224422Y-53365462D01*
X159731076Y-54591658D01*
X160668407Y-55530627D01*
X161893717Y-56039420D01*
X163220462Y-56040578D01*
X164446658Y-55533924D01*
X164973000Y-55008500D01*
X164973000Y-104376691D01*
X164451593Y-103854373D01*
X163226283Y-103345580D01*
X161899538Y-103344422D01*
X160673342Y-103851076D01*
X159734373Y-104788407D01*
X159225580Y-106013717D01*
X159224422Y-107340462D01*
X159731076Y-108566658D01*
X160256500Y-109093000D01*
X64533309Y-109093000D01*
X65055627Y-108571593D01*
X65564420Y-107346283D01*
X65565578Y-106019538D01*
X65058924Y-104793342D01*
X64121593Y-103854373D01*
X62896283Y-103345580D01*
X61569538Y-103344422D01*
X60343342Y-103851076D01*
X59817000Y-104376500D01*
X59817000Y-101435599D01*
X155490699Y-101435599D01*
X155754281Y-102073515D01*
X156241918Y-102562004D01*
X156879373Y-102826699D01*
X157569599Y-102827301D01*
X158207515Y-102563719D01*
X158696004Y-102076082D01*
X158960699Y-101438627D01*
X158961301Y-100748401D01*
X158697719Y-100110485D01*
X158210082Y-99621996D01*
X157572627Y-99357301D01*
X156882401Y-99356699D01*
X156244485Y-99620281D01*
X155755996Y-100107918D01*
X155491301Y-100745373D01*
X155490699Y-101435599D01*
X59817000Y-101435599D01*
X59817000Y-99665907D01*
X119546000Y-99665907D01*
X119546000Y-99724093D01*
X119659039Y-100292378D01*
X119980946Y-100774147D01*
X120462715Y-101096054D01*
X121031000Y-101209093D01*
X121599285Y-101096054D01*
X122081054Y-100774147D01*
X122301000Y-100444974D01*
X122520946Y-100774147D01*
X123002715Y-101096054D01*
X123571000Y-101209093D01*
X124139285Y-101096054D01*
X124621054Y-100774147D01*
X124648850Y-100732548D01*
X124657838Y-100780317D01*
X124796910Y-100996441D01*
X125009110Y-101141431D01*
X125261000Y-101192440D01*
X126961000Y-101192440D01*
X127196317Y-101148162D01*
X127412441Y-101009090D01*
X127557431Y-100796890D01*
X127608440Y-100545000D01*
X127608440Y-99665907D01*
X133262000Y-99665907D01*
X133262000Y-99724093D01*
X133375039Y-100292378D01*
X133696946Y-100774147D01*
X134178715Y-101096054D01*
X134747000Y-101209093D01*
X135315285Y-101096054D01*
X135797054Y-100774147D01*
X135824850Y-100732548D01*
X135833838Y-100780317D01*
X135972910Y-100996441D01*
X136185110Y-101141431D01*
X136437000Y-101192440D01*
X138137000Y-101192440D01*
X138372317Y-101148162D01*
X138588441Y-101009090D01*
X138733431Y-100796890D01*
X138784440Y-100545000D01*
X138784440Y-98845000D01*
X138740162Y-98609683D01*
X138601090Y-98393559D01*
X138388890Y-98248569D01*
X138137000Y-98197560D01*
X136437000Y-98197560D01*
X136201683Y-98241838D01*
X135985559Y-98380910D01*
X135840569Y-98593110D01*
X135826914Y-98660541D01*
X135797054Y-98615853D01*
X135315285Y-98293946D01*
X134747000Y-98180907D01*
X134178715Y-98293946D01*
X133696946Y-98615853D01*
X133375039Y-99097622D01*
X133262000Y-99665907D01*
X127608440Y-99665907D01*
X127608440Y-98845000D01*
X127564162Y-98609683D01*
X127425090Y-98393559D01*
X127212890Y-98248569D01*
X126961000Y-98197560D01*
X125261000Y-98197560D01*
X125025683Y-98241838D01*
X124809559Y-98380910D01*
X124664569Y-98593110D01*
X124650914Y-98660541D01*
X124621054Y-98615853D01*
X124139285Y-98293946D01*
X123571000Y-98180907D01*
X123002715Y-98293946D01*
X122520946Y-98615853D01*
X122301000Y-98945026D01*
X122081054Y-98615853D01*
X121599285Y-98293946D01*
X121031000Y-98180907D01*
X120462715Y-98293946D01*
X119980946Y-98615853D01*
X119659039Y-99097622D01*
X119546000Y-99665907D01*
X59817000Y-99665907D01*
X59817000Y-97276667D01*
X67136838Y-97276667D01*
X67278883Y-97620443D01*
X67541673Y-97883692D01*
X67885201Y-98026338D01*
X68257167Y-98026662D01*
X68600943Y-97884617D01*
X68864192Y-97621827D01*
X68995004Y-97306798D01*
X69561901Y-96739901D01*
X69726648Y-96493339D01*
X69784500Y-96202500D01*
X69784500Y-92643802D01*
X71942802Y-90485500D01*
X72149167Y-90485500D01*
X72042308Y-90592173D01*
X71899662Y-90935701D01*
X71899338Y-91307667D01*
X72041383Y-91651443D01*
X72304173Y-91914692D01*
X72647701Y-92057338D01*
X72809540Y-92057479D01*
X72930383Y-92349943D01*
X73193173Y-92613192D01*
X73371201Y-92687116D01*
X73360162Y-92713701D01*
X73359838Y-93085667D01*
X73501883Y-93429443D01*
X73764673Y-93692692D01*
X74108201Y-93835338D01*
X74480167Y-93835662D01*
X74823943Y-93693617D01*
X75087192Y-93430827D01*
X75229838Y-93087299D01*
X75229879Y-93040423D01*
X76457852Y-91812450D01*
X76622599Y-91565888D01*
X76680451Y-91275049D01*
X76680451Y-89938851D01*
X77153135Y-89466167D01*
X80344838Y-89466167D01*
X80452080Y-89725714D01*
X80345162Y-89983201D01*
X80344838Y-90355167D01*
X80465232Y-90646543D01*
X80345162Y-90935701D01*
X80344838Y-91307667D01*
X80486883Y-91651443D01*
X80749673Y-91914692D01*
X81093201Y-92057338D01*
X81465167Y-92057662D01*
X81808943Y-91915617D01*
X81842118Y-91882500D01*
X113174390Y-91882500D01*
X113174338Y-91942667D01*
X113316383Y-92286443D01*
X113579173Y-92549692D01*
X113922701Y-92692338D01*
X113969577Y-92692379D01*
X116048599Y-94771401D01*
X116206491Y-94876901D01*
X115993557Y-94964883D01*
X115730308Y-95227673D01*
X115587662Y-95571201D01*
X115587338Y-95943167D01*
X115729383Y-96286943D01*
X115992173Y-96550192D01*
X116335701Y-96692838D01*
X116707667Y-96693162D01*
X117051443Y-96551117D01*
X117275451Y-96327500D01*
X132216148Y-96327500D01*
X132311673Y-96423192D01*
X132655201Y-96565838D01*
X133027167Y-96566162D01*
X133370943Y-96424117D01*
X133634192Y-96161327D01*
X133776838Y-95817799D01*
X133777162Y-95445833D01*
X133662753Y-95168941D01*
X133916167Y-95169162D01*
X134259943Y-95027117D01*
X134523192Y-94764327D01*
X134665838Y-94420799D01*
X134666162Y-94048833D01*
X134524117Y-93705057D01*
X134261327Y-93441808D01*
X133917799Y-93299162D01*
X133545833Y-93298838D01*
X133202057Y-93440883D01*
X133168882Y-93474000D01*
X116900802Y-93474000D01*
X115309302Y-91882500D01*
X121539000Y-91882500D01*
X121829839Y-91824648D01*
X122076401Y-91659901D01*
X124520802Y-89215500D01*
X135699500Y-89215500D01*
X135990339Y-89157648D01*
X136236901Y-88992901D01*
X136779000Y-88450802D01*
X138813000Y-90484802D01*
X138813000Y-95504000D01*
X138870852Y-95794839D01*
X139035599Y-96041401D01*
X140940599Y-97946401D01*
X141187161Y-98111148D01*
X141360756Y-98145678D01*
X141192559Y-98253910D01*
X141047569Y-98466110D01*
X140996560Y-98718000D01*
X140996560Y-100418000D01*
X141040838Y-100653317D01*
X141179910Y-100869441D01*
X141392110Y-101014431D01*
X141644000Y-101065440D01*
X143344000Y-101065440D01*
X143579317Y-101021162D01*
X143795441Y-100882090D01*
X143940431Y-100669890D01*
X143954086Y-100602459D01*
X143983946Y-100647147D01*
X144465715Y-100969054D01*
X145034000Y-101082093D01*
X145602285Y-100969054D01*
X146084054Y-100647147D01*
X146304000Y-100317974D01*
X146523946Y-100647147D01*
X147005715Y-100969054D01*
X147574000Y-101082093D01*
X148142285Y-100969054D01*
X148624054Y-100647147D01*
X148945961Y-100165378D01*
X149059000Y-99597093D01*
X149059000Y-99538907D01*
X148945961Y-98970622D01*
X148624054Y-98488853D01*
X148334000Y-98295046D01*
X148334000Y-97917000D01*
X148276148Y-97626161D01*
X148111401Y-97379599D01*
X147603401Y-96871599D01*
X147356839Y-96706852D01*
X147066000Y-96649000D01*
X141792802Y-96649000D01*
X140333000Y-95189198D01*
X140333000Y-90170000D01*
X140275148Y-89879161D01*
X140110401Y-89632599D01*
X137853802Y-87376000D01*
X140728680Y-84501122D01*
X140774167Y-84501162D01*
X140845000Y-84471894D01*
X140845000Y-87251698D01*
X140639820Y-87456878D01*
X140594333Y-87456838D01*
X140250557Y-87598883D01*
X139987308Y-87861673D01*
X139844662Y-88205201D01*
X139844338Y-88577167D01*
X139986383Y-88920943D01*
X140249173Y-89184192D01*
X140592701Y-89326838D01*
X140964667Y-89327162D01*
X141308443Y-89185117D01*
X141571692Y-88922327D01*
X141714338Y-88578799D01*
X141714379Y-88531923D01*
X142142401Y-88103901D01*
X142307148Y-87857340D01*
X142365000Y-87566500D01*
X142365000Y-82931000D01*
X142307148Y-82640161D01*
X142307148Y-82640160D01*
X142142401Y-82393599D01*
X141443901Y-81695099D01*
X141197339Y-81530352D01*
X140906500Y-81472500D01*
X138865463Y-81472500D01*
X138833327Y-81440308D01*
X138489799Y-81297662D01*
X138117833Y-81297338D01*
X137774057Y-81439383D01*
X137510808Y-81702173D01*
X137368162Y-82045701D01*
X137368121Y-82092577D01*
X135670099Y-83790599D01*
X135505352Y-84037161D01*
X135447500Y-84328000D01*
X135447500Y-86359902D01*
X135011906Y-86795496D01*
X128972806Y-86795496D01*
X129505901Y-86262401D01*
X129670648Y-86015839D01*
X129728500Y-85725000D01*
X129728500Y-79452971D01*
X130727321Y-79452971D01*
X130884558Y-79833515D01*
X131175454Y-80124919D01*
X131555723Y-80282820D01*
X131967471Y-80283179D01*
X132348015Y-80125942D01*
X132639419Y-79835046D01*
X132797320Y-79454777D01*
X132797679Y-79043029D01*
X132640442Y-78662485D01*
X132349546Y-78371081D01*
X131969277Y-78213180D01*
X131557529Y-78212821D01*
X131176985Y-78370058D01*
X130885581Y-78660954D01*
X130727680Y-79041223D01*
X130727321Y-79452971D01*
X129728500Y-79452971D01*
X129728500Y-77147167D01*
X130573338Y-77147167D01*
X130715383Y-77490943D01*
X130978173Y-77754192D01*
X131321701Y-77896838D01*
X131693667Y-77897162D01*
X132037443Y-77755117D01*
X132300692Y-77492327D01*
X132443338Y-77148799D01*
X132443441Y-77030579D01*
X132464648Y-76998840D01*
X132522500Y-76708000D01*
X132522500Y-75492463D01*
X132554692Y-75460327D01*
X132697338Y-75116799D01*
X132697662Y-74744833D01*
X132555617Y-74401057D01*
X132292827Y-74137808D01*
X131949299Y-73995162D01*
X131577333Y-73994838D01*
X131233557Y-74136883D01*
X130970308Y-74399673D01*
X130827662Y-74743201D01*
X130827338Y-75115167D01*
X130969383Y-75458943D01*
X131002500Y-75492118D01*
X131002500Y-76159403D01*
X130979557Y-76168883D01*
X130716308Y-76431673D01*
X130573662Y-76775201D01*
X130573338Y-77147167D01*
X129728500Y-77147167D01*
X129728500Y-72768302D01*
X130172302Y-72324500D01*
X130251556Y-72324500D01*
X130208308Y-72367673D01*
X130065662Y-72711201D01*
X130065338Y-73083167D01*
X130207383Y-73426943D01*
X130470173Y-73690192D01*
X130813701Y-73832838D01*
X131185667Y-73833162D01*
X131455910Y-73721500D01*
X135067198Y-73721500D01*
X135511000Y-74165302D01*
X135511000Y-78168500D01*
X135568852Y-78459339D01*
X135733599Y-78705901D01*
X136686099Y-79658401D01*
X136932660Y-79823148D01*
X136980914Y-79832746D01*
X137223500Y-79881000D01*
X139700000Y-79881000D01*
X139990839Y-79823148D01*
X140237401Y-79658401D01*
X141665802Y-78230000D01*
X148465698Y-78230000D01*
X150433500Y-80197802D01*
X150433500Y-87695500D01*
X146364802Y-87695500D01*
X146223122Y-87553820D01*
X146223162Y-87508333D01*
X146081117Y-87164557D01*
X145818327Y-86901308D01*
X145474799Y-86758662D01*
X145102833Y-86758338D01*
X144759057Y-86900383D01*
X144495808Y-87163173D01*
X144353162Y-87506701D01*
X144352838Y-87878667D01*
X144494883Y-88222443D01*
X144757673Y-88485692D01*
X145101201Y-88628338D01*
X145148077Y-88628379D01*
X145512599Y-88992901D01*
X145759161Y-89157648D01*
X146050000Y-89215500D01*
X151193500Y-89215500D01*
X151484339Y-89157648D01*
X151730901Y-88992901D01*
X151895648Y-88746339D01*
X151953500Y-88455500D01*
X151953500Y-79883000D01*
X151895648Y-79592161D01*
X151895648Y-79592160D01*
X151730901Y-79345599D01*
X149317901Y-76932599D01*
X149071339Y-76767852D01*
X148780500Y-76710000D01*
X141351000Y-76710000D01*
X141060161Y-76767852D01*
X140813599Y-76932599D01*
X139385198Y-78361000D01*
X137538302Y-78361000D01*
X137031000Y-77853698D01*
X137031000Y-77393444D01*
X137074173Y-77436692D01*
X137417701Y-77579338D01*
X137789667Y-77579662D01*
X138133443Y-77437617D01*
X138396692Y-77174827D01*
X138539338Y-76831299D01*
X138539379Y-76784423D01*
X138649901Y-76673901D01*
X138766206Y-76499838D01*
X138814648Y-76427339D01*
X138872500Y-76136500D01*
X138872500Y-73917334D01*
X138958943Y-73881617D01*
X139222192Y-73618827D01*
X139301156Y-73428661D01*
X159384758Y-73428661D01*
X159596990Y-73942303D01*
X159989630Y-74335629D01*
X160502900Y-74548757D01*
X161058661Y-74549242D01*
X161572303Y-74337010D01*
X161965629Y-73944370D01*
X162178757Y-73431100D01*
X162179242Y-72875339D01*
X161967010Y-72361697D01*
X161574370Y-71968371D01*
X161061100Y-71755243D01*
X160505339Y-71754758D01*
X159991697Y-71966990D01*
X159598371Y-72359630D01*
X159385243Y-72872900D01*
X159384758Y-73428661D01*
X139301156Y-73428661D01*
X139364838Y-73275299D01*
X139365162Y-72903333D01*
X139223117Y-72559557D01*
X138960327Y-72296308D01*
X138616799Y-72153662D01*
X138244833Y-72153338D01*
X137901057Y-72295383D01*
X137637808Y-72558173D01*
X137495162Y-72901701D01*
X137495087Y-72988346D01*
X137410352Y-73115161D01*
X137352500Y-73406000D01*
X137352500Y-75736953D01*
X137075557Y-75851383D01*
X137031000Y-75895862D01*
X137031000Y-73850500D01*
X136973148Y-73559661D01*
X136808401Y-73313099D01*
X135919401Y-72424099D01*
X135672839Y-72259352D01*
X135382000Y-72201500D01*
X134817840Y-72201500D01*
X134966901Y-72101901D01*
X135919401Y-71149401D01*
X136084148Y-70902840D01*
X136103709Y-70804500D01*
X136142000Y-70612000D01*
X136142000Y-68130275D01*
X153638303Y-68130275D01*
X153810733Y-68547586D01*
X154129735Y-68867145D01*
X154546744Y-69040303D01*
X154998275Y-69040697D01*
X155415586Y-68868267D01*
X155453920Y-68830000D01*
X158410724Y-68830000D01*
X158487235Y-68906645D01*
X158904244Y-69079803D01*
X159355775Y-69080197D01*
X159773086Y-68907767D01*
X160092645Y-68588765D01*
X160265803Y-68171756D01*
X160266197Y-67720225D01*
X160093767Y-67302914D01*
X159774765Y-66983355D01*
X159357756Y-66810197D01*
X158906225Y-66809803D01*
X158488914Y-66982233D01*
X158411011Y-67060000D01*
X155533208Y-67060000D01*
X155417265Y-66943855D01*
X155000256Y-66770697D01*
X154548725Y-66770303D01*
X154131414Y-66942733D01*
X153811855Y-67261735D01*
X153638697Y-67678744D01*
X153638303Y-68130275D01*
X136142000Y-68130275D01*
X136142000Y-67942302D01*
X136776302Y-67308000D01*
X151257000Y-67308000D01*
X151547839Y-67250148D01*
X151794401Y-67085401D01*
X155508802Y-63371000D01*
X158662763Y-63371000D01*
X158686853Y-63407054D01*
X159168622Y-63728961D01*
X159736907Y-63842000D01*
X159795093Y-63842000D01*
X160363378Y-63728961D01*
X160845147Y-63407054D01*
X161167054Y-62925285D01*
X161280093Y-62357000D01*
X161167054Y-61788715D01*
X160845147Y-61306946D01*
X160803548Y-61279150D01*
X160851317Y-61270162D01*
X161067441Y-61131090D01*
X161212431Y-60918890D01*
X161263440Y-60667000D01*
X161263440Y-58967000D01*
X161219162Y-58731683D01*
X161080090Y-58515559D01*
X160867890Y-58370569D01*
X160616000Y-58319560D01*
X158916000Y-58319560D01*
X158680683Y-58363838D01*
X158464559Y-58502910D01*
X158319569Y-58715110D01*
X158268560Y-58967000D01*
X158268560Y-60667000D01*
X158312838Y-60902317D01*
X158451910Y-61118441D01*
X158664110Y-61263431D01*
X158731541Y-61277086D01*
X158686853Y-61306946D01*
X158364946Y-61788715D01*
X158352557Y-61851000D01*
X157391047Y-61851000D01*
X157627943Y-61753117D01*
X157891192Y-61490327D01*
X158033838Y-61146799D01*
X158034162Y-60774833D01*
X157892117Y-60431057D01*
X157859000Y-60397882D01*
X157859000Y-59109463D01*
X157891192Y-59077327D01*
X158033838Y-58733799D01*
X158034162Y-58361833D01*
X157892117Y-58018057D01*
X157629327Y-57754808D01*
X157285799Y-57612162D01*
X156913833Y-57611838D01*
X156570057Y-57753883D01*
X156306808Y-58016673D01*
X156164162Y-58360201D01*
X156163838Y-58732167D01*
X156305883Y-59075943D01*
X156339000Y-59109118D01*
X156339000Y-60397537D01*
X156306808Y-60429673D01*
X156164162Y-60773201D01*
X156163838Y-61145167D01*
X156305883Y-61488943D01*
X156568673Y-61752192D01*
X156806628Y-61851000D01*
X155954000Y-61851000D01*
X155954000Y-60579000D01*
X155896148Y-60288161D01*
X155731401Y-60041599D01*
X155182794Y-59492992D01*
X155098117Y-59288057D01*
X154835327Y-59024808D01*
X154491799Y-58882162D01*
X154119833Y-58881838D01*
X153776057Y-59023883D01*
X153512808Y-59286673D01*
X153370162Y-59630201D01*
X153369838Y-60002167D01*
X153511883Y-60345943D01*
X153774673Y-60609192D01*
X154118201Y-60751838D01*
X154292188Y-60751990D01*
X154434000Y-60893802D01*
X154434000Y-62052889D01*
X154200327Y-61818808D01*
X153856799Y-61676162D01*
X153484833Y-61675838D01*
X153141057Y-61817883D01*
X152877808Y-62080673D01*
X152735162Y-62424201D01*
X152734838Y-62796167D01*
X152876883Y-63139943D01*
X152910000Y-63173118D01*
X152910000Y-63183800D01*
X150755802Y-65337998D01*
X136213002Y-65337998D01*
X135922162Y-65395850D01*
X135675601Y-65560597D01*
X134394597Y-66841601D01*
X134229850Y-67088163D01*
X134171998Y-67379002D01*
X134171998Y-70110802D01*
X133928302Y-70354498D01*
X129671104Y-70354498D01*
X129380265Y-70412350D01*
X129133703Y-70577097D01*
X127981097Y-71729703D01*
X127899719Y-71851494D01*
X127817666Y-71973107D01*
X127817318Y-71974816D01*
X127816350Y-71976265D01*
X127787752Y-72120034D01*
X127758506Y-72263683D01*
X127701793Y-84864506D01*
X127169320Y-85467498D01*
X112205818Y-85467498D01*
X111014096Y-84546621D01*
X110923946Y-84501783D01*
X110840235Y-84445850D01*
X110792324Y-84436320D01*
X110748586Y-84414566D01*
X110648145Y-84407641D01*
X110549396Y-84387998D01*
X102424304Y-84387998D01*
X102755680Y-84056622D01*
X102801167Y-84056662D01*
X103144943Y-83914617D01*
X103408192Y-83651827D01*
X103550838Y-83308299D01*
X103551162Y-82936333D01*
X103409117Y-82592557D01*
X103146327Y-82329308D01*
X102802799Y-82186662D01*
X102430833Y-82186338D01*
X102087057Y-82328383D01*
X101823808Y-82591173D01*
X101681162Y-82934701D01*
X101681121Y-82981577D01*
X101221698Y-83441000D01*
X100828741Y-83441000D01*
X100669827Y-83281808D01*
X100326299Y-83139162D01*
X99954333Y-83138838D01*
X99610557Y-83280883D01*
X99577382Y-83314000D01*
X95978072Y-83314000D01*
X95916117Y-83164057D01*
X95653327Y-82900808D01*
X95309799Y-82758162D01*
X94937833Y-82757838D01*
X94594057Y-82899883D01*
X94330808Y-83162673D01*
X94188162Y-83506201D01*
X94187838Y-83878167D01*
X94329883Y-84221943D01*
X94592673Y-84485192D01*
X94936201Y-84627838D01*
X94991270Y-84627886D01*
X95213160Y-84776148D01*
X95504000Y-84834000D01*
X95730132Y-84834000D01*
X95648662Y-85030201D01*
X95648338Y-85402167D01*
X95790383Y-85745943D01*
X96053173Y-86009192D01*
X96138204Y-86044500D01*
X93723302Y-86044500D01*
X92263500Y-84584698D01*
X92263500Y-83493463D01*
X92295692Y-83461327D01*
X92408407Y-83189881D01*
X92433673Y-83215192D01*
X92777201Y-83357838D01*
X93149167Y-83358162D01*
X93492943Y-83216117D01*
X93756192Y-82953327D01*
X93898838Y-82609799D01*
X93899162Y-82237833D01*
X93757117Y-81894057D01*
X93494327Y-81630808D01*
X93150799Y-81488162D01*
X93103923Y-81488121D01*
X91819000Y-80203198D01*
X91819000Y-76889463D01*
X91851192Y-76857327D01*
X91993838Y-76513799D01*
X91994162Y-76141833D01*
X91852117Y-75798057D01*
X91804311Y-75750167D01*
X97362838Y-75750167D01*
X97504883Y-76093943D01*
X97767673Y-76357192D01*
X97982500Y-76446396D01*
X97982500Y-77024102D01*
X98040352Y-77314941D01*
X98205099Y-77561503D01*
X102201495Y-81557899D01*
X102448056Y-81722646D01*
X102496310Y-81732244D01*
X102738896Y-81780498D01*
X111314094Y-81780498D01*
X113186995Y-83653399D01*
X113433557Y-83818146D01*
X113724396Y-83875998D01*
X117534396Y-83875998D01*
X117825235Y-83818146D01*
X118071797Y-83653399D01*
X118236544Y-83406837D01*
X118294396Y-83115998D01*
X118236544Y-82825159D01*
X118071797Y-82578597D01*
X117825235Y-82413850D01*
X117534396Y-82355998D01*
X114039198Y-82355998D01*
X112166297Y-80483097D01*
X111919735Y-80318350D01*
X111628896Y-80260498D01*
X103053698Y-80260498D01*
X99502500Y-76709300D01*
X99502500Y-76009500D01*
X99444648Y-75718661D01*
X99279901Y-75472099D01*
X99233122Y-75425320D01*
X99233162Y-75379833D01*
X99091117Y-75036057D01*
X98828327Y-74772808D01*
X98484799Y-74630162D01*
X98112833Y-74629838D01*
X97769057Y-74771883D01*
X97505808Y-75034673D01*
X97363162Y-75378201D01*
X97362838Y-75750167D01*
X91804311Y-75750167D01*
X91589327Y-75534808D01*
X91245799Y-75392162D01*
X90873833Y-75391838D01*
X90530057Y-75533883D01*
X90266808Y-75796673D01*
X90124162Y-76140201D01*
X90123838Y-76512167D01*
X90265883Y-76855943D01*
X90299000Y-76889118D01*
X90299000Y-78574367D01*
X89975799Y-78440162D01*
X89603833Y-78439838D01*
X89260057Y-78581883D01*
X88996808Y-78844673D01*
X88854162Y-79188201D01*
X88853838Y-79560167D01*
X88995883Y-79903943D01*
X89029000Y-79937118D01*
X89029000Y-81216500D01*
X89086852Y-81507339D01*
X89251599Y-81753901D01*
X90568378Y-83070680D01*
X90568338Y-83116167D01*
X90710383Y-83459943D01*
X90743500Y-83493118D01*
X90743500Y-84899500D01*
X90801352Y-85190339D01*
X90966099Y-85436901D01*
X92871099Y-87341901D01*
X93117661Y-87506648D01*
X93408500Y-87564500D01*
X108597767Y-87564500D01*
X110584042Y-89462496D01*
X83499802Y-89462496D01*
X82780905Y-88743599D01*
X82534343Y-88578852D01*
X82243504Y-88521000D01*
X81842463Y-88521000D01*
X81810327Y-88488808D01*
X81466799Y-88346162D01*
X81094833Y-88345838D01*
X80751057Y-88487883D01*
X80487808Y-88750673D01*
X80345162Y-89094201D01*
X80344838Y-89466167D01*
X77153135Y-89466167D01*
X80685405Y-85933897D01*
X80850152Y-85687335D01*
X80908004Y-85396496D01*
X80908004Y-83745594D01*
X85765405Y-78888193D01*
X85930152Y-78641631D01*
X85988004Y-78350792D01*
X85988004Y-75173094D01*
X88859747Y-72301351D01*
X89030701Y-72372338D01*
X89402667Y-72372662D01*
X89746443Y-72230617D01*
X90009692Y-71967827D01*
X90152338Y-71624299D01*
X90152534Y-71398938D01*
X90444943Y-71278117D01*
X90708192Y-71015327D01*
X90850838Y-70671799D01*
X90851002Y-70483000D01*
X92782537Y-70483000D01*
X92814673Y-70515192D01*
X92872623Y-70539255D01*
X92587457Y-70657083D01*
X92324208Y-70919873D01*
X92181562Y-71263401D01*
X92181238Y-71635367D01*
X92323283Y-71979143D01*
X92586073Y-72242392D01*
X92929601Y-72385038D01*
X93301567Y-72385362D01*
X93645343Y-72243317D01*
X93908592Y-71980527D01*
X94051238Y-71636999D01*
X94051312Y-71551990D01*
X95631635Y-69971667D01*
X99712338Y-69971667D01*
X99854383Y-70315443D01*
X100117173Y-70578692D01*
X100460701Y-70721338D01*
X100832667Y-70721662D01*
X101176443Y-70579617D01*
X101209618Y-70546500D01*
X102237698Y-70546500D01*
X104745599Y-73054401D01*
X104992161Y-73219148D01*
X105283000Y-73277000D01*
X125485148Y-73277000D01*
X125580673Y-73372692D01*
X125924201Y-73515338D01*
X126296167Y-73515662D01*
X126639943Y-73373617D01*
X126903192Y-73110827D01*
X127045838Y-72767299D01*
X127046162Y-72395333D01*
X126904117Y-72051557D01*
X126641327Y-71788308D01*
X126297799Y-71645662D01*
X125925833Y-71645338D01*
X125655590Y-71757000D01*
X111176620Y-71757000D01*
X111409461Y-71524564D01*
X111620759Y-71015702D01*
X111621240Y-70464715D01*
X111548706Y-70289167D01*
X122762838Y-70289167D01*
X122904883Y-70632943D01*
X123167673Y-70896192D01*
X123511201Y-71038838D01*
X123883167Y-71039162D01*
X124226943Y-70897117D01*
X124490192Y-70634327D01*
X124632838Y-70290799D01*
X124632879Y-70243923D01*
X126013401Y-68863401D01*
X126178148Y-68616839D01*
X126236000Y-68326000D01*
X126236000Y-67618463D01*
X126268192Y-67586327D01*
X126410838Y-67242799D01*
X126411162Y-66870833D01*
X126269117Y-66527057D01*
X126006327Y-66263808D01*
X125662799Y-66121162D01*
X125290833Y-66120838D01*
X124947057Y-66262883D01*
X124683808Y-66525673D01*
X124541162Y-66869201D01*
X124540838Y-67241167D01*
X124682883Y-67584943D01*
X124716000Y-67618118D01*
X124716000Y-68011198D01*
X123558320Y-69168878D01*
X123512833Y-69168838D01*
X123169057Y-69310883D01*
X122905808Y-69573673D01*
X122763162Y-69917201D01*
X122762838Y-70289167D01*
X111548706Y-70289167D01*
X111410831Y-69955485D01*
X111021564Y-69565539D01*
X110512702Y-69354241D01*
X109961715Y-69353760D01*
X109658610Y-69479000D01*
X106439910Y-69479000D01*
X106173955Y-69213045D01*
X105765181Y-68939912D01*
X105521404Y-68891421D01*
X105407729Y-68844219D01*
X105283562Y-68844111D01*
X105283000Y-68843999D01*
X105282443Y-68844110D01*
X104906470Y-68843782D01*
X104443200Y-69035201D01*
X104088447Y-69389335D01*
X103896219Y-69852271D01*
X103896042Y-70055240D01*
X103089901Y-69249099D01*
X102843339Y-69084352D01*
X102552500Y-69026500D01*
X101209963Y-69026500D01*
X101177827Y-68994308D01*
X100834299Y-68851662D01*
X100462333Y-68851338D01*
X100118557Y-68993383D01*
X99855308Y-69256173D01*
X99712662Y-69599701D01*
X99712338Y-69971667D01*
X95631635Y-69971667D01*
X103057802Y-62545500D01*
X105854500Y-62545500D01*
X106145339Y-62487648D01*
X106391901Y-62322901D01*
X111027401Y-57687401D01*
X111192148Y-57440839D01*
X111250000Y-57150000D01*
X111250000Y-56508301D01*
X111569147Y-56295054D01*
X111569971Y-56293821D01*
X111576838Y-56330317D01*
X111715910Y-56546441D01*
X111928110Y-56691431D01*
X112180000Y-56742440D01*
X113880000Y-56742440D01*
X114115317Y-56698162D01*
X114331441Y-56559090D01*
X114476431Y-56346890D01*
X114527440Y-56095000D01*
X114527440Y-55245000D01*
X121040907Y-55245000D01*
X121153946Y-55813285D01*
X121475853Y-56295054D01*
X121805026Y-56515000D01*
X121475853Y-56734946D01*
X121153946Y-57216715D01*
X121040907Y-57785000D01*
X121153946Y-58353285D01*
X121475853Y-58835054D01*
X121957622Y-59156961D01*
X122525907Y-59270000D01*
X122584093Y-59270000D01*
X123152378Y-59156961D01*
X123634147Y-58835054D01*
X123634971Y-58833821D01*
X123641838Y-58870317D01*
X123780910Y-59086441D01*
X123993110Y-59231431D01*
X124245000Y-59282440D01*
X124273500Y-59282440D01*
X124273500Y-62794132D01*
X124218081Y-62849454D01*
X124060180Y-63229723D01*
X124059821Y-63641471D01*
X124217058Y-64022015D01*
X124507954Y-64313419D01*
X124888223Y-64471320D01*
X125299971Y-64471679D01*
X125680515Y-64314442D01*
X125971919Y-64023546D01*
X126112425Y-63685167D01*
X131398838Y-63685167D01*
X131540883Y-64028943D01*
X131803673Y-64292192D01*
X132147201Y-64434838D01*
X132519167Y-64435162D01*
X132862943Y-64293117D01*
X133126192Y-64030327D01*
X133268838Y-63686799D01*
X133268879Y-63639923D01*
X136156901Y-60751901D01*
X136456167Y-60752162D01*
X136799943Y-60610117D01*
X137063192Y-60347327D01*
X137205838Y-60003799D01*
X137206162Y-59631833D01*
X137064117Y-59288057D01*
X136801327Y-59024808D01*
X136457799Y-58882162D01*
X136085833Y-58881838D01*
X135742057Y-59023883D01*
X135498638Y-59266878D01*
X135479599Y-59279599D01*
X132194320Y-62564878D01*
X132148833Y-62564838D01*
X131805057Y-62706883D01*
X131541808Y-62969673D01*
X131399162Y-63313201D01*
X131398838Y-63685167D01*
X126112425Y-63685167D01*
X126129820Y-63643277D01*
X126130179Y-63231529D01*
X126043500Y-63021749D01*
X126043500Y-59263906D01*
X126180317Y-59238162D01*
X126396441Y-59099090D01*
X126541431Y-58886890D01*
X126592440Y-58635000D01*
X126592440Y-56935000D01*
X126548162Y-56699683D01*
X126409090Y-56483559D01*
X126196890Y-56338569D01*
X126129459Y-56324914D01*
X126174147Y-56295054D01*
X126496054Y-55813285D01*
X126566008Y-55461599D01*
X132757699Y-55461599D01*
X133021281Y-56099515D01*
X133508918Y-56588004D01*
X134146373Y-56852699D01*
X134836599Y-56853301D01*
X135474515Y-56589719D01*
X135963004Y-56102082D01*
X136227699Y-55464627D01*
X136228301Y-54774401D01*
X135964719Y-54136485D01*
X135477082Y-53647996D01*
X134839627Y-53383301D01*
X134149401Y-53382699D01*
X133511485Y-53646281D01*
X133022996Y-54133918D01*
X132758301Y-54771373D01*
X132757699Y-55461599D01*
X126566008Y-55461599D01*
X126609093Y-55245000D01*
X126496054Y-54676715D01*
X126174147Y-54194946D01*
X125692378Y-53873039D01*
X125124093Y-53760000D01*
X125065907Y-53760000D01*
X124497622Y-53873039D01*
X124015853Y-54194946D01*
X123825000Y-54480578D01*
X123634147Y-54194946D01*
X123152378Y-53873039D01*
X122584093Y-53760000D01*
X122525907Y-53760000D01*
X121957622Y-53873039D01*
X121475853Y-54194946D01*
X121153946Y-54676715D01*
X121040907Y-55245000D01*
X114527440Y-55245000D01*
X114527440Y-54395000D01*
X114483162Y-54159683D01*
X114344090Y-53943559D01*
X114131890Y-53798569D01*
X113880000Y-53747560D01*
X112180000Y-53747560D01*
X111944683Y-53791838D01*
X111728559Y-53930910D01*
X111583569Y-54143110D01*
X111572159Y-54199454D01*
X111569147Y-54194946D01*
X111087378Y-53873039D01*
X110519093Y-53760000D01*
X110460907Y-53760000D01*
X109892622Y-53873039D01*
X109410853Y-54194946D01*
X109088946Y-54676715D01*
X108975907Y-55245000D01*
X109088946Y-55813285D01*
X109410853Y-56295054D01*
X109730000Y-56508301D01*
X109730000Y-56835198D01*
X105539698Y-61025500D01*
X102743000Y-61025500D01*
X102452161Y-61083352D01*
X102205599Y-61248099D01*
X94173648Y-69280050D01*
X94138117Y-69194057D01*
X93875327Y-68930808D01*
X93531799Y-68788162D01*
X93159833Y-68787838D01*
X92816057Y-68929883D01*
X92782882Y-68963000D01*
X89146310Y-68963000D01*
X89058117Y-68749557D01*
X88795327Y-68486308D01*
X88451799Y-68343662D01*
X88079833Y-68343338D01*
X87736057Y-68485383D01*
X87472808Y-68748173D01*
X87330162Y-69091701D01*
X87330121Y-69138577D01*
X87156099Y-69312599D01*
X86991352Y-69559161D01*
X86933500Y-69850000D01*
X86933500Y-70168800D01*
X83340597Y-73761703D01*
X83175850Y-74008265D01*
X83117998Y-74299104D01*
X83117998Y-77476802D01*
X78260597Y-82334203D01*
X78095850Y-82580765D01*
X78037998Y-82871604D01*
X78037998Y-84207802D01*
X73280300Y-88965500D01*
X71628000Y-88965500D01*
X71337161Y-89023352D01*
X71090599Y-89188099D01*
X68487099Y-91791599D01*
X68322352Y-92038161D01*
X68264500Y-92329000D01*
X68264500Y-95887698D01*
X67995765Y-96156433D01*
X67886833Y-96156338D01*
X67543057Y-96298383D01*
X67279808Y-96561173D01*
X67137162Y-96904701D01*
X67136838Y-97276667D01*
X59817000Y-97276667D01*
X59817000Y-82488373D01*
X65154812Y-82488373D01*
X65319646Y-82887300D01*
X65624595Y-83192782D01*
X66023233Y-83358311D01*
X66454873Y-83358688D01*
X66853800Y-83193854D01*
X67159282Y-82888905D01*
X67324811Y-82490267D01*
X67325188Y-82058627D01*
X67160354Y-81659700D01*
X66855405Y-81354218D01*
X66456767Y-81188689D01*
X66025127Y-81188312D01*
X65626200Y-81353146D01*
X65320718Y-81658095D01*
X65155189Y-82056733D01*
X65154812Y-82488373D01*
X59817000Y-82488373D01*
X59817000Y-78088373D01*
X65154812Y-78088373D01*
X65319646Y-78487300D01*
X65624595Y-78792782D01*
X66023233Y-78958311D01*
X66454873Y-78958688D01*
X66843361Y-78798167D01*
X71327838Y-78798167D01*
X71469883Y-79141943D01*
X71547539Y-79219734D01*
X71455162Y-79442201D01*
X71454838Y-79814167D01*
X71596883Y-80157943D01*
X71859673Y-80421192D01*
X72203201Y-80563838D01*
X72575167Y-80564162D01*
X72918943Y-80422117D01*
X73015729Y-80325500D01*
X78876037Y-80325500D01*
X78908173Y-80357692D01*
X79251701Y-80500338D01*
X79623667Y-80500662D01*
X79967443Y-80358617D01*
X80230692Y-80095827D01*
X80373338Y-79752299D01*
X80373662Y-79380333D01*
X80330371Y-79275560D01*
X80475443Y-79215617D01*
X80738692Y-78952827D01*
X80881338Y-78609299D01*
X80881662Y-78237333D01*
X80739617Y-77893557D01*
X80476827Y-77630308D01*
X80133299Y-77487662D01*
X79761333Y-77487338D01*
X79417557Y-77629383D01*
X79384382Y-77662500D01*
X72453500Y-77662500D01*
X72375090Y-77678097D01*
X72077833Y-77677838D01*
X71734057Y-77819883D01*
X71470808Y-78082673D01*
X71328162Y-78426201D01*
X71327838Y-78798167D01*
X66843361Y-78798167D01*
X66853800Y-78793854D01*
X67159282Y-78488905D01*
X67324811Y-78090267D01*
X67325188Y-77658627D01*
X67160354Y-77259700D01*
X66855405Y-76954218D01*
X66456767Y-76788689D01*
X66025127Y-76788312D01*
X65626200Y-76953146D01*
X65320718Y-77258095D01*
X65155189Y-77656733D01*
X65154812Y-78088373D01*
X59817000Y-78088373D01*
X59817000Y-74519775D01*
X75064803Y-74519775D01*
X75237233Y-74937086D01*
X75556235Y-75256645D01*
X75973244Y-75429803D01*
X76424775Y-75430197D01*
X76842086Y-75257767D01*
X77161645Y-74938765D01*
X77334803Y-74521756D01*
X77334899Y-74411681D01*
X80000787Y-71745792D01*
X80000790Y-71745790D01*
X80192633Y-71458675D01*
X80211509Y-71363781D01*
X80260001Y-71120000D01*
X80260000Y-71119995D01*
X80260000Y-53425276D01*
X80336645Y-53348765D01*
X80509803Y-52931756D01*
X80510197Y-52480225D01*
X80337767Y-52062914D01*
X80018765Y-51743355D01*
X79601756Y-51570197D01*
X79150225Y-51569803D01*
X78732914Y-51742233D01*
X78413355Y-52061235D01*
X78240197Y-52478244D01*
X78239803Y-52929775D01*
X78412233Y-53347086D01*
X78490000Y-53424989D01*
X78490000Y-70753421D01*
X76083523Y-73159897D01*
X75975225Y-73159803D01*
X75557914Y-73332233D01*
X75238355Y-73651235D01*
X75065197Y-74068244D01*
X75064803Y-74519775D01*
X59817000Y-74519775D01*
X59817000Y-61679874D01*
X61134370Y-61679874D01*
X61686600Y-63016372D01*
X62708249Y-64039806D01*
X64043782Y-64594368D01*
X65489874Y-64595630D01*
X66826372Y-64043400D01*
X67849806Y-63021751D01*
X68404368Y-61686218D01*
X68405630Y-60240126D01*
X67853400Y-58903628D01*
X66831751Y-57880194D01*
X65496218Y-57325632D01*
X64050126Y-57324370D01*
X62713628Y-57876600D01*
X61690194Y-58898249D01*
X61135632Y-60233782D01*
X61134370Y-61679874D01*
X59817000Y-61679874D01*
X59817000Y-56935000D01*
X70892560Y-56935000D01*
X70892560Y-58635000D01*
X70936838Y-58870317D01*
X71075910Y-59086441D01*
X71288110Y-59231431D01*
X71540000Y-59282440D01*
X73240000Y-59282440D01*
X73475317Y-59238162D01*
X73691441Y-59099090D01*
X73836431Y-58886890D01*
X73887440Y-58635000D01*
X73887440Y-56935000D01*
X73843162Y-56699683D01*
X73704090Y-56483559D01*
X73491890Y-56338569D01*
X73240000Y-56287560D01*
X71540000Y-56287560D01*
X71304683Y-56331838D01*
X71088559Y-56470910D01*
X70943569Y-56683110D01*
X70892560Y-56935000D01*
X59817000Y-56935000D01*
X59817000Y-55008309D01*
X60338407Y-55530627D01*
X61563717Y-56039420D01*
X62890462Y-56040578D01*
X64116658Y-55533924D01*
X65055627Y-54596593D01*
X65564420Y-53371283D01*
X65565578Y-52044538D01*
X65058924Y-50818342D01*
X64533500Y-50292000D01*
X160256691Y-50292000D01*
X159734373Y-50813407D01*
M02*
