G04 #@! TF.FileFunction,Soldermask,Bot*
%FSLAX46Y46*%
G04 Gerber Fmt 4.6, Leading zero omitted, Abs format (unit mm)*
G04 Created by KiCad (PCBNEW 4.0.7) date 01/19/19 15:00:20*
%MOMM*%
%LPD*%
G01*
G04 APERTURE LIST*
%ADD10C,0.100000*%
%ADD11C,2.600000*%
%ADD12C,2.400000*%
%ADD13C,1.300000*%
%ADD14C,6.400000*%
%ADD15R,2.100000X2.100000*%
%ADD16O,2.100000X2.100000*%
%ADD17C,1.924000*%
%ADD18C,5.400000*%
G04 APERTURE END LIST*
D10*
D11*
X134874000Y-53403500D03*
D12*
X137414000Y-55943500D03*
X132334000Y-55943500D03*
X137414000Y-50863500D03*
X132334000Y-50863500D03*
D13*
X66240000Y-77873500D03*
X66240000Y-82273500D03*
D14*
X64770000Y-60960000D03*
X64770000Y-67960000D03*
D15*
X159766000Y-59817000D03*
D16*
X159766000Y-62357000D03*
X159766000Y-64897000D03*
D15*
X126111000Y-99695000D03*
D16*
X123571000Y-99695000D03*
X121031000Y-99695000D03*
X118491000Y-99695000D03*
D15*
X72390000Y-57785000D03*
D16*
X72390000Y-60325000D03*
D15*
X142494000Y-99568000D03*
D16*
X145034000Y-99568000D03*
X147574000Y-99568000D03*
X150114000Y-99568000D03*
D15*
X125095000Y-57785000D03*
D16*
X122555000Y-57785000D03*
X125095000Y-55245000D03*
X122555000Y-55245000D03*
X125095000Y-52705000D03*
X122555000Y-52705000D03*
D15*
X113030000Y-55245000D03*
D16*
X110490000Y-55245000D03*
X113030000Y-52705000D03*
X110490000Y-52705000D03*
D15*
X137287000Y-99695000D03*
D16*
X134747000Y-99695000D03*
X132207000Y-99695000D03*
D17*
X160782000Y-73152000D03*
X150782000Y-73152000D03*
D15*
X78930500Y-103124000D03*
X90741500Y-58737500D03*
D18*
X62230000Y-106680000D03*
X162560000Y-106680000D03*
X162560000Y-52705000D03*
X62230000Y-52705000D03*
D11*
X159321500Y-98806000D03*
D12*
X161861500Y-101346000D03*
X156781500Y-101346000D03*
X161861500Y-96266000D03*
X156781500Y-96266000D03*
M02*
