M48
;DRILL file {KiCad 4.0.7} date 01/21/18 23:10:03
;FORMAT={2:4/ absolute / inch / suppress leading zeros}
FMAT,2
INCH,TZ
T1C0.016
T2C0.028
T3C0.039
T4C0.039
T5C0.040
T6C0.043
T7C0.090
T8C0.100
T9C0.100
T10C0.110
T11C0.189
%
G90
G05
M72
T1
X32100Y-69700
X34000Y-69000
X37500Y-65500
X41500Y-70900
X42200Y-71000
X47000Y-64300
X47500Y-65500
X49700Y-69000
X50700Y-64300
X53000Y-69500
X53000Y-70500
X53000Y-71500
X53000Y-72500
X58660Y-43530
X58900Y-83500
X59200Y-43860
X59593Y-55796
X59699Y-56804
X60000Y-53600
X61000Y-68500
X62000Y-67000
T2
X36000Y-71000
X37000Y-70000
X38000Y-69000
X41500Y-63000
X41500Y-67000
X62250Y-46250
X62500Y-60500
X63000Y-57500
X64000Y-48000
X64000Y-61500
T3
X34100Y-77800
X35100Y-77800
X36100Y-77800
X37100Y-77800
X38100Y-77800
X39100Y-77800
X40100Y-77800
T4
X25750Y-66500
X25750Y-67500
X25750Y-68500
X26750Y-66500
X26750Y-67500
X26750Y-68500
X30300Y-49300
X30300Y-50300
X30300Y-51300
X30300Y-52300
X30300Y-53300
X30300Y-54300
X30300Y-55300
X30300Y-56300
X30300Y-57300
X30300Y-58300
X30300Y-59300
X30300Y-60300
X30300Y-61300
X30300Y-62300
X30300Y-63300
X30300Y-64300
X30300Y-65300
X30300Y-66300
X30300Y-67300
X31300Y-49300
X31300Y-50300
X31300Y-51300
X31300Y-52300
X31300Y-53300
X31300Y-54300
X31300Y-55300
X31300Y-56300
X31300Y-57300
X31300Y-58300
X31300Y-59300
X31300Y-60300
X31300Y-61300
X31300Y-62300
X31300Y-63300
X31300Y-64300
X31300Y-65300
X31300Y-66300
X31300Y-67300
X54300Y-49300
X54300Y-50300
X54300Y-51300
X54300Y-52300
X54300Y-53300
X54300Y-54300
X54300Y-55300
X54300Y-56300
X54300Y-57300
X54300Y-58300
X54300Y-59300
X54300Y-60300
X54300Y-61300
X54300Y-62300
X54300Y-63300
X54300Y-64300
X54300Y-65300
X54300Y-66300
X54300Y-67300
X55300Y-49300
X55300Y-50300
X55300Y-51300
X55300Y-52300
X55300Y-53300
X55300Y-54300
X55300Y-55300
X55300Y-56300
X55300Y-57300
X55300Y-58300
X55300Y-59300
X55300Y-60300
X55300Y-61300
X55300Y-62300
X55300Y-63300
X55300Y-64300
X55300Y-65300
X55300Y-66300
X55300Y-67300
X56800Y-23500
X56800Y-24500
X56800Y-25500
X56800Y-26500
X56800Y-27500
X56800Y-28500
X56800Y-29500
X56800Y-30500
X57800Y-23500
X57800Y-24500
X57800Y-25500
X57800Y-26500
X57800Y-27500
X57800Y-28500
X57800Y-29500
X57800Y-30500
X61100Y-57500
X61100Y-58500
X61100Y-59500
X61100Y-60500
X62800Y-51300
X62800Y-52300
X62800Y-53300
X62800Y-54300
X66050Y-57800
X66050Y-58800
X66050Y-59800
X66050Y-62050
X66050Y-63050
X66050Y-64050
X66050Y-66300
X66050Y-67300
X66050Y-68300
T5
X30500Y-71500
X30500Y-72500
X30500Y-73500
X30500Y-74500
X30500Y-75500
X30500Y-76500
X30500Y-77500
X30500Y-78500
X30500Y-81000
X30500Y-82000
X30500Y-83000
X30500Y-84000
X30500Y-85000
X30500Y-86000
X41100Y-77800
X44050Y-70750
X44050Y-71750
X44050Y-72750
X44050Y-73750
X44050Y-74750
X44050Y-75750
X44050Y-76750
X44300Y-83750
X44300Y-84750
X44300Y-85750
X44300Y-86750
X44300Y-87750
X44300Y-88750
X51300Y-84750
X51300Y-85750
X51300Y-86750
X51300Y-87750
X56250Y-81000
X56250Y-82000
X56250Y-83000
X56250Y-84000
X56250Y-85000
X56250Y-86000
X56250Y-87000
X56250Y-88000
X56250Y-89000
X60000Y-73200
X61000Y-73200
X62000Y-73200
X63000Y-73200
X64000Y-73200
X65000Y-73200
X66000Y-73200
X67000Y-73200
T6
X60800Y-31100
X63600Y-31200
X65250Y-27250
X66750Y-41750
X67700Y-53000
T7
X67850Y-81000
X67850Y-89000
T8
X27400Y-72000
X27400Y-78000
X33600Y-79900
X33600Y-88900
X41600Y-79900
X41600Y-88900
X45750Y-71000
X45750Y-76500
X49750Y-71000
X49750Y-76500
X60000Y-78200
X67000Y-78200
T9
X26500Y-81000
X26504Y-86000
T10
X44800Y-82000
X44800Y-90500
X50800Y-82000
X50800Y-90500
T11
X62500Y-34500
X62500Y-38250
X65138Y-34500
X65138Y-38250
T0
M30
