G04 #@! TF.FileFunction,Legend,Top*
%FSLAX46Y46*%
G04 Gerber Fmt 4.6, Leading zero omitted, Abs format (unit mm)*
G04 Created by KiCad (PCBNEW 4.0.7) date 01/10/18 13:14:11*
%MOMM*%
%LPD*%
G01*
G04 APERTURE LIST*
%ADD10C,0.100000*%
%ADD11C,0.254000*%
%ADD12C,0.200000*%
%ADD13C,0.300000*%
%ADD14C,0.508000*%
%ADD15C,0.120000*%
%ADD16C,0.150000*%
G04 APERTURE END LIST*
D10*
D11*
X163690905Y-167767000D02*
X163594143Y-167718619D01*
X163449000Y-167718619D01*
X163303858Y-167767000D01*
X163207096Y-167863762D01*
X163158715Y-167960524D01*
X163110334Y-168154048D01*
X163110334Y-168299190D01*
X163158715Y-168492714D01*
X163207096Y-168589476D01*
X163303858Y-168686238D01*
X163449000Y-168734619D01*
X163545762Y-168734619D01*
X163690905Y-168686238D01*
X163739286Y-168637857D01*
X163739286Y-168299190D01*
X163545762Y-168299190D01*
X164174715Y-168734619D02*
X164174715Y-167718619D01*
X164755286Y-168734619D01*
X164755286Y-167718619D01*
X165239096Y-168734619D02*
X165239096Y-167718619D01*
X165481001Y-167718619D01*
X165626143Y-167767000D01*
X165722905Y-167863762D01*
X165771286Y-167960524D01*
X165819667Y-168154048D01*
X165819667Y-168299190D01*
X165771286Y-168492714D01*
X165722905Y-168589476D01*
X165626143Y-168686238D01*
X165481001Y-168734619D01*
X165239096Y-168734619D01*
X163255477Y-171226238D02*
X163400620Y-171274619D01*
X163642524Y-171274619D01*
X163739286Y-171226238D01*
X163787667Y-171177857D01*
X163836048Y-171081095D01*
X163836048Y-170984333D01*
X163787667Y-170887571D01*
X163739286Y-170839190D01*
X163642524Y-170790810D01*
X163449001Y-170742429D01*
X163352239Y-170694048D01*
X163303858Y-170645667D01*
X163255477Y-170548905D01*
X163255477Y-170452143D01*
X163303858Y-170355381D01*
X163352239Y-170307000D01*
X163449001Y-170258619D01*
X163690905Y-170258619D01*
X163836048Y-170307000D01*
X164852048Y-171177857D02*
X164803667Y-171226238D01*
X164658524Y-171274619D01*
X164561762Y-171274619D01*
X164416620Y-171226238D01*
X164319858Y-171129476D01*
X164271477Y-171032714D01*
X164223096Y-170839190D01*
X164223096Y-170694048D01*
X164271477Y-170500524D01*
X164319858Y-170403762D01*
X164416620Y-170307000D01*
X164561762Y-170258619D01*
X164658524Y-170258619D01*
X164803667Y-170307000D01*
X164852048Y-170355381D01*
X165771286Y-171274619D02*
X165287477Y-171274619D01*
X165287477Y-170258619D01*
X163690905Y-156972000D02*
X163594143Y-156923619D01*
X163449000Y-156923619D01*
X163303858Y-156972000D01*
X163207096Y-157068762D01*
X163158715Y-157165524D01*
X163110334Y-157359048D01*
X163110334Y-157504190D01*
X163158715Y-157697714D01*
X163207096Y-157794476D01*
X163303858Y-157891238D01*
X163449000Y-157939619D01*
X163545762Y-157939619D01*
X163690905Y-157891238D01*
X163739286Y-157842857D01*
X163739286Y-157504190D01*
X163545762Y-157504190D01*
X164174715Y-157939619D02*
X164174715Y-156923619D01*
X164755286Y-157939619D01*
X164755286Y-156923619D01*
X165239096Y-157939619D02*
X165239096Y-156923619D01*
X165481001Y-156923619D01*
X165626143Y-156972000D01*
X165722905Y-157068762D01*
X165771286Y-157165524D01*
X165819667Y-157359048D01*
X165819667Y-157504190D01*
X165771286Y-157697714D01*
X165722905Y-157794476D01*
X165626143Y-157891238D01*
X165481001Y-157939619D01*
X165239096Y-157939619D01*
X163231286Y-162971238D02*
X163376429Y-163019619D01*
X163618333Y-163019619D01*
X163715095Y-162971238D01*
X163763476Y-162922857D01*
X163811857Y-162826095D01*
X163811857Y-162729333D01*
X163763476Y-162632571D01*
X163715095Y-162584190D01*
X163618333Y-162535810D01*
X163424810Y-162487429D01*
X163328048Y-162439048D01*
X163279667Y-162390667D01*
X163231286Y-162293905D01*
X163231286Y-162197143D01*
X163279667Y-162100381D01*
X163328048Y-162052000D01*
X163424810Y-162003619D01*
X163666714Y-162003619D01*
X163811857Y-162052000D01*
X164247286Y-163019619D02*
X164247286Y-162003619D01*
X164489191Y-162003619D01*
X164634333Y-162052000D01*
X164731095Y-162148762D01*
X164779476Y-162245524D01*
X164827857Y-162439048D01*
X164827857Y-162584190D01*
X164779476Y-162777714D01*
X164731095Y-162874476D01*
X164634333Y-162971238D01*
X164489191Y-163019619D01*
X164247286Y-163019619D01*
X165214905Y-162729333D02*
X165698714Y-162729333D01*
X165118143Y-163019619D02*
X165456810Y-162003619D01*
X165795476Y-163019619D01*
X163255477Y-160431238D02*
X163400620Y-160479619D01*
X163642524Y-160479619D01*
X163739286Y-160431238D01*
X163787667Y-160382857D01*
X163836048Y-160286095D01*
X163836048Y-160189333D01*
X163787667Y-160092571D01*
X163739286Y-160044190D01*
X163642524Y-159995810D01*
X163449001Y-159947429D01*
X163352239Y-159899048D01*
X163303858Y-159850667D01*
X163255477Y-159753905D01*
X163255477Y-159657143D01*
X163303858Y-159560381D01*
X163352239Y-159512000D01*
X163449001Y-159463619D01*
X163690905Y-159463619D01*
X163836048Y-159512000D01*
X164852048Y-160382857D02*
X164803667Y-160431238D01*
X164658524Y-160479619D01*
X164561762Y-160479619D01*
X164416620Y-160431238D01*
X164319858Y-160334476D01*
X164271477Y-160237714D01*
X164223096Y-160044190D01*
X164223096Y-159899048D01*
X164271477Y-159705524D01*
X164319858Y-159608762D01*
X164416620Y-159512000D01*
X164561762Y-159463619D01*
X164658524Y-159463619D01*
X164803667Y-159512000D01*
X164852048Y-159560381D01*
X165771286Y-160479619D02*
X165287477Y-160479619D01*
X165287477Y-159463619D01*
X163231286Y-152176238D02*
X163376429Y-152224619D01*
X163618333Y-152224619D01*
X163715095Y-152176238D01*
X163763476Y-152127857D01*
X163811857Y-152031095D01*
X163811857Y-151934333D01*
X163763476Y-151837571D01*
X163715095Y-151789190D01*
X163618333Y-151740810D01*
X163424810Y-151692429D01*
X163328048Y-151644048D01*
X163279667Y-151595667D01*
X163231286Y-151498905D01*
X163231286Y-151402143D01*
X163279667Y-151305381D01*
X163328048Y-151257000D01*
X163424810Y-151208619D01*
X163666714Y-151208619D01*
X163811857Y-151257000D01*
X164247286Y-152224619D02*
X164247286Y-151208619D01*
X164489191Y-151208619D01*
X164634333Y-151257000D01*
X164731095Y-151353762D01*
X164779476Y-151450524D01*
X164827857Y-151644048D01*
X164827857Y-151789190D01*
X164779476Y-151982714D01*
X164731095Y-152079476D01*
X164634333Y-152176238D01*
X164489191Y-152224619D01*
X164247286Y-152224619D01*
X165214905Y-151934333D02*
X165698714Y-151934333D01*
X165118143Y-152224619D02*
X165456810Y-151208619D01*
X165795476Y-152224619D01*
X152339524Y-138944048D02*
X151069524Y-138944048D01*
X151069524Y-138460239D01*
X151130000Y-138339286D01*
X151190476Y-138278810D01*
X151311429Y-138218334D01*
X151492857Y-138218334D01*
X151613810Y-138278810D01*
X151674286Y-138339286D01*
X151734762Y-138460239D01*
X151734762Y-138944048D01*
X151069524Y-137795000D02*
X152339524Y-137492619D01*
X151432381Y-137250715D01*
X152339524Y-137008810D01*
X151069524Y-136706429D01*
X152339524Y-136222619D02*
X151069524Y-136222619D01*
X151976667Y-135799286D01*
X151069524Y-135375952D01*
X152339524Y-135375952D01*
D12*
X153035000Y-134620000D02*
X153670000Y-134620000D01*
X153035000Y-139700000D02*
X153035000Y-134620000D01*
X153670000Y-139700000D02*
X153035000Y-139700000D01*
D11*
X163255477Y-149636238D02*
X163400620Y-149684619D01*
X163642524Y-149684619D01*
X163739286Y-149636238D01*
X163787667Y-149587857D01*
X163836048Y-149491095D01*
X163836048Y-149394333D01*
X163787667Y-149297571D01*
X163739286Y-149249190D01*
X163642524Y-149200810D01*
X163449001Y-149152429D01*
X163352239Y-149104048D01*
X163303858Y-149055667D01*
X163255477Y-148958905D01*
X163255477Y-148862143D01*
X163303858Y-148765381D01*
X163352239Y-148717000D01*
X163449001Y-148668619D01*
X163690905Y-148668619D01*
X163836048Y-148717000D01*
X164852048Y-149587857D02*
X164803667Y-149636238D01*
X164658524Y-149684619D01*
X164561762Y-149684619D01*
X164416620Y-149636238D01*
X164319858Y-149539476D01*
X164271477Y-149442714D01*
X164223096Y-149249190D01*
X164223096Y-149104048D01*
X164271477Y-148910524D01*
X164319858Y-148813762D01*
X164416620Y-148717000D01*
X164561762Y-148668619D01*
X164658524Y-148668619D01*
X164803667Y-148717000D01*
X164852048Y-148765381D01*
X165771286Y-149684619D02*
X165287477Y-149684619D01*
X165287477Y-148668619D01*
X163690905Y-146177000D02*
X163594143Y-146128619D01*
X163449000Y-146128619D01*
X163303858Y-146177000D01*
X163207096Y-146273762D01*
X163158715Y-146370524D01*
X163110334Y-146564048D01*
X163110334Y-146709190D01*
X163158715Y-146902714D01*
X163207096Y-146999476D01*
X163303858Y-147096238D01*
X163449000Y-147144619D01*
X163545762Y-147144619D01*
X163690905Y-147096238D01*
X163739286Y-147047857D01*
X163739286Y-146709190D01*
X163545762Y-146709190D01*
X164174715Y-147144619D02*
X164174715Y-146128619D01*
X164755286Y-147144619D01*
X164755286Y-146128619D01*
X165239096Y-147144619D02*
X165239096Y-146128619D01*
X165481001Y-146128619D01*
X165626143Y-146177000D01*
X165722905Y-146273762D01*
X165771286Y-146370524D01*
X165819667Y-146564048D01*
X165819667Y-146709190D01*
X165771286Y-146902714D01*
X165722905Y-146999476D01*
X165626143Y-147096238D01*
X165481001Y-147144619D01*
X165239096Y-147144619D01*
X153458334Y-139004524D02*
X153458334Y-137734524D01*
X153942143Y-137734524D01*
X154063096Y-137795000D01*
X154123572Y-137855476D01*
X154184048Y-137976429D01*
X154184048Y-138157857D01*
X154123572Y-138278810D01*
X154063096Y-138339286D01*
X153942143Y-138399762D01*
X153458334Y-138399762D01*
X154667858Y-138641667D02*
X155272620Y-138641667D01*
X154546905Y-139004524D02*
X154970239Y-137734524D01*
X155393572Y-139004524D01*
X155695953Y-137734524D02*
X156542619Y-137734524D01*
X155998334Y-139004524D01*
X153458334Y-136464524D02*
X153458334Y-135194524D01*
X153942143Y-135194524D01*
X154063096Y-135255000D01*
X154123572Y-135315476D01*
X154184048Y-135436429D01*
X154184048Y-135617857D01*
X154123572Y-135738810D01*
X154063096Y-135799286D01*
X153942143Y-135859762D01*
X153458334Y-135859762D01*
X154667858Y-136101667D02*
X155272620Y-136101667D01*
X154546905Y-136464524D02*
X154970239Y-135194524D01*
X155393572Y-136464524D01*
X156361191Y-135194524D02*
X156119286Y-135194524D01*
X155998334Y-135255000D01*
X155937857Y-135315476D01*
X155816905Y-135496905D01*
X155756429Y-135738810D01*
X155756429Y-136222619D01*
X155816905Y-136343571D01*
X155877381Y-136404048D01*
X155998334Y-136464524D01*
X156240238Y-136464524D01*
X156361191Y-136404048D01*
X156421667Y-136343571D01*
X156482143Y-136222619D01*
X156482143Y-135920238D01*
X156421667Y-135799286D01*
X156361191Y-135738810D01*
X156240238Y-135678333D01*
X155998334Y-135678333D01*
X155877381Y-135738810D01*
X155816905Y-135799286D01*
X155756429Y-135920238D01*
X153367619Y-133924524D02*
X153367619Y-132654524D01*
X153851428Y-132654524D01*
X153972381Y-132715000D01*
X154032857Y-132775476D01*
X154093333Y-132896429D01*
X154093333Y-133077857D01*
X154032857Y-133198810D01*
X153972381Y-133259286D01*
X153851428Y-133319762D01*
X153367619Y-133319762D01*
X155363333Y-133803571D02*
X155302857Y-133864048D01*
X155121428Y-133924524D01*
X155000476Y-133924524D01*
X154819048Y-133864048D01*
X154698095Y-133743095D01*
X154637619Y-133622143D01*
X154577143Y-133380238D01*
X154577143Y-133198810D01*
X154637619Y-132956905D01*
X154698095Y-132835952D01*
X154819048Y-132715000D01*
X155000476Y-132654524D01*
X155121428Y-132654524D01*
X155302857Y-132715000D01*
X155363333Y-132775476D01*
X156512381Y-132654524D02*
X155907619Y-132654524D01*
X155847143Y-133259286D01*
X155907619Y-133198810D01*
X156028571Y-133138333D01*
X156330952Y-133138333D01*
X156451905Y-133198810D01*
X156512381Y-133259286D01*
X156572857Y-133380238D01*
X156572857Y-133682619D01*
X156512381Y-133803571D01*
X156451905Y-133864048D01*
X156330952Y-133924524D01*
X156028571Y-133924524D01*
X155907619Y-133864048D01*
X155847143Y-133803571D01*
X153367619Y-131384524D02*
X153367619Y-130114524D01*
X153851428Y-130114524D01*
X153972381Y-130175000D01*
X154032857Y-130235476D01*
X154093333Y-130356429D01*
X154093333Y-130537857D01*
X154032857Y-130658810D01*
X153972381Y-130719286D01*
X153851428Y-130779762D01*
X153367619Y-130779762D01*
X155363333Y-131263571D02*
X155302857Y-131324048D01*
X155121428Y-131384524D01*
X155000476Y-131384524D01*
X154819048Y-131324048D01*
X154698095Y-131203095D01*
X154637619Y-131082143D01*
X154577143Y-130840238D01*
X154577143Y-130658810D01*
X154637619Y-130416905D01*
X154698095Y-130295952D01*
X154819048Y-130175000D01*
X155000476Y-130114524D01*
X155121428Y-130114524D01*
X155302857Y-130175000D01*
X155363333Y-130235476D01*
X156451905Y-130537857D02*
X156451905Y-131384524D01*
X156149524Y-130054048D02*
X155847143Y-130961190D01*
X156633333Y-130961190D01*
D13*
X121439714Y-206163999D02*
X121511143Y-206235428D01*
X121582571Y-206449714D01*
X121582571Y-206592571D01*
X121511143Y-206806856D01*
X121368286Y-206949714D01*
X121225429Y-207021142D01*
X120939714Y-207092571D01*
X120725429Y-207092571D01*
X120439714Y-207021142D01*
X120296857Y-206949714D01*
X120154000Y-206806856D01*
X120082571Y-206592571D01*
X120082571Y-206449714D01*
X120154000Y-206235428D01*
X120225429Y-206163999D01*
X121511143Y-204949714D02*
X121582571Y-205092571D01*
X121582571Y-205378285D01*
X121511143Y-205521142D01*
X121368286Y-205592571D01*
X120796857Y-205592571D01*
X120654000Y-205521142D01*
X120582571Y-205378285D01*
X120582571Y-205092571D01*
X120654000Y-204949714D01*
X120796857Y-204878285D01*
X120939714Y-204878285D01*
X121082571Y-205592571D01*
X120582571Y-204235428D02*
X121582571Y-204235428D01*
X120725429Y-204235428D02*
X120654000Y-204164000D01*
X120582571Y-204021142D01*
X120582571Y-203806857D01*
X120654000Y-203664000D01*
X120796857Y-203592571D01*
X121582571Y-203592571D01*
X120582571Y-203092571D02*
X120582571Y-202521142D01*
X120082571Y-202878285D02*
X121368286Y-202878285D01*
X121511143Y-202806857D01*
X121582571Y-202663999D01*
X121582571Y-202521142D01*
X121511143Y-201449714D02*
X121582571Y-201592571D01*
X121582571Y-201878285D01*
X121511143Y-202021142D01*
X121368286Y-202092571D01*
X120796857Y-202092571D01*
X120654000Y-202021142D01*
X120582571Y-201878285D01*
X120582571Y-201592571D01*
X120654000Y-201449714D01*
X120796857Y-201378285D01*
X120939714Y-201378285D01*
X121082571Y-202092571D01*
X121582571Y-200735428D02*
X120582571Y-200735428D01*
X120868286Y-200735428D02*
X120725429Y-200664000D01*
X120654000Y-200592571D01*
X120582571Y-200449714D01*
X120582571Y-200306857D01*
X121582571Y-197949714D02*
X121582571Y-198664000D01*
X120082571Y-198664000D01*
X121582571Y-197449714D02*
X120582571Y-197449714D01*
X120082571Y-197449714D02*
X120154000Y-197521143D01*
X120225429Y-197449714D01*
X120154000Y-197378286D01*
X120082571Y-197449714D01*
X120225429Y-197449714D01*
X120582571Y-196735428D02*
X121582571Y-196735428D01*
X120725429Y-196735428D02*
X120654000Y-196664000D01*
X120582571Y-196521142D01*
X120582571Y-196306857D01*
X120654000Y-196164000D01*
X120796857Y-196092571D01*
X121582571Y-196092571D01*
X121511143Y-194806857D02*
X121582571Y-194949714D01*
X121582571Y-195235428D01*
X121511143Y-195378285D01*
X121368286Y-195449714D01*
X120796857Y-195449714D01*
X120654000Y-195378285D01*
X120582571Y-195235428D01*
X120582571Y-194949714D01*
X120654000Y-194806857D01*
X120796857Y-194735428D01*
X120939714Y-194735428D01*
X121082571Y-195449714D01*
D12*
X121666000Y-235204000D02*
X121666000Y-174371000D01*
D13*
X171085000Y-92963809D02*
X170989762Y-93154286D01*
X170989762Y-93440000D01*
X171085000Y-93725714D01*
X171275476Y-93916190D01*
X171465952Y-94011429D01*
X171846905Y-94106667D01*
X172132619Y-94106667D01*
X172513571Y-94011429D01*
X172704048Y-93916190D01*
X172894524Y-93725714D01*
X172989762Y-93440000D01*
X172989762Y-93249524D01*
X172894524Y-92963809D01*
X172799286Y-92868571D01*
X172132619Y-92868571D01*
X172132619Y-93249524D01*
X172989762Y-92011429D02*
X170989762Y-92011429D01*
X172989762Y-90868571D01*
X170989762Y-90868571D01*
X172989762Y-89916191D02*
X170989762Y-89916191D01*
X170989762Y-89440000D01*
X171085000Y-89154286D01*
X171275476Y-88963810D01*
X171465952Y-88868571D01*
X171846905Y-88773333D01*
X172132619Y-88773333D01*
X172513571Y-88868571D01*
X172704048Y-88963810D01*
X172894524Y-89154286D01*
X172989762Y-89440000D01*
X172989762Y-89916191D01*
X170858571Y-173564999D02*
X169358571Y-173564999D01*
X169501429Y-172922142D02*
X169430000Y-172850713D01*
X169358571Y-172707856D01*
X169358571Y-172350713D01*
X169430000Y-172207856D01*
X169501429Y-172136427D01*
X169644286Y-172064999D01*
X169787143Y-172064999D01*
X170001429Y-172136427D01*
X170858571Y-172993570D01*
X170858571Y-172064999D01*
X170715714Y-170564999D02*
X170787143Y-170636428D01*
X170858571Y-170850714D01*
X170858571Y-170993571D01*
X170787143Y-171207856D01*
X170644286Y-171350714D01*
X170501429Y-171422142D01*
X170215714Y-171493571D01*
X170001429Y-171493571D01*
X169715714Y-171422142D01*
X169572857Y-171350714D01*
X169430000Y-171207856D01*
X169358571Y-170993571D01*
X169358571Y-170850714D01*
X169430000Y-170636428D01*
X169501429Y-170564999D01*
X171001429Y-170279285D02*
X171001429Y-169136428D01*
X169358571Y-168922142D02*
X169358571Y-167993571D01*
X169930000Y-168493571D01*
X169930000Y-168279285D01*
X170001429Y-168136428D01*
X170072857Y-168064999D01*
X170215714Y-167993571D01*
X170572857Y-167993571D01*
X170715714Y-168064999D01*
X170787143Y-168136428D01*
X170858571Y-168279285D01*
X170858571Y-168707857D01*
X170787143Y-168850714D01*
X170715714Y-168922142D01*
X171493571Y-162769999D02*
X169993571Y-162769999D01*
X170136429Y-162127142D02*
X170065000Y-162055713D01*
X169993571Y-161912856D01*
X169993571Y-161555713D01*
X170065000Y-161412856D01*
X170136429Y-161341427D01*
X170279286Y-161269999D01*
X170422143Y-161269999D01*
X170636429Y-161341427D01*
X171493571Y-162198570D01*
X171493571Y-161269999D01*
X171350714Y-159769999D02*
X171422143Y-159841428D01*
X171493571Y-160055714D01*
X171493571Y-160198571D01*
X171422143Y-160412856D01*
X171279286Y-160555714D01*
X171136429Y-160627142D01*
X170850714Y-160698571D01*
X170636429Y-160698571D01*
X170350714Y-160627142D01*
X170207857Y-160555714D01*
X170065000Y-160412856D01*
X169993571Y-160198571D01*
X169993571Y-160055714D01*
X170065000Y-159841428D01*
X170136429Y-159769999D01*
X171636429Y-159484285D02*
X171636429Y-158341428D01*
X170136429Y-158055714D02*
X170065000Y-157984285D01*
X169993571Y-157841428D01*
X169993571Y-157484285D01*
X170065000Y-157341428D01*
X170136429Y-157269999D01*
X170279286Y-157198571D01*
X170422143Y-157198571D01*
X170636429Y-157269999D01*
X171493571Y-158127142D01*
X171493571Y-157198571D01*
X171493571Y-151974999D02*
X169993571Y-151974999D01*
X170136429Y-151332142D02*
X170065000Y-151260713D01*
X169993571Y-151117856D01*
X169993571Y-150760713D01*
X170065000Y-150617856D01*
X170136429Y-150546427D01*
X170279286Y-150474999D01*
X170422143Y-150474999D01*
X170636429Y-150546427D01*
X171493571Y-151403570D01*
X171493571Y-150474999D01*
X171350714Y-148974999D02*
X171422143Y-149046428D01*
X171493571Y-149260714D01*
X171493571Y-149403571D01*
X171422143Y-149617856D01*
X171279286Y-149760714D01*
X171136429Y-149832142D01*
X170850714Y-149903571D01*
X170636429Y-149903571D01*
X170350714Y-149832142D01*
X170207857Y-149760714D01*
X170065000Y-149617856D01*
X169993571Y-149403571D01*
X169993571Y-149260714D01*
X170065000Y-149046428D01*
X170136429Y-148974999D01*
X171636429Y-148689285D02*
X171636429Y-147546428D01*
X171493571Y-146403571D02*
X171493571Y-147260714D01*
X171493571Y-146832142D02*
X169993571Y-146832142D01*
X170207857Y-146974999D01*
X170350714Y-147117857D01*
X170422143Y-147260714D01*
X171085000Y-92963809D02*
X170989762Y-93154286D01*
X170989762Y-93440000D01*
X171085000Y-93725714D01*
X171275476Y-93916190D01*
X171465952Y-94011429D01*
X171846905Y-94106667D01*
X172132619Y-94106667D01*
X172513571Y-94011429D01*
X172704048Y-93916190D01*
X172894524Y-93725714D01*
X172989762Y-93440000D01*
X172989762Y-93249524D01*
X172894524Y-92963809D01*
X172799286Y-92868571D01*
X172132619Y-92868571D01*
X172132619Y-93249524D01*
X172989762Y-92011429D02*
X170989762Y-92011429D01*
X172989762Y-90868571D01*
X170989762Y-90868571D01*
X172989762Y-89916191D02*
X170989762Y-89916191D01*
X170989762Y-89440000D01*
X171085000Y-89154286D01*
X171275476Y-88963810D01*
X171465952Y-88868571D01*
X171846905Y-88773333D01*
X172132619Y-88773333D01*
X172513571Y-88868571D01*
X172704048Y-88963810D01*
X172894524Y-89154286D01*
X172989762Y-89440000D01*
X172989762Y-89916191D01*
X153304762Y-93313095D02*
X153304762Y-94455953D01*
X153304762Y-93884524D02*
X151304762Y-93884524D01*
X151590476Y-94075000D01*
X151780952Y-94265476D01*
X151876190Y-94455953D01*
X151495238Y-92551191D02*
X151400000Y-92455953D01*
X151304762Y-92265476D01*
X151304762Y-91789286D01*
X151400000Y-91598810D01*
X151495238Y-91503572D01*
X151685714Y-91408333D01*
X151876190Y-91408333D01*
X152161905Y-91503572D01*
X153304762Y-92646429D01*
X153304762Y-91408333D01*
X151304762Y-90836905D02*
X153304762Y-90170238D01*
X151304762Y-89503571D01*
D12*
X74422000Y-90932000D02*
X143002000Y-90932000D01*
X143002000Y-173482000D02*
X74422000Y-173482000D01*
X143002000Y-173482000D02*
X143002000Y-90932000D01*
X74422000Y-173482000D02*
X74422000Y-90932000D01*
D13*
X103859143Y-72560571D02*
X103859143Y-71060571D01*
X103859143Y-71774857D02*
X104716286Y-71774857D01*
X104716286Y-72560571D02*
X104716286Y-71060571D01*
X105430572Y-71774857D02*
X105930572Y-71774857D01*
X106144858Y-72560571D02*
X105430572Y-72560571D01*
X105430572Y-71060571D01*
X106144858Y-71060571D01*
X106716286Y-72132000D02*
X107430572Y-72132000D01*
X106573429Y-72560571D02*
X107073429Y-71060571D01*
X107573429Y-72560571D01*
X107859143Y-71060571D02*
X108716286Y-71060571D01*
X108287715Y-72560571D02*
X108287715Y-71060571D01*
X109144857Y-72489143D02*
X109359143Y-72560571D01*
X109716286Y-72560571D01*
X109859143Y-72489143D01*
X109930572Y-72417714D01*
X110002000Y-72274857D01*
X110002000Y-72132000D01*
X109930572Y-71989143D01*
X109859143Y-71917714D01*
X109716286Y-71846286D01*
X109430572Y-71774857D01*
X109287714Y-71703429D01*
X109216286Y-71632000D01*
X109144857Y-71489143D01*
X109144857Y-71346286D01*
X109216286Y-71203429D01*
X109287714Y-71132000D01*
X109430572Y-71060571D01*
X109787714Y-71060571D01*
X110002000Y-71132000D01*
X110644857Y-72560571D02*
X110644857Y-71060571D01*
X111359143Y-72560571D02*
X111359143Y-71060571D01*
X112216286Y-72560571D01*
X112216286Y-71060571D01*
X112930572Y-72560571D02*
X112930572Y-71060571D01*
X113787715Y-72560571D02*
X113144858Y-71703429D01*
X113787715Y-71060571D02*
X112930572Y-71917714D01*
X115573429Y-71060571D02*
X115573429Y-72274857D01*
X115644857Y-72417714D01*
X115716286Y-72489143D01*
X115859143Y-72560571D01*
X116144857Y-72560571D01*
X116287715Y-72489143D01*
X116359143Y-72417714D01*
X116430572Y-72274857D01*
X116430572Y-71060571D01*
X117144858Y-72560571D02*
X117144858Y-71060571D01*
X117716286Y-71060571D01*
X117859144Y-71132000D01*
X117930572Y-71203429D01*
X118002001Y-71346286D01*
X118002001Y-71560571D01*
X117930572Y-71703429D01*
X117859144Y-71774857D01*
X117716286Y-71846286D01*
X117144858Y-71846286D01*
X118644858Y-72417714D02*
X118716286Y-72489143D01*
X118644858Y-72560571D01*
X118573429Y-72489143D01*
X118644858Y-72417714D01*
X118644858Y-72560571D01*
X118644858Y-71989143D02*
X118573429Y-71132000D01*
X118644858Y-71060571D01*
X118716286Y-71132000D01*
X118644858Y-71989143D01*
X118644858Y-71060571D01*
D14*
X106051047Y-67951048D02*
X105204381Y-66741524D01*
X104599619Y-67951048D02*
X104599619Y-65411048D01*
X105567238Y-65411048D01*
X105809143Y-65532000D01*
X105930095Y-65652952D01*
X106051047Y-65894857D01*
X106051047Y-66257714D01*
X105930095Y-66499619D01*
X105809143Y-66620571D01*
X105567238Y-66741524D01*
X104599619Y-66741524D01*
X107986286Y-66620571D02*
X107139619Y-66620571D01*
X107139619Y-67951048D02*
X107139619Y-65411048D01*
X108349143Y-65411048D01*
X109316762Y-67951048D02*
X109316762Y-65411048D01*
X109921524Y-65411048D01*
X110284381Y-65532000D01*
X110526286Y-65773905D01*
X110647238Y-66015810D01*
X110768190Y-66499619D01*
X110768190Y-66862476D01*
X110647238Y-67346286D01*
X110526286Y-67588190D01*
X110284381Y-67830095D01*
X109921524Y-67951048D01*
X109316762Y-67951048D01*
X111977714Y-67951048D02*
X112461524Y-67951048D01*
X112703429Y-67830095D01*
X112824381Y-67709143D01*
X113066286Y-67346286D01*
X113187238Y-66862476D01*
X113187238Y-65894857D01*
X113066286Y-65652952D01*
X112945333Y-65532000D01*
X112703429Y-65411048D01*
X112219619Y-65411048D01*
X111977714Y-65532000D01*
X111856762Y-65652952D01*
X111735810Y-65894857D01*
X111735810Y-66499619D01*
X111856762Y-66741524D01*
X111977714Y-66862476D01*
X112219619Y-66983429D01*
X112703429Y-66983429D01*
X112945333Y-66862476D01*
X113066286Y-66741524D01*
X113187238Y-66499619D01*
X114759619Y-65411048D02*
X115001524Y-65411048D01*
X115243429Y-65532000D01*
X115364381Y-65652952D01*
X115485334Y-65894857D01*
X115606286Y-66378667D01*
X115606286Y-66983429D01*
X115485334Y-67467238D01*
X115364381Y-67709143D01*
X115243429Y-67830095D01*
X115001524Y-67951048D01*
X114759619Y-67951048D01*
X114517715Y-67830095D01*
X114396762Y-67709143D01*
X114275810Y-67467238D01*
X114154858Y-66983429D01*
X114154858Y-66378667D01*
X114275810Y-65894857D01*
X114396762Y-65652952D01*
X114517715Y-65532000D01*
X114759619Y-65411048D01*
X117178667Y-65411048D02*
X117420572Y-65411048D01*
X117662477Y-65532000D01*
X117783429Y-65652952D01*
X117904382Y-65894857D01*
X118025334Y-66378667D01*
X118025334Y-66983429D01*
X117904382Y-67467238D01*
X117783429Y-67709143D01*
X117662477Y-67830095D01*
X117420572Y-67951048D01*
X117178667Y-67951048D01*
X116936763Y-67830095D01*
X116815810Y-67709143D01*
X116694858Y-67467238D01*
X116573906Y-66983429D01*
X116573906Y-66378667D01*
X116694858Y-65894857D01*
X116815810Y-65652952D01*
X116936763Y-65532000D01*
X117178667Y-65411048D01*
D12*
X75692000Y-75692000D02*
X88392000Y-75692000D01*
X75692000Y-83312000D02*
X75692000Y-75692000D01*
X88392000Y-83312000D02*
X75692000Y-83312000D01*
X75692000Y-61722000D02*
X88392000Y-61722000D01*
X75692000Y-54102000D02*
X75692000Y-61722000D01*
X88392000Y-54102000D02*
X75692000Y-54102000D01*
X88392000Y-52832000D02*
X88392000Y-54102000D01*
X88392000Y-84582000D02*
X134112000Y-84582000D01*
X88392000Y-52832000D02*
X88392000Y-84582000D01*
X134112000Y-52832000D02*
X88392000Y-52832000D01*
X134112000Y-84582000D02*
X134112000Y-52832000D01*
D15*
X169194400Y-114128600D02*
X169194400Y-112868600D01*
X169194400Y-107308600D02*
X169194400Y-108568600D01*
X165434400Y-114128600D02*
X169194400Y-114128600D01*
X163184400Y-107308600D02*
X169194400Y-107308600D01*
X142812000Y-58360000D02*
X142812000Y-60960000D01*
X142812000Y-60960000D02*
X134182000Y-60960000D01*
X134182000Y-60960000D02*
X134182000Y-58360000D01*
X134182000Y-58360000D02*
X142812000Y-58360000D01*
X143242000Y-59310000D02*
X142812000Y-59310000D01*
X143242000Y-60070000D02*
X142812000Y-60070000D01*
X145782000Y-59310000D02*
X145302000Y-59310000D01*
X145782000Y-60070000D02*
X145302000Y-60070000D01*
X142812000Y-58540000D02*
X134182000Y-58540000D01*
X142812000Y-58660000D02*
X134182000Y-58660000D01*
X142812000Y-58780000D02*
X134182000Y-58780000D01*
X142812000Y-58900000D02*
X134182000Y-58900000D01*
X142812000Y-59020000D02*
X134182000Y-59020000D01*
X142812000Y-59140000D02*
X134182000Y-59140000D01*
X142812000Y-59260000D02*
X134182000Y-59260000D01*
X142812000Y-59380000D02*
X134182000Y-59380000D01*
X142812000Y-59500000D02*
X134182000Y-59500000D01*
X142812000Y-59620000D02*
X134182000Y-59620000D01*
X142812000Y-59740000D02*
X134182000Y-59740000D01*
X142812000Y-59860000D02*
X134182000Y-59860000D01*
X142812000Y-59980000D02*
X134182000Y-59980000D01*
X142812000Y-60100000D02*
X134182000Y-60100000D01*
X142812000Y-60220000D02*
X134182000Y-60220000D01*
X142812000Y-60340000D02*
X134182000Y-60340000D01*
X142812000Y-60460000D02*
X134182000Y-60460000D01*
X142812000Y-60580000D02*
X134182000Y-60580000D01*
X142812000Y-60700000D02*
X134182000Y-60700000D01*
X142812000Y-60820000D02*
X134182000Y-60820000D01*
X142812000Y-60940000D02*
X134182000Y-60940000D01*
X142812000Y-61060000D02*
X134182000Y-61060000D01*
X142812000Y-60960000D02*
X142812000Y-63500000D01*
X142812000Y-63500000D02*
X134182000Y-63500000D01*
X134182000Y-63500000D02*
X134182000Y-60960000D01*
X134182000Y-60960000D02*
X142812000Y-60960000D01*
X143242000Y-61850000D02*
X142812000Y-61850000D01*
X143242000Y-62610000D02*
X142812000Y-62610000D01*
X145782000Y-61850000D02*
X145302000Y-61850000D01*
X145782000Y-62610000D02*
X145302000Y-62610000D01*
X142812000Y-63500000D02*
X142812000Y-66040000D01*
X142812000Y-66040000D02*
X134182000Y-66040000D01*
X134182000Y-66040000D02*
X134182000Y-63500000D01*
X134182000Y-63500000D02*
X142812000Y-63500000D01*
X143242000Y-64390000D02*
X142812000Y-64390000D01*
X143242000Y-65150000D02*
X142812000Y-65150000D01*
X145782000Y-64390000D02*
X145302000Y-64390000D01*
X145782000Y-65150000D02*
X145302000Y-65150000D01*
X142812000Y-66040000D02*
X142812000Y-68580000D01*
X142812000Y-68580000D02*
X134182000Y-68580000D01*
X134182000Y-68580000D02*
X134182000Y-66040000D01*
X134182000Y-66040000D02*
X142812000Y-66040000D01*
X143242000Y-66930000D02*
X142812000Y-66930000D01*
X143242000Y-67690000D02*
X142812000Y-67690000D01*
X145782000Y-66930000D02*
X145302000Y-66930000D01*
X145782000Y-67690000D02*
X145302000Y-67690000D01*
X142812000Y-68580000D02*
X142812000Y-71120000D01*
X142812000Y-71120000D02*
X134182000Y-71120000D01*
X134182000Y-71120000D02*
X134182000Y-68580000D01*
X134182000Y-68580000D02*
X142812000Y-68580000D01*
X143242000Y-69470000D02*
X142812000Y-69470000D01*
X143242000Y-70230000D02*
X142812000Y-70230000D01*
X145782000Y-69470000D02*
X145302000Y-69470000D01*
X145782000Y-70230000D02*
X145302000Y-70230000D01*
X142812000Y-71120000D02*
X142812000Y-73660000D01*
X142812000Y-73660000D02*
X134182000Y-73660000D01*
X134182000Y-73660000D02*
X134182000Y-71120000D01*
X134182000Y-71120000D02*
X142812000Y-71120000D01*
X143242000Y-72010000D02*
X142812000Y-72010000D01*
X143242000Y-72770000D02*
X142812000Y-72770000D01*
X145782000Y-72010000D02*
X145302000Y-72010000D01*
X145782000Y-72770000D02*
X145302000Y-72770000D01*
X142812000Y-73660000D02*
X142812000Y-76200000D01*
X142812000Y-76200000D02*
X134182000Y-76200000D01*
X134182000Y-76200000D02*
X134182000Y-73660000D01*
X134182000Y-73660000D02*
X142812000Y-73660000D01*
X143242000Y-74550000D02*
X142812000Y-74550000D01*
X143242000Y-75310000D02*
X142812000Y-75310000D01*
X145782000Y-74550000D02*
X145302000Y-74550000D01*
X145782000Y-75310000D02*
X145302000Y-75310000D01*
X142812000Y-76200000D02*
X142812000Y-78800000D01*
X142812000Y-78800000D02*
X134182000Y-78800000D01*
X134182000Y-78800000D02*
X134182000Y-76200000D01*
X134182000Y-76200000D02*
X142812000Y-76200000D01*
X143242000Y-77090000D02*
X142812000Y-77090000D01*
X143242000Y-77850000D02*
X142812000Y-77850000D01*
X145782000Y-77090000D02*
X145302000Y-77090000D01*
X145782000Y-77850000D02*
X145302000Y-77850000D01*
X146812000Y-58420000D02*
X148082000Y-58420000D01*
X148082000Y-58420000D02*
X148082000Y-59690000D01*
X169272000Y-59812000D02*
X168012000Y-59812000D01*
X162452000Y-59812000D02*
X163712000Y-59812000D01*
X169272000Y-63572000D02*
X169272000Y-59812000D01*
X162452000Y-65822000D02*
X162452000Y-59812000D01*
X162017000Y-170552000D02*
X160817000Y-170552000D01*
X160817000Y-168792000D02*
X162017000Y-168792000D01*
X162017000Y-174362000D02*
X160817000Y-174362000D01*
X160817000Y-172602000D02*
X162017000Y-172602000D01*
X162017000Y-159757000D02*
X160817000Y-159757000D01*
X160817000Y-157997000D02*
X162017000Y-157997000D01*
X166462000Y-141342000D02*
X165262000Y-141342000D01*
X165262000Y-139582000D02*
X166462000Y-139582000D01*
X166462000Y-137532000D02*
X165262000Y-137532000D01*
X165262000Y-135772000D02*
X166462000Y-135772000D01*
X166462000Y-133722000D02*
X165262000Y-133722000D01*
X165262000Y-131962000D02*
X166462000Y-131962000D01*
X166462000Y-129912000D02*
X165262000Y-129912000D01*
X165262000Y-128152000D02*
X166462000Y-128152000D01*
X162017000Y-163567000D02*
X160817000Y-163567000D01*
X160817000Y-161807000D02*
X162017000Y-161807000D01*
X162017000Y-148962000D02*
X160817000Y-148962000D01*
X160817000Y-147202000D02*
X162017000Y-147202000D01*
X162017000Y-152772000D02*
X160817000Y-152772000D01*
X160817000Y-151012000D02*
X162017000Y-151012000D01*
X161452000Y-73542000D02*
X162652000Y-73542000D01*
X162652000Y-75302000D02*
X161452000Y-75302000D01*
X167669100Y-118119600D02*
X167669100Y-119319600D01*
X165909100Y-119319600D02*
X165909100Y-118119600D01*
X169097000Y-172212000D02*
X169097000Y-167072000D01*
X169097000Y-167072000D02*
X166437000Y-167072000D01*
X166437000Y-167072000D02*
X166437000Y-172212000D01*
X166437000Y-172212000D02*
X169097000Y-172212000D01*
X169097000Y-173482000D02*
X169097000Y-174812000D01*
X169097000Y-174812000D02*
X167767000Y-174812000D01*
X158182000Y-131572000D02*
X158182000Y-139252000D01*
X158182000Y-139252000D02*
X160842000Y-139252000D01*
X160842000Y-139252000D02*
X160842000Y-131572000D01*
X160842000Y-131572000D02*
X158182000Y-131572000D01*
X158182000Y-130302000D02*
X158182000Y-128972000D01*
X158182000Y-128972000D02*
X159512000Y-128972000D01*
X169097000Y-161417000D02*
X169097000Y-156277000D01*
X169097000Y-156277000D02*
X166437000Y-156277000D01*
X166437000Y-156277000D02*
X166437000Y-161417000D01*
X166437000Y-161417000D02*
X169097000Y-161417000D01*
X169097000Y-162687000D02*
X169097000Y-164017000D01*
X169097000Y-164017000D02*
X167767000Y-164017000D01*
X169097000Y-150622000D02*
X169097000Y-145482000D01*
X169097000Y-145482000D02*
X166437000Y-145482000D01*
X166437000Y-145482000D02*
X166437000Y-150622000D01*
X166437000Y-150622000D02*
X169097000Y-150622000D01*
X169097000Y-151892000D02*
X169097000Y-153222000D01*
X169097000Y-153222000D02*
X167767000Y-153222000D01*
X172742000Y-141162000D02*
X172742000Y-139762000D01*
X172742000Y-139762000D02*
X169942000Y-139762000D01*
X172742000Y-141162000D02*
X169942000Y-141162000D01*
X172742000Y-137352000D02*
X172742000Y-135952000D01*
X172742000Y-135952000D02*
X169942000Y-135952000D01*
X172742000Y-137352000D02*
X169942000Y-137352000D01*
X172742000Y-133542000D02*
X172742000Y-132142000D01*
X172742000Y-132142000D02*
X169942000Y-132142000D01*
X172742000Y-133542000D02*
X169942000Y-133542000D01*
X172742000Y-129732000D02*
X172742000Y-128332000D01*
X172742000Y-128332000D02*
X169942000Y-128332000D01*
X172742000Y-129732000D02*
X169942000Y-129732000D01*
X167872000Y-73722000D02*
X167872000Y-75122000D01*
X167872000Y-75122000D02*
X170672000Y-75122000D01*
X167872000Y-73722000D02*
X170672000Y-73722000D01*
X162456900Y-120379900D02*
X163856900Y-120379900D01*
X163856900Y-120379900D02*
X163856900Y-117579900D01*
X162456900Y-120379900D02*
X162456900Y-117579900D01*
X169172000Y-70192000D02*
X170172000Y-70192000D01*
X170172000Y-68492000D02*
X169172000Y-68492000D01*
X159714300Y-115054000D02*
X159714300Y-114054000D01*
X158014300Y-114054000D02*
X158014300Y-115054000D01*
X162552000Y-68492000D02*
X161552000Y-68492000D01*
X161552000Y-70192000D02*
X162552000Y-70192000D01*
X158065100Y-106459400D02*
X158065100Y-107459400D01*
X159765100Y-107459400D02*
X159765100Y-106459400D01*
X136592000Y-126492000D02*
X136592000Y-172272000D01*
X136592000Y-172272000D02*
X141792000Y-172272000D01*
X141792000Y-172272000D02*
X141792000Y-123892000D01*
X141792000Y-123892000D02*
X139192000Y-123892000D01*
X139192000Y-123892000D02*
X139192000Y-126492000D01*
X139192000Y-126492000D02*
X136592000Y-126492000D01*
X136592000Y-125222000D02*
X136592000Y-123892000D01*
X136592000Y-123892000D02*
X137862000Y-123892000D01*
X75632000Y-126492000D02*
X75632000Y-172272000D01*
X75632000Y-172272000D02*
X80832000Y-172272000D01*
X80832000Y-172272000D02*
X80832000Y-123892000D01*
X80832000Y-123892000D02*
X78232000Y-123892000D01*
X78232000Y-123892000D02*
X78232000Y-126492000D01*
X78232000Y-126492000D02*
X75632000Y-126492000D01*
X75632000Y-125222000D02*
X75632000Y-123892000D01*
X75632000Y-123892000D02*
X76902000Y-123892000D01*
D16*
X78740000Y-180340000D02*
X78740000Y-200660000D01*
X78740000Y-200660000D02*
X67310000Y-200660000D01*
X67310000Y-200660000D02*
X67310000Y-180340000D01*
X67310000Y-180340000D02*
X78740000Y-180340000D01*
X109855000Y-177800000D02*
X128905000Y-177800000D01*
X128905000Y-177800000D02*
X128905000Y-196850000D01*
X128905000Y-196850000D02*
X109855000Y-196850000D01*
X109855000Y-196850000D02*
X109855000Y-177800000D01*
X116332000Y-229870000D02*
G75*
G03X116332000Y-229870000I-2540000J0D01*
G01*
X131572000Y-229870000D02*
G75*
G03X131572000Y-229870000I-2540000J0D01*
G01*
X131572000Y-208280000D02*
G75*
G03X131572000Y-208280000I-2540000J0D01*
G01*
X116332000Y-208280000D02*
G75*
G03X116332000Y-208280000I-2540000J0D01*
G01*
X111252000Y-205740000D02*
X111252000Y-232410000D01*
X111252000Y-232410000D02*
X131572000Y-232410000D01*
X131572000Y-232410000D02*
X131572000Y-205740000D01*
X131572000Y-205740000D02*
X111252000Y-205740000D01*
X78740000Y-219710000D02*
X78740000Y-204470000D01*
X78740000Y-204470000D02*
X78740000Y-203200000D01*
X78740000Y-203200000D02*
X66040000Y-203200000D01*
X66040000Y-203200000D02*
X66040000Y-219710000D01*
X66040000Y-219710000D02*
X66040000Y-220980000D01*
X66040000Y-220980000D02*
X78740000Y-220980000D01*
X78740000Y-220980000D02*
X78740000Y-218440000D01*
X171196000Y-198120000D02*
X171196000Y-231140000D01*
X171196000Y-231140000D02*
X145796000Y-231140000D01*
X145796000Y-231140000D02*
X145796000Y-198120000D01*
X171196000Y-198120000D02*
X145796000Y-198120000D01*
X175196667Y-88962381D02*
X174863333Y-88486190D01*
X174625238Y-88962381D02*
X174625238Y-87962381D01*
X175006191Y-87962381D01*
X175101429Y-88010000D01*
X175149048Y-88057619D01*
X175196667Y-88152857D01*
X175196667Y-88295714D01*
X175149048Y-88390952D01*
X175101429Y-88438571D01*
X175006191Y-88486190D01*
X174625238Y-88486190D01*
X175625238Y-88438571D02*
X175958572Y-88438571D01*
X176101429Y-88962381D02*
X175625238Y-88962381D01*
X175625238Y-87962381D01*
X176101429Y-87962381D01*
X176863334Y-88438571D02*
X176530000Y-88438571D01*
X176530000Y-88962381D02*
X176530000Y-87962381D01*
X177006191Y-87962381D01*
X177530000Y-87962381D02*
X177530000Y-88200476D01*
X177291905Y-88105238D02*
X177530000Y-88200476D01*
X177768096Y-88105238D01*
X177387143Y-88390952D02*
X177530000Y-88200476D01*
X177672858Y-88390952D01*
X178291905Y-87962381D02*
X178291905Y-88200476D01*
X178053810Y-88105238D02*
X178291905Y-88200476D01*
X178530001Y-88105238D01*
X178149048Y-88390952D02*
X178291905Y-88200476D01*
X178434763Y-88390952D01*
X166522495Y-105670981D02*
X166522495Y-106480505D01*
X166570114Y-106575743D01*
X166617733Y-106623362D01*
X166712971Y-106670981D01*
X166903448Y-106670981D01*
X166998686Y-106623362D01*
X167046305Y-106575743D01*
X167093924Y-106480505D01*
X167093924Y-105670981D01*
X167998686Y-105670981D02*
X167808209Y-105670981D01*
X167712971Y-105718600D01*
X167665352Y-105766219D01*
X167570114Y-105909076D01*
X167522495Y-106099552D01*
X167522495Y-106480505D01*
X167570114Y-106575743D01*
X167617733Y-106623362D01*
X167712971Y-106670981D01*
X167903448Y-106670981D01*
X167998686Y-106623362D01*
X168046305Y-106575743D01*
X168093924Y-106480505D01*
X168093924Y-106242410D01*
X168046305Y-106147171D01*
X167998686Y-106099552D01*
X167903448Y-106051933D01*
X167712971Y-106051933D01*
X167617733Y-106099552D01*
X167570114Y-106147171D01*
X167522495Y-106242410D01*
X140352477Y-56872381D02*
X140352477Y-57586667D01*
X140304857Y-57729524D01*
X140209619Y-57824762D01*
X140066762Y-57872381D01*
X139971524Y-57872381D01*
X141352477Y-57872381D02*
X140781048Y-57872381D01*
X141066762Y-57872381D02*
X141066762Y-56872381D01*
X140971524Y-57015238D01*
X140876286Y-57110476D01*
X140781048Y-57158095D01*
X142304858Y-57872381D02*
X141733429Y-57872381D01*
X142019143Y-57872381D02*
X142019143Y-56872381D01*
X141923905Y-57015238D01*
X141828667Y-57110476D01*
X141733429Y-57158095D01*
X160814381Y-62483905D02*
X161623905Y-62483905D01*
X161719143Y-62436286D01*
X161766762Y-62388667D01*
X161814381Y-62293429D01*
X161814381Y-62102952D01*
X161766762Y-62007714D01*
X161719143Y-61960095D01*
X161623905Y-61912476D01*
X160814381Y-61912476D01*
X160814381Y-61531524D02*
X160814381Y-60864857D01*
X161814381Y-61293429D01*
X160774143Y-168474381D02*
X160440809Y-167998190D01*
X160202714Y-168474381D02*
X160202714Y-167474381D01*
X160583667Y-167474381D01*
X160678905Y-167522000D01*
X160726524Y-167569619D01*
X160774143Y-167664857D01*
X160774143Y-167807714D01*
X160726524Y-167902952D01*
X160678905Y-167950571D01*
X160583667Y-167998190D01*
X160202714Y-167998190D01*
X161726524Y-168474381D02*
X161155095Y-168474381D01*
X161440809Y-168474381D02*
X161440809Y-167474381D01*
X161345571Y-167617238D01*
X161250333Y-167712476D01*
X161155095Y-167760095D01*
X162107476Y-167569619D02*
X162155095Y-167522000D01*
X162250333Y-167474381D01*
X162488429Y-167474381D01*
X162583667Y-167522000D01*
X162631286Y-167569619D01*
X162678905Y-167664857D01*
X162678905Y-167760095D01*
X162631286Y-167902952D01*
X162059857Y-168474381D01*
X162678905Y-168474381D01*
X160774143Y-172284381D02*
X160440809Y-171808190D01*
X160202714Y-172284381D02*
X160202714Y-171284381D01*
X160583667Y-171284381D01*
X160678905Y-171332000D01*
X160726524Y-171379619D01*
X160774143Y-171474857D01*
X160774143Y-171617714D01*
X160726524Y-171712952D01*
X160678905Y-171760571D01*
X160583667Y-171808190D01*
X160202714Y-171808190D01*
X161726524Y-172284381D02*
X161155095Y-172284381D01*
X161440809Y-172284381D02*
X161440809Y-171284381D01*
X161345571Y-171427238D01*
X161250333Y-171522476D01*
X161155095Y-171570095D01*
X162678905Y-172284381D02*
X162107476Y-172284381D01*
X162393190Y-172284381D02*
X162393190Y-171284381D01*
X162297952Y-171427238D01*
X162202714Y-171522476D01*
X162107476Y-171570095D01*
X160774143Y-157679381D02*
X160440809Y-157203190D01*
X160202714Y-157679381D02*
X160202714Y-156679381D01*
X160583667Y-156679381D01*
X160678905Y-156727000D01*
X160726524Y-156774619D01*
X160774143Y-156869857D01*
X160774143Y-157012714D01*
X160726524Y-157107952D01*
X160678905Y-157155571D01*
X160583667Y-157203190D01*
X160202714Y-157203190D01*
X161726524Y-157679381D02*
X161155095Y-157679381D01*
X161440809Y-157679381D02*
X161440809Y-156679381D01*
X161345571Y-156822238D01*
X161250333Y-156917476D01*
X161155095Y-156965095D01*
X162345571Y-156679381D02*
X162440810Y-156679381D01*
X162536048Y-156727000D01*
X162583667Y-156774619D01*
X162631286Y-156869857D01*
X162678905Y-157060333D01*
X162678905Y-157298429D01*
X162631286Y-157488905D01*
X162583667Y-157584143D01*
X162536048Y-157631762D01*
X162440810Y-157679381D01*
X162345571Y-157679381D01*
X162250333Y-157631762D01*
X162202714Y-157584143D01*
X162155095Y-157488905D01*
X162107476Y-157298429D01*
X162107476Y-157060333D01*
X162155095Y-156869857D01*
X162202714Y-156774619D01*
X162250333Y-156727000D01*
X162345571Y-156679381D01*
X165695334Y-139264381D02*
X165362000Y-138788190D01*
X165123905Y-139264381D02*
X165123905Y-138264381D01*
X165504858Y-138264381D01*
X165600096Y-138312000D01*
X165647715Y-138359619D01*
X165695334Y-138454857D01*
X165695334Y-138597714D01*
X165647715Y-138692952D01*
X165600096Y-138740571D01*
X165504858Y-138788190D01*
X165123905Y-138788190D01*
X166171524Y-139264381D02*
X166362000Y-139264381D01*
X166457239Y-139216762D01*
X166504858Y-139169143D01*
X166600096Y-139026286D01*
X166647715Y-138835810D01*
X166647715Y-138454857D01*
X166600096Y-138359619D01*
X166552477Y-138312000D01*
X166457239Y-138264381D01*
X166266762Y-138264381D01*
X166171524Y-138312000D01*
X166123905Y-138359619D01*
X166076286Y-138454857D01*
X166076286Y-138692952D01*
X166123905Y-138788190D01*
X166171524Y-138835810D01*
X166266762Y-138883429D01*
X166457239Y-138883429D01*
X166552477Y-138835810D01*
X166600096Y-138788190D01*
X166647715Y-138692952D01*
X165695334Y-135454381D02*
X165362000Y-134978190D01*
X165123905Y-135454381D02*
X165123905Y-134454381D01*
X165504858Y-134454381D01*
X165600096Y-134502000D01*
X165647715Y-134549619D01*
X165695334Y-134644857D01*
X165695334Y-134787714D01*
X165647715Y-134882952D01*
X165600096Y-134930571D01*
X165504858Y-134978190D01*
X165123905Y-134978190D01*
X166266762Y-134882952D02*
X166171524Y-134835333D01*
X166123905Y-134787714D01*
X166076286Y-134692476D01*
X166076286Y-134644857D01*
X166123905Y-134549619D01*
X166171524Y-134502000D01*
X166266762Y-134454381D01*
X166457239Y-134454381D01*
X166552477Y-134502000D01*
X166600096Y-134549619D01*
X166647715Y-134644857D01*
X166647715Y-134692476D01*
X166600096Y-134787714D01*
X166552477Y-134835333D01*
X166457239Y-134882952D01*
X166266762Y-134882952D01*
X166171524Y-134930571D01*
X166123905Y-134978190D01*
X166076286Y-135073429D01*
X166076286Y-135263905D01*
X166123905Y-135359143D01*
X166171524Y-135406762D01*
X166266762Y-135454381D01*
X166457239Y-135454381D01*
X166552477Y-135406762D01*
X166600096Y-135359143D01*
X166647715Y-135263905D01*
X166647715Y-135073429D01*
X166600096Y-134978190D01*
X166552477Y-134930571D01*
X166457239Y-134882952D01*
X165695334Y-131644381D02*
X165362000Y-131168190D01*
X165123905Y-131644381D02*
X165123905Y-130644381D01*
X165504858Y-130644381D01*
X165600096Y-130692000D01*
X165647715Y-130739619D01*
X165695334Y-130834857D01*
X165695334Y-130977714D01*
X165647715Y-131072952D01*
X165600096Y-131120571D01*
X165504858Y-131168190D01*
X165123905Y-131168190D01*
X166028667Y-130644381D02*
X166695334Y-130644381D01*
X166266762Y-131644381D01*
X165695334Y-127834381D02*
X165362000Y-127358190D01*
X165123905Y-127834381D02*
X165123905Y-126834381D01*
X165504858Y-126834381D01*
X165600096Y-126882000D01*
X165647715Y-126929619D01*
X165695334Y-127024857D01*
X165695334Y-127167714D01*
X165647715Y-127262952D01*
X165600096Y-127310571D01*
X165504858Y-127358190D01*
X165123905Y-127358190D01*
X166552477Y-126834381D02*
X166362000Y-126834381D01*
X166266762Y-126882000D01*
X166219143Y-126929619D01*
X166123905Y-127072476D01*
X166076286Y-127262952D01*
X166076286Y-127643905D01*
X166123905Y-127739143D01*
X166171524Y-127786762D01*
X166266762Y-127834381D01*
X166457239Y-127834381D01*
X166552477Y-127786762D01*
X166600096Y-127739143D01*
X166647715Y-127643905D01*
X166647715Y-127405810D01*
X166600096Y-127310571D01*
X166552477Y-127262952D01*
X166457239Y-127215333D01*
X166266762Y-127215333D01*
X166171524Y-127262952D01*
X166123905Y-127310571D01*
X166076286Y-127405810D01*
X161250334Y-161489381D02*
X160917000Y-161013190D01*
X160678905Y-161489381D02*
X160678905Y-160489381D01*
X161059858Y-160489381D01*
X161155096Y-160537000D01*
X161202715Y-160584619D01*
X161250334Y-160679857D01*
X161250334Y-160822714D01*
X161202715Y-160917952D01*
X161155096Y-160965571D01*
X161059858Y-161013190D01*
X160678905Y-161013190D01*
X162155096Y-160489381D02*
X161678905Y-160489381D01*
X161631286Y-160965571D01*
X161678905Y-160917952D01*
X161774143Y-160870333D01*
X162012239Y-160870333D01*
X162107477Y-160917952D01*
X162155096Y-160965571D01*
X162202715Y-161060810D01*
X162202715Y-161298905D01*
X162155096Y-161394143D01*
X162107477Y-161441762D01*
X162012239Y-161489381D01*
X161774143Y-161489381D01*
X161678905Y-161441762D01*
X161631286Y-161394143D01*
X161250334Y-146884381D02*
X160917000Y-146408190D01*
X160678905Y-146884381D02*
X160678905Y-145884381D01*
X161059858Y-145884381D01*
X161155096Y-145932000D01*
X161202715Y-145979619D01*
X161250334Y-146074857D01*
X161250334Y-146217714D01*
X161202715Y-146312952D01*
X161155096Y-146360571D01*
X161059858Y-146408190D01*
X160678905Y-146408190D01*
X162107477Y-146217714D02*
X162107477Y-146884381D01*
X161869381Y-145836762D02*
X161631286Y-146551048D01*
X162250334Y-146551048D01*
X161250334Y-150694381D02*
X160917000Y-150218190D01*
X160678905Y-150694381D02*
X160678905Y-149694381D01*
X161059858Y-149694381D01*
X161155096Y-149742000D01*
X161202715Y-149789619D01*
X161250334Y-149884857D01*
X161250334Y-150027714D01*
X161202715Y-150122952D01*
X161155096Y-150170571D01*
X161059858Y-150218190D01*
X160678905Y-150218190D01*
X161583667Y-149694381D02*
X162202715Y-149694381D01*
X161869381Y-150075333D01*
X162012239Y-150075333D01*
X162107477Y-150122952D01*
X162155096Y-150170571D01*
X162202715Y-150265810D01*
X162202715Y-150503905D01*
X162155096Y-150599143D01*
X162107477Y-150646762D01*
X162012239Y-150694381D01*
X161726524Y-150694381D01*
X161631286Y-150646762D01*
X161583667Y-150599143D01*
X161885334Y-76524381D02*
X161552000Y-76048190D01*
X161313905Y-76524381D02*
X161313905Y-75524381D01*
X161694858Y-75524381D01*
X161790096Y-75572000D01*
X161837715Y-75619619D01*
X161885334Y-75714857D01*
X161885334Y-75857714D01*
X161837715Y-75952952D01*
X161790096Y-76000571D01*
X161694858Y-76048190D01*
X161313905Y-76048190D01*
X162266286Y-75619619D02*
X162313905Y-75572000D01*
X162409143Y-75524381D01*
X162647239Y-75524381D01*
X162742477Y-75572000D01*
X162790096Y-75619619D01*
X162837715Y-75714857D01*
X162837715Y-75810095D01*
X162790096Y-75952952D01*
X162218667Y-76524381D01*
X162837715Y-76524381D01*
X165591481Y-118886266D02*
X165115290Y-119219600D01*
X165591481Y-119457695D02*
X164591481Y-119457695D01*
X164591481Y-119076742D01*
X164639100Y-118981504D01*
X164686719Y-118933885D01*
X164781957Y-118886266D01*
X164924814Y-118886266D01*
X165020052Y-118933885D01*
X165067671Y-118981504D01*
X165115290Y-119076742D01*
X165115290Y-119457695D01*
X165591481Y-117933885D02*
X165591481Y-118505314D01*
X165591481Y-118219600D02*
X164591481Y-118219600D01*
X164734338Y-118314838D01*
X164829576Y-118410076D01*
X164877195Y-118505314D01*
X166957477Y-175264381D02*
X166957477Y-175978667D01*
X166909857Y-176121524D01*
X166814619Y-176216762D01*
X166671762Y-176264381D01*
X166576524Y-176264381D01*
X167957477Y-176264381D02*
X167386048Y-176264381D01*
X167671762Y-176264381D02*
X167671762Y-175264381D01*
X167576524Y-175407238D01*
X167481286Y-175502476D01*
X167386048Y-175550095D01*
X168814620Y-175264381D02*
X168624143Y-175264381D01*
X168528905Y-175312000D01*
X168481286Y-175359619D01*
X168386048Y-175502476D01*
X168338429Y-175692952D01*
X168338429Y-176073905D01*
X168386048Y-176169143D01*
X168433667Y-176216762D01*
X168528905Y-176264381D01*
X168719382Y-176264381D01*
X168814620Y-176216762D01*
X168862239Y-176169143D01*
X168909858Y-176073905D01*
X168909858Y-175835810D01*
X168862239Y-175740571D01*
X168814620Y-175692952D01*
X168719382Y-175645333D01*
X168528905Y-175645333D01*
X168433667Y-175692952D01*
X168386048Y-175740571D01*
X168338429Y-175835810D01*
X158702477Y-127424381D02*
X158702477Y-128138667D01*
X158654857Y-128281524D01*
X158559619Y-128376762D01*
X158416762Y-128424381D01*
X158321524Y-128424381D01*
X159702477Y-128424381D02*
X159131048Y-128424381D01*
X159416762Y-128424381D02*
X159416762Y-127424381D01*
X159321524Y-127567238D01*
X159226286Y-127662476D01*
X159131048Y-127710095D01*
X160607239Y-127424381D02*
X160131048Y-127424381D01*
X160083429Y-127900571D01*
X160131048Y-127852952D01*
X160226286Y-127805333D01*
X160464382Y-127805333D01*
X160559620Y-127852952D01*
X160607239Y-127900571D01*
X160654858Y-127995810D01*
X160654858Y-128233905D01*
X160607239Y-128329143D01*
X160559620Y-128376762D01*
X160464382Y-128424381D01*
X160226286Y-128424381D01*
X160131048Y-128376762D01*
X160083429Y-128329143D01*
X166957477Y-164469381D02*
X166957477Y-165183667D01*
X166909857Y-165326524D01*
X166814619Y-165421762D01*
X166671762Y-165469381D01*
X166576524Y-165469381D01*
X167957477Y-165469381D02*
X167386048Y-165469381D01*
X167671762Y-165469381D02*
X167671762Y-164469381D01*
X167576524Y-164612238D01*
X167481286Y-164707476D01*
X167386048Y-164755095D01*
X168290810Y-164469381D02*
X168909858Y-164469381D01*
X168576524Y-164850333D01*
X168719382Y-164850333D01*
X168814620Y-164897952D01*
X168862239Y-164945571D01*
X168909858Y-165040810D01*
X168909858Y-165278905D01*
X168862239Y-165374143D01*
X168814620Y-165421762D01*
X168719382Y-165469381D01*
X168433667Y-165469381D01*
X168338429Y-165421762D01*
X168290810Y-165374143D01*
X166957477Y-153674381D02*
X166957477Y-154388667D01*
X166909857Y-154531524D01*
X166814619Y-154626762D01*
X166671762Y-154674381D01*
X166576524Y-154674381D01*
X167957477Y-154674381D02*
X167386048Y-154674381D01*
X167671762Y-154674381D02*
X167671762Y-153674381D01*
X167576524Y-153817238D01*
X167481286Y-153912476D01*
X167386048Y-153960095D01*
X168338429Y-153769619D02*
X168386048Y-153722000D01*
X168481286Y-153674381D01*
X168719382Y-153674381D01*
X168814620Y-153722000D01*
X168862239Y-153769619D01*
X168909858Y-153864857D01*
X168909858Y-153960095D01*
X168862239Y-154102952D01*
X168290810Y-154674381D01*
X168909858Y-154674381D01*
X170203905Y-142364381D02*
X170203905Y-141364381D01*
X170442000Y-141364381D01*
X170584858Y-141412000D01*
X170680096Y-141507238D01*
X170727715Y-141602476D01*
X170775334Y-141792952D01*
X170775334Y-141935810D01*
X170727715Y-142126286D01*
X170680096Y-142221524D01*
X170584858Y-142316762D01*
X170442000Y-142364381D01*
X170203905Y-142364381D01*
X171632477Y-141364381D02*
X171442000Y-141364381D01*
X171346762Y-141412000D01*
X171299143Y-141459619D01*
X171203905Y-141602476D01*
X171156286Y-141792952D01*
X171156286Y-142173905D01*
X171203905Y-142269143D01*
X171251524Y-142316762D01*
X171346762Y-142364381D01*
X171537239Y-142364381D01*
X171632477Y-142316762D01*
X171680096Y-142269143D01*
X171727715Y-142173905D01*
X171727715Y-141935810D01*
X171680096Y-141840571D01*
X171632477Y-141792952D01*
X171537239Y-141745333D01*
X171346762Y-141745333D01*
X171251524Y-141792952D01*
X171203905Y-141840571D01*
X171156286Y-141935810D01*
X170203905Y-138554381D02*
X170203905Y-137554381D01*
X170442000Y-137554381D01*
X170584858Y-137602000D01*
X170680096Y-137697238D01*
X170727715Y-137792476D01*
X170775334Y-137982952D01*
X170775334Y-138125810D01*
X170727715Y-138316286D01*
X170680096Y-138411524D01*
X170584858Y-138506762D01*
X170442000Y-138554381D01*
X170203905Y-138554381D01*
X171680096Y-137554381D02*
X171203905Y-137554381D01*
X171156286Y-138030571D01*
X171203905Y-137982952D01*
X171299143Y-137935333D01*
X171537239Y-137935333D01*
X171632477Y-137982952D01*
X171680096Y-138030571D01*
X171727715Y-138125810D01*
X171727715Y-138363905D01*
X171680096Y-138459143D01*
X171632477Y-138506762D01*
X171537239Y-138554381D01*
X171299143Y-138554381D01*
X171203905Y-138506762D01*
X171156286Y-138459143D01*
X170203905Y-134744381D02*
X170203905Y-133744381D01*
X170442000Y-133744381D01*
X170584858Y-133792000D01*
X170680096Y-133887238D01*
X170727715Y-133982476D01*
X170775334Y-134172952D01*
X170775334Y-134315810D01*
X170727715Y-134506286D01*
X170680096Y-134601524D01*
X170584858Y-134696762D01*
X170442000Y-134744381D01*
X170203905Y-134744381D01*
X171632477Y-134077714D02*
X171632477Y-134744381D01*
X171394381Y-133696762D02*
X171156286Y-134411048D01*
X171775334Y-134411048D01*
X170203905Y-130934381D02*
X170203905Y-129934381D01*
X170442000Y-129934381D01*
X170584858Y-129982000D01*
X170680096Y-130077238D01*
X170727715Y-130172476D01*
X170775334Y-130362952D01*
X170775334Y-130505810D01*
X170727715Y-130696286D01*
X170680096Y-130791524D01*
X170584858Y-130886762D01*
X170442000Y-130934381D01*
X170203905Y-130934381D01*
X171108667Y-129934381D02*
X171727715Y-129934381D01*
X171394381Y-130315333D01*
X171537239Y-130315333D01*
X171632477Y-130362952D01*
X171680096Y-130410571D01*
X171727715Y-130505810D01*
X171727715Y-130743905D01*
X171680096Y-130839143D01*
X171632477Y-130886762D01*
X171537239Y-130934381D01*
X171251524Y-130934381D01*
X171156286Y-130886762D01*
X171108667Y-130839143D01*
X168933905Y-73424381D02*
X168933905Y-72424381D01*
X169172000Y-72424381D01*
X169314858Y-72472000D01*
X169410096Y-72567238D01*
X169457715Y-72662476D01*
X169505334Y-72852952D01*
X169505334Y-72995810D01*
X169457715Y-73186286D01*
X169410096Y-73281524D01*
X169314858Y-73376762D01*
X169172000Y-73424381D01*
X168933905Y-73424381D01*
X169886286Y-72519619D02*
X169933905Y-72472000D01*
X170029143Y-72424381D01*
X170267239Y-72424381D01*
X170362477Y-72472000D01*
X170410096Y-72519619D01*
X170457715Y-72614857D01*
X170457715Y-72710095D01*
X170410096Y-72852952D01*
X169838667Y-73424381D01*
X170457715Y-73424381D01*
X162159281Y-119317995D02*
X161159281Y-119317995D01*
X161159281Y-119079900D01*
X161206900Y-118937042D01*
X161302138Y-118841804D01*
X161397376Y-118794185D01*
X161587852Y-118746566D01*
X161730710Y-118746566D01*
X161921186Y-118794185D01*
X162016424Y-118841804D01*
X162111662Y-118937042D01*
X162159281Y-119079900D01*
X162159281Y-119317995D01*
X162159281Y-117794185D02*
X162159281Y-118365614D01*
X162159281Y-118079900D02*
X161159281Y-118079900D01*
X161302138Y-118175138D01*
X161397376Y-118270376D01*
X161444995Y-118365614D01*
X169505334Y-71199143D02*
X169457715Y-71246762D01*
X169314858Y-71294381D01*
X169219620Y-71294381D01*
X169076762Y-71246762D01*
X168981524Y-71151524D01*
X168933905Y-71056286D01*
X168886286Y-70865810D01*
X168886286Y-70722952D01*
X168933905Y-70532476D01*
X168981524Y-70437238D01*
X169076762Y-70342000D01*
X169219620Y-70294381D01*
X169314858Y-70294381D01*
X169457715Y-70342000D01*
X169505334Y-70389619D01*
X170362477Y-70627714D02*
X170362477Y-71294381D01*
X170124381Y-70246762D02*
X169886286Y-70961048D01*
X170505334Y-70961048D01*
X160721443Y-114720666D02*
X160769062Y-114768285D01*
X160816681Y-114911142D01*
X160816681Y-115006380D01*
X160769062Y-115149238D01*
X160673824Y-115244476D01*
X160578586Y-115292095D01*
X160388110Y-115339714D01*
X160245252Y-115339714D01*
X160054776Y-115292095D01*
X159959538Y-115244476D01*
X159864300Y-115149238D01*
X159816681Y-115006380D01*
X159816681Y-114911142D01*
X159864300Y-114768285D01*
X159911919Y-114720666D01*
X159816681Y-114387333D02*
X159816681Y-113768285D01*
X160197633Y-114101619D01*
X160197633Y-113958761D01*
X160245252Y-113863523D01*
X160292871Y-113815904D01*
X160388110Y-113768285D01*
X160626205Y-113768285D01*
X160721443Y-113815904D01*
X160769062Y-113863523D01*
X160816681Y-113958761D01*
X160816681Y-114244476D01*
X160769062Y-114339714D01*
X160721443Y-114387333D01*
X161885334Y-68199143D02*
X161837715Y-68246762D01*
X161694858Y-68294381D01*
X161599620Y-68294381D01*
X161456762Y-68246762D01*
X161361524Y-68151524D01*
X161313905Y-68056286D01*
X161266286Y-67865810D01*
X161266286Y-67722952D01*
X161313905Y-67532476D01*
X161361524Y-67437238D01*
X161456762Y-67342000D01*
X161599620Y-67294381D01*
X161694858Y-67294381D01*
X161837715Y-67342000D01*
X161885334Y-67389619D01*
X162266286Y-67389619D02*
X162313905Y-67342000D01*
X162409143Y-67294381D01*
X162647239Y-67294381D01*
X162742477Y-67342000D01*
X162790096Y-67389619D01*
X162837715Y-67484857D01*
X162837715Y-67580095D01*
X162790096Y-67722952D01*
X162218667Y-68294381D01*
X162837715Y-68294381D01*
X157772243Y-107126066D02*
X157819862Y-107173685D01*
X157867481Y-107316542D01*
X157867481Y-107411780D01*
X157819862Y-107554638D01*
X157724624Y-107649876D01*
X157629386Y-107697495D01*
X157438910Y-107745114D01*
X157296052Y-107745114D01*
X157105576Y-107697495D01*
X157010338Y-107649876D01*
X156915100Y-107554638D01*
X156867481Y-107411780D01*
X156867481Y-107316542D01*
X156915100Y-107173685D01*
X156962719Y-107126066D01*
X157867481Y-106173685D02*
X157867481Y-106745114D01*
X157867481Y-106459400D02*
X156867481Y-106459400D01*
X157010338Y-106554638D01*
X157105576Y-106649876D01*
X157153195Y-106745114D01*
X138382477Y-122344381D02*
X138382477Y-123058667D01*
X138334857Y-123201524D01*
X138239619Y-123296762D01*
X138096762Y-123344381D01*
X138001524Y-123344381D01*
X138811048Y-122439619D02*
X138858667Y-122392000D01*
X138953905Y-122344381D01*
X139192001Y-122344381D01*
X139287239Y-122392000D01*
X139334858Y-122439619D01*
X139382477Y-122534857D01*
X139382477Y-122630095D01*
X139334858Y-122772952D01*
X138763429Y-123344381D01*
X139382477Y-123344381D01*
X139715810Y-122344381D02*
X140334858Y-122344381D01*
X140001524Y-122725333D01*
X140144382Y-122725333D01*
X140239620Y-122772952D01*
X140287239Y-122820571D01*
X140334858Y-122915810D01*
X140334858Y-123153905D01*
X140287239Y-123249143D01*
X140239620Y-123296762D01*
X140144382Y-123344381D01*
X139858667Y-123344381D01*
X139763429Y-123296762D01*
X139715810Y-123249143D01*
X77898667Y-122344381D02*
X77898667Y-123058667D01*
X77851047Y-123201524D01*
X77755809Y-123296762D01*
X77612952Y-123344381D01*
X77517714Y-123344381D01*
X78851048Y-122344381D02*
X78374857Y-122344381D01*
X78327238Y-122820571D01*
X78374857Y-122772952D01*
X78470095Y-122725333D01*
X78708191Y-122725333D01*
X78803429Y-122772952D01*
X78851048Y-122820571D01*
X78898667Y-122915810D01*
X78898667Y-123153905D01*
X78851048Y-123249143D01*
X78803429Y-123296762D01*
X78708191Y-123344381D01*
X78470095Y-123344381D01*
X78374857Y-123296762D01*
X78327238Y-123249143D01*
X108775667Y-72461381D02*
X108442333Y-71985190D01*
X108204238Y-72461381D02*
X108204238Y-71461381D01*
X108585191Y-71461381D01*
X108680429Y-71509000D01*
X108728048Y-71556619D01*
X108775667Y-71651857D01*
X108775667Y-71794714D01*
X108728048Y-71889952D01*
X108680429Y-71937571D01*
X108585191Y-71985190D01*
X108204238Y-71985190D01*
X109204238Y-71937571D02*
X109537572Y-71937571D01*
X109680429Y-72461381D02*
X109204238Y-72461381D01*
X109204238Y-71461381D01*
X109680429Y-71461381D01*
X110442334Y-71937571D02*
X110109000Y-71937571D01*
X110109000Y-72461381D02*
X110109000Y-71461381D01*
X110585191Y-71461381D01*
X111109000Y-71461381D02*
X111109000Y-71699476D01*
X110870905Y-71604238D02*
X111109000Y-71699476D01*
X111347096Y-71604238D01*
X110966143Y-71889952D02*
X111109000Y-71699476D01*
X111251858Y-71889952D01*
X111870905Y-71461381D02*
X111870905Y-71699476D01*
X111632810Y-71604238D02*
X111870905Y-71699476D01*
X112109001Y-71604238D01*
X111728048Y-71889952D02*
X111870905Y-71699476D01*
X112013763Y-71889952D01*
X64706667Y-227392381D02*
X64373333Y-226916190D01*
X64135238Y-227392381D02*
X64135238Y-226392381D01*
X64516191Y-226392381D01*
X64611429Y-226440000D01*
X64659048Y-226487619D01*
X64706667Y-226582857D01*
X64706667Y-226725714D01*
X64659048Y-226820952D01*
X64611429Y-226868571D01*
X64516191Y-226916190D01*
X64135238Y-226916190D01*
X65135238Y-226868571D02*
X65468572Y-226868571D01*
X65611429Y-227392381D02*
X65135238Y-227392381D01*
X65135238Y-226392381D01*
X65611429Y-226392381D01*
X66373334Y-226868571D02*
X66040000Y-226868571D01*
X66040000Y-227392381D02*
X66040000Y-226392381D01*
X66516191Y-226392381D01*
X67040000Y-226392381D02*
X67040000Y-226630476D01*
X66801905Y-226535238D02*
X67040000Y-226630476D01*
X67278096Y-226535238D01*
X66897143Y-226820952D02*
X67040000Y-226630476D01*
X67182858Y-226820952D01*
X67801905Y-226392381D02*
X67801905Y-226630476D01*
X67563810Y-226535238D02*
X67801905Y-226630476D01*
X68040001Y-226535238D01*
X67659048Y-226820952D02*
X67801905Y-226630476D01*
X67944763Y-226820952D01*
X175196667Y-227392381D02*
X174863333Y-226916190D01*
X174625238Y-227392381D02*
X174625238Y-226392381D01*
X175006191Y-226392381D01*
X175101429Y-226440000D01*
X175149048Y-226487619D01*
X175196667Y-226582857D01*
X175196667Y-226725714D01*
X175149048Y-226820952D01*
X175101429Y-226868571D01*
X175006191Y-226916190D01*
X174625238Y-226916190D01*
X175625238Y-226868571D02*
X175958572Y-226868571D01*
X176101429Y-227392381D02*
X175625238Y-227392381D01*
X175625238Y-226392381D01*
X176101429Y-226392381D01*
X176863334Y-226868571D02*
X176530000Y-226868571D01*
X176530000Y-227392381D02*
X176530000Y-226392381D01*
X177006191Y-226392381D01*
X177530000Y-226392381D02*
X177530000Y-226630476D01*
X177291905Y-226535238D02*
X177530000Y-226630476D01*
X177768096Y-226535238D01*
X177387143Y-226820952D02*
X177530000Y-226630476D01*
X177672858Y-226820952D01*
X178291905Y-226392381D02*
X178291905Y-226630476D01*
X178053810Y-226535238D02*
X178291905Y-226630476D01*
X178530001Y-226535238D01*
X178149048Y-226820952D02*
X178291905Y-226630476D01*
X178434763Y-226820952D01*
X64706667Y-50862381D02*
X64373333Y-50386190D01*
X64135238Y-50862381D02*
X64135238Y-49862381D01*
X64516191Y-49862381D01*
X64611429Y-49910000D01*
X64659048Y-49957619D01*
X64706667Y-50052857D01*
X64706667Y-50195714D01*
X64659048Y-50290952D01*
X64611429Y-50338571D01*
X64516191Y-50386190D01*
X64135238Y-50386190D01*
X65135238Y-50338571D02*
X65468572Y-50338571D01*
X65611429Y-50862381D02*
X65135238Y-50862381D01*
X65135238Y-49862381D01*
X65611429Y-49862381D01*
X66373334Y-50338571D02*
X66040000Y-50338571D01*
X66040000Y-50862381D02*
X66040000Y-49862381D01*
X66516191Y-49862381D01*
X67040000Y-49862381D02*
X67040000Y-50100476D01*
X66801905Y-50005238D02*
X67040000Y-50100476D01*
X67278096Y-50005238D01*
X66897143Y-50290952D02*
X67040000Y-50100476D01*
X67182858Y-50290952D01*
X67801905Y-49862381D02*
X67801905Y-50100476D01*
X67563810Y-50005238D02*
X67801905Y-50100476D01*
X68040001Y-50005238D01*
X67659048Y-50290952D02*
X67801905Y-50100476D01*
X67944763Y-50290952D01*
X64706667Y-91502381D02*
X64373333Y-91026190D01*
X64135238Y-91502381D02*
X64135238Y-90502381D01*
X64516191Y-90502381D01*
X64611429Y-90550000D01*
X64659048Y-90597619D01*
X64706667Y-90692857D01*
X64706667Y-90835714D01*
X64659048Y-90930952D01*
X64611429Y-90978571D01*
X64516191Y-91026190D01*
X64135238Y-91026190D01*
X65135238Y-90978571D02*
X65468572Y-90978571D01*
X65611429Y-91502381D02*
X65135238Y-91502381D01*
X65135238Y-90502381D01*
X65611429Y-90502381D01*
X66373334Y-90978571D02*
X66040000Y-90978571D01*
X66040000Y-91502381D02*
X66040000Y-90502381D01*
X66516191Y-90502381D01*
X67040000Y-90502381D02*
X67040000Y-90740476D01*
X66801905Y-90645238D02*
X67040000Y-90740476D01*
X67278096Y-90645238D01*
X66897143Y-90930952D02*
X67040000Y-90740476D01*
X67182858Y-90930952D01*
X67801905Y-90502381D02*
X67801905Y-90740476D01*
X67563810Y-90645238D02*
X67801905Y-90740476D01*
X68040001Y-90645238D01*
X67659048Y-90930952D02*
X67801905Y-90740476D01*
X67944763Y-90930952D01*
X64706667Y-149922381D02*
X64373333Y-149446190D01*
X64135238Y-149922381D02*
X64135238Y-148922381D01*
X64516191Y-148922381D01*
X64611429Y-148970000D01*
X64659048Y-149017619D01*
X64706667Y-149112857D01*
X64706667Y-149255714D01*
X64659048Y-149350952D01*
X64611429Y-149398571D01*
X64516191Y-149446190D01*
X64135238Y-149446190D01*
X65135238Y-149398571D02*
X65468572Y-149398571D01*
X65611429Y-149922381D02*
X65135238Y-149922381D01*
X65135238Y-148922381D01*
X65611429Y-148922381D01*
X66373334Y-149398571D02*
X66040000Y-149398571D01*
X66040000Y-149922381D02*
X66040000Y-148922381D01*
X66516191Y-148922381D01*
X67040000Y-148922381D02*
X67040000Y-149160476D01*
X66801905Y-149065238D02*
X67040000Y-149160476D01*
X67278096Y-149065238D01*
X66897143Y-149350952D02*
X67040000Y-149160476D01*
X67182858Y-149350952D01*
X67801905Y-148922381D02*
X67801905Y-149160476D01*
X67563810Y-149065238D02*
X67801905Y-149160476D01*
X68040001Y-149065238D01*
X67659048Y-149350952D02*
X67801905Y-149160476D01*
X67944763Y-149350952D01*
X145986667Y-149922381D02*
X145653333Y-149446190D01*
X145415238Y-149922381D02*
X145415238Y-148922381D01*
X145796191Y-148922381D01*
X145891429Y-148970000D01*
X145939048Y-149017619D01*
X145986667Y-149112857D01*
X145986667Y-149255714D01*
X145939048Y-149350952D01*
X145891429Y-149398571D01*
X145796191Y-149446190D01*
X145415238Y-149446190D01*
X146415238Y-149398571D02*
X146748572Y-149398571D01*
X146891429Y-149922381D02*
X146415238Y-149922381D01*
X146415238Y-148922381D01*
X146891429Y-148922381D01*
X147653334Y-149398571D02*
X147320000Y-149398571D01*
X147320000Y-149922381D02*
X147320000Y-148922381D01*
X147796191Y-148922381D01*
X148320000Y-148922381D02*
X148320000Y-149160476D01*
X148081905Y-149065238D02*
X148320000Y-149160476D01*
X148558096Y-149065238D01*
X148177143Y-149350952D02*
X148320000Y-149160476D01*
X148462858Y-149350952D01*
X149081905Y-148922381D02*
X149081905Y-149160476D01*
X148843810Y-149065238D02*
X149081905Y-149160476D01*
X149320001Y-149065238D01*
X148939048Y-149350952D02*
X149081905Y-149160476D01*
X149224763Y-149350952D01*
X175196667Y-181672381D02*
X174863333Y-181196190D01*
X174625238Y-181672381D02*
X174625238Y-180672381D01*
X175006191Y-180672381D01*
X175101429Y-180720000D01*
X175149048Y-180767619D01*
X175196667Y-180862857D01*
X175196667Y-181005714D01*
X175149048Y-181100952D01*
X175101429Y-181148571D01*
X175006191Y-181196190D01*
X174625238Y-181196190D01*
X175625238Y-181148571D02*
X175958572Y-181148571D01*
X176101429Y-181672381D02*
X175625238Y-181672381D01*
X175625238Y-180672381D01*
X176101429Y-180672381D01*
X176863334Y-181148571D02*
X176530000Y-181148571D01*
X176530000Y-181672381D02*
X176530000Y-180672381D01*
X177006191Y-180672381D01*
X177530000Y-180672381D02*
X177530000Y-180910476D01*
X177291905Y-180815238D02*
X177530000Y-180910476D01*
X177768096Y-180815238D01*
X177387143Y-181100952D02*
X177530000Y-180910476D01*
X177672858Y-181100952D01*
X178291905Y-180672381D02*
X178291905Y-180910476D01*
X178053810Y-180815238D02*
X178291905Y-180910476D01*
X178530001Y-180815238D01*
X178149048Y-181100952D02*
X178291905Y-180910476D01*
X178434763Y-181100952D01*
X74382381Y-198881905D02*
X75191905Y-198881905D01*
X75287143Y-198834286D01*
X75334762Y-198786667D01*
X75382381Y-198691429D01*
X75382381Y-198500952D01*
X75334762Y-198405714D01*
X75287143Y-198358095D01*
X75191905Y-198310476D01*
X74382381Y-198310476D01*
X74810952Y-197691429D02*
X74763333Y-197786667D01*
X74715714Y-197834286D01*
X74620476Y-197881905D01*
X74572857Y-197881905D01*
X74477619Y-197834286D01*
X74430000Y-197786667D01*
X74382381Y-197691429D01*
X74382381Y-197500952D01*
X74430000Y-197405714D01*
X74477619Y-197358095D01*
X74572857Y-197310476D01*
X74620476Y-197310476D01*
X74715714Y-197358095D01*
X74763333Y-197405714D01*
X74810952Y-197500952D01*
X74810952Y-197691429D01*
X74858571Y-197786667D01*
X74906190Y-197834286D01*
X75001429Y-197881905D01*
X75191905Y-197881905D01*
X75287143Y-197834286D01*
X75334762Y-197786667D01*
X75382381Y-197691429D01*
X75382381Y-197500952D01*
X75334762Y-197405714D01*
X75287143Y-197358095D01*
X75191905Y-197310476D01*
X75001429Y-197310476D01*
X74906190Y-197358095D01*
X74858571Y-197405714D01*
X74810952Y-197500952D01*
X72842381Y-193738095D02*
X71842381Y-193738095D01*
X72556667Y-193404761D01*
X71842381Y-193071428D01*
X72842381Y-193071428D01*
X72747143Y-192023809D02*
X72794762Y-192071428D01*
X72842381Y-192214285D01*
X72842381Y-192309523D01*
X72794762Y-192452381D01*
X72699524Y-192547619D01*
X72604286Y-192595238D01*
X72413810Y-192642857D01*
X72270952Y-192642857D01*
X72080476Y-192595238D01*
X71985238Y-192547619D01*
X71890000Y-192452381D01*
X71842381Y-192309523D01*
X71842381Y-192214285D01*
X71890000Y-192071428D01*
X71937619Y-192023809D01*
X72842381Y-191595238D02*
X71842381Y-191595238D01*
X71842381Y-191214285D01*
X71890000Y-191119047D01*
X71937619Y-191071428D01*
X72032857Y-191023809D01*
X72175714Y-191023809D01*
X72270952Y-191071428D01*
X72318571Y-191119047D01*
X72366190Y-191214285D01*
X72366190Y-191595238D01*
X72842381Y-190547619D02*
X72842381Y-190357143D01*
X72794762Y-190261904D01*
X72747143Y-190214285D01*
X72604286Y-190119047D01*
X72413810Y-190071428D01*
X72032857Y-190071428D01*
X71937619Y-190119047D01*
X71890000Y-190166666D01*
X71842381Y-190261904D01*
X71842381Y-190452381D01*
X71890000Y-190547619D01*
X71937619Y-190595238D01*
X72032857Y-190642857D01*
X72270952Y-190642857D01*
X72366190Y-190595238D01*
X72413810Y-190547619D01*
X72461429Y-190452381D01*
X72461429Y-190261904D01*
X72413810Y-190166666D01*
X72366190Y-190119047D01*
X72270952Y-190071428D01*
X72270952Y-189500000D02*
X72223333Y-189595238D01*
X72175714Y-189642857D01*
X72080476Y-189690476D01*
X72032857Y-189690476D01*
X71937619Y-189642857D01*
X71890000Y-189595238D01*
X71842381Y-189500000D01*
X71842381Y-189309523D01*
X71890000Y-189214285D01*
X71937619Y-189166666D01*
X72032857Y-189119047D01*
X72080476Y-189119047D01*
X72175714Y-189166666D01*
X72223333Y-189214285D01*
X72270952Y-189309523D01*
X72270952Y-189500000D01*
X72318571Y-189595238D01*
X72366190Y-189642857D01*
X72461429Y-189690476D01*
X72651905Y-189690476D01*
X72747143Y-189642857D01*
X72794762Y-189595238D01*
X72842381Y-189500000D01*
X72842381Y-189309523D01*
X72794762Y-189214285D01*
X72747143Y-189166666D01*
X72651905Y-189119047D01*
X72461429Y-189119047D01*
X72366190Y-189166666D01*
X72318571Y-189214285D01*
X72270952Y-189309523D01*
X71842381Y-188500000D02*
X71842381Y-188404761D01*
X71890000Y-188309523D01*
X71937619Y-188261904D01*
X72032857Y-188214285D01*
X72223333Y-188166666D01*
X72461429Y-188166666D01*
X72651905Y-188214285D01*
X72747143Y-188261904D01*
X72794762Y-188309523D01*
X72842381Y-188404761D01*
X72842381Y-188500000D01*
X72794762Y-188595238D01*
X72747143Y-188642857D01*
X72651905Y-188690476D01*
X72461429Y-188738095D01*
X72223333Y-188738095D01*
X72032857Y-188690476D01*
X71937619Y-188642857D01*
X71890000Y-188595238D01*
X71842381Y-188500000D01*
X72270952Y-187595238D02*
X72223333Y-187690476D01*
X72175714Y-187738095D01*
X72080476Y-187785714D01*
X72032857Y-187785714D01*
X71937619Y-187738095D01*
X71890000Y-187690476D01*
X71842381Y-187595238D01*
X71842381Y-187404761D01*
X71890000Y-187309523D01*
X71937619Y-187261904D01*
X72032857Y-187214285D01*
X72080476Y-187214285D01*
X72175714Y-187261904D01*
X72223333Y-187309523D01*
X72270952Y-187404761D01*
X72270952Y-187595238D01*
X72318571Y-187690476D01*
X72366190Y-187738095D01*
X72461429Y-187785714D01*
X72651905Y-187785714D01*
X72747143Y-187738095D01*
X72794762Y-187690476D01*
X72842381Y-187595238D01*
X72842381Y-187404761D01*
X72794762Y-187309523D01*
X72747143Y-187261904D01*
X72651905Y-187214285D01*
X72461429Y-187214285D01*
X72366190Y-187261904D01*
X72318571Y-187309523D01*
X72270952Y-187404761D01*
X119467381Y-181578095D02*
X120276905Y-181578095D01*
X120372143Y-181530476D01*
X120419762Y-181482857D01*
X120467381Y-181387619D01*
X120467381Y-181197142D01*
X120419762Y-181101904D01*
X120372143Y-181054285D01*
X120276905Y-181006666D01*
X119467381Y-181006666D01*
X120467381Y-180006666D02*
X120467381Y-180578095D01*
X120467381Y-180292381D02*
X119467381Y-180292381D01*
X119610238Y-180387619D01*
X119705476Y-180482857D01*
X119753095Y-180578095D01*
X119467381Y-179387619D02*
X119467381Y-179292380D01*
X119515000Y-179197142D01*
X119562619Y-179149523D01*
X119657857Y-179101904D01*
X119848333Y-179054285D01*
X120086429Y-179054285D01*
X120276905Y-179101904D01*
X120372143Y-179149523D01*
X120419762Y-179197142D01*
X120467381Y-179292380D01*
X120467381Y-179387619D01*
X120419762Y-179482857D01*
X120372143Y-179530476D01*
X120276905Y-179578095D01*
X120086429Y-179625714D01*
X119848333Y-179625714D01*
X119657857Y-179578095D01*
X119562619Y-179530476D01*
X119515000Y-179482857D01*
X119467381Y-179387619D01*
X120816667Y-191007619D02*
X120816667Y-190531428D01*
X121102381Y-191102857D02*
X120102381Y-190769524D01*
X121102381Y-190436190D01*
X121102381Y-190102857D02*
X120102381Y-190102857D01*
X120102381Y-189864762D01*
X120150000Y-189721904D01*
X120245238Y-189626666D01*
X120340476Y-189579047D01*
X120530952Y-189531428D01*
X120673810Y-189531428D01*
X120864286Y-189579047D01*
X120959524Y-189626666D01*
X121054762Y-189721904D01*
X121102381Y-189864762D01*
X121102381Y-190102857D01*
X120102381Y-189198095D02*
X121102381Y-188531428D01*
X120102381Y-188531428D02*
X121102381Y-189198095D01*
X121102381Y-187674285D02*
X121102381Y-188150476D01*
X120102381Y-188150476D01*
X120102381Y-187436190D02*
X120102381Y-186817142D01*
X120483333Y-187150476D01*
X120483333Y-187007618D01*
X120530952Y-186912380D01*
X120578571Y-186864761D01*
X120673810Y-186817142D01*
X120911905Y-186817142D01*
X121007143Y-186864761D01*
X121054762Y-186912380D01*
X121102381Y-187007618D01*
X121102381Y-187293333D01*
X121054762Y-187388571D01*
X121007143Y-187436190D01*
X120102381Y-186483809D02*
X120102381Y-185817142D01*
X121102381Y-186245714D01*
X120102381Y-185531428D02*
X120102381Y-184864761D01*
X121102381Y-185293333D01*
X115784381Y-226028095D02*
X116593905Y-226028095D01*
X116689143Y-225980476D01*
X116736762Y-225932857D01*
X116784381Y-225837619D01*
X116784381Y-225647142D01*
X116736762Y-225551904D01*
X116689143Y-225504285D01*
X116593905Y-225456666D01*
X115784381Y-225456666D01*
X116784381Y-224456666D02*
X116784381Y-225028095D01*
X116784381Y-224742381D02*
X115784381Y-224742381D01*
X115927238Y-224837619D01*
X116022476Y-224932857D01*
X116070095Y-225028095D01*
X116784381Y-223504285D02*
X116784381Y-224075714D01*
X116784381Y-223790000D02*
X115784381Y-223790000D01*
X115927238Y-223885238D01*
X116022476Y-223980476D01*
X116070095Y-224075714D01*
X121340571Y-221479761D02*
X121388190Y-221336904D01*
X121435810Y-221289285D01*
X121531048Y-221241666D01*
X121673905Y-221241666D01*
X121769143Y-221289285D01*
X121816762Y-221336904D01*
X121864381Y-221432142D01*
X121864381Y-221813095D01*
X120864381Y-221813095D01*
X120864381Y-221479761D01*
X120912000Y-221384523D01*
X120959619Y-221336904D01*
X121054857Y-221289285D01*
X121150095Y-221289285D01*
X121245333Y-221336904D01*
X121292952Y-221384523D01*
X121340571Y-221479761D01*
X121340571Y-221813095D01*
X121864381Y-220813095D02*
X120864381Y-220813095D01*
X121864381Y-220241666D01*
X120864381Y-220241666D01*
X120864381Y-219575000D02*
X120864381Y-219384523D01*
X120912000Y-219289285D01*
X121007238Y-219194047D01*
X121197714Y-219146428D01*
X121531048Y-219146428D01*
X121721524Y-219194047D01*
X121816762Y-219289285D01*
X121864381Y-219384523D01*
X121864381Y-219575000D01*
X121816762Y-219670238D01*
X121721524Y-219765476D01*
X121531048Y-219813095D01*
X121197714Y-219813095D01*
X121007238Y-219765476D01*
X120912000Y-219670238D01*
X120864381Y-219575000D01*
X120864381Y-218527381D02*
X120864381Y-218432142D01*
X120912000Y-218336904D01*
X120959619Y-218289285D01*
X121054857Y-218241666D01*
X121245333Y-218194047D01*
X121483429Y-218194047D01*
X121673905Y-218241666D01*
X121769143Y-218289285D01*
X121816762Y-218336904D01*
X121864381Y-218432142D01*
X121864381Y-218527381D01*
X121816762Y-218622619D01*
X121769143Y-218670238D01*
X121673905Y-218717857D01*
X121483429Y-218765476D01*
X121245333Y-218765476D01*
X121054857Y-218717857D01*
X120959619Y-218670238D01*
X120912000Y-218622619D01*
X120864381Y-218527381D01*
X120864381Y-217289285D02*
X120864381Y-217765476D01*
X121340571Y-217813095D01*
X121292952Y-217765476D01*
X121245333Y-217670238D01*
X121245333Y-217432142D01*
X121292952Y-217336904D01*
X121340571Y-217289285D01*
X121435810Y-217241666D01*
X121673905Y-217241666D01*
X121769143Y-217289285D01*
X121816762Y-217336904D01*
X121864381Y-217432142D01*
X121864381Y-217670238D01*
X121816762Y-217765476D01*
X121769143Y-217813095D01*
X120864381Y-216336904D02*
X120864381Y-216813095D01*
X121340571Y-216860714D01*
X121292952Y-216813095D01*
X121245333Y-216717857D01*
X121245333Y-216479761D01*
X121292952Y-216384523D01*
X121340571Y-216336904D01*
X121435810Y-216289285D01*
X121673905Y-216289285D01*
X121769143Y-216336904D01*
X121816762Y-216384523D01*
X121864381Y-216479761D01*
X121864381Y-216717857D01*
X121816762Y-216813095D01*
X121769143Y-216860714D01*
X82002381Y-219678095D02*
X82811905Y-219678095D01*
X82907143Y-219630476D01*
X82954762Y-219582857D01*
X83002381Y-219487619D01*
X83002381Y-219297142D01*
X82954762Y-219201904D01*
X82907143Y-219154285D01*
X82811905Y-219106666D01*
X82002381Y-219106666D01*
X83002381Y-218106666D02*
X83002381Y-218678095D01*
X83002381Y-218392381D02*
X82002381Y-218392381D01*
X82145238Y-218487619D01*
X82240476Y-218582857D01*
X82288095Y-218678095D01*
X82097619Y-217725714D02*
X82050000Y-217678095D01*
X82002381Y-217582857D01*
X82002381Y-217344761D01*
X82050000Y-217249523D01*
X82097619Y-217201904D01*
X82192857Y-217154285D01*
X82288095Y-217154285D01*
X82430952Y-217201904D01*
X83002381Y-217773333D01*
X83002381Y-217154285D01*
X159797905Y-222972381D02*
X159797905Y-223781905D01*
X159845524Y-223877143D01*
X159893143Y-223924762D01*
X159988381Y-223972381D01*
X160178858Y-223972381D01*
X160274096Y-223924762D01*
X160321715Y-223877143D01*
X160369334Y-223781905D01*
X160369334Y-222972381D01*
X161369334Y-223972381D02*
X160797905Y-223972381D01*
X161083619Y-223972381D02*
X161083619Y-222972381D01*
X160988381Y-223115238D01*
X160893143Y-223210476D01*
X160797905Y-223258095D01*
X161702667Y-222972381D02*
X162321715Y-222972381D01*
X161988381Y-223353333D01*
X162131239Y-223353333D01*
X162226477Y-223400952D01*
X162274096Y-223448571D01*
X162321715Y-223543810D01*
X162321715Y-223781905D01*
X162274096Y-223877143D01*
X162226477Y-223924762D01*
X162131239Y-223972381D01*
X161845524Y-223972381D01*
X161750286Y-223924762D01*
X161702667Y-223877143D01*
X153924571Y-214796667D02*
X154400762Y-214796667D01*
X153829333Y-215082381D02*
X154162666Y-214082381D01*
X154496000Y-215082381D01*
X155257905Y-215082381D02*
X155257905Y-214082381D01*
X155257905Y-215034762D02*
X155162667Y-215082381D01*
X154972190Y-215082381D01*
X154876952Y-215034762D01*
X154829333Y-214987143D01*
X154781714Y-214891905D01*
X154781714Y-214606190D01*
X154829333Y-214510952D01*
X154876952Y-214463333D01*
X154972190Y-214415714D01*
X155162667Y-214415714D01*
X155257905Y-214463333D01*
X156162667Y-215082381D02*
X156162667Y-214558571D01*
X156115048Y-214463333D01*
X156019810Y-214415714D01*
X155829333Y-214415714D01*
X155734095Y-214463333D01*
X156162667Y-215034762D02*
X156067429Y-215082381D01*
X155829333Y-215082381D01*
X155734095Y-215034762D01*
X155686476Y-214939524D01*
X155686476Y-214844286D01*
X155734095Y-214749048D01*
X155829333Y-214701429D01*
X156067429Y-214701429D01*
X156162667Y-214653810D01*
X156496000Y-214415714D02*
X156876952Y-214415714D01*
X156638857Y-215082381D02*
X156638857Y-214225238D01*
X156686476Y-214130000D01*
X156781714Y-214082381D01*
X156876952Y-214082381D01*
X157210286Y-215082381D02*
X157210286Y-214415714D01*
X157210286Y-214606190D02*
X157257905Y-214510952D01*
X157305524Y-214463333D01*
X157400762Y-214415714D01*
X157496001Y-214415714D01*
X158257906Y-214415714D02*
X158257906Y-215082381D01*
X157829334Y-214415714D02*
X157829334Y-214939524D01*
X157876953Y-215034762D01*
X157972191Y-215082381D01*
X158115049Y-215082381D01*
X158210287Y-215034762D01*
X158257906Y-214987143D01*
X158734096Y-215082381D02*
X158734096Y-214415714D01*
X158734096Y-214082381D02*
X158686477Y-214130000D01*
X158734096Y-214177619D01*
X158781715Y-214130000D01*
X158734096Y-214082381D01*
X158734096Y-214177619D01*
X159067429Y-214415714D02*
X159448381Y-214415714D01*
X159210286Y-214082381D02*
X159210286Y-214939524D01*
X159257905Y-215034762D01*
X159353143Y-215082381D01*
X159448381Y-215082381D01*
X161067430Y-214130000D02*
X160972192Y-214082381D01*
X160829335Y-214082381D01*
X160686477Y-214130000D01*
X160591239Y-214225238D01*
X160543620Y-214320476D01*
X160496001Y-214510952D01*
X160496001Y-214653810D01*
X160543620Y-214844286D01*
X160591239Y-214939524D01*
X160686477Y-215034762D01*
X160829335Y-215082381D01*
X160924573Y-215082381D01*
X161067430Y-215034762D01*
X161115049Y-214987143D01*
X161115049Y-214653810D01*
X160924573Y-214653810D01*
X161543620Y-215082381D02*
X161543620Y-214082381D01*
X161924573Y-214082381D01*
X162019811Y-214130000D01*
X162067430Y-214177619D01*
X162115049Y-214272857D01*
X162115049Y-214415714D01*
X162067430Y-214510952D01*
X162019811Y-214558571D01*
X161924573Y-214606190D01*
X161543620Y-214606190D01*
X162496001Y-215034762D02*
X162638858Y-215082381D01*
X162876954Y-215082381D01*
X162972192Y-215034762D01*
X163019811Y-214987143D01*
X163067430Y-214891905D01*
X163067430Y-214796667D01*
X163019811Y-214701429D01*
X162972192Y-214653810D01*
X162876954Y-214606190D01*
X162686477Y-214558571D01*
X162591239Y-214510952D01*
X162543620Y-214463333D01*
X162496001Y-214368095D01*
X162496001Y-214272857D01*
X162543620Y-214177619D01*
X162591239Y-214130000D01*
X162686477Y-214082381D01*
X162924573Y-214082381D01*
X163067430Y-214130000D01*
X175196667Y-50862381D02*
X174863333Y-50386190D01*
X174625238Y-50862381D02*
X174625238Y-49862381D01*
X175006191Y-49862381D01*
X175101429Y-49910000D01*
X175149048Y-49957619D01*
X175196667Y-50052857D01*
X175196667Y-50195714D01*
X175149048Y-50290952D01*
X175101429Y-50338571D01*
X175006191Y-50386190D01*
X174625238Y-50386190D01*
X175625238Y-50338571D02*
X175958572Y-50338571D01*
X176101429Y-50862381D02*
X175625238Y-50862381D01*
X175625238Y-49862381D01*
X176101429Y-49862381D01*
X176863334Y-50338571D02*
X176530000Y-50338571D01*
X176530000Y-50862381D02*
X176530000Y-49862381D01*
X177006191Y-49862381D01*
X177530000Y-49862381D02*
X177530000Y-50100476D01*
X177291905Y-50005238D02*
X177530000Y-50100476D01*
X177768096Y-50005238D01*
X177387143Y-50290952D02*
X177530000Y-50100476D01*
X177672858Y-50290952D01*
X178291905Y-49862381D02*
X178291905Y-50100476D01*
X178053810Y-50005238D02*
X178291905Y-50100476D01*
X178530001Y-50005238D01*
X178149048Y-50290952D02*
X178291905Y-50100476D01*
X178434763Y-50290952D01*
X98996667Y-227392381D02*
X98663333Y-226916190D01*
X98425238Y-227392381D02*
X98425238Y-226392381D01*
X98806191Y-226392381D01*
X98901429Y-226440000D01*
X98949048Y-226487619D01*
X98996667Y-226582857D01*
X98996667Y-226725714D01*
X98949048Y-226820952D01*
X98901429Y-226868571D01*
X98806191Y-226916190D01*
X98425238Y-226916190D01*
X99425238Y-226868571D02*
X99758572Y-226868571D01*
X99901429Y-227392381D02*
X99425238Y-227392381D01*
X99425238Y-226392381D01*
X99901429Y-226392381D01*
X100663334Y-226868571D02*
X100330000Y-226868571D01*
X100330000Y-227392381D02*
X100330000Y-226392381D01*
X100806191Y-226392381D01*
X101330000Y-226392381D02*
X101330000Y-226630476D01*
X101091905Y-226535238D02*
X101330000Y-226630476D01*
X101568096Y-226535238D01*
X101187143Y-226820952D02*
X101330000Y-226630476D01*
X101472858Y-226820952D01*
X102091905Y-226392381D02*
X102091905Y-226630476D01*
X101853810Y-226535238D02*
X102091905Y-226630476D01*
X102330001Y-226535238D01*
X101949048Y-226820952D02*
X102091905Y-226630476D01*
X102234763Y-226820952D01*
X138366667Y-227392381D02*
X138033333Y-226916190D01*
X137795238Y-227392381D02*
X137795238Y-226392381D01*
X138176191Y-226392381D01*
X138271429Y-226440000D01*
X138319048Y-226487619D01*
X138366667Y-226582857D01*
X138366667Y-226725714D01*
X138319048Y-226820952D01*
X138271429Y-226868571D01*
X138176191Y-226916190D01*
X137795238Y-226916190D01*
X138795238Y-226868571D02*
X139128572Y-226868571D01*
X139271429Y-227392381D02*
X138795238Y-227392381D01*
X138795238Y-226392381D01*
X139271429Y-226392381D01*
X140033334Y-226868571D02*
X139700000Y-226868571D01*
X139700000Y-227392381D02*
X139700000Y-226392381D01*
X140176191Y-226392381D01*
X140700000Y-226392381D02*
X140700000Y-226630476D01*
X140461905Y-226535238D02*
X140700000Y-226630476D01*
X140938096Y-226535238D01*
X140557143Y-226820952D02*
X140700000Y-226630476D01*
X140842858Y-226820952D01*
X141461905Y-226392381D02*
X141461905Y-226630476D01*
X141223810Y-226535238D02*
X141461905Y-226630476D01*
X141700001Y-226535238D01*
X141319048Y-226820952D02*
X141461905Y-226630476D01*
X141604763Y-226820952D01*
X162226667Y-105497381D02*
X162226667Y-106211667D01*
X162179047Y-106354524D01*
X162083809Y-106449762D01*
X161940952Y-106497381D01*
X161845714Y-106497381D01*
X162845714Y-105925952D02*
X162750476Y-105878333D01*
X162702857Y-105830714D01*
X162655238Y-105735476D01*
X162655238Y-105687857D01*
X162702857Y-105592619D01*
X162750476Y-105545000D01*
X162845714Y-105497381D01*
X163036191Y-105497381D01*
X163131429Y-105545000D01*
X163179048Y-105592619D01*
X163226667Y-105687857D01*
X163226667Y-105735476D01*
X163179048Y-105830714D01*
X163131429Y-105878333D01*
X163036191Y-105925952D01*
X162845714Y-105925952D01*
X162750476Y-105973571D01*
X162702857Y-106021190D01*
X162655238Y-106116429D01*
X162655238Y-106306905D01*
X162702857Y-106402143D01*
X162750476Y-106449762D01*
X162845714Y-106497381D01*
X163036191Y-106497381D01*
X163131429Y-106449762D01*
X163179048Y-106402143D01*
X163226667Y-106306905D01*
X163226667Y-106116429D01*
X163179048Y-106021190D01*
X163131429Y-105973571D01*
X163036191Y-105925952D01*
X161750477Y-95972381D02*
X161750477Y-96686667D01*
X161702857Y-96829524D01*
X161607619Y-96924762D01*
X161464762Y-96972381D01*
X161369524Y-96972381D01*
X162750477Y-96972381D02*
X162179048Y-96972381D01*
X162464762Y-96972381D02*
X162464762Y-95972381D01*
X162369524Y-96115238D01*
X162274286Y-96210476D01*
X162179048Y-96258095D01*
X163083810Y-95972381D02*
X163750477Y-95972381D01*
X163321905Y-96972381D01*
M02*
