G04 #@! TF.FileFunction,Legend,Top*
%FSLAX46Y46*%
G04 Gerber Fmt 4.6, Leading zero omitted, Abs format (unit mm)*
G04 Created by KiCad (PCBNEW 4.0.6) date 06/10/17 13:14:14*
%MOMM*%
%LPD*%
G01*
G04 APERTURE LIST*
%ADD10C,0.100000*%
%ADD11C,0.300000*%
%ADD12C,0.200000*%
%ADD13C,0.508000*%
%ADD14C,0.120000*%
%ADD15C,0.150000*%
G04 APERTURE END LIST*
D10*
D11*
X234061143Y-77482000D02*
X233918286Y-77410571D01*
X233704000Y-77410571D01*
X233489715Y-77482000D01*
X233346857Y-77624857D01*
X233275429Y-77767714D01*
X233204000Y-78053429D01*
X233204000Y-78267714D01*
X233275429Y-78553429D01*
X233346857Y-78696286D01*
X233489715Y-78839143D01*
X233704000Y-78910571D01*
X233846857Y-78910571D01*
X234061143Y-78839143D01*
X234132572Y-78767714D01*
X234132572Y-78267714D01*
X233846857Y-78267714D01*
X234775429Y-78910571D02*
X234775429Y-77410571D01*
X235632572Y-78910571D01*
X235632572Y-77410571D01*
X236346858Y-78910571D02*
X236346858Y-77410571D01*
X236704001Y-77410571D01*
X236918286Y-77482000D01*
X237061144Y-77624857D01*
X237132572Y-77767714D01*
X237204001Y-78053429D01*
X237204001Y-78267714D01*
X237132572Y-78553429D01*
X237061144Y-78696286D01*
X236918286Y-78839143D01*
X236704001Y-78910571D01*
X236346858Y-78910571D01*
X233346858Y-79950571D02*
X234275429Y-79950571D01*
X233775429Y-80522000D01*
X233989715Y-80522000D01*
X234132572Y-80593429D01*
X234204001Y-80664857D01*
X234275429Y-80807714D01*
X234275429Y-81164857D01*
X234204001Y-81307714D01*
X234132572Y-81379143D01*
X233989715Y-81450571D01*
X233561143Y-81450571D01*
X233418286Y-81379143D01*
X233346858Y-81307714D01*
X234704000Y-79950571D02*
X235204000Y-81450571D01*
X235704000Y-79950571D01*
X236061143Y-79950571D02*
X236989714Y-79950571D01*
X236489714Y-80522000D01*
X236704000Y-80522000D01*
X236846857Y-80593429D01*
X236918286Y-80664857D01*
X236989714Y-80807714D01*
X236989714Y-81164857D01*
X236918286Y-81307714D01*
X236846857Y-81379143D01*
X236704000Y-81450571D01*
X236275428Y-81450571D01*
X236132571Y-81379143D01*
X236061143Y-81307714D01*
X233553143Y-101794571D02*
X234410286Y-101794571D01*
X233981715Y-103294571D02*
X233981715Y-101794571D01*
X234767429Y-101794571D02*
X235767429Y-103294571D01*
X235767429Y-101794571D02*
X234767429Y-103294571D01*
X234446001Y-100754571D02*
X233946001Y-100040286D01*
X233588858Y-100754571D02*
X233588858Y-99254571D01*
X234160286Y-99254571D01*
X234303144Y-99326000D01*
X234374572Y-99397429D01*
X234446001Y-99540286D01*
X234446001Y-99754571D01*
X234374572Y-99897429D01*
X234303144Y-99968857D01*
X234160286Y-100040286D01*
X233588858Y-100040286D01*
X234946001Y-99254571D02*
X235946001Y-100754571D01*
X235946001Y-99254571D02*
X234946001Y-100754571D01*
X234569143Y-104406000D02*
X234426286Y-104334571D01*
X234212000Y-104334571D01*
X233997715Y-104406000D01*
X233854857Y-104548857D01*
X233783429Y-104691714D01*
X233712000Y-104977429D01*
X233712000Y-105191714D01*
X233783429Y-105477429D01*
X233854857Y-105620286D01*
X233997715Y-105763143D01*
X234212000Y-105834571D01*
X234354857Y-105834571D01*
X234569143Y-105763143D01*
X234640572Y-105691714D01*
X234640572Y-105191714D01*
X234354857Y-105191714D01*
X235283429Y-105834571D02*
X235283429Y-104334571D01*
X236140572Y-105834571D01*
X236140572Y-104334571D01*
X236854858Y-105834571D02*
X236854858Y-104334571D01*
X237212001Y-104334571D01*
X237426286Y-104406000D01*
X237569144Y-104548857D01*
X237640572Y-104691714D01*
X237712001Y-104977429D01*
X237712001Y-105191714D01*
X237640572Y-105477429D01*
X237569144Y-105620286D01*
X237426286Y-105763143D01*
X237212001Y-105834571D01*
X236854858Y-105834571D01*
X233854858Y-106874571D02*
X234783429Y-106874571D01*
X234283429Y-107446000D01*
X234497715Y-107446000D01*
X234640572Y-107517429D01*
X234712001Y-107588857D01*
X234783429Y-107731714D01*
X234783429Y-108088857D01*
X234712001Y-108231714D01*
X234640572Y-108303143D01*
X234497715Y-108374571D01*
X234069143Y-108374571D01*
X233926286Y-108303143D01*
X233854858Y-108231714D01*
X235212000Y-106874571D02*
X235712000Y-108374571D01*
X236212000Y-106874571D01*
X236569143Y-106874571D02*
X237497714Y-106874571D01*
X236997714Y-107446000D01*
X237212000Y-107446000D01*
X237354857Y-107517429D01*
X237426286Y-107588857D01*
X237497714Y-107731714D01*
X237497714Y-108088857D01*
X237426286Y-108231714D01*
X237354857Y-108303143D01*
X237212000Y-108374571D01*
X236783428Y-108374571D01*
X236640571Y-108303143D01*
X236569143Y-108231714D01*
X194191428Y-82038000D02*
X194905714Y-82038000D01*
X194048571Y-82466571D02*
X194548571Y-80966571D01*
X195048571Y-82466571D01*
X195548571Y-82466571D02*
X195548571Y-80966571D01*
X196405714Y-82466571D01*
X196405714Y-80966571D01*
X197048571Y-82038000D02*
X197762857Y-82038000D01*
X196905714Y-82466571D02*
X197405714Y-80966571D01*
X197905714Y-82466571D01*
X199120000Y-82466571D02*
X198405714Y-82466571D01*
X198405714Y-80966571D01*
X199905714Y-80966571D02*
X200191428Y-80966571D01*
X200334286Y-81038000D01*
X200477143Y-81180857D01*
X200548571Y-81466571D01*
X200548571Y-81966571D01*
X200477143Y-82252286D01*
X200334286Y-82395143D01*
X200191428Y-82466571D01*
X199905714Y-82466571D01*
X199762857Y-82395143D01*
X199620000Y-82252286D01*
X199548571Y-81966571D01*
X199548571Y-81466571D01*
X199620000Y-81180857D01*
X199762857Y-81038000D01*
X199905714Y-80966571D01*
X201977143Y-81038000D02*
X201834286Y-80966571D01*
X201620000Y-80966571D01*
X201405715Y-81038000D01*
X201262857Y-81180857D01*
X201191429Y-81323714D01*
X201120000Y-81609429D01*
X201120000Y-81823714D01*
X201191429Y-82109429D01*
X201262857Y-82252286D01*
X201405715Y-82395143D01*
X201620000Y-82466571D01*
X201762857Y-82466571D01*
X201977143Y-82395143D01*
X202048572Y-82323714D01*
X202048572Y-81823714D01*
X201762857Y-81823714D01*
X192798000Y-89534857D02*
X192726571Y-89677714D01*
X192726571Y-89892000D01*
X192798000Y-90106285D01*
X192940857Y-90249143D01*
X193083714Y-90320571D01*
X193369429Y-90392000D01*
X193583714Y-90392000D01*
X193869429Y-90320571D01*
X194012286Y-90249143D01*
X194155143Y-90106285D01*
X194226571Y-89892000D01*
X194226571Y-89749143D01*
X194155143Y-89534857D01*
X194083714Y-89463428D01*
X193583714Y-89463428D01*
X193583714Y-89749143D01*
X194226571Y-88820571D02*
X192726571Y-88820571D01*
X194226571Y-87963428D01*
X192726571Y-87963428D01*
X194226571Y-87249142D02*
X192726571Y-87249142D01*
X192726571Y-86891999D01*
X192798000Y-86677714D01*
X192940857Y-86534856D01*
X193083714Y-86463428D01*
X193369429Y-86391999D01*
X193583714Y-86391999D01*
X193869429Y-86463428D01*
X194012286Y-86534856D01*
X194155143Y-86677714D01*
X194226571Y-86891999D01*
X194226571Y-87249142D01*
D12*
X203708000Y-83312000D02*
X203708000Y-92456000D01*
D11*
X200906286Y-94907571D02*
X200906286Y-93407571D01*
X201763429Y-94907571D01*
X201763429Y-93407571D01*
X202763429Y-93407571D02*
X203049143Y-93407571D01*
X203192001Y-93479000D01*
X203334858Y-93621857D01*
X203406286Y-93907571D01*
X203406286Y-94407571D01*
X203334858Y-94693286D01*
X203192001Y-94836143D01*
X203049143Y-94907571D01*
X202763429Y-94907571D01*
X202620572Y-94836143D01*
X202477715Y-94693286D01*
X202406286Y-94407571D01*
X202406286Y-93907571D01*
X202477715Y-93621857D01*
X202620572Y-93479000D01*
X202763429Y-93407571D01*
X200870572Y-95957571D02*
X200870572Y-97171857D01*
X200942000Y-97314714D01*
X201013429Y-97386143D01*
X201156286Y-97457571D01*
X201442000Y-97457571D01*
X201584858Y-97386143D01*
X201656286Y-97314714D01*
X201727715Y-97171857D01*
X201727715Y-95957571D01*
X202370572Y-97386143D02*
X202584858Y-97457571D01*
X202942001Y-97457571D01*
X203084858Y-97386143D01*
X203156287Y-97314714D01*
X203227715Y-97171857D01*
X203227715Y-97029000D01*
X203156287Y-96886143D01*
X203084858Y-96814714D01*
X202942001Y-96743286D01*
X202656287Y-96671857D01*
X202513429Y-96600429D01*
X202442001Y-96529000D01*
X202370572Y-96386143D01*
X202370572Y-96243286D01*
X202442001Y-96100429D01*
X202513429Y-96029000D01*
X202656287Y-95957571D01*
X203013429Y-95957571D01*
X203227715Y-96029000D01*
X203870572Y-96671857D02*
X204370572Y-96671857D01*
X204584858Y-97457571D02*
X203870572Y-97457571D01*
X203870572Y-95957571D01*
X204584858Y-95957571D01*
X200604572Y-92198000D02*
X201318858Y-92198000D01*
X200461715Y-92626571D02*
X200961715Y-91126571D01*
X201461715Y-92626571D01*
X201818858Y-91126571D02*
X202747429Y-91126571D01*
X202247429Y-91698000D01*
X202461715Y-91698000D01*
X202604572Y-91769429D01*
X202676001Y-91840857D01*
X202747429Y-91983714D01*
X202747429Y-92340857D01*
X202676001Y-92483714D01*
X202604572Y-92555143D01*
X202461715Y-92626571D01*
X202033143Y-92626571D01*
X201890286Y-92555143D01*
X201818858Y-92483714D01*
X200604572Y-89658000D02*
X201318858Y-89658000D01*
X200461715Y-90086571D02*
X200961715Y-88586571D01*
X201461715Y-90086571D01*
X201890286Y-88729429D02*
X201961715Y-88658000D01*
X202104572Y-88586571D01*
X202461715Y-88586571D01*
X202604572Y-88658000D01*
X202676001Y-88729429D01*
X202747429Y-88872286D01*
X202747429Y-89015143D01*
X202676001Y-89229429D01*
X201818858Y-90086571D01*
X202747429Y-90086571D01*
X200604572Y-87118000D02*
X201318858Y-87118000D01*
X200461715Y-87546571D02*
X200961715Y-86046571D01*
X201461715Y-87546571D01*
X202747429Y-87546571D02*
X201890286Y-87546571D01*
X202318858Y-87546571D02*
X202318858Y-86046571D01*
X202176001Y-86260857D01*
X202033143Y-86403714D01*
X201890286Y-86475143D01*
X200604572Y-84578000D02*
X201318858Y-84578000D01*
X200461715Y-85006571D02*
X200961715Y-83506571D01*
X201461715Y-85006571D01*
X202247429Y-83506571D02*
X202390286Y-83506571D01*
X202533143Y-83578000D01*
X202604572Y-83649429D01*
X202676001Y-83792286D01*
X202747429Y-84078000D01*
X202747429Y-84435143D01*
X202676001Y-84720857D01*
X202604572Y-84863714D01*
X202533143Y-84935143D01*
X202390286Y-85006571D01*
X202247429Y-85006571D01*
X202104572Y-84935143D01*
X202033143Y-84863714D01*
X201961715Y-84720857D01*
X201890286Y-84435143D01*
X201890286Y-84078000D01*
X201961715Y-83792286D01*
X202033143Y-83649429D01*
X202104572Y-83578000D01*
X202247429Y-83506571D01*
X195453143Y-203466000D02*
X195310286Y-203394571D01*
X195096000Y-203394571D01*
X194881715Y-203466000D01*
X194738857Y-203608857D01*
X194667429Y-203751714D01*
X194596000Y-204037429D01*
X194596000Y-204251714D01*
X194667429Y-204537429D01*
X194738857Y-204680286D01*
X194881715Y-204823143D01*
X195096000Y-204894571D01*
X195238857Y-204894571D01*
X195453143Y-204823143D01*
X195524572Y-204751714D01*
X195524572Y-204251714D01*
X195238857Y-204251714D01*
X196167429Y-204894571D02*
X196167429Y-203394571D01*
X197024572Y-204894571D01*
X197024572Y-203394571D01*
X197738858Y-204894571D02*
X197738858Y-203394571D01*
X198096001Y-203394571D01*
X198310286Y-203466000D01*
X198453144Y-203608857D01*
X198524572Y-203751714D01*
X198596001Y-204037429D01*
X198596001Y-204251714D01*
X198524572Y-204537429D01*
X198453144Y-204680286D01*
X198310286Y-204823143D01*
X198096001Y-204894571D01*
X197738858Y-204894571D01*
X159893143Y-203466000D02*
X159750286Y-203394571D01*
X159536000Y-203394571D01*
X159321715Y-203466000D01*
X159178857Y-203608857D01*
X159107429Y-203751714D01*
X159036000Y-204037429D01*
X159036000Y-204251714D01*
X159107429Y-204537429D01*
X159178857Y-204680286D01*
X159321715Y-204823143D01*
X159536000Y-204894571D01*
X159678857Y-204894571D01*
X159893143Y-204823143D01*
X159964572Y-204751714D01*
X159964572Y-204251714D01*
X159678857Y-204251714D01*
X160607429Y-204894571D02*
X160607429Y-203394571D01*
X161464572Y-204894571D01*
X161464572Y-203394571D01*
X162178858Y-204894571D02*
X162178858Y-203394571D01*
X162536001Y-203394571D01*
X162750286Y-203466000D01*
X162893144Y-203608857D01*
X162964572Y-203751714D01*
X163036001Y-204037429D01*
X163036001Y-204251714D01*
X162964572Y-204537429D01*
X162893144Y-204680286D01*
X162750286Y-204823143D01*
X162536001Y-204894571D01*
X162178858Y-204894571D01*
X119253143Y-202958000D02*
X119110286Y-202886571D01*
X118896000Y-202886571D01*
X118681715Y-202958000D01*
X118538857Y-203100857D01*
X118467429Y-203243714D01*
X118396000Y-203529429D01*
X118396000Y-203743714D01*
X118467429Y-204029429D01*
X118538857Y-204172286D01*
X118681715Y-204315143D01*
X118896000Y-204386571D01*
X119038857Y-204386571D01*
X119253143Y-204315143D01*
X119324572Y-204243714D01*
X119324572Y-203743714D01*
X119038857Y-203743714D01*
X119967429Y-204386571D02*
X119967429Y-202886571D01*
X120824572Y-204386571D01*
X120824572Y-202886571D01*
X121538858Y-204386571D02*
X121538858Y-202886571D01*
X121896001Y-202886571D01*
X122110286Y-202958000D01*
X122253144Y-203100857D01*
X122324572Y-203243714D01*
X122396001Y-203529429D01*
X122396001Y-203743714D01*
X122324572Y-204029429D01*
X122253144Y-204172286D01*
X122110286Y-204315143D01*
X121896001Y-204386571D01*
X121538858Y-204386571D01*
X83693143Y-203466000D02*
X83550286Y-203394571D01*
X83336000Y-203394571D01*
X83121715Y-203466000D01*
X82978857Y-203608857D01*
X82907429Y-203751714D01*
X82836000Y-204037429D01*
X82836000Y-204251714D01*
X82907429Y-204537429D01*
X82978857Y-204680286D01*
X83121715Y-204823143D01*
X83336000Y-204894571D01*
X83478857Y-204894571D01*
X83693143Y-204823143D01*
X83764572Y-204751714D01*
X83764572Y-204251714D01*
X83478857Y-204251714D01*
X84407429Y-204894571D02*
X84407429Y-203394571D01*
X85264572Y-204894571D01*
X85264572Y-203394571D01*
X85978858Y-204894571D02*
X85978858Y-203394571D01*
X86336001Y-203394571D01*
X86550286Y-203466000D01*
X86693144Y-203608857D01*
X86764572Y-203751714D01*
X86836001Y-204037429D01*
X86836001Y-204251714D01*
X86764572Y-204537429D01*
X86693144Y-204680286D01*
X86550286Y-204823143D01*
X86336001Y-204894571D01*
X85978858Y-204894571D01*
X69338000Y-201274570D02*
X69338000Y-200560284D01*
X69766571Y-201417427D02*
X68266571Y-200917427D01*
X69766571Y-200417427D01*
X69766571Y-199917427D02*
X68266571Y-199917427D01*
X68266571Y-199560284D01*
X68338000Y-199345999D01*
X68480857Y-199203141D01*
X68623714Y-199131713D01*
X68909429Y-199060284D01*
X69123714Y-199060284D01*
X69409429Y-199131713D01*
X69552286Y-199203141D01*
X69695143Y-199345999D01*
X69766571Y-199560284D01*
X69766571Y-199917427D01*
X69695143Y-198488856D02*
X69766571Y-198274570D01*
X69766571Y-197917427D01*
X69695143Y-197774570D01*
X69623714Y-197703141D01*
X69480857Y-197631713D01*
X69338000Y-197631713D01*
X69195143Y-197703141D01*
X69123714Y-197774570D01*
X69052286Y-197917427D01*
X68980857Y-198203141D01*
X68909429Y-198345999D01*
X68838000Y-198417427D01*
X68695143Y-198488856D01*
X68552286Y-198488856D01*
X68409429Y-198417427D01*
X68338000Y-198345999D01*
X68266571Y-198203141D01*
X68266571Y-197845999D01*
X68338000Y-197631713D01*
X69766571Y-196203142D02*
X69766571Y-197060285D01*
X69766571Y-196631713D02*
X68266571Y-196631713D01*
X68480857Y-196774570D01*
X68623714Y-196917428D01*
X68695143Y-197060285D01*
X69766571Y-194774571D02*
X69766571Y-195631714D01*
X69766571Y-195203142D02*
X68266571Y-195203142D01*
X68480857Y-195345999D01*
X68623714Y-195488857D01*
X68695143Y-195631714D01*
X69766571Y-193346000D02*
X69766571Y-194203143D01*
X69766571Y-193774571D02*
X68266571Y-193774571D01*
X68480857Y-193917428D01*
X68623714Y-194060286D01*
X68695143Y-194203143D01*
X68266571Y-191988857D02*
X68266571Y-192703143D01*
X68980857Y-192774572D01*
X68909429Y-192703143D01*
X68838000Y-192560286D01*
X68838000Y-192203143D01*
X68909429Y-192060286D01*
X68980857Y-191988857D01*
X69123714Y-191917429D01*
X69480857Y-191917429D01*
X69623714Y-191988857D01*
X69695143Y-192060286D01*
X69766571Y-192203143D01*
X69766571Y-192560286D01*
X69695143Y-192703143D01*
X69623714Y-192774572D01*
X104898000Y-202290570D02*
X104898000Y-201576284D01*
X105326571Y-202433427D02*
X103826571Y-201933427D01*
X105326571Y-201433427D01*
X105326571Y-200933427D02*
X103826571Y-200933427D01*
X103826571Y-200576284D01*
X103898000Y-200361999D01*
X104040857Y-200219141D01*
X104183714Y-200147713D01*
X104469429Y-200076284D01*
X104683714Y-200076284D01*
X104969429Y-200147713D01*
X105112286Y-200219141D01*
X105255143Y-200361999D01*
X105326571Y-200576284D01*
X105326571Y-200933427D01*
X105255143Y-199504856D02*
X105326571Y-199290570D01*
X105326571Y-198933427D01*
X105255143Y-198790570D01*
X105183714Y-198719141D01*
X105040857Y-198647713D01*
X104898000Y-198647713D01*
X104755143Y-198719141D01*
X104683714Y-198790570D01*
X104612286Y-198933427D01*
X104540857Y-199219141D01*
X104469429Y-199361999D01*
X104398000Y-199433427D01*
X104255143Y-199504856D01*
X104112286Y-199504856D01*
X103969429Y-199433427D01*
X103898000Y-199361999D01*
X103826571Y-199219141D01*
X103826571Y-198861999D01*
X103898000Y-198647713D01*
X105326571Y-197219142D02*
X105326571Y-198076285D01*
X105326571Y-197647713D02*
X103826571Y-197647713D01*
X104040857Y-197790570D01*
X104183714Y-197933428D01*
X104255143Y-198076285D01*
X105326571Y-195790571D02*
X105326571Y-196647714D01*
X105326571Y-196219142D02*
X103826571Y-196219142D01*
X104040857Y-196361999D01*
X104183714Y-196504857D01*
X104255143Y-196647714D01*
X105326571Y-194362000D02*
X105326571Y-195219143D01*
X105326571Y-194790571D02*
X103826571Y-194790571D01*
X104040857Y-194933428D01*
X104183714Y-195076286D01*
X104255143Y-195219143D01*
X103826571Y-193004857D02*
X103826571Y-193719143D01*
X104540857Y-193790572D01*
X104469429Y-193719143D01*
X104398000Y-193576286D01*
X104398000Y-193219143D01*
X104469429Y-193076286D01*
X104540857Y-193004857D01*
X104683714Y-192933429D01*
X105040857Y-192933429D01*
X105183714Y-193004857D01*
X105255143Y-193076286D01*
X105326571Y-193219143D01*
X105326571Y-193576286D01*
X105255143Y-193719143D01*
X105183714Y-193790572D01*
X145538000Y-202290570D02*
X145538000Y-201576284D01*
X145966571Y-202433427D02*
X144466571Y-201933427D01*
X145966571Y-201433427D01*
X145966571Y-200933427D02*
X144466571Y-200933427D01*
X144466571Y-200576284D01*
X144538000Y-200361999D01*
X144680857Y-200219141D01*
X144823714Y-200147713D01*
X145109429Y-200076284D01*
X145323714Y-200076284D01*
X145609429Y-200147713D01*
X145752286Y-200219141D01*
X145895143Y-200361999D01*
X145966571Y-200576284D01*
X145966571Y-200933427D01*
X145895143Y-199504856D02*
X145966571Y-199290570D01*
X145966571Y-198933427D01*
X145895143Y-198790570D01*
X145823714Y-198719141D01*
X145680857Y-198647713D01*
X145538000Y-198647713D01*
X145395143Y-198719141D01*
X145323714Y-198790570D01*
X145252286Y-198933427D01*
X145180857Y-199219141D01*
X145109429Y-199361999D01*
X145038000Y-199433427D01*
X144895143Y-199504856D01*
X144752286Y-199504856D01*
X144609429Y-199433427D01*
X144538000Y-199361999D01*
X144466571Y-199219141D01*
X144466571Y-198861999D01*
X144538000Y-198647713D01*
X145966571Y-197219142D02*
X145966571Y-198076285D01*
X145966571Y-197647713D02*
X144466571Y-197647713D01*
X144680857Y-197790570D01*
X144823714Y-197933428D01*
X144895143Y-198076285D01*
X145966571Y-195790571D02*
X145966571Y-196647714D01*
X145966571Y-196219142D02*
X144466571Y-196219142D01*
X144680857Y-196361999D01*
X144823714Y-196504857D01*
X144895143Y-196647714D01*
X145966571Y-194362000D02*
X145966571Y-195219143D01*
X145966571Y-194790571D02*
X144466571Y-194790571D01*
X144680857Y-194933428D01*
X144823714Y-195076286D01*
X144895143Y-195219143D01*
X144466571Y-193004857D02*
X144466571Y-193719143D01*
X145180857Y-193790572D01*
X145109429Y-193719143D01*
X145038000Y-193576286D01*
X145038000Y-193219143D01*
X145109429Y-193076286D01*
X145180857Y-193004857D01*
X145323714Y-192933429D01*
X145680857Y-192933429D01*
X145823714Y-193004857D01*
X145895143Y-193076286D01*
X145966571Y-193219143D01*
X145966571Y-193576286D01*
X145895143Y-193719143D01*
X145823714Y-193790572D01*
X180590000Y-202290570D02*
X180590000Y-201576284D01*
X181018571Y-202433427D02*
X179518571Y-201933427D01*
X181018571Y-201433427D01*
X181018571Y-200933427D02*
X179518571Y-200933427D01*
X179518571Y-200576284D01*
X179590000Y-200361999D01*
X179732857Y-200219141D01*
X179875714Y-200147713D01*
X180161429Y-200076284D01*
X180375714Y-200076284D01*
X180661429Y-200147713D01*
X180804286Y-200219141D01*
X180947143Y-200361999D01*
X181018571Y-200576284D01*
X181018571Y-200933427D01*
X180947143Y-199504856D02*
X181018571Y-199290570D01*
X181018571Y-198933427D01*
X180947143Y-198790570D01*
X180875714Y-198719141D01*
X180732857Y-198647713D01*
X180590000Y-198647713D01*
X180447143Y-198719141D01*
X180375714Y-198790570D01*
X180304286Y-198933427D01*
X180232857Y-199219141D01*
X180161429Y-199361999D01*
X180090000Y-199433427D01*
X179947143Y-199504856D01*
X179804286Y-199504856D01*
X179661429Y-199433427D01*
X179590000Y-199361999D01*
X179518571Y-199219141D01*
X179518571Y-198861999D01*
X179590000Y-198647713D01*
X181018571Y-197219142D02*
X181018571Y-198076285D01*
X181018571Y-197647713D02*
X179518571Y-197647713D01*
X179732857Y-197790570D01*
X179875714Y-197933428D01*
X179947143Y-198076285D01*
X181018571Y-195790571D02*
X181018571Y-196647714D01*
X181018571Y-196219142D02*
X179518571Y-196219142D01*
X179732857Y-196361999D01*
X179875714Y-196504857D01*
X179947143Y-196647714D01*
X181018571Y-194362000D02*
X181018571Y-195219143D01*
X181018571Y-194790571D02*
X179518571Y-194790571D01*
X179732857Y-194933428D01*
X179875714Y-195076286D01*
X179947143Y-195219143D01*
X179518571Y-193004857D02*
X179518571Y-193719143D01*
X180232857Y-193790572D01*
X180161429Y-193719143D01*
X180090000Y-193576286D01*
X180090000Y-193219143D01*
X180161429Y-193076286D01*
X180232857Y-193004857D01*
X180375714Y-192933429D01*
X180732857Y-192933429D01*
X180875714Y-193004857D01*
X180947143Y-193076286D01*
X181018571Y-193219143D01*
X181018571Y-193576286D01*
X180947143Y-193719143D01*
X180875714Y-193790572D01*
X165029144Y-221658571D02*
X165029144Y-220158571D01*
X165600572Y-220158571D01*
X165743430Y-220230000D01*
X165814858Y-220301429D01*
X165886287Y-220444286D01*
X165886287Y-220658571D01*
X165814858Y-220801429D01*
X165743430Y-220872857D01*
X165600572Y-220944286D01*
X165029144Y-220944286D01*
X167386287Y-221515714D02*
X167314858Y-221587143D01*
X167100572Y-221658571D01*
X166957715Y-221658571D01*
X166743430Y-221587143D01*
X166600572Y-221444286D01*
X166529144Y-221301429D01*
X166457715Y-221015714D01*
X166457715Y-220801429D01*
X166529144Y-220515714D01*
X166600572Y-220372857D01*
X166743430Y-220230000D01*
X166957715Y-220158571D01*
X167100572Y-220158571D01*
X167314858Y-220230000D01*
X167386287Y-220301429D01*
X167957715Y-221230000D02*
X168672001Y-221230000D01*
X167814858Y-221658571D02*
X168314858Y-220158571D01*
X168814858Y-221658571D01*
X169386286Y-221658571D02*
X169672001Y-221658571D01*
X169814858Y-221587143D01*
X169886286Y-221515714D01*
X170029144Y-221301429D01*
X170100572Y-221015714D01*
X170100572Y-220444286D01*
X170029144Y-220301429D01*
X169957715Y-220230000D01*
X169814858Y-220158571D01*
X169529144Y-220158571D01*
X169386286Y-220230000D01*
X169314858Y-220301429D01*
X169243429Y-220444286D01*
X169243429Y-220801429D01*
X169314858Y-220944286D01*
X169386286Y-221015714D01*
X169529144Y-221087143D01*
X169814858Y-221087143D01*
X169957715Y-221015714D01*
X170029144Y-220944286D01*
X170100572Y-220801429D01*
X171386286Y-220158571D02*
X171100572Y-220158571D01*
X170957715Y-220230000D01*
X170886286Y-220301429D01*
X170743429Y-220515714D01*
X170672000Y-220801429D01*
X170672000Y-221372857D01*
X170743429Y-221515714D01*
X170814857Y-221587143D01*
X170957715Y-221658571D01*
X171243429Y-221658571D01*
X171386286Y-221587143D01*
X171457715Y-221515714D01*
X171529143Y-221372857D01*
X171529143Y-221015714D01*
X171457715Y-220872857D01*
X171386286Y-220801429D01*
X171243429Y-220730000D01*
X170957715Y-220730000D01*
X170814857Y-220801429D01*
X170743429Y-220872857D01*
X170672000Y-221015714D01*
X172386286Y-220801429D02*
X172243428Y-220730000D01*
X172172000Y-220658571D01*
X172100571Y-220515714D01*
X172100571Y-220444286D01*
X172172000Y-220301429D01*
X172243428Y-220230000D01*
X172386286Y-220158571D01*
X172672000Y-220158571D01*
X172814857Y-220230000D01*
X172886286Y-220301429D01*
X172957714Y-220444286D01*
X172957714Y-220515714D01*
X172886286Y-220658571D01*
X172814857Y-220730000D01*
X172672000Y-220801429D01*
X172386286Y-220801429D01*
X172243428Y-220872857D01*
X172172000Y-220944286D01*
X172100571Y-221087143D01*
X172100571Y-221372857D01*
X172172000Y-221515714D01*
X172243428Y-221587143D01*
X172386286Y-221658571D01*
X172672000Y-221658571D01*
X172814857Y-221587143D01*
X172886286Y-221515714D01*
X172957714Y-221372857D01*
X172957714Y-221087143D01*
X172886286Y-220944286D01*
X172814857Y-220872857D01*
X172672000Y-220801429D01*
X174314857Y-220158571D02*
X173600571Y-220158571D01*
X173529142Y-220872857D01*
X173600571Y-220801429D01*
X173743428Y-220730000D01*
X174100571Y-220730000D01*
X174243428Y-220801429D01*
X174314857Y-220872857D01*
X174386285Y-221015714D01*
X174386285Y-221372857D01*
X174314857Y-221515714D01*
X174243428Y-221587143D01*
X174100571Y-221658571D01*
X173743428Y-221658571D01*
X173600571Y-221587143D01*
X173529142Y-221515714D01*
X87813144Y-222166571D02*
X87813144Y-220666571D01*
X88384572Y-220666571D01*
X88527430Y-220738000D01*
X88598858Y-220809429D01*
X88670287Y-220952286D01*
X88670287Y-221166571D01*
X88598858Y-221309429D01*
X88527430Y-221380857D01*
X88384572Y-221452286D01*
X87813144Y-221452286D01*
X90170287Y-222023714D02*
X90098858Y-222095143D01*
X89884572Y-222166571D01*
X89741715Y-222166571D01*
X89527430Y-222095143D01*
X89384572Y-221952286D01*
X89313144Y-221809429D01*
X89241715Y-221523714D01*
X89241715Y-221309429D01*
X89313144Y-221023714D01*
X89384572Y-220880857D01*
X89527430Y-220738000D01*
X89741715Y-220666571D01*
X89884572Y-220666571D01*
X90098858Y-220738000D01*
X90170287Y-220809429D01*
X90741715Y-221738000D02*
X91456001Y-221738000D01*
X90598858Y-222166571D02*
X91098858Y-220666571D01*
X91598858Y-222166571D01*
X92170286Y-222166571D02*
X92456001Y-222166571D01*
X92598858Y-222095143D01*
X92670286Y-222023714D01*
X92813144Y-221809429D01*
X92884572Y-221523714D01*
X92884572Y-220952286D01*
X92813144Y-220809429D01*
X92741715Y-220738000D01*
X92598858Y-220666571D01*
X92313144Y-220666571D01*
X92170286Y-220738000D01*
X92098858Y-220809429D01*
X92027429Y-220952286D01*
X92027429Y-221309429D01*
X92098858Y-221452286D01*
X92170286Y-221523714D01*
X92313144Y-221595143D01*
X92598858Y-221595143D01*
X92741715Y-221523714D01*
X92813144Y-221452286D01*
X92884572Y-221309429D01*
X94170286Y-220666571D02*
X93884572Y-220666571D01*
X93741715Y-220738000D01*
X93670286Y-220809429D01*
X93527429Y-221023714D01*
X93456000Y-221309429D01*
X93456000Y-221880857D01*
X93527429Y-222023714D01*
X93598857Y-222095143D01*
X93741715Y-222166571D01*
X94027429Y-222166571D01*
X94170286Y-222095143D01*
X94241715Y-222023714D01*
X94313143Y-221880857D01*
X94313143Y-221523714D01*
X94241715Y-221380857D01*
X94170286Y-221309429D01*
X94027429Y-221238000D01*
X93741715Y-221238000D01*
X93598857Y-221309429D01*
X93527429Y-221380857D01*
X93456000Y-221523714D01*
X95170286Y-221309429D02*
X95027428Y-221238000D01*
X94956000Y-221166571D01*
X94884571Y-221023714D01*
X94884571Y-220952286D01*
X94956000Y-220809429D01*
X95027428Y-220738000D01*
X95170286Y-220666571D01*
X95456000Y-220666571D01*
X95598857Y-220738000D01*
X95670286Y-220809429D01*
X95741714Y-220952286D01*
X95741714Y-221023714D01*
X95670286Y-221166571D01*
X95598857Y-221238000D01*
X95456000Y-221309429D01*
X95170286Y-221309429D01*
X95027428Y-221380857D01*
X94956000Y-221452286D01*
X94884571Y-221595143D01*
X94884571Y-221880857D01*
X94956000Y-222023714D01*
X95027428Y-222095143D01*
X95170286Y-222166571D01*
X95456000Y-222166571D01*
X95598857Y-222095143D01*
X95670286Y-222023714D01*
X95741714Y-221880857D01*
X95741714Y-221595143D01*
X95670286Y-221452286D01*
X95598857Y-221380857D01*
X95456000Y-221309429D01*
X97098857Y-220666571D02*
X96384571Y-220666571D01*
X96313142Y-221380857D01*
X96384571Y-221309429D01*
X96527428Y-221238000D01*
X96884571Y-221238000D01*
X97027428Y-221309429D01*
X97098857Y-221380857D01*
X97170285Y-221523714D01*
X97170285Y-221880857D01*
X97098857Y-222023714D01*
X97027428Y-222095143D01*
X96884571Y-222166571D01*
X96527428Y-222166571D01*
X96384571Y-222095143D01*
X96313142Y-222023714D01*
X81348857Y-227175143D02*
X81563143Y-227246571D01*
X81920286Y-227246571D01*
X82063143Y-227175143D01*
X82134572Y-227103714D01*
X82206000Y-226960857D01*
X82206000Y-226818000D01*
X82134572Y-226675143D01*
X82063143Y-226603714D01*
X81920286Y-226532286D01*
X81634572Y-226460857D01*
X81491714Y-226389429D01*
X81420286Y-226318000D01*
X81348857Y-226175143D01*
X81348857Y-226032286D01*
X81420286Y-225889429D01*
X81491714Y-225818000D01*
X81634572Y-225746571D01*
X81991714Y-225746571D01*
X82206000Y-225818000D01*
X83063143Y-227246571D02*
X82920285Y-227175143D01*
X82848857Y-227103714D01*
X82777428Y-226960857D01*
X82777428Y-226532286D01*
X82848857Y-226389429D01*
X82920285Y-226318000D01*
X83063143Y-226246571D01*
X83277428Y-226246571D01*
X83420285Y-226318000D01*
X83491714Y-226389429D01*
X83563143Y-226532286D01*
X83563143Y-226960857D01*
X83491714Y-227103714D01*
X83420285Y-227175143D01*
X83277428Y-227246571D01*
X83063143Y-227246571D01*
X84420286Y-227246571D02*
X84277428Y-227175143D01*
X84206000Y-227032286D01*
X84206000Y-225746571D01*
X85634571Y-227246571D02*
X85634571Y-225746571D01*
X85634571Y-227175143D02*
X85491714Y-227246571D01*
X85206000Y-227246571D01*
X85063142Y-227175143D01*
X84991714Y-227103714D01*
X84920285Y-226960857D01*
X84920285Y-226532286D01*
X84991714Y-226389429D01*
X85063142Y-226318000D01*
X85206000Y-226246571D01*
X85491714Y-226246571D01*
X85634571Y-226318000D01*
X86920285Y-227175143D02*
X86777428Y-227246571D01*
X86491714Y-227246571D01*
X86348857Y-227175143D01*
X86277428Y-227032286D01*
X86277428Y-226460857D01*
X86348857Y-226318000D01*
X86491714Y-226246571D01*
X86777428Y-226246571D01*
X86920285Y-226318000D01*
X86991714Y-226460857D01*
X86991714Y-226603714D01*
X86277428Y-226746571D01*
X87634571Y-227246571D02*
X87634571Y-226246571D01*
X87634571Y-226532286D02*
X87705999Y-226389429D01*
X87777428Y-226318000D01*
X87920285Y-226246571D01*
X88063142Y-226246571D01*
X90348856Y-227246571D02*
X90348856Y-226460857D01*
X90277427Y-226318000D01*
X90134570Y-226246571D01*
X89848856Y-226246571D01*
X89705999Y-226318000D01*
X90348856Y-227175143D02*
X90205999Y-227246571D01*
X89848856Y-227246571D01*
X89705999Y-227175143D01*
X89634570Y-227032286D01*
X89634570Y-226889429D01*
X89705999Y-226746571D01*
X89848856Y-226675143D01*
X90205999Y-226675143D01*
X90348856Y-226603714D01*
X91705999Y-227246571D02*
X91705999Y-225746571D01*
X91705999Y-227175143D02*
X91563142Y-227246571D01*
X91277428Y-227246571D01*
X91134570Y-227175143D01*
X91063142Y-227103714D01*
X90991713Y-226960857D01*
X90991713Y-226532286D01*
X91063142Y-226389429D01*
X91134570Y-226318000D01*
X91277428Y-226246571D01*
X91563142Y-226246571D01*
X91705999Y-226318000D01*
X93063142Y-227246571D02*
X93063142Y-225746571D01*
X93063142Y-227175143D02*
X92920285Y-227246571D01*
X92634571Y-227246571D01*
X92491713Y-227175143D01*
X92420285Y-227103714D01*
X92348856Y-226960857D01*
X92348856Y-226532286D01*
X92420285Y-226389429D01*
X92491713Y-226318000D01*
X92634571Y-226246571D01*
X92920285Y-226246571D01*
X93063142Y-226318000D01*
X93777428Y-227246571D02*
X93777428Y-226246571D01*
X93777428Y-226532286D02*
X93848856Y-226389429D01*
X93920285Y-226318000D01*
X94063142Y-226246571D01*
X94205999Y-226246571D01*
X95277427Y-227175143D02*
X95134570Y-227246571D01*
X94848856Y-227246571D01*
X94705999Y-227175143D01*
X94634570Y-227032286D01*
X94634570Y-226460857D01*
X94705999Y-226318000D01*
X94848856Y-226246571D01*
X95134570Y-226246571D01*
X95277427Y-226318000D01*
X95348856Y-226460857D01*
X95348856Y-226603714D01*
X94634570Y-226746571D01*
X95920284Y-227175143D02*
X96063141Y-227246571D01*
X96348856Y-227246571D01*
X96491713Y-227175143D01*
X96563141Y-227032286D01*
X96563141Y-226960857D01*
X96491713Y-226818000D01*
X96348856Y-226746571D01*
X96134570Y-226746571D01*
X95991713Y-226675143D01*
X95920284Y-226532286D01*
X95920284Y-226460857D01*
X95991713Y-226318000D01*
X96134570Y-226246571D01*
X96348856Y-226246571D01*
X96491713Y-226318000D01*
X97134570Y-227175143D02*
X97277427Y-227246571D01*
X97563142Y-227246571D01*
X97705999Y-227175143D01*
X97777427Y-227032286D01*
X97777427Y-226960857D01*
X97705999Y-226818000D01*
X97563142Y-226746571D01*
X97348856Y-226746571D01*
X97205999Y-226675143D01*
X97134570Y-226532286D01*
X97134570Y-226460857D01*
X97205999Y-226318000D01*
X97348856Y-226246571D01*
X97563142Y-226246571D01*
X97705999Y-226318000D01*
X99563142Y-226246571D02*
X99563142Y-227746571D01*
X99563142Y-226318000D02*
X99705999Y-226246571D01*
X99991713Y-226246571D01*
X100134570Y-226318000D01*
X100205999Y-226389429D01*
X100277428Y-226532286D01*
X100277428Y-226960857D01*
X100205999Y-227103714D01*
X100134570Y-227175143D01*
X99991713Y-227246571D01*
X99705999Y-227246571D01*
X99563142Y-227175143D01*
X100920285Y-227246571D02*
X100920285Y-226246571D01*
X100920285Y-225746571D02*
X100848856Y-225818000D01*
X100920285Y-225889429D01*
X100991713Y-225818000D01*
X100920285Y-225746571D01*
X100920285Y-225889429D01*
X101634571Y-226246571D02*
X101634571Y-227246571D01*
X101634571Y-226389429D02*
X101705999Y-226318000D01*
X101848857Y-226246571D01*
X102063142Y-226246571D01*
X102205999Y-226318000D01*
X102277428Y-226460857D01*
X102277428Y-227246571D01*
X102920285Y-227175143D02*
X103063142Y-227246571D01*
X103348857Y-227246571D01*
X103491714Y-227175143D01*
X103563142Y-227032286D01*
X103563142Y-226960857D01*
X103491714Y-226818000D01*
X103348857Y-226746571D01*
X103134571Y-226746571D01*
X102991714Y-226675143D01*
X102920285Y-226532286D01*
X102920285Y-226460857D01*
X102991714Y-226318000D01*
X103134571Y-226246571D01*
X103348857Y-226246571D01*
X103491714Y-226318000D01*
X159072857Y-226667143D02*
X159287143Y-226738571D01*
X159644286Y-226738571D01*
X159787143Y-226667143D01*
X159858572Y-226595714D01*
X159930000Y-226452857D01*
X159930000Y-226310000D01*
X159858572Y-226167143D01*
X159787143Y-226095714D01*
X159644286Y-226024286D01*
X159358572Y-225952857D01*
X159215714Y-225881429D01*
X159144286Y-225810000D01*
X159072857Y-225667143D01*
X159072857Y-225524286D01*
X159144286Y-225381429D01*
X159215714Y-225310000D01*
X159358572Y-225238571D01*
X159715714Y-225238571D01*
X159930000Y-225310000D01*
X160787143Y-226738571D02*
X160644285Y-226667143D01*
X160572857Y-226595714D01*
X160501428Y-226452857D01*
X160501428Y-226024286D01*
X160572857Y-225881429D01*
X160644285Y-225810000D01*
X160787143Y-225738571D01*
X161001428Y-225738571D01*
X161144285Y-225810000D01*
X161215714Y-225881429D01*
X161287143Y-226024286D01*
X161287143Y-226452857D01*
X161215714Y-226595714D01*
X161144285Y-226667143D01*
X161001428Y-226738571D01*
X160787143Y-226738571D01*
X162144286Y-226738571D02*
X162001428Y-226667143D01*
X161930000Y-226524286D01*
X161930000Y-225238571D01*
X163358571Y-226738571D02*
X163358571Y-225238571D01*
X163358571Y-226667143D02*
X163215714Y-226738571D01*
X162930000Y-226738571D01*
X162787142Y-226667143D01*
X162715714Y-226595714D01*
X162644285Y-226452857D01*
X162644285Y-226024286D01*
X162715714Y-225881429D01*
X162787142Y-225810000D01*
X162930000Y-225738571D01*
X163215714Y-225738571D01*
X163358571Y-225810000D01*
X164644285Y-226667143D02*
X164501428Y-226738571D01*
X164215714Y-226738571D01*
X164072857Y-226667143D01*
X164001428Y-226524286D01*
X164001428Y-225952857D01*
X164072857Y-225810000D01*
X164215714Y-225738571D01*
X164501428Y-225738571D01*
X164644285Y-225810000D01*
X164715714Y-225952857D01*
X164715714Y-226095714D01*
X164001428Y-226238571D01*
X165358571Y-226738571D02*
X165358571Y-225738571D01*
X165358571Y-226024286D02*
X165429999Y-225881429D01*
X165501428Y-225810000D01*
X165644285Y-225738571D01*
X165787142Y-225738571D01*
X168072856Y-226738571D02*
X168072856Y-225952857D01*
X168001427Y-225810000D01*
X167858570Y-225738571D01*
X167572856Y-225738571D01*
X167429999Y-225810000D01*
X168072856Y-226667143D02*
X167929999Y-226738571D01*
X167572856Y-226738571D01*
X167429999Y-226667143D01*
X167358570Y-226524286D01*
X167358570Y-226381429D01*
X167429999Y-226238571D01*
X167572856Y-226167143D01*
X167929999Y-226167143D01*
X168072856Y-226095714D01*
X169429999Y-226738571D02*
X169429999Y-225238571D01*
X169429999Y-226667143D02*
X169287142Y-226738571D01*
X169001428Y-226738571D01*
X168858570Y-226667143D01*
X168787142Y-226595714D01*
X168715713Y-226452857D01*
X168715713Y-226024286D01*
X168787142Y-225881429D01*
X168858570Y-225810000D01*
X169001428Y-225738571D01*
X169287142Y-225738571D01*
X169429999Y-225810000D01*
X170787142Y-226738571D02*
X170787142Y-225238571D01*
X170787142Y-226667143D02*
X170644285Y-226738571D01*
X170358571Y-226738571D01*
X170215713Y-226667143D01*
X170144285Y-226595714D01*
X170072856Y-226452857D01*
X170072856Y-226024286D01*
X170144285Y-225881429D01*
X170215713Y-225810000D01*
X170358571Y-225738571D01*
X170644285Y-225738571D01*
X170787142Y-225810000D01*
X171501428Y-226738571D02*
X171501428Y-225738571D01*
X171501428Y-226024286D02*
X171572856Y-225881429D01*
X171644285Y-225810000D01*
X171787142Y-225738571D01*
X171929999Y-225738571D01*
X173001427Y-226667143D02*
X172858570Y-226738571D01*
X172572856Y-226738571D01*
X172429999Y-226667143D01*
X172358570Y-226524286D01*
X172358570Y-225952857D01*
X172429999Y-225810000D01*
X172572856Y-225738571D01*
X172858570Y-225738571D01*
X173001427Y-225810000D01*
X173072856Y-225952857D01*
X173072856Y-226095714D01*
X172358570Y-226238571D01*
X173644284Y-226667143D02*
X173787141Y-226738571D01*
X174072856Y-226738571D01*
X174215713Y-226667143D01*
X174287141Y-226524286D01*
X174287141Y-226452857D01*
X174215713Y-226310000D01*
X174072856Y-226238571D01*
X173858570Y-226238571D01*
X173715713Y-226167143D01*
X173644284Y-226024286D01*
X173644284Y-225952857D01*
X173715713Y-225810000D01*
X173858570Y-225738571D01*
X174072856Y-225738571D01*
X174215713Y-225810000D01*
X174858570Y-226667143D02*
X175001427Y-226738571D01*
X175287142Y-226738571D01*
X175429999Y-226667143D01*
X175501427Y-226524286D01*
X175501427Y-226452857D01*
X175429999Y-226310000D01*
X175287142Y-226238571D01*
X175072856Y-226238571D01*
X174929999Y-226167143D01*
X174858570Y-226024286D01*
X174858570Y-225952857D01*
X174929999Y-225810000D01*
X175072856Y-225738571D01*
X175287142Y-225738571D01*
X175429999Y-225810000D01*
X177287142Y-225738571D02*
X177287142Y-227238571D01*
X177287142Y-225810000D02*
X177429999Y-225738571D01*
X177715713Y-225738571D01*
X177858570Y-225810000D01*
X177929999Y-225881429D01*
X178001428Y-226024286D01*
X178001428Y-226452857D01*
X177929999Y-226595714D01*
X177858570Y-226667143D01*
X177715713Y-226738571D01*
X177429999Y-226738571D01*
X177287142Y-226667143D01*
X178644285Y-226738571D02*
X178644285Y-225738571D01*
X178644285Y-225238571D02*
X178572856Y-225310000D01*
X178644285Y-225381429D01*
X178715713Y-225310000D01*
X178644285Y-225238571D01*
X178644285Y-225381429D01*
X179358571Y-225738571D02*
X179358571Y-226738571D01*
X179358571Y-225881429D02*
X179429999Y-225810000D01*
X179572857Y-225738571D01*
X179787142Y-225738571D01*
X179929999Y-225810000D01*
X180001428Y-225952857D01*
X180001428Y-226738571D01*
X180644285Y-226667143D02*
X180787142Y-226738571D01*
X181072857Y-226738571D01*
X181215714Y-226667143D01*
X181287142Y-226524286D01*
X181287142Y-226452857D01*
X181215714Y-226310000D01*
X181072857Y-226238571D01*
X180858571Y-226238571D01*
X180715714Y-226167143D01*
X180644285Y-226024286D01*
X180644285Y-225952857D01*
X180715714Y-225810000D01*
X180858571Y-225738571D01*
X181072857Y-225738571D01*
X181215714Y-225810000D01*
X188758001Y-194758571D02*
X188900858Y-194758571D01*
X189043715Y-194830000D01*
X189115144Y-194901429D01*
X189186573Y-195044286D01*
X189258001Y-195330000D01*
X189258001Y-195687143D01*
X189186573Y-195972857D01*
X189115144Y-196115714D01*
X189043715Y-196187143D01*
X188900858Y-196258571D01*
X188758001Y-196258571D01*
X188615144Y-196187143D01*
X188543715Y-196115714D01*
X188472287Y-195972857D01*
X188400858Y-195687143D01*
X188400858Y-195330000D01*
X188472287Y-195044286D01*
X188543715Y-194901429D01*
X188615144Y-194830000D01*
X188758001Y-194758571D01*
X189758001Y-194758571D02*
X190758001Y-196258571D01*
X190758001Y-194758571D02*
X189758001Y-196258571D01*
X191972286Y-195258571D02*
X191972286Y-196258571D01*
X191615143Y-194687143D02*
X191258000Y-195758571D01*
X192186572Y-195758571D01*
X193258000Y-195472857D02*
X193472286Y-195544286D01*
X193543714Y-195615714D01*
X193615143Y-195758571D01*
X193615143Y-195972857D01*
X193543714Y-196115714D01*
X193472286Y-196187143D01*
X193329428Y-196258571D01*
X192758000Y-196258571D01*
X192758000Y-194758571D01*
X193258000Y-194758571D01*
X193400857Y-194830000D01*
X193472286Y-194901429D01*
X193543714Y-195044286D01*
X193543714Y-195187143D01*
X193472286Y-195330000D01*
X193400857Y-195401429D01*
X193258000Y-195472857D01*
X192758000Y-195472857D01*
X153305144Y-194758571D02*
X153448001Y-194758571D01*
X153590858Y-194830000D01*
X153662287Y-194901429D01*
X153733716Y-195044286D01*
X153805144Y-195330000D01*
X153805144Y-195687143D01*
X153733716Y-195972857D01*
X153662287Y-196115714D01*
X153590858Y-196187143D01*
X153448001Y-196258571D01*
X153305144Y-196258571D01*
X153162287Y-196187143D01*
X153090858Y-196115714D01*
X153019430Y-195972857D01*
X152948001Y-195687143D01*
X152948001Y-195330000D01*
X153019430Y-195044286D01*
X153090858Y-194901429D01*
X153162287Y-194830000D01*
X153305144Y-194758571D01*
X154305144Y-194758571D02*
X155305144Y-196258571D01*
X155305144Y-194758571D02*
X154305144Y-196258571D01*
X156519429Y-195258571D02*
X156519429Y-196258571D01*
X156162286Y-194687143D02*
X155805143Y-195758571D01*
X156733715Y-195758571D01*
X157233714Y-195830000D02*
X157948000Y-195830000D01*
X157090857Y-196258571D02*
X157590857Y-194758571D01*
X158090857Y-196258571D01*
X113101715Y-194758571D02*
X113244572Y-194758571D01*
X113387429Y-194830000D01*
X113458858Y-194901429D01*
X113530287Y-195044286D01*
X113601715Y-195330000D01*
X113601715Y-195687143D01*
X113530287Y-195972857D01*
X113458858Y-196115714D01*
X113387429Y-196187143D01*
X113244572Y-196258571D01*
X113101715Y-196258571D01*
X112958858Y-196187143D01*
X112887429Y-196115714D01*
X112816001Y-195972857D01*
X112744572Y-195687143D01*
X112744572Y-195330000D01*
X112816001Y-195044286D01*
X112887429Y-194901429D01*
X112958858Y-194830000D01*
X113101715Y-194758571D01*
X114101715Y-194758571D02*
X115101715Y-196258571D01*
X115101715Y-194758571D02*
X114101715Y-196258571D01*
X116316000Y-195258571D02*
X116316000Y-196258571D01*
X115958857Y-194687143D02*
X115601714Y-195758571D01*
X116530286Y-195758571D01*
X117173142Y-196258571D02*
X117458857Y-196258571D01*
X117601714Y-196187143D01*
X117673142Y-196115714D01*
X117816000Y-195901429D01*
X117887428Y-195615714D01*
X117887428Y-195044286D01*
X117816000Y-194901429D01*
X117744571Y-194830000D01*
X117601714Y-194758571D01*
X117316000Y-194758571D01*
X117173142Y-194830000D01*
X117101714Y-194901429D01*
X117030285Y-195044286D01*
X117030285Y-195401429D01*
X117101714Y-195544286D01*
X117173142Y-195615714D01*
X117316000Y-195687143D01*
X117601714Y-195687143D01*
X117744571Y-195615714D01*
X117816000Y-195544286D01*
X117887428Y-195401429D01*
X77033715Y-194758571D02*
X77176572Y-194758571D01*
X77319429Y-194830000D01*
X77390858Y-194901429D01*
X77462287Y-195044286D01*
X77533715Y-195330000D01*
X77533715Y-195687143D01*
X77462287Y-195972857D01*
X77390858Y-196115714D01*
X77319429Y-196187143D01*
X77176572Y-196258571D01*
X77033715Y-196258571D01*
X76890858Y-196187143D01*
X76819429Y-196115714D01*
X76748001Y-195972857D01*
X76676572Y-195687143D01*
X76676572Y-195330000D01*
X76748001Y-195044286D01*
X76819429Y-194901429D01*
X76890858Y-194830000D01*
X77033715Y-194758571D01*
X78033715Y-194758571D02*
X79033715Y-196258571D01*
X79033715Y-194758571D02*
X78033715Y-196258571D01*
X80248000Y-195258571D02*
X80248000Y-196258571D01*
X79890857Y-194687143D02*
X79533714Y-195758571D01*
X80462286Y-195758571D01*
X81248000Y-195401429D02*
X81105142Y-195330000D01*
X81033714Y-195258571D01*
X80962285Y-195115714D01*
X80962285Y-195044286D01*
X81033714Y-194901429D01*
X81105142Y-194830000D01*
X81248000Y-194758571D01*
X81533714Y-194758571D01*
X81676571Y-194830000D01*
X81748000Y-194901429D01*
X81819428Y-195044286D01*
X81819428Y-195115714D01*
X81748000Y-195258571D01*
X81676571Y-195330000D01*
X81533714Y-195401429D01*
X81248000Y-195401429D01*
X81105142Y-195472857D01*
X81033714Y-195544286D01*
X80962285Y-195687143D01*
X80962285Y-195972857D01*
X81033714Y-196115714D01*
X81105142Y-196187143D01*
X81248000Y-196258571D01*
X81533714Y-196258571D01*
X81676571Y-196187143D01*
X81748000Y-196115714D01*
X81819428Y-195972857D01*
X81819428Y-195687143D01*
X81748000Y-195544286D01*
X81676571Y-195472857D01*
X81533714Y-195401429D01*
X185872572Y-208022000D02*
X186586858Y-208022000D01*
X185729715Y-208450571D02*
X186229715Y-206950571D01*
X186729715Y-208450571D01*
X187086858Y-206950571D02*
X188015429Y-206950571D01*
X187515429Y-207522000D01*
X187729715Y-207522000D01*
X187872572Y-207593429D01*
X187944001Y-207664857D01*
X188015429Y-207807714D01*
X188015429Y-208164857D01*
X187944001Y-208307714D01*
X187872572Y-208379143D01*
X187729715Y-208450571D01*
X187301143Y-208450571D01*
X187158286Y-208379143D01*
X187086858Y-208307714D01*
X185872572Y-205482000D02*
X186586858Y-205482000D01*
X185729715Y-205910571D02*
X186229715Y-204410571D01*
X186729715Y-205910571D01*
X187158286Y-204553429D02*
X187229715Y-204482000D01*
X187372572Y-204410571D01*
X187729715Y-204410571D01*
X187872572Y-204482000D01*
X187944001Y-204553429D01*
X188015429Y-204696286D01*
X188015429Y-204839143D01*
X187944001Y-205053429D01*
X187086858Y-205910571D01*
X188015429Y-205910571D01*
X185872572Y-202942000D02*
X186586858Y-202942000D01*
X185729715Y-203370571D02*
X186229715Y-201870571D01*
X186729715Y-203370571D01*
X188015429Y-203370571D02*
X187158286Y-203370571D01*
X187586858Y-203370571D02*
X187586858Y-201870571D01*
X187444001Y-202084857D01*
X187301143Y-202227714D01*
X187158286Y-202299143D01*
X185872572Y-200402000D02*
X186586858Y-200402000D01*
X185729715Y-200830571D02*
X186229715Y-199330571D01*
X186729715Y-200830571D01*
X187515429Y-199330571D02*
X187658286Y-199330571D01*
X187801143Y-199402000D01*
X187872572Y-199473429D01*
X187944001Y-199616286D01*
X188015429Y-199902000D01*
X188015429Y-200259143D01*
X187944001Y-200544857D01*
X187872572Y-200687714D01*
X187801143Y-200759143D01*
X187658286Y-200830571D01*
X187515429Y-200830571D01*
X187372572Y-200759143D01*
X187301143Y-200687714D01*
X187229715Y-200544857D01*
X187158286Y-200259143D01*
X187158286Y-199902000D01*
X187229715Y-199616286D01*
X187301143Y-199473429D01*
X187372572Y-199402000D01*
X187515429Y-199330571D01*
X150312572Y-208022000D02*
X151026858Y-208022000D01*
X150169715Y-208450571D02*
X150669715Y-206950571D01*
X151169715Y-208450571D01*
X151526858Y-206950571D02*
X152455429Y-206950571D01*
X151955429Y-207522000D01*
X152169715Y-207522000D01*
X152312572Y-207593429D01*
X152384001Y-207664857D01*
X152455429Y-207807714D01*
X152455429Y-208164857D01*
X152384001Y-208307714D01*
X152312572Y-208379143D01*
X152169715Y-208450571D01*
X151741143Y-208450571D01*
X151598286Y-208379143D01*
X151526858Y-208307714D01*
X150312572Y-205482000D02*
X151026858Y-205482000D01*
X150169715Y-205910571D02*
X150669715Y-204410571D01*
X151169715Y-205910571D01*
X151598286Y-204553429D02*
X151669715Y-204482000D01*
X151812572Y-204410571D01*
X152169715Y-204410571D01*
X152312572Y-204482000D01*
X152384001Y-204553429D01*
X152455429Y-204696286D01*
X152455429Y-204839143D01*
X152384001Y-205053429D01*
X151526858Y-205910571D01*
X152455429Y-205910571D01*
X150312572Y-202942000D02*
X151026858Y-202942000D01*
X150169715Y-203370571D02*
X150669715Y-201870571D01*
X151169715Y-203370571D01*
X152455429Y-203370571D02*
X151598286Y-203370571D01*
X152026858Y-203370571D02*
X152026858Y-201870571D01*
X151884001Y-202084857D01*
X151741143Y-202227714D01*
X151598286Y-202299143D01*
X150312572Y-200402000D02*
X151026858Y-200402000D01*
X150169715Y-200830571D02*
X150669715Y-199330571D01*
X151169715Y-200830571D01*
X151955429Y-199330571D02*
X152098286Y-199330571D01*
X152241143Y-199402000D01*
X152312572Y-199473429D01*
X152384001Y-199616286D01*
X152455429Y-199902000D01*
X152455429Y-200259143D01*
X152384001Y-200544857D01*
X152312572Y-200687714D01*
X152241143Y-200759143D01*
X152098286Y-200830571D01*
X151955429Y-200830571D01*
X151812572Y-200759143D01*
X151741143Y-200687714D01*
X151669715Y-200544857D01*
X151598286Y-200259143D01*
X151598286Y-199902000D01*
X151669715Y-199616286D01*
X151741143Y-199473429D01*
X151812572Y-199402000D01*
X151955429Y-199330571D01*
X74112572Y-208022000D02*
X74826858Y-208022000D01*
X73969715Y-208450571D02*
X74469715Y-206950571D01*
X74969715Y-208450571D01*
X75326858Y-206950571D02*
X76255429Y-206950571D01*
X75755429Y-207522000D01*
X75969715Y-207522000D01*
X76112572Y-207593429D01*
X76184001Y-207664857D01*
X76255429Y-207807714D01*
X76255429Y-208164857D01*
X76184001Y-208307714D01*
X76112572Y-208379143D01*
X75969715Y-208450571D01*
X75541143Y-208450571D01*
X75398286Y-208379143D01*
X75326858Y-208307714D01*
X74112572Y-205482000D02*
X74826858Y-205482000D01*
X73969715Y-205910571D02*
X74469715Y-204410571D01*
X74969715Y-205910571D01*
X75398286Y-204553429D02*
X75469715Y-204482000D01*
X75612572Y-204410571D01*
X75969715Y-204410571D01*
X76112572Y-204482000D01*
X76184001Y-204553429D01*
X76255429Y-204696286D01*
X76255429Y-204839143D01*
X76184001Y-205053429D01*
X75326858Y-205910571D01*
X76255429Y-205910571D01*
X74112572Y-202942000D02*
X74826858Y-202942000D01*
X73969715Y-203370571D02*
X74469715Y-201870571D01*
X74969715Y-203370571D01*
X76255429Y-203370571D02*
X75398286Y-203370571D01*
X75826858Y-203370571D02*
X75826858Y-201870571D01*
X75684001Y-202084857D01*
X75541143Y-202227714D01*
X75398286Y-202299143D01*
X74112572Y-200402000D02*
X74826858Y-200402000D01*
X73969715Y-200830571D02*
X74469715Y-199330571D01*
X74969715Y-200830571D01*
X75755429Y-199330571D02*
X75898286Y-199330571D01*
X76041143Y-199402000D01*
X76112572Y-199473429D01*
X76184001Y-199616286D01*
X76255429Y-199902000D01*
X76255429Y-200259143D01*
X76184001Y-200544857D01*
X76112572Y-200687714D01*
X76041143Y-200759143D01*
X75898286Y-200830571D01*
X75755429Y-200830571D01*
X75612572Y-200759143D01*
X75541143Y-200687714D01*
X75469715Y-200544857D01*
X75398286Y-200259143D01*
X75398286Y-199902000D01*
X75469715Y-199616286D01*
X75541143Y-199473429D01*
X75612572Y-199402000D01*
X75755429Y-199330571D01*
X109672572Y-208022000D02*
X110386858Y-208022000D01*
X109529715Y-208450571D02*
X110029715Y-206950571D01*
X110529715Y-208450571D01*
X110886858Y-206950571D02*
X111815429Y-206950571D01*
X111315429Y-207522000D01*
X111529715Y-207522000D01*
X111672572Y-207593429D01*
X111744001Y-207664857D01*
X111815429Y-207807714D01*
X111815429Y-208164857D01*
X111744001Y-208307714D01*
X111672572Y-208379143D01*
X111529715Y-208450571D01*
X111101143Y-208450571D01*
X110958286Y-208379143D01*
X110886858Y-208307714D01*
X109672572Y-205482000D02*
X110386858Y-205482000D01*
X109529715Y-205910571D02*
X110029715Y-204410571D01*
X110529715Y-205910571D01*
X110958286Y-204553429D02*
X111029715Y-204482000D01*
X111172572Y-204410571D01*
X111529715Y-204410571D01*
X111672572Y-204482000D01*
X111744001Y-204553429D01*
X111815429Y-204696286D01*
X111815429Y-204839143D01*
X111744001Y-205053429D01*
X110886858Y-205910571D01*
X111815429Y-205910571D01*
X109672572Y-202942000D02*
X110386858Y-202942000D01*
X109529715Y-203370571D02*
X110029715Y-201870571D01*
X110529715Y-203370571D01*
X111815429Y-203370571D02*
X110958286Y-203370571D01*
X111386858Y-203370571D02*
X111386858Y-201870571D01*
X111244001Y-202084857D01*
X111101143Y-202227714D01*
X110958286Y-202299143D01*
X109672572Y-200402000D02*
X110386858Y-200402000D01*
X109529715Y-200830571D02*
X110029715Y-199330571D01*
X110529715Y-200830571D01*
X111315429Y-199330571D02*
X111458286Y-199330571D01*
X111601143Y-199402000D01*
X111672572Y-199473429D01*
X111744001Y-199616286D01*
X111815429Y-199902000D01*
X111815429Y-200259143D01*
X111744001Y-200544857D01*
X111672572Y-200687714D01*
X111601143Y-200759143D01*
X111458286Y-200830571D01*
X111315429Y-200830571D01*
X111172572Y-200759143D01*
X111101143Y-200687714D01*
X111029715Y-200544857D01*
X110958286Y-200259143D01*
X110958286Y-199902000D01*
X111029715Y-199616286D01*
X111101143Y-199473429D01*
X111172572Y-199402000D01*
X111315429Y-199330571D01*
X186102858Y-184090571D02*
X187031429Y-184090571D01*
X186531429Y-184662000D01*
X186745715Y-184662000D01*
X186888572Y-184733429D01*
X186960001Y-184804857D01*
X187031429Y-184947714D01*
X187031429Y-185304857D01*
X186960001Y-185447714D01*
X186888572Y-185519143D01*
X186745715Y-185590571D01*
X186317143Y-185590571D01*
X186174286Y-185519143D01*
X186102858Y-185447714D01*
X187460000Y-184090571D02*
X187960000Y-185590571D01*
X188460000Y-184090571D01*
X188817143Y-184090571D02*
X189745714Y-184090571D01*
X189245714Y-184662000D01*
X189460000Y-184662000D01*
X189602857Y-184733429D01*
X189674286Y-184804857D01*
X189745714Y-184947714D01*
X189745714Y-185304857D01*
X189674286Y-185447714D01*
X189602857Y-185519143D01*
X189460000Y-185590571D01*
X189031428Y-185590571D01*
X188888571Y-185519143D01*
X188817143Y-185447714D01*
X186817143Y-186702000D02*
X186674286Y-186630571D01*
X186460000Y-186630571D01*
X186245715Y-186702000D01*
X186102857Y-186844857D01*
X186031429Y-186987714D01*
X185960000Y-187273429D01*
X185960000Y-187487714D01*
X186031429Y-187773429D01*
X186102857Y-187916286D01*
X186245715Y-188059143D01*
X186460000Y-188130571D01*
X186602857Y-188130571D01*
X186817143Y-188059143D01*
X186888572Y-187987714D01*
X186888572Y-187487714D01*
X186602857Y-187487714D01*
X187531429Y-188130571D02*
X187531429Y-186630571D01*
X188388572Y-188130571D01*
X188388572Y-186630571D01*
X189102858Y-188130571D02*
X189102858Y-186630571D01*
X189460001Y-186630571D01*
X189674286Y-186702000D01*
X189817144Y-186844857D01*
X189888572Y-186987714D01*
X189960001Y-187273429D01*
X189960001Y-187487714D01*
X189888572Y-187773429D01*
X189817144Y-187916286D01*
X189674286Y-188059143D01*
X189460001Y-188130571D01*
X189102858Y-188130571D01*
X150542858Y-184090571D02*
X151471429Y-184090571D01*
X150971429Y-184662000D01*
X151185715Y-184662000D01*
X151328572Y-184733429D01*
X151400001Y-184804857D01*
X151471429Y-184947714D01*
X151471429Y-185304857D01*
X151400001Y-185447714D01*
X151328572Y-185519143D01*
X151185715Y-185590571D01*
X150757143Y-185590571D01*
X150614286Y-185519143D01*
X150542858Y-185447714D01*
X151900000Y-184090571D02*
X152400000Y-185590571D01*
X152900000Y-184090571D01*
X153257143Y-184090571D02*
X154185714Y-184090571D01*
X153685714Y-184662000D01*
X153900000Y-184662000D01*
X154042857Y-184733429D01*
X154114286Y-184804857D01*
X154185714Y-184947714D01*
X154185714Y-185304857D01*
X154114286Y-185447714D01*
X154042857Y-185519143D01*
X153900000Y-185590571D01*
X153471428Y-185590571D01*
X153328571Y-185519143D01*
X153257143Y-185447714D01*
X151257143Y-186702000D02*
X151114286Y-186630571D01*
X150900000Y-186630571D01*
X150685715Y-186702000D01*
X150542857Y-186844857D01*
X150471429Y-186987714D01*
X150400000Y-187273429D01*
X150400000Y-187487714D01*
X150471429Y-187773429D01*
X150542857Y-187916286D01*
X150685715Y-188059143D01*
X150900000Y-188130571D01*
X151042857Y-188130571D01*
X151257143Y-188059143D01*
X151328572Y-187987714D01*
X151328572Y-187487714D01*
X151042857Y-187487714D01*
X151971429Y-188130571D02*
X151971429Y-186630571D01*
X152828572Y-188130571D01*
X152828572Y-186630571D01*
X153542858Y-188130571D02*
X153542858Y-186630571D01*
X153900001Y-186630571D01*
X154114286Y-186702000D01*
X154257144Y-186844857D01*
X154328572Y-186987714D01*
X154400001Y-187273429D01*
X154400001Y-187487714D01*
X154328572Y-187773429D01*
X154257144Y-187916286D01*
X154114286Y-188059143D01*
X153900001Y-188130571D01*
X153542858Y-188130571D01*
X109902858Y-184090571D02*
X110831429Y-184090571D01*
X110331429Y-184662000D01*
X110545715Y-184662000D01*
X110688572Y-184733429D01*
X110760001Y-184804857D01*
X110831429Y-184947714D01*
X110831429Y-185304857D01*
X110760001Y-185447714D01*
X110688572Y-185519143D01*
X110545715Y-185590571D01*
X110117143Y-185590571D01*
X109974286Y-185519143D01*
X109902858Y-185447714D01*
X111260000Y-184090571D02*
X111760000Y-185590571D01*
X112260000Y-184090571D01*
X112617143Y-184090571D02*
X113545714Y-184090571D01*
X113045714Y-184662000D01*
X113260000Y-184662000D01*
X113402857Y-184733429D01*
X113474286Y-184804857D01*
X113545714Y-184947714D01*
X113545714Y-185304857D01*
X113474286Y-185447714D01*
X113402857Y-185519143D01*
X113260000Y-185590571D01*
X112831428Y-185590571D01*
X112688571Y-185519143D01*
X112617143Y-185447714D01*
X110617143Y-186702000D02*
X110474286Y-186630571D01*
X110260000Y-186630571D01*
X110045715Y-186702000D01*
X109902857Y-186844857D01*
X109831429Y-186987714D01*
X109760000Y-187273429D01*
X109760000Y-187487714D01*
X109831429Y-187773429D01*
X109902857Y-187916286D01*
X110045715Y-188059143D01*
X110260000Y-188130571D01*
X110402857Y-188130571D01*
X110617143Y-188059143D01*
X110688572Y-187987714D01*
X110688572Y-187487714D01*
X110402857Y-187487714D01*
X111331429Y-188130571D02*
X111331429Y-186630571D01*
X112188572Y-188130571D01*
X112188572Y-186630571D01*
X112902858Y-188130571D02*
X112902858Y-186630571D01*
X113260001Y-186630571D01*
X113474286Y-186702000D01*
X113617144Y-186844857D01*
X113688572Y-186987714D01*
X113760001Y-187273429D01*
X113760001Y-187487714D01*
X113688572Y-187773429D01*
X113617144Y-187916286D01*
X113474286Y-188059143D01*
X113260001Y-188130571D01*
X112902858Y-188130571D01*
X74549143Y-186194000D02*
X74406286Y-186122571D01*
X74192000Y-186122571D01*
X73977715Y-186194000D01*
X73834857Y-186336857D01*
X73763429Y-186479714D01*
X73692000Y-186765429D01*
X73692000Y-186979714D01*
X73763429Y-187265429D01*
X73834857Y-187408286D01*
X73977715Y-187551143D01*
X74192000Y-187622571D01*
X74334857Y-187622571D01*
X74549143Y-187551143D01*
X74620572Y-187479714D01*
X74620572Y-186979714D01*
X74334857Y-186979714D01*
X75263429Y-187622571D02*
X75263429Y-186122571D01*
X76120572Y-187622571D01*
X76120572Y-186122571D01*
X76834858Y-187622571D02*
X76834858Y-186122571D01*
X77192001Y-186122571D01*
X77406286Y-186194000D01*
X77549144Y-186336857D01*
X77620572Y-186479714D01*
X77692001Y-186765429D01*
X77692001Y-186979714D01*
X77620572Y-187265429D01*
X77549144Y-187408286D01*
X77406286Y-187551143D01*
X77192001Y-187622571D01*
X76834858Y-187622571D01*
X73834858Y-184090571D02*
X74763429Y-184090571D01*
X74263429Y-184662000D01*
X74477715Y-184662000D01*
X74620572Y-184733429D01*
X74692001Y-184804857D01*
X74763429Y-184947714D01*
X74763429Y-185304857D01*
X74692001Y-185447714D01*
X74620572Y-185519143D01*
X74477715Y-185590571D01*
X74049143Y-185590571D01*
X73906286Y-185519143D01*
X73834858Y-185447714D01*
X75192000Y-184090571D02*
X75692000Y-185590571D01*
X76192000Y-184090571D01*
X76549143Y-184090571D02*
X77477714Y-184090571D01*
X76977714Y-184662000D01*
X77192000Y-184662000D01*
X77334857Y-184733429D01*
X77406286Y-184804857D01*
X77477714Y-184947714D01*
X77477714Y-185304857D01*
X77406286Y-185447714D01*
X77334857Y-185519143D01*
X77192000Y-185590571D01*
X76763428Y-185590571D01*
X76620571Y-185519143D01*
X76549143Y-185447714D01*
X65230286Y-190642476D02*
X65325524Y-190737714D01*
X65420762Y-191023429D01*
X65420762Y-191213905D01*
X65325524Y-191499619D01*
X65135048Y-191690095D01*
X64944571Y-191785334D01*
X64563619Y-191880572D01*
X64277905Y-191880572D01*
X63896952Y-191785334D01*
X63706476Y-191690095D01*
X63516000Y-191499619D01*
X63420762Y-191213905D01*
X63420762Y-191023429D01*
X63516000Y-190737714D01*
X63611238Y-190642476D01*
X64849333Y-189880572D02*
X64849333Y-188928191D01*
X65420762Y-190071048D02*
X63420762Y-189404381D01*
X65420762Y-188737714D01*
X65420762Y-186928190D02*
X64468381Y-187594857D01*
X65420762Y-188071048D02*
X63420762Y-188071048D01*
X63420762Y-187309143D01*
X63516000Y-187118667D01*
X63611238Y-187023428D01*
X63801714Y-186928190D01*
X64087429Y-186928190D01*
X64277905Y-187023428D01*
X64373143Y-187118667D01*
X64468381Y-187309143D01*
X64468381Y-188071048D01*
X65420762Y-186071048D02*
X63420762Y-186071048D01*
X63420762Y-185594857D01*
X63516000Y-185309143D01*
X63706476Y-185118667D01*
X63896952Y-185023428D01*
X64277905Y-184928190D01*
X64563619Y-184928190D01*
X64944571Y-185023428D01*
X65135048Y-185118667D01*
X65325524Y-185309143D01*
X65420762Y-185594857D01*
X65420762Y-186071048D01*
X65420762Y-183023428D02*
X65420762Y-184166286D01*
X65420762Y-183594857D02*
X63420762Y-183594857D01*
X63706476Y-183785333D01*
X63896952Y-183975809D01*
X63992190Y-184166286D01*
X141430286Y-190642476D02*
X141525524Y-190737714D01*
X141620762Y-191023429D01*
X141620762Y-191213905D01*
X141525524Y-191499619D01*
X141335048Y-191690095D01*
X141144571Y-191785334D01*
X140763619Y-191880572D01*
X140477905Y-191880572D01*
X140096952Y-191785334D01*
X139906476Y-191690095D01*
X139716000Y-191499619D01*
X139620762Y-191213905D01*
X139620762Y-191023429D01*
X139716000Y-190737714D01*
X139811238Y-190642476D01*
X141049333Y-189880572D02*
X141049333Y-188928191D01*
X141620762Y-190071048D02*
X139620762Y-189404381D01*
X141620762Y-188737714D01*
X141620762Y-186928190D02*
X140668381Y-187594857D01*
X141620762Y-188071048D02*
X139620762Y-188071048D01*
X139620762Y-187309143D01*
X139716000Y-187118667D01*
X139811238Y-187023428D01*
X140001714Y-186928190D01*
X140287429Y-186928190D01*
X140477905Y-187023428D01*
X140573143Y-187118667D01*
X140668381Y-187309143D01*
X140668381Y-188071048D01*
X141620762Y-186071048D02*
X139620762Y-186071048D01*
X139620762Y-185594857D01*
X139716000Y-185309143D01*
X139906476Y-185118667D01*
X140096952Y-185023428D01*
X140477905Y-184928190D01*
X140763619Y-184928190D01*
X141144571Y-185023428D01*
X141335048Y-185118667D01*
X141525524Y-185309143D01*
X141620762Y-185594857D01*
X141620762Y-186071048D01*
X139811238Y-184166286D02*
X139716000Y-184071048D01*
X139620762Y-183880571D01*
X139620762Y-183404381D01*
X139716000Y-183213905D01*
X139811238Y-183118667D01*
X140001714Y-183023428D01*
X140192190Y-183023428D01*
X140477905Y-183118667D01*
X141620762Y-184261524D01*
X141620762Y-183023428D01*
D12*
X201168000Y-182372000D02*
X201168000Y-244348000D01*
X199136000Y-182372000D02*
X201168000Y-182372000D01*
X138684000Y-182372000D02*
X199136000Y-182372000D01*
X138684000Y-244856000D02*
X138684000Y-182372000D01*
X124460000Y-182372000D02*
X124460000Y-244856000D01*
X123444000Y-182372000D02*
X124460000Y-182372000D01*
X122936000Y-182372000D02*
X123444000Y-182372000D01*
X62992000Y-182372000D02*
X122936000Y-182372000D01*
X62992000Y-182372000D02*
X62992000Y-244856000D01*
D11*
X242316191Y-230140000D02*
X242125714Y-230044762D01*
X241840000Y-230044762D01*
X241554286Y-230140000D01*
X241363810Y-230330476D01*
X241268571Y-230520952D01*
X241173333Y-230901905D01*
X241173333Y-231187619D01*
X241268571Y-231568571D01*
X241363810Y-231759048D01*
X241554286Y-231949524D01*
X241840000Y-232044762D01*
X242030476Y-232044762D01*
X242316191Y-231949524D01*
X242411429Y-231854286D01*
X242411429Y-231187619D01*
X242030476Y-231187619D01*
X243268571Y-232044762D02*
X243268571Y-230044762D01*
X244411429Y-232044762D01*
X244411429Y-230044762D01*
X245363809Y-232044762D02*
X245363809Y-230044762D01*
X245840000Y-230044762D01*
X246125714Y-230140000D01*
X246316190Y-230330476D01*
X246411429Y-230520952D01*
X246506667Y-230901905D01*
X246506667Y-231187619D01*
X246411429Y-231568571D01*
X246316190Y-231759048D01*
X246125714Y-231949524D01*
X245840000Y-232044762D01*
X245363809Y-232044762D01*
X248507619Y-229790762D02*
X249840953Y-229790762D01*
X248983810Y-231790762D01*
X250602857Y-231600286D02*
X250698096Y-231695524D01*
X250602857Y-231790762D01*
X250507619Y-231695524D01*
X250602857Y-231600286D01*
X250602857Y-231790762D01*
X252412381Y-230457429D02*
X252412381Y-231790762D01*
X251936191Y-229695524D02*
X251460000Y-231124095D01*
X252698096Y-231124095D01*
X253174286Y-229790762D02*
X253840953Y-231790762D01*
X254507620Y-229790762D01*
X241554191Y-199660000D02*
X241363714Y-199564762D01*
X241078000Y-199564762D01*
X240792286Y-199660000D01*
X240601810Y-199850476D01*
X240506571Y-200040952D01*
X240411333Y-200421905D01*
X240411333Y-200707619D01*
X240506571Y-201088571D01*
X240601810Y-201279048D01*
X240792286Y-201469524D01*
X241078000Y-201564762D01*
X241268476Y-201564762D01*
X241554191Y-201469524D01*
X241649429Y-201374286D01*
X241649429Y-200707619D01*
X241268476Y-200707619D01*
X242506571Y-201564762D02*
X242506571Y-199564762D01*
X243649429Y-201564762D01*
X243649429Y-199564762D01*
X244601809Y-201564762D02*
X244601809Y-199564762D01*
X245078000Y-199564762D01*
X245363714Y-199660000D01*
X245554190Y-199850476D01*
X245649429Y-200040952D01*
X245744667Y-200421905D01*
X245744667Y-200707619D01*
X245649429Y-201088571D01*
X245554190Y-201279048D01*
X245363714Y-201469524D01*
X245078000Y-201564762D01*
X244601809Y-201564762D01*
X249967905Y-201310762D02*
X248825047Y-201310762D01*
X249396476Y-201310762D02*
X249396476Y-199310762D01*
X249206000Y-199596476D01*
X249015524Y-199786952D01*
X248825047Y-199882190D01*
X250729809Y-199501238D02*
X250825047Y-199406000D01*
X251015524Y-199310762D01*
X251491714Y-199310762D01*
X251682190Y-199406000D01*
X251777428Y-199501238D01*
X251872667Y-199691714D01*
X251872667Y-199882190D01*
X251777428Y-200167905D01*
X250634571Y-201310762D01*
X251872667Y-201310762D01*
X252444095Y-199310762D02*
X253110762Y-201310762D01*
X253777429Y-199310762D01*
D12*
X233680000Y-66548000D02*
X233680000Y-67056000D01*
X245618000Y-66548000D02*
X233680000Y-66548000D01*
X245618000Y-82042000D02*
X245618000Y-66548000D01*
X233934000Y-82042000D02*
X245618000Y-82042000D01*
X232410000Y-88138000D02*
X232410000Y-88646000D01*
X254762000Y-88138000D02*
X232410000Y-88138000D01*
X254762000Y-111252000D02*
X254762000Y-88138000D01*
X233680000Y-111252000D02*
X254762000Y-111252000D01*
D11*
X240808000Y-101504571D02*
X240712762Y-101695048D01*
X240712762Y-101980762D01*
X240808000Y-102266476D01*
X240998476Y-102456952D01*
X241188952Y-102552191D01*
X241569905Y-102647429D01*
X241855619Y-102647429D01*
X242236571Y-102552191D01*
X242427048Y-102456952D01*
X242617524Y-102266476D01*
X242712762Y-101980762D01*
X242712762Y-101790286D01*
X242617524Y-101504571D01*
X242522286Y-101409333D01*
X241855619Y-101409333D01*
X241855619Y-101790286D01*
X242712762Y-100552191D02*
X240712762Y-100552191D01*
X240712762Y-99790286D01*
X240808000Y-99599810D01*
X240903238Y-99504571D01*
X241093714Y-99409333D01*
X241379429Y-99409333D01*
X241569905Y-99504571D01*
X241665143Y-99599810D01*
X241760381Y-99790286D01*
X241760381Y-100552191D01*
X242617524Y-98647429D02*
X242712762Y-98361714D01*
X242712762Y-97885524D01*
X242617524Y-97695048D01*
X242522286Y-97599810D01*
X242331810Y-97504571D01*
X242141333Y-97504571D01*
X241950857Y-97599810D01*
X241855619Y-97695048D01*
X241760381Y-97885524D01*
X241665143Y-98266476D01*
X241569905Y-98456952D01*
X241474667Y-98552191D01*
X241284190Y-98647429D01*
X241093714Y-98647429D01*
X240903238Y-98552191D01*
X240808000Y-98456952D01*
X240712762Y-98266476D01*
X240712762Y-97790286D01*
X240808000Y-97504571D01*
X241506286Y-79501333D02*
X241601524Y-79596571D01*
X241696762Y-79882286D01*
X241696762Y-80072762D01*
X241601524Y-80358476D01*
X241411048Y-80548952D01*
X241220571Y-80644191D01*
X240839619Y-80739429D01*
X240553905Y-80739429D01*
X240172952Y-80644191D01*
X239982476Y-80548952D01*
X239792000Y-80358476D01*
X239696762Y-80072762D01*
X239696762Y-79882286D01*
X239792000Y-79596571D01*
X239887238Y-79501333D01*
X239696762Y-78263238D02*
X239696762Y-77882286D01*
X239792000Y-77691810D01*
X239982476Y-77501333D01*
X240363429Y-77406095D01*
X241030095Y-77406095D01*
X241411048Y-77501333D01*
X241601524Y-77691810D01*
X241696762Y-77882286D01*
X241696762Y-78263238D01*
X241601524Y-78453714D01*
X241411048Y-78644191D01*
X241030095Y-78739429D01*
X240363429Y-78739429D01*
X239982476Y-78644191D01*
X239792000Y-78453714D01*
X239696762Y-78263238D01*
X241696762Y-76548953D02*
X239696762Y-76548953D01*
X241125333Y-75882286D01*
X239696762Y-75215619D01*
X241696762Y-75215619D01*
X241696762Y-74263239D02*
X239696762Y-74263239D01*
X239696762Y-73501334D01*
X239792000Y-73310858D01*
X239887238Y-73215619D01*
X240077714Y-73120381D01*
X240363429Y-73120381D01*
X240553905Y-73215619D01*
X240649143Y-73310858D01*
X240744381Y-73501334D01*
X240744381Y-74263239D01*
X241125333Y-72358477D02*
X241125333Y-71406096D01*
X241696762Y-72548953D02*
X239696762Y-71882286D01*
X241696762Y-71215619D01*
X241601524Y-70644191D02*
X241696762Y-70358476D01*
X241696762Y-69882286D01*
X241601524Y-69691810D01*
X241506286Y-69596572D01*
X241315810Y-69501333D01*
X241125333Y-69501333D01*
X240934857Y-69596572D01*
X240839619Y-69691810D01*
X240744381Y-69882286D01*
X240649143Y-70263238D01*
X240553905Y-70453714D01*
X240458667Y-70548953D01*
X240268190Y-70644191D01*
X240077714Y-70644191D01*
X239887238Y-70548953D01*
X239792000Y-70453714D01*
X239696762Y-70263238D01*
X239696762Y-69787048D01*
X239792000Y-69501333D01*
X241601524Y-68739429D02*
X241696762Y-68453714D01*
X241696762Y-67977524D01*
X241601524Y-67787048D01*
X241506286Y-67691810D01*
X241315810Y-67596571D01*
X241125333Y-67596571D01*
X240934857Y-67691810D01*
X240839619Y-67787048D01*
X240744381Y-67977524D01*
X240649143Y-68358476D01*
X240553905Y-68548952D01*
X240458667Y-68644191D01*
X240268190Y-68739429D01*
X240077714Y-68739429D01*
X239887238Y-68644191D01*
X239792000Y-68548952D01*
X239696762Y-68358476D01*
X239696762Y-67882286D01*
X239792000Y-67596571D01*
D12*
X76962000Y-90932000D02*
X145542000Y-90932000D01*
X145542000Y-173482000D02*
X76962000Y-173482000D01*
X145542000Y-173482000D02*
X145542000Y-90932000D01*
X76962000Y-173482000D02*
X76962000Y-90932000D01*
D11*
X103859143Y-72560571D02*
X103859143Y-71060571D01*
X103859143Y-71774857D02*
X104716286Y-71774857D01*
X104716286Y-72560571D02*
X104716286Y-71060571D01*
X105430572Y-71774857D02*
X105930572Y-71774857D01*
X106144858Y-72560571D02*
X105430572Y-72560571D01*
X105430572Y-71060571D01*
X106144858Y-71060571D01*
X106716286Y-72132000D02*
X107430572Y-72132000D01*
X106573429Y-72560571D02*
X107073429Y-71060571D01*
X107573429Y-72560571D01*
X107859143Y-71060571D02*
X108716286Y-71060571D01*
X108287715Y-72560571D02*
X108287715Y-71060571D01*
X109144857Y-72489143D02*
X109359143Y-72560571D01*
X109716286Y-72560571D01*
X109859143Y-72489143D01*
X109930572Y-72417714D01*
X110002000Y-72274857D01*
X110002000Y-72132000D01*
X109930572Y-71989143D01*
X109859143Y-71917714D01*
X109716286Y-71846286D01*
X109430572Y-71774857D01*
X109287714Y-71703429D01*
X109216286Y-71632000D01*
X109144857Y-71489143D01*
X109144857Y-71346286D01*
X109216286Y-71203429D01*
X109287714Y-71132000D01*
X109430572Y-71060571D01*
X109787714Y-71060571D01*
X110002000Y-71132000D01*
X110644857Y-72560571D02*
X110644857Y-71060571D01*
X111359143Y-72560571D02*
X111359143Y-71060571D01*
X112216286Y-72560571D01*
X112216286Y-71060571D01*
X112930572Y-72560571D02*
X112930572Y-71060571D01*
X113787715Y-72560571D02*
X113144858Y-71703429D01*
X113787715Y-71060571D02*
X112930572Y-71917714D01*
X115573429Y-71060571D02*
X115573429Y-72274857D01*
X115644857Y-72417714D01*
X115716286Y-72489143D01*
X115859143Y-72560571D01*
X116144857Y-72560571D01*
X116287715Y-72489143D01*
X116359143Y-72417714D01*
X116430572Y-72274857D01*
X116430572Y-71060571D01*
X117144858Y-72560571D02*
X117144858Y-71060571D01*
X117716286Y-71060571D01*
X117859144Y-71132000D01*
X117930572Y-71203429D01*
X118002001Y-71346286D01*
X118002001Y-71560571D01*
X117930572Y-71703429D01*
X117859144Y-71774857D01*
X117716286Y-71846286D01*
X117144858Y-71846286D01*
X118644858Y-72417714D02*
X118716286Y-72489143D01*
X118644858Y-72560571D01*
X118573429Y-72489143D01*
X118644858Y-72417714D01*
X118644858Y-72560571D01*
X118644858Y-71989143D02*
X118573429Y-71132000D01*
X118644858Y-71060571D01*
X118716286Y-71132000D01*
X118644858Y-71989143D01*
X118644858Y-71060571D01*
D13*
X106051047Y-67951048D02*
X105204381Y-66741524D01*
X104599619Y-67951048D02*
X104599619Y-65411048D01*
X105567238Y-65411048D01*
X105809143Y-65532000D01*
X105930095Y-65652952D01*
X106051047Y-65894857D01*
X106051047Y-66257714D01*
X105930095Y-66499619D01*
X105809143Y-66620571D01*
X105567238Y-66741524D01*
X104599619Y-66741524D01*
X107986286Y-66620571D02*
X107139619Y-66620571D01*
X107139619Y-67951048D02*
X107139619Y-65411048D01*
X108349143Y-65411048D01*
X109316762Y-67951048D02*
X109316762Y-65411048D01*
X109921524Y-65411048D01*
X110284381Y-65532000D01*
X110526286Y-65773905D01*
X110647238Y-66015810D01*
X110768190Y-66499619D01*
X110768190Y-66862476D01*
X110647238Y-67346286D01*
X110526286Y-67588190D01*
X110284381Y-67830095D01*
X109921524Y-67951048D01*
X109316762Y-67951048D01*
X111977714Y-67951048D02*
X112461524Y-67951048D01*
X112703429Y-67830095D01*
X112824381Y-67709143D01*
X113066286Y-67346286D01*
X113187238Y-66862476D01*
X113187238Y-65894857D01*
X113066286Y-65652952D01*
X112945333Y-65532000D01*
X112703429Y-65411048D01*
X112219619Y-65411048D01*
X111977714Y-65532000D01*
X111856762Y-65652952D01*
X111735810Y-65894857D01*
X111735810Y-66499619D01*
X111856762Y-66741524D01*
X111977714Y-66862476D01*
X112219619Y-66983429D01*
X112703429Y-66983429D01*
X112945333Y-66862476D01*
X113066286Y-66741524D01*
X113187238Y-66499619D01*
X114759619Y-65411048D02*
X115001524Y-65411048D01*
X115243429Y-65532000D01*
X115364381Y-65652952D01*
X115485334Y-65894857D01*
X115606286Y-66378667D01*
X115606286Y-66983429D01*
X115485334Y-67467238D01*
X115364381Y-67709143D01*
X115243429Y-67830095D01*
X115001524Y-67951048D01*
X114759619Y-67951048D01*
X114517715Y-67830095D01*
X114396762Y-67709143D01*
X114275810Y-67467238D01*
X114154858Y-66983429D01*
X114154858Y-66378667D01*
X114275810Y-65894857D01*
X114396762Y-65652952D01*
X114517715Y-65532000D01*
X114759619Y-65411048D01*
X117178667Y-65411048D02*
X117420572Y-65411048D01*
X117662477Y-65532000D01*
X117783429Y-65652952D01*
X117904382Y-65894857D01*
X118025334Y-66378667D01*
X118025334Y-66983429D01*
X117904382Y-67467238D01*
X117783429Y-67709143D01*
X117662477Y-67830095D01*
X117420572Y-67951048D01*
X117178667Y-67951048D01*
X116936763Y-67830095D01*
X116815810Y-67709143D01*
X116694858Y-67467238D01*
X116573906Y-66983429D01*
X116573906Y-66378667D01*
X116694858Y-65894857D01*
X116815810Y-65652952D01*
X116936763Y-65532000D01*
X117178667Y-65411048D01*
D12*
X75692000Y-75692000D02*
X88392000Y-75692000D01*
X75692000Y-83312000D02*
X75692000Y-75692000D01*
X88392000Y-83312000D02*
X75692000Y-83312000D01*
X75692000Y-61722000D02*
X88392000Y-61722000D01*
X75692000Y-54102000D02*
X75692000Y-61722000D01*
X88392000Y-54102000D02*
X75692000Y-54102000D01*
X88392000Y-52832000D02*
X88392000Y-54102000D01*
X88392000Y-84582000D02*
X134112000Y-84582000D01*
X88392000Y-52832000D02*
X88392000Y-84582000D01*
X134112000Y-52832000D02*
X88392000Y-52832000D01*
X134112000Y-84582000D02*
X134112000Y-52832000D01*
D14*
X146752000Y-186182000D02*
X146752000Y-209102000D01*
X146752000Y-209102000D02*
X149412000Y-209102000D01*
X149412000Y-209102000D02*
X149412000Y-186182000D01*
X149412000Y-186182000D02*
X146752000Y-186182000D01*
X146752000Y-184912000D02*
X146752000Y-183582000D01*
X146752000Y-183582000D02*
X148082000Y-183582000D01*
X177449400Y-107143600D02*
X177449400Y-105883600D01*
X177449400Y-100323600D02*
X177449400Y-101583600D01*
X173689400Y-107143600D02*
X177449400Y-107143600D01*
X171439400Y-100323600D02*
X177449400Y-100323600D01*
X182312000Y-186182000D02*
X182312000Y-209102000D01*
X182312000Y-209102000D02*
X184972000Y-209102000D01*
X184972000Y-209102000D02*
X184972000Y-186182000D01*
X184972000Y-186182000D02*
X182312000Y-186182000D01*
X182312000Y-184912000D02*
X182312000Y-183582000D01*
X182312000Y-183582000D02*
X183642000Y-183582000D01*
X106112000Y-186182000D02*
X106112000Y-209102000D01*
X106112000Y-209102000D02*
X108772000Y-209102000D01*
X108772000Y-209102000D02*
X108772000Y-186182000D01*
X108772000Y-186182000D02*
X106112000Y-186182000D01*
X106112000Y-184912000D02*
X106112000Y-183582000D01*
X106112000Y-183582000D02*
X107442000Y-183582000D01*
X70552000Y-186182000D02*
X70552000Y-209102000D01*
X70552000Y-209102000D02*
X73212000Y-209102000D01*
X73212000Y-209102000D02*
X73212000Y-186182000D01*
X73212000Y-186182000D02*
X70552000Y-186182000D01*
X70552000Y-184912000D02*
X70552000Y-183582000D01*
X70552000Y-183582000D02*
X71882000Y-183582000D01*
X220412000Y-75692000D02*
X220412000Y-111312000D01*
X220412000Y-111312000D02*
X223072000Y-111312000D01*
X223072000Y-111312000D02*
X223072000Y-75692000D01*
X223072000Y-75692000D02*
X220412000Y-75692000D01*
X220412000Y-74422000D02*
X220412000Y-73092000D01*
X220412000Y-73092000D02*
X221742000Y-73092000D01*
X230572000Y-69342000D02*
X230572000Y-82102000D01*
X230572000Y-82102000D02*
X233232000Y-82102000D01*
X233232000Y-82102000D02*
X233232000Y-69342000D01*
X233232000Y-69342000D02*
X230572000Y-69342000D01*
X230572000Y-68072000D02*
X230572000Y-66742000D01*
X230572000Y-66742000D02*
X231902000Y-66742000D01*
X230572000Y-90932000D02*
X230572000Y-111312000D01*
X230572000Y-111312000D02*
X233232000Y-111312000D01*
X233232000Y-111312000D02*
X233232000Y-90932000D01*
X233232000Y-90932000D02*
X230572000Y-90932000D01*
X230572000Y-89662000D02*
X230572000Y-88332000D01*
X230572000Y-88332000D02*
X231902000Y-88332000D01*
X205172000Y-75692000D02*
X205172000Y-111312000D01*
X205172000Y-111312000D02*
X207832000Y-111312000D01*
X207832000Y-111312000D02*
X207832000Y-75692000D01*
X207832000Y-75692000D02*
X205172000Y-75692000D01*
X205172000Y-74422000D02*
X205172000Y-73092000D01*
X205172000Y-73092000D02*
X206502000Y-73092000D01*
X142812000Y-58360000D02*
X142812000Y-60960000D01*
X142812000Y-60960000D02*
X134182000Y-60960000D01*
X134182000Y-60960000D02*
X134182000Y-58360000D01*
X134182000Y-58360000D02*
X142812000Y-58360000D01*
X143242000Y-59310000D02*
X142812000Y-59310000D01*
X143242000Y-60070000D02*
X142812000Y-60070000D01*
X145782000Y-59310000D02*
X145302000Y-59310000D01*
X145782000Y-60070000D02*
X145302000Y-60070000D01*
X142812000Y-58540000D02*
X134182000Y-58540000D01*
X142812000Y-58660000D02*
X134182000Y-58660000D01*
X142812000Y-58780000D02*
X134182000Y-58780000D01*
X142812000Y-58900000D02*
X134182000Y-58900000D01*
X142812000Y-59020000D02*
X134182000Y-59020000D01*
X142812000Y-59140000D02*
X134182000Y-59140000D01*
X142812000Y-59260000D02*
X134182000Y-59260000D01*
X142812000Y-59380000D02*
X134182000Y-59380000D01*
X142812000Y-59500000D02*
X134182000Y-59500000D01*
X142812000Y-59620000D02*
X134182000Y-59620000D01*
X142812000Y-59740000D02*
X134182000Y-59740000D01*
X142812000Y-59860000D02*
X134182000Y-59860000D01*
X142812000Y-59980000D02*
X134182000Y-59980000D01*
X142812000Y-60100000D02*
X134182000Y-60100000D01*
X142812000Y-60220000D02*
X134182000Y-60220000D01*
X142812000Y-60340000D02*
X134182000Y-60340000D01*
X142812000Y-60460000D02*
X134182000Y-60460000D01*
X142812000Y-60580000D02*
X134182000Y-60580000D01*
X142812000Y-60700000D02*
X134182000Y-60700000D01*
X142812000Y-60820000D02*
X134182000Y-60820000D01*
X142812000Y-60940000D02*
X134182000Y-60940000D01*
X142812000Y-61060000D02*
X134182000Y-61060000D01*
X142812000Y-60960000D02*
X142812000Y-63500000D01*
X142812000Y-63500000D02*
X134182000Y-63500000D01*
X134182000Y-63500000D02*
X134182000Y-60960000D01*
X134182000Y-60960000D02*
X142812000Y-60960000D01*
X143242000Y-61850000D02*
X142812000Y-61850000D01*
X143242000Y-62610000D02*
X142812000Y-62610000D01*
X145782000Y-61850000D02*
X145302000Y-61850000D01*
X145782000Y-62610000D02*
X145302000Y-62610000D01*
X142812000Y-63500000D02*
X142812000Y-66040000D01*
X142812000Y-66040000D02*
X134182000Y-66040000D01*
X134182000Y-66040000D02*
X134182000Y-63500000D01*
X134182000Y-63500000D02*
X142812000Y-63500000D01*
X143242000Y-64390000D02*
X142812000Y-64390000D01*
X143242000Y-65150000D02*
X142812000Y-65150000D01*
X145782000Y-64390000D02*
X145302000Y-64390000D01*
X145782000Y-65150000D02*
X145302000Y-65150000D01*
X142812000Y-66040000D02*
X142812000Y-68580000D01*
X142812000Y-68580000D02*
X134182000Y-68580000D01*
X134182000Y-68580000D02*
X134182000Y-66040000D01*
X134182000Y-66040000D02*
X142812000Y-66040000D01*
X143242000Y-66930000D02*
X142812000Y-66930000D01*
X143242000Y-67690000D02*
X142812000Y-67690000D01*
X145782000Y-66930000D02*
X145302000Y-66930000D01*
X145782000Y-67690000D02*
X145302000Y-67690000D01*
X142812000Y-68580000D02*
X142812000Y-71120000D01*
X142812000Y-71120000D02*
X134182000Y-71120000D01*
X134182000Y-71120000D02*
X134182000Y-68580000D01*
X134182000Y-68580000D02*
X142812000Y-68580000D01*
X143242000Y-69470000D02*
X142812000Y-69470000D01*
X143242000Y-70230000D02*
X142812000Y-70230000D01*
X145782000Y-69470000D02*
X145302000Y-69470000D01*
X145782000Y-70230000D02*
X145302000Y-70230000D01*
X142812000Y-71120000D02*
X142812000Y-73660000D01*
X142812000Y-73660000D02*
X134182000Y-73660000D01*
X134182000Y-73660000D02*
X134182000Y-71120000D01*
X134182000Y-71120000D02*
X142812000Y-71120000D01*
X143242000Y-72010000D02*
X142812000Y-72010000D01*
X143242000Y-72770000D02*
X142812000Y-72770000D01*
X145782000Y-72010000D02*
X145302000Y-72010000D01*
X145782000Y-72770000D02*
X145302000Y-72770000D01*
X142812000Y-73660000D02*
X142812000Y-76200000D01*
X142812000Y-76200000D02*
X134182000Y-76200000D01*
X134182000Y-76200000D02*
X134182000Y-73660000D01*
X134182000Y-73660000D02*
X142812000Y-73660000D01*
X143242000Y-74550000D02*
X142812000Y-74550000D01*
X143242000Y-75310000D02*
X142812000Y-75310000D01*
X145782000Y-74550000D02*
X145302000Y-74550000D01*
X145782000Y-75310000D02*
X145302000Y-75310000D01*
X142812000Y-76200000D02*
X142812000Y-78800000D01*
X142812000Y-78800000D02*
X134182000Y-78800000D01*
X134182000Y-78800000D02*
X134182000Y-76200000D01*
X134182000Y-76200000D02*
X142812000Y-76200000D01*
X143242000Y-77090000D02*
X142812000Y-77090000D01*
X143242000Y-77850000D02*
X142812000Y-77850000D01*
X145782000Y-77090000D02*
X145302000Y-77090000D01*
X145782000Y-77850000D02*
X145302000Y-77850000D01*
X146812000Y-58420000D02*
X148082000Y-58420000D01*
X148082000Y-58420000D02*
X148082000Y-59690000D01*
X188722000Y-238192000D02*
X150562000Y-238192000D01*
X150562000Y-238192000D02*
X150562000Y-243392000D01*
X150562000Y-243392000D02*
X191322000Y-243392000D01*
X191322000Y-243392000D02*
X191322000Y-240792000D01*
X191322000Y-240792000D02*
X188722000Y-240792000D01*
X188722000Y-240792000D02*
X188722000Y-238192000D01*
X189992000Y-238192000D02*
X191322000Y-238192000D01*
X191322000Y-238192000D02*
X191322000Y-239522000D01*
X169272000Y-59812000D02*
X168012000Y-59812000D01*
X162452000Y-59812000D02*
X163712000Y-59812000D01*
X169272000Y-63572000D02*
X169272000Y-59812000D01*
X162452000Y-65822000D02*
X162452000Y-59812000D01*
X200752000Y-77842000D02*
X199552000Y-77842000D01*
X199552000Y-76082000D02*
X200752000Y-76082000D01*
X222342000Y-150232000D02*
X221142000Y-150232000D01*
X221142000Y-148472000D02*
X222342000Y-148472000D01*
X222342000Y-154042000D02*
X221142000Y-154042000D01*
X221142000Y-152282000D02*
X222342000Y-152282000D01*
X200752000Y-150232000D02*
X199552000Y-150232000D01*
X199552000Y-148472000D02*
X200752000Y-148472000D01*
X203292000Y-137532000D02*
X202092000Y-137532000D01*
X202092000Y-135772000D02*
X203292000Y-135772000D01*
X203292000Y-133722000D02*
X202092000Y-133722000D01*
X202092000Y-131962000D02*
X203292000Y-131962000D01*
X203292000Y-129912000D02*
X202092000Y-129912000D01*
X202092000Y-128152000D02*
X203292000Y-128152000D01*
X203292000Y-126102000D02*
X202092000Y-126102000D01*
X202092000Y-124342000D02*
X203292000Y-124342000D01*
X200752000Y-154042000D02*
X199552000Y-154042000D01*
X199552000Y-152282000D02*
X200752000Y-152282000D01*
X176622000Y-150232000D02*
X175422000Y-150232000D01*
X175422000Y-148472000D02*
X176622000Y-148472000D01*
X176622000Y-154042000D02*
X175422000Y-154042000D01*
X175422000Y-152282000D02*
X176622000Y-152282000D01*
X161452000Y-73542000D02*
X162652000Y-73542000D01*
X162652000Y-75302000D02*
X161452000Y-75302000D01*
X175924100Y-111134600D02*
X175924100Y-112334600D01*
X174164100Y-112334600D02*
X174164100Y-111134600D01*
X195012000Y-85852000D02*
X195012000Y-96072000D01*
X195012000Y-96072000D02*
X200212000Y-96072000D01*
X200212000Y-96072000D02*
X200212000Y-83252000D01*
X200212000Y-83252000D02*
X197612000Y-83252000D01*
X197612000Y-83252000D02*
X197612000Y-85852000D01*
X197612000Y-85852000D02*
X195012000Y-85852000D01*
X195012000Y-84582000D02*
X195012000Y-83252000D01*
X195012000Y-83252000D02*
X196342000Y-83252000D01*
X229422000Y-151892000D02*
X229422000Y-146752000D01*
X229422000Y-146752000D02*
X226762000Y-146752000D01*
X226762000Y-146752000D02*
X226762000Y-151892000D01*
X226762000Y-151892000D02*
X229422000Y-151892000D01*
X229422000Y-153162000D02*
X229422000Y-154492000D01*
X229422000Y-154492000D02*
X228092000Y-154492000D01*
X195012000Y-127762000D02*
X195012000Y-135442000D01*
X195012000Y-135442000D02*
X197672000Y-135442000D01*
X197672000Y-135442000D02*
X197672000Y-127762000D01*
X197672000Y-127762000D02*
X195012000Y-127762000D01*
X195012000Y-126492000D02*
X195012000Y-125162000D01*
X195012000Y-125162000D02*
X196342000Y-125162000D01*
X207832000Y-151892000D02*
X207832000Y-146752000D01*
X207832000Y-146752000D02*
X205172000Y-146752000D01*
X205172000Y-146752000D02*
X205172000Y-151892000D01*
X205172000Y-151892000D02*
X207832000Y-151892000D01*
X207832000Y-153162000D02*
X207832000Y-154492000D01*
X207832000Y-154492000D02*
X206502000Y-154492000D01*
X183702000Y-151892000D02*
X183702000Y-146752000D01*
X183702000Y-146752000D02*
X181042000Y-146752000D01*
X181042000Y-146752000D02*
X181042000Y-151892000D01*
X181042000Y-151892000D02*
X183702000Y-151892000D01*
X183702000Y-153162000D02*
X183702000Y-154492000D01*
X183702000Y-154492000D02*
X182372000Y-154492000D01*
X153102000Y-201422000D02*
X153102000Y-209102000D01*
X153102000Y-209102000D02*
X158302000Y-209102000D01*
X158302000Y-209102000D02*
X158302000Y-198822000D01*
X158302000Y-198822000D02*
X155702000Y-198822000D01*
X155702000Y-198822000D02*
X155702000Y-201422000D01*
X155702000Y-201422000D02*
X153102000Y-201422000D01*
X153102000Y-200152000D02*
X153102000Y-198822000D01*
X153102000Y-198822000D02*
X154432000Y-198822000D01*
X153162000Y-238312000D02*
X191322000Y-238312000D01*
X191322000Y-238312000D02*
X191322000Y-235652000D01*
X191322000Y-235652000D02*
X153162000Y-235652000D01*
X153162000Y-235652000D02*
X153162000Y-238312000D01*
X151892000Y-238312000D02*
X150562000Y-238312000D01*
X150562000Y-238312000D02*
X150562000Y-236982000D01*
X188662000Y-201422000D02*
X188662000Y-209102000D01*
X188662000Y-209102000D02*
X193862000Y-209102000D01*
X193862000Y-209102000D02*
X193862000Y-198822000D01*
X193862000Y-198822000D02*
X191262000Y-198822000D01*
X191262000Y-198822000D02*
X191262000Y-201422000D01*
X191262000Y-201422000D02*
X188662000Y-201422000D01*
X188662000Y-200152000D02*
X188662000Y-198822000D01*
X188662000Y-198822000D02*
X189992000Y-198822000D01*
X75692000Y-238312000D02*
X113852000Y-238312000D01*
X113852000Y-238312000D02*
X113852000Y-235652000D01*
X113852000Y-235652000D02*
X75692000Y-235652000D01*
X75692000Y-235652000D02*
X75692000Y-238312000D01*
X74422000Y-238312000D02*
X73092000Y-238312000D01*
X73092000Y-238312000D02*
X73092000Y-236982000D01*
X112462000Y-201422000D02*
X112462000Y-209102000D01*
X112462000Y-209102000D02*
X117662000Y-209102000D01*
X117662000Y-209102000D02*
X117662000Y-198822000D01*
X117662000Y-198822000D02*
X115062000Y-198822000D01*
X115062000Y-198822000D02*
X115062000Y-201422000D01*
X115062000Y-201422000D02*
X112462000Y-201422000D01*
X112462000Y-200152000D02*
X112462000Y-198822000D01*
X112462000Y-198822000D02*
X113792000Y-198822000D01*
X76902000Y-201422000D02*
X76902000Y-209102000D01*
X76902000Y-209102000D02*
X82102000Y-209102000D01*
X82102000Y-209102000D02*
X82102000Y-198822000D01*
X82102000Y-198822000D02*
X79502000Y-198822000D01*
X79502000Y-198822000D02*
X79502000Y-201422000D01*
X79502000Y-201422000D02*
X76902000Y-201422000D01*
X76902000Y-200152000D02*
X76902000Y-198822000D01*
X76902000Y-198822000D02*
X78232000Y-198822000D01*
X198352000Y-73722000D02*
X198352000Y-75122000D01*
X198352000Y-75122000D02*
X201152000Y-75122000D01*
X198352000Y-73722000D02*
X201152000Y-73722000D01*
X209572000Y-137352000D02*
X209572000Y-135952000D01*
X209572000Y-135952000D02*
X206772000Y-135952000D01*
X209572000Y-137352000D02*
X206772000Y-137352000D01*
X209572000Y-133542000D02*
X209572000Y-132142000D01*
X209572000Y-132142000D02*
X206772000Y-132142000D01*
X209572000Y-133542000D02*
X206772000Y-133542000D01*
X209572000Y-129732000D02*
X209572000Y-128332000D01*
X209572000Y-128332000D02*
X206772000Y-128332000D01*
X209572000Y-129732000D02*
X206772000Y-129732000D01*
X209572000Y-125922000D02*
X209572000Y-124522000D01*
X209572000Y-124522000D02*
X206772000Y-124522000D01*
X209572000Y-125922000D02*
X206772000Y-125922000D01*
X167872000Y-73722000D02*
X167872000Y-75122000D01*
X167872000Y-75122000D02*
X170672000Y-75122000D01*
X167872000Y-73722000D02*
X170672000Y-73722000D01*
X170711900Y-113394900D02*
X172111900Y-113394900D01*
X172111900Y-113394900D02*
X172111900Y-110594900D01*
X170711900Y-113394900D02*
X170711900Y-110594900D01*
X169172000Y-70192000D02*
X170172000Y-70192000D01*
X170172000Y-68492000D02*
X169172000Y-68492000D01*
X167969300Y-108069000D02*
X167969300Y-107069000D01*
X166269300Y-107069000D02*
X166269300Y-108069000D01*
X162552000Y-68492000D02*
X161552000Y-68492000D01*
X161552000Y-70192000D02*
X162552000Y-70192000D01*
X166320100Y-99474400D02*
X166320100Y-100474400D01*
X168020100Y-100474400D02*
X168020100Y-99474400D01*
X111252000Y-238192000D02*
X73092000Y-238192000D01*
X73092000Y-238192000D02*
X73092000Y-243392000D01*
X73092000Y-243392000D02*
X113852000Y-243392000D01*
X113852000Y-243392000D02*
X113852000Y-240792000D01*
X113852000Y-240792000D02*
X111252000Y-240792000D01*
X111252000Y-240792000D02*
X111252000Y-238192000D01*
X112522000Y-238192000D02*
X113852000Y-238192000D01*
X113852000Y-238192000D02*
X113852000Y-239522000D01*
X136592000Y-126492000D02*
X136592000Y-172272000D01*
X136592000Y-172272000D02*
X141792000Y-172272000D01*
X141792000Y-172272000D02*
X141792000Y-123892000D01*
X141792000Y-123892000D02*
X139192000Y-123892000D01*
X139192000Y-123892000D02*
X139192000Y-126492000D01*
X139192000Y-126492000D02*
X136592000Y-126492000D01*
X136592000Y-125222000D02*
X136592000Y-123892000D01*
X136592000Y-123892000D02*
X137862000Y-123892000D01*
X75632000Y-126492000D02*
X75632000Y-172272000D01*
X75632000Y-172272000D02*
X80832000Y-172272000D01*
X80832000Y-172272000D02*
X80832000Y-123892000D01*
X80832000Y-123892000D02*
X78232000Y-123892000D01*
X78232000Y-123892000D02*
X78232000Y-126492000D01*
X78232000Y-126492000D02*
X75632000Y-126492000D01*
X75632000Y-125222000D02*
X75632000Y-123892000D01*
X75632000Y-123892000D02*
X76902000Y-123892000D01*
D15*
X147320095Y-182034381D02*
X147320095Y-182843905D01*
X147367714Y-182939143D01*
X147415333Y-182986762D01*
X147510571Y-183034381D01*
X147701048Y-183034381D01*
X147796286Y-182986762D01*
X147843905Y-182939143D01*
X147891524Y-182843905D01*
X147891524Y-182034381D01*
X148415333Y-183034381D02*
X148605809Y-183034381D01*
X148701048Y-182986762D01*
X148748667Y-182939143D01*
X148843905Y-182796286D01*
X148891524Y-182605810D01*
X148891524Y-182224857D01*
X148843905Y-182129619D01*
X148796286Y-182082000D01*
X148701048Y-182034381D01*
X148510571Y-182034381D01*
X148415333Y-182082000D01*
X148367714Y-182129619D01*
X148320095Y-182224857D01*
X148320095Y-182462952D01*
X148367714Y-182558190D01*
X148415333Y-182605810D01*
X148510571Y-182653429D01*
X148701048Y-182653429D01*
X148796286Y-182605810D01*
X148843905Y-182558190D01*
X148891524Y-182462952D01*
X174777495Y-98685981D02*
X174777495Y-99495505D01*
X174825114Y-99590743D01*
X174872733Y-99638362D01*
X174967971Y-99685981D01*
X175158448Y-99685981D01*
X175253686Y-99638362D01*
X175301305Y-99590743D01*
X175348924Y-99495505D01*
X175348924Y-98685981D01*
X176253686Y-98685981D02*
X176063209Y-98685981D01*
X175967971Y-98733600D01*
X175920352Y-98781219D01*
X175825114Y-98924076D01*
X175777495Y-99114552D01*
X175777495Y-99495505D01*
X175825114Y-99590743D01*
X175872733Y-99638362D01*
X175967971Y-99685981D01*
X176158448Y-99685981D01*
X176253686Y-99638362D01*
X176301305Y-99590743D01*
X176348924Y-99495505D01*
X176348924Y-99257410D01*
X176301305Y-99162171D01*
X176253686Y-99114552D01*
X176158448Y-99066933D01*
X175967971Y-99066933D01*
X175872733Y-99114552D01*
X175825114Y-99162171D01*
X175777495Y-99257410D01*
X182880095Y-182034381D02*
X182880095Y-182843905D01*
X182927714Y-182939143D01*
X182975333Y-182986762D01*
X183070571Y-183034381D01*
X183261048Y-183034381D01*
X183356286Y-182986762D01*
X183403905Y-182939143D01*
X183451524Y-182843905D01*
X183451524Y-182034381D01*
X184403905Y-182034381D02*
X183927714Y-182034381D01*
X183880095Y-182510571D01*
X183927714Y-182462952D01*
X184022952Y-182415333D01*
X184261048Y-182415333D01*
X184356286Y-182462952D01*
X184403905Y-182510571D01*
X184451524Y-182605810D01*
X184451524Y-182843905D01*
X184403905Y-182939143D01*
X184356286Y-182986762D01*
X184261048Y-183034381D01*
X184022952Y-183034381D01*
X183927714Y-182986762D01*
X183880095Y-182939143D01*
X106680095Y-182034381D02*
X106680095Y-182843905D01*
X106727714Y-182939143D01*
X106775333Y-182986762D01*
X106870571Y-183034381D01*
X107061048Y-183034381D01*
X107156286Y-182986762D01*
X107203905Y-182939143D01*
X107251524Y-182843905D01*
X107251524Y-182034381D01*
X107632476Y-182034381D02*
X108251524Y-182034381D01*
X107918190Y-182415333D01*
X108061048Y-182415333D01*
X108156286Y-182462952D01*
X108203905Y-182510571D01*
X108251524Y-182605810D01*
X108251524Y-182843905D01*
X108203905Y-182939143D01*
X108156286Y-182986762D01*
X108061048Y-183034381D01*
X107775333Y-183034381D01*
X107680095Y-182986762D01*
X107632476Y-182939143D01*
X71120095Y-182034381D02*
X71120095Y-182843905D01*
X71167714Y-182939143D01*
X71215333Y-182986762D01*
X71310571Y-183034381D01*
X71501048Y-183034381D01*
X71596286Y-182986762D01*
X71643905Y-182939143D01*
X71691524Y-182843905D01*
X71691524Y-182034381D01*
X72120095Y-182129619D02*
X72167714Y-182082000D01*
X72262952Y-182034381D01*
X72501048Y-182034381D01*
X72596286Y-182082000D01*
X72643905Y-182129619D01*
X72691524Y-182224857D01*
X72691524Y-182320095D01*
X72643905Y-182462952D01*
X72072476Y-183034381D01*
X72691524Y-183034381D01*
X220932477Y-71544381D02*
X220932477Y-72258667D01*
X220884857Y-72401524D01*
X220789619Y-72496762D01*
X220646762Y-72544381D01*
X220551524Y-72544381D01*
X221361048Y-71639619D02*
X221408667Y-71592000D01*
X221503905Y-71544381D01*
X221742001Y-71544381D01*
X221837239Y-71592000D01*
X221884858Y-71639619D01*
X221932477Y-71734857D01*
X221932477Y-71830095D01*
X221884858Y-71972952D01*
X221313429Y-72544381D01*
X221932477Y-72544381D01*
X222313429Y-71639619D02*
X222361048Y-71592000D01*
X222456286Y-71544381D01*
X222694382Y-71544381D01*
X222789620Y-71592000D01*
X222837239Y-71639619D01*
X222884858Y-71734857D01*
X222884858Y-71830095D01*
X222837239Y-71972952D01*
X222265810Y-72544381D01*
X222884858Y-72544381D01*
X231092477Y-65194381D02*
X231092477Y-65908667D01*
X231044857Y-66051524D01*
X230949619Y-66146762D01*
X230806762Y-66194381D01*
X230711524Y-66194381D01*
X231521048Y-65289619D02*
X231568667Y-65242000D01*
X231663905Y-65194381D01*
X231902001Y-65194381D01*
X231997239Y-65242000D01*
X232044858Y-65289619D01*
X232092477Y-65384857D01*
X232092477Y-65480095D01*
X232044858Y-65622952D01*
X231473429Y-66194381D01*
X232092477Y-66194381D01*
X233044858Y-66194381D02*
X232473429Y-66194381D01*
X232759143Y-66194381D02*
X232759143Y-65194381D01*
X232663905Y-65337238D01*
X232568667Y-65432476D01*
X232473429Y-65480095D01*
X231092477Y-86784381D02*
X231092477Y-87498667D01*
X231044857Y-87641524D01*
X230949619Y-87736762D01*
X230806762Y-87784381D01*
X230711524Y-87784381D01*
X231521048Y-86879619D02*
X231568667Y-86832000D01*
X231663905Y-86784381D01*
X231902001Y-86784381D01*
X231997239Y-86832000D01*
X232044858Y-86879619D01*
X232092477Y-86974857D01*
X232092477Y-87070095D01*
X232044858Y-87212952D01*
X231473429Y-87784381D01*
X232092477Y-87784381D01*
X232711524Y-86784381D02*
X232806763Y-86784381D01*
X232902001Y-86832000D01*
X232949620Y-86879619D01*
X232997239Y-86974857D01*
X233044858Y-87165333D01*
X233044858Y-87403429D01*
X232997239Y-87593905D01*
X232949620Y-87689143D01*
X232902001Y-87736762D01*
X232806763Y-87784381D01*
X232711524Y-87784381D01*
X232616286Y-87736762D01*
X232568667Y-87689143D01*
X232521048Y-87593905D01*
X232473429Y-87403429D01*
X232473429Y-87165333D01*
X232521048Y-86974857D01*
X232568667Y-86879619D01*
X232616286Y-86832000D01*
X232711524Y-86784381D01*
X205692477Y-71544381D02*
X205692477Y-72258667D01*
X205644857Y-72401524D01*
X205549619Y-72496762D01*
X205406762Y-72544381D01*
X205311524Y-72544381D01*
X206692477Y-72544381D02*
X206121048Y-72544381D01*
X206406762Y-72544381D02*
X206406762Y-71544381D01*
X206311524Y-71687238D01*
X206216286Y-71782476D01*
X206121048Y-71830095D01*
X207549620Y-71877714D02*
X207549620Y-72544381D01*
X207311524Y-71496762D02*
X207073429Y-72211048D01*
X207692477Y-72211048D01*
X140352477Y-56872381D02*
X140352477Y-57586667D01*
X140304857Y-57729524D01*
X140209619Y-57824762D01*
X140066762Y-57872381D01*
X139971524Y-57872381D01*
X141352477Y-57872381D02*
X140781048Y-57872381D01*
X141066762Y-57872381D02*
X141066762Y-56872381D01*
X140971524Y-57015238D01*
X140876286Y-57110476D01*
X140781048Y-57158095D01*
X142304858Y-57872381D02*
X141733429Y-57872381D01*
X142019143Y-57872381D02*
X142019143Y-56872381D01*
X141923905Y-57015238D01*
X141828667Y-57110476D01*
X141733429Y-57158095D01*
X191774381Y-241601523D02*
X192488667Y-241601523D01*
X192631524Y-241649143D01*
X192726762Y-241744381D01*
X192774381Y-241887238D01*
X192774381Y-241982476D01*
X192774381Y-240601523D02*
X192774381Y-241172952D01*
X192774381Y-240887238D02*
X191774381Y-240887238D01*
X191917238Y-240982476D01*
X192012476Y-241077714D01*
X192060095Y-241172952D01*
X191774381Y-239982476D02*
X191774381Y-239887237D01*
X191822000Y-239791999D01*
X191869619Y-239744380D01*
X191964857Y-239696761D01*
X192155333Y-239649142D01*
X192393429Y-239649142D01*
X192583905Y-239696761D01*
X192679143Y-239744380D01*
X192726762Y-239791999D01*
X192774381Y-239887237D01*
X192774381Y-239982476D01*
X192726762Y-240077714D01*
X192679143Y-240125333D01*
X192583905Y-240172952D01*
X192393429Y-240220571D01*
X192155333Y-240220571D01*
X191964857Y-240172952D01*
X191869619Y-240125333D01*
X191822000Y-240077714D01*
X191774381Y-239982476D01*
X160814381Y-62483905D02*
X161623905Y-62483905D01*
X161719143Y-62436286D01*
X161766762Y-62388667D01*
X161814381Y-62293429D01*
X161814381Y-62102952D01*
X161766762Y-62007714D01*
X161719143Y-61960095D01*
X161623905Y-61912476D01*
X160814381Y-61912476D01*
X160814381Y-61531524D02*
X160814381Y-60864857D01*
X161814381Y-61293429D01*
X149860095Y-235164381D02*
X149860095Y-235973905D01*
X149907714Y-236069143D01*
X149955333Y-236116762D01*
X150050571Y-236164381D01*
X150241048Y-236164381D01*
X150336286Y-236116762D01*
X150383905Y-236069143D01*
X150431524Y-235973905D01*
X150431524Y-235164381D01*
X151336286Y-235497714D02*
X151336286Y-236164381D01*
X151098190Y-235116762D02*
X150860095Y-235831048D01*
X151479143Y-235831048D01*
X73660095Y-235164381D02*
X73660095Y-235973905D01*
X73707714Y-236069143D01*
X73755333Y-236116762D01*
X73850571Y-236164381D01*
X74041048Y-236164381D01*
X74136286Y-236116762D01*
X74183905Y-236069143D01*
X74231524Y-235973905D01*
X74231524Y-235164381D01*
X75231524Y-236164381D02*
X74660095Y-236164381D01*
X74945809Y-236164381D02*
X74945809Y-235164381D01*
X74850571Y-235307238D01*
X74755333Y-235402476D01*
X74660095Y-235450095D01*
X199509143Y-75764381D02*
X199175809Y-75288190D01*
X198937714Y-75764381D02*
X198937714Y-74764381D01*
X199318667Y-74764381D01*
X199413905Y-74812000D01*
X199461524Y-74859619D01*
X199509143Y-74954857D01*
X199509143Y-75097714D01*
X199461524Y-75192952D01*
X199413905Y-75240571D01*
X199318667Y-75288190D01*
X198937714Y-75288190D01*
X200461524Y-75764381D02*
X199890095Y-75764381D01*
X200175809Y-75764381D02*
X200175809Y-74764381D01*
X200080571Y-74907238D01*
X199985333Y-75002476D01*
X199890095Y-75050095D01*
X200794857Y-74764381D02*
X201413905Y-74764381D01*
X201080571Y-75145333D01*
X201223429Y-75145333D01*
X201318667Y-75192952D01*
X201366286Y-75240571D01*
X201413905Y-75335810D01*
X201413905Y-75573905D01*
X201366286Y-75669143D01*
X201318667Y-75716762D01*
X201223429Y-75764381D01*
X200937714Y-75764381D01*
X200842476Y-75716762D01*
X200794857Y-75669143D01*
X221099143Y-148154381D02*
X220765809Y-147678190D01*
X220527714Y-148154381D02*
X220527714Y-147154381D01*
X220908667Y-147154381D01*
X221003905Y-147202000D01*
X221051524Y-147249619D01*
X221099143Y-147344857D01*
X221099143Y-147487714D01*
X221051524Y-147582952D01*
X221003905Y-147630571D01*
X220908667Y-147678190D01*
X220527714Y-147678190D01*
X222051524Y-148154381D02*
X221480095Y-148154381D01*
X221765809Y-148154381D02*
X221765809Y-147154381D01*
X221670571Y-147297238D01*
X221575333Y-147392476D01*
X221480095Y-147440095D01*
X222432476Y-147249619D02*
X222480095Y-147202000D01*
X222575333Y-147154381D01*
X222813429Y-147154381D01*
X222908667Y-147202000D01*
X222956286Y-147249619D01*
X223003905Y-147344857D01*
X223003905Y-147440095D01*
X222956286Y-147582952D01*
X222384857Y-148154381D01*
X223003905Y-148154381D01*
X221099143Y-151964381D02*
X220765809Y-151488190D01*
X220527714Y-151964381D02*
X220527714Y-150964381D01*
X220908667Y-150964381D01*
X221003905Y-151012000D01*
X221051524Y-151059619D01*
X221099143Y-151154857D01*
X221099143Y-151297714D01*
X221051524Y-151392952D01*
X221003905Y-151440571D01*
X220908667Y-151488190D01*
X220527714Y-151488190D01*
X222051524Y-151964381D02*
X221480095Y-151964381D01*
X221765809Y-151964381D02*
X221765809Y-150964381D01*
X221670571Y-151107238D01*
X221575333Y-151202476D01*
X221480095Y-151250095D01*
X223003905Y-151964381D02*
X222432476Y-151964381D01*
X222718190Y-151964381D02*
X222718190Y-150964381D01*
X222622952Y-151107238D01*
X222527714Y-151202476D01*
X222432476Y-151250095D01*
X199509143Y-148154381D02*
X199175809Y-147678190D01*
X198937714Y-148154381D02*
X198937714Y-147154381D01*
X199318667Y-147154381D01*
X199413905Y-147202000D01*
X199461524Y-147249619D01*
X199509143Y-147344857D01*
X199509143Y-147487714D01*
X199461524Y-147582952D01*
X199413905Y-147630571D01*
X199318667Y-147678190D01*
X198937714Y-147678190D01*
X200461524Y-148154381D02*
X199890095Y-148154381D01*
X200175809Y-148154381D02*
X200175809Y-147154381D01*
X200080571Y-147297238D01*
X199985333Y-147392476D01*
X199890095Y-147440095D01*
X201080571Y-147154381D02*
X201175810Y-147154381D01*
X201271048Y-147202000D01*
X201318667Y-147249619D01*
X201366286Y-147344857D01*
X201413905Y-147535333D01*
X201413905Y-147773429D01*
X201366286Y-147963905D01*
X201318667Y-148059143D01*
X201271048Y-148106762D01*
X201175810Y-148154381D01*
X201080571Y-148154381D01*
X200985333Y-148106762D01*
X200937714Y-148059143D01*
X200890095Y-147963905D01*
X200842476Y-147773429D01*
X200842476Y-147535333D01*
X200890095Y-147344857D01*
X200937714Y-147249619D01*
X200985333Y-147202000D01*
X201080571Y-147154381D01*
X202525334Y-135454381D02*
X202192000Y-134978190D01*
X201953905Y-135454381D02*
X201953905Y-134454381D01*
X202334858Y-134454381D01*
X202430096Y-134502000D01*
X202477715Y-134549619D01*
X202525334Y-134644857D01*
X202525334Y-134787714D01*
X202477715Y-134882952D01*
X202430096Y-134930571D01*
X202334858Y-134978190D01*
X201953905Y-134978190D01*
X203001524Y-135454381D02*
X203192000Y-135454381D01*
X203287239Y-135406762D01*
X203334858Y-135359143D01*
X203430096Y-135216286D01*
X203477715Y-135025810D01*
X203477715Y-134644857D01*
X203430096Y-134549619D01*
X203382477Y-134502000D01*
X203287239Y-134454381D01*
X203096762Y-134454381D01*
X203001524Y-134502000D01*
X202953905Y-134549619D01*
X202906286Y-134644857D01*
X202906286Y-134882952D01*
X202953905Y-134978190D01*
X203001524Y-135025810D01*
X203096762Y-135073429D01*
X203287239Y-135073429D01*
X203382477Y-135025810D01*
X203430096Y-134978190D01*
X203477715Y-134882952D01*
X202525334Y-131644381D02*
X202192000Y-131168190D01*
X201953905Y-131644381D02*
X201953905Y-130644381D01*
X202334858Y-130644381D01*
X202430096Y-130692000D01*
X202477715Y-130739619D01*
X202525334Y-130834857D01*
X202525334Y-130977714D01*
X202477715Y-131072952D01*
X202430096Y-131120571D01*
X202334858Y-131168190D01*
X201953905Y-131168190D01*
X203096762Y-131072952D02*
X203001524Y-131025333D01*
X202953905Y-130977714D01*
X202906286Y-130882476D01*
X202906286Y-130834857D01*
X202953905Y-130739619D01*
X203001524Y-130692000D01*
X203096762Y-130644381D01*
X203287239Y-130644381D01*
X203382477Y-130692000D01*
X203430096Y-130739619D01*
X203477715Y-130834857D01*
X203477715Y-130882476D01*
X203430096Y-130977714D01*
X203382477Y-131025333D01*
X203287239Y-131072952D01*
X203096762Y-131072952D01*
X203001524Y-131120571D01*
X202953905Y-131168190D01*
X202906286Y-131263429D01*
X202906286Y-131453905D01*
X202953905Y-131549143D01*
X203001524Y-131596762D01*
X203096762Y-131644381D01*
X203287239Y-131644381D01*
X203382477Y-131596762D01*
X203430096Y-131549143D01*
X203477715Y-131453905D01*
X203477715Y-131263429D01*
X203430096Y-131168190D01*
X203382477Y-131120571D01*
X203287239Y-131072952D01*
X202525334Y-127834381D02*
X202192000Y-127358190D01*
X201953905Y-127834381D02*
X201953905Y-126834381D01*
X202334858Y-126834381D01*
X202430096Y-126882000D01*
X202477715Y-126929619D01*
X202525334Y-127024857D01*
X202525334Y-127167714D01*
X202477715Y-127262952D01*
X202430096Y-127310571D01*
X202334858Y-127358190D01*
X201953905Y-127358190D01*
X202858667Y-126834381D02*
X203525334Y-126834381D01*
X203096762Y-127834381D01*
X202525334Y-124024381D02*
X202192000Y-123548190D01*
X201953905Y-124024381D02*
X201953905Y-123024381D01*
X202334858Y-123024381D01*
X202430096Y-123072000D01*
X202477715Y-123119619D01*
X202525334Y-123214857D01*
X202525334Y-123357714D01*
X202477715Y-123452952D01*
X202430096Y-123500571D01*
X202334858Y-123548190D01*
X201953905Y-123548190D01*
X203382477Y-123024381D02*
X203192000Y-123024381D01*
X203096762Y-123072000D01*
X203049143Y-123119619D01*
X202953905Y-123262476D01*
X202906286Y-123452952D01*
X202906286Y-123833905D01*
X202953905Y-123929143D01*
X203001524Y-123976762D01*
X203096762Y-124024381D01*
X203287239Y-124024381D01*
X203382477Y-123976762D01*
X203430096Y-123929143D01*
X203477715Y-123833905D01*
X203477715Y-123595810D01*
X203430096Y-123500571D01*
X203382477Y-123452952D01*
X203287239Y-123405333D01*
X203096762Y-123405333D01*
X203001524Y-123452952D01*
X202953905Y-123500571D01*
X202906286Y-123595810D01*
X199985334Y-151964381D02*
X199652000Y-151488190D01*
X199413905Y-151964381D02*
X199413905Y-150964381D01*
X199794858Y-150964381D01*
X199890096Y-151012000D01*
X199937715Y-151059619D01*
X199985334Y-151154857D01*
X199985334Y-151297714D01*
X199937715Y-151392952D01*
X199890096Y-151440571D01*
X199794858Y-151488190D01*
X199413905Y-151488190D01*
X200890096Y-150964381D02*
X200413905Y-150964381D01*
X200366286Y-151440571D01*
X200413905Y-151392952D01*
X200509143Y-151345333D01*
X200747239Y-151345333D01*
X200842477Y-151392952D01*
X200890096Y-151440571D01*
X200937715Y-151535810D01*
X200937715Y-151773905D01*
X200890096Y-151869143D01*
X200842477Y-151916762D01*
X200747239Y-151964381D01*
X200509143Y-151964381D01*
X200413905Y-151916762D01*
X200366286Y-151869143D01*
X175855334Y-148154381D02*
X175522000Y-147678190D01*
X175283905Y-148154381D02*
X175283905Y-147154381D01*
X175664858Y-147154381D01*
X175760096Y-147202000D01*
X175807715Y-147249619D01*
X175855334Y-147344857D01*
X175855334Y-147487714D01*
X175807715Y-147582952D01*
X175760096Y-147630571D01*
X175664858Y-147678190D01*
X175283905Y-147678190D01*
X176712477Y-147487714D02*
X176712477Y-148154381D01*
X176474381Y-147106762D02*
X176236286Y-147821048D01*
X176855334Y-147821048D01*
X175855334Y-151964381D02*
X175522000Y-151488190D01*
X175283905Y-151964381D02*
X175283905Y-150964381D01*
X175664858Y-150964381D01*
X175760096Y-151012000D01*
X175807715Y-151059619D01*
X175855334Y-151154857D01*
X175855334Y-151297714D01*
X175807715Y-151392952D01*
X175760096Y-151440571D01*
X175664858Y-151488190D01*
X175283905Y-151488190D01*
X176188667Y-150964381D02*
X176807715Y-150964381D01*
X176474381Y-151345333D01*
X176617239Y-151345333D01*
X176712477Y-151392952D01*
X176760096Y-151440571D01*
X176807715Y-151535810D01*
X176807715Y-151773905D01*
X176760096Y-151869143D01*
X176712477Y-151916762D01*
X176617239Y-151964381D01*
X176331524Y-151964381D01*
X176236286Y-151916762D01*
X176188667Y-151869143D01*
X161885334Y-76524381D02*
X161552000Y-76048190D01*
X161313905Y-76524381D02*
X161313905Y-75524381D01*
X161694858Y-75524381D01*
X161790096Y-75572000D01*
X161837715Y-75619619D01*
X161885334Y-75714857D01*
X161885334Y-75857714D01*
X161837715Y-75952952D01*
X161790096Y-76000571D01*
X161694858Y-76048190D01*
X161313905Y-76048190D01*
X162266286Y-75619619D02*
X162313905Y-75572000D01*
X162409143Y-75524381D01*
X162647239Y-75524381D01*
X162742477Y-75572000D01*
X162790096Y-75619619D01*
X162837715Y-75714857D01*
X162837715Y-75810095D01*
X162790096Y-75952952D01*
X162218667Y-76524381D01*
X162837715Y-76524381D01*
X173846481Y-111901266D02*
X173370290Y-112234600D01*
X173846481Y-112472695D02*
X172846481Y-112472695D01*
X172846481Y-112091742D01*
X172894100Y-111996504D01*
X172941719Y-111948885D01*
X173036957Y-111901266D01*
X173179814Y-111901266D01*
X173275052Y-111948885D01*
X173322671Y-111996504D01*
X173370290Y-112091742D01*
X173370290Y-112472695D01*
X173846481Y-110948885D02*
X173846481Y-111520314D01*
X173846481Y-111234600D02*
X172846481Y-111234600D01*
X172989338Y-111329838D01*
X173084576Y-111425076D01*
X173132195Y-111520314D01*
X196802477Y-81704381D02*
X196802477Y-82418667D01*
X196754857Y-82561524D01*
X196659619Y-82656762D01*
X196516762Y-82704381D01*
X196421524Y-82704381D01*
X197802477Y-82704381D02*
X197231048Y-82704381D01*
X197516762Y-82704381D02*
X197516762Y-81704381D01*
X197421524Y-81847238D01*
X197326286Y-81942476D01*
X197231048Y-81990095D01*
X198278667Y-82704381D02*
X198469143Y-82704381D01*
X198564382Y-82656762D01*
X198612001Y-82609143D01*
X198707239Y-82466286D01*
X198754858Y-82275810D01*
X198754858Y-81894857D01*
X198707239Y-81799619D01*
X198659620Y-81752000D01*
X198564382Y-81704381D01*
X198373905Y-81704381D01*
X198278667Y-81752000D01*
X198231048Y-81799619D01*
X198183429Y-81894857D01*
X198183429Y-82132952D01*
X198231048Y-82228190D01*
X198278667Y-82275810D01*
X198373905Y-82323429D01*
X198564382Y-82323429D01*
X198659620Y-82275810D01*
X198707239Y-82228190D01*
X198754858Y-82132952D01*
X246332477Y-216114381D02*
X246332477Y-216828667D01*
X246284857Y-216971524D01*
X246189619Y-217066762D01*
X246046762Y-217114381D01*
X245951524Y-217114381D01*
X247332477Y-217114381D02*
X246761048Y-217114381D01*
X247046762Y-217114381D02*
X247046762Y-216114381D01*
X246951524Y-216257238D01*
X246856286Y-216352476D01*
X246761048Y-216400095D01*
X247903905Y-216542952D02*
X247808667Y-216495333D01*
X247761048Y-216447714D01*
X247713429Y-216352476D01*
X247713429Y-216304857D01*
X247761048Y-216209619D01*
X247808667Y-216162000D01*
X247903905Y-216114381D01*
X248094382Y-216114381D01*
X248189620Y-216162000D01*
X248237239Y-216209619D01*
X248284858Y-216304857D01*
X248284858Y-216352476D01*
X248237239Y-216447714D01*
X248189620Y-216495333D01*
X248094382Y-216542952D01*
X247903905Y-216542952D01*
X247808667Y-216590571D01*
X247761048Y-216638190D01*
X247713429Y-216733429D01*
X247713429Y-216923905D01*
X247761048Y-217019143D01*
X247808667Y-217066762D01*
X247903905Y-217114381D01*
X248094382Y-217114381D01*
X248189620Y-217066762D01*
X248237239Y-217019143D01*
X248284858Y-216923905D01*
X248284858Y-216733429D01*
X248237239Y-216638190D01*
X248189620Y-216590571D01*
X248094382Y-216542952D01*
X246332477Y-204684381D02*
X246332477Y-205398667D01*
X246284857Y-205541524D01*
X246189619Y-205636762D01*
X246046762Y-205684381D01*
X245951524Y-205684381D01*
X247332477Y-205684381D02*
X246761048Y-205684381D01*
X247046762Y-205684381D02*
X247046762Y-204684381D01*
X246951524Y-204827238D01*
X246856286Y-204922476D01*
X246761048Y-204970095D01*
X247665810Y-204684381D02*
X248332477Y-204684381D01*
X247903905Y-205684381D01*
X227282477Y-154944381D02*
X227282477Y-155658667D01*
X227234857Y-155801524D01*
X227139619Y-155896762D01*
X226996762Y-155944381D01*
X226901524Y-155944381D01*
X228282477Y-155944381D02*
X227711048Y-155944381D01*
X227996762Y-155944381D02*
X227996762Y-154944381D01*
X227901524Y-155087238D01*
X227806286Y-155182476D01*
X227711048Y-155230095D01*
X229139620Y-154944381D02*
X228949143Y-154944381D01*
X228853905Y-154992000D01*
X228806286Y-155039619D01*
X228711048Y-155182476D01*
X228663429Y-155372952D01*
X228663429Y-155753905D01*
X228711048Y-155849143D01*
X228758667Y-155896762D01*
X228853905Y-155944381D01*
X229044382Y-155944381D01*
X229139620Y-155896762D01*
X229187239Y-155849143D01*
X229234858Y-155753905D01*
X229234858Y-155515810D01*
X229187239Y-155420571D01*
X229139620Y-155372952D01*
X229044382Y-155325333D01*
X228853905Y-155325333D01*
X228758667Y-155372952D01*
X228711048Y-155420571D01*
X228663429Y-155515810D01*
X195532477Y-123614381D02*
X195532477Y-124328667D01*
X195484857Y-124471524D01*
X195389619Y-124566762D01*
X195246762Y-124614381D01*
X195151524Y-124614381D01*
X196532477Y-124614381D02*
X195961048Y-124614381D01*
X196246762Y-124614381D02*
X196246762Y-123614381D01*
X196151524Y-123757238D01*
X196056286Y-123852476D01*
X195961048Y-123900095D01*
X197437239Y-123614381D02*
X196961048Y-123614381D01*
X196913429Y-124090571D01*
X196961048Y-124042952D01*
X197056286Y-123995333D01*
X197294382Y-123995333D01*
X197389620Y-124042952D01*
X197437239Y-124090571D01*
X197484858Y-124185810D01*
X197484858Y-124423905D01*
X197437239Y-124519143D01*
X197389620Y-124566762D01*
X197294382Y-124614381D01*
X197056286Y-124614381D01*
X196961048Y-124566762D01*
X196913429Y-124519143D01*
X205692477Y-154944381D02*
X205692477Y-155658667D01*
X205644857Y-155801524D01*
X205549619Y-155896762D01*
X205406762Y-155944381D01*
X205311524Y-155944381D01*
X206692477Y-155944381D02*
X206121048Y-155944381D01*
X206406762Y-155944381D02*
X206406762Y-154944381D01*
X206311524Y-155087238D01*
X206216286Y-155182476D01*
X206121048Y-155230095D01*
X207025810Y-154944381D02*
X207644858Y-154944381D01*
X207311524Y-155325333D01*
X207454382Y-155325333D01*
X207549620Y-155372952D01*
X207597239Y-155420571D01*
X207644858Y-155515810D01*
X207644858Y-155753905D01*
X207597239Y-155849143D01*
X207549620Y-155896762D01*
X207454382Y-155944381D01*
X207168667Y-155944381D01*
X207073429Y-155896762D01*
X207025810Y-155849143D01*
X181562477Y-154944381D02*
X181562477Y-155658667D01*
X181514857Y-155801524D01*
X181419619Y-155896762D01*
X181276762Y-155944381D01*
X181181524Y-155944381D01*
X182562477Y-155944381D02*
X181991048Y-155944381D01*
X182276762Y-155944381D02*
X182276762Y-154944381D01*
X182181524Y-155087238D01*
X182086286Y-155182476D01*
X181991048Y-155230095D01*
X182943429Y-155039619D02*
X182991048Y-154992000D01*
X183086286Y-154944381D01*
X183324382Y-154944381D01*
X183419620Y-154992000D01*
X183467239Y-155039619D01*
X183514858Y-155134857D01*
X183514858Y-155230095D01*
X183467239Y-155372952D01*
X182895810Y-155944381D01*
X183514858Y-155944381D01*
X155368667Y-197274381D02*
X155368667Y-197988667D01*
X155321047Y-198131524D01*
X155225809Y-198226762D01*
X155082952Y-198274381D01*
X154987714Y-198274381D01*
X155892476Y-198274381D02*
X156082952Y-198274381D01*
X156178191Y-198226762D01*
X156225810Y-198179143D01*
X156321048Y-198036286D01*
X156368667Y-197845810D01*
X156368667Y-197464857D01*
X156321048Y-197369619D01*
X156273429Y-197322000D01*
X156178191Y-197274381D01*
X155987714Y-197274381D01*
X155892476Y-197322000D01*
X155844857Y-197369619D01*
X155797238Y-197464857D01*
X155797238Y-197702952D01*
X155844857Y-197798190D01*
X155892476Y-197845810D01*
X155987714Y-197893429D01*
X156178191Y-197893429D01*
X156273429Y-197845810D01*
X156321048Y-197798190D01*
X156368667Y-197702952D01*
X247062667Y-208748381D02*
X247062667Y-209462667D01*
X247015047Y-209605524D01*
X246919809Y-209700762D01*
X246776952Y-209748381D01*
X246681714Y-209748381D01*
X247681714Y-209176952D02*
X247586476Y-209129333D01*
X247538857Y-209081714D01*
X247491238Y-208986476D01*
X247491238Y-208938857D01*
X247538857Y-208843619D01*
X247586476Y-208796000D01*
X247681714Y-208748381D01*
X247872191Y-208748381D01*
X247967429Y-208796000D01*
X248015048Y-208843619D01*
X248062667Y-208938857D01*
X248062667Y-208986476D01*
X248015048Y-209081714D01*
X247967429Y-209129333D01*
X247872191Y-209176952D01*
X247681714Y-209176952D01*
X247586476Y-209224571D01*
X247538857Y-209272190D01*
X247491238Y-209367429D01*
X247491238Y-209557905D01*
X247538857Y-209653143D01*
X247586476Y-209700762D01*
X247681714Y-209748381D01*
X247872191Y-209748381D01*
X247967429Y-209700762D01*
X248015048Y-209653143D01*
X248062667Y-209557905D01*
X248062667Y-209367429D01*
X248015048Y-209272190D01*
X247967429Y-209224571D01*
X247872191Y-209176952D01*
X149014381Y-237315333D02*
X149728667Y-237315333D01*
X149871524Y-237362953D01*
X149966762Y-237458191D01*
X150014381Y-237601048D01*
X150014381Y-237696286D01*
X149014381Y-236934381D02*
X149014381Y-236267714D01*
X150014381Y-236696286D01*
X190928667Y-197274381D02*
X190928667Y-197988667D01*
X190881047Y-198131524D01*
X190785809Y-198226762D01*
X190642952Y-198274381D01*
X190547714Y-198274381D01*
X191833429Y-197274381D02*
X191642952Y-197274381D01*
X191547714Y-197322000D01*
X191500095Y-197369619D01*
X191404857Y-197512476D01*
X191357238Y-197702952D01*
X191357238Y-198083905D01*
X191404857Y-198179143D01*
X191452476Y-198226762D01*
X191547714Y-198274381D01*
X191738191Y-198274381D01*
X191833429Y-198226762D01*
X191881048Y-198179143D01*
X191928667Y-198083905D01*
X191928667Y-197845810D01*
X191881048Y-197750571D01*
X191833429Y-197702952D01*
X191738191Y-197655333D01*
X191547714Y-197655333D01*
X191452476Y-197702952D01*
X191404857Y-197750571D01*
X191357238Y-197845810D01*
X71544381Y-237315333D02*
X72258667Y-237315333D01*
X72401524Y-237362953D01*
X72496762Y-237458191D01*
X72544381Y-237601048D01*
X72544381Y-237696286D01*
X71544381Y-236934381D02*
X71544381Y-236315333D01*
X71925333Y-236648667D01*
X71925333Y-236505809D01*
X71972952Y-236410571D01*
X72020571Y-236362952D01*
X72115810Y-236315333D01*
X72353905Y-236315333D01*
X72449143Y-236362952D01*
X72496762Y-236410571D01*
X72544381Y-236505809D01*
X72544381Y-236791524D01*
X72496762Y-236886762D01*
X72449143Y-236934381D01*
X114728667Y-197274381D02*
X114728667Y-197988667D01*
X114681047Y-198131524D01*
X114585809Y-198226762D01*
X114442952Y-198274381D01*
X114347714Y-198274381D01*
X115157238Y-197369619D02*
X115204857Y-197322000D01*
X115300095Y-197274381D01*
X115538191Y-197274381D01*
X115633429Y-197322000D01*
X115681048Y-197369619D01*
X115728667Y-197464857D01*
X115728667Y-197560095D01*
X115681048Y-197702952D01*
X115109619Y-198274381D01*
X115728667Y-198274381D01*
X79168667Y-197274381D02*
X79168667Y-197988667D01*
X79121047Y-198131524D01*
X79025809Y-198226762D01*
X78882952Y-198274381D01*
X78787714Y-198274381D01*
X80168667Y-198274381D02*
X79597238Y-198274381D01*
X79882952Y-198274381D02*
X79882952Y-197274381D01*
X79787714Y-197417238D01*
X79692476Y-197512476D01*
X79597238Y-197560095D01*
X199413905Y-73424381D02*
X199413905Y-72424381D01*
X199652000Y-72424381D01*
X199794858Y-72472000D01*
X199890096Y-72567238D01*
X199937715Y-72662476D01*
X199985334Y-72852952D01*
X199985334Y-72995810D01*
X199937715Y-73186286D01*
X199890096Y-73281524D01*
X199794858Y-73376762D01*
X199652000Y-73424381D01*
X199413905Y-73424381D01*
X200318667Y-72424381D02*
X200985334Y-72424381D01*
X200556762Y-73424381D01*
X207033905Y-138554381D02*
X207033905Y-137554381D01*
X207272000Y-137554381D01*
X207414858Y-137602000D01*
X207510096Y-137697238D01*
X207557715Y-137792476D01*
X207605334Y-137982952D01*
X207605334Y-138125810D01*
X207557715Y-138316286D01*
X207510096Y-138411524D01*
X207414858Y-138506762D01*
X207272000Y-138554381D01*
X207033905Y-138554381D01*
X208462477Y-137554381D02*
X208272000Y-137554381D01*
X208176762Y-137602000D01*
X208129143Y-137649619D01*
X208033905Y-137792476D01*
X207986286Y-137982952D01*
X207986286Y-138363905D01*
X208033905Y-138459143D01*
X208081524Y-138506762D01*
X208176762Y-138554381D01*
X208367239Y-138554381D01*
X208462477Y-138506762D01*
X208510096Y-138459143D01*
X208557715Y-138363905D01*
X208557715Y-138125810D01*
X208510096Y-138030571D01*
X208462477Y-137982952D01*
X208367239Y-137935333D01*
X208176762Y-137935333D01*
X208081524Y-137982952D01*
X208033905Y-138030571D01*
X207986286Y-138125810D01*
X207033905Y-134744381D02*
X207033905Y-133744381D01*
X207272000Y-133744381D01*
X207414858Y-133792000D01*
X207510096Y-133887238D01*
X207557715Y-133982476D01*
X207605334Y-134172952D01*
X207605334Y-134315810D01*
X207557715Y-134506286D01*
X207510096Y-134601524D01*
X207414858Y-134696762D01*
X207272000Y-134744381D01*
X207033905Y-134744381D01*
X208510096Y-133744381D02*
X208033905Y-133744381D01*
X207986286Y-134220571D01*
X208033905Y-134172952D01*
X208129143Y-134125333D01*
X208367239Y-134125333D01*
X208462477Y-134172952D01*
X208510096Y-134220571D01*
X208557715Y-134315810D01*
X208557715Y-134553905D01*
X208510096Y-134649143D01*
X208462477Y-134696762D01*
X208367239Y-134744381D01*
X208129143Y-134744381D01*
X208033905Y-134696762D01*
X207986286Y-134649143D01*
X207033905Y-130934381D02*
X207033905Y-129934381D01*
X207272000Y-129934381D01*
X207414858Y-129982000D01*
X207510096Y-130077238D01*
X207557715Y-130172476D01*
X207605334Y-130362952D01*
X207605334Y-130505810D01*
X207557715Y-130696286D01*
X207510096Y-130791524D01*
X207414858Y-130886762D01*
X207272000Y-130934381D01*
X207033905Y-130934381D01*
X208462477Y-130267714D02*
X208462477Y-130934381D01*
X208224381Y-129886762D02*
X207986286Y-130601048D01*
X208605334Y-130601048D01*
X207033905Y-127124381D02*
X207033905Y-126124381D01*
X207272000Y-126124381D01*
X207414858Y-126172000D01*
X207510096Y-126267238D01*
X207557715Y-126362476D01*
X207605334Y-126552952D01*
X207605334Y-126695810D01*
X207557715Y-126886286D01*
X207510096Y-126981524D01*
X207414858Y-127076762D01*
X207272000Y-127124381D01*
X207033905Y-127124381D01*
X207938667Y-126124381D02*
X208557715Y-126124381D01*
X208224381Y-126505333D01*
X208367239Y-126505333D01*
X208462477Y-126552952D01*
X208510096Y-126600571D01*
X208557715Y-126695810D01*
X208557715Y-126933905D01*
X208510096Y-127029143D01*
X208462477Y-127076762D01*
X208367239Y-127124381D01*
X208081524Y-127124381D01*
X207986286Y-127076762D01*
X207938667Y-127029143D01*
X168933905Y-73424381D02*
X168933905Y-72424381D01*
X169172000Y-72424381D01*
X169314858Y-72472000D01*
X169410096Y-72567238D01*
X169457715Y-72662476D01*
X169505334Y-72852952D01*
X169505334Y-72995810D01*
X169457715Y-73186286D01*
X169410096Y-73281524D01*
X169314858Y-73376762D01*
X169172000Y-73424381D01*
X168933905Y-73424381D01*
X169886286Y-72519619D02*
X169933905Y-72472000D01*
X170029143Y-72424381D01*
X170267239Y-72424381D01*
X170362477Y-72472000D01*
X170410096Y-72519619D01*
X170457715Y-72614857D01*
X170457715Y-72710095D01*
X170410096Y-72852952D01*
X169838667Y-73424381D01*
X170457715Y-73424381D01*
X170414281Y-112332995D02*
X169414281Y-112332995D01*
X169414281Y-112094900D01*
X169461900Y-111952042D01*
X169557138Y-111856804D01*
X169652376Y-111809185D01*
X169842852Y-111761566D01*
X169985710Y-111761566D01*
X170176186Y-111809185D01*
X170271424Y-111856804D01*
X170366662Y-111952042D01*
X170414281Y-112094900D01*
X170414281Y-112332995D01*
X170414281Y-110809185D02*
X170414281Y-111380614D01*
X170414281Y-111094900D02*
X169414281Y-111094900D01*
X169557138Y-111190138D01*
X169652376Y-111285376D01*
X169699995Y-111380614D01*
X169505334Y-71199143D02*
X169457715Y-71246762D01*
X169314858Y-71294381D01*
X169219620Y-71294381D01*
X169076762Y-71246762D01*
X168981524Y-71151524D01*
X168933905Y-71056286D01*
X168886286Y-70865810D01*
X168886286Y-70722952D01*
X168933905Y-70532476D01*
X168981524Y-70437238D01*
X169076762Y-70342000D01*
X169219620Y-70294381D01*
X169314858Y-70294381D01*
X169457715Y-70342000D01*
X169505334Y-70389619D01*
X170362477Y-70627714D02*
X170362477Y-71294381D01*
X170124381Y-70246762D02*
X169886286Y-70961048D01*
X170505334Y-70961048D01*
X168976443Y-107735666D02*
X169024062Y-107783285D01*
X169071681Y-107926142D01*
X169071681Y-108021380D01*
X169024062Y-108164238D01*
X168928824Y-108259476D01*
X168833586Y-108307095D01*
X168643110Y-108354714D01*
X168500252Y-108354714D01*
X168309776Y-108307095D01*
X168214538Y-108259476D01*
X168119300Y-108164238D01*
X168071681Y-108021380D01*
X168071681Y-107926142D01*
X168119300Y-107783285D01*
X168166919Y-107735666D01*
X168071681Y-107402333D02*
X168071681Y-106783285D01*
X168452633Y-107116619D01*
X168452633Y-106973761D01*
X168500252Y-106878523D01*
X168547871Y-106830904D01*
X168643110Y-106783285D01*
X168881205Y-106783285D01*
X168976443Y-106830904D01*
X169024062Y-106878523D01*
X169071681Y-106973761D01*
X169071681Y-107259476D01*
X169024062Y-107354714D01*
X168976443Y-107402333D01*
X161885334Y-68199143D02*
X161837715Y-68246762D01*
X161694858Y-68294381D01*
X161599620Y-68294381D01*
X161456762Y-68246762D01*
X161361524Y-68151524D01*
X161313905Y-68056286D01*
X161266286Y-67865810D01*
X161266286Y-67722952D01*
X161313905Y-67532476D01*
X161361524Y-67437238D01*
X161456762Y-67342000D01*
X161599620Y-67294381D01*
X161694858Y-67294381D01*
X161837715Y-67342000D01*
X161885334Y-67389619D01*
X162266286Y-67389619D02*
X162313905Y-67342000D01*
X162409143Y-67294381D01*
X162647239Y-67294381D01*
X162742477Y-67342000D01*
X162790096Y-67389619D01*
X162837715Y-67484857D01*
X162837715Y-67580095D01*
X162790096Y-67722952D01*
X162218667Y-68294381D01*
X162837715Y-68294381D01*
X166027243Y-100141066D02*
X166074862Y-100188685D01*
X166122481Y-100331542D01*
X166122481Y-100426780D01*
X166074862Y-100569638D01*
X165979624Y-100664876D01*
X165884386Y-100712495D01*
X165693910Y-100760114D01*
X165551052Y-100760114D01*
X165360576Y-100712495D01*
X165265338Y-100664876D01*
X165170100Y-100569638D01*
X165122481Y-100426780D01*
X165122481Y-100331542D01*
X165170100Y-100188685D01*
X165217719Y-100141066D01*
X166122481Y-99188685D02*
X166122481Y-99760114D01*
X166122481Y-99474400D02*
X165122481Y-99474400D01*
X165265338Y-99569638D01*
X165360576Y-99664876D01*
X165408195Y-99760114D01*
X114304381Y-241125333D02*
X115018667Y-241125333D01*
X115161524Y-241172953D01*
X115256762Y-241268191D01*
X115304381Y-241411048D01*
X115304381Y-241506286D01*
X114637714Y-240220571D02*
X115304381Y-240220571D01*
X114256762Y-240458667D02*
X114971048Y-240696762D01*
X114971048Y-240077714D01*
X138382477Y-122344381D02*
X138382477Y-123058667D01*
X138334857Y-123201524D01*
X138239619Y-123296762D01*
X138096762Y-123344381D01*
X138001524Y-123344381D01*
X138811048Y-122439619D02*
X138858667Y-122392000D01*
X138953905Y-122344381D01*
X139192001Y-122344381D01*
X139287239Y-122392000D01*
X139334858Y-122439619D01*
X139382477Y-122534857D01*
X139382477Y-122630095D01*
X139334858Y-122772952D01*
X138763429Y-123344381D01*
X139382477Y-123344381D01*
X139715810Y-122344381D02*
X140334858Y-122344381D01*
X140001524Y-122725333D01*
X140144382Y-122725333D01*
X140239620Y-122772952D01*
X140287239Y-122820571D01*
X140334858Y-122915810D01*
X140334858Y-123153905D01*
X140287239Y-123249143D01*
X140239620Y-123296762D01*
X140144382Y-123344381D01*
X139858667Y-123344381D01*
X139763429Y-123296762D01*
X139715810Y-123249143D01*
X77898667Y-122344381D02*
X77898667Y-123058667D01*
X77851047Y-123201524D01*
X77755809Y-123296762D01*
X77612952Y-123344381D01*
X77517714Y-123344381D01*
X78851048Y-122344381D02*
X78374857Y-122344381D01*
X78327238Y-122820571D01*
X78374857Y-122772952D01*
X78470095Y-122725333D01*
X78708191Y-122725333D01*
X78803429Y-122772952D01*
X78851048Y-122820571D01*
X78898667Y-122915810D01*
X78898667Y-123153905D01*
X78851048Y-123249143D01*
X78803429Y-123296762D01*
X78708191Y-123344381D01*
X78470095Y-123344381D01*
X78374857Y-123296762D01*
X78327238Y-123249143D01*
X108775667Y-72461381D02*
X108442333Y-71985190D01*
X108204238Y-72461381D02*
X108204238Y-71461381D01*
X108585191Y-71461381D01*
X108680429Y-71509000D01*
X108728048Y-71556619D01*
X108775667Y-71651857D01*
X108775667Y-71794714D01*
X108728048Y-71889952D01*
X108680429Y-71937571D01*
X108585191Y-71985190D01*
X108204238Y-71985190D01*
X109204238Y-71937571D02*
X109537572Y-71937571D01*
X109680429Y-72461381D02*
X109204238Y-72461381D01*
X109204238Y-71461381D01*
X109680429Y-71461381D01*
X110442334Y-71937571D02*
X110109000Y-71937571D01*
X110109000Y-72461381D02*
X110109000Y-71461381D01*
X110585191Y-71461381D01*
X111109000Y-71461381D02*
X111109000Y-71699476D01*
X110870905Y-71604238D02*
X111109000Y-71699476D01*
X111347096Y-71604238D01*
X110966143Y-71889952D02*
X111109000Y-71699476D01*
X111251858Y-71889952D01*
X111870905Y-71461381D02*
X111870905Y-71699476D01*
X111632810Y-71604238D02*
X111870905Y-71699476D01*
X112109001Y-71604238D01*
X111728048Y-71889952D02*
X111870905Y-71699476D01*
X112013763Y-71889952D01*
X252666667Y-238822381D02*
X252333333Y-238346190D01*
X252095238Y-238822381D02*
X252095238Y-237822381D01*
X252476191Y-237822381D01*
X252571429Y-237870000D01*
X252619048Y-237917619D01*
X252666667Y-238012857D01*
X252666667Y-238155714D01*
X252619048Y-238250952D01*
X252571429Y-238298571D01*
X252476191Y-238346190D01*
X252095238Y-238346190D01*
X253095238Y-238298571D02*
X253428572Y-238298571D01*
X253571429Y-238822381D02*
X253095238Y-238822381D01*
X253095238Y-237822381D01*
X253571429Y-237822381D01*
X254333334Y-238298571D02*
X254000000Y-238298571D01*
X254000000Y-238822381D02*
X254000000Y-237822381D01*
X254476191Y-237822381D01*
X255000000Y-237822381D02*
X255000000Y-238060476D01*
X254761905Y-237965238D02*
X255000000Y-238060476D01*
X255238096Y-237965238D01*
X254857143Y-238250952D02*
X255000000Y-238060476D01*
X255142858Y-238250952D01*
X255761905Y-237822381D02*
X255761905Y-238060476D01*
X255523810Y-237965238D02*
X255761905Y-238060476D01*
X256000001Y-237965238D01*
X255619048Y-238250952D02*
X255761905Y-238060476D01*
X255904763Y-238250952D01*
X252666667Y-50227381D02*
X252333333Y-49751190D01*
X252095238Y-50227381D02*
X252095238Y-49227381D01*
X252476191Y-49227381D01*
X252571429Y-49275000D01*
X252619048Y-49322619D01*
X252666667Y-49417857D01*
X252666667Y-49560714D01*
X252619048Y-49655952D01*
X252571429Y-49703571D01*
X252476191Y-49751190D01*
X252095238Y-49751190D01*
X253095238Y-49703571D02*
X253428572Y-49703571D01*
X253571429Y-50227381D02*
X253095238Y-50227381D01*
X253095238Y-49227381D01*
X253571429Y-49227381D01*
X254333334Y-49703571D02*
X254000000Y-49703571D01*
X254000000Y-50227381D02*
X254000000Y-49227381D01*
X254476191Y-49227381D01*
X255000000Y-49227381D02*
X255000000Y-49465476D01*
X254761905Y-49370238D02*
X255000000Y-49465476D01*
X255238096Y-49370238D01*
X254857143Y-49655952D02*
X255000000Y-49465476D01*
X255142858Y-49655952D01*
X255761905Y-49227381D02*
X255761905Y-49465476D01*
X255523810Y-49370238D02*
X255761905Y-49465476D01*
X256000001Y-49370238D01*
X255619048Y-49655952D02*
X255761905Y-49465476D01*
X255904763Y-49655952D01*
X64071667Y-50227381D02*
X63738333Y-49751190D01*
X63500238Y-50227381D02*
X63500238Y-49227381D01*
X63881191Y-49227381D01*
X63976429Y-49275000D01*
X64024048Y-49322619D01*
X64071667Y-49417857D01*
X64071667Y-49560714D01*
X64024048Y-49655952D01*
X63976429Y-49703571D01*
X63881191Y-49751190D01*
X63500238Y-49751190D01*
X64500238Y-49703571D02*
X64833572Y-49703571D01*
X64976429Y-50227381D02*
X64500238Y-50227381D01*
X64500238Y-49227381D01*
X64976429Y-49227381D01*
X65738334Y-49703571D02*
X65405000Y-49703571D01*
X65405000Y-50227381D02*
X65405000Y-49227381D01*
X65881191Y-49227381D01*
X66405000Y-49227381D02*
X66405000Y-49465476D01*
X66166905Y-49370238D02*
X66405000Y-49465476D01*
X66643096Y-49370238D01*
X66262143Y-49655952D02*
X66405000Y-49465476D01*
X66547858Y-49655952D01*
X67166905Y-49227381D02*
X67166905Y-49465476D01*
X66928810Y-49370238D02*
X67166905Y-49465476D01*
X67405001Y-49370238D01*
X67024048Y-49655952D02*
X67166905Y-49465476D01*
X67309763Y-49655952D01*
X64071667Y-91502381D02*
X63738333Y-91026190D01*
X63500238Y-91502381D02*
X63500238Y-90502381D01*
X63881191Y-90502381D01*
X63976429Y-90550000D01*
X64024048Y-90597619D01*
X64071667Y-90692857D01*
X64071667Y-90835714D01*
X64024048Y-90930952D01*
X63976429Y-90978571D01*
X63881191Y-91026190D01*
X63500238Y-91026190D01*
X64500238Y-90978571D02*
X64833572Y-90978571D01*
X64976429Y-91502381D02*
X64500238Y-91502381D01*
X64500238Y-90502381D01*
X64976429Y-90502381D01*
X65738334Y-90978571D02*
X65405000Y-90978571D01*
X65405000Y-91502381D02*
X65405000Y-90502381D01*
X65881191Y-90502381D01*
X66405000Y-90502381D02*
X66405000Y-90740476D01*
X66166905Y-90645238D02*
X66405000Y-90740476D01*
X66643096Y-90645238D01*
X66262143Y-90930952D02*
X66405000Y-90740476D01*
X66547858Y-90930952D01*
X67166905Y-90502381D02*
X67166905Y-90740476D01*
X66928810Y-90645238D02*
X67166905Y-90740476D01*
X67405001Y-90645238D01*
X67024048Y-90930952D02*
X67166905Y-90740476D01*
X67309763Y-90930952D01*
X64071667Y-238187381D02*
X63738333Y-237711190D01*
X63500238Y-238187381D02*
X63500238Y-237187381D01*
X63881191Y-237187381D01*
X63976429Y-237235000D01*
X64024048Y-237282619D01*
X64071667Y-237377857D01*
X64071667Y-237520714D01*
X64024048Y-237615952D01*
X63976429Y-237663571D01*
X63881191Y-237711190D01*
X63500238Y-237711190D01*
X64500238Y-237663571D02*
X64833572Y-237663571D01*
X64976429Y-238187381D02*
X64500238Y-238187381D01*
X64500238Y-237187381D01*
X64976429Y-237187381D01*
X65738334Y-237663571D02*
X65405000Y-237663571D01*
X65405000Y-238187381D02*
X65405000Y-237187381D01*
X65881191Y-237187381D01*
X66405000Y-237187381D02*
X66405000Y-237425476D01*
X66166905Y-237330238D02*
X66405000Y-237425476D01*
X66643096Y-237330238D01*
X66262143Y-237615952D02*
X66405000Y-237425476D01*
X66547858Y-237615952D01*
X67166905Y-237187381D02*
X67166905Y-237425476D01*
X66928810Y-237330238D02*
X67166905Y-237425476D01*
X67405001Y-237330238D01*
X67024048Y-237615952D02*
X67166905Y-237425476D01*
X67309763Y-237615952D01*
X64706667Y-151192381D02*
X64373333Y-150716190D01*
X64135238Y-151192381D02*
X64135238Y-150192381D01*
X64516191Y-150192381D01*
X64611429Y-150240000D01*
X64659048Y-150287619D01*
X64706667Y-150382857D01*
X64706667Y-150525714D01*
X64659048Y-150620952D01*
X64611429Y-150668571D01*
X64516191Y-150716190D01*
X64135238Y-150716190D01*
X65135238Y-150668571D02*
X65468572Y-150668571D01*
X65611429Y-151192381D02*
X65135238Y-151192381D01*
X65135238Y-150192381D01*
X65611429Y-150192381D01*
X66373334Y-150668571D02*
X66040000Y-150668571D01*
X66040000Y-151192381D02*
X66040000Y-150192381D01*
X66516191Y-150192381D01*
X67040000Y-150192381D02*
X67040000Y-150430476D01*
X66801905Y-150335238D02*
X67040000Y-150430476D01*
X67278096Y-150335238D01*
X66897143Y-150620952D02*
X67040000Y-150430476D01*
X67182858Y-150620952D01*
X67801905Y-150192381D02*
X67801905Y-150430476D01*
X67563810Y-150335238D02*
X67801905Y-150430476D01*
X68040001Y-150335238D01*
X67659048Y-150620952D02*
X67801905Y-150430476D01*
X67944763Y-150620952D01*
X145986667Y-149922381D02*
X145653333Y-149446190D01*
X145415238Y-149922381D02*
X145415238Y-148922381D01*
X145796191Y-148922381D01*
X145891429Y-148970000D01*
X145939048Y-149017619D01*
X145986667Y-149112857D01*
X145986667Y-149255714D01*
X145939048Y-149350952D01*
X145891429Y-149398571D01*
X145796191Y-149446190D01*
X145415238Y-149446190D01*
X146415238Y-149398571D02*
X146748572Y-149398571D01*
X146891429Y-149922381D02*
X146415238Y-149922381D01*
X146415238Y-148922381D01*
X146891429Y-148922381D01*
X147653334Y-149398571D02*
X147320000Y-149398571D01*
X147320000Y-149922381D02*
X147320000Y-148922381D01*
X147796191Y-148922381D01*
X148320000Y-148922381D02*
X148320000Y-149160476D01*
X148081905Y-149065238D02*
X148320000Y-149160476D01*
X148558096Y-149065238D01*
X148177143Y-149350952D02*
X148320000Y-149160476D01*
X148462858Y-149350952D01*
X149081905Y-148922381D02*
X149081905Y-149160476D01*
X148843810Y-149065238D02*
X149081905Y-149160476D01*
X149320001Y-149065238D01*
X148939048Y-149350952D02*
X149081905Y-149160476D01*
X149224763Y-149350952D01*
X194246667Y-101662381D02*
X193913333Y-101186190D01*
X193675238Y-101662381D02*
X193675238Y-100662381D01*
X194056191Y-100662381D01*
X194151429Y-100710000D01*
X194199048Y-100757619D01*
X194246667Y-100852857D01*
X194246667Y-100995714D01*
X194199048Y-101090952D01*
X194151429Y-101138571D01*
X194056191Y-101186190D01*
X193675238Y-101186190D01*
X194675238Y-101138571D02*
X195008572Y-101138571D01*
X195151429Y-101662381D02*
X194675238Y-101662381D01*
X194675238Y-100662381D01*
X195151429Y-100662381D01*
X195913334Y-101138571D02*
X195580000Y-101138571D01*
X195580000Y-101662381D02*
X195580000Y-100662381D01*
X196056191Y-100662381D01*
X196580000Y-100662381D02*
X196580000Y-100900476D01*
X196341905Y-100805238D02*
X196580000Y-100900476D01*
X196818096Y-100805238D01*
X196437143Y-101090952D02*
X196580000Y-100900476D01*
X196722858Y-101090952D01*
X197341905Y-100662381D02*
X197341905Y-100900476D01*
X197103810Y-100805238D02*
X197341905Y-100900476D01*
X197580001Y-100805238D01*
X197199048Y-101090952D02*
X197341905Y-100900476D01*
X197484763Y-101090952D01*
X130111667Y-226122381D02*
X129778333Y-225646190D01*
X129540238Y-226122381D02*
X129540238Y-225122381D01*
X129921191Y-225122381D01*
X130016429Y-225170000D01*
X130064048Y-225217619D01*
X130111667Y-225312857D01*
X130111667Y-225455714D01*
X130064048Y-225550952D01*
X130016429Y-225598571D01*
X129921191Y-225646190D01*
X129540238Y-225646190D01*
X130540238Y-225598571D02*
X130873572Y-225598571D01*
X131016429Y-226122381D02*
X130540238Y-226122381D01*
X130540238Y-225122381D01*
X131016429Y-225122381D01*
X131778334Y-225598571D02*
X131445000Y-225598571D01*
X131445000Y-226122381D02*
X131445000Y-225122381D01*
X131921191Y-225122381D01*
X132445000Y-225122381D02*
X132445000Y-225360476D01*
X132206905Y-225265238D02*
X132445000Y-225360476D01*
X132683096Y-225265238D01*
X132302143Y-225550952D02*
X132445000Y-225360476D01*
X132587858Y-225550952D01*
X133206905Y-225122381D02*
X133206905Y-225360476D01*
X132968810Y-225265238D02*
X133206905Y-225360476D01*
X133445001Y-225265238D01*
X133064048Y-225550952D02*
X133206905Y-225360476D01*
X133349763Y-225550952D01*
X241871667Y-188657381D02*
X241538333Y-188181190D01*
X241300238Y-188657381D02*
X241300238Y-187657381D01*
X241681191Y-187657381D01*
X241776429Y-187705000D01*
X241824048Y-187752619D01*
X241871667Y-187847857D01*
X241871667Y-187990714D01*
X241824048Y-188085952D01*
X241776429Y-188133571D01*
X241681191Y-188181190D01*
X241300238Y-188181190D01*
X242300238Y-188133571D02*
X242633572Y-188133571D01*
X242776429Y-188657381D02*
X242300238Y-188657381D01*
X242300238Y-187657381D01*
X242776429Y-187657381D01*
X243538334Y-188133571D02*
X243205000Y-188133571D01*
X243205000Y-188657381D02*
X243205000Y-187657381D01*
X243681191Y-187657381D01*
X244205000Y-187657381D02*
X244205000Y-187895476D01*
X243966905Y-187800238D02*
X244205000Y-187895476D01*
X244443096Y-187800238D01*
X244062143Y-188085952D02*
X244205000Y-187895476D01*
X244347858Y-188085952D01*
X244966905Y-187657381D02*
X244966905Y-187895476D01*
X244728810Y-187800238D02*
X244966905Y-187895476D01*
X245205001Y-187800238D01*
X244824048Y-188085952D02*
X244966905Y-187895476D01*
X245109763Y-188085952D01*
X206311667Y-226757381D02*
X205978333Y-226281190D01*
X205740238Y-226757381D02*
X205740238Y-225757381D01*
X206121191Y-225757381D01*
X206216429Y-225805000D01*
X206264048Y-225852619D01*
X206311667Y-225947857D01*
X206311667Y-226090714D01*
X206264048Y-226185952D01*
X206216429Y-226233571D01*
X206121191Y-226281190D01*
X205740238Y-226281190D01*
X206740238Y-226233571D02*
X207073572Y-226233571D01*
X207216429Y-226757381D02*
X206740238Y-226757381D01*
X206740238Y-225757381D01*
X207216429Y-225757381D01*
X207978334Y-226233571D02*
X207645000Y-226233571D01*
X207645000Y-226757381D02*
X207645000Y-225757381D01*
X208121191Y-225757381D01*
X208645000Y-225757381D02*
X208645000Y-225995476D01*
X208406905Y-225900238D02*
X208645000Y-225995476D01*
X208883096Y-225900238D01*
X208502143Y-226185952D02*
X208645000Y-225995476D01*
X208787858Y-226185952D01*
X209406905Y-225757381D02*
X209406905Y-225995476D01*
X209168810Y-225900238D02*
X209406905Y-225995476D01*
X209645001Y-225900238D01*
X209264048Y-226185952D02*
X209406905Y-225995476D01*
X209549763Y-226185952D01*
M02*
