G04 #@! TF.FileFunction,Copper,L1,Top,Signal*
%FSLAX46Y46*%
G04 Gerber Fmt 4.6, Leading zero omitted, Abs format (unit mm)*
G04 Created by KiCad (PCBNEW 4.0.6) date 06/10/17 13:14:14*
%MOMM*%
%LPD*%
G01*
G04 APERTURE LIST*
%ADD10C,0.100000*%
%ADD11C,0.381000*%
%ADD12R,1.700000X1.700000*%
%ADD13O,1.700000X1.700000*%
%ADD14R,2.000000X3.800000*%
%ADD15R,2.000000X1.500000*%
%ADD16R,3.800000X2.000000*%
%ADD17R,1.500000X2.000000*%
%ADD18C,1.700000*%
%ADD19R,0.700000X1.300000*%
%ADD20R,1.300000X0.700000*%
%ADD21C,6.000000*%
%ADD22R,1.200000X1.200000*%
%ADD23R,1.000000X1.250000*%
%ADD24R,1.250000X1.000000*%
%ADD25C,0.600000*%
%ADD26C,1.500000*%
%ADD27C,1.000000*%
%ADD28C,1.000000*%
%ADD29C,2.500000*%
%ADD30C,4.000000*%
%ADD31C,0.250000*%
%ADD32C,0.500000*%
%ADD33C,1.500000*%
%ADD34C,3.000000*%
%ADD35C,0.254000*%
G04 APERTURE END LIST*
D10*
D11*
X110236000Y-73533000D02*
X114935000Y-80518000D01*
X114935000Y-80518000D02*
X105537000Y-80518000D01*
X105537000Y-80518000D02*
X110236000Y-73533000D01*
X110363000Y-79629000D02*
G75*
G03X110363000Y-79629000I-127000J0D01*
G01*
X110595210Y-79629000D02*
G75*
G03X110595210Y-79629000I-359210J0D01*
G01*
X110236000Y-78740000D02*
X110109000Y-75184000D01*
X110236000Y-78613000D02*
X110363000Y-75184000D01*
X110236000Y-75184000D02*
X110744000Y-75184000D01*
X110744000Y-75184000D02*
X110236000Y-78740000D01*
X110236000Y-78740000D02*
X109728000Y-75184000D01*
X109728000Y-75184000D02*
X110236000Y-75184000D01*
D12*
X148082000Y-184912000D03*
D13*
X148082000Y-187452000D03*
X148082000Y-189992000D03*
X148082000Y-192532000D03*
X148082000Y-195072000D03*
X148082000Y-197612000D03*
X148082000Y-200152000D03*
X148082000Y-202692000D03*
X148082000Y-205232000D03*
X148082000Y-207772000D03*
D14*
X178689400Y-103733600D03*
D15*
X172389400Y-103733600D03*
X172389400Y-106033600D03*
X172389400Y-101433600D03*
D12*
X183642000Y-184912000D03*
D13*
X183642000Y-187452000D03*
X183642000Y-189992000D03*
X183642000Y-192532000D03*
X183642000Y-195072000D03*
X183642000Y-197612000D03*
X183642000Y-200152000D03*
X183642000Y-202692000D03*
X183642000Y-205232000D03*
X183642000Y-207772000D03*
D12*
X107442000Y-184912000D03*
D13*
X107442000Y-187452000D03*
X107442000Y-189992000D03*
X107442000Y-192532000D03*
X107442000Y-195072000D03*
X107442000Y-197612000D03*
X107442000Y-200152000D03*
X107442000Y-202692000D03*
X107442000Y-205232000D03*
X107442000Y-207772000D03*
D12*
X71882000Y-184912000D03*
D13*
X71882000Y-187452000D03*
X71882000Y-189992000D03*
X71882000Y-192532000D03*
X71882000Y-195072000D03*
X71882000Y-197612000D03*
X71882000Y-200152000D03*
X71882000Y-202692000D03*
X71882000Y-205232000D03*
X71882000Y-207772000D03*
D12*
X221742000Y-74422000D03*
D13*
X221742000Y-76962000D03*
X221742000Y-79502000D03*
X221742000Y-82042000D03*
X221742000Y-84582000D03*
X221742000Y-87122000D03*
X221742000Y-89662000D03*
X221742000Y-92202000D03*
X221742000Y-94742000D03*
X221742000Y-97282000D03*
X221742000Y-99822000D03*
X221742000Y-102362000D03*
X221742000Y-104902000D03*
X221742000Y-107442000D03*
X221742000Y-109982000D03*
D12*
X231902000Y-68072000D03*
D13*
X231902000Y-70612000D03*
X231902000Y-73152000D03*
X231902000Y-75692000D03*
X231902000Y-78232000D03*
X231902000Y-80772000D03*
D12*
X231902000Y-89662000D03*
D13*
X231902000Y-92202000D03*
X231902000Y-94742000D03*
X231902000Y-97282000D03*
X231902000Y-99822000D03*
X231902000Y-102362000D03*
X231902000Y-104902000D03*
X231902000Y-107442000D03*
X231902000Y-109982000D03*
D12*
X206502000Y-74422000D03*
D13*
X206502000Y-76962000D03*
X206502000Y-79502000D03*
X206502000Y-82042000D03*
X206502000Y-84582000D03*
X206502000Y-87122000D03*
X206502000Y-89662000D03*
X206502000Y-92202000D03*
X206502000Y-94742000D03*
X206502000Y-97282000D03*
X206502000Y-99822000D03*
X206502000Y-102362000D03*
X206502000Y-104902000D03*
X206502000Y-107442000D03*
X206502000Y-109982000D03*
D12*
X146812000Y-59690000D03*
D13*
X144272000Y-59690000D03*
X146812000Y-62230000D03*
X144272000Y-62230000D03*
X146812000Y-64770000D03*
X144272000Y-64770000D03*
X146812000Y-67310000D03*
X144272000Y-67310000D03*
X146812000Y-69850000D03*
X144272000Y-69850000D03*
X146812000Y-72390000D03*
X144272000Y-72390000D03*
X146812000Y-74930000D03*
X144272000Y-74930000D03*
X146812000Y-77470000D03*
X144272000Y-77470000D03*
D12*
X189992000Y-239522000D03*
D13*
X189992000Y-242062000D03*
X187452000Y-239522000D03*
X187452000Y-242062000D03*
X184912000Y-239522000D03*
X184912000Y-242062000D03*
X182372000Y-239522000D03*
X182372000Y-242062000D03*
X179832000Y-239522000D03*
X179832000Y-242062000D03*
X177292000Y-239522000D03*
X177292000Y-242062000D03*
X174752000Y-239522000D03*
X174752000Y-242062000D03*
X172212000Y-239522000D03*
X172212000Y-242062000D03*
X169672000Y-239522000D03*
X169672000Y-242062000D03*
X167132000Y-239522000D03*
X167132000Y-242062000D03*
X164592000Y-239522000D03*
X164592000Y-242062000D03*
X162052000Y-239522000D03*
X162052000Y-242062000D03*
X159512000Y-239522000D03*
X159512000Y-242062000D03*
X156972000Y-239522000D03*
X156972000Y-242062000D03*
X154432000Y-239522000D03*
X154432000Y-242062000D03*
X151892000Y-239522000D03*
X151892000Y-242062000D03*
D16*
X165862000Y-58572000D03*
D17*
X165862000Y-64872000D03*
X168162000Y-64872000D03*
X163562000Y-64872000D03*
D18*
X140462000Y-230632000D03*
X145542000Y-230632000D03*
X148082000Y-230632000D03*
X150622000Y-230632000D03*
X153162000Y-230632000D03*
X158242000Y-230632000D03*
X160782000Y-230632000D03*
X163322000Y-230632000D03*
X165862000Y-230632000D03*
X173482000Y-230632000D03*
X176022000Y-230632000D03*
X178562000Y-230632000D03*
X181102000Y-230632000D03*
X186182000Y-230632000D03*
X188722000Y-230632000D03*
X191262000Y-230632000D03*
X140462000Y-228092000D03*
X140462000Y-225552000D03*
X140462000Y-223012000D03*
X140462000Y-220472000D03*
X140462000Y-217932000D03*
X193802000Y-230632000D03*
X198882000Y-230632000D03*
X198882000Y-228092000D03*
X198882000Y-225552000D03*
X198882000Y-223012000D03*
X198882000Y-220472000D03*
X198882000Y-217932000D03*
X64262000Y-230632000D03*
X69342000Y-230632000D03*
X71882000Y-230632000D03*
X74422000Y-230632000D03*
X76962000Y-230632000D03*
X82042000Y-230632000D03*
X84582000Y-230632000D03*
X87122000Y-230632000D03*
X89662000Y-230632000D03*
X97282000Y-230632000D03*
X99822000Y-230632000D03*
X102362000Y-230632000D03*
X104902000Y-230632000D03*
X109982000Y-230632000D03*
X112522000Y-230632000D03*
X115062000Y-230632000D03*
X64262000Y-228092000D03*
X64262000Y-225552000D03*
X64262000Y-223012000D03*
X64262000Y-220472000D03*
X64262000Y-217932000D03*
X117602000Y-230632000D03*
X122682000Y-230632000D03*
X122682000Y-228092000D03*
X122682000Y-225552000D03*
X122682000Y-223012000D03*
X122682000Y-220472000D03*
X122682000Y-217932000D03*
D19*
X199202000Y-76962000D03*
X201102000Y-76962000D03*
X220792000Y-149352000D03*
X222692000Y-149352000D03*
X220792000Y-153162000D03*
X222692000Y-153162000D03*
X199202000Y-149352000D03*
X201102000Y-149352000D03*
X201742000Y-136652000D03*
X203642000Y-136652000D03*
X201742000Y-132842000D03*
X203642000Y-132842000D03*
X201742000Y-129032000D03*
X203642000Y-129032000D03*
X201742000Y-125222000D03*
X203642000Y-125222000D03*
X199202000Y-153162000D03*
X201102000Y-153162000D03*
X175072000Y-149352000D03*
X176972000Y-149352000D03*
X175072000Y-153162000D03*
X176972000Y-153162000D03*
X163002000Y-74422000D03*
X161102000Y-74422000D03*
D20*
X175044100Y-112684600D03*
X175044100Y-110784600D03*
D12*
X196342000Y-84582000D03*
D13*
X198882000Y-84582000D03*
X196342000Y-87122000D03*
X198882000Y-87122000D03*
X196342000Y-89662000D03*
X198882000Y-89662000D03*
X196342000Y-92202000D03*
X198882000Y-92202000D03*
X196342000Y-94742000D03*
X198882000Y-94742000D03*
D21*
X250952000Y-225552000D03*
X243952000Y-225552000D03*
X250952000Y-214122000D03*
X243952000Y-214122000D03*
D12*
X228092000Y-153162000D03*
D13*
X228092000Y-150622000D03*
X228092000Y-148082000D03*
D12*
X196342000Y-126492000D03*
D13*
X196342000Y-129032000D03*
X196342000Y-131572000D03*
X196342000Y-134112000D03*
D12*
X206502000Y-153162000D03*
D13*
X206502000Y-150622000D03*
X206502000Y-148082000D03*
D12*
X182372000Y-153162000D03*
D13*
X182372000Y-150622000D03*
X182372000Y-148082000D03*
D12*
X154432000Y-200152000D03*
D13*
X156972000Y-200152000D03*
X154432000Y-202692000D03*
X156972000Y-202692000D03*
X154432000Y-205232000D03*
X156972000Y-205232000D03*
X154432000Y-207772000D03*
X156972000Y-207772000D03*
D21*
X250952000Y-206502000D03*
X243952000Y-206502000D03*
D12*
X151892000Y-236982000D03*
D13*
X154432000Y-236982000D03*
X156972000Y-236982000D03*
X159512000Y-236982000D03*
X162052000Y-236982000D03*
X164592000Y-236982000D03*
X167132000Y-236982000D03*
X169672000Y-236982000D03*
X172212000Y-236982000D03*
X174752000Y-236982000D03*
X177292000Y-236982000D03*
X179832000Y-236982000D03*
X182372000Y-236982000D03*
X184912000Y-236982000D03*
X187452000Y-236982000D03*
X189992000Y-236982000D03*
D12*
X189992000Y-200152000D03*
D13*
X192532000Y-200152000D03*
X189992000Y-202692000D03*
X192532000Y-202692000D03*
X189992000Y-205232000D03*
X192532000Y-205232000D03*
X189992000Y-207772000D03*
X192532000Y-207772000D03*
D12*
X74422000Y-236982000D03*
D13*
X76962000Y-236982000D03*
X79502000Y-236982000D03*
X82042000Y-236982000D03*
X84582000Y-236982000D03*
X87122000Y-236982000D03*
X89662000Y-236982000D03*
X92202000Y-236982000D03*
X94742000Y-236982000D03*
X97282000Y-236982000D03*
X99822000Y-236982000D03*
X102362000Y-236982000D03*
X104902000Y-236982000D03*
X107442000Y-236982000D03*
X109982000Y-236982000D03*
X112522000Y-236982000D03*
D12*
X113792000Y-200152000D03*
D13*
X116332000Y-200152000D03*
X113792000Y-202692000D03*
X116332000Y-202692000D03*
X113792000Y-205232000D03*
X116332000Y-205232000D03*
X113792000Y-207772000D03*
X116332000Y-207772000D03*
D12*
X78232000Y-200152000D03*
D13*
X80772000Y-200152000D03*
X78232000Y-202692000D03*
X80772000Y-202692000D03*
X78232000Y-205232000D03*
X80772000Y-205232000D03*
X78232000Y-207772000D03*
X80772000Y-207772000D03*
D22*
X201252000Y-74422000D03*
X199052000Y-74422000D03*
X206672000Y-136652000D03*
X208872000Y-136652000D03*
X206672000Y-132842000D03*
X208872000Y-132842000D03*
X206672000Y-129032000D03*
X208872000Y-129032000D03*
X206672000Y-125222000D03*
X208872000Y-125222000D03*
X170772000Y-74422000D03*
X168572000Y-74422000D03*
X171411900Y-110494900D03*
X171411900Y-112694900D03*
D23*
X170672000Y-69342000D03*
X168672000Y-69342000D03*
D24*
X167119300Y-106569000D03*
X167119300Y-108569000D03*
D23*
X161052000Y-69342000D03*
X163052000Y-69342000D03*
D24*
X167170100Y-100974400D03*
X167170100Y-98974400D03*
D12*
X112522000Y-239522000D03*
D13*
X112522000Y-242062000D03*
X109982000Y-239522000D03*
X109982000Y-242062000D03*
X107442000Y-239522000D03*
X107442000Y-242062000D03*
X104902000Y-239522000D03*
X104902000Y-242062000D03*
X102362000Y-239522000D03*
X102362000Y-242062000D03*
X99822000Y-239522000D03*
X99822000Y-242062000D03*
X97282000Y-239522000D03*
X97282000Y-242062000D03*
X94742000Y-239522000D03*
X94742000Y-242062000D03*
X92202000Y-239522000D03*
X92202000Y-242062000D03*
X89662000Y-239522000D03*
X89662000Y-242062000D03*
X87122000Y-239522000D03*
X87122000Y-242062000D03*
X84582000Y-239522000D03*
X84582000Y-242062000D03*
X82042000Y-239522000D03*
X82042000Y-242062000D03*
X79502000Y-239522000D03*
X79502000Y-242062000D03*
X76962000Y-239522000D03*
X76962000Y-242062000D03*
X74422000Y-239522000D03*
X74422000Y-242062000D03*
D12*
X137922000Y-125222000D03*
D13*
X140462000Y-125222000D03*
X137922000Y-127762000D03*
X140462000Y-127762000D03*
X137922000Y-130302000D03*
X140462000Y-130302000D03*
X137922000Y-132842000D03*
X140462000Y-132842000D03*
X137922000Y-135382000D03*
X140462000Y-135382000D03*
X137922000Y-137922000D03*
X140462000Y-137922000D03*
X137922000Y-140462000D03*
X140462000Y-140462000D03*
X137922000Y-143002000D03*
X140462000Y-143002000D03*
X137922000Y-145542000D03*
X140462000Y-145542000D03*
X137922000Y-148082000D03*
X140462000Y-148082000D03*
X137922000Y-150622000D03*
X140462000Y-150622000D03*
X137922000Y-153162000D03*
X140462000Y-153162000D03*
X137922000Y-155702000D03*
X140462000Y-155702000D03*
X137922000Y-158242000D03*
X140462000Y-158242000D03*
X137922000Y-160782000D03*
X140462000Y-160782000D03*
X137922000Y-163322000D03*
X140462000Y-163322000D03*
X137922000Y-165862000D03*
X140462000Y-165862000D03*
X137922000Y-168402000D03*
X140462000Y-168402000D03*
X137922000Y-170942000D03*
X140462000Y-170942000D03*
D12*
X76962000Y-125222000D03*
D13*
X79502000Y-125222000D03*
X76962000Y-127762000D03*
X79502000Y-127762000D03*
X76962000Y-130302000D03*
X79502000Y-130302000D03*
X76962000Y-132842000D03*
X79502000Y-132842000D03*
X76962000Y-135382000D03*
X79502000Y-135382000D03*
X76962000Y-137922000D03*
X79502000Y-137922000D03*
X76962000Y-140462000D03*
X79502000Y-140462000D03*
X76962000Y-143002000D03*
X79502000Y-143002000D03*
X76962000Y-145542000D03*
X79502000Y-145542000D03*
X76962000Y-148082000D03*
X79502000Y-148082000D03*
X76962000Y-150622000D03*
X79502000Y-150622000D03*
X76962000Y-153162000D03*
X79502000Y-153162000D03*
X76962000Y-155702000D03*
X79502000Y-155702000D03*
X76962000Y-158242000D03*
X79502000Y-158242000D03*
X76962000Y-160782000D03*
X79502000Y-160782000D03*
X76962000Y-163322000D03*
X79502000Y-163322000D03*
X76962000Y-165862000D03*
X79502000Y-165862000D03*
X76962000Y-168402000D03*
X79502000Y-168402000D03*
X76962000Y-170942000D03*
X79502000Y-170942000D03*
D25*
X197866000Y-77216000D03*
D26*
X208788000Y-130810000D03*
D27*
X166370000Y-110490000D03*
D26*
X177800000Y-99060000D03*
X165735000Y-69215000D03*
X148590000Y-217805000D03*
D27*
X203200000Y-157988000D03*
X164566600Y-105384600D03*
X143586200Y-102362000D03*
X137274300Y-107073700D03*
X132918200Y-117208300D03*
X174962820Y-159626300D03*
X195247260Y-153088340D03*
D26*
X191084200Y-137888980D03*
X93281500Y-184967880D03*
X93225620Y-196367400D03*
X154432000Y-78994000D03*
X161544000Y-79248000D03*
D25*
X162572700Y-142494000D03*
X187337700Y-141986000D03*
X150622000Y-134112000D03*
X148996400Y-110566200D03*
X151366220Y-141721840D03*
X150368000Y-111404400D03*
X151635460Y-144282160D03*
D27*
X167149780Y-189997080D03*
X154470100Y-190108840D03*
D25*
X217944700Y-159867600D03*
D27*
X213288880Y-113832640D03*
D25*
X145072100Y-179552600D03*
X149440900Y-172288200D03*
X214261700Y-93865700D03*
X214172800Y-85674200D03*
D27*
X212194140Y-145732500D03*
X205107540Y-114757200D03*
D25*
X183956960Y-130515360D03*
X153162000Y-135382000D03*
D27*
X164942520Y-192595500D03*
D25*
X179120800Y-144513300D03*
X178587400Y-151866600D03*
D28*
X158064200Y-92049600D02*
X158064200Y-94919800D01*
X158064200Y-94919800D02*
X164118800Y-100974400D01*
X164118800Y-100974400D02*
X167170100Y-100974400D01*
X161052000Y-69342000D02*
X159702500Y-69342000D01*
X158064200Y-70980300D02*
X158064200Y-92049600D01*
X159702500Y-69342000D02*
X158064200Y-70980300D01*
X167170100Y-100974400D02*
X171930200Y-100974400D01*
X171930200Y-100974400D02*
X172389400Y-101433600D01*
X161052000Y-69342000D02*
X161052000Y-67382000D01*
X161052000Y-67382000D02*
X163562000Y-64872000D01*
X157556200Y-54102000D02*
X157556200Y-58866200D01*
X157556200Y-58866200D02*
X163562000Y-64872000D01*
D29*
X197612000Y-54102000D02*
X157556200Y-54102000D01*
D30*
X250952000Y-62992000D02*
X242062000Y-54102000D01*
X242062000Y-54102000D02*
X197612000Y-54102000D01*
X250952000Y-206502000D02*
X250952000Y-62992000D01*
D29*
X157556200Y-54102000D02*
X157492700Y-54038500D01*
D30*
X250952000Y-206502000D02*
X250952000Y-214122000D01*
D31*
X199202000Y-76962000D02*
X198120000Y-76962000D01*
X198120000Y-76962000D02*
X197866000Y-77216000D01*
D32*
X208872000Y-130556000D02*
X208872000Y-130726000D01*
X208872000Y-130726000D02*
X208788000Y-130810000D01*
X208872000Y-136652000D02*
X208872000Y-132842000D01*
X208872000Y-132842000D02*
X208872000Y-130556000D01*
X208872000Y-130556000D02*
X208872000Y-129032000D01*
X208872000Y-129032000D02*
X208872000Y-125222000D01*
X161102000Y-74422000D02*
X161102000Y-72324000D01*
X163052000Y-70374000D02*
X163052000Y-69342000D01*
X161102000Y-72324000D02*
X163052000Y-70374000D01*
X167119300Y-108569000D02*
X167119300Y-109740700D01*
X167119300Y-109740700D02*
X166370000Y-110490000D01*
X167170100Y-98974400D02*
X177714400Y-98974400D01*
D28*
X178689400Y-99949400D02*
X178689400Y-103733600D01*
X178689400Y-99949400D02*
X177800000Y-99060000D01*
D32*
X177714400Y-98974400D02*
X177800000Y-99060000D01*
D28*
X172389400Y-103733600D02*
X178689400Y-103733600D01*
X168672000Y-69342000D02*
X165862000Y-69342000D01*
X165862000Y-69342000D02*
X165735000Y-69215000D01*
X163052000Y-69342000D02*
X165608000Y-69342000D01*
X165862000Y-69088000D02*
X165735000Y-69215000D01*
X165862000Y-69088000D02*
X165862000Y-64872000D01*
X165608000Y-69342000D02*
X165735000Y-69215000D01*
X140462000Y-217932000D02*
X148463000Y-217932000D01*
X148463000Y-217932000D02*
X148590000Y-217805000D01*
D31*
X175044100Y-110784600D02*
X175044100Y-107378900D01*
X175044100Y-107378900D02*
X178689400Y-103733600D01*
D30*
X243952000Y-225552000D02*
X243952000Y-214122000D01*
X243952000Y-206502000D02*
X243952000Y-214122000D01*
D32*
X220792000Y-153162000D02*
X219710000Y-153162000D01*
X214884000Y-157988000D02*
X203200000Y-157988000D01*
X219710000Y-153162000D02*
X214884000Y-157988000D01*
X220792000Y-153162000D02*
X220792000Y-149352000D01*
X206502000Y-76962000D02*
X204978000Y-76962000D01*
X182880000Y-90170000D02*
X182880000Y-96520000D01*
X193040000Y-80010000D02*
X182880000Y-90170000D01*
X201930000Y-80010000D02*
X193040000Y-80010000D01*
X204978000Y-76962000D02*
X201930000Y-80010000D01*
D28*
X140462000Y-228092000D02*
X139192000Y-228092000D01*
X99026980Y-214630000D02*
X93225620Y-208828640D01*
X125730000Y-214630000D02*
X99026980Y-214630000D01*
X139192000Y-228092000D02*
X125730000Y-214630000D01*
D32*
X79502000Y-143002000D02*
X107124500Y-143002000D01*
X141986000Y-102362000D02*
X143586200Y-102362000D01*
X137274300Y-107073700D02*
X141986000Y-102362000D01*
X107124500Y-143002000D02*
X132918200Y-117208300D01*
X175072000Y-159517120D02*
X175072000Y-153162000D01*
X174962820Y-159626300D02*
X175072000Y-159517120D01*
X199202000Y-153162000D02*
X199202000Y-149352000D01*
X195320920Y-153162000D02*
X199202000Y-153162000D01*
X195247260Y-153088340D02*
X195320920Y-153162000D01*
D28*
X176499520Y-126964440D02*
X176499520Y-115089940D01*
X186138820Y-136603740D02*
X176499520Y-126964440D01*
X189798960Y-136603740D02*
X186138820Y-136603740D01*
X191084200Y-137888980D02*
X189798960Y-136603740D01*
D32*
X175072000Y-153162000D02*
X175072000Y-149352000D01*
X93225620Y-196367400D02*
X101831140Y-196367400D01*
X103126540Y-195072000D02*
X107442000Y-195072000D01*
X101831140Y-196367400D02*
X103126540Y-195072000D01*
D28*
X64262000Y-228092000D02*
X66027300Y-228092000D01*
X93225620Y-208828640D02*
X93225620Y-196367400D01*
X86072980Y-215981280D02*
X93225620Y-208828640D01*
X78138020Y-215981280D02*
X86072980Y-215981280D01*
X66027300Y-228092000D02*
X78138020Y-215981280D01*
X93281500Y-184967880D02*
X93281500Y-184912000D01*
X93281500Y-184912000D02*
X93281500Y-184967880D01*
X93281500Y-184967880D02*
X93281500Y-184912000D01*
X71882000Y-184912000D02*
X93281500Y-184912000D01*
X93281500Y-184912000D02*
X107442000Y-184912000D01*
X107442000Y-184912000D02*
X148082000Y-184912000D01*
X148082000Y-184912000D02*
X183642000Y-184912000D01*
X231902000Y-107442000D02*
X234442000Y-107442000D01*
X184912000Y-117602000D02*
X179832000Y-112522000D01*
X234442000Y-117602000D02*
X184912000Y-117602000D01*
X236982000Y-115062000D02*
X234442000Y-117602000D01*
X236982000Y-109982000D02*
X236982000Y-115062000D01*
X234442000Y-107442000D02*
X236982000Y-109982000D01*
D31*
X171411900Y-110494900D02*
X171411900Y-108610400D01*
X172389400Y-107632900D02*
X172389400Y-106033600D01*
X171411900Y-108610400D02*
X172389400Y-107632900D01*
D28*
X167119300Y-106569000D02*
X171854000Y-106569000D01*
X171854000Y-106569000D02*
X172389400Y-106033600D01*
D32*
X231902000Y-107442000D02*
X233222800Y-107442000D01*
X233222800Y-107442000D02*
X236054900Y-104609900D01*
X236054900Y-104609900D02*
X236054900Y-84924900D01*
X236054900Y-84924900D02*
X231902000Y-80772000D01*
D33*
X170672000Y-73660000D02*
X170672000Y-77486000D01*
X168910000Y-79248000D02*
X161544000Y-79248000D01*
X170672000Y-77486000D02*
X168910000Y-79248000D01*
D28*
X170672000Y-69342000D02*
X170672000Y-73660000D01*
X170672000Y-73660000D02*
X170672000Y-74322000D01*
X170672000Y-74322000D02*
X170772000Y-74422000D01*
X168162000Y-64872000D02*
X169189800Y-64872000D01*
X170672000Y-66354200D02*
X170672000Y-69342000D01*
X169189800Y-64872000D02*
X170672000Y-66354200D01*
D31*
X175044100Y-112684600D02*
X171422200Y-112684600D01*
X171422200Y-112684600D02*
X171411900Y-112694900D01*
X168572000Y-74422000D02*
X163002000Y-74422000D01*
D32*
X203642000Y-125222000D02*
X206672000Y-125222000D01*
X206672000Y-129032000D02*
X203642000Y-129032000D01*
X203642000Y-132842000D02*
X206672000Y-132842000D01*
X206672000Y-136652000D02*
X203642000Y-136652000D01*
D31*
X206502000Y-74422000D02*
X201252000Y-74422000D01*
X201102000Y-76962000D02*
X201102000Y-76642000D01*
X201102000Y-76642000D02*
X199052000Y-74592000D01*
X199052000Y-74592000D02*
X199052000Y-74422000D01*
X78232000Y-200152000D02*
X71882000Y-200152000D01*
X71882000Y-202692000D02*
X78232000Y-202692000D01*
X78232000Y-205232000D02*
X71882000Y-205232000D01*
X71882000Y-207772000D02*
X78232000Y-207772000D01*
X113792000Y-200152000D02*
X107442000Y-200152000D01*
X107442000Y-202692000D02*
X113792000Y-202692000D01*
X113792000Y-205232000D02*
X107442000Y-205232000D01*
X107442000Y-207772000D02*
X113792000Y-207772000D01*
X74422000Y-236982000D02*
X74422000Y-235712000D01*
X74422000Y-235712000D02*
X69342000Y-230632000D01*
X71882000Y-230632000D02*
X71882000Y-230784400D01*
X71882000Y-230784400D02*
X76962000Y-235864400D01*
X76962000Y-235864400D02*
X76962000Y-236982000D01*
X74422000Y-230632000D02*
X74422000Y-231571800D01*
X74422000Y-231571800D02*
X79502000Y-236651800D01*
X79502000Y-236651800D02*
X79502000Y-236982000D01*
X76962000Y-230632000D02*
X76962000Y-232054400D01*
X76962000Y-232054400D02*
X79209900Y-234302300D01*
X79209900Y-234302300D02*
X79362300Y-234302300D01*
X79362300Y-234302300D02*
X82042000Y-236982000D01*
X82042000Y-230632000D02*
X82042000Y-233514900D01*
X82042000Y-233514900D02*
X84582000Y-236054900D01*
X84582000Y-236054900D02*
X84582000Y-236982000D01*
X84582000Y-230632000D02*
X84582000Y-233006900D01*
X84582000Y-233006900D02*
X87122000Y-235546900D01*
X87122000Y-235546900D02*
X87122000Y-236982000D01*
X87122000Y-230632000D02*
X87122000Y-233070400D01*
X87122000Y-233070400D02*
X89662000Y-235610400D01*
X89662000Y-235610400D02*
X89662000Y-236982000D01*
X89662000Y-230632000D02*
X89662000Y-233172000D01*
X89662000Y-233172000D02*
X92202000Y-235712000D01*
X92202000Y-235712000D02*
X92202000Y-236982000D01*
X97282000Y-230632000D02*
X97282000Y-232994200D01*
X97282000Y-232994200D02*
X94742000Y-235534200D01*
X94742000Y-235534200D02*
X94742000Y-236982000D01*
X99822000Y-230632000D02*
X99822000Y-232549700D01*
X99822000Y-232549700D02*
X97282000Y-235089700D01*
X97282000Y-235089700D02*
X97282000Y-236982000D01*
X102362000Y-230632000D02*
X102362000Y-232524300D01*
X102362000Y-232524300D02*
X99822000Y-235064300D01*
X99822000Y-235064300D02*
X99822000Y-236982000D01*
X104902000Y-230632000D02*
X104902000Y-232498900D01*
X104902000Y-232498900D02*
X102362000Y-235038900D01*
X102362000Y-235038900D02*
X102362000Y-236982000D01*
X109982000Y-230632000D02*
X109982000Y-232067100D01*
X109982000Y-232067100D02*
X107899200Y-234149900D01*
X107899200Y-234149900D02*
X105803700Y-234149900D01*
X105803700Y-234149900D02*
X104902000Y-235051600D01*
X104902000Y-235051600D02*
X104902000Y-236982000D01*
X112522000Y-230632000D02*
X112522000Y-231622600D01*
X112522000Y-231622600D02*
X107442000Y-236702600D01*
X107442000Y-236702600D02*
X107442000Y-236982000D01*
X115062000Y-231025700D02*
X109982000Y-236105700D01*
X109982000Y-236105700D02*
X109982000Y-236982000D01*
X115062000Y-230632000D02*
X115062000Y-231025700D01*
X112522000Y-236982000D02*
X112522000Y-235712000D01*
X112522000Y-235712000D02*
X117602000Y-230632000D01*
D34*
X201422000Y-239522000D02*
X195072000Y-239522000D01*
X116332000Y-239522000D02*
X148082000Y-239522000D01*
D33*
X112522000Y-239522000D02*
X116332000Y-239522000D01*
X148082000Y-239522000D02*
X151892000Y-239522000D01*
X112522000Y-239522000D02*
X109982000Y-239522000D01*
X109982000Y-239522000D02*
X107442000Y-239522000D01*
X107442000Y-239522000D02*
X104902000Y-239522000D01*
X104902000Y-239522000D02*
X102362000Y-239522000D01*
X102362000Y-239522000D02*
X99822000Y-239522000D01*
X99822000Y-239522000D02*
X97282000Y-239522000D01*
X97282000Y-239522000D02*
X94742000Y-239522000D01*
X94742000Y-239522000D02*
X92202000Y-239522000D01*
X92202000Y-239522000D02*
X89662000Y-239522000D01*
X89662000Y-239522000D02*
X87122000Y-239522000D01*
X87122000Y-239522000D02*
X84582000Y-239522000D01*
X84582000Y-239522000D02*
X82042000Y-239522000D01*
X82042000Y-239522000D02*
X79502000Y-239522000D01*
X79502000Y-239522000D02*
X76962000Y-239522000D01*
X76962000Y-239522000D02*
X74422000Y-239522000D01*
X189992000Y-239522000D02*
X187452000Y-239522000D01*
X187452000Y-239522000D02*
X184912000Y-239522000D01*
X184912000Y-239522000D02*
X182372000Y-239522000D01*
X182372000Y-239522000D02*
X179832000Y-239522000D01*
X179832000Y-239522000D02*
X177292000Y-239522000D01*
X177292000Y-239522000D02*
X174752000Y-239522000D01*
X174752000Y-239522000D02*
X172212000Y-239522000D01*
X172212000Y-239522000D02*
X169672000Y-239522000D01*
X169672000Y-239522000D02*
X167132000Y-239522000D01*
X167132000Y-239522000D02*
X164592000Y-239522000D01*
X164592000Y-239522000D02*
X162052000Y-239522000D01*
X162052000Y-239522000D02*
X159512000Y-239522000D01*
X159512000Y-239522000D02*
X156972000Y-239522000D01*
X156972000Y-239522000D02*
X154432000Y-239522000D01*
X154432000Y-239522000D02*
X151892000Y-239522000D01*
D34*
X250952000Y-225552000D02*
X250952000Y-236982000D01*
X250952000Y-236982000D02*
X248412000Y-239522000D01*
X248412000Y-239522000D02*
X201422000Y-239522000D01*
D33*
X189992000Y-239522000D02*
X195072000Y-239522000D01*
X201422000Y-239522000D02*
X248412000Y-239522000D01*
X248412000Y-239522000D02*
X250952000Y-236982000D01*
D32*
X228092000Y-153162000D02*
X235724700Y-153162000D01*
X137922000Y-123393200D02*
X137922000Y-125222000D01*
X138976100Y-122339100D02*
X137922000Y-123393200D01*
X142417800Y-122339100D02*
X138976100Y-122339100D01*
X162572700Y-142494000D02*
X142417800Y-122339100D01*
X187464700Y-142113000D02*
X187337700Y-141986000D01*
X233692700Y-142113000D02*
X187464700Y-142113000D01*
X236232700Y-144653000D02*
X233692700Y-142113000D01*
X236232700Y-152654000D02*
X236232700Y-144653000D01*
X235724700Y-153162000D02*
X236232700Y-152654000D01*
X228092000Y-153162000D02*
X222692000Y-153162000D01*
D31*
X140462000Y-130302000D02*
X146812000Y-130302000D01*
X146812000Y-130302000D02*
X150622000Y-134112000D01*
D32*
X196342000Y-129032000D02*
X201742000Y-129032000D01*
X146812000Y-69850000D02*
X148386800Y-69850000D01*
X148920200Y-110490000D02*
X148996400Y-110566200D01*
X148920200Y-70383400D02*
X148920200Y-110490000D01*
X148386800Y-69850000D02*
X148920200Y-70383400D01*
D31*
X137922000Y-140462000D02*
X137929620Y-140462000D01*
X137929620Y-140462000D02*
X139192000Y-141724380D01*
X139192000Y-141724380D02*
X151363680Y-141724380D01*
X151363680Y-141724380D02*
X151366220Y-141721840D01*
D32*
X196342000Y-131572000D02*
X200472000Y-131572000D01*
X200472000Y-131572000D02*
X201742000Y-132842000D01*
X148869400Y-67310000D02*
X146812000Y-67310000D01*
X150558500Y-68999100D02*
X148869400Y-67310000D01*
X150558500Y-111213900D02*
X150558500Y-68999100D01*
X150368000Y-111404400D02*
X150558500Y-111213900D01*
D31*
X137922000Y-143002000D02*
X137967720Y-143002000D01*
X137967720Y-143002000D02*
X139235180Y-144269460D01*
X151622760Y-144269460D02*
X151635460Y-144282160D01*
X139235180Y-144269460D02*
X151622760Y-144269460D01*
X137922000Y-143002000D02*
X137922000Y-143009620D01*
D32*
X196342000Y-134112000D02*
X199202000Y-134112000D01*
X199202000Y-134112000D02*
X201742000Y-136652000D01*
X167149780Y-189997080D02*
X167149780Y-189992000D01*
X167149780Y-189992000D02*
X167149780Y-189997080D01*
X167149780Y-189997080D02*
X167149780Y-189992000D01*
X154498040Y-190080900D02*
X154498040Y-189992000D01*
X154470100Y-190108840D02*
X154498040Y-190080900D01*
X64262000Y-223012000D02*
X65379600Y-223012000D01*
X69956680Y-189992000D02*
X71882000Y-189992000D01*
X67101720Y-192846960D02*
X69956680Y-189992000D01*
X67101720Y-221289880D02*
X67101720Y-192846960D01*
X65379600Y-223012000D02*
X67101720Y-221289880D01*
X148082000Y-189992000D02*
X154498040Y-189992000D01*
X154498040Y-189992000D02*
X167149780Y-189992000D01*
X167149780Y-189992000D02*
X183642000Y-189992000D01*
X107442000Y-189992000D02*
X148082000Y-189992000D01*
X71882000Y-189992000D02*
X107442000Y-189992000D01*
X176972000Y-149352000D02*
X179641500Y-149352000D01*
X180911500Y-150622000D02*
X182372000Y-150622000D01*
X179641500Y-149352000D02*
X180911500Y-150622000D01*
X176972000Y-149352000D02*
X176972000Y-145323600D01*
X135001000Y-145542000D02*
X137922000Y-145542000D01*
X130441700Y-140982700D02*
X135001000Y-145542000D01*
X130441700Y-123837700D02*
X130441700Y-140982700D01*
X133959600Y-120319800D02*
X130441700Y-123837700D01*
X151968200Y-120319800D02*
X133959600Y-120319800D01*
X176972000Y-145323600D02*
X151968200Y-120319800D01*
X130949700Y-153162000D02*
X137922000Y-153162000D01*
X122669300Y-161442400D02*
X130949700Y-153162000D01*
X122669300Y-177901600D02*
X122669300Y-161442400D01*
X125666500Y-180898800D02*
X122669300Y-177901600D01*
X196913500Y-180898800D02*
X125666500Y-180898800D01*
X217944700Y-159867600D02*
X196913500Y-180898800D01*
X228092000Y-150622000D02*
X224942400Y-150622000D01*
X223672400Y-149352000D02*
X222692000Y-149352000D01*
X224942400Y-150622000D02*
X223672400Y-149352000D01*
X213151720Y-94742000D02*
X213151720Y-113695480D01*
X213151720Y-113695480D02*
X213288880Y-113832640D01*
X201102000Y-149352000D02*
X201102000Y-147482600D01*
X132664200Y-155702000D02*
X137922000Y-155702000D01*
X126136400Y-162229800D02*
X132664200Y-155702000D01*
X126136400Y-176758600D02*
X126136400Y-162229800D01*
X129540000Y-180162200D02*
X126136400Y-176758600D01*
X144462500Y-180162200D02*
X129540000Y-180162200D01*
X145072100Y-179552600D02*
X144462500Y-180162200D01*
X152349200Y-169379900D02*
X149440900Y-172288200D01*
X187820300Y-169379900D02*
X152349200Y-169379900D01*
X190754000Y-166446200D02*
X187820300Y-169379900D01*
X190754000Y-148704300D02*
X190754000Y-166446200D01*
X194170300Y-145288000D02*
X190754000Y-148704300D01*
X198907400Y-145288000D02*
X194170300Y-145288000D01*
X201102000Y-147482600D02*
X198907400Y-145288000D01*
X206502000Y-150622000D02*
X203606400Y-150622000D01*
X203606400Y-150622000D02*
X202336400Y-149352000D01*
X202336400Y-149352000D02*
X201102000Y-149352000D01*
D31*
X231902000Y-70612000D02*
X228638100Y-70612000D01*
X213385400Y-94742000D02*
X213151720Y-94742000D01*
X213151720Y-94742000D02*
X206502000Y-94742000D01*
X214261700Y-93865700D02*
X213385400Y-94742000D01*
X214172800Y-71323200D02*
X214172800Y-85674200D01*
X217347800Y-68148200D02*
X214172800Y-71323200D01*
X226174300Y-68148200D02*
X217347800Y-68148200D01*
X228638100Y-70612000D02*
X226174300Y-68148200D01*
D32*
X202173840Y-94742000D02*
X202173840Y-111823500D01*
X211889340Y-153162000D02*
X206502000Y-153162000D01*
X212232240Y-152819100D02*
X211889340Y-153162000D01*
X212232240Y-145770600D02*
X212232240Y-152819100D01*
X212194140Y-145732500D02*
X212232240Y-145770600D01*
X202173840Y-111823500D02*
X205107540Y-114757200D01*
X201102000Y-153162000D02*
X201102000Y-161762400D01*
X134112000Y-163322000D02*
X137922000Y-163322000D01*
X132245100Y-165188900D02*
X134112000Y-163322000D01*
X132245100Y-174625000D02*
X132245100Y-165188900D01*
X134378700Y-176758600D02*
X132245100Y-174625000D01*
X186105800Y-176758600D02*
X134378700Y-176758600D01*
X201102000Y-161762400D02*
X186105800Y-176758600D01*
X201102000Y-153162000D02*
X206502000Y-153162000D01*
D31*
X231902000Y-73152000D02*
X228257100Y-73152000D01*
X211683600Y-92202000D02*
X206502000Y-92202000D01*
X216408000Y-87477600D02*
X211683600Y-92202000D01*
X216408000Y-72694800D02*
X216408000Y-87477600D01*
X219189300Y-69913500D02*
X216408000Y-72694800D01*
X225018600Y-69913500D02*
X219189300Y-69913500D01*
X228257100Y-73152000D02*
X225018600Y-69913500D01*
X198882000Y-94742000D02*
X202173840Y-94742000D01*
X202173840Y-94742000D02*
X202222100Y-94742000D01*
X204762100Y-92202000D02*
X206502000Y-92202000D01*
X202222100Y-94742000D02*
X204762100Y-92202000D01*
X140462000Y-165862000D02*
X144272000Y-165862000D01*
X187980320Y-126492000D02*
X196342000Y-126492000D01*
X183956960Y-130515360D02*
X187980320Y-126492000D01*
X153162000Y-156972000D02*
X153162000Y-135382000D01*
X144272000Y-165862000D02*
X153162000Y-156972000D01*
D32*
X196342000Y-126492000D02*
X200472000Y-126492000D01*
X200472000Y-126492000D02*
X201742000Y-125222000D01*
D31*
X183642000Y-200152000D02*
X189992000Y-200152000D01*
X189992000Y-202692000D02*
X183642000Y-202692000D01*
X183642000Y-205232000D02*
X189992000Y-205232000D01*
X189992000Y-207772000D02*
X183642000Y-207772000D01*
X151892000Y-236982000D02*
X145542000Y-230632000D01*
D32*
X151526240Y-236982000D02*
X151892000Y-236982000D01*
D31*
X148082000Y-230632000D02*
X148082000Y-230886000D01*
X148082000Y-230886000D02*
X151638000Y-234442000D01*
X154432000Y-235966000D02*
X154432000Y-236982000D01*
X152908000Y-234442000D02*
X154432000Y-235966000D01*
X151638000Y-234442000D02*
X152908000Y-234442000D01*
X156972000Y-236982000D02*
X156972000Y-236728000D01*
X156972000Y-236728000D02*
X150876000Y-230632000D01*
X150876000Y-230632000D02*
X150622000Y-230632000D01*
X153162000Y-230632000D02*
X154178000Y-230632000D01*
X159512000Y-235966000D02*
X159512000Y-236982000D01*
X154178000Y-230632000D02*
X159512000Y-235966000D01*
X162052000Y-236982000D02*
X162052000Y-235458000D01*
X158242000Y-231648000D02*
X158242000Y-230632000D01*
X162052000Y-235458000D02*
X158242000Y-231648000D01*
X160782000Y-230632000D02*
X160782000Y-232918000D01*
X160782000Y-232918000D02*
X164592000Y-236728000D01*
X164592000Y-236728000D02*
X164592000Y-236982000D01*
X167132000Y-236982000D02*
X167132000Y-235966000D01*
X163322000Y-232156000D02*
X163322000Y-230632000D01*
X167132000Y-235966000D02*
X163322000Y-232156000D01*
X165862000Y-230632000D02*
X165862000Y-232156000D01*
X169672000Y-235966000D02*
X169672000Y-236982000D01*
X165862000Y-232156000D02*
X169672000Y-235966000D01*
X173482000Y-230632000D02*
X173482000Y-232664000D01*
X172212000Y-233934000D02*
X172212000Y-236982000D01*
X173482000Y-232664000D02*
X172212000Y-233934000D01*
X176022000Y-230632000D02*
X176022000Y-232664000D01*
X174752000Y-233934000D02*
X174752000Y-236982000D01*
X176022000Y-232664000D02*
X174752000Y-233934000D01*
X178562000Y-230632000D02*
X178562000Y-232664000D01*
X177292000Y-233934000D02*
X177292000Y-236982000D01*
X178562000Y-232664000D02*
X177292000Y-233934000D01*
X181102000Y-230632000D02*
X181102000Y-232918000D01*
X179832000Y-234188000D02*
X179832000Y-236982000D01*
X181102000Y-232918000D02*
X179832000Y-234188000D01*
X186182000Y-230632000D02*
X186182000Y-231140000D01*
X186182000Y-231140000D02*
X182372000Y-234950000D01*
X182372000Y-234950000D02*
X182372000Y-236982000D01*
D32*
X186182000Y-230632000D02*
X186085480Y-230632000D01*
D31*
X188722000Y-230632000D02*
X188722000Y-231648000D01*
X184912000Y-235458000D02*
X184912000Y-236982000D01*
X188722000Y-231648000D02*
X184912000Y-235458000D01*
D32*
X188722000Y-230632000D02*
X188722000Y-231013000D01*
D31*
X191262000Y-230632000D02*
X191262000Y-232664000D01*
X191262000Y-232664000D02*
X187452000Y-236474000D01*
X187452000Y-236474000D02*
X187452000Y-236982000D01*
X193802000Y-230632000D02*
X193802000Y-233172000D01*
X193802000Y-233172000D02*
X189992000Y-236982000D01*
X154432000Y-200152000D02*
X148082000Y-200152000D01*
X148082000Y-202692000D02*
X154432000Y-202692000D01*
X154432000Y-205232000D02*
X148082000Y-205232000D01*
X148082000Y-207772000D02*
X154432000Y-207772000D01*
D32*
X164886640Y-192539620D02*
X164886640Y-192532000D01*
X164942520Y-192595500D02*
X164886640Y-192539620D01*
X183642000Y-195072000D02*
X183642000Y-192532000D01*
X64262000Y-225552000D02*
X64404240Y-225552000D01*
X64404240Y-225552000D02*
X68834000Y-221122240D01*
X68834000Y-221122240D02*
X68834000Y-194020440D01*
X68834000Y-194020440D02*
X70322440Y-192532000D01*
X70322440Y-192532000D02*
X71882000Y-192532000D01*
X183642000Y-192532000D02*
X164886640Y-192532000D01*
X164886640Y-192532000D02*
X148082000Y-192532000D01*
X148082000Y-192532000D02*
X107442000Y-192532000D01*
X71882000Y-192532000D02*
X107442000Y-192532000D01*
X176972000Y-153162000D02*
X182372000Y-153162000D01*
X176972000Y-153162000D02*
X177292000Y-153162000D01*
X177292000Y-153162000D02*
X178587400Y-151866600D01*
X74803000Y-150622000D02*
X76962000Y-150622000D01*
X71589900Y-147408900D02*
X74803000Y-150622000D01*
X71589900Y-120878600D02*
X71589900Y-147408900D01*
X74993500Y-117475000D02*
X71589900Y-120878600D01*
X127393700Y-117475000D02*
X74993500Y-117475000D01*
X131711700Y-113157000D02*
X127393700Y-117475000D01*
X158127700Y-113157000D02*
X131711700Y-113157000D01*
X179006500Y-134035800D02*
X158127700Y-113157000D01*
X179006500Y-144399000D02*
X179006500Y-134035800D01*
X179120800Y-144513300D02*
X179006500Y-144399000D01*
D31*
X198882000Y-84582000D02*
X201079100Y-84582000D01*
X203619100Y-82042000D02*
X206502000Y-82042000D01*
X201079100Y-84582000D02*
X203619100Y-82042000D01*
X198882000Y-87122000D02*
X201002900Y-87122000D01*
X203542900Y-84582000D02*
X206502000Y-84582000D01*
X201002900Y-87122000D02*
X203542900Y-84582000D01*
X198882000Y-89662000D02*
X201345800Y-89662000D01*
X203885800Y-87122000D02*
X206502000Y-87122000D01*
X201345800Y-89662000D02*
X203885800Y-87122000D01*
X198882000Y-92202000D02*
X202018900Y-92202000D01*
X204558900Y-89662000D02*
X206502000Y-89662000D01*
X202018900Y-92202000D02*
X204558900Y-89662000D01*
X221742000Y-107442000D02*
X223596200Y-107442000D01*
X223596200Y-107442000D02*
X231216200Y-99822000D01*
X231216200Y-99822000D02*
X231902000Y-99822000D01*
X221742000Y-109982000D02*
X223342200Y-109982000D01*
X230962200Y-102362000D02*
X231902000Y-102362000D01*
X223342200Y-109982000D02*
X230962200Y-102362000D01*
D35*
G36*
X156771341Y-52296987D02*
X156159804Y-52705604D01*
X155751187Y-53317141D01*
X155607700Y-54038500D01*
X155751187Y-54759859D01*
X156159804Y-55371396D01*
X156223304Y-55434897D01*
X156421200Y-55567127D01*
X156421200Y-58866200D01*
X156507597Y-59300546D01*
X156688977Y-59572000D01*
X156753634Y-59668766D01*
X161956868Y-64872000D01*
X160249434Y-66579434D01*
X160003397Y-66947654D01*
X159917000Y-67382000D01*
X159917000Y-68207000D01*
X159702500Y-68207000D01*
X159268154Y-68293397D01*
X158933509Y-68517000D01*
X158899934Y-68539434D01*
X157261634Y-70177734D01*
X157015597Y-70545954D01*
X156929200Y-70980300D01*
X156929200Y-82423000D01*
X151443500Y-82423000D01*
X151443500Y-68999105D01*
X151443501Y-68999100D01*
X151376133Y-68660425D01*
X151329538Y-68590690D01*
X151184290Y-68373310D01*
X151184287Y-68373308D01*
X149495190Y-66684210D01*
X149208075Y-66492367D01*
X149151884Y-66481190D01*
X148869400Y-66424999D01*
X148869395Y-66425000D01*
X148001432Y-66425000D01*
X147891147Y-66259946D01*
X147561974Y-66040000D01*
X147891147Y-65820054D01*
X148213054Y-65338285D01*
X148326093Y-64770000D01*
X148213054Y-64201715D01*
X147891147Y-63719946D01*
X147561974Y-63500000D01*
X147891147Y-63280054D01*
X148213054Y-62798285D01*
X148326093Y-62230000D01*
X148213054Y-61661715D01*
X147891147Y-61179946D01*
X147849548Y-61152150D01*
X147897317Y-61143162D01*
X148113441Y-61004090D01*
X148258431Y-60791890D01*
X148309440Y-60540000D01*
X148309440Y-58840000D01*
X148265162Y-58604683D01*
X148126090Y-58388559D01*
X147913890Y-58243569D01*
X147662000Y-58192560D01*
X145962000Y-58192560D01*
X145726683Y-58236838D01*
X145510559Y-58375910D01*
X145365569Y-58588110D01*
X145354159Y-58644454D01*
X145351147Y-58639946D01*
X144869378Y-58318039D01*
X144301093Y-58205000D01*
X144242907Y-58205000D01*
X143674622Y-58318039D01*
X143192853Y-58639946D01*
X142870946Y-59121715D01*
X142757907Y-59690000D01*
X142870946Y-60258285D01*
X143192853Y-60740054D01*
X143533553Y-60967702D01*
X143390642Y-61034817D01*
X143000355Y-61463076D01*
X142830524Y-61873110D01*
X142951845Y-62103000D01*
X144145000Y-62103000D01*
X144145000Y-62083000D01*
X144399000Y-62083000D01*
X144399000Y-62103000D01*
X144419000Y-62103000D01*
X144419000Y-62357000D01*
X144399000Y-62357000D01*
X144399000Y-62377000D01*
X144145000Y-62377000D01*
X144145000Y-62357000D01*
X142951845Y-62357000D01*
X142830524Y-62586890D01*
X143000355Y-62996924D01*
X143390642Y-63425183D01*
X143533553Y-63492298D01*
X143192853Y-63719946D01*
X142870946Y-64201715D01*
X142757907Y-64770000D01*
X142870946Y-65338285D01*
X143192853Y-65820054D01*
X143522026Y-66040000D01*
X143192853Y-66259946D01*
X142870946Y-66741715D01*
X142757907Y-67310000D01*
X142870946Y-67878285D01*
X143192853Y-68360054D01*
X143522026Y-68580000D01*
X143192853Y-68799946D01*
X142870946Y-69281715D01*
X142757907Y-69850000D01*
X142870946Y-70418285D01*
X143192853Y-70900054D01*
X143522026Y-71120000D01*
X143192853Y-71339946D01*
X142870946Y-71821715D01*
X142757907Y-72390000D01*
X142870946Y-72958285D01*
X143192853Y-73440054D01*
X143522026Y-73660000D01*
X143192853Y-73879946D01*
X142870946Y-74361715D01*
X142757907Y-74930000D01*
X142870946Y-75498285D01*
X143192853Y-75980054D01*
X143522026Y-76200000D01*
X143192853Y-76419946D01*
X142870946Y-76901715D01*
X142757907Y-77470000D01*
X142870946Y-78038285D01*
X143192853Y-78520054D01*
X143674622Y-78841961D01*
X144242907Y-78955000D01*
X144301093Y-78955000D01*
X144869378Y-78841961D01*
X145351147Y-78520054D01*
X145542000Y-78234422D01*
X145732853Y-78520054D01*
X146214622Y-78841961D01*
X146782907Y-78955000D01*
X146841093Y-78955000D01*
X147409378Y-78841961D01*
X147891147Y-78520054D01*
X148035200Y-78304463D01*
X148035200Y-82423000D01*
X139827000Y-82423000D01*
X139827000Y-52197000D01*
X157274010Y-52197000D01*
X156771341Y-52296987D01*
X156771341Y-52296987D01*
G37*
X156771341Y-52296987D02*
X156159804Y-52705604D01*
X155751187Y-53317141D01*
X155607700Y-54038500D01*
X155751187Y-54759859D01*
X156159804Y-55371396D01*
X156223304Y-55434897D01*
X156421200Y-55567127D01*
X156421200Y-58866200D01*
X156507597Y-59300546D01*
X156688977Y-59572000D01*
X156753634Y-59668766D01*
X161956868Y-64872000D01*
X160249434Y-66579434D01*
X160003397Y-66947654D01*
X159917000Y-67382000D01*
X159917000Y-68207000D01*
X159702500Y-68207000D01*
X159268154Y-68293397D01*
X158933509Y-68517000D01*
X158899934Y-68539434D01*
X157261634Y-70177734D01*
X157015597Y-70545954D01*
X156929200Y-70980300D01*
X156929200Y-82423000D01*
X151443500Y-82423000D01*
X151443500Y-68999105D01*
X151443501Y-68999100D01*
X151376133Y-68660425D01*
X151329538Y-68590690D01*
X151184290Y-68373310D01*
X151184287Y-68373308D01*
X149495190Y-66684210D01*
X149208075Y-66492367D01*
X149151884Y-66481190D01*
X148869400Y-66424999D01*
X148869395Y-66425000D01*
X148001432Y-66425000D01*
X147891147Y-66259946D01*
X147561974Y-66040000D01*
X147891147Y-65820054D01*
X148213054Y-65338285D01*
X148326093Y-64770000D01*
X148213054Y-64201715D01*
X147891147Y-63719946D01*
X147561974Y-63500000D01*
X147891147Y-63280054D01*
X148213054Y-62798285D01*
X148326093Y-62230000D01*
X148213054Y-61661715D01*
X147891147Y-61179946D01*
X147849548Y-61152150D01*
X147897317Y-61143162D01*
X148113441Y-61004090D01*
X148258431Y-60791890D01*
X148309440Y-60540000D01*
X148309440Y-58840000D01*
X148265162Y-58604683D01*
X148126090Y-58388559D01*
X147913890Y-58243569D01*
X147662000Y-58192560D01*
X145962000Y-58192560D01*
X145726683Y-58236838D01*
X145510559Y-58375910D01*
X145365569Y-58588110D01*
X145354159Y-58644454D01*
X145351147Y-58639946D01*
X144869378Y-58318039D01*
X144301093Y-58205000D01*
X144242907Y-58205000D01*
X143674622Y-58318039D01*
X143192853Y-58639946D01*
X142870946Y-59121715D01*
X142757907Y-59690000D01*
X142870946Y-60258285D01*
X143192853Y-60740054D01*
X143533553Y-60967702D01*
X143390642Y-61034817D01*
X143000355Y-61463076D01*
X142830524Y-61873110D01*
X142951845Y-62103000D01*
X144145000Y-62103000D01*
X144145000Y-62083000D01*
X144399000Y-62083000D01*
X144399000Y-62103000D01*
X144419000Y-62103000D01*
X144419000Y-62357000D01*
X144399000Y-62357000D01*
X144399000Y-62377000D01*
X144145000Y-62377000D01*
X144145000Y-62357000D01*
X142951845Y-62357000D01*
X142830524Y-62586890D01*
X143000355Y-62996924D01*
X143390642Y-63425183D01*
X143533553Y-63492298D01*
X143192853Y-63719946D01*
X142870946Y-64201715D01*
X142757907Y-64770000D01*
X142870946Y-65338285D01*
X143192853Y-65820054D01*
X143522026Y-66040000D01*
X143192853Y-66259946D01*
X142870946Y-66741715D01*
X142757907Y-67310000D01*
X142870946Y-67878285D01*
X143192853Y-68360054D01*
X143522026Y-68580000D01*
X143192853Y-68799946D01*
X142870946Y-69281715D01*
X142757907Y-69850000D01*
X142870946Y-70418285D01*
X143192853Y-70900054D01*
X143522026Y-71120000D01*
X143192853Y-71339946D01*
X142870946Y-71821715D01*
X142757907Y-72390000D01*
X142870946Y-72958285D01*
X143192853Y-73440054D01*
X143522026Y-73660000D01*
X143192853Y-73879946D01*
X142870946Y-74361715D01*
X142757907Y-74930000D01*
X142870946Y-75498285D01*
X143192853Y-75980054D01*
X143522026Y-76200000D01*
X143192853Y-76419946D01*
X142870946Y-76901715D01*
X142757907Y-77470000D01*
X142870946Y-78038285D01*
X143192853Y-78520054D01*
X143674622Y-78841961D01*
X144242907Y-78955000D01*
X144301093Y-78955000D01*
X144869378Y-78841961D01*
X145351147Y-78520054D01*
X145542000Y-78234422D01*
X145732853Y-78520054D01*
X146214622Y-78841961D01*
X146782907Y-78955000D01*
X146841093Y-78955000D01*
X147409378Y-78841961D01*
X147891147Y-78520054D01*
X148035200Y-78304463D01*
X148035200Y-82423000D01*
X139827000Y-82423000D01*
X139827000Y-52197000D01*
X157274010Y-52197000D01*
X156771341Y-52296987D01*
G36*
X180213000Y-82423000D02*
X159199200Y-82423000D01*
X159199200Y-71450432D01*
X160172632Y-70477000D01*
X160173614Y-70477000D01*
X160300110Y-70563431D01*
X160552000Y-70614440D01*
X161552000Y-70614440D01*
X161561830Y-70612590D01*
X160476210Y-71698210D01*
X160284367Y-71985325D01*
X160284367Y-71985326D01*
X160216999Y-72324000D01*
X160217000Y-72324005D01*
X160217000Y-73430203D01*
X160155569Y-73520110D01*
X160104560Y-73772000D01*
X160104560Y-75072000D01*
X160148838Y-75307317D01*
X160287910Y-75523441D01*
X160500110Y-75668431D01*
X160752000Y-75719440D01*
X161452000Y-75719440D01*
X161687317Y-75675162D01*
X161903441Y-75536090D01*
X162048431Y-75323890D01*
X162051081Y-75310803D01*
X162187910Y-75523441D01*
X162400110Y-75668431D01*
X162652000Y-75719440D01*
X163352000Y-75719440D01*
X163587317Y-75675162D01*
X163803441Y-75536090D01*
X163948431Y-75323890D01*
X163977164Y-75182000D01*
X167354666Y-75182000D01*
X167368838Y-75257317D01*
X167507910Y-75473441D01*
X167720110Y-75618431D01*
X167972000Y-75669440D01*
X169172000Y-75669440D01*
X169407317Y-75625162D01*
X169623441Y-75486090D01*
X169669969Y-75417994D01*
X169812302Y-75560327D01*
X170045691Y-75657000D01*
X170486250Y-75657000D01*
X170645000Y-75498250D01*
X170645000Y-74549000D01*
X170899000Y-74549000D01*
X170899000Y-75498250D01*
X171057750Y-75657000D01*
X171498309Y-75657000D01*
X171731698Y-75560327D01*
X171910327Y-75381699D01*
X172007000Y-75148310D01*
X172007000Y-74707750D01*
X171848250Y-74549000D01*
X170899000Y-74549000D01*
X170645000Y-74549000D01*
X170625000Y-74549000D01*
X170625000Y-74295000D01*
X170645000Y-74295000D01*
X170645000Y-73345750D01*
X170899000Y-73345750D01*
X170899000Y-74295000D01*
X171848250Y-74295000D01*
X172007000Y-74136250D01*
X172007000Y-73695690D01*
X171910327Y-73462301D01*
X171731698Y-73283673D01*
X171498309Y-73187000D01*
X171057750Y-73187000D01*
X170899000Y-73345750D01*
X170645000Y-73345750D01*
X170486250Y-73187000D01*
X170045691Y-73187000D01*
X169812302Y-73283673D01*
X169671064Y-73424910D01*
X169636090Y-73370559D01*
X169423890Y-73225569D01*
X169172000Y-73174560D01*
X167972000Y-73174560D01*
X167736683Y-73218838D01*
X167520559Y-73357910D01*
X167375569Y-73570110D01*
X167356961Y-73662000D01*
X163978742Y-73662000D01*
X163955162Y-73536683D01*
X163816090Y-73320559D01*
X163603890Y-73175569D01*
X163352000Y-73124560D01*
X162652000Y-73124560D01*
X162416683Y-73168838D01*
X162200559Y-73307910D01*
X162055569Y-73520110D01*
X162052919Y-73533197D01*
X161987000Y-73430756D01*
X161987000Y-72690580D01*
X163677787Y-70999792D01*
X163677790Y-70999790D01*
X163869633Y-70712675D01*
X163914225Y-70488499D01*
X163932095Y-70477000D01*
X165162662Y-70477000D01*
X165458298Y-70599759D01*
X166009285Y-70600240D01*
X166307549Y-70477000D01*
X167793614Y-70477000D01*
X167920110Y-70563431D01*
X168172000Y-70614440D01*
X169172000Y-70614440D01*
X169407317Y-70570162D01*
X169623441Y-70431090D01*
X169669969Y-70362994D01*
X169812302Y-70505327D01*
X170045691Y-70602000D01*
X170386250Y-70602000D01*
X170545000Y-70443250D01*
X170545000Y-69469000D01*
X170799000Y-69469000D01*
X170799000Y-70443250D01*
X170957750Y-70602000D01*
X171298309Y-70602000D01*
X171531698Y-70505327D01*
X171710327Y-70326699D01*
X171807000Y-70093310D01*
X171807000Y-69627750D01*
X171648250Y-69469000D01*
X170799000Y-69469000D01*
X170545000Y-69469000D01*
X170525000Y-69469000D01*
X170525000Y-69215000D01*
X170545000Y-69215000D01*
X170545000Y-68240750D01*
X170799000Y-68240750D01*
X170799000Y-69215000D01*
X171648250Y-69215000D01*
X171807000Y-69056250D01*
X171807000Y-68590690D01*
X171710327Y-68357301D01*
X171531698Y-68178673D01*
X171298309Y-68082000D01*
X170957750Y-68082000D01*
X170799000Y-68240750D01*
X170545000Y-68240750D01*
X170386250Y-68082000D01*
X170045691Y-68082000D01*
X169812302Y-68178673D01*
X169671064Y-68319910D01*
X169636090Y-68265559D01*
X169423890Y-68120569D01*
X169172000Y-68069560D01*
X168172000Y-68069560D01*
X167936683Y-68113838D01*
X167791905Y-68207000D01*
X166997000Y-68207000D01*
X166997000Y-66378844D01*
X167011492Y-66369518D01*
X167052301Y-66410327D01*
X167285690Y-66507000D01*
X167876250Y-66507000D01*
X168035000Y-66348250D01*
X168035000Y-64999000D01*
X168289000Y-64999000D01*
X168289000Y-66348250D01*
X168447750Y-66507000D01*
X169038310Y-66507000D01*
X169271699Y-66410327D01*
X169450327Y-66231698D01*
X169547000Y-65998309D01*
X169547000Y-65157750D01*
X169388250Y-64999000D01*
X168289000Y-64999000D01*
X168035000Y-64999000D01*
X168015000Y-64999000D01*
X168015000Y-64745000D01*
X168035000Y-64745000D01*
X168035000Y-63395750D01*
X168289000Y-63395750D01*
X168289000Y-64745000D01*
X169388250Y-64745000D01*
X169547000Y-64586250D01*
X169547000Y-63745691D01*
X169450327Y-63512302D01*
X169271699Y-63333673D01*
X169038310Y-63237000D01*
X168447750Y-63237000D01*
X168289000Y-63395750D01*
X168035000Y-63395750D01*
X167876250Y-63237000D01*
X167285690Y-63237000D01*
X167052301Y-63333673D01*
X167010340Y-63375634D01*
X166863890Y-63275569D01*
X166612000Y-63224560D01*
X165112000Y-63224560D01*
X164876683Y-63268838D01*
X164710523Y-63375759D01*
X164563890Y-63275569D01*
X164312000Y-63224560D01*
X163519692Y-63224560D01*
X158691200Y-58396068D01*
X158691200Y-57572000D01*
X163314560Y-57572000D01*
X163314560Y-59572000D01*
X163358838Y-59807317D01*
X163497910Y-60023441D01*
X163710110Y-60168431D01*
X163962000Y-60219440D01*
X167762000Y-60219440D01*
X167997317Y-60175162D01*
X168213441Y-60036090D01*
X168358431Y-59823890D01*
X168409440Y-59572000D01*
X168409440Y-57572000D01*
X168365162Y-57336683D01*
X168226090Y-57120559D01*
X168013890Y-56975569D01*
X167762000Y-56924560D01*
X163962000Y-56924560D01*
X163726683Y-56968838D01*
X163510559Y-57107910D01*
X163365569Y-57320110D01*
X163314560Y-57572000D01*
X158691200Y-57572000D01*
X158691200Y-55987000D01*
X180213000Y-55987000D01*
X180213000Y-82423000D01*
X180213000Y-82423000D01*
G37*
X180213000Y-82423000D02*
X159199200Y-82423000D01*
X159199200Y-71450432D01*
X160172632Y-70477000D01*
X160173614Y-70477000D01*
X160300110Y-70563431D01*
X160552000Y-70614440D01*
X161552000Y-70614440D01*
X161561830Y-70612590D01*
X160476210Y-71698210D01*
X160284367Y-71985325D01*
X160284367Y-71985326D01*
X160216999Y-72324000D01*
X160217000Y-72324005D01*
X160217000Y-73430203D01*
X160155569Y-73520110D01*
X160104560Y-73772000D01*
X160104560Y-75072000D01*
X160148838Y-75307317D01*
X160287910Y-75523441D01*
X160500110Y-75668431D01*
X160752000Y-75719440D01*
X161452000Y-75719440D01*
X161687317Y-75675162D01*
X161903441Y-75536090D01*
X162048431Y-75323890D01*
X162051081Y-75310803D01*
X162187910Y-75523441D01*
X162400110Y-75668431D01*
X162652000Y-75719440D01*
X163352000Y-75719440D01*
X163587317Y-75675162D01*
X163803441Y-75536090D01*
X163948431Y-75323890D01*
X163977164Y-75182000D01*
X167354666Y-75182000D01*
X167368838Y-75257317D01*
X167507910Y-75473441D01*
X167720110Y-75618431D01*
X167972000Y-75669440D01*
X169172000Y-75669440D01*
X169407317Y-75625162D01*
X169623441Y-75486090D01*
X169669969Y-75417994D01*
X169812302Y-75560327D01*
X170045691Y-75657000D01*
X170486250Y-75657000D01*
X170645000Y-75498250D01*
X170645000Y-74549000D01*
X170899000Y-74549000D01*
X170899000Y-75498250D01*
X171057750Y-75657000D01*
X171498309Y-75657000D01*
X171731698Y-75560327D01*
X171910327Y-75381699D01*
X172007000Y-75148310D01*
X172007000Y-74707750D01*
X171848250Y-74549000D01*
X170899000Y-74549000D01*
X170645000Y-74549000D01*
X170625000Y-74549000D01*
X170625000Y-74295000D01*
X170645000Y-74295000D01*
X170645000Y-73345750D01*
X170899000Y-73345750D01*
X170899000Y-74295000D01*
X171848250Y-74295000D01*
X172007000Y-74136250D01*
X172007000Y-73695690D01*
X171910327Y-73462301D01*
X171731698Y-73283673D01*
X171498309Y-73187000D01*
X171057750Y-73187000D01*
X170899000Y-73345750D01*
X170645000Y-73345750D01*
X170486250Y-73187000D01*
X170045691Y-73187000D01*
X169812302Y-73283673D01*
X169671064Y-73424910D01*
X169636090Y-73370559D01*
X169423890Y-73225569D01*
X169172000Y-73174560D01*
X167972000Y-73174560D01*
X167736683Y-73218838D01*
X167520559Y-73357910D01*
X167375569Y-73570110D01*
X167356961Y-73662000D01*
X163978742Y-73662000D01*
X163955162Y-73536683D01*
X163816090Y-73320559D01*
X163603890Y-73175569D01*
X163352000Y-73124560D01*
X162652000Y-73124560D01*
X162416683Y-73168838D01*
X162200559Y-73307910D01*
X162055569Y-73520110D01*
X162052919Y-73533197D01*
X161987000Y-73430756D01*
X161987000Y-72690580D01*
X163677787Y-70999792D01*
X163677790Y-70999790D01*
X163869633Y-70712675D01*
X163914225Y-70488499D01*
X163932095Y-70477000D01*
X165162662Y-70477000D01*
X165458298Y-70599759D01*
X166009285Y-70600240D01*
X166307549Y-70477000D01*
X167793614Y-70477000D01*
X167920110Y-70563431D01*
X168172000Y-70614440D01*
X169172000Y-70614440D01*
X169407317Y-70570162D01*
X169623441Y-70431090D01*
X169669969Y-70362994D01*
X169812302Y-70505327D01*
X170045691Y-70602000D01*
X170386250Y-70602000D01*
X170545000Y-70443250D01*
X170545000Y-69469000D01*
X170799000Y-69469000D01*
X170799000Y-70443250D01*
X170957750Y-70602000D01*
X171298309Y-70602000D01*
X171531698Y-70505327D01*
X171710327Y-70326699D01*
X171807000Y-70093310D01*
X171807000Y-69627750D01*
X171648250Y-69469000D01*
X170799000Y-69469000D01*
X170545000Y-69469000D01*
X170525000Y-69469000D01*
X170525000Y-69215000D01*
X170545000Y-69215000D01*
X170545000Y-68240750D01*
X170799000Y-68240750D01*
X170799000Y-69215000D01*
X171648250Y-69215000D01*
X171807000Y-69056250D01*
X171807000Y-68590690D01*
X171710327Y-68357301D01*
X171531698Y-68178673D01*
X171298309Y-68082000D01*
X170957750Y-68082000D01*
X170799000Y-68240750D01*
X170545000Y-68240750D01*
X170386250Y-68082000D01*
X170045691Y-68082000D01*
X169812302Y-68178673D01*
X169671064Y-68319910D01*
X169636090Y-68265559D01*
X169423890Y-68120569D01*
X169172000Y-68069560D01*
X168172000Y-68069560D01*
X167936683Y-68113838D01*
X167791905Y-68207000D01*
X166997000Y-68207000D01*
X166997000Y-66378844D01*
X167011492Y-66369518D01*
X167052301Y-66410327D01*
X167285690Y-66507000D01*
X167876250Y-66507000D01*
X168035000Y-66348250D01*
X168035000Y-64999000D01*
X168289000Y-64999000D01*
X168289000Y-66348250D01*
X168447750Y-66507000D01*
X169038310Y-66507000D01*
X169271699Y-66410327D01*
X169450327Y-66231698D01*
X169547000Y-65998309D01*
X169547000Y-65157750D01*
X169388250Y-64999000D01*
X168289000Y-64999000D01*
X168035000Y-64999000D01*
X168015000Y-64999000D01*
X168015000Y-64745000D01*
X168035000Y-64745000D01*
X168035000Y-63395750D01*
X168289000Y-63395750D01*
X168289000Y-64745000D01*
X169388250Y-64745000D01*
X169547000Y-64586250D01*
X169547000Y-63745691D01*
X169450327Y-63512302D01*
X169271699Y-63333673D01*
X169038310Y-63237000D01*
X168447750Y-63237000D01*
X168289000Y-63395750D01*
X168035000Y-63395750D01*
X167876250Y-63237000D01*
X167285690Y-63237000D01*
X167052301Y-63333673D01*
X167010340Y-63375634D01*
X166863890Y-63275569D01*
X166612000Y-63224560D01*
X165112000Y-63224560D01*
X164876683Y-63268838D01*
X164710523Y-63375759D01*
X164563890Y-63275569D01*
X164312000Y-63224560D01*
X163519692Y-63224560D01*
X158691200Y-58396068D01*
X158691200Y-57572000D01*
X163314560Y-57572000D01*
X163314560Y-59572000D01*
X163358838Y-59807317D01*
X163497910Y-60023441D01*
X163710110Y-60168431D01*
X163962000Y-60219440D01*
X167762000Y-60219440D01*
X167997317Y-60175162D01*
X168213441Y-60036090D01*
X168358431Y-59823890D01*
X168409440Y-59572000D01*
X168409440Y-57572000D01*
X168365162Y-57336683D01*
X168226090Y-57120559D01*
X168013890Y-56975569D01*
X167762000Y-56924560D01*
X163962000Y-56924560D01*
X163726683Y-56968838D01*
X163510559Y-57107910D01*
X163365569Y-57320110D01*
X163314560Y-57572000D01*
X158691200Y-57572000D01*
X158691200Y-55987000D01*
X180213000Y-55987000D01*
X180213000Y-82423000D01*
G36*
X184785000Y-116205000D02*
X162427280Y-116205000D01*
X162179000Y-115956720D01*
X162179000Y-110714775D01*
X165234803Y-110714775D01*
X165407233Y-111132086D01*
X165726235Y-111451645D01*
X166143244Y-111624803D01*
X166594775Y-111625197D01*
X167012086Y-111452767D01*
X167331645Y-111133765D01*
X167504803Y-110716756D01*
X167504899Y-110606680D01*
X167745087Y-110366492D01*
X167745090Y-110366490D01*
X167936933Y-110079375D01*
X167958588Y-109970510D01*
X167998753Y-109768591D01*
X170176900Y-109768591D01*
X170176900Y-110209150D01*
X170335650Y-110367900D01*
X171284900Y-110367900D01*
X171284900Y-109418650D01*
X171538900Y-109418650D01*
X171538900Y-110367900D01*
X172488150Y-110367900D01*
X172646900Y-110209150D01*
X172646900Y-109768591D01*
X172550227Y-109535202D01*
X172371599Y-109356573D01*
X172138210Y-109259900D01*
X171697650Y-109259900D01*
X171538900Y-109418650D01*
X171284900Y-109418650D01*
X171126150Y-109259900D01*
X170685590Y-109259900D01*
X170452201Y-109356573D01*
X170273573Y-109535202D01*
X170176900Y-109768591D01*
X167998753Y-109768591D01*
X168004301Y-109740700D01*
X168004300Y-109740695D01*
X168004300Y-109656279D01*
X168195741Y-109533090D01*
X168340731Y-109320890D01*
X168391740Y-109069000D01*
X168391740Y-108069000D01*
X168347462Y-107833683D01*
X168208390Y-107617559D01*
X168140294Y-107571031D01*
X168282627Y-107428698D01*
X168379300Y-107195309D01*
X168379300Y-106854750D01*
X168220550Y-106696000D01*
X167246300Y-106696000D01*
X167246300Y-106716000D01*
X166992300Y-106716000D01*
X166992300Y-106696000D01*
X166018050Y-106696000D01*
X165859300Y-106854750D01*
X165859300Y-107195309D01*
X165955973Y-107428698D01*
X166097210Y-107569936D01*
X166042859Y-107604910D01*
X165897869Y-107817110D01*
X165846860Y-108069000D01*
X165846860Y-109069000D01*
X165891138Y-109304317D01*
X165970169Y-109427135D01*
X165727914Y-109527233D01*
X165408355Y-109846235D01*
X165235197Y-110263244D01*
X165234803Y-110714775D01*
X162179000Y-110714775D01*
X162179000Y-105942691D01*
X165859300Y-105942691D01*
X165859300Y-106283250D01*
X166018050Y-106442000D01*
X166992300Y-106442000D01*
X166992300Y-105592750D01*
X167246300Y-105592750D01*
X167246300Y-106442000D01*
X168220550Y-106442000D01*
X168343200Y-106319350D01*
X170754400Y-106319350D01*
X170754400Y-106909910D01*
X170851073Y-107143299D01*
X171029702Y-107321927D01*
X171263091Y-107418600D01*
X172103650Y-107418600D01*
X172262400Y-107259850D01*
X172262400Y-106160600D01*
X172516400Y-106160600D01*
X172516400Y-107259850D01*
X172675150Y-107418600D01*
X173515709Y-107418600D01*
X173749098Y-107321927D01*
X173927727Y-107143299D01*
X174024400Y-106909910D01*
X174024400Y-106319350D01*
X173865650Y-106160600D01*
X172516400Y-106160600D01*
X172262400Y-106160600D01*
X170913150Y-106160600D01*
X170754400Y-106319350D01*
X168343200Y-106319350D01*
X168379300Y-106283250D01*
X168379300Y-105942691D01*
X168282627Y-105709302D01*
X168103999Y-105530673D01*
X167870610Y-105434000D01*
X167405050Y-105434000D01*
X167246300Y-105592750D01*
X166992300Y-105592750D01*
X166833550Y-105434000D01*
X166367990Y-105434000D01*
X166134601Y-105530673D01*
X165955973Y-105709302D01*
X165859300Y-105942691D01*
X162179000Y-105942691D01*
X162179000Y-100639733D01*
X163316233Y-101776966D01*
X163539041Y-101925841D01*
X163684454Y-102023003D01*
X164118800Y-102109400D01*
X166483669Y-102109400D01*
X166545100Y-102121840D01*
X167795100Y-102121840D01*
X167861213Y-102109400D01*
X170741960Y-102109400D01*
X170741960Y-102183600D01*
X170786238Y-102418917D01*
X170893159Y-102585077D01*
X170792969Y-102731710D01*
X170741960Y-102983600D01*
X170741960Y-104483600D01*
X170786238Y-104718917D01*
X170891882Y-104883092D01*
X170851073Y-104923901D01*
X170754400Y-105157290D01*
X170754400Y-105747850D01*
X170913150Y-105906600D01*
X172262400Y-105906600D01*
X172262400Y-105886600D01*
X172516400Y-105886600D01*
X172516400Y-105906600D01*
X173865650Y-105906600D01*
X174024400Y-105747850D01*
X174024400Y-105157290D01*
X173927727Y-104923901D01*
X173885766Y-104881940D01*
X173894881Y-104868600D01*
X176479598Y-104868600D01*
X174506699Y-106841499D01*
X174341952Y-107088061D01*
X174284100Y-107378900D01*
X174284100Y-109807858D01*
X174158783Y-109831438D01*
X173942659Y-109970510D01*
X173797669Y-110182710D01*
X173746660Y-110434600D01*
X173746660Y-111134600D01*
X173790938Y-111369917D01*
X173930010Y-111586041D01*
X174142210Y-111731031D01*
X174155297Y-111733681D01*
X173942659Y-111870510D01*
X173905701Y-111924600D01*
X172627296Y-111924600D01*
X172615062Y-111859583D01*
X172475990Y-111643459D01*
X172407894Y-111596931D01*
X172550227Y-111454598D01*
X172646900Y-111221209D01*
X172646900Y-110780650D01*
X172488150Y-110621900D01*
X171538900Y-110621900D01*
X171538900Y-110641900D01*
X171284900Y-110641900D01*
X171284900Y-110621900D01*
X170335650Y-110621900D01*
X170176900Y-110780650D01*
X170176900Y-111221209D01*
X170273573Y-111454598D01*
X170414810Y-111595836D01*
X170360459Y-111630810D01*
X170215469Y-111843010D01*
X170164460Y-112094900D01*
X170164460Y-113294900D01*
X170208738Y-113530217D01*
X170347810Y-113746341D01*
X170560010Y-113891331D01*
X170811900Y-113942340D01*
X172011900Y-113942340D01*
X172247217Y-113898062D01*
X172463341Y-113758990D01*
X172608331Y-113546790D01*
X172629025Y-113444600D01*
X173903343Y-113444600D01*
X173930010Y-113486041D01*
X174142210Y-113631031D01*
X174394100Y-113682040D01*
X175694100Y-113682040D01*
X175929417Y-113637762D01*
X176145541Y-113498690D01*
X176290531Y-113286490D01*
X176341540Y-113034600D01*
X176341540Y-112334600D01*
X176297262Y-112099283D01*
X176158190Y-111883159D01*
X175945990Y-111738169D01*
X175932903Y-111735519D01*
X176145541Y-111598690D01*
X176290531Y-111386490D01*
X176341540Y-111134600D01*
X176341540Y-110434600D01*
X176297262Y-110199283D01*
X176158190Y-109983159D01*
X175945990Y-109838169D01*
X175804100Y-109809436D01*
X175804100Y-107693702D01*
X177336671Y-106161131D01*
X177437510Y-106230031D01*
X177689400Y-106281040D01*
X179689400Y-106281040D01*
X179924717Y-106236762D01*
X180140841Y-106097690D01*
X180285831Y-105885490D01*
X180336840Y-105633600D01*
X180336840Y-101833600D01*
X180292562Y-101598283D01*
X180153490Y-101382159D01*
X179941290Y-101237169D01*
X179824400Y-101213498D01*
X179824400Y-99949400D01*
X179819705Y-99925797D01*
X179738004Y-99515055D01*
X179491967Y-99146834D01*
X179185193Y-98840060D01*
X179185240Y-98785715D01*
X178974831Y-98276485D01*
X178585564Y-97886539D01*
X178076702Y-97675241D01*
X177525715Y-97674760D01*
X177016485Y-97885169D01*
X176811898Y-98089400D01*
X168301944Y-98089400D01*
X168259190Y-98022959D01*
X168046990Y-97877969D01*
X167795100Y-97826960D01*
X166545100Y-97826960D01*
X166309783Y-97871238D01*
X166093659Y-98010310D01*
X165948669Y-98222510D01*
X165897660Y-98474400D01*
X165897660Y-99474400D01*
X165941938Y-99709717D01*
X166025387Y-99839400D01*
X164588933Y-99839400D01*
X162179000Y-97429467D01*
X162179000Y-94869000D01*
X184785000Y-94869000D01*
X184785000Y-116205000D01*
X184785000Y-116205000D01*
G37*
X184785000Y-116205000D02*
X162427280Y-116205000D01*
X162179000Y-115956720D01*
X162179000Y-110714775D01*
X165234803Y-110714775D01*
X165407233Y-111132086D01*
X165726235Y-111451645D01*
X166143244Y-111624803D01*
X166594775Y-111625197D01*
X167012086Y-111452767D01*
X167331645Y-111133765D01*
X167504803Y-110716756D01*
X167504899Y-110606680D01*
X167745087Y-110366492D01*
X167745090Y-110366490D01*
X167936933Y-110079375D01*
X167958588Y-109970510D01*
X167998753Y-109768591D01*
X170176900Y-109768591D01*
X170176900Y-110209150D01*
X170335650Y-110367900D01*
X171284900Y-110367900D01*
X171284900Y-109418650D01*
X171538900Y-109418650D01*
X171538900Y-110367900D01*
X172488150Y-110367900D01*
X172646900Y-110209150D01*
X172646900Y-109768591D01*
X172550227Y-109535202D01*
X172371599Y-109356573D01*
X172138210Y-109259900D01*
X171697650Y-109259900D01*
X171538900Y-109418650D01*
X171284900Y-109418650D01*
X171126150Y-109259900D01*
X170685590Y-109259900D01*
X170452201Y-109356573D01*
X170273573Y-109535202D01*
X170176900Y-109768591D01*
X167998753Y-109768591D01*
X168004301Y-109740700D01*
X168004300Y-109740695D01*
X168004300Y-109656279D01*
X168195741Y-109533090D01*
X168340731Y-109320890D01*
X168391740Y-109069000D01*
X168391740Y-108069000D01*
X168347462Y-107833683D01*
X168208390Y-107617559D01*
X168140294Y-107571031D01*
X168282627Y-107428698D01*
X168379300Y-107195309D01*
X168379300Y-106854750D01*
X168220550Y-106696000D01*
X167246300Y-106696000D01*
X167246300Y-106716000D01*
X166992300Y-106716000D01*
X166992300Y-106696000D01*
X166018050Y-106696000D01*
X165859300Y-106854750D01*
X165859300Y-107195309D01*
X165955973Y-107428698D01*
X166097210Y-107569936D01*
X166042859Y-107604910D01*
X165897869Y-107817110D01*
X165846860Y-108069000D01*
X165846860Y-109069000D01*
X165891138Y-109304317D01*
X165970169Y-109427135D01*
X165727914Y-109527233D01*
X165408355Y-109846235D01*
X165235197Y-110263244D01*
X165234803Y-110714775D01*
X162179000Y-110714775D01*
X162179000Y-105942691D01*
X165859300Y-105942691D01*
X165859300Y-106283250D01*
X166018050Y-106442000D01*
X166992300Y-106442000D01*
X166992300Y-105592750D01*
X167246300Y-105592750D01*
X167246300Y-106442000D01*
X168220550Y-106442000D01*
X168343200Y-106319350D01*
X170754400Y-106319350D01*
X170754400Y-106909910D01*
X170851073Y-107143299D01*
X171029702Y-107321927D01*
X171263091Y-107418600D01*
X172103650Y-107418600D01*
X172262400Y-107259850D01*
X172262400Y-106160600D01*
X172516400Y-106160600D01*
X172516400Y-107259850D01*
X172675150Y-107418600D01*
X173515709Y-107418600D01*
X173749098Y-107321927D01*
X173927727Y-107143299D01*
X174024400Y-106909910D01*
X174024400Y-106319350D01*
X173865650Y-106160600D01*
X172516400Y-106160600D01*
X172262400Y-106160600D01*
X170913150Y-106160600D01*
X170754400Y-106319350D01*
X168343200Y-106319350D01*
X168379300Y-106283250D01*
X168379300Y-105942691D01*
X168282627Y-105709302D01*
X168103999Y-105530673D01*
X167870610Y-105434000D01*
X167405050Y-105434000D01*
X167246300Y-105592750D01*
X166992300Y-105592750D01*
X166833550Y-105434000D01*
X166367990Y-105434000D01*
X166134601Y-105530673D01*
X165955973Y-105709302D01*
X165859300Y-105942691D01*
X162179000Y-105942691D01*
X162179000Y-100639733D01*
X163316233Y-101776966D01*
X163539041Y-101925841D01*
X163684454Y-102023003D01*
X164118800Y-102109400D01*
X166483669Y-102109400D01*
X166545100Y-102121840D01*
X167795100Y-102121840D01*
X167861213Y-102109400D01*
X170741960Y-102109400D01*
X170741960Y-102183600D01*
X170786238Y-102418917D01*
X170893159Y-102585077D01*
X170792969Y-102731710D01*
X170741960Y-102983600D01*
X170741960Y-104483600D01*
X170786238Y-104718917D01*
X170891882Y-104883092D01*
X170851073Y-104923901D01*
X170754400Y-105157290D01*
X170754400Y-105747850D01*
X170913150Y-105906600D01*
X172262400Y-105906600D01*
X172262400Y-105886600D01*
X172516400Y-105886600D01*
X172516400Y-105906600D01*
X173865650Y-105906600D01*
X174024400Y-105747850D01*
X174024400Y-105157290D01*
X173927727Y-104923901D01*
X173885766Y-104881940D01*
X173894881Y-104868600D01*
X176479598Y-104868600D01*
X174506699Y-106841499D01*
X174341952Y-107088061D01*
X174284100Y-107378900D01*
X174284100Y-109807858D01*
X174158783Y-109831438D01*
X173942659Y-109970510D01*
X173797669Y-110182710D01*
X173746660Y-110434600D01*
X173746660Y-111134600D01*
X173790938Y-111369917D01*
X173930010Y-111586041D01*
X174142210Y-111731031D01*
X174155297Y-111733681D01*
X173942659Y-111870510D01*
X173905701Y-111924600D01*
X172627296Y-111924600D01*
X172615062Y-111859583D01*
X172475990Y-111643459D01*
X172407894Y-111596931D01*
X172550227Y-111454598D01*
X172646900Y-111221209D01*
X172646900Y-110780650D01*
X172488150Y-110621900D01*
X171538900Y-110621900D01*
X171538900Y-110641900D01*
X171284900Y-110641900D01*
X171284900Y-110621900D01*
X170335650Y-110621900D01*
X170176900Y-110780650D01*
X170176900Y-111221209D01*
X170273573Y-111454598D01*
X170414810Y-111595836D01*
X170360459Y-111630810D01*
X170215469Y-111843010D01*
X170164460Y-112094900D01*
X170164460Y-113294900D01*
X170208738Y-113530217D01*
X170347810Y-113746341D01*
X170560010Y-113891331D01*
X170811900Y-113942340D01*
X172011900Y-113942340D01*
X172247217Y-113898062D01*
X172463341Y-113758990D01*
X172608331Y-113546790D01*
X172629025Y-113444600D01*
X173903343Y-113444600D01*
X173930010Y-113486041D01*
X174142210Y-113631031D01*
X174394100Y-113682040D01*
X175694100Y-113682040D01*
X175929417Y-113637762D01*
X176145541Y-113498690D01*
X176290531Y-113286490D01*
X176341540Y-113034600D01*
X176341540Y-112334600D01*
X176297262Y-112099283D01*
X176158190Y-111883159D01*
X175945990Y-111738169D01*
X175932903Y-111735519D01*
X176145541Y-111598690D01*
X176290531Y-111386490D01*
X176341540Y-111134600D01*
X176341540Y-110434600D01*
X176297262Y-110199283D01*
X176158190Y-109983159D01*
X175945990Y-109838169D01*
X175804100Y-109809436D01*
X175804100Y-107693702D01*
X177336671Y-106161131D01*
X177437510Y-106230031D01*
X177689400Y-106281040D01*
X179689400Y-106281040D01*
X179924717Y-106236762D01*
X180140841Y-106097690D01*
X180285831Y-105885490D01*
X180336840Y-105633600D01*
X180336840Y-101833600D01*
X180292562Y-101598283D01*
X180153490Y-101382159D01*
X179941290Y-101237169D01*
X179824400Y-101213498D01*
X179824400Y-99949400D01*
X179819705Y-99925797D01*
X179738004Y-99515055D01*
X179491967Y-99146834D01*
X179185193Y-98840060D01*
X179185240Y-98785715D01*
X178974831Y-98276485D01*
X178585564Y-97886539D01*
X178076702Y-97675241D01*
X177525715Y-97674760D01*
X177016485Y-97885169D01*
X176811898Y-98089400D01*
X168301944Y-98089400D01*
X168259190Y-98022959D01*
X168046990Y-97877969D01*
X167795100Y-97826960D01*
X166545100Y-97826960D01*
X166309783Y-97871238D01*
X166093659Y-98010310D01*
X165948669Y-98222510D01*
X165897660Y-98474400D01*
X165897660Y-99474400D01*
X165941938Y-99709717D01*
X166025387Y-99839400D01*
X164588933Y-99839400D01*
X162179000Y-97429467D01*
X162179000Y-94869000D01*
X184785000Y-94869000D01*
X184785000Y-116205000D01*
G36*
X135763000Y-88773000D02*
X67437000Y-88773000D01*
X67437000Y-80518000D01*
X104711500Y-80518000D01*
X104727111Y-80596483D01*
X104726860Y-80676506D01*
X104758225Y-80752906D01*
X104774337Y-80833905D01*
X104818795Y-80900441D01*
X104849186Y-80974468D01*
X104907401Y-81033049D01*
X104953283Y-81101717D01*
X105019819Y-81146175D01*
X105076225Y-81202936D01*
X105152426Y-81234780D01*
X105221095Y-81280663D01*
X105299579Y-81296274D01*
X105373413Y-81327129D01*
X105456000Y-81327388D01*
X105537000Y-81343500D01*
X114935000Y-81343500D01*
X115016000Y-81327388D01*
X115098587Y-81327129D01*
X115172419Y-81296275D01*
X115250905Y-81280663D01*
X115319577Y-81234778D01*
X115395775Y-81202935D01*
X115452178Y-81146177D01*
X115518717Y-81101717D01*
X115564602Y-81033046D01*
X115622814Y-80974467D01*
X115653204Y-80900442D01*
X115697663Y-80833905D01*
X115713775Y-80752904D01*
X115745140Y-80676505D01*
X115744889Y-80596483D01*
X115760500Y-80518000D01*
X115744388Y-80437000D01*
X115744129Y-80354412D01*
X115713274Y-80280579D01*
X115697663Y-80202095D01*
X115651778Y-80133424D01*
X115619935Y-80057225D01*
X110920936Y-73072225D01*
X110808424Y-72960417D01*
X110696775Y-72848065D01*
X110694342Y-72847048D01*
X110692468Y-72845186D01*
X110545745Y-72784950D01*
X110399587Y-72723871D01*
X110396948Y-72723863D01*
X110394506Y-72722860D01*
X110236000Y-72723358D01*
X110077494Y-72722860D01*
X110075052Y-72723863D01*
X110072413Y-72723871D01*
X109926188Y-72784978D01*
X109779532Y-72845186D01*
X109777660Y-72847047D01*
X109775225Y-72848064D01*
X109663496Y-72960496D01*
X109551064Y-73072225D01*
X104852064Y-80057225D01*
X104820220Y-80133426D01*
X104774337Y-80202095D01*
X104758726Y-80280579D01*
X104727871Y-80354413D01*
X104727612Y-80437000D01*
X104711500Y-80518000D01*
X67437000Y-80518000D01*
X67437000Y-54914334D01*
X67476554Y-54814203D01*
X67639611Y-54421519D01*
X67639629Y-54401381D01*
X67647026Y-54382654D01*
X67640016Y-53957575D01*
X67640387Y-53532381D01*
X67632697Y-53513770D01*
X67632365Y-53493637D01*
X67437000Y-53021984D01*
X67437000Y-52197000D01*
X135763000Y-52197000D01*
X135763000Y-88773000D01*
X135763000Y-88773000D01*
G37*
X135763000Y-88773000D02*
X67437000Y-88773000D01*
X67437000Y-80518000D01*
X104711500Y-80518000D01*
X104727111Y-80596483D01*
X104726860Y-80676506D01*
X104758225Y-80752906D01*
X104774337Y-80833905D01*
X104818795Y-80900441D01*
X104849186Y-80974468D01*
X104907401Y-81033049D01*
X104953283Y-81101717D01*
X105019819Y-81146175D01*
X105076225Y-81202936D01*
X105152426Y-81234780D01*
X105221095Y-81280663D01*
X105299579Y-81296274D01*
X105373413Y-81327129D01*
X105456000Y-81327388D01*
X105537000Y-81343500D01*
X114935000Y-81343500D01*
X115016000Y-81327388D01*
X115098587Y-81327129D01*
X115172419Y-81296275D01*
X115250905Y-81280663D01*
X115319577Y-81234778D01*
X115395775Y-81202935D01*
X115452178Y-81146177D01*
X115518717Y-81101717D01*
X115564602Y-81033046D01*
X115622814Y-80974467D01*
X115653204Y-80900442D01*
X115697663Y-80833905D01*
X115713775Y-80752904D01*
X115745140Y-80676505D01*
X115744889Y-80596483D01*
X115760500Y-80518000D01*
X115744388Y-80437000D01*
X115744129Y-80354412D01*
X115713274Y-80280579D01*
X115697663Y-80202095D01*
X115651778Y-80133424D01*
X115619935Y-80057225D01*
X110920936Y-73072225D01*
X110808424Y-72960417D01*
X110696775Y-72848065D01*
X110694342Y-72847048D01*
X110692468Y-72845186D01*
X110545745Y-72784950D01*
X110399587Y-72723871D01*
X110396948Y-72723863D01*
X110394506Y-72722860D01*
X110236000Y-72723358D01*
X110077494Y-72722860D01*
X110075052Y-72723863D01*
X110072413Y-72723871D01*
X109926188Y-72784978D01*
X109779532Y-72845186D01*
X109777660Y-72847047D01*
X109775225Y-72848064D01*
X109663496Y-72960496D01*
X109551064Y-73072225D01*
X104852064Y-80057225D01*
X104820220Y-80133426D01*
X104774337Y-80202095D01*
X104758726Y-80280579D01*
X104727871Y-80354413D01*
X104727612Y-80437000D01*
X104711500Y-80518000D01*
X67437000Y-80518000D01*
X67437000Y-54914334D01*
X67476554Y-54814203D01*
X67639611Y-54421519D01*
X67639629Y-54401381D01*
X67647026Y-54382654D01*
X67640016Y-53957575D01*
X67640387Y-53532381D01*
X67632697Y-53513770D01*
X67632365Y-53493637D01*
X67437000Y-53021984D01*
X67437000Y-52197000D01*
X135763000Y-52197000D01*
X135763000Y-88773000D01*
G36*
X109408473Y-78784476D02*
X109398284Y-78791284D01*
X109141471Y-79175631D01*
X109051290Y-79629000D01*
X109063921Y-79692500D01*
X107087248Y-79692500D01*
X109108886Y-76687363D01*
X109408473Y-78784476D01*
X109408473Y-78784476D01*
G37*
X109408473Y-78784476D02*
X109398284Y-78791284D01*
X109141471Y-79175631D01*
X109051290Y-79629000D01*
X109063921Y-79692500D01*
X107087248Y-79692500D01*
X109108886Y-76687363D01*
X109408473Y-78784476D01*
G36*
X110666796Y-79450559D02*
X110702290Y-79629000D01*
X110689659Y-79692500D01*
X109782341Y-79692500D01*
X109769710Y-79629000D01*
X109805204Y-79450559D01*
X109809128Y-79444687D01*
X109815413Y-79450322D01*
X109884873Y-79474755D01*
X109947517Y-79513452D01*
X109991214Y-79520533D01*
X110031127Y-79539673D01*
X110076444Y-79542143D01*
X110119257Y-79557203D01*
X110192779Y-79553196D01*
X110265463Y-79564974D01*
X110308544Y-79554794D01*
X110352743Y-79557203D01*
X110395553Y-79542144D01*
X110440873Y-79539674D01*
X110507267Y-79507835D01*
X110578924Y-79490902D01*
X110614829Y-79465011D01*
X110656587Y-79450322D01*
X110662872Y-79444687D01*
X110666796Y-79450559D01*
X110666796Y-79450559D01*
G37*
X110666796Y-79450559D02*
X110702290Y-79629000D01*
X110689659Y-79692500D01*
X109782341Y-79692500D01*
X109769710Y-79629000D01*
X109805204Y-79450559D01*
X109809128Y-79444687D01*
X109815413Y-79450322D01*
X109884873Y-79474755D01*
X109947517Y-79513452D01*
X109991214Y-79520533D01*
X110031127Y-79539673D01*
X110076444Y-79542143D01*
X110119257Y-79557203D01*
X110192779Y-79553196D01*
X110265463Y-79564974D01*
X110308544Y-79554794D01*
X110352743Y-79557203D01*
X110395553Y-79542144D01*
X110440873Y-79539674D01*
X110507267Y-79507835D01*
X110578924Y-79490902D01*
X110614829Y-79465011D01*
X110656587Y-79450322D01*
X110662872Y-79444687D01*
X110666796Y-79450559D01*
G36*
X113384752Y-79692500D02*
X111408079Y-79692500D01*
X111420710Y-79629000D01*
X111330529Y-79175631D01*
X111073716Y-78791284D01*
X111063527Y-78784476D01*
X111363114Y-76687363D01*
X113384752Y-79692500D01*
X113384752Y-79692500D01*
G37*
X113384752Y-79692500D02*
X111408079Y-79692500D01*
X111420710Y-79629000D01*
X111330529Y-79175631D01*
X111073716Y-78791284D01*
X111063527Y-78784476D01*
X111363114Y-76687363D01*
X113384752Y-79692500D01*
M02*
