M48
INCH,TZ
T1C0.016
T2C0.028
T3C0.039
T4C0.043
T5C0.177
%
G90
G05
T1
X57115Y-70690
X58660Y-43530
X58835Y-67830
X59200Y-43860
X59300Y-52800
X59593Y-55796
X59699Y-56804
X60300Y-53300
X64005Y-56100
X70310Y-59790
X70520Y-56895
X72424Y-51384
X73755Y-55900
X77900Y-30400
X84320Y-33730
X84355Y-36955
X85805Y-62940
T2
X52330Y-46145
X54045Y-42155
X56530Y-40300
X60815Y-74846
X64790Y-41490
X64938Y-75825
X65500Y-43500
X65807Y-74802
X68883Y-62845
X76869Y-60271
X80000Y-62200
X80751Y-45180
X83541Y-57375
X83972Y-44816
T3
X25300Y-85800
X25300Y-86800
X25300Y-87800
X25300Y-88800
X25300Y-89800
X25300Y-90800
X27300Y-90800
X28300Y-72800
X28300Y-73800
X28300Y-74800
X28300Y-75800
X28300Y-76800
X28300Y-77800
X28300Y-78800
X28300Y-79800
X28300Y-80800
X28300Y-81800
X28300Y-90800
X29300Y-90800
X29300Y-93300
X29300Y-94300
X29300Y-95300
X30300Y-49300
X30300Y-50300
X30300Y-51300
X30300Y-52300
X30300Y-53300
X30300Y-54300
X30300Y-55300
X30300Y-56300
X30300Y-57300
X30300Y-58300
X30300Y-59300
X30300Y-60300
X30300Y-61300
X30300Y-62300
X30300Y-63300
X30300Y-64300
X30300Y-65300
X30300Y-66300
X30300Y-67300
X30300Y-90800
X30300Y-93300
X30300Y-94300
X30300Y-95300
X30800Y-78800
X30800Y-79800
X30800Y-80800
X30800Y-81800
X31300Y-49300
X31300Y-50300
X31300Y-51300
X31300Y-52300
X31300Y-53300
X31300Y-54300
X31300Y-55300
X31300Y-56300
X31300Y-57300
X31300Y-58300
X31300Y-59300
X31300Y-60300
X31300Y-61300
X31300Y-62300
X31300Y-63300
X31300Y-64300
X31300Y-65300
X31300Y-66300
X31300Y-67300
X31300Y-93300
X31300Y-94300
X31300Y-95300
X31800Y-78800
X31800Y-79800
X31800Y-80800
X31800Y-81800
X32300Y-90800
X32300Y-93300
X32300Y-94300
X32300Y-95300
X33300Y-90800
X33300Y-93300
X33300Y-94300
X33300Y-95300
X34300Y-90800
X34300Y-93300
X34300Y-94300
X34300Y-95300
X35300Y-90800
X35300Y-93300
X35300Y-94300
X35300Y-95300
X36300Y-93300
X36300Y-94300
X36300Y-95300
X37300Y-93300
X37300Y-94300
X37300Y-95300
X38300Y-90800
X38300Y-93300
X38300Y-94300
X38300Y-95300
X39300Y-90800
X39300Y-93300
X39300Y-94300
X39300Y-95300
X40300Y-90800
X40300Y-93300
X40300Y-94300
X40300Y-95300
X41300Y-90800
X41300Y-93300
X41300Y-94300
X41300Y-95300
X42300Y-72800
X42300Y-73800
X42300Y-74800
X42300Y-75800
X42300Y-76800
X42300Y-77800
X42300Y-78800
X42300Y-79800
X42300Y-80800
X42300Y-81800
X42300Y-93300
X42300Y-94300
X42300Y-95300
X43300Y-90800
X43300Y-93300
X43300Y-94300
X43300Y-95300
X44300Y-90800
X44300Y-93300
X44300Y-94300
X44300Y-95300
X44800Y-78800
X44800Y-79800
X44800Y-80800
X44800Y-81800
X45300Y-90800
X45800Y-78800
X45800Y-79800
X45800Y-80800
X45800Y-81800
X46300Y-90800
X48300Y-85800
X48300Y-86800
X48300Y-87800
X48300Y-88800
X48300Y-89800
X48300Y-90800
X54300Y-49300
X54300Y-50300
X54300Y-51300
X54300Y-52300
X54300Y-53300
X54300Y-54300
X54300Y-55300
X54300Y-56300
X54300Y-57300
X54300Y-58300
X54300Y-59300
X54300Y-60300
X54300Y-61300
X54300Y-62300
X54300Y-63300
X54300Y-64300
X54300Y-65300
X54300Y-66300
X54300Y-67300
X55300Y-49300
X55300Y-50300
X55300Y-51300
X55300Y-52300
X55300Y-53300
X55300Y-54300
X55300Y-55300
X55300Y-56300
X55300Y-57300
X55300Y-58300
X55300Y-59300
X55300Y-60300
X55300Y-61300
X55300Y-62300
X55300Y-63300
X55300Y-64300
X55300Y-65300
X55300Y-66300
X55300Y-67300
X55300Y-85800
X55300Y-86800
X55300Y-87800
X55300Y-88800
X55300Y-89800
X55300Y-90800
X56800Y-23500
X56800Y-24500
X56800Y-25500
X56800Y-26500
X56800Y-27500
X56800Y-28500
X56800Y-29500
X56800Y-30500
X57300Y-90800
X57800Y-23500
X57800Y-24500
X57800Y-25500
X57800Y-26500
X57800Y-27500
X57800Y-28500
X57800Y-29500
X57800Y-30500
X58300Y-72800
X58300Y-73800
X58300Y-74800
X58300Y-75800
X58300Y-76800
X58300Y-77800
X58300Y-78800
X58300Y-79800
X58300Y-80800
X58300Y-81800
X58300Y-90800
X59300Y-90800
X59800Y-93300
X59800Y-94300
X59800Y-95300
X60300Y-90800
X60800Y-78800
X60800Y-79800
X60800Y-80800
X60800Y-81800
X60800Y-93300
X60800Y-94300
X60800Y-95300
X61800Y-78800
X61800Y-79800
X61800Y-80800
X61800Y-81800
X61800Y-93300
X61800Y-94300
X61800Y-95300
X62300Y-90800
X62800Y-93300
X62800Y-94300
X62800Y-95300
X63300Y-90800
X63800Y-93300
X63800Y-94300
X63800Y-95300
X64300Y-90800
X64800Y-93300
X64800Y-94300
X64800Y-95300
X65300Y-90800
X65800Y-93300
X65800Y-94300
X65800Y-95300
X66800Y-93300
X66800Y-94300
X66800Y-95300
X67800Y-93300
X67800Y-94300
X67800Y-95300
X68300Y-90800
X68800Y-93300
X68800Y-94300
X68800Y-95300
X69300Y-90800
X69800Y-93300
X69800Y-94300
X69800Y-95300
X70300Y-90800
X70800Y-93300
X70800Y-94300
X70800Y-95300
X71300Y-90800
X71800Y-58300
X71800Y-59300
X71800Y-60300
X71800Y-93300
X71800Y-94300
X71800Y-95300
X72300Y-72800
X72300Y-73800
X72300Y-74800
X72300Y-75800
X72300Y-76800
X72300Y-77800
X72300Y-78800
X72300Y-79800
X72300Y-80800
X72300Y-81800
X72800Y-93300
X72800Y-94300
X72800Y-95300
X73300Y-90800
X73800Y-93300
X73800Y-94300
X73800Y-95300
X74300Y-90800
X74800Y-78800
X74800Y-79800
X74800Y-80800
X74800Y-81800
X74800Y-93300
X74800Y-94300
X74800Y-95300
X75300Y-90800
X75800Y-78800
X75800Y-79800
X75800Y-80800
X75800Y-81800
X76300Y-90800
X77300Y-33300
X77300Y-34300
X77300Y-35300
X77300Y-36300
X77300Y-37300
X77300Y-49800
X77300Y-50800
X77300Y-51800
X77300Y-52800
X78300Y-33300
X78300Y-34300
X78300Y-35300
X78300Y-36300
X78300Y-37300
X78300Y-85800
X78300Y-86800
X78300Y-87800
X78300Y-88800
X78300Y-89800
X78300Y-90800
X81300Y-29300
X81300Y-30300
X81300Y-31300
X81300Y-32300
X81300Y-33300
X81300Y-34300
X81300Y-35300
X81300Y-36300
X81300Y-37300
X81300Y-38300
X81300Y-39300
X81300Y-40300
X81300Y-41300
X81300Y-42300
X81300Y-43300
X81300Y-58300
X81300Y-59300
X81300Y-60300
X87300Y-29300
X87300Y-30300
X87300Y-31300
X87300Y-32300
X87300Y-33300
X87300Y-34300
X87300Y-35300
X87300Y-36300
X87300Y-37300
X87300Y-38300
X87300Y-39300
X87300Y-40300
X87300Y-41300
X87300Y-42300
X87300Y-43300
X89800Y-58300
X89800Y-59300
X89800Y-60300
X91300Y-26800
X91300Y-27800
X91300Y-28800
X91300Y-29800
X91300Y-30800
X91300Y-31800
X91300Y-35300
X91300Y-36300
X91300Y-37300
X91300Y-38300
X91300Y-39300
X91300Y-40300
X91300Y-41300
X91300Y-42300
X91300Y-43300
T4
X36703Y-77310
X36725Y-72822
X58500Y-85750
X60800Y-31100
X63600Y-31200
X65250Y-27250
X70000Y-39000
X75230Y-54287
X82200Y-51500
T5
X96044Y-81300
X96044Y-84300
X96044Y-88800
X98800Y-81300
X98800Y-84300
X98800Y-88800
T0
M30
