M48
; DRILL file {KiCad (5.1.0)-1} date 4/2/2019 11:20:40 PM
; FORMAT={-:-/ absolute / inch / decimal}
; #@! TF.CreationDate,2019-04-02T23:20:40-05:00
; #@! TF.GenerationSoftware,Kicad,Pcbnew,(5.1.0)-1
FMAT,2
INCH
T1C0.0157
T2C0.0197
T3C0.0236
T4C0.0315
T5C0.0394
T6C0.1063
T7C0.0354
%
G90
G05
T1
X0.974Y-4.2213
X0.9879Y-3.8331
X0.9879Y-4.1431
X1.0213Y-4.2331
X1.0606Y-4.2371
X1.1669Y-4.2135
X1.2181Y-4.0402
X1.2693Y-4.1308
X1.2732Y-4.1662
X1.2772Y-4.0757
X1.3126Y-4.0914
X1.348Y-3.7095
X1.4071Y-3.9143
X1.415Y-3.6977
X1.4504Y-3.7253
X1.5055Y-4.3316
X1.5213Y-3.7489
X1.5449Y-4.3394
X1.5579Y-4.2031
X1.5921Y-3.8473
X1.6118Y-3.615
X1.6433Y-3.7765
X1.6551Y-4.3709
X1.7772Y-3.3394
X1.7969Y-4.2922
X1.8047Y-3.9615
X1.8126Y-3.3119
X1.8126Y-3.9969
X1.8205Y-3.6938
X1.8244Y-4.2765
X1.8323Y-4.3513
X1.848Y-4.1583
X1.8835Y-3.2568
X1.8992Y-4.1465
X1.9189Y-4.4143
X1.9228Y-4.9891
X1.9268Y-4.7371
X1.9307Y-3.8946
X1.9465Y-4.1387
X1.9937Y-4.1859
X2.037Y-4.6898
X2.037Y-4.867
X2.0646Y-4.3394
X2.0803Y-4.0599
X2.0921Y-4.6977
X2.0963Y-4.5058
X2.1079Y-4.3119
X2.1276Y-4.0166
X2.1354Y-4.8631
X2.167Y-3.9776
X2.177Y-3.8976
X2.1945Y-4.056
X2.1956Y-4.7349
X2.207Y-4.3176
X2.247Y-3.8376
X2.2811Y-4.4891
X2.3047Y-4.5324
X2.327Y-4.0776
X2.437Y-3.8376
X2.497Y-4.0276
X2.517Y-3.8976
X2.5567Y-3.9969
X2.557Y-4.3076
X2.6844Y-3.9891
T2
X0.8937Y-4.3307
X0.8937Y-4.3701
X0.9331Y-4.3307
X0.9331Y-4.3701
X0.9724Y-4.3307
X0.9724Y-4.3701
X1.0118Y-4.3307
X1.0118Y-4.3701
X1.0512Y-4.3307
X1.0512Y-4.3701
X1.0906Y-4.3307
X1.0906Y-4.3701
X1.1299Y-4.3307
X1.1299Y-4.3701
X1.1693Y-4.3307
X1.1693Y-4.3701
X1.2087Y-4.3307
X1.2087Y-4.3701
X1.248Y-4.3307
X1.248Y-4.3701
X1.2874Y-4.3307
X1.2874Y-4.3701
X1.3268Y-4.3307
X1.3268Y-4.3701
X1.3661Y-4.3307
X1.3661Y-4.3701
T3
X1.1827Y-3.3513
X1.6039Y-4.6269
X1.6866Y-4.6977
X1.815Y-3.7765
X2.0252Y-3.3434
T4
X0.8421Y-4.0501
X1.1787Y-3.6544
X1.2457Y-3.6544
X1.3835Y-3.2174
X1.3835Y-3.4379
X1.474Y-3.5639
X1.5252Y-3.1623
X1.7181Y-3.5206
X1.7575Y-4.7528
X1.7677Y-3.1181
X1.8835Y-3.5678
X2.0528Y-3.1702
X2.0567Y-3.241
X2.1354Y-3.5284
X2.3559Y-3.3276
X2.4661Y-3.4339
T5
X1.9843Y-3.6623
X2.0843Y-3.6623
X1.348Y-4.5213
X1.348Y-4.6213
X1.348Y-4.7213
T6
X2.4449Y-4.6063
X2.5567Y-3.6741
X1.1024Y-4.6063
X1.0094Y-3.6741
T7
X1.6945Y-3.3355
X1.8677Y-3.3355
X1.6945Y-3.3355
X1.8677Y-3.3355
T0
M30
