G04 #@! TF.FileFunction,Copper,L1,Top,Signal*
%FSLAX46Y46*%
G04 Gerber Fmt 4.6, Leading zero omitted, Abs format (unit mm)*
G04 Created by KiCad (PCBNEW 4.0.7) date 03/22/19 21:38:20*
%MOMM*%
%LPD*%
G01*
G04 APERTURE LIST*
%ADD10C,0.100000*%
%ADD11R,1.300000X0.700000*%
%ADD12R,1.000000X1.700000*%
%ADD13R,1.000000X1.250000*%
%ADD14R,1.600000X1.000000*%
%ADD15R,1.250000X1.000000*%
%ADD16R,1.000000X1.600000*%
%ADD17R,2.000000X2.000000*%
%ADD18R,0.600000X0.800000*%
%ADD19R,0.800000X0.600000*%
%ADD20R,0.500000X2.300000*%
%ADD21R,2.000000X2.500000*%
%ADD22C,5.400000*%
%ADD23R,1.700000X1.700000*%
%ADD24O,1.700000X1.700000*%
%ADD25R,0.700000X1.300000*%
%ADD26R,1.300000X1.900000*%
%ADD27R,1.060000X0.650000*%
%ADD28R,1.300000X0.250000*%
%ADD29R,0.250000X1.300000*%
%ADD30R,1.220000X0.650000*%
%ADD31R,0.950000X0.550000*%
%ADD32R,0.600000X1.500000*%
%ADD33R,0.250000X0.600000*%
%ADD34R,0.600000X0.250000*%
%ADD35R,1.900000X1.300000*%
%ADD36R,0.850000X0.850000*%
%ADD37O,0.850000X0.850000*%
%ADD38R,0.650000X0.400000*%
%ADD39C,0.800000*%
%ADD40C,0.600000*%
%ADD41C,1.000000*%
%ADD42C,0.250000*%
%ADD43C,0.500000*%
%ADD44C,0.750000*%
%ADD45C,0.254000*%
G04 APERTURE END LIST*
D10*
D11*
X57340000Y-121872000D03*
X57340000Y-119972000D03*
D12*
X34190000Y-99322000D03*
X34190000Y-95722000D03*
X30690000Y-99322000D03*
D13*
X28632000Y-97360000D03*
X26632000Y-97360000D03*
X28632000Y-105234000D03*
X26632000Y-105234000D03*
D14*
X35440000Y-91922000D03*
X35440000Y-88922000D03*
D15*
X30934000Y-103980000D03*
X30934000Y-105980000D03*
D16*
X32140000Y-83622000D03*
X35140000Y-83622000D03*
D15*
X39540000Y-91922000D03*
X39540000Y-93922000D03*
X28440000Y-87022000D03*
X28440000Y-89022000D03*
D14*
X53240000Y-85022000D03*
X53240000Y-88022000D03*
D13*
X52090000Y-114272000D03*
X50090000Y-114272000D03*
D16*
X52990000Y-112072000D03*
X49990000Y-112072000D03*
D15*
X51690000Y-116072000D03*
X51690000Y-118072000D03*
D16*
X56940000Y-82922000D03*
X53940000Y-82922000D03*
D13*
X45202000Y-126332000D03*
X43202000Y-126332000D03*
D15*
X60376000Y-93428000D03*
X60376000Y-95428000D03*
X68250000Y-102826000D03*
X68250000Y-104826000D03*
D13*
X68040000Y-97222000D03*
X66040000Y-97222000D03*
D15*
X56058000Y-106382000D03*
X56058000Y-108382000D03*
X64948000Y-106128000D03*
X64948000Y-108128000D03*
D17*
X37440000Y-86222000D03*
X37440000Y-82222000D03*
D18*
X58190000Y-90622000D03*
X56490000Y-90622000D03*
D19*
X50040000Y-124672000D03*
X50040000Y-126372000D03*
X52840000Y-124172000D03*
X52840000Y-125872000D03*
X55740000Y-123272000D03*
X55740000Y-124972000D03*
D20*
X46840000Y-87322000D03*
X46040000Y-87322000D03*
X45240000Y-87322000D03*
X44440000Y-87322000D03*
X43640000Y-87322000D03*
D21*
X49690000Y-87222000D03*
X49690000Y-81722000D03*
X40790000Y-87222000D03*
X40790000Y-81722000D03*
D22*
X64940000Y-93322000D03*
X62040000Y-117522000D03*
X25640000Y-93322000D03*
X28740000Y-117722000D03*
D23*
X52940000Y-93022000D03*
D24*
X50400000Y-93022000D03*
D25*
X32890000Y-87322000D03*
X30990000Y-87322000D03*
D11*
X36140000Y-95872000D03*
X36140000Y-97772000D03*
D25*
X62090000Y-90622000D03*
X60190000Y-90622000D03*
D11*
X50840000Y-122272000D03*
X50840000Y-120372000D03*
X53990000Y-122166000D03*
X53990000Y-120266000D03*
X49040000Y-100072000D03*
X49040000Y-101972000D03*
X52240000Y-106272000D03*
X52240000Y-104372000D03*
X55550000Y-87968000D03*
X55550000Y-86068000D03*
D25*
X39188000Y-126332000D03*
X41088000Y-126332000D03*
D11*
X48040000Y-122472000D03*
X48040000Y-124372000D03*
D25*
X45188000Y-95906000D03*
X43288000Y-95906000D03*
X43288000Y-93874000D03*
X45188000Y-93874000D03*
X52944000Y-100016000D03*
X51044000Y-100016000D03*
D11*
X56820000Y-93478000D03*
X56820000Y-95378000D03*
D25*
X68184000Y-99762000D03*
X66284000Y-99762000D03*
D26*
X28648000Y-99646000D03*
X23148000Y-99646000D03*
X23148000Y-102846000D03*
X28648000Y-102846000D03*
D27*
X32945000Y-91183000D03*
X32945000Y-90233000D03*
X32945000Y-89283000D03*
X30745000Y-89283000D03*
X30745000Y-91183000D03*
D28*
X35474000Y-101214000D03*
X35474000Y-101714000D03*
X35474000Y-102214000D03*
X35474000Y-102714000D03*
X35474000Y-103214000D03*
X35474000Y-103714000D03*
X35474000Y-104214000D03*
X35474000Y-104714000D03*
X35474000Y-105214000D03*
X35474000Y-105714000D03*
X35474000Y-106214000D03*
X35474000Y-106714000D03*
D29*
X37074000Y-108314000D03*
X37574000Y-108314000D03*
X38074000Y-108314000D03*
X38574000Y-108314000D03*
X39074000Y-108314000D03*
X39574000Y-108314000D03*
X40074000Y-108314000D03*
X40574000Y-108314000D03*
X41074000Y-108314000D03*
X41574000Y-108314000D03*
X42074000Y-108314000D03*
X42574000Y-108314000D03*
D28*
X44174000Y-106714000D03*
X44174000Y-106214000D03*
X44174000Y-105714000D03*
X44174000Y-105214000D03*
X44174000Y-104714000D03*
X44174000Y-104214000D03*
X44174000Y-103714000D03*
X44174000Y-103214000D03*
X44174000Y-102714000D03*
X44174000Y-102214000D03*
X44174000Y-101714000D03*
X44174000Y-101214000D03*
D29*
X42574000Y-99614000D03*
X42074000Y-99614000D03*
X41574000Y-99614000D03*
X41074000Y-99614000D03*
X40574000Y-99614000D03*
X40074000Y-99614000D03*
X39574000Y-99614000D03*
X39074000Y-99614000D03*
X38574000Y-99614000D03*
X38074000Y-99614000D03*
X37574000Y-99614000D03*
X37074000Y-99614000D03*
D30*
X60924000Y-87968000D03*
X60924000Y-87018000D03*
X60924000Y-86068000D03*
X58304000Y-86068000D03*
X58304000Y-87968000D03*
D31*
X54395000Y-118197000D03*
X54395000Y-114447000D03*
X54395000Y-115697000D03*
X54395000Y-116947000D03*
X56545000Y-114447000D03*
X56545000Y-115697000D03*
X56545000Y-116947000D03*
X56545000Y-118197000D03*
D32*
X36895000Y-124172000D03*
X38165000Y-124172000D03*
X39435000Y-124172000D03*
X40705000Y-124172000D03*
X41975000Y-124172000D03*
X43245000Y-124172000D03*
X44515000Y-124172000D03*
X45785000Y-124172000D03*
X45785000Y-114872000D03*
X44515000Y-114872000D03*
X43245000Y-114872000D03*
X41975000Y-114872000D03*
X40705000Y-114872000D03*
X39435000Y-114872000D03*
X38165000Y-114872000D03*
X36895000Y-114872000D03*
D33*
X61646000Y-101794000D03*
X61146000Y-101794000D03*
X60646000Y-101794000D03*
X60146000Y-101794000D03*
X59646000Y-101794000D03*
X59146000Y-101794000D03*
X58646000Y-101794000D03*
X58146000Y-101794000D03*
X57646000Y-101794000D03*
X57146000Y-101794000D03*
X61646000Y-98669000D03*
X61146000Y-98669000D03*
X60646000Y-98669000D03*
X60146000Y-98669000D03*
X59646000Y-98669000D03*
X59146000Y-98669000D03*
X58646000Y-98669000D03*
X58146000Y-98669000D03*
X57646000Y-98669000D03*
X57146000Y-98669000D03*
D34*
X61766000Y-100981500D03*
X61766000Y-100481500D03*
X61766000Y-99981500D03*
X61766000Y-99481500D03*
X57036000Y-100981500D03*
X57036000Y-100481500D03*
X57036000Y-99981500D03*
X57036000Y-99481500D03*
D35*
X58852000Y-106366000D03*
X58852000Y-111866000D03*
X62052000Y-111866000D03*
X62052000Y-106366000D03*
D36*
X24240000Y-110722000D03*
D37*
X24240000Y-109722000D03*
X25240000Y-110722000D03*
X25240000Y-109722000D03*
X26240000Y-110722000D03*
X26240000Y-109722000D03*
X27240000Y-110722000D03*
X27240000Y-109722000D03*
X28240000Y-110722000D03*
X28240000Y-109722000D03*
X29240000Y-110722000D03*
X29240000Y-109722000D03*
X30240000Y-110722000D03*
X30240000Y-109722000D03*
X31240000Y-110722000D03*
X31240000Y-109722000D03*
X32240000Y-110722000D03*
X32240000Y-109722000D03*
X33240000Y-110722000D03*
X33240000Y-109722000D03*
D23*
X34240000Y-119922000D03*
D24*
X34240000Y-117382000D03*
X34240000Y-114842000D03*
D15*
X34540000Y-124122000D03*
X34540000Y-122122000D03*
D38*
X45490000Y-111772000D03*
X45490000Y-110472000D03*
X43590000Y-111122000D03*
X45490000Y-111122000D03*
X43590000Y-110472000D03*
X43590000Y-111772000D03*
D39*
X40740000Y-117522000D03*
X42840000Y-119322000D03*
D40*
X46540000Y-110522000D03*
X29640000Y-107022000D03*
X40640000Y-116322000D03*
X40440000Y-97722000D03*
X46040000Y-101522000D03*
X40940000Y-91822000D03*
X34240000Y-94222000D03*
X48940000Y-120322000D03*
X51740000Y-119122000D03*
X48740000Y-112122000D03*
D39*
X43640000Y-89422000D03*
D40*
X46240000Y-93822000D03*
D41*
X35140000Y-87322000D03*
X29940000Y-92822000D03*
X35140000Y-81722000D03*
D40*
X55768000Y-120266000D03*
D41*
X52240000Y-82322000D03*
X62640000Y-87222000D03*
X54240000Y-89622000D03*
D40*
X39570000Y-106758000D03*
X32440000Y-103522000D03*
X64948000Y-109414000D03*
X56058000Y-109668000D03*
X25092000Y-97360000D03*
X25092000Y-105234000D03*
X59106000Y-103572000D03*
X55042000Y-101032000D03*
X55296000Y-99000000D03*
X57074000Y-97476000D03*
X63932000Y-99000000D03*
X61900000Y-97476000D03*
X63424000Y-102302000D03*
X47840000Y-82722000D03*
D39*
X51440000Y-84922000D03*
D41*
X47840000Y-90622000D03*
X37440000Y-90522000D03*
X44640000Y-120722000D03*
D40*
X42040000Y-111022000D03*
X38140000Y-122622000D03*
X39040000Y-109822000D03*
X48040000Y-125522000D03*
X45840000Y-100622000D03*
X49040000Y-98922000D03*
X68184000Y-101322000D03*
X64940000Y-101522000D03*
X33340000Y-103922000D03*
X38640000Y-95222000D03*
X50640000Y-106322000D03*
D39*
X30040000Y-85122000D03*
D41*
X31640000Y-92822000D03*
D40*
X53140000Y-119322000D03*
X42040000Y-126332000D03*
D41*
X38740000Y-80322000D03*
X52140000Y-80522000D03*
D40*
X46340000Y-95922000D03*
D41*
X59840000Y-84522000D03*
D40*
X46940000Y-105622000D03*
X48840000Y-126722000D03*
X51740000Y-123622000D03*
X48240000Y-105322000D03*
X49440000Y-105122000D03*
X54240000Y-123522000D03*
X46040000Y-84122000D03*
X45140000Y-84822000D03*
X26240000Y-113022000D03*
X45640000Y-109022000D03*
X46340000Y-108622000D03*
X52840000Y-103122000D03*
X52440000Y-110222000D03*
X55740000Y-103022000D03*
X58540000Y-115122000D03*
X53540000Y-109522000D03*
X54040000Y-102022000D03*
X57940000Y-114022000D03*
X26940000Y-107622000D03*
X35740000Y-99422000D03*
X25940000Y-107522000D03*
X36840000Y-94622000D03*
X35940000Y-93922000D03*
X24740000Y-107222000D03*
X41740000Y-95922000D03*
X30940000Y-102622000D03*
X32240000Y-104922000D03*
X32340000Y-105822000D03*
X46742000Y-126332000D03*
D42*
X36140000Y-95872000D02*
X36140000Y-96322000D01*
X34190000Y-97972000D02*
X34190000Y-99322000D01*
X35240000Y-96922000D02*
X34190000Y-97972000D01*
X35540000Y-96922000D02*
X35240000Y-96922000D01*
X36140000Y-96322000D02*
X35540000Y-96922000D01*
X45490000Y-111122000D02*
X45940000Y-111122000D01*
X45940000Y-111122000D02*
X46540000Y-110522000D01*
X30934000Y-105980000D02*
X30682000Y-105980000D01*
X30682000Y-105980000D02*
X29640000Y-107022000D01*
X40705000Y-114872000D02*
X40705000Y-116257000D01*
X40705000Y-116257000D02*
X40640000Y-116322000D01*
X40074000Y-98088000D02*
X40440000Y-97722000D01*
X40074000Y-99614000D02*
X40074000Y-98088000D01*
X45848000Y-101714000D02*
X46040000Y-101522000D01*
X45848000Y-101714000D02*
X44174000Y-101714000D01*
X39540000Y-91922000D02*
X40840000Y-91922000D01*
X40840000Y-91922000D02*
X40940000Y-91822000D01*
X34190000Y-95722000D02*
X34190000Y-94272000D01*
X34190000Y-94272000D02*
X34240000Y-94222000D01*
X50840000Y-120372000D02*
X48990000Y-120372000D01*
X48990000Y-120372000D02*
X48940000Y-120322000D01*
X51690000Y-118072000D02*
X51690000Y-119072000D01*
X51690000Y-119072000D02*
X51740000Y-119122000D01*
X49990000Y-112072000D02*
X48790000Y-112072000D01*
X48790000Y-112072000D02*
X48740000Y-112122000D01*
D43*
X43640000Y-87322000D02*
X43640000Y-89422000D01*
D42*
X43640000Y-87322000D02*
X44440000Y-87322000D01*
X45188000Y-93874000D02*
X46188000Y-93874000D01*
X46188000Y-93874000D02*
X46240000Y-93822000D01*
D43*
X35440000Y-88922000D02*
X35440000Y-87622000D01*
X35440000Y-87622000D02*
X35140000Y-87322000D01*
X28440000Y-89022000D02*
X28440000Y-89622000D01*
X29440000Y-92322000D02*
X29940000Y-92822000D01*
X29440000Y-90622000D02*
X29440000Y-92322000D01*
X28440000Y-89622000D02*
X29440000Y-90622000D01*
X35140000Y-83622000D02*
X35140000Y-81722000D01*
D42*
X53990000Y-120266000D02*
X55768000Y-120266000D01*
X55768000Y-120266000D02*
X57340000Y-119972000D01*
X50090000Y-114272000D02*
X50090000Y-112172000D01*
X50090000Y-112172000D02*
X49990000Y-112072000D01*
X51690000Y-118072000D02*
X52390000Y-118072000D01*
X53515000Y-116947000D02*
X54395000Y-116947000D01*
X52390000Y-118072000D02*
X53515000Y-116947000D01*
D43*
X53240000Y-88022000D02*
X53240000Y-87322000D01*
X54494000Y-86068000D02*
X55550000Y-86068000D01*
X53240000Y-87322000D02*
X54494000Y-86068000D01*
X53940000Y-82922000D02*
X52840000Y-82922000D01*
X52840000Y-82922000D02*
X52240000Y-82322000D01*
X60924000Y-87018000D02*
X62436000Y-87018000D01*
X62436000Y-87018000D02*
X62640000Y-87222000D01*
X53240000Y-89122000D02*
X54240000Y-89622000D01*
X53240000Y-88022000D02*
X53240000Y-89122000D01*
X32945000Y-90233000D02*
X34529000Y-90233000D01*
X34529000Y-90233000D02*
X35440000Y-89322000D01*
X35440000Y-89322000D02*
X35440000Y-88922000D01*
D42*
X39574000Y-108314000D02*
X39574000Y-106762000D01*
X39574000Y-106762000D02*
X39570000Y-106758000D01*
X33474000Y-103214000D02*
X33208000Y-103214000D01*
X33208000Y-103214000D02*
X32440000Y-103522000D01*
X35474000Y-103214000D02*
X33474000Y-103214000D01*
X33474000Y-103214000D02*
X33462000Y-103214000D01*
X64948000Y-108128000D02*
X64948000Y-109414000D01*
X56058000Y-108382000D02*
X56058000Y-109668000D01*
X30934000Y-105980000D02*
X30696000Y-105980000D01*
X26632000Y-97360000D02*
X25092000Y-97360000D01*
X26632000Y-105234000D02*
X25092000Y-105234000D01*
X59646000Y-101794000D02*
X59646000Y-103032000D01*
X59646000Y-103032000D02*
X59106000Y-103572000D01*
X57036000Y-100481500D02*
X55592500Y-100481500D01*
X55592500Y-100481500D02*
X55042000Y-101032000D01*
X57036000Y-99481500D02*
X55777500Y-99481500D01*
X55777500Y-99481500D02*
X55296000Y-99000000D01*
X57146000Y-98669000D02*
X57146000Y-97548000D01*
X57146000Y-97548000D02*
X57074000Y-97476000D01*
X61766000Y-99481500D02*
X63450500Y-99481500D01*
X63450500Y-99481500D02*
X63932000Y-99000000D01*
X61646000Y-98669000D02*
X61646000Y-97730000D01*
X61646000Y-97730000D02*
X61900000Y-97476000D01*
X61766000Y-100981500D02*
X62865500Y-100981500D01*
X63424000Y-101540000D02*
X63424000Y-102302000D01*
X62865500Y-100981500D02*
X63424000Y-101540000D01*
D43*
X53264000Y-88022000D02*
X53240000Y-88022000D01*
D42*
X35474000Y-101214000D02*
X29708000Y-101214000D01*
X29708000Y-101214000D02*
X28648000Y-100154000D01*
X28648000Y-100154000D02*
X28648000Y-99646000D01*
X28632000Y-97360000D02*
X28632000Y-99630000D01*
X28632000Y-99630000D02*
X28648000Y-99646000D01*
X35474000Y-101714000D02*
X29780000Y-101714000D01*
X29780000Y-101714000D02*
X28648000Y-102846000D01*
X28632000Y-105234000D02*
X28632000Y-102862000D01*
X28632000Y-102862000D02*
X28648000Y-102846000D01*
D43*
X53240000Y-85022000D02*
X51540000Y-85022000D01*
X51540000Y-85022000D02*
X51440000Y-84922000D01*
D42*
X56490000Y-90622000D02*
X56490000Y-89972000D01*
X59186000Y-86068000D02*
X58304000Y-86068000D01*
X59640000Y-86522000D02*
X59186000Y-86068000D01*
X59640000Y-88822000D02*
X59640000Y-86522000D01*
X59340000Y-89122000D02*
X59640000Y-88822000D01*
X57340000Y-89122000D02*
X59340000Y-89122000D01*
X56490000Y-89972000D02*
X57340000Y-89122000D01*
D43*
X46840000Y-87322000D02*
X46840000Y-89622000D01*
X46840000Y-89622000D02*
X47840000Y-90622000D01*
X30990000Y-87322000D02*
X30990000Y-86172000D01*
X31540000Y-85622000D02*
X36840000Y-85622000D01*
X30990000Y-86172000D02*
X31540000Y-85622000D01*
X36840000Y-85622000D02*
X37440000Y-86222000D01*
X35440000Y-91922000D02*
X36340000Y-91922000D01*
X37440000Y-90822000D02*
X37440000Y-90522000D01*
X37440000Y-90522000D02*
X37440000Y-86222000D01*
X36340000Y-91922000D02*
X37440000Y-90822000D01*
X35440000Y-91922000D02*
X33684000Y-91922000D01*
X33684000Y-91922000D02*
X32945000Y-91183000D01*
D42*
X32945000Y-91183000D02*
X32001000Y-91183000D01*
X31540000Y-87322000D02*
X30990000Y-87322000D01*
X31940000Y-87722000D02*
X31540000Y-87322000D01*
X31940000Y-91122000D02*
X31940000Y-87722000D01*
X32001000Y-91183000D02*
X31940000Y-91122000D01*
D44*
X53240000Y-85022000D02*
X57860000Y-85010000D01*
X58304000Y-85454000D02*
X58304000Y-86068000D01*
X57860000Y-85010000D02*
X58304000Y-85454000D01*
D42*
X32712000Y-102714000D02*
X32200000Y-102714000D01*
X32200000Y-102714000D02*
X30934000Y-103980000D01*
X32692000Y-102714000D02*
X32712000Y-102714000D01*
X32712000Y-102714000D02*
X35474000Y-102714000D01*
X43590000Y-111122000D02*
X42140000Y-111122000D01*
X42140000Y-111122000D02*
X42040000Y-111022000D01*
X38165000Y-124172000D02*
X38165000Y-122647000D01*
X36340000Y-122622000D02*
X38140000Y-122622000D01*
X36340000Y-122622000D02*
X34840000Y-124122000D01*
X38165000Y-122647000D02*
X38140000Y-122622000D01*
X34540000Y-124122000D02*
X34840000Y-124122000D01*
X39074000Y-109788000D02*
X39040000Y-109822000D01*
X39074000Y-109788000D02*
X39074000Y-108314000D01*
X48040000Y-124372000D02*
X48040000Y-125522000D01*
X45248000Y-101214000D02*
X45840000Y-100622000D01*
X44174000Y-101214000D02*
X45248000Y-101214000D01*
X49040000Y-98922000D02*
X49040000Y-100072000D01*
X61766000Y-100481500D02*
X63899500Y-100481500D01*
X63899500Y-100481500D02*
X64940000Y-101522000D01*
X35474000Y-103714000D02*
X33548000Y-103714000D01*
X33548000Y-103714000D02*
X33340000Y-103922000D01*
X38640000Y-95222000D02*
X39074000Y-95656000D01*
X39074000Y-96332000D02*
X39074000Y-99614000D01*
X39074000Y-96332000D02*
X39074000Y-95656000D01*
X52240000Y-106272000D02*
X50690000Y-106272000D01*
X50690000Y-106272000D02*
X50640000Y-106322000D01*
D43*
X30745000Y-91183000D02*
X30745000Y-91927000D01*
X30745000Y-91927000D02*
X31640000Y-92822000D01*
X28440000Y-87022000D02*
X28440000Y-86722000D01*
X28440000Y-86722000D02*
X30040000Y-85122000D01*
X30040000Y-85122000D02*
X31540000Y-83622000D01*
X31540000Y-83622000D02*
X32140000Y-83622000D01*
D42*
X54395000Y-118197000D02*
X54395000Y-118867000D01*
X53940000Y-119322000D02*
X53140000Y-119322000D01*
X54395000Y-118867000D02*
X53940000Y-119322000D01*
X52990000Y-112072000D02*
X52990000Y-114447000D01*
X54395000Y-114447000D02*
X53090000Y-114447000D01*
X53090000Y-114447000D02*
X52265000Y-114447000D01*
X52265000Y-114447000D02*
X52090000Y-114272000D01*
X68040000Y-97222000D02*
X68040000Y-99618000D01*
X68040000Y-99618000D02*
X68184000Y-99762000D01*
X68184000Y-99762000D02*
X68184000Y-101322000D01*
X68184000Y-101322000D02*
X68184000Y-102760000D01*
X68184000Y-102760000D02*
X68250000Y-102826000D01*
X61146000Y-101794000D02*
X61146000Y-103072000D01*
X67472000Y-102826000D02*
X68250000Y-102826000D01*
X66726000Y-103572000D02*
X67472000Y-102826000D01*
X61646000Y-103572000D02*
X66726000Y-103572000D01*
X61146000Y-103072000D02*
X61646000Y-103572000D01*
X42040000Y-126332000D02*
X41088000Y-126332000D01*
X39574000Y-99614000D02*
X39574000Y-93956000D01*
X39574000Y-93956000D02*
X39540000Y-93922000D01*
X51690000Y-116072000D02*
X52290000Y-116072000D01*
X52290000Y-116072000D02*
X52665000Y-115697000D01*
X52665000Y-115697000D02*
X54395000Y-115697000D01*
D44*
X37440000Y-82222000D02*
X37440000Y-81622000D01*
X37440000Y-81622000D02*
X38740000Y-80322000D01*
X52140000Y-80522000D02*
X52440000Y-80822000D01*
X52440000Y-80822000D02*
X54240000Y-80822000D01*
X54240000Y-80822000D02*
X54740000Y-81322000D01*
X54740000Y-81322000D02*
X55340000Y-81322000D01*
X55340000Y-81322000D02*
X56940000Y-82922000D01*
D42*
X45188000Y-95906000D02*
X46324000Y-95906000D01*
X46324000Y-95906000D02*
X46340000Y-95922000D01*
D43*
X60924000Y-86068000D02*
X60924000Y-85606000D01*
X57540000Y-83522000D02*
X56940000Y-82922000D01*
X58840000Y-83522000D02*
X57540000Y-83522000D01*
X60924000Y-85606000D02*
X59840000Y-84522000D01*
X59840000Y-84522000D02*
X58840000Y-83522000D01*
D42*
X60146000Y-98669000D02*
X60146000Y-96690000D01*
X60376000Y-96460000D02*
X60376000Y-95428000D01*
X60146000Y-96690000D02*
X60376000Y-96460000D01*
X56058000Y-106382000D02*
X58836000Y-106382000D01*
X58836000Y-106382000D02*
X58852000Y-106366000D01*
X60146000Y-101794000D02*
X60146000Y-103802000D01*
X58852000Y-105096000D02*
X58852000Y-106366000D01*
X60146000Y-103802000D02*
X58852000Y-105096000D01*
X62052000Y-106366000D02*
X64710000Y-106366000D01*
X64710000Y-106366000D02*
X64948000Y-106128000D01*
X60646000Y-101794000D02*
X60646000Y-103842000D01*
X62052000Y-105248000D02*
X62052000Y-106366000D01*
X60646000Y-103842000D02*
X62052000Y-105248000D01*
X60190000Y-90622000D02*
X58190000Y-90622000D01*
X50040000Y-124672000D02*
X50040000Y-124422000D01*
X50040000Y-124422000D02*
X50840000Y-123622000D01*
X50840000Y-123622000D02*
X50840000Y-122272000D01*
X50040000Y-126372000D02*
X49190000Y-126372000D01*
X46532000Y-105214000D02*
X44174000Y-105214000D01*
X46940000Y-105622000D02*
X46532000Y-105214000D01*
X49190000Y-126372000D02*
X48840000Y-126722000D01*
X52840000Y-124172000D02*
X52840000Y-123316000D01*
X52840000Y-123316000D02*
X53990000Y-122166000D01*
X53736000Y-122420000D02*
X53990000Y-122166000D01*
X52840000Y-125872000D02*
X52840000Y-125622000D01*
X52840000Y-125622000D02*
X51740000Y-124522000D01*
X51740000Y-124522000D02*
X51740000Y-123622000D01*
X48240000Y-105322000D02*
X47632000Y-104714000D01*
X47632000Y-104714000D02*
X44174000Y-104714000D01*
X55740000Y-123272000D02*
X55940000Y-123272000D01*
X55940000Y-123272000D02*
X57340000Y-121872000D01*
X55740000Y-124972000D02*
X55190000Y-124972000D01*
X48532000Y-104214000D02*
X44174000Y-104214000D01*
X49440000Y-105122000D02*
X48532000Y-104214000D01*
X54240000Y-124022000D02*
X54240000Y-123522000D01*
X55190000Y-124972000D02*
X54240000Y-124022000D01*
X46040000Y-84122000D02*
X46040000Y-87322000D01*
X47840000Y-97922000D02*
X47840000Y-92385602D01*
X47148000Y-102714000D02*
X47840000Y-102022000D01*
X47840000Y-102022000D02*
X47840000Y-97922000D01*
X44174000Y-102714000D02*
X47148000Y-102714000D01*
X46040000Y-90585602D02*
X46040000Y-87322000D01*
X47840000Y-92385602D02*
X46040000Y-90585602D01*
X45240000Y-87322000D02*
X45240000Y-84922000D01*
X45240000Y-84922000D02*
X45140000Y-84822000D01*
X47389998Y-98122000D02*
X47389998Y-92571998D01*
X46948000Y-102214000D02*
X47389998Y-101772002D01*
X47389998Y-101772002D02*
X47389998Y-98122000D01*
X44174000Y-102214000D02*
X46948000Y-102214000D01*
X45240000Y-90422000D02*
X45240000Y-87322000D01*
X47389998Y-92571998D02*
X45240000Y-90422000D01*
X35474000Y-105714000D02*
X34520796Y-105714000D01*
X31240000Y-108994796D02*
X31240000Y-109722000D01*
X34520796Y-105714000D02*
X31240000Y-108994796D01*
X32240000Y-109722000D02*
X32240000Y-108631194D01*
X34657194Y-106214000D02*
X35474000Y-106214000D01*
X32240000Y-108631194D02*
X34657194Y-106214000D01*
X35474000Y-106714000D02*
X34793592Y-106714000D01*
X33240000Y-108267592D02*
X33240000Y-109722000D01*
X34793592Y-106714000D02*
X33240000Y-108267592D01*
X40074000Y-108314000D02*
X40074000Y-110288000D01*
X25240000Y-111422000D02*
X25240000Y-110722000D01*
X26040000Y-112222000D02*
X25240000Y-111422000D01*
X34540000Y-112222000D02*
X26040000Y-112222000D01*
X36040000Y-110722000D02*
X34540000Y-112222000D01*
X39640000Y-110722000D02*
X36040000Y-110722000D01*
X40074000Y-110288000D02*
X39640000Y-110722000D01*
X40574000Y-108314000D02*
X40574000Y-110424398D01*
X26589998Y-112672002D02*
X26240000Y-113022000D01*
X34726396Y-112672002D02*
X26589998Y-112672002D01*
X36226396Y-111172002D02*
X34726396Y-112672002D01*
X39826396Y-111172002D02*
X36226396Y-111172002D01*
X40574000Y-110424398D02*
X39826396Y-111172002D01*
X41074000Y-108314000D02*
X41074000Y-110560796D01*
X24240000Y-112722000D02*
X24240000Y-110722000D01*
X25440000Y-113922000D02*
X24240000Y-112722000D01*
X26740000Y-113922000D02*
X25440000Y-113922000D01*
X27539996Y-113122004D02*
X26740000Y-113922000D01*
X34912792Y-113122004D02*
X27539996Y-113122004D01*
X36412792Y-111622004D02*
X34912792Y-113122004D01*
X40012792Y-111622004D02*
X36412792Y-111622004D01*
X41074000Y-110560796D02*
X40012792Y-111622004D01*
X44174000Y-106714000D02*
X45332000Y-106714000D01*
X45640000Y-107022000D02*
X45640000Y-109022000D01*
X45332000Y-106714000D02*
X45640000Y-107022000D01*
X44174000Y-106214000D02*
X45468398Y-106214000D01*
X46090002Y-108372002D02*
X46340000Y-108622000D01*
X46090002Y-106835604D02*
X46090002Y-108372002D01*
X45468398Y-106214000D02*
X46090002Y-106835604D01*
X38165000Y-114872000D02*
X38165000Y-113897000D01*
X49040000Y-110222000D02*
X52440000Y-110222000D01*
X45940000Y-113322000D02*
X49040000Y-110222000D01*
X38740000Y-113322000D02*
X45940000Y-113322000D01*
X38165000Y-113897000D02*
X38740000Y-113322000D01*
X52840000Y-103122000D02*
X52840000Y-103064000D01*
X52840000Y-103064000D02*
X52840000Y-103122000D01*
X52840000Y-103122000D02*
X52840000Y-103064000D01*
X56545000Y-115697000D02*
X57965000Y-115697000D01*
X55740000Y-103022000D02*
X55740000Y-103064000D01*
X57965000Y-115697000D02*
X58540000Y-115122000D01*
X50074000Y-103714000D02*
X50648000Y-103714000D01*
X44174000Y-103714000D02*
X50074000Y-103714000D01*
X51298000Y-103064000D02*
X52248000Y-103064000D01*
X50648000Y-103714000D02*
X51298000Y-103064000D01*
X52240000Y-104372000D02*
X52248000Y-103064000D01*
X55296000Y-103064000D02*
X52840000Y-103064000D01*
X52840000Y-103064000D02*
X52248000Y-103064000D01*
X57146000Y-102484000D02*
X56566000Y-103064000D01*
X57146000Y-101794000D02*
X57146000Y-102484000D01*
X56566000Y-103064000D02*
X55740000Y-103064000D01*
X55740000Y-103064000D02*
X55296000Y-103064000D01*
X36895000Y-114872000D02*
X36895000Y-114067000D01*
X51940000Y-109522000D02*
X53540000Y-109522000D01*
X51690002Y-109771998D02*
X51940000Y-109522000D01*
X48853604Y-109771998D02*
X51690002Y-109771998D01*
X45753604Y-112871998D02*
X48853604Y-109771998D01*
X38090002Y-112871998D02*
X45753604Y-112871998D01*
X36895000Y-114067000D02*
X38090002Y-112871998D01*
X56545000Y-114447000D02*
X57515000Y-114447000D01*
X57515000Y-114447000D02*
X57940000Y-114022000D01*
X54040000Y-102022000D02*
X54040000Y-102048000D01*
X54040000Y-102048000D02*
X54040000Y-102022000D01*
X54040000Y-102022000D02*
X54040000Y-102048000D01*
X50590000Y-102972000D02*
X50440000Y-103122000D01*
X50440000Y-103122000D02*
X48940000Y-103122000D01*
X48940000Y-103122000D02*
X49040000Y-103122000D01*
X49040000Y-103122000D02*
X48940000Y-103122000D01*
X56108500Y-100981500D02*
X55042000Y-102048000D01*
X55042000Y-102048000D02*
X54040000Y-102048000D01*
X54040000Y-102048000D02*
X53518000Y-102048000D01*
X57036000Y-100981500D02*
X56108500Y-100981500D01*
X52502000Y-102048000D02*
X53518000Y-102048000D01*
X51514000Y-102048000D02*
X52502000Y-102048000D01*
X50566000Y-102996000D02*
X50590000Y-102972000D01*
X50590000Y-102972000D02*
X51514000Y-102048000D01*
X48940000Y-103214000D02*
X48940000Y-103122000D01*
X48940000Y-103214000D02*
X44174000Y-103214000D01*
X48940000Y-103122000D02*
X48940000Y-102072000D01*
X48940000Y-102072000D02*
X49040000Y-101972000D01*
X36140000Y-97772000D02*
X36140000Y-99022000D01*
X26240000Y-108322000D02*
X26240000Y-109722000D01*
X26940000Y-107622000D02*
X26240000Y-108322000D01*
X36140000Y-99022000D02*
X35740000Y-99422000D01*
X37574000Y-99614000D02*
X37574000Y-98556000D01*
X37574000Y-98556000D02*
X36790000Y-97772000D01*
X36790000Y-97772000D02*
X36140000Y-97772000D01*
X37440000Y-94922000D02*
X37140000Y-94922000D01*
X38074000Y-96456000D02*
X37440000Y-95822000D01*
X38074000Y-99614000D02*
X38074000Y-96456000D01*
X37440000Y-95822000D02*
X37440000Y-94922000D01*
X25240000Y-108222000D02*
X25240000Y-109722000D01*
X25940000Y-107522000D02*
X25240000Y-108222000D01*
X37140000Y-94922000D02*
X36840000Y-94622000D01*
X24240000Y-109722000D02*
X24240000Y-107722000D01*
X37908199Y-94753801D02*
X37026396Y-93871998D01*
X37908199Y-94753801D02*
X37908199Y-95653801D01*
X35990002Y-93871998D02*
X37026396Y-93871998D01*
X35940000Y-93922000D02*
X35990002Y-93871998D01*
X24240000Y-107722000D02*
X24740000Y-107222000D01*
X38574000Y-99614000D02*
X38574000Y-96319602D01*
X38574000Y-96319602D02*
X37908199Y-95653801D01*
X37908199Y-95653801D02*
X37890002Y-95635604D01*
X32890000Y-87322000D02*
X32890000Y-89228000D01*
X32890000Y-89228000D02*
X32945000Y-89283000D01*
X62090000Y-90622000D02*
X62088000Y-89492000D01*
X60924000Y-88328000D02*
X60924000Y-87968000D01*
X62088000Y-89492000D02*
X60924000Y-88328000D01*
X58304000Y-87968000D02*
X55550000Y-87968000D01*
X36895000Y-124977000D02*
X36895000Y-124172000D01*
X38250000Y-126332000D02*
X36895000Y-124977000D01*
X39188000Y-126332000D02*
X38250000Y-126332000D01*
X48040000Y-122472000D02*
X39690000Y-122472000D01*
X39690000Y-122472000D02*
X39435000Y-122727000D01*
X39435000Y-122727000D02*
X39435000Y-124172000D01*
X43288000Y-95906000D02*
X43288000Y-93874000D01*
X35474000Y-102214000D02*
X31348000Y-102214000D01*
X41756000Y-95906000D02*
X43288000Y-95906000D01*
X41740000Y-95922000D02*
X41756000Y-95906000D01*
X31348000Y-102214000D02*
X30940000Y-102622000D01*
X57036000Y-99981500D02*
X52978500Y-99981500D01*
X52978500Y-99981500D02*
X52944000Y-100016000D01*
X59146000Y-98669000D02*
X59146000Y-96754000D01*
X57770000Y-95378000D02*
X56820000Y-95378000D01*
X59146000Y-96754000D02*
X57770000Y-95378000D01*
X61766000Y-99981500D02*
X66064500Y-99981500D01*
X66064500Y-99981500D02*
X66284000Y-99762000D01*
X35474000Y-104214000D02*
X34048000Y-104214000D01*
X33340000Y-104922000D02*
X32240000Y-104922000D01*
X34048000Y-104214000D02*
X33340000Y-104922000D01*
X35474000Y-104714000D02*
X34248000Y-104714000D01*
X33140000Y-105822000D02*
X32340000Y-105822000D01*
X34248000Y-104714000D02*
X33140000Y-105822000D01*
X35474000Y-105214000D02*
X34384398Y-105214000D01*
X34384398Y-105214000D02*
X30240000Y-109358398D01*
X30240000Y-109358398D02*
X30240000Y-109722000D01*
X44174000Y-105714000D02*
X45604796Y-105714000D01*
X46217204Y-111772000D02*
X45490000Y-111772000D01*
X47240000Y-110749204D02*
X46217204Y-111772000D01*
X47240000Y-107349204D02*
X47240000Y-110749204D01*
X45604796Y-105714000D02*
X47240000Y-107349204D01*
X43202000Y-126332000D02*
X42040000Y-126332000D01*
X45202000Y-126332000D02*
X46742000Y-126332000D01*
X43590000Y-111772000D02*
X42789996Y-111772000D01*
X35240000Y-119922000D02*
X34240000Y-119922000D01*
X36140000Y-119022000D02*
X35240000Y-119922000D01*
X36140000Y-113322000D02*
X36140000Y-119022000D01*
X37040004Y-112421996D02*
X36140000Y-113322000D01*
X42140000Y-112421996D02*
X37040004Y-112421996D01*
X42789996Y-111772000D02*
X42140000Y-112421996D01*
X34540000Y-119602000D02*
X34340000Y-119402000D01*
D45*
G36*
X59021000Y-102741440D02*
X59271000Y-102741440D01*
X59376705Y-102721550D01*
X59386000Y-102725400D01*
X59386000Y-103487198D01*
X58314599Y-104558599D01*
X58149852Y-104805161D01*
X58097458Y-105068560D01*
X57902000Y-105068560D01*
X57666683Y-105112838D01*
X57450559Y-105251910D01*
X57305569Y-105464110D01*
X57273595Y-105622000D01*
X57270279Y-105622000D01*
X57147090Y-105430559D01*
X56934890Y-105285569D01*
X56683000Y-105234560D01*
X55433000Y-105234560D01*
X55197683Y-105278838D01*
X54981559Y-105417910D01*
X54836569Y-105630110D01*
X54785560Y-105882000D01*
X54785560Y-106882000D01*
X54829838Y-107117317D01*
X54968910Y-107333441D01*
X55037006Y-107379969D01*
X54894673Y-107522302D01*
X54798000Y-107755691D01*
X54798000Y-108096250D01*
X54956750Y-108255000D01*
X55931000Y-108255000D01*
X55931000Y-108235000D01*
X56185000Y-108235000D01*
X56185000Y-108255000D01*
X57159250Y-108255000D01*
X57318000Y-108096250D01*
X57318000Y-107755691D01*
X57221327Y-107522302D01*
X57080090Y-107381064D01*
X57134441Y-107346090D01*
X57273890Y-107142000D01*
X57278269Y-107142000D01*
X57298838Y-107251317D01*
X57437910Y-107467441D01*
X57650110Y-107612431D01*
X57902000Y-107663440D01*
X59802000Y-107663440D01*
X60037317Y-107619162D01*
X60253441Y-107480090D01*
X60398431Y-107267890D01*
X60449440Y-107016000D01*
X60449440Y-105716000D01*
X60405162Y-105480683D01*
X60266090Y-105264559D01*
X60053890Y-105119569D01*
X59928604Y-105094198D01*
X60376000Y-104646802D01*
X60851686Y-105122488D01*
X60650559Y-105251910D01*
X60505569Y-105464110D01*
X60454560Y-105716000D01*
X60454560Y-107016000D01*
X60498838Y-107251317D01*
X60637910Y-107467441D01*
X60850110Y-107612431D01*
X61102000Y-107663440D01*
X63002000Y-107663440D01*
X63237317Y-107619162D01*
X63453441Y-107480090D01*
X63598431Y-107267890D01*
X63627164Y-107126000D01*
X63926974Y-107126000D01*
X63784673Y-107268302D01*
X63688000Y-107501691D01*
X63688000Y-107842250D01*
X63846750Y-108001000D01*
X64821000Y-108001000D01*
X64821000Y-107981000D01*
X65075000Y-107981000D01*
X65075000Y-108001000D01*
X66049250Y-108001000D01*
X66208000Y-107842250D01*
X66208000Y-107501691D01*
X66111327Y-107268302D01*
X65970090Y-107127064D01*
X66024441Y-107092090D01*
X66169431Y-106879890D01*
X66220440Y-106628000D01*
X66220440Y-105628000D01*
X66176162Y-105392683D01*
X66037090Y-105176559D01*
X65824890Y-105031569D01*
X65573000Y-104980560D01*
X64323000Y-104980560D01*
X64087683Y-105024838D01*
X63871559Y-105163910D01*
X63726569Y-105376110D01*
X63680015Y-105606000D01*
X63628742Y-105606000D01*
X63605162Y-105480683D01*
X63466090Y-105264559D01*
X63253890Y-105119569D01*
X63002000Y-105068560D01*
X62776307Y-105068560D01*
X62767610Y-105024838D01*
X62754148Y-104957160D01*
X62589401Y-104710599D01*
X62210802Y-104332000D01*
X66726000Y-104332000D01*
X66990000Y-104279487D01*
X66990000Y-104540250D01*
X67148750Y-104699000D01*
X68123000Y-104699000D01*
X68123000Y-104679000D01*
X68377000Y-104679000D01*
X68377000Y-104699000D01*
X68397000Y-104699000D01*
X68397000Y-104953000D01*
X68377000Y-104953000D01*
X68377000Y-104973000D01*
X68123000Y-104973000D01*
X68123000Y-104953000D01*
X67148750Y-104953000D01*
X66990000Y-105111750D01*
X66990000Y-105452309D01*
X67086673Y-105685698D01*
X67265301Y-105864327D01*
X67339352Y-105895000D01*
X66540000Y-105895000D01*
X66490590Y-105905006D01*
X66448965Y-105933447D01*
X66421685Y-105975841D01*
X66413000Y-106022000D01*
X66413000Y-112895000D01*
X63511580Y-112895000D01*
X63598431Y-112767890D01*
X63649440Y-112516000D01*
X63649440Y-111216000D01*
X63605162Y-110980683D01*
X63466090Y-110764559D01*
X63253890Y-110619569D01*
X63002000Y-110568560D01*
X61102000Y-110568560D01*
X60866683Y-110612838D01*
X60650559Y-110751910D01*
X60505569Y-110964110D01*
X60454560Y-111216000D01*
X60454560Y-112516000D01*
X60498838Y-112751317D01*
X60591295Y-112895000D01*
X60311580Y-112895000D01*
X60398431Y-112767890D01*
X60449440Y-112516000D01*
X60449440Y-111216000D01*
X60405162Y-110980683D01*
X60266090Y-110764559D01*
X60053890Y-110619569D01*
X59802000Y-110568560D01*
X57902000Y-110568560D01*
X57666683Y-110612838D01*
X57450559Y-110751910D01*
X57305569Y-110964110D01*
X57254560Y-111216000D01*
X57254560Y-112516000D01*
X57298838Y-112751317D01*
X57391295Y-112895000D01*
X54467000Y-112895000D01*
X54467000Y-109727675D01*
X54474838Y-109708799D01*
X54475162Y-109336833D01*
X54467000Y-109317079D01*
X54467000Y-108667750D01*
X54798000Y-108667750D01*
X54798000Y-109008309D01*
X54894673Y-109241698D01*
X55073301Y-109420327D01*
X55306690Y-109517000D01*
X55772250Y-109517000D01*
X55931000Y-109358250D01*
X55931000Y-108509000D01*
X56185000Y-108509000D01*
X56185000Y-109358250D01*
X56343750Y-109517000D01*
X56809310Y-109517000D01*
X57042699Y-109420327D01*
X57221327Y-109241698D01*
X57318000Y-109008309D01*
X57318000Y-108667750D01*
X57159250Y-108509000D01*
X56185000Y-108509000D01*
X55931000Y-108509000D01*
X54956750Y-108509000D01*
X54798000Y-108667750D01*
X54467000Y-108667750D01*
X54467000Y-108413750D01*
X63688000Y-108413750D01*
X63688000Y-108754309D01*
X63784673Y-108987698D01*
X63963301Y-109166327D01*
X64196690Y-109263000D01*
X64662250Y-109263000D01*
X64821000Y-109104250D01*
X64821000Y-108255000D01*
X65075000Y-108255000D01*
X65075000Y-109104250D01*
X65233750Y-109263000D01*
X65699310Y-109263000D01*
X65932699Y-109166327D01*
X66111327Y-108987698D01*
X66208000Y-108754309D01*
X66208000Y-108413750D01*
X66049250Y-108255000D01*
X65075000Y-108255000D01*
X64821000Y-108255000D01*
X63846750Y-108255000D01*
X63688000Y-108413750D01*
X54467000Y-108413750D01*
X54467000Y-107422000D01*
X54456994Y-107372590D01*
X54428553Y-107330965D01*
X54386159Y-107303685D01*
X54340000Y-107295000D01*
X50467000Y-107295000D01*
X50467000Y-107256850D01*
X50825167Y-107257162D01*
X51168943Y-107115117D01*
X51176242Y-107107831D01*
X51338110Y-107218431D01*
X51590000Y-107269440D01*
X52890000Y-107269440D01*
X53125317Y-107225162D01*
X53341441Y-107086090D01*
X53486431Y-106873890D01*
X53537440Y-106622000D01*
X53537440Y-105922000D01*
X53493162Y-105686683D01*
X53354090Y-105470559D01*
X53141890Y-105325569D01*
X53128803Y-105322919D01*
X53341441Y-105186090D01*
X53486431Y-104973890D01*
X53537440Y-104722000D01*
X53537440Y-104022000D01*
X53500184Y-103824000D01*
X55233293Y-103824000D01*
X55553201Y-103956838D01*
X55925167Y-103957162D01*
X56247444Y-103824000D01*
X56566000Y-103824000D01*
X56856839Y-103766148D01*
X57103401Y-103601401D01*
X57683401Y-103021401D01*
X57848148Y-102774839D01*
X57858050Y-102725060D01*
X57900589Y-102717056D01*
X58021000Y-102741440D01*
X58271000Y-102741440D01*
X58400589Y-102717056D01*
X58521000Y-102741440D01*
X58771000Y-102741440D01*
X58900589Y-102717056D01*
X59021000Y-102741440D01*
X59021000Y-102741440D01*
G37*
X59021000Y-102741440D02*
X59271000Y-102741440D01*
X59376705Y-102721550D01*
X59386000Y-102725400D01*
X59386000Y-103487198D01*
X58314599Y-104558599D01*
X58149852Y-104805161D01*
X58097458Y-105068560D01*
X57902000Y-105068560D01*
X57666683Y-105112838D01*
X57450559Y-105251910D01*
X57305569Y-105464110D01*
X57273595Y-105622000D01*
X57270279Y-105622000D01*
X57147090Y-105430559D01*
X56934890Y-105285569D01*
X56683000Y-105234560D01*
X55433000Y-105234560D01*
X55197683Y-105278838D01*
X54981559Y-105417910D01*
X54836569Y-105630110D01*
X54785560Y-105882000D01*
X54785560Y-106882000D01*
X54829838Y-107117317D01*
X54968910Y-107333441D01*
X55037006Y-107379969D01*
X54894673Y-107522302D01*
X54798000Y-107755691D01*
X54798000Y-108096250D01*
X54956750Y-108255000D01*
X55931000Y-108255000D01*
X55931000Y-108235000D01*
X56185000Y-108235000D01*
X56185000Y-108255000D01*
X57159250Y-108255000D01*
X57318000Y-108096250D01*
X57318000Y-107755691D01*
X57221327Y-107522302D01*
X57080090Y-107381064D01*
X57134441Y-107346090D01*
X57273890Y-107142000D01*
X57278269Y-107142000D01*
X57298838Y-107251317D01*
X57437910Y-107467441D01*
X57650110Y-107612431D01*
X57902000Y-107663440D01*
X59802000Y-107663440D01*
X60037317Y-107619162D01*
X60253441Y-107480090D01*
X60398431Y-107267890D01*
X60449440Y-107016000D01*
X60449440Y-105716000D01*
X60405162Y-105480683D01*
X60266090Y-105264559D01*
X60053890Y-105119569D01*
X59928604Y-105094198D01*
X60376000Y-104646802D01*
X60851686Y-105122488D01*
X60650559Y-105251910D01*
X60505569Y-105464110D01*
X60454560Y-105716000D01*
X60454560Y-107016000D01*
X60498838Y-107251317D01*
X60637910Y-107467441D01*
X60850110Y-107612431D01*
X61102000Y-107663440D01*
X63002000Y-107663440D01*
X63237317Y-107619162D01*
X63453441Y-107480090D01*
X63598431Y-107267890D01*
X63627164Y-107126000D01*
X63926974Y-107126000D01*
X63784673Y-107268302D01*
X63688000Y-107501691D01*
X63688000Y-107842250D01*
X63846750Y-108001000D01*
X64821000Y-108001000D01*
X64821000Y-107981000D01*
X65075000Y-107981000D01*
X65075000Y-108001000D01*
X66049250Y-108001000D01*
X66208000Y-107842250D01*
X66208000Y-107501691D01*
X66111327Y-107268302D01*
X65970090Y-107127064D01*
X66024441Y-107092090D01*
X66169431Y-106879890D01*
X66220440Y-106628000D01*
X66220440Y-105628000D01*
X66176162Y-105392683D01*
X66037090Y-105176559D01*
X65824890Y-105031569D01*
X65573000Y-104980560D01*
X64323000Y-104980560D01*
X64087683Y-105024838D01*
X63871559Y-105163910D01*
X63726569Y-105376110D01*
X63680015Y-105606000D01*
X63628742Y-105606000D01*
X63605162Y-105480683D01*
X63466090Y-105264559D01*
X63253890Y-105119569D01*
X63002000Y-105068560D01*
X62776307Y-105068560D01*
X62767610Y-105024838D01*
X62754148Y-104957160D01*
X62589401Y-104710599D01*
X62210802Y-104332000D01*
X66726000Y-104332000D01*
X66990000Y-104279487D01*
X66990000Y-104540250D01*
X67148750Y-104699000D01*
X68123000Y-104699000D01*
X68123000Y-104679000D01*
X68377000Y-104679000D01*
X68377000Y-104699000D01*
X68397000Y-104699000D01*
X68397000Y-104953000D01*
X68377000Y-104953000D01*
X68377000Y-104973000D01*
X68123000Y-104973000D01*
X68123000Y-104953000D01*
X67148750Y-104953000D01*
X66990000Y-105111750D01*
X66990000Y-105452309D01*
X67086673Y-105685698D01*
X67265301Y-105864327D01*
X67339352Y-105895000D01*
X66540000Y-105895000D01*
X66490590Y-105905006D01*
X66448965Y-105933447D01*
X66421685Y-105975841D01*
X66413000Y-106022000D01*
X66413000Y-112895000D01*
X63511580Y-112895000D01*
X63598431Y-112767890D01*
X63649440Y-112516000D01*
X63649440Y-111216000D01*
X63605162Y-110980683D01*
X63466090Y-110764559D01*
X63253890Y-110619569D01*
X63002000Y-110568560D01*
X61102000Y-110568560D01*
X60866683Y-110612838D01*
X60650559Y-110751910D01*
X60505569Y-110964110D01*
X60454560Y-111216000D01*
X60454560Y-112516000D01*
X60498838Y-112751317D01*
X60591295Y-112895000D01*
X60311580Y-112895000D01*
X60398431Y-112767890D01*
X60449440Y-112516000D01*
X60449440Y-111216000D01*
X60405162Y-110980683D01*
X60266090Y-110764559D01*
X60053890Y-110619569D01*
X59802000Y-110568560D01*
X57902000Y-110568560D01*
X57666683Y-110612838D01*
X57450559Y-110751910D01*
X57305569Y-110964110D01*
X57254560Y-111216000D01*
X57254560Y-112516000D01*
X57298838Y-112751317D01*
X57391295Y-112895000D01*
X54467000Y-112895000D01*
X54467000Y-109727675D01*
X54474838Y-109708799D01*
X54475162Y-109336833D01*
X54467000Y-109317079D01*
X54467000Y-108667750D01*
X54798000Y-108667750D01*
X54798000Y-109008309D01*
X54894673Y-109241698D01*
X55073301Y-109420327D01*
X55306690Y-109517000D01*
X55772250Y-109517000D01*
X55931000Y-109358250D01*
X55931000Y-108509000D01*
X56185000Y-108509000D01*
X56185000Y-109358250D01*
X56343750Y-109517000D01*
X56809310Y-109517000D01*
X57042699Y-109420327D01*
X57221327Y-109241698D01*
X57318000Y-109008309D01*
X57318000Y-108667750D01*
X57159250Y-108509000D01*
X56185000Y-108509000D01*
X55931000Y-108509000D01*
X54956750Y-108509000D01*
X54798000Y-108667750D01*
X54467000Y-108667750D01*
X54467000Y-108413750D01*
X63688000Y-108413750D01*
X63688000Y-108754309D01*
X63784673Y-108987698D01*
X63963301Y-109166327D01*
X64196690Y-109263000D01*
X64662250Y-109263000D01*
X64821000Y-109104250D01*
X64821000Y-108255000D01*
X65075000Y-108255000D01*
X65075000Y-109104250D01*
X65233750Y-109263000D01*
X65699310Y-109263000D01*
X65932699Y-109166327D01*
X66111327Y-108987698D01*
X66208000Y-108754309D01*
X66208000Y-108413750D01*
X66049250Y-108255000D01*
X65075000Y-108255000D01*
X64821000Y-108255000D01*
X63846750Y-108255000D01*
X63688000Y-108413750D01*
X54467000Y-108413750D01*
X54467000Y-107422000D01*
X54456994Y-107372590D01*
X54428553Y-107330965D01*
X54386159Y-107303685D01*
X54340000Y-107295000D01*
X50467000Y-107295000D01*
X50467000Y-107256850D01*
X50825167Y-107257162D01*
X51168943Y-107115117D01*
X51176242Y-107107831D01*
X51338110Y-107218431D01*
X51590000Y-107269440D01*
X52890000Y-107269440D01*
X53125317Y-107225162D01*
X53341441Y-107086090D01*
X53486431Y-106873890D01*
X53537440Y-106622000D01*
X53537440Y-105922000D01*
X53493162Y-105686683D01*
X53354090Y-105470559D01*
X53141890Y-105325569D01*
X53128803Y-105322919D01*
X53341441Y-105186090D01*
X53486431Y-104973890D01*
X53537440Y-104722000D01*
X53537440Y-104022000D01*
X53500184Y-103824000D01*
X55233293Y-103824000D01*
X55553201Y-103956838D01*
X55925167Y-103957162D01*
X56247444Y-103824000D01*
X56566000Y-103824000D01*
X56856839Y-103766148D01*
X57103401Y-103601401D01*
X57683401Y-103021401D01*
X57848148Y-102774839D01*
X57858050Y-102725060D01*
X57900589Y-102717056D01*
X58021000Y-102741440D01*
X58271000Y-102741440D01*
X58400589Y-102717056D01*
X58521000Y-102741440D01*
X58771000Y-102741440D01*
X58900589Y-102717056D01*
X59021000Y-102741440D01*
G36*
X67365107Y-100855976D02*
X67249162Y-101135201D01*
X67248838Y-101507167D01*
X67348817Y-101749135D01*
X67173559Y-101861910D01*
X67028569Y-102074110D01*
X66993042Y-102249549D01*
X66934599Y-102288599D01*
X66411198Y-102812000D01*
X61960802Y-102812000D01*
X61906000Y-102757198D01*
X61906000Y-102716038D01*
X62006317Y-102697162D01*
X62222441Y-102558090D01*
X62367431Y-102345890D01*
X62418440Y-102094000D01*
X62418440Y-101647833D01*
X62425698Y-101644827D01*
X62604327Y-101466199D01*
X62697400Y-101241500D01*
X63584698Y-101241500D01*
X64004878Y-101661680D01*
X64004838Y-101707167D01*
X64146883Y-102050943D01*
X64409673Y-102314192D01*
X64753201Y-102456838D01*
X65125167Y-102457162D01*
X65468943Y-102315117D01*
X65732192Y-102052327D01*
X65874838Y-101708799D01*
X65875162Y-101336833D01*
X65744707Y-101021107D01*
X65934000Y-101059440D01*
X66634000Y-101059440D01*
X66869317Y-101015162D01*
X67085441Y-100876090D01*
X67230431Y-100663890D01*
X67233081Y-100650803D01*
X67365107Y-100855976D01*
X67365107Y-100855976D01*
G37*
X67365107Y-100855976D02*
X67249162Y-101135201D01*
X67248838Y-101507167D01*
X67348817Y-101749135D01*
X67173559Y-101861910D01*
X67028569Y-102074110D01*
X66993042Y-102249549D01*
X66934599Y-102288599D01*
X66411198Y-102812000D01*
X61960802Y-102812000D01*
X61906000Y-102757198D01*
X61906000Y-102716038D01*
X62006317Y-102697162D01*
X62222441Y-102558090D01*
X62367431Y-102345890D01*
X62418440Y-102094000D01*
X62418440Y-101647833D01*
X62425698Y-101644827D01*
X62604327Y-101466199D01*
X62697400Y-101241500D01*
X63584698Y-101241500D01*
X64004878Y-101661680D01*
X64004838Y-101707167D01*
X64146883Y-102050943D01*
X64409673Y-102314192D01*
X64753201Y-102456838D01*
X65125167Y-102457162D01*
X65468943Y-102315117D01*
X65732192Y-102052327D01*
X65874838Y-101708799D01*
X65875162Y-101336833D01*
X65744707Y-101021107D01*
X65934000Y-101059440D01*
X66634000Y-101059440D01*
X66869317Y-101015162D01*
X67085441Y-100876090D01*
X67230431Y-100663890D01*
X67233081Y-100650803D01*
X67365107Y-100855976D01*
G36*
X55631673Y-92768302D02*
X55535000Y-93001691D01*
X55535000Y-93192250D01*
X55693750Y-93351000D01*
X56693000Y-93351000D01*
X56693000Y-93331000D01*
X56947000Y-93331000D01*
X56947000Y-93351000D01*
X57946250Y-93351000D01*
X58105000Y-93192250D01*
X58105000Y-93001691D01*
X58008327Y-92768302D01*
X57889026Y-92649000D01*
X59179247Y-92649000D01*
X59116000Y-92801691D01*
X59116000Y-93142250D01*
X59274750Y-93301000D01*
X60249000Y-93301000D01*
X60249000Y-93281000D01*
X60503000Y-93281000D01*
X60503000Y-93301000D01*
X60523000Y-93301000D01*
X60523000Y-93555000D01*
X60503000Y-93555000D01*
X60503000Y-93575000D01*
X60249000Y-93575000D01*
X60249000Y-93555000D01*
X59274750Y-93555000D01*
X59116000Y-93713750D01*
X59116000Y-94054309D01*
X59212673Y-94287698D01*
X59353910Y-94428936D01*
X59299559Y-94463910D01*
X59154569Y-94676110D01*
X59103560Y-94928000D01*
X59103560Y-95636758D01*
X58307401Y-94840599D01*
X58060839Y-94675852D01*
X57988757Y-94661514D01*
X57934090Y-94576559D01*
X57721890Y-94431569D01*
X57688510Y-94424809D01*
X57829699Y-94366327D01*
X58008327Y-94187698D01*
X58105000Y-93954309D01*
X58105000Y-93763750D01*
X57946250Y-93605000D01*
X56947000Y-93605000D01*
X56947000Y-93625000D01*
X56693000Y-93625000D01*
X56693000Y-93605000D01*
X55693750Y-93605000D01*
X55535000Y-93763750D01*
X55535000Y-93954309D01*
X55631673Y-94187698D01*
X55810301Y-94366327D01*
X55946287Y-94422654D01*
X55934683Y-94424838D01*
X55718559Y-94563910D01*
X55573569Y-94776110D01*
X55522560Y-95028000D01*
X55522560Y-95728000D01*
X55566838Y-95963317D01*
X55705910Y-96179441D01*
X55918110Y-96324431D01*
X56170000Y-96375440D01*
X57470000Y-96375440D01*
X57657380Y-96340182D01*
X58386000Y-97068802D01*
X58386000Y-97744848D01*
X58271000Y-97721560D01*
X58021000Y-97721560D01*
X57891411Y-97745944D01*
X57771000Y-97721560D01*
X57521000Y-97721560D01*
X57415295Y-97741450D01*
X57397309Y-97734000D01*
X57367250Y-97734000D01*
X57346938Y-97754312D01*
X57285683Y-97765838D01*
X57083500Y-97895939D01*
X57083500Y-97892750D01*
X56924750Y-97734000D01*
X56894691Y-97734000D01*
X56661302Y-97830673D01*
X56482673Y-98009301D01*
X56386000Y-98242690D01*
X56386000Y-98383250D01*
X56544750Y-98542000D01*
X56873560Y-98542000D01*
X56873560Y-98796000D01*
X56824750Y-98796000D01*
X56750250Y-98721500D01*
X56609691Y-98721500D01*
X56376302Y-98818173D01*
X56197673Y-98996801D01*
X56104600Y-99221500D01*
X53914250Y-99221500D01*
X53897162Y-99130683D01*
X53758090Y-98914559D01*
X53545890Y-98769569D01*
X53294000Y-98718560D01*
X52594000Y-98718560D01*
X52358683Y-98762838D01*
X52142559Y-98901910D01*
X51997569Y-99114110D01*
X51990809Y-99147490D01*
X51932327Y-99006301D01*
X51753698Y-98827673D01*
X51520309Y-98731000D01*
X51329750Y-98731000D01*
X51171000Y-98889750D01*
X51171000Y-99889000D01*
X51191000Y-99889000D01*
X51191000Y-100143000D01*
X51171000Y-100143000D01*
X51171000Y-101142250D01*
X51329750Y-101301000D01*
X51448645Y-101301000D01*
X51223160Y-101345852D01*
X50976599Y-101510599D01*
X50467000Y-102020198D01*
X50467000Y-101259292D01*
X50567691Y-101301000D01*
X50758250Y-101301000D01*
X50917000Y-101142250D01*
X50917000Y-100143000D01*
X50897000Y-100143000D01*
X50897000Y-99889000D01*
X50917000Y-99889000D01*
X50917000Y-98889750D01*
X50758250Y-98731000D01*
X50567691Y-98731000D01*
X50467000Y-98772708D01*
X50467000Y-95749000D01*
X55240000Y-95749000D01*
X55289410Y-95738994D01*
X55331035Y-95710553D01*
X55358315Y-95668159D01*
X55367000Y-95622000D01*
X55367000Y-92649000D01*
X55750974Y-92649000D01*
X55631673Y-92768302D01*
X55631673Y-92768302D01*
G37*
X55631673Y-92768302D02*
X55535000Y-93001691D01*
X55535000Y-93192250D01*
X55693750Y-93351000D01*
X56693000Y-93351000D01*
X56693000Y-93331000D01*
X56947000Y-93331000D01*
X56947000Y-93351000D01*
X57946250Y-93351000D01*
X58105000Y-93192250D01*
X58105000Y-93001691D01*
X58008327Y-92768302D01*
X57889026Y-92649000D01*
X59179247Y-92649000D01*
X59116000Y-92801691D01*
X59116000Y-93142250D01*
X59274750Y-93301000D01*
X60249000Y-93301000D01*
X60249000Y-93281000D01*
X60503000Y-93281000D01*
X60503000Y-93301000D01*
X60523000Y-93301000D01*
X60523000Y-93555000D01*
X60503000Y-93555000D01*
X60503000Y-93575000D01*
X60249000Y-93575000D01*
X60249000Y-93555000D01*
X59274750Y-93555000D01*
X59116000Y-93713750D01*
X59116000Y-94054309D01*
X59212673Y-94287698D01*
X59353910Y-94428936D01*
X59299559Y-94463910D01*
X59154569Y-94676110D01*
X59103560Y-94928000D01*
X59103560Y-95636758D01*
X58307401Y-94840599D01*
X58060839Y-94675852D01*
X57988757Y-94661514D01*
X57934090Y-94576559D01*
X57721890Y-94431569D01*
X57688510Y-94424809D01*
X57829699Y-94366327D01*
X58008327Y-94187698D01*
X58105000Y-93954309D01*
X58105000Y-93763750D01*
X57946250Y-93605000D01*
X56947000Y-93605000D01*
X56947000Y-93625000D01*
X56693000Y-93625000D01*
X56693000Y-93605000D01*
X55693750Y-93605000D01*
X55535000Y-93763750D01*
X55535000Y-93954309D01*
X55631673Y-94187698D01*
X55810301Y-94366327D01*
X55946287Y-94422654D01*
X55934683Y-94424838D01*
X55718559Y-94563910D01*
X55573569Y-94776110D01*
X55522560Y-95028000D01*
X55522560Y-95728000D01*
X55566838Y-95963317D01*
X55705910Y-96179441D01*
X55918110Y-96324431D01*
X56170000Y-96375440D01*
X57470000Y-96375440D01*
X57657380Y-96340182D01*
X58386000Y-97068802D01*
X58386000Y-97744848D01*
X58271000Y-97721560D01*
X58021000Y-97721560D01*
X57891411Y-97745944D01*
X57771000Y-97721560D01*
X57521000Y-97721560D01*
X57415295Y-97741450D01*
X57397309Y-97734000D01*
X57367250Y-97734000D01*
X57346938Y-97754312D01*
X57285683Y-97765838D01*
X57083500Y-97895939D01*
X57083500Y-97892750D01*
X56924750Y-97734000D01*
X56894691Y-97734000D01*
X56661302Y-97830673D01*
X56482673Y-98009301D01*
X56386000Y-98242690D01*
X56386000Y-98383250D01*
X56544750Y-98542000D01*
X56873560Y-98542000D01*
X56873560Y-98796000D01*
X56824750Y-98796000D01*
X56750250Y-98721500D01*
X56609691Y-98721500D01*
X56376302Y-98818173D01*
X56197673Y-98996801D01*
X56104600Y-99221500D01*
X53914250Y-99221500D01*
X53897162Y-99130683D01*
X53758090Y-98914559D01*
X53545890Y-98769569D01*
X53294000Y-98718560D01*
X52594000Y-98718560D01*
X52358683Y-98762838D01*
X52142559Y-98901910D01*
X51997569Y-99114110D01*
X51990809Y-99147490D01*
X51932327Y-99006301D01*
X51753698Y-98827673D01*
X51520309Y-98731000D01*
X51329750Y-98731000D01*
X51171000Y-98889750D01*
X51171000Y-99889000D01*
X51191000Y-99889000D01*
X51191000Y-100143000D01*
X51171000Y-100143000D01*
X51171000Y-101142250D01*
X51329750Y-101301000D01*
X51448645Y-101301000D01*
X51223160Y-101345852D01*
X50976599Y-101510599D01*
X50467000Y-102020198D01*
X50467000Y-101259292D01*
X50567691Y-101301000D01*
X50758250Y-101301000D01*
X50917000Y-101142250D01*
X50917000Y-100143000D01*
X50897000Y-100143000D01*
X50897000Y-99889000D01*
X50917000Y-99889000D01*
X50917000Y-98889750D01*
X50758250Y-98731000D01*
X50567691Y-98731000D01*
X50467000Y-98772708D01*
X50467000Y-95749000D01*
X55240000Y-95749000D01*
X55289410Y-95738994D01*
X55331035Y-95710553D01*
X55358315Y-95668159D01*
X55367000Y-95622000D01*
X55367000Y-92649000D01*
X55750974Y-92649000D01*
X55631673Y-92768302D01*
G36*
X61113000Y-96722000D02*
X61123006Y-96771410D01*
X61151447Y-96813035D01*
X61193841Y-96840315D01*
X61240000Y-96849000D01*
X64905000Y-96849000D01*
X64905000Y-96936250D01*
X65063750Y-97095000D01*
X65913000Y-97095000D01*
X65913000Y-97075000D01*
X66167000Y-97075000D01*
X66167000Y-97095000D01*
X66187000Y-97095000D01*
X66187000Y-97349000D01*
X66167000Y-97349000D01*
X66167000Y-97369000D01*
X65913000Y-97369000D01*
X65913000Y-97349000D01*
X65063750Y-97349000D01*
X64905000Y-97507750D01*
X64905000Y-97973310D01*
X65001673Y-98206699D01*
X65180302Y-98385327D01*
X65413691Y-98482000D01*
X65754250Y-98482000D01*
X65912998Y-98323252D01*
X65912998Y-98468512D01*
X65698683Y-98508838D01*
X65482559Y-98647910D01*
X65337569Y-98860110D01*
X65286560Y-99112000D01*
X65286560Y-99221500D01*
X62697400Y-99221500D01*
X62604327Y-98996801D01*
X62425698Y-98818173D01*
X62192309Y-98721500D01*
X62051750Y-98721500D01*
X61977250Y-98796000D01*
X61918440Y-98796000D01*
X61918440Y-98542000D01*
X62247250Y-98542000D01*
X62406000Y-98383250D01*
X62406000Y-98242690D01*
X62309327Y-98009301D01*
X62130698Y-97830673D01*
X61897309Y-97734000D01*
X61867250Y-97734000D01*
X61708500Y-97892750D01*
X61708500Y-97899391D01*
X61522890Y-97772569D01*
X61448192Y-97757442D01*
X61424750Y-97734000D01*
X61394691Y-97734000D01*
X61374247Y-97742468D01*
X61271000Y-97721560D01*
X61021000Y-97721560D01*
X60906000Y-97743199D01*
X60906000Y-97004802D01*
X60913401Y-96997401D01*
X61078148Y-96750839D01*
X61113000Y-96575629D01*
X61113000Y-96722000D01*
X61113000Y-96722000D01*
G37*
X61113000Y-96722000D02*
X61123006Y-96771410D01*
X61151447Y-96813035D01*
X61193841Y-96840315D01*
X61240000Y-96849000D01*
X64905000Y-96849000D01*
X64905000Y-96936250D01*
X65063750Y-97095000D01*
X65913000Y-97095000D01*
X65913000Y-97075000D01*
X66167000Y-97075000D01*
X66167000Y-97095000D01*
X66187000Y-97095000D01*
X66187000Y-97349000D01*
X66167000Y-97349000D01*
X66167000Y-97369000D01*
X65913000Y-97369000D01*
X65913000Y-97349000D01*
X65063750Y-97349000D01*
X64905000Y-97507750D01*
X64905000Y-97973310D01*
X65001673Y-98206699D01*
X65180302Y-98385327D01*
X65413691Y-98482000D01*
X65754250Y-98482000D01*
X65912998Y-98323252D01*
X65912998Y-98468512D01*
X65698683Y-98508838D01*
X65482559Y-98647910D01*
X65337569Y-98860110D01*
X65286560Y-99112000D01*
X65286560Y-99221500D01*
X62697400Y-99221500D01*
X62604327Y-98996801D01*
X62425698Y-98818173D01*
X62192309Y-98721500D01*
X62051750Y-98721500D01*
X61977250Y-98796000D01*
X61918440Y-98796000D01*
X61918440Y-98542000D01*
X62247250Y-98542000D01*
X62406000Y-98383250D01*
X62406000Y-98242690D01*
X62309327Y-98009301D01*
X62130698Y-97830673D01*
X61897309Y-97734000D01*
X61867250Y-97734000D01*
X61708500Y-97892750D01*
X61708500Y-97899391D01*
X61522890Y-97772569D01*
X61448192Y-97757442D01*
X61424750Y-97734000D01*
X61394691Y-97734000D01*
X61374247Y-97742468D01*
X61271000Y-97721560D01*
X61021000Y-97721560D01*
X60906000Y-97743199D01*
X60906000Y-97004802D01*
X60913401Y-96997401D01*
X61078148Y-96750839D01*
X61113000Y-96575629D01*
X61113000Y-96722000D01*
M02*
