G04 #@! TF.FileFunction,Legend,Bot*
%FSLAX46Y46*%
G04 Gerber Fmt 4.6, Leading zero omitted, Abs format (unit mm)*
G04 Created by KiCad (PCBNEW 4.0.7) date 03/22/19 21:38:21*
%MOMM*%
%LPD*%
G01*
G04 APERTURE LIST*
%ADD10C,0.100000*%
%ADD11C,0.300000*%
%ADD12C,0.120000*%
%ADD13C,0.010000*%
%ADD14C,0.150000*%
G04 APERTURE END LIST*
D10*
X64787620Y-113474381D02*
X64787620Y-112474381D01*
X64549525Y-112474381D01*
X64406667Y-112522000D01*
X64311429Y-112617238D01*
X64263810Y-112712476D01*
X64216191Y-112902952D01*
X64216191Y-113045810D01*
X64263810Y-113236286D01*
X64311429Y-113331524D01*
X64406667Y-113426762D01*
X64549525Y-113474381D01*
X64787620Y-113474381D01*
X63359048Y-113474381D02*
X63359048Y-112950571D01*
X63406667Y-112855333D01*
X63501905Y-112807714D01*
X63692382Y-112807714D01*
X63787620Y-112855333D01*
X63359048Y-113426762D02*
X63454286Y-113474381D01*
X63692382Y-113474381D01*
X63787620Y-113426762D01*
X63835239Y-113331524D01*
X63835239Y-113236286D01*
X63787620Y-113141048D01*
X63692382Y-113093429D01*
X63454286Y-113093429D01*
X63359048Y-113045810D01*
X62882858Y-112807714D02*
X62882858Y-113474381D01*
X62882858Y-112902952D02*
X62835239Y-112855333D01*
X62740001Y-112807714D01*
X62597143Y-112807714D01*
X62501905Y-112855333D01*
X62454286Y-112950571D01*
X62454286Y-113474381D01*
X61978096Y-112807714D02*
X61978096Y-113474381D01*
X61978096Y-112902952D02*
X61930477Y-112855333D01*
X61835239Y-112807714D01*
X61692381Y-112807714D01*
X61597143Y-112855333D01*
X61549524Y-112950571D01*
X61549524Y-113474381D01*
X61168572Y-112807714D02*
X60930477Y-113474381D01*
X60692381Y-112807714D02*
X60930477Y-113474381D01*
X61025715Y-113712476D01*
X61073334Y-113760095D01*
X61168572Y-113807714D01*
X59549524Y-113474381D02*
X59549524Y-112474381D01*
X59216190Y-113188667D01*
X58882857Y-112474381D01*
X58882857Y-113474381D01*
X57978095Y-113474381D02*
X57978095Y-112950571D01*
X58025714Y-112855333D01*
X58120952Y-112807714D01*
X58311429Y-112807714D01*
X58406667Y-112855333D01*
X57978095Y-113426762D02*
X58073333Y-113474381D01*
X58311429Y-113474381D01*
X58406667Y-113426762D01*
X58454286Y-113331524D01*
X58454286Y-113236286D01*
X58406667Y-113141048D01*
X58311429Y-113093429D01*
X58073333Y-113093429D01*
X57978095Y-113045810D01*
X57359048Y-113474381D02*
X57454286Y-113426762D01*
X57501905Y-113331524D01*
X57501905Y-112474381D01*
X56835238Y-113474381D02*
X56930476Y-113426762D01*
X56978095Y-113331524D01*
X56978095Y-112474381D01*
X56073332Y-113426762D02*
X56168570Y-113474381D01*
X56359047Y-113474381D01*
X56454285Y-113426762D01*
X56501904Y-113331524D01*
X56501904Y-112950571D01*
X56454285Y-112855333D01*
X56359047Y-112807714D01*
X56168570Y-112807714D01*
X56073332Y-112855333D01*
X56025713Y-112950571D01*
X56025713Y-113045810D01*
X56501904Y-113141048D01*
X55597142Y-113474381D02*
X55597142Y-112474381D01*
X55501904Y-113093429D02*
X55216189Y-113474381D01*
X55216189Y-112807714D02*
X55597142Y-113188667D01*
X54073332Y-112569619D02*
X54025713Y-112522000D01*
X53930475Y-112474381D01*
X53692379Y-112474381D01*
X53597141Y-112522000D01*
X53549522Y-112569619D01*
X53501903Y-112664857D01*
X53501903Y-112760095D01*
X53549522Y-112902952D01*
X54120951Y-113474381D01*
X53501903Y-113474381D01*
X52882856Y-112474381D02*
X52787617Y-112474381D01*
X52692379Y-112522000D01*
X52644760Y-112569619D01*
X52597141Y-112664857D01*
X52549522Y-112855333D01*
X52549522Y-113093429D01*
X52597141Y-113283905D01*
X52644760Y-113379143D01*
X52692379Y-113426762D01*
X52787617Y-113474381D01*
X52882856Y-113474381D01*
X52978094Y-113426762D01*
X53025713Y-113379143D01*
X53073332Y-113283905D01*
X53120951Y-113093429D01*
X53120951Y-112855333D01*
X53073332Y-112664857D01*
X53025713Y-112569619D01*
X52978094Y-112522000D01*
X52882856Y-112474381D01*
X51597141Y-113474381D02*
X52168570Y-113474381D01*
X51882856Y-113474381D02*
X51882856Y-112474381D01*
X51978094Y-112617238D01*
X52073332Y-112712476D01*
X52168570Y-112760095D01*
X51120951Y-113474381D02*
X50930475Y-113474381D01*
X50835236Y-113426762D01*
X50787617Y-113379143D01*
X50692379Y-113236286D01*
X50644760Y-113045810D01*
X50644760Y-112664857D01*
X50692379Y-112569619D01*
X50739998Y-112522000D01*
X50835236Y-112474381D01*
X51025713Y-112474381D01*
X51120951Y-112522000D01*
X51168570Y-112569619D01*
X51216189Y-112664857D01*
X51216189Y-112902952D01*
X51168570Y-112998190D01*
X51120951Y-113045810D01*
X51025713Y-113093429D01*
X50835236Y-113093429D01*
X50739998Y-113045810D01*
X50692379Y-112998190D01*
X50644760Y-112902952D01*
D11*
X47582857Y-92572000D02*
X47725714Y-92500571D01*
X47940000Y-92500571D01*
X48154285Y-92572000D01*
X48297143Y-92714857D01*
X48368571Y-92857714D01*
X48440000Y-93143429D01*
X48440000Y-93357714D01*
X48368571Y-93643429D01*
X48297143Y-93786286D01*
X48154285Y-93929143D01*
X47940000Y-94000571D01*
X47797143Y-94000571D01*
X47582857Y-93929143D01*
X47511428Y-93857714D01*
X47511428Y-93357714D01*
X47797143Y-93357714D01*
X46868571Y-94000571D02*
X46868571Y-92500571D01*
X46011428Y-94000571D01*
X46011428Y-92500571D01*
X45297142Y-94000571D02*
X45297142Y-92500571D01*
X44939999Y-92500571D01*
X44725714Y-92572000D01*
X44582856Y-92714857D01*
X44511428Y-92857714D01*
X44439999Y-93143429D01*
X44439999Y-93357714D01*
X44511428Y-93643429D01*
X44582856Y-93786286D01*
X44725714Y-93929143D01*
X44939999Y-94000571D01*
X45297142Y-94000571D01*
X61047142Y-93229143D02*
X59904285Y-93229143D01*
X60475714Y-93800571D02*
X60475714Y-92657714D01*
X58689999Y-93014857D02*
X58475713Y-93086286D01*
X58404285Y-93157714D01*
X58332856Y-93300571D01*
X58332856Y-93514857D01*
X58404285Y-93657714D01*
X58475713Y-93729143D01*
X58618571Y-93800571D01*
X59189999Y-93800571D01*
X59189999Y-92300571D01*
X58689999Y-92300571D01*
X58547142Y-92372000D01*
X58475713Y-92443429D01*
X58404285Y-92586286D01*
X58404285Y-92729143D01*
X58475713Y-92872000D01*
X58547142Y-92943429D01*
X58689999Y-93014857D01*
X59189999Y-93014857D01*
X57761428Y-93372000D02*
X57047142Y-93372000D01*
X57904285Y-93800571D02*
X57404285Y-92300571D01*
X56904285Y-93800571D01*
X56618571Y-92300571D02*
X55761428Y-92300571D01*
X56189999Y-93800571D02*
X56189999Y-92300571D01*
X55475714Y-92300571D02*
X54618571Y-92300571D01*
X55047142Y-93800571D02*
X55047142Y-92300571D01*
X60371667Y-91726333D02*
X61387667Y-91726333D01*
X60879667Y-91726333D02*
X60879667Y-89948333D01*
X61049001Y-90202333D01*
X61218334Y-90371667D01*
X61387667Y-90456333D01*
X59694334Y-91641667D02*
X59440334Y-91726333D01*
X59017001Y-91726333D01*
X58847668Y-91641667D01*
X58763001Y-91557000D01*
X58678334Y-91387667D01*
X58678334Y-91218333D01*
X58763001Y-91049000D01*
X58847668Y-90964333D01*
X59017001Y-90879667D01*
X59355668Y-90795000D01*
X59525001Y-90710333D01*
X59609668Y-90625667D01*
X59694334Y-90456333D01*
X59694334Y-90287000D01*
X59609668Y-90117667D01*
X59525001Y-90033000D01*
X59355668Y-89948333D01*
X58932334Y-89948333D01*
X58678334Y-90033000D01*
X55715001Y-91726333D02*
X56561668Y-91726333D01*
X56561668Y-89948333D01*
X55122335Y-91726333D02*
X55122335Y-90541000D01*
X55122335Y-89948333D02*
X55207001Y-90033000D01*
X55122335Y-90117667D01*
X55037668Y-90033000D01*
X55122335Y-89948333D01*
X55122335Y-90117667D01*
X54275668Y-91726333D02*
X54275668Y-89948333D01*
X53598334Y-89948333D01*
X53429001Y-90033000D01*
X53344334Y-90117667D01*
X53259668Y-90287000D01*
X53259668Y-90541000D01*
X53344334Y-90710333D01*
X53429001Y-90795000D01*
X53598334Y-90879667D01*
X54275668Y-90879667D01*
X52243668Y-91726333D02*
X52413001Y-91641667D01*
X52497668Y-91557000D01*
X52582334Y-91387667D01*
X52582334Y-90879667D01*
X52497668Y-90710333D01*
X52413001Y-90625667D01*
X52243668Y-90541000D01*
X51989668Y-90541000D01*
X51820334Y-90625667D01*
X51735668Y-90710333D01*
X51651001Y-90879667D01*
X51651001Y-91387667D01*
X51735668Y-91557000D01*
X51820334Y-91641667D01*
X51989668Y-91726333D01*
X52243668Y-91726333D01*
X49195667Y-89948333D02*
X48857000Y-89948333D01*
X48687667Y-90033000D01*
X48518334Y-90202333D01*
X48433667Y-90541000D01*
X48433667Y-91133667D01*
X48518334Y-91472333D01*
X48687667Y-91641667D01*
X48857000Y-91726333D01*
X49195667Y-91726333D01*
X49365000Y-91641667D01*
X49534334Y-91472333D01*
X49619000Y-91133667D01*
X49619000Y-90541000D01*
X49534334Y-90202333D01*
X49365000Y-90033000D01*
X49195667Y-89948333D01*
X47671667Y-90541000D02*
X47671667Y-91726333D01*
X47671667Y-90710333D02*
X47587000Y-90625667D01*
X47417667Y-90541000D01*
X47163667Y-90541000D01*
X46994333Y-90625667D01*
X46909667Y-90795000D01*
X46909667Y-91726333D01*
X45809000Y-91726333D02*
X45978333Y-91641667D01*
X46063000Y-91472333D01*
X46063000Y-89948333D01*
X45301000Y-90541000D02*
X44877667Y-91726333D01*
X44454333Y-90541000D02*
X44877667Y-91726333D01*
X45047000Y-92149667D01*
X45131667Y-92234333D01*
X45301000Y-92319000D01*
X43777000Y-91557000D02*
X43692333Y-91641667D01*
X43777000Y-91726333D01*
X43861666Y-91641667D01*
X43777000Y-91557000D01*
X43777000Y-91726333D01*
X43777000Y-91049000D02*
X43861666Y-90033000D01*
X43777000Y-89948333D01*
X43692333Y-90033000D01*
X43777000Y-91049000D01*
X43777000Y-89948333D01*
D12*
X40490000Y-123422000D02*
X40490000Y-121922000D01*
X40490000Y-121922000D02*
X46190000Y-121922000D01*
X46190000Y-121922000D02*
X46190000Y-123422000D01*
X40490000Y-125822000D02*
X40490000Y-127322000D01*
X40490000Y-127322000D02*
X46190000Y-127322000D01*
X46190000Y-127322000D02*
X46190000Y-125822000D01*
D13*
G36*
X41536400Y-98080000D02*
X39047200Y-98080000D01*
X39047200Y-100213600D01*
X39402800Y-100213600D01*
X39402800Y-98435600D01*
X41180800Y-98435600D01*
X41180800Y-100213600D01*
X39402800Y-100213600D01*
X39047200Y-100213600D01*
X39047200Y-100569200D01*
X41536400Y-100569200D01*
X41536400Y-98080000D01*
X41536400Y-98080000D01*
G37*
X41536400Y-98080000D02*
X39047200Y-98080000D01*
X39047200Y-100213600D01*
X39402800Y-100213600D01*
X39402800Y-98435600D01*
X41180800Y-98435600D01*
X41180800Y-100213600D01*
X39402800Y-100213600D01*
X39047200Y-100213600D01*
X39047200Y-100569200D01*
X41536400Y-100569200D01*
X41536400Y-98080000D01*
G36*
X42603200Y-99146800D02*
X42425400Y-99146800D01*
X42306232Y-99138937D01*
X42257361Y-99094569D01*
X42247622Y-98982534D01*
X42247600Y-98969000D01*
X42247600Y-98791200D01*
X42958800Y-98791200D01*
X42958800Y-99146800D01*
X43670000Y-99146800D01*
X43670000Y-98969000D01*
X43662136Y-98849833D01*
X43617768Y-98800962D01*
X43505733Y-98791223D01*
X43492200Y-98791200D01*
X43314400Y-98791200D01*
X43314400Y-98080000D01*
X41892000Y-98080000D01*
X41892000Y-99858000D01*
X42603200Y-99858000D01*
X42603200Y-99146800D01*
X42603200Y-99146800D01*
G37*
X42603200Y-99146800D02*
X42425400Y-99146800D01*
X42306232Y-99138937D01*
X42257361Y-99094569D01*
X42247622Y-98982534D01*
X42247600Y-98969000D01*
X42247600Y-98791200D01*
X42958800Y-98791200D01*
X42958800Y-99146800D01*
X43670000Y-99146800D01*
X43670000Y-98969000D01*
X43662136Y-98849833D01*
X43617768Y-98800962D01*
X43505733Y-98791223D01*
X43492200Y-98791200D01*
X43314400Y-98791200D01*
X43314400Y-98080000D01*
X41892000Y-98080000D01*
X41892000Y-99858000D01*
X42603200Y-99858000D01*
X42603200Y-99146800D01*
G36*
X45389367Y-98427737D02*
X45438238Y-98383369D01*
X45447977Y-98271334D01*
X45448000Y-98257800D01*
X45440136Y-98138633D01*
X45395768Y-98089762D01*
X45283733Y-98080023D01*
X45270200Y-98080000D01*
X45151032Y-98087864D01*
X45102161Y-98132232D01*
X45092422Y-98244267D01*
X45092400Y-98257800D01*
X45100263Y-98376968D01*
X45144631Y-98425839D01*
X45256666Y-98435578D01*
X45270200Y-98435600D01*
X45389367Y-98427737D01*
X45389367Y-98427737D01*
G37*
X45389367Y-98427737D02*
X45438238Y-98383369D01*
X45447977Y-98271334D01*
X45448000Y-98257800D01*
X45440136Y-98138633D01*
X45395768Y-98089762D01*
X45283733Y-98080023D01*
X45270200Y-98080000D01*
X45151032Y-98087864D01*
X45102161Y-98132232D01*
X45092422Y-98244267D01*
X45092400Y-98257800D01*
X45100263Y-98376968D01*
X45144631Y-98425839D01*
X45256666Y-98435578D01*
X45270200Y-98435600D01*
X45389367Y-98427737D01*
G36*
X50782000Y-100569200D02*
X50426400Y-100569200D01*
X50426400Y-101280400D01*
X50782000Y-101280400D01*
X50782000Y-100569200D01*
X50782000Y-100569200D01*
G37*
X50782000Y-100569200D02*
X50426400Y-100569200D01*
X50426400Y-101280400D01*
X50782000Y-101280400D01*
X50782000Y-100569200D01*
G36*
X50782000Y-99858000D02*
X50782000Y-99146800D01*
X50070800Y-99146800D01*
X50070800Y-98435600D01*
X50248600Y-98435600D01*
X50367767Y-98427737D01*
X50416638Y-98383369D01*
X50426377Y-98271334D01*
X50426400Y-98257800D01*
X50418536Y-98138633D01*
X50374168Y-98089762D01*
X50262133Y-98080023D01*
X50248600Y-98080000D01*
X50129432Y-98087864D01*
X50080561Y-98132232D01*
X50070822Y-98244267D01*
X50070800Y-98257800D01*
X50062936Y-98376968D01*
X50018568Y-98425839D01*
X49906533Y-98435578D01*
X49893000Y-98435600D01*
X49773832Y-98427737D01*
X49724961Y-98383369D01*
X49715222Y-98271334D01*
X49715200Y-98257800D01*
X49707336Y-98138633D01*
X49662968Y-98089762D01*
X49550933Y-98080023D01*
X49537400Y-98080000D01*
X49359600Y-98080000D01*
X49359600Y-98791200D01*
X49537400Y-98791200D01*
X49656567Y-98799064D01*
X49705438Y-98843432D01*
X49715177Y-98955467D01*
X49715200Y-98969000D01*
X49715200Y-99146800D01*
X48648400Y-99146800D01*
X48648400Y-98435600D01*
X48470600Y-98435600D01*
X48351432Y-98427737D01*
X48302561Y-98383369D01*
X48292822Y-98271334D01*
X48292800Y-98257800D01*
X48292800Y-98080000D01*
X47226000Y-98080000D01*
X47226000Y-98435600D01*
X46159200Y-98435600D01*
X46159200Y-98257800D01*
X46151336Y-98138633D01*
X46106968Y-98089762D01*
X45994933Y-98080023D01*
X45981400Y-98080000D01*
X45803600Y-98080000D01*
X45803600Y-98791200D01*
X44381200Y-98791200D01*
X44381200Y-98613400D01*
X44373336Y-98494233D01*
X44328968Y-98445362D01*
X44216933Y-98435623D01*
X44203400Y-98435600D01*
X44084232Y-98443464D01*
X44035361Y-98487832D01*
X44025622Y-98599867D01*
X44025600Y-98613400D01*
X44033463Y-98732568D01*
X44077831Y-98781439D01*
X44189866Y-98791178D01*
X44203400Y-98791200D01*
X44322567Y-98799064D01*
X44371438Y-98843432D01*
X44381177Y-98955467D01*
X44381200Y-98969000D01*
X44389063Y-99088168D01*
X44433431Y-99137039D01*
X44545466Y-99146778D01*
X44559000Y-99146800D01*
X44678167Y-99154664D01*
X44727038Y-99199032D01*
X44736777Y-99311067D01*
X44736800Y-99324600D01*
X44736800Y-99502400D01*
X44025600Y-99502400D01*
X44025600Y-99680200D01*
X44736800Y-99680200D01*
X44744663Y-99561033D01*
X44789031Y-99512162D01*
X44901066Y-99502423D01*
X44914600Y-99502400D01*
X45033767Y-99494537D01*
X45082638Y-99450169D01*
X45092377Y-99338134D01*
X45092400Y-99324600D01*
X45100263Y-99205433D01*
X45144631Y-99156562D01*
X45256666Y-99146823D01*
X45270200Y-99146800D01*
X45803600Y-99146800D01*
X45803600Y-98791200D01*
X46514800Y-98791200D01*
X46514800Y-99146800D01*
X45803600Y-99146800D01*
X45270200Y-99146800D01*
X45389367Y-99154664D01*
X45438238Y-99199032D01*
X45447977Y-99311067D01*
X45448000Y-99324600D01*
X45448000Y-99502400D01*
X46870400Y-99502400D01*
X46870400Y-99146800D01*
X47581600Y-99146800D01*
X47581600Y-98969000D01*
X47573736Y-98849833D01*
X47529368Y-98800962D01*
X47417333Y-98791223D01*
X47403800Y-98791200D01*
X47284632Y-98783337D01*
X47235761Y-98738969D01*
X47226022Y-98626934D01*
X47226000Y-98613400D01*
X47226000Y-98435600D01*
X48292800Y-98435600D01*
X48292800Y-99146800D01*
X48470600Y-99146800D01*
X48589767Y-99154664D01*
X48638638Y-99199032D01*
X48648377Y-99311067D01*
X48648400Y-99324600D01*
X48640536Y-99443768D01*
X48596168Y-99492639D01*
X48484133Y-99502378D01*
X48470600Y-99502400D01*
X48351432Y-99494537D01*
X48302561Y-99450169D01*
X48292822Y-99338134D01*
X48292800Y-99324600D01*
X48284936Y-99205433D01*
X48240568Y-99156562D01*
X48128533Y-99146823D01*
X48115000Y-99146800D01*
X47995832Y-99154664D01*
X47946961Y-99199032D01*
X47937222Y-99311067D01*
X47937200Y-99324600D01*
X47929336Y-99443768D01*
X47884968Y-99492639D01*
X47772933Y-99502378D01*
X47759400Y-99502400D01*
X47640232Y-99510264D01*
X47591361Y-99554632D01*
X47581622Y-99666667D01*
X47581600Y-99680200D01*
X47573736Y-99799368D01*
X47529368Y-99848239D01*
X47417333Y-99857978D01*
X47403800Y-99858000D01*
X47284632Y-99865864D01*
X47235761Y-99910232D01*
X47226022Y-100022267D01*
X47226000Y-100035800D01*
X47218136Y-100154968D01*
X47173768Y-100203839D01*
X47061733Y-100213578D01*
X47048200Y-100213600D01*
X46929032Y-100205737D01*
X46880161Y-100161369D01*
X46870422Y-100049334D01*
X46870400Y-100035800D01*
X46870400Y-99858000D01*
X46159200Y-99858000D01*
X46159200Y-100569200D01*
X45448000Y-100569200D01*
X45448000Y-100391400D01*
X45440136Y-100272233D01*
X45395768Y-100223362D01*
X45283733Y-100213623D01*
X45270200Y-100213600D01*
X45151032Y-100205737D01*
X45102161Y-100161369D01*
X45092422Y-100049334D01*
X45092400Y-100035800D01*
X45084536Y-99916633D01*
X45040168Y-99867762D01*
X44928133Y-99858023D01*
X44914600Y-99858000D01*
X44795432Y-99850137D01*
X44746561Y-99805769D01*
X44736822Y-99693734D01*
X44736800Y-99680200D01*
X44025600Y-99680200D01*
X44017736Y-99799368D01*
X43973368Y-99848239D01*
X43861333Y-99857978D01*
X43847800Y-99858000D01*
X43728632Y-99850137D01*
X43679761Y-99805769D01*
X43670022Y-99693734D01*
X43670000Y-99680200D01*
X43662136Y-99561033D01*
X43617768Y-99512162D01*
X43505733Y-99502423D01*
X43492200Y-99502400D01*
X43314400Y-99502400D01*
X43314400Y-100035800D01*
X44025600Y-100035800D01*
X44033463Y-99916633D01*
X44077831Y-99867762D01*
X44189866Y-99858023D01*
X44203400Y-99858000D01*
X44322567Y-99865864D01*
X44371438Y-99910232D01*
X44381177Y-100022267D01*
X44381200Y-100035800D01*
X44373336Y-100154968D01*
X44328968Y-100203839D01*
X44216933Y-100213578D01*
X44203400Y-100213600D01*
X44084232Y-100205737D01*
X44035361Y-100161369D01*
X44025622Y-100049334D01*
X44025600Y-100035800D01*
X43314400Y-100035800D01*
X43314400Y-100213600D01*
X43492200Y-100213600D01*
X43611367Y-100221464D01*
X43660238Y-100265832D01*
X43669977Y-100377867D01*
X43670000Y-100391400D01*
X43662136Y-100510568D01*
X43617768Y-100559439D01*
X43505733Y-100569178D01*
X43492200Y-100569200D01*
X43373032Y-100577064D01*
X43324161Y-100621432D01*
X43314422Y-100733467D01*
X43314400Y-100747000D01*
X43306536Y-100866168D01*
X43262168Y-100915039D01*
X43150133Y-100924778D01*
X43136600Y-100924800D01*
X42958800Y-100924800D01*
X42958800Y-101636000D01*
X42247600Y-101636000D01*
X42247600Y-100569200D01*
X42425400Y-100569200D01*
X42544567Y-100561337D01*
X42593438Y-100516969D01*
X42603177Y-100404934D01*
X42603200Y-100391400D01*
X42603200Y-100213600D01*
X41892000Y-100213600D01*
X41892000Y-101636000D01*
X41180800Y-101636000D01*
X41180800Y-101458200D01*
X41188663Y-101339033D01*
X41233031Y-101290162D01*
X41345066Y-101280423D01*
X41358600Y-101280400D01*
X41477767Y-101272537D01*
X41526638Y-101228169D01*
X41536377Y-101116134D01*
X41536400Y-101102600D01*
X41536400Y-100924800D01*
X39758400Y-100924800D01*
X39758400Y-101636000D01*
X40469600Y-101636000D01*
X40469600Y-102347200D01*
X40647400Y-102347200D01*
X40766567Y-102355064D01*
X40815438Y-102399432D01*
X40825177Y-102511467D01*
X40825200Y-102525000D01*
X40817336Y-102644168D01*
X40772968Y-102693039D01*
X40660933Y-102702778D01*
X40647400Y-102702800D01*
X40469600Y-102702800D01*
X40469600Y-103414000D01*
X40291800Y-103414000D01*
X40172632Y-103421864D01*
X40123761Y-103466232D01*
X40114022Y-103578267D01*
X40114000Y-103591800D01*
X40106136Y-103710968D01*
X40061768Y-103759839D01*
X39949733Y-103769578D01*
X39936200Y-103769600D01*
X39758400Y-103769600D01*
X39758400Y-102702800D01*
X39936200Y-102702800D01*
X40055367Y-102694937D01*
X40104238Y-102650569D01*
X40113977Y-102538534D01*
X40114000Y-102525000D01*
X40106136Y-102405833D01*
X40061768Y-102356962D01*
X39949733Y-102347223D01*
X39936200Y-102347200D01*
X39817032Y-102339337D01*
X39768161Y-102294969D01*
X39758422Y-102182934D01*
X39758400Y-102169400D01*
X39750536Y-102050233D01*
X39706168Y-102001362D01*
X39594133Y-101991623D01*
X39580600Y-101991600D01*
X39402800Y-101991600D01*
X39402800Y-100924800D01*
X39047200Y-100924800D01*
X39047200Y-102525000D01*
X39402800Y-102525000D01*
X39410663Y-102405833D01*
X39455031Y-102356962D01*
X39567066Y-102347223D01*
X39580600Y-102347200D01*
X39699767Y-102355064D01*
X39748638Y-102399432D01*
X39758377Y-102511467D01*
X39758400Y-102525000D01*
X39750536Y-102644168D01*
X39706168Y-102693039D01*
X39594133Y-102702778D01*
X39580600Y-102702800D01*
X39461432Y-102694937D01*
X39412561Y-102650569D01*
X39402822Y-102538534D01*
X39402800Y-102525000D01*
X39047200Y-102525000D01*
X39047200Y-102702800D01*
X39402800Y-102702800D01*
X39402800Y-103414000D01*
X39047200Y-103414000D01*
X39047200Y-104125200D01*
X39225000Y-104125200D01*
X39344167Y-104133064D01*
X39393038Y-104177432D01*
X39402777Y-104289467D01*
X39402800Y-104303000D01*
X39394936Y-104422168D01*
X39350568Y-104471039D01*
X39238533Y-104480778D01*
X39225000Y-104480800D01*
X39105832Y-104488664D01*
X39056961Y-104533032D01*
X39047222Y-104645067D01*
X39047200Y-104658600D01*
X39055063Y-104777768D01*
X39099431Y-104826639D01*
X39211466Y-104836378D01*
X39225000Y-104836400D01*
X39344167Y-104844264D01*
X39393038Y-104888632D01*
X39402777Y-105000667D01*
X39402800Y-105014200D01*
X39758400Y-105014200D01*
X39766263Y-104895033D01*
X39810631Y-104846162D01*
X39922666Y-104836423D01*
X39936200Y-104836400D01*
X40114000Y-104836400D01*
X40114000Y-103769600D01*
X40291800Y-103769600D01*
X40410967Y-103761737D01*
X40459838Y-103717369D01*
X40469577Y-103605334D01*
X40469600Y-103591800D01*
X40477463Y-103472633D01*
X40521831Y-103423762D01*
X40633866Y-103414023D01*
X40647400Y-103414000D01*
X40766567Y-103406137D01*
X40815438Y-103361769D01*
X40825177Y-103249734D01*
X40825200Y-103236200D01*
X40833063Y-103117033D01*
X40877431Y-103068162D01*
X40989466Y-103058423D01*
X41003000Y-103058400D01*
X41122167Y-103050537D01*
X41171038Y-103006169D01*
X41180777Y-102894134D01*
X41180800Y-102880600D01*
X41188663Y-102761433D01*
X41233031Y-102712562D01*
X41345066Y-102702823D01*
X41358600Y-102702800D01*
X41477767Y-102694937D01*
X41526638Y-102650569D01*
X41536377Y-102538534D01*
X41536400Y-102525000D01*
X41536400Y-102347200D01*
X40825200Y-102347200D01*
X40825200Y-101636000D01*
X41003000Y-101636000D01*
X41122167Y-101643864D01*
X41171038Y-101688232D01*
X41180777Y-101800267D01*
X41180800Y-101813800D01*
X41180800Y-101991600D01*
X41892000Y-101991600D01*
X41892000Y-101813800D01*
X41899863Y-101694633D01*
X41944231Y-101645762D01*
X42056266Y-101636023D01*
X42069800Y-101636000D01*
X42188967Y-101643864D01*
X42237838Y-101688232D01*
X42247577Y-101800267D01*
X42247600Y-101813800D01*
X42247600Y-101991600D01*
X43670000Y-101991600D01*
X43670000Y-101813800D01*
X43662136Y-101694633D01*
X43617768Y-101645762D01*
X43505733Y-101636023D01*
X43492200Y-101636000D01*
X43314400Y-101636000D01*
X43314400Y-100924800D01*
X44381200Y-100924800D01*
X44381200Y-100747000D01*
X44389063Y-100627833D01*
X44433431Y-100578962D01*
X44545466Y-100569223D01*
X44559000Y-100569200D01*
X44678167Y-100577064D01*
X44727038Y-100621432D01*
X44736777Y-100733467D01*
X44736800Y-100747000D01*
X44728936Y-100866168D01*
X44684568Y-100915039D01*
X44572533Y-100924778D01*
X44559000Y-100924800D01*
X44439832Y-100932664D01*
X44390961Y-100977032D01*
X44381222Y-101089067D01*
X44381200Y-101102600D01*
X44373336Y-101221768D01*
X44328968Y-101270639D01*
X44216933Y-101280378D01*
X44203400Y-101280400D01*
X44084232Y-101288264D01*
X44035361Y-101332632D01*
X44025622Y-101444667D01*
X44025600Y-101458200D01*
X44033463Y-101577368D01*
X44077831Y-101626239D01*
X44189866Y-101635978D01*
X44203400Y-101636000D01*
X44322567Y-101643864D01*
X44371438Y-101688232D01*
X44381177Y-101800267D01*
X44381200Y-101813800D01*
X44389063Y-101932968D01*
X44433431Y-101981839D01*
X44545466Y-101991578D01*
X44559000Y-101991600D01*
X44678167Y-101983737D01*
X44727038Y-101939369D01*
X44736777Y-101827334D01*
X44736800Y-101813800D01*
X44744663Y-101694633D01*
X44789031Y-101645762D01*
X44901066Y-101636023D01*
X44914600Y-101636000D01*
X45033767Y-101628137D01*
X45082638Y-101583769D01*
X45092377Y-101471734D01*
X45092400Y-101458200D01*
X45100263Y-101339033D01*
X45144631Y-101290162D01*
X45256666Y-101280423D01*
X45270200Y-101280400D01*
X45389367Y-101272537D01*
X45438238Y-101228169D01*
X45447977Y-101116134D01*
X45448000Y-101102600D01*
X45448000Y-100924800D01*
X46870400Y-100924800D01*
X46870400Y-101280400D01*
X46159200Y-101280400D01*
X46159200Y-101458200D01*
X46167063Y-101577368D01*
X46211431Y-101626239D01*
X46323466Y-101635978D01*
X46337000Y-101636000D01*
X46456167Y-101643864D01*
X46505038Y-101688232D01*
X46514777Y-101800267D01*
X46514800Y-101813800D01*
X46514800Y-101991600D01*
X45803600Y-101991600D01*
X45803600Y-102169400D01*
X45811463Y-102288568D01*
X45855831Y-102337439D01*
X45967866Y-102347178D01*
X45981400Y-102347200D01*
X46159200Y-102347200D01*
X46159200Y-102525000D01*
X46514800Y-102525000D01*
X46522663Y-102405833D01*
X46567031Y-102356962D01*
X46679066Y-102347223D01*
X46692600Y-102347200D01*
X46870400Y-102347200D01*
X46870400Y-101636000D01*
X47226000Y-101636000D01*
X47226000Y-100569200D01*
X47581600Y-100569200D01*
X47581600Y-100924800D01*
X47937200Y-100924800D01*
X47937200Y-99858000D01*
X49004000Y-99858000D01*
X49715200Y-99858000D01*
X49715200Y-99502400D01*
X50426400Y-99502400D01*
X50426400Y-99858000D01*
X49715200Y-99858000D01*
X49004000Y-99858000D01*
X49004000Y-100747000D01*
X49359600Y-100747000D01*
X49367463Y-100627833D01*
X49411831Y-100578962D01*
X49523866Y-100569223D01*
X49537400Y-100569200D01*
X49656567Y-100561337D01*
X49705438Y-100516969D01*
X49715177Y-100404934D01*
X49715200Y-100391400D01*
X49723063Y-100272233D01*
X49767431Y-100223362D01*
X49879466Y-100213623D01*
X49893000Y-100213600D01*
X50012167Y-100221464D01*
X50061038Y-100265832D01*
X50070777Y-100377867D01*
X50070800Y-100391400D01*
X50062936Y-100510568D01*
X50018568Y-100559439D01*
X49906533Y-100569178D01*
X49893000Y-100569200D01*
X49773832Y-100577064D01*
X49724961Y-100621432D01*
X49715222Y-100733467D01*
X49715200Y-100747000D01*
X49707336Y-100866168D01*
X49662968Y-100915039D01*
X49550933Y-100924778D01*
X49537400Y-100924800D01*
X49418232Y-100916937D01*
X49369361Y-100872569D01*
X49359622Y-100760534D01*
X49359600Y-100747000D01*
X49004000Y-100747000D01*
X49004000Y-100924800D01*
X47937200Y-100924800D01*
X47581600Y-100924800D01*
X47581600Y-101280400D01*
X47937200Y-101280400D01*
X47937200Y-101991600D01*
X48115000Y-101991600D01*
X48234167Y-101983737D01*
X48283038Y-101939369D01*
X48292777Y-101827334D01*
X48292800Y-101813800D01*
X48300663Y-101694633D01*
X48345031Y-101645762D01*
X48457066Y-101636023D01*
X48470600Y-101636000D01*
X48589767Y-101628137D01*
X48638638Y-101583769D01*
X48648377Y-101471734D01*
X48648400Y-101458200D01*
X48656263Y-101339033D01*
X48700631Y-101290162D01*
X48812666Y-101280423D01*
X48826200Y-101280400D01*
X49004000Y-101280400D01*
X49004000Y-101991600D01*
X49181800Y-101991600D01*
X49300967Y-101999464D01*
X49349838Y-102043832D01*
X49359577Y-102155867D01*
X49359600Y-102169400D01*
X49367463Y-102288568D01*
X49411831Y-102337439D01*
X49523866Y-102347178D01*
X49537400Y-102347200D01*
X49715200Y-102347200D01*
X49715200Y-101636000D01*
X50070800Y-101636000D01*
X50070800Y-102702800D01*
X49893000Y-102702800D01*
X49773832Y-102710664D01*
X49724961Y-102755032D01*
X49715222Y-102867067D01*
X49715200Y-102880600D01*
X49715200Y-103058400D01*
X49004000Y-103058400D01*
X49004000Y-102702800D01*
X48292800Y-102702800D01*
X48292800Y-102880600D01*
X48284936Y-102999768D01*
X48240568Y-103048639D01*
X48128533Y-103058378D01*
X48115000Y-103058400D01*
X47995832Y-103066264D01*
X47946961Y-103110632D01*
X47937222Y-103222667D01*
X47937200Y-103236200D01*
X47945063Y-103355368D01*
X47989431Y-103404239D01*
X48101466Y-103413978D01*
X48115000Y-103414000D01*
X48234167Y-103421864D01*
X48283038Y-103466232D01*
X48292777Y-103578267D01*
X48292800Y-103591800D01*
X48284936Y-103710968D01*
X48240568Y-103759839D01*
X48128533Y-103769578D01*
X48115000Y-103769600D01*
X47995832Y-103777464D01*
X47946961Y-103821832D01*
X47937222Y-103933867D01*
X47937200Y-103947400D01*
X47937200Y-104125200D01*
X47226000Y-104125200D01*
X47226000Y-103947400D01*
X47233863Y-103828233D01*
X47278231Y-103779362D01*
X47390266Y-103769623D01*
X47403800Y-103769600D01*
X47522967Y-103761737D01*
X47571838Y-103717369D01*
X47581577Y-103605334D01*
X47581600Y-103591800D01*
X47573736Y-103472633D01*
X47529368Y-103423762D01*
X47417333Y-103414023D01*
X47403800Y-103414000D01*
X47284632Y-103406137D01*
X47235761Y-103361769D01*
X47226022Y-103249734D01*
X47226000Y-103236200D01*
X47218136Y-103117033D01*
X47173768Y-103068162D01*
X47061733Y-103058423D01*
X47048200Y-103058400D01*
X46929032Y-103050537D01*
X46880161Y-103006169D01*
X46870422Y-102894134D01*
X46870400Y-102880600D01*
X46862536Y-102761433D01*
X46818168Y-102712562D01*
X46706133Y-102702823D01*
X46692600Y-102702800D01*
X46573432Y-102694937D01*
X46524561Y-102650569D01*
X46514822Y-102538534D01*
X46514800Y-102525000D01*
X46159200Y-102525000D01*
X46159200Y-103414000D01*
X44736800Y-103414000D01*
X44736800Y-104125200D01*
X45803600Y-104125200D01*
X46159200Y-104125200D01*
X46159200Y-103414000D01*
X46337000Y-103414000D01*
X46456167Y-103421864D01*
X46505038Y-103466232D01*
X46514777Y-103578267D01*
X46514800Y-103591800D01*
X46522663Y-103710968D01*
X46567031Y-103759839D01*
X46679066Y-103769578D01*
X46692600Y-103769600D01*
X46811767Y-103777464D01*
X46860638Y-103821832D01*
X46870377Y-103933867D01*
X46870400Y-103947400D01*
X46870400Y-104125200D01*
X46159200Y-104125200D01*
X45803600Y-104125200D01*
X45803600Y-104303000D01*
X45811463Y-104422168D01*
X45855831Y-104471039D01*
X45967866Y-104480778D01*
X45981400Y-104480800D01*
X46100567Y-104488664D01*
X46149438Y-104533032D01*
X46159177Y-104645067D01*
X46159200Y-104658600D01*
X46159200Y-104836400D01*
X46514800Y-104836400D01*
X46514800Y-104480800D01*
X47581600Y-104480800D01*
X47581600Y-104836400D01*
X46514800Y-104836400D01*
X46159200Y-104836400D01*
X45448000Y-104836400D01*
X45448000Y-105192000D01*
X46870400Y-105192000D01*
X47581600Y-105192000D01*
X47581600Y-104836400D01*
X48292800Y-104836400D01*
X48292800Y-105192000D01*
X47581600Y-105192000D01*
X46870400Y-105192000D01*
X46870400Y-105369800D01*
X46862536Y-105488968D01*
X46818168Y-105537839D01*
X46706133Y-105547578D01*
X46692600Y-105547600D01*
X46573432Y-105555464D01*
X46524561Y-105599832D01*
X46514822Y-105711867D01*
X46514800Y-105725400D01*
X46506936Y-105844568D01*
X46462568Y-105893439D01*
X46350533Y-105903178D01*
X46337000Y-105903200D01*
X46217832Y-105911064D01*
X46168961Y-105955432D01*
X46159222Y-106067467D01*
X46159200Y-106081000D01*
X46159200Y-106258800D01*
X45448000Y-106258800D01*
X45448000Y-106081000D01*
X45440136Y-105961833D01*
X45395768Y-105912962D01*
X45283733Y-105903223D01*
X45270200Y-105903200D01*
X45151032Y-105895337D01*
X45102161Y-105850969D01*
X45092422Y-105738934D01*
X45092400Y-105725400D01*
X45084536Y-105606233D01*
X45040168Y-105557362D01*
X44928133Y-105547623D01*
X44914600Y-105547600D01*
X44795432Y-105555464D01*
X44746561Y-105599832D01*
X44736822Y-105711867D01*
X44736800Y-105725400D01*
X44736800Y-105903200D01*
X44025600Y-105903200D01*
X44025600Y-105725400D01*
X44017736Y-105606233D01*
X43973368Y-105557362D01*
X43861333Y-105547623D01*
X43847800Y-105547600D01*
X43728632Y-105539737D01*
X43679761Y-105495369D01*
X43670022Y-105383334D01*
X43670000Y-105369800D01*
X43662136Y-105250633D01*
X43617768Y-105201762D01*
X43505733Y-105192023D01*
X43492200Y-105192000D01*
X43314400Y-105192000D01*
X43314400Y-105903200D01*
X43492200Y-105903200D01*
X43611367Y-105911064D01*
X43660238Y-105955432D01*
X43669977Y-106067467D01*
X43670000Y-106081000D01*
X43662136Y-106200168D01*
X43617768Y-106249039D01*
X43505733Y-106258778D01*
X43492200Y-106258800D01*
X43373032Y-106266664D01*
X43324161Y-106311032D01*
X43314422Y-106423067D01*
X43314400Y-106436600D01*
X43306536Y-106555768D01*
X43262168Y-106604639D01*
X43150133Y-106614378D01*
X43136600Y-106614400D01*
X43017432Y-106622264D01*
X42968561Y-106666632D01*
X42958822Y-106778667D01*
X42958800Y-106792200D01*
X42950936Y-106911368D01*
X42906568Y-106960239D01*
X42794533Y-106969978D01*
X42781000Y-106970000D01*
X42661832Y-106962137D01*
X42612961Y-106917769D01*
X42603222Y-106805734D01*
X42603200Y-106792200D01*
X42595336Y-106673033D01*
X42550968Y-106624162D01*
X42438933Y-106614423D01*
X42425400Y-106614400D01*
X42306232Y-106606537D01*
X42257361Y-106562169D01*
X42247622Y-106450134D01*
X42247600Y-106436600D01*
X42239736Y-106317433D01*
X42195368Y-106268562D01*
X42083333Y-106258823D01*
X42069800Y-106258800D01*
X41892000Y-106258800D01*
X41892000Y-105547600D01*
X41714200Y-105547600D01*
X41595032Y-105555464D01*
X41546161Y-105599832D01*
X41536422Y-105711867D01*
X41536400Y-105725400D01*
X41528536Y-105844568D01*
X41484168Y-105893439D01*
X41372133Y-105903178D01*
X41358600Y-105903200D01*
X41239432Y-105895337D01*
X41190561Y-105850969D01*
X41180822Y-105738934D01*
X41180800Y-105725400D01*
X41188663Y-105606233D01*
X41233031Y-105557362D01*
X41345066Y-105547623D01*
X41358600Y-105547600D01*
X41477767Y-105539737D01*
X41526638Y-105495369D01*
X41536377Y-105383334D01*
X41536400Y-105369800D01*
X41536400Y-105192000D01*
X40469600Y-105192000D01*
X40469600Y-105369800D01*
X40461736Y-105488968D01*
X40417368Y-105537839D01*
X40305333Y-105547578D01*
X40291800Y-105547600D01*
X40172632Y-105539737D01*
X40123761Y-105495369D01*
X40114022Y-105383334D01*
X40114000Y-105369800D01*
X40106136Y-105250633D01*
X40061768Y-105201762D01*
X39949733Y-105192023D01*
X39936200Y-105192000D01*
X39817032Y-105184137D01*
X39768161Y-105139769D01*
X39758422Y-105027734D01*
X39758400Y-105014200D01*
X39402800Y-105014200D01*
X39410663Y-105133368D01*
X39455031Y-105182239D01*
X39567066Y-105191978D01*
X39580600Y-105192000D01*
X39758400Y-105192000D01*
X39758400Y-105903200D01*
X39580600Y-105903200D01*
X39461432Y-105895337D01*
X39412561Y-105850969D01*
X39402822Y-105738934D01*
X39402800Y-105725400D01*
X39394936Y-105606233D01*
X39350568Y-105557362D01*
X39238533Y-105547623D01*
X39225000Y-105547600D01*
X39105832Y-105555464D01*
X39056961Y-105599832D01*
X39047222Y-105711867D01*
X39047200Y-105725400D01*
X39055063Y-105844568D01*
X39099431Y-105893439D01*
X39211466Y-105903178D01*
X39225000Y-105903200D01*
X39344167Y-105911064D01*
X39393038Y-105955432D01*
X39402777Y-106067467D01*
X39402800Y-106081000D01*
X39394936Y-106200168D01*
X39350568Y-106249039D01*
X39238533Y-106258778D01*
X39225000Y-106258800D01*
X39047200Y-106258800D01*
X39047200Y-106614400D01*
X39758400Y-106614400D01*
X39758400Y-106258800D01*
X40469600Y-106258800D01*
X40469600Y-106081000D01*
X40477463Y-105961833D01*
X40521831Y-105912962D01*
X40633866Y-105903223D01*
X40647400Y-105903200D01*
X40825200Y-105903200D01*
X40825200Y-106436600D01*
X41180800Y-106436600D01*
X41188663Y-106317433D01*
X41233031Y-106268562D01*
X41345066Y-106258823D01*
X41358600Y-106258800D01*
X41477767Y-106266664D01*
X41526638Y-106311032D01*
X41536377Y-106423067D01*
X41536400Y-106436600D01*
X41528536Y-106555768D01*
X41484168Y-106604639D01*
X41372133Y-106614378D01*
X41358600Y-106614400D01*
X41239432Y-106606537D01*
X41190561Y-106562169D01*
X41180822Y-106450134D01*
X41180800Y-106436600D01*
X40825200Y-106436600D01*
X40825200Y-106614400D01*
X39758400Y-106614400D01*
X39047200Y-106614400D01*
X39047200Y-106970000D01*
X40825200Y-106970000D01*
X40825200Y-106792200D01*
X40833063Y-106673033D01*
X40877431Y-106624162D01*
X40989466Y-106614423D01*
X41003000Y-106614400D01*
X41122167Y-106622264D01*
X41171038Y-106666632D01*
X41180777Y-106778667D01*
X41180800Y-106792200D01*
X41180800Y-106970000D01*
X42247600Y-106970000D01*
X42247600Y-107147800D01*
X42239736Y-107266968D01*
X42195368Y-107315839D01*
X42083333Y-107325578D01*
X42069800Y-107325600D01*
X41892000Y-107325600D01*
X41892000Y-107503400D01*
X42247600Y-107503400D01*
X42255463Y-107384233D01*
X42299831Y-107335362D01*
X42411866Y-107325623D01*
X42425400Y-107325600D01*
X42544567Y-107333464D01*
X42593438Y-107377832D01*
X42603177Y-107489867D01*
X42603200Y-107503400D01*
X42958800Y-107503400D01*
X42966663Y-107384233D01*
X43011031Y-107335362D01*
X43123066Y-107325623D01*
X43136600Y-107325600D01*
X43255767Y-107333464D01*
X43304638Y-107377832D01*
X43314377Y-107489867D01*
X43314400Y-107503400D01*
X43306536Y-107622568D01*
X43262168Y-107671439D01*
X43150133Y-107681178D01*
X43136600Y-107681200D01*
X43017432Y-107673337D01*
X42968561Y-107628969D01*
X42958822Y-107516934D01*
X42958800Y-107503400D01*
X42603200Y-107503400D01*
X42595336Y-107622568D01*
X42550968Y-107671439D01*
X42438933Y-107681178D01*
X42425400Y-107681200D01*
X42306232Y-107673337D01*
X42257361Y-107628969D01*
X42247622Y-107516934D01*
X42247600Y-107503400D01*
X41892000Y-107503400D01*
X41892000Y-108036800D01*
X42069800Y-108036800D01*
X42188967Y-108044664D01*
X42237838Y-108089032D01*
X42247577Y-108201067D01*
X42247600Y-108214600D01*
X42239736Y-108333768D01*
X42195368Y-108382639D01*
X42083333Y-108392378D01*
X42069800Y-108392400D01*
X41950632Y-108400264D01*
X41901761Y-108444632D01*
X41892022Y-108556667D01*
X41892000Y-108570200D01*
X41892000Y-108748000D01*
X42958800Y-108748000D01*
X42958800Y-108570200D01*
X42950936Y-108451033D01*
X42906568Y-108402162D01*
X42794533Y-108392423D01*
X42781000Y-108392400D01*
X42603200Y-108392400D01*
X42603200Y-107681200D01*
X42781000Y-107681200D01*
X42900167Y-107689064D01*
X42949038Y-107733432D01*
X42958777Y-107845467D01*
X42958800Y-107859000D01*
X42958800Y-108036800D01*
X43670000Y-108036800D01*
X43670000Y-107325600D01*
X43314400Y-107325600D01*
X43314400Y-106614400D01*
X44736800Y-106614400D01*
X44736800Y-106436600D01*
X44744663Y-106317433D01*
X44789031Y-106268562D01*
X44901066Y-106258823D01*
X44914600Y-106258800D01*
X45092400Y-106258800D01*
X45092400Y-106970000D01*
X44736800Y-106970000D01*
X44736800Y-107681200D01*
X44914600Y-107681200D01*
X45033767Y-107689064D01*
X45082638Y-107733432D01*
X45092377Y-107845467D01*
X45092400Y-107859000D01*
X45092400Y-108036800D01*
X44381200Y-108036800D01*
X44381200Y-108214600D01*
X44373336Y-108333768D01*
X44328968Y-108382639D01*
X44216933Y-108392378D01*
X44203400Y-108392400D01*
X44084232Y-108400264D01*
X44035361Y-108444632D01*
X44025622Y-108556667D01*
X44025600Y-108570200D01*
X44017736Y-108689368D01*
X43973368Y-108738239D01*
X43861333Y-108747978D01*
X43847800Y-108748000D01*
X43728632Y-108740137D01*
X43679761Y-108695769D01*
X43670022Y-108583734D01*
X43670000Y-108570200D01*
X43662136Y-108451033D01*
X43617768Y-108402162D01*
X43505733Y-108392423D01*
X43492200Y-108392400D01*
X43314400Y-108392400D01*
X43314400Y-108925800D01*
X44025600Y-108925800D01*
X44033463Y-108806633D01*
X44077831Y-108757762D01*
X44189866Y-108748023D01*
X44203400Y-108748000D01*
X44322567Y-108755864D01*
X44371438Y-108800232D01*
X44381177Y-108912267D01*
X44381200Y-108925800D01*
X44373336Y-109044968D01*
X44328968Y-109093839D01*
X44216933Y-109103578D01*
X44203400Y-109103600D01*
X44736800Y-109103600D01*
X44736800Y-108392400D01*
X44914600Y-108392400D01*
X45033767Y-108400264D01*
X45082638Y-108444632D01*
X45092377Y-108556667D01*
X45092400Y-108570200D01*
X45100263Y-108689368D01*
X45144631Y-108738239D01*
X45256666Y-108747978D01*
X45270200Y-108748000D01*
X45389367Y-108740137D01*
X45438238Y-108695769D01*
X45447977Y-108583734D01*
X45448000Y-108570200D01*
X45448000Y-108392400D01*
X46514800Y-108392400D01*
X46514800Y-108214600D01*
X46522663Y-108095433D01*
X46567031Y-108046562D01*
X46679066Y-108036823D01*
X46692600Y-108036800D01*
X46811767Y-108028937D01*
X46860638Y-107984569D01*
X46870377Y-107872534D01*
X46870400Y-107859000D01*
X46862536Y-107739833D01*
X46818168Y-107690962D01*
X46706133Y-107681223D01*
X46692600Y-107681200D01*
X46573432Y-107673337D01*
X46524561Y-107628969D01*
X46514822Y-107516934D01*
X46514800Y-107503400D01*
X46506936Y-107384233D01*
X46462568Y-107335362D01*
X46350533Y-107325623D01*
X46337000Y-107325600D01*
X46159200Y-107325600D01*
X46159200Y-108036800D01*
X45448000Y-108036800D01*
X45448000Y-107859000D01*
X45440136Y-107739833D01*
X45395768Y-107690962D01*
X45283733Y-107681223D01*
X45270200Y-107681200D01*
X45092400Y-107681200D01*
X45092400Y-106970000D01*
X45270200Y-106970000D01*
X45389367Y-106962137D01*
X45438238Y-106917769D01*
X45447977Y-106805734D01*
X45448000Y-106792200D01*
X45455863Y-106673033D01*
X45500231Y-106624162D01*
X45612266Y-106614423D01*
X45625800Y-106614400D01*
X45744967Y-106622264D01*
X45793838Y-106666632D01*
X45803577Y-106778667D01*
X45803600Y-106792200D01*
X45803600Y-106970000D01*
X46514800Y-106970000D01*
X46514800Y-106792200D01*
X46522663Y-106673033D01*
X46567031Y-106624162D01*
X46679066Y-106614423D01*
X46692600Y-106614400D01*
X46870400Y-106614400D01*
X46870400Y-105903200D01*
X47048200Y-105903200D01*
X47167367Y-105895337D01*
X47216238Y-105850969D01*
X47225977Y-105738934D01*
X47226000Y-105725400D01*
X47233863Y-105606233D01*
X47278231Y-105557362D01*
X47390266Y-105547623D01*
X47403800Y-105547600D01*
X47522967Y-105555464D01*
X47571838Y-105599832D01*
X47581577Y-105711867D01*
X47581600Y-105725400D01*
X47589463Y-105844568D01*
X47633831Y-105893439D01*
X47745866Y-105903178D01*
X47759400Y-105903200D01*
X47878567Y-105895337D01*
X47927438Y-105850969D01*
X47937177Y-105738934D01*
X47937200Y-105725400D01*
X47945063Y-105606233D01*
X47989431Y-105557362D01*
X48101466Y-105547623D01*
X48115000Y-105547600D01*
X48234167Y-105555464D01*
X48283038Y-105599832D01*
X48292777Y-105711867D01*
X48292800Y-105725400D01*
X48284936Y-105844568D01*
X48240568Y-105893439D01*
X48128533Y-105903178D01*
X48115000Y-105903200D01*
X47995832Y-105911064D01*
X47946961Y-105955432D01*
X47937222Y-106067467D01*
X47937200Y-106081000D01*
X48648400Y-106081000D01*
X48656263Y-105961833D01*
X48700631Y-105912962D01*
X48812666Y-105903223D01*
X48826200Y-105903200D01*
X48945367Y-105895337D01*
X48994238Y-105850969D01*
X49003977Y-105738934D01*
X49004000Y-105725400D01*
X49004000Y-105547600D01*
X49715200Y-105547600D01*
X49715200Y-105725400D01*
X49723063Y-105844568D01*
X49767431Y-105893439D01*
X49879466Y-105903178D01*
X49893000Y-105903200D01*
X50012167Y-105911064D01*
X50061038Y-105955432D01*
X50070777Y-106067467D01*
X50070800Y-106081000D01*
X50062936Y-106200168D01*
X50018568Y-106249039D01*
X49906533Y-106258778D01*
X49893000Y-106258800D01*
X49773832Y-106250937D01*
X49724961Y-106206569D01*
X49715222Y-106094534D01*
X49715200Y-106081000D01*
X49715200Y-105903200D01*
X49004000Y-105903200D01*
X49004000Y-106081000D01*
X48996136Y-106200168D01*
X48951768Y-106249039D01*
X48839733Y-106258778D01*
X48826200Y-106258800D01*
X48707032Y-106250937D01*
X48658161Y-106206569D01*
X48648422Y-106094534D01*
X48648400Y-106081000D01*
X47937200Y-106081000D01*
X47945063Y-106200168D01*
X47989431Y-106249039D01*
X48101466Y-106258778D01*
X48115000Y-106258800D01*
X48234167Y-106266664D01*
X48283038Y-106311032D01*
X48292777Y-106423067D01*
X48292800Y-106436600D01*
X48292800Y-106614400D01*
X47581600Y-106614400D01*
X47581600Y-106436600D01*
X47573736Y-106317433D01*
X47529368Y-106268562D01*
X47417333Y-106258823D01*
X47403800Y-106258800D01*
X47284632Y-106266664D01*
X47235761Y-106311032D01*
X47226022Y-106423067D01*
X47226000Y-106436600D01*
X47218136Y-106555768D01*
X47173768Y-106604639D01*
X47061733Y-106614378D01*
X47048200Y-106614400D01*
X46929032Y-106622264D01*
X46880161Y-106666632D01*
X46870422Y-106778667D01*
X46870400Y-106792200D01*
X46862536Y-106911368D01*
X46818168Y-106960239D01*
X46706133Y-106969978D01*
X46692600Y-106970000D01*
X46573432Y-106977864D01*
X46524561Y-107022232D01*
X46514822Y-107134267D01*
X46514800Y-107147800D01*
X46522663Y-107266968D01*
X46567031Y-107315839D01*
X46679066Y-107325578D01*
X46692600Y-107325600D01*
X46811767Y-107333464D01*
X46860638Y-107377832D01*
X46870377Y-107489867D01*
X46870400Y-107503400D01*
X46878263Y-107622568D01*
X46922631Y-107671439D01*
X47034666Y-107681178D01*
X47048200Y-107681200D01*
X47167367Y-107673337D01*
X47216238Y-107628969D01*
X47225977Y-107516934D01*
X47226000Y-107503400D01*
X47233863Y-107384233D01*
X47278231Y-107335362D01*
X47390266Y-107325623D01*
X47403800Y-107325600D01*
X47581600Y-107325600D01*
X47581600Y-108036800D01*
X47403800Y-108036800D01*
X47284632Y-108044664D01*
X47235761Y-108089032D01*
X47226022Y-108201067D01*
X47226000Y-108214600D01*
X47233863Y-108333768D01*
X47278231Y-108382639D01*
X47390266Y-108392378D01*
X47403800Y-108392400D01*
X47522967Y-108400264D01*
X47571838Y-108444632D01*
X47581577Y-108556667D01*
X47581600Y-108570200D01*
X47573736Y-108689368D01*
X47529368Y-108738239D01*
X47417333Y-108747978D01*
X47403800Y-108748000D01*
X47284632Y-108755864D01*
X47235761Y-108800232D01*
X47226022Y-108912267D01*
X47226000Y-108925800D01*
X47218136Y-109044968D01*
X47173768Y-109093839D01*
X47061733Y-109103578D01*
X47048200Y-109103600D01*
X46929032Y-109095737D01*
X46880161Y-109051369D01*
X46870422Y-108939334D01*
X46870400Y-108925800D01*
X46862536Y-108806633D01*
X46818168Y-108757762D01*
X46706133Y-108748023D01*
X46692600Y-108748000D01*
X46573432Y-108755864D01*
X46524561Y-108800232D01*
X46514822Y-108912267D01*
X46514800Y-108925800D01*
X46506936Y-109044968D01*
X46462568Y-109093839D01*
X46350533Y-109103578D01*
X46337000Y-109103600D01*
X46217832Y-109111464D01*
X46168961Y-109155832D01*
X46159222Y-109267867D01*
X46159200Y-109281400D01*
X46159200Y-109459200D01*
X45092400Y-109459200D01*
X45092400Y-109281400D01*
X45084536Y-109162233D01*
X45040168Y-109113362D01*
X44928133Y-109103623D01*
X44914600Y-109103600D01*
X44736800Y-109103600D01*
X44203400Y-109103600D01*
X44084232Y-109095737D01*
X44035361Y-109051369D01*
X44025622Y-108939334D01*
X44025600Y-108925800D01*
X43314400Y-108925800D01*
X43314400Y-109103600D01*
X43492200Y-109103600D01*
X43611367Y-109111464D01*
X43660238Y-109155832D01*
X43669977Y-109267867D01*
X43670000Y-109281400D01*
X43662136Y-109400568D01*
X43617768Y-109449439D01*
X43505733Y-109459178D01*
X43492200Y-109459200D01*
X43373032Y-109467064D01*
X43324161Y-109511432D01*
X43314422Y-109623467D01*
X43314400Y-109637000D01*
X43314400Y-109814800D01*
X44736800Y-109814800D01*
X44736800Y-109637000D01*
X44744663Y-109517833D01*
X44789031Y-109468962D01*
X44901066Y-109459223D01*
X44914600Y-109459200D01*
X45033767Y-109467064D01*
X45082638Y-109511432D01*
X45092377Y-109623467D01*
X45092400Y-109637000D01*
X45092400Y-109814800D01*
X46514800Y-109814800D01*
X46514800Y-109103600D01*
X46692600Y-109103600D01*
X46811767Y-109111464D01*
X46860638Y-109155832D01*
X46870377Y-109267867D01*
X46870400Y-109281400D01*
X46878263Y-109400568D01*
X46922631Y-109449439D01*
X47034666Y-109459178D01*
X47048200Y-109459200D01*
X47167367Y-109467064D01*
X47216238Y-109511432D01*
X47225977Y-109623467D01*
X47226000Y-109637000D01*
X47226000Y-109814800D01*
X47937200Y-109814800D01*
X47937200Y-109459200D01*
X47226000Y-109459200D01*
X47226000Y-109281400D01*
X47233863Y-109162233D01*
X47278231Y-109113362D01*
X47390266Y-109103623D01*
X47403800Y-109103600D01*
X47522967Y-109095737D01*
X47571838Y-109051369D01*
X47581577Y-108939334D01*
X47581600Y-108925800D01*
X47589463Y-108806633D01*
X47633831Y-108757762D01*
X47745866Y-108748023D01*
X47759400Y-108748000D01*
X47878567Y-108740137D01*
X47927438Y-108695769D01*
X47937177Y-108583734D01*
X47937200Y-108570200D01*
X47929336Y-108451033D01*
X47884968Y-108402162D01*
X47772933Y-108392423D01*
X47759400Y-108392400D01*
X47640232Y-108384537D01*
X47591361Y-108340169D01*
X47581622Y-108228134D01*
X47581600Y-108214600D01*
X47589463Y-108095433D01*
X47633831Y-108046562D01*
X47745866Y-108036823D01*
X47759400Y-108036800D01*
X47937200Y-108036800D01*
X47937200Y-107325600D01*
X47759400Y-107325600D01*
X47640232Y-107317737D01*
X47591361Y-107273369D01*
X47581622Y-107161334D01*
X47581600Y-107147800D01*
X47581600Y-106970000D01*
X48292800Y-106970000D01*
X48292800Y-106792200D01*
X48300663Y-106673033D01*
X48345031Y-106624162D01*
X48457066Y-106614423D01*
X48470600Y-106614400D01*
X48589767Y-106622264D01*
X48638638Y-106666632D01*
X48648377Y-106778667D01*
X48648400Y-106792200D01*
X48656263Y-106911368D01*
X48700631Y-106960239D01*
X48812666Y-106969978D01*
X48826200Y-106970000D01*
X49004000Y-106970000D01*
X49004000Y-106258800D01*
X49715200Y-106258800D01*
X49715200Y-106436600D01*
X49707336Y-106555768D01*
X49662968Y-106604639D01*
X49550933Y-106614378D01*
X49537400Y-106614400D01*
X49418232Y-106622264D01*
X49369361Y-106666632D01*
X49359622Y-106778667D01*
X49359600Y-106792200D01*
X49367463Y-106911368D01*
X49411831Y-106960239D01*
X49523866Y-106969978D01*
X49537400Y-106970000D01*
X49656567Y-106962137D01*
X49705438Y-106917769D01*
X49715177Y-106805734D01*
X49715200Y-106792200D01*
X49723063Y-106673033D01*
X49767431Y-106624162D01*
X49879466Y-106614423D01*
X49893000Y-106614400D01*
X50012167Y-106622264D01*
X50061038Y-106666632D01*
X50070777Y-106778667D01*
X50070800Y-106792200D01*
X50078663Y-106911368D01*
X50123031Y-106960239D01*
X50235066Y-106969978D01*
X50248600Y-106970000D01*
X50367767Y-106962137D01*
X50416638Y-106917769D01*
X50426377Y-106805734D01*
X50426400Y-106792200D01*
X50434263Y-106673033D01*
X50478631Y-106624162D01*
X50590666Y-106614423D01*
X50604200Y-106614400D01*
X50723367Y-106606537D01*
X50772238Y-106562169D01*
X50781977Y-106450134D01*
X50782000Y-106436600D01*
X50774136Y-106317433D01*
X50729768Y-106268562D01*
X50617733Y-106258823D01*
X50604200Y-106258800D01*
X50485032Y-106250937D01*
X50436161Y-106206569D01*
X50426422Y-106094534D01*
X50426400Y-106081000D01*
X50418536Y-105961833D01*
X50374168Y-105912962D01*
X50262133Y-105903223D01*
X50248600Y-105903200D01*
X50129432Y-105895337D01*
X50080561Y-105850969D01*
X50070822Y-105738934D01*
X50070800Y-105725400D01*
X50062936Y-105606233D01*
X50018568Y-105557362D01*
X49906533Y-105547623D01*
X49893000Y-105547600D01*
X49773832Y-105539737D01*
X49724961Y-105495369D01*
X49715222Y-105383334D01*
X49715200Y-105369800D01*
X49715200Y-105192000D01*
X49004000Y-105192000D01*
X49004000Y-105547600D01*
X48292800Y-105547600D01*
X48292800Y-105369800D01*
X48300663Y-105250633D01*
X48345031Y-105201762D01*
X48457066Y-105192023D01*
X48470600Y-105192000D01*
X48589767Y-105184137D01*
X48638638Y-105139769D01*
X48648377Y-105027734D01*
X48648400Y-105014200D01*
X48640536Y-104895033D01*
X48596168Y-104846162D01*
X48484133Y-104836423D01*
X48470600Y-104836400D01*
X48292800Y-104836400D01*
X48292800Y-103769600D01*
X48470600Y-103769600D01*
X48648400Y-103769600D01*
X48648400Y-103414000D01*
X49359600Y-103414000D01*
X49359600Y-103769600D01*
X48648400Y-103769600D01*
X48470600Y-103769600D01*
X48589767Y-103777464D01*
X48638638Y-103821832D01*
X48648377Y-103933867D01*
X48648400Y-103947400D01*
X48648400Y-104125200D01*
X49359600Y-104125200D01*
X49359600Y-103947400D01*
X49367463Y-103828233D01*
X49411831Y-103779362D01*
X49523866Y-103769623D01*
X49537400Y-103769600D01*
X49715200Y-103769600D01*
X49715200Y-103058400D01*
X50070800Y-103058400D01*
X50070800Y-104125200D01*
X49893000Y-104125200D01*
X49773832Y-104133064D01*
X49724961Y-104177432D01*
X49715222Y-104289467D01*
X49715200Y-104303000D01*
X49723063Y-104422168D01*
X49767431Y-104471039D01*
X49879466Y-104480778D01*
X49893000Y-104480800D01*
X50070800Y-104480800D01*
X50070800Y-105192000D01*
X50782000Y-105192000D01*
X50782000Y-105014200D01*
X50774136Y-104895033D01*
X50729768Y-104846162D01*
X50617733Y-104836423D01*
X50604200Y-104836400D01*
X50485032Y-104828537D01*
X50436161Y-104784169D01*
X50426422Y-104672134D01*
X50426400Y-104658600D01*
X50418536Y-104539433D01*
X50374168Y-104490562D01*
X50262133Y-104480823D01*
X50248600Y-104480800D01*
X50129432Y-104472937D01*
X50080561Y-104428569D01*
X50070822Y-104316534D01*
X50070800Y-104303000D01*
X50078663Y-104183833D01*
X50123031Y-104134962D01*
X50235066Y-104125223D01*
X50248600Y-104125200D01*
X50367767Y-104117337D01*
X50416638Y-104072969D01*
X50426377Y-103960934D01*
X50426400Y-103947400D01*
X50434263Y-103828233D01*
X50478631Y-103779362D01*
X50590666Y-103769623D01*
X50604200Y-103769600D01*
X50723367Y-103761737D01*
X50772238Y-103717369D01*
X50781977Y-103605334D01*
X50782000Y-103591800D01*
X50774136Y-103472633D01*
X50729768Y-103423762D01*
X50617733Y-103414023D01*
X50604200Y-103414000D01*
X50485032Y-103406137D01*
X50436161Y-103361769D01*
X50426422Y-103249734D01*
X50426400Y-103236200D01*
X50418536Y-103117033D01*
X50374168Y-103068162D01*
X50262133Y-103058423D01*
X50248600Y-103058400D01*
X50129432Y-103050537D01*
X50080561Y-103006169D01*
X50070822Y-102894134D01*
X50070800Y-102880600D01*
X50078663Y-102761433D01*
X50123031Y-102712562D01*
X50235066Y-102702823D01*
X50248600Y-102702800D01*
X50367767Y-102694937D01*
X50416638Y-102650569D01*
X50426377Y-102538534D01*
X50426400Y-102525000D01*
X50434263Y-102405833D01*
X50478631Y-102356962D01*
X50590666Y-102347223D01*
X50604200Y-102347200D01*
X50723367Y-102339337D01*
X50772238Y-102294969D01*
X50781977Y-102182934D01*
X50782000Y-102169400D01*
X50774136Y-102050233D01*
X50729768Y-102001362D01*
X50617733Y-101991623D01*
X50604200Y-101991600D01*
X50485032Y-101983737D01*
X50436161Y-101939369D01*
X50426422Y-101827334D01*
X50426400Y-101813800D01*
X50418536Y-101694633D01*
X50374168Y-101645762D01*
X50262133Y-101636023D01*
X50248600Y-101636000D01*
X50129432Y-101628137D01*
X50080561Y-101583769D01*
X50070822Y-101471734D01*
X50070800Y-101458200D01*
X50062936Y-101339033D01*
X50018568Y-101290162D01*
X49906533Y-101280423D01*
X49893000Y-101280400D01*
X49773832Y-101272537D01*
X49724961Y-101228169D01*
X49715222Y-101116134D01*
X49715200Y-101102600D01*
X49723063Y-100983433D01*
X49767431Y-100934562D01*
X49879466Y-100924823D01*
X49893000Y-100924800D01*
X50012167Y-100916937D01*
X50061038Y-100872569D01*
X50070777Y-100760534D01*
X50070800Y-100747000D01*
X50078663Y-100627833D01*
X50123031Y-100578962D01*
X50235066Y-100569223D01*
X50248600Y-100569200D01*
X50426400Y-100569200D01*
X50426400Y-99858000D01*
X50782000Y-99858000D01*
X50782000Y-99858000D01*
G37*
X50782000Y-99858000D02*
X50782000Y-99146800D01*
X50070800Y-99146800D01*
X50070800Y-98435600D01*
X50248600Y-98435600D01*
X50367767Y-98427737D01*
X50416638Y-98383369D01*
X50426377Y-98271334D01*
X50426400Y-98257800D01*
X50418536Y-98138633D01*
X50374168Y-98089762D01*
X50262133Y-98080023D01*
X50248600Y-98080000D01*
X50129432Y-98087864D01*
X50080561Y-98132232D01*
X50070822Y-98244267D01*
X50070800Y-98257800D01*
X50062936Y-98376968D01*
X50018568Y-98425839D01*
X49906533Y-98435578D01*
X49893000Y-98435600D01*
X49773832Y-98427737D01*
X49724961Y-98383369D01*
X49715222Y-98271334D01*
X49715200Y-98257800D01*
X49707336Y-98138633D01*
X49662968Y-98089762D01*
X49550933Y-98080023D01*
X49537400Y-98080000D01*
X49359600Y-98080000D01*
X49359600Y-98791200D01*
X49537400Y-98791200D01*
X49656567Y-98799064D01*
X49705438Y-98843432D01*
X49715177Y-98955467D01*
X49715200Y-98969000D01*
X49715200Y-99146800D01*
X48648400Y-99146800D01*
X48648400Y-98435600D01*
X48470600Y-98435600D01*
X48351432Y-98427737D01*
X48302561Y-98383369D01*
X48292822Y-98271334D01*
X48292800Y-98257800D01*
X48292800Y-98080000D01*
X47226000Y-98080000D01*
X47226000Y-98435600D01*
X46159200Y-98435600D01*
X46159200Y-98257800D01*
X46151336Y-98138633D01*
X46106968Y-98089762D01*
X45994933Y-98080023D01*
X45981400Y-98080000D01*
X45803600Y-98080000D01*
X45803600Y-98791200D01*
X44381200Y-98791200D01*
X44381200Y-98613400D01*
X44373336Y-98494233D01*
X44328968Y-98445362D01*
X44216933Y-98435623D01*
X44203400Y-98435600D01*
X44084232Y-98443464D01*
X44035361Y-98487832D01*
X44025622Y-98599867D01*
X44025600Y-98613400D01*
X44033463Y-98732568D01*
X44077831Y-98781439D01*
X44189866Y-98791178D01*
X44203400Y-98791200D01*
X44322567Y-98799064D01*
X44371438Y-98843432D01*
X44381177Y-98955467D01*
X44381200Y-98969000D01*
X44389063Y-99088168D01*
X44433431Y-99137039D01*
X44545466Y-99146778D01*
X44559000Y-99146800D01*
X44678167Y-99154664D01*
X44727038Y-99199032D01*
X44736777Y-99311067D01*
X44736800Y-99324600D01*
X44736800Y-99502400D01*
X44025600Y-99502400D01*
X44025600Y-99680200D01*
X44736800Y-99680200D01*
X44744663Y-99561033D01*
X44789031Y-99512162D01*
X44901066Y-99502423D01*
X44914600Y-99502400D01*
X45033767Y-99494537D01*
X45082638Y-99450169D01*
X45092377Y-99338134D01*
X45092400Y-99324600D01*
X45100263Y-99205433D01*
X45144631Y-99156562D01*
X45256666Y-99146823D01*
X45270200Y-99146800D01*
X45803600Y-99146800D01*
X45803600Y-98791200D01*
X46514800Y-98791200D01*
X46514800Y-99146800D01*
X45803600Y-99146800D01*
X45270200Y-99146800D01*
X45389367Y-99154664D01*
X45438238Y-99199032D01*
X45447977Y-99311067D01*
X45448000Y-99324600D01*
X45448000Y-99502400D01*
X46870400Y-99502400D01*
X46870400Y-99146800D01*
X47581600Y-99146800D01*
X47581600Y-98969000D01*
X47573736Y-98849833D01*
X47529368Y-98800962D01*
X47417333Y-98791223D01*
X47403800Y-98791200D01*
X47284632Y-98783337D01*
X47235761Y-98738969D01*
X47226022Y-98626934D01*
X47226000Y-98613400D01*
X47226000Y-98435600D01*
X48292800Y-98435600D01*
X48292800Y-99146800D01*
X48470600Y-99146800D01*
X48589767Y-99154664D01*
X48638638Y-99199032D01*
X48648377Y-99311067D01*
X48648400Y-99324600D01*
X48640536Y-99443768D01*
X48596168Y-99492639D01*
X48484133Y-99502378D01*
X48470600Y-99502400D01*
X48351432Y-99494537D01*
X48302561Y-99450169D01*
X48292822Y-99338134D01*
X48292800Y-99324600D01*
X48284936Y-99205433D01*
X48240568Y-99156562D01*
X48128533Y-99146823D01*
X48115000Y-99146800D01*
X47995832Y-99154664D01*
X47946961Y-99199032D01*
X47937222Y-99311067D01*
X47937200Y-99324600D01*
X47929336Y-99443768D01*
X47884968Y-99492639D01*
X47772933Y-99502378D01*
X47759400Y-99502400D01*
X47640232Y-99510264D01*
X47591361Y-99554632D01*
X47581622Y-99666667D01*
X47581600Y-99680200D01*
X47573736Y-99799368D01*
X47529368Y-99848239D01*
X47417333Y-99857978D01*
X47403800Y-99858000D01*
X47284632Y-99865864D01*
X47235761Y-99910232D01*
X47226022Y-100022267D01*
X47226000Y-100035800D01*
X47218136Y-100154968D01*
X47173768Y-100203839D01*
X47061733Y-100213578D01*
X47048200Y-100213600D01*
X46929032Y-100205737D01*
X46880161Y-100161369D01*
X46870422Y-100049334D01*
X46870400Y-100035800D01*
X46870400Y-99858000D01*
X46159200Y-99858000D01*
X46159200Y-100569200D01*
X45448000Y-100569200D01*
X45448000Y-100391400D01*
X45440136Y-100272233D01*
X45395768Y-100223362D01*
X45283733Y-100213623D01*
X45270200Y-100213600D01*
X45151032Y-100205737D01*
X45102161Y-100161369D01*
X45092422Y-100049334D01*
X45092400Y-100035800D01*
X45084536Y-99916633D01*
X45040168Y-99867762D01*
X44928133Y-99858023D01*
X44914600Y-99858000D01*
X44795432Y-99850137D01*
X44746561Y-99805769D01*
X44736822Y-99693734D01*
X44736800Y-99680200D01*
X44025600Y-99680200D01*
X44017736Y-99799368D01*
X43973368Y-99848239D01*
X43861333Y-99857978D01*
X43847800Y-99858000D01*
X43728632Y-99850137D01*
X43679761Y-99805769D01*
X43670022Y-99693734D01*
X43670000Y-99680200D01*
X43662136Y-99561033D01*
X43617768Y-99512162D01*
X43505733Y-99502423D01*
X43492200Y-99502400D01*
X43314400Y-99502400D01*
X43314400Y-100035800D01*
X44025600Y-100035800D01*
X44033463Y-99916633D01*
X44077831Y-99867762D01*
X44189866Y-99858023D01*
X44203400Y-99858000D01*
X44322567Y-99865864D01*
X44371438Y-99910232D01*
X44381177Y-100022267D01*
X44381200Y-100035800D01*
X44373336Y-100154968D01*
X44328968Y-100203839D01*
X44216933Y-100213578D01*
X44203400Y-100213600D01*
X44084232Y-100205737D01*
X44035361Y-100161369D01*
X44025622Y-100049334D01*
X44025600Y-100035800D01*
X43314400Y-100035800D01*
X43314400Y-100213600D01*
X43492200Y-100213600D01*
X43611367Y-100221464D01*
X43660238Y-100265832D01*
X43669977Y-100377867D01*
X43670000Y-100391400D01*
X43662136Y-100510568D01*
X43617768Y-100559439D01*
X43505733Y-100569178D01*
X43492200Y-100569200D01*
X43373032Y-100577064D01*
X43324161Y-100621432D01*
X43314422Y-100733467D01*
X43314400Y-100747000D01*
X43306536Y-100866168D01*
X43262168Y-100915039D01*
X43150133Y-100924778D01*
X43136600Y-100924800D01*
X42958800Y-100924800D01*
X42958800Y-101636000D01*
X42247600Y-101636000D01*
X42247600Y-100569200D01*
X42425400Y-100569200D01*
X42544567Y-100561337D01*
X42593438Y-100516969D01*
X42603177Y-100404934D01*
X42603200Y-100391400D01*
X42603200Y-100213600D01*
X41892000Y-100213600D01*
X41892000Y-101636000D01*
X41180800Y-101636000D01*
X41180800Y-101458200D01*
X41188663Y-101339033D01*
X41233031Y-101290162D01*
X41345066Y-101280423D01*
X41358600Y-101280400D01*
X41477767Y-101272537D01*
X41526638Y-101228169D01*
X41536377Y-101116134D01*
X41536400Y-101102600D01*
X41536400Y-100924800D01*
X39758400Y-100924800D01*
X39758400Y-101636000D01*
X40469600Y-101636000D01*
X40469600Y-102347200D01*
X40647400Y-102347200D01*
X40766567Y-102355064D01*
X40815438Y-102399432D01*
X40825177Y-102511467D01*
X40825200Y-102525000D01*
X40817336Y-102644168D01*
X40772968Y-102693039D01*
X40660933Y-102702778D01*
X40647400Y-102702800D01*
X40469600Y-102702800D01*
X40469600Y-103414000D01*
X40291800Y-103414000D01*
X40172632Y-103421864D01*
X40123761Y-103466232D01*
X40114022Y-103578267D01*
X40114000Y-103591800D01*
X40106136Y-103710968D01*
X40061768Y-103759839D01*
X39949733Y-103769578D01*
X39936200Y-103769600D01*
X39758400Y-103769600D01*
X39758400Y-102702800D01*
X39936200Y-102702800D01*
X40055367Y-102694937D01*
X40104238Y-102650569D01*
X40113977Y-102538534D01*
X40114000Y-102525000D01*
X40106136Y-102405833D01*
X40061768Y-102356962D01*
X39949733Y-102347223D01*
X39936200Y-102347200D01*
X39817032Y-102339337D01*
X39768161Y-102294969D01*
X39758422Y-102182934D01*
X39758400Y-102169400D01*
X39750536Y-102050233D01*
X39706168Y-102001362D01*
X39594133Y-101991623D01*
X39580600Y-101991600D01*
X39402800Y-101991600D01*
X39402800Y-100924800D01*
X39047200Y-100924800D01*
X39047200Y-102525000D01*
X39402800Y-102525000D01*
X39410663Y-102405833D01*
X39455031Y-102356962D01*
X39567066Y-102347223D01*
X39580600Y-102347200D01*
X39699767Y-102355064D01*
X39748638Y-102399432D01*
X39758377Y-102511467D01*
X39758400Y-102525000D01*
X39750536Y-102644168D01*
X39706168Y-102693039D01*
X39594133Y-102702778D01*
X39580600Y-102702800D01*
X39461432Y-102694937D01*
X39412561Y-102650569D01*
X39402822Y-102538534D01*
X39402800Y-102525000D01*
X39047200Y-102525000D01*
X39047200Y-102702800D01*
X39402800Y-102702800D01*
X39402800Y-103414000D01*
X39047200Y-103414000D01*
X39047200Y-104125200D01*
X39225000Y-104125200D01*
X39344167Y-104133064D01*
X39393038Y-104177432D01*
X39402777Y-104289467D01*
X39402800Y-104303000D01*
X39394936Y-104422168D01*
X39350568Y-104471039D01*
X39238533Y-104480778D01*
X39225000Y-104480800D01*
X39105832Y-104488664D01*
X39056961Y-104533032D01*
X39047222Y-104645067D01*
X39047200Y-104658600D01*
X39055063Y-104777768D01*
X39099431Y-104826639D01*
X39211466Y-104836378D01*
X39225000Y-104836400D01*
X39344167Y-104844264D01*
X39393038Y-104888632D01*
X39402777Y-105000667D01*
X39402800Y-105014200D01*
X39758400Y-105014200D01*
X39766263Y-104895033D01*
X39810631Y-104846162D01*
X39922666Y-104836423D01*
X39936200Y-104836400D01*
X40114000Y-104836400D01*
X40114000Y-103769600D01*
X40291800Y-103769600D01*
X40410967Y-103761737D01*
X40459838Y-103717369D01*
X40469577Y-103605334D01*
X40469600Y-103591800D01*
X40477463Y-103472633D01*
X40521831Y-103423762D01*
X40633866Y-103414023D01*
X40647400Y-103414000D01*
X40766567Y-103406137D01*
X40815438Y-103361769D01*
X40825177Y-103249734D01*
X40825200Y-103236200D01*
X40833063Y-103117033D01*
X40877431Y-103068162D01*
X40989466Y-103058423D01*
X41003000Y-103058400D01*
X41122167Y-103050537D01*
X41171038Y-103006169D01*
X41180777Y-102894134D01*
X41180800Y-102880600D01*
X41188663Y-102761433D01*
X41233031Y-102712562D01*
X41345066Y-102702823D01*
X41358600Y-102702800D01*
X41477767Y-102694937D01*
X41526638Y-102650569D01*
X41536377Y-102538534D01*
X41536400Y-102525000D01*
X41536400Y-102347200D01*
X40825200Y-102347200D01*
X40825200Y-101636000D01*
X41003000Y-101636000D01*
X41122167Y-101643864D01*
X41171038Y-101688232D01*
X41180777Y-101800267D01*
X41180800Y-101813800D01*
X41180800Y-101991600D01*
X41892000Y-101991600D01*
X41892000Y-101813800D01*
X41899863Y-101694633D01*
X41944231Y-101645762D01*
X42056266Y-101636023D01*
X42069800Y-101636000D01*
X42188967Y-101643864D01*
X42237838Y-101688232D01*
X42247577Y-101800267D01*
X42247600Y-101813800D01*
X42247600Y-101991600D01*
X43670000Y-101991600D01*
X43670000Y-101813800D01*
X43662136Y-101694633D01*
X43617768Y-101645762D01*
X43505733Y-101636023D01*
X43492200Y-101636000D01*
X43314400Y-101636000D01*
X43314400Y-100924800D01*
X44381200Y-100924800D01*
X44381200Y-100747000D01*
X44389063Y-100627833D01*
X44433431Y-100578962D01*
X44545466Y-100569223D01*
X44559000Y-100569200D01*
X44678167Y-100577064D01*
X44727038Y-100621432D01*
X44736777Y-100733467D01*
X44736800Y-100747000D01*
X44728936Y-100866168D01*
X44684568Y-100915039D01*
X44572533Y-100924778D01*
X44559000Y-100924800D01*
X44439832Y-100932664D01*
X44390961Y-100977032D01*
X44381222Y-101089067D01*
X44381200Y-101102600D01*
X44373336Y-101221768D01*
X44328968Y-101270639D01*
X44216933Y-101280378D01*
X44203400Y-101280400D01*
X44084232Y-101288264D01*
X44035361Y-101332632D01*
X44025622Y-101444667D01*
X44025600Y-101458200D01*
X44033463Y-101577368D01*
X44077831Y-101626239D01*
X44189866Y-101635978D01*
X44203400Y-101636000D01*
X44322567Y-101643864D01*
X44371438Y-101688232D01*
X44381177Y-101800267D01*
X44381200Y-101813800D01*
X44389063Y-101932968D01*
X44433431Y-101981839D01*
X44545466Y-101991578D01*
X44559000Y-101991600D01*
X44678167Y-101983737D01*
X44727038Y-101939369D01*
X44736777Y-101827334D01*
X44736800Y-101813800D01*
X44744663Y-101694633D01*
X44789031Y-101645762D01*
X44901066Y-101636023D01*
X44914600Y-101636000D01*
X45033767Y-101628137D01*
X45082638Y-101583769D01*
X45092377Y-101471734D01*
X45092400Y-101458200D01*
X45100263Y-101339033D01*
X45144631Y-101290162D01*
X45256666Y-101280423D01*
X45270200Y-101280400D01*
X45389367Y-101272537D01*
X45438238Y-101228169D01*
X45447977Y-101116134D01*
X45448000Y-101102600D01*
X45448000Y-100924800D01*
X46870400Y-100924800D01*
X46870400Y-101280400D01*
X46159200Y-101280400D01*
X46159200Y-101458200D01*
X46167063Y-101577368D01*
X46211431Y-101626239D01*
X46323466Y-101635978D01*
X46337000Y-101636000D01*
X46456167Y-101643864D01*
X46505038Y-101688232D01*
X46514777Y-101800267D01*
X46514800Y-101813800D01*
X46514800Y-101991600D01*
X45803600Y-101991600D01*
X45803600Y-102169400D01*
X45811463Y-102288568D01*
X45855831Y-102337439D01*
X45967866Y-102347178D01*
X45981400Y-102347200D01*
X46159200Y-102347200D01*
X46159200Y-102525000D01*
X46514800Y-102525000D01*
X46522663Y-102405833D01*
X46567031Y-102356962D01*
X46679066Y-102347223D01*
X46692600Y-102347200D01*
X46870400Y-102347200D01*
X46870400Y-101636000D01*
X47226000Y-101636000D01*
X47226000Y-100569200D01*
X47581600Y-100569200D01*
X47581600Y-100924800D01*
X47937200Y-100924800D01*
X47937200Y-99858000D01*
X49004000Y-99858000D01*
X49715200Y-99858000D01*
X49715200Y-99502400D01*
X50426400Y-99502400D01*
X50426400Y-99858000D01*
X49715200Y-99858000D01*
X49004000Y-99858000D01*
X49004000Y-100747000D01*
X49359600Y-100747000D01*
X49367463Y-100627833D01*
X49411831Y-100578962D01*
X49523866Y-100569223D01*
X49537400Y-100569200D01*
X49656567Y-100561337D01*
X49705438Y-100516969D01*
X49715177Y-100404934D01*
X49715200Y-100391400D01*
X49723063Y-100272233D01*
X49767431Y-100223362D01*
X49879466Y-100213623D01*
X49893000Y-100213600D01*
X50012167Y-100221464D01*
X50061038Y-100265832D01*
X50070777Y-100377867D01*
X50070800Y-100391400D01*
X50062936Y-100510568D01*
X50018568Y-100559439D01*
X49906533Y-100569178D01*
X49893000Y-100569200D01*
X49773832Y-100577064D01*
X49724961Y-100621432D01*
X49715222Y-100733467D01*
X49715200Y-100747000D01*
X49707336Y-100866168D01*
X49662968Y-100915039D01*
X49550933Y-100924778D01*
X49537400Y-100924800D01*
X49418232Y-100916937D01*
X49369361Y-100872569D01*
X49359622Y-100760534D01*
X49359600Y-100747000D01*
X49004000Y-100747000D01*
X49004000Y-100924800D01*
X47937200Y-100924800D01*
X47581600Y-100924800D01*
X47581600Y-101280400D01*
X47937200Y-101280400D01*
X47937200Y-101991600D01*
X48115000Y-101991600D01*
X48234167Y-101983737D01*
X48283038Y-101939369D01*
X48292777Y-101827334D01*
X48292800Y-101813800D01*
X48300663Y-101694633D01*
X48345031Y-101645762D01*
X48457066Y-101636023D01*
X48470600Y-101636000D01*
X48589767Y-101628137D01*
X48638638Y-101583769D01*
X48648377Y-101471734D01*
X48648400Y-101458200D01*
X48656263Y-101339033D01*
X48700631Y-101290162D01*
X48812666Y-101280423D01*
X48826200Y-101280400D01*
X49004000Y-101280400D01*
X49004000Y-101991600D01*
X49181800Y-101991600D01*
X49300967Y-101999464D01*
X49349838Y-102043832D01*
X49359577Y-102155867D01*
X49359600Y-102169400D01*
X49367463Y-102288568D01*
X49411831Y-102337439D01*
X49523866Y-102347178D01*
X49537400Y-102347200D01*
X49715200Y-102347200D01*
X49715200Y-101636000D01*
X50070800Y-101636000D01*
X50070800Y-102702800D01*
X49893000Y-102702800D01*
X49773832Y-102710664D01*
X49724961Y-102755032D01*
X49715222Y-102867067D01*
X49715200Y-102880600D01*
X49715200Y-103058400D01*
X49004000Y-103058400D01*
X49004000Y-102702800D01*
X48292800Y-102702800D01*
X48292800Y-102880600D01*
X48284936Y-102999768D01*
X48240568Y-103048639D01*
X48128533Y-103058378D01*
X48115000Y-103058400D01*
X47995832Y-103066264D01*
X47946961Y-103110632D01*
X47937222Y-103222667D01*
X47937200Y-103236200D01*
X47945063Y-103355368D01*
X47989431Y-103404239D01*
X48101466Y-103413978D01*
X48115000Y-103414000D01*
X48234167Y-103421864D01*
X48283038Y-103466232D01*
X48292777Y-103578267D01*
X48292800Y-103591800D01*
X48284936Y-103710968D01*
X48240568Y-103759839D01*
X48128533Y-103769578D01*
X48115000Y-103769600D01*
X47995832Y-103777464D01*
X47946961Y-103821832D01*
X47937222Y-103933867D01*
X47937200Y-103947400D01*
X47937200Y-104125200D01*
X47226000Y-104125200D01*
X47226000Y-103947400D01*
X47233863Y-103828233D01*
X47278231Y-103779362D01*
X47390266Y-103769623D01*
X47403800Y-103769600D01*
X47522967Y-103761737D01*
X47571838Y-103717369D01*
X47581577Y-103605334D01*
X47581600Y-103591800D01*
X47573736Y-103472633D01*
X47529368Y-103423762D01*
X47417333Y-103414023D01*
X47403800Y-103414000D01*
X47284632Y-103406137D01*
X47235761Y-103361769D01*
X47226022Y-103249734D01*
X47226000Y-103236200D01*
X47218136Y-103117033D01*
X47173768Y-103068162D01*
X47061733Y-103058423D01*
X47048200Y-103058400D01*
X46929032Y-103050537D01*
X46880161Y-103006169D01*
X46870422Y-102894134D01*
X46870400Y-102880600D01*
X46862536Y-102761433D01*
X46818168Y-102712562D01*
X46706133Y-102702823D01*
X46692600Y-102702800D01*
X46573432Y-102694937D01*
X46524561Y-102650569D01*
X46514822Y-102538534D01*
X46514800Y-102525000D01*
X46159200Y-102525000D01*
X46159200Y-103414000D01*
X44736800Y-103414000D01*
X44736800Y-104125200D01*
X45803600Y-104125200D01*
X46159200Y-104125200D01*
X46159200Y-103414000D01*
X46337000Y-103414000D01*
X46456167Y-103421864D01*
X46505038Y-103466232D01*
X46514777Y-103578267D01*
X46514800Y-103591800D01*
X46522663Y-103710968D01*
X46567031Y-103759839D01*
X46679066Y-103769578D01*
X46692600Y-103769600D01*
X46811767Y-103777464D01*
X46860638Y-103821832D01*
X46870377Y-103933867D01*
X46870400Y-103947400D01*
X46870400Y-104125200D01*
X46159200Y-104125200D01*
X45803600Y-104125200D01*
X45803600Y-104303000D01*
X45811463Y-104422168D01*
X45855831Y-104471039D01*
X45967866Y-104480778D01*
X45981400Y-104480800D01*
X46100567Y-104488664D01*
X46149438Y-104533032D01*
X46159177Y-104645067D01*
X46159200Y-104658600D01*
X46159200Y-104836400D01*
X46514800Y-104836400D01*
X46514800Y-104480800D01*
X47581600Y-104480800D01*
X47581600Y-104836400D01*
X46514800Y-104836400D01*
X46159200Y-104836400D01*
X45448000Y-104836400D01*
X45448000Y-105192000D01*
X46870400Y-105192000D01*
X47581600Y-105192000D01*
X47581600Y-104836400D01*
X48292800Y-104836400D01*
X48292800Y-105192000D01*
X47581600Y-105192000D01*
X46870400Y-105192000D01*
X46870400Y-105369800D01*
X46862536Y-105488968D01*
X46818168Y-105537839D01*
X46706133Y-105547578D01*
X46692600Y-105547600D01*
X46573432Y-105555464D01*
X46524561Y-105599832D01*
X46514822Y-105711867D01*
X46514800Y-105725400D01*
X46506936Y-105844568D01*
X46462568Y-105893439D01*
X46350533Y-105903178D01*
X46337000Y-105903200D01*
X46217832Y-105911064D01*
X46168961Y-105955432D01*
X46159222Y-106067467D01*
X46159200Y-106081000D01*
X46159200Y-106258800D01*
X45448000Y-106258800D01*
X45448000Y-106081000D01*
X45440136Y-105961833D01*
X45395768Y-105912962D01*
X45283733Y-105903223D01*
X45270200Y-105903200D01*
X45151032Y-105895337D01*
X45102161Y-105850969D01*
X45092422Y-105738934D01*
X45092400Y-105725400D01*
X45084536Y-105606233D01*
X45040168Y-105557362D01*
X44928133Y-105547623D01*
X44914600Y-105547600D01*
X44795432Y-105555464D01*
X44746561Y-105599832D01*
X44736822Y-105711867D01*
X44736800Y-105725400D01*
X44736800Y-105903200D01*
X44025600Y-105903200D01*
X44025600Y-105725400D01*
X44017736Y-105606233D01*
X43973368Y-105557362D01*
X43861333Y-105547623D01*
X43847800Y-105547600D01*
X43728632Y-105539737D01*
X43679761Y-105495369D01*
X43670022Y-105383334D01*
X43670000Y-105369800D01*
X43662136Y-105250633D01*
X43617768Y-105201762D01*
X43505733Y-105192023D01*
X43492200Y-105192000D01*
X43314400Y-105192000D01*
X43314400Y-105903200D01*
X43492200Y-105903200D01*
X43611367Y-105911064D01*
X43660238Y-105955432D01*
X43669977Y-106067467D01*
X43670000Y-106081000D01*
X43662136Y-106200168D01*
X43617768Y-106249039D01*
X43505733Y-106258778D01*
X43492200Y-106258800D01*
X43373032Y-106266664D01*
X43324161Y-106311032D01*
X43314422Y-106423067D01*
X43314400Y-106436600D01*
X43306536Y-106555768D01*
X43262168Y-106604639D01*
X43150133Y-106614378D01*
X43136600Y-106614400D01*
X43017432Y-106622264D01*
X42968561Y-106666632D01*
X42958822Y-106778667D01*
X42958800Y-106792200D01*
X42950936Y-106911368D01*
X42906568Y-106960239D01*
X42794533Y-106969978D01*
X42781000Y-106970000D01*
X42661832Y-106962137D01*
X42612961Y-106917769D01*
X42603222Y-106805734D01*
X42603200Y-106792200D01*
X42595336Y-106673033D01*
X42550968Y-106624162D01*
X42438933Y-106614423D01*
X42425400Y-106614400D01*
X42306232Y-106606537D01*
X42257361Y-106562169D01*
X42247622Y-106450134D01*
X42247600Y-106436600D01*
X42239736Y-106317433D01*
X42195368Y-106268562D01*
X42083333Y-106258823D01*
X42069800Y-106258800D01*
X41892000Y-106258800D01*
X41892000Y-105547600D01*
X41714200Y-105547600D01*
X41595032Y-105555464D01*
X41546161Y-105599832D01*
X41536422Y-105711867D01*
X41536400Y-105725400D01*
X41528536Y-105844568D01*
X41484168Y-105893439D01*
X41372133Y-105903178D01*
X41358600Y-105903200D01*
X41239432Y-105895337D01*
X41190561Y-105850969D01*
X41180822Y-105738934D01*
X41180800Y-105725400D01*
X41188663Y-105606233D01*
X41233031Y-105557362D01*
X41345066Y-105547623D01*
X41358600Y-105547600D01*
X41477767Y-105539737D01*
X41526638Y-105495369D01*
X41536377Y-105383334D01*
X41536400Y-105369800D01*
X41536400Y-105192000D01*
X40469600Y-105192000D01*
X40469600Y-105369800D01*
X40461736Y-105488968D01*
X40417368Y-105537839D01*
X40305333Y-105547578D01*
X40291800Y-105547600D01*
X40172632Y-105539737D01*
X40123761Y-105495369D01*
X40114022Y-105383334D01*
X40114000Y-105369800D01*
X40106136Y-105250633D01*
X40061768Y-105201762D01*
X39949733Y-105192023D01*
X39936200Y-105192000D01*
X39817032Y-105184137D01*
X39768161Y-105139769D01*
X39758422Y-105027734D01*
X39758400Y-105014200D01*
X39402800Y-105014200D01*
X39410663Y-105133368D01*
X39455031Y-105182239D01*
X39567066Y-105191978D01*
X39580600Y-105192000D01*
X39758400Y-105192000D01*
X39758400Y-105903200D01*
X39580600Y-105903200D01*
X39461432Y-105895337D01*
X39412561Y-105850969D01*
X39402822Y-105738934D01*
X39402800Y-105725400D01*
X39394936Y-105606233D01*
X39350568Y-105557362D01*
X39238533Y-105547623D01*
X39225000Y-105547600D01*
X39105832Y-105555464D01*
X39056961Y-105599832D01*
X39047222Y-105711867D01*
X39047200Y-105725400D01*
X39055063Y-105844568D01*
X39099431Y-105893439D01*
X39211466Y-105903178D01*
X39225000Y-105903200D01*
X39344167Y-105911064D01*
X39393038Y-105955432D01*
X39402777Y-106067467D01*
X39402800Y-106081000D01*
X39394936Y-106200168D01*
X39350568Y-106249039D01*
X39238533Y-106258778D01*
X39225000Y-106258800D01*
X39047200Y-106258800D01*
X39047200Y-106614400D01*
X39758400Y-106614400D01*
X39758400Y-106258800D01*
X40469600Y-106258800D01*
X40469600Y-106081000D01*
X40477463Y-105961833D01*
X40521831Y-105912962D01*
X40633866Y-105903223D01*
X40647400Y-105903200D01*
X40825200Y-105903200D01*
X40825200Y-106436600D01*
X41180800Y-106436600D01*
X41188663Y-106317433D01*
X41233031Y-106268562D01*
X41345066Y-106258823D01*
X41358600Y-106258800D01*
X41477767Y-106266664D01*
X41526638Y-106311032D01*
X41536377Y-106423067D01*
X41536400Y-106436600D01*
X41528536Y-106555768D01*
X41484168Y-106604639D01*
X41372133Y-106614378D01*
X41358600Y-106614400D01*
X41239432Y-106606537D01*
X41190561Y-106562169D01*
X41180822Y-106450134D01*
X41180800Y-106436600D01*
X40825200Y-106436600D01*
X40825200Y-106614400D01*
X39758400Y-106614400D01*
X39047200Y-106614400D01*
X39047200Y-106970000D01*
X40825200Y-106970000D01*
X40825200Y-106792200D01*
X40833063Y-106673033D01*
X40877431Y-106624162D01*
X40989466Y-106614423D01*
X41003000Y-106614400D01*
X41122167Y-106622264D01*
X41171038Y-106666632D01*
X41180777Y-106778667D01*
X41180800Y-106792200D01*
X41180800Y-106970000D01*
X42247600Y-106970000D01*
X42247600Y-107147800D01*
X42239736Y-107266968D01*
X42195368Y-107315839D01*
X42083333Y-107325578D01*
X42069800Y-107325600D01*
X41892000Y-107325600D01*
X41892000Y-107503400D01*
X42247600Y-107503400D01*
X42255463Y-107384233D01*
X42299831Y-107335362D01*
X42411866Y-107325623D01*
X42425400Y-107325600D01*
X42544567Y-107333464D01*
X42593438Y-107377832D01*
X42603177Y-107489867D01*
X42603200Y-107503400D01*
X42958800Y-107503400D01*
X42966663Y-107384233D01*
X43011031Y-107335362D01*
X43123066Y-107325623D01*
X43136600Y-107325600D01*
X43255767Y-107333464D01*
X43304638Y-107377832D01*
X43314377Y-107489867D01*
X43314400Y-107503400D01*
X43306536Y-107622568D01*
X43262168Y-107671439D01*
X43150133Y-107681178D01*
X43136600Y-107681200D01*
X43017432Y-107673337D01*
X42968561Y-107628969D01*
X42958822Y-107516934D01*
X42958800Y-107503400D01*
X42603200Y-107503400D01*
X42595336Y-107622568D01*
X42550968Y-107671439D01*
X42438933Y-107681178D01*
X42425400Y-107681200D01*
X42306232Y-107673337D01*
X42257361Y-107628969D01*
X42247622Y-107516934D01*
X42247600Y-107503400D01*
X41892000Y-107503400D01*
X41892000Y-108036800D01*
X42069800Y-108036800D01*
X42188967Y-108044664D01*
X42237838Y-108089032D01*
X42247577Y-108201067D01*
X42247600Y-108214600D01*
X42239736Y-108333768D01*
X42195368Y-108382639D01*
X42083333Y-108392378D01*
X42069800Y-108392400D01*
X41950632Y-108400264D01*
X41901761Y-108444632D01*
X41892022Y-108556667D01*
X41892000Y-108570200D01*
X41892000Y-108748000D01*
X42958800Y-108748000D01*
X42958800Y-108570200D01*
X42950936Y-108451033D01*
X42906568Y-108402162D01*
X42794533Y-108392423D01*
X42781000Y-108392400D01*
X42603200Y-108392400D01*
X42603200Y-107681200D01*
X42781000Y-107681200D01*
X42900167Y-107689064D01*
X42949038Y-107733432D01*
X42958777Y-107845467D01*
X42958800Y-107859000D01*
X42958800Y-108036800D01*
X43670000Y-108036800D01*
X43670000Y-107325600D01*
X43314400Y-107325600D01*
X43314400Y-106614400D01*
X44736800Y-106614400D01*
X44736800Y-106436600D01*
X44744663Y-106317433D01*
X44789031Y-106268562D01*
X44901066Y-106258823D01*
X44914600Y-106258800D01*
X45092400Y-106258800D01*
X45092400Y-106970000D01*
X44736800Y-106970000D01*
X44736800Y-107681200D01*
X44914600Y-107681200D01*
X45033767Y-107689064D01*
X45082638Y-107733432D01*
X45092377Y-107845467D01*
X45092400Y-107859000D01*
X45092400Y-108036800D01*
X44381200Y-108036800D01*
X44381200Y-108214600D01*
X44373336Y-108333768D01*
X44328968Y-108382639D01*
X44216933Y-108392378D01*
X44203400Y-108392400D01*
X44084232Y-108400264D01*
X44035361Y-108444632D01*
X44025622Y-108556667D01*
X44025600Y-108570200D01*
X44017736Y-108689368D01*
X43973368Y-108738239D01*
X43861333Y-108747978D01*
X43847800Y-108748000D01*
X43728632Y-108740137D01*
X43679761Y-108695769D01*
X43670022Y-108583734D01*
X43670000Y-108570200D01*
X43662136Y-108451033D01*
X43617768Y-108402162D01*
X43505733Y-108392423D01*
X43492200Y-108392400D01*
X43314400Y-108392400D01*
X43314400Y-108925800D01*
X44025600Y-108925800D01*
X44033463Y-108806633D01*
X44077831Y-108757762D01*
X44189866Y-108748023D01*
X44203400Y-108748000D01*
X44322567Y-108755864D01*
X44371438Y-108800232D01*
X44381177Y-108912267D01*
X44381200Y-108925800D01*
X44373336Y-109044968D01*
X44328968Y-109093839D01*
X44216933Y-109103578D01*
X44203400Y-109103600D01*
X44736800Y-109103600D01*
X44736800Y-108392400D01*
X44914600Y-108392400D01*
X45033767Y-108400264D01*
X45082638Y-108444632D01*
X45092377Y-108556667D01*
X45092400Y-108570200D01*
X45100263Y-108689368D01*
X45144631Y-108738239D01*
X45256666Y-108747978D01*
X45270200Y-108748000D01*
X45389367Y-108740137D01*
X45438238Y-108695769D01*
X45447977Y-108583734D01*
X45448000Y-108570200D01*
X45448000Y-108392400D01*
X46514800Y-108392400D01*
X46514800Y-108214600D01*
X46522663Y-108095433D01*
X46567031Y-108046562D01*
X46679066Y-108036823D01*
X46692600Y-108036800D01*
X46811767Y-108028937D01*
X46860638Y-107984569D01*
X46870377Y-107872534D01*
X46870400Y-107859000D01*
X46862536Y-107739833D01*
X46818168Y-107690962D01*
X46706133Y-107681223D01*
X46692600Y-107681200D01*
X46573432Y-107673337D01*
X46524561Y-107628969D01*
X46514822Y-107516934D01*
X46514800Y-107503400D01*
X46506936Y-107384233D01*
X46462568Y-107335362D01*
X46350533Y-107325623D01*
X46337000Y-107325600D01*
X46159200Y-107325600D01*
X46159200Y-108036800D01*
X45448000Y-108036800D01*
X45448000Y-107859000D01*
X45440136Y-107739833D01*
X45395768Y-107690962D01*
X45283733Y-107681223D01*
X45270200Y-107681200D01*
X45092400Y-107681200D01*
X45092400Y-106970000D01*
X45270200Y-106970000D01*
X45389367Y-106962137D01*
X45438238Y-106917769D01*
X45447977Y-106805734D01*
X45448000Y-106792200D01*
X45455863Y-106673033D01*
X45500231Y-106624162D01*
X45612266Y-106614423D01*
X45625800Y-106614400D01*
X45744967Y-106622264D01*
X45793838Y-106666632D01*
X45803577Y-106778667D01*
X45803600Y-106792200D01*
X45803600Y-106970000D01*
X46514800Y-106970000D01*
X46514800Y-106792200D01*
X46522663Y-106673033D01*
X46567031Y-106624162D01*
X46679066Y-106614423D01*
X46692600Y-106614400D01*
X46870400Y-106614400D01*
X46870400Y-105903200D01*
X47048200Y-105903200D01*
X47167367Y-105895337D01*
X47216238Y-105850969D01*
X47225977Y-105738934D01*
X47226000Y-105725400D01*
X47233863Y-105606233D01*
X47278231Y-105557362D01*
X47390266Y-105547623D01*
X47403800Y-105547600D01*
X47522967Y-105555464D01*
X47571838Y-105599832D01*
X47581577Y-105711867D01*
X47581600Y-105725400D01*
X47589463Y-105844568D01*
X47633831Y-105893439D01*
X47745866Y-105903178D01*
X47759400Y-105903200D01*
X47878567Y-105895337D01*
X47927438Y-105850969D01*
X47937177Y-105738934D01*
X47937200Y-105725400D01*
X47945063Y-105606233D01*
X47989431Y-105557362D01*
X48101466Y-105547623D01*
X48115000Y-105547600D01*
X48234167Y-105555464D01*
X48283038Y-105599832D01*
X48292777Y-105711867D01*
X48292800Y-105725400D01*
X48284936Y-105844568D01*
X48240568Y-105893439D01*
X48128533Y-105903178D01*
X48115000Y-105903200D01*
X47995832Y-105911064D01*
X47946961Y-105955432D01*
X47937222Y-106067467D01*
X47937200Y-106081000D01*
X48648400Y-106081000D01*
X48656263Y-105961833D01*
X48700631Y-105912962D01*
X48812666Y-105903223D01*
X48826200Y-105903200D01*
X48945367Y-105895337D01*
X48994238Y-105850969D01*
X49003977Y-105738934D01*
X49004000Y-105725400D01*
X49004000Y-105547600D01*
X49715200Y-105547600D01*
X49715200Y-105725400D01*
X49723063Y-105844568D01*
X49767431Y-105893439D01*
X49879466Y-105903178D01*
X49893000Y-105903200D01*
X50012167Y-105911064D01*
X50061038Y-105955432D01*
X50070777Y-106067467D01*
X50070800Y-106081000D01*
X50062936Y-106200168D01*
X50018568Y-106249039D01*
X49906533Y-106258778D01*
X49893000Y-106258800D01*
X49773832Y-106250937D01*
X49724961Y-106206569D01*
X49715222Y-106094534D01*
X49715200Y-106081000D01*
X49715200Y-105903200D01*
X49004000Y-105903200D01*
X49004000Y-106081000D01*
X48996136Y-106200168D01*
X48951768Y-106249039D01*
X48839733Y-106258778D01*
X48826200Y-106258800D01*
X48707032Y-106250937D01*
X48658161Y-106206569D01*
X48648422Y-106094534D01*
X48648400Y-106081000D01*
X47937200Y-106081000D01*
X47945063Y-106200168D01*
X47989431Y-106249039D01*
X48101466Y-106258778D01*
X48115000Y-106258800D01*
X48234167Y-106266664D01*
X48283038Y-106311032D01*
X48292777Y-106423067D01*
X48292800Y-106436600D01*
X48292800Y-106614400D01*
X47581600Y-106614400D01*
X47581600Y-106436600D01*
X47573736Y-106317433D01*
X47529368Y-106268562D01*
X47417333Y-106258823D01*
X47403800Y-106258800D01*
X47284632Y-106266664D01*
X47235761Y-106311032D01*
X47226022Y-106423067D01*
X47226000Y-106436600D01*
X47218136Y-106555768D01*
X47173768Y-106604639D01*
X47061733Y-106614378D01*
X47048200Y-106614400D01*
X46929032Y-106622264D01*
X46880161Y-106666632D01*
X46870422Y-106778667D01*
X46870400Y-106792200D01*
X46862536Y-106911368D01*
X46818168Y-106960239D01*
X46706133Y-106969978D01*
X46692600Y-106970000D01*
X46573432Y-106977864D01*
X46524561Y-107022232D01*
X46514822Y-107134267D01*
X46514800Y-107147800D01*
X46522663Y-107266968D01*
X46567031Y-107315839D01*
X46679066Y-107325578D01*
X46692600Y-107325600D01*
X46811767Y-107333464D01*
X46860638Y-107377832D01*
X46870377Y-107489867D01*
X46870400Y-107503400D01*
X46878263Y-107622568D01*
X46922631Y-107671439D01*
X47034666Y-107681178D01*
X47048200Y-107681200D01*
X47167367Y-107673337D01*
X47216238Y-107628969D01*
X47225977Y-107516934D01*
X47226000Y-107503400D01*
X47233863Y-107384233D01*
X47278231Y-107335362D01*
X47390266Y-107325623D01*
X47403800Y-107325600D01*
X47581600Y-107325600D01*
X47581600Y-108036800D01*
X47403800Y-108036800D01*
X47284632Y-108044664D01*
X47235761Y-108089032D01*
X47226022Y-108201067D01*
X47226000Y-108214600D01*
X47233863Y-108333768D01*
X47278231Y-108382639D01*
X47390266Y-108392378D01*
X47403800Y-108392400D01*
X47522967Y-108400264D01*
X47571838Y-108444632D01*
X47581577Y-108556667D01*
X47581600Y-108570200D01*
X47573736Y-108689368D01*
X47529368Y-108738239D01*
X47417333Y-108747978D01*
X47403800Y-108748000D01*
X47284632Y-108755864D01*
X47235761Y-108800232D01*
X47226022Y-108912267D01*
X47226000Y-108925800D01*
X47218136Y-109044968D01*
X47173768Y-109093839D01*
X47061733Y-109103578D01*
X47048200Y-109103600D01*
X46929032Y-109095737D01*
X46880161Y-109051369D01*
X46870422Y-108939334D01*
X46870400Y-108925800D01*
X46862536Y-108806633D01*
X46818168Y-108757762D01*
X46706133Y-108748023D01*
X46692600Y-108748000D01*
X46573432Y-108755864D01*
X46524561Y-108800232D01*
X46514822Y-108912267D01*
X46514800Y-108925800D01*
X46506936Y-109044968D01*
X46462568Y-109093839D01*
X46350533Y-109103578D01*
X46337000Y-109103600D01*
X46217832Y-109111464D01*
X46168961Y-109155832D01*
X46159222Y-109267867D01*
X46159200Y-109281400D01*
X46159200Y-109459200D01*
X45092400Y-109459200D01*
X45092400Y-109281400D01*
X45084536Y-109162233D01*
X45040168Y-109113362D01*
X44928133Y-109103623D01*
X44914600Y-109103600D01*
X44736800Y-109103600D01*
X44203400Y-109103600D01*
X44084232Y-109095737D01*
X44035361Y-109051369D01*
X44025622Y-108939334D01*
X44025600Y-108925800D01*
X43314400Y-108925800D01*
X43314400Y-109103600D01*
X43492200Y-109103600D01*
X43611367Y-109111464D01*
X43660238Y-109155832D01*
X43669977Y-109267867D01*
X43670000Y-109281400D01*
X43662136Y-109400568D01*
X43617768Y-109449439D01*
X43505733Y-109459178D01*
X43492200Y-109459200D01*
X43373032Y-109467064D01*
X43324161Y-109511432D01*
X43314422Y-109623467D01*
X43314400Y-109637000D01*
X43314400Y-109814800D01*
X44736800Y-109814800D01*
X44736800Y-109637000D01*
X44744663Y-109517833D01*
X44789031Y-109468962D01*
X44901066Y-109459223D01*
X44914600Y-109459200D01*
X45033767Y-109467064D01*
X45082638Y-109511432D01*
X45092377Y-109623467D01*
X45092400Y-109637000D01*
X45092400Y-109814800D01*
X46514800Y-109814800D01*
X46514800Y-109103600D01*
X46692600Y-109103600D01*
X46811767Y-109111464D01*
X46860638Y-109155832D01*
X46870377Y-109267867D01*
X46870400Y-109281400D01*
X46878263Y-109400568D01*
X46922631Y-109449439D01*
X47034666Y-109459178D01*
X47048200Y-109459200D01*
X47167367Y-109467064D01*
X47216238Y-109511432D01*
X47225977Y-109623467D01*
X47226000Y-109637000D01*
X47226000Y-109814800D01*
X47937200Y-109814800D01*
X47937200Y-109459200D01*
X47226000Y-109459200D01*
X47226000Y-109281400D01*
X47233863Y-109162233D01*
X47278231Y-109113362D01*
X47390266Y-109103623D01*
X47403800Y-109103600D01*
X47522967Y-109095737D01*
X47571838Y-109051369D01*
X47581577Y-108939334D01*
X47581600Y-108925800D01*
X47589463Y-108806633D01*
X47633831Y-108757762D01*
X47745866Y-108748023D01*
X47759400Y-108748000D01*
X47878567Y-108740137D01*
X47927438Y-108695769D01*
X47937177Y-108583734D01*
X47937200Y-108570200D01*
X47929336Y-108451033D01*
X47884968Y-108402162D01*
X47772933Y-108392423D01*
X47759400Y-108392400D01*
X47640232Y-108384537D01*
X47591361Y-108340169D01*
X47581622Y-108228134D01*
X47581600Y-108214600D01*
X47589463Y-108095433D01*
X47633831Y-108046562D01*
X47745866Y-108036823D01*
X47759400Y-108036800D01*
X47937200Y-108036800D01*
X47937200Y-107325600D01*
X47759400Y-107325600D01*
X47640232Y-107317737D01*
X47591361Y-107273369D01*
X47581622Y-107161334D01*
X47581600Y-107147800D01*
X47581600Y-106970000D01*
X48292800Y-106970000D01*
X48292800Y-106792200D01*
X48300663Y-106673033D01*
X48345031Y-106624162D01*
X48457066Y-106614423D01*
X48470600Y-106614400D01*
X48589767Y-106622264D01*
X48638638Y-106666632D01*
X48648377Y-106778667D01*
X48648400Y-106792200D01*
X48656263Y-106911368D01*
X48700631Y-106960239D01*
X48812666Y-106969978D01*
X48826200Y-106970000D01*
X49004000Y-106970000D01*
X49004000Y-106258800D01*
X49715200Y-106258800D01*
X49715200Y-106436600D01*
X49707336Y-106555768D01*
X49662968Y-106604639D01*
X49550933Y-106614378D01*
X49537400Y-106614400D01*
X49418232Y-106622264D01*
X49369361Y-106666632D01*
X49359622Y-106778667D01*
X49359600Y-106792200D01*
X49367463Y-106911368D01*
X49411831Y-106960239D01*
X49523866Y-106969978D01*
X49537400Y-106970000D01*
X49656567Y-106962137D01*
X49705438Y-106917769D01*
X49715177Y-106805734D01*
X49715200Y-106792200D01*
X49723063Y-106673033D01*
X49767431Y-106624162D01*
X49879466Y-106614423D01*
X49893000Y-106614400D01*
X50012167Y-106622264D01*
X50061038Y-106666632D01*
X50070777Y-106778667D01*
X50070800Y-106792200D01*
X50078663Y-106911368D01*
X50123031Y-106960239D01*
X50235066Y-106969978D01*
X50248600Y-106970000D01*
X50367767Y-106962137D01*
X50416638Y-106917769D01*
X50426377Y-106805734D01*
X50426400Y-106792200D01*
X50434263Y-106673033D01*
X50478631Y-106624162D01*
X50590666Y-106614423D01*
X50604200Y-106614400D01*
X50723367Y-106606537D01*
X50772238Y-106562169D01*
X50781977Y-106450134D01*
X50782000Y-106436600D01*
X50774136Y-106317433D01*
X50729768Y-106268562D01*
X50617733Y-106258823D01*
X50604200Y-106258800D01*
X50485032Y-106250937D01*
X50436161Y-106206569D01*
X50426422Y-106094534D01*
X50426400Y-106081000D01*
X50418536Y-105961833D01*
X50374168Y-105912962D01*
X50262133Y-105903223D01*
X50248600Y-105903200D01*
X50129432Y-105895337D01*
X50080561Y-105850969D01*
X50070822Y-105738934D01*
X50070800Y-105725400D01*
X50062936Y-105606233D01*
X50018568Y-105557362D01*
X49906533Y-105547623D01*
X49893000Y-105547600D01*
X49773832Y-105539737D01*
X49724961Y-105495369D01*
X49715222Y-105383334D01*
X49715200Y-105369800D01*
X49715200Y-105192000D01*
X49004000Y-105192000D01*
X49004000Y-105547600D01*
X48292800Y-105547600D01*
X48292800Y-105369800D01*
X48300663Y-105250633D01*
X48345031Y-105201762D01*
X48457066Y-105192023D01*
X48470600Y-105192000D01*
X48589767Y-105184137D01*
X48638638Y-105139769D01*
X48648377Y-105027734D01*
X48648400Y-105014200D01*
X48640536Y-104895033D01*
X48596168Y-104846162D01*
X48484133Y-104836423D01*
X48470600Y-104836400D01*
X48292800Y-104836400D01*
X48292800Y-103769600D01*
X48470600Y-103769600D01*
X48648400Y-103769600D01*
X48648400Y-103414000D01*
X49359600Y-103414000D01*
X49359600Y-103769600D01*
X48648400Y-103769600D01*
X48470600Y-103769600D01*
X48589767Y-103777464D01*
X48638638Y-103821832D01*
X48648377Y-103933867D01*
X48648400Y-103947400D01*
X48648400Y-104125200D01*
X49359600Y-104125200D01*
X49359600Y-103947400D01*
X49367463Y-103828233D01*
X49411831Y-103779362D01*
X49523866Y-103769623D01*
X49537400Y-103769600D01*
X49715200Y-103769600D01*
X49715200Y-103058400D01*
X50070800Y-103058400D01*
X50070800Y-104125200D01*
X49893000Y-104125200D01*
X49773832Y-104133064D01*
X49724961Y-104177432D01*
X49715222Y-104289467D01*
X49715200Y-104303000D01*
X49723063Y-104422168D01*
X49767431Y-104471039D01*
X49879466Y-104480778D01*
X49893000Y-104480800D01*
X50070800Y-104480800D01*
X50070800Y-105192000D01*
X50782000Y-105192000D01*
X50782000Y-105014200D01*
X50774136Y-104895033D01*
X50729768Y-104846162D01*
X50617733Y-104836423D01*
X50604200Y-104836400D01*
X50485032Y-104828537D01*
X50436161Y-104784169D01*
X50426422Y-104672134D01*
X50426400Y-104658600D01*
X50418536Y-104539433D01*
X50374168Y-104490562D01*
X50262133Y-104480823D01*
X50248600Y-104480800D01*
X50129432Y-104472937D01*
X50080561Y-104428569D01*
X50070822Y-104316534D01*
X50070800Y-104303000D01*
X50078663Y-104183833D01*
X50123031Y-104134962D01*
X50235066Y-104125223D01*
X50248600Y-104125200D01*
X50367767Y-104117337D01*
X50416638Y-104072969D01*
X50426377Y-103960934D01*
X50426400Y-103947400D01*
X50434263Y-103828233D01*
X50478631Y-103779362D01*
X50590666Y-103769623D01*
X50604200Y-103769600D01*
X50723367Y-103761737D01*
X50772238Y-103717369D01*
X50781977Y-103605334D01*
X50782000Y-103591800D01*
X50774136Y-103472633D01*
X50729768Y-103423762D01*
X50617733Y-103414023D01*
X50604200Y-103414000D01*
X50485032Y-103406137D01*
X50436161Y-103361769D01*
X50426422Y-103249734D01*
X50426400Y-103236200D01*
X50418536Y-103117033D01*
X50374168Y-103068162D01*
X50262133Y-103058423D01*
X50248600Y-103058400D01*
X50129432Y-103050537D01*
X50080561Y-103006169D01*
X50070822Y-102894134D01*
X50070800Y-102880600D01*
X50078663Y-102761433D01*
X50123031Y-102712562D01*
X50235066Y-102702823D01*
X50248600Y-102702800D01*
X50367767Y-102694937D01*
X50416638Y-102650569D01*
X50426377Y-102538534D01*
X50426400Y-102525000D01*
X50434263Y-102405833D01*
X50478631Y-102356962D01*
X50590666Y-102347223D01*
X50604200Y-102347200D01*
X50723367Y-102339337D01*
X50772238Y-102294969D01*
X50781977Y-102182934D01*
X50782000Y-102169400D01*
X50774136Y-102050233D01*
X50729768Y-102001362D01*
X50617733Y-101991623D01*
X50604200Y-101991600D01*
X50485032Y-101983737D01*
X50436161Y-101939369D01*
X50426422Y-101827334D01*
X50426400Y-101813800D01*
X50418536Y-101694633D01*
X50374168Y-101645762D01*
X50262133Y-101636023D01*
X50248600Y-101636000D01*
X50129432Y-101628137D01*
X50080561Y-101583769D01*
X50070822Y-101471734D01*
X50070800Y-101458200D01*
X50062936Y-101339033D01*
X50018568Y-101290162D01*
X49906533Y-101280423D01*
X49893000Y-101280400D01*
X49773832Y-101272537D01*
X49724961Y-101228169D01*
X49715222Y-101116134D01*
X49715200Y-101102600D01*
X49723063Y-100983433D01*
X49767431Y-100934562D01*
X49879466Y-100924823D01*
X49893000Y-100924800D01*
X50012167Y-100916937D01*
X50061038Y-100872569D01*
X50070777Y-100760534D01*
X50070800Y-100747000D01*
X50078663Y-100627833D01*
X50123031Y-100578962D01*
X50235066Y-100569223D01*
X50248600Y-100569200D01*
X50426400Y-100569200D01*
X50426400Y-99858000D01*
X50782000Y-99858000D01*
G36*
X49300967Y-104828537D02*
X49349838Y-104784169D01*
X49359577Y-104672134D01*
X49359600Y-104658600D01*
X49351736Y-104539433D01*
X49307368Y-104490562D01*
X49195333Y-104480823D01*
X49181800Y-104480800D01*
X49062632Y-104488664D01*
X49013761Y-104533032D01*
X49004022Y-104645067D01*
X49004000Y-104658600D01*
X49011863Y-104777768D01*
X49056231Y-104826639D01*
X49168266Y-104836378D01*
X49181800Y-104836400D01*
X49300967Y-104828537D01*
X49300967Y-104828537D01*
G37*
X49300967Y-104828537D02*
X49349838Y-104784169D01*
X49359577Y-104672134D01*
X49359600Y-104658600D01*
X49351736Y-104539433D01*
X49307368Y-104490562D01*
X49195333Y-104480823D01*
X49181800Y-104480800D01*
X49062632Y-104488664D01*
X49013761Y-104533032D01*
X49004022Y-104645067D01*
X49004000Y-104658600D01*
X49011863Y-104777768D01*
X49056231Y-104826639D01*
X49168266Y-104836378D01*
X49181800Y-104836400D01*
X49300967Y-104828537D01*
G36*
X44381200Y-106970000D02*
X44025600Y-106970000D01*
X44025600Y-107681200D01*
X44381200Y-107681200D01*
X44381200Y-106970000D01*
X44381200Y-106970000D01*
G37*
X44381200Y-106970000D02*
X44025600Y-106970000D01*
X44025600Y-107681200D01*
X44381200Y-107681200D01*
X44381200Y-106970000D01*
G36*
X41536400Y-107325600D02*
X39047200Y-107325600D01*
X39047200Y-109459200D01*
X39402800Y-109459200D01*
X39402800Y-107681200D01*
X41180800Y-107681200D01*
X41180800Y-109459200D01*
X39402800Y-109459200D01*
X39047200Y-109459200D01*
X39047200Y-109814800D01*
X41536400Y-109814800D01*
X41536400Y-107325600D01*
X41536400Y-107325600D01*
G37*
X41536400Y-107325600D02*
X39047200Y-107325600D01*
X39047200Y-109459200D01*
X39402800Y-109459200D01*
X39402800Y-107681200D01*
X41180800Y-107681200D01*
X41180800Y-109459200D01*
X39402800Y-109459200D01*
X39047200Y-109459200D01*
X39047200Y-109814800D01*
X41536400Y-109814800D01*
X41536400Y-107325600D01*
G36*
X50782000Y-107325600D02*
X48292800Y-107325600D01*
X48292800Y-109459200D01*
X48648400Y-109459200D01*
X48648400Y-107681200D01*
X50426400Y-107681200D01*
X50426400Y-109459200D01*
X48648400Y-109459200D01*
X48292800Y-109459200D01*
X48292800Y-109814800D01*
X50782000Y-109814800D01*
X50782000Y-107325600D01*
X50782000Y-107325600D01*
G37*
X50782000Y-107325600D02*
X48292800Y-107325600D01*
X48292800Y-109459200D01*
X48648400Y-109459200D01*
X48648400Y-107681200D01*
X50426400Y-107681200D01*
X50426400Y-109459200D01*
X48648400Y-109459200D01*
X48292800Y-109459200D01*
X48292800Y-109814800D01*
X50782000Y-109814800D01*
X50782000Y-107325600D01*
G36*
X42188967Y-109451337D02*
X42237838Y-109406969D01*
X42247577Y-109294934D01*
X42247600Y-109281400D01*
X42239736Y-109162233D01*
X42195368Y-109113362D01*
X42083333Y-109103623D01*
X42069800Y-109103600D01*
X41950632Y-109111464D01*
X41901761Y-109155832D01*
X41892022Y-109267867D01*
X41892000Y-109281400D01*
X41899863Y-109400568D01*
X41944231Y-109449439D01*
X42056266Y-109459178D01*
X42069800Y-109459200D01*
X42188967Y-109451337D01*
X42188967Y-109451337D01*
G37*
X42188967Y-109451337D02*
X42237838Y-109406969D01*
X42247577Y-109294934D01*
X42247600Y-109281400D01*
X42239736Y-109162233D01*
X42195368Y-109113362D01*
X42083333Y-109103623D01*
X42069800Y-109103600D01*
X41950632Y-109111464D01*
X41901761Y-109155832D01*
X41892022Y-109267867D01*
X41892000Y-109281400D01*
X41899863Y-109400568D01*
X41944231Y-109449439D01*
X42056266Y-109459178D01*
X42069800Y-109459200D01*
X42188967Y-109451337D01*
G36*
X42958800Y-109103600D02*
X42603200Y-109103600D01*
X42603200Y-109814800D01*
X42958800Y-109814800D01*
X42958800Y-109103600D01*
X42958800Y-109103600D01*
G37*
X42958800Y-109103600D02*
X42603200Y-109103600D01*
X42603200Y-109814800D01*
X42958800Y-109814800D01*
X42958800Y-109103600D01*
G36*
X40825200Y-98791200D02*
X39758400Y-98791200D01*
X39758400Y-99858000D01*
X40825200Y-99858000D01*
X40825200Y-98791200D01*
X40825200Y-98791200D01*
G37*
X40825200Y-98791200D02*
X39758400Y-98791200D01*
X39758400Y-99858000D01*
X40825200Y-99858000D01*
X40825200Y-98791200D01*
G36*
X45389367Y-99850137D02*
X45438238Y-99805769D01*
X45447977Y-99693734D01*
X45448000Y-99680200D01*
X45440136Y-99561033D01*
X45395768Y-99512162D01*
X45283733Y-99502423D01*
X45270200Y-99502400D01*
X45151032Y-99510264D01*
X45102161Y-99554632D01*
X45092422Y-99666667D01*
X45092400Y-99680200D01*
X45100263Y-99799368D01*
X45144631Y-99848239D01*
X45256666Y-99857978D01*
X45270200Y-99858000D01*
X45389367Y-99850137D01*
X45389367Y-99850137D01*
G37*
X45389367Y-99850137D02*
X45438238Y-99805769D01*
X45447977Y-99693734D01*
X45448000Y-99680200D01*
X45440136Y-99561033D01*
X45395768Y-99512162D01*
X45283733Y-99502423D01*
X45270200Y-99502400D01*
X45151032Y-99510264D01*
X45102161Y-99554632D01*
X45092422Y-99666667D01*
X45092400Y-99680200D01*
X45100263Y-99799368D01*
X45144631Y-99848239D01*
X45256666Y-99857978D01*
X45270200Y-99858000D01*
X45389367Y-99850137D01*
G36*
X47167367Y-99850137D02*
X47216238Y-99805769D01*
X47225977Y-99693734D01*
X47226000Y-99680200D01*
X47218136Y-99561033D01*
X47173768Y-99512162D01*
X47061733Y-99502423D01*
X47048200Y-99502400D01*
X46929032Y-99510264D01*
X46880161Y-99554632D01*
X46870422Y-99666667D01*
X46870400Y-99680200D01*
X46878263Y-99799368D01*
X46922631Y-99848239D01*
X47034666Y-99857978D01*
X47048200Y-99858000D01*
X47167367Y-99850137D01*
X47167367Y-99850137D01*
G37*
X47167367Y-99850137D02*
X47216238Y-99805769D01*
X47225977Y-99693734D01*
X47226000Y-99680200D01*
X47218136Y-99561033D01*
X47173768Y-99512162D01*
X47061733Y-99502423D01*
X47048200Y-99502400D01*
X46929032Y-99510264D01*
X46880161Y-99554632D01*
X46870422Y-99666667D01*
X46870400Y-99680200D01*
X46878263Y-99799368D01*
X46922631Y-99848239D01*
X47034666Y-99857978D01*
X47048200Y-99858000D01*
X47167367Y-99850137D01*
G36*
X48589767Y-100561337D02*
X48638638Y-100516969D01*
X48648377Y-100404934D01*
X48648400Y-100391400D01*
X48640536Y-100272233D01*
X48596168Y-100223362D01*
X48484133Y-100213623D01*
X48470600Y-100213600D01*
X48351432Y-100221464D01*
X48302561Y-100265832D01*
X48292822Y-100377867D01*
X48292800Y-100391400D01*
X48300663Y-100510568D01*
X48345031Y-100559439D01*
X48457066Y-100569178D01*
X48470600Y-100569200D01*
X48589767Y-100561337D01*
X48589767Y-100561337D01*
G37*
X48589767Y-100561337D02*
X48638638Y-100516969D01*
X48648377Y-100404934D01*
X48648400Y-100391400D01*
X48640536Y-100272233D01*
X48596168Y-100223362D01*
X48484133Y-100213623D01*
X48470600Y-100213600D01*
X48351432Y-100221464D01*
X48302561Y-100265832D01*
X48292822Y-100377867D01*
X48292800Y-100391400D01*
X48300663Y-100510568D01*
X48345031Y-100559439D01*
X48457066Y-100569178D01*
X48470600Y-100569200D01*
X48589767Y-100561337D01*
G36*
X43670000Y-104658600D02*
X43662136Y-104539433D01*
X43617768Y-104490562D01*
X43505733Y-104480823D01*
X43492200Y-104480800D01*
X43314400Y-104480800D01*
X43314400Y-103769600D01*
X44381200Y-103769600D01*
X44381200Y-103591800D01*
X44389063Y-103472633D01*
X44433431Y-103423762D01*
X44545466Y-103414023D01*
X44559000Y-103414000D01*
X44678167Y-103406137D01*
X44727038Y-103361769D01*
X44736777Y-103249734D01*
X44736800Y-103236200D01*
X44736800Y-103058400D01*
X44025600Y-103058400D01*
X44025600Y-102702800D01*
X45448000Y-102702800D01*
X45448000Y-102525000D01*
X45440136Y-102405833D01*
X45395768Y-102356962D01*
X45283733Y-102347223D01*
X45270200Y-102347200D01*
X45151032Y-102339337D01*
X45102161Y-102294969D01*
X45092422Y-102182934D01*
X45092400Y-102169400D01*
X45092400Y-101991600D01*
X45803600Y-101991600D01*
X45803600Y-101280400D01*
X45625800Y-101280400D01*
X45506632Y-101288264D01*
X45457761Y-101332632D01*
X45448022Y-101444667D01*
X45448000Y-101458200D01*
X45440136Y-101577368D01*
X45395768Y-101626239D01*
X45283733Y-101635978D01*
X45270200Y-101636000D01*
X45151032Y-101643864D01*
X45102161Y-101688232D01*
X45092422Y-101800267D01*
X45092400Y-101813800D01*
X45084536Y-101932968D01*
X45040168Y-101981839D01*
X44928133Y-101991578D01*
X44914600Y-101991600D01*
X44795432Y-101999464D01*
X44746561Y-102043832D01*
X44736822Y-102155867D01*
X44736800Y-102169400D01*
X44736800Y-102347200D01*
X44025600Y-102347200D01*
X44025600Y-102525000D01*
X44017736Y-102644168D01*
X43973368Y-102693039D01*
X43861333Y-102702778D01*
X43847800Y-102702800D01*
X43728632Y-102694937D01*
X43679761Y-102650569D01*
X43670022Y-102538534D01*
X43670000Y-102525000D01*
X43662136Y-102405833D01*
X43617768Y-102356962D01*
X43505733Y-102347223D01*
X43492200Y-102347200D01*
X43314400Y-102347200D01*
X43314400Y-103058400D01*
X43492200Y-103058400D01*
X43611367Y-103066264D01*
X43660238Y-103110632D01*
X43669977Y-103222667D01*
X43670000Y-103236200D01*
X43662136Y-103355368D01*
X43617768Y-103404239D01*
X43505733Y-103413978D01*
X43492200Y-103414000D01*
X43373032Y-103421864D01*
X43324161Y-103466232D01*
X43314422Y-103578267D01*
X43314400Y-103591800D01*
X43306536Y-103710968D01*
X43262168Y-103759839D01*
X43150133Y-103769578D01*
X43136600Y-103769600D01*
X42958800Y-103769600D01*
X42958800Y-104836400D01*
X43670000Y-104836400D01*
X43670000Y-104658600D01*
X43670000Y-104658600D01*
G37*
X43670000Y-104658600D02*
X43662136Y-104539433D01*
X43617768Y-104490562D01*
X43505733Y-104480823D01*
X43492200Y-104480800D01*
X43314400Y-104480800D01*
X43314400Y-103769600D01*
X44381200Y-103769600D01*
X44381200Y-103591800D01*
X44389063Y-103472633D01*
X44433431Y-103423762D01*
X44545466Y-103414023D01*
X44559000Y-103414000D01*
X44678167Y-103406137D01*
X44727038Y-103361769D01*
X44736777Y-103249734D01*
X44736800Y-103236200D01*
X44736800Y-103058400D01*
X44025600Y-103058400D01*
X44025600Y-102702800D01*
X45448000Y-102702800D01*
X45448000Y-102525000D01*
X45440136Y-102405833D01*
X45395768Y-102356962D01*
X45283733Y-102347223D01*
X45270200Y-102347200D01*
X45151032Y-102339337D01*
X45102161Y-102294969D01*
X45092422Y-102182934D01*
X45092400Y-102169400D01*
X45092400Y-101991600D01*
X45803600Y-101991600D01*
X45803600Y-101280400D01*
X45625800Y-101280400D01*
X45506632Y-101288264D01*
X45457761Y-101332632D01*
X45448022Y-101444667D01*
X45448000Y-101458200D01*
X45440136Y-101577368D01*
X45395768Y-101626239D01*
X45283733Y-101635978D01*
X45270200Y-101636000D01*
X45151032Y-101643864D01*
X45102161Y-101688232D01*
X45092422Y-101800267D01*
X45092400Y-101813800D01*
X45084536Y-101932968D01*
X45040168Y-101981839D01*
X44928133Y-101991578D01*
X44914600Y-101991600D01*
X44795432Y-101999464D01*
X44746561Y-102043832D01*
X44736822Y-102155867D01*
X44736800Y-102169400D01*
X44736800Y-102347200D01*
X44025600Y-102347200D01*
X44025600Y-102525000D01*
X44017736Y-102644168D01*
X43973368Y-102693039D01*
X43861333Y-102702778D01*
X43847800Y-102702800D01*
X43728632Y-102694937D01*
X43679761Y-102650569D01*
X43670022Y-102538534D01*
X43670000Y-102525000D01*
X43662136Y-102405833D01*
X43617768Y-102356962D01*
X43505733Y-102347223D01*
X43492200Y-102347200D01*
X43314400Y-102347200D01*
X43314400Y-103058400D01*
X43492200Y-103058400D01*
X43611367Y-103066264D01*
X43660238Y-103110632D01*
X43669977Y-103222667D01*
X43670000Y-103236200D01*
X43662136Y-103355368D01*
X43617768Y-103404239D01*
X43505733Y-103413978D01*
X43492200Y-103414000D01*
X43373032Y-103421864D01*
X43324161Y-103466232D01*
X43314422Y-103578267D01*
X43314400Y-103591800D01*
X43306536Y-103710968D01*
X43262168Y-103759839D01*
X43150133Y-103769578D01*
X43136600Y-103769600D01*
X42958800Y-103769600D01*
X42958800Y-104836400D01*
X43670000Y-104836400D01*
X43670000Y-104658600D01*
G36*
X42603200Y-103591800D02*
X42595336Y-103472633D01*
X42550968Y-103423762D01*
X42438933Y-103414023D01*
X42425400Y-103414000D01*
X42247600Y-103414000D01*
X42247600Y-101991600D01*
X41892000Y-101991600D01*
X41892000Y-103769600D01*
X42603200Y-103769600D01*
X42603200Y-103591800D01*
X42603200Y-103591800D01*
G37*
X42603200Y-103591800D02*
X42595336Y-103472633D01*
X42550968Y-103423762D01*
X42438933Y-103414023D01*
X42425400Y-103414000D01*
X42247600Y-103414000D01*
X42247600Y-101991600D01*
X41892000Y-101991600D01*
X41892000Y-103769600D01*
X42603200Y-103769600D01*
X42603200Y-103591800D01*
G36*
X42900167Y-103050537D02*
X42949038Y-103006169D01*
X42958777Y-102894134D01*
X42958800Y-102880600D01*
X42950936Y-102761433D01*
X42906568Y-102712562D01*
X42794533Y-102702823D01*
X42781000Y-102702800D01*
X42661832Y-102710664D01*
X42612961Y-102755032D01*
X42603222Y-102867067D01*
X42603200Y-102880600D01*
X42611063Y-102999768D01*
X42655431Y-103048639D01*
X42767466Y-103058378D01*
X42781000Y-103058400D01*
X42900167Y-103050537D01*
X42900167Y-103050537D01*
G37*
X42900167Y-103050537D02*
X42949038Y-103006169D01*
X42958777Y-102894134D01*
X42958800Y-102880600D01*
X42950936Y-102761433D01*
X42906568Y-102712562D01*
X42794533Y-102702823D01*
X42781000Y-102702800D01*
X42661832Y-102710664D01*
X42612961Y-102755032D01*
X42603222Y-102867067D01*
X42603200Y-102880600D01*
X42611063Y-102999768D01*
X42655431Y-103048639D01*
X42767466Y-103058378D01*
X42781000Y-103058400D01*
X42900167Y-103050537D01*
G36*
X41477767Y-103406137D02*
X41526638Y-103361769D01*
X41536377Y-103249734D01*
X41536400Y-103236200D01*
X41528536Y-103117033D01*
X41484168Y-103068162D01*
X41372133Y-103058423D01*
X41358600Y-103058400D01*
X41239432Y-103066264D01*
X41190561Y-103110632D01*
X41180822Y-103222667D01*
X41180800Y-103236200D01*
X41188663Y-103355368D01*
X41233031Y-103404239D01*
X41345066Y-103413978D01*
X41358600Y-103414000D01*
X41477767Y-103406137D01*
X41477767Y-103406137D01*
G37*
X41477767Y-103406137D02*
X41526638Y-103361769D01*
X41536377Y-103249734D01*
X41536400Y-103236200D01*
X41528536Y-103117033D01*
X41484168Y-103068162D01*
X41372133Y-103058423D01*
X41358600Y-103058400D01*
X41239432Y-103066264D01*
X41190561Y-103110632D01*
X41180822Y-103222667D01*
X41180800Y-103236200D01*
X41188663Y-103355368D01*
X41233031Y-103404239D01*
X41345066Y-103413978D01*
X41358600Y-103414000D01*
X41477767Y-103406137D01*
G36*
X41536400Y-103769600D02*
X40469600Y-103769600D01*
X40469600Y-104125200D01*
X41536400Y-104125200D01*
X41536400Y-103769600D01*
X41536400Y-103769600D01*
G37*
X41536400Y-103769600D02*
X40469600Y-103769600D01*
X40469600Y-104125200D01*
X41536400Y-104125200D01*
X41536400Y-103769600D01*
G36*
X42958800Y-105369800D02*
X42950936Y-105250633D01*
X42906568Y-105201762D01*
X42794533Y-105192023D01*
X42781000Y-105192000D01*
X42661832Y-105184137D01*
X42612961Y-105139769D01*
X42603222Y-105027734D01*
X42603200Y-105014200D01*
X42595336Y-104895033D01*
X42550968Y-104846162D01*
X42438933Y-104836423D01*
X42425400Y-104836400D01*
X42306232Y-104828537D01*
X42257361Y-104784169D01*
X42247622Y-104672134D01*
X42247600Y-104658600D01*
X42255463Y-104539433D01*
X42299831Y-104490562D01*
X42411866Y-104480823D01*
X42425400Y-104480800D01*
X42544567Y-104472937D01*
X42593438Y-104428569D01*
X42603177Y-104316534D01*
X42603200Y-104303000D01*
X42603200Y-104125200D01*
X41892000Y-104125200D01*
X41892000Y-104480800D01*
X40825200Y-104480800D01*
X40825200Y-104836400D01*
X41892000Y-104836400D01*
X41892000Y-105547600D01*
X42958800Y-105547600D01*
X42958800Y-105369800D01*
X42958800Y-105369800D01*
G37*
X42958800Y-105369800D02*
X42950936Y-105250633D01*
X42906568Y-105201762D01*
X42794533Y-105192023D01*
X42781000Y-105192000D01*
X42661832Y-105184137D01*
X42612961Y-105139769D01*
X42603222Y-105027734D01*
X42603200Y-105014200D01*
X42595336Y-104895033D01*
X42550968Y-104846162D01*
X42438933Y-104836423D01*
X42425400Y-104836400D01*
X42306232Y-104828537D01*
X42257361Y-104784169D01*
X42247622Y-104672134D01*
X42247600Y-104658600D01*
X42255463Y-104539433D01*
X42299831Y-104490562D01*
X42411866Y-104480823D01*
X42425400Y-104480800D01*
X42544567Y-104472937D01*
X42593438Y-104428569D01*
X42603177Y-104316534D01*
X42603200Y-104303000D01*
X42603200Y-104125200D01*
X41892000Y-104125200D01*
X41892000Y-104480800D01*
X40825200Y-104480800D01*
X40825200Y-104836400D01*
X41892000Y-104836400D01*
X41892000Y-105547600D01*
X42958800Y-105547600D01*
X42958800Y-105369800D01*
G36*
X45092400Y-104658600D02*
X45084536Y-104539433D01*
X45040168Y-104490562D01*
X44928133Y-104480823D01*
X44914600Y-104480800D01*
X44795432Y-104472937D01*
X44746561Y-104428569D01*
X44736822Y-104316534D01*
X44736800Y-104303000D01*
X44736800Y-104125200D01*
X44025600Y-104125200D01*
X44025600Y-104303000D01*
X44033463Y-104422168D01*
X44077831Y-104471039D01*
X44189866Y-104480778D01*
X44203400Y-104480800D01*
X44322567Y-104488664D01*
X44371438Y-104533032D01*
X44381177Y-104645067D01*
X44381200Y-104658600D01*
X44381200Y-104836400D01*
X45092400Y-104836400D01*
X45092400Y-104658600D01*
X45092400Y-104658600D01*
G37*
X45092400Y-104658600D02*
X45084536Y-104539433D01*
X45040168Y-104490562D01*
X44928133Y-104480823D01*
X44914600Y-104480800D01*
X44795432Y-104472937D01*
X44746561Y-104428569D01*
X44736822Y-104316534D01*
X44736800Y-104303000D01*
X44736800Y-104125200D01*
X44025600Y-104125200D01*
X44025600Y-104303000D01*
X44033463Y-104422168D01*
X44077831Y-104471039D01*
X44189866Y-104480778D01*
X44203400Y-104480800D01*
X44322567Y-104488664D01*
X44371438Y-104533032D01*
X44381177Y-104645067D01*
X44381200Y-104658600D01*
X44381200Y-104836400D01*
X45092400Y-104836400D01*
X45092400Y-104658600D01*
G36*
X44322567Y-105539737D02*
X44371438Y-105495369D01*
X44381177Y-105383334D01*
X44381200Y-105369800D01*
X44373336Y-105250633D01*
X44328968Y-105201762D01*
X44216933Y-105192023D01*
X44203400Y-105192000D01*
X44084232Y-105199864D01*
X44035361Y-105244232D01*
X44025622Y-105356267D01*
X44025600Y-105369800D01*
X44033463Y-105488968D01*
X44077831Y-105537839D01*
X44189866Y-105547578D01*
X44203400Y-105547600D01*
X44322567Y-105539737D01*
X44322567Y-105539737D01*
G37*
X44322567Y-105539737D02*
X44371438Y-105495369D01*
X44381177Y-105383334D01*
X44381200Y-105369800D01*
X44373336Y-105250633D01*
X44328968Y-105201762D01*
X44216933Y-105192023D01*
X44203400Y-105192000D01*
X44084232Y-105199864D01*
X44035361Y-105244232D01*
X44025622Y-105356267D01*
X44025600Y-105369800D01*
X44033463Y-105488968D01*
X44077831Y-105537839D01*
X44189866Y-105547578D01*
X44203400Y-105547600D01*
X44322567Y-105539737D01*
G36*
X46159200Y-105547600D02*
X45448000Y-105547600D01*
X45448000Y-105369800D01*
X45440136Y-105250633D01*
X45395768Y-105201762D01*
X45283733Y-105192023D01*
X45270200Y-105192000D01*
X45151032Y-105199864D01*
X45102161Y-105244232D01*
X45092422Y-105356267D01*
X45092400Y-105369800D01*
X45100263Y-105488968D01*
X45144631Y-105537839D01*
X45256666Y-105547578D01*
X45270200Y-105547600D01*
X45389367Y-105555464D01*
X45438238Y-105599832D01*
X45447977Y-105711867D01*
X45448000Y-105725400D01*
X45448000Y-105903200D01*
X46159200Y-105903200D01*
X46159200Y-105547600D01*
X46159200Y-105547600D01*
G37*
X46159200Y-105547600D02*
X45448000Y-105547600D01*
X45448000Y-105369800D01*
X45440136Y-105250633D01*
X45395768Y-105201762D01*
X45283733Y-105192023D01*
X45270200Y-105192000D01*
X45151032Y-105199864D01*
X45102161Y-105244232D01*
X45092422Y-105356267D01*
X45092400Y-105369800D01*
X45100263Y-105488968D01*
X45144631Y-105537839D01*
X45256666Y-105547578D01*
X45270200Y-105547600D01*
X45389367Y-105555464D01*
X45438238Y-105599832D01*
X45447977Y-105711867D01*
X45448000Y-105725400D01*
X45448000Y-105903200D01*
X46159200Y-105903200D01*
X46159200Y-105547600D01*
G36*
X42958800Y-105903200D02*
X42603200Y-105903200D01*
X42603200Y-106614400D01*
X42958800Y-106614400D01*
X42958800Y-105903200D01*
X42958800Y-105903200D01*
G37*
X42958800Y-105903200D02*
X42603200Y-105903200D01*
X42603200Y-106614400D01*
X42958800Y-106614400D01*
X42958800Y-105903200D01*
G36*
X48292800Y-102525000D02*
X48300663Y-102405833D01*
X48345031Y-102356962D01*
X48457066Y-102347223D01*
X48470600Y-102347200D01*
X48589767Y-102339337D01*
X48638638Y-102294969D01*
X48648377Y-102182934D01*
X48648400Y-102169400D01*
X48640536Y-102050233D01*
X48596168Y-102001362D01*
X48484133Y-101991623D01*
X48470600Y-101991600D01*
X48351432Y-101999464D01*
X48302561Y-102043832D01*
X48292822Y-102155867D01*
X48292800Y-102169400D01*
X48292800Y-102347200D01*
X47581600Y-102347200D01*
X47581600Y-102169400D01*
X47573736Y-102050233D01*
X47529368Y-102001362D01*
X47417333Y-101991623D01*
X47403800Y-101991600D01*
X47284632Y-101999464D01*
X47235761Y-102043832D01*
X47226022Y-102155867D01*
X47226000Y-102169400D01*
X47218136Y-102288568D01*
X47173768Y-102337439D01*
X47061733Y-102347178D01*
X47048200Y-102347200D01*
X46929032Y-102355064D01*
X46880161Y-102399432D01*
X46870422Y-102511467D01*
X46870400Y-102525000D01*
X46878263Y-102644168D01*
X46922631Y-102693039D01*
X47034666Y-102702778D01*
X47048200Y-102702800D01*
X47167367Y-102694937D01*
X47216238Y-102650569D01*
X47225977Y-102538534D01*
X47226000Y-102525000D01*
X47233863Y-102405833D01*
X47278231Y-102356962D01*
X47390266Y-102347223D01*
X47403800Y-102347200D01*
X47522967Y-102355064D01*
X47571838Y-102399432D01*
X47581577Y-102511467D01*
X47581600Y-102525000D01*
X47581600Y-102702800D01*
X48292800Y-102702800D01*
X48292800Y-102525000D01*
X48292800Y-102525000D01*
G37*
X48292800Y-102525000D02*
X48300663Y-102405833D01*
X48345031Y-102356962D01*
X48457066Y-102347223D01*
X48470600Y-102347200D01*
X48589767Y-102339337D01*
X48638638Y-102294969D01*
X48648377Y-102182934D01*
X48648400Y-102169400D01*
X48640536Y-102050233D01*
X48596168Y-102001362D01*
X48484133Y-101991623D01*
X48470600Y-101991600D01*
X48351432Y-101999464D01*
X48302561Y-102043832D01*
X48292822Y-102155867D01*
X48292800Y-102169400D01*
X48292800Y-102347200D01*
X47581600Y-102347200D01*
X47581600Y-102169400D01*
X47573736Y-102050233D01*
X47529368Y-102001362D01*
X47417333Y-101991623D01*
X47403800Y-101991600D01*
X47284632Y-101999464D01*
X47235761Y-102043832D01*
X47226022Y-102155867D01*
X47226000Y-102169400D01*
X47218136Y-102288568D01*
X47173768Y-102337439D01*
X47061733Y-102347178D01*
X47048200Y-102347200D01*
X46929032Y-102355064D01*
X46880161Y-102399432D01*
X46870422Y-102511467D01*
X46870400Y-102525000D01*
X46878263Y-102644168D01*
X46922631Y-102693039D01*
X47034666Y-102702778D01*
X47048200Y-102702800D01*
X47167367Y-102694937D01*
X47216238Y-102650569D01*
X47225977Y-102538534D01*
X47226000Y-102525000D01*
X47233863Y-102405833D01*
X47278231Y-102356962D01*
X47390266Y-102347223D01*
X47403800Y-102347200D01*
X47522967Y-102355064D01*
X47571838Y-102399432D01*
X47581577Y-102511467D01*
X47581600Y-102525000D01*
X47581600Y-102702800D01*
X48292800Y-102702800D01*
X48292800Y-102525000D01*
G36*
X49300967Y-102694937D02*
X49349838Y-102650569D01*
X49359577Y-102538534D01*
X49359600Y-102525000D01*
X49351736Y-102405833D01*
X49307368Y-102356962D01*
X49195333Y-102347223D01*
X49181800Y-102347200D01*
X49062632Y-102355064D01*
X49013761Y-102399432D01*
X49004022Y-102511467D01*
X49004000Y-102525000D01*
X49011863Y-102644168D01*
X49056231Y-102693039D01*
X49168266Y-102702778D01*
X49181800Y-102702800D01*
X49300967Y-102694937D01*
X49300967Y-102694937D01*
G37*
X49300967Y-102694937D02*
X49349838Y-102650569D01*
X49359577Y-102538534D01*
X49359600Y-102525000D01*
X49351736Y-102405833D01*
X49307368Y-102356962D01*
X49195333Y-102347223D01*
X49181800Y-102347200D01*
X49062632Y-102355064D01*
X49013761Y-102399432D01*
X49004022Y-102511467D01*
X49004000Y-102525000D01*
X49011863Y-102644168D01*
X49056231Y-102693039D01*
X49168266Y-102702778D01*
X49181800Y-102702800D01*
X49300967Y-102694937D01*
G36*
X45744967Y-107673337D02*
X45793838Y-107628969D01*
X45803577Y-107516934D01*
X45803600Y-107503400D01*
X45795736Y-107384233D01*
X45751368Y-107335362D01*
X45639333Y-107325623D01*
X45625800Y-107325600D01*
X45506632Y-107333464D01*
X45457761Y-107377832D01*
X45448022Y-107489867D01*
X45448000Y-107503400D01*
X45455863Y-107622568D01*
X45500231Y-107671439D01*
X45612266Y-107681178D01*
X45625800Y-107681200D01*
X45744967Y-107673337D01*
X45744967Y-107673337D01*
G37*
X45744967Y-107673337D02*
X45793838Y-107628969D01*
X45803577Y-107516934D01*
X45803600Y-107503400D01*
X45795736Y-107384233D01*
X45751368Y-107335362D01*
X45639333Y-107325623D01*
X45625800Y-107325600D01*
X45506632Y-107333464D01*
X45457761Y-107377832D01*
X45448022Y-107489867D01*
X45448000Y-107503400D01*
X45455863Y-107622568D01*
X45500231Y-107671439D01*
X45612266Y-107681178D01*
X45625800Y-107681200D01*
X45744967Y-107673337D01*
G36*
X47167367Y-108740137D02*
X47216238Y-108695769D01*
X47225977Y-108583734D01*
X47226000Y-108570200D01*
X47218136Y-108451033D01*
X47173768Y-108402162D01*
X47061733Y-108392423D01*
X47048200Y-108392400D01*
X46929032Y-108400264D01*
X46880161Y-108444632D01*
X46870422Y-108556667D01*
X46870400Y-108570200D01*
X46878263Y-108689368D01*
X46922631Y-108738239D01*
X47034666Y-108747978D01*
X47048200Y-108748000D01*
X47167367Y-108740137D01*
X47167367Y-108740137D01*
G37*
X47167367Y-108740137D02*
X47216238Y-108695769D01*
X47225977Y-108583734D01*
X47226000Y-108570200D01*
X47218136Y-108451033D01*
X47173768Y-108402162D01*
X47061733Y-108392423D01*
X47048200Y-108392400D01*
X46929032Y-108400264D01*
X46880161Y-108444632D01*
X46870422Y-108556667D01*
X46870400Y-108570200D01*
X46878263Y-108689368D01*
X46922631Y-108738239D01*
X47034666Y-108747978D01*
X47048200Y-108748000D01*
X47167367Y-108740137D01*
G36*
X46159200Y-108748000D02*
X45448000Y-108748000D01*
X45448000Y-109103600D01*
X46159200Y-109103600D01*
X46159200Y-108748000D01*
X46159200Y-108748000D01*
G37*
X46159200Y-108748000D02*
X45448000Y-108748000D01*
X45448000Y-109103600D01*
X46159200Y-109103600D01*
X46159200Y-108748000D01*
G36*
X40825200Y-108036800D02*
X39758400Y-108036800D01*
X39758400Y-109103600D01*
X40825200Y-109103600D01*
X40825200Y-108036800D01*
X40825200Y-108036800D01*
G37*
X40825200Y-108036800D02*
X39758400Y-108036800D01*
X39758400Y-109103600D01*
X40825200Y-109103600D01*
X40825200Y-108036800D01*
G36*
X50070800Y-108036800D02*
X49004000Y-108036800D01*
X49004000Y-109103600D01*
X50070800Y-109103600D01*
X50070800Y-108036800D01*
X50070800Y-108036800D01*
G37*
X50070800Y-108036800D02*
X49004000Y-108036800D01*
X49004000Y-109103600D01*
X50070800Y-109103600D01*
X50070800Y-108036800D01*
G36*
X50007436Y-95384200D02*
X50600882Y-96368420D01*
X51365932Y-97343868D01*
X52272166Y-98279919D01*
X53289167Y-99145951D01*
X54386516Y-99911339D01*
X54682493Y-100090815D01*
X55085131Y-100350812D01*
X55334985Y-100576095D01*
X55470200Y-100801499D01*
X55475086Y-100814642D01*
X55683282Y-101166653D01*
X56056113Y-101562449D01*
X56566030Y-101979822D01*
X57185484Y-102396563D01*
X57886925Y-102790462D01*
X57991351Y-102843143D01*
X58429938Y-103055154D01*
X58800609Y-103222689D01*
X59067252Y-103330269D01*
X59193753Y-103362411D01*
X59197902Y-103360365D01*
X59172037Y-103257908D01*
X59042292Y-103063720D01*
X58961187Y-102964069D01*
X58700729Y-102644173D01*
X58469452Y-102332134D01*
X58300194Y-102074964D01*
X58225795Y-101919674D01*
X58224800Y-101909871D01*
X58309584Y-101872230D01*
X58478801Y-101886066D01*
X58667593Y-101893033D01*
X58732801Y-101847110D01*
X58778881Y-101756492D01*
X58885420Y-101810936D01*
X59004862Y-101983391D01*
X59016887Y-102008713D01*
X59188275Y-102233008D01*
X59432094Y-102413843D01*
X59629378Y-102503623D01*
X59753169Y-102487523D01*
X59875957Y-102337936D01*
X59952785Y-102215529D01*
X60108807Y-101993623D01*
X60232225Y-101870220D01*
X60256857Y-101861200D01*
X60391869Y-101938943D01*
X60612707Y-102148331D01*
X60890025Y-102453601D01*
X61194477Y-102818988D01*
X61496715Y-103208728D01*
X61767393Y-103587059D01*
X61977166Y-103918217D01*
X62039657Y-104033850D01*
X62323475Y-104788212D01*
X62406762Y-105516732D01*
X62289774Y-106215871D01*
X61972765Y-106882093D01*
X61818932Y-107101177D01*
X61347182Y-107590910D01*
X60689409Y-108076350D01*
X59862749Y-108549048D01*
X58884335Y-109000557D01*
X57771302Y-109422428D01*
X56540786Y-109806214D01*
X56076728Y-109932279D01*
X54530317Y-110306980D01*
X52880089Y-110648280D01*
X51117118Y-110956987D01*
X49232478Y-111233910D01*
X47217242Y-111479856D01*
X45062485Y-111695635D01*
X42759279Y-111882053D01*
X40298699Y-112039919D01*
X37671817Y-112170042D01*
X34869709Y-112273228D01*
X31883447Y-112350288D01*
X28811600Y-112400723D01*
X27587520Y-112415868D01*
X26555857Y-112429145D01*
X25705845Y-112441054D01*
X25026714Y-112452096D01*
X24507697Y-112462772D01*
X24138026Y-112473581D01*
X23906932Y-112485024D01*
X23803648Y-112497601D01*
X23817405Y-112511813D01*
X23937435Y-112528160D01*
X24152970Y-112547143D01*
X24453242Y-112569262D01*
X24747600Y-112589576D01*
X25156020Y-112610678D01*
X25745813Y-112631485D01*
X26495155Y-112651758D01*
X27382218Y-112671261D01*
X28385178Y-112689756D01*
X29482208Y-112707008D01*
X30651483Y-112722778D01*
X31871176Y-112736829D01*
X33119462Y-112748925D01*
X34374514Y-112758829D01*
X35614506Y-112766303D01*
X36817614Y-112771111D01*
X37962010Y-112773016D01*
X39025869Y-112771780D01*
X39987365Y-112767166D01*
X40597200Y-112761696D01*
X42496086Y-112726163D01*
X44439383Y-112662661D01*
X46388953Y-112573547D01*
X48306658Y-112461175D01*
X50154358Y-112327901D01*
X51893915Y-112176082D01*
X53487190Y-112008073D01*
X54191608Y-111922009D01*
X56248485Y-111621358D01*
X58122371Y-111271922D01*
X59811707Y-110874474D01*
X61314932Y-110429785D01*
X62630486Y-109938628D01*
X63756810Y-109401776D01*
X64692344Y-108820000D01*
X65435529Y-108194073D01*
X65984803Y-107524767D01*
X66338608Y-106812855D01*
X66495384Y-106059109D01*
X66503764Y-105825736D01*
X66481276Y-105383906D01*
X66397758Y-105032572D01*
X66225721Y-104661817D01*
X66201688Y-104617803D01*
X65761329Y-104003160D01*
X65135521Y-103407089D01*
X64341905Y-102841421D01*
X63398119Y-102317992D01*
X62321805Y-101848635D01*
X61979727Y-101724306D01*
X60008861Y-101724306D01*
X59920555Y-101967588D01*
X59897236Y-102005391D01*
X59706047Y-102209756D01*
X59521262Y-102266186D01*
X59406136Y-102186930D01*
X59423150Y-102054939D01*
X59526756Y-101843549D01*
X59670564Y-101627006D01*
X59808187Y-101479556D01*
X59863566Y-101454800D01*
X59988593Y-101532576D01*
X60008861Y-101724306D01*
X61979727Y-101724306D01*
X61780800Y-101652006D01*
X61363957Y-101505097D01*
X61019169Y-101375502D01*
X60792221Y-101280874D01*
X60729988Y-101246840D01*
X60703934Y-101110069D01*
X60751460Y-100971727D01*
X60778955Y-100867342D01*
X60530249Y-100867342D01*
X60440262Y-101117541D01*
X60355821Y-101255223D01*
X60189278Y-101451871D01*
X60064756Y-101489241D01*
X59997076Y-101450049D01*
X59926336Y-101345943D01*
X59933182Y-101316150D01*
X59527615Y-101316150D01*
X59509295Y-101484269D01*
X59377543Y-101718436D01*
X59242401Y-101881722D01*
X59148475Y-101872750D01*
X59125099Y-101841862D01*
X59045718Y-101618874D01*
X59039156Y-101551320D01*
X59107825Y-101336399D01*
X59271694Y-101214901D01*
X59405581Y-101219609D01*
X59527615Y-101316150D01*
X59933182Y-101316150D01*
X59961400Y-101193350D01*
X60086869Y-100974890D01*
X60249996Y-100749915D01*
X60359836Y-100643964D01*
X60026837Y-100643964D01*
X59889515Y-100899574D01*
X59712489Y-101108941D01*
X59571374Y-101128242D01*
X59488813Y-101038712D01*
X59487334Y-101013049D01*
X58854158Y-101013049D01*
X58752172Y-101253227D01*
X58594023Y-101460213D01*
X58442870Y-101553614D01*
X58344145Y-101514530D01*
X58328660Y-101429400D01*
X58389617Y-101245463D01*
X58528914Y-101050535D01*
X58689570Y-100908630D01*
X58814431Y-100883658D01*
X58854158Y-101013049D01*
X59487334Y-101013049D01*
X59478329Y-100856886D01*
X59581954Y-100642382D01*
X59747022Y-100478616D01*
X59867569Y-100438800D01*
X60024427Y-100487821D01*
X60026837Y-100643964D01*
X60359836Y-100643964D01*
X60383303Y-100621328D01*
X60412877Y-100610076D01*
X60522741Y-100679873D01*
X60530249Y-100867342D01*
X60778955Y-100867342D01*
X60797684Y-100796240D01*
X60700400Y-100627436D01*
X60627324Y-100554419D01*
X60371799Y-100395898D01*
X60123252Y-100337199D01*
X59923579Y-100298625D01*
X59850401Y-100216748D01*
X59835616Y-100181520D01*
X59391340Y-100181520D01*
X59280852Y-100429636D01*
X59112577Y-100671202D01*
X58987114Y-100734471D01*
X58884772Y-100641306D01*
X58888359Y-100498758D01*
X58986778Y-100304990D01*
X59132722Y-100121523D01*
X59278884Y-100009879D01*
X59366050Y-100015409D01*
X59391340Y-100181520D01*
X59835616Y-100181520D01*
X59786034Y-100063391D01*
X59631127Y-99862892D01*
X59629867Y-99861548D01*
X59508938Y-99701268D01*
X59083779Y-99701268D01*
X58885186Y-100070034D01*
X58740642Y-100300391D01*
X58620137Y-100429056D01*
X58593700Y-100438800D01*
X58473108Y-100388041D01*
X58222333Y-100251207D01*
X57882534Y-100051457D01*
X57626205Y-99894361D01*
X57167070Y-99609093D01*
X56852835Y-99416192D01*
X56656136Y-99300251D01*
X56549607Y-99245863D01*
X56505886Y-99237620D01*
X56497600Y-99258903D01*
X56577114Y-99331715D01*
X56793663Y-99492167D01*
X57114256Y-99716625D01*
X57505905Y-99981454D01*
X57509469Y-99983827D01*
X58521337Y-100657455D01*
X58296869Y-101004069D01*
X58124236Y-101223596D01*
X57970295Y-101344106D01*
X57937329Y-101351942D01*
X57780474Y-101316977D01*
X57495943Y-101223873D01*
X57143748Y-101092357D01*
X57124529Y-101084767D01*
X55749119Y-100464823D01*
X54453997Y-99732367D01*
X53269719Y-98908557D01*
X52226841Y-98014552D01*
X51390845Y-97114528D01*
X51116629Y-96757291D01*
X50837249Y-96357210D01*
X50579355Y-95957051D01*
X50369597Y-95599580D01*
X50234626Y-95327563D01*
X50198400Y-95201012D01*
X50290315Y-95148349D01*
X50540335Y-95140924D01*
X50909878Y-95172951D01*
X51360362Y-95238642D01*
X51853202Y-95332211D01*
X52349816Y-95447871D01*
X52811620Y-95579834D01*
X52885605Y-95604047D01*
X54437143Y-96228954D01*
X55895382Y-97034213D01*
X57260938Y-98020199D01*
X58158250Y-98814519D01*
X59083779Y-99701268D01*
X59508938Y-99701268D01*
X59495172Y-99683023D01*
X59468004Y-99568801D01*
X59471038Y-99565096D01*
X59587518Y-99559464D01*
X59849025Y-99588797D01*
X60202255Y-99643836D01*
X60593906Y-99715325D01*
X60970674Y-99794005D01*
X61279257Y-99870620D01*
X61348469Y-99891158D01*
X61380347Y-99862932D01*
X61280160Y-99732401D01*
X61120400Y-99575386D01*
X60365222Y-98936893D01*
X59620126Y-98406328D01*
X58909910Y-97997482D01*
X58259371Y-97724144D01*
X57693306Y-97600104D01*
X57557419Y-97594000D01*
X57296939Y-97582076D01*
X57068539Y-97531715D01*
X56819865Y-97421029D01*
X56498565Y-97228130D01*
X56182953Y-97019378D01*
X55177951Y-96409178D01*
X54119187Y-95886888D01*
X53046272Y-95466648D01*
X51998818Y-95162600D01*
X51016435Y-94988883D01*
X50392893Y-94952400D01*
X49787871Y-94952400D01*
X50007436Y-95384200D01*
X50007436Y-95384200D01*
G37*
X50007436Y-95384200D02*
X50600882Y-96368420D01*
X51365932Y-97343868D01*
X52272166Y-98279919D01*
X53289167Y-99145951D01*
X54386516Y-99911339D01*
X54682493Y-100090815D01*
X55085131Y-100350812D01*
X55334985Y-100576095D01*
X55470200Y-100801499D01*
X55475086Y-100814642D01*
X55683282Y-101166653D01*
X56056113Y-101562449D01*
X56566030Y-101979822D01*
X57185484Y-102396563D01*
X57886925Y-102790462D01*
X57991351Y-102843143D01*
X58429938Y-103055154D01*
X58800609Y-103222689D01*
X59067252Y-103330269D01*
X59193753Y-103362411D01*
X59197902Y-103360365D01*
X59172037Y-103257908D01*
X59042292Y-103063720D01*
X58961187Y-102964069D01*
X58700729Y-102644173D01*
X58469452Y-102332134D01*
X58300194Y-102074964D01*
X58225795Y-101919674D01*
X58224800Y-101909871D01*
X58309584Y-101872230D01*
X58478801Y-101886066D01*
X58667593Y-101893033D01*
X58732801Y-101847110D01*
X58778881Y-101756492D01*
X58885420Y-101810936D01*
X59004862Y-101983391D01*
X59016887Y-102008713D01*
X59188275Y-102233008D01*
X59432094Y-102413843D01*
X59629378Y-102503623D01*
X59753169Y-102487523D01*
X59875957Y-102337936D01*
X59952785Y-102215529D01*
X60108807Y-101993623D01*
X60232225Y-101870220D01*
X60256857Y-101861200D01*
X60391869Y-101938943D01*
X60612707Y-102148331D01*
X60890025Y-102453601D01*
X61194477Y-102818988D01*
X61496715Y-103208728D01*
X61767393Y-103587059D01*
X61977166Y-103918217D01*
X62039657Y-104033850D01*
X62323475Y-104788212D01*
X62406762Y-105516732D01*
X62289774Y-106215871D01*
X61972765Y-106882093D01*
X61818932Y-107101177D01*
X61347182Y-107590910D01*
X60689409Y-108076350D01*
X59862749Y-108549048D01*
X58884335Y-109000557D01*
X57771302Y-109422428D01*
X56540786Y-109806214D01*
X56076728Y-109932279D01*
X54530317Y-110306980D01*
X52880089Y-110648280D01*
X51117118Y-110956987D01*
X49232478Y-111233910D01*
X47217242Y-111479856D01*
X45062485Y-111695635D01*
X42759279Y-111882053D01*
X40298699Y-112039919D01*
X37671817Y-112170042D01*
X34869709Y-112273228D01*
X31883447Y-112350288D01*
X28811600Y-112400723D01*
X27587520Y-112415868D01*
X26555857Y-112429145D01*
X25705845Y-112441054D01*
X25026714Y-112452096D01*
X24507697Y-112462772D01*
X24138026Y-112473581D01*
X23906932Y-112485024D01*
X23803648Y-112497601D01*
X23817405Y-112511813D01*
X23937435Y-112528160D01*
X24152970Y-112547143D01*
X24453242Y-112569262D01*
X24747600Y-112589576D01*
X25156020Y-112610678D01*
X25745813Y-112631485D01*
X26495155Y-112651758D01*
X27382218Y-112671261D01*
X28385178Y-112689756D01*
X29482208Y-112707008D01*
X30651483Y-112722778D01*
X31871176Y-112736829D01*
X33119462Y-112748925D01*
X34374514Y-112758829D01*
X35614506Y-112766303D01*
X36817614Y-112771111D01*
X37962010Y-112773016D01*
X39025869Y-112771780D01*
X39987365Y-112767166D01*
X40597200Y-112761696D01*
X42496086Y-112726163D01*
X44439383Y-112662661D01*
X46388953Y-112573547D01*
X48306658Y-112461175D01*
X50154358Y-112327901D01*
X51893915Y-112176082D01*
X53487190Y-112008073D01*
X54191608Y-111922009D01*
X56248485Y-111621358D01*
X58122371Y-111271922D01*
X59811707Y-110874474D01*
X61314932Y-110429785D01*
X62630486Y-109938628D01*
X63756810Y-109401776D01*
X64692344Y-108820000D01*
X65435529Y-108194073D01*
X65984803Y-107524767D01*
X66338608Y-106812855D01*
X66495384Y-106059109D01*
X66503764Y-105825736D01*
X66481276Y-105383906D01*
X66397758Y-105032572D01*
X66225721Y-104661817D01*
X66201688Y-104617803D01*
X65761329Y-104003160D01*
X65135521Y-103407089D01*
X64341905Y-102841421D01*
X63398119Y-102317992D01*
X62321805Y-101848635D01*
X61979727Y-101724306D01*
X60008861Y-101724306D01*
X59920555Y-101967588D01*
X59897236Y-102005391D01*
X59706047Y-102209756D01*
X59521262Y-102266186D01*
X59406136Y-102186930D01*
X59423150Y-102054939D01*
X59526756Y-101843549D01*
X59670564Y-101627006D01*
X59808187Y-101479556D01*
X59863566Y-101454800D01*
X59988593Y-101532576D01*
X60008861Y-101724306D01*
X61979727Y-101724306D01*
X61780800Y-101652006D01*
X61363957Y-101505097D01*
X61019169Y-101375502D01*
X60792221Y-101280874D01*
X60729988Y-101246840D01*
X60703934Y-101110069D01*
X60751460Y-100971727D01*
X60778955Y-100867342D01*
X60530249Y-100867342D01*
X60440262Y-101117541D01*
X60355821Y-101255223D01*
X60189278Y-101451871D01*
X60064756Y-101489241D01*
X59997076Y-101450049D01*
X59926336Y-101345943D01*
X59933182Y-101316150D01*
X59527615Y-101316150D01*
X59509295Y-101484269D01*
X59377543Y-101718436D01*
X59242401Y-101881722D01*
X59148475Y-101872750D01*
X59125099Y-101841862D01*
X59045718Y-101618874D01*
X59039156Y-101551320D01*
X59107825Y-101336399D01*
X59271694Y-101214901D01*
X59405581Y-101219609D01*
X59527615Y-101316150D01*
X59933182Y-101316150D01*
X59961400Y-101193350D01*
X60086869Y-100974890D01*
X60249996Y-100749915D01*
X60359836Y-100643964D01*
X60026837Y-100643964D01*
X59889515Y-100899574D01*
X59712489Y-101108941D01*
X59571374Y-101128242D01*
X59488813Y-101038712D01*
X59487334Y-101013049D01*
X58854158Y-101013049D01*
X58752172Y-101253227D01*
X58594023Y-101460213D01*
X58442870Y-101553614D01*
X58344145Y-101514530D01*
X58328660Y-101429400D01*
X58389617Y-101245463D01*
X58528914Y-101050535D01*
X58689570Y-100908630D01*
X58814431Y-100883658D01*
X58854158Y-101013049D01*
X59487334Y-101013049D01*
X59478329Y-100856886D01*
X59581954Y-100642382D01*
X59747022Y-100478616D01*
X59867569Y-100438800D01*
X60024427Y-100487821D01*
X60026837Y-100643964D01*
X60359836Y-100643964D01*
X60383303Y-100621328D01*
X60412877Y-100610076D01*
X60522741Y-100679873D01*
X60530249Y-100867342D01*
X60778955Y-100867342D01*
X60797684Y-100796240D01*
X60700400Y-100627436D01*
X60627324Y-100554419D01*
X60371799Y-100395898D01*
X60123252Y-100337199D01*
X59923579Y-100298625D01*
X59850401Y-100216748D01*
X59835616Y-100181520D01*
X59391340Y-100181520D01*
X59280852Y-100429636D01*
X59112577Y-100671202D01*
X58987114Y-100734471D01*
X58884772Y-100641306D01*
X58888359Y-100498758D01*
X58986778Y-100304990D01*
X59132722Y-100121523D01*
X59278884Y-100009879D01*
X59366050Y-100015409D01*
X59391340Y-100181520D01*
X59835616Y-100181520D01*
X59786034Y-100063391D01*
X59631127Y-99862892D01*
X59629867Y-99861548D01*
X59508938Y-99701268D01*
X59083779Y-99701268D01*
X58885186Y-100070034D01*
X58740642Y-100300391D01*
X58620137Y-100429056D01*
X58593700Y-100438800D01*
X58473108Y-100388041D01*
X58222333Y-100251207D01*
X57882534Y-100051457D01*
X57626205Y-99894361D01*
X57167070Y-99609093D01*
X56852835Y-99416192D01*
X56656136Y-99300251D01*
X56549607Y-99245863D01*
X56505886Y-99237620D01*
X56497600Y-99258903D01*
X56577114Y-99331715D01*
X56793663Y-99492167D01*
X57114256Y-99716625D01*
X57505905Y-99981454D01*
X57509469Y-99983827D01*
X58521337Y-100657455D01*
X58296869Y-101004069D01*
X58124236Y-101223596D01*
X57970295Y-101344106D01*
X57937329Y-101351942D01*
X57780474Y-101316977D01*
X57495943Y-101223873D01*
X57143748Y-101092357D01*
X57124529Y-101084767D01*
X55749119Y-100464823D01*
X54453997Y-99732367D01*
X53269719Y-98908557D01*
X52226841Y-98014552D01*
X51390845Y-97114528D01*
X51116629Y-96757291D01*
X50837249Y-96357210D01*
X50579355Y-95957051D01*
X50369597Y-95599580D01*
X50234626Y-95327563D01*
X50198400Y-95201012D01*
X50290315Y-95148349D01*
X50540335Y-95140924D01*
X50909878Y-95172951D01*
X51360362Y-95238642D01*
X51853202Y-95332211D01*
X52349816Y-95447871D01*
X52811620Y-95579834D01*
X52885605Y-95604047D01*
X54437143Y-96228954D01*
X55895382Y-97034213D01*
X57260938Y-98020199D01*
X58158250Y-98814519D01*
X59083779Y-99701268D01*
X59508938Y-99701268D01*
X59495172Y-99683023D01*
X59468004Y-99568801D01*
X59471038Y-99565096D01*
X59587518Y-99559464D01*
X59849025Y-99588797D01*
X60202255Y-99643836D01*
X60593906Y-99715325D01*
X60970674Y-99794005D01*
X61279257Y-99870620D01*
X61348469Y-99891158D01*
X61380347Y-99862932D01*
X61280160Y-99732401D01*
X61120400Y-99575386D01*
X60365222Y-98936893D01*
X59620126Y-98406328D01*
X58909910Y-97997482D01*
X58259371Y-97724144D01*
X57693306Y-97600104D01*
X57557419Y-97594000D01*
X57296939Y-97582076D01*
X57068539Y-97531715D01*
X56819865Y-97421029D01*
X56498565Y-97228130D01*
X56182953Y-97019378D01*
X55177951Y-96409178D01*
X54119187Y-95886888D01*
X53046272Y-95466648D01*
X51998818Y-95162600D01*
X51016435Y-94988883D01*
X50392893Y-94952400D01*
X49787871Y-94952400D01*
X50007436Y-95384200D01*
G36*
X53477357Y-98585965D02*
X53685203Y-98759450D01*
X54021502Y-99004741D01*
X54278533Y-99179524D01*
X54599999Y-99380570D01*
X55003349Y-99614486D01*
X55448136Y-99860035D01*
X55893913Y-100095975D01*
X56300235Y-100301069D01*
X56626655Y-100454075D01*
X56832727Y-100533754D01*
X56870023Y-100540400D01*
X56821749Y-100493248D01*
X56628151Y-100364940D01*
X56320300Y-100175196D01*
X55938299Y-99948998D01*
X55412921Y-99639659D01*
X54839076Y-99296413D01*
X54304852Y-98972152D01*
X54059200Y-98820673D01*
X53688884Y-98601641D01*
X53472762Y-98496531D01*
X53404398Y-98494816D01*
X53477357Y-98585965D01*
X53477357Y-98585965D01*
G37*
X53477357Y-98585965D02*
X53685203Y-98759450D01*
X54021502Y-99004741D01*
X54278533Y-99179524D01*
X54599999Y-99380570D01*
X55003349Y-99614486D01*
X55448136Y-99860035D01*
X55893913Y-100095975D01*
X56300235Y-100301069D01*
X56626655Y-100454075D01*
X56832727Y-100533754D01*
X56870023Y-100540400D01*
X56821749Y-100493248D01*
X56628151Y-100364940D01*
X56320300Y-100175196D01*
X55938299Y-99948998D01*
X55412921Y-99639659D01*
X54839076Y-99296413D01*
X54304852Y-98972152D01*
X54059200Y-98820673D01*
X53688884Y-98601641D01*
X53472762Y-98496531D01*
X53404398Y-98494816D01*
X53477357Y-98585965D01*
G36*
X53043200Y-98254400D02*
X53094000Y-98305200D01*
X53144800Y-98254400D01*
X53094000Y-98203600D01*
X53043200Y-98254400D01*
X53043200Y-98254400D01*
G37*
X53043200Y-98254400D02*
X53094000Y-98305200D01*
X53144800Y-98254400D01*
X53094000Y-98203600D01*
X53043200Y-98254400D01*
G36*
X52297516Y-96054904D02*
X52009265Y-96301855D01*
X51861300Y-96687231D01*
X51854055Y-96994229D01*
X51975800Y-97242005D01*
X52042190Y-97322340D01*
X52348893Y-97555527D01*
X52704520Y-97656023D01*
X53036962Y-97606364D01*
X53094000Y-97577069D01*
X53390103Y-97307415D01*
X53532243Y-96976990D01*
X53531948Y-96808223D01*
X53449600Y-96808223D01*
X53362025Y-97118462D01*
X53137802Y-97347769D01*
X52834689Y-97474349D01*
X52510443Y-97476409D01*
X52222820Y-97332156D01*
X52178414Y-97287888D01*
X52013984Y-96978958D01*
X52011697Y-96648335D01*
X52148070Y-96350493D01*
X52399617Y-96139905D01*
X52703474Y-96070000D01*
X52979023Y-96155832D01*
X53238640Y-96368043D01*
X53413669Y-96638701D01*
X53449600Y-96808223D01*
X53531948Y-96808223D01*
X53531638Y-96632001D01*
X53399506Y-96318658D01*
X53147064Y-96083166D01*
X52785530Y-95971735D01*
X52703474Y-95968400D01*
X52297516Y-96054904D01*
X52297516Y-96054904D01*
G37*
X52297516Y-96054904D02*
X52009265Y-96301855D01*
X51861300Y-96687231D01*
X51854055Y-96994229D01*
X51975800Y-97242005D01*
X52042190Y-97322340D01*
X52348893Y-97555527D01*
X52704520Y-97656023D01*
X53036962Y-97606364D01*
X53094000Y-97577069D01*
X53390103Y-97307415D01*
X53532243Y-96976990D01*
X53531948Y-96808223D01*
X53449600Y-96808223D01*
X53362025Y-97118462D01*
X53137802Y-97347769D01*
X52834689Y-97474349D01*
X52510443Y-97476409D01*
X52222820Y-97332156D01*
X52178414Y-97287888D01*
X52013984Y-96978958D01*
X52011697Y-96648335D01*
X52148070Y-96350493D01*
X52399617Y-96139905D01*
X52703474Y-96070000D01*
X52979023Y-96155832D01*
X53238640Y-96368043D01*
X53413669Y-96638701D01*
X53449600Y-96808223D01*
X53531948Y-96808223D01*
X53531638Y-96632001D01*
X53399506Y-96318658D01*
X53147064Y-96083166D01*
X52785530Y-95971735D01*
X52703474Y-95968400D01*
X52297516Y-96054904D01*
D12*
X39140000Y-118542000D02*
X37140000Y-118542000D01*
X37140000Y-116502000D02*
X39140000Y-116502000D01*
X43440000Y-119702000D02*
X45440000Y-119702000D01*
X45440000Y-121742000D02*
X43440000Y-121742000D01*
X36040000Y-121422000D02*
X36040000Y-119422000D01*
X36040000Y-119422000D02*
X39890000Y-119422000D01*
X36040000Y-121422000D02*
X39890000Y-121422000D01*
D14*
X31190000Y-97772000D02*
X31190000Y-106272000D01*
X31190000Y-106272000D02*
X25190000Y-106272000D01*
X25190000Y-106272000D02*
X25190000Y-103772000D01*
X25190000Y-103772000D02*
X25940000Y-103772000D01*
X25940000Y-103772000D02*
X25940000Y-100022000D01*
X25190000Y-100022000D02*
X25190000Y-97522000D01*
X25190000Y-97522000D02*
X31190000Y-97522000D01*
X31190000Y-97522000D02*
X31190000Y-97772000D01*
X25940000Y-100022000D02*
X25190000Y-100022000D01*
D12*
X49090000Y-89172000D02*
X41390000Y-89172000D01*
X49090000Y-90172000D02*
X41390000Y-90172000D01*
X41390000Y-90172000D02*
X41390000Y-80972000D01*
X41390000Y-80972000D02*
X49090000Y-80972000D01*
X49090000Y-80972000D02*
X49090000Y-90172000D01*
X45360000Y-116922000D02*
X45360000Y-118122000D01*
X47120000Y-118122000D02*
X47120000Y-116922000D01*
X41940000Y-115912000D02*
X43740000Y-115912000D01*
X43740000Y-119132000D02*
X41290000Y-119132000D01*
X40960000Y-112422000D02*
X40960000Y-113622000D01*
X42720000Y-113622000D02*
X42720000Y-112422000D01*
X47120000Y-114622000D02*
X47120000Y-113422000D01*
X45360000Y-113422000D02*
X45360000Y-114622000D01*
X44890000Y-112422000D02*
X44890000Y-113422000D01*
X43190000Y-113422000D02*
X43190000Y-112422000D01*
D14*
X39706666Y-122974381D02*
X40182857Y-122974381D01*
X40182857Y-121974381D01*
X38849523Y-122974381D02*
X39420952Y-122974381D01*
X39135238Y-122974381D02*
X39135238Y-121974381D01*
X39230476Y-122117238D01*
X39325714Y-122212476D01*
X39420952Y-122260095D01*
X34906666Y-117979143D02*
X34954285Y-118026762D01*
X35097142Y-118074381D01*
X35192380Y-118074381D01*
X35335238Y-118026762D01*
X35430476Y-117931524D01*
X35478095Y-117836286D01*
X35525714Y-117645810D01*
X35525714Y-117502952D01*
X35478095Y-117312476D01*
X35430476Y-117217238D01*
X35335238Y-117122000D01*
X35192380Y-117074381D01*
X35097142Y-117074381D01*
X34954285Y-117122000D01*
X34906666Y-117169619D01*
X34049523Y-117074381D02*
X34240000Y-117074381D01*
X34335238Y-117122000D01*
X34382857Y-117169619D01*
X34478095Y-117312476D01*
X34525714Y-117502952D01*
X34525714Y-117883905D01*
X34478095Y-117979143D01*
X34430476Y-118026762D01*
X34335238Y-118074381D01*
X34144761Y-118074381D01*
X34049523Y-118026762D01*
X34001904Y-117979143D01*
X33954285Y-117883905D01*
X33954285Y-117645810D01*
X34001904Y-117550571D01*
X34049523Y-117502952D01*
X34144761Y-117455333D01*
X34335238Y-117455333D01*
X34430476Y-117502952D01*
X34478095Y-117550571D01*
X34525714Y-117645810D01*
X49082857Y-121179143D02*
X49130476Y-121226762D01*
X49273333Y-121274381D01*
X49368571Y-121274381D01*
X49511429Y-121226762D01*
X49606667Y-121131524D01*
X49654286Y-121036286D01*
X49701905Y-120845810D01*
X49701905Y-120702952D01*
X49654286Y-120512476D01*
X49606667Y-120417238D01*
X49511429Y-120322000D01*
X49368571Y-120274381D01*
X49273333Y-120274381D01*
X49130476Y-120322000D01*
X49082857Y-120369619D01*
X48701905Y-120369619D02*
X48654286Y-120322000D01*
X48559048Y-120274381D01*
X48320952Y-120274381D01*
X48225714Y-120322000D01*
X48178095Y-120369619D01*
X48130476Y-120464857D01*
X48130476Y-120560095D01*
X48178095Y-120702952D01*
X48749524Y-121274381D01*
X48130476Y-121274381D01*
X47511429Y-120274381D02*
X47416190Y-120274381D01*
X47320952Y-120322000D01*
X47273333Y-120369619D01*
X47225714Y-120464857D01*
X47178095Y-120655333D01*
X47178095Y-120893429D01*
X47225714Y-121083905D01*
X47273333Y-121179143D01*
X47320952Y-121226762D01*
X47416190Y-121274381D01*
X47511429Y-121274381D01*
X47606667Y-121226762D01*
X47654286Y-121179143D01*
X47701905Y-121083905D01*
X47749524Y-120893429D01*
X47749524Y-120655333D01*
X47701905Y-120464857D01*
X47654286Y-120369619D01*
X47606667Y-120322000D01*
X47511429Y-120274381D01*
X35578095Y-120974381D02*
X35578095Y-119974381D01*
X35340000Y-119974381D01*
X35197142Y-120022000D01*
X35101904Y-120117238D01*
X35054285Y-120212476D01*
X35006666Y-120402952D01*
X35006666Y-120545810D01*
X35054285Y-120736286D01*
X35101904Y-120831524D01*
X35197142Y-120926762D01*
X35340000Y-120974381D01*
X35578095Y-120974381D01*
X34149523Y-119974381D02*
X34340000Y-119974381D01*
X34435238Y-120022000D01*
X34482857Y-120069619D01*
X34578095Y-120212476D01*
X34625714Y-120402952D01*
X34625714Y-120783905D01*
X34578095Y-120879143D01*
X34530476Y-120926762D01*
X34435238Y-120974381D01*
X34244761Y-120974381D01*
X34149523Y-120926762D01*
X34101904Y-120879143D01*
X34054285Y-120783905D01*
X34054285Y-120545810D01*
X34101904Y-120450571D01*
X34149523Y-120402952D01*
X34244761Y-120355333D01*
X34435238Y-120355333D01*
X34530476Y-120402952D01*
X34578095Y-120450571D01*
X34625714Y-120545810D01*
X23273333Y-104474381D02*
X23273333Y-105188667D01*
X23320953Y-105331524D01*
X23416191Y-105426762D01*
X23559048Y-105474381D01*
X23654286Y-105474381D01*
X22844762Y-104569619D02*
X22797143Y-104522000D01*
X22701905Y-104474381D01*
X22463809Y-104474381D01*
X22368571Y-104522000D01*
X22320952Y-104569619D01*
X22273333Y-104664857D01*
X22273333Y-104760095D01*
X22320952Y-104902952D01*
X22892381Y-105474381D01*
X22273333Y-105474381D01*
X37792381Y-85238667D02*
X38506667Y-85238667D01*
X38649524Y-85191047D01*
X38744762Y-85095809D01*
X38792381Y-84952952D01*
X38792381Y-84857714D01*
X38125714Y-86143429D02*
X38792381Y-86143429D01*
X37744762Y-85905333D02*
X38459048Y-85667238D01*
X38459048Y-86286286D01*
X48342381Y-116879143D02*
X47866190Y-116545809D01*
X48342381Y-116307714D02*
X47342381Y-116307714D01*
X47342381Y-116688667D01*
X47390000Y-116783905D01*
X47437619Y-116831524D01*
X47532857Y-116879143D01*
X47675714Y-116879143D01*
X47770952Y-116831524D01*
X47818571Y-116783905D01*
X47866190Y-116688667D01*
X47866190Y-116307714D01*
X48342381Y-117831524D02*
X48342381Y-117260095D01*
X48342381Y-117545809D02*
X47342381Y-117545809D01*
X47485238Y-117450571D01*
X47580476Y-117355333D01*
X47628095Y-117260095D01*
X47342381Y-118164857D02*
X47342381Y-118831524D01*
X48342381Y-118402952D01*
X44078095Y-114574381D02*
X44078095Y-115383905D01*
X44030476Y-115479143D01*
X43982857Y-115526762D01*
X43887619Y-115574381D01*
X43697142Y-115574381D01*
X43601904Y-115526762D01*
X43554285Y-115479143D01*
X43506666Y-115383905D01*
X43506666Y-114574381D01*
X42506666Y-115574381D02*
X43078095Y-115574381D01*
X42792381Y-115574381D02*
X42792381Y-114574381D01*
X42887619Y-114717238D01*
X42982857Y-114812476D01*
X43078095Y-114860095D01*
X41554285Y-115574381D02*
X42125714Y-115574381D01*
X41840000Y-115574381D02*
X41840000Y-114574381D01*
X41935238Y-114717238D01*
X42030476Y-114812476D01*
X42125714Y-114860095D01*
X42292381Y-109279143D02*
X41816190Y-108945809D01*
X42292381Y-108707714D02*
X41292381Y-108707714D01*
X41292381Y-109088667D01*
X41340000Y-109183905D01*
X41387619Y-109231524D01*
X41482857Y-109279143D01*
X41625714Y-109279143D01*
X41720952Y-109231524D01*
X41768571Y-109183905D01*
X41816190Y-109088667D01*
X41816190Y-108707714D01*
X42292381Y-110231524D02*
X42292381Y-109660095D01*
X42292381Y-109945809D02*
X41292381Y-109945809D01*
X41435238Y-109850571D01*
X41530476Y-109755333D01*
X41578095Y-109660095D01*
X41720952Y-110802952D02*
X41673333Y-110707714D01*
X41625714Y-110660095D01*
X41530476Y-110612476D01*
X41482857Y-110612476D01*
X41387619Y-110660095D01*
X41340000Y-110707714D01*
X41292381Y-110802952D01*
X41292381Y-110993429D01*
X41340000Y-111088667D01*
X41387619Y-111136286D01*
X41482857Y-111183905D01*
X41530476Y-111183905D01*
X41625714Y-111136286D01*
X41673333Y-111088667D01*
X41720952Y-110993429D01*
X41720952Y-110802952D01*
X41768571Y-110707714D01*
X41816190Y-110660095D01*
X41911429Y-110612476D01*
X42101905Y-110612476D01*
X42197143Y-110660095D01*
X42244762Y-110707714D01*
X42292381Y-110802952D01*
X42292381Y-110993429D01*
X42244762Y-111088667D01*
X42197143Y-111136286D01*
X42101905Y-111183905D01*
X41911429Y-111183905D01*
X41816190Y-111136286D01*
X41768571Y-111088667D01*
X41720952Y-110993429D01*
X46692381Y-110179143D02*
X46216190Y-109845809D01*
X46692381Y-109607714D02*
X45692381Y-109607714D01*
X45692381Y-109988667D01*
X45740000Y-110083905D01*
X45787619Y-110131524D01*
X45882857Y-110179143D01*
X46025714Y-110179143D01*
X46120952Y-110131524D01*
X46168571Y-110083905D01*
X46216190Y-109988667D01*
X46216190Y-109607714D01*
X46692381Y-111131524D02*
X46692381Y-110560095D01*
X46692381Y-110845809D02*
X45692381Y-110845809D01*
X45835238Y-110750571D01*
X45930476Y-110655333D01*
X45978095Y-110560095D01*
X46692381Y-111607714D02*
X46692381Y-111798190D01*
X46644762Y-111893429D01*
X46597143Y-111941048D01*
X46454286Y-112036286D01*
X46263810Y-112083905D01*
X45882857Y-112083905D01*
X45787619Y-112036286D01*
X45740000Y-111988667D01*
X45692381Y-111893429D01*
X45692381Y-111702952D01*
X45740000Y-111607714D01*
X45787619Y-111560095D01*
X45882857Y-111512476D01*
X46120952Y-111512476D01*
X46216190Y-111560095D01*
X46263810Y-111607714D01*
X46311429Y-111702952D01*
X46311429Y-111893429D01*
X46263810Y-111988667D01*
X46216190Y-112036286D01*
X46120952Y-112083905D01*
X44397143Y-109079143D02*
X44444762Y-109031524D01*
X44492381Y-108888667D01*
X44492381Y-108793429D01*
X44444762Y-108650571D01*
X44349524Y-108555333D01*
X44254286Y-108507714D01*
X44063810Y-108460095D01*
X43920952Y-108460095D01*
X43730476Y-108507714D01*
X43635238Y-108555333D01*
X43540000Y-108650571D01*
X43492381Y-108793429D01*
X43492381Y-108888667D01*
X43540000Y-109031524D01*
X43587619Y-109079143D01*
X43587619Y-109460095D02*
X43540000Y-109507714D01*
X43492381Y-109602952D01*
X43492381Y-109841048D01*
X43540000Y-109936286D01*
X43587619Y-109983905D01*
X43682857Y-110031524D01*
X43778095Y-110031524D01*
X43920952Y-109983905D01*
X44492381Y-109412476D01*
X44492381Y-110031524D01*
X43587619Y-110412476D02*
X43540000Y-110460095D01*
X43492381Y-110555333D01*
X43492381Y-110793429D01*
X43540000Y-110888667D01*
X43587619Y-110936286D01*
X43682857Y-110983905D01*
X43778095Y-110983905D01*
X43920952Y-110936286D01*
X44492381Y-110364857D01*
X44492381Y-110983905D01*
M02*
