G04 #@! TF.GenerationSoftware,KiCad,Pcbnew,(5.1.0)-1*
G04 #@! TF.CreationDate,2019-04-30T23:23:29-05:00*
G04 #@! TF.ProjectId,Avionics Board 1,4176696f-6e69-4637-9320-426f61726420,rev?*
G04 #@! TF.SameCoordinates,Original*
G04 #@! TF.FileFunction,Copper,L2,Inr*
G04 #@! TF.FilePolarity,Positive*
%FSLAX46Y46*%
G04 Gerber Fmt 4.6, Leading zero omitted, Abs format (unit mm)*
G04 Created by KiCad (PCBNEW (5.1.0)-1) date 2019-04-30 23:23:29*
%MOMM*%
%LPD*%
G04 APERTURE LIST*
%ADD10O,0.850000X0.850000*%
%ADD11R,0.850000X0.850000*%
%ADD12C,5.400000*%
%ADD13R,1.700000X1.700000*%
%ADD14O,1.700000X1.700000*%
%ADD15C,0.800000*%
%ADD16C,1.000000*%
%ADD17C,0.600000*%
%ADD18C,1.200000*%
%ADD19C,0.500000*%
%ADD20C,0.250000*%
%ADD21C,0.254000*%
G04 APERTURE END LIST*
D10*
X34700000Y-110000000D03*
X34700000Y-111000000D03*
X33700000Y-110000000D03*
X33700000Y-111000000D03*
X32700000Y-110000000D03*
X32700000Y-111000000D03*
X31700000Y-110000000D03*
X31700000Y-111000000D03*
X30700000Y-110000000D03*
X30700000Y-111000000D03*
X29700000Y-110000000D03*
X29700000Y-111000000D03*
X28700000Y-110000000D03*
X28700000Y-111000000D03*
X27700000Y-110000000D03*
X27700000Y-111000000D03*
X26700000Y-110000000D03*
X26700000Y-111000000D03*
X25700000Y-110000000D03*
X25700000Y-111000000D03*
X24700000Y-110000000D03*
X24700000Y-111000000D03*
X23700000Y-110000000D03*
X23700000Y-111000000D03*
X22700000Y-110000000D03*
D11*
X22700000Y-111000000D03*
D12*
X64940000Y-93322000D03*
X62100000Y-117000000D03*
X25640000Y-93322000D03*
X28000000Y-117000000D03*
D13*
X52940000Y-93022000D03*
D14*
X50400000Y-93022000D03*
D13*
X33223200Y-121406920D03*
D14*
X33223200Y-118866920D03*
X33223200Y-116326920D03*
D15*
X40740000Y-117522000D03*
D16*
X42840000Y-119322000D03*
D17*
X29640000Y-107022000D03*
X40440000Y-97722000D03*
X46040000Y-101522000D03*
X40940000Y-91822000D03*
X34240000Y-94222000D03*
X51740000Y-119122000D03*
D18*
X43640000Y-89422000D03*
D17*
X46240000Y-93822000D03*
D18*
X35140000Y-87322000D03*
X29940000Y-92822000D03*
D16*
X35140000Y-81722000D03*
D17*
X56311800Y-119621300D03*
D18*
X52240000Y-82322000D03*
X62640000Y-87222000D03*
X54240000Y-89622000D03*
D17*
X39570000Y-106758000D03*
X32440000Y-103522000D03*
X25092000Y-97360000D03*
X25092000Y-105234000D03*
X59106000Y-103572000D03*
X55042000Y-101032000D03*
X55296000Y-99000000D03*
X57074000Y-97476000D03*
X63932000Y-99000000D03*
X61900000Y-97476000D03*
X63424000Y-102302000D03*
D18*
X21390000Y-102872000D03*
D17*
X39240000Y-110222000D03*
D18*
X44900000Y-79200000D03*
D17*
X51800760Y-108310680D03*
X57715000Y-111668560D03*
X54787800Y-108818680D03*
X63124080Y-112379760D03*
X61716920Y-105105200D03*
X54102000Y-105791000D03*
X47840000Y-82722000D03*
D16*
X51440000Y-84922000D03*
D18*
X47840000Y-90622000D03*
D16*
X37440000Y-90522000D03*
D18*
X47401480Y-125724920D03*
D17*
X45840000Y-100622000D03*
X49040000Y-98922000D03*
X68184000Y-101322000D03*
X64940000Y-101522000D03*
X33340000Y-103922000D03*
X38640000Y-95222000D03*
X50640000Y-106322000D03*
D15*
X30040000Y-85122000D03*
D17*
X53140000Y-119322000D03*
X38240000Y-110022000D03*
D18*
X31640000Y-92822000D03*
D17*
X53247000Y-114447000D03*
X47381160Y-108727240D03*
X43327320Y-123012200D03*
X59827160Y-107690920D03*
X65211960Y-108285280D03*
X54193440Y-107172760D03*
X54652078Y-104417962D03*
D16*
X38740000Y-80322000D03*
D18*
X52140000Y-80522000D03*
D16*
X46100000Y-95922000D03*
D18*
X59840000Y-84522000D03*
D16*
X49022000Y-118948200D03*
D17*
X46940000Y-105622000D03*
X51612800Y-124576840D03*
X48240000Y-105322000D03*
X53645608Y-123811492D03*
X49440000Y-105122000D03*
X58293000Y-123050300D03*
X46040000Y-84122000D03*
X45140000Y-84822000D03*
X39141400Y-114437160D03*
X36337240Y-114147600D03*
X38968680Y-116123720D03*
X35692080Y-114940080D03*
X35514280Y-115773200D03*
X42453560Y-110388400D03*
X45640000Y-109022000D03*
X46340000Y-108622000D03*
X52840000Y-103122000D03*
X52440000Y-110222000D03*
X55740000Y-103022000D03*
X58540000Y-115122000D03*
X59040000Y-109067360D03*
X53540000Y-109522000D03*
X54040000Y-102022000D03*
X57940000Y-114022000D03*
X59522360Y-105557320D03*
X26940000Y-107622000D03*
X35740000Y-99422000D03*
X25940000Y-107522000D03*
X36840000Y-94622000D03*
X35940000Y-93922000D03*
X24740000Y-107222000D03*
X41740000Y-95922000D03*
X30940000Y-102622000D03*
X32240000Y-104922000D03*
X32340000Y-105822000D03*
X56896000Y-108625640D03*
D19*
X42840000Y-119322000D02*
X42940000Y-119322000D01*
D20*
X29664000Y-107246000D02*
X30240000Y-107822000D01*
X30240000Y-107822000D02*
X34640000Y-107822000D01*
X34640000Y-107822000D02*
X35340000Y-108522000D01*
X32440000Y-112622000D02*
X32240000Y-112422000D01*
X29664000Y-107012000D02*
X29664000Y-107246000D01*
X29664000Y-107022000D02*
X29664000Y-107012000D01*
X29640000Y-107022000D02*
X29664000Y-107022000D01*
X40440000Y-97722000D02*
X44140000Y-101422000D01*
X45940000Y-101422000D02*
X46040000Y-101522000D01*
X44140000Y-101422000D02*
X45940000Y-101422000D01*
X28740000Y-112460000D02*
X28740000Y-111022000D01*
X28300000Y-112900000D02*
X28740000Y-112460000D01*
X26100000Y-112900000D02*
X28300000Y-112900000D01*
X25740000Y-111022000D02*
X25740000Y-112540000D01*
X25740000Y-112540000D02*
X26100000Y-112900000D01*
X28740000Y-111022000D02*
X29740000Y-111022000D01*
X29740000Y-111022000D02*
X30740000Y-111022000D01*
X25740000Y-111022000D02*
X25740000Y-110022000D01*
X33640000Y-112622000D02*
X32440000Y-112622000D01*
X42265158Y-110388400D02*
X42453560Y-110388400D01*
X35514280Y-115773200D02*
X36880358Y-115773200D01*
X36880358Y-115773200D02*
X42265158Y-110388400D01*
D21*
G36*
X47145913Y-79005084D02*
G01*
X49040075Y-79229272D01*
X50910808Y-79601384D01*
X51225352Y-79690094D01*
X51180713Y-79734733D01*
X51045557Y-79937008D01*
X50952460Y-80161764D01*
X50905000Y-80400363D01*
X50905000Y-80643637D01*
X50952460Y-80882236D01*
X51045557Y-81106992D01*
X51180713Y-81309267D01*
X51352733Y-81481287D01*
X51555008Y-81616443D01*
X51779764Y-81709540D01*
X52018363Y-81757000D01*
X52261637Y-81757000D01*
X52500236Y-81709540D01*
X52724992Y-81616443D01*
X52927267Y-81481287D01*
X53099287Y-81309267D01*
X53234443Y-81106992D01*
X53327540Y-80882236D01*
X53375000Y-80643637D01*
X53375000Y-80400363D01*
X53364395Y-80347050D01*
X54536069Y-80779303D01*
X56268246Y-81577848D01*
X57932431Y-82509836D01*
X59286423Y-83414544D01*
X59255008Y-83427557D01*
X59052733Y-83562713D01*
X58880713Y-83734733D01*
X58745557Y-83937008D01*
X58652460Y-84161764D01*
X58605000Y-84400363D01*
X58605000Y-84643637D01*
X58652460Y-84882236D01*
X58745557Y-85106992D01*
X58880713Y-85309267D01*
X59052733Y-85481287D01*
X59255008Y-85616443D01*
X59479764Y-85709540D01*
X59718363Y-85757000D01*
X59961637Y-85757000D01*
X60200236Y-85709540D01*
X60424992Y-85616443D01*
X60627267Y-85481287D01*
X60799287Y-85309267D01*
X60934443Y-85106992D01*
X61027540Y-84882236D01*
X61047944Y-84779657D01*
X62416897Y-86045103D01*
X63711630Y-87445738D01*
X64892479Y-88943638D01*
X65628665Y-90045418D01*
X65598254Y-90036148D01*
X64944569Y-89970866D01*
X64290707Y-90034366D01*
X63661797Y-90224208D01*
X63082008Y-90533096D01*
X63074411Y-90538172D01*
X62774231Y-90976626D01*
X64940000Y-93142395D01*
X64954143Y-93128253D01*
X65133748Y-93307858D01*
X65119605Y-93322000D01*
X67285374Y-95487769D01*
X67723828Y-95187589D01*
X67975211Y-94718823D01*
X68342875Y-95715421D01*
X68860616Y-97551192D01*
X69232728Y-99421925D01*
X69456916Y-101316087D01*
X69531800Y-103222000D01*
X69456916Y-105127913D01*
X69232728Y-107022075D01*
X68860616Y-108892808D01*
X68342875Y-110728579D01*
X67682697Y-112518069D01*
X66884152Y-114250246D01*
X65952164Y-115914431D01*
X65422280Y-116707459D01*
X65387634Y-116350707D01*
X65197792Y-115721797D01*
X64888904Y-115142008D01*
X64883828Y-115134411D01*
X64445374Y-114834231D01*
X62279605Y-117000000D01*
X62293748Y-117014143D01*
X62114143Y-117193748D01*
X62100000Y-117179605D01*
X59934231Y-119345374D01*
X60234411Y-119783828D01*
X60813356Y-120094296D01*
X61441746Y-120285852D01*
X62095431Y-120351134D01*
X62497108Y-120312125D01*
X62416897Y-120398897D01*
X61016262Y-121693630D01*
X59518362Y-122874479D01*
X59228000Y-123068493D01*
X59228000Y-122958211D01*
X59192068Y-122777571D01*
X59121586Y-122607411D01*
X59019262Y-122454272D01*
X58889028Y-122324038D01*
X58735889Y-122221714D01*
X58565729Y-122151232D01*
X58385089Y-122115300D01*
X58200911Y-122115300D01*
X58020271Y-122151232D01*
X57850111Y-122221714D01*
X57696972Y-122324038D01*
X57566738Y-122454272D01*
X57464414Y-122607411D01*
X57393932Y-122777571D01*
X57358000Y-122958211D01*
X57358000Y-123142389D01*
X57393932Y-123323029D01*
X57464414Y-123493189D01*
X57566738Y-123646328D01*
X57696972Y-123776562D01*
X57850111Y-123878886D01*
X57951999Y-123921089D01*
X57932431Y-123934164D01*
X56268246Y-124866152D01*
X54536069Y-125664697D01*
X52746579Y-126324875D01*
X50910808Y-126842616D01*
X49040075Y-127214728D01*
X47145913Y-127438916D01*
X45240000Y-127513800D01*
X43334087Y-127438916D01*
X41439925Y-127214728D01*
X39569192Y-126842616D01*
X37733421Y-126324875D01*
X35943931Y-125664697D01*
X35810714Y-125603283D01*
X46166480Y-125603283D01*
X46166480Y-125846557D01*
X46213940Y-126085156D01*
X46307037Y-126309912D01*
X46442193Y-126512187D01*
X46614213Y-126684207D01*
X46816488Y-126819363D01*
X47041244Y-126912460D01*
X47279843Y-126959920D01*
X47523117Y-126959920D01*
X47761716Y-126912460D01*
X47986472Y-126819363D01*
X48188747Y-126684207D01*
X48360767Y-126512187D01*
X48495923Y-126309912D01*
X48589020Y-126085156D01*
X48636480Y-125846557D01*
X48636480Y-125603283D01*
X48589020Y-125364684D01*
X48495923Y-125139928D01*
X48360767Y-124937653D01*
X48188747Y-124765633D01*
X47986472Y-124630477D01*
X47761716Y-124537380D01*
X47523117Y-124489920D01*
X47279843Y-124489920D01*
X47041244Y-124537380D01*
X46816488Y-124630477D01*
X46614213Y-124765633D01*
X46442193Y-124937653D01*
X46307037Y-125139928D01*
X46213940Y-125364684D01*
X46166480Y-125603283D01*
X35810714Y-125603283D01*
X34211754Y-124866152D01*
X33530714Y-124484751D01*
X50677800Y-124484751D01*
X50677800Y-124668929D01*
X50713732Y-124849569D01*
X50784214Y-125019729D01*
X50886538Y-125172868D01*
X51016772Y-125303102D01*
X51169911Y-125405426D01*
X51340071Y-125475908D01*
X51520711Y-125511840D01*
X51704889Y-125511840D01*
X51885529Y-125475908D01*
X52055689Y-125405426D01*
X52208828Y-125303102D01*
X52339062Y-125172868D01*
X52441386Y-125019729D01*
X52511868Y-124849569D01*
X52547800Y-124668929D01*
X52547800Y-124484751D01*
X52511868Y-124304111D01*
X52441386Y-124133951D01*
X52339062Y-123980812D01*
X52208828Y-123850578D01*
X52055689Y-123748254D01*
X51986036Y-123719403D01*
X52710608Y-123719403D01*
X52710608Y-123903581D01*
X52746540Y-124084221D01*
X52817022Y-124254381D01*
X52919346Y-124407520D01*
X53049580Y-124537754D01*
X53202719Y-124640078D01*
X53372879Y-124710560D01*
X53553519Y-124746492D01*
X53737697Y-124746492D01*
X53918337Y-124710560D01*
X54088497Y-124640078D01*
X54241636Y-124537754D01*
X54371870Y-124407520D01*
X54474194Y-124254381D01*
X54544676Y-124084221D01*
X54580608Y-123903581D01*
X54580608Y-123719403D01*
X54544676Y-123538763D01*
X54474194Y-123368603D01*
X54371870Y-123215464D01*
X54241636Y-123085230D01*
X54088497Y-122982906D01*
X53918337Y-122912424D01*
X53737697Y-122876492D01*
X53553519Y-122876492D01*
X53372879Y-122912424D01*
X53202719Y-122982906D01*
X53049580Y-123085230D01*
X52919346Y-123215464D01*
X52817022Y-123368603D01*
X52746540Y-123538763D01*
X52710608Y-123719403D01*
X51986036Y-123719403D01*
X51885529Y-123677772D01*
X51704889Y-123641840D01*
X51520711Y-123641840D01*
X51340071Y-123677772D01*
X51169911Y-123748254D01*
X51016772Y-123850578D01*
X50886538Y-123980812D01*
X50784214Y-124133951D01*
X50713732Y-124304111D01*
X50677800Y-124484751D01*
X33530714Y-124484751D01*
X32547569Y-123934164D01*
X31029932Y-122920111D01*
X42392320Y-122920111D01*
X42392320Y-123104289D01*
X42428252Y-123284929D01*
X42498734Y-123455089D01*
X42601058Y-123608228D01*
X42731292Y-123738462D01*
X42884431Y-123840786D01*
X43054591Y-123911268D01*
X43235231Y-123947200D01*
X43419409Y-123947200D01*
X43600049Y-123911268D01*
X43770209Y-123840786D01*
X43923348Y-123738462D01*
X44053582Y-123608228D01*
X44155906Y-123455089D01*
X44226388Y-123284929D01*
X44262320Y-123104289D01*
X44262320Y-122920111D01*
X44226388Y-122739471D01*
X44155906Y-122569311D01*
X44053582Y-122416172D01*
X43923348Y-122285938D01*
X43770209Y-122183614D01*
X43600049Y-122113132D01*
X43419409Y-122077200D01*
X43235231Y-122077200D01*
X43054591Y-122113132D01*
X42884431Y-122183614D01*
X42731292Y-122285938D01*
X42601058Y-122416172D01*
X42498734Y-122569311D01*
X42428252Y-122739471D01*
X42392320Y-122920111D01*
X31029932Y-122920111D01*
X30961638Y-122874479D01*
X29463738Y-121693630D01*
X28063103Y-120398897D01*
X28017014Y-120349038D01*
X28649293Y-120287634D01*
X29278203Y-120097792D01*
X29857992Y-119788904D01*
X29865589Y-119783828D01*
X30165769Y-119345374D01*
X28000000Y-117179605D01*
X27985858Y-117193748D01*
X27806253Y-117014143D01*
X27820395Y-117000000D01*
X28179605Y-117000000D01*
X30345374Y-119165769D01*
X30781883Y-118866920D01*
X31731015Y-118866920D01*
X31759687Y-119158031D01*
X31844601Y-119437954D01*
X31982494Y-119695934D01*
X32168066Y-119922054D01*
X32197887Y-119946527D01*
X32129020Y-119967418D01*
X32018706Y-120026383D01*
X31922015Y-120105735D01*
X31842663Y-120202426D01*
X31783698Y-120312740D01*
X31747388Y-120432438D01*
X31735128Y-120556920D01*
X31735128Y-122256920D01*
X31747388Y-122381402D01*
X31783698Y-122501100D01*
X31842663Y-122611414D01*
X31922015Y-122708105D01*
X32018706Y-122787457D01*
X32129020Y-122846422D01*
X32248718Y-122882732D01*
X32373200Y-122894992D01*
X34073200Y-122894992D01*
X34197682Y-122882732D01*
X34317380Y-122846422D01*
X34427694Y-122787457D01*
X34524385Y-122708105D01*
X34603737Y-122611414D01*
X34662702Y-122501100D01*
X34699012Y-122381402D01*
X34711272Y-122256920D01*
X34711272Y-120556920D01*
X34699012Y-120432438D01*
X34662702Y-120312740D01*
X34603737Y-120202426D01*
X34524385Y-120105735D01*
X34427694Y-120026383D01*
X34317380Y-119967418D01*
X34248513Y-119946527D01*
X34278334Y-119922054D01*
X34463906Y-119695934D01*
X34601799Y-119437954D01*
X34686713Y-119158031D01*
X34715385Y-118866920D01*
X34712381Y-118836412D01*
X47887000Y-118836412D01*
X47887000Y-119059988D01*
X47930617Y-119279267D01*
X48016176Y-119485824D01*
X48140388Y-119671720D01*
X48298480Y-119829812D01*
X48484376Y-119954024D01*
X48690933Y-120039583D01*
X48910212Y-120083200D01*
X49133788Y-120083200D01*
X49353067Y-120039583D01*
X49559624Y-119954024D01*
X49745520Y-119829812D01*
X49903612Y-119671720D01*
X50027824Y-119485824D01*
X50113383Y-119279267D01*
X50123200Y-119229911D01*
X52205000Y-119229911D01*
X52205000Y-119414089D01*
X52240932Y-119594729D01*
X52311414Y-119764889D01*
X52413738Y-119918028D01*
X52543972Y-120048262D01*
X52697111Y-120150586D01*
X52867271Y-120221068D01*
X53047911Y-120257000D01*
X53232089Y-120257000D01*
X53412729Y-120221068D01*
X53582889Y-120150586D01*
X53736028Y-120048262D01*
X53866262Y-119918028D01*
X53968586Y-119764889D01*
X54039068Y-119594729D01*
X54075000Y-119414089D01*
X54075000Y-119229911D01*
X54039068Y-119049271D01*
X53968586Y-118879111D01*
X53866262Y-118725972D01*
X53736028Y-118595738D01*
X53582889Y-118493414D01*
X53412729Y-118422932D01*
X53232089Y-118387000D01*
X53047911Y-118387000D01*
X52867271Y-118422932D01*
X52697111Y-118493414D01*
X52543972Y-118595738D01*
X52413738Y-118725972D01*
X52311414Y-118879111D01*
X52240932Y-119049271D01*
X52205000Y-119229911D01*
X50123200Y-119229911D01*
X50157000Y-119059988D01*
X50157000Y-118836412D01*
X50113383Y-118617133D01*
X50027824Y-118410576D01*
X49903612Y-118224680D01*
X49745520Y-118066588D01*
X49559624Y-117942376D01*
X49353067Y-117856817D01*
X49133788Y-117813200D01*
X48910212Y-117813200D01*
X48690933Y-117856817D01*
X48484376Y-117942376D01*
X48298480Y-118066588D01*
X48140388Y-118224680D01*
X48016176Y-118410576D01*
X47930617Y-118617133D01*
X47887000Y-118836412D01*
X34712381Y-118836412D01*
X34686713Y-118575809D01*
X34601799Y-118295886D01*
X34463906Y-118037906D01*
X34278334Y-117811786D01*
X34052214Y-117626214D01*
X33987677Y-117591719D01*
X34104555Y-117522098D01*
X34320788Y-117327189D01*
X34494841Y-117093840D01*
X34620025Y-116831019D01*
X34664676Y-116683810D01*
X34543355Y-116453920D01*
X33350200Y-116453920D01*
X33350200Y-116473920D01*
X33096200Y-116473920D01*
X33096200Y-116453920D01*
X31903045Y-116453920D01*
X31781724Y-116683810D01*
X31826375Y-116831019D01*
X31951559Y-117093840D01*
X32125612Y-117327189D01*
X32341845Y-117522098D01*
X32458723Y-117591719D01*
X32394186Y-117626214D01*
X32168066Y-117811786D01*
X31982494Y-118037906D01*
X31844601Y-118295886D01*
X31759687Y-118575809D01*
X31731015Y-118866920D01*
X30781883Y-118866920D01*
X30783828Y-118865589D01*
X31094296Y-118286644D01*
X31285852Y-117658254D01*
X31351134Y-117004569D01*
X31287634Y-116350707D01*
X31172724Y-115970030D01*
X31781724Y-115970030D01*
X31903045Y-116199920D01*
X33096200Y-116199920D01*
X33096200Y-115006106D01*
X33350200Y-115006106D01*
X33350200Y-116199920D01*
X34543355Y-116199920D01*
X34619350Y-116055918D01*
X34685694Y-116216089D01*
X34788018Y-116369228D01*
X34918252Y-116499462D01*
X35071391Y-116601786D01*
X35241551Y-116672268D01*
X35422191Y-116708200D01*
X35606369Y-116708200D01*
X35787009Y-116672268D01*
X35957169Y-116601786D01*
X36059815Y-116533200D01*
X36843036Y-116533200D01*
X36880358Y-116536876D01*
X36917680Y-116533200D01*
X36917691Y-116533200D01*
X37029344Y-116522203D01*
X37172605Y-116478746D01*
X37304634Y-116408174D01*
X37420359Y-116313201D01*
X37444162Y-116284197D01*
X38557100Y-115171259D01*
X38659565Y-115239723D01*
X38525791Y-115295134D01*
X38372652Y-115397458D01*
X38242418Y-115527692D01*
X38140094Y-115680831D01*
X38069612Y-115850991D01*
X38033680Y-116031631D01*
X38033680Y-116215809D01*
X38069612Y-116396449D01*
X38140094Y-116566609D01*
X38242418Y-116719748D01*
X38372652Y-116849982D01*
X38525791Y-116952306D01*
X38695951Y-117022788D01*
X38876591Y-117058720D01*
X39060769Y-117058720D01*
X39241409Y-117022788D01*
X39411569Y-116952306D01*
X39564708Y-116849982D01*
X39694942Y-116719748D01*
X39797266Y-116566609D01*
X39867748Y-116396449D01*
X39903680Y-116215809D01*
X39903680Y-116031631D01*
X39867748Y-115850991D01*
X39797266Y-115680831D01*
X39694942Y-115527692D01*
X39564708Y-115397458D01*
X39450515Y-115321157D01*
X39584289Y-115265746D01*
X39737428Y-115163422D01*
X39867662Y-115033188D01*
X39969986Y-114880049D01*
X40040468Y-114709889D01*
X40076400Y-114529249D01*
X40076400Y-114354911D01*
X52312000Y-114354911D01*
X52312000Y-114539089D01*
X52347932Y-114719729D01*
X52418414Y-114889889D01*
X52520738Y-115043028D01*
X52650972Y-115173262D01*
X52804111Y-115275586D01*
X52974271Y-115346068D01*
X53154911Y-115382000D01*
X53339089Y-115382000D01*
X53519729Y-115346068D01*
X53689889Y-115275586D01*
X53843028Y-115173262D01*
X53973262Y-115043028D01*
X54075586Y-114889889D01*
X54146068Y-114719729D01*
X54182000Y-114539089D01*
X54182000Y-114354911D01*
X54146068Y-114174271D01*
X54075586Y-114004111D01*
X54026008Y-113929911D01*
X57005000Y-113929911D01*
X57005000Y-114114089D01*
X57040932Y-114294729D01*
X57111414Y-114464889D01*
X57213738Y-114618028D01*
X57343972Y-114748262D01*
X57497111Y-114850586D01*
X57629743Y-114905523D01*
X57605000Y-115029911D01*
X57605000Y-115214089D01*
X57640932Y-115394729D01*
X57711414Y-115564889D01*
X57813738Y-115718028D01*
X57943972Y-115848262D01*
X58097111Y-115950586D01*
X58267271Y-116021068D01*
X58447911Y-116057000D01*
X58632089Y-116057000D01*
X58812729Y-116021068D01*
X58926234Y-115974053D01*
X58814148Y-116341746D01*
X58748866Y-116995431D01*
X58812366Y-117649293D01*
X59002208Y-118278203D01*
X59311096Y-118857992D01*
X59316172Y-118865589D01*
X59754626Y-119165769D01*
X61920395Y-117000000D01*
X59754626Y-114834231D01*
X59474258Y-115026180D01*
X59439068Y-114849271D01*
X59368586Y-114679111D01*
X59352226Y-114654626D01*
X59934231Y-114654626D01*
X62100000Y-116820395D01*
X64265769Y-114654626D01*
X63965589Y-114216172D01*
X63386644Y-113905704D01*
X62758254Y-113714148D01*
X62104569Y-113648866D01*
X61450707Y-113712366D01*
X60821797Y-113902208D01*
X60242008Y-114211096D01*
X60234411Y-114216172D01*
X59934231Y-114654626D01*
X59352226Y-114654626D01*
X59266262Y-114525972D01*
X59136028Y-114395738D01*
X58982889Y-114293414D01*
X58850257Y-114238477D01*
X58875000Y-114114089D01*
X58875000Y-113929911D01*
X58839068Y-113749271D01*
X58768586Y-113579111D01*
X58666262Y-113425972D01*
X58536028Y-113295738D01*
X58382889Y-113193414D01*
X58212729Y-113122932D01*
X58032089Y-113087000D01*
X57847911Y-113087000D01*
X57667271Y-113122932D01*
X57497111Y-113193414D01*
X57343972Y-113295738D01*
X57213738Y-113425972D01*
X57111414Y-113579111D01*
X57040932Y-113749271D01*
X57005000Y-113929911D01*
X54026008Y-113929911D01*
X53973262Y-113850972D01*
X53843028Y-113720738D01*
X53689889Y-113618414D01*
X53519729Y-113547932D01*
X53339089Y-113512000D01*
X53154911Y-113512000D01*
X52974271Y-113547932D01*
X52804111Y-113618414D01*
X52650972Y-113720738D01*
X52520738Y-113850972D01*
X52418414Y-114004111D01*
X52347932Y-114174271D01*
X52312000Y-114354911D01*
X40076400Y-114354911D01*
X40076400Y-114345071D01*
X40040468Y-114164431D01*
X39969986Y-113994271D01*
X39875499Y-113852861D01*
X42404960Y-111323400D01*
X42545649Y-111323400D01*
X42726289Y-111287468D01*
X42896449Y-111216986D01*
X43049588Y-111114662D01*
X43179822Y-110984428D01*
X43282146Y-110831289D01*
X43352628Y-110661129D01*
X43388560Y-110480489D01*
X43388560Y-110296311D01*
X43355461Y-110129911D01*
X51505000Y-110129911D01*
X51505000Y-110314089D01*
X51540932Y-110494729D01*
X51611414Y-110664889D01*
X51713738Y-110818028D01*
X51843972Y-110948262D01*
X51997111Y-111050586D01*
X52167271Y-111121068D01*
X52347911Y-111157000D01*
X52532089Y-111157000D01*
X52712729Y-111121068D01*
X52882889Y-111050586D01*
X53036028Y-110948262D01*
X53166262Y-110818028D01*
X53268586Y-110664889D01*
X53339068Y-110494729D01*
X53350430Y-110437610D01*
X53447911Y-110457000D01*
X53632089Y-110457000D01*
X53812729Y-110421068D01*
X53982889Y-110350586D01*
X54136028Y-110248262D01*
X54266262Y-110118028D01*
X54368586Y-109964889D01*
X54439068Y-109794729D01*
X54475000Y-109614089D01*
X54475000Y-109429911D01*
X54439068Y-109249271D01*
X54368586Y-109079111D01*
X54299203Y-108975271D01*
X58105000Y-108975271D01*
X58105000Y-109159449D01*
X58140932Y-109340089D01*
X58211414Y-109510249D01*
X58313738Y-109663388D01*
X58443972Y-109793622D01*
X58597111Y-109895946D01*
X58767271Y-109966428D01*
X58947911Y-110002360D01*
X59132089Y-110002360D01*
X59312729Y-109966428D01*
X59482889Y-109895946D01*
X59636028Y-109793622D01*
X59766262Y-109663388D01*
X59868586Y-109510249D01*
X59939068Y-109340089D01*
X59975000Y-109159449D01*
X59975000Y-108975271D01*
X59939068Y-108794631D01*
X59869186Y-108625920D01*
X59919249Y-108625920D01*
X60099889Y-108589988D01*
X60270049Y-108519506D01*
X60423188Y-108417182D01*
X60553422Y-108286948D01*
X60616068Y-108193191D01*
X64276960Y-108193191D01*
X64276960Y-108377369D01*
X64312892Y-108558009D01*
X64383374Y-108728169D01*
X64485698Y-108881308D01*
X64615932Y-109011542D01*
X64769071Y-109113866D01*
X64939231Y-109184348D01*
X65119871Y-109220280D01*
X65304049Y-109220280D01*
X65484689Y-109184348D01*
X65654849Y-109113866D01*
X65807988Y-109011542D01*
X65938222Y-108881308D01*
X66040546Y-108728169D01*
X66111028Y-108558009D01*
X66146960Y-108377369D01*
X66146960Y-108193191D01*
X66111028Y-108012551D01*
X66040546Y-107842391D01*
X65938222Y-107689252D01*
X65807988Y-107559018D01*
X65654849Y-107456694D01*
X65484689Y-107386212D01*
X65304049Y-107350280D01*
X65119871Y-107350280D01*
X64939231Y-107386212D01*
X64769071Y-107456694D01*
X64615932Y-107559018D01*
X64485698Y-107689252D01*
X64383374Y-107842391D01*
X64312892Y-108012551D01*
X64276960Y-108193191D01*
X60616068Y-108193191D01*
X60655746Y-108133809D01*
X60726228Y-107963649D01*
X60762160Y-107783009D01*
X60762160Y-107598831D01*
X60726228Y-107418191D01*
X60655746Y-107248031D01*
X60553422Y-107094892D01*
X60423188Y-106964658D01*
X60270049Y-106862334D01*
X60099889Y-106791852D01*
X59919249Y-106755920D01*
X59735071Y-106755920D01*
X59554431Y-106791852D01*
X59384271Y-106862334D01*
X59231132Y-106964658D01*
X59100898Y-107094892D01*
X58998574Y-107248031D01*
X58928092Y-107418191D01*
X58892160Y-107598831D01*
X58892160Y-107783009D01*
X58928092Y-107963649D01*
X58997974Y-108132360D01*
X58947911Y-108132360D01*
X58767271Y-108168292D01*
X58597111Y-108238774D01*
X58443972Y-108341098D01*
X58313738Y-108471332D01*
X58211414Y-108624471D01*
X58140932Y-108794631D01*
X58105000Y-108975271D01*
X54299203Y-108975271D01*
X54266262Y-108925972D01*
X54136028Y-108795738D01*
X53982889Y-108693414D01*
X53812729Y-108622932D01*
X53632089Y-108587000D01*
X53447911Y-108587000D01*
X53267271Y-108622932D01*
X53097111Y-108693414D01*
X52943972Y-108795738D01*
X52813738Y-108925972D01*
X52711414Y-109079111D01*
X52640932Y-109249271D01*
X52629570Y-109306390D01*
X52532089Y-109287000D01*
X52347911Y-109287000D01*
X52167271Y-109322932D01*
X51997111Y-109393414D01*
X51843972Y-109495738D01*
X51713738Y-109625972D01*
X51611414Y-109779111D01*
X51540932Y-109949271D01*
X51505000Y-110129911D01*
X43355461Y-110129911D01*
X43352628Y-110115671D01*
X43282146Y-109945511D01*
X43179822Y-109792372D01*
X43049588Y-109662138D01*
X42896449Y-109559814D01*
X42726289Y-109489332D01*
X42545649Y-109453400D01*
X42361471Y-109453400D01*
X42180831Y-109489332D01*
X42010671Y-109559814D01*
X41857532Y-109662138D01*
X41727298Y-109792372D01*
X41624974Y-109945511D01*
X41619126Y-109959630D01*
X37255646Y-114323111D01*
X37272240Y-114239689D01*
X37272240Y-114055511D01*
X37236308Y-113874871D01*
X37165826Y-113704711D01*
X37063502Y-113551572D01*
X36933268Y-113421338D01*
X36780129Y-113319014D01*
X36609969Y-113248532D01*
X36429329Y-113212600D01*
X36245151Y-113212600D01*
X36064511Y-113248532D01*
X35894351Y-113319014D01*
X35741212Y-113421338D01*
X35610978Y-113551572D01*
X35508654Y-113704711D01*
X35438172Y-113874871D01*
X35403847Y-114047434D01*
X35249191Y-114111494D01*
X35096052Y-114213818D01*
X34965818Y-114344052D01*
X34863494Y-114497191D01*
X34793012Y-114667351D01*
X34757080Y-114847991D01*
X34757080Y-115032169D01*
X34786404Y-115179588D01*
X34685694Y-115330311D01*
X34615212Y-115500471D01*
X34579280Y-115681111D01*
X34579280Y-115737278D01*
X34494841Y-115560000D01*
X34320788Y-115326651D01*
X34104555Y-115131742D01*
X33854452Y-114982763D01*
X33580091Y-114885439D01*
X33350200Y-115006106D01*
X33096200Y-115006106D01*
X32866309Y-114885439D01*
X32591948Y-114982763D01*
X32341845Y-115131742D01*
X32125612Y-115326651D01*
X31951559Y-115560000D01*
X31826375Y-115822821D01*
X31781724Y-115970030D01*
X31172724Y-115970030D01*
X31097792Y-115721797D01*
X30788904Y-115142008D01*
X30783828Y-115134411D01*
X30345374Y-114834231D01*
X28179605Y-117000000D01*
X27820395Y-117000000D01*
X25654626Y-114834231D01*
X25216172Y-115134411D01*
X24905704Y-115713356D01*
X24745230Y-116239784D01*
X24527836Y-115914431D01*
X23822312Y-114654626D01*
X25834231Y-114654626D01*
X28000000Y-116820395D01*
X30165769Y-114654626D01*
X29865589Y-114216172D01*
X29286644Y-113905704D01*
X28658254Y-113714148D01*
X28004569Y-113648866D01*
X27350707Y-113712366D01*
X26721797Y-113902208D01*
X26142008Y-114211096D01*
X26134411Y-114216172D01*
X25834231Y-114654626D01*
X23822312Y-114654626D01*
X23595848Y-114250246D01*
X22797303Y-112518069D01*
X22629446Y-112063072D01*
X23125000Y-112063072D01*
X23249482Y-112050812D01*
X23369180Y-112014502D01*
X23377724Y-112009935D01*
X23492204Y-112044662D01*
X23647934Y-112060000D01*
X23752066Y-112060000D01*
X23907796Y-112044662D01*
X24107607Y-111984050D01*
X24200000Y-111934665D01*
X24292393Y-111984050D01*
X24492204Y-112044662D01*
X24647934Y-112060000D01*
X24752066Y-112060000D01*
X24907796Y-112044662D01*
X25107607Y-111984050D01*
X25201809Y-111933698D01*
X25374750Y-112008872D01*
X25409938Y-112019540D01*
X25573000Y-111892257D01*
X25573000Y-111607133D01*
X25585622Y-111591753D01*
X25684050Y-111407607D01*
X25700000Y-111355027D01*
X25715950Y-111407607D01*
X25814378Y-111591753D01*
X25827000Y-111607133D01*
X25827000Y-111892257D01*
X25990062Y-112019540D01*
X26025250Y-112008872D01*
X26198191Y-111933698D01*
X26292393Y-111984050D01*
X26492204Y-112044662D01*
X26647934Y-112060000D01*
X26752066Y-112060000D01*
X26907796Y-112044662D01*
X27107607Y-111984050D01*
X27200000Y-111934665D01*
X27292393Y-111984050D01*
X27492204Y-112044662D01*
X27647934Y-112060000D01*
X27752066Y-112060000D01*
X27907796Y-112044662D01*
X28107607Y-111984050D01*
X28201809Y-111933698D01*
X28374750Y-112008872D01*
X28409938Y-112019540D01*
X28573000Y-111892257D01*
X28573000Y-111607133D01*
X28585622Y-111591753D01*
X28684050Y-111407607D01*
X28702632Y-111346351D01*
X28756632Y-111483394D01*
X28827000Y-111592768D01*
X28827000Y-111892257D01*
X28990062Y-112019540D01*
X29025250Y-112008872D01*
X29200000Y-111932912D01*
X29374750Y-112008872D01*
X29409938Y-112019540D01*
X29573000Y-111892257D01*
X29573000Y-111592768D01*
X29643368Y-111483394D01*
X29700000Y-111339671D01*
X29756632Y-111483394D01*
X29827000Y-111592768D01*
X29827000Y-111892257D01*
X29990062Y-112019540D01*
X30025250Y-112008872D01*
X30200000Y-111932912D01*
X30374750Y-112008872D01*
X30409938Y-112019540D01*
X30573000Y-111892257D01*
X30573000Y-111592768D01*
X30643368Y-111483394D01*
X30697368Y-111346351D01*
X30715950Y-111407607D01*
X30814378Y-111591753D01*
X30827000Y-111607133D01*
X30827000Y-111892257D01*
X30990062Y-112019540D01*
X31025250Y-112008872D01*
X31198191Y-111933698D01*
X31292393Y-111984050D01*
X31492204Y-112044662D01*
X31647934Y-112060000D01*
X31752066Y-112060000D01*
X31907796Y-112044662D01*
X32107607Y-111984050D01*
X32200000Y-111934665D01*
X32292393Y-111984050D01*
X32492204Y-112044662D01*
X32647934Y-112060000D01*
X32752066Y-112060000D01*
X32907796Y-112044662D01*
X33107607Y-111984050D01*
X33200000Y-111934665D01*
X33292393Y-111984050D01*
X33492204Y-112044662D01*
X33647934Y-112060000D01*
X33752066Y-112060000D01*
X33907796Y-112044662D01*
X34107607Y-111984050D01*
X34200000Y-111934665D01*
X34292393Y-111984050D01*
X34492204Y-112044662D01*
X34647934Y-112060000D01*
X34752066Y-112060000D01*
X34907796Y-112044662D01*
X35107607Y-111984050D01*
X35291753Y-111885622D01*
X35453159Y-111753159D01*
X35585622Y-111591753D01*
X35684050Y-111407607D01*
X35744662Y-111207796D01*
X35765128Y-111000000D01*
X35744662Y-110792204D01*
X35684050Y-110592393D01*
X35634665Y-110500000D01*
X35684050Y-110407607D01*
X35744662Y-110207796D01*
X35765128Y-110000000D01*
X35758225Y-109929911D01*
X37305000Y-109929911D01*
X37305000Y-110114089D01*
X37340932Y-110294729D01*
X37411414Y-110464889D01*
X37513738Y-110618028D01*
X37643972Y-110748262D01*
X37797111Y-110850586D01*
X37967271Y-110921068D01*
X38147911Y-110957000D01*
X38332089Y-110957000D01*
X38512729Y-110921068D01*
X38682889Y-110850586D01*
X38836028Y-110748262D01*
X38966262Y-110618028D01*
X39068586Y-110464889D01*
X39139068Y-110294729D01*
X39175000Y-110114089D01*
X39175000Y-109929911D01*
X39139068Y-109749271D01*
X39068586Y-109579111D01*
X38966262Y-109425972D01*
X38836028Y-109295738D01*
X38682889Y-109193414D01*
X38512729Y-109122932D01*
X38332089Y-109087000D01*
X38147911Y-109087000D01*
X37967271Y-109122932D01*
X37797111Y-109193414D01*
X37643972Y-109295738D01*
X37513738Y-109425972D01*
X37411414Y-109579111D01*
X37340932Y-109749271D01*
X37305000Y-109929911D01*
X35758225Y-109929911D01*
X35744662Y-109792204D01*
X35684050Y-109592393D01*
X35585622Y-109408247D01*
X35453159Y-109246841D01*
X35291753Y-109114378D01*
X35107607Y-109015950D01*
X34907796Y-108955338D01*
X34752066Y-108940000D01*
X34647934Y-108940000D01*
X34492204Y-108955338D01*
X34292393Y-109015950D01*
X34200000Y-109065335D01*
X34107607Y-109015950D01*
X33907796Y-108955338D01*
X33752066Y-108940000D01*
X33647934Y-108940000D01*
X33492204Y-108955338D01*
X33292393Y-109015950D01*
X33200000Y-109065335D01*
X33107607Y-109015950D01*
X32907796Y-108955338D01*
X32752066Y-108940000D01*
X32647934Y-108940000D01*
X32492204Y-108955338D01*
X32292393Y-109015950D01*
X32200000Y-109065335D01*
X32107607Y-109015950D01*
X31907796Y-108955338D01*
X31752066Y-108940000D01*
X31647934Y-108940000D01*
X31492204Y-108955338D01*
X31292393Y-109015950D01*
X31200000Y-109065335D01*
X31107607Y-109015950D01*
X30907796Y-108955338D01*
X30752066Y-108940000D01*
X30647934Y-108940000D01*
X30492204Y-108955338D01*
X30292393Y-109015950D01*
X30200000Y-109065335D01*
X30107607Y-109015950D01*
X29907796Y-108955338D01*
X29752066Y-108940000D01*
X29647934Y-108940000D01*
X29492204Y-108955338D01*
X29292393Y-109015950D01*
X29200000Y-109065335D01*
X29107607Y-109015950D01*
X28907796Y-108955338D01*
X28752066Y-108940000D01*
X28647934Y-108940000D01*
X28492204Y-108955338D01*
X28292393Y-109015950D01*
X28200000Y-109065335D01*
X28107607Y-109015950D01*
X27907796Y-108955338D01*
X27752066Y-108940000D01*
X27647934Y-108940000D01*
X27492204Y-108955338D01*
X27292393Y-109015950D01*
X27200000Y-109065335D01*
X27107607Y-109015950D01*
X26907796Y-108955338D01*
X26752066Y-108940000D01*
X26647934Y-108940000D01*
X26492204Y-108955338D01*
X26292393Y-109015950D01*
X26198191Y-109066302D01*
X26025250Y-108991128D01*
X25990062Y-108980460D01*
X25827000Y-109107743D01*
X25827000Y-109392867D01*
X25814378Y-109408247D01*
X25715950Y-109592393D01*
X25700000Y-109644973D01*
X25684050Y-109592393D01*
X25585622Y-109408247D01*
X25573000Y-109392867D01*
X25573000Y-109107743D01*
X25409938Y-108980460D01*
X25374750Y-108991128D01*
X25201809Y-109066302D01*
X25107607Y-109015950D01*
X24907796Y-108955338D01*
X24752066Y-108940000D01*
X24647934Y-108940000D01*
X24492204Y-108955338D01*
X24292393Y-109015950D01*
X24200000Y-109065335D01*
X24107607Y-109015950D01*
X23907796Y-108955338D01*
X23752066Y-108940000D01*
X23647934Y-108940000D01*
X23492204Y-108955338D01*
X23292393Y-109015950D01*
X23200000Y-109065335D01*
X23107607Y-109015950D01*
X22907796Y-108955338D01*
X22752066Y-108940000D01*
X22647934Y-108940000D01*
X22492204Y-108955338D01*
X22292393Y-109015950D01*
X22108247Y-109114378D01*
X21946841Y-109246841D01*
X21814378Y-109408247D01*
X21781893Y-109469022D01*
X21629849Y-108929911D01*
X44705000Y-108929911D01*
X44705000Y-109114089D01*
X44740932Y-109294729D01*
X44811414Y-109464889D01*
X44913738Y-109618028D01*
X45043972Y-109748262D01*
X45197111Y-109850586D01*
X45367271Y-109921068D01*
X45547911Y-109957000D01*
X45732089Y-109957000D01*
X45912729Y-109921068D01*
X46082889Y-109850586D01*
X46236028Y-109748262D01*
X46366262Y-109618028D01*
X46407040Y-109557000D01*
X46432089Y-109557000D01*
X46612729Y-109521068D01*
X46782413Y-109450783D01*
X46785132Y-109453502D01*
X46938271Y-109555826D01*
X47108431Y-109626308D01*
X47289071Y-109662240D01*
X47473249Y-109662240D01*
X47653889Y-109626308D01*
X47824049Y-109555826D01*
X47977188Y-109453502D01*
X48107422Y-109323268D01*
X48209746Y-109170129D01*
X48280228Y-108999969D01*
X48316160Y-108819329D01*
X48316160Y-108635151D01*
X48280228Y-108454511D01*
X48209746Y-108284351D01*
X48107422Y-108131212D01*
X47977188Y-108000978D01*
X47824049Y-107898654D01*
X47653889Y-107828172D01*
X47473249Y-107792240D01*
X47289071Y-107792240D01*
X47108431Y-107828172D01*
X46938747Y-107898457D01*
X46936028Y-107895738D01*
X46782889Y-107793414D01*
X46612729Y-107722932D01*
X46432089Y-107687000D01*
X46247911Y-107687000D01*
X46067271Y-107722932D01*
X45897111Y-107793414D01*
X45743972Y-107895738D01*
X45613738Y-108025972D01*
X45572960Y-108087000D01*
X45547911Y-108087000D01*
X45367271Y-108122932D01*
X45197111Y-108193414D01*
X45043972Y-108295738D01*
X44913738Y-108425972D01*
X44811414Y-108579111D01*
X44740932Y-108749271D01*
X44705000Y-108929911D01*
X21629849Y-108929911D01*
X21619384Y-108892808D01*
X21268722Y-107129911D01*
X23805000Y-107129911D01*
X23805000Y-107314089D01*
X23840932Y-107494729D01*
X23911414Y-107664889D01*
X24013738Y-107818028D01*
X24143972Y-107948262D01*
X24297111Y-108050586D01*
X24467271Y-108121068D01*
X24647911Y-108157000D01*
X24832089Y-108157000D01*
X25012729Y-108121068D01*
X25171756Y-108055197D01*
X25213738Y-108118028D01*
X25343972Y-108248262D01*
X25497111Y-108350586D01*
X25667271Y-108421068D01*
X25847911Y-108457000D01*
X26032089Y-108457000D01*
X26212729Y-108421068D01*
X26361012Y-108359648D01*
X26497111Y-108450586D01*
X26667271Y-108521068D01*
X26847911Y-108557000D01*
X27032089Y-108557000D01*
X27212729Y-108521068D01*
X27382889Y-108450586D01*
X27536028Y-108348262D01*
X27666262Y-108218028D01*
X27768586Y-108064889D01*
X27839068Y-107894729D01*
X27875000Y-107714089D01*
X27875000Y-107529911D01*
X27839068Y-107349271D01*
X27768586Y-107179111D01*
X27666262Y-107025972D01*
X27536028Y-106895738D01*
X27382889Y-106793414D01*
X27212729Y-106722932D01*
X27032089Y-106687000D01*
X26847911Y-106687000D01*
X26667271Y-106722932D01*
X26518988Y-106784352D01*
X26382889Y-106693414D01*
X26212729Y-106622932D01*
X26032089Y-106587000D01*
X25847911Y-106587000D01*
X25667271Y-106622932D01*
X25508244Y-106688803D01*
X25466262Y-106625972D01*
X25336028Y-106495738D01*
X25182889Y-106393414D01*
X25012729Y-106322932D01*
X24832089Y-106287000D01*
X24647911Y-106287000D01*
X24467271Y-106322932D01*
X24297111Y-106393414D01*
X24143972Y-106495738D01*
X24013738Y-106625972D01*
X23911414Y-106779111D01*
X23840932Y-106949271D01*
X23805000Y-107129911D01*
X21268722Y-107129911D01*
X21247272Y-107022075D01*
X21023084Y-105127913D01*
X21011376Y-104829911D01*
X31305000Y-104829911D01*
X31305000Y-105014089D01*
X31340932Y-105194729D01*
X31411414Y-105364889D01*
X31476782Y-105462720D01*
X31440932Y-105549271D01*
X31405000Y-105729911D01*
X31405000Y-105914089D01*
X31440932Y-106094729D01*
X31511414Y-106264889D01*
X31613738Y-106418028D01*
X31743972Y-106548262D01*
X31897111Y-106650586D01*
X32067271Y-106721068D01*
X32247911Y-106757000D01*
X32432089Y-106757000D01*
X32612729Y-106721068D01*
X32782889Y-106650586D01*
X32936028Y-106548262D01*
X33066262Y-106418028D01*
X33168586Y-106264889D01*
X33239068Y-106094729D01*
X33275000Y-105914089D01*
X33275000Y-105729911D01*
X33239068Y-105549271D01*
X33231049Y-105529911D01*
X46005000Y-105529911D01*
X46005000Y-105714089D01*
X46040932Y-105894729D01*
X46111414Y-106064889D01*
X46213738Y-106218028D01*
X46343972Y-106348262D01*
X46497111Y-106450586D01*
X46667271Y-106521068D01*
X46847911Y-106557000D01*
X47032089Y-106557000D01*
X47212729Y-106521068D01*
X47382889Y-106450586D01*
X47536028Y-106348262D01*
X47666262Y-106218028D01*
X47737804Y-106110958D01*
X47797111Y-106150586D01*
X47967271Y-106221068D01*
X48147911Y-106257000D01*
X48332089Y-106257000D01*
X48512729Y-106221068D01*
X48682889Y-106150586D01*
X48836028Y-106048262D01*
X48959101Y-105925189D01*
X48997111Y-105950586D01*
X49167271Y-106021068D01*
X49347911Y-106057000D01*
X49532089Y-106057000D01*
X49712729Y-106021068D01*
X49760874Y-106001126D01*
X49740932Y-106049271D01*
X49705000Y-106229911D01*
X49705000Y-106414089D01*
X49740932Y-106594729D01*
X49811414Y-106764889D01*
X49913738Y-106918028D01*
X50043972Y-107048262D01*
X50197111Y-107150586D01*
X50367271Y-107221068D01*
X50547911Y-107257000D01*
X50732089Y-107257000D01*
X50912729Y-107221068D01*
X51082889Y-107150586D01*
X51187524Y-107080671D01*
X53258440Y-107080671D01*
X53258440Y-107264849D01*
X53294372Y-107445489D01*
X53364854Y-107615649D01*
X53467178Y-107768788D01*
X53597412Y-107899022D01*
X53750551Y-108001346D01*
X53920711Y-108071828D01*
X54101351Y-108107760D01*
X54285529Y-108107760D01*
X54466169Y-108071828D01*
X54636329Y-108001346D01*
X54789468Y-107899022D01*
X54919702Y-107768788D01*
X55022026Y-107615649D01*
X55092508Y-107445489D01*
X55128440Y-107264849D01*
X55128440Y-107080671D01*
X55092508Y-106900031D01*
X55022026Y-106729871D01*
X54919702Y-106576732D01*
X54789468Y-106446498D01*
X54636329Y-106344174D01*
X54466169Y-106273692D01*
X54285529Y-106237760D01*
X54101351Y-106237760D01*
X53920711Y-106273692D01*
X53750551Y-106344174D01*
X53597412Y-106446498D01*
X53467178Y-106576732D01*
X53364854Y-106729871D01*
X53294372Y-106900031D01*
X53258440Y-107080671D01*
X51187524Y-107080671D01*
X51236028Y-107048262D01*
X51366262Y-106918028D01*
X51468586Y-106764889D01*
X51539068Y-106594729D01*
X51575000Y-106414089D01*
X51575000Y-106229911D01*
X51539068Y-106049271D01*
X51468586Y-105879111D01*
X51366262Y-105725972D01*
X51236028Y-105595738D01*
X51082889Y-105493414D01*
X51014849Y-105465231D01*
X58587360Y-105465231D01*
X58587360Y-105649409D01*
X58623292Y-105830049D01*
X58693774Y-106000209D01*
X58796098Y-106153348D01*
X58926332Y-106283582D01*
X59079471Y-106385906D01*
X59249631Y-106456388D01*
X59430271Y-106492320D01*
X59614449Y-106492320D01*
X59795089Y-106456388D01*
X59965249Y-106385906D01*
X60118388Y-106283582D01*
X60248622Y-106153348D01*
X60350946Y-106000209D01*
X60421428Y-105830049D01*
X60457360Y-105649409D01*
X60457360Y-105465231D01*
X60421428Y-105284591D01*
X60350946Y-105114431D01*
X60248622Y-104961292D01*
X60118388Y-104831058D01*
X59965249Y-104728734D01*
X59795089Y-104658252D01*
X59614449Y-104622320D01*
X59430271Y-104622320D01*
X59249631Y-104658252D01*
X59079471Y-104728734D01*
X58926332Y-104831058D01*
X58796098Y-104961292D01*
X58693774Y-105114431D01*
X58623292Y-105284591D01*
X58587360Y-105465231D01*
X51014849Y-105465231D01*
X50912729Y-105422932D01*
X50732089Y-105387000D01*
X50547911Y-105387000D01*
X50367271Y-105422932D01*
X50319126Y-105442874D01*
X50339068Y-105394729D01*
X50375000Y-105214089D01*
X50375000Y-105029911D01*
X50339068Y-104849271D01*
X50268586Y-104679111D01*
X50166262Y-104525972D01*
X50036028Y-104395738D01*
X49931468Y-104325873D01*
X53717078Y-104325873D01*
X53717078Y-104510051D01*
X53753010Y-104690691D01*
X53823492Y-104860851D01*
X53925816Y-105013990D01*
X54056050Y-105144224D01*
X54209189Y-105246548D01*
X54379349Y-105317030D01*
X54559989Y-105352962D01*
X54744167Y-105352962D01*
X54924807Y-105317030D01*
X55094967Y-105246548D01*
X55248106Y-105144224D01*
X55378340Y-105013990D01*
X55480664Y-104860851D01*
X55551146Y-104690691D01*
X55587078Y-104510051D01*
X55587078Y-104325873D01*
X55551146Y-104145233D01*
X55480664Y-103975073D01*
X55435895Y-103908072D01*
X55467271Y-103921068D01*
X55647911Y-103957000D01*
X55832089Y-103957000D01*
X56012729Y-103921068D01*
X56182889Y-103850586D01*
X56336028Y-103748262D01*
X56466262Y-103618028D01*
X56568586Y-103464889D01*
X56639068Y-103294729D01*
X56675000Y-103114089D01*
X56675000Y-102929911D01*
X56639068Y-102749271D01*
X56568586Y-102579111D01*
X56466262Y-102425972D01*
X56336028Y-102295738D01*
X56182889Y-102193414D01*
X56012729Y-102122932D01*
X55832089Y-102087000D01*
X55647911Y-102087000D01*
X55467271Y-102122932D01*
X55297111Y-102193414D01*
X55143972Y-102295738D01*
X55013738Y-102425972D01*
X54911414Y-102579111D01*
X54840932Y-102749271D01*
X54805000Y-102929911D01*
X54805000Y-103114089D01*
X54840932Y-103294729D01*
X54911414Y-103464889D01*
X54956183Y-103531890D01*
X54924807Y-103518894D01*
X54744167Y-103482962D01*
X54559989Y-103482962D01*
X54379349Y-103518894D01*
X54209189Y-103589376D01*
X54056050Y-103691700D01*
X53925816Y-103821934D01*
X53823492Y-103975073D01*
X53753010Y-104145233D01*
X53717078Y-104325873D01*
X49931468Y-104325873D01*
X49882889Y-104293414D01*
X49712729Y-104222932D01*
X49532089Y-104187000D01*
X49347911Y-104187000D01*
X49167271Y-104222932D01*
X48997111Y-104293414D01*
X48843972Y-104395738D01*
X48720899Y-104518811D01*
X48682889Y-104493414D01*
X48512729Y-104422932D01*
X48332089Y-104387000D01*
X48147911Y-104387000D01*
X47967271Y-104422932D01*
X47797111Y-104493414D01*
X47643972Y-104595738D01*
X47513738Y-104725972D01*
X47442196Y-104833042D01*
X47382889Y-104793414D01*
X47212729Y-104722932D01*
X47032089Y-104687000D01*
X46847911Y-104687000D01*
X46667271Y-104722932D01*
X46497111Y-104793414D01*
X46343972Y-104895738D01*
X46213738Y-105025972D01*
X46111414Y-105179111D01*
X46040932Y-105349271D01*
X46005000Y-105529911D01*
X33231049Y-105529911D01*
X33168586Y-105379111D01*
X33103218Y-105281280D01*
X33139068Y-105194729D01*
X33175000Y-105014089D01*
X33175000Y-104842497D01*
X33247911Y-104857000D01*
X33432089Y-104857000D01*
X33612729Y-104821068D01*
X33782889Y-104750586D01*
X33936028Y-104648262D01*
X34066262Y-104518028D01*
X34168586Y-104364889D01*
X34239068Y-104194729D01*
X34275000Y-104014089D01*
X34275000Y-103829911D01*
X34239068Y-103649271D01*
X34168586Y-103479111D01*
X34066262Y-103325972D01*
X33936028Y-103195738D01*
X33782889Y-103093414D01*
X33629578Y-103029911D01*
X51905000Y-103029911D01*
X51905000Y-103214089D01*
X51940932Y-103394729D01*
X52011414Y-103564889D01*
X52113738Y-103718028D01*
X52243972Y-103848262D01*
X52397111Y-103950586D01*
X52567271Y-104021068D01*
X52747911Y-104057000D01*
X52932089Y-104057000D01*
X53112729Y-104021068D01*
X53282889Y-103950586D01*
X53436028Y-103848262D01*
X53566262Y-103718028D01*
X53668586Y-103564889D01*
X53739068Y-103394729D01*
X53775000Y-103214089D01*
X53775000Y-103029911D01*
X53752099Y-102914784D01*
X53767271Y-102921068D01*
X53947911Y-102957000D01*
X54132089Y-102957000D01*
X54312729Y-102921068D01*
X54482889Y-102850586D01*
X54636028Y-102748262D01*
X54766262Y-102618028D01*
X54868586Y-102464889D01*
X54939068Y-102294729D01*
X54975000Y-102114089D01*
X54975000Y-101929911D01*
X54939068Y-101749271D01*
X54868586Y-101579111D01*
X54768894Y-101429911D01*
X64005000Y-101429911D01*
X64005000Y-101614089D01*
X64040932Y-101794729D01*
X64111414Y-101964889D01*
X64213738Y-102118028D01*
X64343972Y-102248262D01*
X64497111Y-102350586D01*
X64667271Y-102421068D01*
X64847911Y-102457000D01*
X65032089Y-102457000D01*
X65212729Y-102421068D01*
X65382889Y-102350586D01*
X65536028Y-102248262D01*
X65666262Y-102118028D01*
X65768586Y-101964889D01*
X65839068Y-101794729D01*
X65875000Y-101614089D01*
X65875000Y-101429911D01*
X65839068Y-101249271D01*
X65831049Y-101229911D01*
X67249000Y-101229911D01*
X67249000Y-101414089D01*
X67284932Y-101594729D01*
X67355414Y-101764889D01*
X67457738Y-101918028D01*
X67587972Y-102048262D01*
X67741111Y-102150586D01*
X67911271Y-102221068D01*
X68091911Y-102257000D01*
X68276089Y-102257000D01*
X68456729Y-102221068D01*
X68626889Y-102150586D01*
X68780028Y-102048262D01*
X68910262Y-101918028D01*
X69012586Y-101764889D01*
X69083068Y-101594729D01*
X69119000Y-101414089D01*
X69119000Y-101229911D01*
X69083068Y-101049271D01*
X69012586Y-100879111D01*
X68910262Y-100725972D01*
X68780028Y-100595738D01*
X68626889Y-100493414D01*
X68456729Y-100422932D01*
X68276089Y-100387000D01*
X68091911Y-100387000D01*
X67911271Y-100422932D01*
X67741111Y-100493414D01*
X67587972Y-100595738D01*
X67457738Y-100725972D01*
X67355414Y-100879111D01*
X67284932Y-101049271D01*
X67249000Y-101229911D01*
X65831049Y-101229911D01*
X65768586Y-101079111D01*
X65666262Y-100925972D01*
X65536028Y-100795738D01*
X65382889Y-100693414D01*
X65212729Y-100622932D01*
X65032089Y-100587000D01*
X64847911Y-100587000D01*
X64667271Y-100622932D01*
X64497111Y-100693414D01*
X64343972Y-100795738D01*
X64213738Y-100925972D01*
X64111414Y-101079111D01*
X64040932Y-101249271D01*
X64005000Y-101429911D01*
X54768894Y-101429911D01*
X54766262Y-101425972D01*
X54636028Y-101295738D01*
X54482889Y-101193414D01*
X54312729Y-101122932D01*
X54132089Y-101087000D01*
X53947911Y-101087000D01*
X53767271Y-101122932D01*
X53597111Y-101193414D01*
X53443972Y-101295738D01*
X53313738Y-101425972D01*
X53211414Y-101579111D01*
X53140932Y-101749271D01*
X53105000Y-101929911D01*
X53105000Y-102114089D01*
X53127901Y-102229216D01*
X53112729Y-102222932D01*
X52932089Y-102187000D01*
X52747911Y-102187000D01*
X52567271Y-102222932D01*
X52397111Y-102293414D01*
X52243972Y-102395738D01*
X52113738Y-102525972D01*
X52011414Y-102679111D01*
X51940932Y-102849271D01*
X51905000Y-103029911D01*
X33629578Y-103029911D01*
X33612729Y-103022932D01*
X33432089Y-102987000D01*
X33247911Y-102987000D01*
X33067271Y-103022932D01*
X32897111Y-103093414D01*
X32743972Y-103195738D01*
X32613738Y-103325972D01*
X32511414Y-103479111D01*
X32440932Y-103649271D01*
X32405000Y-103829911D01*
X32405000Y-104001503D01*
X32332089Y-103987000D01*
X32147911Y-103987000D01*
X31967271Y-104022932D01*
X31797111Y-104093414D01*
X31643972Y-104195738D01*
X31513738Y-104325972D01*
X31411414Y-104479111D01*
X31340932Y-104649271D01*
X31305000Y-104829911D01*
X21011376Y-104829911D01*
X20948200Y-103222000D01*
X20975392Y-102529911D01*
X30005000Y-102529911D01*
X30005000Y-102714089D01*
X30040932Y-102894729D01*
X30111414Y-103064889D01*
X30213738Y-103218028D01*
X30343972Y-103348262D01*
X30497111Y-103450586D01*
X30667271Y-103521068D01*
X30847911Y-103557000D01*
X31032089Y-103557000D01*
X31212729Y-103521068D01*
X31382889Y-103450586D01*
X31536028Y-103348262D01*
X31666262Y-103218028D01*
X31768586Y-103064889D01*
X31839068Y-102894729D01*
X31875000Y-102714089D01*
X31875000Y-102529911D01*
X31839068Y-102349271D01*
X31768586Y-102179111D01*
X31666262Y-102025972D01*
X31536028Y-101895738D01*
X31382889Y-101793414D01*
X31212729Y-101722932D01*
X31032089Y-101687000D01*
X30847911Y-101687000D01*
X30667271Y-101722932D01*
X30497111Y-101793414D01*
X30343972Y-101895738D01*
X30213738Y-102025972D01*
X30111414Y-102179111D01*
X30040932Y-102349271D01*
X30005000Y-102529911D01*
X20975392Y-102529911D01*
X21023084Y-101316087D01*
X21116133Y-100529911D01*
X44905000Y-100529911D01*
X44905000Y-100714089D01*
X44940932Y-100894729D01*
X45011414Y-101064889D01*
X45113738Y-101218028D01*
X45243972Y-101348262D01*
X45397111Y-101450586D01*
X45567271Y-101521068D01*
X45747911Y-101557000D01*
X45932089Y-101557000D01*
X46112729Y-101521068D01*
X46282889Y-101450586D01*
X46436028Y-101348262D01*
X46566262Y-101218028D01*
X46668586Y-101064889D01*
X46739068Y-100894729D01*
X46775000Y-100714089D01*
X46775000Y-100529911D01*
X46739068Y-100349271D01*
X46668586Y-100179111D01*
X46566262Y-100025972D01*
X46436028Y-99895738D01*
X46282889Y-99793414D01*
X46112729Y-99722932D01*
X45932089Y-99687000D01*
X45747911Y-99687000D01*
X45567271Y-99722932D01*
X45397111Y-99793414D01*
X45243972Y-99895738D01*
X45113738Y-100025972D01*
X45011414Y-100179111D01*
X44940932Y-100349271D01*
X44905000Y-100529911D01*
X21116133Y-100529911D01*
X21247272Y-99421925D01*
X21265574Y-99329911D01*
X34805000Y-99329911D01*
X34805000Y-99514089D01*
X34840932Y-99694729D01*
X34911414Y-99864889D01*
X35013738Y-100018028D01*
X35143972Y-100148262D01*
X35297111Y-100250586D01*
X35467271Y-100321068D01*
X35647911Y-100357000D01*
X35832089Y-100357000D01*
X36012729Y-100321068D01*
X36182889Y-100250586D01*
X36336028Y-100148262D01*
X36466262Y-100018028D01*
X36568586Y-99864889D01*
X36639068Y-99694729D01*
X36675000Y-99514089D01*
X36675000Y-99329911D01*
X36639068Y-99149271D01*
X36568586Y-98979111D01*
X36468894Y-98829911D01*
X48105000Y-98829911D01*
X48105000Y-99014089D01*
X48140932Y-99194729D01*
X48211414Y-99364889D01*
X48313738Y-99518028D01*
X48443972Y-99648262D01*
X48597111Y-99750586D01*
X48767271Y-99821068D01*
X48947911Y-99857000D01*
X49132089Y-99857000D01*
X49312729Y-99821068D01*
X49482889Y-99750586D01*
X49636028Y-99648262D01*
X49766262Y-99518028D01*
X49868586Y-99364889D01*
X49939068Y-99194729D01*
X49975000Y-99014089D01*
X49975000Y-98829911D01*
X49939068Y-98649271D01*
X49868586Y-98479111D01*
X49766262Y-98325972D01*
X49636028Y-98195738D01*
X49482889Y-98093414D01*
X49312729Y-98022932D01*
X49132089Y-97987000D01*
X48947911Y-97987000D01*
X48767271Y-98022932D01*
X48597111Y-98093414D01*
X48443972Y-98195738D01*
X48313738Y-98325972D01*
X48211414Y-98479111D01*
X48140932Y-98649271D01*
X48105000Y-98829911D01*
X36468894Y-98829911D01*
X36466262Y-98825972D01*
X36336028Y-98695738D01*
X36182889Y-98593414D01*
X36012729Y-98522932D01*
X35832089Y-98487000D01*
X35647911Y-98487000D01*
X35467271Y-98522932D01*
X35297111Y-98593414D01*
X35143972Y-98695738D01*
X35013738Y-98825972D01*
X34911414Y-98979111D01*
X34840932Y-99149271D01*
X34805000Y-99329911D01*
X21265574Y-99329911D01*
X21619384Y-97551192D01*
X22137125Y-95715421D01*
X22154850Y-95667374D01*
X23474231Y-95667374D01*
X23774411Y-96105828D01*
X24353356Y-96416296D01*
X24981746Y-96607852D01*
X25635431Y-96673134D01*
X26289293Y-96609634D01*
X26918203Y-96419792D01*
X27497992Y-96110904D01*
X27505589Y-96105828D01*
X27805769Y-95667374D01*
X25640000Y-93501605D01*
X23474231Y-95667374D01*
X22154850Y-95667374D01*
X22545956Y-94607237D01*
X22851096Y-95179992D01*
X22856172Y-95187589D01*
X23294626Y-95487769D01*
X25460395Y-93322000D01*
X25819605Y-93322000D01*
X27985374Y-95487769D01*
X28423828Y-95187589D01*
X28734296Y-94608644D01*
X28925852Y-93980254D01*
X28991134Y-93326569D01*
X28930320Y-92700363D01*
X30405000Y-92700363D01*
X30405000Y-92943637D01*
X30452460Y-93182236D01*
X30545557Y-93406992D01*
X30680713Y-93609267D01*
X30852733Y-93781287D01*
X31055008Y-93916443D01*
X31279764Y-94009540D01*
X31518363Y-94057000D01*
X31761637Y-94057000D01*
X32000236Y-94009540D01*
X32224992Y-93916443D01*
X32354496Y-93829911D01*
X35005000Y-93829911D01*
X35005000Y-94014089D01*
X35040932Y-94194729D01*
X35111414Y-94364889D01*
X35213738Y-94518028D01*
X35343972Y-94648262D01*
X35497111Y-94750586D01*
X35667271Y-94821068D01*
X35847911Y-94857000D01*
X35933427Y-94857000D01*
X35940932Y-94894729D01*
X36011414Y-95064889D01*
X36113738Y-95218028D01*
X36243972Y-95348262D01*
X36397111Y-95450586D01*
X36567271Y-95521068D01*
X36747911Y-95557000D01*
X36932089Y-95557000D01*
X37112729Y-95521068D01*
X37282889Y-95450586D01*
X37436028Y-95348262D01*
X37566262Y-95218028D01*
X37625139Y-95129911D01*
X37705000Y-95129911D01*
X37705000Y-95314089D01*
X37740932Y-95494729D01*
X37811414Y-95664889D01*
X37913738Y-95818028D01*
X38043972Y-95948262D01*
X38197111Y-96050586D01*
X38367271Y-96121068D01*
X38547911Y-96157000D01*
X38732089Y-96157000D01*
X38912729Y-96121068D01*
X39082889Y-96050586D01*
X39236028Y-95948262D01*
X39354379Y-95829911D01*
X40805000Y-95829911D01*
X40805000Y-96014089D01*
X40840932Y-96194729D01*
X40911414Y-96364889D01*
X41013738Y-96518028D01*
X41143972Y-96648262D01*
X41297111Y-96750586D01*
X41467271Y-96821068D01*
X41647911Y-96857000D01*
X41832089Y-96857000D01*
X42012729Y-96821068D01*
X42182889Y-96750586D01*
X42336028Y-96648262D01*
X42466262Y-96518028D01*
X42568586Y-96364889D01*
X42639068Y-96194729D01*
X42675000Y-96014089D01*
X42675000Y-95829911D01*
X42671082Y-95810212D01*
X44965000Y-95810212D01*
X44965000Y-96033788D01*
X45008617Y-96253067D01*
X45094176Y-96459624D01*
X45218388Y-96645520D01*
X45376480Y-96803612D01*
X45562376Y-96927824D01*
X45768933Y-97013383D01*
X45988212Y-97057000D01*
X46211788Y-97057000D01*
X46431067Y-97013383D01*
X46637624Y-96927824D01*
X46823520Y-96803612D01*
X46981612Y-96645520D01*
X47105824Y-96459624D01*
X47191383Y-96253067D01*
X47235000Y-96033788D01*
X47235000Y-95810212D01*
X47206588Y-95667374D01*
X62774231Y-95667374D01*
X63074411Y-96105828D01*
X63653356Y-96416296D01*
X64281746Y-96607852D01*
X64935431Y-96673134D01*
X65589293Y-96609634D01*
X66218203Y-96419792D01*
X66797992Y-96110904D01*
X66805589Y-96105828D01*
X67105769Y-95667374D01*
X64940000Y-93501605D01*
X62774231Y-95667374D01*
X47206588Y-95667374D01*
X47191383Y-95590933D01*
X47105824Y-95384376D01*
X46981612Y-95198480D01*
X46823520Y-95040388D01*
X46637624Y-94916176D01*
X46431067Y-94830617D01*
X46211788Y-94787000D01*
X45988212Y-94787000D01*
X45768933Y-94830617D01*
X45562376Y-94916176D01*
X45376480Y-95040388D01*
X45218388Y-95198480D01*
X45094176Y-95384376D01*
X45008617Y-95590933D01*
X44965000Y-95810212D01*
X42671082Y-95810212D01*
X42639068Y-95649271D01*
X42568586Y-95479111D01*
X42466262Y-95325972D01*
X42336028Y-95195738D01*
X42182889Y-95093414D01*
X42012729Y-95022932D01*
X41832089Y-94987000D01*
X41647911Y-94987000D01*
X41467271Y-95022932D01*
X41297111Y-95093414D01*
X41143972Y-95195738D01*
X41013738Y-95325972D01*
X40911414Y-95479111D01*
X40840932Y-95649271D01*
X40805000Y-95829911D01*
X39354379Y-95829911D01*
X39366262Y-95818028D01*
X39468586Y-95664889D01*
X39539068Y-95494729D01*
X39575000Y-95314089D01*
X39575000Y-95129911D01*
X39539068Y-94949271D01*
X39468586Y-94779111D01*
X39366262Y-94625972D01*
X39236028Y-94495738D01*
X39082889Y-94393414D01*
X38912729Y-94322932D01*
X38732089Y-94287000D01*
X38547911Y-94287000D01*
X38367271Y-94322932D01*
X38197111Y-94393414D01*
X38043972Y-94495738D01*
X37913738Y-94625972D01*
X37811414Y-94779111D01*
X37740932Y-94949271D01*
X37705000Y-95129911D01*
X37625139Y-95129911D01*
X37668586Y-95064889D01*
X37739068Y-94894729D01*
X37775000Y-94714089D01*
X37775000Y-94529911D01*
X37739068Y-94349271D01*
X37668586Y-94179111D01*
X37566262Y-94025972D01*
X37436028Y-93895738D01*
X37282889Y-93793414D01*
X37112729Y-93722932D01*
X36932089Y-93687000D01*
X36846573Y-93687000D01*
X36839068Y-93649271D01*
X36768586Y-93479111D01*
X36701622Y-93378891D01*
X48958519Y-93378891D01*
X49055843Y-93653252D01*
X49204822Y-93903355D01*
X49399731Y-94119588D01*
X49633080Y-94293641D01*
X49895901Y-94418825D01*
X50043110Y-94463476D01*
X50273000Y-94342155D01*
X50273000Y-93149000D01*
X49079186Y-93149000D01*
X48958519Y-93378891D01*
X36701622Y-93378891D01*
X36666262Y-93325972D01*
X36536028Y-93195738D01*
X36382889Y-93093414D01*
X36212729Y-93022932D01*
X36032089Y-92987000D01*
X35847911Y-92987000D01*
X35667271Y-93022932D01*
X35497111Y-93093414D01*
X35343972Y-93195738D01*
X35213738Y-93325972D01*
X35111414Y-93479111D01*
X35040932Y-93649271D01*
X35005000Y-93829911D01*
X32354496Y-93829911D01*
X32427267Y-93781287D01*
X32599287Y-93609267D01*
X32734443Y-93406992D01*
X32827540Y-93182236D01*
X32875000Y-92943637D01*
X32875000Y-92700363D01*
X32867988Y-92665109D01*
X48958519Y-92665109D01*
X49079186Y-92895000D01*
X50273000Y-92895000D01*
X50273000Y-91701845D01*
X50527000Y-91701845D01*
X50527000Y-92895000D01*
X50547000Y-92895000D01*
X50547000Y-93149000D01*
X50527000Y-93149000D01*
X50527000Y-94342155D01*
X50756890Y-94463476D01*
X50904099Y-94418825D01*
X51166920Y-94293641D01*
X51400269Y-94119588D01*
X51476034Y-94035534D01*
X51500498Y-94116180D01*
X51559463Y-94226494D01*
X51638815Y-94323185D01*
X51735506Y-94402537D01*
X51845820Y-94461502D01*
X51965518Y-94497812D01*
X52090000Y-94510072D01*
X53790000Y-94510072D01*
X53914482Y-94497812D01*
X54034180Y-94461502D01*
X54144494Y-94402537D01*
X54241185Y-94323185D01*
X54320537Y-94226494D01*
X54379502Y-94116180D01*
X54415812Y-93996482D01*
X54428072Y-93872000D01*
X54428072Y-93317431D01*
X61588866Y-93317431D01*
X61652366Y-93971293D01*
X61842208Y-94600203D01*
X62151096Y-95179992D01*
X62156172Y-95187589D01*
X62594626Y-95487769D01*
X64760395Y-93322000D01*
X62594626Y-91156231D01*
X62156172Y-91456411D01*
X61845704Y-92035356D01*
X61654148Y-92663746D01*
X61588866Y-93317431D01*
X54428072Y-93317431D01*
X54428072Y-92172000D01*
X54415812Y-92047518D01*
X54379502Y-91927820D01*
X54320537Y-91817506D01*
X54241185Y-91720815D01*
X54144494Y-91641463D01*
X54034180Y-91582498D01*
X53914482Y-91546188D01*
X53790000Y-91533928D01*
X52090000Y-91533928D01*
X51965518Y-91546188D01*
X51845820Y-91582498D01*
X51735506Y-91641463D01*
X51638815Y-91720815D01*
X51559463Y-91817506D01*
X51500498Y-91927820D01*
X51476034Y-92008466D01*
X51400269Y-91924412D01*
X51166920Y-91750359D01*
X50904099Y-91625175D01*
X50756890Y-91580524D01*
X50527000Y-91701845D01*
X50273000Y-91701845D01*
X50043110Y-91580524D01*
X49895901Y-91625175D01*
X49633080Y-91750359D01*
X49399731Y-91924412D01*
X49204822Y-92140645D01*
X49055843Y-92390748D01*
X48958519Y-92665109D01*
X32867988Y-92665109D01*
X32827540Y-92461764D01*
X32734443Y-92237008D01*
X32599287Y-92034733D01*
X32427267Y-91862713D01*
X32224992Y-91727557D01*
X32000236Y-91634460D01*
X31761637Y-91587000D01*
X31518363Y-91587000D01*
X31279764Y-91634460D01*
X31055008Y-91727557D01*
X30852733Y-91862713D01*
X30680713Y-92034733D01*
X30545557Y-92237008D01*
X30452460Y-92461764D01*
X30405000Y-92700363D01*
X28930320Y-92700363D01*
X28927634Y-92672707D01*
X28737792Y-92043797D01*
X28428904Y-91464008D01*
X28423828Y-91456411D01*
X27985374Y-91156231D01*
X25819605Y-93322000D01*
X25460395Y-93322000D01*
X25446253Y-93307858D01*
X25625858Y-93128253D01*
X25640000Y-93142395D01*
X27805769Y-90976626D01*
X27505589Y-90538172D01*
X27266976Y-90410212D01*
X36305000Y-90410212D01*
X36305000Y-90633788D01*
X36348617Y-90853067D01*
X36434176Y-91059624D01*
X36558388Y-91245520D01*
X36716480Y-91403612D01*
X36902376Y-91527824D01*
X37108933Y-91613383D01*
X37328212Y-91657000D01*
X37551788Y-91657000D01*
X37771067Y-91613383D01*
X37977624Y-91527824D01*
X38163520Y-91403612D01*
X38321612Y-91245520D01*
X38445824Y-91059624D01*
X38531383Y-90853067D01*
X38575000Y-90633788D01*
X38575000Y-90500363D01*
X46605000Y-90500363D01*
X46605000Y-90743637D01*
X46652460Y-90982236D01*
X46745557Y-91206992D01*
X46880713Y-91409267D01*
X47052733Y-91581287D01*
X47255008Y-91716443D01*
X47479764Y-91809540D01*
X47718363Y-91857000D01*
X47961637Y-91857000D01*
X48200236Y-91809540D01*
X48424992Y-91716443D01*
X48627267Y-91581287D01*
X48799287Y-91409267D01*
X48934443Y-91206992D01*
X49027540Y-90982236D01*
X49075000Y-90743637D01*
X49075000Y-90500363D01*
X49027540Y-90261764D01*
X48934443Y-90037008D01*
X48799287Y-89834733D01*
X48627267Y-89662713D01*
X48424992Y-89527557D01*
X48200236Y-89434460D01*
X47961637Y-89387000D01*
X47718363Y-89387000D01*
X47479764Y-89434460D01*
X47255008Y-89527557D01*
X47052733Y-89662713D01*
X46880713Y-89834733D01*
X46745557Y-90037008D01*
X46652460Y-90261764D01*
X46605000Y-90500363D01*
X38575000Y-90500363D01*
X38575000Y-90410212D01*
X38531383Y-90190933D01*
X38445824Y-89984376D01*
X38321612Y-89798480D01*
X38163520Y-89640388D01*
X37977624Y-89516176D01*
X37771067Y-89430617D01*
X37551788Y-89387000D01*
X37328212Y-89387000D01*
X37108933Y-89430617D01*
X36902376Y-89516176D01*
X36716480Y-89640388D01*
X36558388Y-89798480D01*
X36434176Y-89984376D01*
X36348617Y-90190933D01*
X36305000Y-90410212D01*
X27266976Y-90410212D01*
X26926644Y-90227704D01*
X26298254Y-90036148D01*
X25644569Y-89970866D01*
X24990707Y-90034366D01*
X24825373Y-90084274D01*
X25587521Y-88943638D01*
X26768370Y-87445738D01*
X28063103Y-86045103D01*
X29005000Y-85174423D01*
X29005000Y-85223939D01*
X29044774Y-85423898D01*
X29122795Y-85612256D01*
X29236063Y-85781774D01*
X29380226Y-85925937D01*
X29549744Y-86039205D01*
X29738102Y-86117226D01*
X29938061Y-86157000D01*
X30141939Y-86157000D01*
X30341898Y-86117226D01*
X30530256Y-86039205D01*
X30699774Y-85925937D01*
X30843937Y-85781774D01*
X30957205Y-85612256D01*
X31035226Y-85423898D01*
X31075000Y-85223939D01*
X31075000Y-85020061D01*
X31035226Y-84820102D01*
X30957205Y-84631744D01*
X30946109Y-84615137D01*
X41955000Y-84615137D01*
X41955000Y-84828863D01*
X41996696Y-85038483D01*
X42078485Y-85235940D01*
X42197225Y-85413647D01*
X42348353Y-85564775D01*
X42526060Y-85683515D01*
X42723517Y-85765304D01*
X42933137Y-85807000D01*
X43146863Y-85807000D01*
X43356483Y-85765304D01*
X43553940Y-85683515D01*
X43731647Y-85564775D01*
X43882775Y-85413647D01*
X44001515Y-85235940D01*
X44083304Y-85038483D01*
X44125000Y-84828863D01*
X44125000Y-84729911D01*
X44205000Y-84729911D01*
X44205000Y-84914089D01*
X44240932Y-85094729D01*
X44311414Y-85264889D01*
X44413738Y-85418028D01*
X44543972Y-85548262D01*
X44697111Y-85650586D01*
X44867271Y-85721068D01*
X45047911Y-85757000D01*
X45232089Y-85757000D01*
X45412729Y-85721068D01*
X45582889Y-85650586D01*
X45736028Y-85548262D01*
X45866262Y-85418028D01*
X45968586Y-85264889D01*
X46039068Y-85094729D01*
X46046573Y-85057000D01*
X46132089Y-85057000D01*
X46312729Y-85021068D01*
X46387104Y-84990261D01*
X46396696Y-85038483D01*
X46478485Y-85235940D01*
X46597225Y-85413647D01*
X46748353Y-85564775D01*
X46926060Y-85683515D01*
X47123517Y-85765304D01*
X47333137Y-85807000D01*
X47546863Y-85807000D01*
X47756483Y-85765304D01*
X47953940Y-85683515D01*
X48131647Y-85564775D01*
X48282775Y-85413647D01*
X48401515Y-85235940D01*
X48483304Y-85038483D01*
X48525000Y-84828863D01*
X48525000Y-84810212D01*
X50305000Y-84810212D01*
X50305000Y-85033788D01*
X50348617Y-85253067D01*
X50434176Y-85459624D01*
X50558388Y-85645520D01*
X50716480Y-85803612D01*
X50902376Y-85927824D01*
X51108933Y-86013383D01*
X51328212Y-86057000D01*
X51551788Y-86057000D01*
X51771067Y-86013383D01*
X51977624Y-85927824D01*
X52163520Y-85803612D01*
X52321612Y-85645520D01*
X52445824Y-85459624D01*
X52531383Y-85253067D01*
X52575000Y-85033788D01*
X52575000Y-84810212D01*
X52531383Y-84590933D01*
X52445824Y-84384376D01*
X52321612Y-84198480D01*
X52163520Y-84040388D01*
X51977624Y-83916176D01*
X51771067Y-83830617D01*
X51551788Y-83787000D01*
X51328212Y-83787000D01*
X51108933Y-83830617D01*
X50902376Y-83916176D01*
X50716480Y-84040388D01*
X50558388Y-84198480D01*
X50434176Y-84384376D01*
X50348617Y-84590933D01*
X50305000Y-84810212D01*
X48525000Y-84810212D01*
X48525000Y-84615137D01*
X48483304Y-84405517D01*
X48401515Y-84208060D01*
X48282775Y-84030353D01*
X48131647Y-83879225D01*
X47953940Y-83760485D01*
X47756483Y-83678696D01*
X47546863Y-83637000D01*
X47333137Y-83637000D01*
X47123517Y-83678696D01*
X46926060Y-83760485D01*
X46907444Y-83772924D01*
X46868586Y-83679111D01*
X46766262Y-83525972D01*
X46636028Y-83395738D01*
X46482889Y-83293414D01*
X46312729Y-83222932D01*
X46132089Y-83187000D01*
X45947911Y-83187000D01*
X45767271Y-83222932D01*
X45597111Y-83293414D01*
X45443972Y-83395738D01*
X45313738Y-83525972D01*
X45211414Y-83679111D01*
X45140932Y-83849271D01*
X45133427Y-83887000D01*
X45047911Y-83887000D01*
X44867271Y-83922932D01*
X44697111Y-83993414D01*
X44543972Y-84095738D01*
X44413738Y-84225972D01*
X44311414Y-84379111D01*
X44240932Y-84549271D01*
X44205000Y-84729911D01*
X44125000Y-84729911D01*
X44125000Y-84615137D01*
X44083304Y-84405517D01*
X44001515Y-84208060D01*
X43882775Y-84030353D01*
X43731647Y-83879225D01*
X43553940Y-83760485D01*
X43356483Y-83678696D01*
X43146863Y-83637000D01*
X42933137Y-83637000D01*
X42723517Y-83678696D01*
X42526060Y-83760485D01*
X42348353Y-83879225D01*
X42197225Y-84030353D01*
X42078485Y-84208060D01*
X41996696Y-84405517D01*
X41955000Y-84615137D01*
X30946109Y-84615137D01*
X30843937Y-84462226D01*
X30699774Y-84318063D01*
X30530256Y-84204795D01*
X30341898Y-84126774D01*
X30272321Y-84112934D01*
X30961638Y-83569521D01*
X32367864Y-82629911D01*
X46905000Y-82629911D01*
X46905000Y-82814089D01*
X46940932Y-82994729D01*
X47011414Y-83164889D01*
X47113738Y-83318028D01*
X47243972Y-83448262D01*
X47397111Y-83550586D01*
X47567271Y-83621068D01*
X47747911Y-83657000D01*
X47932089Y-83657000D01*
X48112729Y-83621068D01*
X48282889Y-83550586D01*
X48436028Y-83448262D01*
X48566262Y-83318028D01*
X48668586Y-83164889D01*
X48739068Y-82994729D01*
X48775000Y-82814089D01*
X48775000Y-82629911D01*
X48739068Y-82449271D01*
X48668586Y-82279111D01*
X48566262Y-82125972D01*
X48436028Y-81995738D01*
X48282889Y-81893414D01*
X48112729Y-81822932D01*
X47932089Y-81787000D01*
X47747911Y-81787000D01*
X47567271Y-81822932D01*
X47397111Y-81893414D01*
X47243972Y-81995738D01*
X47113738Y-82125972D01*
X47011414Y-82279111D01*
X46940932Y-82449271D01*
X46905000Y-82629911D01*
X32367864Y-82629911D01*
X32547569Y-82509836D01*
X34211754Y-81577848D01*
X35943931Y-80779303D01*
X37614383Y-80163040D01*
X37605000Y-80210212D01*
X37605000Y-80433788D01*
X37648617Y-80653067D01*
X37734176Y-80859624D01*
X37858388Y-81045520D01*
X38016480Y-81203612D01*
X38202376Y-81327824D01*
X38408933Y-81413383D01*
X38628212Y-81457000D01*
X38851788Y-81457000D01*
X39071067Y-81413383D01*
X39277624Y-81327824D01*
X39463520Y-81203612D01*
X39621612Y-81045520D01*
X39745824Y-80859624D01*
X39831383Y-80653067D01*
X39875000Y-80433788D01*
X39875000Y-80210212D01*
X39831383Y-79990933D01*
X39745824Y-79784376D01*
X39621612Y-79598480D01*
X39615337Y-79592205D01*
X41439925Y-79229272D01*
X43334087Y-79005084D01*
X45240000Y-78930200D01*
X47145913Y-79005084D01*
X47145913Y-79005084D01*
G37*
X47145913Y-79005084D02*
X49040075Y-79229272D01*
X50910808Y-79601384D01*
X51225352Y-79690094D01*
X51180713Y-79734733D01*
X51045557Y-79937008D01*
X50952460Y-80161764D01*
X50905000Y-80400363D01*
X50905000Y-80643637D01*
X50952460Y-80882236D01*
X51045557Y-81106992D01*
X51180713Y-81309267D01*
X51352733Y-81481287D01*
X51555008Y-81616443D01*
X51779764Y-81709540D01*
X52018363Y-81757000D01*
X52261637Y-81757000D01*
X52500236Y-81709540D01*
X52724992Y-81616443D01*
X52927267Y-81481287D01*
X53099287Y-81309267D01*
X53234443Y-81106992D01*
X53327540Y-80882236D01*
X53375000Y-80643637D01*
X53375000Y-80400363D01*
X53364395Y-80347050D01*
X54536069Y-80779303D01*
X56268246Y-81577848D01*
X57932431Y-82509836D01*
X59286423Y-83414544D01*
X59255008Y-83427557D01*
X59052733Y-83562713D01*
X58880713Y-83734733D01*
X58745557Y-83937008D01*
X58652460Y-84161764D01*
X58605000Y-84400363D01*
X58605000Y-84643637D01*
X58652460Y-84882236D01*
X58745557Y-85106992D01*
X58880713Y-85309267D01*
X59052733Y-85481287D01*
X59255008Y-85616443D01*
X59479764Y-85709540D01*
X59718363Y-85757000D01*
X59961637Y-85757000D01*
X60200236Y-85709540D01*
X60424992Y-85616443D01*
X60627267Y-85481287D01*
X60799287Y-85309267D01*
X60934443Y-85106992D01*
X61027540Y-84882236D01*
X61047944Y-84779657D01*
X62416897Y-86045103D01*
X63711630Y-87445738D01*
X64892479Y-88943638D01*
X65628665Y-90045418D01*
X65598254Y-90036148D01*
X64944569Y-89970866D01*
X64290707Y-90034366D01*
X63661797Y-90224208D01*
X63082008Y-90533096D01*
X63074411Y-90538172D01*
X62774231Y-90976626D01*
X64940000Y-93142395D01*
X64954143Y-93128253D01*
X65133748Y-93307858D01*
X65119605Y-93322000D01*
X67285374Y-95487769D01*
X67723828Y-95187589D01*
X67975211Y-94718823D01*
X68342875Y-95715421D01*
X68860616Y-97551192D01*
X69232728Y-99421925D01*
X69456916Y-101316087D01*
X69531800Y-103222000D01*
X69456916Y-105127913D01*
X69232728Y-107022075D01*
X68860616Y-108892808D01*
X68342875Y-110728579D01*
X67682697Y-112518069D01*
X66884152Y-114250246D01*
X65952164Y-115914431D01*
X65422280Y-116707459D01*
X65387634Y-116350707D01*
X65197792Y-115721797D01*
X64888904Y-115142008D01*
X64883828Y-115134411D01*
X64445374Y-114834231D01*
X62279605Y-117000000D01*
X62293748Y-117014143D01*
X62114143Y-117193748D01*
X62100000Y-117179605D01*
X59934231Y-119345374D01*
X60234411Y-119783828D01*
X60813356Y-120094296D01*
X61441746Y-120285852D01*
X62095431Y-120351134D01*
X62497108Y-120312125D01*
X62416897Y-120398897D01*
X61016262Y-121693630D01*
X59518362Y-122874479D01*
X59228000Y-123068493D01*
X59228000Y-122958211D01*
X59192068Y-122777571D01*
X59121586Y-122607411D01*
X59019262Y-122454272D01*
X58889028Y-122324038D01*
X58735889Y-122221714D01*
X58565729Y-122151232D01*
X58385089Y-122115300D01*
X58200911Y-122115300D01*
X58020271Y-122151232D01*
X57850111Y-122221714D01*
X57696972Y-122324038D01*
X57566738Y-122454272D01*
X57464414Y-122607411D01*
X57393932Y-122777571D01*
X57358000Y-122958211D01*
X57358000Y-123142389D01*
X57393932Y-123323029D01*
X57464414Y-123493189D01*
X57566738Y-123646328D01*
X57696972Y-123776562D01*
X57850111Y-123878886D01*
X57951999Y-123921089D01*
X57932431Y-123934164D01*
X56268246Y-124866152D01*
X54536069Y-125664697D01*
X52746579Y-126324875D01*
X50910808Y-126842616D01*
X49040075Y-127214728D01*
X47145913Y-127438916D01*
X45240000Y-127513800D01*
X43334087Y-127438916D01*
X41439925Y-127214728D01*
X39569192Y-126842616D01*
X37733421Y-126324875D01*
X35943931Y-125664697D01*
X35810714Y-125603283D01*
X46166480Y-125603283D01*
X46166480Y-125846557D01*
X46213940Y-126085156D01*
X46307037Y-126309912D01*
X46442193Y-126512187D01*
X46614213Y-126684207D01*
X46816488Y-126819363D01*
X47041244Y-126912460D01*
X47279843Y-126959920D01*
X47523117Y-126959920D01*
X47761716Y-126912460D01*
X47986472Y-126819363D01*
X48188747Y-126684207D01*
X48360767Y-126512187D01*
X48495923Y-126309912D01*
X48589020Y-126085156D01*
X48636480Y-125846557D01*
X48636480Y-125603283D01*
X48589020Y-125364684D01*
X48495923Y-125139928D01*
X48360767Y-124937653D01*
X48188747Y-124765633D01*
X47986472Y-124630477D01*
X47761716Y-124537380D01*
X47523117Y-124489920D01*
X47279843Y-124489920D01*
X47041244Y-124537380D01*
X46816488Y-124630477D01*
X46614213Y-124765633D01*
X46442193Y-124937653D01*
X46307037Y-125139928D01*
X46213940Y-125364684D01*
X46166480Y-125603283D01*
X35810714Y-125603283D01*
X34211754Y-124866152D01*
X33530714Y-124484751D01*
X50677800Y-124484751D01*
X50677800Y-124668929D01*
X50713732Y-124849569D01*
X50784214Y-125019729D01*
X50886538Y-125172868D01*
X51016772Y-125303102D01*
X51169911Y-125405426D01*
X51340071Y-125475908D01*
X51520711Y-125511840D01*
X51704889Y-125511840D01*
X51885529Y-125475908D01*
X52055689Y-125405426D01*
X52208828Y-125303102D01*
X52339062Y-125172868D01*
X52441386Y-125019729D01*
X52511868Y-124849569D01*
X52547800Y-124668929D01*
X52547800Y-124484751D01*
X52511868Y-124304111D01*
X52441386Y-124133951D01*
X52339062Y-123980812D01*
X52208828Y-123850578D01*
X52055689Y-123748254D01*
X51986036Y-123719403D01*
X52710608Y-123719403D01*
X52710608Y-123903581D01*
X52746540Y-124084221D01*
X52817022Y-124254381D01*
X52919346Y-124407520D01*
X53049580Y-124537754D01*
X53202719Y-124640078D01*
X53372879Y-124710560D01*
X53553519Y-124746492D01*
X53737697Y-124746492D01*
X53918337Y-124710560D01*
X54088497Y-124640078D01*
X54241636Y-124537754D01*
X54371870Y-124407520D01*
X54474194Y-124254381D01*
X54544676Y-124084221D01*
X54580608Y-123903581D01*
X54580608Y-123719403D01*
X54544676Y-123538763D01*
X54474194Y-123368603D01*
X54371870Y-123215464D01*
X54241636Y-123085230D01*
X54088497Y-122982906D01*
X53918337Y-122912424D01*
X53737697Y-122876492D01*
X53553519Y-122876492D01*
X53372879Y-122912424D01*
X53202719Y-122982906D01*
X53049580Y-123085230D01*
X52919346Y-123215464D01*
X52817022Y-123368603D01*
X52746540Y-123538763D01*
X52710608Y-123719403D01*
X51986036Y-123719403D01*
X51885529Y-123677772D01*
X51704889Y-123641840D01*
X51520711Y-123641840D01*
X51340071Y-123677772D01*
X51169911Y-123748254D01*
X51016772Y-123850578D01*
X50886538Y-123980812D01*
X50784214Y-124133951D01*
X50713732Y-124304111D01*
X50677800Y-124484751D01*
X33530714Y-124484751D01*
X32547569Y-123934164D01*
X31029932Y-122920111D01*
X42392320Y-122920111D01*
X42392320Y-123104289D01*
X42428252Y-123284929D01*
X42498734Y-123455089D01*
X42601058Y-123608228D01*
X42731292Y-123738462D01*
X42884431Y-123840786D01*
X43054591Y-123911268D01*
X43235231Y-123947200D01*
X43419409Y-123947200D01*
X43600049Y-123911268D01*
X43770209Y-123840786D01*
X43923348Y-123738462D01*
X44053582Y-123608228D01*
X44155906Y-123455089D01*
X44226388Y-123284929D01*
X44262320Y-123104289D01*
X44262320Y-122920111D01*
X44226388Y-122739471D01*
X44155906Y-122569311D01*
X44053582Y-122416172D01*
X43923348Y-122285938D01*
X43770209Y-122183614D01*
X43600049Y-122113132D01*
X43419409Y-122077200D01*
X43235231Y-122077200D01*
X43054591Y-122113132D01*
X42884431Y-122183614D01*
X42731292Y-122285938D01*
X42601058Y-122416172D01*
X42498734Y-122569311D01*
X42428252Y-122739471D01*
X42392320Y-122920111D01*
X31029932Y-122920111D01*
X30961638Y-122874479D01*
X29463738Y-121693630D01*
X28063103Y-120398897D01*
X28017014Y-120349038D01*
X28649293Y-120287634D01*
X29278203Y-120097792D01*
X29857992Y-119788904D01*
X29865589Y-119783828D01*
X30165769Y-119345374D01*
X28000000Y-117179605D01*
X27985858Y-117193748D01*
X27806253Y-117014143D01*
X27820395Y-117000000D01*
X28179605Y-117000000D01*
X30345374Y-119165769D01*
X30781883Y-118866920D01*
X31731015Y-118866920D01*
X31759687Y-119158031D01*
X31844601Y-119437954D01*
X31982494Y-119695934D01*
X32168066Y-119922054D01*
X32197887Y-119946527D01*
X32129020Y-119967418D01*
X32018706Y-120026383D01*
X31922015Y-120105735D01*
X31842663Y-120202426D01*
X31783698Y-120312740D01*
X31747388Y-120432438D01*
X31735128Y-120556920D01*
X31735128Y-122256920D01*
X31747388Y-122381402D01*
X31783698Y-122501100D01*
X31842663Y-122611414D01*
X31922015Y-122708105D01*
X32018706Y-122787457D01*
X32129020Y-122846422D01*
X32248718Y-122882732D01*
X32373200Y-122894992D01*
X34073200Y-122894992D01*
X34197682Y-122882732D01*
X34317380Y-122846422D01*
X34427694Y-122787457D01*
X34524385Y-122708105D01*
X34603737Y-122611414D01*
X34662702Y-122501100D01*
X34699012Y-122381402D01*
X34711272Y-122256920D01*
X34711272Y-120556920D01*
X34699012Y-120432438D01*
X34662702Y-120312740D01*
X34603737Y-120202426D01*
X34524385Y-120105735D01*
X34427694Y-120026383D01*
X34317380Y-119967418D01*
X34248513Y-119946527D01*
X34278334Y-119922054D01*
X34463906Y-119695934D01*
X34601799Y-119437954D01*
X34686713Y-119158031D01*
X34715385Y-118866920D01*
X34712381Y-118836412D01*
X47887000Y-118836412D01*
X47887000Y-119059988D01*
X47930617Y-119279267D01*
X48016176Y-119485824D01*
X48140388Y-119671720D01*
X48298480Y-119829812D01*
X48484376Y-119954024D01*
X48690933Y-120039583D01*
X48910212Y-120083200D01*
X49133788Y-120083200D01*
X49353067Y-120039583D01*
X49559624Y-119954024D01*
X49745520Y-119829812D01*
X49903612Y-119671720D01*
X50027824Y-119485824D01*
X50113383Y-119279267D01*
X50123200Y-119229911D01*
X52205000Y-119229911D01*
X52205000Y-119414089D01*
X52240932Y-119594729D01*
X52311414Y-119764889D01*
X52413738Y-119918028D01*
X52543972Y-120048262D01*
X52697111Y-120150586D01*
X52867271Y-120221068D01*
X53047911Y-120257000D01*
X53232089Y-120257000D01*
X53412729Y-120221068D01*
X53582889Y-120150586D01*
X53736028Y-120048262D01*
X53866262Y-119918028D01*
X53968586Y-119764889D01*
X54039068Y-119594729D01*
X54075000Y-119414089D01*
X54075000Y-119229911D01*
X54039068Y-119049271D01*
X53968586Y-118879111D01*
X53866262Y-118725972D01*
X53736028Y-118595738D01*
X53582889Y-118493414D01*
X53412729Y-118422932D01*
X53232089Y-118387000D01*
X53047911Y-118387000D01*
X52867271Y-118422932D01*
X52697111Y-118493414D01*
X52543972Y-118595738D01*
X52413738Y-118725972D01*
X52311414Y-118879111D01*
X52240932Y-119049271D01*
X52205000Y-119229911D01*
X50123200Y-119229911D01*
X50157000Y-119059988D01*
X50157000Y-118836412D01*
X50113383Y-118617133D01*
X50027824Y-118410576D01*
X49903612Y-118224680D01*
X49745520Y-118066588D01*
X49559624Y-117942376D01*
X49353067Y-117856817D01*
X49133788Y-117813200D01*
X48910212Y-117813200D01*
X48690933Y-117856817D01*
X48484376Y-117942376D01*
X48298480Y-118066588D01*
X48140388Y-118224680D01*
X48016176Y-118410576D01*
X47930617Y-118617133D01*
X47887000Y-118836412D01*
X34712381Y-118836412D01*
X34686713Y-118575809D01*
X34601799Y-118295886D01*
X34463906Y-118037906D01*
X34278334Y-117811786D01*
X34052214Y-117626214D01*
X33987677Y-117591719D01*
X34104555Y-117522098D01*
X34320788Y-117327189D01*
X34494841Y-117093840D01*
X34620025Y-116831019D01*
X34664676Y-116683810D01*
X34543355Y-116453920D01*
X33350200Y-116453920D01*
X33350200Y-116473920D01*
X33096200Y-116473920D01*
X33096200Y-116453920D01*
X31903045Y-116453920D01*
X31781724Y-116683810D01*
X31826375Y-116831019D01*
X31951559Y-117093840D01*
X32125612Y-117327189D01*
X32341845Y-117522098D01*
X32458723Y-117591719D01*
X32394186Y-117626214D01*
X32168066Y-117811786D01*
X31982494Y-118037906D01*
X31844601Y-118295886D01*
X31759687Y-118575809D01*
X31731015Y-118866920D01*
X30781883Y-118866920D01*
X30783828Y-118865589D01*
X31094296Y-118286644D01*
X31285852Y-117658254D01*
X31351134Y-117004569D01*
X31287634Y-116350707D01*
X31172724Y-115970030D01*
X31781724Y-115970030D01*
X31903045Y-116199920D01*
X33096200Y-116199920D01*
X33096200Y-115006106D01*
X33350200Y-115006106D01*
X33350200Y-116199920D01*
X34543355Y-116199920D01*
X34619350Y-116055918D01*
X34685694Y-116216089D01*
X34788018Y-116369228D01*
X34918252Y-116499462D01*
X35071391Y-116601786D01*
X35241551Y-116672268D01*
X35422191Y-116708200D01*
X35606369Y-116708200D01*
X35787009Y-116672268D01*
X35957169Y-116601786D01*
X36059815Y-116533200D01*
X36843036Y-116533200D01*
X36880358Y-116536876D01*
X36917680Y-116533200D01*
X36917691Y-116533200D01*
X37029344Y-116522203D01*
X37172605Y-116478746D01*
X37304634Y-116408174D01*
X37420359Y-116313201D01*
X37444162Y-116284197D01*
X38557100Y-115171259D01*
X38659565Y-115239723D01*
X38525791Y-115295134D01*
X38372652Y-115397458D01*
X38242418Y-115527692D01*
X38140094Y-115680831D01*
X38069612Y-115850991D01*
X38033680Y-116031631D01*
X38033680Y-116215809D01*
X38069612Y-116396449D01*
X38140094Y-116566609D01*
X38242418Y-116719748D01*
X38372652Y-116849982D01*
X38525791Y-116952306D01*
X38695951Y-117022788D01*
X38876591Y-117058720D01*
X39060769Y-117058720D01*
X39241409Y-117022788D01*
X39411569Y-116952306D01*
X39564708Y-116849982D01*
X39694942Y-116719748D01*
X39797266Y-116566609D01*
X39867748Y-116396449D01*
X39903680Y-116215809D01*
X39903680Y-116031631D01*
X39867748Y-115850991D01*
X39797266Y-115680831D01*
X39694942Y-115527692D01*
X39564708Y-115397458D01*
X39450515Y-115321157D01*
X39584289Y-115265746D01*
X39737428Y-115163422D01*
X39867662Y-115033188D01*
X39969986Y-114880049D01*
X40040468Y-114709889D01*
X40076400Y-114529249D01*
X40076400Y-114354911D01*
X52312000Y-114354911D01*
X52312000Y-114539089D01*
X52347932Y-114719729D01*
X52418414Y-114889889D01*
X52520738Y-115043028D01*
X52650972Y-115173262D01*
X52804111Y-115275586D01*
X52974271Y-115346068D01*
X53154911Y-115382000D01*
X53339089Y-115382000D01*
X53519729Y-115346068D01*
X53689889Y-115275586D01*
X53843028Y-115173262D01*
X53973262Y-115043028D01*
X54075586Y-114889889D01*
X54146068Y-114719729D01*
X54182000Y-114539089D01*
X54182000Y-114354911D01*
X54146068Y-114174271D01*
X54075586Y-114004111D01*
X54026008Y-113929911D01*
X57005000Y-113929911D01*
X57005000Y-114114089D01*
X57040932Y-114294729D01*
X57111414Y-114464889D01*
X57213738Y-114618028D01*
X57343972Y-114748262D01*
X57497111Y-114850586D01*
X57629743Y-114905523D01*
X57605000Y-115029911D01*
X57605000Y-115214089D01*
X57640932Y-115394729D01*
X57711414Y-115564889D01*
X57813738Y-115718028D01*
X57943972Y-115848262D01*
X58097111Y-115950586D01*
X58267271Y-116021068D01*
X58447911Y-116057000D01*
X58632089Y-116057000D01*
X58812729Y-116021068D01*
X58926234Y-115974053D01*
X58814148Y-116341746D01*
X58748866Y-116995431D01*
X58812366Y-117649293D01*
X59002208Y-118278203D01*
X59311096Y-118857992D01*
X59316172Y-118865589D01*
X59754626Y-119165769D01*
X61920395Y-117000000D01*
X59754626Y-114834231D01*
X59474258Y-115026180D01*
X59439068Y-114849271D01*
X59368586Y-114679111D01*
X59352226Y-114654626D01*
X59934231Y-114654626D01*
X62100000Y-116820395D01*
X64265769Y-114654626D01*
X63965589Y-114216172D01*
X63386644Y-113905704D01*
X62758254Y-113714148D01*
X62104569Y-113648866D01*
X61450707Y-113712366D01*
X60821797Y-113902208D01*
X60242008Y-114211096D01*
X60234411Y-114216172D01*
X59934231Y-114654626D01*
X59352226Y-114654626D01*
X59266262Y-114525972D01*
X59136028Y-114395738D01*
X58982889Y-114293414D01*
X58850257Y-114238477D01*
X58875000Y-114114089D01*
X58875000Y-113929911D01*
X58839068Y-113749271D01*
X58768586Y-113579111D01*
X58666262Y-113425972D01*
X58536028Y-113295738D01*
X58382889Y-113193414D01*
X58212729Y-113122932D01*
X58032089Y-113087000D01*
X57847911Y-113087000D01*
X57667271Y-113122932D01*
X57497111Y-113193414D01*
X57343972Y-113295738D01*
X57213738Y-113425972D01*
X57111414Y-113579111D01*
X57040932Y-113749271D01*
X57005000Y-113929911D01*
X54026008Y-113929911D01*
X53973262Y-113850972D01*
X53843028Y-113720738D01*
X53689889Y-113618414D01*
X53519729Y-113547932D01*
X53339089Y-113512000D01*
X53154911Y-113512000D01*
X52974271Y-113547932D01*
X52804111Y-113618414D01*
X52650972Y-113720738D01*
X52520738Y-113850972D01*
X52418414Y-114004111D01*
X52347932Y-114174271D01*
X52312000Y-114354911D01*
X40076400Y-114354911D01*
X40076400Y-114345071D01*
X40040468Y-114164431D01*
X39969986Y-113994271D01*
X39875499Y-113852861D01*
X42404960Y-111323400D01*
X42545649Y-111323400D01*
X42726289Y-111287468D01*
X42896449Y-111216986D01*
X43049588Y-111114662D01*
X43179822Y-110984428D01*
X43282146Y-110831289D01*
X43352628Y-110661129D01*
X43388560Y-110480489D01*
X43388560Y-110296311D01*
X43355461Y-110129911D01*
X51505000Y-110129911D01*
X51505000Y-110314089D01*
X51540932Y-110494729D01*
X51611414Y-110664889D01*
X51713738Y-110818028D01*
X51843972Y-110948262D01*
X51997111Y-111050586D01*
X52167271Y-111121068D01*
X52347911Y-111157000D01*
X52532089Y-111157000D01*
X52712729Y-111121068D01*
X52882889Y-111050586D01*
X53036028Y-110948262D01*
X53166262Y-110818028D01*
X53268586Y-110664889D01*
X53339068Y-110494729D01*
X53350430Y-110437610D01*
X53447911Y-110457000D01*
X53632089Y-110457000D01*
X53812729Y-110421068D01*
X53982889Y-110350586D01*
X54136028Y-110248262D01*
X54266262Y-110118028D01*
X54368586Y-109964889D01*
X54439068Y-109794729D01*
X54475000Y-109614089D01*
X54475000Y-109429911D01*
X54439068Y-109249271D01*
X54368586Y-109079111D01*
X54299203Y-108975271D01*
X58105000Y-108975271D01*
X58105000Y-109159449D01*
X58140932Y-109340089D01*
X58211414Y-109510249D01*
X58313738Y-109663388D01*
X58443972Y-109793622D01*
X58597111Y-109895946D01*
X58767271Y-109966428D01*
X58947911Y-110002360D01*
X59132089Y-110002360D01*
X59312729Y-109966428D01*
X59482889Y-109895946D01*
X59636028Y-109793622D01*
X59766262Y-109663388D01*
X59868586Y-109510249D01*
X59939068Y-109340089D01*
X59975000Y-109159449D01*
X59975000Y-108975271D01*
X59939068Y-108794631D01*
X59869186Y-108625920D01*
X59919249Y-108625920D01*
X60099889Y-108589988D01*
X60270049Y-108519506D01*
X60423188Y-108417182D01*
X60553422Y-108286948D01*
X60616068Y-108193191D01*
X64276960Y-108193191D01*
X64276960Y-108377369D01*
X64312892Y-108558009D01*
X64383374Y-108728169D01*
X64485698Y-108881308D01*
X64615932Y-109011542D01*
X64769071Y-109113866D01*
X64939231Y-109184348D01*
X65119871Y-109220280D01*
X65304049Y-109220280D01*
X65484689Y-109184348D01*
X65654849Y-109113866D01*
X65807988Y-109011542D01*
X65938222Y-108881308D01*
X66040546Y-108728169D01*
X66111028Y-108558009D01*
X66146960Y-108377369D01*
X66146960Y-108193191D01*
X66111028Y-108012551D01*
X66040546Y-107842391D01*
X65938222Y-107689252D01*
X65807988Y-107559018D01*
X65654849Y-107456694D01*
X65484689Y-107386212D01*
X65304049Y-107350280D01*
X65119871Y-107350280D01*
X64939231Y-107386212D01*
X64769071Y-107456694D01*
X64615932Y-107559018D01*
X64485698Y-107689252D01*
X64383374Y-107842391D01*
X64312892Y-108012551D01*
X64276960Y-108193191D01*
X60616068Y-108193191D01*
X60655746Y-108133809D01*
X60726228Y-107963649D01*
X60762160Y-107783009D01*
X60762160Y-107598831D01*
X60726228Y-107418191D01*
X60655746Y-107248031D01*
X60553422Y-107094892D01*
X60423188Y-106964658D01*
X60270049Y-106862334D01*
X60099889Y-106791852D01*
X59919249Y-106755920D01*
X59735071Y-106755920D01*
X59554431Y-106791852D01*
X59384271Y-106862334D01*
X59231132Y-106964658D01*
X59100898Y-107094892D01*
X58998574Y-107248031D01*
X58928092Y-107418191D01*
X58892160Y-107598831D01*
X58892160Y-107783009D01*
X58928092Y-107963649D01*
X58997974Y-108132360D01*
X58947911Y-108132360D01*
X58767271Y-108168292D01*
X58597111Y-108238774D01*
X58443972Y-108341098D01*
X58313738Y-108471332D01*
X58211414Y-108624471D01*
X58140932Y-108794631D01*
X58105000Y-108975271D01*
X54299203Y-108975271D01*
X54266262Y-108925972D01*
X54136028Y-108795738D01*
X53982889Y-108693414D01*
X53812729Y-108622932D01*
X53632089Y-108587000D01*
X53447911Y-108587000D01*
X53267271Y-108622932D01*
X53097111Y-108693414D01*
X52943972Y-108795738D01*
X52813738Y-108925972D01*
X52711414Y-109079111D01*
X52640932Y-109249271D01*
X52629570Y-109306390D01*
X52532089Y-109287000D01*
X52347911Y-109287000D01*
X52167271Y-109322932D01*
X51997111Y-109393414D01*
X51843972Y-109495738D01*
X51713738Y-109625972D01*
X51611414Y-109779111D01*
X51540932Y-109949271D01*
X51505000Y-110129911D01*
X43355461Y-110129911D01*
X43352628Y-110115671D01*
X43282146Y-109945511D01*
X43179822Y-109792372D01*
X43049588Y-109662138D01*
X42896449Y-109559814D01*
X42726289Y-109489332D01*
X42545649Y-109453400D01*
X42361471Y-109453400D01*
X42180831Y-109489332D01*
X42010671Y-109559814D01*
X41857532Y-109662138D01*
X41727298Y-109792372D01*
X41624974Y-109945511D01*
X41619126Y-109959630D01*
X37255646Y-114323111D01*
X37272240Y-114239689D01*
X37272240Y-114055511D01*
X37236308Y-113874871D01*
X37165826Y-113704711D01*
X37063502Y-113551572D01*
X36933268Y-113421338D01*
X36780129Y-113319014D01*
X36609969Y-113248532D01*
X36429329Y-113212600D01*
X36245151Y-113212600D01*
X36064511Y-113248532D01*
X35894351Y-113319014D01*
X35741212Y-113421338D01*
X35610978Y-113551572D01*
X35508654Y-113704711D01*
X35438172Y-113874871D01*
X35403847Y-114047434D01*
X35249191Y-114111494D01*
X35096052Y-114213818D01*
X34965818Y-114344052D01*
X34863494Y-114497191D01*
X34793012Y-114667351D01*
X34757080Y-114847991D01*
X34757080Y-115032169D01*
X34786404Y-115179588D01*
X34685694Y-115330311D01*
X34615212Y-115500471D01*
X34579280Y-115681111D01*
X34579280Y-115737278D01*
X34494841Y-115560000D01*
X34320788Y-115326651D01*
X34104555Y-115131742D01*
X33854452Y-114982763D01*
X33580091Y-114885439D01*
X33350200Y-115006106D01*
X33096200Y-115006106D01*
X32866309Y-114885439D01*
X32591948Y-114982763D01*
X32341845Y-115131742D01*
X32125612Y-115326651D01*
X31951559Y-115560000D01*
X31826375Y-115822821D01*
X31781724Y-115970030D01*
X31172724Y-115970030D01*
X31097792Y-115721797D01*
X30788904Y-115142008D01*
X30783828Y-115134411D01*
X30345374Y-114834231D01*
X28179605Y-117000000D01*
X27820395Y-117000000D01*
X25654626Y-114834231D01*
X25216172Y-115134411D01*
X24905704Y-115713356D01*
X24745230Y-116239784D01*
X24527836Y-115914431D01*
X23822312Y-114654626D01*
X25834231Y-114654626D01*
X28000000Y-116820395D01*
X30165769Y-114654626D01*
X29865589Y-114216172D01*
X29286644Y-113905704D01*
X28658254Y-113714148D01*
X28004569Y-113648866D01*
X27350707Y-113712366D01*
X26721797Y-113902208D01*
X26142008Y-114211096D01*
X26134411Y-114216172D01*
X25834231Y-114654626D01*
X23822312Y-114654626D01*
X23595848Y-114250246D01*
X22797303Y-112518069D01*
X22629446Y-112063072D01*
X23125000Y-112063072D01*
X23249482Y-112050812D01*
X23369180Y-112014502D01*
X23377724Y-112009935D01*
X23492204Y-112044662D01*
X23647934Y-112060000D01*
X23752066Y-112060000D01*
X23907796Y-112044662D01*
X24107607Y-111984050D01*
X24200000Y-111934665D01*
X24292393Y-111984050D01*
X24492204Y-112044662D01*
X24647934Y-112060000D01*
X24752066Y-112060000D01*
X24907796Y-112044662D01*
X25107607Y-111984050D01*
X25201809Y-111933698D01*
X25374750Y-112008872D01*
X25409938Y-112019540D01*
X25573000Y-111892257D01*
X25573000Y-111607133D01*
X25585622Y-111591753D01*
X25684050Y-111407607D01*
X25700000Y-111355027D01*
X25715950Y-111407607D01*
X25814378Y-111591753D01*
X25827000Y-111607133D01*
X25827000Y-111892257D01*
X25990062Y-112019540D01*
X26025250Y-112008872D01*
X26198191Y-111933698D01*
X26292393Y-111984050D01*
X26492204Y-112044662D01*
X26647934Y-112060000D01*
X26752066Y-112060000D01*
X26907796Y-112044662D01*
X27107607Y-111984050D01*
X27200000Y-111934665D01*
X27292393Y-111984050D01*
X27492204Y-112044662D01*
X27647934Y-112060000D01*
X27752066Y-112060000D01*
X27907796Y-112044662D01*
X28107607Y-111984050D01*
X28201809Y-111933698D01*
X28374750Y-112008872D01*
X28409938Y-112019540D01*
X28573000Y-111892257D01*
X28573000Y-111607133D01*
X28585622Y-111591753D01*
X28684050Y-111407607D01*
X28702632Y-111346351D01*
X28756632Y-111483394D01*
X28827000Y-111592768D01*
X28827000Y-111892257D01*
X28990062Y-112019540D01*
X29025250Y-112008872D01*
X29200000Y-111932912D01*
X29374750Y-112008872D01*
X29409938Y-112019540D01*
X29573000Y-111892257D01*
X29573000Y-111592768D01*
X29643368Y-111483394D01*
X29700000Y-111339671D01*
X29756632Y-111483394D01*
X29827000Y-111592768D01*
X29827000Y-111892257D01*
X29990062Y-112019540D01*
X30025250Y-112008872D01*
X30200000Y-111932912D01*
X30374750Y-112008872D01*
X30409938Y-112019540D01*
X30573000Y-111892257D01*
X30573000Y-111592768D01*
X30643368Y-111483394D01*
X30697368Y-111346351D01*
X30715950Y-111407607D01*
X30814378Y-111591753D01*
X30827000Y-111607133D01*
X30827000Y-111892257D01*
X30990062Y-112019540D01*
X31025250Y-112008872D01*
X31198191Y-111933698D01*
X31292393Y-111984050D01*
X31492204Y-112044662D01*
X31647934Y-112060000D01*
X31752066Y-112060000D01*
X31907796Y-112044662D01*
X32107607Y-111984050D01*
X32200000Y-111934665D01*
X32292393Y-111984050D01*
X32492204Y-112044662D01*
X32647934Y-112060000D01*
X32752066Y-112060000D01*
X32907796Y-112044662D01*
X33107607Y-111984050D01*
X33200000Y-111934665D01*
X33292393Y-111984050D01*
X33492204Y-112044662D01*
X33647934Y-112060000D01*
X33752066Y-112060000D01*
X33907796Y-112044662D01*
X34107607Y-111984050D01*
X34200000Y-111934665D01*
X34292393Y-111984050D01*
X34492204Y-112044662D01*
X34647934Y-112060000D01*
X34752066Y-112060000D01*
X34907796Y-112044662D01*
X35107607Y-111984050D01*
X35291753Y-111885622D01*
X35453159Y-111753159D01*
X35585622Y-111591753D01*
X35684050Y-111407607D01*
X35744662Y-111207796D01*
X35765128Y-111000000D01*
X35744662Y-110792204D01*
X35684050Y-110592393D01*
X35634665Y-110500000D01*
X35684050Y-110407607D01*
X35744662Y-110207796D01*
X35765128Y-110000000D01*
X35758225Y-109929911D01*
X37305000Y-109929911D01*
X37305000Y-110114089D01*
X37340932Y-110294729D01*
X37411414Y-110464889D01*
X37513738Y-110618028D01*
X37643972Y-110748262D01*
X37797111Y-110850586D01*
X37967271Y-110921068D01*
X38147911Y-110957000D01*
X38332089Y-110957000D01*
X38512729Y-110921068D01*
X38682889Y-110850586D01*
X38836028Y-110748262D01*
X38966262Y-110618028D01*
X39068586Y-110464889D01*
X39139068Y-110294729D01*
X39175000Y-110114089D01*
X39175000Y-109929911D01*
X39139068Y-109749271D01*
X39068586Y-109579111D01*
X38966262Y-109425972D01*
X38836028Y-109295738D01*
X38682889Y-109193414D01*
X38512729Y-109122932D01*
X38332089Y-109087000D01*
X38147911Y-109087000D01*
X37967271Y-109122932D01*
X37797111Y-109193414D01*
X37643972Y-109295738D01*
X37513738Y-109425972D01*
X37411414Y-109579111D01*
X37340932Y-109749271D01*
X37305000Y-109929911D01*
X35758225Y-109929911D01*
X35744662Y-109792204D01*
X35684050Y-109592393D01*
X35585622Y-109408247D01*
X35453159Y-109246841D01*
X35291753Y-109114378D01*
X35107607Y-109015950D01*
X34907796Y-108955338D01*
X34752066Y-108940000D01*
X34647934Y-108940000D01*
X34492204Y-108955338D01*
X34292393Y-109015950D01*
X34200000Y-109065335D01*
X34107607Y-109015950D01*
X33907796Y-108955338D01*
X33752066Y-108940000D01*
X33647934Y-108940000D01*
X33492204Y-108955338D01*
X33292393Y-109015950D01*
X33200000Y-109065335D01*
X33107607Y-109015950D01*
X32907796Y-108955338D01*
X32752066Y-108940000D01*
X32647934Y-108940000D01*
X32492204Y-108955338D01*
X32292393Y-109015950D01*
X32200000Y-109065335D01*
X32107607Y-109015950D01*
X31907796Y-108955338D01*
X31752066Y-108940000D01*
X31647934Y-108940000D01*
X31492204Y-108955338D01*
X31292393Y-109015950D01*
X31200000Y-109065335D01*
X31107607Y-109015950D01*
X30907796Y-108955338D01*
X30752066Y-108940000D01*
X30647934Y-108940000D01*
X30492204Y-108955338D01*
X30292393Y-109015950D01*
X30200000Y-109065335D01*
X30107607Y-109015950D01*
X29907796Y-108955338D01*
X29752066Y-108940000D01*
X29647934Y-108940000D01*
X29492204Y-108955338D01*
X29292393Y-109015950D01*
X29200000Y-109065335D01*
X29107607Y-109015950D01*
X28907796Y-108955338D01*
X28752066Y-108940000D01*
X28647934Y-108940000D01*
X28492204Y-108955338D01*
X28292393Y-109015950D01*
X28200000Y-109065335D01*
X28107607Y-109015950D01*
X27907796Y-108955338D01*
X27752066Y-108940000D01*
X27647934Y-108940000D01*
X27492204Y-108955338D01*
X27292393Y-109015950D01*
X27200000Y-109065335D01*
X27107607Y-109015950D01*
X26907796Y-108955338D01*
X26752066Y-108940000D01*
X26647934Y-108940000D01*
X26492204Y-108955338D01*
X26292393Y-109015950D01*
X26198191Y-109066302D01*
X26025250Y-108991128D01*
X25990062Y-108980460D01*
X25827000Y-109107743D01*
X25827000Y-109392867D01*
X25814378Y-109408247D01*
X25715950Y-109592393D01*
X25700000Y-109644973D01*
X25684050Y-109592393D01*
X25585622Y-109408247D01*
X25573000Y-109392867D01*
X25573000Y-109107743D01*
X25409938Y-108980460D01*
X25374750Y-108991128D01*
X25201809Y-109066302D01*
X25107607Y-109015950D01*
X24907796Y-108955338D01*
X24752066Y-108940000D01*
X24647934Y-108940000D01*
X24492204Y-108955338D01*
X24292393Y-109015950D01*
X24200000Y-109065335D01*
X24107607Y-109015950D01*
X23907796Y-108955338D01*
X23752066Y-108940000D01*
X23647934Y-108940000D01*
X23492204Y-108955338D01*
X23292393Y-109015950D01*
X23200000Y-109065335D01*
X23107607Y-109015950D01*
X22907796Y-108955338D01*
X22752066Y-108940000D01*
X22647934Y-108940000D01*
X22492204Y-108955338D01*
X22292393Y-109015950D01*
X22108247Y-109114378D01*
X21946841Y-109246841D01*
X21814378Y-109408247D01*
X21781893Y-109469022D01*
X21629849Y-108929911D01*
X44705000Y-108929911D01*
X44705000Y-109114089D01*
X44740932Y-109294729D01*
X44811414Y-109464889D01*
X44913738Y-109618028D01*
X45043972Y-109748262D01*
X45197111Y-109850586D01*
X45367271Y-109921068D01*
X45547911Y-109957000D01*
X45732089Y-109957000D01*
X45912729Y-109921068D01*
X46082889Y-109850586D01*
X46236028Y-109748262D01*
X46366262Y-109618028D01*
X46407040Y-109557000D01*
X46432089Y-109557000D01*
X46612729Y-109521068D01*
X46782413Y-109450783D01*
X46785132Y-109453502D01*
X46938271Y-109555826D01*
X47108431Y-109626308D01*
X47289071Y-109662240D01*
X47473249Y-109662240D01*
X47653889Y-109626308D01*
X47824049Y-109555826D01*
X47977188Y-109453502D01*
X48107422Y-109323268D01*
X48209746Y-109170129D01*
X48280228Y-108999969D01*
X48316160Y-108819329D01*
X48316160Y-108635151D01*
X48280228Y-108454511D01*
X48209746Y-108284351D01*
X48107422Y-108131212D01*
X47977188Y-108000978D01*
X47824049Y-107898654D01*
X47653889Y-107828172D01*
X47473249Y-107792240D01*
X47289071Y-107792240D01*
X47108431Y-107828172D01*
X46938747Y-107898457D01*
X46936028Y-107895738D01*
X46782889Y-107793414D01*
X46612729Y-107722932D01*
X46432089Y-107687000D01*
X46247911Y-107687000D01*
X46067271Y-107722932D01*
X45897111Y-107793414D01*
X45743972Y-107895738D01*
X45613738Y-108025972D01*
X45572960Y-108087000D01*
X45547911Y-108087000D01*
X45367271Y-108122932D01*
X45197111Y-108193414D01*
X45043972Y-108295738D01*
X44913738Y-108425972D01*
X44811414Y-108579111D01*
X44740932Y-108749271D01*
X44705000Y-108929911D01*
X21629849Y-108929911D01*
X21619384Y-108892808D01*
X21268722Y-107129911D01*
X23805000Y-107129911D01*
X23805000Y-107314089D01*
X23840932Y-107494729D01*
X23911414Y-107664889D01*
X24013738Y-107818028D01*
X24143972Y-107948262D01*
X24297111Y-108050586D01*
X24467271Y-108121068D01*
X24647911Y-108157000D01*
X24832089Y-108157000D01*
X25012729Y-108121068D01*
X25171756Y-108055197D01*
X25213738Y-108118028D01*
X25343972Y-108248262D01*
X25497111Y-108350586D01*
X25667271Y-108421068D01*
X25847911Y-108457000D01*
X26032089Y-108457000D01*
X26212729Y-108421068D01*
X26361012Y-108359648D01*
X26497111Y-108450586D01*
X26667271Y-108521068D01*
X26847911Y-108557000D01*
X27032089Y-108557000D01*
X27212729Y-108521068D01*
X27382889Y-108450586D01*
X27536028Y-108348262D01*
X27666262Y-108218028D01*
X27768586Y-108064889D01*
X27839068Y-107894729D01*
X27875000Y-107714089D01*
X27875000Y-107529911D01*
X27839068Y-107349271D01*
X27768586Y-107179111D01*
X27666262Y-107025972D01*
X27536028Y-106895738D01*
X27382889Y-106793414D01*
X27212729Y-106722932D01*
X27032089Y-106687000D01*
X26847911Y-106687000D01*
X26667271Y-106722932D01*
X26518988Y-106784352D01*
X26382889Y-106693414D01*
X26212729Y-106622932D01*
X26032089Y-106587000D01*
X25847911Y-106587000D01*
X25667271Y-106622932D01*
X25508244Y-106688803D01*
X25466262Y-106625972D01*
X25336028Y-106495738D01*
X25182889Y-106393414D01*
X25012729Y-106322932D01*
X24832089Y-106287000D01*
X24647911Y-106287000D01*
X24467271Y-106322932D01*
X24297111Y-106393414D01*
X24143972Y-106495738D01*
X24013738Y-106625972D01*
X23911414Y-106779111D01*
X23840932Y-106949271D01*
X23805000Y-107129911D01*
X21268722Y-107129911D01*
X21247272Y-107022075D01*
X21023084Y-105127913D01*
X21011376Y-104829911D01*
X31305000Y-104829911D01*
X31305000Y-105014089D01*
X31340932Y-105194729D01*
X31411414Y-105364889D01*
X31476782Y-105462720D01*
X31440932Y-105549271D01*
X31405000Y-105729911D01*
X31405000Y-105914089D01*
X31440932Y-106094729D01*
X31511414Y-106264889D01*
X31613738Y-106418028D01*
X31743972Y-106548262D01*
X31897111Y-106650586D01*
X32067271Y-106721068D01*
X32247911Y-106757000D01*
X32432089Y-106757000D01*
X32612729Y-106721068D01*
X32782889Y-106650586D01*
X32936028Y-106548262D01*
X33066262Y-106418028D01*
X33168586Y-106264889D01*
X33239068Y-106094729D01*
X33275000Y-105914089D01*
X33275000Y-105729911D01*
X33239068Y-105549271D01*
X33231049Y-105529911D01*
X46005000Y-105529911D01*
X46005000Y-105714089D01*
X46040932Y-105894729D01*
X46111414Y-106064889D01*
X46213738Y-106218028D01*
X46343972Y-106348262D01*
X46497111Y-106450586D01*
X46667271Y-106521068D01*
X46847911Y-106557000D01*
X47032089Y-106557000D01*
X47212729Y-106521068D01*
X47382889Y-106450586D01*
X47536028Y-106348262D01*
X47666262Y-106218028D01*
X47737804Y-106110958D01*
X47797111Y-106150586D01*
X47967271Y-106221068D01*
X48147911Y-106257000D01*
X48332089Y-106257000D01*
X48512729Y-106221068D01*
X48682889Y-106150586D01*
X48836028Y-106048262D01*
X48959101Y-105925189D01*
X48997111Y-105950586D01*
X49167271Y-106021068D01*
X49347911Y-106057000D01*
X49532089Y-106057000D01*
X49712729Y-106021068D01*
X49760874Y-106001126D01*
X49740932Y-106049271D01*
X49705000Y-106229911D01*
X49705000Y-106414089D01*
X49740932Y-106594729D01*
X49811414Y-106764889D01*
X49913738Y-106918028D01*
X50043972Y-107048262D01*
X50197111Y-107150586D01*
X50367271Y-107221068D01*
X50547911Y-107257000D01*
X50732089Y-107257000D01*
X50912729Y-107221068D01*
X51082889Y-107150586D01*
X51187524Y-107080671D01*
X53258440Y-107080671D01*
X53258440Y-107264849D01*
X53294372Y-107445489D01*
X53364854Y-107615649D01*
X53467178Y-107768788D01*
X53597412Y-107899022D01*
X53750551Y-108001346D01*
X53920711Y-108071828D01*
X54101351Y-108107760D01*
X54285529Y-108107760D01*
X54466169Y-108071828D01*
X54636329Y-108001346D01*
X54789468Y-107899022D01*
X54919702Y-107768788D01*
X55022026Y-107615649D01*
X55092508Y-107445489D01*
X55128440Y-107264849D01*
X55128440Y-107080671D01*
X55092508Y-106900031D01*
X55022026Y-106729871D01*
X54919702Y-106576732D01*
X54789468Y-106446498D01*
X54636329Y-106344174D01*
X54466169Y-106273692D01*
X54285529Y-106237760D01*
X54101351Y-106237760D01*
X53920711Y-106273692D01*
X53750551Y-106344174D01*
X53597412Y-106446498D01*
X53467178Y-106576732D01*
X53364854Y-106729871D01*
X53294372Y-106900031D01*
X53258440Y-107080671D01*
X51187524Y-107080671D01*
X51236028Y-107048262D01*
X51366262Y-106918028D01*
X51468586Y-106764889D01*
X51539068Y-106594729D01*
X51575000Y-106414089D01*
X51575000Y-106229911D01*
X51539068Y-106049271D01*
X51468586Y-105879111D01*
X51366262Y-105725972D01*
X51236028Y-105595738D01*
X51082889Y-105493414D01*
X51014849Y-105465231D01*
X58587360Y-105465231D01*
X58587360Y-105649409D01*
X58623292Y-105830049D01*
X58693774Y-106000209D01*
X58796098Y-106153348D01*
X58926332Y-106283582D01*
X59079471Y-106385906D01*
X59249631Y-106456388D01*
X59430271Y-106492320D01*
X59614449Y-106492320D01*
X59795089Y-106456388D01*
X59965249Y-106385906D01*
X60118388Y-106283582D01*
X60248622Y-106153348D01*
X60350946Y-106000209D01*
X60421428Y-105830049D01*
X60457360Y-105649409D01*
X60457360Y-105465231D01*
X60421428Y-105284591D01*
X60350946Y-105114431D01*
X60248622Y-104961292D01*
X60118388Y-104831058D01*
X59965249Y-104728734D01*
X59795089Y-104658252D01*
X59614449Y-104622320D01*
X59430271Y-104622320D01*
X59249631Y-104658252D01*
X59079471Y-104728734D01*
X58926332Y-104831058D01*
X58796098Y-104961292D01*
X58693774Y-105114431D01*
X58623292Y-105284591D01*
X58587360Y-105465231D01*
X51014849Y-105465231D01*
X50912729Y-105422932D01*
X50732089Y-105387000D01*
X50547911Y-105387000D01*
X50367271Y-105422932D01*
X50319126Y-105442874D01*
X50339068Y-105394729D01*
X50375000Y-105214089D01*
X50375000Y-105029911D01*
X50339068Y-104849271D01*
X50268586Y-104679111D01*
X50166262Y-104525972D01*
X50036028Y-104395738D01*
X49931468Y-104325873D01*
X53717078Y-104325873D01*
X53717078Y-104510051D01*
X53753010Y-104690691D01*
X53823492Y-104860851D01*
X53925816Y-105013990D01*
X54056050Y-105144224D01*
X54209189Y-105246548D01*
X54379349Y-105317030D01*
X54559989Y-105352962D01*
X54744167Y-105352962D01*
X54924807Y-105317030D01*
X55094967Y-105246548D01*
X55248106Y-105144224D01*
X55378340Y-105013990D01*
X55480664Y-104860851D01*
X55551146Y-104690691D01*
X55587078Y-104510051D01*
X55587078Y-104325873D01*
X55551146Y-104145233D01*
X55480664Y-103975073D01*
X55435895Y-103908072D01*
X55467271Y-103921068D01*
X55647911Y-103957000D01*
X55832089Y-103957000D01*
X56012729Y-103921068D01*
X56182889Y-103850586D01*
X56336028Y-103748262D01*
X56466262Y-103618028D01*
X56568586Y-103464889D01*
X56639068Y-103294729D01*
X56675000Y-103114089D01*
X56675000Y-102929911D01*
X56639068Y-102749271D01*
X56568586Y-102579111D01*
X56466262Y-102425972D01*
X56336028Y-102295738D01*
X56182889Y-102193414D01*
X56012729Y-102122932D01*
X55832089Y-102087000D01*
X55647911Y-102087000D01*
X55467271Y-102122932D01*
X55297111Y-102193414D01*
X55143972Y-102295738D01*
X55013738Y-102425972D01*
X54911414Y-102579111D01*
X54840932Y-102749271D01*
X54805000Y-102929911D01*
X54805000Y-103114089D01*
X54840932Y-103294729D01*
X54911414Y-103464889D01*
X54956183Y-103531890D01*
X54924807Y-103518894D01*
X54744167Y-103482962D01*
X54559989Y-103482962D01*
X54379349Y-103518894D01*
X54209189Y-103589376D01*
X54056050Y-103691700D01*
X53925816Y-103821934D01*
X53823492Y-103975073D01*
X53753010Y-104145233D01*
X53717078Y-104325873D01*
X49931468Y-104325873D01*
X49882889Y-104293414D01*
X49712729Y-104222932D01*
X49532089Y-104187000D01*
X49347911Y-104187000D01*
X49167271Y-104222932D01*
X48997111Y-104293414D01*
X48843972Y-104395738D01*
X48720899Y-104518811D01*
X48682889Y-104493414D01*
X48512729Y-104422932D01*
X48332089Y-104387000D01*
X48147911Y-104387000D01*
X47967271Y-104422932D01*
X47797111Y-104493414D01*
X47643972Y-104595738D01*
X47513738Y-104725972D01*
X47442196Y-104833042D01*
X47382889Y-104793414D01*
X47212729Y-104722932D01*
X47032089Y-104687000D01*
X46847911Y-104687000D01*
X46667271Y-104722932D01*
X46497111Y-104793414D01*
X46343972Y-104895738D01*
X46213738Y-105025972D01*
X46111414Y-105179111D01*
X46040932Y-105349271D01*
X46005000Y-105529911D01*
X33231049Y-105529911D01*
X33168586Y-105379111D01*
X33103218Y-105281280D01*
X33139068Y-105194729D01*
X33175000Y-105014089D01*
X33175000Y-104842497D01*
X33247911Y-104857000D01*
X33432089Y-104857000D01*
X33612729Y-104821068D01*
X33782889Y-104750586D01*
X33936028Y-104648262D01*
X34066262Y-104518028D01*
X34168586Y-104364889D01*
X34239068Y-104194729D01*
X34275000Y-104014089D01*
X34275000Y-103829911D01*
X34239068Y-103649271D01*
X34168586Y-103479111D01*
X34066262Y-103325972D01*
X33936028Y-103195738D01*
X33782889Y-103093414D01*
X33629578Y-103029911D01*
X51905000Y-103029911D01*
X51905000Y-103214089D01*
X51940932Y-103394729D01*
X52011414Y-103564889D01*
X52113738Y-103718028D01*
X52243972Y-103848262D01*
X52397111Y-103950586D01*
X52567271Y-104021068D01*
X52747911Y-104057000D01*
X52932089Y-104057000D01*
X53112729Y-104021068D01*
X53282889Y-103950586D01*
X53436028Y-103848262D01*
X53566262Y-103718028D01*
X53668586Y-103564889D01*
X53739068Y-103394729D01*
X53775000Y-103214089D01*
X53775000Y-103029911D01*
X53752099Y-102914784D01*
X53767271Y-102921068D01*
X53947911Y-102957000D01*
X54132089Y-102957000D01*
X54312729Y-102921068D01*
X54482889Y-102850586D01*
X54636028Y-102748262D01*
X54766262Y-102618028D01*
X54868586Y-102464889D01*
X54939068Y-102294729D01*
X54975000Y-102114089D01*
X54975000Y-101929911D01*
X54939068Y-101749271D01*
X54868586Y-101579111D01*
X54768894Y-101429911D01*
X64005000Y-101429911D01*
X64005000Y-101614089D01*
X64040932Y-101794729D01*
X64111414Y-101964889D01*
X64213738Y-102118028D01*
X64343972Y-102248262D01*
X64497111Y-102350586D01*
X64667271Y-102421068D01*
X64847911Y-102457000D01*
X65032089Y-102457000D01*
X65212729Y-102421068D01*
X65382889Y-102350586D01*
X65536028Y-102248262D01*
X65666262Y-102118028D01*
X65768586Y-101964889D01*
X65839068Y-101794729D01*
X65875000Y-101614089D01*
X65875000Y-101429911D01*
X65839068Y-101249271D01*
X65831049Y-101229911D01*
X67249000Y-101229911D01*
X67249000Y-101414089D01*
X67284932Y-101594729D01*
X67355414Y-101764889D01*
X67457738Y-101918028D01*
X67587972Y-102048262D01*
X67741111Y-102150586D01*
X67911271Y-102221068D01*
X68091911Y-102257000D01*
X68276089Y-102257000D01*
X68456729Y-102221068D01*
X68626889Y-102150586D01*
X68780028Y-102048262D01*
X68910262Y-101918028D01*
X69012586Y-101764889D01*
X69083068Y-101594729D01*
X69119000Y-101414089D01*
X69119000Y-101229911D01*
X69083068Y-101049271D01*
X69012586Y-100879111D01*
X68910262Y-100725972D01*
X68780028Y-100595738D01*
X68626889Y-100493414D01*
X68456729Y-100422932D01*
X68276089Y-100387000D01*
X68091911Y-100387000D01*
X67911271Y-100422932D01*
X67741111Y-100493414D01*
X67587972Y-100595738D01*
X67457738Y-100725972D01*
X67355414Y-100879111D01*
X67284932Y-101049271D01*
X67249000Y-101229911D01*
X65831049Y-101229911D01*
X65768586Y-101079111D01*
X65666262Y-100925972D01*
X65536028Y-100795738D01*
X65382889Y-100693414D01*
X65212729Y-100622932D01*
X65032089Y-100587000D01*
X64847911Y-100587000D01*
X64667271Y-100622932D01*
X64497111Y-100693414D01*
X64343972Y-100795738D01*
X64213738Y-100925972D01*
X64111414Y-101079111D01*
X64040932Y-101249271D01*
X64005000Y-101429911D01*
X54768894Y-101429911D01*
X54766262Y-101425972D01*
X54636028Y-101295738D01*
X54482889Y-101193414D01*
X54312729Y-101122932D01*
X54132089Y-101087000D01*
X53947911Y-101087000D01*
X53767271Y-101122932D01*
X53597111Y-101193414D01*
X53443972Y-101295738D01*
X53313738Y-101425972D01*
X53211414Y-101579111D01*
X53140932Y-101749271D01*
X53105000Y-101929911D01*
X53105000Y-102114089D01*
X53127901Y-102229216D01*
X53112729Y-102222932D01*
X52932089Y-102187000D01*
X52747911Y-102187000D01*
X52567271Y-102222932D01*
X52397111Y-102293414D01*
X52243972Y-102395738D01*
X52113738Y-102525972D01*
X52011414Y-102679111D01*
X51940932Y-102849271D01*
X51905000Y-103029911D01*
X33629578Y-103029911D01*
X33612729Y-103022932D01*
X33432089Y-102987000D01*
X33247911Y-102987000D01*
X33067271Y-103022932D01*
X32897111Y-103093414D01*
X32743972Y-103195738D01*
X32613738Y-103325972D01*
X32511414Y-103479111D01*
X32440932Y-103649271D01*
X32405000Y-103829911D01*
X32405000Y-104001503D01*
X32332089Y-103987000D01*
X32147911Y-103987000D01*
X31967271Y-104022932D01*
X31797111Y-104093414D01*
X31643972Y-104195738D01*
X31513738Y-104325972D01*
X31411414Y-104479111D01*
X31340932Y-104649271D01*
X31305000Y-104829911D01*
X21011376Y-104829911D01*
X20948200Y-103222000D01*
X20975392Y-102529911D01*
X30005000Y-102529911D01*
X30005000Y-102714089D01*
X30040932Y-102894729D01*
X30111414Y-103064889D01*
X30213738Y-103218028D01*
X30343972Y-103348262D01*
X30497111Y-103450586D01*
X30667271Y-103521068D01*
X30847911Y-103557000D01*
X31032089Y-103557000D01*
X31212729Y-103521068D01*
X31382889Y-103450586D01*
X31536028Y-103348262D01*
X31666262Y-103218028D01*
X31768586Y-103064889D01*
X31839068Y-102894729D01*
X31875000Y-102714089D01*
X31875000Y-102529911D01*
X31839068Y-102349271D01*
X31768586Y-102179111D01*
X31666262Y-102025972D01*
X31536028Y-101895738D01*
X31382889Y-101793414D01*
X31212729Y-101722932D01*
X31032089Y-101687000D01*
X30847911Y-101687000D01*
X30667271Y-101722932D01*
X30497111Y-101793414D01*
X30343972Y-101895738D01*
X30213738Y-102025972D01*
X30111414Y-102179111D01*
X30040932Y-102349271D01*
X30005000Y-102529911D01*
X20975392Y-102529911D01*
X21023084Y-101316087D01*
X21116133Y-100529911D01*
X44905000Y-100529911D01*
X44905000Y-100714089D01*
X44940932Y-100894729D01*
X45011414Y-101064889D01*
X45113738Y-101218028D01*
X45243972Y-101348262D01*
X45397111Y-101450586D01*
X45567271Y-101521068D01*
X45747911Y-101557000D01*
X45932089Y-101557000D01*
X46112729Y-101521068D01*
X46282889Y-101450586D01*
X46436028Y-101348262D01*
X46566262Y-101218028D01*
X46668586Y-101064889D01*
X46739068Y-100894729D01*
X46775000Y-100714089D01*
X46775000Y-100529911D01*
X46739068Y-100349271D01*
X46668586Y-100179111D01*
X46566262Y-100025972D01*
X46436028Y-99895738D01*
X46282889Y-99793414D01*
X46112729Y-99722932D01*
X45932089Y-99687000D01*
X45747911Y-99687000D01*
X45567271Y-99722932D01*
X45397111Y-99793414D01*
X45243972Y-99895738D01*
X45113738Y-100025972D01*
X45011414Y-100179111D01*
X44940932Y-100349271D01*
X44905000Y-100529911D01*
X21116133Y-100529911D01*
X21247272Y-99421925D01*
X21265574Y-99329911D01*
X34805000Y-99329911D01*
X34805000Y-99514089D01*
X34840932Y-99694729D01*
X34911414Y-99864889D01*
X35013738Y-100018028D01*
X35143972Y-100148262D01*
X35297111Y-100250586D01*
X35467271Y-100321068D01*
X35647911Y-100357000D01*
X35832089Y-100357000D01*
X36012729Y-100321068D01*
X36182889Y-100250586D01*
X36336028Y-100148262D01*
X36466262Y-100018028D01*
X36568586Y-99864889D01*
X36639068Y-99694729D01*
X36675000Y-99514089D01*
X36675000Y-99329911D01*
X36639068Y-99149271D01*
X36568586Y-98979111D01*
X36468894Y-98829911D01*
X48105000Y-98829911D01*
X48105000Y-99014089D01*
X48140932Y-99194729D01*
X48211414Y-99364889D01*
X48313738Y-99518028D01*
X48443972Y-99648262D01*
X48597111Y-99750586D01*
X48767271Y-99821068D01*
X48947911Y-99857000D01*
X49132089Y-99857000D01*
X49312729Y-99821068D01*
X49482889Y-99750586D01*
X49636028Y-99648262D01*
X49766262Y-99518028D01*
X49868586Y-99364889D01*
X49939068Y-99194729D01*
X49975000Y-99014089D01*
X49975000Y-98829911D01*
X49939068Y-98649271D01*
X49868586Y-98479111D01*
X49766262Y-98325972D01*
X49636028Y-98195738D01*
X49482889Y-98093414D01*
X49312729Y-98022932D01*
X49132089Y-97987000D01*
X48947911Y-97987000D01*
X48767271Y-98022932D01*
X48597111Y-98093414D01*
X48443972Y-98195738D01*
X48313738Y-98325972D01*
X48211414Y-98479111D01*
X48140932Y-98649271D01*
X48105000Y-98829911D01*
X36468894Y-98829911D01*
X36466262Y-98825972D01*
X36336028Y-98695738D01*
X36182889Y-98593414D01*
X36012729Y-98522932D01*
X35832089Y-98487000D01*
X35647911Y-98487000D01*
X35467271Y-98522932D01*
X35297111Y-98593414D01*
X35143972Y-98695738D01*
X35013738Y-98825972D01*
X34911414Y-98979111D01*
X34840932Y-99149271D01*
X34805000Y-99329911D01*
X21265574Y-99329911D01*
X21619384Y-97551192D01*
X22137125Y-95715421D01*
X22154850Y-95667374D01*
X23474231Y-95667374D01*
X23774411Y-96105828D01*
X24353356Y-96416296D01*
X24981746Y-96607852D01*
X25635431Y-96673134D01*
X26289293Y-96609634D01*
X26918203Y-96419792D01*
X27497992Y-96110904D01*
X27505589Y-96105828D01*
X27805769Y-95667374D01*
X25640000Y-93501605D01*
X23474231Y-95667374D01*
X22154850Y-95667374D01*
X22545956Y-94607237D01*
X22851096Y-95179992D01*
X22856172Y-95187589D01*
X23294626Y-95487769D01*
X25460395Y-93322000D01*
X25819605Y-93322000D01*
X27985374Y-95487769D01*
X28423828Y-95187589D01*
X28734296Y-94608644D01*
X28925852Y-93980254D01*
X28991134Y-93326569D01*
X28930320Y-92700363D01*
X30405000Y-92700363D01*
X30405000Y-92943637D01*
X30452460Y-93182236D01*
X30545557Y-93406992D01*
X30680713Y-93609267D01*
X30852733Y-93781287D01*
X31055008Y-93916443D01*
X31279764Y-94009540D01*
X31518363Y-94057000D01*
X31761637Y-94057000D01*
X32000236Y-94009540D01*
X32224992Y-93916443D01*
X32354496Y-93829911D01*
X35005000Y-93829911D01*
X35005000Y-94014089D01*
X35040932Y-94194729D01*
X35111414Y-94364889D01*
X35213738Y-94518028D01*
X35343972Y-94648262D01*
X35497111Y-94750586D01*
X35667271Y-94821068D01*
X35847911Y-94857000D01*
X35933427Y-94857000D01*
X35940932Y-94894729D01*
X36011414Y-95064889D01*
X36113738Y-95218028D01*
X36243972Y-95348262D01*
X36397111Y-95450586D01*
X36567271Y-95521068D01*
X36747911Y-95557000D01*
X36932089Y-95557000D01*
X37112729Y-95521068D01*
X37282889Y-95450586D01*
X37436028Y-95348262D01*
X37566262Y-95218028D01*
X37625139Y-95129911D01*
X37705000Y-95129911D01*
X37705000Y-95314089D01*
X37740932Y-95494729D01*
X37811414Y-95664889D01*
X37913738Y-95818028D01*
X38043972Y-95948262D01*
X38197111Y-96050586D01*
X38367271Y-96121068D01*
X38547911Y-96157000D01*
X38732089Y-96157000D01*
X38912729Y-96121068D01*
X39082889Y-96050586D01*
X39236028Y-95948262D01*
X39354379Y-95829911D01*
X40805000Y-95829911D01*
X40805000Y-96014089D01*
X40840932Y-96194729D01*
X40911414Y-96364889D01*
X41013738Y-96518028D01*
X41143972Y-96648262D01*
X41297111Y-96750586D01*
X41467271Y-96821068D01*
X41647911Y-96857000D01*
X41832089Y-96857000D01*
X42012729Y-96821068D01*
X42182889Y-96750586D01*
X42336028Y-96648262D01*
X42466262Y-96518028D01*
X42568586Y-96364889D01*
X42639068Y-96194729D01*
X42675000Y-96014089D01*
X42675000Y-95829911D01*
X42671082Y-95810212D01*
X44965000Y-95810212D01*
X44965000Y-96033788D01*
X45008617Y-96253067D01*
X45094176Y-96459624D01*
X45218388Y-96645520D01*
X45376480Y-96803612D01*
X45562376Y-96927824D01*
X45768933Y-97013383D01*
X45988212Y-97057000D01*
X46211788Y-97057000D01*
X46431067Y-97013383D01*
X46637624Y-96927824D01*
X46823520Y-96803612D01*
X46981612Y-96645520D01*
X47105824Y-96459624D01*
X47191383Y-96253067D01*
X47235000Y-96033788D01*
X47235000Y-95810212D01*
X47206588Y-95667374D01*
X62774231Y-95667374D01*
X63074411Y-96105828D01*
X63653356Y-96416296D01*
X64281746Y-96607852D01*
X64935431Y-96673134D01*
X65589293Y-96609634D01*
X66218203Y-96419792D01*
X66797992Y-96110904D01*
X66805589Y-96105828D01*
X67105769Y-95667374D01*
X64940000Y-93501605D01*
X62774231Y-95667374D01*
X47206588Y-95667374D01*
X47191383Y-95590933D01*
X47105824Y-95384376D01*
X46981612Y-95198480D01*
X46823520Y-95040388D01*
X46637624Y-94916176D01*
X46431067Y-94830617D01*
X46211788Y-94787000D01*
X45988212Y-94787000D01*
X45768933Y-94830617D01*
X45562376Y-94916176D01*
X45376480Y-95040388D01*
X45218388Y-95198480D01*
X45094176Y-95384376D01*
X45008617Y-95590933D01*
X44965000Y-95810212D01*
X42671082Y-95810212D01*
X42639068Y-95649271D01*
X42568586Y-95479111D01*
X42466262Y-95325972D01*
X42336028Y-95195738D01*
X42182889Y-95093414D01*
X42012729Y-95022932D01*
X41832089Y-94987000D01*
X41647911Y-94987000D01*
X41467271Y-95022932D01*
X41297111Y-95093414D01*
X41143972Y-95195738D01*
X41013738Y-95325972D01*
X40911414Y-95479111D01*
X40840932Y-95649271D01*
X40805000Y-95829911D01*
X39354379Y-95829911D01*
X39366262Y-95818028D01*
X39468586Y-95664889D01*
X39539068Y-95494729D01*
X39575000Y-95314089D01*
X39575000Y-95129911D01*
X39539068Y-94949271D01*
X39468586Y-94779111D01*
X39366262Y-94625972D01*
X39236028Y-94495738D01*
X39082889Y-94393414D01*
X38912729Y-94322932D01*
X38732089Y-94287000D01*
X38547911Y-94287000D01*
X38367271Y-94322932D01*
X38197111Y-94393414D01*
X38043972Y-94495738D01*
X37913738Y-94625972D01*
X37811414Y-94779111D01*
X37740932Y-94949271D01*
X37705000Y-95129911D01*
X37625139Y-95129911D01*
X37668586Y-95064889D01*
X37739068Y-94894729D01*
X37775000Y-94714089D01*
X37775000Y-94529911D01*
X37739068Y-94349271D01*
X37668586Y-94179111D01*
X37566262Y-94025972D01*
X37436028Y-93895738D01*
X37282889Y-93793414D01*
X37112729Y-93722932D01*
X36932089Y-93687000D01*
X36846573Y-93687000D01*
X36839068Y-93649271D01*
X36768586Y-93479111D01*
X36701622Y-93378891D01*
X48958519Y-93378891D01*
X49055843Y-93653252D01*
X49204822Y-93903355D01*
X49399731Y-94119588D01*
X49633080Y-94293641D01*
X49895901Y-94418825D01*
X50043110Y-94463476D01*
X50273000Y-94342155D01*
X50273000Y-93149000D01*
X49079186Y-93149000D01*
X48958519Y-93378891D01*
X36701622Y-93378891D01*
X36666262Y-93325972D01*
X36536028Y-93195738D01*
X36382889Y-93093414D01*
X36212729Y-93022932D01*
X36032089Y-92987000D01*
X35847911Y-92987000D01*
X35667271Y-93022932D01*
X35497111Y-93093414D01*
X35343972Y-93195738D01*
X35213738Y-93325972D01*
X35111414Y-93479111D01*
X35040932Y-93649271D01*
X35005000Y-93829911D01*
X32354496Y-93829911D01*
X32427267Y-93781287D01*
X32599287Y-93609267D01*
X32734443Y-93406992D01*
X32827540Y-93182236D01*
X32875000Y-92943637D01*
X32875000Y-92700363D01*
X32867988Y-92665109D01*
X48958519Y-92665109D01*
X49079186Y-92895000D01*
X50273000Y-92895000D01*
X50273000Y-91701845D01*
X50527000Y-91701845D01*
X50527000Y-92895000D01*
X50547000Y-92895000D01*
X50547000Y-93149000D01*
X50527000Y-93149000D01*
X50527000Y-94342155D01*
X50756890Y-94463476D01*
X50904099Y-94418825D01*
X51166920Y-94293641D01*
X51400269Y-94119588D01*
X51476034Y-94035534D01*
X51500498Y-94116180D01*
X51559463Y-94226494D01*
X51638815Y-94323185D01*
X51735506Y-94402537D01*
X51845820Y-94461502D01*
X51965518Y-94497812D01*
X52090000Y-94510072D01*
X53790000Y-94510072D01*
X53914482Y-94497812D01*
X54034180Y-94461502D01*
X54144494Y-94402537D01*
X54241185Y-94323185D01*
X54320537Y-94226494D01*
X54379502Y-94116180D01*
X54415812Y-93996482D01*
X54428072Y-93872000D01*
X54428072Y-93317431D01*
X61588866Y-93317431D01*
X61652366Y-93971293D01*
X61842208Y-94600203D01*
X62151096Y-95179992D01*
X62156172Y-95187589D01*
X62594626Y-95487769D01*
X64760395Y-93322000D01*
X62594626Y-91156231D01*
X62156172Y-91456411D01*
X61845704Y-92035356D01*
X61654148Y-92663746D01*
X61588866Y-93317431D01*
X54428072Y-93317431D01*
X54428072Y-92172000D01*
X54415812Y-92047518D01*
X54379502Y-91927820D01*
X54320537Y-91817506D01*
X54241185Y-91720815D01*
X54144494Y-91641463D01*
X54034180Y-91582498D01*
X53914482Y-91546188D01*
X53790000Y-91533928D01*
X52090000Y-91533928D01*
X51965518Y-91546188D01*
X51845820Y-91582498D01*
X51735506Y-91641463D01*
X51638815Y-91720815D01*
X51559463Y-91817506D01*
X51500498Y-91927820D01*
X51476034Y-92008466D01*
X51400269Y-91924412D01*
X51166920Y-91750359D01*
X50904099Y-91625175D01*
X50756890Y-91580524D01*
X50527000Y-91701845D01*
X50273000Y-91701845D01*
X50043110Y-91580524D01*
X49895901Y-91625175D01*
X49633080Y-91750359D01*
X49399731Y-91924412D01*
X49204822Y-92140645D01*
X49055843Y-92390748D01*
X48958519Y-92665109D01*
X32867988Y-92665109D01*
X32827540Y-92461764D01*
X32734443Y-92237008D01*
X32599287Y-92034733D01*
X32427267Y-91862713D01*
X32224992Y-91727557D01*
X32000236Y-91634460D01*
X31761637Y-91587000D01*
X31518363Y-91587000D01*
X31279764Y-91634460D01*
X31055008Y-91727557D01*
X30852733Y-91862713D01*
X30680713Y-92034733D01*
X30545557Y-92237008D01*
X30452460Y-92461764D01*
X30405000Y-92700363D01*
X28930320Y-92700363D01*
X28927634Y-92672707D01*
X28737792Y-92043797D01*
X28428904Y-91464008D01*
X28423828Y-91456411D01*
X27985374Y-91156231D01*
X25819605Y-93322000D01*
X25460395Y-93322000D01*
X25446253Y-93307858D01*
X25625858Y-93128253D01*
X25640000Y-93142395D01*
X27805769Y-90976626D01*
X27505589Y-90538172D01*
X27266976Y-90410212D01*
X36305000Y-90410212D01*
X36305000Y-90633788D01*
X36348617Y-90853067D01*
X36434176Y-91059624D01*
X36558388Y-91245520D01*
X36716480Y-91403612D01*
X36902376Y-91527824D01*
X37108933Y-91613383D01*
X37328212Y-91657000D01*
X37551788Y-91657000D01*
X37771067Y-91613383D01*
X37977624Y-91527824D01*
X38163520Y-91403612D01*
X38321612Y-91245520D01*
X38445824Y-91059624D01*
X38531383Y-90853067D01*
X38575000Y-90633788D01*
X38575000Y-90500363D01*
X46605000Y-90500363D01*
X46605000Y-90743637D01*
X46652460Y-90982236D01*
X46745557Y-91206992D01*
X46880713Y-91409267D01*
X47052733Y-91581287D01*
X47255008Y-91716443D01*
X47479764Y-91809540D01*
X47718363Y-91857000D01*
X47961637Y-91857000D01*
X48200236Y-91809540D01*
X48424992Y-91716443D01*
X48627267Y-91581287D01*
X48799287Y-91409267D01*
X48934443Y-91206992D01*
X49027540Y-90982236D01*
X49075000Y-90743637D01*
X49075000Y-90500363D01*
X49027540Y-90261764D01*
X48934443Y-90037008D01*
X48799287Y-89834733D01*
X48627267Y-89662713D01*
X48424992Y-89527557D01*
X48200236Y-89434460D01*
X47961637Y-89387000D01*
X47718363Y-89387000D01*
X47479764Y-89434460D01*
X47255008Y-89527557D01*
X47052733Y-89662713D01*
X46880713Y-89834733D01*
X46745557Y-90037008D01*
X46652460Y-90261764D01*
X46605000Y-90500363D01*
X38575000Y-90500363D01*
X38575000Y-90410212D01*
X38531383Y-90190933D01*
X38445824Y-89984376D01*
X38321612Y-89798480D01*
X38163520Y-89640388D01*
X37977624Y-89516176D01*
X37771067Y-89430617D01*
X37551788Y-89387000D01*
X37328212Y-89387000D01*
X37108933Y-89430617D01*
X36902376Y-89516176D01*
X36716480Y-89640388D01*
X36558388Y-89798480D01*
X36434176Y-89984376D01*
X36348617Y-90190933D01*
X36305000Y-90410212D01*
X27266976Y-90410212D01*
X26926644Y-90227704D01*
X26298254Y-90036148D01*
X25644569Y-89970866D01*
X24990707Y-90034366D01*
X24825373Y-90084274D01*
X25587521Y-88943638D01*
X26768370Y-87445738D01*
X28063103Y-86045103D01*
X29005000Y-85174423D01*
X29005000Y-85223939D01*
X29044774Y-85423898D01*
X29122795Y-85612256D01*
X29236063Y-85781774D01*
X29380226Y-85925937D01*
X29549744Y-86039205D01*
X29738102Y-86117226D01*
X29938061Y-86157000D01*
X30141939Y-86157000D01*
X30341898Y-86117226D01*
X30530256Y-86039205D01*
X30699774Y-85925937D01*
X30843937Y-85781774D01*
X30957205Y-85612256D01*
X31035226Y-85423898D01*
X31075000Y-85223939D01*
X31075000Y-85020061D01*
X31035226Y-84820102D01*
X30957205Y-84631744D01*
X30946109Y-84615137D01*
X41955000Y-84615137D01*
X41955000Y-84828863D01*
X41996696Y-85038483D01*
X42078485Y-85235940D01*
X42197225Y-85413647D01*
X42348353Y-85564775D01*
X42526060Y-85683515D01*
X42723517Y-85765304D01*
X42933137Y-85807000D01*
X43146863Y-85807000D01*
X43356483Y-85765304D01*
X43553940Y-85683515D01*
X43731647Y-85564775D01*
X43882775Y-85413647D01*
X44001515Y-85235940D01*
X44083304Y-85038483D01*
X44125000Y-84828863D01*
X44125000Y-84729911D01*
X44205000Y-84729911D01*
X44205000Y-84914089D01*
X44240932Y-85094729D01*
X44311414Y-85264889D01*
X44413738Y-85418028D01*
X44543972Y-85548262D01*
X44697111Y-85650586D01*
X44867271Y-85721068D01*
X45047911Y-85757000D01*
X45232089Y-85757000D01*
X45412729Y-85721068D01*
X45582889Y-85650586D01*
X45736028Y-85548262D01*
X45866262Y-85418028D01*
X45968586Y-85264889D01*
X46039068Y-85094729D01*
X46046573Y-85057000D01*
X46132089Y-85057000D01*
X46312729Y-85021068D01*
X46387104Y-84990261D01*
X46396696Y-85038483D01*
X46478485Y-85235940D01*
X46597225Y-85413647D01*
X46748353Y-85564775D01*
X46926060Y-85683515D01*
X47123517Y-85765304D01*
X47333137Y-85807000D01*
X47546863Y-85807000D01*
X47756483Y-85765304D01*
X47953940Y-85683515D01*
X48131647Y-85564775D01*
X48282775Y-85413647D01*
X48401515Y-85235940D01*
X48483304Y-85038483D01*
X48525000Y-84828863D01*
X48525000Y-84810212D01*
X50305000Y-84810212D01*
X50305000Y-85033788D01*
X50348617Y-85253067D01*
X50434176Y-85459624D01*
X50558388Y-85645520D01*
X50716480Y-85803612D01*
X50902376Y-85927824D01*
X51108933Y-86013383D01*
X51328212Y-86057000D01*
X51551788Y-86057000D01*
X51771067Y-86013383D01*
X51977624Y-85927824D01*
X52163520Y-85803612D01*
X52321612Y-85645520D01*
X52445824Y-85459624D01*
X52531383Y-85253067D01*
X52575000Y-85033788D01*
X52575000Y-84810212D01*
X52531383Y-84590933D01*
X52445824Y-84384376D01*
X52321612Y-84198480D01*
X52163520Y-84040388D01*
X51977624Y-83916176D01*
X51771067Y-83830617D01*
X51551788Y-83787000D01*
X51328212Y-83787000D01*
X51108933Y-83830617D01*
X50902376Y-83916176D01*
X50716480Y-84040388D01*
X50558388Y-84198480D01*
X50434176Y-84384376D01*
X50348617Y-84590933D01*
X50305000Y-84810212D01*
X48525000Y-84810212D01*
X48525000Y-84615137D01*
X48483304Y-84405517D01*
X48401515Y-84208060D01*
X48282775Y-84030353D01*
X48131647Y-83879225D01*
X47953940Y-83760485D01*
X47756483Y-83678696D01*
X47546863Y-83637000D01*
X47333137Y-83637000D01*
X47123517Y-83678696D01*
X46926060Y-83760485D01*
X46907444Y-83772924D01*
X46868586Y-83679111D01*
X46766262Y-83525972D01*
X46636028Y-83395738D01*
X46482889Y-83293414D01*
X46312729Y-83222932D01*
X46132089Y-83187000D01*
X45947911Y-83187000D01*
X45767271Y-83222932D01*
X45597111Y-83293414D01*
X45443972Y-83395738D01*
X45313738Y-83525972D01*
X45211414Y-83679111D01*
X45140932Y-83849271D01*
X45133427Y-83887000D01*
X45047911Y-83887000D01*
X44867271Y-83922932D01*
X44697111Y-83993414D01*
X44543972Y-84095738D01*
X44413738Y-84225972D01*
X44311414Y-84379111D01*
X44240932Y-84549271D01*
X44205000Y-84729911D01*
X44125000Y-84729911D01*
X44125000Y-84615137D01*
X44083304Y-84405517D01*
X44001515Y-84208060D01*
X43882775Y-84030353D01*
X43731647Y-83879225D01*
X43553940Y-83760485D01*
X43356483Y-83678696D01*
X43146863Y-83637000D01*
X42933137Y-83637000D01*
X42723517Y-83678696D01*
X42526060Y-83760485D01*
X42348353Y-83879225D01*
X42197225Y-84030353D01*
X42078485Y-84208060D01*
X41996696Y-84405517D01*
X41955000Y-84615137D01*
X30946109Y-84615137D01*
X30843937Y-84462226D01*
X30699774Y-84318063D01*
X30530256Y-84204795D01*
X30341898Y-84126774D01*
X30272321Y-84112934D01*
X30961638Y-83569521D01*
X32367864Y-82629911D01*
X46905000Y-82629911D01*
X46905000Y-82814089D01*
X46940932Y-82994729D01*
X47011414Y-83164889D01*
X47113738Y-83318028D01*
X47243972Y-83448262D01*
X47397111Y-83550586D01*
X47567271Y-83621068D01*
X47747911Y-83657000D01*
X47932089Y-83657000D01*
X48112729Y-83621068D01*
X48282889Y-83550586D01*
X48436028Y-83448262D01*
X48566262Y-83318028D01*
X48668586Y-83164889D01*
X48739068Y-82994729D01*
X48775000Y-82814089D01*
X48775000Y-82629911D01*
X48739068Y-82449271D01*
X48668586Y-82279111D01*
X48566262Y-82125972D01*
X48436028Y-81995738D01*
X48282889Y-81893414D01*
X48112729Y-81822932D01*
X47932089Y-81787000D01*
X47747911Y-81787000D01*
X47567271Y-81822932D01*
X47397111Y-81893414D01*
X47243972Y-81995738D01*
X47113738Y-82125972D01*
X47011414Y-82279111D01*
X46940932Y-82449271D01*
X46905000Y-82629911D01*
X32367864Y-82629911D01*
X32547569Y-82509836D01*
X34211754Y-81577848D01*
X35943931Y-80779303D01*
X37614383Y-80163040D01*
X37605000Y-80210212D01*
X37605000Y-80433788D01*
X37648617Y-80653067D01*
X37734176Y-80859624D01*
X37858388Y-81045520D01*
X38016480Y-81203612D01*
X38202376Y-81327824D01*
X38408933Y-81413383D01*
X38628212Y-81457000D01*
X38851788Y-81457000D01*
X39071067Y-81413383D01*
X39277624Y-81327824D01*
X39463520Y-81203612D01*
X39621612Y-81045520D01*
X39745824Y-80859624D01*
X39831383Y-80653067D01*
X39875000Y-80433788D01*
X39875000Y-80210212D01*
X39831383Y-79990933D01*
X39745824Y-79784376D01*
X39621612Y-79598480D01*
X39615337Y-79592205D01*
X41439925Y-79229272D01*
X43334087Y-79005084D01*
X45240000Y-78930200D01*
X47145913Y-79005084D01*
G36*
X29700000Y-111264752D02*
G01*
X29593623Y-111127002D01*
X29806377Y-111127002D01*
X29700000Y-111264752D01*
X29700000Y-111264752D01*
G37*
X29700000Y-111264752D02*
X29593623Y-111127002D01*
X29806377Y-111127002D01*
X29700000Y-111264752D01*
G36*
X30655239Y-111206790D02*
G01*
X30593623Y-111127002D01*
X30647380Y-111127002D01*
X30655239Y-111206790D01*
X30655239Y-111206790D01*
G37*
X30655239Y-111206790D02*
X30593623Y-111127002D01*
X30647380Y-111127002D01*
X30655239Y-111206790D01*
G36*
X28744761Y-111206790D02*
G01*
X28752620Y-111127002D01*
X28806377Y-111127002D01*
X28744761Y-111206790D01*
X28744761Y-111206790D01*
G37*
X28744761Y-111206790D02*
X28752620Y-111127002D01*
X28806377Y-111127002D01*
X28744761Y-111206790D01*
M02*
