G04 #@! TF.FileFunction,Legend,Top*
%FSLAX46Y46*%
G04 Gerber Fmt 4.6, Leading zero omitted, Abs format (unit mm)*
G04 Created by KiCad (PCBNEW 4.0.7) date 03/22/19 21:38:21*
%MOMM*%
%LPD*%
G01*
G04 APERTURE LIST*
%ADD10C,0.100000*%
%ADD11C,0.120000*%
%ADD12C,0.127000*%
%ADD13C,0.150000*%
%ADD14C,0.050000*%
%ADD15C,0.031750*%
G04 APERTURE END LIST*
D10*
D11*
X58220000Y-120322000D02*
X58220000Y-121522000D01*
X56460000Y-121522000D02*
X56460000Y-120322000D01*
D12*
X34940000Y-95022000D02*
X34940000Y-100022000D01*
X31440000Y-100022000D02*
X33440000Y-100022000D01*
X29940000Y-100022000D02*
X29940000Y-96252000D01*
X29940000Y-96252000D02*
X31170000Y-95022000D01*
X31170000Y-95022000D02*
X33440000Y-95022000D01*
D11*
X27132000Y-98210000D02*
X28132000Y-98210000D01*
X28132000Y-96510000D02*
X27132000Y-96510000D01*
X27132000Y-106084000D02*
X28132000Y-106084000D01*
X28132000Y-104384000D02*
X27132000Y-104384000D01*
X34420000Y-89422000D02*
X34420000Y-91422000D01*
X36460000Y-91422000D02*
X36460000Y-89422000D01*
X31784000Y-105480000D02*
X31784000Y-104480000D01*
X30084000Y-104480000D02*
X30084000Y-105480000D01*
X34640000Y-82602000D02*
X32640000Y-82602000D01*
X32640000Y-84642000D02*
X34640000Y-84642000D01*
X40390000Y-93422000D02*
X40390000Y-92422000D01*
X38690000Y-92422000D02*
X38690000Y-93422000D01*
X29290000Y-88522000D02*
X29290000Y-87522000D01*
X27590000Y-87522000D02*
X27590000Y-88522000D01*
X54260000Y-87522000D02*
X54260000Y-85522000D01*
X52220000Y-85522000D02*
X52220000Y-87522000D01*
X50590000Y-115122000D02*
X51590000Y-115122000D01*
X51590000Y-113422000D02*
X50590000Y-113422000D01*
X50490000Y-113092000D02*
X52490000Y-113092000D01*
X52490000Y-111052000D02*
X50490000Y-111052000D01*
X52540000Y-117572000D02*
X52540000Y-116572000D01*
X50840000Y-116572000D02*
X50840000Y-117572000D01*
X54440000Y-83942000D02*
X56440000Y-83942000D01*
X56440000Y-81902000D02*
X54440000Y-81902000D01*
X43702000Y-127182000D02*
X44702000Y-127182000D01*
X44702000Y-125482000D02*
X43702000Y-125482000D01*
X61226000Y-94928000D02*
X61226000Y-93928000D01*
X59526000Y-93928000D02*
X59526000Y-94928000D01*
X69100000Y-104326000D02*
X69100000Y-103326000D01*
X67400000Y-103326000D02*
X67400000Y-104326000D01*
X66540000Y-98072000D02*
X67540000Y-98072000D01*
X67540000Y-96372000D02*
X66540000Y-96372000D01*
X56908000Y-107882000D02*
X56908000Y-106882000D01*
X55208000Y-106882000D02*
X55208000Y-107882000D01*
X65798000Y-107628000D02*
X65798000Y-106628000D01*
X64098000Y-106628000D02*
X64098000Y-107628000D01*
D13*
X36940000Y-83472000D02*
X37940000Y-83472000D01*
X37440000Y-84972000D02*
X37440000Y-83472000D01*
X37440000Y-83472000D02*
X37940000Y-83972000D01*
X37940000Y-83972000D02*
X36940000Y-83972000D01*
X36940000Y-83972000D02*
X37440000Y-83472000D01*
D11*
X58640000Y-91192000D02*
X58640000Y-90052000D01*
X58640000Y-90052000D02*
X56540000Y-90052000D01*
X58640000Y-91192000D02*
X56540000Y-91192000D01*
X50610000Y-124222000D02*
X49470000Y-124222000D01*
X49470000Y-124222000D02*
X49470000Y-126322000D01*
X50610000Y-124222000D02*
X50610000Y-126322000D01*
X53410000Y-123722000D02*
X52270000Y-123722000D01*
X52270000Y-123722000D02*
X52270000Y-125822000D01*
X53410000Y-123722000D02*
X53410000Y-125822000D01*
X56310000Y-122822000D02*
X55170000Y-122822000D01*
X55170000Y-122822000D02*
X55170000Y-124922000D01*
X56310000Y-122822000D02*
X56310000Y-124922000D01*
X49090000Y-80272000D02*
X41390000Y-80272000D01*
X49090000Y-79272000D02*
X41390000Y-79272000D01*
X41390000Y-79272000D02*
X41390000Y-88472000D01*
X41390000Y-88472000D02*
X49090000Y-88472000D01*
X49090000Y-88472000D02*
X49090000Y-79272000D01*
X49070000Y-91692000D02*
X49070000Y-94352000D01*
X51670000Y-91692000D02*
X49070000Y-91692000D01*
X51670000Y-94352000D02*
X49070000Y-94352000D01*
X51670000Y-91692000D02*
X51670000Y-94352000D01*
X52940000Y-91692000D02*
X54270000Y-91692000D01*
X54270000Y-91692000D02*
X54270000Y-93022000D01*
X31340000Y-86442000D02*
X32540000Y-86442000D01*
X32540000Y-88202000D02*
X31340000Y-88202000D01*
X35260000Y-97422000D02*
X35260000Y-96222000D01*
X37020000Y-96222000D02*
X37020000Y-97422000D01*
X60540000Y-89742000D02*
X61740000Y-89742000D01*
X61740000Y-91502000D02*
X60540000Y-91502000D01*
X51720000Y-120722000D02*
X51720000Y-121922000D01*
X49960000Y-121922000D02*
X49960000Y-120722000D01*
X54870000Y-120616000D02*
X54870000Y-121816000D01*
X53110000Y-121816000D02*
X53110000Y-120616000D01*
X48160000Y-101622000D02*
X48160000Y-100422000D01*
X49920000Y-100422000D02*
X49920000Y-101622000D01*
X53120000Y-104722000D02*
X53120000Y-105922000D01*
X51360000Y-105922000D02*
X51360000Y-104722000D01*
X56430000Y-86418000D02*
X56430000Y-87618000D01*
X54670000Y-87618000D02*
X54670000Y-86418000D01*
X40738000Y-127212000D02*
X39538000Y-127212000D01*
X39538000Y-125452000D02*
X40738000Y-125452000D01*
X47160000Y-124022000D02*
X47160000Y-122822000D01*
X48920000Y-122822000D02*
X48920000Y-124022000D01*
X43638000Y-95026000D02*
X44838000Y-95026000D01*
X44838000Y-96786000D02*
X43638000Y-96786000D01*
X44838000Y-94754000D02*
X43638000Y-94754000D01*
X43638000Y-92994000D02*
X44838000Y-92994000D01*
X51394000Y-99136000D02*
X52594000Y-99136000D01*
X52594000Y-100896000D02*
X51394000Y-100896000D01*
X55940000Y-95028000D02*
X55940000Y-93828000D01*
X57700000Y-93828000D02*
X57700000Y-95028000D01*
X66634000Y-98882000D02*
X67834000Y-98882000D01*
X67834000Y-100642000D02*
X66634000Y-100642000D01*
X32745000Y-88623000D02*
X30945000Y-88623000D01*
X30945000Y-91843000D02*
X33395000Y-91843000D01*
D13*
X36199000Y-100339000D02*
X36199000Y-100764000D01*
X43449000Y-100339000D02*
X43449000Y-100864000D01*
X43449000Y-107589000D02*
X43449000Y-107064000D01*
X36199000Y-107589000D02*
X36199000Y-107064000D01*
X36199000Y-100339000D02*
X36724000Y-100339000D01*
X36199000Y-107589000D02*
X36724000Y-107589000D01*
X43449000Y-107589000D02*
X42924000Y-107589000D01*
X43449000Y-100339000D02*
X42924000Y-100339000D01*
X36199000Y-100764000D02*
X34824000Y-100764000D01*
D11*
X60494000Y-85458000D02*
X58734000Y-85458000D01*
X58734000Y-88528000D02*
X61164000Y-88528000D01*
X56620000Y-113722000D02*
X57120000Y-113722000D01*
X57120000Y-113722000D02*
X57120000Y-114222000D01*
X57120000Y-118422000D02*
X57120000Y-118922000D01*
X57120000Y-118922000D02*
X56620000Y-118922000D01*
X54320000Y-118922000D02*
X53820000Y-118922000D01*
X53820000Y-118922000D02*
X53820000Y-118422000D01*
X53920000Y-113722000D02*
X54870000Y-113722000D01*
D13*
X36015000Y-123397000D02*
X36290000Y-123397000D01*
X36015000Y-115647000D02*
X36370000Y-115647000D01*
X46665000Y-115647000D02*
X46310000Y-115647000D01*
X46665000Y-123397000D02*
X46310000Y-123397000D01*
X36015000Y-123397000D02*
X36015000Y-115647000D01*
X46665000Y-123397000D02*
X46665000Y-115647000D01*
X36290000Y-123397000D02*
X36290000Y-124922000D01*
X62096000Y-102244000D02*
X56696000Y-102244000D01*
X62096000Y-98244000D02*
X56696000Y-98244000D01*
X56596000Y-98344000D02*
X56596000Y-102144000D01*
X62196000Y-102144000D02*
X62196000Y-98344000D01*
X61698361Y-101334000D02*
G75*
G03X61698361Y-101334000I-22361J0D01*
G01*
D11*
X33800000Y-111432000D02*
X33800000Y-111116493D01*
X33800000Y-109327507D02*
X33800000Y-109012000D01*
X33800000Y-110327507D02*
X33800000Y-110116493D01*
X24925000Y-111432000D02*
X33800000Y-111432000D01*
X23680000Y-109012000D02*
X33800000Y-109012000D01*
X24925000Y-111432000D02*
X24925000Y-111330276D01*
X23680000Y-109327507D02*
X23680000Y-109012000D01*
X24240000Y-111432000D02*
X23555000Y-111432000D01*
X23555000Y-111432000D02*
X23555000Y-110722000D01*
X35570000Y-113512000D02*
X32910000Y-113512000D01*
X35570000Y-118652000D02*
X35570000Y-113512000D01*
X32910000Y-118652000D02*
X32910000Y-113512000D01*
X35570000Y-118652000D02*
X32910000Y-118652000D01*
X35570000Y-119922000D02*
X35570000Y-121252000D01*
X35570000Y-121252000D02*
X34240000Y-121252000D01*
X33690000Y-122622000D02*
X33690000Y-123622000D01*
X35390000Y-123622000D02*
X35390000Y-122622000D01*
X43840000Y-112282000D02*
X45740000Y-112282000D01*
X45240000Y-109962000D02*
X43840000Y-109962000D01*
D13*
X56142381Y-121088666D02*
X55666190Y-121422000D01*
X56142381Y-121660095D02*
X55142381Y-121660095D01*
X55142381Y-121279142D01*
X55190000Y-121183904D01*
X55237619Y-121136285D01*
X55332857Y-121088666D01*
X55475714Y-121088666D01*
X55570952Y-121136285D01*
X55618571Y-121183904D01*
X55666190Y-121279142D01*
X55666190Y-121660095D01*
X55142381Y-120231523D02*
X55142381Y-120422000D01*
X55190000Y-120517238D01*
X55237619Y-120564857D01*
X55380476Y-120660095D01*
X55570952Y-120707714D01*
X55951905Y-120707714D01*
X56047143Y-120660095D01*
X56094762Y-120612476D01*
X56142381Y-120517238D01*
X56142381Y-120326761D01*
X56094762Y-120231523D01*
X56047143Y-120183904D01*
X55951905Y-120136285D01*
X55713810Y-120136285D01*
X55618571Y-120183904D01*
X55570952Y-120231523D01*
X55523333Y-120326761D01*
X55523333Y-120517238D01*
X55570952Y-120612476D01*
X55618571Y-120660095D01*
X55713810Y-120707714D01*
D14*
X28868496Y-98403886D02*
X28916165Y-98260877D01*
X28963835Y-98213208D01*
X29059174Y-98165538D01*
X29202182Y-98165538D01*
X29297521Y-98213208D01*
X29345191Y-98260877D01*
X29392860Y-98356216D01*
X29392860Y-98737572D01*
X28391800Y-98737572D01*
X28391800Y-98403886D01*
X28439470Y-98308547D01*
X28487140Y-98260877D01*
X28582479Y-98213208D01*
X28677818Y-98213208D01*
X28773157Y-98260877D01*
X28820826Y-98308547D01*
X28868496Y-98403886D01*
X28868496Y-98737572D01*
X28391800Y-97831851D02*
X28391800Y-97164478D01*
X29392860Y-97831851D01*
X29392860Y-97164478D01*
X29392860Y-96258758D02*
X29392860Y-96830792D01*
X29392860Y-96544775D02*
X28391800Y-96544775D01*
X28534809Y-96640114D01*
X28630148Y-96735453D01*
X28677818Y-96830792D01*
X30411178Y-93850562D02*
X30554054Y-93898187D01*
X30601679Y-93945813D01*
X30649304Y-94041063D01*
X30649304Y-94183939D01*
X30601679Y-94279189D01*
X30554054Y-94326815D01*
X30458803Y-94374440D01*
X30077801Y-94374440D01*
X30077801Y-93374310D01*
X30411178Y-93374310D01*
X30506428Y-93421935D01*
X30554054Y-93469560D01*
X30601679Y-93564811D01*
X30601679Y-93660061D01*
X30554054Y-93755312D01*
X30506428Y-93802937D01*
X30411178Y-93850562D01*
X30077801Y-93850562D01*
X31506558Y-93707686D02*
X31506558Y-94374440D01*
X31077931Y-93707686D02*
X31077931Y-94231564D01*
X31125556Y-94326815D01*
X31220807Y-94374440D01*
X31363683Y-94374440D01*
X31458933Y-94326815D01*
X31506558Y-94279189D01*
X31887561Y-93707686D02*
X32411438Y-93707686D01*
X31887561Y-94374440D01*
X32411438Y-94374440D01*
X32697190Y-93707686D02*
X33221067Y-93707686D01*
X32697190Y-94374440D01*
X33221067Y-94374440D01*
X33983071Y-94326815D02*
X33887821Y-94374440D01*
X33697320Y-94374440D01*
X33602069Y-94326815D01*
X33554444Y-94231564D01*
X33554444Y-93850562D01*
X33602069Y-93755312D01*
X33697320Y-93707686D01*
X33887821Y-93707686D01*
X33983071Y-93755312D01*
X34030696Y-93850562D01*
X34030696Y-93945813D01*
X33554444Y-94041063D01*
X34459323Y-94374440D02*
X34459323Y-93707686D01*
X34459323Y-93898187D02*
X34506948Y-93802937D01*
X34554574Y-93755312D01*
X34649824Y-93707686D01*
X34745075Y-93707686D01*
X32911429Y-99602952D02*
X32911429Y-98841047D01*
X33292381Y-99221999D02*
X32530476Y-99221999D01*
X33011429Y-96102952D02*
X33011429Y-95341047D01*
D13*
X28473334Y-96179143D02*
X28425715Y-96226762D01*
X28282858Y-96274381D01*
X28187620Y-96274381D01*
X28044762Y-96226762D01*
X27949524Y-96131524D01*
X27901905Y-96036286D01*
X27854286Y-95845810D01*
X27854286Y-95702952D01*
X27901905Y-95512476D01*
X27949524Y-95417238D01*
X28044762Y-95322000D01*
X28187620Y-95274381D01*
X28282858Y-95274381D01*
X28425715Y-95322000D01*
X28473334Y-95369619D01*
X29425715Y-96274381D02*
X28854286Y-96274381D01*
X29140000Y-96274381D02*
X29140000Y-95274381D01*
X29044762Y-95417238D01*
X28949524Y-95512476D01*
X28854286Y-95560095D01*
X27465334Y-107091143D02*
X27417715Y-107138762D01*
X27274858Y-107186381D01*
X27179620Y-107186381D01*
X27036762Y-107138762D01*
X26941524Y-107043524D01*
X26893905Y-106948286D01*
X26846286Y-106757810D01*
X26846286Y-106614952D01*
X26893905Y-106424476D01*
X26941524Y-106329238D01*
X27036762Y-106234000D01*
X27179620Y-106186381D01*
X27274858Y-106186381D01*
X27417715Y-106234000D01*
X27465334Y-106281619D01*
X27846286Y-106281619D02*
X27893905Y-106234000D01*
X27989143Y-106186381D01*
X28227239Y-106186381D01*
X28322477Y-106234000D01*
X28370096Y-106281619D01*
X28417715Y-106376857D01*
X28417715Y-106472095D01*
X28370096Y-106614952D01*
X27798667Y-107186381D01*
X28417715Y-107186381D01*
X34047143Y-90588666D02*
X34094762Y-90636285D01*
X34142381Y-90779142D01*
X34142381Y-90874380D01*
X34094762Y-91017238D01*
X33999524Y-91112476D01*
X33904286Y-91160095D01*
X33713810Y-91207714D01*
X33570952Y-91207714D01*
X33380476Y-91160095D01*
X33285238Y-91112476D01*
X33190000Y-91017238D01*
X33142381Y-90874380D01*
X33142381Y-90779142D01*
X33190000Y-90636285D01*
X33237619Y-90588666D01*
X33142381Y-90255333D02*
X33142381Y-89636285D01*
X33523333Y-89969619D01*
X33523333Y-89826761D01*
X33570952Y-89731523D01*
X33618571Y-89683904D01*
X33713810Y-89636285D01*
X33951905Y-89636285D01*
X34047143Y-89683904D01*
X34094762Y-89731523D01*
X34142381Y-89826761D01*
X34142381Y-90112476D01*
X34094762Y-90207714D01*
X34047143Y-90255333D01*
X32791143Y-105146666D02*
X32838762Y-105194285D01*
X32886381Y-105337142D01*
X32886381Y-105432380D01*
X32838762Y-105575238D01*
X32743524Y-105670476D01*
X32648286Y-105718095D01*
X32457810Y-105765714D01*
X32314952Y-105765714D01*
X32124476Y-105718095D01*
X32029238Y-105670476D01*
X31934000Y-105575238D01*
X31886381Y-105432380D01*
X31886381Y-105337142D01*
X31934000Y-105194285D01*
X31981619Y-105146666D01*
X32219714Y-104289523D02*
X32886381Y-104289523D01*
X31838762Y-104527619D02*
X32553048Y-104765714D01*
X32553048Y-104146666D01*
X33673334Y-85879143D02*
X33625715Y-85926762D01*
X33482858Y-85974381D01*
X33387620Y-85974381D01*
X33244762Y-85926762D01*
X33149524Y-85831524D01*
X33101905Y-85736286D01*
X33054286Y-85545810D01*
X33054286Y-85402952D01*
X33101905Y-85212476D01*
X33149524Y-85117238D01*
X33244762Y-85022000D01*
X33387620Y-84974381D01*
X33482858Y-84974381D01*
X33625715Y-85022000D01*
X33673334Y-85069619D01*
X34578096Y-84974381D02*
X34101905Y-84974381D01*
X34054286Y-85450571D01*
X34101905Y-85402952D01*
X34197143Y-85355333D01*
X34435239Y-85355333D01*
X34530477Y-85402952D01*
X34578096Y-85450571D01*
X34625715Y-85545810D01*
X34625715Y-85783905D01*
X34578096Y-85879143D01*
X34530477Y-85926762D01*
X34435239Y-85974381D01*
X34197143Y-85974381D01*
X34101905Y-85926762D01*
X34054286Y-85879143D01*
X41397143Y-93088666D02*
X41444762Y-93136285D01*
X41492381Y-93279142D01*
X41492381Y-93374380D01*
X41444762Y-93517238D01*
X41349524Y-93612476D01*
X41254286Y-93660095D01*
X41063810Y-93707714D01*
X40920952Y-93707714D01*
X40730476Y-93660095D01*
X40635238Y-93612476D01*
X40540000Y-93517238D01*
X40492381Y-93374380D01*
X40492381Y-93279142D01*
X40540000Y-93136285D01*
X40587619Y-93088666D01*
X40492381Y-92755333D02*
X40492381Y-92088666D01*
X41492381Y-92517238D01*
X27097143Y-88488666D02*
X27144762Y-88536285D01*
X27192381Y-88679142D01*
X27192381Y-88774380D01*
X27144762Y-88917238D01*
X27049524Y-89012476D01*
X26954286Y-89060095D01*
X26763810Y-89107714D01*
X26620952Y-89107714D01*
X26430476Y-89060095D01*
X26335238Y-89012476D01*
X26240000Y-88917238D01*
X26192381Y-88774380D01*
X26192381Y-88679142D01*
X26240000Y-88536285D01*
X26287619Y-88488666D01*
X26620952Y-87917238D02*
X26573333Y-88012476D01*
X26525714Y-88060095D01*
X26430476Y-88107714D01*
X26382857Y-88107714D01*
X26287619Y-88060095D01*
X26240000Y-88012476D01*
X26192381Y-87917238D01*
X26192381Y-87726761D01*
X26240000Y-87631523D01*
X26287619Y-87583904D01*
X26382857Y-87536285D01*
X26430476Y-87536285D01*
X26525714Y-87583904D01*
X26573333Y-87631523D01*
X26620952Y-87726761D01*
X26620952Y-87917238D01*
X26668571Y-88012476D01*
X26716190Y-88060095D01*
X26811429Y-88107714D01*
X27001905Y-88107714D01*
X27097143Y-88060095D01*
X27144762Y-88012476D01*
X27192381Y-87917238D01*
X27192381Y-87726761D01*
X27144762Y-87631523D01*
X27097143Y-87583904D01*
X27001905Y-87536285D01*
X26811429Y-87536285D01*
X26716190Y-87583904D01*
X26668571Y-87631523D01*
X26620952Y-87726761D01*
X53597143Y-89888666D02*
X53644762Y-89936285D01*
X53692381Y-90079142D01*
X53692381Y-90174380D01*
X53644762Y-90317238D01*
X53549524Y-90412476D01*
X53454286Y-90460095D01*
X53263810Y-90507714D01*
X53120952Y-90507714D01*
X52930476Y-90460095D01*
X52835238Y-90412476D01*
X52740000Y-90317238D01*
X52692381Y-90174380D01*
X52692381Y-90079142D01*
X52740000Y-89936285D01*
X52787619Y-89888666D01*
X53692381Y-89412476D02*
X53692381Y-89222000D01*
X53644762Y-89126761D01*
X53597143Y-89079142D01*
X53454286Y-88983904D01*
X53263810Y-88936285D01*
X52882857Y-88936285D01*
X52787619Y-88983904D01*
X52740000Y-89031523D01*
X52692381Y-89126761D01*
X52692381Y-89317238D01*
X52740000Y-89412476D01*
X52787619Y-89460095D01*
X52882857Y-89507714D01*
X53120952Y-89507714D01*
X53216190Y-89460095D01*
X53263810Y-89412476D01*
X53311429Y-89317238D01*
X53311429Y-89126761D01*
X53263810Y-89031523D01*
X53216190Y-88983904D01*
X53120952Y-88936285D01*
X47193143Y-114667143D02*
X47145524Y-114714762D01*
X47002667Y-114762381D01*
X46907429Y-114762381D01*
X46764571Y-114714762D01*
X46669333Y-114619524D01*
X46621714Y-114524286D01*
X46574095Y-114333810D01*
X46574095Y-114190952D01*
X46621714Y-114000476D01*
X46669333Y-113905238D01*
X46764571Y-113810000D01*
X46907429Y-113762381D01*
X47002667Y-113762381D01*
X47145524Y-113810000D01*
X47193143Y-113857619D01*
X48145524Y-114762381D02*
X47574095Y-114762381D01*
X47859809Y-114762381D02*
X47859809Y-113762381D01*
X47764571Y-113905238D01*
X47669333Y-114000476D01*
X47574095Y-114048095D01*
X48764571Y-113762381D02*
X48859810Y-113762381D01*
X48955048Y-113810000D01*
X49002667Y-113857619D01*
X49050286Y-113952857D01*
X49097905Y-114143333D01*
X49097905Y-114381429D01*
X49050286Y-114571905D01*
X49002667Y-114667143D01*
X48955048Y-114714762D01*
X48859810Y-114762381D01*
X48764571Y-114762381D01*
X48669333Y-114714762D01*
X48621714Y-114667143D01*
X48574095Y-114571905D01*
X48526476Y-114381429D01*
X48526476Y-114143333D01*
X48574095Y-113952857D01*
X48621714Y-113857619D01*
X48669333Y-113810000D01*
X48764571Y-113762381D01*
X47247143Y-112429143D02*
X47199524Y-112476762D01*
X47056667Y-112524381D01*
X46961429Y-112524381D01*
X46818571Y-112476762D01*
X46723333Y-112381524D01*
X46675714Y-112286286D01*
X46628095Y-112095810D01*
X46628095Y-111952952D01*
X46675714Y-111762476D01*
X46723333Y-111667238D01*
X46818571Y-111572000D01*
X46961429Y-111524381D01*
X47056667Y-111524381D01*
X47199524Y-111572000D01*
X47247143Y-111619619D01*
X48199524Y-112524381D02*
X47628095Y-112524381D01*
X47913809Y-112524381D02*
X47913809Y-111524381D01*
X47818571Y-111667238D01*
X47723333Y-111762476D01*
X47628095Y-111810095D01*
X49151905Y-112524381D02*
X48580476Y-112524381D01*
X48866190Y-112524381D02*
X48866190Y-111524381D01*
X48770952Y-111667238D01*
X48675714Y-111762476D01*
X48580476Y-111810095D01*
X50347143Y-117914857D02*
X50394762Y-117962476D01*
X50442381Y-118105333D01*
X50442381Y-118200571D01*
X50394762Y-118343429D01*
X50299524Y-118438667D01*
X50204286Y-118486286D01*
X50013810Y-118533905D01*
X49870952Y-118533905D01*
X49680476Y-118486286D01*
X49585238Y-118438667D01*
X49490000Y-118343429D01*
X49442381Y-118200571D01*
X49442381Y-118105333D01*
X49490000Y-117962476D01*
X49537619Y-117914857D01*
X50442381Y-116962476D02*
X50442381Y-117533905D01*
X50442381Y-117248191D02*
X49442381Y-117248191D01*
X49585238Y-117343429D01*
X49680476Y-117438667D01*
X49728095Y-117533905D01*
X49537619Y-116581524D02*
X49490000Y-116533905D01*
X49442381Y-116438667D01*
X49442381Y-116200571D01*
X49490000Y-116105333D01*
X49537619Y-116057714D01*
X49632857Y-116010095D01*
X49728095Y-116010095D01*
X49870952Y-116057714D01*
X50442381Y-116629143D01*
X50442381Y-116010095D01*
X52397143Y-81379143D02*
X52349524Y-81426762D01*
X52206667Y-81474381D01*
X52111429Y-81474381D01*
X51968571Y-81426762D01*
X51873333Y-81331524D01*
X51825714Y-81236286D01*
X51778095Y-81045810D01*
X51778095Y-80902952D01*
X51825714Y-80712476D01*
X51873333Y-80617238D01*
X51968571Y-80522000D01*
X52111429Y-80474381D01*
X52206667Y-80474381D01*
X52349524Y-80522000D01*
X52397143Y-80569619D01*
X53349524Y-81474381D02*
X52778095Y-81474381D01*
X53063809Y-81474381D02*
X53063809Y-80474381D01*
X52968571Y-80617238D01*
X52873333Y-80712476D01*
X52778095Y-80760095D01*
X53682857Y-80474381D02*
X54301905Y-80474381D01*
X53968571Y-80855333D01*
X54111429Y-80855333D01*
X54206667Y-80902952D01*
X54254286Y-80950571D01*
X54301905Y-81045810D01*
X54301905Y-81283905D01*
X54254286Y-81379143D01*
X54206667Y-81426762D01*
X54111429Y-81474381D01*
X53825714Y-81474381D01*
X53730476Y-81426762D01*
X53682857Y-81379143D01*
X46597143Y-127579143D02*
X46549524Y-127626762D01*
X46406667Y-127674381D01*
X46311429Y-127674381D01*
X46168571Y-127626762D01*
X46073333Y-127531524D01*
X46025714Y-127436286D01*
X45978095Y-127245810D01*
X45978095Y-127102952D01*
X46025714Y-126912476D01*
X46073333Y-126817238D01*
X46168571Y-126722000D01*
X46311429Y-126674381D01*
X46406667Y-126674381D01*
X46549524Y-126722000D01*
X46597143Y-126769619D01*
X47549524Y-127674381D02*
X46978095Y-127674381D01*
X47263809Y-127674381D02*
X47263809Y-126674381D01*
X47168571Y-126817238D01*
X47073333Y-126912476D01*
X46978095Y-126960095D01*
X48406667Y-127007714D02*
X48406667Y-127674381D01*
X48168571Y-126626762D02*
X47930476Y-127341048D01*
X48549524Y-127341048D01*
X62233143Y-95070857D02*
X62280762Y-95118476D01*
X62328381Y-95261333D01*
X62328381Y-95356571D01*
X62280762Y-95499429D01*
X62185524Y-95594667D01*
X62090286Y-95642286D01*
X61899810Y-95689905D01*
X61756952Y-95689905D01*
X61566476Y-95642286D01*
X61471238Y-95594667D01*
X61376000Y-95499429D01*
X61328381Y-95356571D01*
X61328381Y-95261333D01*
X61376000Y-95118476D01*
X61423619Y-95070857D01*
X62328381Y-94118476D02*
X62328381Y-94689905D01*
X62328381Y-94404191D02*
X61328381Y-94404191D01*
X61471238Y-94499429D01*
X61566476Y-94594667D01*
X61614095Y-94689905D01*
X61328381Y-93213714D02*
X61328381Y-93689905D01*
X61804571Y-93737524D01*
X61756952Y-93689905D01*
X61709333Y-93594667D01*
X61709333Y-93356571D01*
X61756952Y-93261333D01*
X61804571Y-93213714D01*
X61899810Y-93166095D01*
X62137905Y-93166095D01*
X62233143Y-93213714D01*
X62280762Y-93261333D01*
X62328381Y-93356571D01*
X62328381Y-93594667D01*
X62280762Y-93689905D01*
X62233143Y-93737524D01*
X70107143Y-104468857D02*
X70154762Y-104516476D01*
X70202381Y-104659333D01*
X70202381Y-104754571D01*
X70154762Y-104897429D01*
X70059524Y-104992667D01*
X69964286Y-105040286D01*
X69773810Y-105087905D01*
X69630952Y-105087905D01*
X69440476Y-105040286D01*
X69345238Y-104992667D01*
X69250000Y-104897429D01*
X69202381Y-104754571D01*
X69202381Y-104659333D01*
X69250000Y-104516476D01*
X69297619Y-104468857D01*
X70202381Y-103516476D02*
X70202381Y-104087905D01*
X70202381Y-103802191D02*
X69202381Y-103802191D01*
X69345238Y-103897429D01*
X69440476Y-103992667D01*
X69488095Y-104087905D01*
X69202381Y-102659333D02*
X69202381Y-102849810D01*
X69250000Y-102945048D01*
X69297619Y-102992667D01*
X69440476Y-103087905D01*
X69630952Y-103135524D01*
X70011905Y-103135524D01*
X70107143Y-103087905D01*
X70154762Y-103040286D01*
X70202381Y-102945048D01*
X70202381Y-102754571D01*
X70154762Y-102659333D01*
X70107143Y-102611714D01*
X70011905Y-102564095D01*
X69773810Y-102564095D01*
X69678571Y-102611714D01*
X69630952Y-102659333D01*
X69583333Y-102754571D01*
X69583333Y-102945048D01*
X69630952Y-103040286D01*
X69678571Y-103087905D01*
X69773810Y-103135524D01*
X66397143Y-99079143D02*
X66349524Y-99126762D01*
X66206667Y-99174381D01*
X66111429Y-99174381D01*
X65968571Y-99126762D01*
X65873333Y-99031524D01*
X65825714Y-98936286D01*
X65778095Y-98745810D01*
X65778095Y-98602952D01*
X65825714Y-98412476D01*
X65873333Y-98317238D01*
X65968571Y-98222000D01*
X66111429Y-98174381D01*
X66206667Y-98174381D01*
X66349524Y-98222000D01*
X66397143Y-98269619D01*
X67349524Y-99174381D02*
X66778095Y-99174381D01*
X67063809Y-99174381D02*
X67063809Y-98174381D01*
X66968571Y-98317238D01*
X66873333Y-98412476D01*
X66778095Y-98460095D01*
X67682857Y-98174381D02*
X68349524Y-98174381D01*
X67920952Y-99174381D01*
X54637143Y-108024857D02*
X54684762Y-108072476D01*
X54732381Y-108215333D01*
X54732381Y-108310571D01*
X54684762Y-108453429D01*
X54589524Y-108548667D01*
X54494286Y-108596286D01*
X54303810Y-108643905D01*
X54160952Y-108643905D01*
X53970476Y-108596286D01*
X53875238Y-108548667D01*
X53780000Y-108453429D01*
X53732381Y-108310571D01*
X53732381Y-108215333D01*
X53780000Y-108072476D01*
X53827619Y-108024857D01*
X54732381Y-107072476D02*
X54732381Y-107643905D01*
X54732381Y-107358191D02*
X53732381Y-107358191D01*
X53875238Y-107453429D01*
X53970476Y-107548667D01*
X54018095Y-107643905D01*
X54160952Y-106501048D02*
X54113333Y-106596286D01*
X54065714Y-106643905D01*
X53970476Y-106691524D01*
X53922857Y-106691524D01*
X53827619Y-106643905D01*
X53780000Y-106596286D01*
X53732381Y-106501048D01*
X53732381Y-106310571D01*
X53780000Y-106215333D01*
X53827619Y-106167714D01*
X53922857Y-106120095D01*
X53970476Y-106120095D01*
X54065714Y-106167714D01*
X54113333Y-106215333D01*
X54160952Y-106310571D01*
X54160952Y-106501048D01*
X54208571Y-106596286D01*
X54256190Y-106643905D01*
X54351429Y-106691524D01*
X54541905Y-106691524D01*
X54637143Y-106643905D01*
X54684762Y-106596286D01*
X54732381Y-106501048D01*
X54732381Y-106310571D01*
X54684762Y-106215333D01*
X54637143Y-106167714D01*
X54541905Y-106120095D01*
X54351429Y-106120095D01*
X54256190Y-106167714D01*
X54208571Y-106215333D01*
X54160952Y-106310571D01*
X66805143Y-107770857D02*
X66852762Y-107818476D01*
X66900381Y-107961333D01*
X66900381Y-108056571D01*
X66852762Y-108199429D01*
X66757524Y-108294667D01*
X66662286Y-108342286D01*
X66471810Y-108389905D01*
X66328952Y-108389905D01*
X66138476Y-108342286D01*
X66043238Y-108294667D01*
X65948000Y-108199429D01*
X65900381Y-108056571D01*
X65900381Y-107961333D01*
X65948000Y-107818476D01*
X65995619Y-107770857D01*
X66900381Y-106818476D02*
X66900381Y-107389905D01*
X66900381Y-107104191D02*
X65900381Y-107104191D01*
X66043238Y-107199429D01*
X66138476Y-107294667D01*
X66186095Y-107389905D01*
X66900381Y-106342286D02*
X66900381Y-106151810D01*
X66852762Y-106056571D01*
X66805143Y-106008952D01*
X66662286Y-105913714D01*
X66471810Y-105866095D01*
X66090857Y-105866095D01*
X65995619Y-105913714D01*
X65948000Y-105961333D01*
X65900381Y-106056571D01*
X65900381Y-106247048D01*
X65948000Y-106342286D01*
X65995619Y-106389905D01*
X66090857Y-106437524D01*
X66328952Y-106437524D01*
X66424190Y-106389905D01*
X66471810Y-106342286D01*
X66519429Y-106247048D01*
X66519429Y-106056571D01*
X66471810Y-105961333D01*
X66424190Y-105913714D01*
X66328952Y-105866095D01*
X37992381Y-89160095D02*
X36992381Y-89160095D01*
X36992381Y-88922000D01*
X37040000Y-88779142D01*
X37135238Y-88683904D01*
X37230476Y-88636285D01*
X37420952Y-88588666D01*
X37563810Y-88588666D01*
X37754286Y-88636285D01*
X37849524Y-88683904D01*
X37944762Y-88779142D01*
X37992381Y-88922000D01*
X37992381Y-89160095D01*
X37992381Y-87636285D02*
X37992381Y-88207714D01*
X37992381Y-87922000D02*
X36992381Y-87922000D01*
X37135238Y-88017238D01*
X37230476Y-88112476D01*
X37278095Y-88207714D01*
X56601905Y-92474381D02*
X56601905Y-91474381D01*
X56840000Y-91474381D01*
X56982858Y-91522000D01*
X57078096Y-91617238D01*
X57125715Y-91712476D01*
X57173334Y-91902952D01*
X57173334Y-92045810D01*
X57125715Y-92236286D01*
X57078096Y-92331524D01*
X56982858Y-92426762D01*
X56840000Y-92474381D01*
X56601905Y-92474381D01*
X57554286Y-91569619D02*
X57601905Y-91522000D01*
X57697143Y-91474381D01*
X57935239Y-91474381D01*
X58030477Y-91522000D01*
X58078096Y-91569619D01*
X58125715Y-91664857D01*
X58125715Y-91760095D01*
X58078096Y-91902952D01*
X57506667Y-92474381D01*
X58125715Y-92474381D01*
X51892381Y-126260095D02*
X50892381Y-126260095D01*
X50892381Y-126022000D01*
X50940000Y-125879142D01*
X51035238Y-125783904D01*
X51130476Y-125736285D01*
X51320952Y-125688666D01*
X51463810Y-125688666D01*
X51654286Y-125736285D01*
X51749524Y-125783904D01*
X51844762Y-125879142D01*
X51892381Y-126022000D01*
X51892381Y-126260095D01*
X50892381Y-125355333D02*
X50892381Y-124736285D01*
X51273333Y-125069619D01*
X51273333Y-124926761D01*
X51320952Y-124831523D01*
X51368571Y-124783904D01*
X51463810Y-124736285D01*
X51701905Y-124736285D01*
X51797143Y-124783904D01*
X51844762Y-124831523D01*
X51892381Y-124926761D01*
X51892381Y-125212476D01*
X51844762Y-125307714D01*
X51797143Y-125355333D01*
X54692381Y-125760095D02*
X53692381Y-125760095D01*
X53692381Y-125522000D01*
X53740000Y-125379142D01*
X53835238Y-125283904D01*
X53930476Y-125236285D01*
X54120952Y-125188666D01*
X54263810Y-125188666D01*
X54454286Y-125236285D01*
X54549524Y-125283904D01*
X54644762Y-125379142D01*
X54692381Y-125522000D01*
X54692381Y-125760095D01*
X54025714Y-124331523D02*
X54692381Y-124331523D01*
X53644762Y-124569619D02*
X54359048Y-124807714D01*
X54359048Y-124188666D01*
X57592381Y-124860095D02*
X56592381Y-124860095D01*
X56592381Y-124622000D01*
X56640000Y-124479142D01*
X56735238Y-124383904D01*
X56830476Y-124336285D01*
X57020952Y-124288666D01*
X57163810Y-124288666D01*
X57354286Y-124336285D01*
X57449524Y-124383904D01*
X57544762Y-124479142D01*
X57592381Y-124622000D01*
X57592381Y-124860095D01*
X56592381Y-123383904D02*
X56592381Y-123860095D01*
X57068571Y-123907714D01*
X57020952Y-123860095D01*
X56973333Y-123764857D01*
X56973333Y-123526761D01*
X57020952Y-123431523D01*
X57068571Y-123383904D01*
X57163810Y-123336285D01*
X57401905Y-123336285D01*
X57497143Y-123383904D01*
X57544762Y-123431523D01*
X57592381Y-123526761D01*
X57592381Y-123764857D01*
X57544762Y-123860095D01*
X57497143Y-123907714D01*
X49906667Y-83974381D02*
X49906667Y-84688667D01*
X49859047Y-84831524D01*
X49763809Y-84926762D01*
X49620952Y-84974381D01*
X49525714Y-84974381D01*
X50906667Y-84974381D02*
X50335238Y-84974381D01*
X50620952Y-84974381D02*
X50620952Y-83974381D01*
X50525714Y-84117238D01*
X50430476Y-84212476D01*
X50335238Y-84260095D01*
X62816191Y-90174381D02*
X62816191Y-89174381D01*
X63149525Y-89888667D01*
X63482858Y-89174381D01*
X63482858Y-90174381D01*
X63911429Y-89269619D02*
X63959048Y-89222000D01*
X64054286Y-89174381D01*
X64292382Y-89174381D01*
X64387620Y-89222000D01*
X64435239Y-89269619D01*
X64482858Y-89364857D01*
X64482858Y-89460095D01*
X64435239Y-89602952D01*
X63863810Y-90174381D01*
X64482858Y-90174381D01*
X64911429Y-90079143D02*
X64959048Y-90126762D01*
X64911429Y-90174381D01*
X64863810Y-90126762D01*
X64911429Y-90079143D01*
X64911429Y-90174381D01*
X65863810Y-89174381D02*
X65387619Y-89174381D01*
X65340000Y-89650571D01*
X65387619Y-89602952D01*
X65482857Y-89555333D01*
X65720953Y-89555333D01*
X65816191Y-89602952D01*
X65863810Y-89650571D01*
X65911429Y-89745810D01*
X65911429Y-89983905D01*
X65863810Y-90079143D01*
X65816191Y-90126762D01*
X65720953Y-90174381D01*
X65482857Y-90174381D01*
X65387619Y-90126762D01*
X65340000Y-90079143D01*
X63516191Y-114974381D02*
X63516191Y-113974381D01*
X63849525Y-114688667D01*
X64182858Y-113974381D01*
X64182858Y-114974381D01*
X64611429Y-114069619D02*
X64659048Y-114022000D01*
X64754286Y-113974381D01*
X64992382Y-113974381D01*
X65087620Y-114022000D01*
X65135239Y-114069619D01*
X65182858Y-114164857D01*
X65182858Y-114260095D01*
X65135239Y-114402952D01*
X64563810Y-114974381D01*
X65182858Y-114974381D01*
X65611429Y-114879143D02*
X65659048Y-114926762D01*
X65611429Y-114974381D01*
X65563810Y-114926762D01*
X65611429Y-114879143D01*
X65611429Y-114974381D01*
X66563810Y-113974381D02*
X66087619Y-113974381D01*
X66040000Y-114450571D01*
X66087619Y-114402952D01*
X66182857Y-114355333D01*
X66420953Y-114355333D01*
X66516191Y-114402952D01*
X66563810Y-114450571D01*
X66611429Y-114545810D01*
X66611429Y-114783905D01*
X66563810Y-114879143D01*
X66516191Y-114926762D01*
X66420953Y-114974381D01*
X66182857Y-114974381D01*
X66087619Y-114926762D01*
X66040000Y-114879143D01*
X21716191Y-97274381D02*
X21716191Y-96274381D01*
X22049525Y-96988667D01*
X22382858Y-96274381D01*
X22382858Y-97274381D01*
X22811429Y-96369619D02*
X22859048Y-96322000D01*
X22954286Y-96274381D01*
X23192382Y-96274381D01*
X23287620Y-96322000D01*
X23335239Y-96369619D01*
X23382858Y-96464857D01*
X23382858Y-96560095D01*
X23335239Y-96702952D01*
X22763810Y-97274381D01*
X23382858Y-97274381D01*
X23811429Y-97179143D02*
X23859048Y-97226762D01*
X23811429Y-97274381D01*
X23763810Y-97226762D01*
X23811429Y-97179143D01*
X23811429Y-97274381D01*
X24763810Y-96274381D02*
X24287619Y-96274381D01*
X24240000Y-96750571D01*
X24287619Y-96702952D01*
X24382857Y-96655333D01*
X24620953Y-96655333D01*
X24716191Y-96702952D01*
X24763810Y-96750571D01*
X24811429Y-96845810D01*
X24811429Y-97083905D01*
X24763810Y-97179143D01*
X24716191Y-97226762D01*
X24620953Y-97274381D01*
X24382857Y-97274381D01*
X24287619Y-97226762D01*
X24240000Y-97179143D01*
X29916191Y-121674381D02*
X29916191Y-120674381D01*
X30249525Y-121388667D01*
X30582858Y-120674381D01*
X30582858Y-121674381D01*
X31011429Y-120769619D02*
X31059048Y-120722000D01*
X31154286Y-120674381D01*
X31392382Y-120674381D01*
X31487620Y-120722000D01*
X31535239Y-120769619D01*
X31582858Y-120864857D01*
X31582858Y-120960095D01*
X31535239Y-121102952D01*
X30963810Y-121674381D01*
X31582858Y-121674381D01*
X32011429Y-121579143D02*
X32059048Y-121626762D01*
X32011429Y-121674381D01*
X31963810Y-121626762D01*
X32011429Y-121579143D01*
X32011429Y-121674381D01*
X32963810Y-120674381D02*
X32487619Y-120674381D01*
X32440000Y-121150571D01*
X32487619Y-121102952D01*
X32582857Y-121055333D01*
X32820953Y-121055333D01*
X32916191Y-121102952D01*
X32963810Y-121150571D01*
X33011429Y-121245810D01*
X33011429Y-121483905D01*
X32963810Y-121579143D01*
X32916191Y-121626762D01*
X32820953Y-121674381D01*
X32582857Y-121674381D01*
X32487619Y-121626762D01*
X32440000Y-121579143D01*
X51730477Y-94474381D02*
X51730477Y-95188667D01*
X51682857Y-95331524D01*
X51587619Y-95426762D01*
X51444762Y-95474381D01*
X51349524Y-95474381D01*
X52730477Y-95474381D02*
X52159048Y-95474381D01*
X52444762Y-95474381D02*
X52444762Y-94474381D01*
X52349524Y-94617238D01*
X52254286Y-94712476D01*
X52159048Y-94760095D01*
X53587620Y-94807714D02*
X53587620Y-95474381D01*
X53349524Y-94426762D02*
X53111429Y-95141048D01*
X53730477Y-95141048D01*
X34273334Y-87674381D02*
X33940000Y-87198190D01*
X33701905Y-87674381D02*
X33701905Y-86674381D01*
X34082858Y-86674381D01*
X34178096Y-86722000D01*
X34225715Y-86769619D01*
X34273334Y-86864857D01*
X34273334Y-87007714D01*
X34225715Y-87102952D01*
X34178096Y-87150571D01*
X34082858Y-87198190D01*
X33701905Y-87198190D01*
X35225715Y-87674381D02*
X34654286Y-87674381D01*
X34940000Y-87674381D02*
X34940000Y-86674381D01*
X34844762Y-86817238D01*
X34749524Y-86912476D01*
X34654286Y-86960095D01*
X34814381Y-96988666D02*
X34338190Y-97322000D01*
X34814381Y-97560095D02*
X33814381Y-97560095D01*
X33814381Y-97179142D01*
X33862000Y-97083904D01*
X33909619Y-97036285D01*
X34004857Y-96988666D01*
X34147714Y-96988666D01*
X34242952Y-97036285D01*
X34290571Y-97083904D01*
X34338190Y-97179142D01*
X34338190Y-97560095D01*
X33909619Y-96607714D02*
X33862000Y-96560095D01*
X33814381Y-96464857D01*
X33814381Y-96226761D01*
X33862000Y-96131523D01*
X33909619Y-96083904D01*
X34004857Y-96036285D01*
X34100095Y-96036285D01*
X34242952Y-96083904D01*
X34814381Y-96655333D01*
X34814381Y-96036285D01*
X60973334Y-92724381D02*
X60640000Y-92248190D01*
X60401905Y-92724381D02*
X60401905Y-91724381D01*
X60782858Y-91724381D01*
X60878096Y-91772000D01*
X60925715Y-91819619D01*
X60973334Y-91914857D01*
X60973334Y-92057714D01*
X60925715Y-92152952D01*
X60878096Y-92200571D01*
X60782858Y-92248190D01*
X60401905Y-92248190D01*
X61306667Y-91724381D02*
X61925715Y-91724381D01*
X61592381Y-92105333D01*
X61735239Y-92105333D01*
X61830477Y-92152952D01*
X61878096Y-92200571D01*
X61925715Y-92295810D01*
X61925715Y-92533905D01*
X61878096Y-92629143D01*
X61830477Y-92676762D01*
X61735239Y-92724381D01*
X61449524Y-92724381D01*
X61354286Y-92676762D01*
X61306667Y-92629143D01*
X49642381Y-121488666D02*
X49166190Y-121822000D01*
X49642381Y-122060095D02*
X48642381Y-122060095D01*
X48642381Y-121679142D01*
X48690000Y-121583904D01*
X48737619Y-121536285D01*
X48832857Y-121488666D01*
X48975714Y-121488666D01*
X49070952Y-121536285D01*
X49118571Y-121583904D01*
X49166190Y-121679142D01*
X49166190Y-122060095D01*
X48975714Y-120631523D02*
X49642381Y-120631523D01*
X48594762Y-120869619D02*
X49309048Y-121107714D01*
X49309048Y-120488666D01*
X52792381Y-121382666D02*
X52316190Y-121716000D01*
X52792381Y-121954095D02*
X51792381Y-121954095D01*
X51792381Y-121573142D01*
X51840000Y-121477904D01*
X51887619Y-121430285D01*
X51982857Y-121382666D01*
X52125714Y-121382666D01*
X52220952Y-121430285D01*
X52268571Y-121477904D01*
X52316190Y-121573142D01*
X52316190Y-121954095D01*
X51792381Y-120477904D02*
X51792381Y-120954095D01*
X52268571Y-121001714D01*
X52220952Y-120954095D01*
X52173333Y-120858857D01*
X52173333Y-120620761D01*
X52220952Y-120525523D01*
X52268571Y-120477904D01*
X52363810Y-120430285D01*
X52601905Y-120430285D01*
X52697143Y-120477904D01*
X52744762Y-120525523D01*
X52792381Y-120620761D01*
X52792381Y-120858857D01*
X52744762Y-120954095D01*
X52697143Y-121001714D01*
X47892381Y-101188666D02*
X47416190Y-101522000D01*
X47892381Y-101760095D02*
X46892381Y-101760095D01*
X46892381Y-101379142D01*
X46940000Y-101283904D01*
X46987619Y-101236285D01*
X47082857Y-101188666D01*
X47225714Y-101188666D01*
X47320952Y-101236285D01*
X47368571Y-101283904D01*
X47416190Y-101379142D01*
X47416190Y-101760095D01*
X46892381Y-100855333D02*
X46892381Y-100188666D01*
X47892381Y-100617238D01*
X51042381Y-105488666D02*
X50566190Y-105822000D01*
X51042381Y-106060095D02*
X50042381Y-106060095D01*
X50042381Y-105679142D01*
X50090000Y-105583904D01*
X50137619Y-105536285D01*
X50232857Y-105488666D01*
X50375714Y-105488666D01*
X50470952Y-105536285D01*
X50518571Y-105583904D01*
X50566190Y-105679142D01*
X50566190Y-106060095D01*
X50470952Y-104917238D02*
X50423333Y-105012476D01*
X50375714Y-105060095D01*
X50280476Y-105107714D01*
X50232857Y-105107714D01*
X50137619Y-105060095D01*
X50090000Y-105012476D01*
X50042381Y-104917238D01*
X50042381Y-104726761D01*
X50090000Y-104631523D01*
X50137619Y-104583904D01*
X50232857Y-104536285D01*
X50280476Y-104536285D01*
X50375714Y-104583904D01*
X50423333Y-104631523D01*
X50470952Y-104726761D01*
X50470952Y-104917238D01*
X50518571Y-105012476D01*
X50566190Y-105060095D01*
X50661429Y-105107714D01*
X50851905Y-105107714D01*
X50947143Y-105060095D01*
X50994762Y-105012476D01*
X51042381Y-104917238D01*
X51042381Y-104726761D01*
X50994762Y-104631523D01*
X50947143Y-104583904D01*
X50851905Y-104536285D01*
X50661429Y-104536285D01*
X50566190Y-104583904D01*
X50518571Y-104631523D01*
X50470952Y-104726761D01*
X55792381Y-89788666D02*
X55316190Y-90122000D01*
X55792381Y-90360095D02*
X54792381Y-90360095D01*
X54792381Y-89979142D01*
X54840000Y-89883904D01*
X54887619Y-89836285D01*
X54982857Y-89788666D01*
X55125714Y-89788666D01*
X55220952Y-89836285D01*
X55268571Y-89883904D01*
X55316190Y-89979142D01*
X55316190Y-90360095D01*
X55792381Y-89312476D02*
X55792381Y-89122000D01*
X55744762Y-89026761D01*
X55697143Y-88979142D01*
X55554286Y-88883904D01*
X55363810Y-88836285D01*
X54982857Y-88836285D01*
X54887619Y-88883904D01*
X54840000Y-88931523D01*
X54792381Y-89026761D01*
X54792381Y-89217238D01*
X54840000Y-89312476D01*
X54887619Y-89360095D01*
X54982857Y-89407714D01*
X55220952Y-89407714D01*
X55316190Y-89360095D01*
X55363810Y-89312476D01*
X55411429Y-89217238D01*
X55411429Y-89026761D01*
X55363810Y-88931523D01*
X55316190Y-88883904D01*
X55220952Y-88836285D01*
X36597143Y-126374381D02*
X36263809Y-125898190D01*
X36025714Y-126374381D02*
X36025714Y-125374381D01*
X36406667Y-125374381D01*
X36501905Y-125422000D01*
X36549524Y-125469619D01*
X36597143Y-125564857D01*
X36597143Y-125707714D01*
X36549524Y-125802952D01*
X36501905Y-125850571D01*
X36406667Y-125898190D01*
X36025714Y-125898190D01*
X37549524Y-126374381D02*
X36978095Y-126374381D01*
X37263809Y-126374381D02*
X37263809Y-125374381D01*
X37168571Y-125517238D01*
X37073333Y-125612476D01*
X36978095Y-125660095D01*
X38168571Y-125374381D02*
X38263810Y-125374381D01*
X38359048Y-125422000D01*
X38406667Y-125469619D01*
X38454286Y-125564857D01*
X38501905Y-125755333D01*
X38501905Y-125993429D01*
X38454286Y-126183905D01*
X38406667Y-126279143D01*
X38359048Y-126326762D01*
X38263810Y-126374381D01*
X38168571Y-126374381D01*
X38073333Y-126326762D01*
X38025714Y-126279143D01*
X37978095Y-126183905D01*
X37930476Y-125993429D01*
X37930476Y-125755333D01*
X37978095Y-125564857D01*
X38025714Y-125469619D01*
X38073333Y-125422000D01*
X38168571Y-125374381D01*
X48292381Y-121264857D02*
X47816190Y-121598191D01*
X48292381Y-121836286D02*
X47292381Y-121836286D01*
X47292381Y-121455333D01*
X47340000Y-121360095D01*
X47387619Y-121312476D01*
X47482857Y-121264857D01*
X47625714Y-121264857D01*
X47720952Y-121312476D01*
X47768571Y-121360095D01*
X47816190Y-121455333D01*
X47816190Y-121836286D01*
X48292381Y-120312476D02*
X48292381Y-120883905D01*
X48292381Y-120598191D02*
X47292381Y-120598191D01*
X47435238Y-120693429D01*
X47530476Y-120788667D01*
X47578095Y-120883905D01*
X48292381Y-119360095D02*
X48292381Y-119931524D01*
X48292381Y-119645810D02*
X47292381Y-119645810D01*
X47435238Y-119741048D01*
X47530476Y-119836286D01*
X47578095Y-119931524D01*
X43595143Y-98008381D02*
X43261809Y-97532190D01*
X43023714Y-98008381D02*
X43023714Y-97008381D01*
X43404667Y-97008381D01*
X43499905Y-97056000D01*
X43547524Y-97103619D01*
X43595143Y-97198857D01*
X43595143Y-97341714D01*
X43547524Y-97436952D01*
X43499905Y-97484571D01*
X43404667Y-97532190D01*
X43023714Y-97532190D01*
X44547524Y-98008381D02*
X43976095Y-98008381D01*
X44261809Y-98008381D02*
X44261809Y-97008381D01*
X44166571Y-97151238D01*
X44071333Y-97246476D01*
X43976095Y-97294095D01*
X44928476Y-97103619D02*
X44976095Y-97056000D01*
X45071333Y-97008381D01*
X45309429Y-97008381D01*
X45404667Y-97056000D01*
X45452286Y-97103619D01*
X45499905Y-97198857D01*
X45499905Y-97294095D01*
X45452286Y-97436952D01*
X44880857Y-98008381D01*
X45499905Y-98008381D01*
X43595143Y-92676381D02*
X43261809Y-92200190D01*
X43023714Y-92676381D02*
X43023714Y-91676381D01*
X43404667Y-91676381D01*
X43499905Y-91724000D01*
X43547524Y-91771619D01*
X43595143Y-91866857D01*
X43595143Y-92009714D01*
X43547524Y-92104952D01*
X43499905Y-92152571D01*
X43404667Y-92200190D01*
X43023714Y-92200190D01*
X44547524Y-92676381D02*
X43976095Y-92676381D01*
X44261809Y-92676381D02*
X44261809Y-91676381D01*
X44166571Y-91819238D01*
X44071333Y-91914476D01*
X43976095Y-91962095D01*
X44880857Y-91676381D02*
X45499905Y-91676381D01*
X45166571Y-92057333D01*
X45309429Y-92057333D01*
X45404667Y-92104952D01*
X45452286Y-92152571D01*
X45499905Y-92247810D01*
X45499905Y-92485905D01*
X45452286Y-92581143D01*
X45404667Y-92628762D01*
X45309429Y-92676381D01*
X45023714Y-92676381D01*
X44928476Y-92628762D01*
X44880857Y-92581143D01*
X51351143Y-102118381D02*
X51017809Y-101642190D01*
X50779714Y-102118381D02*
X50779714Y-101118381D01*
X51160667Y-101118381D01*
X51255905Y-101166000D01*
X51303524Y-101213619D01*
X51351143Y-101308857D01*
X51351143Y-101451714D01*
X51303524Y-101546952D01*
X51255905Y-101594571D01*
X51160667Y-101642190D01*
X50779714Y-101642190D01*
X52303524Y-102118381D02*
X51732095Y-102118381D01*
X52017809Y-102118381D02*
X52017809Y-101118381D01*
X51922571Y-101261238D01*
X51827333Y-101356476D01*
X51732095Y-101404095D01*
X53160667Y-101451714D02*
X53160667Y-102118381D01*
X52922571Y-101070762D02*
X52684476Y-101785048D01*
X53303524Y-101785048D01*
X58922381Y-95070857D02*
X58446190Y-95404191D01*
X58922381Y-95642286D02*
X57922381Y-95642286D01*
X57922381Y-95261333D01*
X57970000Y-95166095D01*
X58017619Y-95118476D01*
X58112857Y-95070857D01*
X58255714Y-95070857D01*
X58350952Y-95118476D01*
X58398571Y-95166095D01*
X58446190Y-95261333D01*
X58446190Y-95642286D01*
X58922381Y-94118476D02*
X58922381Y-94689905D01*
X58922381Y-94404191D02*
X57922381Y-94404191D01*
X58065238Y-94499429D01*
X58160476Y-94594667D01*
X58208095Y-94689905D01*
X57922381Y-93213714D02*
X57922381Y-93689905D01*
X58398571Y-93737524D01*
X58350952Y-93689905D01*
X58303333Y-93594667D01*
X58303333Y-93356571D01*
X58350952Y-93261333D01*
X58398571Y-93213714D01*
X58493810Y-93166095D01*
X58731905Y-93166095D01*
X58827143Y-93213714D01*
X58874762Y-93261333D01*
X58922381Y-93356571D01*
X58922381Y-93594667D01*
X58874762Y-93689905D01*
X58827143Y-93737524D01*
X66591143Y-101864381D02*
X66257809Y-101388190D01*
X66019714Y-101864381D02*
X66019714Y-100864381D01*
X66400667Y-100864381D01*
X66495905Y-100912000D01*
X66543524Y-100959619D01*
X66591143Y-101054857D01*
X66591143Y-101197714D01*
X66543524Y-101292952D01*
X66495905Y-101340571D01*
X66400667Y-101388190D01*
X66019714Y-101388190D01*
X67543524Y-101864381D02*
X66972095Y-101864381D01*
X67257809Y-101864381D02*
X67257809Y-100864381D01*
X67162571Y-101007238D01*
X67067333Y-101102476D01*
X66972095Y-101150095D01*
X68400667Y-100864381D02*
X68210190Y-100864381D01*
X68114952Y-100912000D01*
X68067333Y-100959619D01*
X67972095Y-101102476D01*
X67924476Y-101292952D01*
X67924476Y-101673905D01*
X67972095Y-101769143D01*
X68019714Y-101816762D01*
X68114952Y-101864381D01*
X68305429Y-101864381D01*
X68400667Y-101816762D01*
X68448286Y-101769143D01*
X68495905Y-101673905D01*
X68495905Y-101435810D01*
X68448286Y-101340571D01*
X68400667Y-101292952D01*
X68305429Y-101245333D01*
X68114952Y-101245333D01*
X68019714Y-101292952D01*
X67972095Y-101340571D01*
X67924476Y-101435810D01*
X22378095Y-104274381D02*
X22378095Y-105083905D01*
X22425714Y-105179143D01*
X22473333Y-105226762D01*
X22568571Y-105274381D01*
X22759048Y-105274381D01*
X22854286Y-105226762D01*
X22901905Y-105179143D01*
X22949524Y-105083905D01*
X22949524Y-104274381D01*
X23949524Y-105274381D02*
X23378095Y-105274381D01*
X23663809Y-105274381D02*
X23663809Y-104274381D01*
X23568571Y-104417238D01*
X23473333Y-104512476D01*
X23378095Y-104560095D01*
X28278095Y-89874381D02*
X28278095Y-90683905D01*
X28325714Y-90779143D01*
X28373333Y-90826762D01*
X28468571Y-90874381D01*
X28659048Y-90874381D01*
X28754286Y-90826762D01*
X28801905Y-90779143D01*
X28849524Y-90683905D01*
X28849524Y-89874381D01*
X29278095Y-89969619D02*
X29325714Y-89922000D01*
X29420952Y-89874381D01*
X29659048Y-89874381D01*
X29754286Y-89922000D01*
X29801905Y-89969619D01*
X29849524Y-90064857D01*
X29849524Y-90160095D01*
X29801905Y-90302952D01*
X29230476Y-90874381D01*
X29849524Y-90874381D01*
X43578095Y-107674381D02*
X43578095Y-108483905D01*
X43625714Y-108579143D01*
X43673333Y-108626762D01*
X43768571Y-108674381D01*
X43959048Y-108674381D01*
X44054286Y-108626762D01*
X44101905Y-108579143D01*
X44149524Y-108483905D01*
X44149524Y-107674381D01*
X44530476Y-107674381D02*
X45149524Y-107674381D01*
X44816190Y-108055333D01*
X44959048Y-108055333D01*
X45054286Y-108102952D01*
X45101905Y-108150571D01*
X45149524Y-108245810D01*
X45149524Y-108483905D01*
X45101905Y-108579143D01*
X45054286Y-108626762D01*
X44959048Y-108674381D01*
X44673333Y-108674381D01*
X44578095Y-108626762D01*
X44530476Y-108579143D01*
X58478095Y-88674381D02*
X58478095Y-89483905D01*
X58525714Y-89579143D01*
X58573333Y-89626762D01*
X58668571Y-89674381D01*
X58859048Y-89674381D01*
X58954286Y-89626762D01*
X59001905Y-89579143D01*
X59049524Y-89483905D01*
X59049524Y-88674381D01*
X59954286Y-89007714D02*
X59954286Y-89674381D01*
X59716190Y-88626762D02*
X59478095Y-89341048D01*
X60097143Y-89341048D01*
X54708095Y-112124381D02*
X54708095Y-112933905D01*
X54755714Y-113029143D01*
X54803333Y-113076762D01*
X54898571Y-113124381D01*
X55089048Y-113124381D01*
X55184286Y-113076762D01*
X55231905Y-113029143D01*
X55279524Y-112933905D01*
X55279524Y-112124381D01*
X56231905Y-112124381D02*
X55755714Y-112124381D01*
X55708095Y-112600571D01*
X55755714Y-112552952D01*
X55850952Y-112505333D01*
X56089048Y-112505333D01*
X56184286Y-112552952D01*
X56231905Y-112600571D01*
X56279524Y-112695810D01*
X56279524Y-112933905D01*
X56231905Y-113029143D01*
X56184286Y-113076762D01*
X56089048Y-113124381D01*
X55850952Y-113124381D01*
X55755714Y-113076762D01*
X55708095Y-113029143D01*
X46792381Y-117083905D02*
X47601905Y-117083905D01*
X47697143Y-117036286D01*
X47744762Y-116988667D01*
X47792381Y-116893429D01*
X47792381Y-116702952D01*
X47744762Y-116607714D01*
X47697143Y-116560095D01*
X47601905Y-116512476D01*
X46792381Y-116512476D01*
X46792381Y-115607714D02*
X46792381Y-115798191D01*
X46840000Y-115893429D01*
X46887619Y-115941048D01*
X47030476Y-116036286D01*
X47220952Y-116083905D01*
X47601905Y-116083905D01*
X47697143Y-116036286D01*
X47744762Y-115988667D01*
X47792381Y-115893429D01*
X47792381Y-115702952D01*
X47744762Y-115607714D01*
X47697143Y-115560095D01*
X47601905Y-115512476D01*
X47363810Y-115512476D01*
X47268571Y-115560095D01*
X47220952Y-115607714D01*
X47173333Y-115702952D01*
X47173333Y-115893429D01*
X47220952Y-115988667D01*
X47268571Y-116036286D01*
X47363810Y-116083905D01*
X60884095Y-102516381D02*
X60884095Y-103325905D01*
X60931714Y-103421143D01*
X60979333Y-103468762D01*
X61074571Y-103516381D01*
X61265048Y-103516381D01*
X61360286Y-103468762D01*
X61407905Y-103421143D01*
X61455524Y-103325905D01*
X61455524Y-102516381D01*
X61836476Y-102516381D02*
X62503143Y-102516381D01*
X62074571Y-103516381D01*
D15*
X62432286Y-101851452D02*
X62359714Y-101851452D01*
X62396000Y-101851452D02*
X62396000Y-101724452D01*
X62383905Y-101742595D01*
X62371810Y-101754690D01*
X62359714Y-101760738D01*
D14*
X59774810Y-100760143D02*
X59810524Y-100772048D01*
X59822429Y-100783952D01*
X59834334Y-100807762D01*
X59834334Y-100843476D01*
X59822429Y-100867286D01*
X59810524Y-100879190D01*
X59786715Y-100891095D01*
X59691477Y-100891095D01*
X59691477Y-100641095D01*
X59774810Y-100641095D01*
X59798620Y-100653000D01*
X59810524Y-100664905D01*
X59822429Y-100688714D01*
X59822429Y-100712524D01*
X59810524Y-100736333D01*
X59798620Y-100748238D01*
X59774810Y-100760143D01*
X59691477Y-100760143D01*
X59941477Y-100891095D02*
X59941477Y-100641095D01*
X60084334Y-100891095D01*
X60084334Y-100641095D01*
X60251001Y-100641095D02*
X60298620Y-100641095D01*
X60322429Y-100653000D01*
X60346239Y-100676810D01*
X60358144Y-100724429D01*
X60358144Y-100807762D01*
X60346239Y-100855381D01*
X60322429Y-100879190D01*
X60298620Y-100891095D01*
X60251001Y-100891095D01*
X60227191Y-100879190D01*
X60203382Y-100855381D01*
X60191477Y-100807762D01*
X60191477Y-100724429D01*
X60203382Y-100676810D01*
X60227191Y-100653000D01*
X60251001Y-100641095D01*
X60512906Y-100641095D02*
X60536715Y-100641095D01*
X60560525Y-100653000D01*
X60572430Y-100664905D01*
X60584334Y-100688714D01*
X60596239Y-100736333D01*
X60596239Y-100795857D01*
X60584334Y-100843476D01*
X60572430Y-100867286D01*
X60560525Y-100879190D01*
X60536715Y-100891095D01*
X60512906Y-100891095D01*
X60489096Y-100879190D01*
X60477192Y-100867286D01*
X60465287Y-100843476D01*
X60453382Y-100795857D01*
X60453382Y-100736333D01*
X60465287Y-100688714D01*
X60477192Y-100664905D01*
X60489096Y-100653000D01*
X60512906Y-100641095D01*
X60822429Y-100641095D02*
X60703382Y-100641095D01*
X60691477Y-100760143D01*
X60703382Y-100748238D01*
X60727191Y-100736333D01*
X60786715Y-100736333D01*
X60810525Y-100748238D01*
X60822429Y-100760143D01*
X60834334Y-100783952D01*
X60834334Y-100843476D01*
X60822429Y-100867286D01*
X60810525Y-100879190D01*
X60786715Y-100891095D01*
X60727191Y-100891095D01*
X60703382Y-100879190D01*
X60691477Y-100867286D01*
X61060524Y-100641095D02*
X60941477Y-100641095D01*
X60929572Y-100760143D01*
X60941477Y-100748238D01*
X60965286Y-100736333D01*
X61024810Y-100736333D01*
X61048620Y-100748238D01*
X61060524Y-100760143D01*
X61072429Y-100783952D01*
X61072429Y-100843476D01*
X61060524Y-100867286D01*
X61048620Y-100879190D01*
X61024810Y-100891095D01*
X60965286Y-100891095D01*
X60941477Y-100879190D01*
X60929572Y-100867286D01*
D13*
X55550095Y-111914381D02*
X55550095Y-112723905D01*
X55597714Y-112819143D01*
X55645333Y-112866762D01*
X55740571Y-112914381D01*
X55931048Y-112914381D01*
X56026286Y-112866762D01*
X56073905Y-112819143D01*
X56121524Y-112723905D01*
X56121524Y-111914381D01*
X56740571Y-112342952D02*
X56645333Y-112295333D01*
X56597714Y-112247714D01*
X56550095Y-112152476D01*
X56550095Y-112104857D01*
X56597714Y-112009619D01*
X56645333Y-111962000D01*
X56740571Y-111914381D01*
X56931048Y-111914381D01*
X57026286Y-111962000D01*
X57073905Y-112009619D01*
X57121524Y-112104857D01*
X57121524Y-112152476D01*
X57073905Y-112247714D01*
X57026286Y-112295333D01*
X56931048Y-112342952D01*
X56740571Y-112342952D01*
X56645333Y-112390571D01*
X56597714Y-112438190D01*
X56550095Y-112533429D01*
X56550095Y-112723905D01*
X56597714Y-112819143D01*
X56645333Y-112866762D01*
X56740571Y-112914381D01*
X56931048Y-112914381D01*
X57026286Y-112866762D01*
X57073905Y-112819143D01*
X57121524Y-112723905D01*
X57121524Y-112533429D01*
X57073905Y-112438190D01*
X57026286Y-112390571D01*
X56931048Y-112342952D01*
X22132381Y-110555333D02*
X22846667Y-110555333D01*
X22989524Y-110602953D01*
X23084762Y-110698191D01*
X23132381Y-110841048D01*
X23132381Y-110936286D01*
X22132381Y-110174381D02*
X22132381Y-109555333D01*
X22513333Y-109888667D01*
X22513333Y-109745809D01*
X22560952Y-109650571D01*
X22608571Y-109602952D01*
X22703810Y-109555333D01*
X22941905Y-109555333D01*
X23037143Y-109602952D01*
X23084762Y-109650571D01*
X23132381Y-109745809D01*
X23132381Y-110031524D01*
X23084762Y-110126762D01*
X23037143Y-110174381D01*
X33906667Y-121704381D02*
X33906667Y-122418667D01*
X33859047Y-122561524D01*
X33763809Y-122656762D01*
X33620952Y-122704381D01*
X33525714Y-122704381D01*
X34859048Y-121704381D02*
X34382857Y-121704381D01*
X34335238Y-122180571D01*
X34382857Y-122132952D01*
X34478095Y-122085333D01*
X34716191Y-122085333D01*
X34811429Y-122132952D01*
X34859048Y-122180571D01*
X34906667Y-122275810D01*
X34906667Y-122513905D01*
X34859048Y-122609143D01*
X34811429Y-122656762D01*
X34716191Y-122704381D01*
X34478095Y-122704381D01*
X34382857Y-122656762D01*
X34335238Y-122609143D01*
X33397143Y-123764857D02*
X33444762Y-123812476D01*
X33492381Y-123955333D01*
X33492381Y-124050571D01*
X33444762Y-124193429D01*
X33349524Y-124288667D01*
X33254286Y-124336286D01*
X33063810Y-124383905D01*
X32920952Y-124383905D01*
X32730476Y-124336286D01*
X32635238Y-124288667D01*
X32540000Y-124193429D01*
X32492381Y-124050571D01*
X32492381Y-123955333D01*
X32540000Y-123812476D01*
X32587619Y-123764857D01*
X32587619Y-123383905D02*
X32540000Y-123336286D01*
X32492381Y-123241048D01*
X32492381Y-123002952D01*
X32540000Y-122907714D01*
X32587619Y-122860095D01*
X32682857Y-122812476D01*
X32778095Y-122812476D01*
X32920952Y-122860095D01*
X33492381Y-123431524D01*
X33492381Y-122812476D01*
X33492381Y-121860095D02*
X33492381Y-122431524D01*
X33492381Y-122145810D02*
X32492381Y-122145810D01*
X32635238Y-122241048D01*
X32730476Y-122336286D01*
X32778095Y-122431524D01*
X43301905Y-112574381D02*
X43301905Y-113383905D01*
X43349524Y-113479143D01*
X43397143Y-113526762D01*
X43492381Y-113574381D01*
X43682858Y-113574381D01*
X43778096Y-113526762D01*
X43825715Y-113479143D01*
X43873334Y-113383905D01*
X43873334Y-112574381D01*
X44873334Y-113574381D02*
X44301905Y-113574381D01*
X44587619Y-113574381D02*
X44587619Y-112574381D01*
X44492381Y-112717238D01*
X44397143Y-112812476D01*
X44301905Y-112860095D01*
X45492381Y-112574381D02*
X45587620Y-112574381D01*
X45682858Y-112622000D01*
X45730477Y-112669619D01*
X45778096Y-112764857D01*
X45825715Y-112955333D01*
X45825715Y-113193429D01*
X45778096Y-113383905D01*
X45730477Y-113479143D01*
X45682858Y-113526762D01*
X45587620Y-113574381D01*
X45492381Y-113574381D01*
X45397143Y-113526762D01*
X45349524Y-113479143D01*
X45301905Y-113383905D01*
X45254286Y-113193429D01*
X45254286Y-112955333D01*
X45301905Y-112764857D01*
X45349524Y-112669619D01*
X45397143Y-112622000D01*
X45492381Y-112574381D01*
M02*
