G04 #@! TF.GenerationSoftware,KiCad,Pcbnew,(5.1.0)-1*
G04 #@! TF.CreationDate,2019-04-30T23:23:29-05:00*
G04 #@! TF.ProjectId,Avionics Board 1,4176696f-6e69-4637-9320-426f61726420,rev?*
G04 #@! TF.SameCoordinates,Original*
G04 #@! TF.FileFunction,Legend,Bot*
G04 #@! TF.FilePolarity,Positive*
%FSLAX46Y46*%
G04 Gerber Fmt 4.6, Leading zero omitted, Abs format (unit mm)*
G04 Created by KiCad (PCBNEW (5.1.0)-1) date 2019-04-30 23:23:29*
%MOMM*%
%LPD*%
G04 APERTURE LIST*
%ADD10C,0.175000*%
%ADD11C,0.100000*%
%ADD12C,0.300000*%
%ADD13C,0.010000*%
%ADD14C,0.120000*%
%ADD15C,0.150000*%
G04 APERTURE END LIST*
D10*
X31123280Y-121644533D02*
X31223280Y-121677866D01*
X31389946Y-121677866D01*
X31456613Y-121644533D01*
X31489946Y-121611200D01*
X31523280Y-121544533D01*
X31523280Y-121477866D01*
X31489946Y-121411200D01*
X31456613Y-121377866D01*
X31389946Y-121344533D01*
X31256613Y-121311200D01*
X31189946Y-121277866D01*
X31156613Y-121244533D01*
X31123280Y-121177866D01*
X31123280Y-121111200D01*
X31156613Y-121044533D01*
X31189946Y-121011200D01*
X31256613Y-120977866D01*
X31423280Y-120977866D01*
X31523280Y-121011200D01*
X31056613Y-116300720D02*
X31589946Y-116300720D01*
X31056613Y-118906760D02*
X31589946Y-118906760D01*
X31323280Y-119173426D02*
X31323280Y-118640093D01*
D11*
X65934979Y-112918500D02*
X65934979Y-111918500D01*
X65696883Y-111918500D01*
X65554026Y-111966120D01*
X65458788Y-112061358D01*
X65411169Y-112156596D01*
X65363550Y-112347072D01*
X65363550Y-112489929D01*
X65411169Y-112680405D01*
X65458788Y-112775643D01*
X65554026Y-112870881D01*
X65696883Y-112918500D01*
X65934979Y-112918500D01*
X64506407Y-112918500D02*
X64506407Y-112394691D01*
X64554026Y-112299453D01*
X64649264Y-112251834D01*
X64839740Y-112251834D01*
X64934979Y-112299453D01*
X64506407Y-112870881D02*
X64601645Y-112918500D01*
X64839740Y-112918500D01*
X64934979Y-112870881D01*
X64982598Y-112775643D01*
X64982598Y-112680405D01*
X64934979Y-112585167D01*
X64839740Y-112537548D01*
X64601645Y-112537548D01*
X64506407Y-112489929D01*
X64030217Y-112251834D02*
X64030217Y-112918500D01*
X64030217Y-112347072D02*
X63982598Y-112299453D01*
X63887360Y-112251834D01*
X63744502Y-112251834D01*
X63649264Y-112299453D01*
X63601645Y-112394691D01*
X63601645Y-112918500D01*
X63125455Y-112251834D02*
X63125455Y-112918500D01*
X63125455Y-112347072D02*
X63077836Y-112299453D01*
X62982598Y-112251834D01*
X62839740Y-112251834D01*
X62744502Y-112299453D01*
X62696883Y-112394691D01*
X62696883Y-112918500D01*
X62315931Y-112251834D02*
X62077836Y-112918500D01*
X61839740Y-112251834D02*
X62077836Y-112918500D01*
X62173074Y-113156596D01*
X62220693Y-113204215D01*
X62315931Y-113251834D01*
X60696883Y-112918500D02*
X60696883Y-111918500D01*
X60363550Y-112632786D01*
X60030217Y-111918500D01*
X60030217Y-112918500D01*
X59125455Y-112918500D02*
X59125455Y-112394691D01*
X59173074Y-112299453D01*
X59268312Y-112251834D01*
X59458788Y-112251834D01*
X59554026Y-112299453D01*
X59125455Y-112870881D02*
X59220693Y-112918500D01*
X59458788Y-112918500D01*
X59554026Y-112870881D01*
X59601645Y-112775643D01*
X59601645Y-112680405D01*
X59554026Y-112585167D01*
X59458788Y-112537548D01*
X59220693Y-112537548D01*
X59125455Y-112489929D01*
X58506407Y-112918500D02*
X58601645Y-112870881D01*
X58649264Y-112775643D01*
X58649264Y-111918500D01*
X57982598Y-112918500D02*
X58077836Y-112870881D01*
X58125455Y-112775643D01*
X58125455Y-111918500D01*
X57220693Y-112870881D02*
X57315931Y-112918500D01*
X57506407Y-112918500D01*
X57601645Y-112870881D01*
X57649264Y-112775643D01*
X57649264Y-112394691D01*
X57601645Y-112299453D01*
X57506407Y-112251834D01*
X57315931Y-112251834D01*
X57220693Y-112299453D01*
X57173074Y-112394691D01*
X57173074Y-112489929D01*
X57649264Y-112585167D01*
X56744502Y-112918500D02*
X56744502Y-111918500D01*
X56649264Y-112537548D02*
X56363550Y-112918500D01*
X56363550Y-112251834D02*
X56744502Y-112632786D01*
X55220693Y-112013739D02*
X55173074Y-111966120D01*
X55077836Y-111918500D01*
X54839740Y-111918500D01*
X54744502Y-111966120D01*
X54696883Y-112013739D01*
X54649264Y-112108977D01*
X54649264Y-112204215D01*
X54696883Y-112347072D01*
X55268312Y-112918500D01*
X54649264Y-112918500D01*
X54030217Y-111918500D02*
X53934979Y-111918500D01*
X53839740Y-111966120D01*
X53792121Y-112013739D01*
X53744502Y-112108977D01*
X53696883Y-112299453D01*
X53696883Y-112537548D01*
X53744502Y-112728024D01*
X53792121Y-112823262D01*
X53839740Y-112870881D01*
X53934979Y-112918500D01*
X54030217Y-112918500D01*
X54125455Y-112870881D01*
X54173074Y-112823262D01*
X54220693Y-112728024D01*
X54268312Y-112537548D01*
X54268312Y-112299453D01*
X54220693Y-112108977D01*
X54173074Y-112013739D01*
X54125455Y-111966120D01*
X54030217Y-111918500D01*
X52744502Y-112918500D02*
X53315931Y-112918500D01*
X53030217Y-112918500D02*
X53030217Y-111918500D01*
X53125455Y-112061358D01*
X53220693Y-112156596D01*
X53315931Y-112204215D01*
X52268312Y-112918500D02*
X52077836Y-112918500D01*
X51982598Y-112870881D01*
X51934979Y-112823262D01*
X51839740Y-112680405D01*
X51792121Y-112489929D01*
X51792121Y-112108977D01*
X51839740Y-112013739D01*
X51887360Y-111966120D01*
X51982598Y-111918500D01*
X52173074Y-111918500D01*
X52268312Y-111966120D01*
X52315931Y-112013739D01*
X52363550Y-112108977D01*
X52363550Y-112347072D01*
X52315931Y-112442310D01*
X52268312Y-112489929D01*
X52173074Y-112537548D01*
X51982598Y-112537548D01*
X51887360Y-112489929D01*
X51839740Y-112442310D01*
X51792121Y-112347072D01*
D12*
X47582857Y-92572000D02*
X47725714Y-92500571D01*
X47940000Y-92500571D01*
X48154285Y-92572000D01*
X48297142Y-92714857D01*
X48368571Y-92857714D01*
X48440000Y-93143428D01*
X48440000Y-93357714D01*
X48368571Y-93643428D01*
X48297142Y-93786285D01*
X48154285Y-93929142D01*
X47940000Y-94000571D01*
X47797142Y-94000571D01*
X47582857Y-93929142D01*
X47511428Y-93857714D01*
X47511428Y-93357714D01*
X47797142Y-93357714D01*
X46868571Y-94000571D02*
X46868571Y-92500571D01*
X46011428Y-94000571D01*
X46011428Y-92500571D01*
X45297142Y-94000571D02*
X45297142Y-92500571D01*
X44940000Y-92500571D01*
X44725714Y-92572000D01*
X44582857Y-92714857D01*
X44511428Y-92857714D01*
X44440000Y-93143428D01*
X44440000Y-93357714D01*
X44511428Y-93643428D01*
X44582857Y-93786285D01*
X44725714Y-93929142D01*
X44940000Y-94000571D01*
X45297142Y-94000571D01*
X61047142Y-93229142D02*
X59904285Y-93229142D01*
X60475714Y-93800571D02*
X60475714Y-92657714D01*
X58690000Y-93014857D02*
X58475714Y-93086285D01*
X58404285Y-93157714D01*
X58332857Y-93300571D01*
X58332857Y-93514857D01*
X58404285Y-93657714D01*
X58475714Y-93729142D01*
X58618571Y-93800571D01*
X59190000Y-93800571D01*
X59190000Y-92300571D01*
X58690000Y-92300571D01*
X58547142Y-92372000D01*
X58475714Y-92443428D01*
X58404285Y-92586285D01*
X58404285Y-92729142D01*
X58475714Y-92872000D01*
X58547142Y-92943428D01*
X58690000Y-93014857D01*
X59190000Y-93014857D01*
X57761428Y-93372000D02*
X57047142Y-93372000D01*
X57904285Y-93800571D02*
X57404285Y-92300571D01*
X56904285Y-93800571D01*
X56618571Y-92300571D02*
X55761428Y-92300571D01*
X56190000Y-93800571D02*
X56190000Y-92300571D01*
X55475714Y-92300571D02*
X54618571Y-92300571D01*
X55047142Y-93800571D02*
X55047142Y-92300571D01*
X60371666Y-91726333D02*
X61387666Y-91726333D01*
X60879666Y-91726333D02*
X60879666Y-89948333D01*
X61049000Y-90202333D01*
X61218333Y-90371666D01*
X61387666Y-90456333D01*
X59694333Y-91641666D02*
X59440333Y-91726333D01*
X59017000Y-91726333D01*
X58847666Y-91641666D01*
X58763000Y-91557000D01*
X58678333Y-91387666D01*
X58678333Y-91218333D01*
X58763000Y-91049000D01*
X58847666Y-90964333D01*
X59017000Y-90879666D01*
X59355666Y-90795000D01*
X59525000Y-90710333D01*
X59609666Y-90625666D01*
X59694333Y-90456333D01*
X59694333Y-90287000D01*
X59609666Y-90117666D01*
X59525000Y-90033000D01*
X59355666Y-89948333D01*
X58932333Y-89948333D01*
X58678333Y-90033000D01*
X55715000Y-91726333D02*
X56561666Y-91726333D01*
X56561666Y-89948333D01*
X55122333Y-91726333D02*
X55122333Y-90541000D01*
X55122333Y-89948333D02*
X55207000Y-90033000D01*
X55122333Y-90117666D01*
X55037666Y-90033000D01*
X55122333Y-89948333D01*
X55122333Y-90117666D01*
X54275666Y-91726333D02*
X54275666Y-89948333D01*
X53598333Y-89948333D01*
X53429000Y-90033000D01*
X53344333Y-90117666D01*
X53259666Y-90287000D01*
X53259666Y-90541000D01*
X53344333Y-90710333D01*
X53429000Y-90795000D01*
X53598333Y-90879666D01*
X54275666Y-90879666D01*
X52243666Y-91726333D02*
X52413000Y-91641666D01*
X52497666Y-91557000D01*
X52582333Y-91387666D01*
X52582333Y-90879666D01*
X52497666Y-90710333D01*
X52413000Y-90625666D01*
X52243666Y-90541000D01*
X51989666Y-90541000D01*
X51820333Y-90625666D01*
X51735666Y-90710333D01*
X51651000Y-90879666D01*
X51651000Y-91387666D01*
X51735666Y-91557000D01*
X51820333Y-91641666D01*
X51989666Y-91726333D01*
X52243666Y-91726333D01*
X49195666Y-89948333D02*
X48857000Y-89948333D01*
X48687666Y-90033000D01*
X48518333Y-90202333D01*
X48433666Y-90541000D01*
X48433666Y-91133666D01*
X48518333Y-91472333D01*
X48687666Y-91641666D01*
X48857000Y-91726333D01*
X49195666Y-91726333D01*
X49365000Y-91641666D01*
X49534333Y-91472333D01*
X49619000Y-91133666D01*
X49619000Y-90541000D01*
X49534333Y-90202333D01*
X49365000Y-90033000D01*
X49195666Y-89948333D01*
X47671666Y-90541000D02*
X47671666Y-91726333D01*
X47671666Y-90710333D02*
X47587000Y-90625666D01*
X47417666Y-90541000D01*
X47163666Y-90541000D01*
X46994333Y-90625666D01*
X46909666Y-90795000D01*
X46909666Y-91726333D01*
X45809000Y-91726333D02*
X45978333Y-91641666D01*
X46063000Y-91472333D01*
X46063000Y-89948333D01*
X45301000Y-90541000D02*
X44877666Y-91726333D01*
X44454333Y-90541000D02*
X44877666Y-91726333D01*
X45047000Y-92149666D01*
X45131666Y-92234333D01*
X45301000Y-92319000D01*
X43777000Y-91557000D02*
X43692333Y-91641666D01*
X43777000Y-91726333D01*
X43861666Y-91641666D01*
X43777000Y-91557000D01*
X43777000Y-91726333D01*
X43777000Y-91049000D02*
X43861666Y-90033000D01*
X43777000Y-89948333D01*
X43692333Y-90033000D01*
X43777000Y-91049000D01*
X43777000Y-89948333D01*
D13*
G36*
X50007436Y-94662200D02*
G01*
X50600882Y-95646420D01*
X51365932Y-96621868D01*
X52272166Y-97557919D01*
X53289167Y-98423951D01*
X54386516Y-99189339D01*
X54682493Y-99368815D01*
X55085131Y-99628812D01*
X55334985Y-99854095D01*
X55470200Y-100079499D01*
X55475086Y-100092642D01*
X55683282Y-100444653D01*
X56056113Y-100840449D01*
X56566030Y-101257822D01*
X57185484Y-101674563D01*
X57886925Y-102068462D01*
X57991351Y-102121143D01*
X58429938Y-102333154D01*
X58800609Y-102500689D01*
X59067252Y-102608269D01*
X59193753Y-102640411D01*
X59197902Y-102638365D01*
X59172037Y-102535908D01*
X59042292Y-102341720D01*
X58961187Y-102242069D01*
X58700729Y-101922173D01*
X58469452Y-101610134D01*
X58300194Y-101352964D01*
X58225795Y-101197674D01*
X58224800Y-101187871D01*
X58309584Y-101150230D01*
X58478801Y-101164066D01*
X58667593Y-101171033D01*
X58732801Y-101125110D01*
X58778881Y-101034492D01*
X58885420Y-101088936D01*
X59004862Y-101261391D01*
X59016887Y-101286713D01*
X59188275Y-101511008D01*
X59432094Y-101691843D01*
X59629378Y-101781623D01*
X59753169Y-101765523D01*
X59875957Y-101615936D01*
X59952785Y-101493529D01*
X60108807Y-101271623D01*
X60232225Y-101148220D01*
X60256857Y-101139200D01*
X60391869Y-101216943D01*
X60612707Y-101426331D01*
X60890025Y-101731601D01*
X61194477Y-102096988D01*
X61496715Y-102486728D01*
X61767393Y-102865059D01*
X61977166Y-103196217D01*
X62039657Y-103311850D01*
X62323475Y-104066212D01*
X62406762Y-104794732D01*
X62289774Y-105493871D01*
X61972765Y-106160093D01*
X61818932Y-106379177D01*
X61347182Y-106868910D01*
X60689409Y-107354350D01*
X59862749Y-107827048D01*
X58884335Y-108278557D01*
X57771302Y-108700428D01*
X56540786Y-109084214D01*
X56076728Y-109210279D01*
X54530317Y-109584980D01*
X52880089Y-109926280D01*
X51117118Y-110234987D01*
X49232478Y-110511910D01*
X47217242Y-110757856D01*
X45062485Y-110973635D01*
X42759279Y-111160053D01*
X40298699Y-111317919D01*
X37671817Y-111448042D01*
X34869709Y-111551228D01*
X31883447Y-111628288D01*
X28811600Y-111678723D01*
X27587520Y-111693868D01*
X26555857Y-111707145D01*
X25705845Y-111719054D01*
X25026714Y-111730096D01*
X24507697Y-111740772D01*
X24138026Y-111751581D01*
X23906932Y-111763024D01*
X23803648Y-111775601D01*
X23817405Y-111789813D01*
X23937435Y-111806160D01*
X24152970Y-111825143D01*
X24453242Y-111847262D01*
X24747600Y-111867576D01*
X25156020Y-111888678D01*
X25745813Y-111909485D01*
X26495155Y-111929758D01*
X27382218Y-111949261D01*
X28385178Y-111967756D01*
X29482208Y-111985008D01*
X30651483Y-112000778D01*
X31871176Y-112014829D01*
X33119462Y-112026925D01*
X34374514Y-112036829D01*
X35614506Y-112044303D01*
X36817614Y-112049111D01*
X37962010Y-112051016D01*
X39025869Y-112049780D01*
X39987365Y-112045166D01*
X40597200Y-112039696D01*
X42496086Y-112004163D01*
X44439383Y-111940661D01*
X46388953Y-111851547D01*
X48306658Y-111739175D01*
X50154358Y-111605901D01*
X51893915Y-111454082D01*
X53487190Y-111286073D01*
X54191608Y-111200009D01*
X56248485Y-110899358D01*
X58122371Y-110549922D01*
X59811707Y-110152474D01*
X61314932Y-109707785D01*
X62630486Y-109216628D01*
X63756810Y-108679776D01*
X64692344Y-108098000D01*
X65435529Y-107472073D01*
X65984803Y-106802767D01*
X66338608Y-106090855D01*
X66495384Y-105337109D01*
X66503764Y-105103736D01*
X66481276Y-104661906D01*
X66397758Y-104310572D01*
X66225721Y-103939817D01*
X66201688Y-103895803D01*
X65761329Y-103281160D01*
X65135521Y-102685089D01*
X64341905Y-102119421D01*
X63398119Y-101595992D01*
X62321805Y-101126635D01*
X61979727Y-101002306D01*
X60008861Y-101002306D01*
X59920555Y-101245588D01*
X59897236Y-101283391D01*
X59706047Y-101487756D01*
X59521262Y-101544186D01*
X59406136Y-101464930D01*
X59423150Y-101332939D01*
X59526756Y-101121549D01*
X59670564Y-100905006D01*
X59808187Y-100757556D01*
X59863566Y-100732800D01*
X59988593Y-100810576D01*
X60008861Y-101002306D01*
X61979727Y-101002306D01*
X61780800Y-100930006D01*
X61363957Y-100783097D01*
X61019169Y-100653502D01*
X60792221Y-100558874D01*
X60729988Y-100524840D01*
X60703934Y-100388069D01*
X60751460Y-100249727D01*
X60778955Y-100145342D01*
X60530249Y-100145342D01*
X60440262Y-100395541D01*
X60355821Y-100533223D01*
X60189278Y-100729871D01*
X60064756Y-100767241D01*
X59997076Y-100728049D01*
X59926336Y-100623943D01*
X59933182Y-100594150D01*
X59527615Y-100594150D01*
X59509295Y-100762269D01*
X59377543Y-100996436D01*
X59242401Y-101159722D01*
X59148475Y-101150750D01*
X59125099Y-101119862D01*
X59045718Y-100896874D01*
X59039156Y-100829320D01*
X59107825Y-100614399D01*
X59271694Y-100492901D01*
X59405581Y-100497609D01*
X59527615Y-100594150D01*
X59933182Y-100594150D01*
X59961400Y-100471350D01*
X60086869Y-100252890D01*
X60249996Y-100027915D01*
X60359836Y-99921964D01*
X60026837Y-99921964D01*
X59889515Y-100177574D01*
X59712489Y-100386941D01*
X59571374Y-100406242D01*
X59488813Y-100316712D01*
X59487334Y-100291049D01*
X58854158Y-100291049D01*
X58752172Y-100531227D01*
X58594023Y-100738213D01*
X58442870Y-100831614D01*
X58344145Y-100792530D01*
X58328660Y-100707400D01*
X58389617Y-100523463D01*
X58528914Y-100328535D01*
X58689570Y-100186630D01*
X58814431Y-100161658D01*
X58854158Y-100291049D01*
X59487334Y-100291049D01*
X59478329Y-100134886D01*
X59581954Y-99920382D01*
X59747022Y-99756616D01*
X59867569Y-99716800D01*
X60024427Y-99765821D01*
X60026837Y-99921964D01*
X60359836Y-99921964D01*
X60383303Y-99899328D01*
X60412877Y-99888076D01*
X60522741Y-99957873D01*
X60530249Y-100145342D01*
X60778955Y-100145342D01*
X60797684Y-100074240D01*
X60700400Y-99905436D01*
X60627324Y-99832419D01*
X60371799Y-99673898D01*
X60123252Y-99615199D01*
X59923579Y-99576625D01*
X59850401Y-99494748D01*
X59835616Y-99459520D01*
X59391340Y-99459520D01*
X59280852Y-99707636D01*
X59112577Y-99949202D01*
X58987114Y-100012471D01*
X58884772Y-99919306D01*
X58888359Y-99776758D01*
X58986778Y-99582990D01*
X59132722Y-99399523D01*
X59278884Y-99287879D01*
X59366050Y-99293409D01*
X59391340Y-99459520D01*
X59835616Y-99459520D01*
X59786034Y-99341391D01*
X59631127Y-99140892D01*
X59629867Y-99139548D01*
X59508938Y-98979268D01*
X59083779Y-98979268D01*
X58885186Y-99348034D01*
X58740642Y-99578391D01*
X58620137Y-99707056D01*
X58593700Y-99716800D01*
X58473108Y-99666041D01*
X58222333Y-99529207D01*
X57882534Y-99329457D01*
X57626205Y-99172361D01*
X57167070Y-98887093D01*
X56852835Y-98694192D01*
X56656136Y-98578251D01*
X56549607Y-98523863D01*
X56505886Y-98515620D01*
X56497600Y-98536903D01*
X56577114Y-98609715D01*
X56793663Y-98770167D01*
X57114256Y-98994625D01*
X57505905Y-99259454D01*
X57509469Y-99261827D01*
X58521337Y-99935455D01*
X58296869Y-100282069D01*
X58124236Y-100501596D01*
X57970295Y-100622106D01*
X57937329Y-100629942D01*
X57780474Y-100594977D01*
X57495943Y-100501873D01*
X57143748Y-100370357D01*
X57124529Y-100362767D01*
X55749119Y-99742823D01*
X54453997Y-99010367D01*
X53269719Y-98186557D01*
X52226841Y-97292552D01*
X51390845Y-96392528D01*
X51116629Y-96035291D01*
X50837249Y-95635210D01*
X50579355Y-95235051D01*
X50369597Y-94877580D01*
X50234626Y-94605563D01*
X50198400Y-94479012D01*
X50290315Y-94426349D01*
X50540335Y-94418924D01*
X50909878Y-94450951D01*
X51360362Y-94516642D01*
X51853202Y-94610211D01*
X52349816Y-94725871D01*
X52811620Y-94857834D01*
X52885605Y-94882047D01*
X54437143Y-95506954D01*
X55895382Y-96312213D01*
X57260938Y-97298199D01*
X58158250Y-98092519D01*
X59083779Y-98979268D01*
X59508938Y-98979268D01*
X59495172Y-98961023D01*
X59468004Y-98846801D01*
X59471038Y-98843096D01*
X59587518Y-98837464D01*
X59849025Y-98866797D01*
X60202255Y-98921836D01*
X60593906Y-98993325D01*
X60970674Y-99072005D01*
X61279257Y-99148620D01*
X61348469Y-99169158D01*
X61380347Y-99140932D01*
X61280160Y-99010401D01*
X61120400Y-98853386D01*
X60365222Y-98214893D01*
X59620126Y-97684328D01*
X58909910Y-97275482D01*
X58259371Y-97002144D01*
X57693306Y-96878104D01*
X57557419Y-96872000D01*
X57296939Y-96860076D01*
X57068539Y-96809715D01*
X56819865Y-96699029D01*
X56498565Y-96506130D01*
X56182953Y-96297378D01*
X55177951Y-95687178D01*
X54119187Y-95164888D01*
X53046272Y-94744648D01*
X51998818Y-94440600D01*
X51016435Y-94266883D01*
X50392893Y-94230400D01*
X49787871Y-94230400D01*
X50007436Y-94662200D01*
X50007436Y-94662200D01*
G37*
X50007436Y-94662200D02*
X50600882Y-95646420D01*
X51365932Y-96621868D01*
X52272166Y-97557919D01*
X53289167Y-98423951D01*
X54386516Y-99189339D01*
X54682493Y-99368815D01*
X55085131Y-99628812D01*
X55334985Y-99854095D01*
X55470200Y-100079499D01*
X55475086Y-100092642D01*
X55683282Y-100444653D01*
X56056113Y-100840449D01*
X56566030Y-101257822D01*
X57185484Y-101674563D01*
X57886925Y-102068462D01*
X57991351Y-102121143D01*
X58429938Y-102333154D01*
X58800609Y-102500689D01*
X59067252Y-102608269D01*
X59193753Y-102640411D01*
X59197902Y-102638365D01*
X59172037Y-102535908D01*
X59042292Y-102341720D01*
X58961187Y-102242069D01*
X58700729Y-101922173D01*
X58469452Y-101610134D01*
X58300194Y-101352964D01*
X58225795Y-101197674D01*
X58224800Y-101187871D01*
X58309584Y-101150230D01*
X58478801Y-101164066D01*
X58667593Y-101171033D01*
X58732801Y-101125110D01*
X58778881Y-101034492D01*
X58885420Y-101088936D01*
X59004862Y-101261391D01*
X59016887Y-101286713D01*
X59188275Y-101511008D01*
X59432094Y-101691843D01*
X59629378Y-101781623D01*
X59753169Y-101765523D01*
X59875957Y-101615936D01*
X59952785Y-101493529D01*
X60108807Y-101271623D01*
X60232225Y-101148220D01*
X60256857Y-101139200D01*
X60391869Y-101216943D01*
X60612707Y-101426331D01*
X60890025Y-101731601D01*
X61194477Y-102096988D01*
X61496715Y-102486728D01*
X61767393Y-102865059D01*
X61977166Y-103196217D01*
X62039657Y-103311850D01*
X62323475Y-104066212D01*
X62406762Y-104794732D01*
X62289774Y-105493871D01*
X61972765Y-106160093D01*
X61818932Y-106379177D01*
X61347182Y-106868910D01*
X60689409Y-107354350D01*
X59862749Y-107827048D01*
X58884335Y-108278557D01*
X57771302Y-108700428D01*
X56540786Y-109084214D01*
X56076728Y-109210279D01*
X54530317Y-109584980D01*
X52880089Y-109926280D01*
X51117118Y-110234987D01*
X49232478Y-110511910D01*
X47217242Y-110757856D01*
X45062485Y-110973635D01*
X42759279Y-111160053D01*
X40298699Y-111317919D01*
X37671817Y-111448042D01*
X34869709Y-111551228D01*
X31883447Y-111628288D01*
X28811600Y-111678723D01*
X27587520Y-111693868D01*
X26555857Y-111707145D01*
X25705845Y-111719054D01*
X25026714Y-111730096D01*
X24507697Y-111740772D01*
X24138026Y-111751581D01*
X23906932Y-111763024D01*
X23803648Y-111775601D01*
X23817405Y-111789813D01*
X23937435Y-111806160D01*
X24152970Y-111825143D01*
X24453242Y-111847262D01*
X24747600Y-111867576D01*
X25156020Y-111888678D01*
X25745813Y-111909485D01*
X26495155Y-111929758D01*
X27382218Y-111949261D01*
X28385178Y-111967756D01*
X29482208Y-111985008D01*
X30651483Y-112000778D01*
X31871176Y-112014829D01*
X33119462Y-112026925D01*
X34374514Y-112036829D01*
X35614506Y-112044303D01*
X36817614Y-112049111D01*
X37962010Y-112051016D01*
X39025869Y-112049780D01*
X39987365Y-112045166D01*
X40597200Y-112039696D01*
X42496086Y-112004163D01*
X44439383Y-111940661D01*
X46388953Y-111851547D01*
X48306658Y-111739175D01*
X50154358Y-111605901D01*
X51893915Y-111454082D01*
X53487190Y-111286073D01*
X54191608Y-111200009D01*
X56248485Y-110899358D01*
X58122371Y-110549922D01*
X59811707Y-110152474D01*
X61314932Y-109707785D01*
X62630486Y-109216628D01*
X63756810Y-108679776D01*
X64692344Y-108098000D01*
X65435529Y-107472073D01*
X65984803Y-106802767D01*
X66338608Y-106090855D01*
X66495384Y-105337109D01*
X66503764Y-105103736D01*
X66481276Y-104661906D01*
X66397758Y-104310572D01*
X66225721Y-103939817D01*
X66201688Y-103895803D01*
X65761329Y-103281160D01*
X65135521Y-102685089D01*
X64341905Y-102119421D01*
X63398119Y-101595992D01*
X62321805Y-101126635D01*
X61979727Y-101002306D01*
X60008861Y-101002306D01*
X59920555Y-101245588D01*
X59897236Y-101283391D01*
X59706047Y-101487756D01*
X59521262Y-101544186D01*
X59406136Y-101464930D01*
X59423150Y-101332939D01*
X59526756Y-101121549D01*
X59670564Y-100905006D01*
X59808187Y-100757556D01*
X59863566Y-100732800D01*
X59988593Y-100810576D01*
X60008861Y-101002306D01*
X61979727Y-101002306D01*
X61780800Y-100930006D01*
X61363957Y-100783097D01*
X61019169Y-100653502D01*
X60792221Y-100558874D01*
X60729988Y-100524840D01*
X60703934Y-100388069D01*
X60751460Y-100249727D01*
X60778955Y-100145342D01*
X60530249Y-100145342D01*
X60440262Y-100395541D01*
X60355821Y-100533223D01*
X60189278Y-100729871D01*
X60064756Y-100767241D01*
X59997076Y-100728049D01*
X59926336Y-100623943D01*
X59933182Y-100594150D01*
X59527615Y-100594150D01*
X59509295Y-100762269D01*
X59377543Y-100996436D01*
X59242401Y-101159722D01*
X59148475Y-101150750D01*
X59125099Y-101119862D01*
X59045718Y-100896874D01*
X59039156Y-100829320D01*
X59107825Y-100614399D01*
X59271694Y-100492901D01*
X59405581Y-100497609D01*
X59527615Y-100594150D01*
X59933182Y-100594150D01*
X59961400Y-100471350D01*
X60086869Y-100252890D01*
X60249996Y-100027915D01*
X60359836Y-99921964D01*
X60026837Y-99921964D01*
X59889515Y-100177574D01*
X59712489Y-100386941D01*
X59571374Y-100406242D01*
X59488813Y-100316712D01*
X59487334Y-100291049D01*
X58854158Y-100291049D01*
X58752172Y-100531227D01*
X58594023Y-100738213D01*
X58442870Y-100831614D01*
X58344145Y-100792530D01*
X58328660Y-100707400D01*
X58389617Y-100523463D01*
X58528914Y-100328535D01*
X58689570Y-100186630D01*
X58814431Y-100161658D01*
X58854158Y-100291049D01*
X59487334Y-100291049D01*
X59478329Y-100134886D01*
X59581954Y-99920382D01*
X59747022Y-99756616D01*
X59867569Y-99716800D01*
X60024427Y-99765821D01*
X60026837Y-99921964D01*
X60359836Y-99921964D01*
X60383303Y-99899328D01*
X60412877Y-99888076D01*
X60522741Y-99957873D01*
X60530249Y-100145342D01*
X60778955Y-100145342D01*
X60797684Y-100074240D01*
X60700400Y-99905436D01*
X60627324Y-99832419D01*
X60371799Y-99673898D01*
X60123252Y-99615199D01*
X59923579Y-99576625D01*
X59850401Y-99494748D01*
X59835616Y-99459520D01*
X59391340Y-99459520D01*
X59280852Y-99707636D01*
X59112577Y-99949202D01*
X58987114Y-100012471D01*
X58884772Y-99919306D01*
X58888359Y-99776758D01*
X58986778Y-99582990D01*
X59132722Y-99399523D01*
X59278884Y-99287879D01*
X59366050Y-99293409D01*
X59391340Y-99459520D01*
X59835616Y-99459520D01*
X59786034Y-99341391D01*
X59631127Y-99140892D01*
X59629867Y-99139548D01*
X59508938Y-98979268D01*
X59083779Y-98979268D01*
X58885186Y-99348034D01*
X58740642Y-99578391D01*
X58620137Y-99707056D01*
X58593700Y-99716800D01*
X58473108Y-99666041D01*
X58222333Y-99529207D01*
X57882534Y-99329457D01*
X57626205Y-99172361D01*
X57167070Y-98887093D01*
X56852835Y-98694192D01*
X56656136Y-98578251D01*
X56549607Y-98523863D01*
X56505886Y-98515620D01*
X56497600Y-98536903D01*
X56577114Y-98609715D01*
X56793663Y-98770167D01*
X57114256Y-98994625D01*
X57505905Y-99259454D01*
X57509469Y-99261827D01*
X58521337Y-99935455D01*
X58296869Y-100282069D01*
X58124236Y-100501596D01*
X57970295Y-100622106D01*
X57937329Y-100629942D01*
X57780474Y-100594977D01*
X57495943Y-100501873D01*
X57143748Y-100370357D01*
X57124529Y-100362767D01*
X55749119Y-99742823D01*
X54453997Y-99010367D01*
X53269719Y-98186557D01*
X52226841Y-97292552D01*
X51390845Y-96392528D01*
X51116629Y-96035291D01*
X50837249Y-95635210D01*
X50579355Y-95235051D01*
X50369597Y-94877580D01*
X50234626Y-94605563D01*
X50198400Y-94479012D01*
X50290315Y-94426349D01*
X50540335Y-94418924D01*
X50909878Y-94450951D01*
X51360362Y-94516642D01*
X51853202Y-94610211D01*
X52349816Y-94725871D01*
X52811620Y-94857834D01*
X52885605Y-94882047D01*
X54437143Y-95506954D01*
X55895382Y-96312213D01*
X57260938Y-97298199D01*
X58158250Y-98092519D01*
X59083779Y-98979268D01*
X59508938Y-98979268D01*
X59495172Y-98961023D01*
X59468004Y-98846801D01*
X59471038Y-98843096D01*
X59587518Y-98837464D01*
X59849025Y-98866797D01*
X60202255Y-98921836D01*
X60593906Y-98993325D01*
X60970674Y-99072005D01*
X61279257Y-99148620D01*
X61348469Y-99169158D01*
X61380347Y-99140932D01*
X61280160Y-99010401D01*
X61120400Y-98853386D01*
X60365222Y-98214893D01*
X59620126Y-97684328D01*
X58909910Y-97275482D01*
X58259371Y-97002144D01*
X57693306Y-96878104D01*
X57557419Y-96872000D01*
X57296939Y-96860076D01*
X57068539Y-96809715D01*
X56819865Y-96699029D01*
X56498565Y-96506130D01*
X56182953Y-96297378D01*
X55177951Y-95687178D01*
X54119187Y-95164888D01*
X53046272Y-94744648D01*
X51998818Y-94440600D01*
X51016435Y-94266883D01*
X50392893Y-94230400D01*
X49787871Y-94230400D01*
X50007436Y-94662200D01*
G36*
X53477357Y-97863965D02*
G01*
X53685203Y-98037450D01*
X54021502Y-98282741D01*
X54278533Y-98457524D01*
X54599999Y-98658570D01*
X55003349Y-98892486D01*
X55448136Y-99138035D01*
X55893913Y-99373975D01*
X56300235Y-99579069D01*
X56626655Y-99732075D01*
X56832727Y-99811754D01*
X56870023Y-99818400D01*
X56821749Y-99771248D01*
X56628151Y-99642940D01*
X56320300Y-99453196D01*
X55938299Y-99226998D01*
X55412921Y-98917659D01*
X54839076Y-98574413D01*
X54304852Y-98250152D01*
X54059200Y-98098673D01*
X53688884Y-97879641D01*
X53472762Y-97774531D01*
X53404398Y-97772816D01*
X53477357Y-97863965D01*
X53477357Y-97863965D01*
G37*
X53477357Y-97863965D02*
X53685203Y-98037450D01*
X54021502Y-98282741D01*
X54278533Y-98457524D01*
X54599999Y-98658570D01*
X55003349Y-98892486D01*
X55448136Y-99138035D01*
X55893913Y-99373975D01*
X56300235Y-99579069D01*
X56626655Y-99732075D01*
X56832727Y-99811754D01*
X56870023Y-99818400D01*
X56821749Y-99771248D01*
X56628151Y-99642940D01*
X56320300Y-99453196D01*
X55938299Y-99226998D01*
X55412921Y-98917659D01*
X54839076Y-98574413D01*
X54304852Y-98250152D01*
X54059200Y-98098673D01*
X53688884Y-97879641D01*
X53472762Y-97774531D01*
X53404398Y-97772816D01*
X53477357Y-97863965D01*
G36*
X53043200Y-97532400D02*
G01*
X53094000Y-97583200D01*
X53144800Y-97532400D01*
X53094000Y-97481600D01*
X53043200Y-97532400D01*
X53043200Y-97532400D01*
G37*
X53043200Y-97532400D02*
X53094000Y-97583200D01*
X53144800Y-97532400D01*
X53094000Y-97481600D01*
X53043200Y-97532400D01*
G36*
X52297516Y-95332904D02*
G01*
X52009265Y-95579855D01*
X51861300Y-95965231D01*
X51854055Y-96272229D01*
X51975800Y-96520005D01*
X52042190Y-96600340D01*
X52348893Y-96833527D01*
X52704520Y-96934023D01*
X53036962Y-96884364D01*
X53094000Y-96855069D01*
X53390103Y-96585415D01*
X53532243Y-96254990D01*
X53531948Y-96086223D01*
X53449600Y-96086223D01*
X53362025Y-96396462D01*
X53137802Y-96625769D01*
X52834689Y-96752349D01*
X52510443Y-96754409D01*
X52222820Y-96610156D01*
X52178414Y-96565888D01*
X52013984Y-96256958D01*
X52011697Y-95926335D01*
X52148070Y-95628493D01*
X52399617Y-95417905D01*
X52703474Y-95348000D01*
X52979023Y-95433832D01*
X53238640Y-95646043D01*
X53413669Y-95916701D01*
X53449600Y-96086223D01*
X53531948Y-96086223D01*
X53531638Y-95910001D01*
X53399506Y-95596658D01*
X53147064Y-95361166D01*
X52785530Y-95249735D01*
X52703474Y-95246400D01*
X52297516Y-95332904D01*
X52297516Y-95332904D01*
G37*
X52297516Y-95332904D02*
X52009265Y-95579855D01*
X51861300Y-95965231D01*
X51854055Y-96272229D01*
X51975800Y-96520005D01*
X52042190Y-96600340D01*
X52348893Y-96833527D01*
X52704520Y-96934023D01*
X53036962Y-96884364D01*
X53094000Y-96855069D01*
X53390103Y-96585415D01*
X53532243Y-96254990D01*
X53531948Y-96086223D01*
X53449600Y-96086223D01*
X53362025Y-96396462D01*
X53137802Y-96625769D01*
X52834689Y-96752349D01*
X52510443Y-96754409D01*
X52222820Y-96610156D01*
X52178414Y-96565888D01*
X52013984Y-96256958D01*
X52011697Y-95926335D01*
X52148070Y-95628493D01*
X52399617Y-95417905D01*
X52703474Y-95348000D01*
X52979023Y-95433832D01*
X53238640Y-95646043D01*
X53413669Y-95916701D01*
X53449600Y-96086223D01*
X53531948Y-96086223D01*
X53531638Y-95910001D01*
X53399506Y-95596658D01*
X53147064Y-95361166D01*
X52785530Y-95249735D01*
X52703474Y-95246400D01*
X52297516Y-95332904D01*
D14*
X40919280Y-123605440D02*
X40919280Y-122105440D01*
X40919280Y-122105440D02*
X46619280Y-122105440D01*
X46619280Y-122105440D02*
X46619280Y-123605440D01*
X40919280Y-126005440D02*
X40919280Y-127505440D01*
X40919280Y-127505440D02*
X46619280Y-127505440D01*
X46619280Y-127505440D02*
X46619280Y-126005440D01*
X49550000Y-113800000D02*
X49550000Y-114800000D01*
X47850000Y-114800000D02*
X47850000Y-113800000D01*
D13*
G36*
X41536400Y-96158000D02*
G01*
X39047200Y-96158000D01*
X39047200Y-98291600D01*
X39402800Y-98291600D01*
X39402800Y-96513600D01*
X41180800Y-96513600D01*
X41180800Y-98291600D01*
X39402800Y-98291600D01*
X39047200Y-98291600D01*
X39047200Y-98647200D01*
X41536400Y-98647200D01*
X41536400Y-96158000D01*
X41536400Y-96158000D01*
G37*
X41536400Y-96158000D02*
X39047200Y-96158000D01*
X39047200Y-98291600D01*
X39402800Y-98291600D01*
X39402800Y-96513600D01*
X41180800Y-96513600D01*
X41180800Y-98291600D01*
X39402800Y-98291600D01*
X39047200Y-98291600D01*
X39047200Y-98647200D01*
X41536400Y-98647200D01*
X41536400Y-96158000D01*
G36*
X42603200Y-97224800D02*
G01*
X42425400Y-97224800D01*
X42306232Y-97216937D01*
X42257361Y-97172569D01*
X42247622Y-97060534D01*
X42247600Y-97047000D01*
X42247600Y-96869200D01*
X42958800Y-96869200D01*
X42958800Y-97224800D01*
X43670000Y-97224800D01*
X43670000Y-97047000D01*
X43662136Y-96927833D01*
X43617768Y-96878962D01*
X43505733Y-96869223D01*
X43492200Y-96869200D01*
X43314400Y-96869200D01*
X43314400Y-96158000D01*
X41892000Y-96158000D01*
X41892000Y-97936000D01*
X42603200Y-97936000D01*
X42603200Y-97224800D01*
X42603200Y-97224800D01*
G37*
X42603200Y-97224800D02*
X42425400Y-97224800D01*
X42306232Y-97216937D01*
X42257361Y-97172569D01*
X42247622Y-97060534D01*
X42247600Y-97047000D01*
X42247600Y-96869200D01*
X42958800Y-96869200D01*
X42958800Y-97224800D01*
X43670000Y-97224800D01*
X43670000Y-97047000D01*
X43662136Y-96927833D01*
X43617768Y-96878962D01*
X43505733Y-96869223D01*
X43492200Y-96869200D01*
X43314400Y-96869200D01*
X43314400Y-96158000D01*
X41892000Y-96158000D01*
X41892000Y-97936000D01*
X42603200Y-97936000D01*
X42603200Y-97224800D01*
G36*
X45389367Y-96505737D02*
G01*
X45438238Y-96461369D01*
X45447977Y-96349334D01*
X45448000Y-96335800D01*
X45440136Y-96216633D01*
X45395768Y-96167762D01*
X45283733Y-96158023D01*
X45270200Y-96158000D01*
X45151032Y-96165864D01*
X45102161Y-96210232D01*
X45092422Y-96322267D01*
X45092400Y-96335800D01*
X45100263Y-96454968D01*
X45144631Y-96503839D01*
X45256666Y-96513578D01*
X45270200Y-96513600D01*
X45389367Y-96505737D01*
X45389367Y-96505737D01*
G37*
X45389367Y-96505737D02*
X45438238Y-96461369D01*
X45447977Y-96349334D01*
X45448000Y-96335800D01*
X45440136Y-96216633D01*
X45395768Y-96167762D01*
X45283733Y-96158023D01*
X45270200Y-96158000D01*
X45151032Y-96165864D01*
X45102161Y-96210232D01*
X45092422Y-96322267D01*
X45092400Y-96335800D01*
X45100263Y-96454968D01*
X45144631Y-96503839D01*
X45256666Y-96513578D01*
X45270200Y-96513600D01*
X45389367Y-96505737D01*
G36*
X50782000Y-98647200D02*
G01*
X50426400Y-98647200D01*
X50426400Y-99358400D01*
X50782000Y-99358400D01*
X50782000Y-98647200D01*
X50782000Y-98647200D01*
G37*
X50782000Y-98647200D02*
X50426400Y-98647200D01*
X50426400Y-99358400D01*
X50782000Y-99358400D01*
X50782000Y-98647200D01*
G36*
X50782000Y-97936000D02*
G01*
X50782000Y-97224800D01*
X50070800Y-97224800D01*
X50070800Y-96513600D01*
X50248600Y-96513600D01*
X50367767Y-96505737D01*
X50416638Y-96461369D01*
X50426377Y-96349334D01*
X50426400Y-96335800D01*
X50418536Y-96216633D01*
X50374168Y-96167762D01*
X50262133Y-96158023D01*
X50248600Y-96158000D01*
X50129432Y-96165864D01*
X50080561Y-96210232D01*
X50070822Y-96322267D01*
X50070800Y-96335800D01*
X50062936Y-96454968D01*
X50018568Y-96503839D01*
X49906533Y-96513578D01*
X49893000Y-96513600D01*
X49773832Y-96505737D01*
X49724961Y-96461369D01*
X49715222Y-96349334D01*
X49715200Y-96335800D01*
X49707336Y-96216633D01*
X49662968Y-96167762D01*
X49550933Y-96158023D01*
X49537400Y-96158000D01*
X49359600Y-96158000D01*
X49359600Y-96869200D01*
X49537400Y-96869200D01*
X49656567Y-96877064D01*
X49705438Y-96921432D01*
X49715177Y-97033467D01*
X49715200Y-97047000D01*
X49715200Y-97224800D01*
X48648400Y-97224800D01*
X48648400Y-96513600D01*
X48470600Y-96513600D01*
X48351432Y-96505737D01*
X48302561Y-96461369D01*
X48292822Y-96349334D01*
X48292800Y-96335800D01*
X48292800Y-96158000D01*
X47226000Y-96158000D01*
X47226000Y-96513600D01*
X46159200Y-96513600D01*
X46159200Y-96335800D01*
X46151336Y-96216633D01*
X46106968Y-96167762D01*
X45994933Y-96158023D01*
X45981400Y-96158000D01*
X45803600Y-96158000D01*
X45803600Y-96869200D01*
X44381200Y-96869200D01*
X44381200Y-96691400D01*
X44373336Y-96572233D01*
X44328968Y-96523362D01*
X44216933Y-96513623D01*
X44203400Y-96513600D01*
X44084232Y-96521464D01*
X44035361Y-96565832D01*
X44025622Y-96677867D01*
X44025600Y-96691400D01*
X44033463Y-96810568D01*
X44077831Y-96859439D01*
X44189866Y-96869178D01*
X44203400Y-96869200D01*
X44322567Y-96877064D01*
X44371438Y-96921432D01*
X44381177Y-97033467D01*
X44381200Y-97047000D01*
X44389063Y-97166168D01*
X44433431Y-97215039D01*
X44545466Y-97224778D01*
X44559000Y-97224800D01*
X44678167Y-97232664D01*
X44727038Y-97277032D01*
X44736777Y-97389067D01*
X44736800Y-97402600D01*
X44736800Y-97580400D01*
X44025600Y-97580400D01*
X44025600Y-97758200D01*
X44736800Y-97758200D01*
X44744663Y-97639033D01*
X44789031Y-97590162D01*
X44901066Y-97580423D01*
X44914600Y-97580400D01*
X45033767Y-97572537D01*
X45082638Y-97528169D01*
X45092377Y-97416134D01*
X45092400Y-97402600D01*
X45100263Y-97283433D01*
X45144631Y-97234562D01*
X45256666Y-97224823D01*
X45270200Y-97224800D01*
X45803600Y-97224800D01*
X45803600Y-96869200D01*
X46514800Y-96869200D01*
X46514800Y-97224800D01*
X45803600Y-97224800D01*
X45270200Y-97224800D01*
X45389367Y-97232664D01*
X45438238Y-97277032D01*
X45447977Y-97389067D01*
X45448000Y-97402600D01*
X45448000Y-97580400D01*
X46870400Y-97580400D01*
X46870400Y-97224800D01*
X47581600Y-97224800D01*
X47581600Y-97047000D01*
X47573736Y-96927833D01*
X47529368Y-96878962D01*
X47417333Y-96869223D01*
X47403800Y-96869200D01*
X47284632Y-96861337D01*
X47235761Y-96816969D01*
X47226022Y-96704934D01*
X47226000Y-96691400D01*
X47226000Y-96513600D01*
X48292800Y-96513600D01*
X48292800Y-97224800D01*
X48470600Y-97224800D01*
X48589767Y-97232664D01*
X48638638Y-97277032D01*
X48648377Y-97389067D01*
X48648400Y-97402600D01*
X48640536Y-97521768D01*
X48596168Y-97570639D01*
X48484133Y-97580378D01*
X48470600Y-97580400D01*
X48351432Y-97572537D01*
X48302561Y-97528169D01*
X48292822Y-97416134D01*
X48292800Y-97402600D01*
X48284936Y-97283433D01*
X48240568Y-97234562D01*
X48128533Y-97224823D01*
X48115000Y-97224800D01*
X47995832Y-97232664D01*
X47946961Y-97277032D01*
X47937222Y-97389067D01*
X47937200Y-97402600D01*
X47929336Y-97521768D01*
X47884968Y-97570639D01*
X47772933Y-97580378D01*
X47759400Y-97580400D01*
X47640232Y-97588264D01*
X47591361Y-97632632D01*
X47581622Y-97744667D01*
X47581600Y-97758200D01*
X47573736Y-97877368D01*
X47529368Y-97926239D01*
X47417333Y-97935978D01*
X47403800Y-97936000D01*
X47284632Y-97943864D01*
X47235761Y-97988232D01*
X47226022Y-98100267D01*
X47226000Y-98113800D01*
X47218136Y-98232968D01*
X47173768Y-98281839D01*
X47061733Y-98291578D01*
X47048200Y-98291600D01*
X46929032Y-98283737D01*
X46880161Y-98239369D01*
X46870422Y-98127334D01*
X46870400Y-98113800D01*
X46870400Y-97936000D01*
X46159200Y-97936000D01*
X46159200Y-98647200D01*
X45448000Y-98647200D01*
X45448000Y-98469400D01*
X45440136Y-98350233D01*
X45395768Y-98301362D01*
X45283733Y-98291623D01*
X45270200Y-98291600D01*
X45151032Y-98283737D01*
X45102161Y-98239369D01*
X45092422Y-98127334D01*
X45092400Y-98113800D01*
X45084536Y-97994633D01*
X45040168Y-97945762D01*
X44928133Y-97936023D01*
X44914600Y-97936000D01*
X44795432Y-97928137D01*
X44746561Y-97883769D01*
X44736822Y-97771734D01*
X44736800Y-97758200D01*
X44025600Y-97758200D01*
X44017736Y-97877368D01*
X43973368Y-97926239D01*
X43861333Y-97935978D01*
X43847800Y-97936000D01*
X43728632Y-97928137D01*
X43679761Y-97883769D01*
X43670022Y-97771734D01*
X43670000Y-97758200D01*
X43662136Y-97639033D01*
X43617768Y-97590162D01*
X43505733Y-97580423D01*
X43492200Y-97580400D01*
X43314400Y-97580400D01*
X43314400Y-98113800D01*
X44025600Y-98113800D01*
X44033463Y-97994633D01*
X44077831Y-97945762D01*
X44189866Y-97936023D01*
X44203400Y-97936000D01*
X44322567Y-97943864D01*
X44371438Y-97988232D01*
X44381177Y-98100267D01*
X44381200Y-98113800D01*
X44373336Y-98232968D01*
X44328968Y-98281839D01*
X44216933Y-98291578D01*
X44203400Y-98291600D01*
X44084232Y-98283737D01*
X44035361Y-98239369D01*
X44025622Y-98127334D01*
X44025600Y-98113800D01*
X43314400Y-98113800D01*
X43314400Y-98291600D01*
X43492200Y-98291600D01*
X43611367Y-98299464D01*
X43660238Y-98343832D01*
X43669977Y-98455867D01*
X43670000Y-98469400D01*
X43662136Y-98588568D01*
X43617768Y-98637439D01*
X43505733Y-98647178D01*
X43492200Y-98647200D01*
X43373032Y-98655064D01*
X43324161Y-98699432D01*
X43314422Y-98811467D01*
X43314400Y-98825000D01*
X43306536Y-98944168D01*
X43262168Y-98993039D01*
X43150133Y-99002778D01*
X43136600Y-99002800D01*
X42958800Y-99002800D01*
X42958800Y-99714000D01*
X42247600Y-99714000D01*
X42247600Y-98647200D01*
X42425400Y-98647200D01*
X42544567Y-98639337D01*
X42593438Y-98594969D01*
X42603177Y-98482934D01*
X42603200Y-98469400D01*
X42603200Y-98291600D01*
X41892000Y-98291600D01*
X41892000Y-99714000D01*
X41180800Y-99714000D01*
X41180800Y-99536200D01*
X41188663Y-99417033D01*
X41233031Y-99368162D01*
X41345066Y-99358423D01*
X41358600Y-99358400D01*
X41477767Y-99350537D01*
X41526638Y-99306169D01*
X41536377Y-99194134D01*
X41536400Y-99180600D01*
X41536400Y-99002800D01*
X39758400Y-99002800D01*
X39758400Y-99714000D01*
X40469600Y-99714000D01*
X40469600Y-100425200D01*
X40647400Y-100425200D01*
X40766567Y-100433064D01*
X40815438Y-100477432D01*
X40825177Y-100589467D01*
X40825200Y-100603000D01*
X40817336Y-100722168D01*
X40772968Y-100771039D01*
X40660933Y-100780778D01*
X40647400Y-100780800D01*
X40469600Y-100780800D01*
X40469600Y-101492000D01*
X40291800Y-101492000D01*
X40172632Y-101499864D01*
X40123761Y-101544232D01*
X40114022Y-101656267D01*
X40114000Y-101669800D01*
X40106136Y-101788968D01*
X40061768Y-101837839D01*
X39949733Y-101847578D01*
X39936200Y-101847600D01*
X39758400Y-101847600D01*
X39758400Y-100780800D01*
X39936200Y-100780800D01*
X40055367Y-100772937D01*
X40104238Y-100728569D01*
X40113977Y-100616534D01*
X40114000Y-100603000D01*
X40106136Y-100483833D01*
X40061768Y-100434962D01*
X39949733Y-100425223D01*
X39936200Y-100425200D01*
X39817032Y-100417337D01*
X39768161Y-100372969D01*
X39758422Y-100260934D01*
X39758400Y-100247400D01*
X39750536Y-100128233D01*
X39706168Y-100079362D01*
X39594133Y-100069623D01*
X39580600Y-100069600D01*
X39402800Y-100069600D01*
X39402800Y-99002800D01*
X39047200Y-99002800D01*
X39047200Y-100603000D01*
X39402800Y-100603000D01*
X39410663Y-100483833D01*
X39455031Y-100434962D01*
X39567066Y-100425223D01*
X39580600Y-100425200D01*
X39699767Y-100433064D01*
X39748638Y-100477432D01*
X39758377Y-100589467D01*
X39758400Y-100603000D01*
X39750536Y-100722168D01*
X39706168Y-100771039D01*
X39594133Y-100780778D01*
X39580600Y-100780800D01*
X39461432Y-100772937D01*
X39412561Y-100728569D01*
X39402822Y-100616534D01*
X39402800Y-100603000D01*
X39047200Y-100603000D01*
X39047200Y-100780800D01*
X39402800Y-100780800D01*
X39402800Y-101492000D01*
X39047200Y-101492000D01*
X39047200Y-102203200D01*
X39225000Y-102203200D01*
X39344167Y-102211064D01*
X39393038Y-102255432D01*
X39402777Y-102367467D01*
X39402800Y-102381000D01*
X39394936Y-102500168D01*
X39350568Y-102549039D01*
X39238533Y-102558778D01*
X39225000Y-102558800D01*
X39105832Y-102566664D01*
X39056961Y-102611032D01*
X39047222Y-102723067D01*
X39047200Y-102736600D01*
X39055063Y-102855768D01*
X39099431Y-102904639D01*
X39211466Y-102914378D01*
X39225000Y-102914400D01*
X39344167Y-102922264D01*
X39393038Y-102966632D01*
X39402777Y-103078667D01*
X39402800Y-103092200D01*
X39758400Y-103092200D01*
X39766263Y-102973033D01*
X39810631Y-102924162D01*
X39922666Y-102914423D01*
X39936200Y-102914400D01*
X40114000Y-102914400D01*
X40114000Y-101847600D01*
X40291800Y-101847600D01*
X40410967Y-101839737D01*
X40459838Y-101795369D01*
X40469577Y-101683334D01*
X40469600Y-101669800D01*
X40477463Y-101550633D01*
X40521831Y-101501762D01*
X40633866Y-101492023D01*
X40647400Y-101492000D01*
X40766567Y-101484137D01*
X40815438Y-101439769D01*
X40825177Y-101327734D01*
X40825200Y-101314200D01*
X40833063Y-101195033D01*
X40877431Y-101146162D01*
X40989466Y-101136423D01*
X41003000Y-101136400D01*
X41122167Y-101128537D01*
X41171038Y-101084169D01*
X41180777Y-100972134D01*
X41180800Y-100958600D01*
X41188663Y-100839433D01*
X41233031Y-100790562D01*
X41345066Y-100780823D01*
X41358600Y-100780800D01*
X41477767Y-100772937D01*
X41526638Y-100728569D01*
X41536377Y-100616534D01*
X41536400Y-100603000D01*
X41536400Y-100425200D01*
X40825200Y-100425200D01*
X40825200Y-99714000D01*
X41003000Y-99714000D01*
X41122167Y-99721864D01*
X41171038Y-99766232D01*
X41180777Y-99878267D01*
X41180800Y-99891800D01*
X41180800Y-100069600D01*
X41892000Y-100069600D01*
X41892000Y-99891800D01*
X41899863Y-99772633D01*
X41944231Y-99723762D01*
X42056266Y-99714023D01*
X42069800Y-99714000D01*
X42188967Y-99721864D01*
X42237838Y-99766232D01*
X42247577Y-99878267D01*
X42247600Y-99891800D01*
X42247600Y-100069600D01*
X43670000Y-100069600D01*
X43670000Y-99891800D01*
X43662136Y-99772633D01*
X43617768Y-99723762D01*
X43505733Y-99714023D01*
X43492200Y-99714000D01*
X43314400Y-99714000D01*
X43314400Y-99002800D01*
X44381200Y-99002800D01*
X44381200Y-98825000D01*
X44389063Y-98705833D01*
X44433431Y-98656962D01*
X44545466Y-98647223D01*
X44559000Y-98647200D01*
X44678167Y-98655064D01*
X44727038Y-98699432D01*
X44736777Y-98811467D01*
X44736800Y-98825000D01*
X44728936Y-98944168D01*
X44684568Y-98993039D01*
X44572533Y-99002778D01*
X44559000Y-99002800D01*
X44439832Y-99010664D01*
X44390961Y-99055032D01*
X44381222Y-99167067D01*
X44381200Y-99180600D01*
X44373336Y-99299768D01*
X44328968Y-99348639D01*
X44216933Y-99358378D01*
X44203400Y-99358400D01*
X44084232Y-99366264D01*
X44035361Y-99410632D01*
X44025622Y-99522667D01*
X44025600Y-99536200D01*
X44033463Y-99655368D01*
X44077831Y-99704239D01*
X44189866Y-99713978D01*
X44203400Y-99714000D01*
X44322567Y-99721864D01*
X44371438Y-99766232D01*
X44381177Y-99878267D01*
X44381200Y-99891800D01*
X44389063Y-100010968D01*
X44433431Y-100059839D01*
X44545466Y-100069578D01*
X44559000Y-100069600D01*
X44678167Y-100061737D01*
X44727038Y-100017369D01*
X44736777Y-99905334D01*
X44736800Y-99891800D01*
X44744663Y-99772633D01*
X44789031Y-99723762D01*
X44901066Y-99714023D01*
X44914600Y-99714000D01*
X45033767Y-99706137D01*
X45082638Y-99661769D01*
X45092377Y-99549734D01*
X45092400Y-99536200D01*
X45100263Y-99417033D01*
X45144631Y-99368162D01*
X45256666Y-99358423D01*
X45270200Y-99358400D01*
X45389367Y-99350537D01*
X45438238Y-99306169D01*
X45447977Y-99194134D01*
X45448000Y-99180600D01*
X45448000Y-99002800D01*
X46870400Y-99002800D01*
X46870400Y-99358400D01*
X46159200Y-99358400D01*
X46159200Y-99536200D01*
X46167063Y-99655368D01*
X46211431Y-99704239D01*
X46323466Y-99713978D01*
X46337000Y-99714000D01*
X46456167Y-99721864D01*
X46505038Y-99766232D01*
X46514777Y-99878267D01*
X46514800Y-99891800D01*
X46514800Y-100069600D01*
X45803600Y-100069600D01*
X45803600Y-100247400D01*
X45811463Y-100366568D01*
X45855831Y-100415439D01*
X45967866Y-100425178D01*
X45981400Y-100425200D01*
X46159200Y-100425200D01*
X46159200Y-100603000D01*
X46514800Y-100603000D01*
X46522663Y-100483833D01*
X46567031Y-100434962D01*
X46679066Y-100425223D01*
X46692600Y-100425200D01*
X46870400Y-100425200D01*
X46870400Y-99714000D01*
X47226000Y-99714000D01*
X47226000Y-98647200D01*
X47581600Y-98647200D01*
X47581600Y-99002800D01*
X47937200Y-99002800D01*
X47937200Y-97936000D01*
X49004000Y-97936000D01*
X49715200Y-97936000D01*
X49715200Y-97580400D01*
X50426400Y-97580400D01*
X50426400Y-97936000D01*
X49715200Y-97936000D01*
X49004000Y-97936000D01*
X49004000Y-98825000D01*
X49359600Y-98825000D01*
X49367463Y-98705833D01*
X49411831Y-98656962D01*
X49523866Y-98647223D01*
X49537400Y-98647200D01*
X49656567Y-98639337D01*
X49705438Y-98594969D01*
X49715177Y-98482934D01*
X49715200Y-98469400D01*
X49723063Y-98350233D01*
X49767431Y-98301362D01*
X49879466Y-98291623D01*
X49893000Y-98291600D01*
X50012167Y-98299464D01*
X50061038Y-98343832D01*
X50070777Y-98455867D01*
X50070800Y-98469400D01*
X50062936Y-98588568D01*
X50018568Y-98637439D01*
X49906533Y-98647178D01*
X49893000Y-98647200D01*
X49773832Y-98655064D01*
X49724961Y-98699432D01*
X49715222Y-98811467D01*
X49715200Y-98825000D01*
X49707336Y-98944168D01*
X49662968Y-98993039D01*
X49550933Y-99002778D01*
X49537400Y-99002800D01*
X49418232Y-98994937D01*
X49369361Y-98950569D01*
X49359622Y-98838534D01*
X49359600Y-98825000D01*
X49004000Y-98825000D01*
X49004000Y-99002800D01*
X47937200Y-99002800D01*
X47581600Y-99002800D01*
X47581600Y-99358400D01*
X47937200Y-99358400D01*
X47937200Y-100069600D01*
X48115000Y-100069600D01*
X48234167Y-100061737D01*
X48283038Y-100017369D01*
X48292777Y-99905334D01*
X48292800Y-99891800D01*
X48300663Y-99772633D01*
X48345031Y-99723762D01*
X48457066Y-99714023D01*
X48470600Y-99714000D01*
X48589767Y-99706137D01*
X48638638Y-99661769D01*
X48648377Y-99549734D01*
X48648400Y-99536200D01*
X48656263Y-99417033D01*
X48700631Y-99368162D01*
X48812666Y-99358423D01*
X48826200Y-99358400D01*
X49004000Y-99358400D01*
X49004000Y-100069600D01*
X49181800Y-100069600D01*
X49300967Y-100077464D01*
X49349838Y-100121832D01*
X49359577Y-100233867D01*
X49359600Y-100247400D01*
X49367463Y-100366568D01*
X49411831Y-100415439D01*
X49523866Y-100425178D01*
X49537400Y-100425200D01*
X49715200Y-100425200D01*
X49715200Y-99714000D01*
X50070800Y-99714000D01*
X50070800Y-100780800D01*
X49893000Y-100780800D01*
X49773832Y-100788664D01*
X49724961Y-100833032D01*
X49715222Y-100945067D01*
X49715200Y-100958600D01*
X49715200Y-101136400D01*
X49004000Y-101136400D01*
X49004000Y-100780800D01*
X48292800Y-100780800D01*
X48292800Y-100958600D01*
X48284936Y-101077768D01*
X48240568Y-101126639D01*
X48128533Y-101136378D01*
X48115000Y-101136400D01*
X47995832Y-101144264D01*
X47946961Y-101188632D01*
X47937222Y-101300667D01*
X47937200Y-101314200D01*
X47945063Y-101433368D01*
X47989431Y-101482239D01*
X48101466Y-101491978D01*
X48115000Y-101492000D01*
X48234167Y-101499864D01*
X48283038Y-101544232D01*
X48292777Y-101656267D01*
X48292800Y-101669800D01*
X48284936Y-101788968D01*
X48240568Y-101837839D01*
X48128533Y-101847578D01*
X48115000Y-101847600D01*
X47995832Y-101855464D01*
X47946961Y-101899832D01*
X47937222Y-102011867D01*
X47937200Y-102025400D01*
X47937200Y-102203200D01*
X47226000Y-102203200D01*
X47226000Y-102025400D01*
X47233863Y-101906233D01*
X47278231Y-101857362D01*
X47390266Y-101847623D01*
X47403800Y-101847600D01*
X47522967Y-101839737D01*
X47571838Y-101795369D01*
X47581577Y-101683334D01*
X47581600Y-101669800D01*
X47573736Y-101550633D01*
X47529368Y-101501762D01*
X47417333Y-101492023D01*
X47403800Y-101492000D01*
X47284632Y-101484137D01*
X47235761Y-101439769D01*
X47226022Y-101327734D01*
X47226000Y-101314200D01*
X47218136Y-101195033D01*
X47173768Y-101146162D01*
X47061733Y-101136423D01*
X47048200Y-101136400D01*
X46929032Y-101128537D01*
X46880161Y-101084169D01*
X46870422Y-100972134D01*
X46870400Y-100958600D01*
X46862536Y-100839433D01*
X46818168Y-100790562D01*
X46706133Y-100780823D01*
X46692600Y-100780800D01*
X46573432Y-100772937D01*
X46524561Y-100728569D01*
X46514822Y-100616534D01*
X46514800Y-100603000D01*
X46159200Y-100603000D01*
X46159200Y-101492000D01*
X44736800Y-101492000D01*
X44736800Y-102203200D01*
X45803600Y-102203200D01*
X46159200Y-102203200D01*
X46159200Y-101492000D01*
X46337000Y-101492000D01*
X46456167Y-101499864D01*
X46505038Y-101544232D01*
X46514777Y-101656267D01*
X46514800Y-101669800D01*
X46522663Y-101788968D01*
X46567031Y-101837839D01*
X46679066Y-101847578D01*
X46692600Y-101847600D01*
X46811767Y-101855464D01*
X46860638Y-101899832D01*
X46870377Y-102011867D01*
X46870400Y-102025400D01*
X46870400Y-102203200D01*
X46159200Y-102203200D01*
X45803600Y-102203200D01*
X45803600Y-102381000D01*
X45811463Y-102500168D01*
X45855831Y-102549039D01*
X45967866Y-102558778D01*
X45981400Y-102558800D01*
X46100567Y-102566664D01*
X46149438Y-102611032D01*
X46159177Y-102723067D01*
X46159200Y-102736600D01*
X46159200Y-102914400D01*
X46514800Y-102914400D01*
X46514800Y-102558800D01*
X47581600Y-102558800D01*
X47581600Y-102914400D01*
X46514800Y-102914400D01*
X46159200Y-102914400D01*
X45448000Y-102914400D01*
X45448000Y-103270000D01*
X46870400Y-103270000D01*
X47581600Y-103270000D01*
X47581600Y-102914400D01*
X48292800Y-102914400D01*
X48292800Y-103270000D01*
X47581600Y-103270000D01*
X46870400Y-103270000D01*
X46870400Y-103447800D01*
X46862536Y-103566968D01*
X46818168Y-103615839D01*
X46706133Y-103625578D01*
X46692600Y-103625600D01*
X46573432Y-103633464D01*
X46524561Y-103677832D01*
X46514822Y-103789867D01*
X46514800Y-103803400D01*
X46506936Y-103922568D01*
X46462568Y-103971439D01*
X46350533Y-103981178D01*
X46337000Y-103981200D01*
X46217832Y-103989064D01*
X46168961Y-104033432D01*
X46159222Y-104145467D01*
X46159200Y-104159000D01*
X46159200Y-104336800D01*
X45448000Y-104336800D01*
X45448000Y-104159000D01*
X45440136Y-104039833D01*
X45395768Y-103990962D01*
X45283733Y-103981223D01*
X45270200Y-103981200D01*
X45151032Y-103973337D01*
X45102161Y-103928969D01*
X45092422Y-103816934D01*
X45092400Y-103803400D01*
X45084536Y-103684233D01*
X45040168Y-103635362D01*
X44928133Y-103625623D01*
X44914600Y-103625600D01*
X44795432Y-103633464D01*
X44746561Y-103677832D01*
X44736822Y-103789867D01*
X44736800Y-103803400D01*
X44736800Y-103981200D01*
X44025600Y-103981200D01*
X44025600Y-103803400D01*
X44017736Y-103684233D01*
X43973368Y-103635362D01*
X43861333Y-103625623D01*
X43847800Y-103625600D01*
X43728632Y-103617737D01*
X43679761Y-103573369D01*
X43670022Y-103461334D01*
X43670000Y-103447800D01*
X43662136Y-103328633D01*
X43617768Y-103279762D01*
X43505733Y-103270023D01*
X43492200Y-103270000D01*
X43314400Y-103270000D01*
X43314400Y-103981200D01*
X43492200Y-103981200D01*
X43611367Y-103989064D01*
X43660238Y-104033432D01*
X43669977Y-104145467D01*
X43670000Y-104159000D01*
X43662136Y-104278168D01*
X43617768Y-104327039D01*
X43505733Y-104336778D01*
X43492200Y-104336800D01*
X43373032Y-104344664D01*
X43324161Y-104389032D01*
X43314422Y-104501067D01*
X43314400Y-104514600D01*
X43306536Y-104633768D01*
X43262168Y-104682639D01*
X43150133Y-104692378D01*
X43136600Y-104692400D01*
X43017432Y-104700264D01*
X42968561Y-104744632D01*
X42958822Y-104856667D01*
X42958800Y-104870200D01*
X42950936Y-104989368D01*
X42906568Y-105038239D01*
X42794533Y-105047978D01*
X42781000Y-105048000D01*
X42661832Y-105040137D01*
X42612961Y-104995769D01*
X42603222Y-104883734D01*
X42603200Y-104870200D01*
X42595336Y-104751033D01*
X42550968Y-104702162D01*
X42438933Y-104692423D01*
X42425400Y-104692400D01*
X42306232Y-104684537D01*
X42257361Y-104640169D01*
X42247622Y-104528134D01*
X42247600Y-104514600D01*
X42239736Y-104395433D01*
X42195368Y-104346562D01*
X42083333Y-104336823D01*
X42069800Y-104336800D01*
X41892000Y-104336800D01*
X41892000Y-103625600D01*
X41714200Y-103625600D01*
X41595032Y-103633464D01*
X41546161Y-103677832D01*
X41536422Y-103789867D01*
X41536400Y-103803400D01*
X41528536Y-103922568D01*
X41484168Y-103971439D01*
X41372133Y-103981178D01*
X41358600Y-103981200D01*
X41239432Y-103973337D01*
X41190561Y-103928969D01*
X41180822Y-103816934D01*
X41180800Y-103803400D01*
X41188663Y-103684233D01*
X41233031Y-103635362D01*
X41345066Y-103625623D01*
X41358600Y-103625600D01*
X41477767Y-103617737D01*
X41526638Y-103573369D01*
X41536377Y-103461334D01*
X41536400Y-103447800D01*
X41536400Y-103270000D01*
X40469600Y-103270000D01*
X40469600Y-103447800D01*
X40461736Y-103566968D01*
X40417368Y-103615839D01*
X40305333Y-103625578D01*
X40291800Y-103625600D01*
X40172632Y-103617737D01*
X40123761Y-103573369D01*
X40114022Y-103461334D01*
X40114000Y-103447800D01*
X40106136Y-103328633D01*
X40061768Y-103279762D01*
X39949733Y-103270023D01*
X39936200Y-103270000D01*
X39817032Y-103262137D01*
X39768161Y-103217769D01*
X39758422Y-103105734D01*
X39758400Y-103092200D01*
X39402800Y-103092200D01*
X39410663Y-103211368D01*
X39455031Y-103260239D01*
X39567066Y-103269978D01*
X39580600Y-103270000D01*
X39758400Y-103270000D01*
X39758400Y-103981200D01*
X39580600Y-103981200D01*
X39461432Y-103973337D01*
X39412561Y-103928969D01*
X39402822Y-103816934D01*
X39402800Y-103803400D01*
X39394936Y-103684233D01*
X39350568Y-103635362D01*
X39238533Y-103625623D01*
X39225000Y-103625600D01*
X39105832Y-103633464D01*
X39056961Y-103677832D01*
X39047222Y-103789867D01*
X39047200Y-103803400D01*
X39055063Y-103922568D01*
X39099431Y-103971439D01*
X39211466Y-103981178D01*
X39225000Y-103981200D01*
X39344167Y-103989064D01*
X39393038Y-104033432D01*
X39402777Y-104145467D01*
X39402800Y-104159000D01*
X39394936Y-104278168D01*
X39350568Y-104327039D01*
X39238533Y-104336778D01*
X39225000Y-104336800D01*
X39047200Y-104336800D01*
X39047200Y-104692400D01*
X39758400Y-104692400D01*
X39758400Y-104336800D01*
X40469600Y-104336800D01*
X40469600Y-104159000D01*
X40477463Y-104039833D01*
X40521831Y-103990962D01*
X40633866Y-103981223D01*
X40647400Y-103981200D01*
X40825200Y-103981200D01*
X40825200Y-104514600D01*
X41180800Y-104514600D01*
X41188663Y-104395433D01*
X41233031Y-104346562D01*
X41345066Y-104336823D01*
X41358600Y-104336800D01*
X41477767Y-104344664D01*
X41526638Y-104389032D01*
X41536377Y-104501067D01*
X41536400Y-104514600D01*
X41528536Y-104633768D01*
X41484168Y-104682639D01*
X41372133Y-104692378D01*
X41358600Y-104692400D01*
X41239432Y-104684537D01*
X41190561Y-104640169D01*
X41180822Y-104528134D01*
X41180800Y-104514600D01*
X40825200Y-104514600D01*
X40825200Y-104692400D01*
X39758400Y-104692400D01*
X39047200Y-104692400D01*
X39047200Y-105048000D01*
X40825200Y-105048000D01*
X40825200Y-104870200D01*
X40833063Y-104751033D01*
X40877431Y-104702162D01*
X40989466Y-104692423D01*
X41003000Y-104692400D01*
X41122167Y-104700264D01*
X41171038Y-104744632D01*
X41180777Y-104856667D01*
X41180800Y-104870200D01*
X41180800Y-105048000D01*
X42247600Y-105048000D01*
X42247600Y-105225800D01*
X42239736Y-105344968D01*
X42195368Y-105393839D01*
X42083333Y-105403578D01*
X42069800Y-105403600D01*
X41892000Y-105403600D01*
X41892000Y-105581400D01*
X42247600Y-105581400D01*
X42255463Y-105462233D01*
X42299831Y-105413362D01*
X42411866Y-105403623D01*
X42425400Y-105403600D01*
X42544567Y-105411464D01*
X42593438Y-105455832D01*
X42603177Y-105567867D01*
X42603200Y-105581400D01*
X42958800Y-105581400D01*
X42966663Y-105462233D01*
X43011031Y-105413362D01*
X43123066Y-105403623D01*
X43136600Y-105403600D01*
X43255767Y-105411464D01*
X43304638Y-105455832D01*
X43314377Y-105567867D01*
X43314400Y-105581400D01*
X43306536Y-105700568D01*
X43262168Y-105749439D01*
X43150133Y-105759178D01*
X43136600Y-105759200D01*
X43017432Y-105751337D01*
X42968561Y-105706969D01*
X42958822Y-105594934D01*
X42958800Y-105581400D01*
X42603200Y-105581400D01*
X42595336Y-105700568D01*
X42550968Y-105749439D01*
X42438933Y-105759178D01*
X42425400Y-105759200D01*
X42306232Y-105751337D01*
X42257361Y-105706969D01*
X42247622Y-105594934D01*
X42247600Y-105581400D01*
X41892000Y-105581400D01*
X41892000Y-106114800D01*
X42069800Y-106114800D01*
X42188967Y-106122664D01*
X42237838Y-106167032D01*
X42247577Y-106279067D01*
X42247600Y-106292600D01*
X42239736Y-106411768D01*
X42195368Y-106460639D01*
X42083333Y-106470378D01*
X42069800Y-106470400D01*
X41950632Y-106478264D01*
X41901761Y-106522632D01*
X41892022Y-106634667D01*
X41892000Y-106648200D01*
X41892000Y-106826000D01*
X42958800Y-106826000D01*
X42958800Y-106648200D01*
X42950936Y-106529033D01*
X42906568Y-106480162D01*
X42794533Y-106470423D01*
X42781000Y-106470400D01*
X42603200Y-106470400D01*
X42603200Y-105759200D01*
X42781000Y-105759200D01*
X42900167Y-105767064D01*
X42949038Y-105811432D01*
X42958777Y-105923467D01*
X42958800Y-105937000D01*
X42958800Y-106114800D01*
X43670000Y-106114800D01*
X43670000Y-105403600D01*
X43314400Y-105403600D01*
X43314400Y-104692400D01*
X44736800Y-104692400D01*
X44736800Y-104514600D01*
X44744663Y-104395433D01*
X44789031Y-104346562D01*
X44901066Y-104336823D01*
X44914600Y-104336800D01*
X45092400Y-104336800D01*
X45092400Y-105048000D01*
X44736800Y-105048000D01*
X44736800Y-105759200D01*
X44914600Y-105759200D01*
X45033767Y-105767064D01*
X45082638Y-105811432D01*
X45092377Y-105923467D01*
X45092400Y-105937000D01*
X45092400Y-106114800D01*
X44381200Y-106114800D01*
X44381200Y-106292600D01*
X44373336Y-106411768D01*
X44328968Y-106460639D01*
X44216933Y-106470378D01*
X44203400Y-106470400D01*
X44084232Y-106478264D01*
X44035361Y-106522632D01*
X44025622Y-106634667D01*
X44025600Y-106648200D01*
X44017736Y-106767368D01*
X43973368Y-106816239D01*
X43861333Y-106825978D01*
X43847800Y-106826000D01*
X43728632Y-106818137D01*
X43679761Y-106773769D01*
X43670022Y-106661734D01*
X43670000Y-106648200D01*
X43662136Y-106529033D01*
X43617768Y-106480162D01*
X43505733Y-106470423D01*
X43492200Y-106470400D01*
X43314400Y-106470400D01*
X43314400Y-107003800D01*
X44025600Y-107003800D01*
X44033463Y-106884633D01*
X44077831Y-106835762D01*
X44189866Y-106826023D01*
X44203400Y-106826000D01*
X44322567Y-106833864D01*
X44371438Y-106878232D01*
X44381177Y-106990267D01*
X44381200Y-107003800D01*
X44373336Y-107122968D01*
X44328968Y-107171839D01*
X44216933Y-107181578D01*
X44203400Y-107181600D01*
X44736800Y-107181600D01*
X44736800Y-106470400D01*
X44914600Y-106470400D01*
X45033767Y-106478264D01*
X45082638Y-106522632D01*
X45092377Y-106634667D01*
X45092400Y-106648200D01*
X45100263Y-106767368D01*
X45144631Y-106816239D01*
X45256666Y-106825978D01*
X45270200Y-106826000D01*
X45389367Y-106818137D01*
X45438238Y-106773769D01*
X45447977Y-106661734D01*
X45448000Y-106648200D01*
X45448000Y-106470400D01*
X46514800Y-106470400D01*
X46514800Y-106292600D01*
X46522663Y-106173433D01*
X46567031Y-106124562D01*
X46679066Y-106114823D01*
X46692600Y-106114800D01*
X46811767Y-106106937D01*
X46860638Y-106062569D01*
X46870377Y-105950534D01*
X46870400Y-105937000D01*
X46862536Y-105817833D01*
X46818168Y-105768962D01*
X46706133Y-105759223D01*
X46692600Y-105759200D01*
X46573432Y-105751337D01*
X46524561Y-105706969D01*
X46514822Y-105594934D01*
X46514800Y-105581400D01*
X46506936Y-105462233D01*
X46462568Y-105413362D01*
X46350533Y-105403623D01*
X46337000Y-105403600D01*
X46159200Y-105403600D01*
X46159200Y-106114800D01*
X45448000Y-106114800D01*
X45448000Y-105937000D01*
X45440136Y-105817833D01*
X45395768Y-105768962D01*
X45283733Y-105759223D01*
X45270200Y-105759200D01*
X45092400Y-105759200D01*
X45092400Y-105048000D01*
X45270200Y-105048000D01*
X45389367Y-105040137D01*
X45438238Y-104995769D01*
X45447977Y-104883734D01*
X45448000Y-104870200D01*
X45455863Y-104751033D01*
X45500231Y-104702162D01*
X45612266Y-104692423D01*
X45625800Y-104692400D01*
X45744967Y-104700264D01*
X45793838Y-104744632D01*
X45803577Y-104856667D01*
X45803600Y-104870200D01*
X45803600Y-105048000D01*
X46514800Y-105048000D01*
X46514800Y-104870200D01*
X46522663Y-104751033D01*
X46567031Y-104702162D01*
X46679066Y-104692423D01*
X46692600Y-104692400D01*
X46870400Y-104692400D01*
X46870400Y-103981200D01*
X47048200Y-103981200D01*
X47167367Y-103973337D01*
X47216238Y-103928969D01*
X47225977Y-103816934D01*
X47226000Y-103803400D01*
X47233863Y-103684233D01*
X47278231Y-103635362D01*
X47390266Y-103625623D01*
X47403800Y-103625600D01*
X47522967Y-103633464D01*
X47571838Y-103677832D01*
X47581577Y-103789867D01*
X47581600Y-103803400D01*
X47589463Y-103922568D01*
X47633831Y-103971439D01*
X47745866Y-103981178D01*
X47759400Y-103981200D01*
X47878567Y-103973337D01*
X47927438Y-103928969D01*
X47937177Y-103816934D01*
X47937200Y-103803400D01*
X47945063Y-103684233D01*
X47989431Y-103635362D01*
X48101466Y-103625623D01*
X48115000Y-103625600D01*
X48234167Y-103633464D01*
X48283038Y-103677832D01*
X48292777Y-103789867D01*
X48292800Y-103803400D01*
X48284936Y-103922568D01*
X48240568Y-103971439D01*
X48128533Y-103981178D01*
X48115000Y-103981200D01*
X47995832Y-103989064D01*
X47946961Y-104033432D01*
X47937222Y-104145467D01*
X47937200Y-104159000D01*
X48648400Y-104159000D01*
X48656263Y-104039833D01*
X48700631Y-103990962D01*
X48812666Y-103981223D01*
X48826200Y-103981200D01*
X48945367Y-103973337D01*
X48994238Y-103928969D01*
X49003977Y-103816934D01*
X49004000Y-103803400D01*
X49004000Y-103625600D01*
X49715200Y-103625600D01*
X49715200Y-103803400D01*
X49723063Y-103922568D01*
X49767431Y-103971439D01*
X49879466Y-103981178D01*
X49893000Y-103981200D01*
X50012167Y-103989064D01*
X50061038Y-104033432D01*
X50070777Y-104145467D01*
X50070800Y-104159000D01*
X50062936Y-104278168D01*
X50018568Y-104327039D01*
X49906533Y-104336778D01*
X49893000Y-104336800D01*
X49773832Y-104328937D01*
X49724961Y-104284569D01*
X49715222Y-104172534D01*
X49715200Y-104159000D01*
X49715200Y-103981200D01*
X49004000Y-103981200D01*
X49004000Y-104159000D01*
X48996136Y-104278168D01*
X48951768Y-104327039D01*
X48839733Y-104336778D01*
X48826200Y-104336800D01*
X48707032Y-104328937D01*
X48658161Y-104284569D01*
X48648422Y-104172534D01*
X48648400Y-104159000D01*
X47937200Y-104159000D01*
X47945063Y-104278168D01*
X47989431Y-104327039D01*
X48101466Y-104336778D01*
X48115000Y-104336800D01*
X48234167Y-104344664D01*
X48283038Y-104389032D01*
X48292777Y-104501067D01*
X48292800Y-104514600D01*
X48292800Y-104692400D01*
X47581600Y-104692400D01*
X47581600Y-104514600D01*
X47573736Y-104395433D01*
X47529368Y-104346562D01*
X47417333Y-104336823D01*
X47403800Y-104336800D01*
X47284632Y-104344664D01*
X47235761Y-104389032D01*
X47226022Y-104501067D01*
X47226000Y-104514600D01*
X47218136Y-104633768D01*
X47173768Y-104682639D01*
X47061733Y-104692378D01*
X47048200Y-104692400D01*
X46929032Y-104700264D01*
X46880161Y-104744632D01*
X46870422Y-104856667D01*
X46870400Y-104870200D01*
X46862536Y-104989368D01*
X46818168Y-105038239D01*
X46706133Y-105047978D01*
X46692600Y-105048000D01*
X46573432Y-105055864D01*
X46524561Y-105100232D01*
X46514822Y-105212267D01*
X46514800Y-105225800D01*
X46522663Y-105344968D01*
X46567031Y-105393839D01*
X46679066Y-105403578D01*
X46692600Y-105403600D01*
X46811767Y-105411464D01*
X46860638Y-105455832D01*
X46870377Y-105567867D01*
X46870400Y-105581400D01*
X46878263Y-105700568D01*
X46922631Y-105749439D01*
X47034666Y-105759178D01*
X47048200Y-105759200D01*
X47167367Y-105751337D01*
X47216238Y-105706969D01*
X47225977Y-105594934D01*
X47226000Y-105581400D01*
X47233863Y-105462233D01*
X47278231Y-105413362D01*
X47390266Y-105403623D01*
X47403800Y-105403600D01*
X47581600Y-105403600D01*
X47581600Y-106114800D01*
X47403800Y-106114800D01*
X47284632Y-106122664D01*
X47235761Y-106167032D01*
X47226022Y-106279067D01*
X47226000Y-106292600D01*
X47233863Y-106411768D01*
X47278231Y-106460639D01*
X47390266Y-106470378D01*
X47403800Y-106470400D01*
X47522967Y-106478264D01*
X47571838Y-106522632D01*
X47581577Y-106634667D01*
X47581600Y-106648200D01*
X47573736Y-106767368D01*
X47529368Y-106816239D01*
X47417333Y-106825978D01*
X47403800Y-106826000D01*
X47284632Y-106833864D01*
X47235761Y-106878232D01*
X47226022Y-106990267D01*
X47226000Y-107003800D01*
X47218136Y-107122968D01*
X47173768Y-107171839D01*
X47061733Y-107181578D01*
X47048200Y-107181600D01*
X46929032Y-107173737D01*
X46880161Y-107129369D01*
X46870422Y-107017334D01*
X46870400Y-107003800D01*
X46862536Y-106884633D01*
X46818168Y-106835762D01*
X46706133Y-106826023D01*
X46692600Y-106826000D01*
X46573432Y-106833864D01*
X46524561Y-106878232D01*
X46514822Y-106990267D01*
X46514800Y-107003800D01*
X46506936Y-107122968D01*
X46462568Y-107171839D01*
X46350533Y-107181578D01*
X46337000Y-107181600D01*
X46217832Y-107189464D01*
X46168961Y-107233832D01*
X46159222Y-107345867D01*
X46159200Y-107359400D01*
X46159200Y-107537200D01*
X45092400Y-107537200D01*
X45092400Y-107359400D01*
X45084536Y-107240233D01*
X45040168Y-107191362D01*
X44928133Y-107181623D01*
X44914600Y-107181600D01*
X44736800Y-107181600D01*
X44203400Y-107181600D01*
X44084232Y-107173737D01*
X44035361Y-107129369D01*
X44025622Y-107017334D01*
X44025600Y-107003800D01*
X43314400Y-107003800D01*
X43314400Y-107181600D01*
X43492200Y-107181600D01*
X43611367Y-107189464D01*
X43660238Y-107233832D01*
X43669977Y-107345867D01*
X43670000Y-107359400D01*
X43662136Y-107478568D01*
X43617768Y-107527439D01*
X43505733Y-107537178D01*
X43492200Y-107537200D01*
X43373032Y-107545064D01*
X43324161Y-107589432D01*
X43314422Y-107701467D01*
X43314400Y-107715000D01*
X43314400Y-107892800D01*
X44736800Y-107892800D01*
X44736800Y-107715000D01*
X44744663Y-107595833D01*
X44789031Y-107546962D01*
X44901066Y-107537223D01*
X44914600Y-107537200D01*
X45033767Y-107545064D01*
X45082638Y-107589432D01*
X45092377Y-107701467D01*
X45092400Y-107715000D01*
X45092400Y-107892800D01*
X46514800Y-107892800D01*
X46514800Y-107181600D01*
X46692600Y-107181600D01*
X46811767Y-107189464D01*
X46860638Y-107233832D01*
X46870377Y-107345867D01*
X46870400Y-107359400D01*
X46878263Y-107478568D01*
X46922631Y-107527439D01*
X47034666Y-107537178D01*
X47048200Y-107537200D01*
X47167367Y-107545064D01*
X47216238Y-107589432D01*
X47225977Y-107701467D01*
X47226000Y-107715000D01*
X47226000Y-107892800D01*
X47937200Y-107892800D01*
X47937200Y-107537200D01*
X47226000Y-107537200D01*
X47226000Y-107359400D01*
X47233863Y-107240233D01*
X47278231Y-107191362D01*
X47390266Y-107181623D01*
X47403800Y-107181600D01*
X47522967Y-107173737D01*
X47571838Y-107129369D01*
X47581577Y-107017334D01*
X47581600Y-107003800D01*
X47589463Y-106884633D01*
X47633831Y-106835762D01*
X47745866Y-106826023D01*
X47759400Y-106826000D01*
X47878567Y-106818137D01*
X47927438Y-106773769D01*
X47937177Y-106661734D01*
X47937200Y-106648200D01*
X47929336Y-106529033D01*
X47884968Y-106480162D01*
X47772933Y-106470423D01*
X47759400Y-106470400D01*
X47640232Y-106462537D01*
X47591361Y-106418169D01*
X47581622Y-106306134D01*
X47581600Y-106292600D01*
X47589463Y-106173433D01*
X47633831Y-106124562D01*
X47745866Y-106114823D01*
X47759400Y-106114800D01*
X47937200Y-106114800D01*
X47937200Y-105403600D01*
X47759400Y-105403600D01*
X47640232Y-105395737D01*
X47591361Y-105351369D01*
X47581622Y-105239334D01*
X47581600Y-105225800D01*
X47581600Y-105048000D01*
X48292800Y-105048000D01*
X48292800Y-104870200D01*
X48300663Y-104751033D01*
X48345031Y-104702162D01*
X48457066Y-104692423D01*
X48470600Y-104692400D01*
X48589767Y-104700264D01*
X48638638Y-104744632D01*
X48648377Y-104856667D01*
X48648400Y-104870200D01*
X48656263Y-104989368D01*
X48700631Y-105038239D01*
X48812666Y-105047978D01*
X48826200Y-105048000D01*
X49004000Y-105048000D01*
X49004000Y-104336800D01*
X49715200Y-104336800D01*
X49715200Y-104514600D01*
X49707336Y-104633768D01*
X49662968Y-104682639D01*
X49550933Y-104692378D01*
X49537400Y-104692400D01*
X49418232Y-104700264D01*
X49369361Y-104744632D01*
X49359622Y-104856667D01*
X49359600Y-104870200D01*
X49367463Y-104989368D01*
X49411831Y-105038239D01*
X49523866Y-105047978D01*
X49537400Y-105048000D01*
X49656567Y-105040137D01*
X49705438Y-104995769D01*
X49715177Y-104883734D01*
X49715200Y-104870200D01*
X49723063Y-104751033D01*
X49767431Y-104702162D01*
X49879466Y-104692423D01*
X49893000Y-104692400D01*
X50012167Y-104700264D01*
X50061038Y-104744632D01*
X50070777Y-104856667D01*
X50070800Y-104870200D01*
X50078663Y-104989368D01*
X50123031Y-105038239D01*
X50235066Y-105047978D01*
X50248600Y-105048000D01*
X50367767Y-105040137D01*
X50416638Y-104995769D01*
X50426377Y-104883734D01*
X50426400Y-104870200D01*
X50434263Y-104751033D01*
X50478631Y-104702162D01*
X50590666Y-104692423D01*
X50604200Y-104692400D01*
X50723367Y-104684537D01*
X50772238Y-104640169D01*
X50781977Y-104528134D01*
X50782000Y-104514600D01*
X50774136Y-104395433D01*
X50729768Y-104346562D01*
X50617733Y-104336823D01*
X50604200Y-104336800D01*
X50485032Y-104328937D01*
X50436161Y-104284569D01*
X50426422Y-104172534D01*
X50426400Y-104159000D01*
X50418536Y-104039833D01*
X50374168Y-103990962D01*
X50262133Y-103981223D01*
X50248600Y-103981200D01*
X50129432Y-103973337D01*
X50080561Y-103928969D01*
X50070822Y-103816934D01*
X50070800Y-103803400D01*
X50062936Y-103684233D01*
X50018568Y-103635362D01*
X49906533Y-103625623D01*
X49893000Y-103625600D01*
X49773832Y-103617737D01*
X49724961Y-103573369D01*
X49715222Y-103461334D01*
X49715200Y-103447800D01*
X49715200Y-103270000D01*
X49004000Y-103270000D01*
X49004000Y-103625600D01*
X48292800Y-103625600D01*
X48292800Y-103447800D01*
X48300663Y-103328633D01*
X48345031Y-103279762D01*
X48457066Y-103270023D01*
X48470600Y-103270000D01*
X48589767Y-103262137D01*
X48638638Y-103217769D01*
X48648377Y-103105734D01*
X48648400Y-103092200D01*
X48640536Y-102973033D01*
X48596168Y-102924162D01*
X48484133Y-102914423D01*
X48470600Y-102914400D01*
X48292800Y-102914400D01*
X48292800Y-101847600D01*
X48470600Y-101847600D01*
X48648400Y-101847600D01*
X48648400Y-101492000D01*
X49359600Y-101492000D01*
X49359600Y-101847600D01*
X48648400Y-101847600D01*
X48470600Y-101847600D01*
X48589767Y-101855464D01*
X48638638Y-101899832D01*
X48648377Y-102011867D01*
X48648400Y-102025400D01*
X48648400Y-102203200D01*
X49359600Y-102203200D01*
X49359600Y-102025400D01*
X49367463Y-101906233D01*
X49411831Y-101857362D01*
X49523866Y-101847623D01*
X49537400Y-101847600D01*
X49715200Y-101847600D01*
X49715200Y-101136400D01*
X50070800Y-101136400D01*
X50070800Y-102203200D01*
X49893000Y-102203200D01*
X49773832Y-102211064D01*
X49724961Y-102255432D01*
X49715222Y-102367467D01*
X49715200Y-102381000D01*
X49723063Y-102500168D01*
X49767431Y-102549039D01*
X49879466Y-102558778D01*
X49893000Y-102558800D01*
X50070800Y-102558800D01*
X50070800Y-103270000D01*
X50782000Y-103270000D01*
X50782000Y-103092200D01*
X50774136Y-102973033D01*
X50729768Y-102924162D01*
X50617733Y-102914423D01*
X50604200Y-102914400D01*
X50485032Y-102906537D01*
X50436161Y-102862169D01*
X50426422Y-102750134D01*
X50426400Y-102736600D01*
X50418536Y-102617433D01*
X50374168Y-102568562D01*
X50262133Y-102558823D01*
X50248600Y-102558800D01*
X50129432Y-102550937D01*
X50080561Y-102506569D01*
X50070822Y-102394534D01*
X50070800Y-102381000D01*
X50078663Y-102261833D01*
X50123031Y-102212962D01*
X50235066Y-102203223D01*
X50248600Y-102203200D01*
X50367767Y-102195337D01*
X50416638Y-102150969D01*
X50426377Y-102038934D01*
X50426400Y-102025400D01*
X50434263Y-101906233D01*
X50478631Y-101857362D01*
X50590666Y-101847623D01*
X50604200Y-101847600D01*
X50723367Y-101839737D01*
X50772238Y-101795369D01*
X50781977Y-101683334D01*
X50782000Y-101669800D01*
X50774136Y-101550633D01*
X50729768Y-101501762D01*
X50617733Y-101492023D01*
X50604200Y-101492000D01*
X50485032Y-101484137D01*
X50436161Y-101439769D01*
X50426422Y-101327734D01*
X50426400Y-101314200D01*
X50418536Y-101195033D01*
X50374168Y-101146162D01*
X50262133Y-101136423D01*
X50248600Y-101136400D01*
X50129432Y-101128537D01*
X50080561Y-101084169D01*
X50070822Y-100972134D01*
X50070800Y-100958600D01*
X50078663Y-100839433D01*
X50123031Y-100790562D01*
X50235066Y-100780823D01*
X50248600Y-100780800D01*
X50367767Y-100772937D01*
X50416638Y-100728569D01*
X50426377Y-100616534D01*
X50426400Y-100603000D01*
X50434263Y-100483833D01*
X50478631Y-100434962D01*
X50590666Y-100425223D01*
X50604200Y-100425200D01*
X50723367Y-100417337D01*
X50772238Y-100372969D01*
X50781977Y-100260934D01*
X50782000Y-100247400D01*
X50774136Y-100128233D01*
X50729768Y-100079362D01*
X50617733Y-100069623D01*
X50604200Y-100069600D01*
X50485032Y-100061737D01*
X50436161Y-100017369D01*
X50426422Y-99905334D01*
X50426400Y-99891800D01*
X50418536Y-99772633D01*
X50374168Y-99723762D01*
X50262133Y-99714023D01*
X50248600Y-99714000D01*
X50129432Y-99706137D01*
X50080561Y-99661769D01*
X50070822Y-99549734D01*
X50070800Y-99536200D01*
X50062936Y-99417033D01*
X50018568Y-99368162D01*
X49906533Y-99358423D01*
X49893000Y-99358400D01*
X49773832Y-99350537D01*
X49724961Y-99306169D01*
X49715222Y-99194134D01*
X49715200Y-99180600D01*
X49723063Y-99061433D01*
X49767431Y-99012562D01*
X49879466Y-99002823D01*
X49893000Y-99002800D01*
X50012167Y-98994937D01*
X50061038Y-98950569D01*
X50070777Y-98838534D01*
X50070800Y-98825000D01*
X50078663Y-98705833D01*
X50123031Y-98656962D01*
X50235066Y-98647223D01*
X50248600Y-98647200D01*
X50426400Y-98647200D01*
X50426400Y-97936000D01*
X50782000Y-97936000D01*
X50782000Y-97936000D01*
G37*
X50782000Y-97936000D02*
X50782000Y-97224800D01*
X50070800Y-97224800D01*
X50070800Y-96513600D01*
X50248600Y-96513600D01*
X50367767Y-96505737D01*
X50416638Y-96461369D01*
X50426377Y-96349334D01*
X50426400Y-96335800D01*
X50418536Y-96216633D01*
X50374168Y-96167762D01*
X50262133Y-96158023D01*
X50248600Y-96158000D01*
X50129432Y-96165864D01*
X50080561Y-96210232D01*
X50070822Y-96322267D01*
X50070800Y-96335800D01*
X50062936Y-96454968D01*
X50018568Y-96503839D01*
X49906533Y-96513578D01*
X49893000Y-96513600D01*
X49773832Y-96505737D01*
X49724961Y-96461369D01*
X49715222Y-96349334D01*
X49715200Y-96335800D01*
X49707336Y-96216633D01*
X49662968Y-96167762D01*
X49550933Y-96158023D01*
X49537400Y-96158000D01*
X49359600Y-96158000D01*
X49359600Y-96869200D01*
X49537400Y-96869200D01*
X49656567Y-96877064D01*
X49705438Y-96921432D01*
X49715177Y-97033467D01*
X49715200Y-97047000D01*
X49715200Y-97224800D01*
X48648400Y-97224800D01*
X48648400Y-96513600D01*
X48470600Y-96513600D01*
X48351432Y-96505737D01*
X48302561Y-96461369D01*
X48292822Y-96349334D01*
X48292800Y-96335800D01*
X48292800Y-96158000D01*
X47226000Y-96158000D01*
X47226000Y-96513600D01*
X46159200Y-96513600D01*
X46159200Y-96335800D01*
X46151336Y-96216633D01*
X46106968Y-96167762D01*
X45994933Y-96158023D01*
X45981400Y-96158000D01*
X45803600Y-96158000D01*
X45803600Y-96869200D01*
X44381200Y-96869200D01*
X44381200Y-96691400D01*
X44373336Y-96572233D01*
X44328968Y-96523362D01*
X44216933Y-96513623D01*
X44203400Y-96513600D01*
X44084232Y-96521464D01*
X44035361Y-96565832D01*
X44025622Y-96677867D01*
X44025600Y-96691400D01*
X44033463Y-96810568D01*
X44077831Y-96859439D01*
X44189866Y-96869178D01*
X44203400Y-96869200D01*
X44322567Y-96877064D01*
X44371438Y-96921432D01*
X44381177Y-97033467D01*
X44381200Y-97047000D01*
X44389063Y-97166168D01*
X44433431Y-97215039D01*
X44545466Y-97224778D01*
X44559000Y-97224800D01*
X44678167Y-97232664D01*
X44727038Y-97277032D01*
X44736777Y-97389067D01*
X44736800Y-97402600D01*
X44736800Y-97580400D01*
X44025600Y-97580400D01*
X44025600Y-97758200D01*
X44736800Y-97758200D01*
X44744663Y-97639033D01*
X44789031Y-97590162D01*
X44901066Y-97580423D01*
X44914600Y-97580400D01*
X45033767Y-97572537D01*
X45082638Y-97528169D01*
X45092377Y-97416134D01*
X45092400Y-97402600D01*
X45100263Y-97283433D01*
X45144631Y-97234562D01*
X45256666Y-97224823D01*
X45270200Y-97224800D01*
X45803600Y-97224800D01*
X45803600Y-96869200D01*
X46514800Y-96869200D01*
X46514800Y-97224800D01*
X45803600Y-97224800D01*
X45270200Y-97224800D01*
X45389367Y-97232664D01*
X45438238Y-97277032D01*
X45447977Y-97389067D01*
X45448000Y-97402600D01*
X45448000Y-97580400D01*
X46870400Y-97580400D01*
X46870400Y-97224800D01*
X47581600Y-97224800D01*
X47581600Y-97047000D01*
X47573736Y-96927833D01*
X47529368Y-96878962D01*
X47417333Y-96869223D01*
X47403800Y-96869200D01*
X47284632Y-96861337D01*
X47235761Y-96816969D01*
X47226022Y-96704934D01*
X47226000Y-96691400D01*
X47226000Y-96513600D01*
X48292800Y-96513600D01*
X48292800Y-97224800D01*
X48470600Y-97224800D01*
X48589767Y-97232664D01*
X48638638Y-97277032D01*
X48648377Y-97389067D01*
X48648400Y-97402600D01*
X48640536Y-97521768D01*
X48596168Y-97570639D01*
X48484133Y-97580378D01*
X48470600Y-97580400D01*
X48351432Y-97572537D01*
X48302561Y-97528169D01*
X48292822Y-97416134D01*
X48292800Y-97402600D01*
X48284936Y-97283433D01*
X48240568Y-97234562D01*
X48128533Y-97224823D01*
X48115000Y-97224800D01*
X47995832Y-97232664D01*
X47946961Y-97277032D01*
X47937222Y-97389067D01*
X47937200Y-97402600D01*
X47929336Y-97521768D01*
X47884968Y-97570639D01*
X47772933Y-97580378D01*
X47759400Y-97580400D01*
X47640232Y-97588264D01*
X47591361Y-97632632D01*
X47581622Y-97744667D01*
X47581600Y-97758200D01*
X47573736Y-97877368D01*
X47529368Y-97926239D01*
X47417333Y-97935978D01*
X47403800Y-97936000D01*
X47284632Y-97943864D01*
X47235761Y-97988232D01*
X47226022Y-98100267D01*
X47226000Y-98113800D01*
X47218136Y-98232968D01*
X47173768Y-98281839D01*
X47061733Y-98291578D01*
X47048200Y-98291600D01*
X46929032Y-98283737D01*
X46880161Y-98239369D01*
X46870422Y-98127334D01*
X46870400Y-98113800D01*
X46870400Y-97936000D01*
X46159200Y-97936000D01*
X46159200Y-98647200D01*
X45448000Y-98647200D01*
X45448000Y-98469400D01*
X45440136Y-98350233D01*
X45395768Y-98301362D01*
X45283733Y-98291623D01*
X45270200Y-98291600D01*
X45151032Y-98283737D01*
X45102161Y-98239369D01*
X45092422Y-98127334D01*
X45092400Y-98113800D01*
X45084536Y-97994633D01*
X45040168Y-97945762D01*
X44928133Y-97936023D01*
X44914600Y-97936000D01*
X44795432Y-97928137D01*
X44746561Y-97883769D01*
X44736822Y-97771734D01*
X44736800Y-97758200D01*
X44025600Y-97758200D01*
X44017736Y-97877368D01*
X43973368Y-97926239D01*
X43861333Y-97935978D01*
X43847800Y-97936000D01*
X43728632Y-97928137D01*
X43679761Y-97883769D01*
X43670022Y-97771734D01*
X43670000Y-97758200D01*
X43662136Y-97639033D01*
X43617768Y-97590162D01*
X43505733Y-97580423D01*
X43492200Y-97580400D01*
X43314400Y-97580400D01*
X43314400Y-98113800D01*
X44025600Y-98113800D01*
X44033463Y-97994633D01*
X44077831Y-97945762D01*
X44189866Y-97936023D01*
X44203400Y-97936000D01*
X44322567Y-97943864D01*
X44371438Y-97988232D01*
X44381177Y-98100267D01*
X44381200Y-98113800D01*
X44373336Y-98232968D01*
X44328968Y-98281839D01*
X44216933Y-98291578D01*
X44203400Y-98291600D01*
X44084232Y-98283737D01*
X44035361Y-98239369D01*
X44025622Y-98127334D01*
X44025600Y-98113800D01*
X43314400Y-98113800D01*
X43314400Y-98291600D01*
X43492200Y-98291600D01*
X43611367Y-98299464D01*
X43660238Y-98343832D01*
X43669977Y-98455867D01*
X43670000Y-98469400D01*
X43662136Y-98588568D01*
X43617768Y-98637439D01*
X43505733Y-98647178D01*
X43492200Y-98647200D01*
X43373032Y-98655064D01*
X43324161Y-98699432D01*
X43314422Y-98811467D01*
X43314400Y-98825000D01*
X43306536Y-98944168D01*
X43262168Y-98993039D01*
X43150133Y-99002778D01*
X43136600Y-99002800D01*
X42958800Y-99002800D01*
X42958800Y-99714000D01*
X42247600Y-99714000D01*
X42247600Y-98647200D01*
X42425400Y-98647200D01*
X42544567Y-98639337D01*
X42593438Y-98594969D01*
X42603177Y-98482934D01*
X42603200Y-98469400D01*
X42603200Y-98291600D01*
X41892000Y-98291600D01*
X41892000Y-99714000D01*
X41180800Y-99714000D01*
X41180800Y-99536200D01*
X41188663Y-99417033D01*
X41233031Y-99368162D01*
X41345066Y-99358423D01*
X41358600Y-99358400D01*
X41477767Y-99350537D01*
X41526638Y-99306169D01*
X41536377Y-99194134D01*
X41536400Y-99180600D01*
X41536400Y-99002800D01*
X39758400Y-99002800D01*
X39758400Y-99714000D01*
X40469600Y-99714000D01*
X40469600Y-100425200D01*
X40647400Y-100425200D01*
X40766567Y-100433064D01*
X40815438Y-100477432D01*
X40825177Y-100589467D01*
X40825200Y-100603000D01*
X40817336Y-100722168D01*
X40772968Y-100771039D01*
X40660933Y-100780778D01*
X40647400Y-100780800D01*
X40469600Y-100780800D01*
X40469600Y-101492000D01*
X40291800Y-101492000D01*
X40172632Y-101499864D01*
X40123761Y-101544232D01*
X40114022Y-101656267D01*
X40114000Y-101669800D01*
X40106136Y-101788968D01*
X40061768Y-101837839D01*
X39949733Y-101847578D01*
X39936200Y-101847600D01*
X39758400Y-101847600D01*
X39758400Y-100780800D01*
X39936200Y-100780800D01*
X40055367Y-100772937D01*
X40104238Y-100728569D01*
X40113977Y-100616534D01*
X40114000Y-100603000D01*
X40106136Y-100483833D01*
X40061768Y-100434962D01*
X39949733Y-100425223D01*
X39936200Y-100425200D01*
X39817032Y-100417337D01*
X39768161Y-100372969D01*
X39758422Y-100260934D01*
X39758400Y-100247400D01*
X39750536Y-100128233D01*
X39706168Y-100079362D01*
X39594133Y-100069623D01*
X39580600Y-100069600D01*
X39402800Y-100069600D01*
X39402800Y-99002800D01*
X39047200Y-99002800D01*
X39047200Y-100603000D01*
X39402800Y-100603000D01*
X39410663Y-100483833D01*
X39455031Y-100434962D01*
X39567066Y-100425223D01*
X39580600Y-100425200D01*
X39699767Y-100433064D01*
X39748638Y-100477432D01*
X39758377Y-100589467D01*
X39758400Y-100603000D01*
X39750536Y-100722168D01*
X39706168Y-100771039D01*
X39594133Y-100780778D01*
X39580600Y-100780800D01*
X39461432Y-100772937D01*
X39412561Y-100728569D01*
X39402822Y-100616534D01*
X39402800Y-100603000D01*
X39047200Y-100603000D01*
X39047200Y-100780800D01*
X39402800Y-100780800D01*
X39402800Y-101492000D01*
X39047200Y-101492000D01*
X39047200Y-102203200D01*
X39225000Y-102203200D01*
X39344167Y-102211064D01*
X39393038Y-102255432D01*
X39402777Y-102367467D01*
X39402800Y-102381000D01*
X39394936Y-102500168D01*
X39350568Y-102549039D01*
X39238533Y-102558778D01*
X39225000Y-102558800D01*
X39105832Y-102566664D01*
X39056961Y-102611032D01*
X39047222Y-102723067D01*
X39047200Y-102736600D01*
X39055063Y-102855768D01*
X39099431Y-102904639D01*
X39211466Y-102914378D01*
X39225000Y-102914400D01*
X39344167Y-102922264D01*
X39393038Y-102966632D01*
X39402777Y-103078667D01*
X39402800Y-103092200D01*
X39758400Y-103092200D01*
X39766263Y-102973033D01*
X39810631Y-102924162D01*
X39922666Y-102914423D01*
X39936200Y-102914400D01*
X40114000Y-102914400D01*
X40114000Y-101847600D01*
X40291800Y-101847600D01*
X40410967Y-101839737D01*
X40459838Y-101795369D01*
X40469577Y-101683334D01*
X40469600Y-101669800D01*
X40477463Y-101550633D01*
X40521831Y-101501762D01*
X40633866Y-101492023D01*
X40647400Y-101492000D01*
X40766567Y-101484137D01*
X40815438Y-101439769D01*
X40825177Y-101327734D01*
X40825200Y-101314200D01*
X40833063Y-101195033D01*
X40877431Y-101146162D01*
X40989466Y-101136423D01*
X41003000Y-101136400D01*
X41122167Y-101128537D01*
X41171038Y-101084169D01*
X41180777Y-100972134D01*
X41180800Y-100958600D01*
X41188663Y-100839433D01*
X41233031Y-100790562D01*
X41345066Y-100780823D01*
X41358600Y-100780800D01*
X41477767Y-100772937D01*
X41526638Y-100728569D01*
X41536377Y-100616534D01*
X41536400Y-100603000D01*
X41536400Y-100425200D01*
X40825200Y-100425200D01*
X40825200Y-99714000D01*
X41003000Y-99714000D01*
X41122167Y-99721864D01*
X41171038Y-99766232D01*
X41180777Y-99878267D01*
X41180800Y-99891800D01*
X41180800Y-100069600D01*
X41892000Y-100069600D01*
X41892000Y-99891800D01*
X41899863Y-99772633D01*
X41944231Y-99723762D01*
X42056266Y-99714023D01*
X42069800Y-99714000D01*
X42188967Y-99721864D01*
X42237838Y-99766232D01*
X42247577Y-99878267D01*
X42247600Y-99891800D01*
X42247600Y-100069600D01*
X43670000Y-100069600D01*
X43670000Y-99891800D01*
X43662136Y-99772633D01*
X43617768Y-99723762D01*
X43505733Y-99714023D01*
X43492200Y-99714000D01*
X43314400Y-99714000D01*
X43314400Y-99002800D01*
X44381200Y-99002800D01*
X44381200Y-98825000D01*
X44389063Y-98705833D01*
X44433431Y-98656962D01*
X44545466Y-98647223D01*
X44559000Y-98647200D01*
X44678167Y-98655064D01*
X44727038Y-98699432D01*
X44736777Y-98811467D01*
X44736800Y-98825000D01*
X44728936Y-98944168D01*
X44684568Y-98993039D01*
X44572533Y-99002778D01*
X44559000Y-99002800D01*
X44439832Y-99010664D01*
X44390961Y-99055032D01*
X44381222Y-99167067D01*
X44381200Y-99180600D01*
X44373336Y-99299768D01*
X44328968Y-99348639D01*
X44216933Y-99358378D01*
X44203400Y-99358400D01*
X44084232Y-99366264D01*
X44035361Y-99410632D01*
X44025622Y-99522667D01*
X44025600Y-99536200D01*
X44033463Y-99655368D01*
X44077831Y-99704239D01*
X44189866Y-99713978D01*
X44203400Y-99714000D01*
X44322567Y-99721864D01*
X44371438Y-99766232D01*
X44381177Y-99878267D01*
X44381200Y-99891800D01*
X44389063Y-100010968D01*
X44433431Y-100059839D01*
X44545466Y-100069578D01*
X44559000Y-100069600D01*
X44678167Y-100061737D01*
X44727038Y-100017369D01*
X44736777Y-99905334D01*
X44736800Y-99891800D01*
X44744663Y-99772633D01*
X44789031Y-99723762D01*
X44901066Y-99714023D01*
X44914600Y-99714000D01*
X45033767Y-99706137D01*
X45082638Y-99661769D01*
X45092377Y-99549734D01*
X45092400Y-99536200D01*
X45100263Y-99417033D01*
X45144631Y-99368162D01*
X45256666Y-99358423D01*
X45270200Y-99358400D01*
X45389367Y-99350537D01*
X45438238Y-99306169D01*
X45447977Y-99194134D01*
X45448000Y-99180600D01*
X45448000Y-99002800D01*
X46870400Y-99002800D01*
X46870400Y-99358400D01*
X46159200Y-99358400D01*
X46159200Y-99536200D01*
X46167063Y-99655368D01*
X46211431Y-99704239D01*
X46323466Y-99713978D01*
X46337000Y-99714000D01*
X46456167Y-99721864D01*
X46505038Y-99766232D01*
X46514777Y-99878267D01*
X46514800Y-99891800D01*
X46514800Y-100069600D01*
X45803600Y-100069600D01*
X45803600Y-100247400D01*
X45811463Y-100366568D01*
X45855831Y-100415439D01*
X45967866Y-100425178D01*
X45981400Y-100425200D01*
X46159200Y-100425200D01*
X46159200Y-100603000D01*
X46514800Y-100603000D01*
X46522663Y-100483833D01*
X46567031Y-100434962D01*
X46679066Y-100425223D01*
X46692600Y-100425200D01*
X46870400Y-100425200D01*
X46870400Y-99714000D01*
X47226000Y-99714000D01*
X47226000Y-98647200D01*
X47581600Y-98647200D01*
X47581600Y-99002800D01*
X47937200Y-99002800D01*
X47937200Y-97936000D01*
X49004000Y-97936000D01*
X49715200Y-97936000D01*
X49715200Y-97580400D01*
X50426400Y-97580400D01*
X50426400Y-97936000D01*
X49715200Y-97936000D01*
X49004000Y-97936000D01*
X49004000Y-98825000D01*
X49359600Y-98825000D01*
X49367463Y-98705833D01*
X49411831Y-98656962D01*
X49523866Y-98647223D01*
X49537400Y-98647200D01*
X49656567Y-98639337D01*
X49705438Y-98594969D01*
X49715177Y-98482934D01*
X49715200Y-98469400D01*
X49723063Y-98350233D01*
X49767431Y-98301362D01*
X49879466Y-98291623D01*
X49893000Y-98291600D01*
X50012167Y-98299464D01*
X50061038Y-98343832D01*
X50070777Y-98455867D01*
X50070800Y-98469400D01*
X50062936Y-98588568D01*
X50018568Y-98637439D01*
X49906533Y-98647178D01*
X49893000Y-98647200D01*
X49773832Y-98655064D01*
X49724961Y-98699432D01*
X49715222Y-98811467D01*
X49715200Y-98825000D01*
X49707336Y-98944168D01*
X49662968Y-98993039D01*
X49550933Y-99002778D01*
X49537400Y-99002800D01*
X49418232Y-98994937D01*
X49369361Y-98950569D01*
X49359622Y-98838534D01*
X49359600Y-98825000D01*
X49004000Y-98825000D01*
X49004000Y-99002800D01*
X47937200Y-99002800D01*
X47581600Y-99002800D01*
X47581600Y-99358400D01*
X47937200Y-99358400D01*
X47937200Y-100069600D01*
X48115000Y-100069600D01*
X48234167Y-100061737D01*
X48283038Y-100017369D01*
X48292777Y-99905334D01*
X48292800Y-99891800D01*
X48300663Y-99772633D01*
X48345031Y-99723762D01*
X48457066Y-99714023D01*
X48470600Y-99714000D01*
X48589767Y-99706137D01*
X48638638Y-99661769D01*
X48648377Y-99549734D01*
X48648400Y-99536200D01*
X48656263Y-99417033D01*
X48700631Y-99368162D01*
X48812666Y-99358423D01*
X48826200Y-99358400D01*
X49004000Y-99358400D01*
X49004000Y-100069600D01*
X49181800Y-100069600D01*
X49300967Y-100077464D01*
X49349838Y-100121832D01*
X49359577Y-100233867D01*
X49359600Y-100247400D01*
X49367463Y-100366568D01*
X49411831Y-100415439D01*
X49523866Y-100425178D01*
X49537400Y-100425200D01*
X49715200Y-100425200D01*
X49715200Y-99714000D01*
X50070800Y-99714000D01*
X50070800Y-100780800D01*
X49893000Y-100780800D01*
X49773832Y-100788664D01*
X49724961Y-100833032D01*
X49715222Y-100945067D01*
X49715200Y-100958600D01*
X49715200Y-101136400D01*
X49004000Y-101136400D01*
X49004000Y-100780800D01*
X48292800Y-100780800D01*
X48292800Y-100958600D01*
X48284936Y-101077768D01*
X48240568Y-101126639D01*
X48128533Y-101136378D01*
X48115000Y-101136400D01*
X47995832Y-101144264D01*
X47946961Y-101188632D01*
X47937222Y-101300667D01*
X47937200Y-101314200D01*
X47945063Y-101433368D01*
X47989431Y-101482239D01*
X48101466Y-101491978D01*
X48115000Y-101492000D01*
X48234167Y-101499864D01*
X48283038Y-101544232D01*
X48292777Y-101656267D01*
X48292800Y-101669800D01*
X48284936Y-101788968D01*
X48240568Y-101837839D01*
X48128533Y-101847578D01*
X48115000Y-101847600D01*
X47995832Y-101855464D01*
X47946961Y-101899832D01*
X47937222Y-102011867D01*
X47937200Y-102025400D01*
X47937200Y-102203200D01*
X47226000Y-102203200D01*
X47226000Y-102025400D01*
X47233863Y-101906233D01*
X47278231Y-101857362D01*
X47390266Y-101847623D01*
X47403800Y-101847600D01*
X47522967Y-101839737D01*
X47571838Y-101795369D01*
X47581577Y-101683334D01*
X47581600Y-101669800D01*
X47573736Y-101550633D01*
X47529368Y-101501762D01*
X47417333Y-101492023D01*
X47403800Y-101492000D01*
X47284632Y-101484137D01*
X47235761Y-101439769D01*
X47226022Y-101327734D01*
X47226000Y-101314200D01*
X47218136Y-101195033D01*
X47173768Y-101146162D01*
X47061733Y-101136423D01*
X47048200Y-101136400D01*
X46929032Y-101128537D01*
X46880161Y-101084169D01*
X46870422Y-100972134D01*
X46870400Y-100958600D01*
X46862536Y-100839433D01*
X46818168Y-100790562D01*
X46706133Y-100780823D01*
X46692600Y-100780800D01*
X46573432Y-100772937D01*
X46524561Y-100728569D01*
X46514822Y-100616534D01*
X46514800Y-100603000D01*
X46159200Y-100603000D01*
X46159200Y-101492000D01*
X44736800Y-101492000D01*
X44736800Y-102203200D01*
X45803600Y-102203200D01*
X46159200Y-102203200D01*
X46159200Y-101492000D01*
X46337000Y-101492000D01*
X46456167Y-101499864D01*
X46505038Y-101544232D01*
X46514777Y-101656267D01*
X46514800Y-101669800D01*
X46522663Y-101788968D01*
X46567031Y-101837839D01*
X46679066Y-101847578D01*
X46692600Y-101847600D01*
X46811767Y-101855464D01*
X46860638Y-101899832D01*
X46870377Y-102011867D01*
X46870400Y-102025400D01*
X46870400Y-102203200D01*
X46159200Y-102203200D01*
X45803600Y-102203200D01*
X45803600Y-102381000D01*
X45811463Y-102500168D01*
X45855831Y-102549039D01*
X45967866Y-102558778D01*
X45981400Y-102558800D01*
X46100567Y-102566664D01*
X46149438Y-102611032D01*
X46159177Y-102723067D01*
X46159200Y-102736600D01*
X46159200Y-102914400D01*
X46514800Y-102914400D01*
X46514800Y-102558800D01*
X47581600Y-102558800D01*
X47581600Y-102914400D01*
X46514800Y-102914400D01*
X46159200Y-102914400D01*
X45448000Y-102914400D01*
X45448000Y-103270000D01*
X46870400Y-103270000D01*
X47581600Y-103270000D01*
X47581600Y-102914400D01*
X48292800Y-102914400D01*
X48292800Y-103270000D01*
X47581600Y-103270000D01*
X46870400Y-103270000D01*
X46870400Y-103447800D01*
X46862536Y-103566968D01*
X46818168Y-103615839D01*
X46706133Y-103625578D01*
X46692600Y-103625600D01*
X46573432Y-103633464D01*
X46524561Y-103677832D01*
X46514822Y-103789867D01*
X46514800Y-103803400D01*
X46506936Y-103922568D01*
X46462568Y-103971439D01*
X46350533Y-103981178D01*
X46337000Y-103981200D01*
X46217832Y-103989064D01*
X46168961Y-104033432D01*
X46159222Y-104145467D01*
X46159200Y-104159000D01*
X46159200Y-104336800D01*
X45448000Y-104336800D01*
X45448000Y-104159000D01*
X45440136Y-104039833D01*
X45395768Y-103990962D01*
X45283733Y-103981223D01*
X45270200Y-103981200D01*
X45151032Y-103973337D01*
X45102161Y-103928969D01*
X45092422Y-103816934D01*
X45092400Y-103803400D01*
X45084536Y-103684233D01*
X45040168Y-103635362D01*
X44928133Y-103625623D01*
X44914600Y-103625600D01*
X44795432Y-103633464D01*
X44746561Y-103677832D01*
X44736822Y-103789867D01*
X44736800Y-103803400D01*
X44736800Y-103981200D01*
X44025600Y-103981200D01*
X44025600Y-103803400D01*
X44017736Y-103684233D01*
X43973368Y-103635362D01*
X43861333Y-103625623D01*
X43847800Y-103625600D01*
X43728632Y-103617737D01*
X43679761Y-103573369D01*
X43670022Y-103461334D01*
X43670000Y-103447800D01*
X43662136Y-103328633D01*
X43617768Y-103279762D01*
X43505733Y-103270023D01*
X43492200Y-103270000D01*
X43314400Y-103270000D01*
X43314400Y-103981200D01*
X43492200Y-103981200D01*
X43611367Y-103989064D01*
X43660238Y-104033432D01*
X43669977Y-104145467D01*
X43670000Y-104159000D01*
X43662136Y-104278168D01*
X43617768Y-104327039D01*
X43505733Y-104336778D01*
X43492200Y-104336800D01*
X43373032Y-104344664D01*
X43324161Y-104389032D01*
X43314422Y-104501067D01*
X43314400Y-104514600D01*
X43306536Y-104633768D01*
X43262168Y-104682639D01*
X43150133Y-104692378D01*
X43136600Y-104692400D01*
X43017432Y-104700264D01*
X42968561Y-104744632D01*
X42958822Y-104856667D01*
X42958800Y-104870200D01*
X42950936Y-104989368D01*
X42906568Y-105038239D01*
X42794533Y-105047978D01*
X42781000Y-105048000D01*
X42661832Y-105040137D01*
X42612961Y-104995769D01*
X42603222Y-104883734D01*
X42603200Y-104870200D01*
X42595336Y-104751033D01*
X42550968Y-104702162D01*
X42438933Y-104692423D01*
X42425400Y-104692400D01*
X42306232Y-104684537D01*
X42257361Y-104640169D01*
X42247622Y-104528134D01*
X42247600Y-104514600D01*
X42239736Y-104395433D01*
X42195368Y-104346562D01*
X42083333Y-104336823D01*
X42069800Y-104336800D01*
X41892000Y-104336800D01*
X41892000Y-103625600D01*
X41714200Y-103625600D01*
X41595032Y-103633464D01*
X41546161Y-103677832D01*
X41536422Y-103789867D01*
X41536400Y-103803400D01*
X41528536Y-103922568D01*
X41484168Y-103971439D01*
X41372133Y-103981178D01*
X41358600Y-103981200D01*
X41239432Y-103973337D01*
X41190561Y-103928969D01*
X41180822Y-103816934D01*
X41180800Y-103803400D01*
X41188663Y-103684233D01*
X41233031Y-103635362D01*
X41345066Y-103625623D01*
X41358600Y-103625600D01*
X41477767Y-103617737D01*
X41526638Y-103573369D01*
X41536377Y-103461334D01*
X41536400Y-103447800D01*
X41536400Y-103270000D01*
X40469600Y-103270000D01*
X40469600Y-103447800D01*
X40461736Y-103566968D01*
X40417368Y-103615839D01*
X40305333Y-103625578D01*
X40291800Y-103625600D01*
X40172632Y-103617737D01*
X40123761Y-103573369D01*
X40114022Y-103461334D01*
X40114000Y-103447800D01*
X40106136Y-103328633D01*
X40061768Y-103279762D01*
X39949733Y-103270023D01*
X39936200Y-103270000D01*
X39817032Y-103262137D01*
X39768161Y-103217769D01*
X39758422Y-103105734D01*
X39758400Y-103092200D01*
X39402800Y-103092200D01*
X39410663Y-103211368D01*
X39455031Y-103260239D01*
X39567066Y-103269978D01*
X39580600Y-103270000D01*
X39758400Y-103270000D01*
X39758400Y-103981200D01*
X39580600Y-103981200D01*
X39461432Y-103973337D01*
X39412561Y-103928969D01*
X39402822Y-103816934D01*
X39402800Y-103803400D01*
X39394936Y-103684233D01*
X39350568Y-103635362D01*
X39238533Y-103625623D01*
X39225000Y-103625600D01*
X39105832Y-103633464D01*
X39056961Y-103677832D01*
X39047222Y-103789867D01*
X39047200Y-103803400D01*
X39055063Y-103922568D01*
X39099431Y-103971439D01*
X39211466Y-103981178D01*
X39225000Y-103981200D01*
X39344167Y-103989064D01*
X39393038Y-104033432D01*
X39402777Y-104145467D01*
X39402800Y-104159000D01*
X39394936Y-104278168D01*
X39350568Y-104327039D01*
X39238533Y-104336778D01*
X39225000Y-104336800D01*
X39047200Y-104336800D01*
X39047200Y-104692400D01*
X39758400Y-104692400D01*
X39758400Y-104336800D01*
X40469600Y-104336800D01*
X40469600Y-104159000D01*
X40477463Y-104039833D01*
X40521831Y-103990962D01*
X40633866Y-103981223D01*
X40647400Y-103981200D01*
X40825200Y-103981200D01*
X40825200Y-104514600D01*
X41180800Y-104514600D01*
X41188663Y-104395433D01*
X41233031Y-104346562D01*
X41345066Y-104336823D01*
X41358600Y-104336800D01*
X41477767Y-104344664D01*
X41526638Y-104389032D01*
X41536377Y-104501067D01*
X41536400Y-104514600D01*
X41528536Y-104633768D01*
X41484168Y-104682639D01*
X41372133Y-104692378D01*
X41358600Y-104692400D01*
X41239432Y-104684537D01*
X41190561Y-104640169D01*
X41180822Y-104528134D01*
X41180800Y-104514600D01*
X40825200Y-104514600D01*
X40825200Y-104692400D01*
X39758400Y-104692400D01*
X39047200Y-104692400D01*
X39047200Y-105048000D01*
X40825200Y-105048000D01*
X40825200Y-104870200D01*
X40833063Y-104751033D01*
X40877431Y-104702162D01*
X40989466Y-104692423D01*
X41003000Y-104692400D01*
X41122167Y-104700264D01*
X41171038Y-104744632D01*
X41180777Y-104856667D01*
X41180800Y-104870200D01*
X41180800Y-105048000D01*
X42247600Y-105048000D01*
X42247600Y-105225800D01*
X42239736Y-105344968D01*
X42195368Y-105393839D01*
X42083333Y-105403578D01*
X42069800Y-105403600D01*
X41892000Y-105403600D01*
X41892000Y-105581400D01*
X42247600Y-105581400D01*
X42255463Y-105462233D01*
X42299831Y-105413362D01*
X42411866Y-105403623D01*
X42425400Y-105403600D01*
X42544567Y-105411464D01*
X42593438Y-105455832D01*
X42603177Y-105567867D01*
X42603200Y-105581400D01*
X42958800Y-105581400D01*
X42966663Y-105462233D01*
X43011031Y-105413362D01*
X43123066Y-105403623D01*
X43136600Y-105403600D01*
X43255767Y-105411464D01*
X43304638Y-105455832D01*
X43314377Y-105567867D01*
X43314400Y-105581400D01*
X43306536Y-105700568D01*
X43262168Y-105749439D01*
X43150133Y-105759178D01*
X43136600Y-105759200D01*
X43017432Y-105751337D01*
X42968561Y-105706969D01*
X42958822Y-105594934D01*
X42958800Y-105581400D01*
X42603200Y-105581400D01*
X42595336Y-105700568D01*
X42550968Y-105749439D01*
X42438933Y-105759178D01*
X42425400Y-105759200D01*
X42306232Y-105751337D01*
X42257361Y-105706969D01*
X42247622Y-105594934D01*
X42247600Y-105581400D01*
X41892000Y-105581400D01*
X41892000Y-106114800D01*
X42069800Y-106114800D01*
X42188967Y-106122664D01*
X42237838Y-106167032D01*
X42247577Y-106279067D01*
X42247600Y-106292600D01*
X42239736Y-106411768D01*
X42195368Y-106460639D01*
X42083333Y-106470378D01*
X42069800Y-106470400D01*
X41950632Y-106478264D01*
X41901761Y-106522632D01*
X41892022Y-106634667D01*
X41892000Y-106648200D01*
X41892000Y-106826000D01*
X42958800Y-106826000D01*
X42958800Y-106648200D01*
X42950936Y-106529033D01*
X42906568Y-106480162D01*
X42794533Y-106470423D01*
X42781000Y-106470400D01*
X42603200Y-106470400D01*
X42603200Y-105759200D01*
X42781000Y-105759200D01*
X42900167Y-105767064D01*
X42949038Y-105811432D01*
X42958777Y-105923467D01*
X42958800Y-105937000D01*
X42958800Y-106114800D01*
X43670000Y-106114800D01*
X43670000Y-105403600D01*
X43314400Y-105403600D01*
X43314400Y-104692400D01*
X44736800Y-104692400D01*
X44736800Y-104514600D01*
X44744663Y-104395433D01*
X44789031Y-104346562D01*
X44901066Y-104336823D01*
X44914600Y-104336800D01*
X45092400Y-104336800D01*
X45092400Y-105048000D01*
X44736800Y-105048000D01*
X44736800Y-105759200D01*
X44914600Y-105759200D01*
X45033767Y-105767064D01*
X45082638Y-105811432D01*
X45092377Y-105923467D01*
X45092400Y-105937000D01*
X45092400Y-106114800D01*
X44381200Y-106114800D01*
X44381200Y-106292600D01*
X44373336Y-106411768D01*
X44328968Y-106460639D01*
X44216933Y-106470378D01*
X44203400Y-106470400D01*
X44084232Y-106478264D01*
X44035361Y-106522632D01*
X44025622Y-106634667D01*
X44025600Y-106648200D01*
X44017736Y-106767368D01*
X43973368Y-106816239D01*
X43861333Y-106825978D01*
X43847800Y-106826000D01*
X43728632Y-106818137D01*
X43679761Y-106773769D01*
X43670022Y-106661734D01*
X43670000Y-106648200D01*
X43662136Y-106529033D01*
X43617768Y-106480162D01*
X43505733Y-106470423D01*
X43492200Y-106470400D01*
X43314400Y-106470400D01*
X43314400Y-107003800D01*
X44025600Y-107003800D01*
X44033463Y-106884633D01*
X44077831Y-106835762D01*
X44189866Y-106826023D01*
X44203400Y-106826000D01*
X44322567Y-106833864D01*
X44371438Y-106878232D01*
X44381177Y-106990267D01*
X44381200Y-107003800D01*
X44373336Y-107122968D01*
X44328968Y-107171839D01*
X44216933Y-107181578D01*
X44203400Y-107181600D01*
X44736800Y-107181600D01*
X44736800Y-106470400D01*
X44914600Y-106470400D01*
X45033767Y-106478264D01*
X45082638Y-106522632D01*
X45092377Y-106634667D01*
X45092400Y-106648200D01*
X45100263Y-106767368D01*
X45144631Y-106816239D01*
X45256666Y-106825978D01*
X45270200Y-106826000D01*
X45389367Y-106818137D01*
X45438238Y-106773769D01*
X45447977Y-106661734D01*
X45448000Y-106648200D01*
X45448000Y-106470400D01*
X46514800Y-106470400D01*
X46514800Y-106292600D01*
X46522663Y-106173433D01*
X46567031Y-106124562D01*
X46679066Y-106114823D01*
X46692600Y-106114800D01*
X46811767Y-106106937D01*
X46860638Y-106062569D01*
X46870377Y-105950534D01*
X46870400Y-105937000D01*
X46862536Y-105817833D01*
X46818168Y-105768962D01*
X46706133Y-105759223D01*
X46692600Y-105759200D01*
X46573432Y-105751337D01*
X46524561Y-105706969D01*
X46514822Y-105594934D01*
X46514800Y-105581400D01*
X46506936Y-105462233D01*
X46462568Y-105413362D01*
X46350533Y-105403623D01*
X46337000Y-105403600D01*
X46159200Y-105403600D01*
X46159200Y-106114800D01*
X45448000Y-106114800D01*
X45448000Y-105937000D01*
X45440136Y-105817833D01*
X45395768Y-105768962D01*
X45283733Y-105759223D01*
X45270200Y-105759200D01*
X45092400Y-105759200D01*
X45092400Y-105048000D01*
X45270200Y-105048000D01*
X45389367Y-105040137D01*
X45438238Y-104995769D01*
X45447977Y-104883734D01*
X45448000Y-104870200D01*
X45455863Y-104751033D01*
X45500231Y-104702162D01*
X45612266Y-104692423D01*
X45625800Y-104692400D01*
X45744967Y-104700264D01*
X45793838Y-104744632D01*
X45803577Y-104856667D01*
X45803600Y-104870200D01*
X45803600Y-105048000D01*
X46514800Y-105048000D01*
X46514800Y-104870200D01*
X46522663Y-104751033D01*
X46567031Y-104702162D01*
X46679066Y-104692423D01*
X46692600Y-104692400D01*
X46870400Y-104692400D01*
X46870400Y-103981200D01*
X47048200Y-103981200D01*
X47167367Y-103973337D01*
X47216238Y-103928969D01*
X47225977Y-103816934D01*
X47226000Y-103803400D01*
X47233863Y-103684233D01*
X47278231Y-103635362D01*
X47390266Y-103625623D01*
X47403800Y-103625600D01*
X47522967Y-103633464D01*
X47571838Y-103677832D01*
X47581577Y-103789867D01*
X47581600Y-103803400D01*
X47589463Y-103922568D01*
X47633831Y-103971439D01*
X47745866Y-103981178D01*
X47759400Y-103981200D01*
X47878567Y-103973337D01*
X47927438Y-103928969D01*
X47937177Y-103816934D01*
X47937200Y-103803400D01*
X47945063Y-103684233D01*
X47989431Y-103635362D01*
X48101466Y-103625623D01*
X48115000Y-103625600D01*
X48234167Y-103633464D01*
X48283038Y-103677832D01*
X48292777Y-103789867D01*
X48292800Y-103803400D01*
X48284936Y-103922568D01*
X48240568Y-103971439D01*
X48128533Y-103981178D01*
X48115000Y-103981200D01*
X47995832Y-103989064D01*
X47946961Y-104033432D01*
X47937222Y-104145467D01*
X47937200Y-104159000D01*
X48648400Y-104159000D01*
X48656263Y-104039833D01*
X48700631Y-103990962D01*
X48812666Y-103981223D01*
X48826200Y-103981200D01*
X48945367Y-103973337D01*
X48994238Y-103928969D01*
X49003977Y-103816934D01*
X49004000Y-103803400D01*
X49004000Y-103625600D01*
X49715200Y-103625600D01*
X49715200Y-103803400D01*
X49723063Y-103922568D01*
X49767431Y-103971439D01*
X49879466Y-103981178D01*
X49893000Y-103981200D01*
X50012167Y-103989064D01*
X50061038Y-104033432D01*
X50070777Y-104145467D01*
X50070800Y-104159000D01*
X50062936Y-104278168D01*
X50018568Y-104327039D01*
X49906533Y-104336778D01*
X49893000Y-104336800D01*
X49773832Y-104328937D01*
X49724961Y-104284569D01*
X49715222Y-104172534D01*
X49715200Y-104159000D01*
X49715200Y-103981200D01*
X49004000Y-103981200D01*
X49004000Y-104159000D01*
X48996136Y-104278168D01*
X48951768Y-104327039D01*
X48839733Y-104336778D01*
X48826200Y-104336800D01*
X48707032Y-104328937D01*
X48658161Y-104284569D01*
X48648422Y-104172534D01*
X48648400Y-104159000D01*
X47937200Y-104159000D01*
X47945063Y-104278168D01*
X47989431Y-104327039D01*
X48101466Y-104336778D01*
X48115000Y-104336800D01*
X48234167Y-104344664D01*
X48283038Y-104389032D01*
X48292777Y-104501067D01*
X48292800Y-104514600D01*
X48292800Y-104692400D01*
X47581600Y-104692400D01*
X47581600Y-104514600D01*
X47573736Y-104395433D01*
X47529368Y-104346562D01*
X47417333Y-104336823D01*
X47403800Y-104336800D01*
X47284632Y-104344664D01*
X47235761Y-104389032D01*
X47226022Y-104501067D01*
X47226000Y-104514600D01*
X47218136Y-104633768D01*
X47173768Y-104682639D01*
X47061733Y-104692378D01*
X47048200Y-104692400D01*
X46929032Y-104700264D01*
X46880161Y-104744632D01*
X46870422Y-104856667D01*
X46870400Y-104870200D01*
X46862536Y-104989368D01*
X46818168Y-105038239D01*
X46706133Y-105047978D01*
X46692600Y-105048000D01*
X46573432Y-105055864D01*
X46524561Y-105100232D01*
X46514822Y-105212267D01*
X46514800Y-105225800D01*
X46522663Y-105344968D01*
X46567031Y-105393839D01*
X46679066Y-105403578D01*
X46692600Y-105403600D01*
X46811767Y-105411464D01*
X46860638Y-105455832D01*
X46870377Y-105567867D01*
X46870400Y-105581400D01*
X46878263Y-105700568D01*
X46922631Y-105749439D01*
X47034666Y-105759178D01*
X47048200Y-105759200D01*
X47167367Y-105751337D01*
X47216238Y-105706969D01*
X47225977Y-105594934D01*
X47226000Y-105581400D01*
X47233863Y-105462233D01*
X47278231Y-105413362D01*
X47390266Y-105403623D01*
X47403800Y-105403600D01*
X47581600Y-105403600D01*
X47581600Y-106114800D01*
X47403800Y-106114800D01*
X47284632Y-106122664D01*
X47235761Y-106167032D01*
X47226022Y-106279067D01*
X47226000Y-106292600D01*
X47233863Y-106411768D01*
X47278231Y-106460639D01*
X47390266Y-106470378D01*
X47403800Y-106470400D01*
X47522967Y-106478264D01*
X47571838Y-106522632D01*
X47581577Y-106634667D01*
X47581600Y-106648200D01*
X47573736Y-106767368D01*
X47529368Y-106816239D01*
X47417333Y-106825978D01*
X47403800Y-106826000D01*
X47284632Y-106833864D01*
X47235761Y-106878232D01*
X47226022Y-106990267D01*
X47226000Y-107003800D01*
X47218136Y-107122968D01*
X47173768Y-107171839D01*
X47061733Y-107181578D01*
X47048200Y-107181600D01*
X46929032Y-107173737D01*
X46880161Y-107129369D01*
X46870422Y-107017334D01*
X46870400Y-107003800D01*
X46862536Y-106884633D01*
X46818168Y-106835762D01*
X46706133Y-106826023D01*
X46692600Y-106826000D01*
X46573432Y-106833864D01*
X46524561Y-106878232D01*
X46514822Y-106990267D01*
X46514800Y-107003800D01*
X46506936Y-107122968D01*
X46462568Y-107171839D01*
X46350533Y-107181578D01*
X46337000Y-107181600D01*
X46217832Y-107189464D01*
X46168961Y-107233832D01*
X46159222Y-107345867D01*
X46159200Y-107359400D01*
X46159200Y-107537200D01*
X45092400Y-107537200D01*
X45092400Y-107359400D01*
X45084536Y-107240233D01*
X45040168Y-107191362D01*
X44928133Y-107181623D01*
X44914600Y-107181600D01*
X44736800Y-107181600D01*
X44203400Y-107181600D01*
X44084232Y-107173737D01*
X44035361Y-107129369D01*
X44025622Y-107017334D01*
X44025600Y-107003800D01*
X43314400Y-107003800D01*
X43314400Y-107181600D01*
X43492200Y-107181600D01*
X43611367Y-107189464D01*
X43660238Y-107233832D01*
X43669977Y-107345867D01*
X43670000Y-107359400D01*
X43662136Y-107478568D01*
X43617768Y-107527439D01*
X43505733Y-107537178D01*
X43492200Y-107537200D01*
X43373032Y-107545064D01*
X43324161Y-107589432D01*
X43314422Y-107701467D01*
X43314400Y-107715000D01*
X43314400Y-107892800D01*
X44736800Y-107892800D01*
X44736800Y-107715000D01*
X44744663Y-107595833D01*
X44789031Y-107546962D01*
X44901066Y-107537223D01*
X44914600Y-107537200D01*
X45033767Y-107545064D01*
X45082638Y-107589432D01*
X45092377Y-107701467D01*
X45092400Y-107715000D01*
X45092400Y-107892800D01*
X46514800Y-107892800D01*
X46514800Y-107181600D01*
X46692600Y-107181600D01*
X46811767Y-107189464D01*
X46860638Y-107233832D01*
X46870377Y-107345867D01*
X46870400Y-107359400D01*
X46878263Y-107478568D01*
X46922631Y-107527439D01*
X47034666Y-107537178D01*
X47048200Y-107537200D01*
X47167367Y-107545064D01*
X47216238Y-107589432D01*
X47225977Y-107701467D01*
X47226000Y-107715000D01*
X47226000Y-107892800D01*
X47937200Y-107892800D01*
X47937200Y-107537200D01*
X47226000Y-107537200D01*
X47226000Y-107359400D01*
X47233863Y-107240233D01*
X47278231Y-107191362D01*
X47390266Y-107181623D01*
X47403800Y-107181600D01*
X47522967Y-107173737D01*
X47571838Y-107129369D01*
X47581577Y-107017334D01*
X47581600Y-107003800D01*
X47589463Y-106884633D01*
X47633831Y-106835762D01*
X47745866Y-106826023D01*
X47759400Y-106826000D01*
X47878567Y-106818137D01*
X47927438Y-106773769D01*
X47937177Y-106661734D01*
X47937200Y-106648200D01*
X47929336Y-106529033D01*
X47884968Y-106480162D01*
X47772933Y-106470423D01*
X47759400Y-106470400D01*
X47640232Y-106462537D01*
X47591361Y-106418169D01*
X47581622Y-106306134D01*
X47581600Y-106292600D01*
X47589463Y-106173433D01*
X47633831Y-106124562D01*
X47745866Y-106114823D01*
X47759400Y-106114800D01*
X47937200Y-106114800D01*
X47937200Y-105403600D01*
X47759400Y-105403600D01*
X47640232Y-105395737D01*
X47591361Y-105351369D01*
X47581622Y-105239334D01*
X47581600Y-105225800D01*
X47581600Y-105048000D01*
X48292800Y-105048000D01*
X48292800Y-104870200D01*
X48300663Y-104751033D01*
X48345031Y-104702162D01*
X48457066Y-104692423D01*
X48470600Y-104692400D01*
X48589767Y-104700264D01*
X48638638Y-104744632D01*
X48648377Y-104856667D01*
X48648400Y-104870200D01*
X48656263Y-104989368D01*
X48700631Y-105038239D01*
X48812666Y-105047978D01*
X48826200Y-105048000D01*
X49004000Y-105048000D01*
X49004000Y-104336800D01*
X49715200Y-104336800D01*
X49715200Y-104514600D01*
X49707336Y-104633768D01*
X49662968Y-104682639D01*
X49550933Y-104692378D01*
X49537400Y-104692400D01*
X49418232Y-104700264D01*
X49369361Y-104744632D01*
X49359622Y-104856667D01*
X49359600Y-104870200D01*
X49367463Y-104989368D01*
X49411831Y-105038239D01*
X49523866Y-105047978D01*
X49537400Y-105048000D01*
X49656567Y-105040137D01*
X49705438Y-104995769D01*
X49715177Y-104883734D01*
X49715200Y-104870200D01*
X49723063Y-104751033D01*
X49767431Y-104702162D01*
X49879466Y-104692423D01*
X49893000Y-104692400D01*
X50012167Y-104700264D01*
X50061038Y-104744632D01*
X50070777Y-104856667D01*
X50070800Y-104870200D01*
X50078663Y-104989368D01*
X50123031Y-105038239D01*
X50235066Y-105047978D01*
X50248600Y-105048000D01*
X50367767Y-105040137D01*
X50416638Y-104995769D01*
X50426377Y-104883734D01*
X50426400Y-104870200D01*
X50434263Y-104751033D01*
X50478631Y-104702162D01*
X50590666Y-104692423D01*
X50604200Y-104692400D01*
X50723367Y-104684537D01*
X50772238Y-104640169D01*
X50781977Y-104528134D01*
X50782000Y-104514600D01*
X50774136Y-104395433D01*
X50729768Y-104346562D01*
X50617733Y-104336823D01*
X50604200Y-104336800D01*
X50485032Y-104328937D01*
X50436161Y-104284569D01*
X50426422Y-104172534D01*
X50426400Y-104159000D01*
X50418536Y-104039833D01*
X50374168Y-103990962D01*
X50262133Y-103981223D01*
X50248600Y-103981200D01*
X50129432Y-103973337D01*
X50080561Y-103928969D01*
X50070822Y-103816934D01*
X50070800Y-103803400D01*
X50062936Y-103684233D01*
X50018568Y-103635362D01*
X49906533Y-103625623D01*
X49893000Y-103625600D01*
X49773832Y-103617737D01*
X49724961Y-103573369D01*
X49715222Y-103461334D01*
X49715200Y-103447800D01*
X49715200Y-103270000D01*
X49004000Y-103270000D01*
X49004000Y-103625600D01*
X48292800Y-103625600D01*
X48292800Y-103447800D01*
X48300663Y-103328633D01*
X48345031Y-103279762D01*
X48457066Y-103270023D01*
X48470600Y-103270000D01*
X48589767Y-103262137D01*
X48638638Y-103217769D01*
X48648377Y-103105734D01*
X48648400Y-103092200D01*
X48640536Y-102973033D01*
X48596168Y-102924162D01*
X48484133Y-102914423D01*
X48470600Y-102914400D01*
X48292800Y-102914400D01*
X48292800Y-101847600D01*
X48470600Y-101847600D01*
X48648400Y-101847600D01*
X48648400Y-101492000D01*
X49359600Y-101492000D01*
X49359600Y-101847600D01*
X48648400Y-101847600D01*
X48470600Y-101847600D01*
X48589767Y-101855464D01*
X48638638Y-101899832D01*
X48648377Y-102011867D01*
X48648400Y-102025400D01*
X48648400Y-102203200D01*
X49359600Y-102203200D01*
X49359600Y-102025400D01*
X49367463Y-101906233D01*
X49411831Y-101857362D01*
X49523866Y-101847623D01*
X49537400Y-101847600D01*
X49715200Y-101847600D01*
X49715200Y-101136400D01*
X50070800Y-101136400D01*
X50070800Y-102203200D01*
X49893000Y-102203200D01*
X49773832Y-102211064D01*
X49724961Y-102255432D01*
X49715222Y-102367467D01*
X49715200Y-102381000D01*
X49723063Y-102500168D01*
X49767431Y-102549039D01*
X49879466Y-102558778D01*
X49893000Y-102558800D01*
X50070800Y-102558800D01*
X50070800Y-103270000D01*
X50782000Y-103270000D01*
X50782000Y-103092200D01*
X50774136Y-102973033D01*
X50729768Y-102924162D01*
X50617733Y-102914423D01*
X50604200Y-102914400D01*
X50485032Y-102906537D01*
X50436161Y-102862169D01*
X50426422Y-102750134D01*
X50426400Y-102736600D01*
X50418536Y-102617433D01*
X50374168Y-102568562D01*
X50262133Y-102558823D01*
X50248600Y-102558800D01*
X50129432Y-102550937D01*
X50080561Y-102506569D01*
X50070822Y-102394534D01*
X50070800Y-102381000D01*
X50078663Y-102261833D01*
X50123031Y-102212962D01*
X50235066Y-102203223D01*
X50248600Y-102203200D01*
X50367767Y-102195337D01*
X50416638Y-102150969D01*
X50426377Y-102038934D01*
X50426400Y-102025400D01*
X50434263Y-101906233D01*
X50478631Y-101857362D01*
X50590666Y-101847623D01*
X50604200Y-101847600D01*
X50723367Y-101839737D01*
X50772238Y-101795369D01*
X50781977Y-101683334D01*
X50782000Y-101669800D01*
X50774136Y-101550633D01*
X50729768Y-101501762D01*
X50617733Y-101492023D01*
X50604200Y-101492000D01*
X50485032Y-101484137D01*
X50436161Y-101439769D01*
X50426422Y-101327734D01*
X50426400Y-101314200D01*
X50418536Y-101195033D01*
X50374168Y-101146162D01*
X50262133Y-101136423D01*
X50248600Y-101136400D01*
X50129432Y-101128537D01*
X50080561Y-101084169D01*
X50070822Y-100972134D01*
X50070800Y-100958600D01*
X50078663Y-100839433D01*
X50123031Y-100790562D01*
X50235066Y-100780823D01*
X50248600Y-100780800D01*
X50367767Y-100772937D01*
X50416638Y-100728569D01*
X50426377Y-100616534D01*
X50426400Y-100603000D01*
X50434263Y-100483833D01*
X50478631Y-100434962D01*
X50590666Y-100425223D01*
X50604200Y-100425200D01*
X50723367Y-100417337D01*
X50772238Y-100372969D01*
X50781977Y-100260934D01*
X50782000Y-100247400D01*
X50774136Y-100128233D01*
X50729768Y-100079362D01*
X50617733Y-100069623D01*
X50604200Y-100069600D01*
X50485032Y-100061737D01*
X50436161Y-100017369D01*
X50426422Y-99905334D01*
X50426400Y-99891800D01*
X50418536Y-99772633D01*
X50374168Y-99723762D01*
X50262133Y-99714023D01*
X50248600Y-99714000D01*
X50129432Y-99706137D01*
X50080561Y-99661769D01*
X50070822Y-99549734D01*
X50070800Y-99536200D01*
X50062936Y-99417033D01*
X50018568Y-99368162D01*
X49906533Y-99358423D01*
X49893000Y-99358400D01*
X49773832Y-99350537D01*
X49724961Y-99306169D01*
X49715222Y-99194134D01*
X49715200Y-99180600D01*
X49723063Y-99061433D01*
X49767431Y-99012562D01*
X49879466Y-99002823D01*
X49893000Y-99002800D01*
X50012167Y-98994937D01*
X50061038Y-98950569D01*
X50070777Y-98838534D01*
X50070800Y-98825000D01*
X50078663Y-98705833D01*
X50123031Y-98656962D01*
X50235066Y-98647223D01*
X50248600Y-98647200D01*
X50426400Y-98647200D01*
X50426400Y-97936000D01*
X50782000Y-97936000D01*
G36*
X49300967Y-102906537D02*
G01*
X49349838Y-102862169D01*
X49359577Y-102750134D01*
X49359600Y-102736600D01*
X49351736Y-102617433D01*
X49307368Y-102568562D01*
X49195333Y-102558823D01*
X49181800Y-102558800D01*
X49062632Y-102566664D01*
X49013761Y-102611032D01*
X49004022Y-102723067D01*
X49004000Y-102736600D01*
X49011863Y-102855768D01*
X49056231Y-102904639D01*
X49168266Y-102914378D01*
X49181800Y-102914400D01*
X49300967Y-102906537D01*
X49300967Y-102906537D01*
G37*
X49300967Y-102906537D02*
X49349838Y-102862169D01*
X49359577Y-102750134D01*
X49359600Y-102736600D01*
X49351736Y-102617433D01*
X49307368Y-102568562D01*
X49195333Y-102558823D01*
X49181800Y-102558800D01*
X49062632Y-102566664D01*
X49013761Y-102611032D01*
X49004022Y-102723067D01*
X49004000Y-102736600D01*
X49011863Y-102855768D01*
X49056231Y-102904639D01*
X49168266Y-102914378D01*
X49181800Y-102914400D01*
X49300967Y-102906537D01*
G36*
X44381200Y-105048000D02*
G01*
X44025600Y-105048000D01*
X44025600Y-105759200D01*
X44381200Y-105759200D01*
X44381200Y-105048000D01*
X44381200Y-105048000D01*
G37*
X44381200Y-105048000D02*
X44025600Y-105048000D01*
X44025600Y-105759200D01*
X44381200Y-105759200D01*
X44381200Y-105048000D01*
G36*
X41536400Y-105403600D02*
G01*
X39047200Y-105403600D01*
X39047200Y-107537200D01*
X39402800Y-107537200D01*
X39402800Y-105759200D01*
X41180800Y-105759200D01*
X41180800Y-107537200D01*
X39402800Y-107537200D01*
X39047200Y-107537200D01*
X39047200Y-107892800D01*
X41536400Y-107892800D01*
X41536400Y-105403600D01*
X41536400Y-105403600D01*
G37*
X41536400Y-105403600D02*
X39047200Y-105403600D01*
X39047200Y-107537200D01*
X39402800Y-107537200D01*
X39402800Y-105759200D01*
X41180800Y-105759200D01*
X41180800Y-107537200D01*
X39402800Y-107537200D01*
X39047200Y-107537200D01*
X39047200Y-107892800D01*
X41536400Y-107892800D01*
X41536400Y-105403600D01*
G36*
X50782000Y-105403600D02*
G01*
X48292800Y-105403600D01*
X48292800Y-107537200D01*
X48648400Y-107537200D01*
X48648400Y-105759200D01*
X50426400Y-105759200D01*
X50426400Y-107537200D01*
X48648400Y-107537200D01*
X48292800Y-107537200D01*
X48292800Y-107892800D01*
X50782000Y-107892800D01*
X50782000Y-105403600D01*
X50782000Y-105403600D01*
G37*
X50782000Y-105403600D02*
X48292800Y-105403600D01*
X48292800Y-107537200D01*
X48648400Y-107537200D01*
X48648400Y-105759200D01*
X50426400Y-105759200D01*
X50426400Y-107537200D01*
X48648400Y-107537200D01*
X48292800Y-107537200D01*
X48292800Y-107892800D01*
X50782000Y-107892800D01*
X50782000Y-105403600D01*
G36*
X42188967Y-107529337D02*
G01*
X42237838Y-107484969D01*
X42247577Y-107372934D01*
X42247600Y-107359400D01*
X42239736Y-107240233D01*
X42195368Y-107191362D01*
X42083333Y-107181623D01*
X42069800Y-107181600D01*
X41950632Y-107189464D01*
X41901761Y-107233832D01*
X41892022Y-107345867D01*
X41892000Y-107359400D01*
X41899863Y-107478568D01*
X41944231Y-107527439D01*
X42056266Y-107537178D01*
X42069800Y-107537200D01*
X42188967Y-107529337D01*
X42188967Y-107529337D01*
G37*
X42188967Y-107529337D02*
X42237838Y-107484969D01*
X42247577Y-107372934D01*
X42247600Y-107359400D01*
X42239736Y-107240233D01*
X42195368Y-107191362D01*
X42083333Y-107181623D01*
X42069800Y-107181600D01*
X41950632Y-107189464D01*
X41901761Y-107233832D01*
X41892022Y-107345867D01*
X41892000Y-107359400D01*
X41899863Y-107478568D01*
X41944231Y-107527439D01*
X42056266Y-107537178D01*
X42069800Y-107537200D01*
X42188967Y-107529337D01*
G36*
X42958800Y-107181600D02*
G01*
X42603200Y-107181600D01*
X42603200Y-107892800D01*
X42958800Y-107892800D01*
X42958800Y-107181600D01*
X42958800Y-107181600D01*
G37*
X42958800Y-107181600D02*
X42603200Y-107181600D01*
X42603200Y-107892800D01*
X42958800Y-107892800D01*
X42958800Y-107181600D01*
G36*
X40825200Y-96869200D02*
G01*
X39758400Y-96869200D01*
X39758400Y-97936000D01*
X40825200Y-97936000D01*
X40825200Y-96869200D01*
X40825200Y-96869200D01*
G37*
X40825200Y-96869200D02*
X39758400Y-96869200D01*
X39758400Y-97936000D01*
X40825200Y-97936000D01*
X40825200Y-96869200D01*
G36*
X45389367Y-97928137D02*
G01*
X45438238Y-97883769D01*
X45447977Y-97771734D01*
X45448000Y-97758200D01*
X45440136Y-97639033D01*
X45395768Y-97590162D01*
X45283733Y-97580423D01*
X45270200Y-97580400D01*
X45151032Y-97588264D01*
X45102161Y-97632632D01*
X45092422Y-97744667D01*
X45092400Y-97758200D01*
X45100263Y-97877368D01*
X45144631Y-97926239D01*
X45256666Y-97935978D01*
X45270200Y-97936000D01*
X45389367Y-97928137D01*
X45389367Y-97928137D01*
G37*
X45389367Y-97928137D02*
X45438238Y-97883769D01*
X45447977Y-97771734D01*
X45448000Y-97758200D01*
X45440136Y-97639033D01*
X45395768Y-97590162D01*
X45283733Y-97580423D01*
X45270200Y-97580400D01*
X45151032Y-97588264D01*
X45102161Y-97632632D01*
X45092422Y-97744667D01*
X45092400Y-97758200D01*
X45100263Y-97877368D01*
X45144631Y-97926239D01*
X45256666Y-97935978D01*
X45270200Y-97936000D01*
X45389367Y-97928137D01*
G36*
X47167367Y-97928137D02*
G01*
X47216238Y-97883769D01*
X47225977Y-97771734D01*
X47226000Y-97758200D01*
X47218136Y-97639033D01*
X47173768Y-97590162D01*
X47061733Y-97580423D01*
X47048200Y-97580400D01*
X46929032Y-97588264D01*
X46880161Y-97632632D01*
X46870422Y-97744667D01*
X46870400Y-97758200D01*
X46878263Y-97877368D01*
X46922631Y-97926239D01*
X47034666Y-97935978D01*
X47048200Y-97936000D01*
X47167367Y-97928137D01*
X47167367Y-97928137D01*
G37*
X47167367Y-97928137D02*
X47216238Y-97883769D01*
X47225977Y-97771734D01*
X47226000Y-97758200D01*
X47218136Y-97639033D01*
X47173768Y-97590162D01*
X47061733Y-97580423D01*
X47048200Y-97580400D01*
X46929032Y-97588264D01*
X46880161Y-97632632D01*
X46870422Y-97744667D01*
X46870400Y-97758200D01*
X46878263Y-97877368D01*
X46922631Y-97926239D01*
X47034666Y-97935978D01*
X47048200Y-97936000D01*
X47167367Y-97928137D01*
G36*
X48589767Y-98639337D02*
G01*
X48638638Y-98594969D01*
X48648377Y-98482934D01*
X48648400Y-98469400D01*
X48640536Y-98350233D01*
X48596168Y-98301362D01*
X48484133Y-98291623D01*
X48470600Y-98291600D01*
X48351432Y-98299464D01*
X48302561Y-98343832D01*
X48292822Y-98455867D01*
X48292800Y-98469400D01*
X48300663Y-98588568D01*
X48345031Y-98637439D01*
X48457066Y-98647178D01*
X48470600Y-98647200D01*
X48589767Y-98639337D01*
X48589767Y-98639337D01*
G37*
X48589767Y-98639337D02*
X48638638Y-98594969D01*
X48648377Y-98482934D01*
X48648400Y-98469400D01*
X48640536Y-98350233D01*
X48596168Y-98301362D01*
X48484133Y-98291623D01*
X48470600Y-98291600D01*
X48351432Y-98299464D01*
X48302561Y-98343832D01*
X48292822Y-98455867D01*
X48292800Y-98469400D01*
X48300663Y-98588568D01*
X48345031Y-98637439D01*
X48457066Y-98647178D01*
X48470600Y-98647200D01*
X48589767Y-98639337D01*
G36*
X43670000Y-102736600D02*
G01*
X43662136Y-102617433D01*
X43617768Y-102568562D01*
X43505733Y-102558823D01*
X43492200Y-102558800D01*
X43314400Y-102558800D01*
X43314400Y-101847600D01*
X44381200Y-101847600D01*
X44381200Y-101669800D01*
X44389063Y-101550633D01*
X44433431Y-101501762D01*
X44545466Y-101492023D01*
X44559000Y-101492000D01*
X44678167Y-101484137D01*
X44727038Y-101439769D01*
X44736777Y-101327734D01*
X44736800Y-101314200D01*
X44736800Y-101136400D01*
X44025600Y-101136400D01*
X44025600Y-100780800D01*
X45448000Y-100780800D01*
X45448000Y-100603000D01*
X45440136Y-100483833D01*
X45395768Y-100434962D01*
X45283733Y-100425223D01*
X45270200Y-100425200D01*
X45151032Y-100417337D01*
X45102161Y-100372969D01*
X45092422Y-100260934D01*
X45092400Y-100247400D01*
X45092400Y-100069600D01*
X45803600Y-100069600D01*
X45803600Y-99358400D01*
X45625800Y-99358400D01*
X45506632Y-99366264D01*
X45457761Y-99410632D01*
X45448022Y-99522667D01*
X45448000Y-99536200D01*
X45440136Y-99655368D01*
X45395768Y-99704239D01*
X45283733Y-99713978D01*
X45270200Y-99714000D01*
X45151032Y-99721864D01*
X45102161Y-99766232D01*
X45092422Y-99878267D01*
X45092400Y-99891800D01*
X45084536Y-100010968D01*
X45040168Y-100059839D01*
X44928133Y-100069578D01*
X44914600Y-100069600D01*
X44795432Y-100077464D01*
X44746561Y-100121832D01*
X44736822Y-100233867D01*
X44736800Y-100247400D01*
X44736800Y-100425200D01*
X44025600Y-100425200D01*
X44025600Y-100603000D01*
X44017736Y-100722168D01*
X43973368Y-100771039D01*
X43861333Y-100780778D01*
X43847800Y-100780800D01*
X43728632Y-100772937D01*
X43679761Y-100728569D01*
X43670022Y-100616534D01*
X43670000Y-100603000D01*
X43662136Y-100483833D01*
X43617768Y-100434962D01*
X43505733Y-100425223D01*
X43492200Y-100425200D01*
X43314400Y-100425200D01*
X43314400Y-101136400D01*
X43492200Y-101136400D01*
X43611367Y-101144264D01*
X43660238Y-101188632D01*
X43669977Y-101300667D01*
X43670000Y-101314200D01*
X43662136Y-101433368D01*
X43617768Y-101482239D01*
X43505733Y-101491978D01*
X43492200Y-101492000D01*
X43373032Y-101499864D01*
X43324161Y-101544232D01*
X43314422Y-101656267D01*
X43314400Y-101669800D01*
X43306536Y-101788968D01*
X43262168Y-101837839D01*
X43150133Y-101847578D01*
X43136600Y-101847600D01*
X42958800Y-101847600D01*
X42958800Y-102914400D01*
X43670000Y-102914400D01*
X43670000Y-102736600D01*
X43670000Y-102736600D01*
G37*
X43670000Y-102736600D02*
X43662136Y-102617433D01*
X43617768Y-102568562D01*
X43505733Y-102558823D01*
X43492200Y-102558800D01*
X43314400Y-102558800D01*
X43314400Y-101847600D01*
X44381200Y-101847600D01*
X44381200Y-101669800D01*
X44389063Y-101550633D01*
X44433431Y-101501762D01*
X44545466Y-101492023D01*
X44559000Y-101492000D01*
X44678167Y-101484137D01*
X44727038Y-101439769D01*
X44736777Y-101327734D01*
X44736800Y-101314200D01*
X44736800Y-101136400D01*
X44025600Y-101136400D01*
X44025600Y-100780800D01*
X45448000Y-100780800D01*
X45448000Y-100603000D01*
X45440136Y-100483833D01*
X45395768Y-100434962D01*
X45283733Y-100425223D01*
X45270200Y-100425200D01*
X45151032Y-100417337D01*
X45102161Y-100372969D01*
X45092422Y-100260934D01*
X45092400Y-100247400D01*
X45092400Y-100069600D01*
X45803600Y-100069600D01*
X45803600Y-99358400D01*
X45625800Y-99358400D01*
X45506632Y-99366264D01*
X45457761Y-99410632D01*
X45448022Y-99522667D01*
X45448000Y-99536200D01*
X45440136Y-99655368D01*
X45395768Y-99704239D01*
X45283733Y-99713978D01*
X45270200Y-99714000D01*
X45151032Y-99721864D01*
X45102161Y-99766232D01*
X45092422Y-99878267D01*
X45092400Y-99891800D01*
X45084536Y-100010968D01*
X45040168Y-100059839D01*
X44928133Y-100069578D01*
X44914600Y-100069600D01*
X44795432Y-100077464D01*
X44746561Y-100121832D01*
X44736822Y-100233867D01*
X44736800Y-100247400D01*
X44736800Y-100425200D01*
X44025600Y-100425200D01*
X44025600Y-100603000D01*
X44017736Y-100722168D01*
X43973368Y-100771039D01*
X43861333Y-100780778D01*
X43847800Y-100780800D01*
X43728632Y-100772937D01*
X43679761Y-100728569D01*
X43670022Y-100616534D01*
X43670000Y-100603000D01*
X43662136Y-100483833D01*
X43617768Y-100434962D01*
X43505733Y-100425223D01*
X43492200Y-100425200D01*
X43314400Y-100425200D01*
X43314400Y-101136400D01*
X43492200Y-101136400D01*
X43611367Y-101144264D01*
X43660238Y-101188632D01*
X43669977Y-101300667D01*
X43670000Y-101314200D01*
X43662136Y-101433368D01*
X43617768Y-101482239D01*
X43505733Y-101491978D01*
X43492200Y-101492000D01*
X43373032Y-101499864D01*
X43324161Y-101544232D01*
X43314422Y-101656267D01*
X43314400Y-101669800D01*
X43306536Y-101788968D01*
X43262168Y-101837839D01*
X43150133Y-101847578D01*
X43136600Y-101847600D01*
X42958800Y-101847600D01*
X42958800Y-102914400D01*
X43670000Y-102914400D01*
X43670000Y-102736600D01*
G36*
X42603200Y-101669800D02*
G01*
X42595336Y-101550633D01*
X42550968Y-101501762D01*
X42438933Y-101492023D01*
X42425400Y-101492000D01*
X42247600Y-101492000D01*
X42247600Y-100069600D01*
X41892000Y-100069600D01*
X41892000Y-101847600D01*
X42603200Y-101847600D01*
X42603200Y-101669800D01*
X42603200Y-101669800D01*
G37*
X42603200Y-101669800D02*
X42595336Y-101550633D01*
X42550968Y-101501762D01*
X42438933Y-101492023D01*
X42425400Y-101492000D01*
X42247600Y-101492000D01*
X42247600Y-100069600D01*
X41892000Y-100069600D01*
X41892000Y-101847600D01*
X42603200Y-101847600D01*
X42603200Y-101669800D01*
G36*
X42900167Y-101128537D02*
G01*
X42949038Y-101084169D01*
X42958777Y-100972134D01*
X42958800Y-100958600D01*
X42950936Y-100839433D01*
X42906568Y-100790562D01*
X42794533Y-100780823D01*
X42781000Y-100780800D01*
X42661832Y-100788664D01*
X42612961Y-100833032D01*
X42603222Y-100945067D01*
X42603200Y-100958600D01*
X42611063Y-101077768D01*
X42655431Y-101126639D01*
X42767466Y-101136378D01*
X42781000Y-101136400D01*
X42900167Y-101128537D01*
X42900167Y-101128537D01*
G37*
X42900167Y-101128537D02*
X42949038Y-101084169D01*
X42958777Y-100972134D01*
X42958800Y-100958600D01*
X42950936Y-100839433D01*
X42906568Y-100790562D01*
X42794533Y-100780823D01*
X42781000Y-100780800D01*
X42661832Y-100788664D01*
X42612961Y-100833032D01*
X42603222Y-100945067D01*
X42603200Y-100958600D01*
X42611063Y-101077768D01*
X42655431Y-101126639D01*
X42767466Y-101136378D01*
X42781000Y-101136400D01*
X42900167Y-101128537D01*
G36*
X41477767Y-101484137D02*
G01*
X41526638Y-101439769D01*
X41536377Y-101327734D01*
X41536400Y-101314200D01*
X41528536Y-101195033D01*
X41484168Y-101146162D01*
X41372133Y-101136423D01*
X41358600Y-101136400D01*
X41239432Y-101144264D01*
X41190561Y-101188632D01*
X41180822Y-101300667D01*
X41180800Y-101314200D01*
X41188663Y-101433368D01*
X41233031Y-101482239D01*
X41345066Y-101491978D01*
X41358600Y-101492000D01*
X41477767Y-101484137D01*
X41477767Y-101484137D01*
G37*
X41477767Y-101484137D02*
X41526638Y-101439769D01*
X41536377Y-101327734D01*
X41536400Y-101314200D01*
X41528536Y-101195033D01*
X41484168Y-101146162D01*
X41372133Y-101136423D01*
X41358600Y-101136400D01*
X41239432Y-101144264D01*
X41190561Y-101188632D01*
X41180822Y-101300667D01*
X41180800Y-101314200D01*
X41188663Y-101433368D01*
X41233031Y-101482239D01*
X41345066Y-101491978D01*
X41358600Y-101492000D01*
X41477767Y-101484137D01*
G36*
X41536400Y-101847600D02*
G01*
X40469600Y-101847600D01*
X40469600Y-102203200D01*
X41536400Y-102203200D01*
X41536400Y-101847600D01*
X41536400Y-101847600D01*
G37*
X41536400Y-101847600D02*
X40469600Y-101847600D01*
X40469600Y-102203200D01*
X41536400Y-102203200D01*
X41536400Y-101847600D01*
G36*
X42958800Y-103447800D02*
G01*
X42950936Y-103328633D01*
X42906568Y-103279762D01*
X42794533Y-103270023D01*
X42781000Y-103270000D01*
X42661832Y-103262137D01*
X42612961Y-103217769D01*
X42603222Y-103105734D01*
X42603200Y-103092200D01*
X42595336Y-102973033D01*
X42550968Y-102924162D01*
X42438933Y-102914423D01*
X42425400Y-102914400D01*
X42306232Y-102906537D01*
X42257361Y-102862169D01*
X42247622Y-102750134D01*
X42247600Y-102736600D01*
X42255463Y-102617433D01*
X42299831Y-102568562D01*
X42411866Y-102558823D01*
X42425400Y-102558800D01*
X42544567Y-102550937D01*
X42593438Y-102506569D01*
X42603177Y-102394534D01*
X42603200Y-102381000D01*
X42603200Y-102203200D01*
X41892000Y-102203200D01*
X41892000Y-102558800D01*
X40825200Y-102558800D01*
X40825200Y-102914400D01*
X41892000Y-102914400D01*
X41892000Y-103625600D01*
X42958800Y-103625600D01*
X42958800Y-103447800D01*
X42958800Y-103447800D01*
G37*
X42958800Y-103447800D02*
X42950936Y-103328633D01*
X42906568Y-103279762D01*
X42794533Y-103270023D01*
X42781000Y-103270000D01*
X42661832Y-103262137D01*
X42612961Y-103217769D01*
X42603222Y-103105734D01*
X42603200Y-103092200D01*
X42595336Y-102973033D01*
X42550968Y-102924162D01*
X42438933Y-102914423D01*
X42425400Y-102914400D01*
X42306232Y-102906537D01*
X42257361Y-102862169D01*
X42247622Y-102750134D01*
X42247600Y-102736600D01*
X42255463Y-102617433D01*
X42299831Y-102568562D01*
X42411866Y-102558823D01*
X42425400Y-102558800D01*
X42544567Y-102550937D01*
X42593438Y-102506569D01*
X42603177Y-102394534D01*
X42603200Y-102381000D01*
X42603200Y-102203200D01*
X41892000Y-102203200D01*
X41892000Y-102558800D01*
X40825200Y-102558800D01*
X40825200Y-102914400D01*
X41892000Y-102914400D01*
X41892000Y-103625600D01*
X42958800Y-103625600D01*
X42958800Y-103447800D01*
G36*
X45092400Y-102736600D02*
G01*
X45084536Y-102617433D01*
X45040168Y-102568562D01*
X44928133Y-102558823D01*
X44914600Y-102558800D01*
X44795432Y-102550937D01*
X44746561Y-102506569D01*
X44736822Y-102394534D01*
X44736800Y-102381000D01*
X44736800Y-102203200D01*
X44025600Y-102203200D01*
X44025600Y-102381000D01*
X44033463Y-102500168D01*
X44077831Y-102549039D01*
X44189866Y-102558778D01*
X44203400Y-102558800D01*
X44322567Y-102566664D01*
X44371438Y-102611032D01*
X44381177Y-102723067D01*
X44381200Y-102736600D01*
X44381200Y-102914400D01*
X45092400Y-102914400D01*
X45092400Y-102736600D01*
X45092400Y-102736600D01*
G37*
X45092400Y-102736600D02*
X45084536Y-102617433D01*
X45040168Y-102568562D01*
X44928133Y-102558823D01*
X44914600Y-102558800D01*
X44795432Y-102550937D01*
X44746561Y-102506569D01*
X44736822Y-102394534D01*
X44736800Y-102381000D01*
X44736800Y-102203200D01*
X44025600Y-102203200D01*
X44025600Y-102381000D01*
X44033463Y-102500168D01*
X44077831Y-102549039D01*
X44189866Y-102558778D01*
X44203400Y-102558800D01*
X44322567Y-102566664D01*
X44371438Y-102611032D01*
X44381177Y-102723067D01*
X44381200Y-102736600D01*
X44381200Y-102914400D01*
X45092400Y-102914400D01*
X45092400Y-102736600D01*
G36*
X44322567Y-103617737D02*
G01*
X44371438Y-103573369D01*
X44381177Y-103461334D01*
X44381200Y-103447800D01*
X44373336Y-103328633D01*
X44328968Y-103279762D01*
X44216933Y-103270023D01*
X44203400Y-103270000D01*
X44084232Y-103277864D01*
X44035361Y-103322232D01*
X44025622Y-103434267D01*
X44025600Y-103447800D01*
X44033463Y-103566968D01*
X44077831Y-103615839D01*
X44189866Y-103625578D01*
X44203400Y-103625600D01*
X44322567Y-103617737D01*
X44322567Y-103617737D01*
G37*
X44322567Y-103617737D02*
X44371438Y-103573369D01*
X44381177Y-103461334D01*
X44381200Y-103447800D01*
X44373336Y-103328633D01*
X44328968Y-103279762D01*
X44216933Y-103270023D01*
X44203400Y-103270000D01*
X44084232Y-103277864D01*
X44035361Y-103322232D01*
X44025622Y-103434267D01*
X44025600Y-103447800D01*
X44033463Y-103566968D01*
X44077831Y-103615839D01*
X44189866Y-103625578D01*
X44203400Y-103625600D01*
X44322567Y-103617737D01*
G36*
X46159200Y-103625600D02*
G01*
X45448000Y-103625600D01*
X45448000Y-103447800D01*
X45440136Y-103328633D01*
X45395768Y-103279762D01*
X45283733Y-103270023D01*
X45270200Y-103270000D01*
X45151032Y-103277864D01*
X45102161Y-103322232D01*
X45092422Y-103434267D01*
X45092400Y-103447800D01*
X45100263Y-103566968D01*
X45144631Y-103615839D01*
X45256666Y-103625578D01*
X45270200Y-103625600D01*
X45389367Y-103633464D01*
X45438238Y-103677832D01*
X45447977Y-103789867D01*
X45448000Y-103803400D01*
X45448000Y-103981200D01*
X46159200Y-103981200D01*
X46159200Y-103625600D01*
X46159200Y-103625600D01*
G37*
X46159200Y-103625600D02*
X45448000Y-103625600D01*
X45448000Y-103447800D01*
X45440136Y-103328633D01*
X45395768Y-103279762D01*
X45283733Y-103270023D01*
X45270200Y-103270000D01*
X45151032Y-103277864D01*
X45102161Y-103322232D01*
X45092422Y-103434267D01*
X45092400Y-103447800D01*
X45100263Y-103566968D01*
X45144631Y-103615839D01*
X45256666Y-103625578D01*
X45270200Y-103625600D01*
X45389367Y-103633464D01*
X45438238Y-103677832D01*
X45447977Y-103789867D01*
X45448000Y-103803400D01*
X45448000Y-103981200D01*
X46159200Y-103981200D01*
X46159200Y-103625600D01*
G36*
X42958800Y-103981200D02*
G01*
X42603200Y-103981200D01*
X42603200Y-104692400D01*
X42958800Y-104692400D01*
X42958800Y-103981200D01*
X42958800Y-103981200D01*
G37*
X42958800Y-103981200D02*
X42603200Y-103981200D01*
X42603200Y-104692400D01*
X42958800Y-104692400D01*
X42958800Y-103981200D01*
G36*
X48292800Y-100603000D02*
G01*
X48300663Y-100483833D01*
X48345031Y-100434962D01*
X48457066Y-100425223D01*
X48470600Y-100425200D01*
X48589767Y-100417337D01*
X48638638Y-100372969D01*
X48648377Y-100260934D01*
X48648400Y-100247400D01*
X48640536Y-100128233D01*
X48596168Y-100079362D01*
X48484133Y-100069623D01*
X48470600Y-100069600D01*
X48351432Y-100077464D01*
X48302561Y-100121832D01*
X48292822Y-100233867D01*
X48292800Y-100247400D01*
X48292800Y-100425200D01*
X47581600Y-100425200D01*
X47581600Y-100247400D01*
X47573736Y-100128233D01*
X47529368Y-100079362D01*
X47417333Y-100069623D01*
X47403800Y-100069600D01*
X47284632Y-100077464D01*
X47235761Y-100121832D01*
X47226022Y-100233867D01*
X47226000Y-100247400D01*
X47218136Y-100366568D01*
X47173768Y-100415439D01*
X47061733Y-100425178D01*
X47048200Y-100425200D01*
X46929032Y-100433064D01*
X46880161Y-100477432D01*
X46870422Y-100589467D01*
X46870400Y-100603000D01*
X46878263Y-100722168D01*
X46922631Y-100771039D01*
X47034666Y-100780778D01*
X47048200Y-100780800D01*
X47167367Y-100772937D01*
X47216238Y-100728569D01*
X47225977Y-100616534D01*
X47226000Y-100603000D01*
X47233863Y-100483833D01*
X47278231Y-100434962D01*
X47390266Y-100425223D01*
X47403800Y-100425200D01*
X47522967Y-100433064D01*
X47571838Y-100477432D01*
X47581577Y-100589467D01*
X47581600Y-100603000D01*
X47581600Y-100780800D01*
X48292800Y-100780800D01*
X48292800Y-100603000D01*
X48292800Y-100603000D01*
G37*
X48292800Y-100603000D02*
X48300663Y-100483833D01*
X48345031Y-100434962D01*
X48457066Y-100425223D01*
X48470600Y-100425200D01*
X48589767Y-100417337D01*
X48638638Y-100372969D01*
X48648377Y-100260934D01*
X48648400Y-100247400D01*
X48640536Y-100128233D01*
X48596168Y-100079362D01*
X48484133Y-100069623D01*
X48470600Y-100069600D01*
X48351432Y-100077464D01*
X48302561Y-100121832D01*
X48292822Y-100233867D01*
X48292800Y-100247400D01*
X48292800Y-100425200D01*
X47581600Y-100425200D01*
X47581600Y-100247400D01*
X47573736Y-100128233D01*
X47529368Y-100079362D01*
X47417333Y-100069623D01*
X47403800Y-100069600D01*
X47284632Y-100077464D01*
X47235761Y-100121832D01*
X47226022Y-100233867D01*
X47226000Y-100247400D01*
X47218136Y-100366568D01*
X47173768Y-100415439D01*
X47061733Y-100425178D01*
X47048200Y-100425200D01*
X46929032Y-100433064D01*
X46880161Y-100477432D01*
X46870422Y-100589467D01*
X46870400Y-100603000D01*
X46878263Y-100722168D01*
X46922631Y-100771039D01*
X47034666Y-100780778D01*
X47048200Y-100780800D01*
X47167367Y-100772937D01*
X47216238Y-100728569D01*
X47225977Y-100616534D01*
X47226000Y-100603000D01*
X47233863Y-100483833D01*
X47278231Y-100434962D01*
X47390266Y-100425223D01*
X47403800Y-100425200D01*
X47522967Y-100433064D01*
X47571838Y-100477432D01*
X47581577Y-100589467D01*
X47581600Y-100603000D01*
X47581600Y-100780800D01*
X48292800Y-100780800D01*
X48292800Y-100603000D01*
G36*
X49300967Y-100772937D02*
G01*
X49349838Y-100728569D01*
X49359577Y-100616534D01*
X49359600Y-100603000D01*
X49351736Y-100483833D01*
X49307368Y-100434962D01*
X49195333Y-100425223D01*
X49181800Y-100425200D01*
X49062632Y-100433064D01*
X49013761Y-100477432D01*
X49004022Y-100589467D01*
X49004000Y-100603000D01*
X49011863Y-100722168D01*
X49056231Y-100771039D01*
X49168266Y-100780778D01*
X49181800Y-100780800D01*
X49300967Y-100772937D01*
X49300967Y-100772937D01*
G37*
X49300967Y-100772937D02*
X49349838Y-100728569D01*
X49359577Y-100616534D01*
X49359600Y-100603000D01*
X49351736Y-100483833D01*
X49307368Y-100434962D01*
X49195333Y-100425223D01*
X49181800Y-100425200D01*
X49062632Y-100433064D01*
X49013761Y-100477432D01*
X49004022Y-100589467D01*
X49004000Y-100603000D01*
X49011863Y-100722168D01*
X49056231Y-100771039D01*
X49168266Y-100780778D01*
X49181800Y-100780800D01*
X49300967Y-100772937D01*
G36*
X45744967Y-105751337D02*
G01*
X45793838Y-105706969D01*
X45803577Y-105594934D01*
X45803600Y-105581400D01*
X45795736Y-105462233D01*
X45751368Y-105413362D01*
X45639333Y-105403623D01*
X45625800Y-105403600D01*
X45506632Y-105411464D01*
X45457761Y-105455832D01*
X45448022Y-105567867D01*
X45448000Y-105581400D01*
X45455863Y-105700568D01*
X45500231Y-105749439D01*
X45612266Y-105759178D01*
X45625800Y-105759200D01*
X45744967Y-105751337D01*
X45744967Y-105751337D01*
G37*
X45744967Y-105751337D02*
X45793838Y-105706969D01*
X45803577Y-105594934D01*
X45803600Y-105581400D01*
X45795736Y-105462233D01*
X45751368Y-105413362D01*
X45639333Y-105403623D01*
X45625800Y-105403600D01*
X45506632Y-105411464D01*
X45457761Y-105455832D01*
X45448022Y-105567867D01*
X45448000Y-105581400D01*
X45455863Y-105700568D01*
X45500231Y-105749439D01*
X45612266Y-105759178D01*
X45625800Y-105759200D01*
X45744967Y-105751337D01*
G36*
X47167367Y-106818137D02*
G01*
X47216238Y-106773769D01*
X47225977Y-106661734D01*
X47226000Y-106648200D01*
X47218136Y-106529033D01*
X47173768Y-106480162D01*
X47061733Y-106470423D01*
X47048200Y-106470400D01*
X46929032Y-106478264D01*
X46880161Y-106522632D01*
X46870422Y-106634667D01*
X46870400Y-106648200D01*
X46878263Y-106767368D01*
X46922631Y-106816239D01*
X47034666Y-106825978D01*
X47048200Y-106826000D01*
X47167367Y-106818137D01*
X47167367Y-106818137D01*
G37*
X47167367Y-106818137D02*
X47216238Y-106773769D01*
X47225977Y-106661734D01*
X47226000Y-106648200D01*
X47218136Y-106529033D01*
X47173768Y-106480162D01*
X47061733Y-106470423D01*
X47048200Y-106470400D01*
X46929032Y-106478264D01*
X46880161Y-106522632D01*
X46870422Y-106634667D01*
X46870400Y-106648200D01*
X46878263Y-106767368D01*
X46922631Y-106816239D01*
X47034666Y-106825978D01*
X47048200Y-106826000D01*
X47167367Y-106818137D01*
G36*
X46159200Y-106826000D02*
G01*
X45448000Y-106826000D01*
X45448000Y-107181600D01*
X46159200Y-107181600D01*
X46159200Y-106826000D01*
X46159200Y-106826000D01*
G37*
X46159200Y-106826000D02*
X45448000Y-106826000D01*
X45448000Y-107181600D01*
X46159200Y-107181600D01*
X46159200Y-106826000D01*
G36*
X40825200Y-106114800D02*
G01*
X39758400Y-106114800D01*
X39758400Y-107181600D01*
X40825200Y-107181600D01*
X40825200Y-106114800D01*
X40825200Y-106114800D01*
G37*
X40825200Y-106114800D02*
X39758400Y-106114800D01*
X39758400Y-107181600D01*
X40825200Y-107181600D01*
X40825200Y-106114800D01*
G36*
X50070800Y-106114800D02*
G01*
X49004000Y-106114800D01*
X49004000Y-107181600D01*
X50070800Y-107181600D01*
X50070800Y-106114800D01*
X50070800Y-106114800D01*
G37*
X50070800Y-106114800D02*
X49004000Y-106114800D01*
X49004000Y-107181600D01*
X50070800Y-107181600D01*
X50070800Y-106114800D01*
D14*
X39140000Y-118542000D02*
X37140000Y-118542000D01*
X37140000Y-116502000D02*
X39140000Y-116502000D01*
X43440000Y-119702000D02*
X45440000Y-119702000D01*
X45440000Y-121742000D02*
X43440000Y-121742000D01*
X36040000Y-121422000D02*
X36040000Y-119422000D01*
X36040000Y-119422000D02*
X39890000Y-119422000D01*
X36040000Y-121422000D02*
X39890000Y-121422000D01*
D15*
X31190000Y-97772000D02*
X31190000Y-106272000D01*
X31190000Y-106272000D02*
X25190000Y-106272000D01*
X25190000Y-106272000D02*
X25190000Y-103772000D01*
X25190000Y-103772000D02*
X25940000Y-103772000D01*
X25940000Y-103772000D02*
X25940000Y-100022000D01*
X25190000Y-100022000D02*
X25190000Y-97522000D01*
X25190000Y-97522000D02*
X31190000Y-97522000D01*
X31190000Y-97522000D02*
X31190000Y-97772000D01*
X25940000Y-100022000D02*
X25190000Y-100022000D01*
D14*
X49090000Y-89172000D02*
X41390000Y-89172000D01*
X49090000Y-90172000D02*
X41390000Y-90172000D01*
X41390000Y-90172000D02*
X41390000Y-80972000D01*
X41390000Y-80972000D02*
X49090000Y-80972000D01*
X49090000Y-80972000D02*
X49090000Y-90172000D01*
X45360000Y-116922000D02*
X45360000Y-118122000D01*
X47120000Y-118122000D02*
X47120000Y-116922000D01*
X41940000Y-115912000D02*
X43740000Y-115912000D01*
X43740000Y-119132000D02*
X41290000Y-119132000D01*
X40960000Y-112422000D02*
X40960000Y-113622000D01*
X42720000Y-113622000D02*
X42720000Y-112422000D01*
X47120000Y-114622000D02*
X47120000Y-113422000D01*
X45360000Y-113422000D02*
X45360000Y-114622000D01*
X44890000Y-112422000D02*
X44890000Y-113422000D01*
X43190000Y-113422000D02*
X43190000Y-112422000D01*
D15*
X47997426Y-123388940D02*
X48473617Y-123388940D01*
X48473617Y-122388940D01*
X47140283Y-123388940D02*
X47711712Y-123388940D01*
X47425998Y-123388940D02*
X47425998Y-122388940D01*
X47521236Y-122531798D01*
X47616474Y-122627036D01*
X47711712Y-122674655D01*
X50674542Y-113753662D02*
X50722161Y-113706043D01*
X50769780Y-113563186D01*
X50769780Y-113467948D01*
X50722161Y-113325091D01*
X50626923Y-113229853D01*
X50531685Y-113182234D01*
X50341209Y-113134615D01*
X50198352Y-113134615D01*
X50007876Y-113182234D01*
X49912638Y-113229853D01*
X49817400Y-113325091D01*
X49769780Y-113467948D01*
X49769780Y-113563186D01*
X49817400Y-113706043D01*
X49865019Y-113753662D01*
X49865019Y-114134615D02*
X49817400Y-114182234D01*
X49769780Y-114277472D01*
X49769780Y-114515567D01*
X49817400Y-114610805D01*
X49865019Y-114658424D01*
X49960257Y-114706043D01*
X50055495Y-114706043D01*
X50198352Y-114658424D01*
X50769780Y-114086996D01*
X50769780Y-114706043D01*
X49865019Y-115086996D02*
X49817400Y-115134615D01*
X49769780Y-115229853D01*
X49769780Y-115467948D01*
X49817400Y-115563186D01*
X49865019Y-115610805D01*
X49960257Y-115658424D01*
X50055495Y-115658424D01*
X50198352Y-115610805D01*
X50769780Y-115039377D01*
X50769780Y-115658424D01*
X38027906Y-116043982D02*
X38075525Y-116091601D01*
X38218382Y-116139220D01*
X38313620Y-116139220D01*
X38456478Y-116091601D01*
X38551716Y-115996363D01*
X38599335Y-115901125D01*
X38646954Y-115710649D01*
X38646954Y-115567792D01*
X38599335Y-115377316D01*
X38551716Y-115282078D01*
X38456478Y-115186840D01*
X38313620Y-115139220D01*
X38218382Y-115139220D01*
X38075525Y-115186840D01*
X38027906Y-115234459D01*
X37170763Y-115139220D02*
X37361240Y-115139220D01*
X37456478Y-115186840D01*
X37504097Y-115234459D01*
X37599335Y-115377316D01*
X37646954Y-115567792D01*
X37646954Y-115948744D01*
X37599335Y-116043982D01*
X37551716Y-116091601D01*
X37456478Y-116139220D01*
X37266001Y-116139220D01*
X37170763Y-116091601D01*
X37123144Y-116043982D01*
X37075525Y-115948744D01*
X37075525Y-115710649D01*
X37123144Y-115615411D01*
X37170763Y-115567792D01*
X37266001Y-115520173D01*
X37456478Y-115520173D01*
X37551716Y-115567792D01*
X37599335Y-115615411D01*
X37646954Y-115710649D01*
X49082857Y-121179142D02*
X49130476Y-121226761D01*
X49273333Y-121274380D01*
X49368571Y-121274380D01*
X49511428Y-121226761D01*
X49606666Y-121131523D01*
X49654285Y-121036285D01*
X49701904Y-120845809D01*
X49701904Y-120702952D01*
X49654285Y-120512476D01*
X49606666Y-120417238D01*
X49511428Y-120322000D01*
X49368571Y-120274380D01*
X49273333Y-120274380D01*
X49130476Y-120322000D01*
X49082857Y-120369619D01*
X48701904Y-120369619D02*
X48654285Y-120322000D01*
X48559047Y-120274380D01*
X48320952Y-120274380D01*
X48225714Y-120322000D01*
X48178095Y-120369619D01*
X48130476Y-120464857D01*
X48130476Y-120560095D01*
X48178095Y-120702952D01*
X48749523Y-121274380D01*
X48130476Y-121274380D01*
X47511428Y-120274380D02*
X47416190Y-120274380D01*
X47320952Y-120322000D01*
X47273333Y-120369619D01*
X47225714Y-120464857D01*
X47178095Y-120655333D01*
X47178095Y-120893428D01*
X47225714Y-121083904D01*
X47273333Y-121179142D01*
X47320952Y-121226761D01*
X47416190Y-121274380D01*
X47511428Y-121274380D01*
X47606666Y-121226761D01*
X47654285Y-121179142D01*
X47701904Y-121083904D01*
X47749523Y-120893428D01*
X47749523Y-120655333D01*
X47701904Y-120464857D01*
X47654285Y-120369619D01*
X47606666Y-120322000D01*
X47511428Y-120274380D01*
X38975255Y-122667020D02*
X38975255Y-121667020D01*
X38737160Y-121667020D01*
X38594302Y-121714640D01*
X38499064Y-121809878D01*
X38451445Y-121905116D01*
X38403826Y-122095592D01*
X38403826Y-122238449D01*
X38451445Y-122428925D01*
X38499064Y-122524163D01*
X38594302Y-122619401D01*
X38737160Y-122667020D01*
X38975255Y-122667020D01*
X37546683Y-121667020D02*
X37737160Y-121667020D01*
X37832398Y-121714640D01*
X37880017Y-121762259D01*
X37975255Y-121905116D01*
X38022874Y-122095592D01*
X38022874Y-122476544D01*
X37975255Y-122571782D01*
X37927636Y-122619401D01*
X37832398Y-122667020D01*
X37641921Y-122667020D01*
X37546683Y-122619401D01*
X37499064Y-122571782D01*
X37451445Y-122476544D01*
X37451445Y-122238449D01*
X37499064Y-122143211D01*
X37546683Y-122095592D01*
X37641921Y-122047973D01*
X37832398Y-122047973D01*
X37927636Y-122095592D01*
X37975255Y-122143211D01*
X38022874Y-122238449D01*
X23955333Y-104090220D02*
X23955333Y-104804506D01*
X24002952Y-104947363D01*
X24098190Y-105042601D01*
X24241047Y-105090220D01*
X24336285Y-105090220D01*
X23526761Y-104185459D02*
X23479142Y-104137840D01*
X23383904Y-104090220D01*
X23145809Y-104090220D01*
X23050571Y-104137840D01*
X23002952Y-104185459D01*
X22955333Y-104280697D01*
X22955333Y-104375935D01*
X23002952Y-104518792D01*
X23574380Y-105090220D01*
X22955333Y-105090220D01*
X48263133Y-79482700D02*
X48263133Y-80196986D01*
X48310752Y-80339843D01*
X48405990Y-80435081D01*
X48548847Y-80482700D01*
X48644085Y-80482700D01*
X47358371Y-79816034D02*
X47358371Y-80482700D01*
X47596466Y-79435081D02*
X47834561Y-80149367D01*
X47215514Y-80149367D01*
X48342380Y-116879142D02*
X47866190Y-116545809D01*
X48342380Y-116307714D02*
X47342380Y-116307714D01*
X47342380Y-116688666D01*
X47390000Y-116783904D01*
X47437619Y-116831523D01*
X47532857Y-116879142D01*
X47675714Y-116879142D01*
X47770952Y-116831523D01*
X47818571Y-116783904D01*
X47866190Y-116688666D01*
X47866190Y-116307714D01*
X48342380Y-117831523D02*
X48342380Y-117260095D01*
X48342380Y-117545809D02*
X47342380Y-117545809D01*
X47485238Y-117450571D01*
X47580476Y-117355333D01*
X47628095Y-117260095D01*
X47342380Y-118164857D02*
X47342380Y-118831523D01*
X48342380Y-118402952D01*
X44078095Y-114574380D02*
X44078095Y-115383904D01*
X44030476Y-115479142D01*
X43982857Y-115526761D01*
X43887619Y-115574380D01*
X43697142Y-115574380D01*
X43601904Y-115526761D01*
X43554285Y-115479142D01*
X43506666Y-115383904D01*
X43506666Y-114574380D01*
X42506666Y-115574380D02*
X43078095Y-115574380D01*
X42792380Y-115574380D02*
X42792380Y-114574380D01*
X42887619Y-114717238D01*
X42982857Y-114812476D01*
X43078095Y-114860095D01*
X41554285Y-115574380D02*
X42125714Y-115574380D01*
X41840000Y-115574380D02*
X41840000Y-114574380D01*
X41935238Y-114717238D01*
X42030476Y-114812476D01*
X42125714Y-114860095D01*
X42292380Y-109279142D02*
X41816190Y-108945809D01*
X42292380Y-108707714D02*
X41292380Y-108707714D01*
X41292380Y-109088666D01*
X41340000Y-109183904D01*
X41387619Y-109231523D01*
X41482857Y-109279142D01*
X41625714Y-109279142D01*
X41720952Y-109231523D01*
X41768571Y-109183904D01*
X41816190Y-109088666D01*
X41816190Y-108707714D01*
X42292380Y-110231523D02*
X42292380Y-109660095D01*
X42292380Y-109945809D02*
X41292380Y-109945809D01*
X41435238Y-109850571D01*
X41530476Y-109755333D01*
X41578095Y-109660095D01*
X41720952Y-110802952D02*
X41673333Y-110707714D01*
X41625714Y-110660095D01*
X41530476Y-110612476D01*
X41482857Y-110612476D01*
X41387619Y-110660095D01*
X41340000Y-110707714D01*
X41292380Y-110802952D01*
X41292380Y-110993428D01*
X41340000Y-111088666D01*
X41387619Y-111136285D01*
X41482857Y-111183904D01*
X41530476Y-111183904D01*
X41625714Y-111136285D01*
X41673333Y-111088666D01*
X41720952Y-110993428D01*
X41720952Y-110802952D01*
X41768571Y-110707714D01*
X41816190Y-110660095D01*
X41911428Y-110612476D01*
X42101904Y-110612476D01*
X42197142Y-110660095D01*
X42244761Y-110707714D01*
X42292380Y-110802952D01*
X42292380Y-110993428D01*
X42244761Y-111088666D01*
X42197142Y-111136285D01*
X42101904Y-111183904D01*
X41911428Y-111183904D01*
X41816190Y-111136285D01*
X41768571Y-111088666D01*
X41720952Y-110993428D01*
X46715940Y-108744782D02*
X46239750Y-108411449D01*
X46715940Y-108173354D02*
X45715940Y-108173354D01*
X45715940Y-108554306D01*
X45763560Y-108649544D01*
X45811179Y-108697163D01*
X45906417Y-108744782D01*
X46049274Y-108744782D01*
X46144512Y-108697163D01*
X46192131Y-108649544D01*
X46239750Y-108554306D01*
X46239750Y-108173354D01*
X46715940Y-109697163D02*
X46715940Y-109125735D01*
X46715940Y-109411449D02*
X45715940Y-109411449D01*
X45858798Y-109316211D01*
X45954036Y-109220973D01*
X46001655Y-109125735D01*
X46715940Y-110173354D02*
X46715940Y-110363830D01*
X46668321Y-110459068D01*
X46620702Y-110506687D01*
X46477845Y-110601925D01*
X46287369Y-110649544D01*
X45906417Y-110649544D01*
X45811179Y-110601925D01*
X45763560Y-110554306D01*
X45715940Y-110459068D01*
X45715940Y-110268592D01*
X45763560Y-110173354D01*
X45811179Y-110125735D01*
X45906417Y-110078116D01*
X46144512Y-110078116D01*
X46239750Y-110125735D01*
X46287369Y-110173354D01*
X46334988Y-110268592D01*
X46334988Y-110459068D01*
X46287369Y-110554306D01*
X46239750Y-110601925D01*
X46144512Y-110649544D01*
X44397142Y-109079142D02*
X44444761Y-109031523D01*
X44492380Y-108888666D01*
X44492380Y-108793428D01*
X44444761Y-108650571D01*
X44349523Y-108555333D01*
X44254285Y-108507714D01*
X44063809Y-108460095D01*
X43920952Y-108460095D01*
X43730476Y-108507714D01*
X43635238Y-108555333D01*
X43540000Y-108650571D01*
X43492380Y-108793428D01*
X43492380Y-108888666D01*
X43540000Y-109031523D01*
X43587619Y-109079142D01*
X43587619Y-109460095D02*
X43540000Y-109507714D01*
X43492380Y-109602952D01*
X43492380Y-109841047D01*
X43540000Y-109936285D01*
X43587619Y-109983904D01*
X43682857Y-110031523D01*
X43778095Y-110031523D01*
X43920952Y-109983904D01*
X44492380Y-109412476D01*
X44492380Y-110031523D01*
X43587619Y-110412476D02*
X43540000Y-110460095D01*
X43492380Y-110555333D01*
X43492380Y-110793428D01*
X43540000Y-110888666D01*
X43587619Y-110936285D01*
X43682857Y-110983904D01*
X43778095Y-110983904D01*
X43920952Y-110936285D01*
X44492380Y-110364857D01*
X44492380Y-110983904D01*
M02*
