G04 #@! TF.GenerationSoftware,KiCad,Pcbnew,(5.1.0)-1*
G04 #@! TF.CreationDate,2019-04-30T23:23:29-05:00*
G04 #@! TF.ProjectId,Avionics Board 1,4176696f-6e69-4637-9320-426f61726420,rev?*
G04 #@! TF.SameCoordinates,Original*
G04 #@! TF.FileFunction,Legend,Top*
G04 #@! TF.FilePolarity,Positive*
%FSLAX46Y46*%
G04 Gerber Fmt 4.6, Leading zero omitted, Abs format (unit mm)*
G04 Created by KiCad (PCBNEW (5.1.0)-1) date 2019-04-30 23:23:29*
%MOMM*%
%LPD*%
G04 APERTURE LIST*
%ADD10C,0.175000*%
%ADD11C,0.150000*%
%ADD12C,0.120000*%
%ADD13C,0.127000*%
%ADD14C,0.050000*%
%ADD15C,0.031750*%
%ADD16C,0.090000*%
G04 APERTURE END LIST*
D10*
X31108040Y-121690253D02*
X31208040Y-121723586D01*
X31374706Y-121723586D01*
X31441373Y-121690253D01*
X31474706Y-121656920D01*
X31508040Y-121590253D01*
X31508040Y-121523586D01*
X31474706Y-121456920D01*
X31441373Y-121423586D01*
X31374706Y-121390253D01*
X31241373Y-121356920D01*
X31174706Y-121323586D01*
X31141373Y-121290253D01*
X31108040Y-121223586D01*
X31108040Y-121156920D01*
X31141373Y-121090253D01*
X31174706Y-121056920D01*
X31241373Y-121023586D01*
X31408040Y-121023586D01*
X31508040Y-121056920D01*
X31056613Y-116295640D02*
X31589946Y-116295640D01*
X31056613Y-118906760D02*
X31589946Y-118906760D01*
X31323280Y-119173426D02*
X31323280Y-118640093D01*
D11*
X55300880Y-105897680D02*
X55300880Y-105643680D01*
X55300880Y-105643680D02*
X55554880Y-105643680D01*
X57536080Y-105643680D02*
X57815480Y-105643680D01*
X57815480Y-105643680D02*
X57815480Y-105923080D01*
X57815480Y-107396280D02*
X57815480Y-107650280D01*
X57815480Y-107650280D02*
X57536080Y-107650280D01*
X55580280Y-107650280D02*
X55300880Y-107650280D01*
X55300880Y-107650280D02*
X55300880Y-107396280D01*
D12*
X22015000Y-111710000D02*
X22015000Y-111000000D01*
X22700000Y-111710000D02*
X22015000Y-111710000D01*
X22140000Y-109605507D02*
X22140000Y-109290000D01*
X23385000Y-111710000D02*
X23385000Y-111608276D01*
X22140000Y-109290000D02*
X35260000Y-109290000D01*
X23385000Y-111710000D02*
X35260000Y-111710000D01*
X35260000Y-110605507D02*
X35260000Y-110394493D01*
X35260000Y-109605507D02*
X35260000Y-109290000D01*
X35260000Y-111710000D02*
X35260000Y-111394493D01*
D11*
X57140040Y-102662680D02*
X57140040Y-103058920D01*
X62611200Y-100986280D02*
X63053160Y-100986280D01*
X56205320Y-100986280D02*
X55697320Y-100981200D01*
X56169760Y-99487680D02*
X55636360Y-99482600D01*
X57109560Y-97796040D02*
X57109560Y-97166120D01*
X61646000Y-97730000D02*
X61646000Y-97196600D01*
X62575640Y-99472440D02*
X63093800Y-99472440D01*
X61771400Y-102967480D02*
G75*
G03X61771400Y-102967480I-100000J0D01*
G01*
X62196000Y-102144000D02*
X62196000Y-98344000D01*
X56596000Y-98344000D02*
X56596000Y-102144000D01*
X62096000Y-98244000D02*
X56696000Y-98244000D01*
X62096000Y-102244000D02*
X56696000Y-102244000D01*
D12*
X59173000Y-120088100D02*
X59173000Y-121288100D01*
X57413000Y-121288100D02*
X57413000Y-120088100D01*
D13*
X34940000Y-95022000D02*
X34940000Y-100022000D01*
X31440000Y-100022000D02*
X33440000Y-100022000D01*
X29940000Y-100022000D02*
X29940000Y-96252000D01*
X29940000Y-96252000D02*
X31170000Y-95022000D01*
X31170000Y-95022000D02*
X33440000Y-95022000D01*
D12*
X27132000Y-98210000D02*
X28132000Y-98210000D01*
X28132000Y-96510000D02*
X27132000Y-96510000D01*
X27132000Y-106084000D02*
X28132000Y-106084000D01*
X28132000Y-104384000D02*
X27132000Y-104384000D01*
X34420000Y-89422000D02*
X34420000Y-91422000D01*
X36460000Y-91422000D02*
X36460000Y-89422000D01*
X31784000Y-105480000D02*
X31784000Y-104480000D01*
X30084000Y-104480000D02*
X30084000Y-105480000D01*
X34640000Y-82602000D02*
X32640000Y-82602000D01*
X32640000Y-84642000D02*
X34640000Y-84642000D01*
X40390000Y-93422000D02*
X40390000Y-92422000D01*
X38690000Y-92422000D02*
X38690000Y-93422000D01*
X29290000Y-88522000D02*
X29290000Y-87522000D01*
X27590000Y-87522000D02*
X27590000Y-88522000D01*
X54260000Y-87522000D02*
X54260000Y-85522000D01*
X52220000Y-85522000D02*
X52220000Y-87522000D01*
X50452920Y-112829720D02*
X50452920Y-113829720D01*
X52152920Y-113829720D02*
X52152920Y-112829720D01*
X55508400Y-111136240D02*
X53508400Y-111136240D01*
X53508400Y-113176240D02*
X55508400Y-113176240D01*
X52540000Y-117572000D02*
X52540000Y-116572000D01*
X50840000Y-116572000D02*
X50840000Y-117572000D01*
X54440000Y-83942000D02*
X56440000Y-83942000D01*
X56440000Y-81902000D02*
X54440000Y-81902000D01*
X61226000Y-94928000D02*
X61226000Y-93928000D01*
X59526000Y-93928000D02*
X59526000Y-94928000D01*
X69100000Y-104326000D02*
X69100000Y-103326000D01*
X67400000Y-103326000D02*
X67400000Y-104326000D01*
X66540000Y-98072000D02*
X67540000Y-98072000D01*
X67540000Y-96372000D02*
X66540000Y-96372000D01*
D11*
X36940000Y-83472000D02*
X37940000Y-83472000D01*
X37440000Y-84972000D02*
X37440000Y-83472000D01*
X37440000Y-83472000D02*
X37940000Y-83972000D01*
X37940000Y-83972000D02*
X36940000Y-83972000D01*
X36940000Y-83972000D02*
X37440000Y-83472000D01*
D12*
X58640000Y-91192000D02*
X58640000Y-90052000D01*
X58640000Y-90052000D02*
X56540000Y-90052000D01*
X58640000Y-91192000D02*
X56540000Y-91192000D01*
X53163240Y-123327640D02*
X52023240Y-123327640D01*
X52023240Y-123327640D02*
X52023240Y-125427640D01*
X53163240Y-123327640D02*
X53163240Y-125427640D01*
X55154600Y-122601200D02*
X54014600Y-122601200D01*
X54014600Y-122601200D02*
X54014600Y-124701200D01*
X55154600Y-122601200D02*
X55154600Y-124701200D01*
X57123100Y-121966200D02*
X55983100Y-121966200D01*
X55983100Y-121966200D02*
X55983100Y-124066200D01*
X57123100Y-121966200D02*
X57123100Y-124066200D01*
X49090000Y-80272000D02*
X41390000Y-80272000D01*
X49090000Y-79272000D02*
X41390000Y-79272000D01*
X41390000Y-79272000D02*
X41390000Y-88472000D01*
X41390000Y-88472000D02*
X49090000Y-88472000D01*
X49090000Y-88472000D02*
X49090000Y-79272000D01*
X49070000Y-91692000D02*
X49070000Y-94352000D01*
X51670000Y-91692000D02*
X49070000Y-91692000D01*
X51670000Y-94352000D02*
X49070000Y-94352000D01*
X51670000Y-91692000D02*
X51670000Y-94352000D01*
X52940000Y-91692000D02*
X54270000Y-91692000D01*
X54270000Y-91692000D02*
X54270000Y-93022000D01*
X31340000Y-86442000D02*
X32540000Y-86442000D01*
X32540000Y-88202000D02*
X31340000Y-88202000D01*
X35260000Y-97422000D02*
X35260000Y-96222000D01*
X37020000Y-96222000D02*
X37020000Y-97422000D01*
X60100000Y-89742000D02*
X61300000Y-89742000D01*
X61300000Y-91502000D02*
X60100000Y-91502000D01*
X52858560Y-120954240D02*
X52858560Y-122154240D01*
X51098560Y-122154240D02*
X51098560Y-120954240D01*
X55858300Y-120151600D02*
X55858300Y-121351600D01*
X54098300Y-121351600D02*
X54098300Y-120151600D01*
X48160000Y-101622000D02*
X48160000Y-100422000D01*
X49920000Y-100422000D02*
X49920000Y-101622000D01*
X53120000Y-104722000D02*
X53120000Y-105922000D01*
X51360000Y-105922000D02*
X51360000Y-104722000D01*
X56430000Y-86418000D02*
X56430000Y-87618000D01*
X54670000Y-87618000D02*
X54670000Y-86418000D01*
X43638000Y-95026000D02*
X44838000Y-95026000D01*
X44838000Y-96786000D02*
X43638000Y-96786000D01*
X44838000Y-94754000D02*
X43638000Y-94754000D01*
X43638000Y-92994000D02*
X44838000Y-92994000D01*
X51394000Y-99136000D02*
X52594000Y-99136000D01*
X52594000Y-100896000D02*
X51394000Y-100896000D01*
X55940000Y-95028000D02*
X55940000Y-93828000D01*
X57700000Y-93828000D02*
X57700000Y-95028000D01*
X66634000Y-98882000D02*
X67834000Y-98882000D01*
X67834000Y-100642000D02*
X66634000Y-100642000D01*
X32745000Y-88623000D02*
X30945000Y-88623000D01*
X30945000Y-91843000D02*
X33395000Y-91843000D01*
D11*
X36199000Y-100339000D02*
X36199000Y-100764000D01*
X43449000Y-100339000D02*
X43449000Y-100864000D01*
X43449000Y-107589000D02*
X43449000Y-107064000D01*
X36199000Y-107589000D02*
X36199000Y-107064000D01*
X36199000Y-100339000D02*
X36724000Y-100339000D01*
X36199000Y-107589000D02*
X36724000Y-107589000D01*
X43449000Y-107589000D02*
X42924000Y-107589000D01*
X43449000Y-100339000D02*
X42924000Y-100339000D01*
X36199000Y-100764000D02*
X34824000Y-100764000D01*
D12*
X60494000Y-85458000D02*
X58734000Y-85458000D01*
X58734000Y-88528000D02*
X61164000Y-88528000D01*
X56620000Y-113722000D02*
X57120000Y-113722000D01*
X57120000Y-113722000D02*
X57120000Y-114222000D01*
X57120000Y-118422000D02*
X57120000Y-118922000D01*
X57120000Y-118922000D02*
X56620000Y-118922000D01*
X54320000Y-118922000D02*
X53820000Y-118922000D01*
X53820000Y-118922000D02*
X53820000Y-118422000D01*
X53920000Y-113722000D02*
X54870000Y-113722000D01*
X34553200Y-114996920D02*
X31893200Y-114996920D01*
X34553200Y-120136920D02*
X34553200Y-114996920D01*
X31893200Y-120136920D02*
X31893200Y-114996920D01*
X34553200Y-120136920D02*
X31893200Y-120136920D01*
X34553200Y-121406920D02*
X34553200Y-122736920D01*
X34553200Y-122736920D02*
X33223200Y-122736920D01*
X48672520Y-109932960D02*
X50572520Y-109932960D01*
X50072520Y-107612960D02*
X48672520Y-107612960D01*
D11*
X36968800Y-122311160D02*
X36968800Y-110627160D01*
X36968800Y-110627160D02*
X50176800Y-110627160D01*
X50176800Y-110627160D02*
X50176800Y-122311160D01*
X50176800Y-122311160D02*
X36968800Y-122311160D01*
X37222800Y-122311160D02*
X37222800Y-126692660D01*
X37222800Y-126692660D02*
X49922800Y-126692660D01*
X49922800Y-126692660D02*
X49922800Y-122374660D01*
D12*
X60936760Y-110376600D02*
X59936760Y-110376600D01*
X59936760Y-112076600D02*
X60936760Y-112076600D01*
X64361960Y-105606720D02*
X64361960Y-106606720D01*
X66061960Y-106606720D02*
X66061960Y-105606720D01*
X66231960Y-111876080D02*
X66231960Y-109876080D01*
X64191960Y-109876080D02*
X64191960Y-111876080D01*
X60586440Y-106905880D02*
X60586440Y-106905880D01*
X61086440Y-106905880D02*
X60586440Y-106905880D01*
X60586440Y-108605880D02*
X60586440Y-108605880D01*
X60586440Y-109105880D02*
X60586440Y-108605880D01*
X61086440Y-109105880D02*
X60586440Y-109105880D01*
X62286440Y-109105880D02*
X62286440Y-109105880D01*
X62786440Y-109105880D02*
X62286440Y-109105880D01*
X62786440Y-108605880D02*
X62786440Y-109105880D01*
X62786440Y-107405880D02*
X62786440Y-107405880D01*
X62786440Y-106905880D02*
X62786440Y-107405880D01*
X62286440Y-106905880D02*
X62786440Y-106905880D01*
D11*
X55712455Y-104201980D02*
X55712455Y-105011504D01*
X55760074Y-105106742D01*
X55807693Y-105154361D01*
X55902931Y-105201980D01*
X56093407Y-105201980D01*
X56188645Y-105154361D01*
X56236264Y-105106742D01*
X56283883Y-105011504D01*
X56283883Y-104201980D01*
X56902931Y-104630552D02*
X56807693Y-104582933D01*
X56760074Y-104535314D01*
X56712455Y-104440076D01*
X56712455Y-104392457D01*
X56760074Y-104297219D01*
X56807693Y-104249600D01*
X56902931Y-104201980D01*
X57093407Y-104201980D01*
X57188645Y-104249600D01*
X57236264Y-104297219D01*
X57283883Y-104392457D01*
X57283883Y-104440076D01*
X57236264Y-104535314D01*
X57188645Y-104582933D01*
X57093407Y-104630552D01*
X56902931Y-104630552D01*
X56807693Y-104678171D01*
X56760074Y-104725790D01*
X56712455Y-104821028D01*
X56712455Y-105011504D01*
X56760074Y-105106742D01*
X56807693Y-105154361D01*
X56902931Y-105201980D01*
X57093407Y-105201980D01*
X57188645Y-105154361D01*
X57236264Y-105106742D01*
X57283883Y-105011504D01*
X57283883Y-104821028D01*
X57236264Y-104725790D01*
X57188645Y-104678171D01*
X57093407Y-104630552D01*
X35770226Y-109952540D02*
X35770226Y-110666826D01*
X35722607Y-110809683D01*
X35627369Y-110904921D01*
X35484512Y-110952540D01*
X35389274Y-110952540D01*
X36151179Y-109952540D02*
X36770226Y-109952540D01*
X36436893Y-110333493D01*
X36579750Y-110333493D01*
X36674988Y-110381112D01*
X36722607Y-110428731D01*
X36770226Y-110523969D01*
X36770226Y-110762064D01*
X36722607Y-110857302D01*
X36674988Y-110904921D01*
X36579750Y-110952540D01*
X36294036Y-110952540D01*
X36198798Y-110904921D01*
X36151179Y-110857302D01*
X60802615Y-102535740D02*
X60802615Y-103345264D01*
X60850234Y-103440502D01*
X60897853Y-103488121D01*
X60993091Y-103535740D01*
X61183567Y-103535740D01*
X61278805Y-103488121D01*
X61326424Y-103440502D01*
X61374043Y-103345264D01*
X61374043Y-102535740D01*
X61754996Y-102535740D02*
X62421662Y-102535740D01*
X61993091Y-103535740D01*
D14*
X58243779Y-100253645D02*
X58315207Y-100277455D01*
X58339017Y-100301264D01*
X58362826Y-100348883D01*
X58362826Y-100420312D01*
X58339017Y-100467931D01*
X58315207Y-100491740D01*
X58267588Y-100515550D01*
X58077112Y-100515550D01*
X58077112Y-100015550D01*
X58243779Y-100015550D01*
X58291398Y-100039360D01*
X58315207Y-100063169D01*
X58339017Y-100110788D01*
X58339017Y-100158407D01*
X58315207Y-100206026D01*
X58291398Y-100229836D01*
X58243779Y-100253645D01*
X58077112Y-100253645D01*
X58577112Y-100515550D02*
X58577112Y-100015550D01*
X58862826Y-100515550D01*
X58862826Y-100015550D01*
X59196160Y-100015550D02*
X59291398Y-100015550D01*
X59339017Y-100039360D01*
X59386636Y-100086979D01*
X59410445Y-100182217D01*
X59410445Y-100348883D01*
X59386636Y-100444121D01*
X59339017Y-100491740D01*
X59291398Y-100515550D01*
X59196160Y-100515550D01*
X59148540Y-100491740D01*
X59100921Y-100444121D01*
X59077112Y-100348883D01*
X59077112Y-100182217D01*
X59100921Y-100086979D01*
X59148540Y-100039360D01*
X59196160Y-100015550D01*
X59719969Y-100015550D02*
X59767588Y-100015550D01*
X59815207Y-100039360D01*
X59839017Y-100063169D01*
X59862826Y-100110788D01*
X59886636Y-100206026D01*
X59886636Y-100325074D01*
X59862826Y-100420312D01*
X59839017Y-100467931D01*
X59815207Y-100491740D01*
X59767588Y-100515550D01*
X59719969Y-100515550D01*
X59672350Y-100491740D01*
X59648540Y-100467931D01*
X59624731Y-100420312D01*
X59600921Y-100325074D01*
X59600921Y-100206026D01*
X59624731Y-100110788D01*
X59648540Y-100063169D01*
X59672350Y-100039360D01*
X59719969Y-100015550D01*
X60339017Y-100015550D02*
X60100921Y-100015550D01*
X60077112Y-100253645D01*
X60100921Y-100229836D01*
X60148540Y-100206026D01*
X60267588Y-100206026D01*
X60315207Y-100229836D01*
X60339017Y-100253645D01*
X60362826Y-100301264D01*
X60362826Y-100420312D01*
X60339017Y-100467931D01*
X60315207Y-100491740D01*
X60267588Y-100515550D01*
X60148540Y-100515550D01*
X60100921Y-100491740D01*
X60077112Y-100467931D01*
X60815207Y-100015550D02*
X60577112Y-100015550D01*
X60553302Y-100253645D01*
X60577112Y-100229836D01*
X60624731Y-100206026D01*
X60743779Y-100206026D01*
X60791398Y-100229836D01*
X60815207Y-100253645D01*
X60839017Y-100301264D01*
X60839017Y-100420312D01*
X60815207Y-100467931D01*
X60791398Y-100491740D01*
X60743779Y-100515550D01*
X60624731Y-100515550D01*
X60577112Y-100491740D01*
X60553302Y-100467931D01*
D15*
X62432285Y-101851452D02*
X62359714Y-101851452D01*
X62396000Y-101851452D02*
X62396000Y-101724452D01*
X62383904Y-101742595D01*
X62371809Y-101754690D01*
X62359714Y-101760738D01*
D11*
X57095380Y-120854766D02*
X56619190Y-121188100D01*
X57095380Y-121426195D02*
X56095380Y-121426195D01*
X56095380Y-121045242D01*
X56143000Y-120950004D01*
X56190619Y-120902385D01*
X56285857Y-120854766D01*
X56428714Y-120854766D01*
X56523952Y-120902385D01*
X56571571Y-120950004D01*
X56619190Y-121045242D01*
X56619190Y-121426195D01*
X56095380Y-119997623D02*
X56095380Y-120188100D01*
X56143000Y-120283338D01*
X56190619Y-120330957D01*
X56333476Y-120426195D01*
X56523952Y-120473814D01*
X56904904Y-120473814D01*
X57000142Y-120426195D01*
X57047761Y-120378576D01*
X57095380Y-120283338D01*
X57095380Y-120092861D01*
X57047761Y-119997623D01*
X57000142Y-119950004D01*
X56904904Y-119902385D01*
X56666809Y-119902385D01*
X56571571Y-119950004D01*
X56523952Y-119997623D01*
X56476333Y-120092861D01*
X56476333Y-120283338D01*
X56523952Y-120378576D01*
X56571571Y-120426195D01*
X56666809Y-120473814D01*
D14*
X31553913Y-100786815D02*
X31696922Y-100834485D01*
X31744591Y-100882154D01*
X31792261Y-100977493D01*
X31792261Y-101120502D01*
X31744591Y-101215841D01*
X31696922Y-101263510D01*
X31601583Y-101311180D01*
X31220227Y-101311180D01*
X31220227Y-100310120D01*
X31553913Y-100310120D01*
X31649252Y-100357790D01*
X31696922Y-100405459D01*
X31744591Y-100500798D01*
X31744591Y-100596137D01*
X31696922Y-100691476D01*
X31649252Y-100739146D01*
X31553913Y-100786815D01*
X31220227Y-100786815D01*
X32125948Y-100310120D02*
X32793321Y-100310120D01*
X32125948Y-101311180D01*
X32793321Y-101311180D01*
X33699042Y-101311180D02*
X33127008Y-101311180D01*
X33413025Y-101311180D02*
X33413025Y-100310120D01*
X33317686Y-100453129D01*
X33222347Y-100548468D01*
X33127008Y-100596137D01*
D16*
X31344880Y-94382120D02*
X31444880Y-94415453D01*
X31478213Y-94448786D01*
X31511546Y-94515453D01*
X31511546Y-94615453D01*
X31478213Y-94682120D01*
X31444880Y-94715453D01*
X31378213Y-94748786D01*
X31111546Y-94748786D01*
X31111546Y-94048786D01*
X31344880Y-94048786D01*
X31411546Y-94082120D01*
X31444880Y-94115453D01*
X31478213Y-94182120D01*
X31478213Y-94248786D01*
X31444880Y-94315453D01*
X31411546Y-94348786D01*
X31344880Y-94382120D01*
X31111546Y-94382120D01*
X32111546Y-94282120D02*
X32111546Y-94748786D01*
X31811546Y-94282120D02*
X31811546Y-94648786D01*
X31844880Y-94715453D01*
X31911546Y-94748786D01*
X32011546Y-94748786D01*
X32078213Y-94715453D01*
X32111546Y-94682120D01*
X32378213Y-94282120D02*
X32744880Y-94282120D01*
X32378213Y-94748786D01*
X32744880Y-94748786D01*
X32944880Y-94282120D02*
X33311546Y-94282120D01*
X32944880Y-94748786D01*
X33311546Y-94748786D01*
X33844880Y-94715453D02*
X33778213Y-94748786D01*
X33644880Y-94748786D01*
X33578213Y-94715453D01*
X33544880Y-94648786D01*
X33544880Y-94382120D01*
X33578213Y-94315453D01*
X33644880Y-94282120D01*
X33778213Y-94282120D01*
X33844880Y-94315453D01*
X33878213Y-94382120D01*
X33878213Y-94448786D01*
X33544880Y-94515453D01*
X34178213Y-94748786D02*
X34178213Y-94282120D01*
X34178213Y-94415453D02*
X34211546Y-94348786D01*
X34244880Y-94315453D01*
X34311546Y-94282120D01*
X34378213Y-94282120D01*
D14*
X32911428Y-99602952D02*
X32911428Y-98841047D01*
X33292380Y-99222000D02*
X32530476Y-99222000D01*
X33011428Y-96102952D02*
X33011428Y-95341047D01*
D11*
X28473333Y-96179142D02*
X28425714Y-96226761D01*
X28282857Y-96274380D01*
X28187619Y-96274380D01*
X28044761Y-96226761D01*
X27949523Y-96131523D01*
X27901904Y-96036285D01*
X27854285Y-95845809D01*
X27854285Y-95702952D01*
X27901904Y-95512476D01*
X27949523Y-95417238D01*
X28044761Y-95322000D01*
X28187619Y-95274380D01*
X28282857Y-95274380D01*
X28425714Y-95322000D01*
X28473333Y-95369619D01*
X29425714Y-96274380D02*
X28854285Y-96274380D01*
X29140000Y-96274380D02*
X29140000Y-95274380D01*
X29044761Y-95417238D01*
X28949523Y-95512476D01*
X28854285Y-95560095D01*
X27468533Y-107214942D02*
X27420914Y-107262561D01*
X27278057Y-107310180D01*
X27182819Y-107310180D01*
X27039961Y-107262561D01*
X26944723Y-107167323D01*
X26897104Y-107072085D01*
X26849485Y-106881609D01*
X26849485Y-106738752D01*
X26897104Y-106548276D01*
X26944723Y-106453038D01*
X27039961Y-106357800D01*
X27182819Y-106310180D01*
X27278057Y-106310180D01*
X27420914Y-106357800D01*
X27468533Y-106405419D01*
X27849485Y-106405419D02*
X27897104Y-106357800D01*
X27992342Y-106310180D01*
X28230438Y-106310180D01*
X28325676Y-106357800D01*
X28373295Y-106405419D01*
X28420914Y-106500657D01*
X28420914Y-106595895D01*
X28373295Y-106738752D01*
X27801866Y-107310180D01*
X28420914Y-107310180D01*
X37857142Y-92266666D02*
X37904761Y-92314285D01*
X37952380Y-92457142D01*
X37952380Y-92552380D01*
X37904761Y-92695238D01*
X37809523Y-92790476D01*
X37714285Y-92838095D01*
X37523809Y-92885714D01*
X37380952Y-92885714D01*
X37190476Y-92838095D01*
X37095238Y-92790476D01*
X37000000Y-92695238D01*
X36952380Y-92552380D01*
X36952380Y-92457142D01*
X37000000Y-92314285D01*
X37047619Y-92266666D01*
X36952380Y-91933333D02*
X36952380Y-91314285D01*
X37333333Y-91647619D01*
X37333333Y-91504761D01*
X37380952Y-91409523D01*
X37428571Y-91361904D01*
X37523809Y-91314285D01*
X37761904Y-91314285D01*
X37857142Y-91361904D01*
X37904761Y-91409523D01*
X37952380Y-91504761D01*
X37952380Y-91790476D01*
X37904761Y-91885714D01*
X37857142Y-91933333D01*
X33366982Y-105119466D02*
X33414601Y-105167085D01*
X33462220Y-105309942D01*
X33462220Y-105405180D01*
X33414601Y-105548038D01*
X33319363Y-105643276D01*
X33224125Y-105690895D01*
X33033649Y-105738514D01*
X32890792Y-105738514D01*
X32700316Y-105690895D01*
X32605078Y-105643276D01*
X32509840Y-105548038D01*
X32462220Y-105405180D01*
X32462220Y-105309942D01*
X32509840Y-105167085D01*
X32557459Y-105119466D01*
X32795554Y-104262323D02*
X33462220Y-104262323D01*
X32414601Y-104500419D02*
X33128887Y-104738514D01*
X33128887Y-104119466D01*
X33673333Y-85879142D02*
X33625714Y-85926761D01*
X33482857Y-85974380D01*
X33387619Y-85974380D01*
X33244761Y-85926761D01*
X33149523Y-85831523D01*
X33101904Y-85736285D01*
X33054285Y-85545809D01*
X33054285Y-85402952D01*
X33101904Y-85212476D01*
X33149523Y-85117238D01*
X33244761Y-85022000D01*
X33387619Y-84974380D01*
X33482857Y-84974380D01*
X33625714Y-85022000D01*
X33673333Y-85069619D01*
X34578095Y-84974380D02*
X34101904Y-84974380D01*
X34054285Y-85450571D01*
X34101904Y-85402952D01*
X34197142Y-85355333D01*
X34435238Y-85355333D01*
X34530476Y-85402952D01*
X34578095Y-85450571D01*
X34625714Y-85545809D01*
X34625714Y-85783904D01*
X34578095Y-85879142D01*
X34530476Y-85926761D01*
X34435238Y-85974380D01*
X34197142Y-85974380D01*
X34101904Y-85926761D01*
X34054285Y-85879142D01*
X41555942Y-93247506D02*
X41603561Y-93295125D01*
X41651180Y-93437982D01*
X41651180Y-93533220D01*
X41603561Y-93676078D01*
X41508323Y-93771316D01*
X41413085Y-93818935D01*
X41222609Y-93866554D01*
X41079752Y-93866554D01*
X40889276Y-93818935D01*
X40794038Y-93771316D01*
X40698800Y-93676078D01*
X40651180Y-93533220D01*
X40651180Y-93437982D01*
X40698800Y-93295125D01*
X40746419Y-93247506D01*
X40651180Y-92914173D02*
X40651180Y-92247506D01*
X41651180Y-92676078D01*
X27097142Y-88488666D02*
X27144761Y-88536285D01*
X27192380Y-88679142D01*
X27192380Y-88774380D01*
X27144761Y-88917238D01*
X27049523Y-89012476D01*
X26954285Y-89060095D01*
X26763809Y-89107714D01*
X26620952Y-89107714D01*
X26430476Y-89060095D01*
X26335238Y-89012476D01*
X26240000Y-88917238D01*
X26192380Y-88774380D01*
X26192380Y-88679142D01*
X26240000Y-88536285D01*
X26287619Y-88488666D01*
X26620952Y-87917238D02*
X26573333Y-88012476D01*
X26525714Y-88060095D01*
X26430476Y-88107714D01*
X26382857Y-88107714D01*
X26287619Y-88060095D01*
X26240000Y-88012476D01*
X26192380Y-87917238D01*
X26192380Y-87726761D01*
X26240000Y-87631523D01*
X26287619Y-87583904D01*
X26382857Y-87536285D01*
X26430476Y-87536285D01*
X26525714Y-87583904D01*
X26573333Y-87631523D01*
X26620952Y-87726761D01*
X26620952Y-87917238D01*
X26668571Y-88012476D01*
X26716190Y-88060095D01*
X26811428Y-88107714D01*
X27001904Y-88107714D01*
X27097142Y-88060095D01*
X27144761Y-88012476D01*
X27192380Y-87917238D01*
X27192380Y-87726761D01*
X27144761Y-87631523D01*
X27097142Y-87583904D01*
X27001904Y-87536285D01*
X26811428Y-87536285D01*
X26716190Y-87583904D01*
X26668571Y-87631523D01*
X26620952Y-87726761D01*
X53597142Y-89888666D02*
X53644761Y-89936285D01*
X53692380Y-90079142D01*
X53692380Y-90174380D01*
X53644761Y-90317238D01*
X53549523Y-90412476D01*
X53454285Y-90460095D01*
X53263809Y-90507714D01*
X53120952Y-90507714D01*
X52930476Y-90460095D01*
X52835238Y-90412476D01*
X52740000Y-90317238D01*
X52692380Y-90174380D01*
X52692380Y-90079142D01*
X52740000Y-89936285D01*
X52787619Y-89888666D01*
X53692380Y-89412476D02*
X53692380Y-89222000D01*
X53644761Y-89126761D01*
X53597142Y-89079142D01*
X53454285Y-88983904D01*
X53263809Y-88936285D01*
X52882857Y-88936285D01*
X52787619Y-88983904D01*
X52740000Y-89031523D01*
X52692380Y-89126761D01*
X52692380Y-89317238D01*
X52740000Y-89412476D01*
X52787619Y-89460095D01*
X52882857Y-89507714D01*
X53120952Y-89507714D01*
X53216190Y-89460095D01*
X53263809Y-89412476D01*
X53311428Y-89317238D01*
X53311428Y-89126761D01*
X53263809Y-89031523D01*
X53216190Y-88983904D01*
X53120952Y-88936285D01*
X51776902Y-110797577D02*
X51824521Y-110845196D01*
X51872140Y-110988053D01*
X51872140Y-111083291D01*
X51824521Y-111226148D01*
X51729283Y-111321386D01*
X51634045Y-111369005D01*
X51443569Y-111416624D01*
X51300712Y-111416624D01*
X51110236Y-111369005D01*
X51014998Y-111321386D01*
X50919760Y-111226148D01*
X50872140Y-111083291D01*
X50872140Y-110988053D01*
X50919760Y-110845196D01*
X50967379Y-110797577D01*
X51872140Y-109845196D02*
X51872140Y-110416624D01*
X51872140Y-110130910D02*
X50872140Y-110130910D01*
X51014998Y-110226148D01*
X51110236Y-110321386D01*
X51157855Y-110416624D01*
X50872140Y-109226148D02*
X50872140Y-109130910D01*
X50919760Y-109035672D01*
X50967379Y-108988053D01*
X51062617Y-108940434D01*
X51253093Y-108892815D01*
X51491188Y-108892815D01*
X51681664Y-108940434D01*
X51776902Y-108988053D01*
X51824521Y-109035672D01*
X51872140Y-109130910D01*
X51872140Y-109226148D01*
X51824521Y-109321386D01*
X51776902Y-109369005D01*
X51681664Y-109416624D01*
X51491188Y-109464243D01*
X51253093Y-109464243D01*
X51062617Y-109416624D01*
X50967379Y-109369005D01*
X50919760Y-109321386D01*
X50872140Y-109226148D01*
X53896022Y-110730302D02*
X53848403Y-110777921D01*
X53705546Y-110825540D01*
X53610308Y-110825540D01*
X53467451Y-110777921D01*
X53372213Y-110682683D01*
X53324594Y-110587445D01*
X53276975Y-110396969D01*
X53276975Y-110254112D01*
X53324594Y-110063636D01*
X53372213Y-109968398D01*
X53467451Y-109873160D01*
X53610308Y-109825540D01*
X53705546Y-109825540D01*
X53848403Y-109873160D01*
X53896022Y-109920779D01*
X54848403Y-110825540D02*
X54276975Y-110825540D01*
X54562689Y-110825540D02*
X54562689Y-109825540D01*
X54467451Y-109968398D01*
X54372213Y-110063636D01*
X54276975Y-110111255D01*
X55800784Y-110825540D02*
X55229356Y-110825540D01*
X55515070Y-110825540D02*
X55515070Y-109825540D01*
X55419832Y-109968398D01*
X55324594Y-110063636D01*
X55229356Y-110111255D01*
X49617902Y-117239017D02*
X49665521Y-117286636D01*
X49713140Y-117429493D01*
X49713140Y-117524731D01*
X49665521Y-117667588D01*
X49570283Y-117762826D01*
X49475045Y-117810445D01*
X49284569Y-117858064D01*
X49141712Y-117858064D01*
X48951236Y-117810445D01*
X48855998Y-117762826D01*
X48760760Y-117667588D01*
X48713140Y-117524731D01*
X48713140Y-117429493D01*
X48760760Y-117286636D01*
X48808379Y-117239017D01*
X49713140Y-116286636D02*
X49713140Y-116858064D01*
X49713140Y-116572350D02*
X48713140Y-116572350D01*
X48855998Y-116667588D01*
X48951236Y-116762826D01*
X48998855Y-116858064D01*
X48808379Y-115905683D02*
X48760760Y-115858064D01*
X48713140Y-115762826D01*
X48713140Y-115524731D01*
X48760760Y-115429493D01*
X48808379Y-115381874D01*
X48903617Y-115334255D01*
X48998855Y-115334255D01*
X49141712Y-115381874D01*
X49713140Y-115953302D01*
X49713140Y-115334255D01*
X53459142Y-81525382D02*
X53411523Y-81573001D01*
X53268666Y-81620620D01*
X53173428Y-81620620D01*
X53030571Y-81573001D01*
X52935333Y-81477763D01*
X52887714Y-81382525D01*
X52840095Y-81192049D01*
X52840095Y-81049192D01*
X52887714Y-80858716D01*
X52935333Y-80763478D01*
X53030571Y-80668240D01*
X53173428Y-80620620D01*
X53268666Y-80620620D01*
X53411523Y-80668240D01*
X53459142Y-80715859D01*
X54411523Y-81620620D02*
X53840095Y-81620620D01*
X54125809Y-81620620D02*
X54125809Y-80620620D01*
X54030571Y-80763478D01*
X53935333Y-80858716D01*
X53840095Y-80906335D01*
X54744857Y-80620620D02*
X55363904Y-80620620D01*
X55030571Y-81001573D01*
X55173428Y-81001573D01*
X55268666Y-81049192D01*
X55316285Y-81096811D01*
X55363904Y-81192049D01*
X55363904Y-81430144D01*
X55316285Y-81525382D01*
X55268666Y-81573001D01*
X55173428Y-81620620D01*
X54887714Y-81620620D01*
X54792476Y-81573001D01*
X54744857Y-81525382D01*
X62348382Y-96456737D02*
X62396001Y-96504356D01*
X62443620Y-96647213D01*
X62443620Y-96742451D01*
X62396001Y-96885308D01*
X62300763Y-96980546D01*
X62205525Y-97028165D01*
X62015049Y-97075784D01*
X61872192Y-97075784D01*
X61681716Y-97028165D01*
X61586478Y-96980546D01*
X61491240Y-96885308D01*
X61443620Y-96742451D01*
X61443620Y-96647213D01*
X61491240Y-96504356D01*
X61538859Y-96456737D01*
X62443620Y-95504356D02*
X62443620Y-96075784D01*
X62443620Y-95790070D02*
X61443620Y-95790070D01*
X61586478Y-95885308D01*
X61681716Y-95980546D01*
X61729335Y-96075784D01*
X61443620Y-94599594D02*
X61443620Y-95075784D01*
X61919811Y-95123403D01*
X61872192Y-95075784D01*
X61824573Y-94980546D01*
X61824573Y-94742451D01*
X61872192Y-94647213D01*
X61919811Y-94599594D01*
X62015049Y-94551975D01*
X62253144Y-94551975D01*
X62348382Y-94599594D01*
X62396001Y-94647213D01*
X62443620Y-94742451D01*
X62443620Y-94980546D01*
X62396001Y-95075784D01*
X62348382Y-95123403D01*
X68657742Y-107764817D02*
X68705361Y-107812436D01*
X68752980Y-107955293D01*
X68752980Y-108050531D01*
X68705361Y-108193388D01*
X68610123Y-108288626D01*
X68514885Y-108336245D01*
X68324409Y-108383864D01*
X68181552Y-108383864D01*
X67991076Y-108336245D01*
X67895838Y-108288626D01*
X67800600Y-108193388D01*
X67752980Y-108050531D01*
X67752980Y-107955293D01*
X67800600Y-107812436D01*
X67848219Y-107764817D01*
X68752980Y-106812436D02*
X68752980Y-107383864D01*
X68752980Y-107098150D02*
X67752980Y-107098150D01*
X67895838Y-107193388D01*
X67991076Y-107288626D01*
X68038695Y-107383864D01*
X67752980Y-105955293D02*
X67752980Y-106145769D01*
X67800600Y-106241007D01*
X67848219Y-106288626D01*
X67991076Y-106383864D01*
X68181552Y-106431483D01*
X68562504Y-106431483D01*
X68657742Y-106383864D01*
X68705361Y-106336245D01*
X68752980Y-106241007D01*
X68752980Y-106050531D01*
X68705361Y-105955293D01*
X68657742Y-105907674D01*
X68562504Y-105860055D01*
X68324409Y-105860055D01*
X68229171Y-105907674D01*
X68181552Y-105955293D01*
X68133933Y-106050531D01*
X68133933Y-106241007D01*
X68181552Y-106336245D01*
X68229171Y-106383864D01*
X68324409Y-106431483D01*
X63253382Y-97583262D02*
X63205763Y-97630881D01*
X63062906Y-97678500D01*
X62967668Y-97678500D01*
X62824811Y-97630881D01*
X62729573Y-97535643D01*
X62681954Y-97440405D01*
X62634335Y-97249929D01*
X62634335Y-97107072D01*
X62681954Y-96916596D01*
X62729573Y-96821358D01*
X62824811Y-96726120D01*
X62967668Y-96678500D01*
X63062906Y-96678500D01*
X63205763Y-96726120D01*
X63253382Y-96773739D01*
X64205763Y-97678500D02*
X63634335Y-97678500D01*
X63920049Y-97678500D02*
X63920049Y-96678500D01*
X63824811Y-96821358D01*
X63729573Y-96916596D01*
X63634335Y-96964215D01*
X64539097Y-96678500D02*
X65205763Y-96678500D01*
X64777192Y-97678500D01*
X39680140Y-84949255D02*
X38680140Y-84949255D01*
X38680140Y-84711160D01*
X38727760Y-84568302D01*
X38822998Y-84473064D01*
X38918236Y-84425445D01*
X39108712Y-84377826D01*
X39251569Y-84377826D01*
X39442045Y-84425445D01*
X39537283Y-84473064D01*
X39632521Y-84568302D01*
X39680140Y-84711160D01*
X39680140Y-84949255D01*
X39680140Y-83425445D02*
X39680140Y-83996874D01*
X39680140Y-83711160D02*
X38680140Y-83711160D01*
X38822998Y-83806398D01*
X38918236Y-83901636D01*
X38965855Y-83996874D01*
X56601904Y-92474380D02*
X56601904Y-91474380D01*
X56840000Y-91474380D01*
X56982857Y-91522000D01*
X57078095Y-91617238D01*
X57125714Y-91712476D01*
X57173333Y-91902952D01*
X57173333Y-92045809D01*
X57125714Y-92236285D01*
X57078095Y-92331523D01*
X56982857Y-92426761D01*
X56840000Y-92474380D01*
X56601904Y-92474380D01*
X57554285Y-91569619D02*
X57601904Y-91522000D01*
X57697142Y-91474380D01*
X57935238Y-91474380D01*
X58030476Y-91522000D01*
X58078095Y-91569619D01*
X58125714Y-91664857D01*
X58125714Y-91760095D01*
X58078095Y-91902952D01*
X57506666Y-92474380D01*
X58125714Y-92474380D01*
X51174424Y-126985020D02*
X51174424Y-125985020D01*
X51412520Y-125985020D01*
X51555377Y-126032640D01*
X51650615Y-126127878D01*
X51698234Y-126223116D01*
X51745853Y-126413592D01*
X51745853Y-126556449D01*
X51698234Y-126746925D01*
X51650615Y-126842163D01*
X51555377Y-126937401D01*
X51412520Y-126985020D01*
X51174424Y-126985020D01*
X52079186Y-125985020D02*
X52698234Y-125985020D01*
X52364900Y-126365973D01*
X52507758Y-126365973D01*
X52602996Y-126413592D01*
X52650615Y-126461211D01*
X52698234Y-126556449D01*
X52698234Y-126794544D01*
X52650615Y-126889782D01*
X52602996Y-126937401D01*
X52507758Y-126985020D01*
X52222043Y-126985020D01*
X52126805Y-126937401D01*
X52079186Y-126889782D01*
X53622984Y-126217940D02*
X53622984Y-125217940D01*
X53861080Y-125217940D01*
X54003937Y-125265560D01*
X54099175Y-125360798D01*
X54146794Y-125456036D01*
X54194413Y-125646512D01*
X54194413Y-125789369D01*
X54146794Y-125979845D01*
X54099175Y-126075083D01*
X54003937Y-126170321D01*
X53861080Y-126217940D01*
X53622984Y-126217940D01*
X55051556Y-125551274D02*
X55051556Y-126217940D01*
X54813460Y-125170321D02*
X54575365Y-125884607D01*
X55194413Y-125884607D01*
X57346624Y-124124980D02*
X57346624Y-123124980D01*
X57584720Y-123124980D01*
X57727577Y-123172600D01*
X57822815Y-123267838D01*
X57870434Y-123363076D01*
X57918053Y-123553552D01*
X57918053Y-123696409D01*
X57870434Y-123886885D01*
X57822815Y-123982123D01*
X57727577Y-124077361D01*
X57584720Y-124124980D01*
X57346624Y-124124980D01*
X58822815Y-123124980D02*
X58346624Y-123124980D01*
X58299005Y-123601171D01*
X58346624Y-123553552D01*
X58441862Y-123505933D01*
X58679958Y-123505933D01*
X58775196Y-123553552D01*
X58822815Y-123601171D01*
X58870434Y-123696409D01*
X58870434Y-123934504D01*
X58822815Y-124029742D01*
X58775196Y-124077361D01*
X58679958Y-124124980D01*
X58441862Y-124124980D01*
X58346624Y-124077361D01*
X58299005Y-124029742D01*
X40398106Y-88855300D02*
X40398106Y-89569586D01*
X40350487Y-89712443D01*
X40255249Y-89807681D01*
X40112392Y-89855300D01*
X40017154Y-89855300D01*
X41398106Y-89855300D02*
X40826678Y-89855300D01*
X41112392Y-89855300D02*
X41112392Y-88855300D01*
X41017154Y-88998158D01*
X40921916Y-89093396D01*
X40826678Y-89141015D01*
X51730476Y-94474380D02*
X51730476Y-95188666D01*
X51682857Y-95331523D01*
X51587619Y-95426761D01*
X51444761Y-95474380D01*
X51349523Y-95474380D01*
X52730476Y-95474380D02*
X52159047Y-95474380D01*
X52444761Y-95474380D02*
X52444761Y-94474380D01*
X52349523Y-94617238D01*
X52254285Y-94712476D01*
X52159047Y-94760095D01*
X53587619Y-94807714D02*
X53587619Y-95474380D01*
X53349523Y-94426761D02*
X53111428Y-95141047D01*
X53730476Y-95141047D01*
X31733333Y-86152380D02*
X31400000Y-85676190D01*
X31161904Y-86152380D02*
X31161904Y-85152380D01*
X31542857Y-85152380D01*
X31638095Y-85200000D01*
X31685714Y-85247619D01*
X31733333Y-85342857D01*
X31733333Y-85485714D01*
X31685714Y-85580952D01*
X31638095Y-85628571D01*
X31542857Y-85676190D01*
X31161904Y-85676190D01*
X32685714Y-86152380D02*
X32114285Y-86152380D01*
X32400000Y-86152380D02*
X32400000Y-85152380D01*
X32304761Y-85295238D01*
X32209523Y-85390476D01*
X32114285Y-85438095D01*
X38374580Y-96930506D02*
X37898390Y-97263840D01*
X38374580Y-97501935D02*
X37374580Y-97501935D01*
X37374580Y-97120982D01*
X37422200Y-97025744D01*
X37469819Y-96978125D01*
X37565057Y-96930506D01*
X37707914Y-96930506D01*
X37803152Y-96978125D01*
X37850771Y-97025744D01*
X37898390Y-97120982D01*
X37898390Y-97501935D01*
X37469819Y-96549554D02*
X37422200Y-96501935D01*
X37374580Y-96406697D01*
X37374580Y-96168601D01*
X37422200Y-96073363D01*
X37469819Y-96025744D01*
X37565057Y-95978125D01*
X37660295Y-95978125D01*
X37803152Y-96025744D01*
X38374580Y-96597173D01*
X38374580Y-95978125D01*
X60533333Y-92724380D02*
X60200000Y-92248190D01*
X59961904Y-92724380D02*
X59961904Y-91724380D01*
X60342857Y-91724380D01*
X60438095Y-91772000D01*
X60485714Y-91819619D01*
X60533333Y-91914857D01*
X60533333Y-92057714D01*
X60485714Y-92152952D01*
X60438095Y-92200571D01*
X60342857Y-92248190D01*
X59961904Y-92248190D01*
X60866666Y-91724380D02*
X61485714Y-91724380D01*
X61152380Y-92105333D01*
X61295238Y-92105333D01*
X61390476Y-92152952D01*
X61438095Y-92200571D01*
X61485714Y-92295809D01*
X61485714Y-92533904D01*
X61438095Y-92629142D01*
X61390476Y-92676761D01*
X61295238Y-92724380D01*
X61009523Y-92724380D01*
X60914285Y-92676761D01*
X60866666Y-92629142D01*
X51155860Y-123945946D02*
X50679670Y-124279280D01*
X51155860Y-124517375D02*
X50155860Y-124517375D01*
X50155860Y-124136422D01*
X50203480Y-124041184D01*
X50251099Y-123993565D01*
X50346337Y-123945946D01*
X50489194Y-123945946D01*
X50584432Y-123993565D01*
X50632051Y-124041184D01*
X50679670Y-124136422D01*
X50679670Y-124517375D01*
X50489194Y-123088803D02*
X51155860Y-123088803D01*
X50108241Y-123326899D02*
X50822527Y-123564994D01*
X50822527Y-122945946D01*
X53960020Y-120882706D02*
X53483830Y-121216040D01*
X53960020Y-121454135D02*
X52960020Y-121454135D01*
X52960020Y-121073182D01*
X53007640Y-120977944D01*
X53055259Y-120930325D01*
X53150497Y-120882706D01*
X53293354Y-120882706D01*
X53388592Y-120930325D01*
X53436211Y-120977944D01*
X53483830Y-121073182D01*
X53483830Y-121454135D01*
X52960020Y-119977944D02*
X52960020Y-120454135D01*
X53436211Y-120501754D01*
X53388592Y-120454135D01*
X53340973Y-120358897D01*
X53340973Y-120120801D01*
X53388592Y-120025563D01*
X53436211Y-119977944D01*
X53531449Y-119930325D01*
X53769544Y-119930325D01*
X53864782Y-119977944D01*
X53912401Y-120025563D01*
X53960020Y-120120801D01*
X53960020Y-120358897D01*
X53912401Y-120454135D01*
X53864782Y-120501754D01*
X47892380Y-101188666D02*
X47416190Y-101522000D01*
X47892380Y-101760095D02*
X46892380Y-101760095D01*
X46892380Y-101379142D01*
X46940000Y-101283904D01*
X46987619Y-101236285D01*
X47082857Y-101188666D01*
X47225714Y-101188666D01*
X47320952Y-101236285D01*
X47368571Y-101283904D01*
X47416190Y-101379142D01*
X47416190Y-101760095D01*
X46892380Y-100855333D02*
X46892380Y-100188666D01*
X47892380Y-100617238D01*
X51125380Y-105348066D02*
X50649190Y-105681400D01*
X51125380Y-105919495D02*
X50125380Y-105919495D01*
X50125380Y-105538542D01*
X50173000Y-105443304D01*
X50220619Y-105395685D01*
X50315857Y-105348066D01*
X50458714Y-105348066D01*
X50553952Y-105395685D01*
X50601571Y-105443304D01*
X50649190Y-105538542D01*
X50649190Y-105919495D01*
X50553952Y-104776638D02*
X50506333Y-104871876D01*
X50458714Y-104919495D01*
X50363476Y-104967114D01*
X50315857Y-104967114D01*
X50220619Y-104919495D01*
X50173000Y-104871876D01*
X50125380Y-104776638D01*
X50125380Y-104586161D01*
X50173000Y-104490923D01*
X50220619Y-104443304D01*
X50315857Y-104395685D01*
X50363476Y-104395685D01*
X50458714Y-104443304D01*
X50506333Y-104490923D01*
X50553952Y-104586161D01*
X50553952Y-104776638D01*
X50601571Y-104871876D01*
X50649190Y-104919495D01*
X50744428Y-104967114D01*
X50934904Y-104967114D01*
X51030142Y-104919495D01*
X51077761Y-104871876D01*
X51125380Y-104776638D01*
X51125380Y-104586161D01*
X51077761Y-104490923D01*
X51030142Y-104443304D01*
X50934904Y-104395685D01*
X50744428Y-104395685D01*
X50649190Y-104443304D01*
X50601571Y-104490923D01*
X50553952Y-104586161D01*
X55792380Y-89788666D02*
X55316190Y-90122000D01*
X55792380Y-90360095D02*
X54792380Y-90360095D01*
X54792380Y-89979142D01*
X54840000Y-89883904D01*
X54887619Y-89836285D01*
X54982857Y-89788666D01*
X55125714Y-89788666D01*
X55220952Y-89836285D01*
X55268571Y-89883904D01*
X55316190Y-89979142D01*
X55316190Y-90360095D01*
X55792380Y-89312476D02*
X55792380Y-89122000D01*
X55744761Y-89026761D01*
X55697142Y-88979142D01*
X55554285Y-88883904D01*
X55363809Y-88836285D01*
X54982857Y-88836285D01*
X54887619Y-88883904D01*
X54840000Y-88931523D01*
X54792380Y-89026761D01*
X54792380Y-89217238D01*
X54840000Y-89312476D01*
X54887619Y-89360095D01*
X54982857Y-89407714D01*
X55220952Y-89407714D01*
X55316190Y-89360095D01*
X55363809Y-89312476D01*
X55411428Y-89217238D01*
X55411428Y-89026761D01*
X55363809Y-88931523D01*
X55316190Y-88883904D01*
X55220952Y-88836285D01*
X43595142Y-98008380D02*
X43261809Y-97532190D01*
X43023714Y-98008380D02*
X43023714Y-97008380D01*
X43404666Y-97008380D01*
X43499904Y-97056000D01*
X43547523Y-97103619D01*
X43595142Y-97198857D01*
X43595142Y-97341714D01*
X43547523Y-97436952D01*
X43499904Y-97484571D01*
X43404666Y-97532190D01*
X43023714Y-97532190D01*
X44547523Y-98008380D02*
X43976095Y-98008380D01*
X44261809Y-98008380D02*
X44261809Y-97008380D01*
X44166571Y-97151238D01*
X44071333Y-97246476D01*
X43976095Y-97294095D01*
X44928476Y-97103619D02*
X44976095Y-97056000D01*
X45071333Y-97008380D01*
X45309428Y-97008380D01*
X45404666Y-97056000D01*
X45452285Y-97103619D01*
X45499904Y-97198857D01*
X45499904Y-97294095D01*
X45452285Y-97436952D01*
X44880857Y-98008380D01*
X45499904Y-98008380D01*
X43595142Y-92676380D02*
X43261809Y-92200190D01*
X43023714Y-92676380D02*
X43023714Y-91676380D01*
X43404666Y-91676380D01*
X43499904Y-91724000D01*
X43547523Y-91771619D01*
X43595142Y-91866857D01*
X43595142Y-92009714D01*
X43547523Y-92104952D01*
X43499904Y-92152571D01*
X43404666Y-92200190D01*
X43023714Y-92200190D01*
X44547523Y-92676380D02*
X43976095Y-92676380D01*
X44261809Y-92676380D02*
X44261809Y-91676380D01*
X44166571Y-91819238D01*
X44071333Y-91914476D01*
X43976095Y-91962095D01*
X44880857Y-91676380D02*
X45499904Y-91676380D01*
X45166571Y-92057333D01*
X45309428Y-92057333D01*
X45404666Y-92104952D01*
X45452285Y-92152571D01*
X45499904Y-92247809D01*
X45499904Y-92485904D01*
X45452285Y-92581142D01*
X45404666Y-92628761D01*
X45309428Y-92676380D01*
X45023714Y-92676380D01*
X44928476Y-92628761D01*
X44880857Y-92581142D01*
X51351142Y-102118380D02*
X51017809Y-101642190D01*
X50779714Y-102118380D02*
X50779714Y-101118380D01*
X51160666Y-101118380D01*
X51255904Y-101166000D01*
X51303523Y-101213619D01*
X51351142Y-101308857D01*
X51351142Y-101451714D01*
X51303523Y-101546952D01*
X51255904Y-101594571D01*
X51160666Y-101642190D01*
X50779714Y-101642190D01*
X52303523Y-102118380D02*
X51732095Y-102118380D01*
X52017809Y-102118380D02*
X52017809Y-101118380D01*
X51922571Y-101261238D01*
X51827333Y-101356476D01*
X51732095Y-101404095D01*
X53160666Y-101451714D02*
X53160666Y-102118380D01*
X52922571Y-101070761D02*
X52684476Y-101785047D01*
X53303523Y-101785047D01*
X58922380Y-95070857D02*
X58446190Y-95404190D01*
X58922380Y-95642285D02*
X57922380Y-95642285D01*
X57922380Y-95261333D01*
X57970000Y-95166095D01*
X58017619Y-95118476D01*
X58112857Y-95070857D01*
X58255714Y-95070857D01*
X58350952Y-95118476D01*
X58398571Y-95166095D01*
X58446190Y-95261333D01*
X58446190Y-95642285D01*
X58922380Y-94118476D02*
X58922380Y-94689904D01*
X58922380Y-94404190D02*
X57922380Y-94404190D01*
X58065238Y-94499428D01*
X58160476Y-94594666D01*
X58208095Y-94689904D01*
X57922380Y-93213714D02*
X57922380Y-93689904D01*
X58398571Y-93737523D01*
X58350952Y-93689904D01*
X58303333Y-93594666D01*
X58303333Y-93356571D01*
X58350952Y-93261333D01*
X58398571Y-93213714D01*
X58493809Y-93166095D01*
X58731904Y-93166095D01*
X58827142Y-93213714D01*
X58874761Y-93261333D01*
X58922380Y-93356571D01*
X58922380Y-93594666D01*
X58874761Y-93689904D01*
X58827142Y-93737523D01*
X63695342Y-100198180D02*
X63362009Y-99721990D01*
X63123914Y-100198180D02*
X63123914Y-99198180D01*
X63504866Y-99198180D01*
X63600104Y-99245800D01*
X63647723Y-99293419D01*
X63695342Y-99388657D01*
X63695342Y-99531514D01*
X63647723Y-99626752D01*
X63600104Y-99674371D01*
X63504866Y-99721990D01*
X63123914Y-99721990D01*
X64647723Y-100198180D02*
X64076295Y-100198180D01*
X64362009Y-100198180D02*
X64362009Y-99198180D01*
X64266771Y-99341038D01*
X64171533Y-99436276D01*
X64076295Y-99483895D01*
X65504866Y-99198180D02*
X65314390Y-99198180D01*
X65219152Y-99245800D01*
X65171533Y-99293419D01*
X65076295Y-99436276D01*
X65028676Y-99626752D01*
X65028676Y-100007704D01*
X65076295Y-100102942D01*
X65123914Y-100150561D01*
X65219152Y-100198180D01*
X65409628Y-100198180D01*
X65504866Y-100150561D01*
X65552485Y-100102942D01*
X65600104Y-100007704D01*
X65600104Y-99769609D01*
X65552485Y-99674371D01*
X65504866Y-99626752D01*
X65409628Y-99579133D01*
X65219152Y-99579133D01*
X65123914Y-99626752D01*
X65076295Y-99674371D01*
X65028676Y-99769609D01*
X22378095Y-104274380D02*
X22378095Y-105083904D01*
X22425714Y-105179142D01*
X22473333Y-105226761D01*
X22568571Y-105274380D01*
X22759047Y-105274380D01*
X22854285Y-105226761D01*
X22901904Y-105179142D01*
X22949523Y-105083904D01*
X22949523Y-104274380D01*
X23949523Y-105274380D02*
X23378095Y-105274380D01*
X23663809Y-105274380D02*
X23663809Y-104274380D01*
X23568571Y-104417238D01*
X23473333Y-104512476D01*
X23378095Y-104560095D01*
X28278095Y-89874380D02*
X28278095Y-90683904D01*
X28325714Y-90779142D01*
X28373333Y-90826761D01*
X28468571Y-90874380D01*
X28659047Y-90874380D01*
X28754285Y-90826761D01*
X28801904Y-90779142D01*
X28849523Y-90683904D01*
X28849523Y-89874380D01*
X29278095Y-89969619D02*
X29325714Y-89922000D01*
X29420952Y-89874380D01*
X29659047Y-89874380D01*
X29754285Y-89922000D01*
X29801904Y-89969619D01*
X29849523Y-90064857D01*
X29849523Y-90160095D01*
X29801904Y-90302952D01*
X29230476Y-90874380D01*
X29849523Y-90874380D01*
X43578095Y-107674380D02*
X43578095Y-108483904D01*
X43625714Y-108579142D01*
X43673333Y-108626761D01*
X43768571Y-108674380D01*
X43959047Y-108674380D01*
X44054285Y-108626761D01*
X44101904Y-108579142D01*
X44149523Y-108483904D01*
X44149523Y-107674380D01*
X44530476Y-107674380D02*
X45149523Y-107674380D01*
X44816190Y-108055333D01*
X44959047Y-108055333D01*
X45054285Y-108102952D01*
X45101904Y-108150571D01*
X45149523Y-108245809D01*
X45149523Y-108483904D01*
X45101904Y-108579142D01*
X45054285Y-108626761D01*
X44959047Y-108674380D01*
X44673333Y-108674380D01*
X44578095Y-108626761D01*
X44530476Y-108579142D01*
X58478095Y-88674380D02*
X58478095Y-89483904D01*
X58525714Y-89579142D01*
X58573333Y-89626761D01*
X58668571Y-89674380D01*
X58859047Y-89674380D01*
X58954285Y-89626761D01*
X59001904Y-89579142D01*
X59049523Y-89483904D01*
X59049523Y-88674380D01*
X59954285Y-89007714D02*
X59954285Y-89674380D01*
X59716190Y-88626761D02*
X59478095Y-89341047D01*
X60097142Y-89341047D01*
X57505695Y-117877340D02*
X57505695Y-118686864D01*
X57553314Y-118782102D01*
X57600933Y-118829721D01*
X57696171Y-118877340D01*
X57886647Y-118877340D01*
X57981885Y-118829721D01*
X58029504Y-118782102D01*
X58077123Y-118686864D01*
X58077123Y-117877340D01*
X59029504Y-117877340D02*
X58553314Y-117877340D01*
X58505695Y-118353531D01*
X58553314Y-118305912D01*
X58648552Y-118258293D01*
X58886647Y-118258293D01*
X58981885Y-118305912D01*
X59029504Y-118353531D01*
X59077123Y-118448769D01*
X59077123Y-118686864D01*
X59029504Y-118782102D01*
X58981885Y-118829721D01*
X58886647Y-118877340D01*
X58648552Y-118877340D01*
X58553314Y-118829721D01*
X58505695Y-118782102D01*
X32889866Y-123189300D02*
X32889866Y-123903586D01*
X32842247Y-124046443D01*
X32747009Y-124141681D01*
X32604152Y-124189300D01*
X32508914Y-124189300D01*
X33842247Y-123189300D02*
X33366057Y-123189300D01*
X33318438Y-123665491D01*
X33366057Y-123617872D01*
X33461295Y-123570253D01*
X33699390Y-123570253D01*
X33794628Y-123617872D01*
X33842247Y-123665491D01*
X33889866Y-123760729D01*
X33889866Y-123998824D01*
X33842247Y-124094062D01*
X33794628Y-124141681D01*
X33699390Y-124189300D01*
X33461295Y-124189300D01*
X33366057Y-124141681D01*
X33318438Y-124094062D01*
X47286064Y-106345740D02*
X47286064Y-107155264D01*
X47333683Y-107250502D01*
X47381302Y-107298121D01*
X47476540Y-107345740D01*
X47667017Y-107345740D01*
X47762255Y-107298121D01*
X47809874Y-107250502D01*
X47857493Y-107155264D01*
X47857493Y-106345740D01*
X48857493Y-107345740D02*
X48286064Y-107345740D01*
X48571779Y-107345740D02*
X48571779Y-106345740D01*
X48476540Y-106488598D01*
X48381302Y-106583836D01*
X48286064Y-106631455D01*
X49476540Y-106345740D02*
X49571779Y-106345740D01*
X49667017Y-106393360D01*
X49714636Y-106440979D01*
X49762255Y-106536217D01*
X49809874Y-106726693D01*
X49809874Y-106964788D01*
X49762255Y-107155264D01*
X49714636Y-107250502D01*
X49667017Y-107298121D01*
X49571779Y-107345740D01*
X49476540Y-107345740D01*
X49381302Y-107298121D01*
X49333683Y-107250502D01*
X49286064Y-107155264D01*
X49238445Y-106964788D01*
X49238445Y-106726693D01*
X49286064Y-106536217D01*
X49333683Y-106440979D01*
X49381302Y-106393360D01*
X49476540Y-106345740D01*
X38794466Y-118398040D02*
X38794466Y-119112326D01*
X38746847Y-119255183D01*
X38651609Y-119350421D01*
X38508752Y-119398040D01*
X38413514Y-119398040D01*
X39699228Y-118398040D02*
X39508752Y-118398040D01*
X39413514Y-118445660D01*
X39365895Y-118493279D01*
X39270657Y-118636136D01*
X39223038Y-118826612D01*
X39223038Y-119207564D01*
X39270657Y-119302802D01*
X39318276Y-119350421D01*
X39413514Y-119398040D01*
X39603990Y-119398040D01*
X39699228Y-119350421D01*
X39746847Y-119302802D01*
X39794466Y-119207564D01*
X39794466Y-118969469D01*
X39746847Y-118874231D01*
X39699228Y-118826612D01*
X39603990Y-118778993D01*
X39413514Y-118778993D01*
X39318276Y-118826612D01*
X39270657Y-118874231D01*
X39223038Y-118969469D01*
X39132988Y-124706771D02*
X39132988Y-123206771D01*
X39632988Y-124278200D01*
X40132988Y-123206771D01*
X40132988Y-124706771D01*
X40847274Y-124706771D02*
X40847274Y-123706771D01*
X40847274Y-123206771D02*
X40775845Y-123278200D01*
X40847274Y-123349628D01*
X40918702Y-123278200D01*
X40847274Y-123206771D01*
X40847274Y-123349628D01*
X42204417Y-124635342D02*
X42061560Y-124706771D01*
X41775845Y-124706771D01*
X41632988Y-124635342D01*
X41561560Y-124563914D01*
X41490131Y-124421057D01*
X41490131Y-123992485D01*
X41561560Y-123849628D01*
X41632988Y-123778200D01*
X41775845Y-123706771D01*
X42061560Y-123706771D01*
X42204417Y-123778200D01*
X42847274Y-124706771D02*
X42847274Y-123706771D01*
X42847274Y-123992485D02*
X42918702Y-123849628D01*
X42990131Y-123778200D01*
X43132988Y-123706771D01*
X43275845Y-123706771D01*
X43990131Y-124706771D02*
X43847274Y-124635342D01*
X43775845Y-124563914D01*
X43704417Y-124421057D01*
X43704417Y-123992485D01*
X43775845Y-123849628D01*
X43847274Y-123778200D01*
X43990131Y-123706771D01*
X44204417Y-123706771D01*
X44347274Y-123778200D01*
X44418702Y-123849628D01*
X44490131Y-123992485D01*
X44490131Y-124421057D01*
X44418702Y-124563914D01*
X44347274Y-124635342D01*
X44204417Y-124706771D01*
X43990131Y-124706771D01*
X46204417Y-124635342D02*
X46418702Y-124706771D01*
X46775845Y-124706771D01*
X46918702Y-124635342D01*
X46990131Y-124563914D01*
X47061560Y-124421057D01*
X47061560Y-124278200D01*
X46990131Y-124135342D01*
X46918702Y-124063914D01*
X46775845Y-123992485D01*
X46490131Y-123921057D01*
X46347274Y-123849628D01*
X46275845Y-123778200D01*
X46204417Y-123635342D01*
X46204417Y-123492485D01*
X46275845Y-123349628D01*
X46347274Y-123278200D01*
X46490131Y-123206771D01*
X46847274Y-123206771D01*
X47061560Y-123278200D01*
X47704417Y-124706771D02*
X47704417Y-123206771D01*
X48061560Y-123206771D01*
X48275845Y-123278200D01*
X48418702Y-123421057D01*
X48490131Y-123563914D01*
X48561560Y-123849628D01*
X48561560Y-124063914D01*
X48490131Y-124349628D01*
X48418702Y-124492485D01*
X48275845Y-124635342D01*
X48061560Y-124706771D01*
X47704417Y-124706771D01*
X59793902Y-113083742D02*
X59746283Y-113131361D01*
X59603426Y-113178980D01*
X59508188Y-113178980D01*
X59365331Y-113131361D01*
X59270093Y-113036123D01*
X59222474Y-112940885D01*
X59174855Y-112750409D01*
X59174855Y-112607552D01*
X59222474Y-112417076D01*
X59270093Y-112321838D01*
X59365331Y-112226600D01*
X59508188Y-112178980D01*
X59603426Y-112178980D01*
X59746283Y-112226600D01*
X59793902Y-112274219D01*
X60746283Y-113178980D02*
X60174855Y-113178980D01*
X60460569Y-113178980D02*
X60460569Y-112178980D01*
X60365331Y-112321838D01*
X60270093Y-112417076D01*
X60174855Y-112464695D01*
X61603426Y-112512314D02*
X61603426Y-113178980D01*
X61365331Y-112131361D02*
X61127236Y-112845647D01*
X61746283Y-112845647D01*
X67069102Y-106749577D02*
X67116721Y-106797196D01*
X67164340Y-106940053D01*
X67164340Y-107035291D01*
X67116721Y-107178148D01*
X67021483Y-107273386D01*
X66926245Y-107321005D01*
X66735769Y-107368624D01*
X66592912Y-107368624D01*
X66402436Y-107321005D01*
X66307198Y-107273386D01*
X66211960Y-107178148D01*
X66164340Y-107035291D01*
X66164340Y-106940053D01*
X66211960Y-106797196D01*
X66259579Y-106749577D01*
X66259579Y-106368624D02*
X66211960Y-106321005D01*
X66164340Y-106225767D01*
X66164340Y-105987672D01*
X66211960Y-105892434D01*
X66259579Y-105844815D01*
X66354817Y-105797196D01*
X66450055Y-105797196D01*
X66592912Y-105844815D01*
X67164340Y-106416243D01*
X67164340Y-105797196D01*
X66164340Y-105463862D02*
X66164340Y-104844815D01*
X66545293Y-105178148D01*
X66545293Y-105035291D01*
X66592912Y-104940053D01*
X66640531Y-104892434D01*
X66735769Y-104844815D01*
X66973864Y-104844815D01*
X67069102Y-104892434D01*
X67116721Y-104940053D01*
X67164340Y-105035291D01*
X67164340Y-105321005D01*
X67116721Y-105416243D01*
X67069102Y-105463862D01*
X63819102Y-111518937D02*
X63866721Y-111566556D01*
X63914340Y-111709413D01*
X63914340Y-111804651D01*
X63866721Y-111947508D01*
X63771483Y-112042746D01*
X63676245Y-112090365D01*
X63485769Y-112137984D01*
X63342912Y-112137984D01*
X63152436Y-112090365D01*
X63057198Y-112042746D01*
X62961960Y-111947508D01*
X62914340Y-111804651D01*
X62914340Y-111709413D01*
X62961960Y-111566556D01*
X63009579Y-111518937D01*
X63009579Y-111137984D02*
X62961960Y-111090365D01*
X62914340Y-110995127D01*
X62914340Y-110757032D01*
X62961960Y-110661794D01*
X63009579Y-110614175D01*
X63104817Y-110566556D01*
X63200055Y-110566556D01*
X63342912Y-110614175D01*
X63914340Y-111185603D01*
X63914340Y-110566556D01*
X63247674Y-109709413D02*
X63914340Y-109709413D01*
X62866721Y-109947508D02*
X63581007Y-110185603D01*
X63581007Y-109566556D01*
X60924535Y-105608260D02*
X60924535Y-106417784D01*
X60972154Y-106513022D01*
X61019773Y-106560641D01*
X61115011Y-106608260D01*
X61305487Y-106608260D01*
X61400725Y-106560641D01*
X61448344Y-106513022D01*
X61495963Y-106417784D01*
X61495963Y-105608260D01*
X62400725Y-105608260D02*
X62210249Y-105608260D01*
X62115011Y-105655880D01*
X62067392Y-105703499D01*
X61972154Y-105846356D01*
X61924535Y-106036832D01*
X61924535Y-106417784D01*
X61972154Y-106513022D01*
X62019773Y-106560641D01*
X62115011Y-106608260D01*
X62305487Y-106608260D01*
X62400725Y-106560641D01*
X62448344Y-106513022D01*
X62495963Y-106417784D01*
X62495963Y-106179689D01*
X62448344Y-106084451D01*
X62400725Y-106036832D01*
X62305487Y-105989213D01*
X62115011Y-105989213D01*
X62019773Y-106036832D01*
X61972154Y-106084451D01*
X61924535Y-106179689D01*
M02*
