G04 #@! TF.GenerationSoftware,KiCad,Pcbnew,(5.1.0)-1*
G04 #@! TF.CreationDate,2019-04-02T23:20:29-05:00*
G04 #@! TF.ProjectId,Avionics Board 1,4176696f-6e69-4637-9320-426f61726420,rev?*
G04 #@! TF.SameCoordinates,Original*
G04 #@! TF.FileFunction,Soldermask,Bot*
G04 #@! TF.FilePolarity,Negative*
%FSLAX46Y46*%
G04 Gerber Fmt 4.6, Leading zero omitted, Abs format (unit mm)*
G04 Created by KiCad (PCBNEW (5.1.0)-1) date 2019-04-02 23:20:29*
%MOMM*%
%LPD*%
G04 APERTURE LIST*
%ADD10R,2.300000X2.000000*%
%ADD11R,1.650000X1.400000*%
%ADD12C,1.300000*%
%ADD13C,5.800000*%
%ADD14R,2.100000X2.100000*%
%ADD15O,2.100000X2.100000*%
%ADD16R,1.400000X2.000000*%
%ADD17R,1.500000X1.500000*%
%ADD18R,3.800000X1.900000*%
%ADD19R,3.900000X1.400000*%
%ADD20R,0.900000X2.700000*%
%ADD21R,2.400000X2.900000*%
%ADD22R,1.700000X1.100000*%
%ADD23R,1.460000X1.050000*%
%ADD24O,1.250000X1.250000*%
%ADD25R,1.250000X1.250000*%
G04 APERTURE END LIST*
D10*
X41290000Y-124622000D03*
X45390000Y-124622000D03*
D11*
X48700000Y-115300000D03*
X48700000Y-113300000D03*
D12*
X47440000Y-84722000D03*
X43040000Y-84722000D03*
D13*
X64940000Y-93322000D03*
X62100000Y-117000000D03*
X25640000Y-93322000D03*
X28000000Y-117000000D03*
D14*
X52940000Y-93022000D03*
D15*
X50400000Y-93022000D03*
D16*
X36640000Y-117522000D03*
X39640000Y-117522000D03*
X45940000Y-120722000D03*
X42940000Y-120722000D03*
D17*
X36840000Y-120422000D03*
X39640000Y-120422000D03*
D18*
X29440000Y-98522000D03*
D19*
X23890000Y-100872000D03*
X23890000Y-102872000D03*
D18*
X29440000Y-105222000D03*
D20*
X46840000Y-82122000D03*
X46040000Y-82122000D03*
X45240000Y-82122000D03*
X44440000Y-82122000D03*
X43640000Y-82122000D03*
D21*
X49690000Y-82222000D03*
X49690000Y-87722000D03*
X40790000Y-82222000D03*
X40790000Y-87722000D03*
D12*
X47440000Y-84722000D03*
X43040000Y-84722000D03*
D14*
X34240000Y-119922000D03*
D15*
X34240000Y-117382000D03*
X34240000Y-114842000D03*
D22*
X46240000Y-118472000D03*
X46240000Y-116572000D03*
D23*
X41740000Y-118472000D03*
X41740000Y-117522000D03*
X41740000Y-116572000D03*
X43940000Y-116572000D03*
X43940000Y-118472000D03*
D22*
X41840000Y-113972000D03*
X41840000Y-112072000D03*
X46240000Y-113072000D03*
X46240000Y-114972000D03*
D11*
X44040000Y-113922000D03*
X44040000Y-111922000D03*
D24*
X34700000Y-110000000D03*
X34700000Y-111000000D03*
X33700000Y-110000000D03*
X33700000Y-111000000D03*
X32700000Y-110000000D03*
X32700000Y-111000000D03*
X31700000Y-110000000D03*
X31700000Y-111000000D03*
X30700000Y-110000000D03*
X30700000Y-111000000D03*
X29700000Y-110000000D03*
X29700000Y-111000000D03*
X28700000Y-110000000D03*
X28700000Y-111000000D03*
X27700000Y-110000000D03*
X27700000Y-111000000D03*
X26700000Y-110000000D03*
X26700000Y-111000000D03*
X25700000Y-110000000D03*
X25700000Y-111000000D03*
X24700000Y-110000000D03*
X24700000Y-111000000D03*
X23700000Y-110000000D03*
X23700000Y-111000000D03*
X22700000Y-110000000D03*
D25*
X22700000Y-111000000D03*
M02*
