G04 #@! TF.FileFunction,Copper,L1,Top,Signal*
%FSLAX46Y46*%
G04 Gerber Fmt 4.6, Leading zero omitted, Abs format (unit mm)*
G04 Created by KiCad (PCBNEW 4.0.7) date 01/25/18 11:26:49*
%MOMM*%
%LPD*%
G01*
G04 APERTURE LIST*
%ADD10C,0.100000*%
%ADD11C,0.381000*%
%ADD12R,2.000000X3.800000*%
%ADD13R,2.000000X1.500000*%
%ADD14R,1.700000X1.700000*%
%ADD15O,1.700000X1.700000*%
%ADD16R,3.800000X2.000000*%
%ADD17R,1.500000X2.000000*%
%ADD18R,0.700000X1.300000*%
%ADD19R,1.300000X0.700000*%
%ADD20R,1.200000X1.200000*%
%ADD21R,1.000000X1.250000*%
%ADD22R,1.250000X1.000000*%
%ADD23C,1.778000*%
%ADD24C,3.556000*%
%ADD25C,4.318000*%
%ADD26C,3.048000*%
%ADD27C,6.100000*%
%ADD28C,3.500000*%
%ADD29C,3.302000*%
%ADD30C,1.500000*%
%ADD31C,1.000000*%
%ADD32C,0.600000*%
%ADD33C,1.000000*%
%ADD34C,4.000000*%
%ADD35C,0.500000*%
%ADD36C,0.250000*%
%ADD37C,1.500000*%
%ADD38C,0.254000*%
G04 APERTURE END LIST*
D10*
D11*
X110236000Y-73533000D02*
X114935000Y-80518000D01*
X114935000Y-80518000D02*
X105537000Y-80518000D01*
X105537000Y-80518000D02*
X110236000Y-73533000D01*
X110363000Y-79629000D02*
G75*
G03X110363000Y-79629000I-127000J0D01*
G01*
X110595210Y-79629000D02*
G75*
G03X110595210Y-79629000I-359210J0D01*
G01*
X110236000Y-78740000D02*
X110109000Y-75184000D01*
X110236000Y-78613000D02*
X110363000Y-75184000D01*
X110236000Y-75184000D02*
X110744000Y-75184000D01*
X110744000Y-75184000D02*
X110236000Y-78740000D01*
X110236000Y-78740000D02*
X109728000Y-75184000D01*
X109728000Y-75184000D02*
X110236000Y-75184000D01*
D12*
X170434400Y-110718600D03*
D13*
X164134400Y-110718600D03*
X164134400Y-113018600D03*
X164134400Y-108418600D03*
D14*
X146812000Y-59690000D03*
D15*
X144272000Y-59690000D03*
X146812000Y-62230000D03*
X144272000Y-62230000D03*
X146812000Y-64770000D03*
X144272000Y-64770000D03*
X146812000Y-67310000D03*
X144272000Y-67310000D03*
X146812000Y-69850000D03*
X144272000Y-69850000D03*
X146812000Y-72390000D03*
X144272000Y-72390000D03*
X146812000Y-74930000D03*
X144272000Y-74930000D03*
X146812000Y-77470000D03*
X144272000Y-77470000D03*
D16*
X165862000Y-58572000D03*
D17*
X165862000Y-64872000D03*
X168162000Y-64872000D03*
X163562000Y-64872000D03*
D18*
X160467000Y-169672000D03*
X162367000Y-169672000D03*
X160467000Y-173482000D03*
X162367000Y-173482000D03*
X160467000Y-158877000D03*
X162367000Y-158877000D03*
X164912000Y-140462000D03*
X166812000Y-140462000D03*
X164912000Y-136652000D03*
X166812000Y-136652000D03*
X164912000Y-132842000D03*
X166812000Y-132842000D03*
X164912000Y-129032000D03*
X166812000Y-129032000D03*
X160467000Y-162687000D03*
X162367000Y-162687000D03*
X160467000Y-148082000D03*
X162367000Y-148082000D03*
X160467000Y-151892000D03*
X162367000Y-151892000D03*
X163002000Y-74422000D03*
X161102000Y-74422000D03*
D19*
X166789100Y-119669600D03*
X166789100Y-117769600D03*
D14*
X167767000Y-173482000D03*
D15*
X167767000Y-170942000D03*
X167767000Y-168402000D03*
D14*
X159512000Y-130302000D03*
D15*
X159512000Y-132842000D03*
X159512000Y-135382000D03*
X159512000Y-137922000D03*
D14*
X167767000Y-162687000D03*
D15*
X167767000Y-160147000D03*
X167767000Y-157607000D03*
D14*
X167767000Y-151892000D03*
D15*
X167767000Y-149352000D03*
X167767000Y-146812000D03*
D20*
X169842000Y-140462000D03*
X172042000Y-140462000D03*
X169842000Y-136652000D03*
X172042000Y-136652000D03*
X169842000Y-132842000D03*
X172042000Y-132842000D03*
X169842000Y-129032000D03*
X172042000Y-129032000D03*
X170772000Y-74422000D03*
X168572000Y-74422000D03*
X163156900Y-117479900D03*
X163156900Y-119679900D03*
D21*
X170672000Y-69342000D03*
X168672000Y-69342000D03*
D22*
X158864300Y-113554000D03*
X158864300Y-115554000D03*
D21*
X161052000Y-69342000D03*
X163052000Y-69342000D03*
D22*
X158915100Y-107959400D03*
X158915100Y-105959400D03*
D14*
X137922000Y-125222000D03*
D15*
X140462000Y-125222000D03*
X137922000Y-127762000D03*
X140462000Y-127762000D03*
X137922000Y-130302000D03*
X140462000Y-130302000D03*
X137922000Y-132842000D03*
X140462000Y-132842000D03*
X137922000Y-135382000D03*
X140462000Y-135382000D03*
X137922000Y-137922000D03*
X140462000Y-137922000D03*
X137922000Y-140462000D03*
X140462000Y-140462000D03*
X137922000Y-143002000D03*
X140462000Y-143002000D03*
X137922000Y-145542000D03*
X140462000Y-145542000D03*
X137922000Y-148082000D03*
X140462000Y-148082000D03*
X137922000Y-150622000D03*
X140462000Y-150622000D03*
X137922000Y-153162000D03*
X140462000Y-153162000D03*
X137922000Y-155702000D03*
X140462000Y-155702000D03*
X137922000Y-158242000D03*
X140462000Y-158242000D03*
X137922000Y-160782000D03*
X140462000Y-160782000D03*
X137922000Y-163322000D03*
X140462000Y-163322000D03*
X137922000Y-165862000D03*
X140462000Y-165862000D03*
X137922000Y-168402000D03*
X140462000Y-168402000D03*
X137922000Y-170942000D03*
X140462000Y-170942000D03*
D14*
X76962000Y-125222000D03*
D15*
X79502000Y-125222000D03*
X76962000Y-127762000D03*
X79502000Y-127762000D03*
X76962000Y-130302000D03*
X79502000Y-130302000D03*
X76962000Y-132842000D03*
X79502000Y-132842000D03*
X76962000Y-135382000D03*
X79502000Y-135382000D03*
X76962000Y-137922000D03*
X79502000Y-137922000D03*
X76962000Y-140462000D03*
X79502000Y-140462000D03*
X76962000Y-143002000D03*
X79502000Y-143002000D03*
X76962000Y-145542000D03*
X79502000Y-145542000D03*
X76962000Y-148082000D03*
X79502000Y-148082000D03*
X76962000Y-150622000D03*
X79502000Y-150622000D03*
X76962000Y-153162000D03*
X79502000Y-153162000D03*
X76962000Y-155702000D03*
X79502000Y-155702000D03*
X76962000Y-158242000D03*
X79502000Y-158242000D03*
X76962000Y-160782000D03*
X79502000Y-160782000D03*
X76962000Y-163322000D03*
X79502000Y-163322000D03*
X76962000Y-165862000D03*
X79502000Y-165862000D03*
X76962000Y-168402000D03*
X79502000Y-168402000D03*
X76962000Y-170942000D03*
X79502000Y-170942000D03*
D23*
X77470000Y-199390000D03*
X77470000Y-196850000D03*
X77470000Y-194310000D03*
X77470000Y-191770000D03*
X77470000Y-189230000D03*
X77470000Y-186690000D03*
X77470000Y-184150000D03*
X77470000Y-181610000D03*
D24*
X69596000Y-182880000D03*
X69596000Y-198120000D03*
D23*
X111887000Y-179705000D03*
X111887000Y-182245000D03*
X111887000Y-184785000D03*
X111887000Y-187325000D03*
X111887000Y-189865000D03*
X111887000Y-192405000D03*
X111887000Y-194945000D03*
D24*
X126365000Y-180340000D03*
X126365000Y-194310000D03*
X116205000Y-180340000D03*
X116205000Y-194310000D03*
D23*
X112522000Y-212725000D03*
X112522000Y-215265000D03*
X112522000Y-217805000D03*
X112522000Y-220345000D03*
X112522000Y-222885000D03*
X112522000Y-225425000D03*
X130302000Y-215265000D03*
X130302000Y-217805000D03*
X130302000Y-220345000D03*
X130302000Y-222885000D03*
D25*
X113792000Y-208280000D03*
X113792000Y-229870000D03*
X129032000Y-229870000D03*
X129032000Y-208280000D03*
D23*
X142875000Y-205740000D03*
X142875000Y-208280000D03*
X142875000Y-210820000D03*
X142875000Y-213360000D03*
X142875000Y-215900000D03*
X142875000Y-218440000D03*
X142875000Y-220980000D03*
X142875000Y-223520000D03*
X142875000Y-226060000D03*
D26*
X172339000Y-205740000D03*
X172339000Y-226060000D03*
D27*
X158750000Y-97155000D03*
X165450000Y-97155000D03*
X158750000Y-87630000D03*
X165450000Y-87630000D03*
D23*
X77470000Y-218440000D03*
X77470000Y-215900000D03*
X77470000Y-213360000D03*
X77470000Y-210820000D03*
X77470000Y-208280000D03*
X77470000Y-205740000D03*
D28*
X67320000Y-218440000D03*
X67310000Y-205740000D03*
D14*
X65405000Y-168910000D03*
D15*
X67945000Y-168910000D03*
X65405000Y-171450000D03*
X67945000Y-171450000D03*
X65405000Y-173990000D03*
X67945000Y-173990000D03*
D14*
X155194000Y-146050000D03*
D15*
X155194000Y-148590000D03*
X155194000Y-151130000D03*
X155194000Y-153670000D03*
D23*
X104394000Y-197612000D03*
X101854000Y-197612000D03*
X99314000Y-197612000D03*
X96774000Y-197612000D03*
X94234000Y-197612000D03*
X91694000Y-197612000D03*
X89154000Y-197612000D03*
X86614000Y-197612000D03*
D29*
X85344000Y-225806000D03*
X105664000Y-225806000D03*
X105664000Y-202946000D03*
X85344000Y-202946000D03*
D23*
X170180000Y-185928000D03*
X167640000Y-185928000D03*
X165100000Y-185928000D03*
X162560000Y-185928000D03*
X160020000Y-185928000D03*
X157480000Y-185928000D03*
X154940000Y-185928000D03*
X152400000Y-185928000D03*
D29*
X152400000Y-198628000D03*
X170180000Y-198628000D03*
D30*
X171958000Y-134620000D03*
D31*
X158115000Y-117475000D03*
D30*
X169545000Y-106045000D03*
X165735000Y-69215000D03*
D31*
X105410000Y-160020000D03*
X105410000Y-170180000D03*
X162560000Y-121920000D03*
X160020000Y-146050000D03*
X158750000Y-153670000D03*
X162560000Y-156210000D03*
D30*
X154432000Y-78994000D03*
X161544000Y-79248000D03*
D32*
X105410000Y-180086000D03*
X148996400Y-110566200D03*
X151366220Y-141721840D03*
X150368000Y-111404400D03*
X151635460Y-144282160D03*
X154940000Y-173990000D03*
X134620000Y-181610000D03*
X128778000Y-163322000D03*
X119380000Y-163322000D03*
X107188000Y-180340000D03*
X126238000Y-175260000D03*
X152400000Y-136144000D03*
X149606000Y-212090000D03*
X120650000Y-166370000D03*
X157480000Y-170180000D03*
X134620000Y-184150000D03*
X95250000Y-166370000D03*
X86360000Y-175260000D03*
D31*
X96520000Y-175260000D03*
X93980000Y-177800000D03*
X91440000Y-180340000D03*
D32*
X134620000Y-176530000D03*
X134620000Y-179070000D03*
X81534000Y-177038000D03*
D33*
X158750000Y-87630000D02*
X158750000Y-71644000D01*
X158750000Y-71644000D02*
X161052000Y-69342000D01*
D34*
X158750000Y-97155000D02*
X158750000Y-87630000D01*
D33*
X158915100Y-107959400D02*
X156854400Y-107959400D01*
X158750000Y-101600000D02*
X158750000Y-97155000D01*
X156210000Y-104140000D02*
X158750000Y-101600000D01*
X156210000Y-107315000D02*
X156210000Y-104140000D01*
X156854400Y-107959400D02*
X156210000Y-107315000D01*
X158915100Y-107959400D02*
X163675200Y-107959400D01*
X163675200Y-107959400D02*
X164134400Y-108418600D01*
X161052000Y-69342000D02*
X161052000Y-67382000D01*
X161052000Y-67382000D02*
X163562000Y-64872000D01*
D35*
X172042000Y-134366000D02*
X172042000Y-134536000D01*
X172042000Y-134536000D02*
X171958000Y-134620000D01*
X172042000Y-140462000D02*
X172042000Y-136652000D01*
X172042000Y-136652000D02*
X172042000Y-134366000D01*
X172042000Y-134366000D02*
X172042000Y-132842000D01*
X172042000Y-132842000D02*
X172042000Y-129032000D01*
X161102000Y-74422000D02*
X161102000Y-72324000D01*
X163052000Y-70374000D02*
X163052000Y-69342000D01*
X161102000Y-72324000D02*
X163052000Y-70374000D01*
X158864300Y-115554000D02*
X158864300Y-116725700D01*
X158864300Y-116725700D02*
X158115000Y-117475000D01*
X158915100Y-105959400D02*
X169459400Y-105959400D01*
D33*
X170434400Y-106934400D02*
X170434400Y-110718600D01*
X170434400Y-106934400D02*
X169545000Y-106045000D01*
D35*
X169459400Y-105959400D02*
X169545000Y-106045000D01*
D33*
X164134400Y-110718600D02*
X170434400Y-110718600D01*
X168672000Y-69342000D02*
X165862000Y-69342000D01*
X165862000Y-69342000D02*
X165735000Y-69215000D01*
X163052000Y-69342000D02*
X165608000Y-69342000D01*
X165862000Y-69088000D02*
X165735000Y-69215000D01*
X165862000Y-69088000D02*
X165862000Y-64872000D01*
X165608000Y-69342000D02*
X165735000Y-69215000D01*
D36*
X166789100Y-117769600D02*
X166789100Y-114363900D01*
X166789100Y-114363900D02*
X170434400Y-110718600D01*
D35*
X167894000Y-180594000D02*
X168402000Y-180594000D01*
X167894000Y-180594000D02*
X165354000Y-180594000D01*
X165354000Y-180594000D02*
X160467000Y-175707000D01*
X160467000Y-173482000D02*
X160467000Y-175707000D01*
X170180000Y-182372000D02*
X170180000Y-185928000D01*
X168402000Y-180594000D02*
X170180000Y-182372000D01*
X89154000Y-197612000D02*
X89154000Y-198120000D01*
X89154000Y-198120000D02*
X87884000Y-199390000D01*
X87884000Y-199390000D02*
X80264000Y-199390000D01*
D33*
X80264000Y-199390000D02*
X80264000Y-188468000D01*
X105410000Y-177292000D02*
X105410000Y-177800000D01*
X97282000Y-185420000D02*
X105410000Y-177292000D01*
X83312000Y-185420000D02*
X97282000Y-185420000D01*
X80264000Y-188468000D02*
X83312000Y-185420000D01*
D35*
X65405000Y-171450000D02*
X67945000Y-171450000D01*
X67945000Y-171450000D02*
X69850000Y-173355000D01*
X80264000Y-180086000D02*
X80264000Y-199390000D01*
X79248000Y-179070000D02*
X80264000Y-180086000D01*
X72390000Y-179070000D02*
X79248000Y-179070000D01*
X69850000Y-176530000D02*
X72390000Y-179070000D01*
X69850000Y-173355000D02*
X69850000Y-176530000D01*
D33*
X112522000Y-212725000D02*
X133223000Y-212725000D01*
X139192000Y-223520000D02*
X142875000Y-223520000D01*
X136398000Y-220726000D02*
X139192000Y-223520000D01*
X136398000Y-215900000D02*
X136398000Y-220726000D01*
X133223000Y-212725000D02*
X136398000Y-215900000D01*
X102870000Y-142240000D02*
X101600000Y-143510000D01*
X101600000Y-156210000D02*
X101600000Y-143510000D01*
X105410000Y-160020000D02*
X101600000Y-156210000D01*
X105410000Y-170180000D02*
X105410000Y-177800000D01*
D35*
X160467000Y-173482000D02*
X160467000Y-169672000D01*
X160467000Y-148082000D02*
X160467000Y-146497000D01*
X160467000Y-146497000D02*
X160020000Y-146050000D01*
X160467000Y-158877000D02*
X160467000Y-158303000D01*
X160467000Y-158303000D02*
X162560000Y-156210000D01*
X158750000Y-153670000D02*
X160467000Y-151953000D01*
X160467000Y-151953000D02*
X160467000Y-151892000D01*
X160467000Y-169672000D02*
X160467000Y-162687000D01*
D33*
X77470000Y-205740000D02*
X99060000Y-205740000D01*
X106045000Y-212725000D02*
X112522000Y-212725000D01*
X99060000Y-205740000D02*
X106045000Y-212725000D01*
X105410000Y-177800000D02*
X109982000Y-177800000D01*
X109982000Y-177800000D02*
X111887000Y-179705000D01*
X77470000Y-199390000D02*
X80264000Y-199390000D01*
X77470000Y-205740000D02*
X77470000Y-199390000D01*
X79502000Y-143002000D02*
X102108000Y-143002000D01*
X102108000Y-143002000D02*
X102870000Y-142240000D01*
X102870000Y-142240000D02*
X127000000Y-118110000D01*
X127000000Y-118110000D02*
X154940000Y-118110000D01*
D35*
X160467000Y-162687000D02*
X160467000Y-158877000D01*
X160467000Y-151892000D02*
X160467000Y-148082000D01*
D36*
X163156900Y-117479900D02*
X163156900Y-115595400D01*
X164134400Y-114617900D02*
X164134400Y-113018600D01*
X163156900Y-115595400D02*
X164134400Y-114617900D01*
D33*
X158864300Y-113554000D02*
X163599000Y-113554000D01*
X163599000Y-113554000D02*
X164134400Y-113018600D01*
D37*
X170672000Y-73660000D02*
X170672000Y-77486000D01*
X168910000Y-79248000D02*
X161544000Y-79248000D01*
X170672000Y-77486000D02*
X168910000Y-79248000D01*
D33*
X170672000Y-69342000D02*
X170672000Y-73660000D01*
X170672000Y-73660000D02*
X170672000Y-74322000D01*
X170672000Y-74322000D02*
X170772000Y-74422000D01*
X168162000Y-64872000D02*
X169189800Y-64872000D01*
X170672000Y-66354200D02*
X170672000Y-69342000D01*
X169189800Y-64872000D02*
X170672000Y-66354200D01*
D36*
X166789100Y-119669600D02*
X163167200Y-119669600D01*
X163167200Y-119669600D02*
X163156900Y-119679900D01*
X168572000Y-74422000D02*
X163002000Y-74422000D01*
D35*
X166812000Y-129032000D02*
X169842000Y-129032000D01*
X169842000Y-132842000D02*
X166812000Y-132842000D01*
X166812000Y-136652000D02*
X169842000Y-136652000D01*
X169842000Y-140462000D02*
X166812000Y-140462000D01*
X137922000Y-125222000D02*
X137922000Y-122428000D01*
X171958000Y-173482000D02*
X167767000Y-173482000D01*
X176530000Y-168910000D02*
X171958000Y-173482000D01*
X176530000Y-127000000D02*
X176530000Y-168910000D01*
X175260000Y-125730000D02*
X176530000Y-127000000D01*
X153670000Y-125730000D02*
X175260000Y-125730000D01*
X149860000Y-121920000D02*
X153670000Y-125730000D01*
X138430000Y-121920000D02*
X149860000Y-121920000D01*
X137922000Y-122428000D02*
X138430000Y-121920000D01*
X167767000Y-173482000D02*
X162367000Y-173482000D01*
D36*
X140462000Y-130302000D02*
X150622000Y-130302000D01*
X153162000Y-132842000D02*
X159512000Y-132842000D01*
X150622000Y-130302000D02*
X153162000Y-132842000D01*
D35*
X159512000Y-132842000D02*
X164912000Y-132842000D01*
X94234000Y-197612000D02*
X94234000Y-191262000D01*
X94234000Y-191262000D02*
X105410000Y-180086000D01*
X146812000Y-69850000D02*
X148386800Y-69850000D01*
X148920200Y-110490000D02*
X148996400Y-110566200D01*
X148920200Y-70383400D02*
X148920200Y-110490000D01*
X148386800Y-69850000D02*
X148920200Y-70383400D01*
D36*
X151363680Y-141724380D02*
X151366220Y-141721840D01*
X139192000Y-141724380D02*
X151363680Y-141724380D01*
X137929620Y-140462000D02*
X139192000Y-141724380D01*
X137922000Y-140462000D02*
X137929620Y-140462000D01*
D35*
X159512000Y-135382000D02*
X163642000Y-135382000D01*
X163642000Y-135382000D02*
X164912000Y-136652000D01*
X148869400Y-67310000D02*
X146812000Y-67310000D01*
X150558500Y-68999100D02*
X148869400Y-67310000D01*
X150558500Y-111213900D02*
X150558500Y-68999100D01*
X150368000Y-111404400D02*
X150558500Y-111213900D01*
D36*
X139235180Y-144269460D02*
X151622760Y-144269460D01*
X151622760Y-144269460D02*
X151635460Y-144282160D01*
X137967720Y-143002000D02*
X139235180Y-144269460D01*
X137922000Y-143002000D02*
X137967720Y-143002000D01*
X137922000Y-143002000D02*
X137922000Y-143009620D01*
D35*
X159512000Y-137922000D02*
X162372000Y-137922000D01*
X162372000Y-137922000D02*
X164912000Y-140462000D01*
X164084000Y-181610000D02*
X164338000Y-181610000D01*
X164338000Y-181610000D02*
X165100000Y-182372000D01*
X165100000Y-182372000D02*
X165100000Y-185928000D01*
X162560000Y-181610000D02*
X154940000Y-173990000D01*
X164084000Y-181610000D02*
X162560000Y-181610000D01*
X77470000Y-210820000D02*
X76200000Y-210820000D01*
X76200000Y-194310000D02*
X77470000Y-194310000D01*
X74930000Y-195580000D02*
X76200000Y-194310000D01*
X74930000Y-209550000D02*
X74930000Y-195580000D01*
X76200000Y-210820000D02*
X74930000Y-209550000D01*
X162367000Y-145857000D02*
X162367000Y-148082000D01*
X161290000Y-144780000D02*
X162367000Y-145857000D01*
X158750000Y-144780000D02*
X161290000Y-144780000D01*
X157480000Y-146050000D02*
X158750000Y-144780000D01*
X157480000Y-154940000D02*
X157480000Y-146050000D01*
X148590000Y-163830000D02*
X157480000Y-154940000D01*
X148590000Y-167640000D02*
X148590000Y-163830000D01*
X154940000Y-173990000D02*
X148590000Y-167640000D01*
X162367000Y-148082000D02*
X165036500Y-148082000D01*
X166306500Y-149352000D02*
X167767000Y-149352000D01*
X165036500Y-148082000D02*
X166306500Y-149352000D01*
X137922000Y-153162000D02*
X137668000Y-153162000D01*
X137668000Y-153162000D02*
X130810000Y-160020000D01*
X130810000Y-160020000D02*
X130810000Y-177800000D01*
X130810000Y-177800000D02*
X134620000Y-181610000D01*
X167767000Y-170942000D02*
X164617400Y-170942000D01*
X163347400Y-169672000D02*
X162367000Y-169672000D01*
X164617400Y-170942000D02*
X163347400Y-169672000D01*
X99314000Y-197612000D02*
X99314000Y-188214000D01*
X119380000Y-163322000D02*
X128778000Y-163322000D01*
X99314000Y-188214000D02*
X107188000Y-180340000D01*
X96774000Y-199898000D02*
X96774000Y-197612000D01*
X103378000Y-206502000D02*
X96774000Y-199898000D01*
X107950000Y-206502000D02*
X103378000Y-206502000D01*
X111252000Y-203200000D02*
X107950000Y-206502000D01*
X114808000Y-203200000D02*
X111252000Y-203200000D01*
X118872000Y-199136000D02*
X114808000Y-203200000D01*
X118872000Y-178562000D02*
X118872000Y-199136000D01*
X121412000Y-176022000D02*
X118872000Y-178562000D01*
X125476000Y-176022000D02*
X121412000Y-176022000D01*
X126238000Y-175260000D02*
X125476000Y-176022000D01*
D36*
X144272000Y-165862000D02*
X152400000Y-157734000D01*
D35*
X152400000Y-157734000D02*
X152400000Y-136144000D01*
D36*
X140462000Y-165862000D02*
X144272000Y-165862000D01*
D35*
X159512000Y-130302000D02*
X163642000Y-130302000D01*
X163642000Y-130302000D02*
X164912000Y-129032000D01*
X139967024Y-194296976D02*
X139967024Y-194323024D01*
X146304000Y-218440000D02*
X142875000Y-218440000D01*
X148336000Y-216408000D02*
X146304000Y-218440000D01*
X148336000Y-202692000D02*
X148336000Y-216408000D01*
X139967024Y-194323024D02*
X148336000Y-202692000D01*
X137922000Y-168402000D02*
X136398000Y-168402000D01*
X137160000Y-191489952D02*
X139967024Y-194296976D01*
X139967024Y-194296976D02*
X139980048Y-194310000D01*
X137160000Y-175260000D02*
X137160000Y-191489952D01*
X135890000Y-173990000D02*
X137160000Y-175260000D01*
X135890000Y-168910000D02*
X135890000Y-173990000D01*
X136398000Y-168402000D02*
X135890000Y-168910000D01*
X139573000Y-192913000D02*
X150114000Y-203454000D01*
X150114000Y-211582000D02*
X149606000Y-212090000D01*
X150114000Y-203454000D02*
X150114000Y-211582000D01*
X137922000Y-170942000D02*
X137922000Y-191262000D01*
X137922000Y-191262000D02*
X139573000Y-192913000D01*
X139573000Y-192913000D02*
X139700000Y-193040000D01*
X77470000Y-213360000D02*
X76200000Y-213360000D01*
X76200000Y-191770000D02*
X77470000Y-191770000D01*
X73660000Y-194310000D02*
X76200000Y-191770000D01*
X73660000Y-210820000D02*
X73660000Y-194310000D01*
X76200000Y-213360000D02*
X73660000Y-210820000D01*
X112522000Y-220345000D02*
X102235000Y-220345000D01*
X95250000Y-213360000D02*
X77470000Y-213360000D01*
X102235000Y-220345000D02*
X95250000Y-213360000D01*
X76962000Y-150622000D02*
X75438000Y-150622000D01*
X162367000Y-153863000D02*
X162367000Y-151892000D01*
X158750000Y-157480000D02*
X162367000Y-153863000D01*
X158750000Y-168910000D02*
X158750000Y-157480000D01*
X157480000Y-170180000D02*
X158750000Y-168910000D01*
X129540000Y-179070000D02*
X134620000Y-184150000D01*
X129540000Y-175260000D02*
X129540000Y-179070000D01*
X120650000Y-166370000D02*
X129540000Y-175260000D01*
X95250000Y-166370000D02*
X120650000Y-166370000D01*
X74930000Y-175260000D02*
X86360000Y-175260000D01*
X72390000Y-172720000D02*
X74930000Y-175260000D01*
X72390000Y-153670000D02*
X72390000Y-172720000D01*
X75438000Y-150622000D02*
X72390000Y-153670000D01*
X162367000Y-151892000D02*
X167767000Y-151892000D01*
X162367000Y-151892000D02*
X162687000Y-151892000D01*
X79502000Y-158242000D02*
X80772000Y-158242000D01*
X96520000Y-173990000D02*
X96520000Y-175260000D01*
X80772000Y-158242000D02*
X96520000Y-173990000D01*
X79502000Y-160782000D02*
X80772000Y-160782000D01*
X93980000Y-173990000D02*
X93980000Y-177800000D01*
X80772000Y-160782000D02*
X93980000Y-173990000D01*
X79502000Y-163322000D02*
X82042000Y-163322000D01*
X91440000Y-172720000D02*
X91440000Y-180340000D01*
X82042000Y-163322000D02*
X91440000Y-172720000D01*
X137922000Y-163322000D02*
X137668000Y-163322000D01*
X137668000Y-163322000D02*
X133350000Y-167640000D01*
X133350000Y-167640000D02*
X133350000Y-175260000D01*
X133350000Y-175260000D02*
X134620000Y-176530000D01*
X162367000Y-162687000D02*
X167767000Y-162687000D01*
X137922000Y-155702000D02*
X136398000Y-155702000D01*
X132080000Y-176530000D02*
X134620000Y-179070000D01*
X132080000Y-160020000D02*
X132080000Y-176530000D01*
X136398000Y-155702000D02*
X132080000Y-160020000D01*
X167767000Y-160147000D02*
X164871400Y-160147000D01*
X164871400Y-160147000D02*
X163601400Y-158877000D01*
X163601400Y-158877000D02*
X162367000Y-158877000D01*
X135890000Y-191770000D02*
X135890000Y-193675000D01*
X137668000Y-165862000D02*
X134620000Y-168910000D01*
X134620000Y-168910000D02*
X134620000Y-173990000D01*
X134620000Y-173990000D02*
X135890000Y-175260000D01*
X135890000Y-175260000D02*
X135890000Y-182880000D01*
X135890000Y-182880000D02*
X135890000Y-191770000D01*
X139065000Y-209550000D02*
X142875000Y-213360000D01*
X139065000Y-196850000D02*
X139065000Y-209550000D01*
X135890000Y-193675000D02*
X139065000Y-196850000D01*
X137922000Y-165862000D02*
X137668000Y-165862000D01*
X65405000Y-168910000D02*
X65405000Y-167005000D01*
X74168000Y-177038000D02*
X81534000Y-177038000D01*
X71120000Y-173990000D02*
X74168000Y-177038000D01*
X71120000Y-167132000D02*
X71120000Y-173990000D01*
X69850000Y-165862000D02*
X71120000Y-167132000D01*
X66548000Y-165862000D02*
X69850000Y-165862000D01*
X65405000Y-167005000D02*
X66548000Y-165862000D01*
D38*
G36*
X180213000Y-82423000D02*
X159885000Y-82423000D01*
X159885000Y-72114132D01*
X161384692Y-70614440D01*
X161552000Y-70614440D01*
X161561830Y-70612590D01*
X160476210Y-71698210D01*
X160284367Y-71985325D01*
X160284367Y-71985326D01*
X160216999Y-72324000D01*
X160217000Y-72324005D01*
X160217000Y-73430203D01*
X160155569Y-73520110D01*
X160104560Y-73772000D01*
X160104560Y-75072000D01*
X160148838Y-75307317D01*
X160287910Y-75523441D01*
X160500110Y-75668431D01*
X160752000Y-75719440D01*
X161452000Y-75719440D01*
X161687317Y-75675162D01*
X161903441Y-75536090D01*
X162048431Y-75323890D01*
X162051081Y-75310803D01*
X162187910Y-75523441D01*
X162400110Y-75668431D01*
X162652000Y-75719440D01*
X163352000Y-75719440D01*
X163587317Y-75675162D01*
X163803441Y-75536090D01*
X163948431Y-75323890D01*
X163977164Y-75182000D01*
X167354666Y-75182000D01*
X167368838Y-75257317D01*
X167507910Y-75473441D01*
X167720110Y-75618431D01*
X167972000Y-75669440D01*
X169172000Y-75669440D01*
X169407317Y-75625162D01*
X169623441Y-75486090D01*
X169669969Y-75417994D01*
X169812302Y-75560327D01*
X170045691Y-75657000D01*
X170486250Y-75657000D01*
X170645000Y-75498250D01*
X170645000Y-74549000D01*
X170899000Y-74549000D01*
X170899000Y-75498250D01*
X171057750Y-75657000D01*
X171498309Y-75657000D01*
X171731698Y-75560327D01*
X171910327Y-75381699D01*
X172007000Y-75148310D01*
X172007000Y-74707750D01*
X171848250Y-74549000D01*
X170899000Y-74549000D01*
X170645000Y-74549000D01*
X170625000Y-74549000D01*
X170625000Y-74295000D01*
X170645000Y-74295000D01*
X170645000Y-73345750D01*
X170899000Y-73345750D01*
X170899000Y-74295000D01*
X171848250Y-74295000D01*
X172007000Y-74136250D01*
X172007000Y-73695690D01*
X171910327Y-73462301D01*
X171731698Y-73283673D01*
X171498309Y-73187000D01*
X171057750Y-73187000D01*
X170899000Y-73345750D01*
X170645000Y-73345750D01*
X170486250Y-73187000D01*
X170045691Y-73187000D01*
X169812302Y-73283673D01*
X169671064Y-73424910D01*
X169636090Y-73370559D01*
X169423890Y-73225569D01*
X169172000Y-73174560D01*
X167972000Y-73174560D01*
X167736683Y-73218838D01*
X167520559Y-73357910D01*
X167375569Y-73570110D01*
X167356961Y-73662000D01*
X163978742Y-73662000D01*
X163955162Y-73536683D01*
X163816090Y-73320559D01*
X163603890Y-73175569D01*
X163352000Y-73124560D01*
X162652000Y-73124560D01*
X162416683Y-73168838D01*
X162200559Y-73307910D01*
X162055569Y-73520110D01*
X162052919Y-73533197D01*
X161987000Y-73430756D01*
X161987000Y-72690580D01*
X163677787Y-70999792D01*
X163677790Y-70999790D01*
X163869633Y-70712675D01*
X163914225Y-70488499D01*
X163932095Y-70477000D01*
X165162662Y-70477000D01*
X165458298Y-70599759D01*
X166009285Y-70600240D01*
X166307549Y-70477000D01*
X167793614Y-70477000D01*
X167920110Y-70563431D01*
X168172000Y-70614440D01*
X169172000Y-70614440D01*
X169407317Y-70570162D01*
X169623441Y-70431090D01*
X169669969Y-70362994D01*
X169812302Y-70505327D01*
X170045691Y-70602000D01*
X170386250Y-70602000D01*
X170545000Y-70443250D01*
X170545000Y-69469000D01*
X170799000Y-69469000D01*
X170799000Y-70443250D01*
X170957750Y-70602000D01*
X171298309Y-70602000D01*
X171531698Y-70505327D01*
X171710327Y-70326699D01*
X171807000Y-70093310D01*
X171807000Y-69627750D01*
X171648250Y-69469000D01*
X170799000Y-69469000D01*
X170545000Y-69469000D01*
X170525000Y-69469000D01*
X170525000Y-69215000D01*
X170545000Y-69215000D01*
X170545000Y-68240750D01*
X170799000Y-68240750D01*
X170799000Y-69215000D01*
X171648250Y-69215000D01*
X171807000Y-69056250D01*
X171807000Y-68590690D01*
X171710327Y-68357301D01*
X171531698Y-68178673D01*
X171298309Y-68082000D01*
X170957750Y-68082000D01*
X170799000Y-68240750D01*
X170545000Y-68240750D01*
X170386250Y-68082000D01*
X170045691Y-68082000D01*
X169812302Y-68178673D01*
X169671064Y-68319910D01*
X169636090Y-68265559D01*
X169423890Y-68120569D01*
X169172000Y-68069560D01*
X168172000Y-68069560D01*
X167936683Y-68113838D01*
X167791905Y-68207000D01*
X166997000Y-68207000D01*
X166997000Y-66378844D01*
X167011492Y-66369518D01*
X167052301Y-66410327D01*
X167285690Y-66507000D01*
X167876250Y-66507000D01*
X168035000Y-66348250D01*
X168035000Y-64999000D01*
X168289000Y-64999000D01*
X168289000Y-66348250D01*
X168447750Y-66507000D01*
X169038310Y-66507000D01*
X169271699Y-66410327D01*
X169450327Y-66231698D01*
X169547000Y-65998309D01*
X169547000Y-65157750D01*
X169388250Y-64999000D01*
X168289000Y-64999000D01*
X168035000Y-64999000D01*
X168015000Y-64999000D01*
X168015000Y-64745000D01*
X168035000Y-64745000D01*
X168035000Y-63395750D01*
X168289000Y-63395750D01*
X168289000Y-64745000D01*
X169388250Y-64745000D01*
X169547000Y-64586250D01*
X169547000Y-63745691D01*
X169450327Y-63512302D01*
X169271699Y-63333673D01*
X169038310Y-63237000D01*
X168447750Y-63237000D01*
X168289000Y-63395750D01*
X168035000Y-63395750D01*
X167876250Y-63237000D01*
X167285690Y-63237000D01*
X167052301Y-63333673D01*
X167010340Y-63375634D01*
X166863890Y-63275569D01*
X166612000Y-63224560D01*
X165112000Y-63224560D01*
X164876683Y-63268838D01*
X164710523Y-63375759D01*
X164563890Y-63275569D01*
X164312000Y-63224560D01*
X162812000Y-63224560D01*
X162576683Y-63268838D01*
X162360559Y-63407910D01*
X162215569Y-63620110D01*
X162164560Y-63872000D01*
X162164560Y-64664308D01*
X160249434Y-66579434D01*
X160003397Y-66947654D01*
X159917000Y-67382000D01*
X159917000Y-68655569D01*
X159904560Y-68717000D01*
X159904560Y-68884308D01*
X157947434Y-70841434D01*
X157701397Y-71209654D01*
X157615000Y-71644000D01*
X157615000Y-82423000D01*
X151443500Y-82423000D01*
X151443500Y-68999105D01*
X151443501Y-68999100D01*
X151376133Y-68660425D01*
X151329538Y-68590690D01*
X151184290Y-68373310D01*
X151184287Y-68373308D01*
X149495190Y-66684210D01*
X149208075Y-66492367D01*
X149151884Y-66481190D01*
X148869400Y-66424999D01*
X148869395Y-66425000D01*
X148001432Y-66425000D01*
X147891147Y-66259946D01*
X147561974Y-66040000D01*
X147891147Y-65820054D01*
X148213054Y-65338285D01*
X148326093Y-64770000D01*
X148213054Y-64201715D01*
X147891147Y-63719946D01*
X147561974Y-63500000D01*
X147891147Y-63280054D01*
X148213054Y-62798285D01*
X148326093Y-62230000D01*
X148213054Y-61661715D01*
X147891147Y-61179946D01*
X147849548Y-61152150D01*
X147897317Y-61143162D01*
X148113441Y-61004090D01*
X148258431Y-60791890D01*
X148309440Y-60540000D01*
X148309440Y-58840000D01*
X148265162Y-58604683D01*
X148126090Y-58388559D01*
X147913890Y-58243569D01*
X147662000Y-58192560D01*
X145962000Y-58192560D01*
X145726683Y-58236838D01*
X145510559Y-58375910D01*
X145365569Y-58588110D01*
X145354159Y-58644454D01*
X145351147Y-58639946D01*
X144869378Y-58318039D01*
X144301093Y-58205000D01*
X144242907Y-58205000D01*
X143674622Y-58318039D01*
X143192853Y-58639946D01*
X142870946Y-59121715D01*
X142757907Y-59690000D01*
X142870946Y-60258285D01*
X143192853Y-60740054D01*
X143533553Y-60967702D01*
X143390642Y-61034817D01*
X143000355Y-61463076D01*
X142830524Y-61873110D01*
X142951845Y-62103000D01*
X144145000Y-62103000D01*
X144145000Y-62083000D01*
X144399000Y-62083000D01*
X144399000Y-62103000D01*
X144419000Y-62103000D01*
X144419000Y-62357000D01*
X144399000Y-62357000D01*
X144399000Y-62377000D01*
X144145000Y-62377000D01*
X144145000Y-62357000D01*
X142951845Y-62357000D01*
X142830524Y-62586890D01*
X143000355Y-62996924D01*
X143390642Y-63425183D01*
X143533553Y-63492298D01*
X143192853Y-63719946D01*
X142870946Y-64201715D01*
X142757907Y-64770000D01*
X142870946Y-65338285D01*
X143192853Y-65820054D01*
X143522026Y-66040000D01*
X143192853Y-66259946D01*
X142870946Y-66741715D01*
X142757907Y-67310000D01*
X142870946Y-67878285D01*
X143192853Y-68360054D01*
X143522026Y-68580000D01*
X143192853Y-68799946D01*
X142870946Y-69281715D01*
X142757907Y-69850000D01*
X142870946Y-70418285D01*
X143192853Y-70900054D01*
X143522026Y-71120000D01*
X143192853Y-71339946D01*
X142870946Y-71821715D01*
X142757907Y-72390000D01*
X142870946Y-72958285D01*
X143192853Y-73440054D01*
X143522026Y-73660000D01*
X143192853Y-73879946D01*
X142870946Y-74361715D01*
X142757907Y-74930000D01*
X142870946Y-75498285D01*
X143192853Y-75980054D01*
X143522026Y-76200000D01*
X143192853Y-76419946D01*
X142870946Y-76901715D01*
X142757907Y-77470000D01*
X142870946Y-78038285D01*
X143192853Y-78520054D01*
X143674622Y-78841961D01*
X144242907Y-78955000D01*
X144301093Y-78955000D01*
X144869378Y-78841961D01*
X145351147Y-78520054D01*
X145542000Y-78234422D01*
X145732853Y-78520054D01*
X146214622Y-78841961D01*
X146782907Y-78955000D01*
X146841093Y-78955000D01*
X147409378Y-78841961D01*
X147891147Y-78520054D01*
X148035200Y-78304463D01*
X148035200Y-82423000D01*
X139827000Y-82423000D01*
X139827000Y-57572000D01*
X163314560Y-57572000D01*
X163314560Y-59572000D01*
X163358838Y-59807317D01*
X163497910Y-60023441D01*
X163710110Y-60168431D01*
X163962000Y-60219440D01*
X167762000Y-60219440D01*
X167997317Y-60175162D01*
X168213441Y-60036090D01*
X168358431Y-59823890D01*
X168409440Y-59572000D01*
X168409440Y-57572000D01*
X168365162Y-57336683D01*
X168226090Y-57120559D01*
X168013890Y-56975569D01*
X167762000Y-56924560D01*
X163962000Y-56924560D01*
X163726683Y-56968838D01*
X163510559Y-57107910D01*
X163365569Y-57320110D01*
X163314560Y-57572000D01*
X139827000Y-57572000D01*
X139827000Y-55052619D01*
X174294613Y-55052619D01*
X174634155Y-55874372D01*
X175262321Y-56503636D01*
X176083481Y-56844611D01*
X176972619Y-56845387D01*
X177794372Y-56505845D01*
X178423636Y-55877679D01*
X178764611Y-55056519D01*
X178765387Y-54167381D01*
X178425845Y-53345628D01*
X177797679Y-52716364D01*
X176976519Y-52375389D01*
X176087381Y-52374613D01*
X175265628Y-52714155D01*
X174636364Y-53342321D01*
X174295389Y-54163481D01*
X174294613Y-55052619D01*
X139827000Y-55052619D01*
X139827000Y-52197000D01*
X180213000Y-52197000D01*
X180213000Y-82423000D01*
X180213000Y-82423000D01*
G37*
X180213000Y-82423000D02*
X159885000Y-82423000D01*
X159885000Y-72114132D01*
X161384692Y-70614440D01*
X161552000Y-70614440D01*
X161561830Y-70612590D01*
X160476210Y-71698210D01*
X160284367Y-71985325D01*
X160284367Y-71985326D01*
X160216999Y-72324000D01*
X160217000Y-72324005D01*
X160217000Y-73430203D01*
X160155569Y-73520110D01*
X160104560Y-73772000D01*
X160104560Y-75072000D01*
X160148838Y-75307317D01*
X160287910Y-75523441D01*
X160500110Y-75668431D01*
X160752000Y-75719440D01*
X161452000Y-75719440D01*
X161687317Y-75675162D01*
X161903441Y-75536090D01*
X162048431Y-75323890D01*
X162051081Y-75310803D01*
X162187910Y-75523441D01*
X162400110Y-75668431D01*
X162652000Y-75719440D01*
X163352000Y-75719440D01*
X163587317Y-75675162D01*
X163803441Y-75536090D01*
X163948431Y-75323890D01*
X163977164Y-75182000D01*
X167354666Y-75182000D01*
X167368838Y-75257317D01*
X167507910Y-75473441D01*
X167720110Y-75618431D01*
X167972000Y-75669440D01*
X169172000Y-75669440D01*
X169407317Y-75625162D01*
X169623441Y-75486090D01*
X169669969Y-75417994D01*
X169812302Y-75560327D01*
X170045691Y-75657000D01*
X170486250Y-75657000D01*
X170645000Y-75498250D01*
X170645000Y-74549000D01*
X170899000Y-74549000D01*
X170899000Y-75498250D01*
X171057750Y-75657000D01*
X171498309Y-75657000D01*
X171731698Y-75560327D01*
X171910327Y-75381699D01*
X172007000Y-75148310D01*
X172007000Y-74707750D01*
X171848250Y-74549000D01*
X170899000Y-74549000D01*
X170645000Y-74549000D01*
X170625000Y-74549000D01*
X170625000Y-74295000D01*
X170645000Y-74295000D01*
X170645000Y-73345750D01*
X170899000Y-73345750D01*
X170899000Y-74295000D01*
X171848250Y-74295000D01*
X172007000Y-74136250D01*
X172007000Y-73695690D01*
X171910327Y-73462301D01*
X171731698Y-73283673D01*
X171498309Y-73187000D01*
X171057750Y-73187000D01*
X170899000Y-73345750D01*
X170645000Y-73345750D01*
X170486250Y-73187000D01*
X170045691Y-73187000D01*
X169812302Y-73283673D01*
X169671064Y-73424910D01*
X169636090Y-73370559D01*
X169423890Y-73225569D01*
X169172000Y-73174560D01*
X167972000Y-73174560D01*
X167736683Y-73218838D01*
X167520559Y-73357910D01*
X167375569Y-73570110D01*
X167356961Y-73662000D01*
X163978742Y-73662000D01*
X163955162Y-73536683D01*
X163816090Y-73320559D01*
X163603890Y-73175569D01*
X163352000Y-73124560D01*
X162652000Y-73124560D01*
X162416683Y-73168838D01*
X162200559Y-73307910D01*
X162055569Y-73520110D01*
X162052919Y-73533197D01*
X161987000Y-73430756D01*
X161987000Y-72690580D01*
X163677787Y-70999792D01*
X163677790Y-70999790D01*
X163869633Y-70712675D01*
X163914225Y-70488499D01*
X163932095Y-70477000D01*
X165162662Y-70477000D01*
X165458298Y-70599759D01*
X166009285Y-70600240D01*
X166307549Y-70477000D01*
X167793614Y-70477000D01*
X167920110Y-70563431D01*
X168172000Y-70614440D01*
X169172000Y-70614440D01*
X169407317Y-70570162D01*
X169623441Y-70431090D01*
X169669969Y-70362994D01*
X169812302Y-70505327D01*
X170045691Y-70602000D01*
X170386250Y-70602000D01*
X170545000Y-70443250D01*
X170545000Y-69469000D01*
X170799000Y-69469000D01*
X170799000Y-70443250D01*
X170957750Y-70602000D01*
X171298309Y-70602000D01*
X171531698Y-70505327D01*
X171710327Y-70326699D01*
X171807000Y-70093310D01*
X171807000Y-69627750D01*
X171648250Y-69469000D01*
X170799000Y-69469000D01*
X170545000Y-69469000D01*
X170525000Y-69469000D01*
X170525000Y-69215000D01*
X170545000Y-69215000D01*
X170545000Y-68240750D01*
X170799000Y-68240750D01*
X170799000Y-69215000D01*
X171648250Y-69215000D01*
X171807000Y-69056250D01*
X171807000Y-68590690D01*
X171710327Y-68357301D01*
X171531698Y-68178673D01*
X171298309Y-68082000D01*
X170957750Y-68082000D01*
X170799000Y-68240750D01*
X170545000Y-68240750D01*
X170386250Y-68082000D01*
X170045691Y-68082000D01*
X169812302Y-68178673D01*
X169671064Y-68319910D01*
X169636090Y-68265559D01*
X169423890Y-68120569D01*
X169172000Y-68069560D01*
X168172000Y-68069560D01*
X167936683Y-68113838D01*
X167791905Y-68207000D01*
X166997000Y-68207000D01*
X166997000Y-66378844D01*
X167011492Y-66369518D01*
X167052301Y-66410327D01*
X167285690Y-66507000D01*
X167876250Y-66507000D01*
X168035000Y-66348250D01*
X168035000Y-64999000D01*
X168289000Y-64999000D01*
X168289000Y-66348250D01*
X168447750Y-66507000D01*
X169038310Y-66507000D01*
X169271699Y-66410327D01*
X169450327Y-66231698D01*
X169547000Y-65998309D01*
X169547000Y-65157750D01*
X169388250Y-64999000D01*
X168289000Y-64999000D01*
X168035000Y-64999000D01*
X168015000Y-64999000D01*
X168015000Y-64745000D01*
X168035000Y-64745000D01*
X168035000Y-63395750D01*
X168289000Y-63395750D01*
X168289000Y-64745000D01*
X169388250Y-64745000D01*
X169547000Y-64586250D01*
X169547000Y-63745691D01*
X169450327Y-63512302D01*
X169271699Y-63333673D01*
X169038310Y-63237000D01*
X168447750Y-63237000D01*
X168289000Y-63395750D01*
X168035000Y-63395750D01*
X167876250Y-63237000D01*
X167285690Y-63237000D01*
X167052301Y-63333673D01*
X167010340Y-63375634D01*
X166863890Y-63275569D01*
X166612000Y-63224560D01*
X165112000Y-63224560D01*
X164876683Y-63268838D01*
X164710523Y-63375759D01*
X164563890Y-63275569D01*
X164312000Y-63224560D01*
X162812000Y-63224560D01*
X162576683Y-63268838D01*
X162360559Y-63407910D01*
X162215569Y-63620110D01*
X162164560Y-63872000D01*
X162164560Y-64664308D01*
X160249434Y-66579434D01*
X160003397Y-66947654D01*
X159917000Y-67382000D01*
X159917000Y-68655569D01*
X159904560Y-68717000D01*
X159904560Y-68884308D01*
X157947434Y-70841434D01*
X157701397Y-71209654D01*
X157615000Y-71644000D01*
X157615000Y-82423000D01*
X151443500Y-82423000D01*
X151443500Y-68999105D01*
X151443501Y-68999100D01*
X151376133Y-68660425D01*
X151329538Y-68590690D01*
X151184290Y-68373310D01*
X151184287Y-68373308D01*
X149495190Y-66684210D01*
X149208075Y-66492367D01*
X149151884Y-66481190D01*
X148869400Y-66424999D01*
X148869395Y-66425000D01*
X148001432Y-66425000D01*
X147891147Y-66259946D01*
X147561974Y-66040000D01*
X147891147Y-65820054D01*
X148213054Y-65338285D01*
X148326093Y-64770000D01*
X148213054Y-64201715D01*
X147891147Y-63719946D01*
X147561974Y-63500000D01*
X147891147Y-63280054D01*
X148213054Y-62798285D01*
X148326093Y-62230000D01*
X148213054Y-61661715D01*
X147891147Y-61179946D01*
X147849548Y-61152150D01*
X147897317Y-61143162D01*
X148113441Y-61004090D01*
X148258431Y-60791890D01*
X148309440Y-60540000D01*
X148309440Y-58840000D01*
X148265162Y-58604683D01*
X148126090Y-58388559D01*
X147913890Y-58243569D01*
X147662000Y-58192560D01*
X145962000Y-58192560D01*
X145726683Y-58236838D01*
X145510559Y-58375910D01*
X145365569Y-58588110D01*
X145354159Y-58644454D01*
X145351147Y-58639946D01*
X144869378Y-58318039D01*
X144301093Y-58205000D01*
X144242907Y-58205000D01*
X143674622Y-58318039D01*
X143192853Y-58639946D01*
X142870946Y-59121715D01*
X142757907Y-59690000D01*
X142870946Y-60258285D01*
X143192853Y-60740054D01*
X143533553Y-60967702D01*
X143390642Y-61034817D01*
X143000355Y-61463076D01*
X142830524Y-61873110D01*
X142951845Y-62103000D01*
X144145000Y-62103000D01*
X144145000Y-62083000D01*
X144399000Y-62083000D01*
X144399000Y-62103000D01*
X144419000Y-62103000D01*
X144419000Y-62357000D01*
X144399000Y-62357000D01*
X144399000Y-62377000D01*
X144145000Y-62377000D01*
X144145000Y-62357000D01*
X142951845Y-62357000D01*
X142830524Y-62586890D01*
X143000355Y-62996924D01*
X143390642Y-63425183D01*
X143533553Y-63492298D01*
X143192853Y-63719946D01*
X142870946Y-64201715D01*
X142757907Y-64770000D01*
X142870946Y-65338285D01*
X143192853Y-65820054D01*
X143522026Y-66040000D01*
X143192853Y-66259946D01*
X142870946Y-66741715D01*
X142757907Y-67310000D01*
X142870946Y-67878285D01*
X143192853Y-68360054D01*
X143522026Y-68580000D01*
X143192853Y-68799946D01*
X142870946Y-69281715D01*
X142757907Y-69850000D01*
X142870946Y-70418285D01*
X143192853Y-70900054D01*
X143522026Y-71120000D01*
X143192853Y-71339946D01*
X142870946Y-71821715D01*
X142757907Y-72390000D01*
X142870946Y-72958285D01*
X143192853Y-73440054D01*
X143522026Y-73660000D01*
X143192853Y-73879946D01*
X142870946Y-74361715D01*
X142757907Y-74930000D01*
X142870946Y-75498285D01*
X143192853Y-75980054D01*
X143522026Y-76200000D01*
X143192853Y-76419946D01*
X142870946Y-76901715D01*
X142757907Y-77470000D01*
X142870946Y-78038285D01*
X143192853Y-78520054D01*
X143674622Y-78841961D01*
X144242907Y-78955000D01*
X144301093Y-78955000D01*
X144869378Y-78841961D01*
X145351147Y-78520054D01*
X145542000Y-78234422D01*
X145732853Y-78520054D01*
X146214622Y-78841961D01*
X146782907Y-78955000D01*
X146841093Y-78955000D01*
X147409378Y-78841961D01*
X147891147Y-78520054D01*
X148035200Y-78304463D01*
X148035200Y-82423000D01*
X139827000Y-82423000D01*
X139827000Y-57572000D01*
X163314560Y-57572000D01*
X163314560Y-59572000D01*
X163358838Y-59807317D01*
X163497910Y-60023441D01*
X163710110Y-60168431D01*
X163962000Y-60219440D01*
X167762000Y-60219440D01*
X167997317Y-60175162D01*
X168213441Y-60036090D01*
X168358431Y-59823890D01*
X168409440Y-59572000D01*
X168409440Y-57572000D01*
X168365162Y-57336683D01*
X168226090Y-57120559D01*
X168013890Y-56975569D01*
X167762000Y-56924560D01*
X163962000Y-56924560D01*
X163726683Y-56968838D01*
X163510559Y-57107910D01*
X163365569Y-57320110D01*
X163314560Y-57572000D01*
X139827000Y-57572000D01*
X139827000Y-55052619D01*
X174294613Y-55052619D01*
X174634155Y-55874372D01*
X175262321Y-56503636D01*
X176083481Y-56844611D01*
X176972619Y-56845387D01*
X177794372Y-56505845D01*
X178423636Y-55877679D01*
X178764611Y-55056519D01*
X178765387Y-54167381D01*
X178425845Y-53345628D01*
X177797679Y-52716364D01*
X176976519Y-52375389D01*
X176087381Y-52374613D01*
X175265628Y-52714155D01*
X174636364Y-53342321D01*
X174295389Y-54163481D01*
X174294613Y-55052619D01*
X139827000Y-55052619D01*
X139827000Y-52197000D01*
X180213000Y-52197000D01*
X180213000Y-82423000D01*
G36*
X155407434Y-103337434D02*
X155161397Y-103705654D01*
X155075000Y-104140000D01*
X155075000Y-107315000D01*
X155161397Y-107749346D01*
X155407434Y-108117566D01*
X156051834Y-108761966D01*
X156420054Y-109008003D01*
X156854400Y-109094400D01*
X158228669Y-109094400D01*
X158290100Y-109106840D01*
X159540100Y-109106840D01*
X159606213Y-109094400D01*
X162486960Y-109094400D01*
X162486960Y-109168600D01*
X162531238Y-109403917D01*
X162638159Y-109570077D01*
X162537969Y-109716710D01*
X162486960Y-109968600D01*
X162486960Y-111468600D01*
X162531238Y-111703917D01*
X162636882Y-111868092D01*
X162596073Y-111908901D01*
X162499400Y-112142290D01*
X162499400Y-112732850D01*
X162658150Y-112891600D01*
X164007400Y-112891600D01*
X164007400Y-112871600D01*
X164261400Y-112871600D01*
X164261400Y-112891600D01*
X165610650Y-112891600D01*
X165769400Y-112732850D01*
X165769400Y-112142290D01*
X165672727Y-111908901D01*
X165630766Y-111866940D01*
X165639881Y-111853600D01*
X168224598Y-111853600D01*
X166251699Y-113826499D01*
X166086952Y-114073061D01*
X166029100Y-114363900D01*
X166029100Y-116792858D01*
X165903783Y-116816438D01*
X165687659Y-116955510D01*
X165542669Y-117167710D01*
X165491660Y-117419600D01*
X165491660Y-118119600D01*
X165535938Y-118354917D01*
X165675010Y-118571041D01*
X165887210Y-118716031D01*
X165900297Y-118718681D01*
X165687659Y-118855510D01*
X165650701Y-118909600D01*
X164372296Y-118909600D01*
X164360062Y-118844583D01*
X164220990Y-118628459D01*
X164152894Y-118581931D01*
X164295227Y-118439598D01*
X164391900Y-118206209D01*
X164391900Y-117765650D01*
X164233150Y-117606900D01*
X163283900Y-117606900D01*
X163283900Y-117626900D01*
X163029900Y-117626900D01*
X163029900Y-117606900D01*
X162080650Y-117606900D01*
X161921900Y-117765650D01*
X161921900Y-118206209D01*
X162018573Y-118439598D01*
X162159810Y-118580836D01*
X162105459Y-118615810D01*
X161960469Y-118828010D01*
X161909460Y-119079900D01*
X161909460Y-120279900D01*
X161953738Y-120515217D01*
X162092810Y-120731341D01*
X162305010Y-120876331D01*
X162556900Y-120927340D01*
X163756900Y-120927340D01*
X163992217Y-120883062D01*
X164208341Y-120743990D01*
X164353331Y-120531790D01*
X164374025Y-120429600D01*
X165648343Y-120429600D01*
X165675010Y-120471041D01*
X165887210Y-120616031D01*
X166139100Y-120667040D01*
X167439100Y-120667040D01*
X167674417Y-120622762D01*
X167890541Y-120483690D01*
X168035531Y-120271490D01*
X168086540Y-120019600D01*
X168086540Y-119319600D01*
X168042262Y-119084283D01*
X167903190Y-118868159D01*
X167690990Y-118723169D01*
X167677903Y-118720519D01*
X167890541Y-118583690D01*
X168035531Y-118371490D01*
X168086540Y-118119600D01*
X168086540Y-117419600D01*
X168042262Y-117184283D01*
X167903190Y-116968159D01*
X167690990Y-116823169D01*
X167549100Y-116794436D01*
X167549100Y-114678702D01*
X169081671Y-113146131D01*
X169182510Y-113215031D01*
X169434400Y-113266040D01*
X171434400Y-113266040D01*
X171669717Y-113221762D01*
X171885841Y-113082690D01*
X172030831Y-112870490D01*
X172081840Y-112618600D01*
X172081840Y-108818600D01*
X172037562Y-108583283D01*
X171898490Y-108367159D01*
X171686290Y-108222169D01*
X171569400Y-108198498D01*
X171569400Y-106934400D01*
X171564705Y-106910797D01*
X171483004Y-106500055D01*
X171236967Y-106131834D01*
X170930193Y-105825060D01*
X170930240Y-105770715D01*
X170719831Y-105261485D01*
X170330564Y-104871539D01*
X169821702Y-104660241D01*
X169270715Y-104659760D01*
X168761485Y-104870169D01*
X168556898Y-105074400D01*
X160046944Y-105074400D01*
X160004190Y-105007959D01*
X159791990Y-104862969D01*
X159540100Y-104811960D01*
X158290100Y-104811960D01*
X158054783Y-104856238D01*
X157838659Y-104995310D01*
X157693669Y-105207510D01*
X157642660Y-105459400D01*
X157642660Y-106459400D01*
X157686938Y-106694717D01*
X157770387Y-106824400D01*
X157345000Y-106824400D01*
X157345000Y-104610132D01*
X159552566Y-102402567D01*
X159798603Y-102034346D01*
X159834476Y-101854000D01*
X176530000Y-101854000D01*
X176530000Y-123190000D01*
X153924000Y-123190000D01*
X153924000Y-117699775D01*
X156979803Y-117699775D01*
X157152233Y-118117086D01*
X157471235Y-118436645D01*
X157888244Y-118609803D01*
X158339775Y-118610197D01*
X158757086Y-118437767D01*
X159076645Y-118118765D01*
X159249803Y-117701756D01*
X159249899Y-117591680D01*
X159490087Y-117351492D01*
X159490090Y-117351490D01*
X159681933Y-117064375D01*
X159703588Y-116955510D01*
X159743753Y-116753591D01*
X161921900Y-116753591D01*
X161921900Y-117194150D01*
X162080650Y-117352900D01*
X163029900Y-117352900D01*
X163029900Y-116403650D01*
X163283900Y-116403650D01*
X163283900Y-117352900D01*
X164233150Y-117352900D01*
X164391900Y-117194150D01*
X164391900Y-116753591D01*
X164295227Y-116520202D01*
X164116599Y-116341573D01*
X163883210Y-116244900D01*
X163442650Y-116244900D01*
X163283900Y-116403650D01*
X163029900Y-116403650D01*
X162871150Y-116244900D01*
X162430590Y-116244900D01*
X162197201Y-116341573D01*
X162018573Y-116520202D01*
X161921900Y-116753591D01*
X159743753Y-116753591D01*
X159749301Y-116725700D01*
X159749300Y-116725695D01*
X159749300Y-116641279D01*
X159940741Y-116518090D01*
X160085731Y-116305890D01*
X160136740Y-116054000D01*
X160136740Y-115054000D01*
X160092462Y-114818683D01*
X159953390Y-114602559D01*
X159885294Y-114556031D01*
X160027627Y-114413698D01*
X160124300Y-114180309D01*
X160124300Y-113839750D01*
X159965550Y-113681000D01*
X158991300Y-113681000D01*
X158991300Y-113701000D01*
X158737300Y-113701000D01*
X158737300Y-113681000D01*
X157763050Y-113681000D01*
X157604300Y-113839750D01*
X157604300Y-114180309D01*
X157700973Y-114413698D01*
X157842210Y-114554936D01*
X157787859Y-114589910D01*
X157642869Y-114802110D01*
X157591860Y-115054000D01*
X157591860Y-116054000D01*
X157636138Y-116289317D01*
X157715169Y-116412135D01*
X157472914Y-116512233D01*
X157153355Y-116831235D01*
X156980197Y-117248244D01*
X156979803Y-117699775D01*
X153924000Y-117699775D01*
X153924000Y-112927691D01*
X157604300Y-112927691D01*
X157604300Y-113268250D01*
X157763050Y-113427000D01*
X158737300Y-113427000D01*
X158737300Y-112577750D01*
X158991300Y-112577750D01*
X158991300Y-113427000D01*
X159965550Y-113427000D01*
X160088200Y-113304350D01*
X162499400Y-113304350D01*
X162499400Y-113894910D01*
X162596073Y-114128299D01*
X162774702Y-114306927D01*
X163008091Y-114403600D01*
X163848650Y-114403600D01*
X164007400Y-114244850D01*
X164007400Y-113145600D01*
X164261400Y-113145600D01*
X164261400Y-114244850D01*
X164420150Y-114403600D01*
X165260709Y-114403600D01*
X165494098Y-114306927D01*
X165672727Y-114128299D01*
X165769400Y-113894910D01*
X165769400Y-113304350D01*
X165610650Y-113145600D01*
X164261400Y-113145600D01*
X164007400Y-113145600D01*
X162658150Y-113145600D01*
X162499400Y-113304350D01*
X160088200Y-113304350D01*
X160124300Y-113268250D01*
X160124300Y-112927691D01*
X160027627Y-112694302D01*
X159848999Y-112515673D01*
X159615610Y-112419000D01*
X159150050Y-112419000D01*
X158991300Y-112577750D01*
X158737300Y-112577750D01*
X158578550Y-112419000D01*
X158112990Y-112419000D01*
X157879601Y-112515673D01*
X157700973Y-112694302D01*
X157604300Y-112927691D01*
X153924000Y-112927691D01*
X153924000Y-101854000D01*
X156890867Y-101854000D01*
X155407434Y-103337434D01*
X155407434Y-103337434D01*
G37*
X155407434Y-103337434D02*
X155161397Y-103705654D01*
X155075000Y-104140000D01*
X155075000Y-107315000D01*
X155161397Y-107749346D01*
X155407434Y-108117566D01*
X156051834Y-108761966D01*
X156420054Y-109008003D01*
X156854400Y-109094400D01*
X158228669Y-109094400D01*
X158290100Y-109106840D01*
X159540100Y-109106840D01*
X159606213Y-109094400D01*
X162486960Y-109094400D01*
X162486960Y-109168600D01*
X162531238Y-109403917D01*
X162638159Y-109570077D01*
X162537969Y-109716710D01*
X162486960Y-109968600D01*
X162486960Y-111468600D01*
X162531238Y-111703917D01*
X162636882Y-111868092D01*
X162596073Y-111908901D01*
X162499400Y-112142290D01*
X162499400Y-112732850D01*
X162658150Y-112891600D01*
X164007400Y-112891600D01*
X164007400Y-112871600D01*
X164261400Y-112871600D01*
X164261400Y-112891600D01*
X165610650Y-112891600D01*
X165769400Y-112732850D01*
X165769400Y-112142290D01*
X165672727Y-111908901D01*
X165630766Y-111866940D01*
X165639881Y-111853600D01*
X168224598Y-111853600D01*
X166251699Y-113826499D01*
X166086952Y-114073061D01*
X166029100Y-114363900D01*
X166029100Y-116792858D01*
X165903783Y-116816438D01*
X165687659Y-116955510D01*
X165542669Y-117167710D01*
X165491660Y-117419600D01*
X165491660Y-118119600D01*
X165535938Y-118354917D01*
X165675010Y-118571041D01*
X165887210Y-118716031D01*
X165900297Y-118718681D01*
X165687659Y-118855510D01*
X165650701Y-118909600D01*
X164372296Y-118909600D01*
X164360062Y-118844583D01*
X164220990Y-118628459D01*
X164152894Y-118581931D01*
X164295227Y-118439598D01*
X164391900Y-118206209D01*
X164391900Y-117765650D01*
X164233150Y-117606900D01*
X163283900Y-117606900D01*
X163283900Y-117626900D01*
X163029900Y-117626900D01*
X163029900Y-117606900D01*
X162080650Y-117606900D01*
X161921900Y-117765650D01*
X161921900Y-118206209D01*
X162018573Y-118439598D01*
X162159810Y-118580836D01*
X162105459Y-118615810D01*
X161960469Y-118828010D01*
X161909460Y-119079900D01*
X161909460Y-120279900D01*
X161953738Y-120515217D01*
X162092810Y-120731341D01*
X162305010Y-120876331D01*
X162556900Y-120927340D01*
X163756900Y-120927340D01*
X163992217Y-120883062D01*
X164208341Y-120743990D01*
X164353331Y-120531790D01*
X164374025Y-120429600D01*
X165648343Y-120429600D01*
X165675010Y-120471041D01*
X165887210Y-120616031D01*
X166139100Y-120667040D01*
X167439100Y-120667040D01*
X167674417Y-120622762D01*
X167890541Y-120483690D01*
X168035531Y-120271490D01*
X168086540Y-120019600D01*
X168086540Y-119319600D01*
X168042262Y-119084283D01*
X167903190Y-118868159D01*
X167690990Y-118723169D01*
X167677903Y-118720519D01*
X167890541Y-118583690D01*
X168035531Y-118371490D01*
X168086540Y-118119600D01*
X168086540Y-117419600D01*
X168042262Y-117184283D01*
X167903190Y-116968159D01*
X167690990Y-116823169D01*
X167549100Y-116794436D01*
X167549100Y-114678702D01*
X169081671Y-113146131D01*
X169182510Y-113215031D01*
X169434400Y-113266040D01*
X171434400Y-113266040D01*
X171669717Y-113221762D01*
X171885841Y-113082690D01*
X172030831Y-112870490D01*
X172081840Y-112618600D01*
X172081840Y-108818600D01*
X172037562Y-108583283D01*
X171898490Y-108367159D01*
X171686290Y-108222169D01*
X171569400Y-108198498D01*
X171569400Y-106934400D01*
X171564705Y-106910797D01*
X171483004Y-106500055D01*
X171236967Y-106131834D01*
X170930193Y-105825060D01*
X170930240Y-105770715D01*
X170719831Y-105261485D01*
X170330564Y-104871539D01*
X169821702Y-104660241D01*
X169270715Y-104659760D01*
X168761485Y-104870169D01*
X168556898Y-105074400D01*
X160046944Y-105074400D01*
X160004190Y-105007959D01*
X159791990Y-104862969D01*
X159540100Y-104811960D01*
X158290100Y-104811960D01*
X158054783Y-104856238D01*
X157838659Y-104995310D01*
X157693669Y-105207510D01*
X157642660Y-105459400D01*
X157642660Y-106459400D01*
X157686938Y-106694717D01*
X157770387Y-106824400D01*
X157345000Y-106824400D01*
X157345000Y-104610132D01*
X159552566Y-102402567D01*
X159798603Y-102034346D01*
X159834476Y-101854000D01*
X176530000Y-101854000D01*
X176530000Y-123190000D01*
X153924000Y-123190000D01*
X153924000Y-117699775D01*
X156979803Y-117699775D01*
X157152233Y-118117086D01*
X157471235Y-118436645D01*
X157888244Y-118609803D01*
X158339775Y-118610197D01*
X158757086Y-118437767D01*
X159076645Y-118118765D01*
X159249803Y-117701756D01*
X159249899Y-117591680D01*
X159490087Y-117351492D01*
X159490090Y-117351490D01*
X159681933Y-117064375D01*
X159703588Y-116955510D01*
X159743753Y-116753591D01*
X161921900Y-116753591D01*
X161921900Y-117194150D01*
X162080650Y-117352900D01*
X163029900Y-117352900D01*
X163029900Y-116403650D01*
X163283900Y-116403650D01*
X163283900Y-117352900D01*
X164233150Y-117352900D01*
X164391900Y-117194150D01*
X164391900Y-116753591D01*
X164295227Y-116520202D01*
X164116599Y-116341573D01*
X163883210Y-116244900D01*
X163442650Y-116244900D01*
X163283900Y-116403650D01*
X163029900Y-116403650D01*
X162871150Y-116244900D01*
X162430590Y-116244900D01*
X162197201Y-116341573D01*
X162018573Y-116520202D01*
X161921900Y-116753591D01*
X159743753Y-116753591D01*
X159749301Y-116725700D01*
X159749300Y-116725695D01*
X159749300Y-116641279D01*
X159940741Y-116518090D01*
X160085731Y-116305890D01*
X160136740Y-116054000D01*
X160136740Y-115054000D01*
X160092462Y-114818683D01*
X159953390Y-114602559D01*
X159885294Y-114556031D01*
X160027627Y-114413698D01*
X160124300Y-114180309D01*
X160124300Y-113839750D01*
X159965550Y-113681000D01*
X158991300Y-113681000D01*
X158991300Y-113701000D01*
X158737300Y-113701000D01*
X158737300Y-113681000D01*
X157763050Y-113681000D01*
X157604300Y-113839750D01*
X157604300Y-114180309D01*
X157700973Y-114413698D01*
X157842210Y-114554936D01*
X157787859Y-114589910D01*
X157642869Y-114802110D01*
X157591860Y-115054000D01*
X157591860Y-116054000D01*
X157636138Y-116289317D01*
X157715169Y-116412135D01*
X157472914Y-116512233D01*
X157153355Y-116831235D01*
X156980197Y-117248244D01*
X156979803Y-117699775D01*
X153924000Y-117699775D01*
X153924000Y-112927691D01*
X157604300Y-112927691D01*
X157604300Y-113268250D01*
X157763050Y-113427000D01*
X158737300Y-113427000D01*
X158737300Y-112577750D01*
X158991300Y-112577750D01*
X158991300Y-113427000D01*
X159965550Y-113427000D01*
X160088200Y-113304350D01*
X162499400Y-113304350D01*
X162499400Y-113894910D01*
X162596073Y-114128299D01*
X162774702Y-114306927D01*
X163008091Y-114403600D01*
X163848650Y-114403600D01*
X164007400Y-114244850D01*
X164007400Y-113145600D01*
X164261400Y-113145600D01*
X164261400Y-114244850D01*
X164420150Y-114403600D01*
X165260709Y-114403600D01*
X165494098Y-114306927D01*
X165672727Y-114128299D01*
X165769400Y-113894910D01*
X165769400Y-113304350D01*
X165610650Y-113145600D01*
X164261400Y-113145600D01*
X164007400Y-113145600D01*
X162658150Y-113145600D01*
X162499400Y-113304350D01*
X160088200Y-113304350D01*
X160124300Y-113268250D01*
X160124300Y-112927691D01*
X160027627Y-112694302D01*
X159848999Y-112515673D01*
X159615610Y-112419000D01*
X159150050Y-112419000D01*
X158991300Y-112577750D01*
X158737300Y-112577750D01*
X158578550Y-112419000D01*
X158112990Y-112419000D01*
X157879601Y-112515673D01*
X157700973Y-112694302D01*
X157604300Y-112927691D01*
X153924000Y-112927691D01*
X153924000Y-101854000D01*
X156890867Y-101854000D01*
X155407434Y-103337434D01*
G36*
X135763000Y-88773000D02*
X67437000Y-88773000D01*
X67437000Y-82142346D01*
X129837974Y-82142346D01*
X129844984Y-82567425D01*
X129844613Y-82992619D01*
X129852303Y-83011230D01*
X129852635Y-83031363D01*
X130164640Y-83784610D01*
X130173845Y-83789420D01*
X130184155Y-83814372D01*
X130812321Y-84443636D01*
X130840057Y-84455153D01*
X130845390Y-84465360D01*
X131240797Y-84621554D01*
X131633481Y-84784611D01*
X131653619Y-84784629D01*
X131672346Y-84792026D01*
X132097425Y-84785016D01*
X132522619Y-84785387D01*
X132541230Y-84777697D01*
X132561363Y-84777365D01*
X133314610Y-84465360D01*
X133319420Y-84456155D01*
X133344372Y-84445845D01*
X133973636Y-83817679D01*
X133985153Y-83789943D01*
X133995360Y-83784610D01*
X134151554Y-83389203D01*
X134314611Y-82996519D01*
X134314629Y-82976381D01*
X134322026Y-82957654D01*
X134315016Y-82532575D01*
X134315387Y-82107381D01*
X134307697Y-82088770D01*
X134307365Y-82068637D01*
X133995360Y-81315390D01*
X133986155Y-81310580D01*
X133975845Y-81285628D01*
X133347679Y-80656364D01*
X133319943Y-80644847D01*
X133314610Y-80634640D01*
X132919203Y-80478446D01*
X132526519Y-80315389D01*
X132506381Y-80315371D01*
X132487654Y-80307974D01*
X132062575Y-80314984D01*
X131637381Y-80314613D01*
X131618770Y-80322303D01*
X131598637Y-80322635D01*
X130845390Y-80634640D01*
X130840580Y-80643845D01*
X130815628Y-80654155D01*
X130186364Y-81282321D01*
X130174847Y-81310057D01*
X130164640Y-81315390D01*
X130008446Y-81710797D01*
X129845389Y-82103481D01*
X129845371Y-82123619D01*
X129837974Y-82142346D01*
X67437000Y-82142346D01*
X67437000Y-80518000D01*
X104711500Y-80518000D01*
X104727111Y-80596483D01*
X104726860Y-80676506D01*
X104758225Y-80752906D01*
X104774337Y-80833905D01*
X104818795Y-80900441D01*
X104849186Y-80974468D01*
X104907401Y-81033049D01*
X104953283Y-81101717D01*
X105019819Y-81146175D01*
X105076225Y-81202936D01*
X105152426Y-81234780D01*
X105221095Y-81280663D01*
X105299579Y-81296274D01*
X105373413Y-81327129D01*
X105456000Y-81327388D01*
X105537000Y-81343500D01*
X114935000Y-81343500D01*
X115016000Y-81327388D01*
X115098587Y-81327129D01*
X115172419Y-81296275D01*
X115250905Y-81280663D01*
X115319577Y-81234778D01*
X115395775Y-81202935D01*
X115452178Y-81146177D01*
X115518717Y-81101717D01*
X115564602Y-81033046D01*
X115622814Y-80974467D01*
X115653204Y-80900442D01*
X115697663Y-80833905D01*
X115713775Y-80752904D01*
X115745140Y-80676505D01*
X115744889Y-80596483D01*
X115760500Y-80518000D01*
X115744388Y-80437000D01*
X115744129Y-80354412D01*
X115713274Y-80280579D01*
X115697663Y-80202095D01*
X115651778Y-80133424D01*
X115619935Y-80057225D01*
X110920936Y-73072225D01*
X110808424Y-72960417D01*
X110696775Y-72848065D01*
X110694342Y-72847048D01*
X110692468Y-72845186D01*
X110545745Y-72784950D01*
X110399587Y-72723871D01*
X110396948Y-72723863D01*
X110394506Y-72722860D01*
X110236000Y-72723358D01*
X110077494Y-72722860D01*
X110075052Y-72723863D01*
X110072413Y-72723871D01*
X109926188Y-72784978D01*
X109779532Y-72845186D01*
X109777660Y-72847047D01*
X109775225Y-72848064D01*
X109663496Y-72960496D01*
X109551064Y-73072225D01*
X104852064Y-80057225D01*
X104820220Y-80133426D01*
X104774337Y-80202095D01*
X104758726Y-80280579D01*
X104727871Y-80354413D01*
X104727612Y-80437000D01*
X104711500Y-80518000D01*
X67437000Y-80518000D01*
X67437000Y-68172346D01*
X88562974Y-68172346D01*
X88569984Y-68597425D01*
X88569613Y-69022619D01*
X88577303Y-69041230D01*
X88577635Y-69061363D01*
X88889640Y-69814610D01*
X88898845Y-69819420D01*
X88909155Y-69844372D01*
X89537321Y-70473636D01*
X89565057Y-70485153D01*
X89570390Y-70495360D01*
X89965797Y-70651554D01*
X90358481Y-70814611D01*
X90378619Y-70814629D01*
X90397346Y-70822026D01*
X90822425Y-70815016D01*
X91247619Y-70815387D01*
X91266230Y-70807697D01*
X91286363Y-70807365D01*
X92039610Y-70495360D01*
X92044420Y-70486155D01*
X92069372Y-70475845D01*
X92698636Y-69847679D01*
X92710153Y-69819943D01*
X92720360Y-69814610D01*
X92876554Y-69419203D01*
X93039611Y-69026519D01*
X93039629Y-69006381D01*
X93047026Y-68987654D01*
X93040016Y-68562575D01*
X93040387Y-68137381D01*
X93032697Y-68118770D01*
X93032365Y-68098637D01*
X92720360Y-67345390D01*
X92711155Y-67340580D01*
X92700845Y-67315628D01*
X92072679Y-66686364D01*
X92044943Y-66674847D01*
X92039610Y-66664640D01*
X91644203Y-66508446D01*
X91251519Y-66345389D01*
X91231381Y-66345371D01*
X91212654Y-66337974D01*
X90787575Y-66344984D01*
X90362381Y-66344613D01*
X90343770Y-66352303D01*
X90323637Y-66352635D01*
X89570390Y-66664640D01*
X89565580Y-66673845D01*
X89540628Y-66684155D01*
X88911364Y-67312321D01*
X88899847Y-67340057D01*
X88889640Y-67345390D01*
X88733446Y-67740797D01*
X88570389Y-68133481D01*
X88570371Y-68153619D01*
X88562974Y-68172346D01*
X67437000Y-68172346D01*
X67437000Y-56373448D01*
X67933636Y-55877679D01*
X67945153Y-55849943D01*
X67955360Y-55844610D01*
X68111554Y-55449203D01*
X68274611Y-55056519D01*
X68274629Y-55036381D01*
X68282026Y-55017654D01*
X68275016Y-54592575D01*
X68275356Y-54202346D01*
X129837974Y-54202346D01*
X129844984Y-54627425D01*
X129844613Y-55052619D01*
X129852303Y-55071230D01*
X129852635Y-55091363D01*
X130164640Y-55844610D01*
X130173845Y-55849420D01*
X130184155Y-55874372D01*
X130812321Y-56503636D01*
X130840057Y-56515153D01*
X130845390Y-56525360D01*
X131240797Y-56681554D01*
X131633481Y-56844611D01*
X131653619Y-56844629D01*
X131672346Y-56852026D01*
X132097425Y-56845016D01*
X132522619Y-56845387D01*
X132541230Y-56837697D01*
X132561363Y-56837365D01*
X133314610Y-56525360D01*
X133319420Y-56516155D01*
X133344372Y-56505845D01*
X133973636Y-55877679D01*
X133985153Y-55849943D01*
X133995360Y-55844610D01*
X134151554Y-55449203D01*
X134314611Y-55056519D01*
X134314629Y-55036381D01*
X134322026Y-55017654D01*
X134315016Y-54592575D01*
X134315387Y-54167381D01*
X134307697Y-54148770D01*
X134307365Y-54128637D01*
X133995360Y-53375390D01*
X133986155Y-53370580D01*
X133975845Y-53345628D01*
X133347679Y-52716364D01*
X133319943Y-52704847D01*
X133314610Y-52694640D01*
X132919203Y-52538446D01*
X132526519Y-52375389D01*
X132506381Y-52375371D01*
X132487654Y-52367974D01*
X132062575Y-52374984D01*
X131637381Y-52374613D01*
X131618770Y-52382303D01*
X131598637Y-52382635D01*
X130845390Y-52694640D01*
X130840580Y-52703845D01*
X130815628Y-52714155D01*
X130186364Y-53342321D01*
X130174847Y-53370057D01*
X130164640Y-53375390D01*
X130008446Y-53770797D01*
X129845389Y-54163481D01*
X129845371Y-54183619D01*
X129837974Y-54202346D01*
X68275356Y-54202346D01*
X68275387Y-54167381D01*
X68267697Y-54148770D01*
X68267365Y-54128637D01*
X67955360Y-53375390D01*
X67946155Y-53370580D01*
X67935845Y-53345628D01*
X67437000Y-52845911D01*
X67437000Y-52197000D01*
X135763000Y-52197000D01*
X135763000Y-88773000D01*
X135763000Y-88773000D01*
G37*
X135763000Y-88773000D02*
X67437000Y-88773000D01*
X67437000Y-82142346D01*
X129837974Y-82142346D01*
X129844984Y-82567425D01*
X129844613Y-82992619D01*
X129852303Y-83011230D01*
X129852635Y-83031363D01*
X130164640Y-83784610D01*
X130173845Y-83789420D01*
X130184155Y-83814372D01*
X130812321Y-84443636D01*
X130840057Y-84455153D01*
X130845390Y-84465360D01*
X131240797Y-84621554D01*
X131633481Y-84784611D01*
X131653619Y-84784629D01*
X131672346Y-84792026D01*
X132097425Y-84785016D01*
X132522619Y-84785387D01*
X132541230Y-84777697D01*
X132561363Y-84777365D01*
X133314610Y-84465360D01*
X133319420Y-84456155D01*
X133344372Y-84445845D01*
X133973636Y-83817679D01*
X133985153Y-83789943D01*
X133995360Y-83784610D01*
X134151554Y-83389203D01*
X134314611Y-82996519D01*
X134314629Y-82976381D01*
X134322026Y-82957654D01*
X134315016Y-82532575D01*
X134315387Y-82107381D01*
X134307697Y-82088770D01*
X134307365Y-82068637D01*
X133995360Y-81315390D01*
X133986155Y-81310580D01*
X133975845Y-81285628D01*
X133347679Y-80656364D01*
X133319943Y-80644847D01*
X133314610Y-80634640D01*
X132919203Y-80478446D01*
X132526519Y-80315389D01*
X132506381Y-80315371D01*
X132487654Y-80307974D01*
X132062575Y-80314984D01*
X131637381Y-80314613D01*
X131618770Y-80322303D01*
X131598637Y-80322635D01*
X130845390Y-80634640D01*
X130840580Y-80643845D01*
X130815628Y-80654155D01*
X130186364Y-81282321D01*
X130174847Y-81310057D01*
X130164640Y-81315390D01*
X130008446Y-81710797D01*
X129845389Y-82103481D01*
X129845371Y-82123619D01*
X129837974Y-82142346D01*
X67437000Y-82142346D01*
X67437000Y-80518000D01*
X104711500Y-80518000D01*
X104727111Y-80596483D01*
X104726860Y-80676506D01*
X104758225Y-80752906D01*
X104774337Y-80833905D01*
X104818795Y-80900441D01*
X104849186Y-80974468D01*
X104907401Y-81033049D01*
X104953283Y-81101717D01*
X105019819Y-81146175D01*
X105076225Y-81202936D01*
X105152426Y-81234780D01*
X105221095Y-81280663D01*
X105299579Y-81296274D01*
X105373413Y-81327129D01*
X105456000Y-81327388D01*
X105537000Y-81343500D01*
X114935000Y-81343500D01*
X115016000Y-81327388D01*
X115098587Y-81327129D01*
X115172419Y-81296275D01*
X115250905Y-81280663D01*
X115319577Y-81234778D01*
X115395775Y-81202935D01*
X115452178Y-81146177D01*
X115518717Y-81101717D01*
X115564602Y-81033046D01*
X115622814Y-80974467D01*
X115653204Y-80900442D01*
X115697663Y-80833905D01*
X115713775Y-80752904D01*
X115745140Y-80676505D01*
X115744889Y-80596483D01*
X115760500Y-80518000D01*
X115744388Y-80437000D01*
X115744129Y-80354412D01*
X115713274Y-80280579D01*
X115697663Y-80202095D01*
X115651778Y-80133424D01*
X115619935Y-80057225D01*
X110920936Y-73072225D01*
X110808424Y-72960417D01*
X110696775Y-72848065D01*
X110694342Y-72847048D01*
X110692468Y-72845186D01*
X110545745Y-72784950D01*
X110399587Y-72723871D01*
X110396948Y-72723863D01*
X110394506Y-72722860D01*
X110236000Y-72723358D01*
X110077494Y-72722860D01*
X110075052Y-72723863D01*
X110072413Y-72723871D01*
X109926188Y-72784978D01*
X109779532Y-72845186D01*
X109777660Y-72847047D01*
X109775225Y-72848064D01*
X109663496Y-72960496D01*
X109551064Y-73072225D01*
X104852064Y-80057225D01*
X104820220Y-80133426D01*
X104774337Y-80202095D01*
X104758726Y-80280579D01*
X104727871Y-80354413D01*
X104727612Y-80437000D01*
X104711500Y-80518000D01*
X67437000Y-80518000D01*
X67437000Y-68172346D01*
X88562974Y-68172346D01*
X88569984Y-68597425D01*
X88569613Y-69022619D01*
X88577303Y-69041230D01*
X88577635Y-69061363D01*
X88889640Y-69814610D01*
X88898845Y-69819420D01*
X88909155Y-69844372D01*
X89537321Y-70473636D01*
X89565057Y-70485153D01*
X89570390Y-70495360D01*
X89965797Y-70651554D01*
X90358481Y-70814611D01*
X90378619Y-70814629D01*
X90397346Y-70822026D01*
X90822425Y-70815016D01*
X91247619Y-70815387D01*
X91266230Y-70807697D01*
X91286363Y-70807365D01*
X92039610Y-70495360D01*
X92044420Y-70486155D01*
X92069372Y-70475845D01*
X92698636Y-69847679D01*
X92710153Y-69819943D01*
X92720360Y-69814610D01*
X92876554Y-69419203D01*
X93039611Y-69026519D01*
X93039629Y-69006381D01*
X93047026Y-68987654D01*
X93040016Y-68562575D01*
X93040387Y-68137381D01*
X93032697Y-68118770D01*
X93032365Y-68098637D01*
X92720360Y-67345390D01*
X92711155Y-67340580D01*
X92700845Y-67315628D01*
X92072679Y-66686364D01*
X92044943Y-66674847D01*
X92039610Y-66664640D01*
X91644203Y-66508446D01*
X91251519Y-66345389D01*
X91231381Y-66345371D01*
X91212654Y-66337974D01*
X90787575Y-66344984D01*
X90362381Y-66344613D01*
X90343770Y-66352303D01*
X90323637Y-66352635D01*
X89570390Y-66664640D01*
X89565580Y-66673845D01*
X89540628Y-66684155D01*
X88911364Y-67312321D01*
X88899847Y-67340057D01*
X88889640Y-67345390D01*
X88733446Y-67740797D01*
X88570389Y-68133481D01*
X88570371Y-68153619D01*
X88562974Y-68172346D01*
X67437000Y-68172346D01*
X67437000Y-56373448D01*
X67933636Y-55877679D01*
X67945153Y-55849943D01*
X67955360Y-55844610D01*
X68111554Y-55449203D01*
X68274611Y-55056519D01*
X68274629Y-55036381D01*
X68282026Y-55017654D01*
X68275016Y-54592575D01*
X68275356Y-54202346D01*
X129837974Y-54202346D01*
X129844984Y-54627425D01*
X129844613Y-55052619D01*
X129852303Y-55071230D01*
X129852635Y-55091363D01*
X130164640Y-55844610D01*
X130173845Y-55849420D01*
X130184155Y-55874372D01*
X130812321Y-56503636D01*
X130840057Y-56515153D01*
X130845390Y-56525360D01*
X131240797Y-56681554D01*
X131633481Y-56844611D01*
X131653619Y-56844629D01*
X131672346Y-56852026D01*
X132097425Y-56845016D01*
X132522619Y-56845387D01*
X132541230Y-56837697D01*
X132561363Y-56837365D01*
X133314610Y-56525360D01*
X133319420Y-56516155D01*
X133344372Y-56505845D01*
X133973636Y-55877679D01*
X133985153Y-55849943D01*
X133995360Y-55844610D01*
X134151554Y-55449203D01*
X134314611Y-55056519D01*
X134314629Y-55036381D01*
X134322026Y-55017654D01*
X134315016Y-54592575D01*
X134315387Y-54167381D01*
X134307697Y-54148770D01*
X134307365Y-54128637D01*
X133995360Y-53375390D01*
X133986155Y-53370580D01*
X133975845Y-53345628D01*
X133347679Y-52716364D01*
X133319943Y-52704847D01*
X133314610Y-52694640D01*
X132919203Y-52538446D01*
X132526519Y-52375389D01*
X132506381Y-52375371D01*
X132487654Y-52367974D01*
X132062575Y-52374984D01*
X131637381Y-52374613D01*
X131618770Y-52382303D01*
X131598637Y-52382635D01*
X130845390Y-52694640D01*
X130840580Y-52703845D01*
X130815628Y-52714155D01*
X130186364Y-53342321D01*
X130174847Y-53370057D01*
X130164640Y-53375390D01*
X130008446Y-53770797D01*
X129845389Y-54163481D01*
X129845371Y-54183619D01*
X129837974Y-54202346D01*
X68275356Y-54202346D01*
X68275387Y-54167381D01*
X68267697Y-54148770D01*
X68267365Y-54128637D01*
X67955360Y-53375390D01*
X67946155Y-53370580D01*
X67935845Y-53345628D01*
X67437000Y-52845911D01*
X67437000Y-52197000D01*
X135763000Y-52197000D01*
X135763000Y-88773000D01*
G36*
X110666796Y-79450559D02*
X110702290Y-79629000D01*
X110689659Y-79692500D01*
X109782341Y-79692500D01*
X109769710Y-79629000D01*
X109805204Y-79450559D01*
X109809128Y-79444687D01*
X109815413Y-79450322D01*
X109884873Y-79474755D01*
X109947517Y-79513452D01*
X109991214Y-79520533D01*
X110031127Y-79539673D01*
X110076444Y-79542143D01*
X110119257Y-79557203D01*
X110192779Y-79553196D01*
X110265463Y-79564974D01*
X110308544Y-79554794D01*
X110352743Y-79557203D01*
X110395553Y-79542144D01*
X110440873Y-79539674D01*
X110507267Y-79507835D01*
X110578924Y-79490902D01*
X110614829Y-79465011D01*
X110656587Y-79450322D01*
X110662872Y-79444687D01*
X110666796Y-79450559D01*
X110666796Y-79450559D01*
G37*
X110666796Y-79450559D02*
X110702290Y-79629000D01*
X110689659Y-79692500D01*
X109782341Y-79692500D01*
X109769710Y-79629000D01*
X109805204Y-79450559D01*
X109809128Y-79444687D01*
X109815413Y-79450322D01*
X109884873Y-79474755D01*
X109947517Y-79513452D01*
X109991214Y-79520533D01*
X110031127Y-79539673D01*
X110076444Y-79542143D01*
X110119257Y-79557203D01*
X110192779Y-79553196D01*
X110265463Y-79564974D01*
X110308544Y-79554794D01*
X110352743Y-79557203D01*
X110395553Y-79542144D01*
X110440873Y-79539674D01*
X110507267Y-79507835D01*
X110578924Y-79490902D01*
X110614829Y-79465011D01*
X110656587Y-79450322D01*
X110662872Y-79444687D01*
X110666796Y-79450559D01*
G36*
X109408473Y-78784476D02*
X109398284Y-78791284D01*
X109141471Y-79175631D01*
X109051290Y-79629000D01*
X109063921Y-79692500D01*
X107087248Y-79692500D01*
X109108886Y-76687363D01*
X109408473Y-78784476D01*
X109408473Y-78784476D01*
G37*
X109408473Y-78784476D02*
X109398284Y-78791284D01*
X109141471Y-79175631D01*
X109051290Y-79629000D01*
X109063921Y-79692500D01*
X107087248Y-79692500D01*
X109108886Y-76687363D01*
X109408473Y-78784476D01*
G36*
X113384752Y-79692500D02*
X111408079Y-79692500D01*
X111420710Y-79629000D01*
X111330529Y-79175631D01*
X111073716Y-78791284D01*
X111063527Y-78784476D01*
X111363114Y-76687363D01*
X113384752Y-79692500D01*
X113384752Y-79692500D01*
G37*
X113384752Y-79692500D02*
X111408079Y-79692500D01*
X111420710Y-79629000D01*
X111330529Y-79175631D01*
X111073716Y-78791284D01*
X111063527Y-78784476D01*
X111363114Y-76687363D01*
X113384752Y-79692500D01*
M02*
