G04 #@! TF.FileFunction,Legend,Bot*
%FSLAX46Y46*%
G04 Gerber Fmt 4.6, Leading zero omitted, Abs format (unit mm)*
G04 Created by KiCad (PCBNEW 4.0.7) date 01/25/18 11:26:49*
%MOMM*%
%LPD*%
G01*
G04 APERTURE LIST*
%ADD10C,0.100000*%
%ADD11C,0.300000*%
%ADD12C,0.190500*%
%ADD13C,0.010000*%
G04 APERTURE END LIST*
D10*
D11*
X171085000Y-89916191D02*
X170989762Y-89725714D01*
X170989762Y-89440000D01*
X171085000Y-89154286D01*
X171275476Y-88963810D01*
X171465952Y-88868571D01*
X171846905Y-88773333D01*
X172132619Y-88773333D01*
X172513571Y-88868571D01*
X172704048Y-88963810D01*
X172894524Y-89154286D01*
X172989762Y-89440000D01*
X172989762Y-89630476D01*
X172894524Y-89916191D01*
X172799286Y-90011429D01*
X172132619Y-90011429D01*
X172132619Y-89630476D01*
X172989762Y-90868571D02*
X170989762Y-90868571D01*
X172989762Y-92011429D01*
X170989762Y-92011429D01*
X172989762Y-92963809D02*
X170989762Y-92963809D01*
X170989762Y-93440000D01*
X171085000Y-93725714D01*
X171275476Y-93916190D01*
X171465952Y-94011429D01*
X171846905Y-94106667D01*
X172132619Y-94106667D01*
X172513571Y-94011429D01*
X172704048Y-93916190D01*
X172894524Y-93725714D01*
X172989762Y-93440000D01*
X172989762Y-92963809D01*
X171085000Y-89916191D02*
X170989762Y-89725714D01*
X170989762Y-89440000D01*
X171085000Y-89154286D01*
X171275476Y-88963810D01*
X171465952Y-88868571D01*
X171846905Y-88773333D01*
X172132619Y-88773333D01*
X172513571Y-88868571D01*
X172704048Y-88963810D01*
X172894524Y-89154286D01*
X172989762Y-89440000D01*
X172989762Y-89630476D01*
X172894524Y-89916191D01*
X172799286Y-90011429D01*
X172132619Y-90011429D01*
X172132619Y-89630476D01*
X172989762Y-90868571D02*
X170989762Y-90868571D01*
X172989762Y-92011429D01*
X170989762Y-92011429D01*
X172989762Y-92963809D02*
X170989762Y-92963809D01*
X170989762Y-93440000D01*
X171085000Y-93725714D01*
X171275476Y-93916190D01*
X171465952Y-94011429D01*
X171846905Y-94106667D01*
X172132619Y-94106667D01*
X172513571Y-94011429D01*
X172704048Y-93916190D01*
X172894524Y-93725714D01*
X172989762Y-93440000D01*
X172989762Y-92963809D01*
X153304762Y-90836905D02*
X153304762Y-89694047D01*
X153304762Y-90265476D02*
X151304762Y-90265476D01*
X151590476Y-90075000D01*
X151780952Y-89884524D01*
X151876190Y-89694047D01*
X151495238Y-91598809D02*
X151400000Y-91694047D01*
X151304762Y-91884524D01*
X151304762Y-92360714D01*
X151400000Y-92551190D01*
X151495238Y-92646428D01*
X151685714Y-92741667D01*
X151876190Y-92741667D01*
X152161905Y-92646428D01*
X153304762Y-91503571D01*
X153304762Y-92741667D01*
X151304762Y-93313095D02*
X153304762Y-93979762D01*
X151304762Y-94646429D01*
D12*
X87122000Y-230055964D02*
X86686571Y-230055964D01*
X86904285Y-230817964D02*
X86904285Y-230055964D01*
X86432571Y-230817964D02*
X86432571Y-230055964D01*
X86106000Y-230817964D02*
X86106000Y-230418821D01*
X86142286Y-230346250D01*
X86214857Y-230309964D01*
X86323714Y-230309964D01*
X86396286Y-230346250D01*
X86432571Y-230382536D01*
X85452857Y-230781679D02*
X85525428Y-230817964D01*
X85670571Y-230817964D01*
X85743142Y-230781679D01*
X85779428Y-230709107D01*
X85779428Y-230418821D01*
X85743142Y-230346250D01*
X85670571Y-230309964D01*
X85525428Y-230309964D01*
X85452857Y-230346250D01*
X85416571Y-230418821D01*
X85416571Y-230491393D01*
X85779428Y-230563964D01*
X84509428Y-230817964D02*
X84509428Y-230055964D01*
X84509428Y-230418821D02*
X84074000Y-230418821D01*
X84074000Y-230817964D02*
X84074000Y-230055964D01*
X83384571Y-230309964D02*
X83384571Y-230817964D01*
X83711142Y-230309964D02*
X83711142Y-230709107D01*
X83674857Y-230781679D01*
X83602285Y-230817964D01*
X83493428Y-230817964D01*
X83420857Y-230781679D01*
X83384571Y-230745393D01*
X83021713Y-230817964D02*
X83021713Y-230055964D01*
X83021713Y-230346250D02*
X82949142Y-230309964D01*
X82803999Y-230309964D01*
X82731428Y-230346250D01*
X82695142Y-230382536D01*
X82658856Y-230455107D01*
X82658856Y-230672821D01*
X82695142Y-230745393D01*
X82731428Y-230781679D01*
X82803999Y-230817964D01*
X82949142Y-230817964D01*
X83021713Y-230781679D01*
X82295999Y-230781679D02*
X82295999Y-230817964D01*
X82332284Y-230890536D01*
X82368570Y-230926821D01*
X80953428Y-230817964D02*
X81207428Y-230455107D01*
X81388856Y-230817964D02*
X81388856Y-230055964D01*
X81098571Y-230055964D01*
X81025999Y-230092250D01*
X80989714Y-230128536D01*
X80953428Y-230201107D01*
X80953428Y-230309964D01*
X80989714Y-230382536D01*
X81025999Y-230418821D01*
X81098571Y-230455107D01*
X81388856Y-230455107D01*
X80336571Y-230781679D02*
X80409142Y-230817964D01*
X80554285Y-230817964D01*
X80626856Y-230781679D01*
X80663142Y-230709107D01*
X80663142Y-230418821D01*
X80626856Y-230346250D01*
X80554285Y-230309964D01*
X80409142Y-230309964D01*
X80336571Y-230346250D01*
X80300285Y-230418821D01*
X80300285Y-230491393D01*
X80663142Y-230563964D01*
X80046285Y-230309964D02*
X79864856Y-230817964D01*
X79683428Y-230309964D01*
X79393142Y-230745393D02*
X79356857Y-230781679D01*
X79393142Y-230817964D01*
X79429428Y-230781679D01*
X79393142Y-230745393D01*
X79393142Y-230817964D01*
X78050572Y-230817964D02*
X78486000Y-230817964D01*
X78268286Y-230817964D02*
X78268286Y-230055964D01*
X78340857Y-230164821D01*
X78413429Y-230237393D01*
X78486000Y-230273679D01*
X89444285Y-232151464D02*
X89444285Y-231389464D01*
X89262857Y-231389464D01*
X89154000Y-231425750D01*
X89081428Y-231498321D01*
X89045143Y-231570893D01*
X89008857Y-231716036D01*
X89008857Y-231824893D01*
X89045143Y-231970036D01*
X89081428Y-232042607D01*
X89154000Y-232115179D01*
X89262857Y-232151464D01*
X89444285Y-232151464D01*
X88355714Y-232151464D02*
X88355714Y-231752321D01*
X88392000Y-231679750D01*
X88464571Y-231643464D01*
X88609714Y-231643464D01*
X88682285Y-231679750D01*
X88355714Y-232115179D02*
X88428285Y-232151464D01*
X88609714Y-232151464D01*
X88682285Y-232115179D01*
X88718571Y-232042607D01*
X88718571Y-231970036D01*
X88682285Y-231897464D01*
X88609714Y-231861179D01*
X88428285Y-231861179D01*
X88355714Y-231824893D01*
X87992856Y-231643464D02*
X87992856Y-232151464D01*
X87992856Y-231716036D02*
X87956571Y-231679750D01*
X87883999Y-231643464D01*
X87775142Y-231643464D01*
X87702571Y-231679750D01*
X87666285Y-231752321D01*
X87666285Y-232151464D01*
X87303427Y-231643464D02*
X87303427Y-232151464D01*
X87303427Y-231716036D02*
X87267142Y-231679750D01*
X87194570Y-231643464D01*
X87085713Y-231643464D01*
X87013142Y-231679750D01*
X86976856Y-231752321D01*
X86976856Y-232151464D01*
X86686570Y-231643464D02*
X86505141Y-232151464D01*
X86323713Y-231643464D02*
X86505141Y-232151464D01*
X86577713Y-232332893D01*
X86613998Y-232369179D01*
X86686570Y-232405464D01*
X85452856Y-232151464D02*
X85452856Y-231389464D01*
X85198856Y-231933750D01*
X84944856Y-231389464D01*
X84944856Y-232151464D01*
X84255428Y-232151464D02*
X84255428Y-231752321D01*
X84291714Y-231679750D01*
X84364285Y-231643464D01*
X84509428Y-231643464D01*
X84581999Y-231679750D01*
X84255428Y-232115179D02*
X84327999Y-232151464D01*
X84509428Y-232151464D01*
X84581999Y-232115179D01*
X84618285Y-232042607D01*
X84618285Y-231970036D01*
X84581999Y-231897464D01*
X84509428Y-231861179D01*
X84327999Y-231861179D01*
X84255428Y-231824893D01*
X83783713Y-232151464D02*
X83856285Y-232115179D01*
X83892570Y-232042607D01*
X83892570Y-231389464D01*
X83384570Y-232151464D02*
X83457142Y-232115179D01*
X83493427Y-232042607D01*
X83493427Y-231389464D01*
X82803999Y-232115179D02*
X82876570Y-232151464D01*
X83021713Y-232151464D01*
X83094284Y-232115179D01*
X83130570Y-232042607D01*
X83130570Y-231752321D01*
X83094284Y-231679750D01*
X83021713Y-231643464D01*
X82876570Y-231643464D01*
X82803999Y-231679750D01*
X82767713Y-231752321D01*
X82767713Y-231824893D01*
X83130570Y-231897464D01*
X82441141Y-232151464D02*
X82441141Y-231389464D01*
X82368570Y-231861179D02*
X82150856Y-232151464D01*
X82150856Y-231643464D02*
X82441141Y-231933750D01*
X80844571Y-232151464D02*
X81279999Y-232151464D01*
X81062285Y-232151464D02*
X81062285Y-231389464D01*
X81134856Y-231498321D01*
X81207428Y-231570893D01*
X81279999Y-231607179D01*
X79973714Y-231353179D02*
X80626857Y-232332893D01*
X79610856Y-231716036D02*
X79683428Y-231679750D01*
X79719713Y-231643464D01*
X79755999Y-231570893D01*
X79755999Y-231534607D01*
X79719713Y-231462036D01*
X79683428Y-231425750D01*
X79610856Y-231389464D01*
X79465713Y-231389464D01*
X79393142Y-231425750D01*
X79356856Y-231462036D01*
X79320571Y-231534607D01*
X79320571Y-231570893D01*
X79356856Y-231643464D01*
X79393142Y-231679750D01*
X79465713Y-231716036D01*
X79610856Y-231716036D01*
X79683428Y-231752321D01*
X79719713Y-231788607D01*
X79755999Y-231861179D01*
X79755999Y-232006321D01*
X79719713Y-232078893D01*
X79683428Y-232115179D01*
X79610856Y-232151464D01*
X79465713Y-232151464D01*
X79393142Y-232115179D01*
X79356856Y-232078893D01*
X79320571Y-232006321D01*
X79320571Y-231861179D01*
X79356856Y-231788607D01*
X79393142Y-231752321D01*
X79465713Y-231716036D01*
X78449714Y-231353179D02*
X79102857Y-232332893D01*
X78231999Y-231462036D02*
X78195713Y-231425750D01*
X78123142Y-231389464D01*
X77941713Y-231389464D01*
X77869142Y-231425750D01*
X77832856Y-231462036D01*
X77796571Y-231534607D01*
X77796571Y-231607179D01*
X77832856Y-231716036D01*
X78268285Y-232151464D01*
X77796571Y-232151464D01*
X77324857Y-231389464D02*
X77252285Y-231389464D01*
X77179714Y-231425750D01*
X77143428Y-231462036D01*
X77107142Y-231534607D01*
X77070857Y-231679750D01*
X77070857Y-231861179D01*
X77107142Y-232006321D01*
X77143428Y-232078893D01*
X77179714Y-232115179D01*
X77252285Y-232151464D01*
X77324857Y-232151464D01*
X77397428Y-232115179D01*
X77433714Y-232078893D01*
X77469999Y-232006321D01*
X77506285Y-231861179D01*
X77506285Y-231679750D01*
X77469999Y-231534607D01*
X77433714Y-231462036D01*
X77397428Y-231425750D01*
X77324857Y-231389464D01*
X76345143Y-232151464D02*
X76780571Y-232151464D01*
X76562857Y-232151464D02*
X76562857Y-231389464D01*
X76635428Y-231498321D01*
X76708000Y-231570893D01*
X76780571Y-231607179D01*
X75909714Y-231716036D02*
X75982286Y-231679750D01*
X76018571Y-231643464D01*
X76054857Y-231570893D01*
X76054857Y-231534607D01*
X76018571Y-231462036D01*
X75982286Y-231425750D01*
X75909714Y-231389464D01*
X75764571Y-231389464D01*
X75692000Y-231425750D01*
X75655714Y-231462036D01*
X75619429Y-231534607D01*
X75619429Y-231570893D01*
X75655714Y-231643464D01*
X75692000Y-231679750D01*
X75764571Y-231716036D01*
X75909714Y-231716036D01*
X75982286Y-231752321D01*
X76018571Y-231788607D01*
X76054857Y-231861179D01*
X76054857Y-232006321D01*
X76018571Y-232078893D01*
X75982286Y-232115179D01*
X75909714Y-232151464D01*
X75764571Y-232151464D01*
X75692000Y-232115179D01*
X75655714Y-232078893D01*
X75619429Y-232006321D01*
X75619429Y-231861179D01*
X75655714Y-231788607D01*
X75692000Y-231752321D01*
X75764571Y-231716036D01*
D13*
G36*
X135327219Y-153199851D02*
X135323044Y-153077219D01*
X135314943Y-152991454D01*
X135309619Y-152966012D01*
X135293100Y-152909724D01*
X135089900Y-152993674D01*
X134765487Y-153139946D01*
X134416253Y-153319912D01*
X134050354Y-153528621D01*
X133675947Y-153761124D01*
X133301186Y-154012472D01*
X132934228Y-154277716D01*
X132780428Y-154395151D01*
X132182587Y-154888227D01*
X131599108Y-155426599D01*
X131033645Y-156005904D01*
X130489851Y-156621778D01*
X129971378Y-157269859D01*
X129481881Y-157945784D01*
X129025013Y-158645189D01*
X128604428Y-159363713D01*
X128574800Y-159417607D01*
X128358900Y-159812108D01*
X128208996Y-159839264D01*
X127995481Y-159901100D01*
X127771686Y-160009547D01*
X127539552Y-160161911D01*
X127301021Y-160355496D01*
X127058035Y-160587606D01*
X126812536Y-160855544D01*
X126566464Y-161156617D01*
X126321763Y-161488127D01*
X126080373Y-161847378D01*
X125844236Y-162231676D01*
X125615295Y-162638325D01*
X125395490Y-163064628D01*
X125186764Y-163507891D01*
X124991057Y-163965417D01*
X124810313Y-164434510D01*
X124724814Y-164676474D01*
X124612908Y-165003183D01*
X124791653Y-164842042D01*
X125048535Y-164613049D01*
X125279276Y-164413191D01*
X125492891Y-164234927D01*
X125698393Y-164070719D01*
X125880750Y-163931051D01*
X126017970Y-163830098D01*
X126157634Y-163731175D01*
X126293364Y-163638404D01*
X126418783Y-163555907D01*
X126527510Y-163487806D01*
X126613169Y-163438223D01*
X126669380Y-163411279D01*
X126688882Y-163408816D01*
X126685592Y-163435558D01*
X126668941Y-163500574D01*
X126641669Y-163593955D01*
X126608296Y-163700293D01*
X126572572Y-163811669D01*
X126543450Y-163904119D01*
X126524033Y-163967680D01*
X126517400Y-163992217D01*
X126537343Y-164009956D01*
X126588491Y-164043832D01*
X126631700Y-164069958D01*
X126696131Y-164110891D01*
X126737488Y-164143267D01*
X126745794Y-164154921D01*
X126724504Y-164172720D01*
X126666333Y-164208854D01*
X126579591Y-164258451D01*
X126472587Y-164316640D01*
X126445566Y-164330946D01*
X126145544Y-164488992D01*
X125974603Y-164836922D01*
X125903401Y-164987412D01*
X125851024Y-165110022D01*
X125819622Y-165199319D01*
X125811281Y-165249345D01*
X125821173Y-165277048D01*
X125848148Y-165310125D01*
X125897514Y-165352730D01*
X125974579Y-165409017D01*
X126084651Y-165483141D01*
X126231570Y-165578318D01*
X126644240Y-165842798D01*
X126443950Y-166061949D01*
X126086711Y-166436985D01*
X125719647Y-166792074D01*
X125348851Y-167122048D01*
X124980413Y-167421737D01*
X124620425Y-167685969D01*
X124274980Y-167909575D01*
X124248513Y-167925341D01*
X123830118Y-168150463D01*
X123420147Y-168325633D01*
X123018539Y-168450832D01*
X122625232Y-168526040D01*
X122240166Y-168551236D01*
X121863278Y-168526399D01*
X121494508Y-168451510D01*
X121133794Y-168326548D01*
X120781075Y-168151493D01*
X120436290Y-167926324D01*
X120099378Y-167651021D01*
X119770276Y-167325564D01*
X119448925Y-166949932D01*
X119135262Y-166524105D01*
X118889814Y-166147271D01*
X118592903Y-165635566D01*
X118304224Y-165073956D01*
X118023817Y-164462670D01*
X117751723Y-163801938D01*
X117487983Y-163091991D01*
X117232637Y-162333058D01*
X116985728Y-161525369D01*
X116747294Y-160669154D01*
X116517378Y-159764644D01*
X116296021Y-158812067D01*
X116083262Y-157811654D01*
X115879143Y-156763635D01*
X115683704Y-155668239D01*
X115496987Y-154525697D01*
X115319032Y-153336239D01*
X115149880Y-152100094D01*
X114989573Y-150817492D01*
X114838150Y-149488664D01*
X114695652Y-148113839D01*
X114562121Y-146693247D01*
X114437598Y-145227118D01*
X114322122Y-143715682D01*
X114215735Y-142159169D01*
X114118478Y-140557809D01*
X114030392Y-138911831D01*
X114021597Y-138734800D01*
X113992639Y-138134675D01*
X113965377Y-137541919D01*
X113939637Y-136951449D01*
X113915243Y-136358185D01*
X113892019Y-135757044D01*
X113869791Y-135142943D01*
X113848382Y-134510800D01*
X113827618Y-133855532D01*
X113807323Y-133172059D01*
X113787322Y-132455296D01*
X113767440Y-131700163D01*
X113747500Y-130901576D01*
X113738556Y-130530600D01*
X113732785Y-130259877D01*
X113727452Y-129951578D01*
X113722553Y-129608480D01*
X113718085Y-129233358D01*
X113714042Y-128828989D01*
X113710422Y-128398149D01*
X113707221Y-127943615D01*
X113704435Y-127468162D01*
X113702060Y-126974566D01*
X113700092Y-126465604D01*
X113698527Y-125944053D01*
X113697362Y-125412687D01*
X113696593Y-124874284D01*
X113696215Y-124331619D01*
X113696226Y-123787469D01*
X113696621Y-123244610D01*
X113697396Y-122705819D01*
X113698548Y-122173870D01*
X113700072Y-121651541D01*
X113701966Y-121141607D01*
X113704224Y-120646846D01*
X113706844Y-120170032D01*
X113709822Y-119713943D01*
X113713152Y-119281354D01*
X113716833Y-118875042D01*
X113720860Y-118497782D01*
X113725229Y-118152352D01*
X113729936Y-117841526D01*
X113734977Y-117568082D01*
X113740349Y-117334796D01*
X113746048Y-117144443D01*
X113752070Y-116999800D01*
X113757331Y-116916200D01*
X113762596Y-116828008D01*
X113762624Y-116766008D01*
X113757518Y-116741176D01*
X113755720Y-116741787D01*
X113748842Y-116771410D01*
X113738728Y-116848177D01*
X113725653Y-116968555D01*
X113709896Y-117129010D01*
X113691733Y-117326007D01*
X113671440Y-117556012D01*
X113649294Y-117815493D01*
X113625572Y-118100914D01*
X113600551Y-118408742D01*
X113574507Y-118735443D01*
X113547718Y-119077483D01*
X113520460Y-119431328D01*
X113493009Y-119793444D01*
X113465643Y-120160297D01*
X113438638Y-120528353D01*
X113412272Y-120894079D01*
X113386820Y-121253940D01*
X113362559Y-121604402D01*
X113339767Y-121941932D01*
X113318720Y-122262995D01*
X113299695Y-122564058D01*
X113299470Y-122567700D01*
X113289021Y-122741064D01*
X113279629Y-122907494D01*
X113271190Y-123071139D01*
X113263603Y-123236147D01*
X113256765Y-123406665D01*
X113250573Y-123586840D01*
X113244924Y-123780821D01*
X113239716Y-123992755D01*
X113234846Y-124226790D01*
X113230211Y-124487073D01*
X113225710Y-124777753D01*
X113221239Y-125102976D01*
X113216695Y-125466891D01*
X113211977Y-125873645D01*
X113207398Y-126288800D01*
X113202969Y-126688908D01*
X113198261Y-127097837D01*
X113193350Y-127509818D01*
X113188312Y-127919083D01*
X113183223Y-128319864D01*
X113178159Y-128706391D01*
X113173196Y-129072896D01*
X113168410Y-129413611D01*
X113163877Y-129722766D01*
X113159674Y-129994593D01*
X113155875Y-130223324D01*
X113154706Y-130289300D01*
X113152481Y-130435734D01*
X113150240Y-130627793D01*
X113147993Y-130862193D01*
X113145749Y-131135651D01*
X113143519Y-131444884D01*
X113141312Y-131786609D01*
X113139138Y-132157542D01*
X113137007Y-132554399D01*
X113134930Y-132973898D01*
X113132915Y-133412756D01*
X113130973Y-133867688D01*
X113129114Y-134335411D01*
X113127347Y-134812643D01*
X113125683Y-135296100D01*
X113124132Y-135782498D01*
X113122703Y-136268554D01*
X113121407Y-136750985D01*
X113120252Y-137226508D01*
X113119250Y-137691839D01*
X113118410Y-138143695D01*
X113117742Y-138578792D01*
X113117256Y-138993848D01*
X113116961Y-139385579D01*
X113116869Y-139750701D01*
X113116988Y-140085931D01*
X113117328Y-140387986D01*
X113117900Y-140653583D01*
X113118713Y-140879438D01*
X113119778Y-141062269D01*
X113121103Y-141198790D01*
X113121659Y-141236700D01*
X113137665Y-142144653D01*
X113154766Y-143006571D01*
X113173107Y-143827213D01*
X113192835Y-144611335D01*
X113214094Y-145363695D01*
X113237029Y-146089050D01*
X113261786Y-146792157D01*
X113288511Y-147477773D01*
X113317349Y-148150655D01*
X113348445Y-148815562D01*
X113361158Y-149072600D01*
X113444448Y-150592781D01*
X113539207Y-152063600D01*
X113645462Y-153485191D01*
X113763243Y-154857687D01*
X113892578Y-156181222D01*
X114033497Y-157455929D01*
X114186027Y-158681941D01*
X114350198Y-159859393D01*
X114526039Y-160988418D01*
X114713578Y-162069149D01*
X114912843Y-163101719D01*
X115123865Y-164086263D01*
X115346671Y-165022913D01*
X115581290Y-165911804D01*
X115827751Y-166753068D01*
X116086083Y-167546839D01*
X116356314Y-168293251D01*
X116638474Y-168992437D01*
X116932590Y-169644531D01*
X117238692Y-170249666D01*
X117556809Y-170807975D01*
X117886969Y-171319593D01*
X118229201Y-171784652D01*
X118261570Y-171825450D01*
X118585803Y-172201278D01*
X118928974Y-172541764D01*
X119287282Y-172844082D01*
X119656925Y-173105408D01*
X120034101Y-173322916D01*
X120415009Y-173493782D01*
X120590529Y-173555972D01*
X121018630Y-173671638D01*
X121436985Y-173737706D01*
X121846176Y-173754056D01*
X122246785Y-173720570D01*
X122639394Y-173637127D01*
X123024585Y-173503609D01*
X123402941Y-173319897D01*
X123775042Y-173085872D01*
X124097870Y-172838142D01*
X124420466Y-172542792D01*
X124738938Y-172198351D01*
X125052296Y-171806432D01*
X125359551Y-171368647D01*
X125659713Y-170886609D01*
X125951795Y-170361930D01*
X126234805Y-169796223D01*
X126507755Y-169191100D01*
X126769655Y-168548173D01*
X126835221Y-168376600D01*
X126939812Y-168094539D01*
X126964758Y-168025155D01*
X126964758Y-165701623D01*
X126943290Y-165691087D01*
X126889435Y-165658906D01*
X126813341Y-165611214D01*
X126783611Y-165592172D01*
X126682295Y-165526984D01*
X126558171Y-165447199D01*
X126431196Y-165365640D01*
X126371350Y-165327225D01*
X126276668Y-165265412D01*
X126200239Y-165213511D01*
X126150764Y-165177564D01*
X126136400Y-165164107D01*
X126146837Y-165136923D01*
X126174352Y-165076730D01*
X126213254Y-164995932D01*
X126218052Y-164986181D01*
X126260578Y-164905509D01*
X126296873Y-164846581D01*
X126319769Y-164820902D01*
X126321218Y-164820600D01*
X126348282Y-164833787D01*
X126410989Y-164870526D01*
X126502451Y-164926589D01*
X126615780Y-164997749D01*
X126744089Y-165079774D01*
X126758793Y-165089260D01*
X127174854Y-165357920D01*
X127071724Y-165527410D01*
X127022708Y-165607778D01*
X126985238Y-165668861D01*
X126965941Y-165699866D01*
X126964758Y-165701623D01*
X126964758Y-168025155D01*
X127044459Y-167803477D01*
X127145491Y-167514129D01*
X127239236Y-167237206D01*
X127322022Y-166983423D01*
X127390178Y-166763491D01*
X127403510Y-166718440D01*
X127498552Y-166393780D01*
X127712826Y-166533825D01*
X127808022Y-166593333D01*
X127891168Y-166640378D01*
X127940359Y-166663772D01*
X127940359Y-166324496D01*
X127936467Y-166324414D01*
X127895583Y-166305576D01*
X127824939Y-166264711D01*
X127732326Y-166207090D01*
X127625534Y-166137983D01*
X127512354Y-166062661D01*
X127400575Y-165986396D01*
X127297987Y-165914459D01*
X127212382Y-165852121D01*
X127151549Y-165804652D01*
X127123278Y-165777323D01*
X127122427Y-165773616D01*
X127144770Y-165740055D01*
X127186530Y-165678081D01*
X127237171Y-165603317D01*
X127334642Y-165459744D01*
X127770571Y-165739468D01*
X127904424Y-165825821D01*
X128024685Y-165904282D01*
X128124386Y-165970234D01*
X128196560Y-166019060D01*
X128234241Y-166046145D01*
X128237024Y-166048546D01*
X128243854Y-166071781D01*
X128221587Y-166107745D01*
X128165321Y-166162794D01*
X128116451Y-166204900D01*
X128041257Y-166264273D01*
X127978743Y-166306672D01*
X127940359Y-166324496D01*
X127940359Y-166663772D01*
X127950902Y-166668787D01*
X127971374Y-166674336D01*
X128007095Y-166658452D01*
X128070912Y-166614937D01*
X128153560Y-166550585D01*
X128239245Y-166477950D01*
X128337621Y-166391659D01*
X128431085Y-166310231D01*
X128507833Y-166243921D01*
X128549548Y-166208409D01*
X128597918Y-166162579D01*
X128626948Y-166115068D01*
X128644236Y-166048493D01*
X128655022Y-165967109D01*
X128664920Y-165851322D01*
X128672196Y-165715863D01*
X128675096Y-165601650D01*
X128677506Y-165508917D01*
X128682726Y-165439687D01*
X128689735Y-165406173D01*
X128691529Y-165404800D01*
X128720602Y-165418128D01*
X128770849Y-165450530D01*
X128775321Y-165453693D01*
X128843984Y-165502585D01*
X129155220Y-165222188D01*
X129259521Y-165129509D01*
X129320692Y-165076796D01*
X129320692Y-164461995D01*
X128865196Y-164168893D01*
X128730594Y-164082215D01*
X128611415Y-164005349D01*
X128513923Y-163942344D01*
X128444383Y-163897250D01*
X128409058Y-163874117D01*
X128405924Y-163871945D01*
X128418073Y-163850430D01*
X128454271Y-163791423D01*
X128511190Y-163700226D01*
X128585502Y-163582139D01*
X128673880Y-163442463D01*
X128772995Y-163286498D01*
X128807018Y-163233100D01*
X128990735Y-162943078D01*
X129167994Y-162659609D01*
X129336805Y-162386092D01*
X129495178Y-162125927D01*
X129641123Y-161882512D01*
X129772651Y-161659247D01*
X129887770Y-161459530D01*
X129984491Y-161286761D01*
X130060824Y-161144339D01*
X130114779Y-161035662D01*
X130144367Y-160964130D01*
X130149600Y-160939910D01*
X130138899Y-160922712D01*
X130106165Y-160942368D01*
X130050451Y-160999992D01*
X129970812Y-161096695D01*
X129866303Y-161233590D01*
X129735977Y-161411789D01*
X129669188Y-161505004D01*
X129598337Y-161605966D01*
X129504250Y-161742399D01*
X129391333Y-161907730D01*
X129263992Y-162095386D01*
X129126633Y-162298794D01*
X128983661Y-162511380D01*
X128839484Y-162726571D01*
X128698505Y-162937794D01*
X128565133Y-163138476D01*
X128443771Y-163322043D01*
X128338827Y-163481922D01*
X128254706Y-163611540D01*
X128206500Y-163687218D01*
X128192739Y-163697306D01*
X128167163Y-163695113D01*
X128124507Y-163677849D01*
X128059504Y-163642728D01*
X127966888Y-163586963D01*
X127841393Y-163507766D01*
X127720443Y-163429968D01*
X127259785Y-163132276D01*
X127355707Y-162865188D01*
X127403907Y-162732836D01*
X127462835Y-162573804D01*
X127524788Y-162408750D01*
X127578389Y-162267900D01*
X127943197Y-161376349D01*
X128340383Y-160517190D01*
X128769025Y-159691661D01*
X129228203Y-158900998D01*
X129716997Y-158146437D01*
X130234485Y-157429216D01*
X130779748Y-156750570D01*
X131351864Y-156111736D01*
X131949914Y-155513951D01*
X132572977Y-154958451D01*
X133220132Y-154446473D01*
X133607516Y-154169018D01*
X133706226Y-154102557D01*
X133791076Y-154048414D01*
X133852680Y-154012381D01*
X133881011Y-154000200D01*
X133908525Y-154013379D01*
X133971122Y-154049783D01*
X134061446Y-154104717D01*
X134172141Y-154173484D01*
X134295852Y-154251389D01*
X134425223Y-154333735D01*
X134552899Y-154415827D01*
X134671523Y-154492968D01*
X134773740Y-154560462D01*
X134852195Y-154613613D01*
X134899532Y-154647725D01*
X134909939Y-154657103D01*
X134911194Y-154691626D01*
X134902312Y-154768455D01*
X134884675Y-154880419D01*
X134859667Y-155020349D01*
X134828673Y-155181072D01*
X134793076Y-155355420D01*
X134754261Y-155536222D01*
X134713610Y-155716307D01*
X134672508Y-155888505D01*
X134671430Y-155892878D01*
X134455972Y-156664422D01*
X134190869Y-157436015D01*
X133877234Y-158205636D01*
X133516180Y-158971267D01*
X133108819Y-159730890D01*
X132656265Y-160482485D01*
X132159630Y-161224034D01*
X131620027Y-161953518D01*
X131038568Y-162668918D01*
X130758162Y-162991800D01*
X130628042Y-163136579D01*
X130481505Y-163296210D01*
X130324687Y-163464303D01*
X130163721Y-163634468D01*
X130004743Y-163800316D01*
X129853886Y-163955457D01*
X129717285Y-164093501D01*
X129601076Y-164208058D01*
X129511391Y-164292738D01*
X129495474Y-164307039D01*
X129320692Y-164461995D01*
X129320692Y-165076796D01*
X129350401Y-165051194D01*
X129421401Y-164992615D01*
X129466059Y-164959145D01*
X129478265Y-164953598D01*
X129482338Y-164984730D01*
X129480178Y-165057087D01*
X129472704Y-165161600D01*
X129460833Y-165289200D01*
X129445485Y-165430820D01*
X129427577Y-165577389D01*
X129408028Y-165719839D01*
X129387756Y-165849101D01*
X129387312Y-165851712D01*
X129335633Y-166121644D01*
X129267314Y-166426430D01*
X129185292Y-166754049D01*
X129092501Y-167092476D01*
X129042891Y-167262301D01*
X129004508Y-167393696D01*
X128972935Y-167507089D01*
X128950408Y-167594002D01*
X128939164Y-167645959D01*
X128938788Y-167656854D01*
X128959602Y-167643487D01*
X129009611Y-167597749D01*
X129083842Y-167524860D01*
X129177323Y-167430041D01*
X129285081Y-167318514D01*
X129402142Y-167195500D01*
X129523535Y-167066220D01*
X129644286Y-166935895D01*
X129759423Y-166809746D01*
X129863973Y-166692994D01*
X129943083Y-166602390D01*
X130325583Y-166138366D01*
X130676527Y-165674115D01*
X130993914Y-165213027D01*
X131275745Y-164758491D01*
X131520019Y-164313897D01*
X131724736Y-163882635D01*
X131887897Y-163468096D01*
X131993575Y-163127091D01*
X132034507Y-162937914D01*
X132059688Y-162742163D01*
X132068929Y-162551286D01*
X132062040Y-162376733D01*
X132038831Y-162229954D01*
X132009903Y-162143462D01*
X131952506Y-162019024D01*
X132131921Y-161780327D01*
X132248721Y-161620918D01*
X132384355Y-161429169D01*
X132531323Y-161216182D01*
X132682128Y-160993061D01*
X132829270Y-160770908D01*
X132965251Y-160560826D01*
X133082574Y-160373917D01*
X133090378Y-160361197D01*
X133517146Y-159624022D01*
X133901469Y-158876326D01*
X134242397Y-158120891D01*
X134538979Y-157360500D01*
X134790265Y-156597936D01*
X134995306Y-155835982D01*
X135153150Y-155077421D01*
X135262848Y-154325036D01*
X135305501Y-153873200D01*
X135316609Y-153696026D01*
X135323959Y-153518547D01*
X135327510Y-153350058D01*
X135327219Y-153199851D01*
X135327219Y-153199851D01*
G37*
X135327219Y-153199851D02*
X135323044Y-153077219D01*
X135314943Y-152991454D01*
X135309619Y-152966012D01*
X135293100Y-152909724D01*
X135089900Y-152993674D01*
X134765487Y-153139946D01*
X134416253Y-153319912D01*
X134050354Y-153528621D01*
X133675947Y-153761124D01*
X133301186Y-154012472D01*
X132934228Y-154277716D01*
X132780428Y-154395151D01*
X132182587Y-154888227D01*
X131599108Y-155426599D01*
X131033645Y-156005904D01*
X130489851Y-156621778D01*
X129971378Y-157269859D01*
X129481881Y-157945784D01*
X129025013Y-158645189D01*
X128604428Y-159363713D01*
X128574800Y-159417607D01*
X128358900Y-159812108D01*
X128208996Y-159839264D01*
X127995481Y-159901100D01*
X127771686Y-160009547D01*
X127539552Y-160161911D01*
X127301021Y-160355496D01*
X127058035Y-160587606D01*
X126812536Y-160855544D01*
X126566464Y-161156617D01*
X126321763Y-161488127D01*
X126080373Y-161847378D01*
X125844236Y-162231676D01*
X125615295Y-162638325D01*
X125395490Y-163064628D01*
X125186764Y-163507891D01*
X124991057Y-163965417D01*
X124810313Y-164434510D01*
X124724814Y-164676474D01*
X124612908Y-165003183D01*
X124791653Y-164842042D01*
X125048535Y-164613049D01*
X125279276Y-164413191D01*
X125492891Y-164234927D01*
X125698393Y-164070719D01*
X125880750Y-163931051D01*
X126017970Y-163830098D01*
X126157634Y-163731175D01*
X126293364Y-163638404D01*
X126418783Y-163555907D01*
X126527510Y-163487806D01*
X126613169Y-163438223D01*
X126669380Y-163411279D01*
X126688882Y-163408816D01*
X126685592Y-163435558D01*
X126668941Y-163500574D01*
X126641669Y-163593955D01*
X126608296Y-163700293D01*
X126572572Y-163811669D01*
X126543450Y-163904119D01*
X126524033Y-163967680D01*
X126517400Y-163992217D01*
X126537343Y-164009956D01*
X126588491Y-164043832D01*
X126631700Y-164069958D01*
X126696131Y-164110891D01*
X126737488Y-164143267D01*
X126745794Y-164154921D01*
X126724504Y-164172720D01*
X126666333Y-164208854D01*
X126579591Y-164258451D01*
X126472587Y-164316640D01*
X126445566Y-164330946D01*
X126145544Y-164488992D01*
X125974603Y-164836922D01*
X125903401Y-164987412D01*
X125851024Y-165110022D01*
X125819622Y-165199319D01*
X125811281Y-165249345D01*
X125821173Y-165277048D01*
X125848148Y-165310125D01*
X125897514Y-165352730D01*
X125974579Y-165409017D01*
X126084651Y-165483141D01*
X126231570Y-165578318D01*
X126644240Y-165842798D01*
X126443950Y-166061949D01*
X126086711Y-166436985D01*
X125719647Y-166792074D01*
X125348851Y-167122048D01*
X124980413Y-167421737D01*
X124620425Y-167685969D01*
X124274980Y-167909575D01*
X124248513Y-167925341D01*
X123830118Y-168150463D01*
X123420147Y-168325633D01*
X123018539Y-168450832D01*
X122625232Y-168526040D01*
X122240166Y-168551236D01*
X121863278Y-168526399D01*
X121494508Y-168451510D01*
X121133794Y-168326548D01*
X120781075Y-168151493D01*
X120436290Y-167926324D01*
X120099378Y-167651021D01*
X119770276Y-167325564D01*
X119448925Y-166949932D01*
X119135262Y-166524105D01*
X118889814Y-166147271D01*
X118592903Y-165635566D01*
X118304224Y-165073956D01*
X118023817Y-164462670D01*
X117751723Y-163801938D01*
X117487983Y-163091991D01*
X117232637Y-162333058D01*
X116985728Y-161525369D01*
X116747294Y-160669154D01*
X116517378Y-159764644D01*
X116296021Y-158812067D01*
X116083262Y-157811654D01*
X115879143Y-156763635D01*
X115683704Y-155668239D01*
X115496987Y-154525697D01*
X115319032Y-153336239D01*
X115149880Y-152100094D01*
X114989573Y-150817492D01*
X114838150Y-149488664D01*
X114695652Y-148113839D01*
X114562121Y-146693247D01*
X114437598Y-145227118D01*
X114322122Y-143715682D01*
X114215735Y-142159169D01*
X114118478Y-140557809D01*
X114030392Y-138911831D01*
X114021597Y-138734800D01*
X113992639Y-138134675D01*
X113965377Y-137541919D01*
X113939637Y-136951449D01*
X113915243Y-136358185D01*
X113892019Y-135757044D01*
X113869791Y-135142943D01*
X113848382Y-134510800D01*
X113827618Y-133855532D01*
X113807323Y-133172059D01*
X113787322Y-132455296D01*
X113767440Y-131700163D01*
X113747500Y-130901576D01*
X113738556Y-130530600D01*
X113732785Y-130259877D01*
X113727452Y-129951578D01*
X113722553Y-129608480D01*
X113718085Y-129233358D01*
X113714042Y-128828989D01*
X113710422Y-128398149D01*
X113707221Y-127943615D01*
X113704435Y-127468162D01*
X113702060Y-126974566D01*
X113700092Y-126465604D01*
X113698527Y-125944053D01*
X113697362Y-125412687D01*
X113696593Y-124874284D01*
X113696215Y-124331619D01*
X113696226Y-123787469D01*
X113696621Y-123244610D01*
X113697396Y-122705819D01*
X113698548Y-122173870D01*
X113700072Y-121651541D01*
X113701966Y-121141607D01*
X113704224Y-120646846D01*
X113706844Y-120170032D01*
X113709822Y-119713943D01*
X113713152Y-119281354D01*
X113716833Y-118875042D01*
X113720860Y-118497782D01*
X113725229Y-118152352D01*
X113729936Y-117841526D01*
X113734977Y-117568082D01*
X113740349Y-117334796D01*
X113746048Y-117144443D01*
X113752070Y-116999800D01*
X113757331Y-116916200D01*
X113762596Y-116828008D01*
X113762624Y-116766008D01*
X113757518Y-116741176D01*
X113755720Y-116741787D01*
X113748842Y-116771410D01*
X113738728Y-116848177D01*
X113725653Y-116968555D01*
X113709896Y-117129010D01*
X113691733Y-117326007D01*
X113671440Y-117556012D01*
X113649294Y-117815493D01*
X113625572Y-118100914D01*
X113600551Y-118408742D01*
X113574507Y-118735443D01*
X113547718Y-119077483D01*
X113520460Y-119431328D01*
X113493009Y-119793444D01*
X113465643Y-120160297D01*
X113438638Y-120528353D01*
X113412272Y-120894079D01*
X113386820Y-121253940D01*
X113362559Y-121604402D01*
X113339767Y-121941932D01*
X113318720Y-122262995D01*
X113299695Y-122564058D01*
X113299470Y-122567700D01*
X113289021Y-122741064D01*
X113279629Y-122907494D01*
X113271190Y-123071139D01*
X113263603Y-123236147D01*
X113256765Y-123406665D01*
X113250573Y-123586840D01*
X113244924Y-123780821D01*
X113239716Y-123992755D01*
X113234846Y-124226790D01*
X113230211Y-124487073D01*
X113225710Y-124777753D01*
X113221239Y-125102976D01*
X113216695Y-125466891D01*
X113211977Y-125873645D01*
X113207398Y-126288800D01*
X113202969Y-126688908D01*
X113198261Y-127097837D01*
X113193350Y-127509818D01*
X113188312Y-127919083D01*
X113183223Y-128319864D01*
X113178159Y-128706391D01*
X113173196Y-129072896D01*
X113168410Y-129413611D01*
X113163877Y-129722766D01*
X113159674Y-129994593D01*
X113155875Y-130223324D01*
X113154706Y-130289300D01*
X113152481Y-130435734D01*
X113150240Y-130627793D01*
X113147993Y-130862193D01*
X113145749Y-131135651D01*
X113143519Y-131444884D01*
X113141312Y-131786609D01*
X113139138Y-132157542D01*
X113137007Y-132554399D01*
X113134930Y-132973898D01*
X113132915Y-133412756D01*
X113130973Y-133867688D01*
X113129114Y-134335411D01*
X113127347Y-134812643D01*
X113125683Y-135296100D01*
X113124132Y-135782498D01*
X113122703Y-136268554D01*
X113121407Y-136750985D01*
X113120252Y-137226508D01*
X113119250Y-137691839D01*
X113118410Y-138143695D01*
X113117742Y-138578792D01*
X113117256Y-138993848D01*
X113116961Y-139385579D01*
X113116869Y-139750701D01*
X113116988Y-140085931D01*
X113117328Y-140387986D01*
X113117900Y-140653583D01*
X113118713Y-140879438D01*
X113119778Y-141062269D01*
X113121103Y-141198790D01*
X113121659Y-141236700D01*
X113137665Y-142144653D01*
X113154766Y-143006571D01*
X113173107Y-143827213D01*
X113192835Y-144611335D01*
X113214094Y-145363695D01*
X113237029Y-146089050D01*
X113261786Y-146792157D01*
X113288511Y-147477773D01*
X113317349Y-148150655D01*
X113348445Y-148815562D01*
X113361158Y-149072600D01*
X113444448Y-150592781D01*
X113539207Y-152063600D01*
X113645462Y-153485191D01*
X113763243Y-154857687D01*
X113892578Y-156181222D01*
X114033497Y-157455929D01*
X114186027Y-158681941D01*
X114350198Y-159859393D01*
X114526039Y-160988418D01*
X114713578Y-162069149D01*
X114912843Y-163101719D01*
X115123865Y-164086263D01*
X115346671Y-165022913D01*
X115581290Y-165911804D01*
X115827751Y-166753068D01*
X116086083Y-167546839D01*
X116356314Y-168293251D01*
X116638474Y-168992437D01*
X116932590Y-169644531D01*
X117238692Y-170249666D01*
X117556809Y-170807975D01*
X117886969Y-171319593D01*
X118229201Y-171784652D01*
X118261570Y-171825450D01*
X118585803Y-172201278D01*
X118928974Y-172541764D01*
X119287282Y-172844082D01*
X119656925Y-173105408D01*
X120034101Y-173322916D01*
X120415009Y-173493782D01*
X120590529Y-173555972D01*
X121018630Y-173671638D01*
X121436985Y-173737706D01*
X121846176Y-173754056D01*
X122246785Y-173720570D01*
X122639394Y-173637127D01*
X123024585Y-173503609D01*
X123402941Y-173319897D01*
X123775042Y-173085872D01*
X124097870Y-172838142D01*
X124420466Y-172542792D01*
X124738938Y-172198351D01*
X125052296Y-171806432D01*
X125359551Y-171368647D01*
X125659713Y-170886609D01*
X125951795Y-170361930D01*
X126234805Y-169796223D01*
X126507755Y-169191100D01*
X126769655Y-168548173D01*
X126835221Y-168376600D01*
X126939812Y-168094539D01*
X126964758Y-168025155D01*
X126964758Y-165701623D01*
X126943290Y-165691087D01*
X126889435Y-165658906D01*
X126813341Y-165611214D01*
X126783611Y-165592172D01*
X126682295Y-165526984D01*
X126558171Y-165447199D01*
X126431196Y-165365640D01*
X126371350Y-165327225D01*
X126276668Y-165265412D01*
X126200239Y-165213511D01*
X126150764Y-165177564D01*
X126136400Y-165164107D01*
X126146837Y-165136923D01*
X126174352Y-165076730D01*
X126213254Y-164995932D01*
X126218052Y-164986181D01*
X126260578Y-164905509D01*
X126296873Y-164846581D01*
X126319769Y-164820902D01*
X126321218Y-164820600D01*
X126348282Y-164833787D01*
X126410989Y-164870526D01*
X126502451Y-164926589D01*
X126615780Y-164997749D01*
X126744089Y-165079774D01*
X126758793Y-165089260D01*
X127174854Y-165357920D01*
X127071724Y-165527410D01*
X127022708Y-165607778D01*
X126985238Y-165668861D01*
X126965941Y-165699866D01*
X126964758Y-165701623D01*
X126964758Y-168025155D01*
X127044459Y-167803477D01*
X127145491Y-167514129D01*
X127239236Y-167237206D01*
X127322022Y-166983423D01*
X127390178Y-166763491D01*
X127403510Y-166718440D01*
X127498552Y-166393780D01*
X127712826Y-166533825D01*
X127808022Y-166593333D01*
X127891168Y-166640378D01*
X127940359Y-166663772D01*
X127940359Y-166324496D01*
X127936467Y-166324414D01*
X127895583Y-166305576D01*
X127824939Y-166264711D01*
X127732326Y-166207090D01*
X127625534Y-166137983D01*
X127512354Y-166062661D01*
X127400575Y-165986396D01*
X127297987Y-165914459D01*
X127212382Y-165852121D01*
X127151549Y-165804652D01*
X127123278Y-165777323D01*
X127122427Y-165773616D01*
X127144770Y-165740055D01*
X127186530Y-165678081D01*
X127237171Y-165603317D01*
X127334642Y-165459744D01*
X127770571Y-165739468D01*
X127904424Y-165825821D01*
X128024685Y-165904282D01*
X128124386Y-165970234D01*
X128196560Y-166019060D01*
X128234241Y-166046145D01*
X128237024Y-166048546D01*
X128243854Y-166071781D01*
X128221587Y-166107745D01*
X128165321Y-166162794D01*
X128116451Y-166204900D01*
X128041257Y-166264273D01*
X127978743Y-166306672D01*
X127940359Y-166324496D01*
X127940359Y-166663772D01*
X127950902Y-166668787D01*
X127971374Y-166674336D01*
X128007095Y-166658452D01*
X128070912Y-166614937D01*
X128153560Y-166550585D01*
X128239245Y-166477950D01*
X128337621Y-166391659D01*
X128431085Y-166310231D01*
X128507833Y-166243921D01*
X128549548Y-166208409D01*
X128597918Y-166162579D01*
X128626948Y-166115068D01*
X128644236Y-166048493D01*
X128655022Y-165967109D01*
X128664920Y-165851322D01*
X128672196Y-165715863D01*
X128675096Y-165601650D01*
X128677506Y-165508917D01*
X128682726Y-165439687D01*
X128689735Y-165406173D01*
X128691529Y-165404800D01*
X128720602Y-165418128D01*
X128770849Y-165450530D01*
X128775321Y-165453693D01*
X128843984Y-165502585D01*
X129155220Y-165222188D01*
X129259521Y-165129509D01*
X129320692Y-165076796D01*
X129320692Y-164461995D01*
X128865196Y-164168893D01*
X128730594Y-164082215D01*
X128611415Y-164005349D01*
X128513923Y-163942344D01*
X128444383Y-163897250D01*
X128409058Y-163874117D01*
X128405924Y-163871945D01*
X128418073Y-163850430D01*
X128454271Y-163791423D01*
X128511190Y-163700226D01*
X128585502Y-163582139D01*
X128673880Y-163442463D01*
X128772995Y-163286498D01*
X128807018Y-163233100D01*
X128990735Y-162943078D01*
X129167994Y-162659609D01*
X129336805Y-162386092D01*
X129495178Y-162125927D01*
X129641123Y-161882512D01*
X129772651Y-161659247D01*
X129887770Y-161459530D01*
X129984491Y-161286761D01*
X130060824Y-161144339D01*
X130114779Y-161035662D01*
X130144367Y-160964130D01*
X130149600Y-160939910D01*
X130138899Y-160922712D01*
X130106165Y-160942368D01*
X130050451Y-160999992D01*
X129970812Y-161096695D01*
X129866303Y-161233590D01*
X129735977Y-161411789D01*
X129669188Y-161505004D01*
X129598337Y-161605966D01*
X129504250Y-161742399D01*
X129391333Y-161907730D01*
X129263992Y-162095386D01*
X129126633Y-162298794D01*
X128983661Y-162511380D01*
X128839484Y-162726571D01*
X128698505Y-162937794D01*
X128565133Y-163138476D01*
X128443771Y-163322043D01*
X128338827Y-163481922D01*
X128254706Y-163611540D01*
X128206500Y-163687218D01*
X128192739Y-163697306D01*
X128167163Y-163695113D01*
X128124507Y-163677849D01*
X128059504Y-163642728D01*
X127966888Y-163586963D01*
X127841393Y-163507766D01*
X127720443Y-163429968D01*
X127259785Y-163132276D01*
X127355707Y-162865188D01*
X127403907Y-162732836D01*
X127462835Y-162573804D01*
X127524788Y-162408750D01*
X127578389Y-162267900D01*
X127943197Y-161376349D01*
X128340383Y-160517190D01*
X128769025Y-159691661D01*
X129228203Y-158900998D01*
X129716997Y-158146437D01*
X130234485Y-157429216D01*
X130779748Y-156750570D01*
X131351864Y-156111736D01*
X131949914Y-155513951D01*
X132572977Y-154958451D01*
X133220132Y-154446473D01*
X133607516Y-154169018D01*
X133706226Y-154102557D01*
X133791076Y-154048414D01*
X133852680Y-154012381D01*
X133881011Y-154000200D01*
X133908525Y-154013379D01*
X133971122Y-154049783D01*
X134061446Y-154104717D01*
X134172141Y-154173484D01*
X134295852Y-154251389D01*
X134425223Y-154333735D01*
X134552899Y-154415827D01*
X134671523Y-154492968D01*
X134773740Y-154560462D01*
X134852195Y-154613613D01*
X134899532Y-154647725D01*
X134909939Y-154657103D01*
X134911194Y-154691626D01*
X134902312Y-154768455D01*
X134884675Y-154880419D01*
X134859667Y-155020349D01*
X134828673Y-155181072D01*
X134793076Y-155355420D01*
X134754261Y-155536222D01*
X134713610Y-155716307D01*
X134672508Y-155888505D01*
X134671430Y-155892878D01*
X134455972Y-156664422D01*
X134190869Y-157436015D01*
X133877234Y-158205636D01*
X133516180Y-158971267D01*
X133108819Y-159730890D01*
X132656265Y-160482485D01*
X132159630Y-161224034D01*
X131620027Y-161953518D01*
X131038568Y-162668918D01*
X130758162Y-162991800D01*
X130628042Y-163136579D01*
X130481505Y-163296210D01*
X130324687Y-163464303D01*
X130163721Y-163634468D01*
X130004743Y-163800316D01*
X129853886Y-163955457D01*
X129717285Y-164093501D01*
X129601076Y-164208058D01*
X129511391Y-164292738D01*
X129495474Y-164307039D01*
X129320692Y-164461995D01*
X129320692Y-165076796D01*
X129350401Y-165051194D01*
X129421401Y-164992615D01*
X129466059Y-164959145D01*
X129478265Y-164953598D01*
X129482338Y-164984730D01*
X129480178Y-165057087D01*
X129472704Y-165161600D01*
X129460833Y-165289200D01*
X129445485Y-165430820D01*
X129427577Y-165577389D01*
X129408028Y-165719839D01*
X129387756Y-165849101D01*
X129387312Y-165851712D01*
X129335633Y-166121644D01*
X129267314Y-166426430D01*
X129185292Y-166754049D01*
X129092501Y-167092476D01*
X129042891Y-167262301D01*
X129004508Y-167393696D01*
X128972935Y-167507089D01*
X128950408Y-167594002D01*
X128939164Y-167645959D01*
X128938788Y-167656854D01*
X128959602Y-167643487D01*
X129009611Y-167597749D01*
X129083842Y-167524860D01*
X129177323Y-167430041D01*
X129285081Y-167318514D01*
X129402142Y-167195500D01*
X129523535Y-167066220D01*
X129644286Y-166935895D01*
X129759423Y-166809746D01*
X129863973Y-166692994D01*
X129943083Y-166602390D01*
X130325583Y-166138366D01*
X130676527Y-165674115D01*
X130993914Y-165213027D01*
X131275745Y-164758491D01*
X131520019Y-164313897D01*
X131724736Y-163882635D01*
X131887897Y-163468096D01*
X131993575Y-163127091D01*
X132034507Y-162937914D01*
X132059688Y-162742163D01*
X132068929Y-162551286D01*
X132062040Y-162376733D01*
X132038831Y-162229954D01*
X132009903Y-162143462D01*
X131952506Y-162019024D01*
X132131921Y-161780327D01*
X132248721Y-161620918D01*
X132384355Y-161429169D01*
X132531323Y-161216182D01*
X132682128Y-160993061D01*
X132829270Y-160770908D01*
X132965251Y-160560826D01*
X133082574Y-160373917D01*
X133090378Y-160361197D01*
X133517146Y-159624022D01*
X133901469Y-158876326D01*
X134242397Y-158120891D01*
X134538979Y-157360500D01*
X134790265Y-156597936D01*
X134995306Y-155835982D01*
X135153150Y-155077421D01*
X135262848Y-154325036D01*
X135305501Y-153873200D01*
X135316609Y-153696026D01*
X135323959Y-153518547D01*
X135327510Y-153350058D01*
X135327219Y-153199851D01*
G36*
X113753900Y-116662200D02*
X113741200Y-116674900D01*
X113753900Y-116687600D01*
X113766600Y-116674900D01*
X113753900Y-116662200D01*
X113753900Y-116662200D01*
G37*
X113753900Y-116662200D02*
X113741200Y-116674900D01*
X113753900Y-116687600D01*
X113766600Y-116674900D01*
X113753900Y-116662200D01*
G36*
X121367550Y-158871768D02*
X121117842Y-158869795D01*
X120913782Y-158867834D01*
X120750222Y-158865584D01*
X120622012Y-158862744D01*
X120524002Y-158859012D01*
X120451043Y-158854086D01*
X120397985Y-158847665D01*
X120359677Y-158839447D01*
X120330971Y-158829130D01*
X120306717Y-158816413D01*
X120294400Y-158808905D01*
X120221556Y-158749825D01*
X120160445Y-158678243D01*
X120154700Y-158669205D01*
X120139072Y-158640221D01*
X120127011Y-158607167D01*
X120118060Y-158563435D01*
X120111760Y-158502419D01*
X120107653Y-158417513D01*
X120105280Y-158302109D01*
X120104182Y-158149600D01*
X120103901Y-157953381D01*
X120103900Y-157937200D01*
X120104140Y-157737539D01*
X120105162Y-157582069D01*
X120107427Y-157464185D01*
X120111393Y-157377280D01*
X120117517Y-157314747D01*
X120126260Y-157269979D01*
X120138078Y-157236370D01*
X120153432Y-157207313D01*
X120154700Y-157205196D01*
X120211893Y-157134239D01*
X120284910Y-157071693D01*
X120294400Y-157065496D01*
X120318367Y-157051438D01*
X120344159Y-157039935D01*
X120376926Y-157030684D01*
X120421817Y-157023384D01*
X120483982Y-157017733D01*
X120568570Y-157013430D01*
X120680733Y-157010173D01*
X120825618Y-157007660D01*
X121008377Y-157005589D01*
X121234158Y-157003660D01*
X121367550Y-157002633D01*
X122351800Y-156995165D01*
X122351800Y-156614269D01*
X120745250Y-156621685D01*
X120419697Y-156623228D01*
X120140986Y-156624718D01*
X119905160Y-156626293D01*
X119708263Y-156628092D01*
X119546337Y-156630255D01*
X119415425Y-156632921D01*
X119311571Y-156636229D01*
X119230817Y-156640318D01*
X119169206Y-156645328D01*
X119122782Y-156651398D01*
X119087586Y-156658667D01*
X119059662Y-156667274D01*
X119035054Y-156677359D01*
X119024400Y-156682233D01*
X118862358Y-156779972D01*
X118738558Y-156906725D01*
X118649536Y-157067049D01*
X118595760Y-157246301D01*
X118587308Y-157314237D01*
X118580239Y-157430316D01*
X118574623Y-157591899D01*
X118570532Y-157796347D01*
X118568034Y-158041019D01*
X118567200Y-158319451D01*
X118567200Y-159258000D01*
X118973600Y-159258000D01*
X118973600Y-158291985D01*
X118973794Y-158030667D01*
X118974745Y-157815118D01*
X118977006Y-157640304D01*
X118981129Y-157501195D01*
X118987669Y-157392759D01*
X118997179Y-157309963D01*
X119010211Y-157247776D01*
X119027319Y-157201167D01*
X119049056Y-157165104D01*
X119075976Y-157134554D01*
X119103677Y-157108869D01*
X119179602Y-157056803D01*
X119274953Y-157022459D01*
X119399707Y-157003455D01*
X119563842Y-156997407D01*
X119570349Y-156997400D01*
X119803916Y-156997400D01*
X119755609Y-157140492D01*
X119741177Y-157187363D01*
X119730068Y-157236543D01*
X119721955Y-157294864D01*
X119716510Y-157369159D01*
X119713405Y-157466258D01*
X119712313Y-157592996D01*
X119712905Y-157756205D01*
X119714855Y-157962716D01*
X119715101Y-157985042D01*
X119717597Y-158193271D01*
X119720269Y-158357383D01*
X119723653Y-158484058D01*
X119728284Y-158579978D01*
X119734695Y-158651822D01*
X119743422Y-158706273D01*
X119754999Y-158750010D01*
X119769961Y-158789716D01*
X119781620Y-158816228D01*
X119880997Y-158975790D01*
X120018773Y-159106630D01*
X120154700Y-159186897D01*
X120187360Y-159201377D01*
X120219791Y-159213285D01*
X120257164Y-159222912D01*
X120304652Y-159230551D01*
X120367427Y-159236497D01*
X120450659Y-159241041D01*
X120559521Y-159244476D01*
X120699185Y-159247096D01*
X120874823Y-159249194D01*
X121091605Y-159251062D01*
X121316750Y-159252722D01*
X122351800Y-159260143D01*
X122351800Y-158879236D01*
X121367550Y-158871768D01*
X121367550Y-158871768D01*
G37*
X121367550Y-158871768D02*
X121117842Y-158869795D01*
X120913782Y-158867834D01*
X120750222Y-158865584D01*
X120622012Y-158862744D01*
X120524002Y-158859012D01*
X120451043Y-158854086D01*
X120397985Y-158847665D01*
X120359677Y-158839447D01*
X120330971Y-158829130D01*
X120306717Y-158816413D01*
X120294400Y-158808905D01*
X120221556Y-158749825D01*
X120160445Y-158678243D01*
X120154700Y-158669205D01*
X120139072Y-158640221D01*
X120127011Y-158607167D01*
X120118060Y-158563435D01*
X120111760Y-158502419D01*
X120107653Y-158417513D01*
X120105280Y-158302109D01*
X120104182Y-158149600D01*
X120103901Y-157953381D01*
X120103900Y-157937200D01*
X120104140Y-157737539D01*
X120105162Y-157582069D01*
X120107427Y-157464185D01*
X120111393Y-157377280D01*
X120117517Y-157314747D01*
X120126260Y-157269979D01*
X120138078Y-157236370D01*
X120153432Y-157207313D01*
X120154700Y-157205196D01*
X120211893Y-157134239D01*
X120284910Y-157071693D01*
X120294400Y-157065496D01*
X120318367Y-157051438D01*
X120344159Y-157039935D01*
X120376926Y-157030684D01*
X120421817Y-157023384D01*
X120483982Y-157017733D01*
X120568570Y-157013430D01*
X120680733Y-157010173D01*
X120825618Y-157007660D01*
X121008377Y-157005589D01*
X121234158Y-157003660D01*
X121367550Y-157002633D01*
X122351800Y-156995165D01*
X122351800Y-156614269D01*
X120745250Y-156621685D01*
X120419697Y-156623228D01*
X120140986Y-156624718D01*
X119905160Y-156626293D01*
X119708263Y-156628092D01*
X119546337Y-156630255D01*
X119415425Y-156632921D01*
X119311571Y-156636229D01*
X119230817Y-156640318D01*
X119169206Y-156645328D01*
X119122782Y-156651398D01*
X119087586Y-156658667D01*
X119059662Y-156667274D01*
X119035054Y-156677359D01*
X119024400Y-156682233D01*
X118862358Y-156779972D01*
X118738558Y-156906725D01*
X118649536Y-157067049D01*
X118595760Y-157246301D01*
X118587308Y-157314237D01*
X118580239Y-157430316D01*
X118574623Y-157591899D01*
X118570532Y-157796347D01*
X118568034Y-158041019D01*
X118567200Y-158319451D01*
X118567200Y-159258000D01*
X118973600Y-159258000D01*
X118973600Y-158291985D01*
X118973794Y-158030667D01*
X118974745Y-157815118D01*
X118977006Y-157640304D01*
X118981129Y-157501195D01*
X118987669Y-157392759D01*
X118997179Y-157309963D01*
X119010211Y-157247776D01*
X119027319Y-157201167D01*
X119049056Y-157165104D01*
X119075976Y-157134554D01*
X119103677Y-157108869D01*
X119179602Y-157056803D01*
X119274953Y-157022459D01*
X119399707Y-157003455D01*
X119563842Y-156997407D01*
X119570349Y-156997400D01*
X119803916Y-156997400D01*
X119755609Y-157140492D01*
X119741177Y-157187363D01*
X119730068Y-157236543D01*
X119721955Y-157294864D01*
X119716510Y-157369159D01*
X119713405Y-157466258D01*
X119712313Y-157592996D01*
X119712905Y-157756205D01*
X119714855Y-157962716D01*
X119715101Y-157985042D01*
X119717597Y-158193271D01*
X119720269Y-158357383D01*
X119723653Y-158484058D01*
X119728284Y-158579978D01*
X119734695Y-158651822D01*
X119743422Y-158706273D01*
X119754999Y-158750010D01*
X119769961Y-158789716D01*
X119781620Y-158816228D01*
X119880997Y-158975790D01*
X120018773Y-159106630D01*
X120154700Y-159186897D01*
X120187360Y-159201377D01*
X120219791Y-159213285D01*
X120257164Y-159222912D01*
X120304652Y-159230551D01*
X120367427Y-159236497D01*
X120450659Y-159241041D01*
X120559521Y-159244476D01*
X120699185Y-159247096D01*
X120874823Y-159249194D01*
X121091605Y-159251062D01*
X121316750Y-159252722D01*
X122351800Y-159260143D01*
X122351800Y-158879236D01*
X121367550Y-158871768D01*
G36*
X121367550Y-122498968D02*
X121117842Y-122496995D01*
X120913782Y-122495034D01*
X120750222Y-122492784D01*
X120622012Y-122489944D01*
X120524002Y-122486212D01*
X120451043Y-122481286D01*
X120397985Y-122474865D01*
X120359677Y-122466647D01*
X120330971Y-122456330D01*
X120306717Y-122443613D01*
X120294400Y-122436105D01*
X120221556Y-122377025D01*
X120160445Y-122305443D01*
X120154700Y-122296405D01*
X120139072Y-122267421D01*
X120127011Y-122234367D01*
X120118060Y-122190635D01*
X120111760Y-122129619D01*
X120107653Y-122044713D01*
X120105280Y-121929309D01*
X120104182Y-121776800D01*
X120103901Y-121580581D01*
X120103900Y-121564400D01*
X120104140Y-121364739D01*
X120105162Y-121209269D01*
X120107427Y-121091385D01*
X120111393Y-121004480D01*
X120117517Y-120941947D01*
X120126260Y-120897179D01*
X120138078Y-120863570D01*
X120153432Y-120834513D01*
X120154700Y-120832396D01*
X120211893Y-120761439D01*
X120284910Y-120698893D01*
X120294400Y-120692696D01*
X120318367Y-120678638D01*
X120344159Y-120667135D01*
X120376926Y-120657884D01*
X120421817Y-120650584D01*
X120483982Y-120644933D01*
X120568570Y-120640630D01*
X120680733Y-120637373D01*
X120825618Y-120634860D01*
X121008377Y-120632789D01*
X121234158Y-120630860D01*
X121367550Y-120629833D01*
X122351800Y-120622365D01*
X122351800Y-120241469D01*
X120745250Y-120248885D01*
X120419697Y-120250428D01*
X120140986Y-120251918D01*
X119905160Y-120253493D01*
X119708263Y-120255292D01*
X119546337Y-120257455D01*
X119415425Y-120260121D01*
X119311571Y-120263429D01*
X119230817Y-120267518D01*
X119169206Y-120272528D01*
X119122782Y-120278598D01*
X119087586Y-120285867D01*
X119059662Y-120294474D01*
X119035054Y-120304559D01*
X119024400Y-120309433D01*
X118862358Y-120407172D01*
X118738558Y-120533925D01*
X118649536Y-120694249D01*
X118595760Y-120873501D01*
X118587308Y-120941437D01*
X118580239Y-121057516D01*
X118574623Y-121219099D01*
X118570532Y-121423547D01*
X118568034Y-121668219D01*
X118567200Y-121946651D01*
X118567200Y-122885200D01*
X118973600Y-122885200D01*
X118973600Y-121919185D01*
X118973794Y-121657867D01*
X118974745Y-121442318D01*
X118977006Y-121267504D01*
X118981129Y-121128395D01*
X118987669Y-121019959D01*
X118997179Y-120937163D01*
X119010211Y-120874976D01*
X119027319Y-120828367D01*
X119049056Y-120792304D01*
X119075976Y-120761754D01*
X119103677Y-120736069D01*
X119179602Y-120684003D01*
X119274953Y-120649659D01*
X119399707Y-120630655D01*
X119563842Y-120624607D01*
X119570349Y-120624600D01*
X119803916Y-120624600D01*
X119755609Y-120767692D01*
X119741177Y-120814563D01*
X119730068Y-120863743D01*
X119721955Y-120922064D01*
X119716510Y-120996359D01*
X119713405Y-121093458D01*
X119712313Y-121220196D01*
X119712905Y-121383405D01*
X119714855Y-121589916D01*
X119715101Y-121612242D01*
X119717597Y-121820471D01*
X119720269Y-121984583D01*
X119723653Y-122111258D01*
X119728284Y-122207178D01*
X119734695Y-122279022D01*
X119743422Y-122333473D01*
X119754999Y-122377210D01*
X119769961Y-122416916D01*
X119781620Y-122443428D01*
X119880997Y-122602990D01*
X120018773Y-122733830D01*
X120154700Y-122814097D01*
X120187360Y-122828577D01*
X120219791Y-122840485D01*
X120257164Y-122850112D01*
X120304652Y-122857751D01*
X120367427Y-122863697D01*
X120450659Y-122868241D01*
X120559521Y-122871676D01*
X120699185Y-122874296D01*
X120874823Y-122876394D01*
X121091605Y-122878262D01*
X121316750Y-122879922D01*
X122351800Y-122887343D01*
X122351800Y-122506436D01*
X121367550Y-122498968D01*
X121367550Y-122498968D01*
G37*
X121367550Y-122498968D02*
X121117842Y-122496995D01*
X120913782Y-122495034D01*
X120750222Y-122492784D01*
X120622012Y-122489944D01*
X120524002Y-122486212D01*
X120451043Y-122481286D01*
X120397985Y-122474865D01*
X120359677Y-122466647D01*
X120330971Y-122456330D01*
X120306717Y-122443613D01*
X120294400Y-122436105D01*
X120221556Y-122377025D01*
X120160445Y-122305443D01*
X120154700Y-122296405D01*
X120139072Y-122267421D01*
X120127011Y-122234367D01*
X120118060Y-122190635D01*
X120111760Y-122129619D01*
X120107653Y-122044713D01*
X120105280Y-121929309D01*
X120104182Y-121776800D01*
X120103901Y-121580581D01*
X120103900Y-121564400D01*
X120104140Y-121364739D01*
X120105162Y-121209269D01*
X120107427Y-121091385D01*
X120111393Y-121004480D01*
X120117517Y-120941947D01*
X120126260Y-120897179D01*
X120138078Y-120863570D01*
X120153432Y-120834513D01*
X120154700Y-120832396D01*
X120211893Y-120761439D01*
X120284910Y-120698893D01*
X120294400Y-120692696D01*
X120318367Y-120678638D01*
X120344159Y-120667135D01*
X120376926Y-120657884D01*
X120421817Y-120650584D01*
X120483982Y-120644933D01*
X120568570Y-120640630D01*
X120680733Y-120637373D01*
X120825618Y-120634860D01*
X121008377Y-120632789D01*
X121234158Y-120630860D01*
X121367550Y-120629833D01*
X122351800Y-120622365D01*
X122351800Y-120241469D01*
X120745250Y-120248885D01*
X120419697Y-120250428D01*
X120140986Y-120251918D01*
X119905160Y-120253493D01*
X119708263Y-120255292D01*
X119546337Y-120257455D01*
X119415425Y-120260121D01*
X119311571Y-120263429D01*
X119230817Y-120267518D01*
X119169206Y-120272528D01*
X119122782Y-120278598D01*
X119087586Y-120285867D01*
X119059662Y-120294474D01*
X119035054Y-120304559D01*
X119024400Y-120309433D01*
X118862358Y-120407172D01*
X118738558Y-120533925D01*
X118649536Y-120694249D01*
X118595760Y-120873501D01*
X118587308Y-120941437D01*
X118580239Y-121057516D01*
X118574623Y-121219099D01*
X118570532Y-121423547D01*
X118568034Y-121668219D01*
X118567200Y-121946651D01*
X118567200Y-122885200D01*
X118973600Y-122885200D01*
X118973600Y-121919185D01*
X118973794Y-121657867D01*
X118974745Y-121442318D01*
X118977006Y-121267504D01*
X118981129Y-121128395D01*
X118987669Y-121019959D01*
X118997179Y-120937163D01*
X119010211Y-120874976D01*
X119027319Y-120828367D01*
X119049056Y-120792304D01*
X119075976Y-120761754D01*
X119103677Y-120736069D01*
X119179602Y-120684003D01*
X119274953Y-120649659D01*
X119399707Y-120630655D01*
X119563842Y-120624607D01*
X119570349Y-120624600D01*
X119803916Y-120624600D01*
X119755609Y-120767692D01*
X119741177Y-120814563D01*
X119730068Y-120863743D01*
X119721955Y-120922064D01*
X119716510Y-120996359D01*
X119713405Y-121093458D01*
X119712313Y-121220196D01*
X119712905Y-121383405D01*
X119714855Y-121589916D01*
X119715101Y-121612242D01*
X119717597Y-121820471D01*
X119720269Y-121984583D01*
X119723653Y-122111258D01*
X119728284Y-122207178D01*
X119734695Y-122279022D01*
X119743422Y-122333473D01*
X119754999Y-122377210D01*
X119769961Y-122416916D01*
X119781620Y-122443428D01*
X119880997Y-122602990D01*
X120018773Y-122733830D01*
X120154700Y-122814097D01*
X120187360Y-122828577D01*
X120219791Y-122840485D01*
X120257164Y-122850112D01*
X120304652Y-122857751D01*
X120367427Y-122863697D01*
X120450659Y-122868241D01*
X120559521Y-122871676D01*
X120699185Y-122874296D01*
X120874823Y-122876394D01*
X121091605Y-122878262D01*
X121316750Y-122879922D01*
X122351800Y-122887343D01*
X122351800Y-122506436D01*
X121367550Y-122498968D01*
G36*
X119582352Y-143375990D02*
X119578373Y-143308501D01*
X119569115Y-143272466D01*
X119552430Y-143258214D01*
X119532400Y-143256000D01*
X119497388Y-143265945D01*
X119483261Y-143304767D01*
X119481600Y-143344900D01*
X119481600Y-143433800D01*
X119227600Y-143433800D01*
X119111875Y-143434544D01*
X119037776Y-143437961D01*
X118996141Y-143445831D01*
X118977806Y-143459931D01*
X118973604Y-143482041D01*
X118973600Y-143483101D01*
X118985350Y-143531785D01*
X118999179Y-143548211D01*
X119035401Y-143555341D01*
X119107974Y-143559829D01*
X119202479Y-143560869D01*
X119221429Y-143560615D01*
X119319540Y-143559206D01*
X119399460Y-143558585D01*
X119446201Y-143558859D01*
X119449850Y-143559006D01*
X119472637Y-143582682D01*
X119481600Y-143637000D01*
X119489584Y-143692777D01*
X119519287Y-143712414D01*
X119532400Y-143713200D01*
X119556536Y-143709381D01*
X119571534Y-143691476D01*
X119579542Y-143649817D01*
X119582709Y-143574735D01*
X119583200Y-143484600D01*
X119582352Y-143375990D01*
X119582352Y-143375990D01*
G37*
X119582352Y-143375990D02*
X119578373Y-143308501D01*
X119569115Y-143272466D01*
X119552430Y-143258214D01*
X119532400Y-143256000D01*
X119497388Y-143265945D01*
X119483261Y-143304767D01*
X119481600Y-143344900D01*
X119481600Y-143433800D01*
X119227600Y-143433800D01*
X119111875Y-143434544D01*
X119037776Y-143437961D01*
X118996141Y-143445831D01*
X118977806Y-143459931D01*
X118973604Y-143482041D01*
X118973600Y-143483101D01*
X118985350Y-143531785D01*
X118999179Y-143548211D01*
X119035401Y-143555341D01*
X119107974Y-143559829D01*
X119202479Y-143560869D01*
X119221429Y-143560615D01*
X119319540Y-143559206D01*
X119399460Y-143558585D01*
X119446201Y-143558859D01*
X119449850Y-143559006D01*
X119472637Y-143582682D01*
X119481600Y-143637000D01*
X119489584Y-143692777D01*
X119519287Y-143712414D01*
X119532400Y-143713200D01*
X119556536Y-143709381D01*
X119571534Y-143691476D01*
X119579542Y-143649817D01*
X119582709Y-143574735D01*
X119583200Y-143484600D01*
X119582352Y-143375990D01*
G36*
X119413077Y-142586878D02*
X119298368Y-142578029D01*
X119180518Y-142572029D01*
X119106950Y-142570381D01*
X119028051Y-142572902D01*
X118987817Y-142583586D01*
X118974262Y-142606696D01*
X118973600Y-142617825D01*
X118990299Y-142653674D01*
X119043473Y-142678363D01*
X119137737Y-142693136D01*
X119275225Y-142699206D01*
X119418100Y-142701211D01*
X119195850Y-142777522D01*
X119073082Y-142823041D01*
X118998021Y-142861160D01*
X118971077Y-142895118D01*
X118992658Y-142928151D01*
X119063170Y-142963497D01*
X119183023Y-143004393D01*
X119226084Y-143017461D01*
X119317094Y-143045641D01*
X119363199Y-143063257D01*
X119368608Y-143072724D01*
X119337528Y-143076462D01*
X119329200Y-143076695D01*
X119249787Y-143081031D01*
X119151069Y-143089764D01*
X119106950Y-143094659D01*
X119026596Y-143107847D01*
X118985891Y-143125978D01*
X118973683Y-143154344D01*
X118973600Y-143157938D01*
X118982678Y-143188112D01*
X119018271Y-143202069D01*
X119084068Y-143205200D01*
X119165772Y-143202966D01*
X119274763Y-143197102D01*
X119387763Y-143188866D01*
X119390191Y-143188662D01*
X119585846Y-143172123D01*
X119578173Y-143094065D01*
X119571298Y-143054818D01*
X119553163Y-143026764D01*
X119513616Y-143003118D01*
X119442506Y-142977097D01*
X119368139Y-142953721D01*
X119165777Y-142891436D01*
X119368139Y-142824082D01*
X119467447Y-142789756D01*
X119528212Y-142763350D01*
X119560485Y-142737967D01*
X119574315Y-142706710D01*
X119578177Y-142679961D01*
X119585853Y-142603194D01*
X119413077Y-142586878D01*
X119413077Y-142586878D01*
G37*
X119413077Y-142586878D02*
X119298368Y-142578029D01*
X119180518Y-142572029D01*
X119106950Y-142570381D01*
X119028051Y-142572902D01*
X118987817Y-142583586D01*
X118974262Y-142606696D01*
X118973600Y-142617825D01*
X118990299Y-142653674D01*
X119043473Y-142678363D01*
X119137737Y-142693136D01*
X119275225Y-142699206D01*
X119418100Y-142701211D01*
X119195850Y-142777522D01*
X119073082Y-142823041D01*
X118998021Y-142861160D01*
X118971077Y-142895118D01*
X118992658Y-142928151D01*
X119063170Y-142963497D01*
X119183023Y-143004393D01*
X119226084Y-143017461D01*
X119317094Y-143045641D01*
X119363199Y-143063257D01*
X119368608Y-143072724D01*
X119337528Y-143076462D01*
X119329200Y-143076695D01*
X119249787Y-143081031D01*
X119151069Y-143089764D01*
X119106950Y-143094659D01*
X119026596Y-143107847D01*
X118985891Y-143125978D01*
X118973683Y-143154344D01*
X118973600Y-143157938D01*
X118982678Y-143188112D01*
X119018271Y-143202069D01*
X119084068Y-143205200D01*
X119165772Y-143202966D01*
X119274763Y-143197102D01*
X119387763Y-143188866D01*
X119390191Y-143188662D01*
X119585846Y-143172123D01*
X119578173Y-143094065D01*
X119571298Y-143054818D01*
X119553163Y-143026764D01*
X119513616Y-143003118D01*
X119442506Y-142977097D01*
X119368139Y-142953721D01*
X119165777Y-142891436D01*
X119368139Y-142824082D01*
X119467447Y-142789756D01*
X119528212Y-142763350D01*
X119560485Y-142737967D01*
X119574315Y-142706710D01*
X119578177Y-142679961D01*
X119585853Y-142603194D01*
X119413077Y-142586878D01*
G36*
X123481416Y-160724983D02*
X123478594Y-160534488D01*
X123472487Y-160381847D01*
X123461943Y-160260593D01*
X123445814Y-160164257D01*
X123422949Y-160086372D01*
X123392199Y-160020470D01*
X123352413Y-159960082D01*
X123302443Y-159898741D01*
X123291187Y-159885859D01*
X123155262Y-159769598D01*
X122985266Y-159690126D01*
X122783011Y-159648274D01*
X122770159Y-159647003D01*
X122605800Y-159631655D01*
X122605800Y-160020000D01*
X122676619Y-160020000D01*
X122761796Y-160036674D01*
X122861023Y-160079418D01*
X122953522Y-160137315D01*
X123018520Y-160199451D01*
X123018750Y-160199766D01*
X123049174Y-160249648D01*
X123072483Y-160309738D01*
X123089541Y-160387036D01*
X123101213Y-160488538D01*
X123108361Y-160621241D01*
X123111851Y-160792144D01*
X123112589Y-160959800D01*
X123111118Y-161179374D01*
X123105482Y-161354576D01*
X123093847Y-161491783D01*
X123074377Y-161597368D01*
X123045237Y-161677707D01*
X123004592Y-161739175D01*
X122950608Y-161788148D01*
X122881448Y-161831001D01*
X122858314Y-161843182D01*
X122745500Y-161901063D01*
X121564400Y-161893982D01*
X121288199Y-161892243D01*
X121058181Y-161890493D01*
X120869730Y-161888521D01*
X120718230Y-161886116D01*
X120599064Y-161883066D01*
X120507617Y-161879161D01*
X120439271Y-161874189D01*
X120389411Y-161867939D01*
X120353421Y-161860200D01*
X120326684Y-161850761D01*
X120304584Y-161839410D01*
X120298996Y-161836100D01*
X120228039Y-161778908D01*
X120165493Y-161705891D01*
X120159296Y-161696400D01*
X120142323Y-161667064D01*
X120129222Y-161635846D01*
X120119492Y-161596100D01*
X120112633Y-161541181D01*
X120108146Y-161464440D01*
X120105531Y-161359232D01*
X120104288Y-161218909D01*
X120103917Y-161036825D01*
X120103900Y-160959800D01*
X120104080Y-160761062D01*
X120104952Y-160606476D01*
X120107015Y-160489397D01*
X120110771Y-160403177D01*
X120116719Y-160341170D01*
X120125358Y-160296729D01*
X120137189Y-160263208D01*
X120152711Y-160233960D01*
X120159296Y-160223200D01*
X120250652Y-160119810D01*
X120373828Y-160054051D01*
X120482806Y-160029049D01*
X120599200Y-160013096D01*
X120599200Y-159632045D01*
X120438896Y-159644913D01*
X120238226Y-159683235D01*
X120062985Y-159762156D01*
X119917770Y-159878628D01*
X119807180Y-160029602D01*
X119781620Y-160080773D01*
X119764328Y-160120983D01*
X119750743Y-160160687D01*
X119740359Y-160206498D01*
X119732675Y-160265030D01*
X119727184Y-160342897D01*
X119723383Y-160446714D01*
X119720768Y-160583093D01*
X119718834Y-160758650D01*
X119717515Y-160921700D01*
X119716484Y-161156287D01*
X119717425Y-161344786D01*
X119720493Y-161491876D01*
X119725849Y-161602236D01*
X119733649Y-161680547D01*
X119744053Y-161731488D01*
X119744996Y-161734500D01*
X119827373Y-161920654D01*
X119941805Y-162067689D01*
X120089217Y-162176629D01*
X120182549Y-162219860D01*
X120213039Y-162230611D01*
X120247012Y-162239633D01*
X120288956Y-162247078D01*
X120343358Y-162253094D01*
X120414707Y-162257834D01*
X120507490Y-162261446D01*
X120626196Y-162264083D01*
X120775311Y-162265893D01*
X120959324Y-162267029D01*
X121182723Y-162267639D01*
X121449996Y-162267876D01*
X121615200Y-162267900D01*
X122923300Y-162267900D01*
X123057607Y-162207211D01*
X123201814Y-162116498D01*
X123325569Y-161989310D01*
X123416463Y-161839333D01*
X123436280Y-161789632D01*
X123450183Y-161744232D01*
X123461009Y-161692790D01*
X123469130Y-161628611D01*
X123474913Y-161544998D01*
X123478729Y-161435257D01*
X123480948Y-161292692D01*
X123481939Y-161110606D01*
X123482100Y-160959800D01*
X123481416Y-160724983D01*
X123481416Y-160724983D01*
G37*
X123481416Y-160724983D02*
X123478594Y-160534488D01*
X123472487Y-160381847D01*
X123461943Y-160260593D01*
X123445814Y-160164257D01*
X123422949Y-160086372D01*
X123392199Y-160020470D01*
X123352413Y-159960082D01*
X123302443Y-159898741D01*
X123291187Y-159885859D01*
X123155262Y-159769598D01*
X122985266Y-159690126D01*
X122783011Y-159648274D01*
X122770159Y-159647003D01*
X122605800Y-159631655D01*
X122605800Y-160020000D01*
X122676619Y-160020000D01*
X122761796Y-160036674D01*
X122861023Y-160079418D01*
X122953522Y-160137315D01*
X123018520Y-160199451D01*
X123018750Y-160199766D01*
X123049174Y-160249648D01*
X123072483Y-160309738D01*
X123089541Y-160387036D01*
X123101213Y-160488538D01*
X123108361Y-160621241D01*
X123111851Y-160792144D01*
X123112589Y-160959800D01*
X123111118Y-161179374D01*
X123105482Y-161354576D01*
X123093847Y-161491783D01*
X123074377Y-161597368D01*
X123045237Y-161677707D01*
X123004592Y-161739175D01*
X122950608Y-161788148D01*
X122881448Y-161831001D01*
X122858314Y-161843182D01*
X122745500Y-161901063D01*
X121564400Y-161893982D01*
X121288199Y-161892243D01*
X121058181Y-161890493D01*
X120869730Y-161888521D01*
X120718230Y-161886116D01*
X120599064Y-161883066D01*
X120507617Y-161879161D01*
X120439271Y-161874189D01*
X120389411Y-161867939D01*
X120353421Y-161860200D01*
X120326684Y-161850761D01*
X120304584Y-161839410D01*
X120298996Y-161836100D01*
X120228039Y-161778908D01*
X120165493Y-161705891D01*
X120159296Y-161696400D01*
X120142323Y-161667064D01*
X120129222Y-161635846D01*
X120119492Y-161596100D01*
X120112633Y-161541181D01*
X120108146Y-161464440D01*
X120105531Y-161359232D01*
X120104288Y-161218909D01*
X120103917Y-161036825D01*
X120103900Y-160959800D01*
X120104080Y-160761062D01*
X120104952Y-160606476D01*
X120107015Y-160489397D01*
X120110771Y-160403177D01*
X120116719Y-160341170D01*
X120125358Y-160296729D01*
X120137189Y-160263208D01*
X120152711Y-160233960D01*
X120159296Y-160223200D01*
X120250652Y-160119810D01*
X120373828Y-160054051D01*
X120482806Y-160029049D01*
X120599200Y-160013096D01*
X120599200Y-159632045D01*
X120438896Y-159644913D01*
X120238226Y-159683235D01*
X120062985Y-159762156D01*
X119917770Y-159878628D01*
X119807180Y-160029602D01*
X119781620Y-160080773D01*
X119764328Y-160120983D01*
X119750743Y-160160687D01*
X119740359Y-160206498D01*
X119732675Y-160265030D01*
X119727184Y-160342897D01*
X119723383Y-160446714D01*
X119720768Y-160583093D01*
X119718834Y-160758650D01*
X119717515Y-160921700D01*
X119716484Y-161156287D01*
X119717425Y-161344786D01*
X119720493Y-161491876D01*
X119725849Y-161602236D01*
X119733649Y-161680547D01*
X119744053Y-161731488D01*
X119744996Y-161734500D01*
X119827373Y-161920654D01*
X119941805Y-162067689D01*
X120089217Y-162176629D01*
X120182549Y-162219860D01*
X120213039Y-162230611D01*
X120247012Y-162239633D01*
X120288956Y-162247078D01*
X120343358Y-162253094D01*
X120414707Y-162257834D01*
X120507490Y-162261446D01*
X120626196Y-162264083D01*
X120775311Y-162265893D01*
X120959324Y-162267029D01*
X121182723Y-162267639D01*
X121449996Y-162267876D01*
X121615200Y-162267900D01*
X122923300Y-162267900D01*
X123057607Y-162207211D01*
X123201814Y-162116498D01*
X123325569Y-161989310D01*
X123416463Y-161839333D01*
X123436280Y-161789632D01*
X123450183Y-161744232D01*
X123461009Y-161692790D01*
X123469130Y-161628611D01*
X123474913Y-161544998D01*
X123478729Y-161435257D01*
X123480948Y-161292692D01*
X123481939Y-161110606D01*
X123482100Y-160959800D01*
X123481416Y-160724983D01*
G36*
X122354582Y-154823533D02*
X122351092Y-154638211D01*
X122344495Y-154468215D01*
X122334779Y-154322978D01*
X122321935Y-154211934D01*
X122312627Y-154165278D01*
X122257272Y-154017565D01*
X122176396Y-153885334D01*
X122098834Y-153801841D01*
X122005203Y-153741683D01*
X121880237Y-153687532D01*
X121743385Y-153646628D01*
X121630387Y-153627504D01*
X121462800Y-153611855D01*
X121462800Y-153993296D01*
X121579195Y-154009249D01*
X121727087Y-154049441D01*
X121840758Y-154125824D01*
X121902705Y-154203400D01*
X121919678Y-154232737D01*
X121932779Y-154263955D01*
X121942509Y-154303701D01*
X121949368Y-154358620D01*
X121953855Y-154435361D01*
X121956470Y-154540569D01*
X121957713Y-154680892D01*
X121958084Y-154862976D01*
X121958100Y-154940000D01*
X121957921Y-155138739D01*
X121957049Y-155293325D01*
X121954986Y-155410404D01*
X121951230Y-155496624D01*
X121945282Y-155558631D01*
X121936643Y-155603072D01*
X121924812Y-155636593D01*
X121909290Y-155665841D01*
X121902705Y-155676600D01*
X121843625Y-155749445D01*
X121772043Y-155810556D01*
X121763005Y-155816300D01*
X121734021Y-155831929D01*
X121700967Y-155843990D01*
X121657235Y-155852941D01*
X121596219Y-155859241D01*
X121511313Y-155863348D01*
X121395909Y-155865721D01*
X121243400Y-155866819D01*
X121047181Y-155867100D01*
X121031000Y-155867100D01*
X120831339Y-155866861D01*
X120675869Y-155865839D01*
X120557985Y-155863574D01*
X120471080Y-155859608D01*
X120408547Y-155853484D01*
X120363779Y-155844741D01*
X120330170Y-155832923D01*
X120301113Y-155817569D01*
X120298996Y-155816300D01*
X120228039Y-155759108D01*
X120165493Y-155686091D01*
X120159296Y-155676600D01*
X120142323Y-155647264D01*
X120129222Y-155616046D01*
X120119492Y-155576300D01*
X120112633Y-155521381D01*
X120108146Y-155444640D01*
X120105531Y-155339432D01*
X120104288Y-155199109D01*
X120103917Y-155017025D01*
X120103900Y-154940000D01*
X120104080Y-154741262D01*
X120104952Y-154586676D01*
X120107015Y-154469597D01*
X120110771Y-154383377D01*
X120116719Y-154321370D01*
X120125358Y-154276929D01*
X120137189Y-154243408D01*
X120152711Y-154214160D01*
X120159296Y-154203400D01*
X120250652Y-154100010D01*
X120373828Y-154034251D01*
X120482806Y-154009249D01*
X120599200Y-153993296D01*
X120599200Y-153612245D01*
X120438896Y-153625113D01*
X120238226Y-153663435D01*
X120062985Y-153742356D01*
X119917770Y-153858828D01*
X119807180Y-154009802D01*
X119781620Y-154060973D01*
X119764328Y-154101183D01*
X119750743Y-154140887D01*
X119740359Y-154186698D01*
X119732675Y-154245230D01*
X119727184Y-154323097D01*
X119723383Y-154426914D01*
X119720768Y-154563293D01*
X119718834Y-154738850D01*
X119717515Y-154901900D01*
X119716484Y-155136487D01*
X119717425Y-155324986D01*
X119720493Y-155472076D01*
X119725849Y-155582436D01*
X119733649Y-155660747D01*
X119744053Y-155711688D01*
X119744996Y-155714700D01*
X119822243Y-155894272D01*
X119927689Y-156035015D01*
X120067199Y-156143728D01*
X120154700Y-156189649D01*
X120194792Y-156207087D01*
X120234829Y-156220773D01*
X120281523Y-156231249D01*
X120341586Y-156239059D01*
X120421729Y-156244745D01*
X120528664Y-156248849D01*
X120669103Y-156251914D01*
X120849756Y-156254482D01*
X120974891Y-156255950D01*
X121193917Y-156257908D01*
X121368623Y-156258108D01*
X121505465Y-156256311D01*
X121610898Y-156252276D01*
X121691380Y-156245762D01*
X121753367Y-156236530D01*
X121800391Y-156225200D01*
X121984847Y-156149574D01*
X122130995Y-156040890D01*
X122240181Y-155897836D01*
X122310864Y-155729028D01*
X122325795Y-155649856D01*
X122337682Y-155529409D01*
X122346515Y-155377119D01*
X122352283Y-155202421D01*
X122354976Y-155014748D01*
X122354582Y-154823533D01*
X122354582Y-154823533D01*
G37*
X122354582Y-154823533D02*
X122351092Y-154638211D01*
X122344495Y-154468215D01*
X122334779Y-154322978D01*
X122321935Y-154211934D01*
X122312627Y-154165278D01*
X122257272Y-154017565D01*
X122176396Y-153885334D01*
X122098834Y-153801841D01*
X122005203Y-153741683D01*
X121880237Y-153687532D01*
X121743385Y-153646628D01*
X121630387Y-153627504D01*
X121462800Y-153611855D01*
X121462800Y-153993296D01*
X121579195Y-154009249D01*
X121727087Y-154049441D01*
X121840758Y-154125824D01*
X121902705Y-154203400D01*
X121919678Y-154232737D01*
X121932779Y-154263955D01*
X121942509Y-154303701D01*
X121949368Y-154358620D01*
X121953855Y-154435361D01*
X121956470Y-154540569D01*
X121957713Y-154680892D01*
X121958084Y-154862976D01*
X121958100Y-154940000D01*
X121957921Y-155138739D01*
X121957049Y-155293325D01*
X121954986Y-155410404D01*
X121951230Y-155496624D01*
X121945282Y-155558631D01*
X121936643Y-155603072D01*
X121924812Y-155636593D01*
X121909290Y-155665841D01*
X121902705Y-155676600D01*
X121843625Y-155749445D01*
X121772043Y-155810556D01*
X121763005Y-155816300D01*
X121734021Y-155831929D01*
X121700967Y-155843990D01*
X121657235Y-155852941D01*
X121596219Y-155859241D01*
X121511313Y-155863348D01*
X121395909Y-155865721D01*
X121243400Y-155866819D01*
X121047181Y-155867100D01*
X121031000Y-155867100D01*
X120831339Y-155866861D01*
X120675869Y-155865839D01*
X120557985Y-155863574D01*
X120471080Y-155859608D01*
X120408547Y-155853484D01*
X120363779Y-155844741D01*
X120330170Y-155832923D01*
X120301113Y-155817569D01*
X120298996Y-155816300D01*
X120228039Y-155759108D01*
X120165493Y-155686091D01*
X120159296Y-155676600D01*
X120142323Y-155647264D01*
X120129222Y-155616046D01*
X120119492Y-155576300D01*
X120112633Y-155521381D01*
X120108146Y-155444640D01*
X120105531Y-155339432D01*
X120104288Y-155199109D01*
X120103917Y-155017025D01*
X120103900Y-154940000D01*
X120104080Y-154741262D01*
X120104952Y-154586676D01*
X120107015Y-154469597D01*
X120110771Y-154383377D01*
X120116719Y-154321370D01*
X120125358Y-154276929D01*
X120137189Y-154243408D01*
X120152711Y-154214160D01*
X120159296Y-154203400D01*
X120250652Y-154100010D01*
X120373828Y-154034251D01*
X120482806Y-154009249D01*
X120599200Y-153993296D01*
X120599200Y-153612245D01*
X120438896Y-153625113D01*
X120238226Y-153663435D01*
X120062985Y-153742356D01*
X119917770Y-153858828D01*
X119807180Y-154009802D01*
X119781620Y-154060973D01*
X119764328Y-154101183D01*
X119750743Y-154140887D01*
X119740359Y-154186698D01*
X119732675Y-154245230D01*
X119727184Y-154323097D01*
X119723383Y-154426914D01*
X119720768Y-154563293D01*
X119718834Y-154738850D01*
X119717515Y-154901900D01*
X119716484Y-155136487D01*
X119717425Y-155324986D01*
X119720493Y-155472076D01*
X119725849Y-155582436D01*
X119733649Y-155660747D01*
X119744053Y-155711688D01*
X119744996Y-155714700D01*
X119822243Y-155894272D01*
X119927689Y-156035015D01*
X120067199Y-156143728D01*
X120154700Y-156189649D01*
X120194792Y-156207087D01*
X120234829Y-156220773D01*
X120281523Y-156231249D01*
X120341586Y-156239059D01*
X120421729Y-156244745D01*
X120528664Y-156248849D01*
X120669103Y-156251914D01*
X120849756Y-156254482D01*
X120974891Y-156255950D01*
X121193917Y-156257908D01*
X121368623Y-156258108D01*
X121505465Y-156256311D01*
X121610898Y-156252276D01*
X121691380Y-156245762D01*
X121753367Y-156236530D01*
X121800391Y-156225200D01*
X121984847Y-156149574D01*
X122130995Y-156040890D01*
X122240181Y-155897836D01*
X122310864Y-155729028D01*
X122325795Y-155649856D01*
X122337682Y-155529409D01*
X122346515Y-155377119D01*
X122352283Y-155202421D01*
X122354976Y-155014748D01*
X122354582Y-154823533D01*
G36*
X119710200Y-152857200D02*
X119710200Y-153238200D01*
X123494800Y-153238200D01*
X123494800Y-152857200D01*
X119710200Y-152857200D01*
X119710200Y-152857200D01*
G37*
X119710200Y-152857200D02*
X119710200Y-153238200D01*
X123494800Y-153238200D01*
X123494800Y-152857200D01*
X119710200Y-152857200D01*
G36*
X122350807Y-150921709D02*
X122347192Y-150732237D01*
X122340004Y-150580430D01*
X122328292Y-150459734D01*
X122311105Y-150363597D01*
X122287491Y-150285464D01*
X122256500Y-150218782D01*
X122217181Y-150156998D01*
X122204339Y-150139400D01*
X122147215Y-150067484D01*
X122093917Y-150015875D01*
X122028182Y-149971777D01*
X121933750Y-149922392D01*
X121920000Y-149915641D01*
X121780300Y-149847300D01*
X121043700Y-149847300D01*
X120827120Y-149847571D01*
X120654897Y-149848625D01*
X120520590Y-149850824D01*
X120417758Y-149854529D01*
X120339961Y-149860102D01*
X120280757Y-149867904D01*
X120233705Y-149878298D01*
X120192366Y-149891644D01*
X120181590Y-149895707D01*
X120029934Y-149979069D01*
X119897082Y-150099626D01*
X119797168Y-150243993D01*
X119782928Y-150273333D01*
X119765266Y-150314223D01*
X119751391Y-150354049D01*
X119740788Y-150399442D01*
X119732941Y-150457035D01*
X119727336Y-150533459D01*
X119723457Y-150635347D01*
X119720789Y-150769330D01*
X119718816Y-150942040D01*
X119717355Y-151117300D01*
X119716263Y-151351016D01*
X119717125Y-151538740D01*
X119720102Y-151685248D01*
X119725355Y-151795316D01*
X119733045Y-151873722D01*
X119743335Y-151925242D01*
X119744836Y-151930100D01*
X119822208Y-152109601D01*
X119927449Y-152250174D01*
X120066518Y-152358726D01*
X120154700Y-152405049D01*
X120194792Y-152422487D01*
X120234829Y-152436173D01*
X120281523Y-152446649D01*
X120341586Y-152454459D01*
X120421729Y-152460145D01*
X120528664Y-152464249D01*
X120669103Y-152467314D01*
X120849756Y-152469882D01*
X120974891Y-152471350D01*
X121054731Y-152472092D01*
X121054731Y-152095059D01*
X120883637Y-152093865D01*
X120724393Y-152090603D01*
X120585847Y-152085624D01*
X120476850Y-152079279D01*
X120406248Y-152071917D01*
X120390700Y-152068755D01*
X120286786Y-152018532D01*
X120194199Y-151936422D01*
X120129895Y-151838674D01*
X120118371Y-151807794D01*
X120111723Y-151759967D01*
X120106186Y-151669570D01*
X120101990Y-151544824D01*
X120099367Y-151393950D01*
X120098545Y-151225171D01*
X120099024Y-151117300D01*
X120100788Y-150924775D01*
X120103010Y-150776135D01*
X120106285Y-150664467D01*
X120111211Y-150582856D01*
X120118385Y-150524388D01*
X120128403Y-150482150D01*
X120141861Y-150449227D01*
X120159296Y-150418800D01*
X120218376Y-150345956D01*
X120289958Y-150284845D01*
X120298996Y-150279100D01*
X120327980Y-150263472D01*
X120361034Y-150251411D01*
X120404766Y-150242460D01*
X120465782Y-150236160D01*
X120550688Y-150232053D01*
X120666092Y-150229680D01*
X120818601Y-150228582D01*
X121014820Y-150228301D01*
X121031000Y-150228300D01*
X121229242Y-150228436D01*
X121383376Y-150229201D01*
X121500097Y-150231131D01*
X121586097Y-150234763D01*
X121648070Y-150240633D01*
X121692709Y-150249278D01*
X121726707Y-150261235D01*
X121756757Y-150277040D01*
X121774566Y-150287903D01*
X121827123Y-150322375D01*
X121868559Y-150357140D01*
X121900193Y-150398435D01*
X121923347Y-150452499D01*
X121939339Y-150525573D01*
X121949491Y-150623894D01*
X121955121Y-150753703D01*
X121957550Y-150921237D01*
X121958098Y-151132736D01*
X121958100Y-151155400D01*
X121957950Y-151353799D01*
X121957149Y-151508077D01*
X121955173Y-151624911D01*
X121951500Y-151710982D01*
X121945606Y-151772966D01*
X121936967Y-151817544D01*
X121925059Y-151851393D01*
X121909360Y-151881191D01*
X121899993Y-151896548D01*
X121829410Y-151977093D01*
X121736861Y-152040808D01*
X121733223Y-152042598D01*
X121694220Y-152059790D01*
X121652719Y-152072783D01*
X121601239Y-152082157D01*
X121532299Y-152088490D01*
X121438418Y-152092360D01*
X121312116Y-152094346D01*
X121145912Y-152095025D01*
X121054731Y-152095059D01*
X121054731Y-152472092D01*
X121190111Y-152473351D01*
X121361346Y-152473744D01*
X121495389Y-152472254D01*
X121599036Y-152468603D01*
X121679085Y-152462516D01*
X121742330Y-152453717D01*
X121795567Y-152441927D01*
X121812246Y-152437291D01*
X121992810Y-152362364D01*
X122136276Y-152252856D01*
X122243709Y-152107714D01*
X122310864Y-151944428D01*
X122324146Y-151890146D01*
X122334359Y-151823349D01*
X122341856Y-151737237D01*
X122346988Y-151625010D01*
X122350109Y-151479869D01*
X122351572Y-151295014D01*
X122351800Y-151155400D01*
X122350807Y-150921709D01*
X122350807Y-150921709D01*
G37*
X122350807Y-150921709D02*
X122347192Y-150732237D01*
X122340004Y-150580430D01*
X122328292Y-150459734D01*
X122311105Y-150363597D01*
X122287491Y-150285464D01*
X122256500Y-150218782D01*
X122217181Y-150156998D01*
X122204339Y-150139400D01*
X122147215Y-150067484D01*
X122093917Y-150015875D01*
X122028182Y-149971777D01*
X121933750Y-149922392D01*
X121920000Y-149915641D01*
X121780300Y-149847300D01*
X121043700Y-149847300D01*
X120827120Y-149847571D01*
X120654897Y-149848625D01*
X120520590Y-149850824D01*
X120417758Y-149854529D01*
X120339961Y-149860102D01*
X120280757Y-149867904D01*
X120233705Y-149878298D01*
X120192366Y-149891644D01*
X120181590Y-149895707D01*
X120029934Y-149979069D01*
X119897082Y-150099626D01*
X119797168Y-150243993D01*
X119782928Y-150273333D01*
X119765266Y-150314223D01*
X119751391Y-150354049D01*
X119740788Y-150399442D01*
X119732941Y-150457035D01*
X119727336Y-150533459D01*
X119723457Y-150635347D01*
X119720789Y-150769330D01*
X119718816Y-150942040D01*
X119717355Y-151117300D01*
X119716263Y-151351016D01*
X119717125Y-151538740D01*
X119720102Y-151685248D01*
X119725355Y-151795316D01*
X119733045Y-151873722D01*
X119743335Y-151925242D01*
X119744836Y-151930100D01*
X119822208Y-152109601D01*
X119927449Y-152250174D01*
X120066518Y-152358726D01*
X120154700Y-152405049D01*
X120194792Y-152422487D01*
X120234829Y-152436173D01*
X120281523Y-152446649D01*
X120341586Y-152454459D01*
X120421729Y-152460145D01*
X120528664Y-152464249D01*
X120669103Y-152467314D01*
X120849756Y-152469882D01*
X120974891Y-152471350D01*
X121054731Y-152472092D01*
X121054731Y-152095059D01*
X120883637Y-152093865D01*
X120724393Y-152090603D01*
X120585847Y-152085624D01*
X120476850Y-152079279D01*
X120406248Y-152071917D01*
X120390700Y-152068755D01*
X120286786Y-152018532D01*
X120194199Y-151936422D01*
X120129895Y-151838674D01*
X120118371Y-151807794D01*
X120111723Y-151759967D01*
X120106186Y-151669570D01*
X120101990Y-151544824D01*
X120099367Y-151393950D01*
X120098545Y-151225171D01*
X120099024Y-151117300D01*
X120100788Y-150924775D01*
X120103010Y-150776135D01*
X120106285Y-150664467D01*
X120111211Y-150582856D01*
X120118385Y-150524388D01*
X120128403Y-150482150D01*
X120141861Y-150449227D01*
X120159296Y-150418800D01*
X120218376Y-150345956D01*
X120289958Y-150284845D01*
X120298996Y-150279100D01*
X120327980Y-150263472D01*
X120361034Y-150251411D01*
X120404766Y-150242460D01*
X120465782Y-150236160D01*
X120550688Y-150232053D01*
X120666092Y-150229680D01*
X120818601Y-150228582D01*
X121014820Y-150228301D01*
X121031000Y-150228300D01*
X121229242Y-150228436D01*
X121383376Y-150229201D01*
X121500097Y-150231131D01*
X121586097Y-150234763D01*
X121648070Y-150240633D01*
X121692709Y-150249278D01*
X121726707Y-150261235D01*
X121756757Y-150277040D01*
X121774566Y-150287903D01*
X121827123Y-150322375D01*
X121868559Y-150357140D01*
X121900193Y-150398435D01*
X121923347Y-150452499D01*
X121939339Y-150525573D01*
X121949491Y-150623894D01*
X121955121Y-150753703D01*
X121957550Y-150921237D01*
X121958098Y-151132736D01*
X121958100Y-151155400D01*
X121957950Y-151353799D01*
X121957149Y-151508077D01*
X121955173Y-151624911D01*
X121951500Y-151710982D01*
X121945606Y-151772966D01*
X121936967Y-151817544D01*
X121925059Y-151851393D01*
X121909360Y-151881191D01*
X121899993Y-151896548D01*
X121829410Y-151977093D01*
X121736861Y-152040808D01*
X121733223Y-152042598D01*
X121694220Y-152059790D01*
X121652719Y-152072783D01*
X121601239Y-152082157D01*
X121532299Y-152088490D01*
X121438418Y-152092360D01*
X121312116Y-152094346D01*
X121145912Y-152095025D01*
X121054731Y-152095059D01*
X121054731Y-152472092D01*
X121190111Y-152473351D01*
X121361346Y-152473744D01*
X121495389Y-152472254D01*
X121599036Y-152468603D01*
X121679085Y-152462516D01*
X121742330Y-152453717D01*
X121795567Y-152441927D01*
X121812246Y-152437291D01*
X121992810Y-152362364D01*
X122136276Y-152252856D01*
X122243709Y-152107714D01*
X122310864Y-151944428D01*
X122324146Y-151890146D01*
X122334359Y-151823349D01*
X122341856Y-151737237D01*
X122346988Y-151625010D01*
X122350109Y-151479869D01*
X122351572Y-151295014D01*
X122351800Y-151155400D01*
X122350807Y-150921709D01*
G36*
X122346514Y-148570950D02*
X122344162Y-148334574D01*
X122341750Y-148143031D01*
X122338900Y-147990354D01*
X122335233Y-147870578D01*
X122330369Y-147777736D01*
X122323930Y-147705863D01*
X122315538Y-147648992D01*
X122304813Y-147601156D01*
X122291376Y-147556391D01*
X122279982Y-147523200D01*
X122181489Y-147312057D01*
X122047628Y-147137356D01*
X121877896Y-146998597D01*
X121671789Y-146895274D01*
X121640600Y-146883819D01*
X121594393Y-146868227D01*
X121549351Y-146855615D01*
X121499510Y-146845606D01*
X121438902Y-146837819D01*
X121361561Y-146831876D01*
X121261522Y-146827398D01*
X121132818Y-146824007D01*
X120969484Y-146821323D01*
X120765552Y-146818968D01*
X120592850Y-146817287D01*
X119710200Y-146809001D01*
X119710200Y-147193000D01*
X120470950Y-147193000D01*
X120738493Y-147193997D01*
X120960793Y-147197654D01*
X121143380Y-147204970D01*
X121291784Y-147216945D01*
X121411535Y-147234579D01*
X121508163Y-147258872D01*
X121587198Y-147290822D01*
X121654170Y-147331430D01*
X121714609Y-147381695D01*
X121758407Y-147425725D01*
X121818159Y-147495536D01*
X121865828Y-147568478D01*
X121902711Y-147651123D01*
X121930104Y-147750045D01*
X121949305Y-147871819D01*
X121961609Y-148023018D01*
X121968315Y-148210216D01*
X121970720Y-148439987D01*
X121970800Y-148502351D01*
X121970800Y-149072600D01*
X119710200Y-149072600D01*
X119710200Y-149453600D01*
X122354800Y-149453600D01*
X122346514Y-148570950D01*
X122346514Y-148570950D01*
G37*
X122346514Y-148570950D02*
X122344162Y-148334574D01*
X122341750Y-148143031D01*
X122338900Y-147990354D01*
X122335233Y-147870578D01*
X122330369Y-147777736D01*
X122323930Y-147705863D01*
X122315538Y-147648992D01*
X122304813Y-147601156D01*
X122291376Y-147556391D01*
X122279982Y-147523200D01*
X122181489Y-147312057D01*
X122047628Y-147137356D01*
X121877896Y-146998597D01*
X121671789Y-146895274D01*
X121640600Y-146883819D01*
X121594393Y-146868227D01*
X121549351Y-146855615D01*
X121499510Y-146845606D01*
X121438902Y-146837819D01*
X121361561Y-146831876D01*
X121261522Y-146827398D01*
X121132818Y-146824007D01*
X120969484Y-146821323D01*
X120765552Y-146818968D01*
X120592850Y-146817287D01*
X119710200Y-146809001D01*
X119710200Y-147193000D01*
X120470950Y-147193000D01*
X120738493Y-147193997D01*
X120960793Y-147197654D01*
X121143380Y-147204970D01*
X121291784Y-147216945D01*
X121411535Y-147234579D01*
X121508163Y-147258872D01*
X121587198Y-147290822D01*
X121654170Y-147331430D01*
X121714609Y-147381695D01*
X121758407Y-147425725D01*
X121818159Y-147495536D01*
X121865828Y-147568478D01*
X121902711Y-147651123D01*
X121930104Y-147750045D01*
X121949305Y-147871819D01*
X121961609Y-148023018D01*
X121968315Y-148210216D01*
X121970720Y-148439987D01*
X121970800Y-148502351D01*
X121970800Y-149072600D01*
X119710200Y-149072600D01*
X119710200Y-149453600D01*
X122354800Y-149453600D01*
X122346514Y-148570950D01*
G36*
X122338982Y-144941773D02*
X122338356Y-144767111D01*
X122336817Y-144630779D01*
X122333962Y-144526541D01*
X122329384Y-144448163D01*
X122322681Y-144389409D01*
X122313445Y-144344045D01*
X122301274Y-144305835D01*
X122285761Y-144268544D01*
X122280381Y-144256573D01*
X122201213Y-144123656D01*
X122096736Y-144008109D01*
X121980678Y-143924219D01*
X121944309Y-143906797D01*
X121793705Y-143862493D01*
X121631786Y-143846116D01*
X121468783Y-143855604D01*
X121314926Y-143888896D01*
X121180445Y-143943931D01*
X121075570Y-144018647D01*
X121018778Y-144093278D01*
X121001755Y-144141022D01*
X120974440Y-144238223D01*
X120936899Y-144384604D01*
X120889198Y-144579889D01*
X120831402Y-144823802D01*
X120763580Y-145116068D01*
X120685795Y-145456408D01*
X120598116Y-145844548D01*
X120581305Y-145919389D01*
X120539361Y-146106277D01*
X120438130Y-146092699D01*
X120309905Y-146051962D01*
X120205740Y-145966881D01*
X120154700Y-145894945D01*
X120138925Y-145865019D01*
X120126788Y-145831044D01*
X120117816Y-145786311D01*
X120111537Y-145724109D01*
X120107479Y-145637728D01*
X120105169Y-145520459D01*
X120104133Y-145365591D01*
X120103900Y-145173700D01*
X120104152Y-144976080D01*
X120105222Y-144822548D01*
X120107582Y-144706396D01*
X120111705Y-144620912D01*
X120118064Y-144559387D01*
X120127132Y-144515112D01*
X120139381Y-144481375D01*
X120154700Y-144452456D01*
X120239427Y-144345617D01*
X120347800Y-144279569D01*
X120461122Y-144251279D01*
X120586500Y-144233415D01*
X120593919Y-144036808D01*
X120597201Y-143938467D01*
X120592069Y-143877350D01*
X120569538Y-143847044D01*
X120520625Y-143841136D01*
X120436345Y-143853212D01*
X120357237Y-143867873D01*
X120159558Y-143923626D01*
X120000315Y-144011682D01*
X119877245Y-144133947D01*
X119788085Y-144292321D01*
X119760248Y-144369926D01*
X119744640Y-144425047D01*
X119732651Y-144482043D01*
X119723837Y-144548326D01*
X119717756Y-144631311D01*
X119713962Y-144738409D01*
X119712014Y-144877034D01*
X119711467Y-145054600D01*
X119711627Y-145182726D01*
X119712483Y-145388327D01*
X119714347Y-145550427D01*
X119717674Y-145676325D01*
X119722916Y-145773316D01*
X119730528Y-145848699D01*
X119740964Y-145909769D01*
X119754677Y-145963825D01*
X119761622Y-145986500D01*
X119840314Y-146160130D01*
X119954478Y-146297692D01*
X120104616Y-146399610D01*
X120291233Y-146466309D01*
X120346694Y-146478103D01*
X120413991Y-146485881D01*
X120522063Y-146492718D01*
X120660887Y-146498235D01*
X120820439Y-146502056D01*
X120990699Y-146503802D01*
X121031000Y-146503871D01*
X121202318Y-146502664D01*
X121337241Y-146499875D01*
X121337241Y-146108630D01*
X121217659Y-146106830D01*
X121109221Y-146101264D01*
X121022502Y-146092226D01*
X120968082Y-146080008D01*
X120954823Y-146069050D01*
X120960343Y-146037656D01*
X120976025Y-145962625D01*
X121000574Y-145849812D01*
X121032689Y-145705071D01*
X121071075Y-145534256D01*
X121114434Y-145343222D01*
X121155199Y-145165095D01*
X121202550Y-144961374D01*
X121247384Y-144773064D01*
X121288233Y-144605983D01*
X121323631Y-144465950D01*
X121352110Y-144358783D01*
X121372202Y-144290303D01*
X121381719Y-144266722D01*
X121427548Y-144248752D01*
X121505202Y-144242876D01*
X121597228Y-144248852D01*
X121686173Y-144266437D01*
X121701560Y-144271162D01*
X121812002Y-144332905D01*
X121897649Y-144437791D01*
X121931488Y-144506481D01*
X121944825Y-144547956D01*
X121954893Y-144604593D01*
X121962082Y-144683130D01*
X121966780Y-144790307D01*
X121969374Y-144932860D01*
X121970253Y-145117527D01*
X121970243Y-145179235D01*
X121969634Y-145370188D01*
X121967883Y-145517646D01*
X121964481Y-145628913D01*
X121958917Y-145711289D01*
X121950683Y-145772076D01*
X121939268Y-145818577D01*
X121924164Y-145858094D01*
X121922634Y-145861497D01*
X121847443Y-145977446D01*
X121747391Y-146056758D01*
X121657074Y-146088507D01*
X121567525Y-146099762D01*
X121457389Y-146106372D01*
X121337241Y-146108630D01*
X121337241Y-146499875D01*
X121365274Y-146499295D01*
X121509845Y-146494141D01*
X121626010Y-146487579D01*
X121703745Y-146479987D01*
X121715307Y-146478103D01*
X121910751Y-146421229D01*
X122070584Y-146329045D01*
X122197693Y-146199384D01*
X122285968Y-146050000D01*
X122301038Y-146015130D01*
X122312959Y-145978559D01*
X122322100Y-145934144D01*
X122328826Y-145875740D01*
X122333506Y-145797203D01*
X122336506Y-145692390D01*
X122338193Y-145555155D01*
X122338936Y-145379355D01*
X122339100Y-145161000D01*
X122338982Y-144941773D01*
X122338982Y-144941773D01*
G37*
X122338982Y-144941773D02*
X122338356Y-144767111D01*
X122336817Y-144630779D01*
X122333962Y-144526541D01*
X122329384Y-144448163D01*
X122322681Y-144389409D01*
X122313445Y-144344045D01*
X122301274Y-144305835D01*
X122285761Y-144268544D01*
X122280381Y-144256573D01*
X122201213Y-144123656D01*
X122096736Y-144008109D01*
X121980678Y-143924219D01*
X121944309Y-143906797D01*
X121793705Y-143862493D01*
X121631786Y-143846116D01*
X121468783Y-143855604D01*
X121314926Y-143888896D01*
X121180445Y-143943931D01*
X121075570Y-144018647D01*
X121018778Y-144093278D01*
X121001755Y-144141022D01*
X120974440Y-144238223D01*
X120936899Y-144384604D01*
X120889198Y-144579889D01*
X120831402Y-144823802D01*
X120763580Y-145116068D01*
X120685795Y-145456408D01*
X120598116Y-145844548D01*
X120581305Y-145919389D01*
X120539361Y-146106277D01*
X120438130Y-146092699D01*
X120309905Y-146051962D01*
X120205740Y-145966881D01*
X120154700Y-145894945D01*
X120138925Y-145865019D01*
X120126788Y-145831044D01*
X120117816Y-145786311D01*
X120111537Y-145724109D01*
X120107479Y-145637728D01*
X120105169Y-145520459D01*
X120104133Y-145365591D01*
X120103900Y-145173700D01*
X120104152Y-144976080D01*
X120105222Y-144822548D01*
X120107582Y-144706396D01*
X120111705Y-144620912D01*
X120118064Y-144559387D01*
X120127132Y-144515112D01*
X120139381Y-144481375D01*
X120154700Y-144452456D01*
X120239427Y-144345617D01*
X120347800Y-144279569D01*
X120461122Y-144251279D01*
X120586500Y-144233415D01*
X120593919Y-144036808D01*
X120597201Y-143938467D01*
X120592069Y-143877350D01*
X120569538Y-143847044D01*
X120520625Y-143841136D01*
X120436345Y-143853212D01*
X120357237Y-143867873D01*
X120159558Y-143923626D01*
X120000315Y-144011682D01*
X119877245Y-144133947D01*
X119788085Y-144292321D01*
X119760248Y-144369926D01*
X119744640Y-144425047D01*
X119732651Y-144482043D01*
X119723837Y-144548326D01*
X119717756Y-144631311D01*
X119713962Y-144738409D01*
X119712014Y-144877034D01*
X119711467Y-145054600D01*
X119711627Y-145182726D01*
X119712483Y-145388327D01*
X119714347Y-145550427D01*
X119717674Y-145676325D01*
X119722916Y-145773316D01*
X119730528Y-145848699D01*
X119740964Y-145909769D01*
X119754677Y-145963825D01*
X119761622Y-145986500D01*
X119840314Y-146160130D01*
X119954478Y-146297692D01*
X120104616Y-146399610D01*
X120291233Y-146466309D01*
X120346694Y-146478103D01*
X120413991Y-146485881D01*
X120522063Y-146492718D01*
X120660887Y-146498235D01*
X120820439Y-146502056D01*
X120990699Y-146503802D01*
X121031000Y-146503871D01*
X121202318Y-146502664D01*
X121337241Y-146499875D01*
X121337241Y-146108630D01*
X121217659Y-146106830D01*
X121109221Y-146101264D01*
X121022502Y-146092226D01*
X120968082Y-146080008D01*
X120954823Y-146069050D01*
X120960343Y-146037656D01*
X120976025Y-145962625D01*
X121000574Y-145849812D01*
X121032689Y-145705071D01*
X121071075Y-145534256D01*
X121114434Y-145343222D01*
X121155199Y-145165095D01*
X121202550Y-144961374D01*
X121247384Y-144773064D01*
X121288233Y-144605983D01*
X121323631Y-144465950D01*
X121352110Y-144358783D01*
X121372202Y-144290303D01*
X121381719Y-144266722D01*
X121427548Y-144248752D01*
X121505202Y-144242876D01*
X121597228Y-144248852D01*
X121686173Y-144266437D01*
X121701560Y-144271162D01*
X121812002Y-144332905D01*
X121897649Y-144437791D01*
X121931488Y-144506481D01*
X121944825Y-144547956D01*
X121954893Y-144604593D01*
X121962082Y-144683130D01*
X121966780Y-144790307D01*
X121969374Y-144932860D01*
X121970253Y-145117527D01*
X121970243Y-145179235D01*
X121969634Y-145370188D01*
X121967883Y-145517646D01*
X121964481Y-145628913D01*
X121958917Y-145711289D01*
X121950683Y-145772076D01*
X121939268Y-145818577D01*
X121924164Y-145858094D01*
X121922634Y-145861497D01*
X121847443Y-145977446D01*
X121747391Y-146056758D01*
X121657074Y-146088507D01*
X121567525Y-146099762D01*
X121457389Y-146106372D01*
X121337241Y-146108630D01*
X121337241Y-146499875D01*
X121365274Y-146499295D01*
X121509845Y-146494141D01*
X121626010Y-146487579D01*
X121703745Y-146479987D01*
X121715307Y-146478103D01*
X121910751Y-146421229D01*
X122070584Y-146329045D01*
X122197693Y-146199384D01*
X122285968Y-146050000D01*
X122301038Y-146015130D01*
X122312959Y-145978559D01*
X122322100Y-145934144D01*
X122328826Y-145875740D01*
X122333506Y-145797203D01*
X122336506Y-145692390D01*
X122338193Y-145555155D01*
X122338936Y-145379355D01*
X122339100Y-145161000D01*
X122338982Y-144941773D01*
G36*
X123488907Y-141319250D02*
X123486418Y-141059825D01*
X123483799Y-140846062D01*
X123480807Y-140672822D01*
X123477198Y-140534967D01*
X123472726Y-140427359D01*
X123467149Y-140344860D01*
X123460221Y-140282332D01*
X123451698Y-140234636D01*
X123441337Y-140196635D01*
X123434634Y-140177659D01*
X123354777Y-140029332D01*
X123239427Y-139897195D01*
X123102502Y-139796173D01*
X123057607Y-139773398D01*
X123015707Y-139755333D01*
X122974905Y-139741156D01*
X122928442Y-139730307D01*
X122869561Y-139722223D01*
X122791505Y-139716343D01*
X122687515Y-139712105D01*
X122550836Y-139708947D01*
X122374708Y-139706308D01*
X122229046Y-139704523D01*
X122020411Y-139702297D01*
X121855374Y-139701366D01*
X121726738Y-139702106D01*
X121627310Y-139704897D01*
X121549894Y-139710115D01*
X121487297Y-139718139D01*
X121432322Y-139729347D01*
X121377776Y-139744115D01*
X121357086Y-139750307D01*
X121236653Y-139794192D01*
X121144985Y-139847823D01*
X121070406Y-139913258D01*
X120984922Y-140021134D01*
X120914479Y-140151855D01*
X120867658Y-140286499D01*
X120852812Y-140393103D01*
X120846723Y-140460011D01*
X120832740Y-140505678D01*
X120809097Y-140499438D01*
X120752910Y-140456922D01*
X120663821Y-140377808D01*
X120541471Y-140261773D01*
X120385500Y-140108493D01*
X120331729Y-140054828D01*
X120181516Y-139905331D01*
X120062198Y-139788863D01*
X119969557Y-139701740D01*
X119899379Y-139640278D01*
X119847446Y-139600792D01*
X119809542Y-139579598D01*
X119781451Y-139573012D01*
X119780301Y-139573000D01*
X119710200Y-139573000D01*
X119710200Y-139965276D01*
X120840500Y-141109700D01*
X120832966Y-141535150D01*
X120825431Y-141960600D01*
X119710200Y-141960600D01*
X119710200Y-142341600D01*
X121235058Y-142341600D01*
X121235058Y-141960600D01*
X121228279Y-141306550D01*
X121226343Y-141058158D01*
X121226472Y-140855095D01*
X121229084Y-140691919D01*
X121234600Y-140563187D01*
X121243438Y-140463456D01*
X121256019Y-140387281D01*
X121272761Y-140329220D01*
X121294085Y-140283830D01*
X121308859Y-140260965D01*
X121346122Y-140211943D01*
X121384257Y-140173518D01*
X121429803Y-140144309D01*
X121489302Y-140122934D01*
X121569294Y-140108010D01*
X121676319Y-140098158D01*
X121816919Y-140091994D01*
X121997632Y-140088138D01*
X122135900Y-140086261D01*
X122327861Y-140084087D01*
X122476168Y-140083178D01*
X122587964Y-140084036D01*
X122670390Y-140087162D01*
X122730587Y-140093059D01*
X122775698Y-140102228D01*
X122812863Y-140115173D01*
X122849224Y-140132396D01*
X122858314Y-140137061D01*
X122975223Y-140216571D01*
X123050406Y-140317053D01*
X123090202Y-140440203D01*
X123095899Y-140494666D01*
X123101105Y-140592050D01*
X123105605Y-140724478D01*
X123109180Y-140884072D01*
X123111615Y-141062954D01*
X123112690Y-141253246D01*
X123112694Y-141255750D01*
X123113800Y-141960600D01*
X121235058Y-141960600D01*
X121235058Y-142341600D01*
X123497931Y-142341600D01*
X123488907Y-141319250D01*
X123488907Y-141319250D01*
G37*
X123488907Y-141319250D02*
X123486418Y-141059825D01*
X123483799Y-140846062D01*
X123480807Y-140672822D01*
X123477198Y-140534967D01*
X123472726Y-140427359D01*
X123467149Y-140344860D01*
X123460221Y-140282332D01*
X123451698Y-140234636D01*
X123441337Y-140196635D01*
X123434634Y-140177659D01*
X123354777Y-140029332D01*
X123239427Y-139897195D01*
X123102502Y-139796173D01*
X123057607Y-139773398D01*
X123015707Y-139755333D01*
X122974905Y-139741156D01*
X122928442Y-139730307D01*
X122869561Y-139722223D01*
X122791505Y-139716343D01*
X122687515Y-139712105D01*
X122550836Y-139708947D01*
X122374708Y-139706308D01*
X122229046Y-139704523D01*
X122020411Y-139702297D01*
X121855374Y-139701366D01*
X121726738Y-139702106D01*
X121627310Y-139704897D01*
X121549894Y-139710115D01*
X121487297Y-139718139D01*
X121432322Y-139729347D01*
X121377776Y-139744115D01*
X121357086Y-139750307D01*
X121236653Y-139794192D01*
X121144985Y-139847823D01*
X121070406Y-139913258D01*
X120984922Y-140021134D01*
X120914479Y-140151855D01*
X120867658Y-140286499D01*
X120852812Y-140393103D01*
X120846723Y-140460011D01*
X120832740Y-140505678D01*
X120809097Y-140499438D01*
X120752910Y-140456922D01*
X120663821Y-140377808D01*
X120541471Y-140261773D01*
X120385500Y-140108493D01*
X120331729Y-140054828D01*
X120181516Y-139905331D01*
X120062198Y-139788863D01*
X119969557Y-139701740D01*
X119899379Y-139640278D01*
X119847446Y-139600792D01*
X119809542Y-139579598D01*
X119781451Y-139573012D01*
X119780301Y-139573000D01*
X119710200Y-139573000D01*
X119710200Y-139965276D01*
X120840500Y-141109700D01*
X120832966Y-141535150D01*
X120825431Y-141960600D01*
X119710200Y-141960600D01*
X119710200Y-142341600D01*
X121235058Y-142341600D01*
X121235058Y-141960600D01*
X121228279Y-141306550D01*
X121226343Y-141058158D01*
X121226472Y-140855095D01*
X121229084Y-140691919D01*
X121234600Y-140563187D01*
X121243438Y-140463456D01*
X121256019Y-140387281D01*
X121272761Y-140329220D01*
X121294085Y-140283830D01*
X121308859Y-140260965D01*
X121346122Y-140211943D01*
X121384257Y-140173518D01*
X121429803Y-140144309D01*
X121489302Y-140122934D01*
X121569294Y-140108010D01*
X121676319Y-140098158D01*
X121816919Y-140091994D01*
X121997632Y-140088138D01*
X122135900Y-140086261D01*
X122327861Y-140084087D01*
X122476168Y-140083178D01*
X122587964Y-140084036D01*
X122670390Y-140087162D01*
X122730587Y-140093059D01*
X122775698Y-140102228D01*
X122812863Y-140115173D01*
X122849224Y-140132396D01*
X122858314Y-140137061D01*
X122975223Y-140216571D01*
X123050406Y-140317053D01*
X123090202Y-140440203D01*
X123095899Y-140494666D01*
X123101105Y-140592050D01*
X123105605Y-140724478D01*
X123109180Y-140884072D01*
X123111615Y-141062954D01*
X123112690Y-141253246D01*
X123112694Y-141255750D01*
X123113800Y-141960600D01*
X121235058Y-141960600D01*
X121235058Y-142341600D01*
X123497931Y-142341600D01*
X123488907Y-141319250D01*
G36*
X122353589Y-137842551D02*
X122349558Y-137658671D01*
X122342456Y-137492504D01*
X122332283Y-137353825D01*
X122319038Y-137252408D01*
X122313271Y-137225947D01*
X122243875Y-137047618D01*
X122137208Y-136903546D01*
X121992663Y-136793123D01*
X121809633Y-136715742D01*
X121800391Y-136713001D01*
X121749873Y-136701003D01*
X121686908Y-136691949D01*
X121605041Y-136685599D01*
X121497813Y-136681713D01*
X121358770Y-136680049D01*
X121181453Y-136680367D01*
X120974891Y-136682251D01*
X120767972Y-136684780D01*
X120605141Y-136687494D01*
X120479684Y-136690935D01*
X120384891Y-136695645D01*
X120314048Y-136702166D01*
X120260444Y-136711040D01*
X120217368Y-136722809D01*
X120178106Y-136738016D01*
X120154700Y-136748504D01*
X119991376Y-136849945D01*
X119859956Y-136986561D01*
X119781620Y-137119173D01*
X119764328Y-137159383D01*
X119750743Y-137199087D01*
X119740359Y-137244898D01*
X119732675Y-137303430D01*
X119727184Y-137381297D01*
X119723383Y-137485114D01*
X119720768Y-137621493D01*
X119718834Y-137797050D01*
X119717515Y-137960100D01*
X119716484Y-138194687D01*
X119717425Y-138383186D01*
X119720493Y-138530276D01*
X119725849Y-138640636D01*
X119733649Y-138718947D01*
X119744053Y-138769888D01*
X119744996Y-138772900D01*
X119822243Y-138952472D01*
X119927689Y-139093215D01*
X120067199Y-139201928D01*
X120154700Y-139247849D01*
X120194792Y-139265287D01*
X120234829Y-139278973D01*
X120281523Y-139289449D01*
X120341586Y-139297259D01*
X120421729Y-139302945D01*
X120528664Y-139307049D01*
X120669103Y-139310114D01*
X120849756Y-139312682D01*
X120974891Y-139314150D01*
X121054731Y-139314892D01*
X121054731Y-138937859D01*
X120883637Y-138936665D01*
X120724393Y-138933403D01*
X120585847Y-138928424D01*
X120476850Y-138922079D01*
X120406248Y-138914717D01*
X120390700Y-138911555D01*
X120286786Y-138861332D01*
X120194199Y-138779222D01*
X120129895Y-138681474D01*
X120118371Y-138650594D01*
X120111723Y-138602767D01*
X120106186Y-138512370D01*
X120101990Y-138387624D01*
X120099367Y-138236750D01*
X120098545Y-138067971D01*
X120099024Y-137960100D01*
X120100788Y-137767575D01*
X120103010Y-137618935D01*
X120106285Y-137507267D01*
X120111211Y-137425656D01*
X120118385Y-137367188D01*
X120128403Y-137324950D01*
X120141861Y-137292027D01*
X120159296Y-137261600D01*
X120195902Y-137206328D01*
X120233128Y-137162891D01*
X120277419Y-137129767D01*
X120335222Y-137105437D01*
X120412983Y-137088378D01*
X120517148Y-137077070D01*
X120654162Y-137069993D01*
X120830472Y-137065624D01*
X121000531Y-137063104D01*
X121194527Y-137060807D01*
X121344833Y-137059866D01*
X121458553Y-137060735D01*
X121542789Y-137063862D01*
X121604644Y-137069698D01*
X121651220Y-137078695D01*
X121689620Y-137091301D01*
X121726946Y-137107968D01*
X121729823Y-137109357D01*
X121827036Y-137174440D01*
X121899993Y-137257053D01*
X121917770Y-137287322D01*
X121931495Y-137318325D01*
X121941692Y-137356740D01*
X121948884Y-137409246D01*
X121953594Y-137482522D01*
X121956347Y-137583245D01*
X121957666Y-137718096D01*
X121958074Y-137893751D01*
X121958100Y-137998200D01*
X121957950Y-138196599D01*
X121957149Y-138350877D01*
X121955173Y-138467711D01*
X121951500Y-138553782D01*
X121945606Y-138615766D01*
X121936967Y-138660344D01*
X121925059Y-138694193D01*
X121909360Y-138723991D01*
X121899993Y-138739348D01*
X121829410Y-138819893D01*
X121736861Y-138883608D01*
X121733223Y-138885398D01*
X121694220Y-138902590D01*
X121652719Y-138915583D01*
X121601239Y-138924957D01*
X121532299Y-138931290D01*
X121438418Y-138935160D01*
X121312116Y-138937146D01*
X121145912Y-138937825D01*
X121054731Y-138937859D01*
X121054731Y-139314892D01*
X121190111Y-139316151D01*
X121361346Y-139316544D01*
X121495389Y-139315054D01*
X121599036Y-139311403D01*
X121679085Y-139305316D01*
X121742330Y-139296517D01*
X121795567Y-139284727D01*
X121812246Y-139280091D01*
X121993090Y-139204925D01*
X122136649Y-139095277D01*
X122243200Y-138950864D01*
X122313023Y-138771401D01*
X122313271Y-138770454D01*
X122327669Y-138685554D01*
X122338996Y-138559721D01*
X122347251Y-138402730D01*
X122352435Y-138224355D01*
X122354548Y-138034371D01*
X122353589Y-137842551D01*
X122353589Y-137842551D01*
G37*
X122353589Y-137842551D02*
X122349558Y-137658671D01*
X122342456Y-137492504D01*
X122332283Y-137353825D01*
X122319038Y-137252408D01*
X122313271Y-137225947D01*
X122243875Y-137047618D01*
X122137208Y-136903546D01*
X121992663Y-136793123D01*
X121809633Y-136715742D01*
X121800391Y-136713001D01*
X121749873Y-136701003D01*
X121686908Y-136691949D01*
X121605041Y-136685599D01*
X121497813Y-136681713D01*
X121358770Y-136680049D01*
X121181453Y-136680367D01*
X120974891Y-136682251D01*
X120767972Y-136684780D01*
X120605141Y-136687494D01*
X120479684Y-136690935D01*
X120384891Y-136695645D01*
X120314048Y-136702166D01*
X120260444Y-136711040D01*
X120217368Y-136722809D01*
X120178106Y-136738016D01*
X120154700Y-136748504D01*
X119991376Y-136849945D01*
X119859956Y-136986561D01*
X119781620Y-137119173D01*
X119764328Y-137159383D01*
X119750743Y-137199087D01*
X119740359Y-137244898D01*
X119732675Y-137303430D01*
X119727184Y-137381297D01*
X119723383Y-137485114D01*
X119720768Y-137621493D01*
X119718834Y-137797050D01*
X119717515Y-137960100D01*
X119716484Y-138194687D01*
X119717425Y-138383186D01*
X119720493Y-138530276D01*
X119725849Y-138640636D01*
X119733649Y-138718947D01*
X119744053Y-138769888D01*
X119744996Y-138772900D01*
X119822243Y-138952472D01*
X119927689Y-139093215D01*
X120067199Y-139201928D01*
X120154700Y-139247849D01*
X120194792Y-139265287D01*
X120234829Y-139278973D01*
X120281523Y-139289449D01*
X120341586Y-139297259D01*
X120421729Y-139302945D01*
X120528664Y-139307049D01*
X120669103Y-139310114D01*
X120849756Y-139312682D01*
X120974891Y-139314150D01*
X121054731Y-139314892D01*
X121054731Y-138937859D01*
X120883637Y-138936665D01*
X120724393Y-138933403D01*
X120585847Y-138928424D01*
X120476850Y-138922079D01*
X120406248Y-138914717D01*
X120390700Y-138911555D01*
X120286786Y-138861332D01*
X120194199Y-138779222D01*
X120129895Y-138681474D01*
X120118371Y-138650594D01*
X120111723Y-138602767D01*
X120106186Y-138512370D01*
X120101990Y-138387624D01*
X120099367Y-138236750D01*
X120098545Y-138067971D01*
X120099024Y-137960100D01*
X120100788Y-137767575D01*
X120103010Y-137618935D01*
X120106285Y-137507267D01*
X120111211Y-137425656D01*
X120118385Y-137367188D01*
X120128403Y-137324950D01*
X120141861Y-137292027D01*
X120159296Y-137261600D01*
X120195902Y-137206328D01*
X120233128Y-137162891D01*
X120277419Y-137129767D01*
X120335222Y-137105437D01*
X120412983Y-137088378D01*
X120517148Y-137077070D01*
X120654162Y-137069993D01*
X120830472Y-137065624D01*
X121000531Y-137063104D01*
X121194527Y-137060807D01*
X121344833Y-137059866D01*
X121458553Y-137060735D01*
X121542789Y-137063862D01*
X121604644Y-137069698D01*
X121651220Y-137078695D01*
X121689620Y-137091301D01*
X121726946Y-137107968D01*
X121729823Y-137109357D01*
X121827036Y-137174440D01*
X121899993Y-137257053D01*
X121917770Y-137287322D01*
X121931495Y-137318325D01*
X121941692Y-137356740D01*
X121948884Y-137409246D01*
X121953594Y-137482522D01*
X121956347Y-137583245D01*
X121957666Y-137718096D01*
X121958074Y-137893751D01*
X121958100Y-137998200D01*
X121957950Y-138196599D01*
X121957149Y-138350877D01*
X121955173Y-138467711D01*
X121951500Y-138553782D01*
X121945606Y-138615766D01*
X121936967Y-138660344D01*
X121925059Y-138694193D01*
X121909360Y-138723991D01*
X121899993Y-138739348D01*
X121829410Y-138819893D01*
X121736861Y-138883608D01*
X121733223Y-138885398D01*
X121694220Y-138902590D01*
X121652719Y-138915583D01*
X121601239Y-138924957D01*
X121532299Y-138931290D01*
X121438418Y-138935160D01*
X121312116Y-138937146D01*
X121145912Y-138937825D01*
X121054731Y-138937859D01*
X121054731Y-139314892D01*
X121190111Y-139316151D01*
X121361346Y-139316544D01*
X121495389Y-139315054D01*
X121599036Y-139311403D01*
X121679085Y-139305316D01*
X121742330Y-139296517D01*
X121795567Y-139284727D01*
X121812246Y-139280091D01*
X121993090Y-139204925D01*
X122136649Y-139095277D01*
X122243200Y-138950864D01*
X122313023Y-138771401D01*
X122313271Y-138770454D01*
X122327669Y-138685554D01*
X122338996Y-138559721D01*
X122347251Y-138402730D01*
X122352435Y-138224355D01*
X122354548Y-138034371D01*
X122353589Y-137842551D01*
G36*
X122354974Y-134856491D02*
X122351557Y-134670608D01*
X122345055Y-134499993D01*
X122335469Y-134354072D01*
X122322794Y-134242271D01*
X122311255Y-134186461D01*
X122256485Y-134050754D01*
X122179454Y-133925833D01*
X122098834Y-133837441D01*
X122005203Y-133777283D01*
X121880237Y-133723132D01*
X121743385Y-133682228D01*
X121630387Y-133663104D01*
X121462800Y-133647455D01*
X121462800Y-134028896D01*
X121580397Y-134045014D01*
X121719249Y-134083221D01*
X121834264Y-134152752D01*
X121913450Y-134246322D01*
X121914266Y-134247803D01*
X121927934Y-134278148D01*
X121938479Y-134317373D01*
X121946293Y-134371950D01*
X121951765Y-134448351D01*
X121955284Y-134553049D01*
X121957241Y-134692518D01*
X121958026Y-134873229D01*
X121958100Y-134975600D01*
X121957921Y-135174339D01*
X121957049Y-135328925D01*
X121954986Y-135446004D01*
X121951230Y-135532224D01*
X121945282Y-135594231D01*
X121936643Y-135638672D01*
X121924812Y-135672193D01*
X121909290Y-135701441D01*
X121902705Y-135712200D01*
X121843625Y-135785045D01*
X121772043Y-135846156D01*
X121763005Y-135851900D01*
X121734021Y-135867529D01*
X121700967Y-135879590D01*
X121657235Y-135888541D01*
X121596219Y-135894841D01*
X121511313Y-135898948D01*
X121395909Y-135901321D01*
X121243400Y-135902419D01*
X121047181Y-135902700D01*
X121031000Y-135902700D01*
X120831339Y-135902461D01*
X120675869Y-135901439D01*
X120557985Y-135899174D01*
X120471080Y-135895208D01*
X120408547Y-135889084D01*
X120363779Y-135880341D01*
X120330170Y-135868523D01*
X120301113Y-135853169D01*
X120298996Y-135851900D01*
X120228039Y-135794708D01*
X120165493Y-135721691D01*
X120159296Y-135712200D01*
X120142323Y-135682864D01*
X120129222Y-135651646D01*
X120119492Y-135611900D01*
X120112633Y-135556981D01*
X120108146Y-135480240D01*
X120105531Y-135375032D01*
X120104288Y-135234709D01*
X120103917Y-135052625D01*
X120103900Y-134975600D01*
X120104080Y-134776862D01*
X120104952Y-134622276D01*
X120107015Y-134505197D01*
X120110771Y-134418977D01*
X120116719Y-134356970D01*
X120125358Y-134312529D01*
X120137189Y-134279008D01*
X120152711Y-134249760D01*
X120159296Y-134239000D01*
X120250652Y-134135610D01*
X120373828Y-134069851D01*
X120482806Y-134044849D01*
X120599200Y-134028896D01*
X120599200Y-133647455D01*
X120433433Y-133662934D01*
X120228694Y-133703601D01*
X120053479Y-133783606D01*
X119910415Y-133901202D01*
X119802127Y-134054642D01*
X119781620Y-134096573D01*
X119764328Y-134136783D01*
X119750743Y-134176487D01*
X119740359Y-134222298D01*
X119732675Y-134280830D01*
X119727184Y-134358697D01*
X119723383Y-134462514D01*
X119720768Y-134598893D01*
X119718834Y-134774450D01*
X119717515Y-134937500D01*
X119716484Y-135172087D01*
X119717425Y-135360586D01*
X119720493Y-135507676D01*
X119725849Y-135618036D01*
X119733649Y-135696347D01*
X119744053Y-135747288D01*
X119744996Y-135750300D01*
X119822243Y-135929872D01*
X119927689Y-136070615D01*
X120067199Y-136179328D01*
X120154700Y-136225249D01*
X120194792Y-136242687D01*
X120234829Y-136256373D01*
X120281523Y-136266849D01*
X120341586Y-136274659D01*
X120421729Y-136280345D01*
X120528664Y-136284449D01*
X120669103Y-136287514D01*
X120849756Y-136290082D01*
X120974891Y-136291550D01*
X121190111Y-136293551D01*
X121361346Y-136293944D01*
X121495389Y-136292454D01*
X121599036Y-136288803D01*
X121679085Y-136282716D01*
X121742330Y-136273917D01*
X121795567Y-136262127D01*
X121812246Y-136257491D01*
X121992810Y-136182564D01*
X122136276Y-136073056D01*
X122243709Y-135927914D01*
X122310864Y-135764628D01*
X122325897Y-135685060D01*
X122337860Y-135564210D01*
X122346752Y-135411503D01*
X122352570Y-135236364D01*
X122355311Y-135048219D01*
X122354974Y-134856491D01*
X122354974Y-134856491D01*
G37*
X122354974Y-134856491D02*
X122351557Y-134670608D01*
X122345055Y-134499993D01*
X122335469Y-134354072D01*
X122322794Y-134242271D01*
X122311255Y-134186461D01*
X122256485Y-134050754D01*
X122179454Y-133925833D01*
X122098834Y-133837441D01*
X122005203Y-133777283D01*
X121880237Y-133723132D01*
X121743385Y-133682228D01*
X121630387Y-133663104D01*
X121462800Y-133647455D01*
X121462800Y-134028896D01*
X121580397Y-134045014D01*
X121719249Y-134083221D01*
X121834264Y-134152752D01*
X121913450Y-134246322D01*
X121914266Y-134247803D01*
X121927934Y-134278148D01*
X121938479Y-134317373D01*
X121946293Y-134371950D01*
X121951765Y-134448351D01*
X121955284Y-134553049D01*
X121957241Y-134692518D01*
X121958026Y-134873229D01*
X121958100Y-134975600D01*
X121957921Y-135174339D01*
X121957049Y-135328925D01*
X121954986Y-135446004D01*
X121951230Y-135532224D01*
X121945282Y-135594231D01*
X121936643Y-135638672D01*
X121924812Y-135672193D01*
X121909290Y-135701441D01*
X121902705Y-135712200D01*
X121843625Y-135785045D01*
X121772043Y-135846156D01*
X121763005Y-135851900D01*
X121734021Y-135867529D01*
X121700967Y-135879590D01*
X121657235Y-135888541D01*
X121596219Y-135894841D01*
X121511313Y-135898948D01*
X121395909Y-135901321D01*
X121243400Y-135902419D01*
X121047181Y-135902700D01*
X121031000Y-135902700D01*
X120831339Y-135902461D01*
X120675869Y-135901439D01*
X120557985Y-135899174D01*
X120471080Y-135895208D01*
X120408547Y-135889084D01*
X120363779Y-135880341D01*
X120330170Y-135868523D01*
X120301113Y-135853169D01*
X120298996Y-135851900D01*
X120228039Y-135794708D01*
X120165493Y-135721691D01*
X120159296Y-135712200D01*
X120142323Y-135682864D01*
X120129222Y-135651646D01*
X120119492Y-135611900D01*
X120112633Y-135556981D01*
X120108146Y-135480240D01*
X120105531Y-135375032D01*
X120104288Y-135234709D01*
X120103917Y-135052625D01*
X120103900Y-134975600D01*
X120104080Y-134776862D01*
X120104952Y-134622276D01*
X120107015Y-134505197D01*
X120110771Y-134418977D01*
X120116719Y-134356970D01*
X120125358Y-134312529D01*
X120137189Y-134279008D01*
X120152711Y-134249760D01*
X120159296Y-134239000D01*
X120250652Y-134135610D01*
X120373828Y-134069851D01*
X120482806Y-134044849D01*
X120599200Y-134028896D01*
X120599200Y-133647455D01*
X120433433Y-133662934D01*
X120228694Y-133703601D01*
X120053479Y-133783606D01*
X119910415Y-133901202D01*
X119802127Y-134054642D01*
X119781620Y-134096573D01*
X119764328Y-134136783D01*
X119750743Y-134176487D01*
X119740359Y-134222298D01*
X119732675Y-134280830D01*
X119727184Y-134358697D01*
X119723383Y-134462514D01*
X119720768Y-134598893D01*
X119718834Y-134774450D01*
X119717515Y-134937500D01*
X119716484Y-135172087D01*
X119717425Y-135360586D01*
X119720493Y-135507676D01*
X119725849Y-135618036D01*
X119733649Y-135696347D01*
X119744053Y-135747288D01*
X119744996Y-135750300D01*
X119822243Y-135929872D01*
X119927689Y-136070615D01*
X120067199Y-136179328D01*
X120154700Y-136225249D01*
X120194792Y-136242687D01*
X120234829Y-136256373D01*
X120281523Y-136266849D01*
X120341586Y-136274659D01*
X120421729Y-136280345D01*
X120528664Y-136284449D01*
X120669103Y-136287514D01*
X120849756Y-136290082D01*
X120974891Y-136291550D01*
X121190111Y-136293551D01*
X121361346Y-136293944D01*
X121495389Y-136292454D01*
X121599036Y-136288803D01*
X121679085Y-136282716D01*
X121742330Y-136273917D01*
X121795567Y-136262127D01*
X121812246Y-136257491D01*
X121992810Y-136182564D01*
X122136276Y-136073056D01*
X122243709Y-135927914D01*
X122310864Y-135764628D01*
X122325897Y-135685060D01*
X122337860Y-135564210D01*
X122346752Y-135411503D01*
X122352570Y-135236364D01*
X122355311Y-135048219D01*
X122354974Y-134856491D01*
G36*
X122199400Y-132892800D02*
X121948245Y-132892565D01*
X121713140Y-132891888D01*
X121498847Y-132890816D01*
X121310128Y-132889394D01*
X121151745Y-132887668D01*
X121028460Y-132885683D01*
X120945034Y-132883486D01*
X120906229Y-132881121D01*
X120904000Y-132880392D01*
X120919195Y-132858504D01*
X120962712Y-132800704D01*
X121031450Y-132710998D01*
X121122308Y-132593389D01*
X121232185Y-132451881D01*
X121357980Y-132290479D01*
X121496593Y-132113186D01*
X121626917Y-131946942D01*
X122349833Y-131025900D01*
X122350817Y-130829050D01*
X122351800Y-130632200D01*
X122256550Y-130632341D01*
X122230834Y-130633178D01*
X122206689Y-130638198D01*
X122180566Y-130651280D01*
X122148912Y-130676305D01*
X122108177Y-130717154D01*
X122054808Y-130777708D01*
X121985255Y-130861847D01*
X121895965Y-130973453D01*
X121783389Y-131116407D01*
X121643974Y-131294588D01*
X121605723Y-131343541D01*
X121476644Y-131508010D01*
X121357009Y-131659038D01*
X121250484Y-131792107D01*
X121160730Y-131902701D01*
X121091412Y-131986301D01*
X121046193Y-132038391D01*
X121029054Y-132054600D01*
X121009104Y-132035250D01*
X120961766Y-131980218D01*
X120890700Y-131894028D01*
X120799565Y-131781209D01*
X120692019Y-131646285D01*
X120571721Y-131493784D01*
X120454332Y-131343649D01*
X120308293Y-131156250D01*
X120189893Y-131005062D01*
X120095583Y-130886197D01*
X120021814Y-130795765D01*
X119965039Y-130729877D01*
X119921709Y-130684644D01*
X119888275Y-130656177D01*
X119861190Y-130640588D01*
X119836904Y-130633986D01*
X119811871Y-130632483D01*
X119805450Y-130632449D01*
X119710200Y-130632200D01*
X119710200Y-131016131D01*
X120244323Y-131701722D01*
X120390202Y-131890527D01*
X120514871Y-132055081D01*
X120616271Y-132192524D01*
X120692344Y-132299997D01*
X120741031Y-132374642D01*
X120760272Y-132413600D01*
X120760054Y-132417807D01*
X120737554Y-132449296D01*
X120690773Y-132511100D01*
X120626975Y-132593716D01*
X120566881Y-132670550D01*
X120392099Y-132892800D01*
X119710200Y-132892800D01*
X119710200Y-133273800D01*
X123494800Y-133273800D01*
X123494800Y-132892800D01*
X122199400Y-132892800D01*
X122199400Y-132892800D01*
G37*
X122199400Y-132892800D02*
X121948245Y-132892565D01*
X121713140Y-132891888D01*
X121498847Y-132890816D01*
X121310128Y-132889394D01*
X121151745Y-132887668D01*
X121028460Y-132885683D01*
X120945034Y-132883486D01*
X120906229Y-132881121D01*
X120904000Y-132880392D01*
X120919195Y-132858504D01*
X120962712Y-132800704D01*
X121031450Y-132710998D01*
X121122308Y-132593389D01*
X121232185Y-132451881D01*
X121357980Y-132290479D01*
X121496593Y-132113186D01*
X121626917Y-131946942D01*
X122349833Y-131025900D01*
X122350817Y-130829050D01*
X122351800Y-130632200D01*
X122256550Y-130632341D01*
X122230834Y-130633178D01*
X122206689Y-130638198D01*
X122180566Y-130651280D01*
X122148912Y-130676305D01*
X122108177Y-130717154D01*
X122054808Y-130777708D01*
X121985255Y-130861847D01*
X121895965Y-130973453D01*
X121783389Y-131116407D01*
X121643974Y-131294588D01*
X121605723Y-131343541D01*
X121476644Y-131508010D01*
X121357009Y-131659038D01*
X121250484Y-131792107D01*
X121160730Y-131902701D01*
X121091412Y-131986301D01*
X121046193Y-132038391D01*
X121029054Y-132054600D01*
X121009104Y-132035250D01*
X120961766Y-131980218D01*
X120890700Y-131894028D01*
X120799565Y-131781209D01*
X120692019Y-131646285D01*
X120571721Y-131493784D01*
X120454332Y-131343649D01*
X120308293Y-131156250D01*
X120189893Y-131005062D01*
X120095583Y-130886197D01*
X120021814Y-130795765D01*
X119965039Y-130729877D01*
X119921709Y-130684644D01*
X119888275Y-130656177D01*
X119861190Y-130640588D01*
X119836904Y-130633986D01*
X119811871Y-130632483D01*
X119805450Y-130632449D01*
X119710200Y-130632200D01*
X119710200Y-131016131D01*
X120244323Y-131701722D01*
X120390202Y-131890527D01*
X120514871Y-132055081D01*
X120616271Y-132192524D01*
X120692344Y-132299997D01*
X120741031Y-132374642D01*
X120760272Y-132413600D01*
X120760054Y-132417807D01*
X120737554Y-132449296D01*
X120690773Y-132511100D01*
X120626975Y-132593716D01*
X120566881Y-132670550D01*
X120392099Y-132892800D01*
X119710200Y-132892800D01*
X119710200Y-133273800D01*
X123494800Y-133273800D01*
X123494800Y-132892800D01*
X122199400Y-132892800D01*
G36*
X122338982Y-128761973D02*
X122338356Y-128587311D01*
X122336817Y-128450979D01*
X122333962Y-128346741D01*
X122329384Y-128268363D01*
X122322681Y-128209609D01*
X122313445Y-128164245D01*
X122301274Y-128126035D01*
X122285761Y-128088744D01*
X122280381Y-128076773D01*
X122195606Y-127936117D01*
X122083042Y-127816836D01*
X121955971Y-127732520D01*
X121934597Y-127722939D01*
X121819510Y-127691087D01*
X121675452Y-127674486D01*
X121522192Y-127674057D01*
X121379495Y-127690723D01*
X121355066Y-127695931D01*
X121198430Y-127750720D01*
X121083365Y-127833217D01*
X121008012Y-127944773D01*
X121005669Y-127950160D01*
X120990065Y-127998250D01*
X120965029Y-128089707D01*
X120932094Y-128218299D01*
X120892795Y-128377790D01*
X120848668Y-128561947D01*
X120801247Y-128764536D01*
X120752068Y-128979323D01*
X120749608Y-128990189D01*
X120537876Y-129926278D01*
X120437387Y-129912799D01*
X120309412Y-129871935D01*
X120205244Y-129786493D01*
X120154700Y-129715145D01*
X120138925Y-129685219D01*
X120126788Y-129651244D01*
X120117816Y-129606511D01*
X120111537Y-129544309D01*
X120107479Y-129457928D01*
X120105169Y-129340659D01*
X120104133Y-129185791D01*
X120103900Y-128993900D01*
X120104152Y-128796280D01*
X120105222Y-128642748D01*
X120107582Y-128526596D01*
X120111705Y-128441112D01*
X120118064Y-128379587D01*
X120127132Y-128335312D01*
X120139381Y-128301575D01*
X120154700Y-128272656D01*
X120239427Y-128165817D01*
X120347800Y-128099769D01*
X120461122Y-128071479D01*
X120586500Y-128053615D01*
X120593919Y-127857008D01*
X120596810Y-127760460D01*
X120591091Y-127698932D01*
X120568278Y-127667153D01*
X120519891Y-127659852D01*
X120437449Y-127671758D01*
X120331127Y-127693700D01*
X120137999Y-127753890D01*
X119983153Y-127846560D01*
X119864094Y-127973898D01*
X119778324Y-128138090D01*
X119758579Y-128195286D01*
X119743443Y-128249212D01*
X119731821Y-128306414D01*
X119723285Y-128374227D01*
X119717410Y-128459983D01*
X119713768Y-128571018D01*
X119711934Y-128714666D01*
X119711480Y-128898260D01*
X119711627Y-129002513D01*
X119712483Y-129208177D01*
X119714345Y-129370336D01*
X119717667Y-129496286D01*
X119722904Y-129593320D01*
X119730507Y-129668731D01*
X119740931Y-129729813D01*
X119754629Y-129783860D01*
X119761622Y-129806700D01*
X119838987Y-129978804D01*
X119950670Y-130114779D01*
X120098294Y-130215968D01*
X120283479Y-130283713D01*
X120357237Y-130299728D01*
X120429223Y-130308277D01*
X120541386Y-130315753D01*
X120683109Y-130321720D01*
X120843772Y-130325742D01*
X121012757Y-130327384D01*
X121031000Y-130327400D01*
X121192520Y-130326104D01*
X121192520Y-129923050D01*
X121087616Y-129923002D01*
X121011710Y-129922761D01*
X120975096Y-129922345D01*
X120973850Y-129922286D01*
X120965716Y-129919927D01*
X120960706Y-129911022D01*
X120959721Y-129890930D01*
X120963659Y-129855006D01*
X120973419Y-129798607D01*
X120989901Y-129717091D01*
X121014004Y-129605815D01*
X121046627Y-129460135D01*
X121088669Y-129275408D01*
X121141029Y-129046992D01*
X121155853Y-128982447D01*
X121217423Y-128718511D01*
X121270814Y-128498256D01*
X121315697Y-128322917D01*
X121351743Y-128193732D01*
X121378625Y-128111937D01*
X121395801Y-128078919D01*
X121454260Y-128060539D01*
X121543468Y-128059843D01*
X121646820Y-128076124D01*
X121703483Y-128091997D01*
X121804674Y-128149192D01*
X121890149Y-128241712D01*
X121941944Y-128343641D01*
X121951960Y-128400511D01*
X121959886Y-128498549D01*
X121965723Y-128628179D01*
X121969471Y-128779822D01*
X121971132Y-128943902D01*
X121970704Y-129110841D01*
X121968190Y-129271063D01*
X121963589Y-129414990D01*
X121956902Y-129533045D01*
X121948129Y-129615651D01*
X121941882Y-129644160D01*
X121899771Y-129741465D01*
X121842866Y-129814287D01*
X121764197Y-129865732D01*
X121656794Y-129898904D01*
X121513686Y-129916908D01*
X121327903Y-129922849D01*
X121316125Y-129922888D01*
X121192520Y-129923050D01*
X121192520Y-130326104D01*
X121200249Y-130326041D01*
X121362318Y-130322254D01*
X121506589Y-130316475D01*
X121622445Y-130309141D01*
X121699266Y-130300687D01*
X121704764Y-130299728D01*
X121901518Y-130244422D01*
X122061113Y-130156546D01*
X122187795Y-130032963D01*
X122285813Y-129870533D01*
X122285968Y-129870200D01*
X122301038Y-129835330D01*
X122312959Y-129798759D01*
X122322100Y-129754344D01*
X122328826Y-129695940D01*
X122333506Y-129617403D01*
X122336506Y-129512590D01*
X122338193Y-129375355D01*
X122338936Y-129199555D01*
X122339100Y-128981200D01*
X122338982Y-128761973D01*
X122338982Y-128761973D01*
G37*
X122338982Y-128761973D02*
X122338356Y-128587311D01*
X122336817Y-128450979D01*
X122333962Y-128346741D01*
X122329384Y-128268363D01*
X122322681Y-128209609D01*
X122313445Y-128164245D01*
X122301274Y-128126035D01*
X122285761Y-128088744D01*
X122280381Y-128076773D01*
X122195606Y-127936117D01*
X122083042Y-127816836D01*
X121955971Y-127732520D01*
X121934597Y-127722939D01*
X121819510Y-127691087D01*
X121675452Y-127674486D01*
X121522192Y-127674057D01*
X121379495Y-127690723D01*
X121355066Y-127695931D01*
X121198430Y-127750720D01*
X121083365Y-127833217D01*
X121008012Y-127944773D01*
X121005669Y-127950160D01*
X120990065Y-127998250D01*
X120965029Y-128089707D01*
X120932094Y-128218299D01*
X120892795Y-128377790D01*
X120848668Y-128561947D01*
X120801247Y-128764536D01*
X120752068Y-128979323D01*
X120749608Y-128990189D01*
X120537876Y-129926278D01*
X120437387Y-129912799D01*
X120309412Y-129871935D01*
X120205244Y-129786493D01*
X120154700Y-129715145D01*
X120138925Y-129685219D01*
X120126788Y-129651244D01*
X120117816Y-129606511D01*
X120111537Y-129544309D01*
X120107479Y-129457928D01*
X120105169Y-129340659D01*
X120104133Y-129185791D01*
X120103900Y-128993900D01*
X120104152Y-128796280D01*
X120105222Y-128642748D01*
X120107582Y-128526596D01*
X120111705Y-128441112D01*
X120118064Y-128379587D01*
X120127132Y-128335312D01*
X120139381Y-128301575D01*
X120154700Y-128272656D01*
X120239427Y-128165817D01*
X120347800Y-128099769D01*
X120461122Y-128071479D01*
X120586500Y-128053615D01*
X120593919Y-127857008D01*
X120596810Y-127760460D01*
X120591091Y-127698932D01*
X120568278Y-127667153D01*
X120519891Y-127659852D01*
X120437449Y-127671758D01*
X120331127Y-127693700D01*
X120137999Y-127753890D01*
X119983153Y-127846560D01*
X119864094Y-127973898D01*
X119778324Y-128138090D01*
X119758579Y-128195286D01*
X119743443Y-128249212D01*
X119731821Y-128306414D01*
X119723285Y-128374227D01*
X119717410Y-128459983D01*
X119713768Y-128571018D01*
X119711934Y-128714666D01*
X119711480Y-128898260D01*
X119711627Y-129002513D01*
X119712483Y-129208177D01*
X119714345Y-129370336D01*
X119717667Y-129496286D01*
X119722904Y-129593320D01*
X119730507Y-129668731D01*
X119740931Y-129729813D01*
X119754629Y-129783860D01*
X119761622Y-129806700D01*
X119838987Y-129978804D01*
X119950670Y-130114779D01*
X120098294Y-130215968D01*
X120283479Y-130283713D01*
X120357237Y-130299728D01*
X120429223Y-130308277D01*
X120541386Y-130315753D01*
X120683109Y-130321720D01*
X120843772Y-130325742D01*
X121012757Y-130327384D01*
X121031000Y-130327400D01*
X121192520Y-130326104D01*
X121192520Y-129923050D01*
X121087616Y-129923002D01*
X121011710Y-129922761D01*
X120975096Y-129922345D01*
X120973850Y-129922286D01*
X120965716Y-129919927D01*
X120960706Y-129911022D01*
X120959721Y-129890930D01*
X120963659Y-129855006D01*
X120973419Y-129798607D01*
X120989901Y-129717091D01*
X121014004Y-129605815D01*
X121046627Y-129460135D01*
X121088669Y-129275408D01*
X121141029Y-129046992D01*
X121155853Y-128982447D01*
X121217423Y-128718511D01*
X121270814Y-128498256D01*
X121315697Y-128322917D01*
X121351743Y-128193732D01*
X121378625Y-128111937D01*
X121395801Y-128078919D01*
X121454260Y-128060539D01*
X121543468Y-128059843D01*
X121646820Y-128076124D01*
X121703483Y-128091997D01*
X121804674Y-128149192D01*
X121890149Y-128241712D01*
X121941944Y-128343641D01*
X121951960Y-128400511D01*
X121959886Y-128498549D01*
X121965723Y-128628179D01*
X121969471Y-128779822D01*
X121971132Y-128943902D01*
X121970704Y-129110841D01*
X121968190Y-129271063D01*
X121963589Y-129414990D01*
X121956902Y-129533045D01*
X121948129Y-129615651D01*
X121941882Y-129644160D01*
X121899771Y-129741465D01*
X121842866Y-129814287D01*
X121764197Y-129865732D01*
X121656794Y-129898904D01*
X121513686Y-129916908D01*
X121327903Y-129922849D01*
X121316125Y-129922888D01*
X121192520Y-129923050D01*
X121192520Y-130326104D01*
X121200249Y-130326041D01*
X121362318Y-130322254D01*
X121506589Y-130316475D01*
X121622445Y-130309141D01*
X121699266Y-130300687D01*
X121704764Y-130299728D01*
X121901518Y-130244422D01*
X122061113Y-130156546D01*
X122187795Y-130032963D01*
X122285813Y-129870533D01*
X122285968Y-129870200D01*
X122301038Y-129835330D01*
X122312959Y-129798759D01*
X122322100Y-129754344D01*
X122328826Y-129695940D01*
X122333506Y-129617403D01*
X122336506Y-129512590D01*
X122338193Y-129375355D01*
X122338936Y-129199555D01*
X122339100Y-128981200D01*
X122338982Y-128761973D01*
G36*
X122351800Y-126669800D02*
X122351800Y-126044275D01*
X121970800Y-126034721D01*
X121970800Y-126669800D01*
X121202450Y-126669243D01*
X120981479Y-126668838D01*
X120805226Y-126667757D01*
X120667610Y-126665667D01*
X120562552Y-126662235D01*
X120483970Y-126657127D01*
X120425783Y-126650011D01*
X120381912Y-126640553D01*
X120346276Y-126628420D01*
X120330076Y-126621442D01*
X120236041Y-126564180D01*
X120169236Y-126486034D01*
X120125737Y-126379010D01*
X120101617Y-126235116D01*
X120095458Y-126143695D01*
X120085141Y-125907800D01*
X119710200Y-125907800D01*
X119711970Y-126155450D01*
X119717460Y-126293878D01*
X119730622Y-126421589D01*
X119749439Y-126519887D01*
X119752368Y-126530100D01*
X119828032Y-126705447D01*
X119937825Y-126843437D01*
X120083548Y-126945901D01*
X120214526Y-126999598D01*
X120263671Y-127014056D01*
X120314068Y-127025523D01*
X120372116Y-127034343D01*
X120444214Y-127040857D01*
X120536762Y-127045406D01*
X120656158Y-127048332D01*
X120808801Y-127049977D01*
X121001091Y-127050682D01*
X121173376Y-127050800D01*
X121970800Y-127050800D01*
X121970800Y-127431800D01*
X122351800Y-127431800D01*
X122351800Y-127050800D01*
X122986800Y-127050800D01*
X122986800Y-126669800D01*
X122351800Y-126669800D01*
X122351800Y-126669800D01*
G37*
X122351800Y-126669800D02*
X122351800Y-126044275D01*
X121970800Y-126034721D01*
X121970800Y-126669800D01*
X121202450Y-126669243D01*
X120981479Y-126668838D01*
X120805226Y-126667757D01*
X120667610Y-126665667D01*
X120562552Y-126662235D01*
X120483970Y-126657127D01*
X120425783Y-126650011D01*
X120381912Y-126640553D01*
X120346276Y-126628420D01*
X120330076Y-126621442D01*
X120236041Y-126564180D01*
X120169236Y-126486034D01*
X120125737Y-126379010D01*
X120101617Y-126235116D01*
X120095458Y-126143695D01*
X120085141Y-125907800D01*
X119710200Y-125907800D01*
X119711970Y-126155450D01*
X119717460Y-126293878D01*
X119730622Y-126421589D01*
X119749439Y-126519887D01*
X119752368Y-126530100D01*
X119828032Y-126705447D01*
X119937825Y-126843437D01*
X120083548Y-126945901D01*
X120214526Y-126999598D01*
X120263671Y-127014056D01*
X120314068Y-127025523D01*
X120372116Y-127034343D01*
X120444214Y-127040857D01*
X120536762Y-127045406D01*
X120656158Y-127048332D01*
X120808801Y-127049977D01*
X121001091Y-127050682D01*
X121173376Y-127050800D01*
X121970800Y-127050800D01*
X121970800Y-127431800D01*
X122351800Y-127431800D01*
X122351800Y-127050800D01*
X122986800Y-127050800D01*
X122986800Y-126669800D01*
X122351800Y-126669800D01*
G36*
X121970800Y-123266200D02*
X121970800Y-123836450D01*
X121969238Y-124077445D01*
X121963685Y-124274285D01*
X121952846Y-124433544D01*
X121935423Y-124561796D01*
X121910119Y-124665615D01*
X121875638Y-124751575D01*
X121830682Y-124826251D01*
X121773955Y-124896215D01*
X121758407Y-124913076D01*
X121699242Y-124971136D01*
X121637639Y-125018799D01*
X121568067Y-125057063D01*
X121484997Y-125086930D01*
X121382899Y-125109398D01*
X121256242Y-125125467D01*
X121099497Y-125136137D01*
X120907134Y-125142408D01*
X120673623Y-125145278D01*
X120470950Y-125145800D01*
X119710200Y-125145800D01*
X119710200Y-125526800D01*
X120529350Y-125526425D01*
X120787279Y-125525717D01*
X121000659Y-125523348D01*
X121175734Y-125518560D01*
X121318749Y-125510594D01*
X121435945Y-125498693D01*
X121533568Y-125482100D01*
X121617860Y-125460055D01*
X121695065Y-125431803D01*
X121771427Y-125396584D01*
X121824188Y-125369266D01*
X121990025Y-125254828D01*
X122129548Y-125106532D01*
X122222862Y-124953750D01*
X122260734Y-124866142D01*
X122290561Y-124777875D01*
X122313250Y-124681475D01*
X122329709Y-124569469D01*
X122340844Y-124434383D01*
X122347565Y-124268743D01*
X122350777Y-124065076D01*
X122351425Y-123894850D01*
X122351800Y-123266200D01*
X121970800Y-123266200D01*
X121970800Y-123266200D01*
G37*
X121970800Y-123266200D02*
X121970800Y-123836450D01*
X121969238Y-124077445D01*
X121963685Y-124274285D01*
X121952846Y-124433544D01*
X121935423Y-124561796D01*
X121910119Y-124665615D01*
X121875638Y-124751575D01*
X121830682Y-124826251D01*
X121773955Y-124896215D01*
X121758407Y-124913076D01*
X121699242Y-124971136D01*
X121637639Y-125018799D01*
X121568067Y-125057063D01*
X121484997Y-125086930D01*
X121382899Y-125109398D01*
X121256242Y-125125467D01*
X121099497Y-125136137D01*
X120907134Y-125142408D01*
X120673623Y-125145278D01*
X120470950Y-125145800D01*
X119710200Y-125145800D01*
X119710200Y-125526800D01*
X120529350Y-125526425D01*
X120787279Y-125525717D01*
X121000659Y-125523348D01*
X121175734Y-125518560D01*
X121318749Y-125510594D01*
X121435945Y-125498693D01*
X121533568Y-125482100D01*
X121617860Y-125460055D01*
X121695065Y-125431803D01*
X121771427Y-125396584D01*
X121824188Y-125369266D01*
X121990025Y-125254828D01*
X122129548Y-125106532D01*
X122222862Y-124953750D01*
X122260734Y-124866142D01*
X122290561Y-124777875D01*
X122313250Y-124681475D01*
X122329709Y-124569469D01*
X122340844Y-124434383D01*
X122347565Y-124268743D01*
X122350777Y-124065076D01*
X122351425Y-123894850D01*
X122351800Y-123266200D01*
X121970800Y-123266200D01*
G36*
X123481416Y-117062383D02*
X123478594Y-116871888D01*
X123472487Y-116719247D01*
X123461943Y-116597993D01*
X123445814Y-116501657D01*
X123422949Y-116423772D01*
X123392199Y-116357870D01*
X123352413Y-116297482D01*
X123302443Y-116236141D01*
X123291187Y-116223259D01*
X123155262Y-116106998D01*
X122985266Y-116027526D01*
X122783011Y-115985674D01*
X122770159Y-115984403D01*
X122605800Y-115969055D01*
X122605800Y-116357400D01*
X122676619Y-116357400D01*
X122762431Y-116374221D01*
X122862085Y-116417404D01*
X122954912Y-116476031D01*
X123019972Y-116538803D01*
X123049918Y-116589110D01*
X123072863Y-116651926D01*
X123089633Y-116734069D01*
X123101049Y-116842355D01*
X123107935Y-116983601D01*
X123111116Y-117164624D01*
X123111588Y-117297200D01*
X123110091Y-117517002D01*
X123104385Y-117692425D01*
X123092643Y-117829833D01*
X123073042Y-117935591D01*
X123043757Y-118016065D01*
X123002962Y-118077617D01*
X122948834Y-118126614D01*
X122879546Y-118169419D01*
X122858314Y-118180582D01*
X122745500Y-118238463D01*
X121564400Y-118231382D01*
X121288199Y-118229643D01*
X121058181Y-118227893D01*
X120869730Y-118225921D01*
X120718230Y-118223516D01*
X120599064Y-118220466D01*
X120507617Y-118216561D01*
X120439271Y-118211589D01*
X120389411Y-118205339D01*
X120353421Y-118197600D01*
X120326684Y-118188161D01*
X120304584Y-118176810D01*
X120298996Y-118173500D01*
X120228039Y-118116308D01*
X120165493Y-118043291D01*
X120159296Y-118033800D01*
X120142323Y-118004464D01*
X120129222Y-117973246D01*
X120119492Y-117933500D01*
X120112633Y-117878581D01*
X120108146Y-117801840D01*
X120105531Y-117696632D01*
X120104288Y-117556309D01*
X120103917Y-117374225D01*
X120103900Y-117297200D01*
X120104080Y-117098462D01*
X120104952Y-116943876D01*
X120107015Y-116826797D01*
X120110771Y-116740577D01*
X120116719Y-116678570D01*
X120125358Y-116634129D01*
X120137189Y-116600608D01*
X120152711Y-116571360D01*
X120159296Y-116560600D01*
X120250652Y-116457210D01*
X120373828Y-116391451D01*
X120482806Y-116366449D01*
X120599200Y-116350496D01*
X120599200Y-115969055D01*
X120433433Y-115984534D01*
X120228694Y-116025201D01*
X120053479Y-116105206D01*
X119910415Y-116222802D01*
X119802127Y-116376242D01*
X119781620Y-116418173D01*
X119764328Y-116458383D01*
X119750743Y-116498087D01*
X119740359Y-116543898D01*
X119732675Y-116602430D01*
X119727184Y-116680297D01*
X119723383Y-116784114D01*
X119720768Y-116920493D01*
X119718834Y-117096050D01*
X119717515Y-117259100D01*
X119716484Y-117493687D01*
X119717425Y-117682186D01*
X119720493Y-117829276D01*
X119725849Y-117939636D01*
X119733649Y-118017947D01*
X119744053Y-118068888D01*
X119744996Y-118071900D01*
X119827373Y-118258054D01*
X119941805Y-118405089D01*
X120089217Y-118514029D01*
X120182549Y-118557260D01*
X120213039Y-118568011D01*
X120247012Y-118577033D01*
X120288956Y-118584478D01*
X120343358Y-118590494D01*
X120414707Y-118595234D01*
X120507490Y-118598846D01*
X120626196Y-118601483D01*
X120775311Y-118603293D01*
X120959324Y-118604429D01*
X121182723Y-118605039D01*
X121449996Y-118605276D01*
X121615200Y-118605300D01*
X122923300Y-118605300D01*
X123057607Y-118544611D01*
X123201814Y-118453898D01*
X123325569Y-118326710D01*
X123416463Y-118176733D01*
X123436280Y-118127032D01*
X123450183Y-118081632D01*
X123461009Y-118030190D01*
X123469130Y-117966011D01*
X123474913Y-117882398D01*
X123478729Y-117772657D01*
X123480948Y-117630092D01*
X123481939Y-117448006D01*
X123482100Y-117297200D01*
X123481416Y-117062383D01*
X123481416Y-117062383D01*
G37*
X123481416Y-117062383D02*
X123478594Y-116871888D01*
X123472487Y-116719247D01*
X123461943Y-116597993D01*
X123445814Y-116501657D01*
X123422949Y-116423772D01*
X123392199Y-116357870D01*
X123352413Y-116297482D01*
X123302443Y-116236141D01*
X123291187Y-116223259D01*
X123155262Y-116106998D01*
X122985266Y-116027526D01*
X122783011Y-115985674D01*
X122770159Y-115984403D01*
X122605800Y-115969055D01*
X122605800Y-116357400D01*
X122676619Y-116357400D01*
X122762431Y-116374221D01*
X122862085Y-116417404D01*
X122954912Y-116476031D01*
X123019972Y-116538803D01*
X123049918Y-116589110D01*
X123072863Y-116651926D01*
X123089633Y-116734069D01*
X123101049Y-116842355D01*
X123107935Y-116983601D01*
X123111116Y-117164624D01*
X123111588Y-117297200D01*
X123110091Y-117517002D01*
X123104385Y-117692425D01*
X123092643Y-117829833D01*
X123073042Y-117935591D01*
X123043757Y-118016065D01*
X123002962Y-118077617D01*
X122948834Y-118126614D01*
X122879546Y-118169419D01*
X122858314Y-118180582D01*
X122745500Y-118238463D01*
X121564400Y-118231382D01*
X121288199Y-118229643D01*
X121058181Y-118227893D01*
X120869730Y-118225921D01*
X120718230Y-118223516D01*
X120599064Y-118220466D01*
X120507617Y-118216561D01*
X120439271Y-118211589D01*
X120389411Y-118205339D01*
X120353421Y-118197600D01*
X120326684Y-118188161D01*
X120304584Y-118176810D01*
X120298996Y-118173500D01*
X120228039Y-118116308D01*
X120165493Y-118043291D01*
X120159296Y-118033800D01*
X120142323Y-118004464D01*
X120129222Y-117973246D01*
X120119492Y-117933500D01*
X120112633Y-117878581D01*
X120108146Y-117801840D01*
X120105531Y-117696632D01*
X120104288Y-117556309D01*
X120103917Y-117374225D01*
X120103900Y-117297200D01*
X120104080Y-117098462D01*
X120104952Y-116943876D01*
X120107015Y-116826797D01*
X120110771Y-116740577D01*
X120116719Y-116678570D01*
X120125358Y-116634129D01*
X120137189Y-116600608D01*
X120152711Y-116571360D01*
X120159296Y-116560600D01*
X120250652Y-116457210D01*
X120373828Y-116391451D01*
X120482806Y-116366449D01*
X120599200Y-116350496D01*
X120599200Y-115969055D01*
X120433433Y-115984534D01*
X120228694Y-116025201D01*
X120053479Y-116105206D01*
X119910415Y-116222802D01*
X119802127Y-116376242D01*
X119781620Y-116418173D01*
X119764328Y-116458383D01*
X119750743Y-116498087D01*
X119740359Y-116543898D01*
X119732675Y-116602430D01*
X119727184Y-116680297D01*
X119723383Y-116784114D01*
X119720768Y-116920493D01*
X119718834Y-117096050D01*
X119717515Y-117259100D01*
X119716484Y-117493687D01*
X119717425Y-117682186D01*
X119720493Y-117829276D01*
X119725849Y-117939636D01*
X119733649Y-118017947D01*
X119744053Y-118068888D01*
X119744996Y-118071900D01*
X119827373Y-118258054D01*
X119941805Y-118405089D01*
X120089217Y-118514029D01*
X120182549Y-118557260D01*
X120213039Y-118568011D01*
X120247012Y-118577033D01*
X120288956Y-118584478D01*
X120343358Y-118590494D01*
X120414707Y-118595234D01*
X120507490Y-118598846D01*
X120626196Y-118601483D01*
X120775311Y-118603293D01*
X120959324Y-118604429D01*
X121182723Y-118605039D01*
X121449996Y-118605276D01*
X121615200Y-118605300D01*
X122923300Y-118605300D01*
X123057607Y-118544611D01*
X123201814Y-118453898D01*
X123325569Y-118326710D01*
X123416463Y-118176733D01*
X123436280Y-118127032D01*
X123450183Y-118081632D01*
X123461009Y-118030190D01*
X123469130Y-117966011D01*
X123474913Y-117882398D01*
X123478729Y-117772657D01*
X123480948Y-117630092D01*
X123481939Y-117448006D01*
X123482100Y-117297200D01*
X123481416Y-117062383D01*
G36*
X119710200Y-115214400D02*
X119710200Y-115595400D01*
X123494800Y-115595400D01*
X123494800Y-115214400D01*
X119710200Y-115214400D01*
X119710200Y-115214400D01*
G37*
X119710200Y-115214400D02*
X119710200Y-115595400D01*
X123494800Y-115595400D01*
X123494800Y-115214400D01*
X119710200Y-115214400D01*
G36*
X121367550Y-114447168D02*
X121117102Y-114445151D01*
X120912325Y-114443084D01*
X120748092Y-114440689D01*
X120619273Y-114437685D01*
X120520742Y-114433794D01*
X120447370Y-114428735D01*
X120394029Y-114422229D01*
X120355591Y-114413996D01*
X120326927Y-114403757D01*
X120302911Y-114391232D01*
X120298996Y-114388900D01*
X120228039Y-114331708D01*
X120165493Y-114258691D01*
X120159296Y-114249200D01*
X120142323Y-114219864D01*
X120129222Y-114188646D01*
X120119492Y-114148900D01*
X120112633Y-114093981D01*
X120108146Y-114017240D01*
X120105531Y-113912032D01*
X120104288Y-113771709D01*
X120103917Y-113589625D01*
X120103900Y-113512600D01*
X120104080Y-113313862D01*
X120104952Y-113159276D01*
X120107015Y-113042197D01*
X120110771Y-112955977D01*
X120116719Y-112893970D01*
X120125358Y-112849529D01*
X120137189Y-112816008D01*
X120152711Y-112786760D01*
X120159296Y-112776000D01*
X120218376Y-112703156D01*
X120289958Y-112642045D01*
X120298996Y-112636300D01*
X120322737Y-112623367D01*
X120350268Y-112612766D01*
X120386719Y-112604218D01*
X120437218Y-112597443D01*
X120506892Y-112592162D01*
X120600870Y-112588096D01*
X120724280Y-112584964D01*
X120882249Y-112582486D01*
X121079906Y-112580384D01*
X121322379Y-112578378D01*
X121367550Y-112578033D01*
X122351800Y-112570565D01*
X122351800Y-112189658D01*
X121316750Y-112197079D01*
X121060127Y-112198985D01*
X120849132Y-112200867D01*
X120678591Y-112203018D01*
X120543334Y-112205729D01*
X120438189Y-112209296D01*
X120357985Y-112214010D01*
X120297548Y-112220164D01*
X120251708Y-112228052D01*
X120215293Y-112237966D01*
X120183130Y-112250200D01*
X120154700Y-112262904D01*
X119991376Y-112364345D01*
X119859956Y-112500961D01*
X119781620Y-112633573D01*
X119764328Y-112673783D01*
X119750743Y-112713487D01*
X119740359Y-112759298D01*
X119732675Y-112817830D01*
X119727184Y-112895697D01*
X119723383Y-112999514D01*
X119720768Y-113135893D01*
X119718834Y-113311450D01*
X119717515Y-113474500D01*
X119716484Y-113709087D01*
X119717425Y-113897586D01*
X119720493Y-114044676D01*
X119725849Y-114155036D01*
X119733649Y-114233347D01*
X119744053Y-114284288D01*
X119744996Y-114287300D01*
X119822243Y-114466872D01*
X119927689Y-114607615D01*
X120067199Y-114716328D01*
X120154700Y-114762249D01*
X120187352Y-114776741D01*
X120219760Y-114788658D01*
X120257095Y-114798292D01*
X120304529Y-114805937D01*
X120367234Y-114811887D01*
X120450381Y-114816434D01*
X120559142Y-114819871D01*
X120698689Y-114822491D01*
X120874193Y-114824589D01*
X121090825Y-114826456D01*
X121316750Y-114828122D01*
X122351800Y-114835543D01*
X122351800Y-114454636D01*
X121367550Y-114447168D01*
X121367550Y-114447168D01*
G37*
X121367550Y-114447168D02*
X121117102Y-114445151D01*
X120912325Y-114443084D01*
X120748092Y-114440689D01*
X120619273Y-114437685D01*
X120520742Y-114433794D01*
X120447370Y-114428735D01*
X120394029Y-114422229D01*
X120355591Y-114413996D01*
X120326927Y-114403757D01*
X120302911Y-114391232D01*
X120298996Y-114388900D01*
X120228039Y-114331708D01*
X120165493Y-114258691D01*
X120159296Y-114249200D01*
X120142323Y-114219864D01*
X120129222Y-114188646D01*
X120119492Y-114148900D01*
X120112633Y-114093981D01*
X120108146Y-114017240D01*
X120105531Y-113912032D01*
X120104288Y-113771709D01*
X120103917Y-113589625D01*
X120103900Y-113512600D01*
X120104080Y-113313862D01*
X120104952Y-113159276D01*
X120107015Y-113042197D01*
X120110771Y-112955977D01*
X120116719Y-112893970D01*
X120125358Y-112849529D01*
X120137189Y-112816008D01*
X120152711Y-112786760D01*
X120159296Y-112776000D01*
X120218376Y-112703156D01*
X120289958Y-112642045D01*
X120298996Y-112636300D01*
X120322737Y-112623367D01*
X120350268Y-112612766D01*
X120386719Y-112604218D01*
X120437218Y-112597443D01*
X120506892Y-112592162D01*
X120600870Y-112588096D01*
X120724280Y-112584964D01*
X120882249Y-112582486D01*
X121079906Y-112580384D01*
X121322379Y-112578378D01*
X121367550Y-112578033D01*
X122351800Y-112570565D01*
X122351800Y-112189658D01*
X121316750Y-112197079D01*
X121060127Y-112198985D01*
X120849132Y-112200867D01*
X120678591Y-112203018D01*
X120543334Y-112205729D01*
X120438189Y-112209296D01*
X120357985Y-112214010D01*
X120297548Y-112220164D01*
X120251708Y-112228052D01*
X120215293Y-112237966D01*
X120183130Y-112250200D01*
X120154700Y-112262904D01*
X119991376Y-112364345D01*
X119859956Y-112500961D01*
X119781620Y-112633573D01*
X119764328Y-112673783D01*
X119750743Y-112713487D01*
X119740359Y-112759298D01*
X119732675Y-112817830D01*
X119727184Y-112895697D01*
X119723383Y-112999514D01*
X119720768Y-113135893D01*
X119718834Y-113311450D01*
X119717515Y-113474500D01*
X119716484Y-113709087D01*
X119717425Y-113897586D01*
X119720493Y-114044676D01*
X119725849Y-114155036D01*
X119733649Y-114233347D01*
X119744053Y-114284288D01*
X119744996Y-114287300D01*
X119822243Y-114466872D01*
X119927689Y-114607615D01*
X120067199Y-114716328D01*
X120154700Y-114762249D01*
X120187352Y-114776741D01*
X120219760Y-114788658D01*
X120257095Y-114798292D01*
X120304529Y-114805937D01*
X120367234Y-114811887D01*
X120450381Y-114816434D01*
X120559142Y-114819871D01*
X120698689Y-114822491D01*
X120874193Y-114824589D01*
X121090825Y-114826456D01*
X121316750Y-114828122D01*
X122351800Y-114835543D01*
X122351800Y-114454636D01*
X121367550Y-114447168D01*
G36*
X122351800Y-111429800D02*
X122351800Y-110634311D01*
X122351192Y-110382831D01*
X122348871Y-110176303D01*
X122344097Y-110008889D01*
X122336127Y-109874751D01*
X122324218Y-109768049D01*
X122307630Y-109682947D01*
X122285620Y-109613604D01*
X122257446Y-109554184D01*
X122222367Y-109498846D01*
X122204339Y-109474000D01*
X122147215Y-109402084D01*
X122093917Y-109350475D01*
X122028182Y-109306377D01*
X121933750Y-109256992D01*
X121920000Y-109250241D01*
X121780300Y-109181900D01*
X121043700Y-109181900D01*
X120827120Y-109182171D01*
X120654897Y-109183225D01*
X120520590Y-109185424D01*
X120417758Y-109189129D01*
X120339961Y-109194702D01*
X120280757Y-109202504D01*
X120233705Y-109212898D01*
X120192366Y-109226244D01*
X120181590Y-109230307D01*
X120029934Y-109313669D01*
X119897082Y-109434226D01*
X119797168Y-109578593D01*
X119782928Y-109607933D01*
X119765267Y-109648814D01*
X119751395Y-109688616D01*
X119740797Y-109733971D01*
X119732960Y-109791511D01*
X119727370Y-109867866D01*
X119723513Y-109969668D01*
X119720874Y-110103549D01*
X119718940Y-110276141D01*
X119717515Y-110451900D01*
X119716484Y-110686487D01*
X119717425Y-110874986D01*
X119720493Y-111022076D01*
X119725849Y-111132436D01*
X119733649Y-111210747D01*
X119744053Y-111261688D01*
X119744996Y-111264700D01*
X119822243Y-111444272D01*
X119927689Y-111585015D01*
X120067199Y-111693728D01*
X120154700Y-111739649D01*
X120281700Y-111798100D01*
X121888250Y-111805178D01*
X121973475Y-111805553D01*
X121973475Y-111429800D01*
X121229188Y-111429659D01*
X121018120Y-111428713D01*
X120827118Y-111426090D01*
X120662428Y-111421986D01*
X120530294Y-111416596D01*
X120436959Y-111410117D01*
X120390700Y-111403355D01*
X120286786Y-111353132D01*
X120194199Y-111271022D01*
X120129895Y-111173274D01*
X120118371Y-111142394D01*
X120111723Y-111094567D01*
X120106186Y-111004170D01*
X120101990Y-110879424D01*
X120099367Y-110728550D01*
X120098545Y-110559771D01*
X120099024Y-110451900D01*
X120100788Y-110259375D01*
X120103010Y-110110735D01*
X120106285Y-109999067D01*
X120111211Y-109917456D01*
X120118385Y-109858988D01*
X120128403Y-109816750D01*
X120141861Y-109783827D01*
X120159296Y-109753400D01*
X120218376Y-109680556D01*
X120289958Y-109619445D01*
X120298996Y-109613700D01*
X120327980Y-109598072D01*
X120361034Y-109586011D01*
X120404766Y-109577060D01*
X120465782Y-109570760D01*
X120550688Y-109566653D01*
X120666092Y-109564280D01*
X120818601Y-109563182D01*
X121014820Y-109562901D01*
X121031000Y-109562900D01*
X121230662Y-109563140D01*
X121386132Y-109564162D01*
X121504016Y-109566427D01*
X121590921Y-109570393D01*
X121653454Y-109576517D01*
X121698222Y-109585260D01*
X121731831Y-109597078D01*
X121760888Y-109612432D01*
X121763005Y-109613700D01*
X121833962Y-109670893D01*
X121896508Y-109743910D01*
X121902705Y-109753400D01*
X121918218Y-109780153D01*
X121930608Y-109809068D01*
X121940295Y-109846003D01*
X121947696Y-109896819D01*
X121953231Y-109967375D01*
X121957319Y-110063530D01*
X121960378Y-110191144D01*
X121962826Y-110356077D01*
X121965084Y-110564189D01*
X121965788Y-110636050D01*
X121973475Y-111429800D01*
X121973475Y-111805553D01*
X123494800Y-111812255D01*
X123494800Y-111429800D01*
X122351800Y-111429800D01*
X122351800Y-111429800D01*
G37*
X122351800Y-111429800D02*
X122351800Y-110634311D01*
X122351192Y-110382831D01*
X122348871Y-110176303D01*
X122344097Y-110008889D01*
X122336127Y-109874751D01*
X122324218Y-109768049D01*
X122307630Y-109682947D01*
X122285620Y-109613604D01*
X122257446Y-109554184D01*
X122222367Y-109498846D01*
X122204339Y-109474000D01*
X122147215Y-109402084D01*
X122093917Y-109350475D01*
X122028182Y-109306377D01*
X121933750Y-109256992D01*
X121920000Y-109250241D01*
X121780300Y-109181900D01*
X121043700Y-109181900D01*
X120827120Y-109182171D01*
X120654897Y-109183225D01*
X120520590Y-109185424D01*
X120417758Y-109189129D01*
X120339961Y-109194702D01*
X120280757Y-109202504D01*
X120233705Y-109212898D01*
X120192366Y-109226244D01*
X120181590Y-109230307D01*
X120029934Y-109313669D01*
X119897082Y-109434226D01*
X119797168Y-109578593D01*
X119782928Y-109607933D01*
X119765267Y-109648814D01*
X119751395Y-109688616D01*
X119740797Y-109733971D01*
X119732960Y-109791511D01*
X119727370Y-109867866D01*
X119723513Y-109969668D01*
X119720874Y-110103549D01*
X119718940Y-110276141D01*
X119717515Y-110451900D01*
X119716484Y-110686487D01*
X119717425Y-110874986D01*
X119720493Y-111022076D01*
X119725849Y-111132436D01*
X119733649Y-111210747D01*
X119744053Y-111261688D01*
X119744996Y-111264700D01*
X119822243Y-111444272D01*
X119927689Y-111585015D01*
X120067199Y-111693728D01*
X120154700Y-111739649D01*
X120281700Y-111798100D01*
X121888250Y-111805178D01*
X121973475Y-111805553D01*
X121973475Y-111429800D01*
X121229188Y-111429659D01*
X121018120Y-111428713D01*
X120827118Y-111426090D01*
X120662428Y-111421986D01*
X120530294Y-111416596D01*
X120436959Y-111410117D01*
X120390700Y-111403355D01*
X120286786Y-111353132D01*
X120194199Y-111271022D01*
X120129895Y-111173274D01*
X120118371Y-111142394D01*
X120111723Y-111094567D01*
X120106186Y-111004170D01*
X120101990Y-110879424D01*
X120099367Y-110728550D01*
X120098545Y-110559771D01*
X120099024Y-110451900D01*
X120100788Y-110259375D01*
X120103010Y-110110735D01*
X120106285Y-109999067D01*
X120111211Y-109917456D01*
X120118385Y-109858988D01*
X120128403Y-109816750D01*
X120141861Y-109783827D01*
X120159296Y-109753400D01*
X120218376Y-109680556D01*
X120289958Y-109619445D01*
X120298996Y-109613700D01*
X120327980Y-109598072D01*
X120361034Y-109586011D01*
X120404766Y-109577060D01*
X120465782Y-109570760D01*
X120550688Y-109566653D01*
X120666092Y-109564280D01*
X120818601Y-109563182D01*
X121014820Y-109562901D01*
X121031000Y-109562900D01*
X121230662Y-109563140D01*
X121386132Y-109564162D01*
X121504016Y-109566427D01*
X121590921Y-109570393D01*
X121653454Y-109576517D01*
X121698222Y-109585260D01*
X121731831Y-109597078D01*
X121760888Y-109612432D01*
X121763005Y-109613700D01*
X121833962Y-109670893D01*
X121896508Y-109743910D01*
X121902705Y-109753400D01*
X121918218Y-109780153D01*
X121930608Y-109809068D01*
X121940295Y-109846003D01*
X121947696Y-109896819D01*
X121953231Y-109967375D01*
X121957319Y-110063530D01*
X121960378Y-110191144D01*
X121962826Y-110356077D01*
X121965084Y-110564189D01*
X121965788Y-110636050D01*
X121973475Y-111429800D01*
X121973475Y-111805553D01*
X123494800Y-111812255D01*
X123494800Y-111429800D01*
X122351800Y-111429800D01*
G36*
X131375791Y-156791783D02*
X131321005Y-156841677D01*
X131245742Y-156915787D01*
X131215519Y-156946600D01*
X130848011Y-157349217D01*
X130482874Y-157798009D01*
X130122918Y-158288351D01*
X129770953Y-158815621D01*
X129429788Y-159375195D01*
X129102232Y-159962449D01*
X128791095Y-160572760D01*
X128499185Y-161201504D01*
X128229313Y-161844058D01*
X128209741Y-161893432D01*
X128160115Y-162021081D01*
X128117972Y-162133157D01*
X128086580Y-162220672D01*
X128069209Y-162274642D01*
X128066800Y-162286372D01*
X128078905Y-162272252D01*
X128113378Y-162218613D01*
X128167458Y-162130084D01*
X128238382Y-162011292D01*
X128323388Y-161866869D01*
X128419715Y-161701442D01*
X128524600Y-161519641D01*
X128532927Y-161505141D01*
X128979551Y-160733302D01*
X129412732Y-159997695D01*
X129838830Y-159287769D01*
X130264205Y-158592976D01*
X130695219Y-157902767D01*
X130898595Y-157581600D01*
X131010091Y-157406150D01*
X131114580Y-157241482D01*
X131208488Y-157093248D01*
X131288242Y-156967099D01*
X131350266Y-156868685D01*
X131390987Y-156803659D01*
X131404623Y-156781500D01*
X131405272Y-156770319D01*
X131375791Y-156791783D01*
X131375791Y-156791783D01*
G37*
X131375791Y-156791783D02*
X131321005Y-156841677D01*
X131245742Y-156915787D01*
X131215519Y-156946600D01*
X130848011Y-157349217D01*
X130482874Y-157798009D01*
X130122918Y-158288351D01*
X129770953Y-158815621D01*
X129429788Y-159375195D01*
X129102232Y-159962449D01*
X128791095Y-160572760D01*
X128499185Y-161201504D01*
X128229313Y-161844058D01*
X128209741Y-161893432D01*
X128160115Y-162021081D01*
X128117972Y-162133157D01*
X128086580Y-162220672D01*
X128069209Y-162274642D01*
X128066800Y-162286372D01*
X128078905Y-162272252D01*
X128113378Y-162218613D01*
X128167458Y-162130084D01*
X128238382Y-162011292D01*
X128323388Y-161866869D01*
X128419715Y-161701442D01*
X128524600Y-161519641D01*
X128532927Y-161505141D01*
X128979551Y-160733302D01*
X129412732Y-159997695D01*
X129838830Y-159287769D01*
X130264205Y-158592976D01*
X130695219Y-157902767D01*
X130898595Y-157581600D01*
X131010091Y-157406150D01*
X131114580Y-157241482D01*
X131208488Y-157093248D01*
X131288242Y-156967099D01*
X131350266Y-156868685D01*
X131390987Y-156803659D01*
X131404623Y-156781500D01*
X131405272Y-156770319D01*
X131375791Y-156791783D01*
G36*
X134016166Y-156303323D02*
X133937765Y-156097129D01*
X133820090Y-155908088D01*
X133666928Y-155743265D01*
X133482068Y-155609723D01*
X133415182Y-155573933D01*
X133219923Y-155504252D01*
X133005367Y-155474054D01*
X132785285Y-155484260D01*
X132619375Y-155520643D01*
X132407662Y-155610127D01*
X132224129Y-155738286D01*
X132072348Y-155899355D01*
X131955892Y-156087568D01*
X131878333Y-156297156D01*
X131843243Y-156522356D01*
X131854003Y-156756100D01*
X131910113Y-156972406D01*
X132008634Y-157167853D01*
X132143923Y-157338060D01*
X132310338Y-157478646D01*
X132502237Y-157585228D01*
X132713977Y-157653426D01*
X132939915Y-157678858D01*
X132952776Y-157678444D01*
X132952776Y-157440754D01*
X132943600Y-157440711D01*
X132823833Y-157437214D01*
X132734762Y-157425673D01*
X132656454Y-157402174D01*
X132583821Y-157370044D01*
X132407300Y-157258919D01*
X132265812Y-157116806D01*
X132161779Y-156950670D01*
X132097623Y-156767473D01*
X132075765Y-156574178D01*
X132098627Y-156377751D01*
X132168631Y-156185152D01*
X132170470Y-156181503D01*
X132281262Y-156016074D01*
X132428796Y-155876475D01*
X132584242Y-155781959D01*
X132669482Y-155746369D01*
X132749347Y-155725794D01*
X132843781Y-155716507D01*
X132944135Y-155714700D01*
X133058893Y-155716925D01*
X133143565Y-155726574D01*
X133218776Y-155748113D01*
X133305152Y-155786006D01*
X133330418Y-155798317D01*
X133508087Y-155909221D01*
X133643174Y-156046843D01*
X133736788Y-156212935D01*
X133790035Y-156409248D01*
X133803237Y-156546287D01*
X133806175Y-156659062D01*
X133801753Y-156740345D01*
X133786519Y-156809293D01*
X133757024Y-156885063D01*
X133732606Y-156938437D01*
X133628756Y-157113274D01*
X133495105Y-157251431D01*
X133323382Y-157361288D01*
X133307392Y-157369281D01*
X133223994Y-157406710D01*
X133150189Y-157428528D01*
X133066330Y-157438590D01*
X132952776Y-157440754D01*
X132952776Y-157678444D01*
X133038248Y-157675691D01*
X133259487Y-157634516D01*
X133464508Y-157548860D01*
X133647768Y-157423909D01*
X133803720Y-157264846D01*
X133926821Y-157076858D01*
X134011526Y-156865129D01*
X134039990Y-156738920D01*
X134051504Y-156519608D01*
X134016166Y-156303323D01*
X134016166Y-156303323D01*
G37*
X134016166Y-156303323D02*
X133937765Y-156097129D01*
X133820090Y-155908088D01*
X133666928Y-155743265D01*
X133482068Y-155609723D01*
X133415182Y-155573933D01*
X133219923Y-155504252D01*
X133005367Y-155474054D01*
X132785285Y-155484260D01*
X132619375Y-155520643D01*
X132407662Y-155610127D01*
X132224129Y-155738286D01*
X132072348Y-155899355D01*
X131955892Y-156087568D01*
X131878333Y-156297156D01*
X131843243Y-156522356D01*
X131854003Y-156756100D01*
X131910113Y-156972406D01*
X132008634Y-157167853D01*
X132143923Y-157338060D01*
X132310338Y-157478646D01*
X132502237Y-157585228D01*
X132713977Y-157653426D01*
X132939915Y-157678858D01*
X132952776Y-157678444D01*
X132952776Y-157440754D01*
X132943600Y-157440711D01*
X132823833Y-157437214D01*
X132734762Y-157425673D01*
X132656454Y-157402174D01*
X132583821Y-157370044D01*
X132407300Y-157258919D01*
X132265812Y-157116806D01*
X132161779Y-156950670D01*
X132097623Y-156767473D01*
X132075765Y-156574178D01*
X132098627Y-156377751D01*
X132168631Y-156185152D01*
X132170470Y-156181503D01*
X132281262Y-156016074D01*
X132428796Y-155876475D01*
X132584242Y-155781959D01*
X132669482Y-155746369D01*
X132749347Y-155725794D01*
X132843781Y-155716507D01*
X132944135Y-155714700D01*
X133058893Y-155716925D01*
X133143565Y-155726574D01*
X133218776Y-155748113D01*
X133305152Y-155786006D01*
X133330418Y-155798317D01*
X133508087Y-155909221D01*
X133643174Y-156046843D01*
X133736788Y-156212935D01*
X133790035Y-156409248D01*
X133803237Y-156546287D01*
X133806175Y-156659062D01*
X133801753Y-156740345D01*
X133786519Y-156809293D01*
X133757024Y-156885063D01*
X133732606Y-156938437D01*
X133628756Y-157113274D01*
X133495105Y-157251431D01*
X133323382Y-157361288D01*
X133307392Y-157369281D01*
X133223994Y-157406710D01*
X133150189Y-157428528D01*
X133066330Y-157438590D01*
X132952776Y-157440754D01*
X132952776Y-157678444D01*
X133038248Y-157675691D01*
X133259487Y-157634516D01*
X133464508Y-157548860D01*
X133647768Y-157423909D01*
X133803720Y-157264846D01*
X133926821Y-157076858D01*
X134011526Y-156865129D01*
X134039990Y-156738920D01*
X134051504Y-156519608D01*
X134016166Y-156303323D01*
M02*
