G04 #@! TF.FileFunction,Legend,Top*
%FSLAX46Y46*%
G04 Gerber Fmt 4.6, Leading zero omitted, Abs format (unit mm)*
G04 Created by KiCad (PCBNEW 4.0.7) date 04/19/18 21:13:34*
%MOMM*%
%LPD*%
G01*
G04 APERTURE LIST*
%ADD10C,0.100000*%
%ADD11C,0.200000*%
%ADD12C,0.300000*%
%ADD13C,0.150000*%
%ADD14C,0.508000*%
%ADD15C,0.120000*%
G04 APERTURE END LIST*
D10*
D11*
X134112000Y-53213000D02*
X134112000Y-58356500D01*
X91694000Y-83883500D02*
X134112000Y-83883500D01*
X91694000Y-68453000D02*
X91694000Y-83883500D01*
X91694000Y-53213000D02*
X92710000Y-53213000D01*
X91694000Y-68453000D02*
X91694000Y-53213000D01*
X134112000Y-53213000D02*
X92710000Y-53213000D01*
X134112000Y-78740000D02*
X134112000Y-83883500D01*
D12*
X153812857Y-92900405D02*
X153812857Y-91376595D01*
X154574762Y-92138500D02*
X153050952Y-92138500D01*
D11*
X154876500Y-84137500D02*
X156972000Y-84137500D01*
X154876500Y-100901500D02*
X154876500Y-84137500D01*
X155194000Y-100901500D02*
X154876500Y-100901500D01*
X156972000Y-100901500D02*
X155194000Y-100901500D01*
D12*
X155182858Y-81157071D02*
X155682858Y-82657071D01*
X156182858Y-81157071D01*
X156682858Y-82657071D02*
X156682858Y-81657071D01*
X156682858Y-81157071D02*
X156611429Y-81228500D01*
X156682858Y-81299929D01*
X156754286Y-81228500D01*
X156682858Y-81157071D01*
X156682858Y-81299929D01*
X157397144Y-81657071D02*
X157397144Y-82657071D01*
X157397144Y-81799929D02*
X157468572Y-81728500D01*
X157611430Y-81657071D01*
X157825715Y-81657071D01*
X157968572Y-81728500D01*
X158040001Y-81871357D01*
X158040001Y-82657071D01*
X158754287Y-82514214D02*
X158825715Y-82585643D01*
X158754287Y-82657071D01*
X158682858Y-82585643D01*
X158754287Y-82514214D01*
X158754287Y-82657071D01*
X158754287Y-81728500D02*
X158825715Y-81799929D01*
X158754287Y-81871357D01*
X158682858Y-81799929D01*
X158754287Y-81728500D01*
X158754287Y-81871357D01*
X160682858Y-82657071D02*
X160968573Y-82657071D01*
X161111430Y-82585643D01*
X161182858Y-82514214D01*
X161325716Y-82299929D01*
X161397144Y-82014214D01*
X161397144Y-81442786D01*
X161325716Y-81299929D01*
X161254287Y-81228500D01*
X161111430Y-81157071D01*
X160825716Y-81157071D01*
X160682858Y-81228500D01*
X160611430Y-81299929D01*
X160540001Y-81442786D01*
X160540001Y-81799929D01*
X160611430Y-81942786D01*
X160682858Y-82014214D01*
X160825716Y-82085643D01*
X161111430Y-82085643D01*
X161254287Y-82014214D01*
X161325716Y-81942786D01*
X161397144Y-81799929D01*
X162040001Y-82085643D02*
X163182858Y-82085643D01*
X164682858Y-82657071D02*
X163825715Y-82657071D01*
X164254287Y-82657071D02*
X164254287Y-81157071D01*
X164111430Y-81371357D01*
X163968572Y-81514214D01*
X163825715Y-81585643D01*
X165182858Y-81157071D02*
X166182858Y-81157071D01*
X165540001Y-82657071D01*
X166611429Y-81657071D02*
X166968572Y-82657071D01*
X167325714Y-81657071D01*
X175414714Y-79810357D02*
X175486143Y-79738929D01*
X175557571Y-79810357D01*
X175486143Y-79881786D01*
X175414714Y-79810357D01*
X175557571Y-79810357D01*
X174986143Y-79810357D02*
X174129000Y-79881786D01*
X174057571Y-79810357D01*
X174129000Y-79738929D01*
X174986143Y-79810357D01*
X174057571Y-79810357D01*
X175557571Y-79096071D02*
X174057571Y-79096071D01*
X174771857Y-79096071D02*
X174771857Y-78238928D01*
X175557571Y-78238928D02*
X174057571Y-78238928D01*
X175486143Y-76953214D02*
X175557571Y-77096071D01*
X175557571Y-77381785D01*
X175486143Y-77524642D01*
X175343286Y-77596071D01*
X174771857Y-77596071D01*
X174629000Y-77524642D01*
X174557571Y-77381785D01*
X174557571Y-77096071D01*
X174629000Y-76953214D01*
X174771857Y-76881785D01*
X174914714Y-76881785D01*
X175057571Y-77596071D01*
X175557571Y-75596071D02*
X174771857Y-75596071D01*
X174629000Y-75667500D01*
X174557571Y-75810357D01*
X174557571Y-76096071D01*
X174629000Y-76238928D01*
X175486143Y-75596071D02*
X175557571Y-75738928D01*
X175557571Y-76096071D01*
X175486143Y-76238928D01*
X175343286Y-76310357D01*
X175200429Y-76310357D01*
X175057571Y-76238928D01*
X174986143Y-76096071D01*
X174986143Y-75738928D01*
X174914714Y-75596071D01*
X174557571Y-75096071D02*
X174557571Y-74524642D01*
X174057571Y-74881785D02*
X175343286Y-74881785D01*
X175486143Y-74810357D01*
X175557571Y-74667499D01*
X175557571Y-74524642D01*
X175486143Y-74096071D02*
X175557571Y-73953214D01*
X175557571Y-73667499D01*
X175486143Y-73524642D01*
X175343286Y-73453214D01*
X175271857Y-73453214D01*
X175129000Y-73524642D01*
X175057571Y-73667499D01*
X175057571Y-73881785D01*
X174986143Y-74024642D01*
X174843286Y-74096071D01*
X174771857Y-74096071D01*
X174629000Y-74024642D01*
X174557571Y-73881785D01*
X174557571Y-73667499D01*
X174629000Y-73524642D01*
X175557571Y-72810356D02*
X174557571Y-72810356D01*
X174057571Y-72810356D02*
X174129000Y-72881785D01*
X174200429Y-72810356D01*
X174129000Y-72738928D01*
X174057571Y-72810356D01*
X174200429Y-72810356D01*
X174557571Y-72096070D02*
X175557571Y-72096070D01*
X174700429Y-72096070D02*
X174629000Y-72024642D01*
X174557571Y-71881784D01*
X174557571Y-71667499D01*
X174629000Y-71524642D01*
X174771857Y-71453213D01*
X175557571Y-71453213D01*
X175557571Y-70738927D02*
X174057571Y-70738927D01*
X174986143Y-70596070D02*
X175557571Y-70167499D01*
X174557571Y-70167499D02*
X175129000Y-70738927D01*
X174057571Y-67667498D02*
X174057571Y-68381784D01*
X174771857Y-68453213D01*
X174700429Y-68381784D01*
X174629000Y-68238927D01*
X174629000Y-67881784D01*
X174700429Y-67738927D01*
X174771857Y-67667498D01*
X174914714Y-67596070D01*
X175271857Y-67596070D01*
X175414714Y-67667498D01*
X175486143Y-67738927D01*
X175557571Y-67881784D01*
X175557571Y-68238927D01*
X175486143Y-68381784D01*
X175414714Y-68453213D01*
X174557571Y-67096070D02*
X175557571Y-66738927D01*
X174557571Y-66381785D01*
X175557571Y-63810356D02*
X174843286Y-64310356D01*
X175557571Y-64667499D02*
X174057571Y-64667499D01*
X174057571Y-64096071D01*
X174129000Y-63953213D01*
X174200429Y-63881785D01*
X174343286Y-63810356D01*
X174557571Y-63810356D01*
X174700429Y-63881785D01*
X174771857Y-63953213D01*
X174843286Y-64096071D01*
X174843286Y-64667499D01*
X175486143Y-62596071D02*
X175557571Y-62738928D01*
X175557571Y-63024642D01*
X175486143Y-63167499D01*
X175343286Y-63238928D01*
X174771857Y-63238928D01*
X174629000Y-63167499D01*
X174557571Y-63024642D01*
X174557571Y-62738928D01*
X174629000Y-62596071D01*
X174771857Y-62524642D01*
X174914714Y-62524642D01*
X175057571Y-63238928D01*
X174557571Y-61238928D02*
X175771857Y-61238928D01*
X175914714Y-61310357D01*
X175986143Y-61381785D01*
X176057571Y-61524642D01*
X176057571Y-61738928D01*
X175986143Y-61881785D01*
X175486143Y-61238928D02*
X175557571Y-61381785D01*
X175557571Y-61667499D01*
X175486143Y-61810357D01*
X175414714Y-61881785D01*
X175271857Y-61953214D01*
X174843286Y-61953214D01*
X174700429Y-61881785D01*
X174629000Y-61810357D01*
X174557571Y-61667499D01*
X174557571Y-61381785D01*
X174629000Y-61238928D01*
X175414714Y-60524642D02*
X175486143Y-60453214D01*
X175557571Y-60524642D01*
X175486143Y-60596071D01*
X175414714Y-60524642D01*
X175557571Y-60524642D01*
X174986143Y-60524642D02*
X174129000Y-60596071D01*
X174057571Y-60524642D01*
X174129000Y-60453214D01*
X174986143Y-60524642D01*
X174057571Y-60524642D01*
D13*
X70295189Y-99531262D02*
X70438046Y-99578881D01*
X70676142Y-99578881D01*
X70771380Y-99531262D01*
X70818999Y-99483643D01*
X70866618Y-99388405D01*
X70866618Y-99293167D01*
X70818999Y-99197929D01*
X70771380Y-99150310D01*
X70676142Y-99102690D01*
X70485665Y-99055071D01*
X70390427Y-99007452D01*
X70342808Y-98959833D01*
X70295189Y-98864595D01*
X70295189Y-98769357D01*
X70342808Y-98674119D01*
X70390427Y-98626500D01*
X70485665Y-98578881D01*
X70723761Y-98578881D01*
X70866618Y-98626500D01*
X71152332Y-98912214D02*
X71533284Y-98912214D01*
X71295189Y-98578881D02*
X71295189Y-99436024D01*
X71342808Y-99531262D01*
X71438046Y-99578881D01*
X71533284Y-99578881D01*
X72295190Y-99578881D02*
X72295190Y-99055071D01*
X72247571Y-98959833D01*
X72152333Y-98912214D01*
X71961856Y-98912214D01*
X71866618Y-98959833D01*
X72295190Y-99531262D02*
X72199952Y-99578881D01*
X71961856Y-99578881D01*
X71866618Y-99531262D01*
X71818999Y-99436024D01*
X71818999Y-99340786D01*
X71866618Y-99245548D01*
X71961856Y-99197929D01*
X72199952Y-99197929D01*
X72295190Y-99150310D01*
X72628523Y-98912214D02*
X73009475Y-98912214D01*
X72771380Y-98578881D02*
X72771380Y-99436024D01*
X72818999Y-99531262D01*
X72914237Y-99578881D01*
X73009475Y-99578881D01*
X73771381Y-98912214D02*
X73771381Y-99578881D01*
X73342809Y-98912214D02*
X73342809Y-99436024D01*
X73390428Y-99531262D01*
X73485666Y-99578881D01*
X73628524Y-99578881D01*
X73723762Y-99531262D01*
X73771381Y-99483643D01*
X74199952Y-99531262D02*
X74295190Y-99578881D01*
X74485666Y-99578881D01*
X74580905Y-99531262D01*
X74628524Y-99436024D01*
X74628524Y-99388405D01*
X74580905Y-99293167D01*
X74485666Y-99245548D01*
X74342809Y-99245548D01*
X74247571Y-99197929D01*
X74199952Y-99102690D01*
X74199952Y-99055071D01*
X74247571Y-98959833D01*
X74342809Y-98912214D01*
X74485666Y-98912214D01*
X74580905Y-98959833D01*
X76247572Y-98912214D02*
X76247572Y-99578881D01*
X76009476Y-98531262D02*
X75771381Y-99245548D01*
X76390429Y-99245548D01*
X77819001Y-99959833D02*
X77771381Y-99912214D01*
X77676143Y-99769357D01*
X77628524Y-99674119D01*
X77580905Y-99531262D01*
X77533286Y-99293167D01*
X77533286Y-99102690D01*
X77580905Y-98864595D01*
X77628524Y-98721738D01*
X77676143Y-98626500D01*
X77771381Y-98483643D01*
X77819001Y-98436024D01*
X78199953Y-99578881D02*
X78199953Y-98578881D01*
X78438048Y-98578881D01*
X78580906Y-98626500D01*
X78676144Y-98721738D01*
X78723763Y-98816976D01*
X78771382Y-99007452D01*
X78771382Y-99150310D01*
X78723763Y-99340786D01*
X78676144Y-99436024D01*
X78580906Y-99531262D01*
X78438048Y-99578881D01*
X78199953Y-99578881D01*
X79723763Y-99578881D02*
X79152334Y-99578881D01*
X79438048Y-99578881D02*
X79438048Y-98578881D01*
X79342810Y-98721738D01*
X79247572Y-98816976D01*
X79152334Y-98864595D01*
X80676144Y-99578881D02*
X80104715Y-99578881D01*
X80390429Y-99578881D02*
X80390429Y-98578881D01*
X80295191Y-98721738D01*
X80199953Y-98816976D01*
X80104715Y-98864595D01*
X81009477Y-99959833D02*
X81057096Y-99912214D01*
X81152334Y-99769357D01*
X81199953Y-99674119D01*
X81247572Y-99531262D01*
X81295191Y-99293167D01*
X81295191Y-99102690D01*
X81247572Y-98864595D01*
X81199953Y-98721738D01*
X81152334Y-98626500D01*
X81057096Y-98483643D01*
X81009477Y-98436024D01*
X70295189Y-102831262D02*
X70438046Y-102878881D01*
X70676142Y-102878881D01*
X70771380Y-102831262D01*
X70818999Y-102783643D01*
X70866618Y-102688405D01*
X70866618Y-102593167D01*
X70818999Y-102497929D01*
X70771380Y-102450310D01*
X70676142Y-102402690D01*
X70485665Y-102355071D01*
X70390427Y-102307452D01*
X70342808Y-102259833D01*
X70295189Y-102164595D01*
X70295189Y-102069357D01*
X70342808Y-101974119D01*
X70390427Y-101926500D01*
X70485665Y-101878881D01*
X70723761Y-101878881D01*
X70866618Y-101926500D01*
X71152332Y-102212214D02*
X71533284Y-102212214D01*
X71295189Y-101878881D02*
X71295189Y-102736024D01*
X71342808Y-102831262D01*
X71438046Y-102878881D01*
X71533284Y-102878881D01*
X72295190Y-102878881D02*
X72295190Y-102355071D01*
X72247571Y-102259833D01*
X72152333Y-102212214D01*
X71961856Y-102212214D01*
X71866618Y-102259833D01*
X72295190Y-102831262D02*
X72199952Y-102878881D01*
X71961856Y-102878881D01*
X71866618Y-102831262D01*
X71818999Y-102736024D01*
X71818999Y-102640786D01*
X71866618Y-102545548D01*
X71961856Y-102497929D01*
X72199952Y-102497929D01*
X72295190Y-102450310D01*
X72628523Y-102212214D02*
X73009475Y-102212214D01*
X72771380Y-101878881D02*
X72771380Y-102736024D01*
X72818999Y-102831262D01*
X72914237Y-102878881D01*
X73009475Y-102878881D01*
X73771381Y-102212214D02*
X73771381Y-102878881D01*
X73342809Y-102212214D02*
X73342809Y-102736024D01*
X73390428Y-102831262D01*
X73485666Y-102878881D01*
X73628524Y-102878881D01*
X73723762Y-102831262D01*
X73771381Y-102783643D01*
X74199952Y-102831262D02*
X74295190Y-102878881D01*
X74485666Y-102878881D01*
X74580905Y-102831262D01*
X74628524Y-102736024D01*
X74628524Y-102688405D01*
X74580905Y-102593167D01*
X74485666Y-102545548D01*
X74342809Y-102545548D01*
X74247571Y-102497929D01*
X74199952Y-102402690D01*
X74199952Y-102355071D01*
X74247571Y-102259833D01*
X74342809Y-102212214D01*
X74485666Y-102212214D01*
X74580905Y-102259833D01*
X75723762Y-101878881D02*
X76342810Y-101878881D01*
X76009476Y-102259833D01*
X76152334Y-102259833D01*
X76247572Y-102307452D01*
X76295191Y-102355071D01*
X76342810Y-102450310D01*
X76342810Y-102688405D01*
X76295191Y-102783643D01*
X76247572Y-102831262D01*
X76152334Y-102878881D01*
X75866619Y-102878881D01*
X75771381Y-102831262D01*
X75723762Y-102783643D01*
X77819001Y-103259833D02*
X77771381Y-103212214D01*
X77676143Y-103069357D01*
X77628524Y-102974119D01*
X77580905Y-102831262D01*
X77533286Y-102593167D01*
X77533286Y-102402690D01*
X77580905Y-102164595D01*
X77628524Y-102021738D01*
X77676143Y-101926500D01*
X77771381Y-101783643D01*
X77819001Y-101736024D01*
X78199953Y-102878881D02*
X78199953Y-101878881D01*
X78438048Y-101878881D01*
X78580906Y-101926500D01*
X78676144Y-102021738D01*
X78723763Y-102116976D01*
X78771382Y-102307452D01*
X78771382Y-102450310D01*
X78723763Y-102640786D01*
X78676144Y-102736024D01*
X78580906Y-102831262D01*
X78438048Y-102878881D01*
X78199953Y-102878881D01*
X79723763Y-102878881D02*
X79152334Y-102878881D01*
X79438048Y-102878881D02*
X79438048Y-101878881D01*
X79342810Y-102021738D01*
X79247572Y-102116976D01*
X79152334Y-102164595D01*
X80342810Y-101878881D02*
X80438049Y-101878881D01*
X80533287Y-101926500D01*
X80580906Y-101974119D01*
X80628525Y-102069357D01*
X80676144Y-102259833D01*
X80676144Y-102497929D01*
X80628525Y-102688405D01*
X80580906Y-102783643D01*
X80533287Y-102831262D01*
X80438049Y-102878881D01*
X80342810Y-102878881D01*
X80247572Y-102831262D01*
X80199953Y-102783643D01*
X80152334Y-102688405D01*
X80104715Y-102497929D01*
X80104715Y-102259833D01*
X80152334Y-102069357D01*
X80199953Y-101974119D01*
X80247572Y-101926500D01*
X80342810Y-101878881D01*
X81009477Y-103259833D02*
X81057096Y-103212214D01*
X81152334Y-103069357D01*
X81199953Y-102974119D01*
X81247572Y-102831262D01*
X81295191Y-102593167D01*
X81295191Y-102402690D01*
X81247572Y-102164595D01*
X81199953Y-102021738D01*
X81152334Y-101926500D01*
X81057096Y-101783643D01*
X81009477Y-101736024D01*
X70771380Y-106131262D02*
X70914237Y-106178881D01*
X71152333Y-106178881D01*
X71247571Y-106131262D01*
X71295190Y-106083643D01*
X71342809Y-105988405D01*
X71342809Y-105893167D01*
X71295190Y-105797929D01*
X71247571Y-105750310D01*
X71152333Y-105702690D01*
X70961856Y-105655071D01*
X70866618Y-105607452D01*
X70818999Y-105559833D01*
X70771380Y-105464595D01*
X70771380Y-105369357D01*
X70818999Y-105274119D01*
X70866618Y-105226500D01*
X70961856Y-105178881D01*
X71199952Y-105178881D01*
X71342809Y-105226500D01*
X71628523Y-105512214D02*
X72009475Y-105512214D01*
X71771380Y-105178881D02*
X71771380Y-106036024D01*
X71818999Y-106131262D01*
X71914237Y-106178881D01*
X72009475Y-106178881D01*
X72771381Y-106178881D02*
X72771381Y-105655071D01*
X72723762Y-105559833D01*
X72628524Y-105512214D01*
X72438047Y-105512214D01*
X72342809Y-105559833D01*
X72771381Y-106131262D02*
X72676143Y-106178881D01*
X72438047Y-106178881D01*
X72342809Y-106131262D01*
X72295190Y-106036024D01*
X72295190Y-105940786D01*
X72342809Y-105845548D01*
X72438047Y-105797929D01*
X72676143Y-105797929D01*
X72771381Y-105750310D01*
X73104714Y-105512214D02*
X73485666Y-105512214D01*
X73247571Y-105178881D02*
X73247571Y-106036024D01*
X73295190Y-106131262D01*
X73390428Y-106178881D01*
X73485666Y-106178881D01*
X74247572Y-105512214D02*
X74247572Y-106178881D01*
X73819000Y-105512214D02*
X73819000Y-106036024D01*
X73866619Y-106131262D01*
X73961857Y-106178881D01*
X74104715Y-106178881D01*
X74199953Y-106131262D01*
X74247572Y-106083643D01*
X74676143Y-106131262D02*
X74771381Y-106178881D01*
X74961857Y-106178881D01*
X75057096Y-106131262D01*
X75104715Y-106036024D01*
X75104715Y-105988405D01*
X75057096Y-105893167D01*
X74961857Y-105845548D01*
X74819000Y-105845548D01*
X74723762Y-105797929D01*
X74676143Y-105702690D01*
X74676143Y-105655071D01*
X74723762Y-105559833D01*
X74819000Y-105512214D01*
X74961857Y-105512214D01*
X75057096Y-105559833D01*
X76247572Y-105274119D02*
X76295191Y-105226500D01*
X76390429Y-105178881D01*
X76628525Y-105178881D01*
X76723763Y-105226500D01*
X76771382Y-105274119D01*
X76819001Y-105369357D01*
X76819001Y-105464595D01*
X76771382Y-105607452D01*
X76199953Y-106178881D01*
X76819001Y-106178881D01*
X78295192Y-106559833D02*
X78247572Y-106512214D01*
X78152334Y-106369357D01*
X78104715Y-106274119D01*
X78057096Y-106131262D01*
X78009477Y-105893167D01*
X78009477Y-105702690D01*
X78057096Y-105464595D01*
X78104715Y-105321738D01*
X78152334Y-105226500D01*
X78247572Y-105083643D01*
X78295192Y-105036024D01*
X78676144Y-106178881D02*
X78676144Y-105178881D01*
X78914239Y-105178881D01*
X79057097Y-105226500D01*
X79152335Y-105321738D01*
X79199954Y-105416976D01*
X79247573Y-105607452D01*
X79247573Y-105750310D01*
X79199954Y-105940786D01*
X79152335Y-106036024D01*
X79057097Y-106131262D01*
X78914239Y-106178881D01*
X78676144Y-106178881D01*
X79723763Y-106178881D02*
X79914239Y-106178881D01*
X80009478Y-106131262D01*
X80057097Y-106083643D01*
X80152335Y-105940786D01*
X80199954Y-105750310D01*
X80199954Y-105369357D01*
X80152335Y-105274119D01*
X80104716Y-105226500D01*
X80009478Y-105178881D01*
X79819001Y-105178881D01*
X79723763Y-105226500D01*
X79676144Y-105274119D01*
X79628525Y-105369357D01*
X79628525Y-105607452D01*
X79676144Y-105702690D01*
X79723763Y-105750310D01*
X79819001Y-105797929D01*
X80009478Y-105797929D01*
X80104716Y-105750310D01*
X80152335Y-105702690D01*
X80199954Y-105607452D01*
X80533287Y-106559833D02*
X80580906Y-106512214D01*
X80676144Y-106369357D01*
X80723763Y-106274119D01*
X80771382Y-106131262D01*
X80819001Y-105893167D01*
X80819001Y-105702690D01*
X80771382Y-105464595D01*
X80723763Y-105321738D01*
X80676144Y-105226500D01*
X80580906Y-105083643D01*
X80533287Y-105036024D01*
X70771380Y-109431262D02*
X70914237Y-109478881D01*
X71152333Y-109478881D01*
X71247571Y-109431262D01*
X71295190Y-109383643D01*
X71342809Y-109288405D01*
X71342809Y-109193167D01*
X71295190Y-109097929D01*
X71247571Y-109050310D01*
X71152333Y-109002690D01*
X70961856Y-108955071D01*
X70866618Y-108907452D01*
X70818999Y-108859833D01*
X70771380Y-108764595D01*
X70771380Y-108669357D01*
X70818999Y-108574119D01*
X70866618Y-108526500D01*
X70961856Y-108478881D01*
X71199952Y-108478881D01*
X71342809Y-108526500D01*
X71628523Y-108812214D02*
X72009475Y-108812214D01*
X71771380Y-108478881D02*
X71771380Y-109336024D01*
X71818999Y-109431262D01*
X71914237Y-109478881D01*
X72009475Y-109478881D01*
X72771381Y-109478881D02*
X72771381Y-108955071D01*
X72723762Y-108859833D01*
X72628524Y-108812214D01*
X72438047Y-108812214D01*
X72342809Y-108859833D01*
X72771381Y-109431262D02*
X72676143Y-109478881D01*
X72438047Y-109478881D01*
X72342809Y-109431262D01*
X72295190Y-109336024D01*
X72295190Y-109240786D01*
X72342809Y-109145548D01*
X72438047Y-109097929D01*
X72676143Y-109097929D01*
X72771381Y-109050310D01*
X73104714Y-108812214D02*
X73485666Y-108812214D01*
X73247571Y-108478881D02*
X73247571Y-109336024D01*
X73295190Y-109431262D01*
X73390428Y-109478881D01*
X73485666Y-109478881D01*
X74247572Y-108812214D02*
X74247572Y-109478881D01*
X73819000Y-108812214D02*
X73819000Y-109336024D01*
X73866619Y-109431262D01*
X73961857Y-109478881D01*
X74104715Y-109478881D01*
X74199953Y-109431262D01*
X74247572Y-109383643D01*
X74676143Y-109431262D02*
X74771381Y-109478881D01*
X74961857Y-109478881D01*
X75057096Y-109431262D01*
X75104715Y-109336024D01*
X75104715Y-109288405D01*
X75057096Y-109193167D01*
X74961857Y-109145548D01*
X74819000Y-109145548D01*
X74723762Y-109097929D01*
X74676143Y-109002690D01*
X74676143Y-108955071D01*
X74723762Y-108859833D01*
X74819000Y-108812214D01*
X74961857Y-108812214D01*
X75057096Y-108859833D01*
X76819001Y-109478881D02*
X76247572Y-109478881D01*
X76533286Y-109478881D02*
X76533286Y-108478881D01*
X76438048Y-108621738D01*
X76342810Y-108716976D01*
X76247572Y-108764595D01*
X78295192Y-109859833D02*
X78247572Y-109812214D01*
X78152334Y-109669357D01*
X78104715Y-109574119D01*
X78057096Y-109431262D01*
X78009477Y-109193167D01*
X78009477Y-109002690D01*
X78057096Y-108764595D01*
X78104715Y-108621738D01*
X78152334Y-108526500D01*
X78247572Y-108383643D01*
X78295192Y-108336024D01*
X78676144Y-109478881D02*
X78676144Y-108478881D01*
X78914239Y-108478881D01*
X79057097Y-108526500D01*
X79152335Y-108621738D01*
X79199954Y-108716976D01*
X79247573Y-108907452D01*
X79247573Y-109050310D01*
X79199954Y-109240786D01*
X79152335Y-109336024D01*
X79057097Y-109431262D01*
X78914239Y-109478881D01*
X78676144Y-109478881D01*
X80152335Y-108478881D02*
X79676144Y-108478881D01*
X79628525Y-108955071D01*
X79676144Y-108907452D01*
X79771382Y-108859833D01*
X80009478Y-108859833D01*
X80104716Y-108907452D01*
X80152335Y-108955071D01*
X80199954Y-109050310D01*
X80199954Y-109288405D01*
X80152335Y-109383643D01*
X80104716Y-109431262D01*
X80009478Y-109478881D01*
X79771382Y-109478881D01*
X79676144Y-109431262D01*
X79628525Y-109383643D01*
X80533287Y-109859833D02*
X80580906Y-109812214D01*
X80676144Y-109669357D01*
X80723763Y-109574119D01*
X80771382Y-109431262D01*
X80819001Y-109193167D01*
X80819001Y-109002690D01*
X80771382Y-108764595D01*
X80723763Y-108621738D01*
X80676144Y-108526500D01*
X80580906Y-108383643D01*
X80533287Y-108336024D01*
X70143858Y-141154571D02*
X69810524Y-141154571D01*
X69810524Y-141678381D02*
X69810524Y-140678381D01*
X70286715Y-140678381D01*
X70667667Y-141678381D02*
X70667667Y-140678381D01*
X70905762Y-140678381D01*
X71048620Y-140726000D01*
X71143858Y-140821238D01*
X71191477Y-140916476D01*
X71239096Y-141106952D01*
X71239096Y-141249810D01*
X71191477Y-141440286D01*
X71143858Y-141535524D01*
X71048620Y-141630762D01*
X70905762Y-141678381D01*
X70667667Y-141678381D01*
X72001001Y-141154571D02*
X72143858Y-141202190D01*
X72191477Y-141249810D01*
X72239096Y-141345048D01*
X72239096Y-141487905D01*
X72191477Y-141583143D01*
X72143858Y-141630762D01*
X72048620Y-141678381D01*
X71667667Y-141678381D01*
X71667667Y-140678381D01*
X72001001Y-140678381D01*
X72096239Y-140726000D01*
X72143858Y-140773619D01*
X72191477Y-140868857D01*
X72191477Y-140964095D01*
X72143858Y-141059333D01*
X72096239Y-141106952D01*
X72001001Y-141154571D01*
X71667667Y-141154571D01*
X72667667Y-141678381D02*
X72667667Y-140678381D01*
X73239096Y-141678381D02*
X72810524Y-141106952D01*
X73239096Y-140678381D02*
X72667667Y-141249810D01*
X70024810Y-143978381D02*
X70643858Y-143978381D01*
X70310524Y-144359333D01*
X70453382Y-144359333D01*
X70548620Y-144406952D01*
X70596239Y-144454571D01*
X70643858Y-144549810D01*
X70643858Y-144787905D01*
X70596239Y-144883143D01*
X70548620Y-144930762D01*
X70453382Y-144978381D01*
X70167667Y-144978381D01*
X70072429Y-144930762D01*
X70024810Y-144883143D01*
X71072429Y-144883143D02*
X71120048Y-144930762D01*
X71072429Y-144978381D01*
X71024810Y-144930762D01*
X71072429Y-144883143D01*
X71072429Y-144978381D01*
X71453381Y-143978381D02*
X72072429Y-143978381D01*
X71739095Y-144359333D01*
X71881953Y-144359333D01*
X71977191Y-144406952D01*
X72024810Y-144454571D01*
X72072429Y-144549810D01*
X72072429Y-144787905D01*
X72024810Y-144883143D01*
X71977191Y-144930762D01*
X71881953Y-144978381D01*
X71596238Y-144978381D01*
X71501000Y-144930762D01*
X71453381Y-144883143D01*
X72358143Y-143978381D02*
X72691476Y-144978381D01*
X73024810Y-143978381D01*
X70739096Y-147326000D02*
X70643858Y-147278381D01*
X70501001Y-147278381D01*
X70358143Y-147326000D01*
X70262905Y-147421238D01*
X70215286Y-147516476D01*
X70167667Y-147706952D01*
X70167667Y-147849810D01*
X70215286Y-148040286D01*
X70262905Y-148135524D01*
X70358143Y-148230762D01*
X70501001Y-148278381D01*
X70596239Y-148278381D01*
X70739096Y-148230762D01*
X70786715Y-148183143D01*
X70786715Y-147849810D01*
X70596239Y-147849810D01*
X71215286Y-148278381D02*
X71215286Y-147278381D01*
X71786715Y-148278381D01*
X71786715Y-147278381D01*
X72262905Y-148278381D02*
X72262905Y-147278381D01*
X72501000Y-147278381D01*
X72643858Y-147326000D01*
X72739096Y-147421238D01*
X72786715Y-147516476D01*
X72834334Y-147706952D01*
X72834334Y-147849810D01*
X72786715Y-148040286D01*
X72739096Y-148135524D01*
X72643858Y-148230762D01*
X72501000Y-148278381D01*
X72262905Y-148278381D01*
X69596096Y-162189000D02*
X69500858Y-162141381D01*
X69358001Y-162141381D01*
X69215143Y-162189000D01*
X69119905Y-162284238D01*
X69072286Y-162379476D01*
X69024667Y-162569952D01*
X69024667Y-162712810D01*
X69072286Y-162903286D01*
X69119905Y-162998524D01*
X69215143Y-163093762D01*
X69358001Y-163141381D01*
X69453239Y-163141381D01*
X69596096Y-163093762D01*
X69643715Y-163046143D01*
X69643715Y-162712810D01*
X69453239Y-162712810D01*
X70072286Y-163141381D02*
X70072286Y-162141381D01*
X70643715Y-163141381D01*
X70643715Y-162141381D01*
X71119905Y-163141381D02*
X71119905Y-162141381D01*
X71358000Y-162141381D01*
X71500858Y-162189000D01*
X71596096Y-162284238D01*
X71643715Y-162379476D01*
X71691334Y-162569952D01*
X71691334Y-162712810D01*
X71643715Y-162903286D01*
X71596096Y-162998524D01*
X71500858Y-163093762D01*
X71358000Y-163141381D01*
X71119905Y-163141381D01*
X69167524Y-166393762D02*
X69310381Y-166441381D01*
X69548477Y-166441381D01*
X69643715Y-166393762D01*
X69691334Y-166346143D01*
X69738953Y-166250905D01*
X69738953Y-166155667D01*
X69691334Y-166060429D01*
X69643715Y-166012810D01*
X69548477Y-165965190D01*
X69358000Y-165917571D01*
X69262762Y-165869952D01*
X69215143Y-165822333D01*
X69167524Y-165727095D01*
X69167524Y-165631857D01*
X69215143Y-165536619D01*
X69262762Y-165489000D01*
X69358000Y-165441381D01*
X69596096Y-165441381D01*
X69738953Y-165489000D01*
X70738953Y-166346143D02*
X70691334Y-166393762D01*
X70548477Y-166441381D01*
X70453239Y-166441381D01*
X70310381Y-166393762D01*
X70215143Y-166298524D01*
X70167524Y-166203286D01*
X70119905Y-166012810D01*
X70119905Y-165869952D01*
X70167524Y-165679476D01*
X70215143Y-165584238D01*
X70310381Y-165489000D01*
X70453239Y-165441381D01*
X70548477Y-165441381D01*
X70691334Y-165489000D01*
X70738953Y-165536619D01*
X71643715Y-166441381D02*
X71167524Y-166441381D01*
X71167524Y-165441381D01*
X69143714Y-169693762D02*
X69286571Y-169741381D01*
X69524667Y-169741381D01*
X69619905Y-169693762D01*
X69667524Y-169646143D01*
X69715143Y-169550905D01*
X69715143Y-169455667D01*
X69667524Y-169360429D01*
X69619905Y-169312810D01*
X69524667Y-169265190D01*
X69334190Y-169217571D01*
X69238952Y-169169952D01*
X69191333Y-169122333D01*
X69143714Y-169027095D01*
X69143714Y-168931857D01*
X69191333Y-168836619D01*
X69238952Y-168789000D01*
X69334190Y-168741381D01*
X69572286Y-168741381D01*
X69715143Y-168789000D01*
X70143714Y-169741381D02*
X70143714Y-168741381D01*
X70381809Y-168741381D01*
X70524667Y-168789000D01*
X70619905Y-168884238D01*
X70667524Y-168979476D01*
X70715143Y-169169952D01*
X70715143Y-169312810D01*
X70667524Y-169503286D01*
X70619905Y-169598524D01*
X70524667Y-169693762D01*
X70381809Y-169741381D01*
X70143714Y-169741381D01*
X71096095Y-169455667D02*
X71572286Y-169455667D01*
X71000857Y-169741381D02*
X71334190Y-168741381D01*
X71667524Y-169741381D01*
D11*
X121666000Y-174371000D02*
X121666000Y-178689000D01*
D13*
X127929667Y-107441619D02*
X127929667Y-106965428D01*
X128215381Y-107536857D02*
X127215381Y-107203524D01*
X128215381Y-106870190D01*
X128215381Y-106536857D02*
X127215381Y-106536857D01*
X127215381Y-106298762D01*
X127263000Y-106155904D01*
X127358238Y-106060666D01*
X127453476Y-106013047D01*
X127643952Y-105965428D01*
X127786810Y-105965428D01*
X127977286Y-106013047D01*
X128072524Y-106060666D01*
X128167762Y-106155904D01*
X128215381Y-106298762D01*
X128215381Y-106536857D01*
X127215381Y-105632095D02*
X128215381Y-104965428D01*
X127215381Y-104965428D02*
X128215381Y-105632095D01*
X128215381Y-104108285D02*
X128215381Y-104584476D01*
X127215381Y-104584476D01*
X127215381Y-103870190D02*
X127215381Y-103251142D01*
X127596333Y-103584476D01*
X127596333Y-103441618D01*
X127643952Y-103346380D01*
X127691571Y-103298761D01*
X127786810Y-103251142D01*
X128024905Y-103251142D01*
X128120143Y-103298761D01*
X128167762Y-103346380D01*
X128215381Y-103441618D01*
X128215381Y-103727333D01*
X128167762Y-103822571D01*
X128120143Y-103870190D01*
X127215381Y-102917809D02*
X127215381Y-102298761D01*
X127596333Y-102632095D01*
X127596333Y-102489237D01*
X127643952Y-102393999D01*
X127691571Y-102346380D01*
X127786810Y-102298761D01*
X128024905Y-102298761D01*
X128120143Y-102346380D01*
X128167762Y-102393999D01*
X128215381Y-102489237D01*
X128215381Y-102774952D01*
X128167762Y-102870190D01*
X128120143Y-102917809D01*
X127215381Y-101965428D02*
X127215381Y-101298761D01*
X128215381Y-101727333D01*
X129865381Y-109298762D02*
X128865381Y-109298762D01*
X129341571Y-109298762D02*
X129341571Y-108727333D01*
X129865381Y-108727333D02*
X128865381Y-108727333D01*
X129865381Y-108251143D02*
X129198714Y-108251143D01*
X128865381Y-108251143D02*
X128913000Y-108298762D01*
X128960619Y-108251143D01*
X128913000Y-108203524D01*
X128865381Y-108251143D01*
X128960619Y-108251143D01*
X129198714Y-107346381D02*
X130008238Y-107346381D01*
X130103476Y-107394000D01*
X130151095Y-107441619D01*
X130198714Y-107536858D01*
X130198714Y-107679715D01*
X130151095Y-107774953D01*
X129817762Y-107346381D02*
X129865381Y-107441619D01*
X129865381Y-107632096D01*
X129817762Y-107727334D01*
X129770143Y-107774953D01*
X129674905Y-107822572D01*
X129389190Y-107822572D01*
X129293952Y-107774953D01*
X129246333Y-107727334D01*
X129198714Y-107632096D01*
X129198714Y-107441619D01*
X129246333Y-107346381D01*
X129865381Y-106870191D02*
X128865381Y-106870191D01*
X129865381Y-106441619D02*
X129341571Y-106441619D01*
X129246333Y-106489238D01*
X129198714Y-106584476D01*
X129198714Y-106727334D01*
X129246333Y-106822572D01*
X129293952Y-106870191D01*
X129484429Y-105965429D02*
X129484429Y-105203524D01*
X128913000Y-104203524D02*
X128865381Y-104298762D01*
X128865381Y-104441619D01*
X128913000Y-104584477D01*
X129008238Y-104679715D01*
X129103476Y-104727334D01*
X129293952Y-104774953D01*
X129436810Y-104774953D01*
X129627286Y-104727334D01*
X129722524Y-104679715D01*
X129817762Y-104584477D01*
X129865381Y-104441619D01*
X129865381Y-104346381D01*
X129817762Y-104203524D01*
X129770143Y-104155905D01*
X129436810Y-104155905D01*
X129436810Y-104346381D01*
X129579667Y-103013048D02*
X129579667Y-102536857D01*
X129865381Y-103108286D02*
X128865381Y-102774953D01*
X129865381Y-102441619D01*
X129817762Y-101679714D02*
X129865381Y-101774952D01*
X129865381Y-101965429D01*
X129817762Y-102060667D01*
X129770143Y-102108286D01*
X129674905Y-102155905D01*
X129389190Y-102155905D01*
X129293952Y-102108286D01*
X129246333Y-102060667D01*
X129198714Y-101965429D01*
X129198714Y-101774952D01*
X129246333Y-101679714D01*
X129817762Y-100822571D02*
X129865381Y-100917809D01*
X129865381Y-101108286D01*
X129817762Y-101203524D01*
X129770143Y-101251143D01*
X129674905Y-101298762D01*
X129389190Y-101298762D01*
X129293952Y-101251143D01*
X129246333Y-101203524D01*
X129198714Y-101108286D01*
X129198714Y-100917809D01*
X129246333Y-100822571D01*
X129817762Y-100013047D02*
X129865381Y-100108285D01*
X129865381Y-100298762D01*
X129817762Y-100394000D01*
X129722524Y-100441619D01*
X129341571Y-100441619D01*
X129246333Y-100394000D01*
X129198714Y-100298762D01*
X129198714Y-100108285D01*
X129246333Y-100013047D01*
X129341571Y-99965428D01*
X129436810Y-99965428D01*
X129532048Y-100441619D01*
X129865381Y-99394000D02*
X129817762Y-99489238D01*
X129722524Y-99536857D01*
X128865381Y-99536857D01*
X131229667Y-106703524D02*
X131229667Y-106227333D01*
X131515381Y-106798762D02*
X130515381Y-106465429D01*
X131515381Y-106132095D01*
X130848714Y-105798762D02*
X131515381Y-105798762D01*
X130943952Y-105798762D02*
X130896333Y-105751143D01*
X130848714Y-105655905D01*
X130848714Y-105513047D01*
X130896333Y-105417809D01*
X130991571Y-105370190D01*
X131515381Y-105370190D01*
X131515381Y-104465428D02*
X130991571Y-104465428D01*
X130896333Y-104513047D01*
X130848714Y-104608285D01*
X130848714Y-104798762D01*
X130896333Y-104894000D01*
X131467762Y-104465428D02*
X131515381Y-104560666D01*
X131515381Y-104798762D01*
X131467762Y-104894000D01*
X131372524Y-104941619D01*
X131277286Y-104941619D01*
X131182048Y-104894000D01*
X131134429Y-104798762D01*
X131134429Y-104560666D01*
X131086810Y-104465428D01*
X131515381Y-103846381D02*
X131467762Y-103941619D01*
X131372524Y-103989238D01*
X130515381Y-103989238D01*
X131515381Y-103322571D02*
X131467762Y-103417809D01*
X131420143Y-103465428D01*
X131324905Y-103513047D01*
X131039190Y-103513047D01*
X130943952Y-103465428D01*
X130896333Y-103417809D01*
X130848714Y-103322571D01*
X130848714Y-103179713D01*
X130896333Y-103084475D01*
X130943952Y-103036856D01*
X131039190Y-102989237D01*
X131324905Y-102989237D01*
X131420143Y-103036856D01*
X131467762Y-103084475D01*
X131515381Y-103179713D01*
X131515381Y-103322571D01*
X130848714Y-102132094D02*
X131658238Y-102132094D01*
X131753476Y-102179713D01*
X131801095Y-102227332D01*
X131848714Y-102322571D01*
X131848714Y-102465428D01*
X131801095Y-102560666D01*
X131467762Y-102132094D02*
X131515381Y-102227332D01*
X131515381Y-102417809D01*
X131467762Y-102513047D01*
X131420143Y-102560666D01*
X131324905Y-102608285D01*
X131039190Y-102608285D01*
X130943952Y-102560666D01*
X130896333Y-102513047D01*
X130848714Y-102417809D01*
X130848714Y-102227332D01*
X130896333Y-102132094D01*
X118420571Y-145279761D02*
X118468190Y-145136904D01*
X118515810Y-145089285D01*
X118611048Y-145041666D01*
X118753905Y-145041666D01*
X118849143Y-145089285D01*
X118896762Y-145136904D01*
X118944381Y-145232142D01*
X118944381Y-145613095D01*
X117944381Y-145613095D01*
X117944381Y-145279761D01*
X117992000Y-145184523D01*
X118039619Y-145136904D01*
X118134857Y-145089285D01*
X118230095Y-145089285D01*
X118325333Y-145136904D01*
X118372952Y-145184523D01*
X118420571Y-145279761D01*
X118420571Y-145613095D01*
X118944381Y-144613095D02*
X117944381Y-144613095D01*
X118944381Y-144041666D01*
X117944381Y-144041666D01*
X117944381Y-143375000D02*
X117944381Y-143184523D01*
X117992000Y-143089285D01*
X118087238Y-142994047D01*
X118277714Y-142946428D01*
X118611048Y-142946428D01*
X118801524Y-142994047D01*
X118896762Y-143089285D01*
X118944381Y-143184523D01*
X118944381Y-143375000D01*
X118896762Y-143470238D01*
X118801524Y-143565476D01*
X118611048Y-143613095D01*
X118277714Y-143613095D01*
X118087238Y-143565476D01*
X117992000Y-143470238D01*
X117944381Y-143375000D01*
X117944381Y-142327381D02*
X117944381Y-142232142D01*
X117992000Y-142136904D01*
X118039619Y-142089285D01*
X118134857Y-142041666D01*
X118325333Y-141994047D01*
X118563429Y-141994047D01*
X118753905Y-142041666D01*
X118849143Y-142089285D01*
X118896762Y-142136904D01*
X118944381Y-142232142D01*
X118944381Y-142327381D01*
X118896762Y-142422619D01*
X118849143Y-142470238D01*
X118753905Y-142517857D01*
X118563429Y-142565476D01*
X118325333Y-142565476D01*
X118134857Y-142517857D01*
X118039619Y-142470238D01*
X117992000Y-142422619D01*
X117944381Y-142327381D01*
X117944381Y-141089285D02*
X117944381Y-141565476D01*
X118420571Y-141613095D01*
X118372952Y-141565476D01*
X118325333Y-141470238D01*
X118325333Y-141232142D01*
X118372952Y-141136904D01*
X118420571Y-141089285D01*
X118515810Y-141041666D01*
X118753905Y-141041666D01*
X118849143Y-141089285D01*
X118896762Y-141136904D01*
X118944381Y-141232142D01*
X118944381Y-141470238D01*
X118896762Y-141565476D01*
X118849143Y-141613095D01*
X117944381Y-140136904D02*
X117944381Y-140613095D01*
X118420571Y-140660714D01*
X118372952Y-140613095D01*
X118325333Y-140517857D01*
X118325333Y-140279761D01*
X118372952Y-140184523D01*
X118420571Y-140136904D01*
X118515810Y-140089285D01*
X118753905Y-140089285D01*
X118849143Y-140136904D01*
X118896762Y-140184523D01*
X118944381Y-140279761D01*
X118944381Y-140517857D01*
X118896762Y-140613095D01*
X118849143Y-140660714D01*
X120594381Y-143970238D02*
X119594381Y-143970238D01*
X120594381Y-143494048D02*
X119594381Y-143494048D01*
X120308667Y-143160714D01*
X119594381Y-142827381D01*
X120594381Y-142827381D01*
X119594381Y-142351191D02*
X120403905Y-142351191D01*
X120499143Y-142303572D01*
X120546762Y-142255953D01*
X120594381Y-142160715D01*
X120594381Y-141970238D01*
X120546762Y-141875000D01*
X120499143Y-141827381D01*
X120403905Y-141779762D01*
X119594381Y-141779762D01*
X121244381Y-144279762D02*
X121244381Y-144184523D01*
X121292000Y-144089285D01*
X121339619Y-144041666D01*
X121434857Y-143994047D01*
X121625333Y-143946428D01*
X121863429Y-143946428D01*
X122053905Y-143994047D01*
X122149143Y-144041666D01*
X122196762Y-144089285D01*
X122244381Y-144184523D01*
X122244381Y-144279762D01*
X122196762Y-144375000D01*
X122149143Y-144422619D01*
X122053905Y-144470238D01*
X121863429Y-144517857D01*
X121625333Y-144517857D01*
X121434857Y-144470238D01*
X121339619Y-144422619D01*
X121292000Y-144375000D01*
X121244381Y-144279762D01*
X122244381Y-143613095D02*
X121577714Y-143089285D01*
X121577714Y-143613095D02*
X122244381Y-143089285D01*
X121339619Y-142755952D02*
X121292000Y-142708333D01*
X121244381Y-142613095D01*
X121244381Y-142374999D01*
X121292000Y-142279761D01*
X121339619Y-142232142D01*
X121434857Y-142184523D01*
X121530095Y-142184523D01*
X121672952Y-142232142D01*
X122244381Y-142803571D01*
X122244381Y-142184523D01*
X121672952Y-141613095D02*
X121625333Y-141708333D01*
X121577714Y-141755952D01*
X121482476Y-141803571D01*
X121434857Y-141803571D01*
X121339619Y-141755952D01*
X121292000Y-141708333D01*
X121244381Y-141613095D01*
X121244381Y-141422618D01*
X121292000Y-141327380D01*
X121339619Y-141279761D01*
X121434857Y-141232142D01*
X121482476Y-141232142D01*
X121577714Y-141279761D01*
X121625333Y-141327380D01*
X121672952Y-141422618D01*
X121672952Y-141613095D01*
X121720571Y-141708333D01*
X121768190Y-141755952D01*
X121863429Y-141803571D01*
X122053905Y-141803571D01*
X122149143Y-141755952D01*
X122196762Y-141708333D01*
X122244381Y-141613095D01*
X122244381Y-141422618D01*
X122196762Y-141327380D01*
X122149143Y-141279761D01*
X122053905Y-141232142D01*
X121863429Y-141232142D01*
X121768190Y-141279761D01*
X121720571Y-141327380D01*
X121672952Y-141422618D01*
D12*
X164985000Y-164396857D02*
X164913571Y-164539714D01*
X164913571Y-164754000D01*
X164985000Y-164968285D01*
X165127857Y-165111143D01*
X165270714Y-165182571D01*
X165556429Y-165254000D01*
X165770714Y-165254000D01*
X166056429Y-165182571D01*
X166199286Y-165111143D01*
X166342143Y-164968285D01*
X166413571Y-164754000D01*
X166413571Y-164611143D01*
X166342143Y-164396857D01*
X166270714Y-164325428D01*
X165770714Y-164325428D01*
X165770714Y-164611143D01*
X166413571Y-163682571D02*
X164913571Y-163682571D01*
X164913571Y-163111143D01*
X164985000Y-162968285D01*
X165056429Y-162896857D01*
X165199286Y-162825428D01*
X165413571Y-162825428D01*
X165556429Y-162896857D01*
X165627857Y-162968285D01*
X165699286Y-163111143D01*
X165699286Y-163682571D01*
X166342143Y-162254000D02*
X166413571Y-162039714D01*
X166413571Y-161682571D01*
X166342143Y-161539714D01*
X166270714Y-161468285D01*
X166127857Y-161396857D01*
X165985000Y-161396857D01*
X165842143Y-161468285D01*
X165770714Y-161539714D01*
X165699286Y-161682571D01*
X165627857Y-161968285D01*
X165556429Y-162111143D01*
X165485000Y-162182571D01*
X165342143Y-162254000D01*
X165199286Y-162254000D01*
X165056429Y-162182571D01*
X164985000Y-162111143D01*
X164913571Y-161968285D01*
X164913571Y-161611143D01*
X164985000Y-161396857D01*
X164985000Y-158825429D02*
X164913571Y-158968286D01*
X164913571Y-159182572D01*
X164985000Y-159396857D01*
X165127857Y-159539715D01*
X165270714Y-159611143D01*
X165556429Y-159682572D01*
X165770714Y-159682572D01*
X166056429Y-159611143D01*
X166199286Y-159539715D01*
X166342143Y-159396857D01*
X166413571Y-159182572D01*
X166413571Y-159039715D01*
X166342143Y-158825429D01*
X166270714Y-158754000D01*
X165770714Y-158754000D01*
X165770714Y-159039715D01*
X164913571Y-158325429D02*
X164913571Y-157468286D01*
X166413571Y-157896857D02*
X164913571Y-157896857D01*
X165842143Y-156968286D02*
X165842143Y-155825429D01*
X164913571Y-155111143D02*
X166127857Y-155111143D01*
X166270714Y-155039715D01*
X166342143Y-154968286D01*
X166413571Y-154825429D01*
X166413571Y-154539715D01*
X166342143Y-154396857D01*
X166270714Y-154325429D01*
X166127857Y-154254000D01*
X164913571Y-154254000D01*
X164913571Y-153682571D02*
X164913571Y-152682571D01*
X166413571Y-153325428D01*
D13*
X135708381Y-166639429D02*
X134708381Y-166639429D01*
X135422667Y-166306095D01*
X134708381Y-165972762D01*
X135708381Y-165972762D01*
X135708381Y-165496572D02*
X134708381Y-165496572D01*
X134708381Y-165115619D01*
X134756000Y-165020381D01*
X134803619Y-164972762D01*
X134898857Y-164925143D01*
X135041714Y-164925143D01*
X135136952Y-164972762D01*
X135184571Y-165020381D01*
X135232190Y-165115619D01*
X135232190Y-165496572D01*
X135708381Y-164020381D02*
X135708381Y-164496572D01*
X134708381Y-164496572D01*
X135708381Y-163163238D02*
X135708381Y-163734667D01*
X135708381Y-163448953D02*
X134708381Y-163448953D01*
X134851238Y-163544191D01*
X134946476Y-163639429D01*
X134994095Y-163734667D01*
X135708381Y-162210857D02*
X135708381Y-162782286D01*
X135708381Y-162496572D02*
X134708381Y-162496572D01*
X134851238Y-162591810D01*
X134946476Y-162687048D01*
X134994095Y-162782286D01*
X134708381Y-161306095D02*
X134708381Y-161782286D01*
X135184571Y-161829905D01*
X135136952Y-161782286D01*
X135089333Y-161687048D01*
X135089333Y-161448952D01*
X135136952Y-161353714D01*
X135184571Y-161306095D01*
X135279810Y-161258476D01*
X135517905Y-161258476D01*
X135613143Y-161306095D01*
X135660762Y-161353714D01*
X135708381Y-161448952D01*
X135708381Y-161687048D01*
X135660762Y-161782286D01*
X135613143Y-161829905D01*
X135422667Y-160877524D02*
X135422667Y-160401333D01*
X135708381Y-160972762D02*
X134708381Y-160639429D01*
X135708381Y-160306095D01*
X134803619Y-160020381D02*
X134756000Y-159972762D01*
X134708381Y-159877524D01*
X134708381Y-159639428D01*
X134756000Y-159544190D01*
X134803619Y-159496571D01*
X134898857Y-159448952D01*
X134994095Y-159448952D01*
X135136952Y-159496571D01*
X135708381Y-160068000D01*
X135708381Y-159448952D01*
X136834571Y-164210857D02*
X136882190Y-164068000D01*
X136929810Y-164020381D01*
X137025048Y-163972762D01*
X137167905Y-163972762D01*
X137263143Y-164020381D01*
X137310762Y-164068000D01*
X137358381Y-164163238D01*
X137358381Y-164544191D01*
X136358381Y-164544191D01*
X136358381Y-164210857D01*
X136406000Y-164115619D01*
X136453619Y-164068000D01*
X136548857Y-164020381D01*
X136644095Y-164020381D01*
X136739333Y-164068000D01*
X136786952Y-164115619D01*
X136834571Y-164210857D01*
X136834571Y-164544191D01*
X137358381Y-163115619D02*
X136834571Y-163115619D01*
X136739333Y-163163238D01*
X136691714Y-163258476D01*
X136691714Y-163448953D01*
X136739333Y-163544191D01*
X137310762Y-163115619D02*
X137358381Y-163210857D01*
X137358381Y-163448953D01*
X137310762Y-163544191D01*
X137215524Y-163591810D01*
X137120286Y-163591810D01*
X137025048Y-163544191D01*
X136977429Y-163448953D01*
X136977429Y-163210857D01*
X136929810Y-163115619D01*
X137358381Y-162639429D02*
X136691714Y-162639429D01*
X136882190Y-162639429D02*
X136786952Y-162591810D01*
X136739333Y-162544191D01*
X136691714Y-162448953D01*
X136691714Y-162353714D01*
X137358381Y-161877524D02*
X137310762Y-161972762D01*
X137263143Y-162020381D01*
X137167905Y-162068000D01*
X136882190Y-162068000D01*
X136786952Y-162020381D01*
X136739333Y-161972762D01*
X136691714Y-161877524D01*
X136691714Y-161734666D01*
X136739333Y-161639428D01*
X136786952Y-161591809D01*
X136882190Y-161544190D01*
X137167905Y-161544190D01*
X137263143Y-161591809D01*
X137310762Y-161639428D01*
X137358381Y-161734666D01*
X137358381Y-161877524D01*
X138008381Y-164472762D02*
X138008381Y-164377523D01*
X138056000Y-164282285D01*
X138103619Y-164234666D01*
X138198857Y-164187047D01*
X138389333Y-164139428D01*
X138627429Y-164139428D01*
X138817905Y-164187047D01*
X138913143Y-164234666D01*
X138960762Y-164282285D01*
X139008381Y-164377523D01*
X139008381Y-164472762D01*
X138960762Y-164568000D01*
X138913143Y-164615619D01*
X138817905Y-164663238D01*
X138627429Y-164710857D01*
X138389333Y-164710857D01*
X138198857Y-164663238D01*
X138103619Y-164615619D01*
X138056000Y-164568000D01*
X138008381Y-164472762D01*
X139008381Y-163806095D02*
X138341714Y-163282285D01*
X138341714Y-163806095D02*
X139008381Y-163282285D01*
X138008381Y-162472761D02*
X138008381Y-162663238D01*
X138056000Y-162758476D01*
X138103619Y-162806095D01*
X138246476Y-162901333D01*
X138436952Y-162948952D01*
X138817905Y-162948952D01*
X138913143Y-162901333D01*
X138960762Y-162853714D01*
X139008381Y-162758476D01*
X139008381Y-162567999D01*
X138960762Y-162472761D01*
X138913143Y-162425142D01*
X138817905Y-162377523D01*
X138579810Y-162377523D01*
X138484571Y-162425142D01*
X138436952Y-162472761D01*
X138389333Y-162567999D01*
X138389333Y-162758476D01*
X138436952Y-162853714D01*
X138484571Y-162901333D01*
X138579810Y-162948952D01*
X138008381Y-161758476D02*
X138008381Y-161663237D01*
X138056000Y-161567999D01*
X138103619Y-161520380D01*
X138198857Y-161472761D01*
X138389333Y-161425142D01*
X138627429Y-161425142D01*
X138817905Y-161472761D01*
X138913143Y-161520380D01*
X138960762Y-161567999D01*
X139008381Y-161663237D01*
X139008381Y-161758476D01*
X138960762Y-161853714D01*
X138913143Y-161901333D01*
X138817905Y-161948952D01*
X138627429Y-161996571D01*
X138389333Y-161996571D01*
X138198857Y-161948952D01*
X138103619Y-161901333D01*
X138056000Y-161853714D01*
X138008381Y-161758476D01*
D11*
X121666000Y-111048800D02*
X121666000Y-88900000D01*
X121666000Y-140462000D02*
X121666000Y-111061500D01*
X121666000Y-174371000D02*
X121666000Y-140462000D01*
D12*
X171085000Y-92963809D02*
X170989762Y-93154286D01*
X170989762Y-93440000D01*
X171085000Y-93725714D01*
X171275476Y-93916190D01*
X171465952Y-94011429D01*
X171846905Y-94106667D01*
X172132619Y-94106667D01*
X172513571Y-94011429D01*
X172704048Y-93916190D01*
X172894524Y-93725714D01*
X172989762Y-93440000D01*
X172989762Y-93249524D01*
X172894524Y-92963809D01*
X172799286Y-92868571D01*
X172132619Y-92868571D01*
X172132619Y-93249524D01*
X172989762Y-92011429D02*
X170989762Y-92011429D01*
X172989762Y-90868571D01*
X170989762Y-90868571D01*
X172989762Y-89916191D02*
X170989762Y-89916191D01*
X170989762Y-89440000D01*
X171085000Y-89154286D01*
X171275476Y-88963810D01*
X171465952Y-88868571D01*
X171846905Y-88773333D01*
X172132619Y-88773333D01*
X172513571Y-88868571D01*
X172704048Y-88963810D01*
X172894524Y-89154286D01*
X172989762Y-89440000D01*
X172989762Y-89916191D01*
X171085000Y-92963809D02*
X170989762Y-93154286D01*
X170989762Y-93440000D01*
X171085000Y-93725714D01*
X171275476Y-93916190D01*
X171465952Y-94011429D01*
X171846905Y-94106667D01*
X172132619Y-94106667D01*
X172513571Y-94011429D01*
X172704048Y-93916190D01*
X172894524Y-93725714D01*
X172989762Y-93440000D01*
X172989762Y-93249524D01*
X172894524Y-92963809D01*
X172799286Y-92868571D01*
X172132619Y-92868571D01*
X172132619Y-93249524D01*
X172989762Y-92011429D02*
X170989762Y-92011429D01*
X172989762Y-90868571D01*
X170989762Y-90868571D01*
X172989762Y-89916191D02*
X170989762Y-89916191D01*
X170989762Y-89440000D01*
X171085000Y-89154286D01*
X171275476Y-88963810D01*
X171465952Y-88868571D01*
X171846905Y-88773333D01*
X172132619Y-88773333D01*
X172513571Y-88868571D01*
X172704048Y-88963810D01*
X172894524Y-89154286D01*
X172989762Y-89440000D01*
X172989762Y-89916191D01*
X103986143Y-71989071D02*
X103986143Y-70489071D01*
X103986143Y-71203357D02*
X104843286Y-71203357D01*
X104843286Y-71989071D02*
X104843286Y-70489071D01*
X105557572Y-71203357D02*
X106057572Y-71203357D01*
X106271858Y-71989071D02*
X105557572Y-71989071D01*
X105557572Y-70489071D01*
X106271858Y-70489071D01*
X106843286Y-71560500D02*
X107557572Y-71560500D01*
X106700429Y-71989071D02*
X107200429Y-70489071D01*
X107700429Y-71989071D01*
X107986143Y-70489071D02*
X108843286Y-70489071D01*
X108414715Y-71989071D02*
X108414715Y-70489071D01*
X109271857Y-71917643D02*
X109486143Y-71989071D01*
X109843286Y-71989071D01*
X109986143Y-71917643D01*
X110057572Y-71846214D01*
X110129000Y-71703357D01*
X110129000Y-71560500D01*
X110057572Y-71417643D01*
X109986143Y-71346214D01*
X109843286Y-71274786D01*
X109557572Y-71203357D01*
X109414714Y-71131929D01*
X109343286Y-71060500D01*
X109271857Y-70917643D01*
X109271857Y-70774786D01*
X109343286Y-70631929D01*
X109414714Y-70560500D01*
X109557572Y-70489071D01*
X109914714Y-70489071D01*
X110129000Y-70560500D01*
X110771857Y-71989071D02*
X110771857Y-70489071D01*
X111486143Y-71989071D02*
X111486143Y-70489071D01*
X112343286Y-71989071D01*
X112343286Y-70489071D01*
X113057572Y-71989071D02*
X113057572Y-70489071D01*
X113914715Y-71989071D02*
X113271858Y-71131929D01*
X113914715Y-70489071D02*
X113057572Y-71346214D01*
X115700429Y-70489071D02*
X115700429Y-71703357D01*
X115771857Y-71846214D01*
X115843286Y-71917643D01*
X115986143Y-71989071D01*
X116271857Y-71989071D01*
X116414715Y-71917643D01*
X116486143Y-71846214D01*
X116557572Y-71703357D01*
X116557572Y-70489071D01*
X117271858Y-71989071D02*
X117271858Y-70489071D01*
X117843286Y-70489071D01*
X117986144Y-70560500D01*
X118057572Y-70631929D01*
X118129001Y-70774786D01*
X118129001Y-70989071D01*
X118057572Y-71131929D01*
X117986144Y-71203357D01*
X117843286Y-71274786D01*
X117271858Y-71274786D01*
X118771858Y-71846214D02*
X118843286Y-71917643D01*
X118771858Y-71989071D01*
X118700429Y-71917643D01*
X118771858Y-71846214D01*
X118771858Y-71989071D01*
X118771858Y-71417643D02*
X118700429Y-70560500D01*
X118771858Y-70489071D01*
X118843286Y-70560500D01*
X118771858Y-71417643D01*
X118771858Y-70489071D01*
D14*
X106051047Y-67951048D02*
X105204381Y-66741524D01*
X104599619Y-67951048D02*
X104599619Y-65411048D01*
X105567238Y-65411048D01*
X105809143Y-65532000D01*
X105930095Y-65652952D01*
X106051047Y-65894857D01*
X106051047Y-66257714D01*
X105930095Y-66499619D01*
X105809143Y-66620571D01*
X105567238Y-66741524D01*
X104599619Y-66741524D01*
X107986286Y-66620571D02*
X107139619Y-66620571D01*
X107139619Y-67951048D02*
X107139619Y-65411048D01*
X108349143Y-65411048D01*
X109316762Y-67951048D02*
X109316762Y-65411048D01*
X109921524Y-65411048D01*
X110284381Y-65532000D01*
X110526286Y-65773905D01*
X110647238Y-66015810D01*
X110768190Y-66499619D01*
X110768190Y-66862476D01*
X110647238Y-67346286D01*
X110526286Y-67588190D01*
X110284381Y-67830095D01*
X109921524Y-67951048D01*
X109316762Y-67951048D01*
X111977714Y-67951048D02*
X112461524Y-67951048D01*
X112703429Y-67830095D01*
X112824381Y-67709143D01*
X113066286Y-67346286D01*
X113187238Y-66862476D01*
X113187238Y-65894857D01*
X113066286Y-65652952D01*
X112945333Y-65532000D01*
X112703429Y-65411048D01*
X112219619Y-65411048D01*
X111977714Y-65532000D01*
X111856762Y-65652952D01*
X111735810Y-65894857D01*
X111735810Y-66499619D01*
X111856762Y-66741524D01*
X111977714Y-66862476D01*
X112219619Y-66983429D01*
X112703429Y-66983429D01*
X112945333Y-66862476D01*
X113066286Y-66741524D01*
X113187238Y-66499619D01*
X114759619Y-65411048D02*
X115001524Y-65411048D01*
X115243429Y-65532000D01*
X115364381Y-65652952D01*
X115485334Y-65894857D01*
X115606286Y-66378667D01*
X115606286Y-66983429D01*
X115485334Y-67467238D01*
X115364381Y-67709143D01*
X115243429Y-67830095D01*
X115001524Y-67951048D01*
X114759619Y-67951048D01*
X114517715Y-67830095D01*
X114396762Y-67709143D01*
X114275810Y-67467238D01*
X114154858Y-66983429D01*
X114154858Y-66378667D01*
X114275810Y-65894857D01*
X114396762Y-65652952D01*
X114517715Y-65532000D01*
X114759619Y-65411048D01*
X117178667Y-65411048D02*
X117420572Y-65411048D01*
X117662477Y-65532000D01*
X117783429Y-65652952D01*
X117904382Y-65894857D01*
X118025334Y-66378667D01*
X118025334Y-66983429D01*
X117904382Y-67467238D01*
X117783429Y-67709143D01*
X117662477Y-67830095D01*
X117420572Y-67951048D01*
X117178667Y-67951048D01*
X116936763Y-67830095D01*
X116815810Y-67709143D01*
X116694858Y-67467238D01*
X116573906Y-66983429D01*
X116573906Y-66378667D01*
X116694858Y-65894857D01*
X116815810Y-65652952D01*
X116936763Y-65532000D01*
X117178667Y-65411048D01*
D13*
X83159600Y-171043600D02*
X100177600Y-171043600D01*
X100177600Y-171043600D02*
X102717600Y-171043600D01*
X102717600Y-171043600D02*
X102717600Y-120243600D01*
X102717600Y-120243600D02*
X87223600Y-120243600D01*
X83159600Y-171043600D02*
X79857600Y-171043600D01*
X79857600Y-171043600D02*
X79857600Y-165963600D01*
X79857600Y-120243600D02*
X87223600Y-120243600D01*
X79857600Y-120243600D02*
X79857600Y-165963600D01*
X133604000Y-92354400D02*
X151892000Y-92354400D01*
X135382000Y-135534400D02*
X133858000Y-135534400D01*
X133858000Y-135534400D02*
X133604000Y-135534400D01*
X133604000Y-135534400D02*
X133604000Y-92354400D01*
X150622000Y-135534400D02*
X151892000Y-135534400D01*
X151892000Y-135534400D02*
X151892000Y-130454400D01*
X151892000Y-130454400D02*
X151892000Y-92354400D01*
X150622000Y-135534400D02*
X135382000Y-135534400D01*
D15*
X169194400Y-114128600D02*
X169194400Y-112868600D01*
X169194400Y-107308600D02*
X169194400Y-108568600D01*
X165434400Y-114128600D02*
X169194400Y-114128600D01*
X163184400Y-107308600D02*
X169194400Y-107308600D01*
X142812000Y-58360000D02*
X142812000Y-60960000D01*
X142812000Y-60960000D02*
X134182000Y-60960000D01*
X134182000Y-60960000D02*
X134182000Y-58360000D01*
X134182000Y-58360000D02*
X142812000Y-58360000D01*
X143242000Y-59310000D02*
X142812000Y-59310000D01*
X143242000Y-60070000D02*
X142812000Y-60070000D01*
X145782000Y-59310000D02*
X145302000Y-59310000D01*
X145782000Y-60070000D02*
X145302000Y-60070000D01*
X142812000Y-58540000D02*
X134182000Y-58540000D01*
X142812000Y-58660000D02*
X134182000Y-58660000D01*
X142812000Y-58780000D02*
X134182000Y-58780000D01*
X142812000Y-58900000D02*
X134182000Y-58900000D01*
X142812000Y-59020000D02*
X134182000Y-59020000D01*
X142812000Y-59140000D02*
X134182000Y-59140000D01*
X142812000Y-59260000D02*
X134182000Y-59260000D01*
X142812000Y-59380000D02*
X134182000Y-59380000D01*
X142812000Y-59500000D02*
X134182000Y-59500000D01*
X142812000Y-59620000D02*
X134182000Y-59620000D01*
X142812000Y-59740000D02*
X134182000Y-59740000D01*
X142812000Y-59860000D02*
X134182000Y-59860000D01*
X142812000Y-59980000D02*
X134182000Y-59980000D01*
X142812000Y-60100000D02*
X134182000Y-60100000D01*
X142812000Y-60220000D02*
X134182000Y-60220000D01*
X142812000Y-60340000D02*
X134182000Y-60340000D01*
X142812000Y-60460000D02*
X134182000Y-60460000D01*
X142812000Y-60580000D02*
X134182000Y-60580000D01*
X142812000Y-60700000D02*
X134182000Y-60700000D01*
X142812000Y-60820000D02*
X134182000Y-60820000D01*
X142812000Y-60940000D02*
X134182000Y-60940000D01*
X142812000Y-61060000D02*
X134182000Y-61060000D01*
X142812000Y-60960000D02*
X142812000Y-63500000D01*
X142812000Y-63500000D02*
X134182000Y-63500000D01*
X134182000Y-63500000D02*
X134182000Y-60960000D01*
X134182000Y-60960000D02*
X142812000Y-60960000D01*
X143242000Y-61850000D02*
X142812000Y-61850000D01*
X143242000Y-62610000D02*
X142812000Y-62610000D01*
X145782000Y-61850000D02*
X145302000Y-61850000D01*
X145782000Y-62610000D02*
X145302000Y-62610000D01*
X142812000Y-63500000D02*
X142812000Y-66040000D01*
X142812000Y-66040000D02*
X134182000Y-66040000D01*
X134182000Y-66040000D02*
X134182000Y-63500000D01*
X134182000Y-63500000D02*
X142812000Y-63500000D01*
X143242000Y-64390000D02*
X142812000Y-64390000D01*
X143242000Y-65150000D02*
X142812000Y-65150000D01*
X145782000Y-64390000D02*
X145302000Y-64390000D01*
X145782000Y-65150000D02*
X145302000Y-65150000D01*
X142812000Y-66040000D02*
X142812000Y-68580000D01*
X142812000Y-68580000D02*
X134182000Y-68580000D01*
X134182000Y-68580000D02*
X134182000Y-66040000D01*
X134182000Y-66040000D02*
X142812000Y-66040000D01*
X143242000Y-66930000D02*
X142812000Y-66930000D01*
X143242000Y-67690000D02*
X142812000Y-67690000D01*
X145782000Y-66930000D02*
X145302000Y-66930000D01*
X145782000Y-67690000D02*
X145302000Y-67690000D01*
X142812000Y-68580000D02*
X142812000Y-71120000D01*
X142812000Y-71120000D02*
X134182000Y-71120000D01*
X134182000Y-71120000D02*
X134182000Y-68580000D01*
X134182000Y-68580000D02*
X142812000Y-68580000D01*
X143242000Y-69470000D02*
X142812000Y-69470000D01*
X143242000Y-70230000D02*
X142812000Y-70230000D01*
X145782000Y-69470000D02*
X145302000Y-69470000D01*
X145782000Y-70230000D02*
X145302000Y-70230000D01*
X142812000Y-71120000D02*
X142812000Y-73660000D01*
X142812000Y-73660000D02*
X134182000Y-73660000D01*
X134182000Y-73660000D02*
X134182000Y-71120000D01*
X134182000Y-71120000D02*
X142812000Y-71120000D01*
X143242000Y-72010000D02*
X142812000Y-72010000D01*
X143242000Y-72770000D02*
X142812000Y-72770000D01*
X145782000Y-72010000D02*
X145302000Y-72010000D01*
X145782000Y-72770000D02*
X145302000Y-72770000D01*
X142812000Y-73660000D02*
X142812000Y-76200000D01*
X142812000Y-76200000D02*
X134182000Y-76200000D01*
X134182000Y-76200000D02*
X134182000Y-73660000D01*
X134182000Y-73660000D02*
X142812000Y-73660000D01*
X143242000Y-74550000D02*
X142812000Y-74550000D01*
X143242000Y-75310000D02*
X142812000Y-75310000D01*
X145782000Y-74550000D02*
X145302000Y-74550000D01*
X145782000Y-75310000D02*
X145302000Y-75310000D01*
X142812000Y-76200000D02*
X142812000Y-78800000D01*
X142812000Y-78800000D02*
X134182000Y-78800000D01*
X134182000Y-78800000D02*
X134182000Y-76200000D01*
X134182000Y-76200000D02*
X142812000Y-76200000D01*
X143242000Y-77090000D02*
X142812000Y-77090000D01*
X143242000Y-77850000D02*
X142812000Y-77850000D01*
X145782000Y-77090000D02*
X145302000Y-77090000D01*
X145782000Y-77850000D02*
X145302000Y-77850000D01*
X146812000Y-58420000D02*
X148082000Y-58420000D01*
X148082000Y-58420000D02*
X148082000Y-59690000D01*
X169272000Y-59812000D02*
X168012000Y-59812000D01*
X162452000Y-59812000D02*
X163712000Y-59812000D01*
X169272000Y-63572000D02*
X169272000Y-59812000D01*
X162452000Y-65822000D02*
X162452000Y-59812000D01*
X88782600Y-97341800D02*
X89982600Y-97341800D01*
X89982600Y-99101800D02*
X88782600Y-99101800D01*
X88782600Y-101151800D02*
X89982600Y-101151800D01*
X89982600Y-102911800D02*
X88782600Y-102911800D01*
X88782600Y-104961800D02*
X89982600Y-104961800D01*
X89982600Y-106721800D02*
X88782600Y-106721800D01*
X88782600Y-108771800D02*
X89982600Y-108771800D01*
X89982600Y-110531800D02*
X88782600Y-110531800D01*
X161452000Y-73542000D02*
X162652000Y-73542000D01*
X162652000Y-75302000D02*
X161452000Y-75302000D01*
X167669100Y-118119600D02*
X167669100Y-119319600D01*
X165909100Y-119319600D02*
X165909100Y-118119600D01*
X97062600Y-107111800D02*
X97062600Y-99431800D01*
X97062600Y-99431800D02*
X94402600Y-99431800D01*
X94402600Y-99431800D02*
X94402600Y-107111800D01*
X94402600Y-107111800D02*
X97062600Y-107111800D01*
X97062600Y-108381800D02*
X97062600Y-109711800D01*
X97062600Y-109711800D02*
X95732600Y-109711800D01*
X82502600Y-97521800D02*
X82502600Y-98921800D01*
X82502600Y-98921800D02*
X85302600Y-98921800D01*
X82502600Y-97521800D02*
X85302600Y-97521800D01*
X82502600Y-101331800D02*
X82502600Y-102731800D01*
X82502600Y-102731800D02*
X85302600Y-102731800D01*
X82502600Y-101331800D02*
X85302600Y-101331800D01*
X82502600Y-105141800D02*
X82502600Y-106541800D01*
X82502600Y-106541800D02*
X85302600Y-106541800D01*
X82502600Y-105141800D02*
X85302600Y-105141800D01*
X82502600Y-108951800D02*
X82502600Y-110351800D01*
X82502600Y-110351800D02*
X85302600Y-110351800D01*
X82502600Y-108951800D02*
X85302600Y-108951800D01*
X167872000Y-73722000D02*
X167872000Y-75122000D01*
X167872000Y-75122000D02*
X170672000Y-75122000D01*
X167872000Y-73722000D02*
X170672000Y-73722000D01*
X162456900Y-120379900D02*
X163856900Y-120379900D01*
X163856900Y-120379900D02*
X163856900Y-117579900D01*
X162456900Y-120379900D02*
X162456900Y-117579900D01*
X169172000Y-70192000D02*
X170172000Y-70192000D01*
X170172000Y-68492000D02*
X169172000Y-68492000D01*
X159714300Y-115054000D02*
X159714300Y-114054000D01*
X158014300Y-114054000D02*
X158014300Y-115054000D01*
X162552000Y-68492000D02*
X161552000Y-68492000D01*
X161552000Y-70192000D02*
X162552000Y-70192000D01*
X158065100Y-106459400D02*
X158065100Y-107459400D01*
X159765100Y-107459400D02*
X159765100Y-106459400D01*
X64252800Y-148396000D02*
X69452800Y-148396000D01*
X64252800Y-143256000D02*
X64252800Y-148396000D01*
X69452800Y-140656000D02*
X69452800Y-148396000D01*
X64252800Y-143256000D02*
X66852800Y-143256000D01*
X66852800Y-143256000D02*
X66852800Y-140656000D01*
X66852800Y-140656000D02*
X69452800Y-140656000D01*
X64252800Y-141986000D02*
X64252800Y-140656000D01*
X64252800Y-140656000D02*
X65582800Y-140656000D01*
X68335200Y-161890400D02*
X65675200Y-161890400D01*
X68335200Y-167030400D02*
X68335200Y-161890400D01*
X65675200Y-167030400D02*
X65675200Y-161890400D01*
X68335200Y-167030400D02*
X65675200Y-167030400D01*
X68335200Y-168300400D02*
X68335200Y-169630400D01*
X68335200Y-169630400D02*
X67005200Y-169630400D01*
X97628000Y-165573600D02*
X96428000Y-165573600D01*
X96428000Y-163813600D02*
X97628000Y-163813600D01*
X97628000Y-163033600D02*
X96428000Y-163033600D01*
X96428000Y-161273600D02*
X97628000Y-161273600D01*
D13*
X127508000Y-165290500D02*
X127508000Y-176720500D01*
X127508000Y-176720500D02*
X109728000Y-176720500D01*
X109728000Y-176720500D02*
X109728000Y-153860500D01*
X109728000Y-153860500D02*
X127508000Y-153860500D01*
X127508000Y-153860500D02*
X127508000Y-165290500D01*
X127508000Y-173926500D02*
X127508000Y-174434500D01*
X152400000Y-157784800D02*
X152400000Y-144830800D01*
X152400000Y-144830800D02*
X179070000Y-144830800D01*
X179070000Y-144830800D02*
X179070000Y-172262800D01*
X179070000Y-172262800D02*
X152400000Y-172262800D01*
X152400000Y-172262800D02*
X152400000Y-157784800D01*
X110439200Y-95351600D02*
X129489200Y-95351600D01*
X129489200Y-95351600D02*
X129489200Y-114401600D01*
X129489200Y-114401600D02*
X110439200Y-114401600D01*
X110439200Y-114401600D02*
X110439200Y-95351600D01*
X131216400Y-123748800D02*
G75*
G03X131216400Y-123748800I-2540000J0D01*
G01*
X115976400Y-123748800D02*
G75*
G03X115976400Y-123748800I-2540000J0D01*
G01*
X115976400Y-145338800D02*
G75*
G03X115976400Y-145338800I-2540000J0D01*
G01*
X131216400Y-145338800D02*
G75*
G03X131216400Y-145338800I-2540000J0D01*
G01*
X131216400Y-147878800D02*
X131216400Y-121208800D01*
X131216400Y-121208800D02*
X110896400Y-121208800D01*
X110896400Y-121208800D02*
X110896400Y-147878800D01*
X110896400Y-147878800D02*
X131216400Y-147878800D01*
X142494000Y-172008800D02*
X143764000Y-172008800D01*
X143764000Y-172008800D02*
X143764000Y-154228800D01*
X143764000Y-154228800D02*
X142494000Y-154228800D01*
X129794000Y-155498800D02*
X129794000Y-170738800D01*
X129794000Y-170738800D02*
X129794000Y-172008800D01*
X129794000Y-172008800D02*
X142494000Y-172008800D01*
X142494000Y-154228800D02*
X129794000Y-154228800D01*
X129794000Y-154228800D02*
X129794000Y-156768800D01*
X85699695Y-126045981D02*
X85699695Y-126855505D01*
X85747314Y-126950743D01*
X85794933Y-126998362D01*
X85890171Y-127045981D01*
X86080648Y-127045981D01*
X86175886Y-126998362D01*
X86223505Y-126950743D01*
X86271124Y-126855505D01*
X86271124Y-126045981D01*
X87271124Y-127045981D02*
X86699695Y-127045981D01*
X86985409Y-127045981D02*
X86985409Y-126045981D01*
X86890171Y-126188838D01*
X86794933Y-126284076D01*
X86699695Y-126331695D01*
X144526095Y-133716781D02*
X144526095Y-134526305D01*
X144573714Y-134621543D01*
X144621333Y-134669162D01*
X144716571Y-134716781D01*
X144907048Y-134716781D01*
X145002286Y-134669162D01*
X145049905Y-134621543D01*
X145097524Y-134526305D01*
X145097524Y-133716781D01*
X145478476Y-133716781D02*
X146097524Y-133716781D01*
X145764190Y-134097733D01*
X145907048Y-134097733D01*
X146002286Y-134145352D01*
X146049905Y-134192971D01*
X146097524Y-134288210D01*
X146097524Y-134526305D01*
X146049905Y-134621543D01*
X146002286Y-134669162D01*
X145907048Y-134716781D01*
X145621333Y-134716781D01*
X145526095Y-134669162D01*
X145478476Y-134621543D01*
X139668666Y-131684781D02*
X139668666Y-132494305D01*
X139716285Y-132589543D01*
X139763904Y-132637162D01*
X139859142Y-132684781D01*
X140049619Y-132684781D01*
X140144857Y-132637162D01*
X140192476Y-132589543D01*
X140240095Y-132494305D01*
X140240095Y-131684781D01*
X140668666Y-132637162D02*
X140811523Y-132684781D01*
X141049619Y-132684781D01*
X141144857Y-132637162D01*
X141192476Y-132589543D01*
X141240095Y-132494305D01*
X141240095Y-132399067D01*
X141192476Y-132303829D01*
X141144857Y-132256210D01*
X141049619Y-132208590D01*
X140859142Y-132160971D01*
X140763904Y-132113352D01*
X140716285Y-132065733D01*
X140668666Y-131970495D01*
X140668666Y-131875257D01*
X140716285Y-131780019D01*
X140763904Y-131732400D01*
X140859142Y-131684781D01*
X141097238Y-131684781D01*
X141240095Y-131732400D01*
X142002000Y-132160971D02*
X142144857Y-132208590D01*
X142192476Y-132256210D01*
X142240095Y-132351448D01*
X142240095Y-132494305D01*
X142192476Y-132589543D01*
X142144857Y-132637162D01*
X142049619Y-132684781D01*
X141668666Y-132684781D01*
X141668666Y-131684781D01*
X142002000Y-131684781D01*
X142097238Y-131732400D01*
X142144857Y-131780019D01*
X142192476Y-131875257D01*
X142192476Y-131970495D01*
X142144857Y-132065733D01*
X142097238Y-132113352D01*
X142002000Y-132160971D01*
X141668666Y-132160971D01*
X143430571Y-132684781D02*
X143430571Y-131684781D01*
X143430571Y-132160971D02*
X144002000Y-132160971D01*
X144002000Y-132684781D02*
X144002000Y-131684781D01*
X144859143Y-132637162D02*
X144763905Y-132684781D01*
X144573428Y-132684781D01*
X144478190Y-132637162D01*
X144430571Y-132541924D01*
X144430571Y-132160971D01*
X144478190Y-132065733D01*
X144573428Y-132018114D01*
X144763905Y-132018114D01*
X144859143Y-132065733D01*
X144906762Y-132160971D01*
X144906762Y-132256210D01*
X144430571Y-132351448D01*
X145335333Y-132684781D02*
X145335333Y-132018114D01*
X145335333Y-132208590D02*
X145382952Y-132113352D01*
X145430571Y-132065733D01*
X145525809Y-132018114D01*
X145621048Y-132018114D01*
X146335334Y-132637162D02*
X146240096Y-132684781D01*
X146049619Y-132684781D01*
X145954381Y-132637162D01*
X145906762Y-132541924D01*
X145906762Y-132160971D01*
X145954381Y-132065733D01*
X146049619Y-132018114D01*
X146240096Y-132018114D01*
X146335334Y-132065733D01*
X146382953Y-132160971D01*
X146382953Y-132256210D01*
X145906762Y-132351448D01*
X166522495Y-105670981D02*
X166522495Y-106480505D01*
X166570114Y-106575743D01*
X166617733Y-106623362D01*
X166712971Y-106670981D01*
X166903448Y-106670981D01*
X166998686Y-106623362D01*
X167046305Y-106575743D01*
X167093924Y-106480505D01*
X167093924Y-105670981D01*
X167998686Y-105670981D02*
X167808209Y-105670981D01*
X167712971Y-105718600D01*
X167665352Y-105766219D01*
X167570114Y-105909076D01*
X167522495Y-106099552D01*
X167522495Y-106480505D01*
X167570114Y-106575743D01*
X167617733Y-106623362D01*
X167712971Y-106670981D01*
X167903448Y-106670981D01*
X167998686Y-106623362D01*
X168046305Y-106575743D01*
X168093924Y-106480505D01*
X168093924Y-106242410D01*
X168046305Y-106147171D01*
X167998686Y-106099552D01*
X167903448Y-106051933D01*
X167712971Y-106051933D01*
X167617733Y-106099552D01*
X167570114Y-106147171D01*
X167522495Y-106242410D01*
X140352477Y-56872381D02*
X140352477Y-57586667D01*
X140304857Y-57729524D01*
X140209619Y-57824762D01*
X140066762Y-57872381D01*
X139971524Y-57872381D01*
X141352477Y-57872381D02*
X140781048Y-57872381D01*
X141066762Y-57872381D02*
X141066762Y-56872381D01*
X140971524Y-57015238D01*
X140876286Y-57110476D01*
X140781048Y-57158095D01*
X142304858Y-57872381D02*
X141733429Y-57872381D01*
X142019143Y-57872381D02*
X142019143Y-56872381D01*
X141923905Y-57015238D01*
X141828667Y-57110476D01*
X141733429Y-57158095D01*
X160814381Y-62483905D02*
X161623905Y-62483905D01*
X161719143Y-62436286D01*
X161766762Y-62388667D01*
X161814381Y-62293429D01*
X161814381Y-62102952D01*
X161766762Y-62007714D01*
X161719143Y-61960095D01*
X161623905Y-61912476D01*
X160814381Y-61912476D01*
X160814381Y-61531524D02*
X160814381Y-60864857D01*
X161814381Y-61293429D01*
X89215934Y-100324181D02*
X88882600Y-99847990D01*
X88644505Y-100324181D02*
X88644505Y-99324181D01*
X89025458Y-99324181D01*
X89120696Y-99371800D01*
X89168315Y-99419419D01*
X89215934Y-99514657D01*
X89215934Y-99657514D01*
X89168315Y-99752752D01*
X89120696Y-99800371D01*
X89025458Y-99847990D01*
X88644505Y-99847990D01*
X89692124Y-100324181D02*
X89882600Y-100324181D01*
X89977839Y-100276562D01*
X90025458Y-100228943D01*
X90120696Y-100086086D01*
X90168315Y-99895610D01*
X90168315Y-99514657D01*
X90120696Y-99419419D01*
X90073077Y-99371800D01*
X89977839Y-99324181D01*
X89787362Y-99324181D01*
X89692124Y-99371800D01*
X89644505Y-99419419D01*
X89596886Y-99514657D01*
X89596886Y-99752752D01*
X89644505Y-99847990D01*
X89692124Y-99895610D01*
X89787362Y-99943229D01*
X89977839Y-99943229D01*
X90073077Y-99895610D01*
X90120696Y-99847990D01*
X90168315Y-99752752D01*
X89215934Y-104134181D02*
X88882600Y-103657990D01*
X88644505Y-104134181D02*
X88644505Y-103134181D01*
X89025458Y-103134181D01*
X89120696Y-103181800D01*
X89168315Y-103229419D01*
X89215934Y-103324657D01*
X89215934Y-103467514D01*
X89168315Y-103562752D01*
X89120696Y-103610371D01*
X89025458Y-103657990D01*
X88644505Y-103657990D01*
X89787362Y-103562752D02*
X89692124Y-103515133D01*
X89644505Y-103467514D01*
X89596886Y-103372276D01*
X89596886Y-103324657D01*
X89644505Y-103229419D01*
X89692124Y-103181800D01*
X89787362Y-103134181D01*
X89977839Y-103134181D01*
X90073077Y-103181800D01*
X90120696Y-103229419D01*
X90168315Y-103324657D01*
X90168315Y-103372276D01*
X90120696Y-103467514D01*
X90073077Y-103515133D01*
X89977839Y-103562752D01*
X89787362Y-103562752D01*
X89692124Y-103610371D01*
X89644505Y-103657990D01*
X89596886Y-103753229D01*
X89596886Y-103943705D01*
X89644505Y-104038943D01*
X89692124Y-104086562D01*
X89787362Y-104134181D01*
X89977839Y-104134181D01*
X90073077Y-104086562D01*
X90120696Y-104038943D01*
X90168315Y-103943705D01*
X90168315Y-103753229D01*
X90120696Y-103657990D01*
X90073077Y-103610371D01*
X89977839Y-103562752D01*
X89215934Y-107944181D02*
X88882600Y-107467990D01*
X88644505Y-107944181D02*
X88644505Y-106944181D01*
X89025458Y-106944181D01*
X89120696Y-106991800D01*
X89168315Y-107039419D01*
X89215934Y-107134657D01*
X89215934Y-107277514D01*
X89168315Y-107372752D01*
X89120696Y-107420371D01*
X89025458Y-107467990D01*
X88644505Y-107467990D01*
X89549267Y-106944181D02*
X90215934Y-106944181D01*
X89787362Y-107944181D01*
X89215934Y-111754181D02*
X88882600Y-111277990D01*
X88644505Y-111754181D02*
X88644505Y-110754181D01*
X89025458Y-110754181D01*
X89120696Y-110801800D01*
X89168315Y-110849419D01*
X89215934Y-110944657D01*
X89215934Y-111087514D01*
X89168315Y-111182752D01*
X89120696Y-111230371D01*
X89025458Y-111277990D01*
X88644505Y-111277990D01*
X90073077Y-110754181D02*
X89882600Y-110754181D01*
X89787362Y-110801800D01*
X89739743Y-110849419D01*
X89644505Y-110992276D01*
X89596886Y-111182752D01*
X89596886Y-111563705D01*
X89644505Y-111658943D01*
X89692124Y-111706562D01*
X89787362Y-111754181D01*
X89977839Y-111754181D01*
X90073077Y-111706562D01*
X90120696Y-111658943D01*
X90168315Y-111563705D01*
X90168315Y-111325610D01*
X90120696Y-111230371D01*
X90073077Y-111182752D01*
X89977839Y-111135133D01*
X89787362Y-111135133D01*
X89692124Y-111182752D01*
X89644505Y-111230371D01*
X89596886Y-111325610D01*
X161885334Y-76524381D02*
X161552000Y-76048190D01*
X161313905Y-76524381D02*
X161313905Y-75524381D01*
X161694858Y-75524381D01*
X161790096Y-75572000D01*
X161837715Y-75619619D01*
X161885334Y-75714857D01*
X161885334Y-75857714D01*
X161837715Y-75952952D01*
X161790096Y-76000571D01*
X161694858Y-76048190D01*
X161313905Y-76048190D01*
X162266286Y-75619619D02*
X162313905Y-75572000D01*
X162409143Y-75524381D01*
X162647239Y-75524381D01*
X162742477Y-75572000D01*
X162790096Y-75619619D01*
X162837715Y-75714857D01*
X162837715Y-75810095D01*
X162790096Y-75952952D01*
X162218667Y-76524381D01*
X162837715Y-76524381D01*
X165591481Y-118886266D02*
X165115290Y-119219600D01*
X165591481Y-119457695D02*
X164591481Y-119457695D01*
X164591481Y-119076742D01*
X164639100Y-118981504D01*
X164686719Y-118933885D01*
X164781957Y-118886266D01*
X164924814Y-118886266D01*
X165020052Y-118933885D01*
X165067671Y-118981504D01*
X165115290Y-119076742D01*
X165115290Y-119457695D01*
X165591481Y-117933885D02*
X165591481Y-118505314D01*
X165591481Y-118219600D02*
X164591481Y-118219600D01*
X164734338Y-118314838D01*
X164829576Y-118410076D01*
X164877195Y-118505314D01*
X94923077Y-110164181D02*
X94923077Y-110878467D01*
X94875457Y-111021324D01*
X94780219Y-111116562D01*
X94637362Y-111164181D01*
X94542124Y-111164181D01*
X95923077Y-111164181D02*
X95351648Y-111164181D01*
X95637362Y-111164181D02*
X95637362Y-110164181D01*
X95542124Y-110307038D01*
X95446886Y-110402276D01*
X95351648Y-110449895D01*
X96827839Y-110164181D02*
X96351648Y-110164181D01*
X96304029Y-110640371D01*
X96351648Y-110592752D01*
X96446886Y-110545133D01*
X96684982Y-110545133D01*
X96780220Y-110592752D01*
X96827839Y-110640371D01*
X96875458Y-110735610D01*
X96875458Y-110973705D01*
X96827839Y-111068943D01*
X96780220Y-111116562D01*
X96684982Y-111164181D01*
X96446886Y-111164181D01*
X96351648Y-111116562D01*
X96304029Y-111068943D01*
X83564505Y-97224181D02*
X83564505Y-96224181D01*
X83802600Y-96224181D01*
X83945458Y-96271800D01*
X84040696Y-96367038D01*
X84088315Y-96462276D01*
X84135934Y-96652752D01*
X84135934Y-96795610D01*
X84088315Y-96986086D01*
X84040696Y-97081324D01*
X83945458Y-97176562D01*
X83802600Y-97224181D01*
X83564505Y-97224181D01*
X84993077Y-96224181D02*
X84802600Y-96224181D01*
X84707362Y-96271800D01*
X84659743Y-96319419D01*
X84564505Y-96462276D01*
X84516886Y-96652752D01*
X84516886Y-97033705D01*
X84564505Y-97128943D01*
X84612124Y-97176562D01*
X84707362Y-97224181D01*
X84897839Y-97224181D01*
X84993077Y-97176562D01*
X85040696Y-97128943D01*
X85088315Y-97033705D01*
X85088315Y-96795610D01*
X85040696Y-96700371D01*
X84993077Y-96652752D01*
X84897839Y-96605133D01*
X84707362Y-96605133D01*
X84612124Y-96652752D01*
X84564505Y-96700371D01*
X84516886Y-96795610D01*
X83564505Y-101034181D02*
X83564505Y-100034181D01*
X83802600Y-100034181D01*
X83945458Y-100081800D01*
X84040696Y-100177038D01*
X84088315Y-100272276D01*
X84135934Y-100462752D01*
X84135934Y-100605610D01*
X84088315Y-100796086D01*
X84040696Y-100891324D01*
X83945458Y-100986562D01*
X83802600Y-101034181D01*
X83564505Y-101034181D01*
X85040696Y-100034181D02*
X84564505Y-100034181D01*
X84516886Y-100510371D01*
X84564505Y-100462752D01*
X84659743Y-100415133D01*
X84897839Y-100415133D01*
X84993077Y-100462752D01*
X85040696Y-100510371D01*
X85088315Y-100605610D01*
X85088315Y-100843705D01*
X85040696Y-100938943D01*
X84993077Y-100986562D01*
X84897839Y-101034181D01*
X84659743Y-101034181D01*
X84564505Y-100986562D01*
X84516886Y-100938943D01*
X83564505Y-104844181D02*
X83564505Y-103844181D01*
X83802600Y-103844181D01*
X83945458Y-103891800D01*
X84040696Y-103987038D01*
X84088315Y-104082276D01*
X84135934Y-104272752D01*
X84135934Y-104415610D01*
X84088315Y-104606086D01*
X84040696Y-104701324D01*
X83945458Y-104796562D01*
X83802600Y-104844181D01*
X83564505Y-104844181D01*
X84993077Y-104177514D02*
X84993077Y-104844181D01*
X84754981Y-103796562D02*
X84516886Y-104510848D01*
X85135934Y-104510848D01*
X83564505Y-108654181D02*
X83564505Y-107654181D01*
X83802600Y-107654181D01*
X83945458Y-107701800D01*
X84040696Y-107797038D01*
X84088315Y-107892276D01*
X84135934Y-108082752D01*
X84135934Y-108225610D01*
X84088315Y-108416086D01*
X84040696Y-108511324D01*
X83945458Y-108606562D01*
X83802600Y-108654181D01*
X83564505Y-108654181D01*
X84469267Y-107654181D02*
X85088315Y-107654181D01*
X84754981Y-108035133D01*
X84897839Y-108035133D01*
X84993077Y-108082752D01*
X85040696Y-108130371D01*
X85088315Y-108225610D01*
X85088315Y-108463705D01*
X85040696Y-108558943D01*
X84993077Y-108606562D01*
X84897839Y-108654181D01*
X84612124Y-108654181D01*
X84516886Y-108606562D01*
X84469267Y-108558943D01*
X168933905Y-73424381D02*
X168933905Y-72424381D01*
X169172000Y-72424381D01*
X169314858Y-72472000D01*
X169410096Y-72567238D01*
X169457715Y-72662476D01*
X169505334Y-72852952D01*
X169505334Y-72995810D01*
X169457715Y-73186286D01*
X169410096Y-73281524D01*
X169314858Y-73376762D01*
X169172000Y-73424381D01*
X168933905Y-73424381D01*
X169886286Y-72519619D02*
X169933905Y-72472000D01*
X170029143Y-72424381D01*
X170267239Y-72424381D01*
X170362477Y-72472000D01*
X170410096Y-72519619D01*
X170457715Y-72614857D01*
X170457715Y-72710095D01*
X170410096Y-72852952D01*
X169838667Y-73424381D01*
X170457715Y-73424381D01*
X162159281Y-119317995D02*
X161159281Y-119317995D01*
X161159281Y-119079900D01*
X161206900Y-118937042D01*
X161302138Y-118841804D01*
X161397376Y-118794185D01*
X161587852Y-118746566D01*
X161730710Y-118746566D01*
X161921186Y-118794185D01*
X162016424Y-118841804D01*
X162111662Y-118937042D01*
X162159281Y-119079900D01*
X162159281Y-119317995D01*
X162159281Y-117794185D02*
X162159281Y-118365614D01*
X162159281Y-118079900D02*
X161159281Y-118079900D01*
X161302138Y-118175138D01*
X161397376Y-118270376D01*
X161444995Y-118365614D01*
X169505334Y-71199143D02*
X169457715Y-71246762D01*
X169314858Y-71294381D01*
X169219620Y-71294381D01*
X169076762Y-71246762D01*
X168981524Y-71151524D01*
X168933905Y-71056286D01*
X168886286Y-70865810D01*
X168886286Y-70722952D01*
X168933905Y-70532476D01*
X168981524Y-70437238D01*
X169076762Y-70342000D01*
X169219620Y-70294381D01*
X169314858Y-70294381D01*
X169457715Y-70342000D01*
X169505334Y-70389619D01*
X170362477Y-70627714D02*
X170362477Y-71294381D01*
X170124381Y-70246762D02*
X169886286Y-70961048D01*
X170505334Y-70961048D01*
X160721443Y-114720666D02*
X160769062Y-114768285D01*
X160816681Y-114911142D01*
X160816681Y-115006380D01*
X160769062Y-115149238D01*
X160673824Y-115244476D01*
X160578586Y-115292095D01*
X160388110Y-115339714D01*
X160245252Y-115339714D01*
X160054776Y-115292095D01*
X159959538Y-115244476D01*
X159864300Y-115149238D01*
X159816681Y-115006380D01*
X159816681Y-114911142D01*
X159864300Y-114768285D01*
X159911919Y-114720666D01*
X159816681Y-114387333D02*
X159816681Y-113768285D01*
X160197633Y-114101619D01*
X160197633Y-113958761D01*
X160245252Y-113863523D01*
X160292871Y-113815904D01*
X160388110Y-113768285D01*
X160626205Y-113768285D01*
X160721443Y-113815904D01*
X160769062Y-113863523D01*
X160816681Y-113958761D01*
X160816681Y-114244476D01*
X160769062Y-114339714D01*
X160721443Y-114387333D01*
X161885334Y-68199143D02*
X161837715Y-68246762D01*
X161694858Y-68294381D01*
X161599620Y-68294381D01*
X161456762Y-68246762D01*
X161361524Y-68151524D01*
X161313905Y-68056286D01*
X161266286Y-67865810D01*
X161266286Y-67722952D01*
X161313905Y-67532476D01*
X161361524Y-67437238D01*
X161456762Y-67342000D01*
X161599620Y-67294381D01*
X161694858Y-67294381D01*
X161837715Y-67342000D01*
X161885334Y-67389619D01*
X162266286Y-67389619D02*
X162313905Y-67342000D01*
X162409143Y-67294381D01*
X162647239Y-67294381D01*
X162742477Y-67342000D01*
X162790096Y-67389619D01*
X162837715Y-67484857D01*
X162837715Y-67580095D01*
X162790096Y-67722952D01*
X162218667Y-68294381D01*
X162837715Y-68294381D01*
X157772243Y-107126066D02*
X157819862Y-107173685D01*
X157867481Y-107316542D01*
X157867481Y-107411780D01*
X157819862Y-107554638D01*
X157724624Y-107649876D01*
X157629386Y-107697495D01*
X157438910Y-107745114D01*
X157296052Y-107745114D01*
X157105576Y-107697495D01*
X157010338Y-107649876D01*
X156915100Y-107554638D01*
X156867481Y-107411780D01*
X156867481Y-107316542D01*
X156915100Y-107173685D01*
X156962719Y-107126066D01*
X157867481Y-106173685D02*
X157867481Y-106745114D01*
X157867481Y-106459400D02*
X156867481Y-106459400D01*
X157010338Y-106554638D01*
X157105576Y-106649876D01*
X157153195Y-106745114D01*
X162226667Y-105497381D02*
X162226667Y-106211667D01*
X162179047Y-106354524D01*
X162083809Y-106449762D01*
X161940952Y-106497381D01*
X161845714Y-106497381D01*
X162845714Y-105925952D02*
X162750476Y-105878333D01*
X162702857Y-105830714D01*
X162655238Y-105735476D01*
X162655238Y-105687857D01*
X162702857Y-105592619D01*
X162750476Y-105545000D01*
X162845714Y-105497381D01*
X163036191Y-105497381D01*
X163131429Y-105545000D01*
X163179048Y-105592619D01*
X163226667Y-105687857D01*
X163226667Y-105735476D01*
X163179048Y-105830714D01*
X163131429Y-105878333D01*
X163036191Y-105925952D01*
X162845714Y-105925952D01*
X162750476Y-105973571D01*
X162702857Y-106021190D01*
X162655238Y-106116429D01*
X162655238Y-106306905D01*
X162702857Y-106402143D01*
X162750476Y-106449762D01*
X162845714Y-106497381D01*
X163036191Y-106497381D01*
X163131429Y-106449762D01*
X163179048Y-106402143D01*
X163226667Y-106306905D01*
X163226667Y-106116429D01*
X163179048Y-106021190D01*
X163131429Y-105973571D01*
X163036191Y-105925952D01*
X161750477Y-95972381D02*
X161750477Y-96686667D01*
X161702857Y-96829524D01*
X161607619Y-96924762D01*
X161464762Y-96972381D01*
X161369524Y-96972381D01*
X162750477Y-96972381D02*
X162179048Y-96972381D01*
X162464762Y-96972381D02*
X162464762Y-95972381D01*
X162369524Y-96115238D01*
X162274286Y-96210476D01*
X162179048Y-96258095D01*
X163083810Y-95972381D02*
X163750477Y-95972381D01*
X163321905Y-96972381D01*
X130175167Y-77468881D02*
X129841833Y-76992690D01*
X129603738Y-77468881D02*
X129603738Y-76468881D01*
X129984691Y-76468881D01*
X130079929Y-76516500D01*
X130127548Y-76564119D01*
X130175167Y-76659357D01*
X130175167Y-76802214D01*
X130127548Y-76897452D01*
X130079929Y-76945071D01*
X129984691Y-76992690D01*
X129603738Y-76992690D01*
X130603738Y-76945071D02*
X130937072Y-76945071D01*
X131079929Y-77468881D02*
X130603738Y-77468881D01*
X130603738Y-76468881D01*
X131079929Y-76468881D01*
X131841834Y-76945071D02*
X131508500Y-76945071D01*
X131508500Y-77468881D02*
X131508500Y-76468881D01*
X131984691Y-76468881D01*
X132508500Y-76468881D02*
X132508500Y-76706976D01*
X132270405Y-76611738D02*
X132508500Y-76706976D01*
X132746596Y-76611738D01*
X132365643Y-76897452D02*
X132508500Y-76706976D01*
X132651358Y-76897452D01*
X133270405Y-76468881D02*
X133270405Y-76706976D01*
X133032310Y-76611738D02*
X133270405Y-76706976D01*
X133508501Y-76611738D01*
X133127548Y-76897452D02*
X133270405Y-76706976D01*
X133413263Y-76897452D01*
X92900667Y-64832381D02*
X92567333Y-64356190D01*
X92329238Y-64832381D02*
X92329238Y-63832381D01*
X92710191Y-63832381D01*
X92805429Y-63880000D01*
X92853048Y-63927619D01*
X92900667Y-64022857D01*
X92900667Y-64165714D01*
X92853048Y-64260952D01*
X92805429Y-64308571D01*
X92710191Y-64356190D01*
X92329238Y-64356190D01*
X93329238Y-64308571D02*
X93662572Y-64308571D01*
X93805429Y-64832381D02*
X93329238Y-64832381D01*
X93329238Y-63832381D01*
X93805429Y-63832381D01*
X94567334Y-64308571D02*
X94234000Y-64308571D01*
X94234000Y-64832381D02*
X94234000Y-63832381D01*
X94710191Y-63832381D01*
X95234000Y-63832381D02*
X95234000Y-64070476D01*
X94995905Y-63975238D02*
X95234000Y-64070476D01*
X95472096Y-63975238D01*
X95091143Y-64260952D02*
X95234000Y-64070476D01*
X95376858Y-64260952D01*
X95995905Y-63832381D02*
X95995905Y-64070476D01*
X95757810Y-63975238D02*
X95995905Y-64070476D01*
X96234001Y-63975238D01*
X95853048Y-64260952D02*
X95995905Y-64070476D01*
X96138763Y-64260952D01*
X66195677Y-170082781D02*
X66195677Y-170797067D01*
X66148057Y-170939924D01*
X66052819Y-171035162D01*
X65909962Y-171082781D01*
X65814724Y-171082781D01*
X67195677Y-171082781D02*
X66624248Y-171082781D01*
X66909962Y-171082781D02*
X66909962Y-170082781D01*
X66814724Y-170225638D01*
X66719486Y-170320876D01*
X66624248Y-170368495D01*
X67576629Y-170178019D02*
X67624248Y-170130400D01*
X67719486Y-170082781D01*
X67957582Y-170082781D01*
X68052820Y-170130400D01*
X68100439Y-170178019D01*
X68148058Y-170273257D01*
X68148058Y-170368495D01*
X68100439Y-170511352D01*
X67529010Y-171082781D01*
X68148058Y-171082781D01*
X94321334Y-165145981D02*
X93988000Y-164669790D01*
X93749905Y-165145981D02*
X93749905Y-164145981D01*
X94130858Y-164145981D01*
X94226096Y-164193600D01*
X94273715Y-164241219D01*
X94321334Y-164336457D01*
X94321334Y-164479314D01*
X94273715Y-164574552D01*
X94226096Y-164622171D01*
X94130858Y-164669790D01*
X93749905Y-164669790D01*
X94654667Y-164145981D02*
X95273715Y-164145981D01*
X94940381Y-164526933D01*
X95083239Y-164526933D01*
X95178477Y-164574552D01*
X95226096Y-164622171D01*
X95273715Y-164717410D01*
X95273715Y-164955505D01*
X95226096Y-165050743D01*
X95178477Y-165098362D01*
X95083239Y-165145981D01*
X94797524Y-165145981D01*
X94702286Y-165098362D01*
X94654667Y-165050743D01*
X94321334Y-162555181D02*
X93988000Y-162078990D01*
X93749905Y-162555181D02*
X93749905Y-161555181D01*
X94130858Y-161555181D01*
X94226096Y-161602800D01*
X94273715Y-161650419D01*
X94321334Y-161745657D01*
X94321334Y-161888514D01*
X94273715Y-161983752D01*
X94226096Y-162031371D01*
X94130858Y-162078990D01*
X93749905Y-162078990D01*
X95178477Y-161888514D02*
X95178477Y-162555181D01*
X94940381Y-161507562D02*
X94702286Y-162221848D01*
X95321334Y-162221848D01*
X122464581Y-158254605D02*
X123274105Y-158254605D01*
X123369343Y-158206986D01*
X123416962Y-158159367D01*
X123464581Y-158064129D01*
X123464581Y-157873652D01*
X123416962Y-157778414D01*
X123369343Y-157730795D01*
X123274105Y-157683176D01*
X122464581Y-157683176D01*
X122559819Y-157254605D02*
X122512200Y-157206986D01*
X122464581Y-157111748D01*
X122464581Y-156873652D01*
X122512200Y-156778414D01*
X122559819Y-156730795D01*
X122655057Y-156683176D01*
X122750295Y-156683176D01*
X122893152Y-156730795D01*
X123464581Y-157302224D01*
X123464581Y-156683176D01*
X118562381Y-165861928D02*
X118086190Y-166195262D01*
X118562381Y-166433357D02*
X117562381Y-166433357D01*
X117562381Y-166052404D01*
X117610000Y-165957166D01*
X117657619Y-165909547D01*
X117752857Y-165861928D01*
X117895714Y-165861928D01*
X117990952Y-165909547D01*
X118038571Y-165957166D01*
X118086190Y-166052404D01*
X118086190Y-166433357D01*
X117562381Y-165576214D02*
X117562381Y-165004785D01*
X118562381Y-165290500D02*
X117562381Y-165290500D01*
X118467143Y-164100023D02*
X118514762Y-164147642D01*
X118562381Y-164290499D01*
X118562381Y-164385737D01*
X118514762Y-164528595D01*
X118419524Y-164623833D01*
X118324286Y-164671452D01*
X118133810Y-164719071D01*
X117990952Y-164719071D01*
X117800476Y-164671452D01*
X117705238Y-164623833D01*
X117610000Y-164528595D01*
X117562381Y-164385737D01*
X117562381Y-164290499D01*
X117610000Y-164147642D01*
X117657619Y-164100023D01*
X118832381Y-166695262D02*
X118832381Y-166600023D01*
X118880000Y-166504785D01*
X118927619Y-166457166D01*
X119022857Y-166409547D01*
X119213333Y-166361928D01*
X119451429Y-166361928D01*
X119641905Y-166409547D01*
X119737143Y-166457166D01*
X119784762Y-166504785D01*
X119832381Y-166600023D01*
X119832381Y-166695262D01*
X119784762Y-166790500D01*
X119737143Y-166838119D01*
X119641905Y-166885738D01*
X119451429Y-166933357D01*
X119213333Y-166933357D01*
X119022857Y-166885738D01*
X118927619Y-166838119D01*
X118880000Y-166790500D01*
X118832381Y-166695262D01*
X119832381Y-166028595D02*
X119165714Y-165504785D01*
X119165714Y-166028595D02*
X119832381Y-165504785D01*
X118832381Y-164695261D02*
X118832381Y-164885738D01*
X118880000Y-164980976D01*
X118927619Y-165028595D01*
X119070476Y-165123833D01*
X119260952Y-165171452D01*
X119641905Y-165171452D01*
X119737143Y-165123833D01*
X119784762Y-165076214D01*
X119832381Y-164980976D01*
X119832381Y-164790499D01*
X119784762Y-164695261D01*
X119737143Y-164647642D01*
X119641905Y-164600023D01*
X119403810Y-164600023D01*
X119308571Y-164647642D01*
X119260952Y-164695261D01*
X119213333Y-164790499D01*
X119213333Y-164980976D01*
X119260952Y-165076214D01*
X119308571Y-165123833D01*
X119403810Y-165171452D01*
X119260952Y-164028595D02*
X119213333Y-164123833D01*
X119165714Y-164171452D01*
X119070476Y-164219071D01*
X119022857Y-164219071D01*
X118927619Y-164171452D01*
X118880000Y-164123833D01*
X118832381Y-164028595D01*
X118832381Y-163838118D01*
X118880000Y-163742880D01*
X118927619Y-163695261D01*
X119022857Y-163647642D01*
X119070476Y-163647642D01*
X119165714Y-163695261D01*
X119213333Y-163742880D01*
X119260952Y-163838118D01*
X119260952Y-164028595D01*
X119308571Y-164123833D01*
X119356190Y-164171452D01*
X119451429Y-164219071D01*
X119641905Y-164219071D01*
X119737143Y-164171452D01*
X119784762Y-164123833D01*
X119832381Y-164028595D01*
X119832381Y-163838118D01*
X119784762Y-163742880D01*
X119737143Y-163695261D01*
X119641905Y-163647642D01*
X119451429Y-163647642D01*
X119356190Y-163695261D01*
X119308571Y-163742880D01*
X119260952Y-163838118D01*
X117038381Y-167933357D02*
X116038381Y-167933357D01*
X116038381Y-167695262D01*
X116086000Y-167552404D01*
X116181238Y-167457166D01*
X116276476Y-167409547D01*
X116466952Y-167361928D01*
X116609810Y-167361928D01*
X116800286Y-167409547D01*
X116895524Y-167457166D01*
X116990762Y-167552404D01*
X117038381Y-167695262D01*
X117038381Y-167933357D01*
X116990762Y-166980976D02*
X117038381Y-166838119D01*
X117038381Y-166600023D01*
X116990762Y-166504785D01*
X116943143Y-166457166D01*
X116847905Y-166409547D01*
X116752667Y-166409547D01*
X116657429Y-166457166D01*
X116609810Y-166504785D01*
X116562190Y-166600023D01*
X116514571Y-166790500D01*
X116466952Y-166885738D01*
X116419333Y-166933357D01*
X116324095Y-166980976D01*
X116228857Y-166980976D01*
X116133619Y-166933357D01*
X116086000Y-166885738D01*
X116038381Y-166790500D01*
X116038381Y-166552404D01*
X116086000Y-166409547D01*
X116038381Y-166076214D02*
X116038381Y-165457166D01*
X116419333Y-165790500D01*
X116419333Y-165647642D01*
X116466952Y-165552404D01*
X116514571Y-165504785D01*
X116609810Y-165457166D01*
X116847905Y-165457166D01*
X116943143Y-165504785D01*
X116990762Y-165552404D01*
X117038381Y-165647642D01*
X117038381Y-165933357D01*
X116990762Y-166028595D01*
X116943143Y-166076214D01*
X116133619Y-165076214D02*
X116086000Y-165028595D01*
X116038381Y-164933357D01*
X116038381Y-164695261D01*
X116086000Y-164600023D01*
X116133619Y-164552404D01*
X116228857Y-164504785D01*
X116324095Y-164504785D01*
X116466952Y-164552404D01*
X117038381Y-165123833D01*
X117038381Y-164504785D01*
X116038381Y-164171452D02*
X116038381Y-163552404D01*
X116419333Y-163885738D01*
X116419333Y-163742880D01*
X116466952Y-163647642D01*
X116514571Y-163600023D01*
X116609810Y-163552404D01*
X116847905Y-163552404D01*
X116943143Y-163600023D01*
X116990762Y-163647642D01*
X117038381Y-163742880D01*
X117038381Y-164028595D01*
X116990762Y-164123833D01*
X116943143Y-164171452D01*
X117038381Y-162600023D02*
X117038381Y-163171452D01*
X117038381Y-162885738D02*
X116038381Y-162885738D01*
X116181238Y-162980976D01*
X116276476Y-163076214D01*
X116324095Y-163171452D01*
X157313381Y-153923905D02*
X158122905Y-153923905D01*
X158218143Y-153876286D01*
X158265762Y-153828667D01*
X158313381Y-153733429D01*
X158313381Y-153542952D01*
X158265762Y-153447714D01*
X158218143Y-153400095D01*
X158122905Y-153352476D01*
X157313381Y-153352476D01*
X157646714Y-152447714D02*
X158313381Y-152447714D01*
X157265762Y-152685810D02*
X157980048Y-152923905D01*
X157980048Y-152304857D01*
X120051581Y-99129695D02*
X120861105Y-99129695D01*
X120956343Y-99082076D01*
X121003962Y-99034457D01*
X121051581Y-98939219D01*
X121051581Y-98748742D01*
X121003962Y-98653504D01*
X120956343Y-98605885D01*
X120861105Y-98558266D01*
X120051581Y-98558266D01*
X121051581Y-97558266D02*
X121051581Y-98129695D01*
X121051581Y-97843981D02*
X120051581Y-97843981D01*
X120194438Y-97939219D01*
X120289676Y-98034457D01*
X120337295Y-98129695D01*
X120051581Y-96939219D02*
X120051581Y-96843980D01*
X120099200Y-96748742D01*
X120146819Y-96701123D01*
X120242057Y-96653504D01*
X120432533Y-96605885D01*
X120670629Y-96605885D01*
X120861105Y-96653504D01*
X120956343Y-96701123D01*
X121003962Y-96748742D01*
X121051581Y-96843980D01*
X121051581Y-96939219D01*
X121003962Y-97034457D01*
X120956343Y-97082076D01*
X120861105Y-97129695D01*
X120670629Y-97177314D01*
X120432533Y-97177314D01*
X120242057Y-97129695D01*
X120146819Y-97082076D01*
X120099200Y-97034457D01*
X120051581Y-96939219D01*
X125588781Y-130066895D02*
X126398305Y-130066895D01*
X126493543Y-130019276D01*
X126541162Y-129971657D01*
X126588781Y-129876419D01*
X126588781Y-129685942D01*
X126541162Y-129590704D01*
X126493543Y-129543085D01*
X126398305Y-129495466D01*
X125588781Y-129495466D01*
X126588781Y-128495466D02*
X126588781Y-129066895D01*
X126588781Y-128781181D02*
X125588781Y-128781181D01*
X125731638Y-128876419D01*
X125826876Y-128971657D01*
X125874495Y-129066895D01*
X126588781Y-127543085D02*
X126588781Y-128114514D01*
X126588781Y-127828800D02*
X125588781Y-127828800D01*
X125731638Y-127924038D01*
X125826876Y-128019276D01*
X125874495Y-128114514D01*
X132675381Y-157321095D02*
X133484905Y-157321095D01*
X133580143Y-157273476D01*
X133627762Y-157225857D01*
X133675381Y-157130619D01*
X133675381Y-156940142D01*
X133627762Y-156844904D01*
X133580143Y-156797285D01*
X133484905Y-156749666D01*
X132675381Y-156749666D01*
X133675381Y-155749666D02*
X133675381Y-156321095D01*
X133675381Y-156035381D02*
X132675381Y-156035381D01*
X132818238Y-156130619D01*
X132913476Y-156225857D01*
X132961095Y-156321095D01*
X132770619Y-155368714D02*
X132723000Y-155321095D01*
X132675381Y-155225857D01*
X132675381Y-154987761D01*
X132723000Y-154892523D01*
X132770619Y-154844904D01*
X132865857Y-154797285D01*
X132961095Y-154797285D01*
X133103952Y-154844904D01*
X133675381Y-155416333D01*
X133675381Y-154797285D01*
M02*
