M48
;DRILL file {KiCad 4.0.7} date 04/20/18 17:44:45
;FORMAT={2:4/ absolute / inch / suppress leading zeros}
FMAT,2
INCH,TZ
T1C0.016
T2C0.028
T3C0.039
T4C0.040
T5C0.040
T6C0.043
T7C0.070
T8C0.100
T9C0.100
T10C0.110
T11C0.130
T12C0.189
%
G90
G05
M72
T1
X29875Y-49825
X37900Y-49525
X38125Y-50300
T2
X28000Y-56875
X58825Y-31525
X62250Y-46250
T3
X25775Y-51450
X25775Y-52450
X25775Y-53450
X25820Y-55900
X25820Y-56900
X25820Y-57900
X26380Y-64260
X26380Y-65260
X26380Y-66260
X26820Y-55900
X26820Y-56900
X26820Y-57900
X37690Y-39670
X37690Y-40670
X37690Y-41670
X37690Y-42670
X56800Y-23500
X56800Y-24500
X56800Y-25500
X56800Y-26500
X56800Y-27500
X56800Y-28500
X56800Y-29500
X56800Y-30500
X57800Y-23500
X57800Y-24500
X57800Y-25500
X57800Y-26500
X57800Y-27500
X57800Y-28500
X57800Y-29500
X57800Y-30500
T4
X44160Y-51470
X44160Y-52470
X44160Y-53470
X44160Y-54470
X44280Y-38290
X44280Y-39290
X44280Y-40290
X44280Y-41290
X44280Y-42290
X44280Y-43290
X44280Y-44290
X49200Y-61575
X49200Y-62575
X49200Y-63575
X49200Y-64575
X49200Y-65575
X49200Y-66575
X49200Y-67575
X49200Y-68575
X51160Y-50470
X51160Y-51470
X51160Y-52470
X51160Y-53470
X51160Y-54470
X51160Y-55470
X51600Y-61720
X51600Y-62720
X51600Y-63720
X51600Y-64720
X51600Y-65720
X51600Y-66720
T5
X32040Y-49840
X32040Y-50840
X32040Y-51840
X32040Y-52840
X32040Y-53840
X32040Y-54840
X32040Y-55840
X32040Y-56840
X32040Y-57840
X32040Y-58840
X32040Y-59840
X32040Y-60840
X32040Y-61840
X32040Y-62840
X32040Y-63840
X32040Y-64840
X39840Y-53840
X39840Y-54840
X39840Y-55840
X39840Y-56840
X39840Y-57840
X39840Y-58840
X39840Y-59840
X39840Y-60840
X39840Y-61840
X39840Y-62840
X39840Y-63840
X39840Y-64840
X53200Y-37860
X53200Y-38860
X53200Y-39860
X53200Y-40860
X53200Y-41860
X53200Y-42860
X53200Y-43860
X53200Y-44860
X53200Y-45860
X53200Y-46860
X53200Y-47860
X53200Y-48860
X53200Y-49860
X53200Y-50860
X53200Y-51860
X59200Y-37860
X59200Y-38860
X59200Y-39860
X59200Y-40860
X59200Y-41860
X59200Y-42860
X59200Y-43860
X59200Y-44860
X59200Y-45860
X59200Y-46860
X59200Y-47860
X59200Y-48860
X59200Y-49860
X59200Y-50860
X59200Y-51860
X60700Y-60420
X60700Y-61420
X60700Y-62420
X60700Y-63420
X60700Y-64420
T6
X32790Y-40970
X37575Y-55625
X65250Y-27250
X66750Y-41750
T7
X53200Y-36860
X53200Y-52860
X59200Y-36860
X59200Y-52860
T8
X32440Y-48340
X32440Y-66340
X39440Y-48340
X39440Y-66340
X44200Y-61575
X44200Y-68575
X45980Y-38540
X45980Y-44040
X49980Y-38540
X49980Y-44040
T9
X55596Y-61720
X55600Y-66720
T10
X44660Y-48720
X44660Y-57220
X50660Y-48720
X50660Y-57220
T11
X69080Y-66080
T12
X62500Y-34500
X62500Y-38250
X65138Y-34500
X65138Y-38250
T0
M30
