G04 #@! TF.FileFunction,Copper,L1,Top,Signal*
%FSLAX46Y46*%
G04 Gerber Fmt 4.6, Leading zero omitted, Abs format (unit mm)*
G04 Created by KiCad (PCBNEW 4.0.7) date 04/20/18 17:44:43*
%MOMM*%
%LPD*%
G01*
G04 APERTURE LIST*
%ADD10C,0.100000*%
%ADD11C,0.381000*%
%ADD12C,1.778000*%
%ADD13C,3.810000*%
%ADD14C,1.981200*%
%ADD15R,2.000000X3.800000*%
%ADD16R,2.000000X1.500000*%
%ADD17R,1.700000X1.700000*%
%ADD18O,1.700000X1.700000*%
%ADD19R,3.800000X2.000000*%
%ADD20R,1.500000X2.000000*%
%ADD21R,0.700000X1.300000*%
%ADD22R,1.300000X0.700000*%
%ADD23R,1.200000X1.200000*%
%ADD24R,1.000000X1.250000*%
%ADD25R,1.250000X1.000000*%
%ADD26C,6.100000*%
%ADD27C,3.302000*%
%ADD28C,4.064000*%
%ADD29C,3.556000*%
%ADD30C,4.318000*%
%ADD31C,3.500000*%
%ADD32C,1.500000*%
%ADD33C,1.000000*%
%ADD34C,0.600000*%
%ADD35C,1.000000*%
%ADD36C,4.000000*%
%ADD37C,0.500000*%
%ADD38C,0.250000*%
%ADD39C,1.500000*%
%ADD40C,2.000000*%
%ADD41C,0.254000*%
G04 APERTURE END LIST*
D10*
D11*
X110236000Y-73533000D02*
X114935000Y-80518000D01*
X114935000Y-80518000D02*
X105537000Y-80518000D01*
X105537000Y-80518000D02*
X110236000Y-73533000D01*
X110363000Y-79629000D02*
G75*
G03X110363000Y-79629000I-127000J0D01*
G01*
X110595210Y-79629000D02*
G75*
G03X110595210Y-79629000I-359210J0D01*
G01*
X110236000Y-78740000D02*
X110109000Y-75184000D01*
X110236000Y-78613000D02*
X110363000Y-75184000D01*
X110236000Y-75184000D02*
X110744000Y-75184000D01*
X110744000Y-75184000D02*
X110236000Y-78740000D01*
X110236000Y-78740000D02*
X109728000Y-75184000D01*
X109728000Y-75184000D02*
X110236000Y-75184000D01*
D12*
X81381600Y-126593600D03*
X81381600Y-129133600D03*
X81381600Y-131673600D03*
X81381600Y-134213600D03*
X81381600Y-136753600D03*
X81381600Y-139293600D03*
X81381600Y-141833600D03*
X81381600Y-144373600D03*
X81381600Y-146913600D03*
X81381600Y-149453600D03*
X81381600Y-151993600D03*
X81381600Y-154533600D03*
X81381600Y-157073600D03*
X81381600Y-159613600D03*
X81381600Y-162153600D03*
D13*
X82397600Y-122783600D03*
X100177600Y-122783600D03*
X82397600Y-168503600D03*
X100177600Y-168503600D03*
D12*
X81381600Y-164693600D03*
X101193600Y-164693600D03*
X101193600Y-162153600D03*
X101193600Y-159613600D03*
X101193600Y-157073600D03*
X101193600Y-154533600D03*
X101193600Y-151993600D03*
X101193600Y-149453600D03*
X101193600Y-146913600D03*
X101193600Y-144373600D03*
X101193600Y-141833600D03*
X101193600Y-139293600D03*
X101193600Y-136753600D03*
X150368000Y-131724400D03*
X150368000Y-129184400D03*
X150368000Y-126644400D03*
X150368000Y-124104400D03*
X150368000Y-121564400D03*
X150368000Y-119024400D03*
X150368000Y-116484400D03*
X150368000Y-113944400D03*
X150368000Y-111404400D03*
X150368000Y-108864400D03*
X150368000Y-106324400D03*
X150368000Y-103784400D03*
X150368000Y-101244400D03*
X150368000Y-98704400D03*
X150368000Y-96164400D03*
X135128000Y-96164400D03*
X135128000Y-98704400D03*
X135128000Y-101244400D03*
X135128000Y-103784400D03*
X135128000Y-106324400D03*
X135128000Y-108864400D03*
X135128000Y-111404400D03*
X135128000Y-113944400D03*
X135128000Y-116484400D03*
X135128000Y-119024400D03*
X135128000Y-121564400D03*
X135128000Y-124104400D03*
X135128000Y-126644400D03*
X135128000Y-129184400D03*
X135128000Y-131724400D03*
D14*
X150368000Y-134264400D03*
X135128000Y-134264400D03*
X150368000Y-93624400D03*
X135128000Y-93624400D03*
D15*
X170434400Y-110718600D03*
D16*
X164134400Y-110718600D03*
X164134400Y-113018600D03*
X164134400Y-108418600D03*
D17*
X146812000Y-59690000D03*
D18*
X144272000Y-59690000D03*
X146812000Y-62230000D03*
X144272000Y-62230000D03*
X146812000Y-64770000D03*
X144272000Y-64770000D03*
X146812000Y-67310000D03*
X144272000Y-67310000D03*
X146812000Y-69850000D03*
X144272000Y-69850000D03*
X146812000Y-72390000D03*
X144272000Y-72390000D03*
X146812000Y-74930000D03*
X144272000Y-74930000D03*
X146812000Y-77470000D03*
X144272000Y-77470000D03*
D19*
X165862000Y-58572000D03*
D20*
X165862000Y-64872000D03*
X168162000Y-64872000D03*
X163562000Y-64872000D03*
D21*
X90332600Y-102031800D03*
X88432600Y-102031800D03*
X90332600Y-105841800D03*
X88432600Y-105841800D03*
X90332600Y-109651800D03*
X88432600Y-109651800D03*
X163002000Y-74422000D03*
X161102000Y-74422000D03*
D22*
X166789100Y-119669600D03*
X166789100Y-117769600D03*
D17*
X95732600Y-108381800D03*
D18*
X95732600Y-105841800D03*
X95732600Y-103301800D03*
X95732600Y-100761800D03*
D23*
X85402600Y-102031800D03*
X83202600Y-102031800D03*
X85402600Y-105841800D03*
X83202600Y-105841800D03*
X85402600Y-109651800D03*
X83202600Y-109651800D03*
X170772000Y-74422000D03*
X168572000Y-74422000D03*
X163156900Y-117479900D03*
X163156900Y-119679900D03*
D24*
X170672000Y-69342000D03*
X168672000Y-69342000D03*
D25*
X158864300Y-113554000D03*
X158864300Y-115554000D03*
D24*
X161052000Y-69342000D03*
X163052000Y-69342000D03*
D25*
X158915100Y-107959400D03*
X158915100Y-105959400D03*
D26*
X158750000Y-97155000D03*
X165450000Y-97155000D03*
X158750000Y-87630000D03*
X165450000Y-87630000D03*
D17*
X65582800Y-141986000D03*
D18*
X68122800Y-141986000D03*
X65582800Y-144526000D03*
X68122800Y-144526000D03*
X65582800Y-147066000D03*
X68122800Y-147066000D03*
D17*
X67005200Y-168300400D03*
D18*
X67005200Y-165760400D03*
X67005200Y-163220400D03*
D21*
X96078000Y-164693600D03*
X97978000Y-164693600D03*
X96078000Y-162153600D03*
X97978000Y-162153600D03*
D12*
X124968000Y-174180500D03*
X124968000Y-171640500D03*
X124968000Y-169100500D03*
X124968000Y-166560500D03*
X124968000Y-164020500D03*
X124968000Y-161480500D03*
X124968000Y-158940500D03*
X124968000Y-156400500D03*
D27*
X112268000Y-156400500D03*
X112268000Y-174180500D03*
D12*
X154178000Y-153466800D03*
X154178000Y-156006800D03*
X154178000Y-158546800D03*
X154178000Y-161086800D03*
X154178000Y-163626800D03*
D28*
X175463200Y-167843200D03*
D12*
X112471200Y-97256600D03*
X112471200Y-99796600D03*
X112471200Y-102336600D03*
X112471200Y-104876600D03*
X112471200Y-107416600D03*
X112471200Y-109956600D03*
X112471200Y-112496600D03*
D29*
X126949200Y-97891600D03*
X126949200Y-111861600D03*
X116789200Y-97891600D03*
X116789200Y-111861600D03*
D12*
X129946400Y-140893800D03*
X129946400Y-138353800D03*
X129946400Y-135813800D03*
X129946400Y-133273800D03*
X129946400Y-130733800D03*
X129946400Y-128193800D03*
X112166400Y-138353800D03*
X112166400Y-135813800D03*
X112166400Y-133273800D03*
X112166400Y-130733800D03*
D30*
X128676400Y-145338800D03*
X128676400Y-123748800D03*
X113436400Y-123748800D03*
X113436400Y-145338800D03*
D12*
X131064000Y-156768800D03*
X131064000Y-159308800D03*
X131064000Y-161848800D03*
X131064000Y-164388800D03*
X131064000Y-166928800D03*
X131064000Y-169468800D03*
D31*
X141214000Y-156768800D03*
X141224000Y-169468800D03*
D17*
X65468500Y-130683000D03*
D18*
X65468500Y-133223000D03*
X65468500Y-135763000D03*
D32*
X83286600Y-104063800D03*
D33*
X158115000Y-117475000D03*
D32*
X169545000Y-106045000D03*
X165735000Y-69215000D03*
X95440500Y-141287500D03*
D33*
X71120000Y-144462500D03*
X149415500Y-80073500D03*
D34*
X96837500Y-127762000D03*
X75882500Y-126555500D03*
X96266000Y-125793500D03*
D35*
X158750000Y-87630000D02*
X158750000Y-71644000D01*
X158750000Y-71644000D02*
X161052000Y-69342000D01*
D36*
X158750000Y-97155000D02*
X158750000Y-87630000D01*
D35*
X158915100Y-107959400D02*
X156854400Y-107959400D01*
X158750000Y-101600000D02*
X158750000Y-97155000D01*
X156210000Y-104140000D02*
X158750000Y-101600000D01*
X156210000Y-107315000D02*
X156210000Y-104140000D01*
X156854400Y-107959400D02*
X156210000Y-107315000D01*
X158915100Y-107959400D02*
X163675200Y-107959400D01*
X163675200Y-107959400D02*
X164134400Y-108418600D01*
X161052000Y-69342000D02*
X161052000Y-67382000D01*
X161052000Y-67382000D02*
X163562000Y-64872000D01*
D37*
X83202600Y-104317800D02*
X83202600Y-104147800D01*
X83202600Y-104147800D02*
X83286600Y-104063800D01*
X83202600Y-102031800D02*
X83202600Y-104317800D01*
X83202600Y-104317800D02*
X83202600Y-105841800D01*
X83202600Y-105841800D02*
X83202600Y-109651800D01*
X161102000Y-74422000D02*
X161102000Y-72324000D01*
X163052000Y-70374000D02*
X163052000Y-69342000D01*
X161102000Y-72324000D02*
X163052000Y-70374000D01*
X158864300Y-115554000D02*
X158864300Y-116725700D01*
X158864300Y-116725700D02*
X158115000Y-117475000D01*
X158915100Y-105959400D02*
X169459400Y-105959400D01*
D35*
X170434400Y-106934400D02*
X170434400Y-110718600D01*
X170434400Y-106934400D02*
X169545000Y-106045000D01*
D37*
X169459400Y-105959400D02*
X169545000Y-106045000D01*
D35*
X164134400Y-110718600D02*
X170434400Y-110718600D01*
X168672000Y-69342000D02*
X165862000Y-69342000D01*
X165862000Y-69342000D02*
X165735000Y-69215000D01*
X163052000Y-69342000D02*
X165608000Y-69342000D01*
X165862000Y-69088000D02*
X165735000Y-69215000D01*
X165862000Y-69088000D02*
X165862000Y-64872000D01*
X165608000Y-69342000D02*
X165735000Y-69215000D01*
D38*
X166789100Y-117769600D02*
X166789100Y-114363900D01*
X166789100Y-114363900D02*
X170434400Y-110718600D01*
D39*
X141554200Y-163626800D02*
X141274800Y-163626800D01*
X132956300Y-140893800D02*
X129946400Y-140893800D01*
X135445500Y-143383000D02*
X132956300Y-140893800D01*
X135445500Y-157797500D02*
X135445500Y-143383000D01*
X141274800Y-163626800D02*
X135445500Y-157797500D01*
D35*
X150368000Y-96164400D02*
X152425400Y-96164400D01*
X153670000Y-101346000D02*
X154559000Y-102235000D01*
X153670000Y-97409000D02*
X153670000Y-101346000D01*
X152425400Y-96164400D02*
X153670000Y-97409000D01*
X112471200Y-97256600D02*
X112471200Y-95237300D01*
X146900900Y-96164400D02*
X150368000Y-96164400D01*
X141033500Y-90297000D02*
X146900900Y-96164400D01*
X129476500Y-90297000D02*
X141033500Y-90297000D01*
X127571500Y-92202000D02*
X129476500Y-90297000D01*
X115506500Y-92202000D02*
X127571500Y-92202000D01*
X112471200Y-95237300D02*
X115506500Y-92202000D01*
X96078000Y-162153600D02*
X96078000Y-141925000D01*
X96078000Y-141925000D02*
X95440500Y-141287500D01*
X95631000Y-169545000D02*
X95631000Y-165140600D01*
D39*
X119697500Y-174180500D02*
X116649500Y-171132500D01*
X116649500Y-171132500D02*
X104648000Y-171132500D01*
X104648000Y-171132500D02*
X103886000Y-171894500D01*
X103886000Y-171894500D02*
X97028000Y-171894500D01*
X97028000Y-171894500D02*
X95631000Y-170497500D01*
X95631000Y-170497500D02*
X95631000Y-169545000D01*
X124968000Y-174180500D02*
X119697500Y-174180500D01*
D35*
X95631000Y-165140600D02*
X96078000Y-164693600D01*
D39*
X131064000Y-169468800D02*
X131064000Y-169672000D01*
X131064000Y-169672000D02*
X126555500Y-174180500D01*
X126555500Y-174180500D02*
X124968000Y-174180500D01*
X131064000Y-169468800D02*
X135712200Y-169468800D01*
X135712200Y-169468800D02*
X141554200Y-163626800D01*
X141554200Y-163626800D02*
X154178000Y-163626800D01*
D40*
X160083500Y-163703000D02*
X158115000Y-163703000D01*
D39*
X158115000Y-163703000D02*
X156400500Y-163703000D01*
X156400500Y-163703000D02*
X156324300Y-163626800D01*
X156324300Y-163626800D02*
X154178000Y-163626800D01*
D40*
X161353500Y-162433000D02*
X160083500Y-163703000D01*
X161353500Y-121031000D02*
X161353500Y-162433000D01*
D37*
X141554200Y-163626800D02*
X154178000Y-163626800D01*
X135712200Y-169468800D02*
X141554200Y-163626800D01*
X96078000Y-164693600D02*
X96078000Y-162153600D01*
X65582800Y-144526000D02*
X68122800Y-144526000D01*
X68122800Y-144526000D02*
X68186300Y-144462500D01*
X68186300Y-144462500D02*
X71120000Y-144462500D01*
D38*
X163156900Y-117479900D02*
X163156900Y-115595400D01*
X164134400Y-114617900D02*
X164134400Y-113018600D01*
X163156900Y-115595400D02*
X164134400Y-114617900D01*
D35*
X158864300Y-113554000D02*
X163599000Y-113554000D01*
X163599000Y-113554000D02*
X164134400Y-113018600D01*
X170672000Y-69342000D02*
X170672000Y-73660000D01*
X170672000Y-73660000D02*
X170672000Y-74322000D01*
X170672000Y-74322000D02*
X170772000Y-74422000D01*
X168162000Y-64872000D02*
X169189800Y-64872000D01*
X170672000Y-66354200D02*
X170672000Y-69342000D01*
X169189800Y-64872000D02*
X170672000Y-66354200D01*
D38*
X166789100Y-119669600D02*
X163167200Y-119669600D01*
X163167200Y-119669600D02*
X163156900Y-119679900D01*
X168572000Y-74422000D02*
X163002000Y-74422000D01*
D37*
X88432600Y-109651800D02*
X85402600Y-109651800D01*
X85402600Y-105841800D02*
X88432600Y-105841800D01*
X88432600Y-102031800D02*
X85402600Y-102031800D01*
D38*
X81381600Y-136753600D02*
X87843104Y-136753600D01*
X108163104Y-107416600D02*
X112471200Y-107416600D01*
X93778496Y-121801208D02*
X108163104Y-107416600D01*
X93778496Y-130818208D02*
X93778496Y-121801208D01*
X87843104Y-136753600D02*
X93778496Y-130818208D01*
X81381600Y-139293600D02*
X85939502Y-139293600D01*
X106259502Y-109956600D02*
X112471200Y-109956600D01*
X94228498Y-121987604D02*
X106259502Y-109956600D01*
X94228498Y-131004604D02*
X94228498Y-121987604D01*
X85939502Y-139293600D02*
X94228498Y-131004604D01*
X81381600Y-141833600D02*
X84035900Y-141833600D01*
X104355900Y-112496600D02*
X112471200Y-112496600D01*
X94678500Y-122174000D02*
X104355900Y-112496600D01*
X94678500Y-131191000D02*
X94678500Y-122174000D01*
X84035900Y-141833600D02*
X94678500Y-131191000D01*
X65582800Y-141986000D02*
X65582800Y-141173200D01*
X65582800Y-141173200D02*
X66992500Y-139763500D01*
X66992500Y-139763500D02*
X72898000Y-139763500D01*
X72898000Y-139763500D02*
X77508100Y-144373600D01*
X77508100Y-144373600D02*
X81381600Y-144373600D01*
X68122800Y-141986000D02*
X71437500Y-141986000D01*
X76365100Y-146913600D02*
X81381600Y-146913600D01*
X71437500Y-141986000D02*
X76365100Y-146913600D01*
D37*
X149987000Y-67310000D02*
X146812000Y-67310000D01*
X151130000Y-68453000D02*
X149987000Y-67310000D01*
X151130000Y-70104000D02*
X151130000Y-68453000D01*
X149352000Y-71882000D02*
X151130000Y-70104000D01*
X149352000Y-80010000D02*
X149352000Y-71882000D01*
X149415500Y-80073500D02*
X149352000Y-80010000D01*
X124968000Y-166560500D02*
X125857000Y-166560500D01*
X125857000Y-166560500D02*
X130568700Y-161848800D01*
X130568700Y-161848800D02*
X131064000Y-161848800D01*
X97978000Y-164693600D02*
X101193600Y-164693600D01*
X109004100Y-162153600D02*
X114642900Y-162153600D01*
X119253000Y-130175000D02*
X129387600Y-130175000D01*
X116459000Y-132969000D02*
X119253000Y-130175000D01*
X116459000Y-139509500D02*
X116459000Y-132969000D01*
X119570500Y-142621000D02*
X116459000Y-139509500D01*
X119570500Y-157226000D02*
X119570500Y-142621000D01*
X114642900Y-162153600D02*
X119570500Y-157226000D01*
X129387600Y-130175000D02*
X129946400Y-130733800D01*
X101193600Y-162153600D02*
X109004100Y-162153600D01*
X115951000Y-169100500D02*
X124968000Y-169100500D01*
X109004100Y-162153600D02*
X115951000Y-169100500D01*
X124968000Y-169100500D02*
X125984000Y-169100500D01*
X125984000Y-169100500D02*
X130695700Y-164388800D01*
X130695700Y-164388800D02*
X131064000Y-164388800D01*
X97978000Y-162153600D02*
X101193600Y-162153600D01*
X95732600Y-108381800D02*
X91602600Y-108381800D01*
X91602600Y-108381800D02*
X90332600Y-109651800D01*
X95732600Y-105841800D02*
X90332600Y-105841800D01*
X95732600Y-103301800D02*
X91602600Y-103301800D01*
X91602600Y-103301800D02*
X90332600Y-102031800D01*
X154178000Y-156006800D02*
X153593800Y-156006800D01*
X153593800Y-156006800D02*
X152082500Y-154495500D01*
X152082500Y-154495500D02*
X152082500Y-149479000D01*
X152082500Y-149479000D02*
X143827500Y-141224000D01*
X143827500Y-141224000D02*
X143827500Y-125412500D01*
X143827500Y-125412500D02*
X139979400Y-121564400D01*
X139979400Y-121564400D02*
X135128000Y-121564400D01*
X154178000Y-158546800D02*
X152768300Y-158546800D01*
X139725400Y-124104400D02*
X135128000Y-124104400D01*
X142367000Y-126746000D02*
X139725400Y-124104400D01*
X142367000Y-141605000D02*
X142367000Y-126746000D01*
X151257000Y-150495000D02*
X142367000Y-141605000D01*
X151257000Y-157035500D02*
X151257000Y-150495000D01*
X152768300Y-158546800D02*
X151257000Y-157035500D01*
D38*
X75882500Y-126555500D02*
X75882500Y-129159000D01*
X104165400Y-146913600D02*
X106420498Y-144658502D01*
X106420498Y-144658502D02*
X106420498Y-135631896D01*
X106420498Y-135631896D02*
X98550602Y-127762000D01*
X98550602Y-127762000D02*
X96837500Y-127762000D01*
X101193600Y-146913600D02*
X104165400Y-146913600D01*
X74358500Y-130683000D02*
X65468500Y-130683000D01*
X75882500Y-129159000D02*
X74358500Y-130683000D01*
X101193600Y-149453600D02*
X104419400Y-149453600D01*
X97218500Y-125793500D02*
X96266000Y-125793500D01*
X106870500Y-135445500D02*
X97218500Y-125793500D01*
X106870500Y-147002500D02*
X106870500Y-135445500D01*
X104419400Y-149453600D02*
X106870500Y-147002500D01*
D41*
G36*
X180213000Y-82423000D02*
X159885000Y-82423000D01*
X159885000Y-72114132D01*
X161384692Y-70614440D01*
X161552000Y-70614440D01*
X161561830Y-70612590D01*
X160476210Y-71698210D01*
X160284367Y-71985325D01*
X160284367Y-71985326D01*
X160216999Y-72324000D01*
X160217000Y-72324005D01*
X160217000Y-73430203D01*
X160155569Y-73520110D01*
X160104560Y-73772000D01*
X160104560Y-75072000D01*
X160148838Y-75307317D01*
X160287910Y-75523441D01*
X160500110Y-75668431D01*
X160752000Y-75719440D01*
X161452000Y-75719440D01*
X161687317Y-75675162D01*
X161903441Y-75536090D01*
X162048431Y-75323890D01*
X162051081Y-75310803D01*
X162187910Y-75523441D01*
X162400110Y-75668431D01*
X162652000Y-75719440D01*
X163352000Y-75719440D01*
X163587317Y-75675162D01*
X163803441Y-75536090D01*
X163948431Y-75323890D01*
X163977164Y-75182000D01*
X167354666Y-75182000D01*
X167368838Y-75257317D01*
X167507910Y-75473441D01*
X167720110Y-75618431D01*
X167972000Y-75669440D01*
X169172000Y-75669440D01*
X169407317Y-75625162D01*
X169623441Y-75486090D01*
X169669969Y-75417994D01*
X169812302Y-75560327D01*
X170045691Y-75657000D01*
X170486250Y-75657000D01*
X170645000Y-75498250D01*
X170645000Y-74549000D01*
X170899000Y-74549000D01*
X170899000Y-75498250D01*
X171057750Y-75657000D01*
X171498309Y-75657000D01*
X171731698Y-75560327D01*
X171910327Y-75381699D01*
X172007000Y-75148310D01*
X172007000Y-74707750D01*
X171848250Y-74549000D01*
X170899000Y-74549000D01*
X170645000Y-74549000D01*
X170625000Y-74549000D01*
X170625000Y-74295000D01*
X170645000Y-74295000D01*
X170645000Y-73345750D01*
X170899000Y-73345750D01*
X170899000Y-74295000D01*
X171848250Y-74295000D01*
X172007000Y-74136250D01*
X172007000Y-73695690D01*
X171910327Y-73462301D01*
X171731698Y-73283673D01*
X171498309Y-73187000D01*
X171057750Y-73187000D01*
X170899000Y-73345750D01*
X170645000Y-73345750D01*
X170486250Y-73187000D01*
X170045691Y-73187000D01*
X169812302Y-73283673D01*
X169671064Y-73424910D01*
X169636090Y-73370559D01*
X169423890Y-73225569D01*
X169172000Y-73174560D01*
X167972000Y-73174560D01*
X167736683Y-73218838D01*
X167520559Y-73357910D01*
X167375569Y-73570110D01*
X167356961Y-73662000D01*
X163978742Y-73662000D01*
X163955162Y-73536683D01*
X163816090Y-73320559D01*
X163603890Y-73175569D01*
X163352000Y-73124560D01*
X162652000Y-73124560D01*
X162416683Y-73168838D01*
X162200559Y-73307910D01*
X162055569Y-73520110D01*
X162052919Y-73533197D01*
X161987000Y-73430756D01*
X161987000Y-72690580D01*
X163677787Y-70999792D01*
X163677790Y-70999790D01*
X163869633Y-70712675D01*
X163914225Y-70488499D01*
X163932095Y-70477000D01*
X165162662Y-70477000D01*
X165458298Y-70599759D01*
X166009285Y-70600240D01*
X166307549Y-70477000D01*
X167793614Y-70477000D01*
X167920110Y-70563431D01*
X168172000Y-70614440D01*
X169172000Y-70614440D01*
X169407317Y-70570162D01*
X169623441Y-70431090D01*
X169669969Y-70362994D01*
X169812302Y-70505327D01*
X170045691Y-70602000D01*
X170386250Y-70602000D01*
X170545000Y-70443250D01*
X170545000Y-69469000D01*
X170799000Y-69469000D01*
X170799000Y-70443250D01*
X170957750Y-70602000D01*
X171298309Y-70602000D01*
X171531698Y-70505327D01*
X171710327Y-70326699D01*
X171807000Y-70093310D01*
X171807000Y-69627750D01*
X171648250Y-69469000D01*
X170799000Y-69469000D01*
X170545000Y-69469000D01*
X170525000Y-69469000D01*
X170525000Y-69215000D01*
X170545000Y-69215000D01*
X170545000Y-68240750D01*
X170799000Y-68240750D01*
X170799000Y-69215000D01*
X171648250Y-69215000D01*
X171807000Y-69056250D01*
X171807000Y-68590690D01*
X171710327Y-68357301D01*
X171531698Y-68178673D01*
X171298309Y-68082000D01*
X170957750Y-68082000D01*
X170799000Y-68240750D01*
X170545000Y-68240750D01*
X170386250Y-68082000D01*
X170045691Y-68082000D01*
X169812302Y-68178673D01*
X169671064Y-68319910D01*
X169636090Y-68265559D01*
X169423890Y-68120569D01*
X169172000Y-68069560D01*
X168172000Y-68069560D01*
X167936683Y-68113838D01*
X167791905Y-68207000D01*
X166997000Y-68207000D01*
X166997000Y-66378844D01*
X167011492Y-66369518D01*
X167052301Y-66410327D01*
X167285690Y-66507000D01*
X167876250Y-66507000D01*
X168035000Y-66348250D01*
X168035000Y-64999000D01*
X168289000Y-64999000D01*
X168289000Y-66348250D01*
X168447750Y-66507000D01*
X169038310Y-66507000D01*
X169271699Y-66410327D01*
X169450327Y-66231698D01*
X169547000Y-65998309D01*
X169547000Y-65157750D01*
X169388250Y-64999000D01*
X168289000Y-64999000D01*
X168035000Y-64999000D01*
X168015000Y-64999000D01*
X168015000Y-64745000D01*
X168035000Y-64745000D01*
X168035000Y-63395750D01*
X168289000Y-63395750D01*
X168289000Y-64745000D01*
X169388250Y-64745000D01*
X169547000Y-64586250D01*
X169547000Y-63745691D01*
X169450327Y-63512302D01*
X169271699Y-63333673D01*
X169038310Y-63237000D01*
X168447750Y-63237000D01*
X168289000Y-63395750D01*
X168035000Y-63395750D01*
X167876250Y-63237000D01*
X167285690Y-63237000D01*
X167052301Y-63333673D01*
X167010340Y-63375634D01*
X166863890Y-63275569D01*
X166612000Y-63224560D01*
X165112000Y-63224560D01*
X164876683Y-63268838D01*
X164710523Y-63375759D01*
X164563890Y-63275569D01*
X164312000Y-63224560D01*
X162812000Y-63224560D01*
X162576683Y-63268838D01*
X162360559Y-63407910D01*
X162215569Y-63620110D01*
X162164560Y-63872000D01*
X162164560Y-64664308D01*
X160249434Y-66579434D01*
X160003397Y-66947654D01*
X159917000Y-67382000D01*
X159917000Y-68655569D01*
X159904560Y-68717000D01*
X159904560Y-68884308D01*
X157947434Y-70841434D01*
X157701397Y-71209654D01*
X157615000Y-71644000D01*
X157615000Y-82423000D01*
X139827000Y-82423000D01*
X139827000Y-59690000D01*
X142757907Y-59690000D01*
X142870946Y-60258285D01*
X143192853Y-60740054D01*
X143533553Y-60967702D01*
X143390642Y-61034817D01*
X143000355Y-61463076D01*
X142830524Y-61873110D01*
X142951845Y-62103000D01*
X144145000Y-62103000D01*
X144145000Y-62083000D01*
X144399000Y-62083000D01*
X144399000Y-62103000D01*
X144419000Y-62103000D01*
X144419000Y-62357000D01*
X144399000Y-62357000D01*
X144399000Y-62377000D01*
X144145000Y-62377000D01*
X144145000Y-62357000D01*
X142951845Y-62357000D01*
X142830524Y-62586890D01*
X143000355Y-62996924D01*
X143390642Y-63425183D01*
X143533553Y-63492298D01*
X143192853Y-63719946D01*
X142870946Y-64201715D01*
X142757907Y-64770000D01*
X142870946Y-65338285D01*
X143192853Y-65820054D01*
X143522026Y-66040000D01*
X143192853Y-66259946D01*
X142870946Y-66741715D01*
X142757907Y-67310000D01*
X142870946Y-67878285D01*
X143192853Y-68360054D01*
X143522026Y-68580000D01*
X143192853Y-68799946D01*
X142870946Y-69281715D01*
X142757907Y-69850000D01*
X142870946Y-70418285D01*
X143192853Y-70900054D01*
X143522026Y-71120000D01*
X143192853Y-71339946D01*
X142870946Y-71821715D01*
X142757907Y-72390000D01*
X142870946Y-72958285D01*
X143192853Y-73440054D01*
X143522026Y-73660000D01*
X143192853Y-73879946D01*
X142870946Y-74361715D01*
X142757907Y-74930000D01*
X142870946Y-75498285D01*
X143192853Y-75980054D01*
X143522026Y-76200000D01*
X143192853Y-76419946D01*
X142870946Y-76901715D01*
X142757907Y-77470000D01*
X142870946Y-78038285D01*
X143192853Y-78520054D01*
X143674622Y-78841961D01*
X144242907Y-78955000D01*
X144301093Y-78955000D01*
X144869378Y-78841961D01*
X145351147Y-78520054D01*
X145542000Y-78234422D01*
X145732853Y-78520054D01*
X146214622Y-78841961D01*
X146782907Y-78955000D01*
X146841093Y-78955000D01*
X147409378Y-78841961D01*
X147891147Y-78520054D01*
X148213054Y-78038285D01*
X148326093Y-77470000D01*
X148213054Y-76901715D01*
X147891147Y-76419946D01*
X147561974Y-76200000D01*
X147891147Y-75980054D01*
X148213054Y-75498285D01*
X148326093Y-74930000D01*
X148213054Y-74361715D01*
X147891147Y-73879946D01*
X147561974Y-73660000D01*
X147891147Y-73440054D01*
X148213054Y-72958285D01*
X148326093Y-72390000D01*
X148213054Y-71821715D01*
X147891147Y-71339946D01*
X147561974Y-71120000D01*
X147891147Y-70900054D01*
X148213054Y-70418285D01*
X148326093Y-69850000D01*
X148213054Y-69281715D01*
X147891147Y-68799946D01*
X147561974Y-68580000D01*
X147891147Y-68360054D01*
X148001432Y-68195000D01*
X149620420Y-68195000D01*
X150245000Y-68819579D01*
X150245000Y-69737421D01*
X148726210Y-71256210D01*
X148534367Y-71543325D01*
X148534367Y-71543326D01*
X148466999Y-71882000D01*
X148467000Y-71882005D01*
X148467000Y-79416613D01*
X148453855Y-79429735D01*
X148280697Y-79846744D01*
X148280303Y-80298275D01*
X148452733Y-80715586D01*
X148771735Y-81035145D01*
X149188744Y-81208303D01*
X149640275Y-81208697D01*
X150057586Y-81036267D01*
X150377145Y-80717265D01*
X150550303Y-80300256D01*
X150550697Y-79848725D01*
X150378267Y-79431414D01*
X150237000Y-79289900D01*
X150237000Y-72248580D01*
X151755787Y-70729792D01*
X151755790Y-70729790D01*
X151947633Y-70442675D01*
X151983253Y-70263603D01*
X152015001Y-70104000D01*
X152015000Y-70103995D01*
X152015000Y-68453005D01*
X152015001Y-68453000D01*
X151947633Y-68114325D01*
X151897568Y-68039397D01*
X151755790Y-67827210D01*
X151755787Y-67827208D01*
X150612790Y-66684210D01*
X150325675Y-66492367D01*
X150269484Y-66481190D01*
X149987000Y-66424999D01*
X149986995Y-66425000D01*
X148001432Y-66425000D01*
X147891147Y-66259946D01*
X147561974Y-66040000D01*
X147891147Y-65820054D01*
X148213054Y-65338285D01*
X148326093Y-64770000D01*
X148213054Y-64201715D01*
X147891147Y-63719946D01*
X147561974Y-63500000D01*
X147891147Y-63280054D01*
X148213054Y-62798285D01*
X148326093Y-62230000D01*
X148213054Y-61661715D01*
X147891147Y-61179946D01*
X147849548Y-61152150D01*
X147897317Y-61143162D01*
X148113441Y-61004090D01*
X148258431Y-60791890D01*
X148309440Y-60540000D01*
X148309440Y-58840000D01*
X148265162Y-58604683D01*
X148126090Y-58388559D01*
X147913890Y-58243569D01*
X147662000Y-58192560D01*
X145962000Y-58192560D01*
X145726683Y-58236838D01*
X145510559Y-58375910D01*
X145365569Y-58588110D01*
X145354159Y-58644454D01*
X145351147Y-58639946D01*
X144869378Y-58318039D01*
X144301093Y-58205000D01*
X144242907Y-58205000D01*
X143674622Y-58318039D01*
X143192853Y-58639946D01*
X142870946Y-59121715D01*
X142757907Y-59690000D01*
X139827000Y-59690000D01*
X139827000Y-57572000D01*
X163314560Y-57572000D01*
X163314560Y-59572000D01*
X163358838Y-59807317D01*
X163497910Y-60023441D01*
X163710110Y-60168431D01*
X163962000Y-60219440D01*
X167762000Y-60219440D01*
X167997317Y-60175162D01*
X168213441Y-60036090D01*
X168358431Y-59823890D01*
X168409440Y-59572000D01*
X168409440Y-57572000D01*
X168365162Y-57336683D01*
X168226090Y-57120559D01*
X168013890Y-56975569D01*
X167762000Y-56924560D01*
X163962000Y-56924560D01*
X163726683Y-56968838D01*
X163510559Y-57107910D01*
X163365569Y-57320110D01*
X163314560Y-57572000D01*
X139827000Y-57572000D01*
X139827000Y-55052619D01*
X174294613Y-55052619D01*
X174634155Y-55874372D01*
X175262321Y-56503636D01*
X176083481Y-56844611D01*
X176972619Y-56845387D01*
X177794372Y-56505845D01*
X178423636Y-55877679D01*
X178764611Y-55056519D01*
X178765387Y-54167381D01*
X178425845Y-53345628D01*
X177797679Y-52716364D01*
X176976519Y-52375389D01*
X176087381Y-52374613D01*
X175265628Y-52714155D01*
X174636364Y-53342321D01*
X174295389Y-54163481D01*
X174294613Y-55052619D01*
X139827000Y-55052619D01*
X139827000Y-52197000D01*
X180213000Y-52197000D01*
X180213000Y-82423000D01*
X180213000Y-82423000D01*
G37*
X180213000Y-82423000D02*
X159885000Y-82423000D01*
X159885000Y-72114132D01*
X161384692Y-70614440D01*
X161552000Y-70614440D01*
X161561830Y-70612590D01*
X160476210Y-71698210D01*
X160284367Y-71985325D01*
X160284367Y-71985326D01*
X160216999Y-72324000D01*
X160217000Y-72324005D01*
X160217000Y-73430203D01*
X160155569Y-73520110D01*
X160104560Y-73772000D01*
X160104560Y-75072000D01*
X160148838Y-75307317D01*
X160287910Y-75523441D01*
X160500110Y-75668431D01*
X160752000Y-75719440D01*
X161452000Y-75719440D01*
X161687317Y-75675162D01*
X161903441Y-75536090D01*
X162048431Y-75323890D01*
X162051081Y-75310803D01*
X162187910Y-75523441D01*
X162400110Y-75668431D01*
X162652000Y-75719440D01*
X163352000Y-75719440D01*
X163587317Y-75675162D01*
X163803441Y-75536090D01*
X163948431Y-75323890D01*
X163977164Y-75182000D01*
X167354666Y-75182000D01*
X167368838Y-75257317D01*
X167507910Y-75473441D01*
X167720110Y-75618431D01*
X167972000Y-75669440D01*
X169172000Y-75669440D01*
X169407317Y-75625162D01*
X169623441Y-75486090D01*
X169669969Y-75417994D01*
X169812302Y-75560327D01*
X170045691Y-75657000D01*
X170486250Y-75657000D01*
X170645000Y-75498250D01*
X170645000Y-74549000D01*
X170899000Y-74549000D01*
X170899000Y-75498250D01*
X171057750Y-75657000D01*
X171498309Y-75657000D01*
X171731698Y-75560327D01*
X171910327Y-75381699D01*
X172007000Y-75148310D01*
X172007000Y-74707750D01*
X171848250Y-74549000D01*
X170899000Y-74549000D01*
X170645000Y-74549000D01*
X170625000Y-74549000D01*
X170625000Y-74295000D01*
X170645000Y-74295000D01*
X170645000Y-73345750D01*
X170899000Y-73345750D01*
X170899000Y-74295000D01*
X171848250Y-74295000D01*
X172007000Y-74136250D01*
X172007000Y-73695690D01*
X171910327Y-73462301D01*
X171731698Y-73283673D01*
X171498309Y-73187000D01*
X171057750Y-73187000D01*
X170899000Y-73345750D01*
X170645000Y-73345750D01*
X170486250Y-73187000D01*
X170045691Y-73187000D01*
X169812302Y-73283673D01*
X169671064Y-73424910D01*
X169636090Y-73370559D01*
X169423890Y-73225569D01*
X169172000Y-73174560D01*
X167972000Y-73174560D01*
X167736683Y-73218838D01*
X167520559Y-73357910D01*
X167375569Y-73570110D01*
X167356961Y-73662000D01*
X163978742Y-73662000D01*
X163955162Y-73536683D01*
X163816090Y-73320559D01*
X163603890Y-73175569D01*
X163352000Y-73124560D01*
X162652000Y-73124560D01*
X162416683Y-73168838D01*
X162200559Y-73307910D01*
X162055569Y-73520110D01*
X162052919Y-73533197D01*
X161987000Y-73430756D01*
X161987000Y-72690580D01*
X163677787Y-70999792D01*
X163677790Y-70999790D01*
X163869633Y-70712675D01*
X163914225Y-70488499D01*
X163932095Y-70477000D01*
X165162662Y-70477000D01*
X165458298Y-70599759D01*
X166009285Y-70600240D01*
X166307549Y-70477000D01*
X167793614Y-70477000D01*
X167920110Y-70563431D01*
X168172000Y-70614440D01*
X169172000Y-70614440D01*
X169407317Y-70570162D01*
X169623441Y-70431090D01*
X169669969Y-70362994D01*
X169812302Y-70505327D01*
X170045691Y-70602000D01*
X170386250Y-70602000D01*
X170545000Y-70443250D01*
X170545000Y-69469000D01*
X170799000Y-69469000D01*
X170799000Y-70443250D01*
X170957750Y-70602000D01*
X171298309Y-70602000D01*
X171531698Y-70505327D01*
X171710327Y-70326699D01*
X171807000Y-70093310D01*
X171807000Y-69627750D01*
X171648250Y-69469000D01*
X170799000Y-69469000D01*
X170545000Y-69469000D01*
X170525000Y-69469000D01*
X170525000Y-69215000D01*
X170545000Y-69215000D01*
X170545000Y-68240750D01*
X170799000Y-68240750D01*
X170799000Y-69215000D01*
X171648250Y-69215000D01*
X171807000Y-69056250D01*
X171807000Y-68590690D01*
X171710327Y-68357301D01*
X171531698Y-68178673D01*
X171298309Y-68082000D01*
X170957750Y-68082000D01*
X170799000Y-68240750D01*
X170545000Y-68240750D01*
X170386250Y-68082000D01*
X170045691Y-68082000D01*
X169812302Y-68178673D01*
X169671064Y-68319910D01*
X169636090Y-68265559D01*
X169423890Y-68120569D01*
X169172000Y-68069560D01*
X168172000Y-68069560D01*
X167936683Y-68113838D01*
X167791905Y-68207000D01*
X166997000Y-68207000D01*
X166997000Y-66378844D01*
X167011492Y-66369518D01*
X167052301Y-66410327D01*
X167285690Y-66507000D01*
X167876250Y-66507000D01*
X168035000Y-66348250D01*
X168035000Y-64999000D01*
X168289000Y-64999000D01*
X168289000Y-66348250D01*
X168447750Y-66507000D01*
X169038310Y-66507000D01*
X169271699Y-66410327D01*
X169450327Y-66231698D01*
X169547000Y-65998309D01*
X169547000Y-65157750D01*
X169388250Y-64999000D01*
X168289000Y-64999000D01*
X168035000Y-64999000D01*
X168015000Y-64999000D01*
X168015000Y-64745000D01*
X168035000Y-64745000D01*
X168035000Y-63395750D01*
X168289000Y-63395750D01*
X168289000Y-64745000D01*
X169388250Y-64745000D01*
X169547000Y-64586250D01*
X169547000Y-63745691D01*
X169450327Y-63512302D01*
X169271699Y-63333673D01*
X169038310Y-63237000D01*
X168447750Y-63237000D01*
X168289000Y-63395750D01*
X168035000Y-63395750D01*
X167876250Y-63237000D01*
X167285690Y-63237000D01*
X167052301Y-63333673D01*
X167010340Y-63375634D01*
X166863890Y-63275569D01*
X166612000Y-63224560D01*
X165112000Y-63224560D01*
X164876683Y-63268838D01*
X164710523Y-63375759D01*
X164563890Y-63275569D01*
X164312000Y-63224560D01*
X162812000Y-63224560D01*
X162576683Y-63268838D01*
X162360559Y-63407910D01*
X162215569Y-63620110D01*
X162164560Y-63872000D01*
X162164560Y-64664308D01*
X160249434Y-66579434D01*
X160003397Y-66947654D01*
X159917000Y-67382000D01*
X159917000Y-68655569D01*
X159904560Y-68717000D01*
X159904560Y-68884308D01*
X157947434Y-70841434D01*
X157701397Y-71209654D01*
X157615000Y-71644000D01*
X157615000Y-82423000D01*
X139827000Y-82423000D01*
X139827000Y-59690000D01*
X142757907Y-59690000D01*
X142870946Y-60258285D01*
X143192853Y-60740054D01*
X143533553Y-60967702D01*
X143390642Y-61034817D01*
X143000355Y-61463076D01*
X142830524Y-61873110D01*
X142951845Y-62103000D01*
X144145000Y-62103000D01*
X144145000Y-62083000D01*
X144399000Y-62083000D01*
X144399000Y-62103000D01*
X144419000Y-62103000D01*
X144419000Y-62357000D01*
X144399000Y-62357000D01*
X144399000Y-62377000D01*
X144145000Y-62377000D01*
X144145000Y-62357000D01*
X142951845Y-62357000D01*
X142830524Y-62586890D01*
X143000355Y-62996924D01*
X143390642Y-63425183D01*
X143533553Y-63492298D01*
X143192853Y-63719946D01*
X142870946Y-64201715D01*
X142757907Y-64770000D01*
X142870946Y-65338285D01*
X143192853Y-65820054D01*
X143522026Y-66040000D01*
X143192853Y-66259946D01*
X142870946Y-66741715D01*
X142757907Y-67310000D01*
X142870946Y-67878285D01*
X143192853Y-68360054D01*
X143522026Y-68580000D01*
X143192853Y-68799946D01*
X142870946Y-69281715D01*
X142757907Y-69850000D01*
X142870946Y-70418285D01*
X143192853Y-70900054D01*
X143522026Y-71120000D01*
X143192853Y-71339946D01*
X142870946Y-71821715D01*
X142757907Y-72390000D01*
X142870946Y-72958285D01*
X143192853Y-73440054D01*
X143522026Y-73660000D01*
X143192853Y-73879946D01*
X142870946Y-74361715D01*
X142757907Y-74930000D01*
X142870946Y-75498285D01*
X143192853Y-75980054D01*
X143522026Y-76200000D01*
X143192853Y-76419946D01*
X142870946Y-76901715D01*
X142757907Y-77470000D01*
X142870946Y-78038285D01*
X143192853Y-78520054D01*
X143674622Y-78841961D01*
X144242907Y-78955000D01*
X144301093Y-78955000D01*
X144869378Y-78841961D01*
X145351147Y-78520054D01*
X145542000Y-78234422D01*
X145732853Y-78520054D01*
X146214622Y-78841961D01*
X146782907Y-78955000D01*
X146841093Y-78955000D01*
X147409378Y-78841961D01*
X147891147Y-78520054D01*
X148213054Y-78038285D01*
X148326093Y-77470000D01*
X148213054Y-76901715D01*
X147891147Y-76419946D01*
X147561974Y-76200000D01*
X147891147Y-75980054D01*
X148213054Y-75498285D01*
X148326093Y-74930000D01*
X148213054Y-74361715D01*
X147891147Y-73879946D01*
X147561974Y-73660000D01*
X147891147Y-73440054D01*
X148213054Y-72958285D01*
X148326093Y-72390000D01*
X148213054Y-71821715D01*
X147891147Y-71339946D01*
X147561974Y-71120000D01*
X147891147Y-70900054D01*
X148213054Y-70418285D01*
X148326093Y-69850000D01*
X148213054Y-69281715D01*
X147891147Y-68799946D01*
X147561974Y-68580000D01*
X147891147Y-68360054D01*
X148001432Y-68195000D01*
X149620420Y-68195000D01*
X150245000Y-68819579D01*
X150245000Y-69737421D01*
X148726210Y-71256210D01*
X148534367Y-71543325D01*
X148534367Y-71543326D01*
X148466999Y-71882000D01*
X148467000Y-71882005D01*
X148467000Y-79416613D01*
X148453855Y-79429735D01*
X148280697Y-79846744D01*
X148280303Y-80298275D01*
X148452733Y-80715586D01*
X148771735Y-81035145D01*
X149188744Y-81208303D01*
X149640275Y-81208697D01*
X150057586Y-81036267D01*
X150377145Y-80717265D01*
X150550303Y-80300256D01*
X150550697Y-79848725D01*
X150378267Y-79431414D01*
X150237000Y-79289900D01*
X150237000Y-72248580D01*
X151755787Y-70729792D01*
X151755790Y-70729790D01*
X151947633Y-70442675D01*
X151983253Y-70263603D01*
X152015001Y-70104000D01*
X152015000Y-70103995D01*
X152015000Y-68453005D01*
X152015001Y-68453000D01*
X151947633Y-68114325D01*
X151897568Y-68039397D01*
X151755790Y-67827210D01*
X151755787Y-67827208D01*
X150612790Y-66684210D01*
X150325675Y-66492367D01*
X150269484Y-66481190D01*
X149987000Y-66424999D01*
X149986995Y-66425000D01*
X148001432Y-66425000D01*
X147891147Y-66259946D01*
X147561974Y-66040000D01*
X147891147Y-65820054D01*
X148213054Y-65338285D01*
X148326093Y-64770000D01*
X148213054Y-64201715D01*
X147891147Y-63719946D01*
X147561974Y-63500000D01*
X147891147Y-63280054D01*
X148213054Y-62798285D01*
X148326093Y-62230000D01*
X148213054Y-61661715D01*
X147891147Y-61179946D01*
X147849548Y-61152150D01*
X147897317Y-61143162D01*
X148113441Y-61004090D01*
X148258431Y-60791890D01*
X148309440Y-60540000D01*
X148309440Y-58840000D01*
X148265162Y-58604683D01*
X148126090Y-58388559D01*
X147913890Y-58243569D01*
X147662000Y-58192560D01*
X145962000Y-58192560D01*
X145726683Y-58236838D01*
X145510559Y-58375910D01*
X145365569Y-58588110D01*
X145354159Y-58644454D01*
X145351147Y-58639946D01*
X144869378Y-58318039D01*
X144301093Y-58205000D01*
X144242907Y-58205000D01*
X143674622Y-58318039D01*
X143192853Y-58639946D01*
X142870946Y-59121715D01*
X142757907Y-59690000D01*
X139827000Y-59690000D01*
X139827000Y-57572000D01*
X163314560Y-57572000D01*
X163314560Y-59572000D01*
X163358838Y-59807317D01*
X163497910Y-60023441D01*
X163710110Y-60168431D01*
X163962000Y-60219440D01*
X167762000Y-60219440D01*
X167997317Y-60175162D01*
X168213441Y-60036090D01*
X168358431Y-59823890D01*
X168409440Y-59572000D01*
X168409440Y-57572000D01*
X168365162Y-57336683D01*
X168226090Y-57120559D01*
X168013890Y-56975569D01*
X167762000Y-56924560D01*
X163962000Y-56924560D01*
X163726683Y-56968838D01*
X163510559Y-57107910D01*
X163365569Y-57320110D01*
X163314560Y-57572000D01*
X139827000Y-57572000D01*
X139827000Y-55052619D01*
X174294613Y-55052619D01*
X174634155Y-55874372D01*
X175262321Y-56503636D01*
X176083481Y-56844611D01*
X176972619Y-56845387D01*
X177794372Y-56505845D01*
X178423636Y-55877679D01*
X178764611Y-55056519D01*
X178765387Y-54167381D01*
X178425845Y-53345628D01*
X177797679Y-52716364D01*
X176976519Y-52375389D01*
X176087381Y-52374613D01*
X175265628Y-52714155D01*
X174636364Y-53342321D01*
X174295389Y-54163481D01*
X174294613Y-55052619D01*
X139827000Y-55052619D01*
X139827000Y-52197000D01*
X180213000Y-52197000D01*
X180213000Y-82423000D01*
G36*
X155407434Y-103337434D02*
X155161397Y-103705654D01*
X155075000Y-104140000D01*
X155075000Y-107315000D01*
X155161397Y-107749346D01*
X155407434Y-108117566D01*
X156051834Y-108761966D01*
X156420054Y-109008003D01*
X156854400Y-109094400D01*
X158228669Y-109094400D01*
X158290100Y-109106840D01*
X159540100Y-109106840D01*
X159606213Y-109094400D01*
X162486960Y-109094400D01*
X162486960Y-109168600D01*
X162531238Y-109403917D01*
X162638159Y-109570077D01*
X162537969Y-109716710D01*
X162486960Y-109968600D01*
X162486960Y-111468600D01*
X162531238Y-111703917D01*
X162636882Y-111868092D01*
X162596073Y-111908901D01*
X162499400Y-112142290D01*
X162499400Y-112732850D01*
X162658150Y-112891600D01*
X164007400Y-112891600D01*
X164007400Y-112871600D01*
X164261400Y-112871600D01*
X164261400Y-112891600D01*
X165610650Y-112891600D01*
X165769400Y-112732850D01*
X165769400Y-112142290D01*
X165672727Y-111908901D01*
X165630766Y-111866940D01*
X165639881Y-111853600D01*
X168224598Y-111853600D01*
X166251699Y-113826499D01*
X166086952Y-114073061D01*
X166029100Y-114363900D01*
X166029100Y-116792858D01*
X165903783Y-116816438D01*
X165687659Y-116955510D01*
X165542669Y-117167710D01*
X165491660Y-117419600D01*
X165491660Y-118119600D01*
X165535938Y-118354917D01*
X165675010Y-118571041D01*
X165887210Y-118716031D01*
X165900297Y-118718681D01*
X165687659Y-118855510D01*
X165650701Y-118909600D01*
X164372296Y-118909600D01*
X164360062Y-118844583D01*
X164220990Y-118628459D01*
X164152894Y-118581931D01*
X164295227Y-118439598D01*
X164391900Y-118206209D01*
X164391900Y-117765650D01*
X164233150Y-117606900D01*
X163283900Y-117606900D01*
X163283900Y-117626900D01*
X163029900Y-117626900D01*
X163029900Y-117606900D01*
X162080650Y-117606900D01*
X161921900Y-117765650D01*
X161921900Y-118206209D01*
X162018573Y-118439598D01*
X162159810Y-118580836D01*
X162105459Y-118615810D01*
X161960469Y-118828010D01*
X161909460Y-119079900D01*
X161909460Y-120279900D01*
X161953738Y-120515217D01*
X162092810Y-120731341D01*
X162305010Y-120876331D01*
X162556900Y-120927340D01*
X163756900Y-120927340D01*
X163992217Y-120883062D01*
X164208341Y-120743990D01*
X164353331Y-120531790D01*
X164374025Y-120429600D01*
X165648343Y-120429600D01*
X165675010Y-120471041D01*
X165887210Y-120616031D01*
X166139100Y-120667040D01*
X167439100Y-120667040D01*
X167674417Y-120622762D01*
X167890541Y-120483690D01*
X168035531Y-120271490D01*
X168086540Y-120019600D01*
X168086540Y-119319600D01*
X168042262Y-119084283D01*
X167903190Y-118868159D01*
X167690990Y-118723169D01*
X167677903Y-118720519D01*
X167890541Y-118583690D01*
X168035531Y-118371490D01*
X168086540Y-118119600D01*
X168086540Y-117419600D01*
X168042262Y-117184283D01*
X167903190Y-116968159D01*
X167690990Y-116823169D01*
X167549100Y-116794436D01*
X167549100Y-114678702D01*
X169081671Y-113146131D01*
X169182510Y-113215031D01*
X169434400Y-113266040D01*
X171434400Y-113266040D01*
X171669717Y-113221762D01*
X171885841Y-113082690D01*
X172030831Y-112870490D01*
X172081840Y-112618600D01*
X172081840Y-108818600D01*
X172037562Y-108583283D01*
X171898490Y-108367159D01*
X171686290Y-108222169D01*
X171569400Y-108198498D01*
X171569400Y-106934400D01*
X171564705Y-106910797D01*
X171483004Y-106500055D01*
X171236967Y-106131834D01*
X170930193Y-105825060D01*
X170930240Y-105770715D01*
X170719831Y-105261485D01*
X170330564Y-104871539D01*
X169821702Y-104660241D01*
X169270715Y-104659760D01*
X168761485Y-104870169D01*
X168556898Y-105074400D01*
X160046944Y-105074400D01*
X160004190Y-105007959D01*
X159791990Y-104862969D01*
X159540100Y-104811960D01*
X158290100Y-104811960D01*
X158054783Y-104856238D01*
X157838659Y-104995310D01*
X157693669Y-105207510D01*
X157642660Y-105459400D01*
X157642660Y-106459400D01*
X157686938Y-106694717D01*
X157770387Y-106824400D01*
X157345000Y-106824400D01*
X157345000Y-104610132D01*
X159552566Y-102402567D01*
X159798603Y-102034346D01*
X159834476Y-101854000D01*
X176530000Y-101854000D01*
X176530000Y-123190000D01*
X153924000Y-123190000D01*
X153924000Y-117699775D01*
X156979803Y-117699775D01*
X157152233Y-118117086D01*
X157471235Y-118436645D01*
X157888244Y-118609803D01*
X158339775Y-118610197D01*
X158757086Y-118437767D01*
X159076645Y-118118765D01*
X159249803Y-117701756D01*
X159249899Y-117591680D01*
X159490087Y-117351492D01*
X159490090Y-117351490D01*
X159681933Y-117064375D01*
X159703588Y-116955510D01*
X159743753Y-116753591D01*
X161921900Y-116753591D01*
X161921900Y-117194150D01*
X162080650Y-117352900D01*
X163029900Y-117352900D01*
X163029900Y-116403650D01*
X163283900Y-116403650D01*
X163283900Y-117352900D01*
X164233150Y-117352900D01*
X164391900Y-117194150D01*
X164391900Y-116753591D01*
X164295227Y-116520202D01*
X164116599Y-116341573D01*
X163883210Y-116244900D01*
X163442650Y-116244900D01*
X163283900Y-116403650D01*
X163029900Y-116403650D01*
X162871150Y-116244900D01*
X162430590Y-116244900D01*
X162197201Y-116341573D01*
X162018573Y-116520202D01*
X161921900Y-116753591D01*
X159743753Y-116753591D01*
X159749301Y-116725700D01*
X159749300Y-116725695D01*
X159749300Y-116641279D01*
X159940741Y-116518090D01*
X160085731Y-116305890D01*
X160136740Y-116054000D01*
X160136740Y-115054000D01*
X160092462Y-114818683D01*
X159953390Y-114602559D01*
X159885294Y-114556031D01*
X160027627Y-114413698D01*
X160124300Y-114180309D01*
X160124300Y-113839750D01*
X159965550Y-113681000D01*
X158991300Y-113681000D01*
X158991300Y-113701000D01*
X158737300Y-113701000D01*
X158737300Y-113681000D01*
X157763050Y-113681000D01*
X157604300Y-113839750D01*
X157604300Y-114180309D01*
X157700973Y-114413698D01*
X157842210Y-114554936D01*
X157787859Y-114589910D01*
X157642869Y-114802110D01*
X157591860Y-115054000D01*
X157591860Y-116054000D01*
X157636138Y-116289317D01*
X157715169Y-116412135D01*
X157472914Y-116512233D01*
X157153355Y-116831235D01*
X156980197Y-117248244D01*
X156979803Y-117699775D01*
X153924000Y-117699775D01*
X153924000Y-112927691D01*
X157604300Y-112927691D01*
X157604300Y-113268250D01*
X157763050Y-113427000D01*
X158737300Y-113427000D01*
X158737300Y-112577750D01*
X158991300Y-112577750D01*
X158991300Y-113427000D01*
X159965550Y-113427000D01*
X160088200Y-113304350D01*
X162499400Y-113304350D01*
X162499400Y-113894910D01*
X162596073Y-114128299D01*
X162774702Y-114306927D01*
X163008091Y-114403600D01*
X163848650Y-114403600D01*
X164007400Y-114244850D01*
X164007400Y-113145600D01*
X164261400Y-113145600D01*
X164261400Y-114244850D01*
X164420150Y-114403600D01*
X165260709Y-114403600D01*
X165494098Y-114306927D01*
X165672727Y-114128299D01*
X165769400Y-113894910D01*
X165769400Y-113304350D01*
X165610650Y-113145600D01*
X164261400Y-113145600D01*
X164007400Y-113145600D01*
X162658150Y-113145600D01*
X162499400Y-113304350D01*
X160088200Y-113304350D01*
X160124300Y-113268250D01*
X160124300Y-112927691D01*
X160027627Y-112694302D01*
X159848999Y-112515673D01*
X159615610Y-112419000D01*
X159150050Y-112419000D01*
X158991300Y-112577750D01*
X158737300Y-112577750D01*
X158578550Y-112419000D01*
X158112990Y-112419000D01*
X157879601Y-112515673D01*
X157700973Y-112694302D01*
X157604300Y-112927691D01*
X153924000Y-112927691D01*
X153924000Y-101854000D01*
X156890867Y-101854000D01*
X155407434Y-103337434D01*
X155407434Y-103337434D01*
G37*
X155407434Y-103337434D02*
X155161397Y-103705654D01*
X155075000Y-104140000D01*
X155075000Y-107315000D01*
X155161397Y-107749346D01*
X155407434Y-108117566D01*
X156051834Y-108761966D01*
X156420054Y-109008003D01*
X156854400Y-109094400D01*
X158228669Y-109094400D01*
X158290100Y-109106840D01*
X159540100Y-109106840D01*
X159606213Y-109094400D01*
X162486960Y-109094400D01*
X162486960Y-109168600D01*
X162531238Y-109403917D01*
X162638159Y-109570077D01*
X162537969Y-109716710D01*
X162486960Y-109968600D01*
X162486960Y-111468600D01*
X162531238Y-111703917D01*
X162636882Y-111868092D01*
X162596073Y-111908901D01*
X162499400Y-112142290D01*
X162499400Y-112732850D01*
X162658150Y-112891600D01*
X164007400Y-112891600D01*
X164007400Y-112871600D01*
X164261400Y-112871600D01*
X164261400Y-112891600D01*
X165610650Y-112891600D01*
X165769400Y-112732850D01*
X165769400Y-112142290D01*
X165672727Y-111908901D01*
X165630766Y-111866940D01*
X165639881Y-111853600D01*
X168224598Y-111853600D01*
X166251699Y-113826499D01*
X166086952Y-114073061D01*
X166029100Y-114363900D01*
X166029100Y-116792858D01*
X165903783Y-116816438D01*
X165687659Y-116955510D01*
X165542669Y-117167710D01*
X165491660Y-117419600D01*
X165491660Y-118119600D01*
X165535938Y-118354917D01*
X165675010Y-118571041D01*
X165887210Y-118716031D01*
X165900297Y-118718681D01*
X165687659Y-118855510D01*
X165650701Y-118909600D01*
X164372296Y-118909600D01*
X164360062Y-118844583D01*
X164220990Y-118628459D01*
X164152894Y-118581931D01*
X164295227Y-118439598D01*
X164391900Y-118206209D01*
X164391900Y-117765650D01*
X164233150Y-117606900D01*
X163283900Y-117606900D01*
X163283900Y-117626900D01*
X163029900Y-117626900D01*
X163029900Y-117606900D01*
X162080650Y-117606900D01*
X161921900Y-117765650D01*
X161921900Y-118206209D01*
X162018573Y-118439598D01*
X162159810Y-118580836D01*
X162105459Y-118615810D01*
X161960469Y-118828010D01*
X161909460Y-119079900D01*
X161909460Y-120279900D01*
X161953738Y-120515217D01*
X162092810Y-120731341D01*
X162305010Y-120876331D01*
X162556900Y-120927340D01*
X163756900Y-120927340D01*
X163992217Y-120883062D01*
X164208341Y-120743990D01*
X164353331Y-120531790D01*
X164374025Y-120429600D01*
X165648343Y-120429600D01*
X165675010Y-120471041D01*
X165887210Y-120616031D01*
X166139100Y-120667040D01*
X167439100Y-120667040D01*
X167674417Y-120622762D01*
X167890541Y-120483690D01*
X168035531Y-120271490D01*
X168086540Y-120019600D01*
X168086540Y-119319600D01*
X168042262Y-119084283D01*
X167903190Y-118868159D01*
X167690990Y-118723169D01*
X167677903Y-118720519D01*
X167890541Y-118583690D01*
X168035531Y-118371490D01*
X168086540Y-118119600D01*
X168086540Y-117419600D01*
X168042262Y-117184283D01*
X167903190Y-116968159D01*
X167690990Y-116823169D01*
X167549100Y-116794436D01*
X167549100Y-114678702D01*
X169081671Y-113146131D01*
X169182510Y-113215031D01*
X169434400Y-113266040D01*
X171434400Y-113266040D01*
X171669717Y-113221762D01*
X171885841Y-113082690D01*
X172030831Y-112870490D01*
X172081840Y-112618600D01*
X172081840Y-108818600D01*
X172037562Y-108583283D01*
X171898490Y-108367159D01*
X171686290Y-108222169D01*
X171569400Y-108198498D01*
X171569400Y-106934400D01*
X171564705Y-106910797D01*
X171483004Y-106500055D01*
X171236967Y-106131834D01*
X170930193Y-105825060D01*
X170930240Y-105770715D01*
X170719831Y-105261485D01*
X170330564Y-104871539D01*
X169821702Y-104660241D01*
X169270715Y-104659760D01*
X168761485Y-104870169D01*
X168556898Y-105074400D01*
X160046944Y-105074400D01*
X160004190Y-105007959D01*
X159791990Y-104862969D01*
X159540100Y-104811960D01*
X158290100Y-104811960D01*
X158054783Y-104856238D01*
X157838659Y-104995310D01*
X157693669Y-105207510D01*
X157642660Y-105459400D01*
X157642660Y-106459400D01*
X157686938Y-106694717D01*
X157770387Y-106824400D01*
X157345000Y-106824400D01*
X157345000Y-104610132D01*
X159552566Y-102402567D01*
X159798603Y-102034346D01*
X159834476Y-101854000D01*
X176530000Y-101854000D01*
X176530000Y-123190000D01*
X153924000Y-123190000D01*
X153924000Y-117699775D01*
X156979803Y-117699775D01*
X157152233Y-118117086D01*
X157471235Y-118436645D01*
X157888244Y-118609803D01*
X158339775Y-118610197D01*
X158757086Y-118437767D01*
X159076645Y-118118765D01*
X159249803Y-117701756D01*
X159249899Y-117591680D01*
X159490087Y-117351492D01*
X159490090Y-117351490D01*
X159681933Y-117064375D01*
X159703588Y-116955510D01*
X159743753Y-116753591D01*
X161921900Y-116753591D01*
X161921900Y-117194150D01*
X162080650Y-117352900D01*
X163029900Y-117352900D01*
X163029900Y-116403650D01*
X163283900Y-116403650D01*
X163283900Y-117352900D01*
X164233150Y-117352900D01*
X164391900Y-117194150D01*
X164391900Y-116753591D01*
X164295227Y-116520202D01*
X164116599Y-116341573D01*
X163883210Y-116244900D01*
X163442650Y-116244900D01*
X163283900Y-116403650D01*
X163029900Y-116403650D01*
X162871150Y-116244900D01*
X162430590Y-116244900D01*
X162197201Y-116341573D01*
X162018573Y-116520202D01*
X161921900Y-116753591D01*
X159743753Y-116753591D01*
X159749301Y-116725700D01*
X159749300Y-116725695D01*
X159749300Y-116641279D01*
X159940741Y-116518090D01*
X160085731Y-116305890D01*
X160136740Y-116054000D01*
X160136740Y-115054000D01*
X160092462Y-114818683D01*
X159953390Y-114602559D01*
X159885294Y-114556031D01*
X160027627Y-114413698D01*
X160124300Y-114180309D01*
X160124300Y-113839750D01*
X159965550Y-113681000D01*
X158991300Y-113681000D01*
X158991300Y-113701000D01*
X158737300Y-113701000D01*
X158737300Y-113681000D01*
X157763050Y-113681000D01*
X157604300Y-113839750D01*
X157604300Y-114180309D01*
X157700973Y-114413698D01*
X157842210Y-114554936D01*
X157787859Y-114589910D01*
X157642869Y-114802110D01*
X157591860Y-115054000D01*
X157591860Y-116054000D01*
X157636138Y-116289317D01*
X157715169Y-116412135D01*
X157472914Y-116512233D01*
X157153355Y-116831235D01*
X156980197Y-117248244D01*
X156979803Y-117699775D01*
X153924000Y-117699775D01*
X153924000Y-112927691D01*
X157604300Y-112927691D01*
X157604300Y-113268250D01*
X157763050Y-113427000D01*
X158737300Y-113427000D01*
X158737300Y-112577750D01*
X158991300Y-112577750D01*
X158991300Y-113427000D01*
X159965550Y-113427000D01*
X160088200Y-113304350D01*
X162499400Y-113304350D01*
X162499400Y-113894910D01*
X162596073Y-114128299D01*
X162774702Y-114306927D01*
X163008091Y-114403600D01*
X163848650Y-114403600D01*
X164007400Y-114244850D01*
X164007400Y-113145600D01*
X164261400Y-113145600D01*
X164261400Y-114244850D01*
X164420150Y-114403600D01*
X165260709Y-114403600D01*
X165494098Y-114306927D01*
X165672727Y-114128299D01*
X165769400Y-113894910D01*
X165769400Y-113304350D01*
X165610650Y-113145600D01*
X164261400Y-113145600D01*
X164007400Y-113145600D01*
X162658150Y-113145600D01*
X162499400Y-113304350D01*
X160088200Y-113304350D01*
X160124300Y-113268250D01*
X160124300Y-112927691D01*
X160027627Y-112694302D01*
X159848999Y-112515673D01*
X159615610Y-112419000D01*
X159150050Y-112419000D01*
X158991300Y-112577750D01*
X158737300Y-112577750D01*
X158578550Y-112419000D01*
X158112990Y-112419000D01*
X157879601Y-112515673D01*
X157700973Y-112694302D01*
X157604300Y-112927691D01*
X153924000Y-112927691D01*
X153924000Y-101854000D01*
X156890867Y-101854000D01*
X155407434Y-103337434D01*
G36*
X135763000Y-88773000D02*
X67437000Y-88773000D01*
X67437000Y-80518000D01*
X104711500Y-80518000D01*
X104727111Y-80596483D01*
X104726860Y-80676506D01*
X104758225Y-80752906D01*
X104774337Y-80833905D01*
X104818795Y-80900441D01*
X104849186Y-80974468D01*
X104907401Y-81033049D01*
X104953283Y-81101717D01*
X105019819Y-81146175D01*
X105076225Y-81202936D01*
X105152426Y-81234780D01*
X105221095Y-81280663D01*
X105299579Y-81296274D01*
X105373413Y-81327129D01*
X105456000Y-81327388D01*
X105537000Y-81343500D01*
X114935000Y-81343500D01*
X115016000Y-81327388D01*
X115098587Y-81327129D01*
X115172419Y-81296275D01*
X115250905Y-81280663D01*
X115319577Y-81234778D01*
X115395775Y-81202935D01*
X115452178Y-81146177D01*
X115518717Y-81101717D01*
X115564602Y-81033046D01*
X115622814Y-80974467D01*
X115653204Y-80900442D01*
X115697663Y-80833905D01*
X115702647Y-80808846D01*
X129266474Y-80808846D01*
X129273484Y-81233925D01*
X129273113Y-81659119D01*
X129280803Y-81677730D01*
X129281135Y-81697863D01*
X129593140Y-82451110D01*
X129602345Y-82455920D01*
X129612655Y-82480872D01*
X130240821Y-83110136D01*
X130268557Y-83121653D01*
X130273890Y-83131860D01*
X130669297Y-83288054D01*
X131061981Y-83451111D01*
X131082119Y-83451129D01*
X131100846Y-83458526D01*
X131525925Y-83451516D01*
X131951119Y-83451887D01*
X131969730Y-83444197D01*
X131989863Y-83443865D01*
X132743110Y-83131860D01*
X132747920Y-83122655D01*
X132772872Y-83112345D01*
X133402136Y-82484179D01*
X133413653Y-82456443D01*
X133423860Y-82451110D01*
X133580054Y-82055703D01*
X133743111Y-81663019D01*
X133743129Y-81642881D01*
X133750526Y-81624154D01*
X133743516Y-81199075D01*
X133743887Y-80773881D01*
X133736197Y-80755270D01*
X133735865Y-80735137D01*
X133423860Y-79981890D01*
X133414655Y-79977080D01*
X133404345Y-79952128D01*
X132776179Y-79322864D01*
X132748443Y-79311347D01*
X132743110Y-79301140D01*
X132347703Y-79144946D01*
X131955019Y-78981889D01*
X131934881Y-78981871D01*
X131916154Y-78974474D01*
X131491075Y-78981484D01*
X131065881Y-78981113D01*
X131047270Y-78988803D01*
X131027137Y-78989135D01*
X130273890Y-79301140D01*
X130269080Y-79310345D01*
X130244128Y-79320655D01*
X129614864Y-79948821D01*
X129603347Y-79976557D01*
X129593140Y-79981890D01*
X129436946Y-80377297D01*
X129273889Y-80769981D01*
X129273871Y-80790119D01*
X129266474Y-80808846D01*
X115702647Y-80808846D01*
X115713775Y-80752904D01*
X115745140Y-80676505D01*
X115744889Y-80596483D01*
X115760500Y-80518000D01*
X115744388Y-80437000D01*
X115744129Y-80354412D01*
X115713274Y-80280579D01*
X115697663Y-80202095D01*
X115651778Y-80133424D01*
X115619935Y-80057225D01*
X110920936Y-73072225D01*
X110808424Y-72960417D01*
X110696775Y-72848065D01*
X110694342Y-72847048D01*
X110692468Y-72845186D01*
X110545745Y-72784950D01*
X110399587Y-72723871D01*
X110396948Y-72723863D01*
X110394506Y-72722860D01*
X110236000Y-72723358D01*
X110077494Y-72722860D01*
X110075052Y-72723863D01*
X110072413Y-72723871D01*
X109926188Y-72784978D01*
X109779532Y-72845186D01*
X109777660Y-72847047D01*
X109775225Y-72848064D01*
X109663496Y-72960496D01*
X109551064Y-73072225D01*
X104852064Y-80057225D01*
X104820220Y-80133426D01*
X104774337Y-80202095D01*
X104758726Y-80280579D01*
X104727871Y-80354413D01*
X104727612Y-80437000D01*
X104711500Y-80518000D01*
X67437000Y-80518000D01*
X67437000Y-68172346D01*
X91991974Y-68172346D01*
X91998984Y-68597425D01*
X91998613Y-69022619D01*
X92006303Y-69041230D01*
X92006635Y-69061363D01*
X92318640Y-69814610D01*
X92327845Y-69819420D01*
X92338155Y-69844372D01*
X92966321Y-70473636D01*
X92994057Y-70485153D01*
X92999390Y-70495360D01*
X93394797Y-70651554D01*
X93787481Y-70814611D01*
X93807619Y-70814629D01*
X93826346Y-70822026D01*
X94251425Y-70815016D01*
X94676619Y-70815387D01*
X94695230Y-70807697D01*
X94715363Y-70807365D01*
X95468610Y-70495360D01*
X95473420Y-70486155D01*
X95498372Y-70475845D01*
X96127636Y-69847679D01*
X96139153Y-69819943D01*
X96149360Y-69814610D01*
X96305554Y-69419203D01*
X96468611Y-69026519D01*
X96468629Y-69006381D01*
X96476026Y-68987654D01*
X96469016Y-68562575D01*
X96469387Y-68137381D01*
X96461697Y-68118770D01*
X96461365Y-68098637D01*
X96149360Y-67345390D01*
X96140155Y-67340580D01*
X96129845Y-67315628D01*
X95501679Y-66686364D01*
X95473943Y-66674847D01*
X95468610Y-66664640D01*
X95073203Y-66508446D01*
X94680519Y-66345389D01*
X94660381Y-66345371D01*
X94641654Y-66337974D01*
X94216575Y-66344984D01*
X93791381Y-66344613D01*
X93772770Y-66352303D01*
X93752637Y-66352635D01*
X92999390Y-66664640D01*
X92994580Y-66673845D01*
X92969628Y-66684155D01*
X92340364Y-67312321D01*
X92328847Y-67340057D01*
X92318640Y-67345390D01*
X92162446Y-67740797D01*
X91999389Y-68133481D01*
X91999371Y-68153619D01*
X91991974Y-68172346D01*
X67437000Y-68172346D01*
X67437000Y-56373448D01*
X67933636Y-55877679D01*
X67945153Y-55849943D01*
X67955360Y-55844610D01*
X68111554Y-55449203D01*
X68128311Y-55408846D01*
X129266474Y-55408846D01*
X129273484Y-55833925D01*
X129273113Y-56259119D01*
X129280803Y-56277730D01*
X129281135Y-56297863D01*
X129593140Y-57051110D01*
X129602345Y-57055920D01*
X129612655Y-57080872D01*
X130240821Y-57710136D01*
X130268557Y-57721653D01*
X130273890Y-57731860D01*
X130669297Y-57888054D01*
X131061981Y-58051111D01*
X131082119Y-58051129D01*
X131100846Y-58058526D01*
X131525925Y-58051516D01*
X131951119Y-58051887D01*
X131969730Y-58044197D01*
X131989863Y-58043865D01*
X132743110Y-57731860D01*
X132747920Y-57722655D01*
X132772872Y-57712345D01*
X133402136Y-57084179D01*
X133413653Y-57056443D01*
X133423860Y-57051110D01*
X133580054Y-56655703D01*
X133743111Y-56263019D01*
X133743129Y-56242881D01*
X133750526Y-56224154D01*
X133743516Y-55799075D01*
X133743887Y-55373881D01*
X133736197Y-55355270D01*
X133735865Y-55335137D01*
X133423860Y-54581890D01*
X133414655Y-54577080D01*
X133404345Y-54552128D01*
X132776179Y-53922864D01*
X132748443Y-53911347D01*
X132743110Y-53901140D01*
X132347703Y-53744946D01*
X131955019Y-53581889D01*
X131934881Y-53581871D01*
X131916154Y-53574474D01*
X131491075Y-53581484D01*
X131065881Y-53581113D01*
X131047270Y-53588803D01*
X131027137Y-53589135D01*
X130273890Y-53901140D01*
X130269080Y-53910345D01*
X130244128Y-53920655D01*
X129614864Y-54548821D01*
X129603347Y-54576557D01*
X129593140Y-54581890D01*
X129436946Y-54977297D01*
X129273889Y-55369981D01*
X129273871Y-55390119D01*
X129266474Y-55408846D01*
X68128311Y-55408846D01*
X68274611Y-55056519D01*
X68274629Y-55036381D01*
X68282026Y-55017654D01*
X68275016Y-54592575D01*
X68275387Y-54167381D01*
X68267697Y-54148770D01*
X68267365Y-54128637D01*
X67955360Y-53375390D01*
X67946155Y-53370580D01*
X67935845Y-53345628D01*
X67437000Y-52845911D01*
X67437000Y-52197000D01*
X135763000Y-52197000D01*
X135763000Y-88773000D01*
X135763000Y-88773000D01*
G37*
X135763000Y-88773000D02*
X67437000Y-88773000D01*
X67437000Y-80518000D01*
X104711500Y-80518000D01*
X104727111Y-80596483D01*
X104726860Y-80676506D01*
X104758225Y-80752906D01*
X104774337Y-80833905D01*
X104818795Y-80900441D01*
X104849186Y-80974468D01*
X104907401Y-81033049D01*
X104953283Y-81101717D01*
X105019819Y-81146175D01*
X105076225Y-81202936D01*
X105152426Y-81234780D01*
X105221095Y-81280663D01*
X105299579Y-81296274D01*
X105373413Y-81327129D01*
X105456000Y-81327388D01*
X105537000Y-81343500D01*
X114935000Y-81343500D01*
X115016000Y-81327388D01*
X115098587Y-81327129D01*
X115172419Y-81296275D01*
X115250905Y-81280663D01*
X115319577Y-81234778D01*
X115395775Y-81202935D01*
X115452178Y-81146177D01*
X115518717Y-81101717D01*
X115564602Y-81033046D01*
X115622814Y-80974467D01*
X115653204Y-80900442D01*
X115697663Y-80833905D01*
X115702647Y-80808846D01*
X129266474Y-80808846D01*
X129273484Y-81233925D01*
X129273113Y-81659119D01*
X129280803Y-81677730D01*
X129281135Y-81697863D01*
X129593140Y-82451110D01*
X129602345Y-82455920D01*
X129612655Y-82480872D01*
X130240821Y-83110136D01*
X130268557Y-83121653D01*
X130273890Y-83131860D01*
X130669297Y-83288054D01*
X131061981Y-83451111D01*
X131082119Y-83451129D01*
X131100846Y-83458526D01*
X131525925Y-83451516D01*
X131951119Y-83451887D01*
X131969730Y-83444197D01*
X131989863Y-83443865D01*
X132743110Y-83131860D01*
X132747920Y-83122655D01*
X132772872Y-83112345D01*
X133402136Y-82484179D01*
X133413653Y-82456443D01*
X133423860Y-82451110D01*
X133580054Y-82055703D01*
X133743111Y-81663019D01*
X133743129Y-81642881D01*
X133750526Y-81624154D01*
X133743516Y-81199075D01*
X133743887Y-80773881D01*
X133736197Y-80755270D01*
X133735865Y-80735137D01*
X133423860Y-79981890D01*
X133414655Y-79977080D01*
X133404345Y-79952128D01*
X132776179Y-79322864D01*
X132748443Y-79311347D01*
X132743110Y-79301140D01*
X132347703Y-79144946D01*
X131955019Y-78981889D01*
X131934881Y-78981871D01*
X131916154Y-78974474D01*
X131491075Y-78981484D01*
X131065881Y-78981113D01*
X131047270Y-78988803D01*
X131027137Y-78989135D01*
X130273890Y-79301140D01*
X130269080Y-79310345D01*
X130244128Y-79320655D01*
X129614864Y-79948821D01*
X129603347Y-79976557D01*
X129593140Y-79981890D01*
X129436946Y-80377297D01*
X129273889Y-80769981D01*
X129273871Y-80790119D01*
X129266474Y-80808846D01*
X115702647Y-80808846D01*
X115713775Y-80752904D01*
X115745140Y-80676505D01*
X115744889Y-80596483D01*
X115760500Y-80518000D01*
X115744388Y-80437000D01*
X115744129Y-80354412D01*
X115713274Y-80280579D01*
X115697663Y-80202095D01*
X115651778Y-80133424D01*
X115619935Y-80057225D01*
X110920936Y-73072225D01*
X110808424Y-72960417D01*
X110696775Y-72848065D01*
X110694342Y-72847048D01*
X110692468Y-72845186D01*
X110545745Y-72784950D01*
X110399587Y-72723871D01*
X110396948Y-72723863D01*
X110394506Y-72722860D01*
X110236000Y-72723358D01*
X110077494Y-72722860D01*
X110075052Y-72723863D01*
X110072413Y-72723871D01*
X109926188Y-72784978D01*
X109779532Y-72845186D01*
X109777660Y-72847047D01*
X109775225Y-72848064D01*
X109663496Y-72960496D01*
X109551064Y-73072225D01*
X104852064Y-80057225D01*
X104820220Y-80133426D01*
X104774337Y-80202095D01*
X104758726Y-80280579D01*
X104727871Y-80354413D01*
X104727612Y-80437000D01*
X104711500Y-80518000D01*
X67437000Y-80518000D01*
X67437000Y-68172346D01*
X91991974Y-68172346D01*
X91998984Y-68597425D01*
X91998613Y-69022619D01*
X92006303Y-69041230D01*
X92006635Y-69061363D01*
X92318640Y-69814610D01*
X92327845Y-69819420D01*
X92338155Y-69844372D01*
X92966321Y-70473636D01*
X92994057Y-70485153D01*
X92999390Y-70495360D01*
X93394797Y-70651554D01*
X93787481Y-70814611D01*
X93807619Y-70814629D01*
X93826346Y-70822026D01*
X94251425Y-70815016D01*
X94676619Y-70815387D01*
X94695230Y-70807697D01*
X94715363Y-70807365D01*
X95468610Y-70495360D01*
X95473420Y-70486155D01*
X95498372Y-70475845D01*
X96127636Y-69847679D01*
X96139153Y-69819943D01*
X96149360Y-69814610D01*
X96305554Y-69419203D01*
X96468611Y-69026519D01*
X96468629Y-69006381D01*
X96476026Y-68987654D01*
X96469016Y-68562575D01*
X96469387Y-68137381D01*
X96461697Y-68118770D01*
X96461365Y-68098637D01*
X96149360Y-67345390D01*
X96140155Y-67340580D01*
X96129845Y-67315628D01*
X95501679Y-66686364D01*
X95473943Y-66674847D01*
X95468610Y-66664640D01*
X95073203Y-66508446D01*
X94680519Y-66345389D01*
X94660381Y-66345371D01*
X94641654Y-66337974D01*
X94216575Y-66344984D01*
X93791381Y-66344613D01*
X93772770Y-66352303D01*
X93752637Y-66352635D01*
X92999390Y-66664640D01*
X92994580Y-66673845D01*
X92969628Y-66684155D01*
X92340364Y-67312321D01*
X92328847Y-67340057D01*
X92318640Y-67345390D01*
X92162446Y-67740797D01*
X91999389Y-68133481D01*
X91999371Y-68153619D01*
X91991974Y-68172346D01*
X67437000Y-68172346D01*
X67437000Y-56373448D01*
X67933636Y-55877679D01*
X67945153Y-55849943D01*
X67955360Y-55844610D01*
X68111554Y-55449203D01*
X68128311Y-55408846D01*
X129266474Y-55408846D01*
X129273484Y-55833925D01*
X129273113Y-56259119D01*
X129280803Y-56277730D01*
X129281135Y-56297863D01*
X129593140Y-57051110D01*
X129602345Y-57055920D01*
X129612655Y-57080872D01*
X130240821Y-57710136D01*
X130268557Y-57721653D01*
X130273890Y-57731860D01*
X130669297Y-57888054D01*
X131061981Y-58051111D01*
X131082119Y-58051129D01*
X131100846Y-58058526D01*
X131525925Y-58051516D01*
X131951119Y-58051887D01*
X131969730Y-58044197D01*
X131989863Y-58043865D01*
X132743110Y-57731860D01*
X132747920Y-57722655D01*
X132772872Y-57712345D01*
X133402136Y-57084179D01*
X133413653Y-57056443D01*
X133423860Y-57051110D01*
X133580054Y-56655703D01*
X133743111Y-56263019D01*
X133743129Y-56242881D01*
X133750526Y-56224154D01*
X133743516Y-55799075D01*
X133743887Y-55373881D01*
X133736197Y-55355270D01*
X133735865Y-55335137D01*
X133423860Y-54581890D01*
X133414655Y-54577080D01*
X133404345Y-54552128D01*
X132776179Y-53922864D01*
X132748443Y-53911347D01*
X132743110Y-53901140D01*
X132347703Y-53744946D01*
X131955019Y-53581889D01*
X131934881Y-53581871D01*
X131916154Y-53574474D01*
X131491075Y-53581484D01*
X131065881Y-53581113D01*
X131047270Y-53588803D01*
X131027137Y-53589135D01*
X130273890Y-53901140D01*
X130269080Y-53910345D01*
X130244128Y-53920655D01*
X129614864Y-54548821D01*
X129603347Y-54576557D01*
X129593140Y-54581890D01*
X129436946Y-54977297D01*
X129273889Y-55369981D01*
X129273871Y-55390119D01*
X129266474Y-55408846D01*
X68128311Y-55408846D01*
X68274611Y-55056519D01*
X68274629Y-55036381D01*
X68282026Y-55017654D01*
X68275016Y-54592575D01*
X68275387Y-54167381D01*
X68267697Y-54148770D01*
X68267365Y-54128637D01*
X67955360Y-53375390D01*
X67946155Y-53370580D01*
X67935845Y-53345628D01*
X67437000Y-52845911D01*
X67437000Y-52197000D01*
X135763000Y-52197000D01*
X135763000Y-88773000D01*
G36*
X109408473Y-78784476D02*
X109398284Y-78791284D01*
X109141471Y-79175631D01*
X109051290Y-79629000D01*
X109063921Y-79692500D01*
X107087248Y-79692500D01*
X109108886Y-76687363D01*
X109408473Y-78784476D01*
X109408473Y-78784476D01*
G37*
X109408473Y-78784476D02*
X109398284Y-78791284D01*
X109141471Y-79175631D01*
X109051290Y-79629000D01*
X109063921Y-79692500D01*
X107087248Y-79692500D01*
X109108886Y-76687363D01*
X109408473Y-78784476D01*
G36*
X110666796Y-79450559D02*
X110702290Y-79629000D01*
X110689659Y-79692500D01*
X109782341Y-79692500D01*
X109769710Y-79629000D01*
X109805204Y-79450559D01*
X109809128Y-79444687D01*
X109815413Y-79450322D01*
X109884873Y-79474755D01*
X109947517Y-79513452D01*
X109991214Y-79520533D01*
X110031127Y-79539673D01*
X110076444Y-79542143D01*
X110119257Y-79557203D01*
X110192779Y-79553196D01*
X110265463Y-79564974D01*
X110308544Y-79554794D01*
X110352743Y-79557203D01*
X110395553Y-79542144D01*
X110440873Y-79539674D01*
X110507267Y-79507835D01*
X110578924Y-79490902D01*
X110614829Y-79465011D01*
X110656587Y-79450322D01*
X110662872Y-79444687D01*
X110666796Y-79450559D01*
X110666796Y-79450559D01*
G37*
X110666796Y-79450559D02*
X110702290Y-79629000D01*
X110689659Y-79692500D01*
X109782341Y-79692500D01*
X109769710Y-79629000D01*
X109805204Y-79450559D01*
X109809128Y-79444687D01*
X109815413Y-79450322D01*
X109884873Y-79474755D01*
X109947517Y-79513452D01*
X109991214Y-79520533D01*
X110031127Y-79539673D01*
X110076444Y-79542143D01*
X110119257Y-79557203D01*
X110192779Y-79553196D01*
X110265463Y-79564974D01*
X110308544Y-79554794D01*
X110352743Y-79557203D01*
X110395553Y-79542144D01*
X110440873Y-79539674D01*
X110507267Y-79507835D01*
X110578924Y-79490902D01*
X110614829Y-79465011D01*
X110656587Y-79450322D01*
X110662872Y-79444687D01*
X110666796Y-79450559D01*
G36*
X113384752Y-79692500D02*
X111408079Y-79692500D01*
X111420710Y-79629000D01*
X111330529Y-79175631D01*
X111073716Y-78791284D01*
X111063527Y-78784476D01*
X111363114Y-76687363D01*
X113384752Y-79692500D01*
X113384752Y-79692500D01*
G37*
X113384752Y-79692500D02*
X111408079Y-79692500D01*
X111420710Y-79629000D01*
X111330529Y-79175631D01*
X111073716Y-78791284D01*
X111063527Y-78784476D01*
X111363114Y-76687363D01*
X113384752Y-79692500D01*
M02*
