G04 #@! TF.FileFunction,Soldermask,Bot*
%FSLAX46Y46*%
G04 Gerber Fmt 4.6, Leading zero omitted, Abs format (unit mm)*
G04 Created by KiCad (PCBNEW 4.0.7) date 01/25/18 11:26:49*
%MOMM*%
%LPD*%
G01*
G04 APERTURE LIST*
%ADD10C,0.100000*%
%ADD11C,3.600000*%
%ADD12R,2.100000X2.100000*%
%ADD13O,2.100000X2.100000*%
%ADD14C,2.178000*%
%ADD15C,3.956000*%
%ADD16C,4.718000*%
%ADD17C,3.448000*%
%ADD18C,6.500000*%
%ADD19C,3.900000*%
%ADD20C,3.702000*%
G04 APERTURE END LIST*
D10*
D11*
X176530000Y-92710000D03*
D12*
X146812000Y-59690000D03*
D13*
X144272000Y-59690000D03*
X146812000Y-62230000D03*
X144272000Y-62230000D03*
X146812000Y-64770000D03*
X144272000Y-64770000D03*
X146812000Y-67310000D03*
X144272000Y-67310000D03*
X146812000Y-69850000D03*
X144272000Y-69850000D03*
X146812000Y-72390000D03*
X144272000Y-72390000D03*
X146812000Y-74930000D03*
X144272000Y-74930000D03*
X146812000Y-77470000D03*
X144272000Y-77470000D03*
D12*
X167767000Y-173482000D03*
D13*
X167767000Y-170942000D03*
X167767000Y-168402000D03*
D12*
X159512000Y-130302000D03*
D13*
X159512000Y-132842000D03*
X159512000Y-135382000D03*
X159512000Y-137922000D03*
D12*
X167767000Y-162687000D03*
D13*
X167767000Y-160147000D03*
X167767000Y-157607000D03*
D12*
X167767000Y-151892000D03*
D13*
X167767000Y-149352000D03*
X167767000Y-146812000D03*
D12*
X137922000Y-125222000D03*
D13*
X140462000Y-125222000D03*
X137922000Y-127762000D03*
X140462000Y-127762000D03*
X137922000Y-130302000D03*
X140462000Y-130302000D03*
X137922000Y-132842000D03*
X140462000Y-132842000D03*
X137922000Y-135382000D03*
X140462000Y-135382000D03*
X137922000Y-137922000D03*
X140462000Y-137922000D03*
X137922000Y-140462000D03*
X140462000Y-140462000D03*
X137922000Y-143002000D03*
X140462000Y-143002000D03*
X137922000Y-145542000D03*
X140462000Y-145542000D03*
X137922000Y-148082000D03*
X140462000Y-148082000D03*
X137922000Y-150622000D03*
X140462000Y-150622000D03*
X137922000Y-153162000D03*
X140462000Y-153162000D03*
X137922000Y-155702000D03*
X140462000Y-155702000D03*
X137922000Y-158242000D03*
X140462000Y-158242000D03*
X137922000Y-160782000D03*
X140462000Y-160782000D03*
X137922000Y-163322000D03*
X140462000Y-163322000D03*
X137922000Y-165862000D03*
X140462000Y-165862000D03*
X137922000Y-168402000D03*
X140462000Y-168402000D03*
X137922000Y-170942000D03*
X140462000Y-170942000D03*
D12*
X76962000Y-125222000D03*
D13*
X79502000Y-125222000D03*
X76962000Y-127762000D03*
X79502000Y-127762000D03*
X76962000Y-130302000D03*
X79502000Y-130302000D03*
X76962000Y-132842000D03*
X79502000Y-132842000D03*
X76962000Y-135382000D03*
X79502000Y-135382000D03*
X76962000Y-137922000D03*
X79502000Y-137922000D03*
X76962000Y-140462000D03*
X79502000Y-140462000D03*
X76962000Y-143002000D03*
X79502000Y-143002000D03*
X76962000Y-145542000D03*
X79502000Y-145542000D03*
X76962000Y-148082000D03*
X79502000Y-148082000D03*
X76962000Y-150622000D03*
X79502000Y-150622000D03*
X76962000Y-153162000D03*
X79502000Y-153162000D03*
X76962000Y-155702000D03*
X79502000Y-155702000D03*
X76962000Y-158242000D03*
X79502000Y-158242000D03*
X76962000Y-160782000D03*
X79502000Y-160782000D03*
X76962000Y-163322000D03*
X79502000Y-163322000D03*
X76962000Y-165862000D03*
X79502000Y-165862000D03*
X76962000Y-168402000D03*
X79502000Y-168402000D03*
X76962000Y-170942000D03*
X79502000Y-170942000D03*
D11*
X66040000Y-231140000D03*
X176530000Y-231140000D03*
X66040000Y-54610000D03*
X66040000Y-95250000D03*
X66040000Y-153670000D03*
X147320000Y-153670000D03*
X176530000Y-185420000D03*
D14*
X77470000Y-199390000D03*
X77470000Y-196850000D03*
X77470000Y-194310000D03*
X77470000Y-191770000D03*
X77470000Y-189230000D03*
X77470000Y-186690000D03*
X77470000Y-184150000D03*
X77470000Y-181610000D03*
D15*
X69596000Y-182880000D03*
X69596000Y-198120000D03*
D14*
X111887000Y-179705000D03*
X111887000Y-182245000D03*
X111887000Y-184785000D03*
X111887000Y-187325000D03*
X111887000Y-189865000D03*
X111887000Y-192405000D03*
X111887000Y-194945000D03*
D15*
X126365000Y-180340000D03*
X126365000Y-194310000D03*
X116205000Y-180340000D03*
X116205000Y-194310000D03*
D14*
X112522000Y-212725000D03*
X112522000Y-215265000D03*
X112522000Y-217805000D03*
X112522000Y-220345000D03*
X112522000Y-222885000D03*
X112522000Y-225425000D03*
X130302000Y-215265000D03*
X130302000Y-217805000D03*
X130302000Y-220345000D03*
X130302000Y-222885000D03*
D16*
X113792000Y-208280000D03*
X113792000Y-229870000D03*
X129032000Y-229870000D03*
X129032000Y-208280000D03*
D14*
X142875000Y-205740000D03*
X142875000Y-208280000D03*
X142875000Y-210820000D03*
X142875000Y-213360000D03*
X142875000Y-215900000D03*
X142875000Y-218440000D03*
X142875000Y-220980000D03*
X142875000Y-223520000D03*
X142875000Y-226060000D03*
D17*
X172339000Y-205740000D03*
X172339000Y-226060000D03*
D11*
X176530000Y-54610000D03*
X100330000Y-231140000D03*
X139700000Y-231140000D03*
D18*
X158750000Y-97155000D03*
X165450000Y-97155000D03*
X158750000Y-87630000D03*
X165450000Y-87630000D03*
D14*
X77470000Y-218440000D03*
X77470000Y-215900000D03*
X77470000Y-213360000D03*
X77470000Y-210820000D03*
X77470000Y-208280000D03*
X77470000Y-205740000D03*
D19*
X67320000Y-218440000D03*
X67310000Y-205740000D03*
D11*
X134620000Y-200660000D03*
X132080000Y-82550000D03*
X132080000Y-54610000D03*
X90805000Y-68580000D03*
D12*
X65405000Y-168910000D03*
D13*
X67945000Y-168910000D03*
X65405000Y-171450000D03*
X67945000Y-171450000D03*
X65405000Y-173990000D03*
X67945000Y-173990000D03*
D12*
X155194000Y-146050000D03*
D13*
X155194000Y-148590000D03*
X155194000Y-151130000D03*
X155194000Y-153670000D03*
D14*
X104394000Y-197612000D03*
X101854000Y-197612000D03*
X99314000Y-197612000D03*
X96774000Y-197612000D03*
X94234000Y-197612000D03*
X91694000Y-197612000D03*
X89154000Y-197612000D03*
X86614000Y-197612000D03*
D20*
X85344000Y-225806000D03*
X105664000Y-225806000D03*
X105664000Y-202946000D03*
X85344000Y-202946000D03*
D14*
X170180000Y-185928000D03*
X167640000Y-185928000D03*
X165100000Y-185928000D03*
X162560000Y-185928000D03*
X160020000Y-185928000D03*
X157480000Y-185928000D03*
X154940000Y-185928000D03*
X152400000Y-185928000D03*
D20*
X152400000Y-198628000D03*
X170180000Y-198628000D03*
M02*
