G04 #@! TF.FileFunction,Copper,L2,Bot,Signal*
%FSLAX46Y46*%
G04 Gerber Fmt 4.6, Leading zero omitted, Abs format (unit mm)*
G04 Created by KiCad (PCBNEW 4.0.7) date 04/19/18 21:13:34*
%MOMM*%
%LPD*%
G01*
G04 APERTURE LIST*
%ADD10C,0.100000*%
%ADD11C,1.778000*%
%ADD12C,3.810000*%
%ADD13C,1.981200*%
%ADD14R,1.700000X1.700000*%
%ADD15O,1.700000X1.700000*%
%ADD16C,6.100000*%
%ADD17C,3.302000*%
%ADD18C,4.064000*%
%ADD19C,3.556000*%
%ADD20C,4.318000*%
%ADD21C,3.500000*%
%ADD22C,1.500000*%
%ADD23C,1.000000*%
%ADD24C,4.000000*%
%ADD25C,1.000000*%
%ADD26C,0.500000*%
%ADD27C,0.250000*%
%ADD28C,0.254000*%
G04 APERTURE END LIST*
D10*
D11*
X81381600Y-126593600D03*
X81381600Y-129133600D03*
X81381600Y-131673600D03*
X81381600Y-134213600D03*
X81381600Y-136753600D03*
X81381600Y-139293600D03*
X81381600Y-141833600D03*
X81381600Y-144373600D03*
X81381600Y-146913600D03*
X81381600Y-149453600D03*
X81381600Y-151993600D03*
X81381600Y-154533600D03*
X81381600Y-157073600D03*
X81381600Y-159613600D03*
X81381600Y-162153600D03*
D12*
X82397600Y-122783600D03*
X100177600Y-122783600D03*
X82397600Y-168503600D03*
X100177600Y-168503600D03*
D11*
X81381600Y-164693600D03*
X101193600Y-164693600D03*
X101193600Y-162153600D03*
X101193600Y-159613600D03*
X101193600Y-157073600D03*
X101193600Y-154533600D03*
X101193600Y-151993600D03*
X101193600Y-149453600D03*
X101193600Y-146913600D03*
X101193600Y-144373600D03*
X101193600Y-141833600D03*
X101193600Y-139293600D03*
X101193600Y-136753600D03*
X150368000Y-131724400D03*
X150368000Y-129184400D03*
X150368000Y-126644400D03*
X150368000Y-124104400D03*
X150368000Y-121564400D03*
X150368000Y-119024400D03*
X150368000Y-116484400D03*
X150368000Y-113944400D03*
X150368000Y-111404400D03*
X150368000Y-108864400D03*
X150368000Y-106324400D03*
X150368000Y-103784400D03*
X150368000Y-101244400D03*
X150368000Y-98704400D03*
X150368000Y-96164400D03*
X135128000Y-96164400D03*
X135128000Y-98704400D03*
X135128000Y-101244400D03*
X135128000Y-103784400D03*
X135128000Y-106324400D03*
X135128000Y-108864400D03*
X135128000Y-111404400D03*
X135128000Y-113944400D03*
X135128000Y-116484400D03*
X135128000Y-119024400D03*
X135128000Y-121564400D03*
X135128000Y-124104400D03*
X135128000Y-126644400D03*
X135128000Y-129184400D03*
X135128000Y-131724400D03*
D13*
X150368000Y-134264400D03*
X135128000Y-134264400D03*
X150368000Y-93624400D03*
X135128000Y-93624400D03*
D14*
X146812000Y-59690000D03*
D15*
X144272000Y-59690000D03*
X146812000Y-62230000D03*
X144272000Y-62230000D03*
X146812000Y-64770000D03*
X144272000Y-64770000D03*
X146812000Y-67310000D03*
X144272000Y-67310000D03*
X146812000Y-69850000D03*
X144272000Y-69850000D03*
X146812000Y-72390000D03*
X144272000Y-72390000D03*
X146812000Y-74930000D03*
X144272000Y-74930000D03*
X146812000Y-77470000D03*
X144272000Y-77470000D03*
D14*
X95732600Y-108381800D03*
D15*
X95732600Y-105841800D03*
X95732600Y-103301800D03*
X95732600Y-100761800D03*
D16*
X158750000Y-97155000D03*
X165450000Y-97155000D03*
X158750000Y-87630000D03*
X165450000Y-87630000D03*
D14*
X65582800Y-141986000D03*
D15*
X68122800Y-141986000D03*
X65582800Y-144526000D03*
X68122800Y-144526000D03*
X65582800Y-147066000D03*
X68122800Y-147066000D03*
D14*
X67005200Y-168300400D03*
D15*
X67005200Y-165760400D03*
X67005200Y-163220400D03*
D11*
X124968000Y-174180500D03*
X124968000Y-171640500D03*
X124968000Y-169100500D03*
X124968000Y-166560500D03*
X124968000Y-164020500D03*
X124968000Y-161480500D03*
X124968000Y-158940500D03*
X124968000Y-156400500D03*
D17*
X112268000Y-156400500D03*
X112268000Y-174180500D03*
D11*
X154178000Y-153466800D03*
X154178000Y-156006800D03*
X154178000Y-158546800D03*
X154178000Y-161086800D03*
X154178000Y-163626800D03*
D18*
X175463200Y-167843200D03*
D11*
X112471200Y-97256600D03*
X112471200Y-99796600D03*
X112471200Y-102336600D03*
X112471200Y-104876600D03*
X112471200Y-107416600D03*
X112471200Y-109956600D03*
X112471200Y-112496600D03*
D19*
X126949200Y-97891600D03*
X126949200Y-111861600D03*
X116789200Y-97891600D03*
X116789200Y-111861600D03*
D11*
X129946400Y-140893800D03*
X129946400Y-138353800D03*
X129946400Y-135813800D03*
X129946400Y-133273800D03*
X129946400Y-130733800D03*
X129946400Y-128193800D03*
X112166400Y-138353800D03*
X112166400Y-135813800D03*
X112166400Y-133273800D03*
X112166400Y-130733800D03*
D20*
X128676400Y-145338800D03*
X128676400Y-123748800D03*
X113436400Y-123748800D03*
X113436400Y-145338800D03*
D11*
X131064000Y-156768800D03*
X131064000Y-159308800D03*
X131064000Y-161848800D03*
X131064000Y-164388800D03*
X131064000Y-166928800D03*
X131064000Y-169468800D03*
D21*
X141214000Y-156768800D03*
X141224000Y-169468800D03*
D22*
X83286600Y-104063800D03*
D23*
X158115000Y-117475000D03*
D22*
X169545000Y-106045000D03*
X165735000Y-69215000D03*
X95440500Y-141287500D03*
D23*
X71120000Y-144462500D03*
X149415500Y-80073500D03*
D24*
X165750000Y-97155000D02*
X165750000Y-87630000D01*
D25*
X83286600Y-129133600D02*
X81381600Y-129133600D01*
X95440500Y-141287500D02*
X83286600Y-129133600D01*
D26*
X78003400Y-129133600D02*
X81381600Y-129133600D01*
X76073000Y-131064000D02*
X78003400Y-129133600D01*
X76073000Y-139509500D02*
X76073000Y-131064000D01*
X71120000Y-144462500D02*
X76073000Y-139509500D01*
X135128000Y-96164400D02*
X137325100Y-96164400D01*
X149415500Y-84074000D02*
X149415500Y-80073500D01*
X137325100Y-96164400D02*
X149415500Y-84074000D01*
X135128000Y-98704400D02*
X139293600Y-98704400D01*
X148653500Y-69850000D02*
X146812000Y-69850000D01*
X151320500Y-72517000D02*
X148653500Y-69850000D01*
X151320500Y-86677500D02*
X151320500Y-72517000D01*
X139293600Y-98704400D02*
X151320500Y-86677500D01*
D27*
X67005200Y-168300400D02*
X72478900Y-168300400D01*
X99910900Y-164693600D02*
X101193600Y-164693600D01*
X98234500Y-166370000D02*
X99910900Y-164693600D01*
X94742000Y-166370000D02*
X98234500Y-166370000D01*
X93853000Y-167259000D02*
X94742000Y-166370000D01*
X93853000Y-170053000D02*
X93853000Y-167259000D01*
X90106500Y-173799500D02*
X93853000Y-170053000D01*
X77978000Y-173799500D02*
X90106500Y-173799500D01*
X72478900Y-168300400D02*
X77978000Y-173799500D01*
D26*
X129946400Y-133273800D02*
X129171700Y-133273800D01*
X129171700Y-133273800D02*
X125222000Y-137223500D01*
X125222000Y-137223500D02*
X125222000Y-148717000D01*
X125222000Y-148717000D02*
X128333500Y-151828500D01*
X128333500Y-151828500D02*
X128333500Y-160020000D01*
X128333500Y-160020000D02*
X130162300Y-161848800D01*
X130162300Y-161848800D02*
X131064000Y-161848800D01*
X101193600Y-164693600D02*
X118465600Y-164693600D01*
X120332500Y-166560500D02*
X124968000Y-166560500D01*
X118465600Y-164693600D02*
X120332500Y-166560500D01*
D27*
X67005200Y-165760400D02*
X72288400Y-165760400D01*
X99695000Y-160655000D02*
X101193600Y-162153600D01*
X94234000Y-160655000D02*
X99695000Y-160655000D01*
X92456000Y-162433000D02*
X94234000Y-160655000D01*
X92456000Y-168783000D02*
X92456000Y-162433000D01*
X88963500Y-172275500D02*
X92456000Y-168783000D01*
X80518000Y-172275500D02*
X88963500Y-172275500D01*
X78676500Y-170434000D02*
X80518000Y-172275500D01*
X76962000Y-170434000D02*
X78676500Y-170434000D01*
X72288400Y-165760400D02*
X76962000Y-170434000D01*
X101193600Y-159613600D02*
X99606100Y-159613600D01*
X98602800Y-108381800D02*
X95732600Y-108381800D01*
X100186494Y-109965494D02*
X98602800Y-108381800D01*
X100186494Y-111303188D02*
X100186494Y-109965494D01*
X105456994Y-116573688D02*
X100186494Y-111303188D01*
X105456994Y-122821312D02*
X105456994Y-116573688D01*
X97900494Y-130377812D02*
X105456994Y-122821312D01*
X97900494Y-157907994D02*
X97900494Y-130377812D01*
X99606100Y-159613600D02*
X97900494Y-157907994D01*
X101193600Y-154533600D02*
X100558600Y-154533600D01*
X100558600Y-154533600D02*
X98350496Y-152325496D01*
X98350496Y-152325496D02*
X98350496Y-130564208D01*
X98350496Y-130564208D02*
X105906996Y-123007708D01*
X105906996Y-123007708D02*
X105906996Y-116387292D01*
X105906996Y-116387292D02*
X100636496Y-111116792D01*
X100636496Y-111116792D02*
X100636496Y-107176996D01*
X100636496Y-107176996D02*
X99301300Y-105841800D01*
X99301300Y-105841800D02*
X95732600Y-105841800D01*
X101193600Y-151993600D02*
X100431600Y-151993600D01*
X100431600Y-151993600D02*
X98800498Y-150362498D01*
X98800498Y-150362498D02*
X98800498Y-130750604D01*
X98800498Y-130750604D02*
X106356998Y-123194104D01*
X106356998Y-123194104D02*
X106356998Y-116200896D01*
X106356998Y-116200896D02*
X101086498Y-110930396D01*
X101086498Y-110930396D02*
X101086498Y-105150498D01*
X101086498Y-105150498D02*
X99237800Y-103301800D01*
X99237800Y-103301800D02*
X95732600Y-103301800D01*
X101193600Y-149453600D02*
X100749100Y-149453600D01*
X100749100Y-149453600D02*
X99250500Y-147955000D01*
X99250500Y-147955000D02*
X99250500Y-130937000D01*
X99250500Y-130937000D02*
X106807000Y-123380500D01*
X106807000Y-123380500D02*
X106807000Y-116014500D01*
X106807000Y-116014500D02*
X101536500Y-110744000D01*
X101536500Y-110744000D02*
X101536500Y-102616000D01*
X101536500Y-102616000D02*
X99682300Y-100761800D01*
X99682300Y-100761800D02*
X95732600Y-100761800D01*
D28*
G36*
X180213000Y-179578000D02*
X62992000Y-179578000D01*
X62992000Y-176337619D01*
X63804613Y-176337619D01*
X64144155Y-177159372D01*
X64772321Y-177788636D01*
X65593481Y-178129611D01*
X66482619Y-178130387D01*
X67304372Y-177790845D01*
X67933636Y-177162679D01*
X68274611Y-176341519D01*
X68274614Y-176337619D01*
X98094613Y-176337619D01*
X98434155Y-177159372D01*
X99062321Y-177788636D01*
X99883481Y-178129611D01*
X100772619Y-178130387D01*
X101594372Y-177790845D01*
X102223636Y-177162679D01*
X102564611Y-176341519D01*
X102565387Y-175452381D01*
X102226916Y-174633219D01*
X109981604Y-174633219D01*
X110328894Y-175473723D01*
X110971395Y-176117346D01*
X111811292Y-176466102D01*
X112720719Y-176466896D01*
X113033592Y-176337619D01*
X137337613Y-176337619D01*
X137677155Y-177159372D01*
X138305321Y-177788636D01*
X139126481Y-178129611D01*
X140015619Y-178130387D01*
X140837372Y-177790845D01*
X141466636Y-177162679D01*
X141807611Y-176341519D01*
X141807614Y-176337619D01*
X174294613Y-176337619D01*
X174634155Y-177159372D01*
X175262321Y-177788636D01*
X176083481Y-178129611D01*
X176972619Y-178130387D01*
X177794372Y-177790845D01*
X178423636Y-177162679D01*
X178764611Y-176341519D01*
X178765387Y-175452381D01*
X178425845Y-174630628D01*
X177797679Y-174001364D01*
X176976519Y-173660389D01*
X176087381Y-173659613D01*
X175265628Y-173999155D01*
X174636364Y-174627321D01*
X174295389Y-175448481D01*
X174294613Y-176337619D01*
X141807614Y-176337619D01*
X141808387Y-175452381D01*
X141468845Y-174630628D01*
X140840679Y-174001364D01*
X140019519Y-173660389D01*
X139130381Y-173659613D01*
X138308628Y-173999155D01*
X137679364Y-174627321D01*
X137338389Y-175448481D01*
X137337613Y-176337619D01*
X113033592Y-176337619D01*
X113561223Y-176119606D01*
X114204846Y-175477105D01*
X114553602Y-174637208D01*
X114553737Y-174482312D01*
X123443736Y-174482312D01*
X123675262Y-175042649D01*
X124103596Y-175471731D01*
X124663528Y-175704235D01*
X125269812Y-175704764D01*
X125830149Y-175473238D01*
X126259231Y-175044904D01*
X126491735Y-174484972D01*
X126492264Y-173878688D01*
X126260738Y-173318351D01*
X125832404Y-172889269D01*
X125805494Y-172878095D01*
X125860591Y-172712696D01*
X124968000Y-171820105D01*
X124075409Y-172712696D01*
X124130353Y-172877638D01*
X124105851Y-172887762D01*
X123676769Y-173316096D01*
X123444265Y-173876028D01*
X123443736Y-174482312D01*
X114553737Y-174482312D01*
X114554396Y-173727781D01*
X114207106Y-172887277D01*
X113564605Y-172243654D01*
X112724708Y-171894898D01*
X111815281Y-171894104D01*
X110974777Y-172241394D01*
X110331154Y-172883895D01*
X109982398Y-173723792D01*
X109981604Y-174633219D01*
X102226916Y-174633219D01*
X102225845Y-174630628D01*
X101597679Y-174001364D01*
X100776519Y-173660389D01*
X99887381Y-173659613D01*
X99065628Y-173999155D01*
X98436364Y-174627321D01*
X98095389Y-175448481D01*
X98094613Y-176337619D01*
X68274614Y-176337619D01*
X68275387Y-175452381D01*
X67935845Y-174630628D01*
X67307679Y-174001364D01*
X66486519Y-173660389D01*
X65597381Y-173659613D01*
X64775628Y-173999155D01*
X64146364Y-174627321D01*
X63805389Y-175448481D01*
X63804613Y-176337619D01*
X62992000Y-176337619D01*
X62992000Y-165760400D01*
X65491107Y-165760400D01*
X65604146Y-166328685D01*
X65926053Y-166810454D01*
X65967652Y-166838250D01*
X65919883Y-166847238D01*
X65703759Y-166986310D01*
X65558769Y-167198510D01*
X65507760Y-167450400D01*
X65507760Y-169150400D01*
X65552038Y-169385717D01*
X65691110Y-169601841D01*
X65903310Y-169746831D01*
X66155200Y-169797840D01*
X67855200Y-169797840D01*
X68090517Y-169753562D01*
X68306641Y-169614490D01*
X68451631Y-169402290D01*
X68502640Y-169150400D01*
X68502640Y-169060400D01*
X72164098Y-169060400D01*
X77440599Y-174336901D01*
X77687161Y-174501648D01*
X77978000Y-174559500D01*
X90106500Y-174559500D01*
X90397339Y-174501648D01*
X90643901Y-174336901D01*
X93578337Y-171402465D01*
X123432484Y-171402465D01*
X123458277Y-172008200D01*
X123640461Y-172448033D01*
X123895804Y-172533091D01*
X124788395Y-171640500D01*
X125147605Y-171640500D01*
X126040196Y-172533091D01*
X126295539Y-172448033D01*
X126503516Y-171878535D01*
X126477723Y-171272800D01*
X126295539Y-170832967D01*
X126040196Y-170747909D01*
X125147605Y-171640500D01*
X124788395Y-171640500D01*
X123895804Y-170747909D01*
X123640461Y-170832967D01*
X123432484Y-171402465D01*
X93578337Y-171402465D01*
X94390401Y-170590401D01*
X94555148Y-170343839D01*
X94613000Y-170053000D01*
X94613000Y-167573802D01*
X95056802Y-167130000D01*
X97997697Y-167130000D01*
X97638041Y-167996146D01*
X97637160Y-169006621D01*
X98023037Y-169940515D01*
X98736927Y-170655652D01*
X99670146Y-171043159D01*
X100680621Y-171044040D01*
X101614515Y-170658163D01*
X102329652Y-169944273D01*
X102717159Y-169011054D01*
X102718040Y-168000579D01*
X102332163Y-167066685D01*
X101618273Y-166351548D01*
X101295907Y-166217690D01*
X101495412Y-166217864D01*
X102055749Y-165986338D01*
X102464199Y-165578600D01*
X118099020Y-165578600D01*
X119706708Y-167186287D01*
X119706710Y-167186290D01*
X119993825Y-167378133D01*
X120332500Y-167445500D01*
X123698073Y-167445500D01*
X124082737Y-167830836D01*
X123676769Y-168236096D01*
X123444265Y-168796028D01*
X123443736Y-169402312D01*
X123675262Y-169962649D01*
X124103596Y-170391731D01*
X124130506Y-170402905D01*
X124075409Y-170568304D01*
X124968000Y-171460895D01*
X125860591Y-170568304D01*
X125805647Y-170403362D01*
X125830149Y-170393238D01*
X126259231Y-169964904D01*
X126339908Y-169770612D01*
X129539736Y-169770612D01*
X129771262Y-170330949D01*
X130199596Y-170760031D01*
X130759528Y-170992535D01*
X131365812Y-170993064D01*
X131926149Y-170761538D01*
X132355231Y-170333204D01*
X132518036Y-169941125D01*
X138838587Y-169941125D01*
X139200916Y-170818029D01*
X139871242Y-171489526D01*
X140747513Y-171853385D01*
X141696325Y-171854213D01*
X142573229Y-171491884D01*
X143244726Y-170821558D01*
X143608585Y-169945287D01*
X143609413Y-168996475D01*
X143351126Y-168371372D01*
X172795738Y-168371372D01*
X173200909Y-169351961D01*
X173950493Y-170102855D01*
X174930373Y-170509736D01*
X175991372Y-170510662D01*
X176971961Y-170105491D01*
X177722855Y-169355907D01*
X178129736Y-168376027D01*
X178130662Y-167315028D01*
X177725491Y-166334439D01*
X176975907Y-165583545D01*
X175996027Y-165176664D01*
X174935028Y-165175738D01*
X173954439Y-165580909D01*
X173203545Y-166330493D01*
X172796664Y-167310373D01*
X172795738Y-168371372D01*
X143351126Y-168371372D01*
X143247084Y-168119571D01*
X142576758Y-167448074D01*
X141700487Y-167084215D01*
X140751675Y-167083387D01*
X139874771Y-167445716D01*
X139203274Y-168116042D01*
X138839415Y-168992313D01*
X138838587Y-169941125D01*
X132518036Y-169941125D01*
X132587735Y-169773272D01*
X132588264Y-169166988D01*
X132356738Y-168606651D01*
X131928404Y-168177569D01*
X131901494Y-168166395D01*
X131956591Y-168000996D01*
X131064000Y-167108405D01*
X130171409Y-168000996D01*
X130226353Y-168165938D01*
X130201851Y-168176062D01*
X129772769Y-168604396D01*
X129540265Y-169164328D01*
X129539736Y-169770612D01*
X126339908Y-169770612D01*
X126491735Y-169404972D01*
X126492264Y-168798688D01*
X126260738Y-168238351D01*
X125853263Y-167830164D01*
X126259231Y-167424904D01*
X126491735Y-166864972D01*
X126491887Y-166690765D01*
X129528484Y-166690765D01*
X129554277Y-167296500D01*
X129736461Y-167736333D01*
X129991804Y-167821391D01*
X130884395Y-166928800D01*
X131243605Y-166928800D01*
X132136196Y-167821391D01*
X132391539Y-167736333D01*
X132599516Y-167166835D01*
X132573723Y-166561100D01*
X132391539Y-166121267D01*
X132136196Y-166036209D01*
X131243605Y-166928800D01*
X130884395Y-166928800D01*
X129991804Y-166036209D01*
X129736461Y-166121267D01*
X129528484Y-166690765D01*
X126491887Y-166690765D01*
X126492264Y-166258688D01*
X126260738Y-165698351D01*
X125853263Y-165290164D01*
X126259231Y-164884904D01*
X126491735Y-164324972D01*
X126492264Y-163718688D01*
X126260738Y-163158351D01*
X125853263Y-162750164D01*
X126259231Y-162344904D01*
X126491735Y-161784972D01*
X126492264Y-161178688D01*
X126260738Y-160618351D01*
X125853263Y-160210164D01*
X126259231Y-159804904D01*
X126491735Y-159244972D01*
X126492264Y-158638688D01*
X126260738Y-158078351D01*
X125853263Y-157670164D01*
X126259231Y-157264904D01*
X126491735Y-156704972D01*
X126492264Y-156098688D01*
X126260738Y-155538351D01*
X125832404Y-155109269D01*
X125272472Y-154876765D01*
X124666188Y-154876236D01*
X124105851Y-155107762D01*
X123676769Y-155536096D01*
X123444265Y-156096028D01*
X123443736Y-156702312D01*
X123675262Y-157262649D01*
X124082737Y-157670836D01*
X123676769Y-158076096D01*
X123444265Y-158636028D01*
X123443736Y-159242312D01*
X123675262Y-159802649D01*
X124082737Y-160210836D01*
X123676769Y-160616096D01*
X123444265Y-161176028D01*
X123443736Y-161782312D01*
X123675262Y-162342649D01*
X124082737Y-162750836D01*
X123676769Y-163156096D01*
X123444265Y-163716028D01*
X123443736Y-164322312D01*
X123675262Y-164882649D01*
X124082737Y-165290836D01*
X123697401Y-165675500D01*
X120699079Y-165675500D01*
X119091390Y-164067810D01*
X118804275Y-163875967D01*
X118748084Y-163864790D01*
X118465600Y-163808599D01*
X118465595Y-163808600D01*
X102463527Y-163808600D01*
X102078863Y-163423264D01*
X102484831Y-163018004D01*
X102717335Y-162458072D01*
X102717864Y-161851788D01*
X102486338Y-161291451D01*
X102078863Y-160883264D01*
X102484831Y-160478004D01*
X102717335Y-159918072D01*
X102717864Y-159311788D01*
X102486338Y-158751451D01*
X102078863Y-158343264D01*
X102484831Y-157938004D01*
X102717335Y-157378072D01*
X102717792Y-156853219D01*
X109981604Y-156853219D01*
X110328894Y-157693723D01*
X110971395Y-158337346D01*
X111811292Y-158686102D01*
X112720719Y-158686896D01*
X113561223Y-158339606D01*
X114204846Y-157697105D01*
X114553602Y-156857208D01*
X114554396Y-155947781D01*
X114207106Y-155107277D01*
X113564605Y-154463654D01*
X112724708Y-154114898D01*
X111815281Y-154114104D01*
X110974777Y-154461394D01*
X110331154Y-155103895D01*
X109982398Y-155943792D01*
X109981604Y-156853219D01*
X102717792Y-156853219D01*
X102717864Y-156771788D01*
X102486338Y-156211451D01*
X102078863Y-155803264D01*
X102484831Y-155398004D01*
X102717335Y-154838072D01*
X102717864Y-154231788D01*
X102486338Y-153671451D01*
X102078863Y-153263264D01*
X102484831Y-152858004D01*
X102717335Y-152298072D01*
X102717864Y-151691788D01*
X102486338Y-151131451D01*
X102078863Y-150723264D01*
X102484831Y-150318004D01*
X102717335Y-149758072D01*
X102717864Y-149151788D01*
X102486338Y-148591451D01*
X102078863Y-148183264D01*
X102484831Y-147778004D01*
X102717335Y-147218072D01*
X102717864Y-146611788D01*
X102486338Y-146051451D01*
X102327288Y-145892123D01*
X110641916Y-145892123D01*
X111066381Y-146919406D01*
X111851660Y-147706057D01*
X112878201Y-148132314D01*
X113989723Y-148133284D01*
X115017006Y-147708819D01*
X115803657Y-146923540D01*
X116229914Y-145896999D01*
X116230884Y-144785477D01*
X115806419Y-143758194D01*
X115021140Y-142971543D01*
X113994599Y-142545286D01*
X112883077Y-142544316D01*
X111855794Y-142968781D01*
X111069143Y-143754060D01*
X110642886Y-144780601D01*
X110641916Y-145892123D01*
X102327288Y-145892123D01*
X102078863Y-145643264D01*
X102484831Y-145238004D01*
X102717335Y-144678072D01*
X102717864Y-144071788D01*
X102486338Y-143511451D01*
X102078863Y-143103264D01*
X102484831Y-142698004D01*
X102717335Y-142138072D01*
X102717864Y-141531788D01*
X102486338Y-140971451D01*
X102078863Y-140563264D01*
X102484831Y-140158004D01*
X102717335Y-139598072D01*
X102717864Y-138991788D01*
X102486338Y-138431451D01*
X102078863Y-138023264D01*
X102484831Y-137618004D01*
X102717335Y-137058072D01*
X102717864Y-136451788D01*
X102486338Y-135891451D01*
X102058004Y-135462369D01*
X101498072Y-135229865D01*
X100891788Y-135229336D01*
X100331451Y-135460862D01*
X100010500Y-135781254D01*
X100010500Y-131251802D01*
X100226690Y-131035612D01*
X110642136Y-131035612D01*
X110873662Y-131595949D01*
X111281137Y-132004136D01*
X110875169Y-132409396D01*
X110642665Y-132969328D01*
X110642136Y-133575612D01*
X110873662Y-134135949D01*
X111281137Y-134544136D01*
X110875169Y-134949396D01*
X110642665Y-135509328D01*
X110642136Y-136115612D01*
X110873662Y-136675949D01*
X111281137Y-137084136D01*
X110875169Y-137489396D01*
X110642665Y-138049328D01*
X110642136Y-138655612D01*
X110873662Y-139215949D01*
X111301996Y-139645031D01*
X111861928Y-139877535D01*
X112468212Y-139878064D01*
X113028549Y-139646538D01*
X113457631Y-139218204D01*
X113690135Y-138658272D01*
X113690664Y-138051988D01*
X113459138Y-137491651D01*
X113191455Y-137223500D01*
X124336999Y-137223500D01*
X124337000Y-137223505D01*
X124337000Y-148716995D01*
X124336999Y-148717000D01*
X124376623Y-148916199D01*
X124404367Y-149055675D01*
X124596210Y-149342790D01*
X127448500Y-152195079D01*
X127448500Y-160019995D01*
X127448499Y-160020000D01*
X127490616Y-160231731D01*
X127515867Y-160358675D01*
X127519533Y-160364161D01*
X127707710Y-160645790D01*
X129536508Y-162474587D01*
X129536510Y-162474590D01*
X129725884Y-162601125D01*
X129771262Y-162710949D01*
X130178737Y-163119136D01*
X129772769Y-163524396D01*
X129540265Y-164084328D01*
X129539736Y-164690612D01*
X129771262Y-165250949D01*
X130199596Y-165680031D01*
X130226506Y-165691205D01*
X130171409Y-165856604D01*
X131064000Y-166749195D01*
X131956591Y-165856604D01*
X131901647Y-165691662D01*
X131926149Y-165681538D01*
X132355231Y-165253204D01*
X132587735Y-164693272D01*
X132588264Y-164086988D01*
X132522825Y-163928612D01*
X152653736Y-163928612D01*
X152885262Y-164488949D01*
X153313596Y-164918031D01*
X153873528Y-165150535D01*
X154479812Y-165151064D01*
X155040149Y-164919538D01*
X155469231Y-164491204D01*
X155701735Y-163931272D01*
X155702264Y-163324988D01*
X155470738Y-162764651D01*
X155042404Y-162335569D01*
X155015494Y-162324395D01*
X155070591Y-162158996D01*
X154178000Y-161266405D01*
X153285409Y-162158996D01*
X153340353Y-162323938D01*
X153315851Y-162334062D01*
X152886769Y-162762396D01*
X152654265Y-163322328D01*
X152653736Y-163928612D01*
X132522825Y-163928612D01*
X132356738Y-163526651D01*
X131949263Y-163118464D01*
X132355231Y-162713204D01*
X132587735Y-162153272D01*
X132588264Y-161546988D01*
X132356738Y-160986651D01*
X132219093Y-160848765D01*
X152642484Y-160848765D01*
X152668277Y-161454500D01*
X152850461Y-161894333D01*
X153105804Y-161979391D01*
X153998395Y-161086800D01*
X154357605Y-161086800D01*
X155250196Y-161979391D01*
X155505539Y-161894333D01*
X155713516Y-161324835D01*
X155687723Y-160719100D01*
X155505539Y-160279267D01*
X155250196Y-160194209D01*
X154357605Y-161086800D01*
X153998395Y-161086800D01*
X153105804Y-160194209D01*
X152850461Y-160279267D01*
X152642484Y-160848765D01*
X132219093Y-160848765D01*
X131949263Y-160578464D01*
X132355231Y-160173204D01*
X132587735Y-159613272D01*
X132588264Y-159006988D01*
X132356738Y-158446651D01*
X131949263Y-158038464D01*
X132355231Y-157633204D01*
X132518036Y-157241125D01*
X138828587Y-157241125D01*
X139190916Y-158118029D01*
X139861242Y-158789526D01*
X140737513Y-159153385D01*
X141686325Y-159154213D01*
X142563229Y-158791884D01*
X143234726Y-158121558D01*
X143598585Y-157245287D01*
X143599413Y-156296475D01*
X143237084Y-155419571D01*
X142566758Y-154748074D01*
X141690487Y-154384215D01*
X140741675Y-154383387D01*
X139864771Y-154745716D01*
X139193274Y-155416042D01*
X138829415Y-156292313D01*
X138828587Y-157241125D01*
X132518036Y-157241125D01*
X132587735Y-157073272D01*
X132588264Y-156466988D01*
X132356738Y-155906651D01*
X131928404Y-155477569D01*
X131368472Y-155245065D01*
X130762188Y-155244536D01*
X130201851Y-155476062D01*
X129772769Y-155904396D01*
X129540265Y-156464328D01*
X129539736Y-157070612D01*
X129771262Y-157630949D01*
X130178737Y-158039136D01*
X129772769Y-158444396D01*
X129540265Y-159004328D01*
X129539736Y-159610612D01*
X129771262Y-160170949D01*
X130178737Y-160579136D01*
X130161461Y-160596382D01*
X129218500Y-159653420D01*
X129218500Y-154112619D01*
X145084613Y-154112619D01*
X145424155Y-154934372D01*
X146052321Y-155563636D01*
X146873481Y-155904611D01*
X147762619Y-155905387D01*
X148584372Y-155565845D01*
X149213636Y-154937679D01*
X149554611Y-154116519D01*
X149554914Y-153768612D01*
X152653736Y-153768612D01*
X152885262Y-154328949D01*
X153292737Y-154737136D01*
X152886769Y-155142396D01*
X152654265Y-155702328D01*
X152653736Y-156308612D01*
X152885262Y-156868949D01*
X153292737Y-157277136D01*
X152886769Y-157682396D01*
X152654265Y-158242328D01*
X152653736Y-158848612D01*
X152885262Y-159408949D01*
X153313596Y-159838031D01*
X153340506Y-159849205D01*
X153285409Y-160014604D01*
X154178000Y-160907195D01*
X155070591Y-160014604D01*
X155015647Y-159849662D01*
X155040149Y-159839538D01*
X155469231Y-159411204D01*
X155701735Y-158851272D01*
X155702264Y-158244988D01*
X155470738Y-157684651D01*
X155063263Y-157276464D01*
X155469231Y-156871204D01*
X155701735Y-156311272D01*
X155702264Y-155704988D01*
X155470738Y-155144651D01*
X155063263Y-154736464D01*
X155469231Y-154331204D01*
X155701735Y-153771272D01*
X155702264Y-153164988D01*
X155470738Y-152604651D01*
X155042404Y-152175569D01*
X154482472Y-151943065D01*
X153876188Y-151942536D01*
X153315851Y-152174062D01*
X152886769Y-152602396D01*
X152654265Y-153162328D01*
X152653736Y-153768612D01*
X149554914Y-153768612D01*
X149555387Y-153227381D01*
X149215845Y-152405628D01*
X148587679Y-151776364D01*
X147766519Y-151435389D01*
X146877381Y-151434613D01*
X146055628Y-151774155D01*
X145426364Y-152402321D01*
X145085389Y-153223481D01*
X145084613Y-154112619D01*
X129218500Y-154112619D01*
X129218500Y-151828500D01*
X129151133Y-151489825D01*
X128959290Y-151202710D01*
X128959287Y-151202708D01*
X126107000Y-148350420D01*
X126107000Y-146436867D01*
X126306381Y-146919406D01*
X127091660Y-147706057D01*
X128118201Y-148132314D01*
X129229723Y-148133284D01*
X130257006Y-147708819D01*
X131043657Y-146923540D01*
X131469914Y-145896999D01*
X131470884Y-144785477D01*
X131046419Y-143758194D01*
X130261140Y-142971543D01*
X129234599Y-142545286D01*
X128123077Y-142544316D01*
X127095794Y-142968781D01*
X126309143Y-143754060D01*
X126107000Y-144240874D01*
X126107000Y-138655612D01*
X128422136Y-138655612D01*
X128653662Y-139215949D01*
X129061137Y-139624136D01*
X128655169Y-140029396D01*
X128422665Y-140589328D01*
X128422136Y-141195612D01*
X128653662Y-141755949D01*
X129081996Y-142185031D01*
X129641928Y-142417535D01*
X130248212Y-142418064D01*
X130808549Y-142186538D01*
X131237631Y-141758204D01*
X131470135Y-141198272D01*
X131470664Y-140591988D01*
X131239138Y-140031651D01*
X130831663Y-139623464D01*
X131237631Y-139218204D01*
X131470135Y-138658272D01*
X131470664Y-138051988D01*
X131239138Y-137491651D01*
X130810804Y-137062569D01*
X130783894Y-137051395D01*
X130838991Y-136885996D01*
X129946400Y-135993405D01*
X129053809Y-136885996D01*
X129108753Y-137050938D01*
X129084251Y-137061062D01*
X128655169Y-137489396D01*
X128422665Y-138049328D01*
X128422136Y-138655612D01*
X126107000Y-138655612D01*
X126107000Y-137590080D01*
X128577469Y-135119611D01*
X128410884Y-135575765D01*
X128436677Y-136181500D01*
X128618861Y-136621333D01*
X128874204Y-136706391D01*
X129766795Y-135813800D01*
X130126005Y-135813800D01*
X131018596Y-136706391D01*
X131273939Y-136621333D01*
X131481916Y-136051835D01*
X131456123Y-135446100D01*
X131273939Y-135006267D01*
X131018596Y-134921209D01*
X130126005Y-135813800D01*
X129766795Y-135813800D01*
X129752653Y-135799658D01*
X129932258Y-135620053D01*
X129946400Y-135634195D01*
X130838991Y-134741604D01*
X130787269Y-134586333D01*
X133502119Y-134586333D01*
X133749080Y-135184025D01*
X134205970Y-135641713D01*
X134803230Y-135889717D01*
X135449933Y-135890281D01*
X136047625Y-135643320D01*
X136505313Y-135186430D01*
X136753317Y-134589170D01*
X136753319Y-134586333D01*
X148742119Y-134586333D01*
X148989080Y-135184025D01*
X149445970Y-135641713D01*
X150043230Y-135889717D01*
X150689933Y-135890281D01*
X151287625Y-135643320D01*
X151745313Y-135186430D01*
X151993317Y-134589170D01*
X151993881Y-133942467D01*
X151746920Y-133344775D01*
X151325167Y-132922286D01*
X151659231Y-132588804D01*
X151891735Y-132028872D01*
X151892264Y-131422588D01*
X151660738Y-130862251D01*
X151253263Y-130454064D01*
X151659231Y-130048804D01*
X151891735Y-129488872D01*
X151892264Y-128882588D01*
X151660738Y-128322251D01*
X151253263Y-127914064D01*
X151659231Y-127508804D01*
X151891735Y-126948872D01*
X151892264Y-126342588D01*
X151660738Y-125782251D01*
X151253263Y-125374064D01*
X151659231Y-124968804D01*
X151891735Y-124408872D01*
X151892264Y-123802588D01*
X151660738Y-123242251D01*
X151253263Y-122834064D01*
X151659231Y-122428804D01*
X151891735Y-121868872D01*
X151892264Y-121262588D01*
X151660738Y-120702251D01*
X151253263Y-120294064D01*
X151659231Y-119888804D01*
X151891735Y-119328872D01*
X151892264Y-118722588D01*
X151660738Y-118162251D01*
X151253263Y-117754064D01*
X151659231Y-117348804D01*
X151891735Y-116788872D01*
X151892264Y-116182588D01*
X151660738Y-115622251D01*
X151253263Y-115214064D01*
X151659231Y-114808804D01*
X151891735Y-114248872D01*
X151892264Y-113642588D01*
X151660738Y-113082251D01*
X151253263Y-112674064D01*
X151659231Y-112268804D01*
X151891735Y-111708872D01*
X151892264Y-111102588D01*
X151660738Y-110542251D01*
X151253263Y-110134064D01*
X151659231Y-109728804D01*
X151891735Y-109168872D01*
X151892264Y-108562588D01*
X151660738Y-108002251D01*
X151253263Y-107594064D01*
X151659231Y-107188804D01*
X151891735Y-106628872D01*
X151892264Y-106022588D01*
X151660738Y-105462251D01*
X151253263Y-105054064D01*
X151659231Y-104648804D01*
X151891735Y-104088872D01*
X151892264Y-103482588D01*
X151660738Y-102922251D01*
X151253263Y-102514064D01*
X151659231Y-102108804D01*
X151891735Y-101548872D01*
X151892264Y-100942588D01*
X151660738Y-100382251D01*
X151232404Y-99953169D01*
X151205494Y-99941995D01*
X151260591Y-99776596D01*
X150368000Y-98884005D01*
X149475409Y-99776596D01*
X149530353Y-99941538D01*
X149505851Y-99951662D01*
X149076769Y-100379996D01*
X148844265Y-100939928D01*
X148843736Y-101546212D01*
X149075262Y-102106549D01*
X149482737Y-102514736D01*
X149076769Y-102919996D01*
X148844265Y-103479928D01*
X148843736Y-104086212D01*
X149075262Y-104646549D01*
X149482737Y-105054736D01*
X149076769Y-105459996D01*
X148844265Y-106019928D01*
X148843736Y-106626212D01*
X149075262Y-107186549D01*
X149482737Y-107594736D01*
X149076769Y-107999996D01*
X148844265Y-108559928D01*
X148843736Y-109166212D01*
X149075262Y-109726549D01*
X149482737Y-110134736D01*
X149076769Y-110539996D01*
X148844265Y-111099928D01*
X148843736Y-111706212D01*
X149075262Y-112266549D01*
X149482737Y-112674736D01*
X149076769Y-113079996D01*
X148844265Y-113639928D01*
X148843736Y-114246212D01*
X149075262Y-114806549D01*
X149482737Y-115214736D01*
X149076769Y-115619996D01*
X148844265Y-116179928D01*
X148843736Y-116786212D01*
X149075262Y-117346549D01*
X149482737Y-117754736D01*
X149076769Y-118159996D01*
X148844265Y-118719928D01*
X148843736Y-119326212D01*
X149075262Y-119886549D01*
X149482737Y-120294736D01*
X149076769Y-120699996D01*
X148844265Y-121259928D01*
X148843736Y-121866212D01*
X149075262Y-122426549D01*
X149482737Y-122834736D01*
X149076769Y-123239996D01*
X148844265Y-123799928D01*
X148843736Y-124406212D01*
X149075262Y-124966549D01*
X149482737Y-125374736D01*
X149076769Y-125779996D01*
X148844265Y-126339928D01*
X148843736Y-126946212D01*
X149075262Y-127506549D01*
X149482737Y-127914736D01*
X149076769Y-128319996D01*
X148844265Y-128879928D01*
X148843736Y-129486212D01*
X149075262Y-130046549D01*
X149482737Y-130454736D01*
X149076769Y-130859996D01*
X148844265Y-131419928D01*
X148843736Y-132026212D01*
X149075262Y-132586549D01*
X149410958Y-132922831D01*
X148990687Y-133342370D01*
X148742683Y-133939630D01*
X148742119Y-134586333D01*
X136753319Y-134586333D01*
X136753881Y-133942467D01*
X136506920Y-133344775D01*
X136085167Y-132922286D01*
X136419231Y-132588804D01*
X136651735Y-132028872D01*
X136652264Y-131422588D01*
X136420738Y-130862251D01*
X136013263Y-130454064D01*
X136419231Y-130048804D01*
X136651735Y-129488872D01*
X136652264Y-128882588D01*
X136420738Y-128322251D01*
X136013263Y-127914064D01*
X136419231Y-127508804D01*
X136651735Y-126948872D01*
X136652264Y-126342588D01*
X136420738Y-125782251D01*
X136013263Y-125374064D01*
X136419231Y-124968804D01*
X136651735Y-124408872D01*
X136652264Y-123802588D01*
X136420738Y-123242251D01*
X136013263Y-122834064D01*
X136419231Y-122428804D01*
X136651735Y-121868872D01*
X136652264Y-121262588D01*
X136420738Y-120702251D01*
X136013263Y-120294064D01*
X136419231Y-119888804D01*
X136651735Y-119328872D01*
X136652264Y-118722588D01*
X136420738Y-118162251D01*
X136013263Y-117754064D01*
X136419231Y-117348804D01*
X136651735Y-116788872D01*
X136652264Y-116182588D01*
X136420738Y-115622251D01*
X136013263Y-115214064D01*
X136419231Y-114808804D01*
X136651735Y-114248872D01*
X136652264Y-113642588D01*
X136420738Y-113082251D01*
X136013263Y-112674064D01*
X136419231Y-112268804D01*
X136651735Y-111708872D01*
X136652264Y-111102588D01*
X136420738Y-110542251D01*
X136013263Y-110134064D01*
X136419231Y-109728804D01*
X136651735Y-109168872D01*
X136652264Y-108562588D01*
X136420738Y-108002251D01*
X136013263Y-107594064D01*
X136419231Y-107188804D01*
X136651735Y-106628872D01*
X136652264Y-106022588D01*
X136420738Y-105462251D01*
X135992404Y-105033169D01*
X135965494Y-105021995D01*
X136020591Y-104856596D01*
X135128000Y-103964005D01*
X134235409Y-104856596D01*
X134290353Y-105021538D01*
X134265851Y-105031662D01*
X133836769Y-105459996D01*
X133604265Y-106019928D01*
X133603736Y-106626212D01*
X133835262Y-107186549D01*
X134242737Y-107594736D01*
X133836769Y-107999996D01*
X133604265Y-108559928D01*
X133603736Y-109166212D01*
X133835262Y-109726549D01*
X134242737Y-110134736D01*
X133836769Y-110539996D01*
X133604265Y-111099928D01*
X133603736Y-111706212D01*
X133835262Y-112266549D01*
X134242737Y-112674736D01*
X133836769Y-113079996D01*
X133604265Y-113639928D01*
X133603736Y-114246212D01*
X133835262Y-114806549D01*
X134242737Y-115214736D01*
X133836769Y-115619996D01*
X133604265Y-116179928D01*
X133603736Y-116786212D01*
X133835262Y-117346549D01*
X134242737Y-117754736D01*
X133836769Y-118159996D01*
X133604265Y-118719928D01*
X133603736Y-119326212D01*
X133835262Y-119886549D01*
X134242737Y-120294736D01*
X133836769Y-120699996D01*
X133604265Y-121259928D01*
X133603736Y-121866212D01*
X133835262Y-122426549D01*
X134242737Y-122834736D01*
X133836769Y-123239996D01*
X133604265Y-123799928D01*
X133603736Y-124406212D01*
X133835262Y-124966549D01*
X134242737Y-125374736D01*
X133836769Y-125779996D01*
X133604265Y-126339928D01*
X133603736Y-126946212D01*
X133835262Y-127506549D01*
X134242737Y-127914736D01*
X133836769Y-128319996D01*
X133604265Y-128879928D01*
X133603736Y-129486212D01*
X133835262Y-130046549D01*
X134242737Y-130454736D01*
X133836769Y-130859996D01*
X133604265Y-131419928D01*
X133603736Y-132026212D01*
X133835262Y-132586549D01*
X134170958Y-132922831D01*
X133750687Y-133342370D01*
X133502683Y-133939630D01*
X133502119Y-134586333D01*
X130787269Y-134586333D01*
X130784047Y-134576662D01*
X130808549Y-134566538D01*
X131237631Y-134138204D01*
X131470135Y-133578272D01*
X131470664Y-132971988D01*
X131239138Y-132411651D01*
X130831663Y-132003464D01*
X131237631Y-131598204D01*
X131470135Y-131038272D01*
X131470664Y-130431988D01*
X131239138Y-129871651D01*
X130831663Y-129463464D01*
X131237631Y-129058204D01*
X131470135Y-128498272D01*
X131470664Y-127891988D01*
X131239138Y-127331651D01*
X130810804Y-126902569D01*
X130250872Y-126670065D01*
X129644588Y-126669536D01*
X129084251Y-126901062D01*
X128655169Y-127329396D01*
X128422665Y-127889328D01*
X128422136Y-128495612D01*
X128653662Y-129055949D01*
X129061137Y-129464136D01*
X128655169Y-129869396D01*
X128422665Y-130429328D01*
X128422136Y-131035612D01*
X128653662Y-131595949D01*
X129061137Y-132004136D01*
X128655169Y-132409396D01*
X128559996Y-132638598D01*
X128545910Y-132648010D01*
X128545908Y-132648013D01*
X124596210Y-136597710D01*
X124404367Y-136884825D01*
X124404367Y-136884826D01*
X124336999Y-137223500D01*
X113191455Y-137223500D01*
X113051663Y-137083464D01*
X113457631Y-136678204D01*
X113690135Y-136118272D01*
X113690664Y-135511988D01*
X113504989Y-135062619D01*
X119430613Y-135062619D01*
X119770155Y-135884372D01*
X120398321Y-136513636D01*
X121219481Y-136854611D01*
X122108619Y-136855387D01*
X122930372Y-136515845D01*
X123559636Y-135887679D01*
X123900611Y-135066519D01*
X123901387Y-134177381D01*
X123561845Y-133355628D01*
X122933679Y-132726364D01*
X122112519Y-132385389D01*
X121223381Y-132384613D01*
X120401628Y-132724155D01*
X119772364Y-133352321D01*
X119431389Y-134173481D01*
X119430613Y-135062619D01*
X113504989Y-135062619D01*
X113459138Y-134951651D01*
X113051663Y-134543464D01*
X113457631Y-134138204D01*
X113690135Y-133578272D01*
X113690664Y-132971988D01*
X113459138Y-132411651D01*
X113051663Y-132003464D01*
X113457631Y-131598204D01*
X113690135Y-131038272D01*
X113690664Y-130431988D01*
X113459138Y-129871651D01*
X113030804Y-129442569D01*
X112470872Y-129210065D01*
X111864588Y-129209536D01*
X111304251Y-129441062D01*
X110875169Y-129869396D01*
X110642665Y-130429328D01*
X110642136Y-131035612D01*
X100226690Y-131035612D01*
X106960179Y-124302123D01*
X110641916Y-124302123D01*
X111066381Y-125329406D01*
X111851660Y-126116057D01*
X112878201Y-126542314D01*
X113989723Y-126543284D01*
X115017006Y-126118819D01*
X115803657Y-125333540D01*
X116229914Y-124306999D01*
X116229918Y-124302123D01*
X125881916Y-124302123D01*
X126306381Y-125329406D01*
X127091660Y-126116057D01*
X128118201Y-126542314D01*
X129229723Y-126543284D01*
X130257006Y-126118819D01*
X131043657Y-125333540D01*
X131469914Y-124306999D01*
X131470884Y-123195477D01*
X131046419Y-122168194D01*
X130261140Y-121381543D01*
X129234599Y-120955286D01*
X128123077Y-120954316D01*
X127095794Y-121378781D01*
X126309143Y-122164060D01*
X125882886Y-123190601D01*
X125881916Y-124302123D01*
X116229918Y-124302123D01*
X116230884Y-123195477D01*
X115806419Y-122168194D01*
X115021140Y-121381543D01*
X113994599Y-120955286D01*
X112883077Y-120954316D01*
X111855794Y-121378781D01*
X111069143Y-122164060D01*
X110642886Y-123190601D01*
X110641916Y-124302123D01*
X106960179Y-124302123D01*
X107344401Y-123917901D01*
X107509148Y-123671339D01*
X107567000Y-123380500D01*
X107567000Y-116014500D01*
X107509148Y-115723661D01*
X107344401Y-115477099D01*
X102296500Y-110429198D01*
X102296500Y-105178412D01*
X110946936Y-105178412D01*
X111178462Y-105738749D01*
X111585937Y-106146936D01*
X111179969Y-106552196D01*
X110947465Y-107112128D01*
X110946936Y-107718412D01*
X111178462Y-108278749D01*
X111585937Y-108686936D01*
X111179969Y-109092196D01*
X110947465Y-109652128D01*
X110946936Y-110258412D01*
X111178462Y-110818749D01*
X111585937Y-111226936D01*
X111179969Y-111632196D01*
X110947465Y-112192128D01*
X110946936Y-112798412D01*
X111178462Y-113358749D01*
X111606796Y-113787831D01*
X112166728Y-114020335D01*
X112773012Y-114020864D01*
X113333349Y-113789338D01*
X113762431Y-113361004D01*
X113994935Y-112801072D01*
X113995337Y-112339470D01*
X114375783Y-112339470D01*
X114742366Y-113226669D01*
X115420561Y-113906049D01*
X116307119Y-114274180D01*
X117267070Y-114275017D01*
X118154269Y-113908434D01*
X118833649Y-113230239D01*
X119201780Y-112343681D01*
X119201783Y-112339470D01*
X124535783Y-112339470D01*
X124902366Y-113226669D01*
X125580561Y-113906049D01*
X126467119Y-114274180D01*
X127427070Y-114275017D01*
X128314269Y-113908434D01*
X128993649Y-113230239D01*
X129361780Y-112343681D01*
X129362617Y-111383730D01*
X128996034Y-110496531D01*
X128317839Y-109817151D01*
X127431281Y-109449020D01*
X126471330Y-109448183D01*
X125584131Y-109814766D01*
X124904751Y-110492961D01*
X124536620Y-111379519D01*
X124535783Y-112339470D01*
X119201783Y-112339470D01*
X119202617Y-111383730D01*
X118836034Y-110496531D01*
X118157839Y-109817151D01*
X117271281Y-109449020D01*
X116311330Y-109448183D01*
X115424131Y-109814766D01*
X114744751Y-110492961D01*
X114376620Y-111379519D01*
X114375783Y-112339470D01*
X113995337Y-112339470D01*
X113995464Y-112194788D01*
X113763938Y-111634451D01*
X113356463Y-111226264D01*
X113762431Y-110821004D01*
X113994935Y-110261072D01*
X113995464Y-109654788D01*
X113763938Y-109094451D01*
X113356463Y-108686264D01*
X113762431Y-108281004D01*
X113994935Y-107721072D01*
X113995464Y-107114788D01*
X113763938Y-106554451D01*
X113356463Y-106146264D01*
X113762431Y-105741004D01*
X113994935Y-105181072D01*
X113995235Y-104836619D01*
X119430613Y-104836619D01*
X119770155Y-105658372D01*
X120398321Y-106287636D01*
X121219481Y-106628611D01*
X122108619Y-106629387D01*
X122930372Y-106289845D01*
X123559636Y-105661679D01*
X123900611Y-104840519D01*
X123901387Y-103951381D01*
X123734038Y-103546365D01*
X133592484Y-103546365D01*
X133618277Y-104152100D01*
X133800461Y-104591933D01*
X134055804Y-104676991D01*
X134948395Y-103784400D01*
X135307605Y-103784400D01*
X136200196Y-104676991D01*
X136455539Y-104591933D01*
X136663516Y-104022435D01*
X136637723Y-103416700D01*
X136455539Y-102976867D01*
X136200196Y-102891809D01*
X135307605Y-103784400D01*
X134948395Y-103784400D01*
X134055804Y-102891809D01*
X133800461Y-102976867D01*
X133592484Y-103546365D01*
X123734038Y-103546365D01*
X123561845Y-103129628D01*
X122933679Y-102500364D01*
X122112519Y-102159389D01*
X121223381Y-102158613D01*
X120401628Y-102498155D01*
X119772364Y-103126321D01*
X119431389Y-103947481D01*
X119430613Y-104836619D01*
X113995235Y-104836619D01*
X113995464Y-104574788D01*
X113763938Y-104014451D01*
X113335604Y-103585369D01*
X113308694Y-103574195D01*
X113363791Y-103408796D01*
X112471200Y-102516205D01*
X111578609Y-103408796D01*
X111633553Y-103573738D01*
X111609051Y-103583862D01*
X111179969Y-104012196D01*
X110947465Y-104572128D01*
X110946936Y-105178412D01*
X102296500Y-105178412D01*
X102296500Y-102616000D01*
X102238648Y-102325161D01*
X102087242Y-102098565D01*
X110935684Y-102098565D01*
X110961477Y-102704300D01*
X111143661Y-103144133D01*
X111399004Y-103229191D01*
X112291595Y-102336600D01*
X112650805Y-102336600D01*
X113543396Y-103229191D01*
X113798739Y-103144133D01*
X114006716Y-102574635D01*
X113980923Y-101968900D01*
X113798739Y-101529067D01*
X113543396Y-101444009D01*
X112650805Y-102336600D01*
X112291595Y-102336600D01*
X111399004Y-101444009D01*
X111143661Y-101529067D01*
X110935684Y-102098565D01*
X102087242Y-102098565D01*
X102073901Y-102078599D01*
X100219701Y-100224399D01*
X99973139Y-100059652D01*
X99682300Y-100001800D01*
X97005554Y-100001800D01*
X96811747Y-99711746D01*
X96329978Y-99389839D01*
X95761693Y-99276800D01*
X95703507Y-99276800D01*
X95135222Y-99389839D01*
X94653453Y-99711746D01*
X94331546Y-100193515D01*
X94218507Y-100761800D01*
X94331546Y-101330085D01*
X94653453Y-101811854D01*
X94982626Y-102031800D01*
X94653453Y-102251746D01*
X94331546Y-102733515D01*
X94218507Y-103301800D01*
X94331546Y-103870085D01*
X94653453Y-104351854D01*
X94982626Y-104571800D01*
X94653453Y-104791746D01*
X94331546Y-105273515D01*
X94218507Y-105841800D01*
X94331546Y-106410085D01*
X94653453Y-106891854D01*
X94695052Y-106919650D01*
X94647283Y-106928638D01*
X94431159Y-107067710D01*
X94286169Y-107279910D01*
X94235160Y-107531800D01*
X94235160Y-109231800D01*
X94279438Y-109467117D01*
X94418510Y-109683241D01*
X94630710Y-109828231D01*
X94882600Y-109879240D01*
X96582600Y-109879240D01*
X96817917Y-109834962D01*
X97034041Y-109695890D01*
X97179031Y-109483690D01*
X97230040Y-109231800D01*
X97230040Y-109141800D01*
X98287998Y-109141800D01*
X99426494Y-110280296D01*
X99426494Y-111303188D01*
X99484346Y-111594027D01*
X99649093Y-111840589D01*
X104696994Y-116888490D01*
X104696994Y-122506510D01*
X97363093Y-129840411D01*
X97198346Y-130086973D01*
X97140494Y-130377812D01*
X97140494Y-157907994D01*
X97198346Y-158198833D01*
X97363093Y-158445395D01*
X98812698Y-159895000D01*
X94234000Y-159895000D01*
X93943161Y-159952852D01*
X93696599Y-160117599D01*
X91918599Y-161895599D01*
X91753852Y-162142161D01*
X91696000Y-162433000D01*
X91696000Y-168468198D01*
X88648698Y-171515500D01*
X80832802Y-171515500D01*
X79213901Y-169896599D01*
X78967339Y-169731852D01*
X78676500Y-169674000D01*
X77276803Y-169674000D01*
X76609424Y-169006621D01*
X79857160Y-169006621D01*
X80243037Y-169940515D01*
X80956927Y-170655652D01*
X81890146Y-171043159D01*
X82900621Y-171044040D01*
X83834515Y-170658163D01*
X84549652Y-169944273D01*
X84937159Y-169011054D01*
X84938040Y-168000579D01*
X84552163Y-167066685D01*
X83838273Y-166351548D01*
X82905054Y-165964041D01*
X82208355Y-165963434D01*
X82274191Y-165765796D01*
X81381600Y-164873205D01*
X80489009Y-165765796D01*
X80574067Y-166021139D01*
X81143565Y-166229116D01*
X81263250Y-166224020D01*
X80960685Y-166349037D01*
X80245548Y-167062927D01*
X79858041Y-167996146D01*
X79857160Y-169006621D01*
X76609424Y-169006621D01*
X72825801Y-165222999D01*
X72579239Y-165058252D01*
X72288400Y-165000400D01*
X68278154Y-165000400D01*
X68084347Y-164710346D01*
X67743647Y-164482698D01*
X67801422Y-164455565D01*
X79846084Y-164455565D01*
X79871877Y-165061300D01*
X80054061Y-165501133D01*
X80309404Y-165586191D01*
X81201995Y-164693600D01*
X81561205Y-164693600D01*
X82453796Y-165586191D01*
X82709139Y-165501133D01*
X82917116Y-164931635D01*
X82891323Y-164325900D01*
X82709139Y-163886067D01*
X82453796Y-163801009D01*
X81561205Y-164693600D01*
X81201995Y-164693600D01*
X80309404Y-163801009D01*
X80054061Y-163886067D01*
X79846084Y-164455565D01*
X67801422Y-164455565D01*
X67886558Y-164415583D01*
X68276845Y-163987324D01*
X68446676Y-163577290D01*
X68325355Y-163347400D01*
X67132200Y-163347400D01*
X67132200Y-163367400D01*
X66878200Y-163367400D01*
X66878200Y-163347400D01*
X65685045Y-163347400D01*
X65563724Y-163577290D01*
X65733555Y-163987324D01*
X66123842Y-164415583D01*
X66266753Y-164482698D01*
X65926053Y-164710346D01*
X65604146Y-165192115D01*
X65491107Y-165760400D01*
X62992000Y-165760400D01*
X62992000Y-162863510D01*
X65563724Y-162863510D01*
X65685045Y-163093400D01*
X66878200Y-163093400D01*
X66878200Y-161899581D01*
X67132200Y-161899581D01*
X67132200Y-163093400D01*
X68325355Y-163093400D01*
X68446676Y-162863510D01*
X68276845Y-162453476D01*
X67886558Y-162025217D01*
X67362092Y-161778914D01*
X67132200Y-161899581D01*
X66878200Y-161899581D01*
X66648308Y-161778914D01*
X66123842Y-162025217D01*
X65733555Y-162453476D01*
X65563724Y-162863510D01*
X62992000Y-162863510D01*
X62992000Y-154112619D01*
X63804613Y-154112619D01*
X64144155Y-154934372D01*
X64772321Y-155563636D01*
X65593481Y-155904611D01*
X66482619Y-155905387D01*
X67304372Y-155565845D01*
X67933636Y-154937679D01*
X68274611Y-154116519D01*
X68275387Y-153227381D01*
X67935845Y-152405628D01*
X67307679Y-151776364D01*
X66486519Y-151435389D01*
X65597381Y-151434613D01*
X64775628Y-151774155D01*
X64146364Y-152402321D01*
X63805389Y-153223481D01*
X63804613Y-154112619D01*
X62992000Y-154112619D01*
X62992000Y-147422890D01*
X64141324Y-147422890D01*
X64311155Y-147832924D01*
X64701442Y-148261183D01*
X65225908Y-148507486D01*
X65455800Y-148386819D01*
X65455800Y-147193000D01*
X65709800Y-147193000D01*
X65709800Y-148386819D01*
X65939692Y-148507486D01*
X66464158Y-148261183D01*
X66852800Y-147834729D01*
X67241442Y-148261183D01*
X67765908Y-148507486D01*
X67995800Y-148386819D01*
X67995800Y-147193000D01*
X68249800Y-147193000D01*
X68249800Y-148386819D01*
X68479692Y-148507486D01*
X69004158Y-148261183D01*
X69394445Y-147832924D01*
X69564276Y-147422890D01*
X69442955Y-147193000D01*
X68249800Y-147193000D01*
X67995800Y-147193000D01*
X65709800Y-147193000D01*
X65455800Y-147193000D01*
X64262645Y-147193000D01*
X64141324Y-147422890D01*
X62992000Y-147422890D01*
X62992000Y-144526000D01*
X64068707Y-144526000D01*
X64181746Y-145094285D01*
X64503653Y-145576054D01*
X64844353Y-145803702D01*
X64701442Y-145870817D01*
X64311155Y-146299076D01*
X64141324Y-146709110D01*
X64262645Y-146939000D01*
X65455800Y-146939000D01*
X65455800Y-146919000D01*
X65709800Y-146919000D01*
X65709800Y-146939000D01*
X67995800Y-146939000D01*
X67995800Y-146919000D01*
X68249800Y-146919000D01*
X68249800Y-146939000D01*
X69442955Y-146939000D01*
X69564276Y-146709110D01*
X69394445Y-146299076D01*
X69004158Y-145870817D01*
X68861247Y-145803702D01*
X69201947Y-145576054D01*
X69523854Y-145094285D01*
X69604813Y-144687275D01*
X69984803Y-144687275D01*
X70157233Y-145104586D01*
X70476235Y-145424145D01*
X70893244Y-145597303D01*
X71344775Y-145597697D01*
X71762086Y-145425267D01*
X72081645Y-145106265D01*
X72254803Y-144689256D01*
X72254899Y-144579181D01*
X76698787Y-140135292D01*
X76698790Y-140135290D01*
X76890633Y-139848175D01*
X76901810Y-139791984D01*
X76958001Y-139509500D01*
X76958000Y-139509495D01*
X76958000Y-137055412D01*
X79857336Y-137055412D01*
X80088862Y-137615749D01*
X80496337Y-138023936D01*
X80090369Y-138429196D01*
X79857865Y-138989128D01*
X79857336Y-139595412D01*
X80088862Y-140155749D01*
X80496337Y-140563936D01*
X80090369Y-140969196D01*
X79857865Y-141529128D01*
X79857336Y-142135412D01*
X80088862Y-142695749D01*
X80496337Y-143103936D01*
X80090369Y-143509196D01*
X79857865Y-144069128D01*
X79857336Y-144675412D01*
X80088862Y-145235749D01*
X80496337Y-145643936D01*
X80090369Y-146049196D01*
X79857865Y-146609128D01*
X79857336Y-147215412D01*
X80088862Y-147775749D01*
X80496337Y-148183936D01*
X80090369Y-148589196D01*
X79857865Y-149149128D01*
X79857336Y-149755412D01*
X80088862Y-150315749D01*
X80496337Y-150723936D01*
X80090369Y-151129196D01*
X79857865Y-151689128D01*
X79857336Y-152295412D01*
X80088862Y-152855749D01*
X80496337Y-153263936D01*
X80090369Y-153669196D01*
X79857865Y-154229128D01*
X79857336Y-154835412D01*
X80088862Y-155395749D01*
X80496337Y-155803936D01*
X80090369Y-156209196D01*
X79857865Y-156769128D01*
X79857336Y-157375412D01*
X80088862Y-157935749D01*
X80496337Y-158343936D01*
X80090369Y-158749196D01*
X79857865Y-159309128D01*
X79857336Y-159915412D01*
X80088862Y-160475749D01*
X80496337Y-160883936D01*
X80090369Y-161289196D01*
X79857865Y-161849128D01*
X79857336Y-162455412D01*
X80088862Y-163015749D01*
X80517196Y-163444831D01*
X80544106Y-163456005D01*
X80489009Y-163621404D01*
X81381600Y-164513995D01*
X82274191Y-163621404D01*
X82219247Y-163456462D01*
X82243749Y-163446338D01*
X82672831Y-163018004D01*
X82905335Y-162458072D01*
X82905864Y-161851788D01*
X82674338Y-161291451D01*
X82266863Y-160883264D01*
X82672831Y-160478004D01*
X82905335Y-159918072D01*
X82905864Y-159311788D01*
X82674338Y-158751451D01*
X82266863Y-158343264D01*
X82672831Y-157938004D01*
X82905335Y-157378072D01*
X82905864Y-156771788D01*
X82674338Y-156211451D01*
X82266863Y-155803264D01*
X82672831Y-155398004D01*
X82905335Y-154838072D01*
X82905864Y-154231788D01*
X82674338Y-153671451D01*
X82266863Y-153263264D01*
X82672831Y-152858004D01*
X82905335Y-152298072D01*
X82905864Y-151691788D01*
X82674338Y-151131451D01*
X82266863Y-150723264D01*
X82672831Y-150318004D01*
X82905335Y-149758072D01*
X82905864Y-149151788D01*
X82674338Y-148591451D01*
X82266863Y-148183264D01*
X82672831Y-147778004D01*
X82905335Y-147218072D01*
X82905864Y-146611788D01*
X82674338Y-146051451D01*
X82266863Y-145643264D01*
X82672831Y-145238004D01*
X82905335Y-144678072D01*
X82905864Y-144071788D01*
X82674338Y-143511451D01*
X82266863Y-143103264D01*
X82672831Y-142698004D01*
X82905335Y-142138072D01*
X82905864Y-141531788D01*
X82674338Y-140971451D01*
X82266863Y-140563264D01*
X82672831Y-140158004D01*
X82905335Y-139598072D01*
X82905864Y-138991788D01*
X82674338Y-138431451D01*
X82266863Y-138023264D01*
X82672831Y-137618004D01*
X82905335Y-137058072D01*
X82905864Y-136451788D01*
X82674338Y-135891451D01*
X82246004Y-135462369D01*
X82219094Y-135451195D01*
X82274191Y-135285796D01*
X81381600Y-134393205D01*
X80489009Y-135285796D01*
X80543953Y-135450738D01*
X80519451Y-135460862D01*
X80090369Y-135889196D01*
X79857865Y-136449128D01*
X79857336Y-137055412D01*
X76958000Y-137055412D01*
X76958000Y-133975565D01*
X79846084Y-133975565D01*
X79871877Y-134581300D01*
X80054061Y-135021133D01*
X80309404Y-135106191D01*
X81201995Y-134213600D01*
X81561205Y-134213600D01*
X82453796Y-135106191D01*
X82709139Y-135021133D01*
X82917116Y-134451635D01*
X82891323Y-133845900D01*
X82709139Y-133406067D01*
X82453796Y-133321009D01*
X81561205Y-134213600D01*
X81201995Y-134213600D01*
X80309404Y-133321009D01*
X80054061Y-133406067D01*
X79846084Y-133975565D01*
X76958000Y-133975565D01*
X76958000Y-131430580D01*
X78369979Y-130018600D01*
X80111673Y-130018600D01*
X80496337Y-130403936D01*
X80090369Y-130809196D01*
X79857865Y-131369128D01*
X79857336Y-131975412D01*
X80088862Y-132535749D01*
X80517196Y-132964831D01*
X80544106Y-132976005D01*
X80489009Y-133141404D01*
X81381600Y-134033995D01*
X82274191Y-133141404D01*
X82219247Y-132976462D01*
X82243749Y-132966338D01*
X82672831Y-132538004D01*
X82905335Y-131978072D01*
X82905864Y-131371788D01*
X82674338Y-130811451D01*
X82266863Y-130403264D01*
X82401762Y-130268600D01*
X82816468Y-130268600D01*
X94055307Y-141507439D01*
X94055260Y-141561785D01*
X94265669Y-142071015D01*
X94654936Y-142460961D01*
X95163798Y-142672259D01*
X95714785Y-142672740D01*
X96224015Y-142462331D01*
X96613961Y-142073064D01*
X96825259Y-141564202D01*
X96825740Y-141013215D01*
X96615331Y-140503985D01*
X96226064Y-140114039D01*
X95717202Y-139902741D01*
X95660824Y-139902692D01*
X84089166Y-128331034D01*
X83846162Y-128168664D01*
X83720946Y-128084997D01*
X83286600Y-127998600D01*
X82401963Y-127998600D01*
X82266863Y-127863264D01*
X82672831Y-127458004D01*
X82905335Y-126898072D01*
X82905864Y-126291788D01*
X82674338Y-125731451D01*
X82267086Y-125323488D01*
X82900621Y-125324040D01*
X83834515Y-124938163D01*
X84549652Y-124224273D01*
X84937159Y-123291054D01*
X84937162Y-123286621D01*
X97637160Y-123286621D01*
X98023037Y-124220515D01*
X98736927Y-124935652D01*
X99670146Y-125323159D01*
X100680621Y-125324040D01*
X101614515Y-124938163D01*
X102329652Y-124224273D01*
X102717159Y-123291054D01*
X102718040Y-122280579D01*
X102332163Y-121346685D01*
X101618273Y-120631548D01*
X100685054Y-120244041D01*
X99674579Y-120243160D01*
X98740685Y-120629037D01*
X98025548Y-121342927D01*
X97638041Y-122276146D01*
X97637160Y-123286621D01*
X84937162Y-123286621D01*
X84938040Y-122280579D01*
X84552163Y-121346685D01*
X83838273Y-120631548D01*
X82905054Y-120244041D01*
X81894579Y-120243160D01*
X80960685Y-120629037D01*
X80245548Y-121342927D01*
X79858041Y-122276146D01*
X79857160Y-123286621D01*
X80243037Y-124220515D01*
X80956927Y-124935652D01*
X81279293Y-125069510D01*
X81079788Y-125069336D01*
X80519451Y-125300862D01*
X80090369Y-125729196D01*
X79857865Y-126289128D01*
X79857336Y-126895412D01*
X80088862Y-127455749D01*
X80496337Y-127863936D01*
X80111001Y-128248600D01*
X78003405Y-128248600D01*
X78003400Y-128248599D01*
X77720916Y-128304790D01*
X77664725Y-128315967D01*
X77377610Y-128507810D01*
X77377608Y-128507813D01*
X75447210Y-130438210D01*
X75255367Y-130725325D01*
X75255367Y-130725326D01*
X75187999Y-131064000D01*
X75188000Y-131064005D01*
X75188000Y-139142921D01*
X71003523Y-143327397D01*
X70895225Y-143327303D01*
X70477914Y-143499733D01*
X70158355Y-143818735D01*
X69985197Y-144235744D01*
X69984803Y-144687275D01*
X69604813Y-144687275D01*
X69636893Y-144526000D01*
X69523854Y-143957715D01*
X69201947Y-143475946D01*
X68872774Y-143256000D01*
X69201947Y-143036054D01*
X69523854Y-142554285D01*
X69636893Y-141986000D01*
X69523854Y-141417715D01*
X69201947Y-140935946D01*
X68720178Y-140614039D01*
X68151893Y-140501000D01*
X68093707Y-140501000D01*
X67525422Y-140614039D01*
X67043653Y-140935946D01*
X67042829Y-140937179D01*
X67035962Y-140900683D01*
X66896890Y-140684559D01*
X66684690Y-140539569D01*
X66432800Y-140488560D01*
X64732800Y-140488560D01*
X64497483Y-140532838D01*
X64281359Y-140671910D01*
X64136369Y-140884110D01*
X64085360Y-141136000D01*
X64085360Y-142836000D01*
X64129638Y-143071317D01*
X64268710Y-143287441D01*
X64480910Y-143432431D01*
X64548341Y-143446086D01*
X64503653Y-143475946D01*
X64181746Y-143957715D01*
X64068707Y-144526000D01*
X62992000Y-144526000D01*
X62992000Y-97558412D01*
X110946936Y-97558412D01*
X111178462Y-98118749D01*
X111585937Y-98526936D01*
X111179969Y-98932196D01*
X110947465Y-99492128D01*
X110946936Y-100098412D01*
X111178462Y-100658749D01*
X111606796Y-101087831D01*
X111633706Y-101099005D01*
X111578609Y-101264404D01*
X112471200Y-102156995D01*
X113363791Y-101264404D01*
X113308847Y-101099462D01*
X113333349Y-101089338D01*
X113762431Y-100661004D01*
X113994935Y-100101072D01*
X113995464Y-99494788D01*
X113763938Y-98934451D01*
X113356463Y-98526264D01*
X113513530Y-98369470D01*
X114375783Y-98369470D01*
X114742366Y-99256669D01*
X115420561Y-99936049D01*
X116307119Y-100304180D01*
X117267070Y-100305017D01*
X118154269Y-99938434D01*
X118833649Y-99260239D01*
X119201780Y-98373681D01*
X119201783Y-98369470D01*
X124535783Y-98369470D01*
X124902366Y-99256669D01*
X125580561Y-99936049D01*
X126467119Y-100304180D01*
X127427070Y-100305017D01*
X128314269Y-99938434D01*
X128993649Y-99260239D01*
X129361780Y-98373681D01*
X129362617Y-97413730D01*
X128996034Y-96526531D01*
X128317839Y-95847151D01*
X127431281Y-95479020D01*
X126471330Y-95478183D01*
X125584131Y-95844766D01*
X124904751Y-96522961D01*
X124536620Y-97409519D01*
X124535783Y-98369470D01*
X119201783Y-98369470D01*
X119202617Y-97413730D01*
X118836034Y-96526531D01*
X118157839Y-95847151D01*
X117271281Y-95479020D01*
X116311330Y-95478183D01*
X115424131Y-95844766D01*
X114744751Y-96522961D01*
X114376620Y-97409519D01*
X114375783Y-98369470D01*
X113513530Y-98369470D01*
X113762431Y-98121004D01*
X113994935Y-97561072D01*
X113995464Y-96954788D01*
X113763938Y-96394451D01*
X113335604Y-95965369D01*
X112775672Y-95732865D01*
X112169388Y-95732336D01*
X111609051Y-95963862D01*
X111179969Y-96392196D01*
X110947465Y-96952128D01*
X110946936Y-97558412D01*
X62992000Y-97558412D01*
X62992000Y-95692619D01*
X63804613Y-95692619D01*
X64144155Y-96514372D01*
X64772321Y-97143636D01*
X65593481Y-97484611D01*
X66482619Y-97485387D01*
X67304372Y-97145845D01*
X67933636Y-96517679D01*
X68274611Y-95696519D01*
X68275387Y-94807381D01*
X67935845Y-93985628D01*
X67896619Y-93946333D01*
X133502119Y-93946333D01*
X133749080Y-94544025D01*
X134170833Y-94966514D01*
X133836769Y-95299996D01*
X133604265Y-95859928D01*
X133603736Y-96466212D01*
X133835262Y-97026549D01*
X134242737Y-97434736D01*
X133836769Y-97839996D01*
X133604265Y-98399928D01*
X133603736Y-99006212D01*
X133835262Y-99566549D01*
X134242737Y-99974736D01*
X133836769Y-100379996D01*
X133604265Y-100939928D01*
X133603736Y-101546212D01*
X133835262Y-102106549D01*
X134263596Y-102535631D01*
X134290506Y-102546805D01*
X134235409Y-102712204D01*
X135128000Y-103604795D01*
X136020591Y-102712204D01*
X135965647Y-102547262D01*
X135990149Y-102537138D01*
X136419231Y-102108804D01*
X136651735Y-101548872D01*
X136652264Y-100942588D01*
X136420738Y-100382251D01*
X136013263Y-99974064D01*
X136398599Y-99589400D01*
X139293595Y-99589400D01*
X139293600Y-99589401D01*
X139576084Y-99533210D01*
X139632275Y-99522033D01*
X139919390Y-99330190D01*
X140783214Y-98466365D01*
X148832484Y-98466365D01*
X148858277Y-99072100D01*
X149040461Y-99511933D01*
X149295804Y-99596991D01*
X150188395Y-98704400D01*
X150547605Y-98704400D01*
X151440196Y-99596991D01*
X151695539Y-99511933D01*
X151903516Y-98942435D01*
X151877723Y-98336700D01*
X151695539Y-97896867D01*
X151659242Y-97884776D01*
X155064362Y-97884776D01*
X155624188Y-99239658D01*
X156659890Y-100277169D01*
X158013793Y-100839359D01*
X159479776Y-100840638D01*
X160834658Y-100280812D01*
X161328630Y-99787701D01*
X162996904Y-99787701D01*
X163345584Y-100267545D01*
X164696892Y-100835941D01*
X166162854Y-100843948D01*
X167520291Y-100290346D01*
X167554416Y-100267545D01*
X167903096Y-99787701D01*
X165450000Y-97334605D01*
X162996904Y-99787701D01*
X161328630Y-99787701D01*
X161872169Y-99245110D01*
X162099480Y-98697684D01*
X162314654Y-99225291D01*
X162337455Y-99259416D01*
X162817299Y-99608096D01*
X165270395Y-97155000D01*
X165629605Y-97155000D01*
X168082701Y-99608096D01*
X168562545Y-99259416D01*
X169130941Y-97908108D01*
X169138948Y-96442146D01*
X168585346Y-95084709D01*
X168562545Y-95050584D01*
X168082701Y-94701904D01*
X165629605Y-97155000D01*
X165270395Y-97155000D01*
X162817299Y-94701904D01*
X162337455Y-95050584D01*
X162100457Y-95614024D01*
X161875812Y-95070342D01*
X161328725Y-94522299D01*
X162996904Y-94522299D01*
X165450000Y-96975395D01*
X167903096Y-94522299D01*
X167554416Y-94042455D01*
X166203108Y-93474059D01*
X164737146Y-93466052D01*
X163379709Y-94019654D01*
X163345584Y-94042455D01*
X162996904Y-94522299D01*
X161328725Y-94522299D01*
X160840110Y-94032831D01*
X159486207Y-93470641D01*
X158020224Y-93469362D01*
X156665342Y-94029188D01*
X155627831Y-95064890D01*
X155065641Y-96418793D01*
X155064362Y-97884776D01*
X151659242Y-97884776D01*
X151440196Y-97811809D01*
X150547605Y-98704400D01*
X150188395Y-98704400D01*
X149295804Y-97811809D01*
X149040461Y-97896867D01*
X148832484Y-98466365D01*
X140783214Y-98466365D01*
X145303246Y-93946333D01*
X148742119Y-93946333D01*
X148989080Y-94544025D01*
X149410833Y-94966514D01*
X149076769Y-95299996D01*
X148844265Y-95859928D01*
X148843736Y-96466212D01*
X149075262Y-97026549D01*
X149503596Y-97455631D01*
X149530506Y-97466805D01*
X149475409Y-97632204D01*
X150368000Y-98524795D01*
X151260591Y-97632204D01*
X151205647Y-97467262D01*
X151230149Y-97457138D01*
X151659231Y-97028804D01*
X151891735Y-96468872D01*
X151892264Y-95862588D01*
X151660738Y-95302251D01*
X151325042Y-94965969D01*
X151745313Y-94546430D01*
X151993317Y-93949170D01*
X151993881Y-93302467D01*
X151931966Y-93152619D01*
X174294613Y-93152619D01*
X174634155Y-93974372D01*
X175262321Y-94603636D01*
X176083481Y-94944611D01*
X176972619Y-94945387D01*
X177794372Y-94605845D01*
X178423636Y-93977679D01*
X178764611Y-93156519D01*
X178765387Y-92267381D01*
X178425845Y-91445628D01*
X177797679Y-90816364D01*
X176976519Y-90475389D01*
X176087381Y-90474613D01*
X175265628Y-90814155D01*
X174636364Y-91442321D01*
X174295389Y-92263481D01*
X174294613Y-93152619D01*
X151931966Y-93152619D01*
X151746920Y-92704775D01*
X151290030Y-92247087D01*
X150692770Y-91999083D01*
X150046067Y-91998519D01*
X149448375Y-92245480D01*
X148990687Y-92702370D01*
X148742683Y-93299630D01*
X148742119Y-93946333D01*
X145303246Y-93946333D01*
X150889803Y-88359776D01*
X155064362Y-88359776D01*
X155624188Y-89714658D01*
X156659890Y-90752169D01*
X158013793Y-91314359D01*
X159479776Y-91315638D01*
X160834658Y-90755812D01*
X161328630Y-90262701D01*
X162996904Y-90262701D01*
X163345584Y-90742545D01*
X164696892Y-91310941D01*
X166162854Y-91318948D01*
X167520291Y-90765346D01*
X167554416Y-90742545D01*
X167903096Y-90262701D01*
X165450000Y-87809605D01*
X162996904Y-90262701D01*
X161328630Y-90262701D01*
X161872169Y-89720110D01*
X162099480Y-89172684D01*
X162314654Y-89700291D01*
X162337455Y-89734416D01*
X162817299Y-90083096D01*
X165270395Y-87630000D01*
X165629605Y-87630000D01*
X168082701Y-90083096D01*
X168562545Y-89734416D01*
X169130941Y-88383108D01*
X169138948Y-86917146D01*
X168585346Y-85559709D01*
X168562545Y-85525584D01*
X168082701Y-85176904D01*
X165629605Y-87630000D01*
X165270395Y-87630000D01*
X162817299Y-85176904D01*
X162337455Y-85525584D01*
X162100457Y-86089024D01*
X161875812Y-85545342D01*
X161328725Y-84997299D01*
X162996904Y-84997299D01*
X165450000Y-87450395D01*
X167903096Y-84997299D01*
X167554416Y-84517455D01*
X166203108Y-83949059D01*
X164737146Y-83941052D01*
X163379709Y-84494654D01*
X163345584Y-84517455D01*
X162996904Y-84997299D01*
X161328725Y-84997299D01*
X160840110Y-84507831D01*
X159486207Y-83945641D01*
X158020224Y-83944362D01*
X156665342Y-84504188D01*
X155627831Y-85539890D01*
X155065641Y-86893793D01*
X155064362Y-88359776D01*
X150889803Y-88359776D01*
X151946287Y-87303292D01*
X151946290Y-87303290D01*
X152138133Y-87016175D01*
X152157831Y-86917146D01*
X152205501Y-86677500D01*
X152205500Y-86677495D01*
X152205500Y-72517005D01*
X152205501Y-72517000D01*
X152138134Y-72178326D01*
X152074475Y-72083054D01*
X151946290Y-71891210D01*
X151946287Y-71891208D01*
X149279290Y-69224210D01*
X148992175Y-69032367D01*
X148935984Y-69021190D01*
X148653500Y-68964999D01*
X148653495Y-68965000D01*
X148001432Y-68965000D01*
X147891147Y-68799946D01*
X147561974Y-68580000D01*
X147891147Y-68360054D01*
X148213054Y-67878285D01*
X148326093Y-67310000D01*
X148213054Y-66741715D01*
X147891147Y-66259946D01*
X147561974Y-66040000D01*
X147891147Y-65820054D01*
X148213054Y-65338285D01*
X148326093Y-64770000D01*
X148213054Y-64201715D01*
X147891147Y-63719946D01*
X147561974Y-63500000D01*
X147891147Y-63280054D01*
X148213054Y-62798285D01*
X148326093Y-62230000D01*
X148213054Y-61661715D01*
X147891147Y-61179946D01*
X147847223Y-61150597D01*
X148021698Y-61078327D01*
X148200327Y-60899699D01*
X148297000Y-60666310D01*
X148297000Y-59975750D01*
X148138250Y-59817000D01*
X146939000Y-59817000D01*
X146939000Y-59837000D01*
X146685000Y-59837000D01*
X146685000Y-59817000D01*
X144399000Y-59817000D01*
X144399000Y-59837000D01*
X144145000Y-59837000D01*
X144145000Y-59817000D01*
X142951845Y-59817000D01*
X142830524Y-60046890D01*
X143000355Y-60456924D01*
X143390642Y-60885183D01*
X143533553Y-60952298D01*
X143192853Y-61179946D01*
X142870946Y-61661715D01*
X142757907Y-62230000D01*
X142870946Y-62798285D01*
X143192853Y-63280054D01*
X143522026Y-63500000D01*
X143192853Y-63719946D01*
X142870946Y-64201715D01*
X142757907Y-64770000D01*
X142870946Y-65338285D01*
X143192853Y-65820054D01*
X143522026Y-66040000D01*
X143192853Y-66259946D01*
X142870946Y-66741715D01*
X142757907Y-67310000D01*
X142870946Y-67878285D01*
X143192853Y-68360054D01*
X143522026Y-68580000D01*
X143192853Y-68799946D01*
X142870946Y-69281715D01*
X142757907Y-69850000D01*
X142870946Y-70418285D01*
X143192853Y-70900054D01*
X143522026Y-71120000D01*
X143192853Y-71339946D01*
X142870946Y-71821715D01*
X142757907Y-72390000D01*
X142870946Y-72958285D01*
X143192853Y-73440054D01*
X143522026Y-73660000D01*
X143192853Y-73879946D01*
X142870946Y-74361715D01*
X142757907Y-74930000D01*
X142870946Y-75498285D01*
X143192853Y-75980054D01*
X143533553Y-76207702D01*
X143390642Y-76274817D01*
X143000355Y-76703076D01*
X142830524Y-77113110D01*
X142951845Y-77343000D01*
X144145000Y-77343000D01*
X144145000Y-77323000D01*
X144399000Y-77323000D01*
X144399000Y-77343000D01*
X144419000Y-77343000D01*
X144419000Y-77597000D01*
X144399000Y-77597000D01*
X144399000Y-78790819D01*
X144628892Y-78911486D01*
X145153358Y-78665183D01*
X145543645Y-78236924D01*
X145543655Y-78236899D01*
X145732853Y-78520054D01*
X146214622Y-78841961D01*
X146782907Y-78955000D01*
X146841093Y-78955000D01*
X147409378Y-78841961D01*
X147891147Y-78520054D01*
X148213054Y-78038285D01*
X148326093Y-77470000D01*
X148213054Y-76901715D01*
X147891147Y-76419946D01*
X147561974Y-76200000D01*
X147891147Y-75980054D01*
X148213054Y-75498285D01*
X148326093Y-74930000D01*
X148213054Y-74361715D01*
X147891147Y-73879946D01*
X147561974Y-73660000D01*
X147891147Y-73440054D01*
X148213054Y-72958285D01*
X148326093Y-72390000D01*
X148213054Y-71821715D01*
X147891147Y-71339946D01*
X147561974Y-71120000D01*
X147891147Y-70900054D01*
X148001432Y-70735000D01*
X148286920Y-70735000D01*
X150435500Y-72883579D01*
X150435500Y-79569928D01*
X150378267Y-79431414D01*
X150059265Y-79111855D01*
X149642256Y-78938697D01*
X149190725Y-78938303D01*
X148773414Y-79110733D01*
X148453855Y-79429735D01*
X148280697Y-79846744D01*
X148280303Y-80298275D01*
X148452733Y-80715586D01*
X148530500Y-80793489D01*
X148530500Y-83707421D01*
X136958520Y-95279400D01*
X136397927Y-95279400D01*
X136085042Y-94965969D01*
X136505313Y-94546430D01*
X136753317Y-93949170D01*
X136753881Y-93302467D01*
X136506920Y-92704775D01*
X136050030Y-92247087D01*
X135452770Y-91999083D01*
X134806067Y-91998519D01*
X134208375Y-92245480D01*
X133750687Y-92702370D01*
X133502683Y-93299630D01*
X133502119Y-93946333D01*
X67896619Y-93946333D01*
X67307679Y-93356364D01*
X66486519Y-93015389D01*
X65597381Y-93014613D01*
X64775628Y-93354155D01*
X64146364Y-93982321D01*
X63805389Y-94803481D01*
X63804613Y-95692619D01*
X62992000Y-95692619D01*
X62992000Y-81659119D01*
X129273113Y-81659119D01*
X129612655Y-82480872D01*
X130240821Y-83110136D01*
X131061981Y-83451111D01*
X131951119Y-83451887D01*
X132772872Y-83112345D01*
X133402136Y-82484179D01*
X133743111Y-81663019D01*
X133743887Y-80773881D01*
X133404345Y-79952128D01*
X132776179Y-79322864D01*
X131955019Y-78981889D01*
X131065881Y-78981113D01*
X130244128Y-79320655D01*
X129614864Y-79948821D01*
X129273889Y-80769981D01*
X129273113Y-81659119D01*
X62992000Y-81659119D01*
X62992000Y-77826890D01*
X142830524Y-77826890D01*
X143000355Y-78236924D01*
X143390642Y-78665183D01*
X143915108Y-78911486D01*
X144145000Y-78790819D01*
X144145000Y-77597000D01*
X142951845Y-77597000D01*
X142830524Y-77826890D01*
X62992000Y-77826890D01*
X62992000Y-69022619D01*
X91998613Y-69022619D01*
X92338155Y-69844372D01*
X92966321Y-70473636D01*
X93787481Y-70814611D01*
X94676619Y-70815387D01*
X95498372Y-70475845D01*
X96127636Y-69847679D01*
X96468611Y-69026519D01*
X96469387Y-68137381D01*
X96129845Y-67315628D01*
X95501679Y-66686364D01*
X94680519Y-66345389D01*
X93791381Y-66344613D01*
X92969628Y-66684155D01*
X92340364Y-67312321D01*
X91999389Y-68133481D01*
X91998613Y-69022619D01*
X62992000Y-69022619D01*
X62992000Y-59333110D01*
X142830524Y-59333110D01*
X142951845Y-59563000D01*
X144145000Y-59563000D01*
X144145000Y-58369181D01*
X144399000Y-58369181D01*
X144399000Y-59563000D01*
X146685000Y-59563000D01*
X146685000Y-58363750D01*
X146939000Y-58363750D01*
X146939000Y-59563000D01*
X148138250Y-59563000D01*
X148297000Y-59404250D01*
X148297000Y-58713690D01*
X148200327Y-58480301D01*
X148021698Y-58301673D01*
X147788309Y-58205000D01*
X147097750Y-58205000D01*
X146939000Y-58363750D01*
X146685000Y-58363750D01*
X146526250Y-58205000D01*
X145835691Y-58205000D01*
X145602302Y-58301673D01*
X145423673Y-58480301D01*
X145335070Y-58694208D01*
X145153358Y-58494817D01*
X144628892Y-58248514D01*
X144399000Y-58369181D01*
X144145000Y-58369181D01*
X143915108Y-58248514D01*
X143390642Y-58494817D01*
X143000355Y-58923076D01*
X142830524Y-59333110D01*
X62992000Y-59333110D01*
X62992000Y-55052619D01*
X63804613Y-55052619D01*
X64144155Y-55874372D01*
X64772321Y-56503636D01*
X65593481Y-56844611D01*
X66482619Y-56845387D01*
X67304372Y-56505845D01*
X67551529Y-56259119D01*
X129273113Y-56259119D01*
X129612655Y-57080872D01*
X130240821Y-57710136D01*
X131061981Y-58051111D01*
X131951119Y-58051887D01*
X132772872Y-57712345D01*
X133402136Y-57084179D01*
X133743111Y-56263019D01*
X133743887Y-55373881D01*
X133611145Y-55052619D01*
X174294613Y-55052619D01*
X174634155Y-55874372D01*
X175262321Y-56503636D01*
X176083481Y-56844611D01*
X176972619Y-56845387D01*
X177794372Y-56505845D01*
X178423636Y-55877679D01*
X178764611Y-55056519D01*
X178765387Y-54167381D01*
X178425845Y-53345628D01*
X177797679Y-52716364D01*
X176976519Y-52375389D01*
X176087381Y-52374613D01*
X175265628Y-52714155D01*
X174636364Y-53342321D01*
X174295389Y-54163481D01*
X174294613Y-55052619D01*
X133611145Y-55052619D01*
X133404345Y-54552128D01*
X132776179Y-53922864D01*
X131955019Y-53581889D01*
X131065881Y-53581113D01*
X130244128Y-53920655D01*
X129614864Y-54548821D01*
X129273889Y-55369981D01*
X129273113Y-56259119D01*
X67551529Y-56259119D01*
X67933636Y-55877679D01*
X68274611Y-55056519D01*
X68275387Y-54167381D01*
X67935845Y-53345628D01*
X67307679Y-52716364D01*
X66486519Y-52375389D01*
X65597381Y-52374613D01*
X64775628Y-52714155D01*
X64146364Y-53342321D01*
X63805389Y-54163481D01*
X63804613Y-55052619D01*
X62992000Y-55052619D01*
X62992000Y-51562000D01*
X180213000Y-51562000D01*
X180213000Y-179578000D01*
X180213000Y-179578000D01*
G37*
X180213000Y-179578000D02*
X62992000Y-179578000D01*
X62992000Y-176337619D01*
X63804613Y-176337619D01*
X64144155Y-177159372D01*
X64772321Y-177788636D01*
X65593481Y-178129611D01*
X66482619Y-178130387D01*
X67304372Y-177790845D01*
X67933636Y-177162679D01*
X68274611Y-176341519D01*
X68274614Y-176337619D01*
X98094613Y-176337619D01*
X98434155Y-177159372D01*
X99062321Y-177788636D01*
X99883481Y-178129611D01*
X100772619Y-178130387D01*
X101594372Y-177790845D01*
X102223636Y-177162679D01*
X102564611Y-176341519D01*
X102565387Y-175452381D01*
X102226916Y-174633219D01*
X109981604Y-174633219D01*
X110328894Y-175473723D01*
X110971395Y-176117346D01*
X111811292Y-176466102D01*
X112720719Y-176466896D01*
X113033592Y-176337619D01*
X137337613Y-176337619D01*
X137677155Y-177159372D01*
X138305321Y-177788636D01*
X139126481Y-178129611D01*
X140015619Y-178130387D01*
X140837372Y-177790845D01*
X141466636Y-177162679D01*
X141807611Y-176341519D01*
X141807614Y-176337619D01*
X174294613Y-176337619D01*
X174634155Y-177159372D01*
X175262321Y-177788636D01*
X176083481Y-178129611D01*
X176972619Y-178130387D01*
X177794372Y-177790845D01*
X178423636Y-177162679D01*
X178764611Y-176341519D01*
X178765387Y-175452381D01*
X178425845Y-174630628D01*
X177797679Y-174001364D01*
X176976519Y-173660389D01*
X176087381Y-173659613D01*
X175265628Y-173999155D01*
X174636364Y-174627321D01*
X174295389Y-175448481D01*
X174294613Y-176337619D01*
X141807614Y-176337619D01*
X141808387Y-175452381D01*
X141468845Y-174630628D01*
X140840679Y-174001364D01*
X140019519Y-173660389D01*
X139130381Y-173659613D01*
X138308628Y-173999155D01*
X137679364Y-174627321D01*
X137338389Y-175448481D01*
X137337613Y-176337619D01*
X113033592Y-176337619D01*
X113561223Y-176119606D01*
X114204846Y-175477105D01*
X114553602Y-174637208D01*
X114553737Y-174482312D01*
X123443736Y-174482312D01*
X123675262Y-175042649D01*
X124103596Y-175471731D01*
X124663528Y-175704235D01*
X125269812Y-175704764D01*
X125830149Y-175473238D01*
X126259231Y-175044904D01*
X126491735Y-174484972D01*
X126492264Y-173878688D01*
X126260738Y-173318351D01*
X125832404Y-172889269D01*
X125805494Y-172878095D01*
X125860591Y-172712696D01*
X124968000Y-171820105D01*
X124075409Y-172712696D01*
X124130353Y-172877638D01*
X124105851Y-172887762D01*
X123676769Y-173316096D01*
X123444265Y-173876028D01*
X123443736Y-174482312D01*
X114553737Y-174482312D01*
X114554396Y-173727781D01*
X114207106Y-172887277D01*
X113564605Y-172243654D01*
X112724708Y-171894898D01*
X111815281Y-171894104D01*
X110974777Y-172241394D01*
X110331154Y-172883895D01*
X109982398Y-173723792D01*
X109981604Y-174633219D01*
X102226916Y-174633219D01*
X102225845Y-174630628D01*
X101597679Y-174001364D01*
X100776519Y-173660389D01*
X99887381Y-173659613D01*
X99065628Y-173999155D01*
X98436364Y-174627321D01*
X98095389Y-175448481D01*
X98094613Y-176337619D01*
X68274614Y-176337619D01*
X68275387Y-175452381D01*
X67935845Y-174630628D01*
X67307679Y-174001364D01*
X66486519Y-173660389D01*
X65597381Y-173659613D01*
X64775628Y-173999155D01*
X64146364Y-174627321D01*
X63805389Y-175448481D01*
X63804613Y-176337619D01*
X62992000Y-176337619D01*
X62992000Y-165760400D01*
X65491107Y-165760400D01*
X65604146Y-166328685D01*
X65926053Y-166810454D01*
X65967652Y-166838250D01*
X65919883Y-166847238D01*
X65703759Y-166986310D01*
X65558769Y-167198510D01*
X65507760Y-167450400D01*
X65507760Y-169150400D01*
X65552038Y-169385717D01*
X65691110Y-169601841D01*
X65903310Y-169746831D01*
X66155200Y-169797840D01*
X67855200Y-169797840D01*
X68090517Y-169753562D01*
X68306641Y-169614490D01*
X68451631Y-169402290D01*
X68502640Y-169150400D01*
X68502640Y-169060400D01*
X72164098Y-169060400D01*
X77440599Y-174336901D01*
X77687161Y-174501648D01*
X77978000Y-174559500D01*
X90106500Y-174559500D01*
X90397339Y-174501648D01*
X90643901Y-174336901D01*
X93578337Y-171402465D01*
X123432484Y-171402465D01*
X123458277Y-172008200D01*
X123640461Y-172448033D01*
X123895804Y-172533091D01*
X124788395Y-171640500D01*
X125147605Y-171640500D01*
X126040196Y-172533091D01*
X126295539Y-172448033D01*
X126503516Y-171878535D01*
X126477723Y-171272800D01*
X126295539Y-170832967D01*
X126040196Y-170747909D01*
X125147605Y-171640500D01*
X124788395Y-171640500D01*
X123895804Y-170747909D01*
X123640461Y-170832967D01*
X123432484Y-171402465D01*
X93578337Y-171402465D01*
X94390401Y-170590401D01*
X94555148Y-170343839D01*
X94613000Y-170053000D01*
X94613000Y-167573802D01*
X95056802Y-167130000D01*
X97997697Y-167130000D01*
X97638041Y-167996146D01*
X97637160Y-169006621D01*
X98023037Y-169940515D01*
X98736927Y-170655652D01*
X99670146Y-171043159D01*
X100680621Y-171044040D01*
X101614515Y-170658163D01*
X102329652Y-169944273D01*
X102717159Y-169011054D01*
X102718040Y-168000579D01*
X102332163Y-167066685D01*
X101618273Y-166351548D01*
X101295907Y-166217690D01*
X101495412Y-166217864D01*
X102055749Y-165986338D01*
X102464199Y-165578600D01*
X118099020Y-165578600D01*
X119706708Y-167186287D01*
X119706710Y-167186290D01*
X119993825Y-167378133D01*
X120332500Y-167445500D01*
X123698073Y-167445500D01*
X124082737Y-167830836D01*
X123676769Y-168236096D01*
X123444265Y-168796028D01*
X123443736Y-169402312D01*
X123675262Y-169962649D01*
X124103596Y-170391731D01*
X124130506Y-170402905D01*
X124075409Y-170568304D01*
X124968000Y-171460895D01*
X125860591Y-170568304D01*
X125805647Y-170403362D01*
X125830149Y-170393238D01*
X126259231Y-169964904D01*
X126339908Y-169770612D01*
X129539736Y-169770612D01*
X129771262Y-170330949D01*
X130199596Y-170760031D01*
X130759528Y-170992535D01*
X131365812Y-170993064D01*
X131926149Y-170761538D01*
X132355231Y-170333204D01*
X132518036Y-169941125D01*
X138838587Y-169941125D01*
X139200916Y-170818029D01*
X139871242Y-171489526D01*
X140747513Y-171853385D01*
X141696325Y-171854213D01*
X142573229Y-171491884D01*
X143244726Y-170821558D01*
X143608585Y-169945287D01*
X143609413Y-168996475D01*
X143351126Y-168371372D01*
X172795738Y-168371372D01*
X173200909Y-169351961D01*
X173950493Y-170102855D01*
X174930373Y-170509736D01*
X175991372Y-170510662D01*
X176971961Y-170105491D01*
X177722855Y-169355907D01*
X178129736Y-168376027D01*
X178130662Y-167315028D01*
X177725491Y-166334439D01*
X176975907Y-165583545D01*
X175996027Y-165176664D01*
X174935028Y-165175738D01*
X173954439Y-165580909D01*
X173203545Y-166330493D01*
X172796664Y-167310373D01*
X172795738Y-168371372D01*
X143351126Y-168371372D01*
X143247084Y-168119571D01*
X142576758Y-167448074D01*
X141700487Y-167084215D01*
X140751675Y-167083387D01*
X139874771Y-167445716D01*
X139203274Y-168116042D01*
X138839415Y-168992313D01*
X138838587Y-169941125D01*
X132518036Y-169941125D01*
X132587735Y-169773272D01*
X132588264Y-169166988D01*
X132356738Y-168606651D01*
X131928404Y-168177569D01*
X131901494Y-168166395D01*
X131956591Y-168000996D01*
X131064000Y-167108405D01*
X130171409Y-168000996D01*
X130226353Y-168165938D01*
X130201851Y-168176062D01*
X129772769Y-168604396D01*
X129540265Y-169164328D01*
X129539736Y-169770612D01*
X126339908Y-169770612D01*
X126491735Y-169404972D01*
X126492264Y-168798688D01*
X126260738Y-168238351D01*
X125853263Y-167830164D01*
X126259231Y-167424904D01*
X126491735Y-166864972D01*
X126491887Y-166690765D01*
X129528484Y-166690765D01*
X129554277Y-167296500D01*
X129736461Y-167736333D01*
X129991804Y-167821391D01*
X130884395Y-166928800D01*
X131243605Y-166928800D01*
X132136196Y-167821391D01*
X132391539Y-167736333D01*
X132599516Y-167166835D01*
X132573723Y-166561100D01*
X132391539Y-166121267D01*
X132136196Y-166036209D01*
X131243605Y-166928800D01*
X130884395Y-166928800D01*
X129991804Y-166036209D01*
X129736461Y-166121267D01*
X129528484Y-166690765D01*
X126491887Y-166690765D01*
X126492264Y-166258688D01*
X126260738Y-165698351D01*
X125853263Y-165290164D01*
X126259231Y-164884904D01*
X126491735Y-164324972D01*
X126492264Y-163718688D01*
X126260738Y-163158351D01*
X125853263Y-162750164D01*
X126259231Y-162344904D01*
X126491735Y-161784972D01*
X126492264Y-161178688D01*
X126260738Y-160618351D01*
X125853263Y-160210164D01*
X126259231Y-159804904D01*
X126491735Y-159244972D01*
X126492264Y-158638688D01*
X126260738Y-158078351D01*
X125853263Y-157670164D01*
X126259231Y-157264904D01*
X126491735Y-156704972D01*
X126492264Y-156098688D01*
X126260738Y-155538351D01*
X125832404Y-155109269D01*
X125272472Y-154876765D01*
X124666188Y-154876236D01*
X124105851Y-155107762D01*
X123676769Y-155536096D01*
X123444265Y-156096028D01*
X123443736Y-156702312D01*
X123675262Y-157262649D01*
X124082737Y-157670836D01*
X123676769Y-158076096D01*
X123444265Y-158636028D01*
X123443736Y-159242312D01*
X123675262Y-159802649D01*
X124082737Y-160210836D01*
X123676769Y-160616096D01*
X123444265Y-161176028D01*
X123443736Y-161782312D01*
X123675262Y-162342649D01*
X124082737Y-162750836D01*
X123676769Y-163156096D01*
X123444265Y-163716028D01*
X123443736Y-164322312D01*
X123675262Y-164882649D01*
X124082737Y-165290836D01*
X123697401Y-165675500D01*
X120699079Y-165675500D01*
X119091390Y-164067810D01*
X118804275Y-163875967D01*
X118748084Y-163864790D01*
X118465600Y-163808599D01*
X118465595Y-163808600D01*
X102463527Y-163808600D01*
X102078863Y-163423264D01*
X102484831Y-163018004D01*
X102717335Y-162458072D01*
X102717864Y-161851788D01*
X102486338Y-161291451D01*
X102078863Y-160883264D01*
X102484831Y-160478004D01*
X102717335Y-159918072D01*
X102717864Y-159311788D01*
X102486338Y-158751451D01*
X102078863Y-158343264D01*
X102484831Y-157938004D01*
X102717335Y-157378072D01*
X102717792Y-156853219D01*
X109981604Y-156853219D01*
X110328894Y-157693723D01*
X110971395Y-158337346D01*
X111811292Y-158686102D01*
X112720719Y-158686896D01*
X113561223Y-158339606D01*
X114204846Y-157697105D01*
X114553602Y-156857208D01*
X114554396Y-155947781D01*
X114207106Y-155107277D01*
X113564605Y-154463654D01*
X112724708Y-154114898D01*
X111815281Y-154114104D01*
X110974777Y-154461394D01*
X110331154Y-155103895D01*
X109982398Y-155943792D01*
X109981604Y-156853219D01*
X102717792Y-156853219D01*
X102717864Y-156771788D01*
X102486338Y-156211451D01*
X102078863Y-155803264D01*
X102484831Y-155398004D01*
X102717335Y-154838072D01*
X102717864Y-154231788D01*
X102486338Y-153671451D01*
X102078863Y-153263264D01*
X102484831Y-152858004D01*
X102717335Y-152298072D01*
X102717864Y-151691788D01*
X102486338Y-151131451D01*
X102078863Y-150723264D01*
X102484831Y-150318004D01*
X102717335Y-149758072D01*
X102717864Y-149151788D01*
X102486338Y-148591451D01*
X102078863Y-148183264D01*
X102484831Y-147778004D01*
X102717335Y-147218072D01*
X102717864Y-146611788D01*
X102486338Y-146051451D01*
X102327288Y-145892123D01*
X110641916Y-145892123D01*
X111066381Y-146919406D01*
X111851660Y-147706057D01*
X112878201Y-148132314D01*
X113989723Y-148133284D01*
X115017006Y-147708819D01*
X115803657Y-146923540D01*
X116229914Y-145896999D01*
X116230884Y-144785477D01*
X115806419Y-143758194D01*
X115021140Y-142971543D01*
X113994599Y-142545286D01*
X112883077Y-142544316D01*
X111855794Y-142968781D01*
X111069143Y-143754060D01*
X110642886Y-144780601D01*
X110641916Y-145892123D01*
X102327288Y-145892123D01*
X102078863Y-145643264D01*
X102484831Y-145238004D01*
X102717335Y-144678072D01*
X102717864Y-144071788D01*
X102486338Y-143511451D01*
X102078863Y-143103264D01*
X102484831Y-142698004D01*
X102717335Y-142138072D01*
X102717864Y-141531788D01*
X102486338Y-140971451D01*
X102078863Y-140563264D01*
X102484831Y-140158004D01*
X102717335Y-139598072D01*
X102717864Y-138991788D01*
X102486338Y-138431451D01*
X102078863Y-138023264D01*
X102484831Y-137618004D01*
X102717335Y-137058072D01*
X102717864Y-136451788D01*
X102486338Y-135891451D01*
X102058004Y-135462369D01*
X101498072Y-135229865D01*
X100891788Y-135229336D01*
X100331451Y-135460862D01*
X100010500Y-135781254D01*
X100010500Y-131251802D01*
X100226690Y-131035612D01*
X110642136Y-131035612D01*
X110873662Y-131595949D01*
X111281137Y-132004136D01*
X110875169Y-132409396D01*
X110642665Y-132969328D01*
X110642136Y-133575612D01*
X110873662Y-134135949D01*
X111281137Y-134544136D01*
X110875169Y-134949396D01*
X110642665Y-135509328D01*
X110642136Y-136115612D01*
X110873662Y-136675949D01*
X111281137Y-137084136D01*
X110875169Y-137489396D01*
X110642665Y-138049328D01*
X110642136Y-138655612D01*
X110873662Y-139215949D01*
X111301996Y-139645031D01*
X111861928Y-139877535D01*
X112468212Y-139878064D01*
X113028549Y-139646538D01*
X113457631Y-139218204D01*
X113690135Y-138658272D01*
X113690664Y-138051988D01*
X113459138Y-137491651D01*
X113191455Y-137223500D01*
X124336999Y-137223500D01*
X124337000Y-137223505D01*
X124337000Y-148716995D01*
X124336999Y-148717000D01*
X124376623Y-148916199D01*
X124404367Y-149055675D01*
X124596210Y-149342790D01*
X127448500Y-152195079D01*
X127448500Y-160019995D01*
X127448499Y-160020000D01*
X127490616Y-160231731D01*
X127515867Y-160358675D01*
X127519533Y-160364161D01*
X127707710Y-160645790D01*
X129536508Y-162474587D01*
X129536510Y-162474590D01*
X129725884Y-162601125D01*
X129771262Y-162710949D01*
X130178737Y-163119136D01*
X129772769Y-163524396D01*
X129540265Y-164084328D01*
X129539736Y-164690612D01*
X129771262Y-165250949D01*
X130199596Y-165680031D01*
X130226506Y-165691205D01*
X130171409Y-165856604D01*
X131064000Y-166749195D01*
X131956591Y-165856604D01*
X131901647Y-165691662D01*
X131926149Y-165681538D01*
X132355231Y-165253204D01*
X132587735Y-164693272D01*
X132588264Y-164086988D01*
X132522825Y-163928612D01*
X152653736Y-163928612D01*
X152885262Y-164488949D01*
X153313596Y-164918031D01*
X153873528Y-165150535D01*
X154479812Y-165151064D01*
X155040149Y-164919538D01*
X155469231Y-164491204D01*
X155701735Y-163931272D01*
X155702264Y-163324988D01*
X155470738Y-162764651D01*
X155042404Y-162335569D01*
X155015494Y-162324395D01*
X155070591Y-162158996D01*
X154178000Y-161266405D01*
X153285409Y-162158996D01*
X153340353Y-162323938D01*
X153315851Y-162334062D01*
X152886769Y-162762396D01*
X152654265Y-163322328D01*
X152653736Y-163928612D01*
X132522825Y-163928612D01*
X132356738Y-163526651D01*
X131949263Y-163118464D01*
X132355231Y-162713204D01*
X132587735Y-162153272D01*
X132588264Y-161546988D01*
X132356738Y-160986651D01*
X132219093Y-160848765D01*
X152642484Y-160848765D01*
X152668277Y-161454500D01*
X152850461Y-161894333D01*
X153105804Y-161979391D01*
X153998395Y-161086800D01*
X154357605Y-161086800D01*
X155250196Y-161979391D01*
X155505539Y-161894333D01*
X155713516Y-161324835D01*
X155687723Y-160719100D01*
X155505539Y-160279267D01*
X155250196Y-160194209D01*
X154357605Y-161086800D01*
X153998395Y-161086800D01*
X153105804Y-160194209D01*
X152850461Y-160279267D01*
X152642484Y-160848765D01*
X132219093Y-160848765D01*
X131949263Y-160578464D01*
X132355231Y-160173204D01*
X132587735Y-159613272D01*
X132588264Y-159006988D01*
X132356738Y-158446651D01*
X131949263Y-158038464D01*
X132355231Y-157633204D01*
X132518036Y-157241125D01*
X138828587Y-157241125D01*
X139190916Y-158118029D01*
X139861242Y-158789526D01*
X140737513Y-159153385D01*
X141686325Y-159154213D01*
X142563229Y-158791884D01*
X143234726Y-158121558D01*
X143598585Y-157245287D01*
X143599413Y-156296475D01*
X143237084Y-155419571D01*
X142566758Y-154748074D01*
X141690487Y-154384215D01*
X140741675Y-154383387D01*
X139864771Y-154745716D01*
X139193274Y-155416042D01*
X138829415Y-156292313D01*
X138828587Y-157241125D01*
X132518036Y-157241125D01*
X132587735Y-157073272D01*
X132588264Y-156466988D01*
X132356738Y-155906651D01*
X131928404Y-155477569D01*
X131368472Y-155245065D01*
X130762188Y-155244536D01*
X130201851Y-155476062D01*
X129772769Y-155904396D01*
X129540265Y-156464328D01*
X129539736Y-157070612D01*
X129771262Y-157630949D01*
X130178737Y-158039136D01*
X129772769Y-158444396D01*
X129540265Y-159004328D01*
X129539736Y-159610612D01*
X129771262Y-160170949D01*
X130178737Y-160579136D01*
X130161461Y-160596382D01*
X129218500Y-159653420D01*
X129218500Y-154112619D01*
X145084613Y-154112619D01*
X145424155Y-154934372D01*
X146052321Y-155563636D01*
X146873481Y-155904611D01*
X147762619Y-155905387D01*
X148584372Y-155565845D01*
X149213636Y-154937679D01*
X149554611Y-154116519D01*
X149554914Y-153768612D01*
X152653736Y-153768612D01*
X152885262Y-154328949D01*
X153292737Y-154737136D01*
X152886769Y-155142396D01*
X152654265Y-155702328D01*
X152653736Y-156308612D01*
X152885262Y-156868949D01*
X153292737Y-157277136D01*
X152886769Y-157682396D01*
X152654265Y-158242328D01*
X152653736Y-158848612D01*
X152885262Y-159408949D01*
X153313596Y-159838031D01*
X153340506Y-159849205D01*
X153285409Y-160014604D01*
X154178000Y-160907195D01*
X155070591Y-160014604D01*
X155015647Y-159849662D01*
X155040149Y-159839538D01*
X155469231Y-159411204D01*
X155701735Y-158851272D01*
X155702264Y-158244988D01*
X155470738Y-157684651D01*
X155063263Y-157276464D01*
X155469231Y-156871204D01*
X155701735Y-156311272D01*
X155702264Y-155704988D01*
X155470738Y-155144651D01*
X155063263Y-154736464D01*
X155469231Y-154331204D01*
X155701735Y-153771272D01*
X155702264Y-153164988D01*
X155470738Y-152604651D01*
X155042404Y-152175569D01*
X154482472Y-151943065D01*
X153876188Y-151942536D01*
X153315851Y-152174062D01*
X152886769Y-152602396D01*
X152654265Y-153162328D01*
X152653736Y-153768612D01*
X149554914Y-153768612D01*
X149555387Y-153227381D01*
X149215845Y-152405628D01*
X148587679Y-151776364D01*
X147766519Y-151435389D01*
X146877381Y-151434613D01*
X146055628Y-151774155D01*
X145426364Y-152402321D01*
X145085389Y-153223481D01*
X145084613Y-154112619D01*
X129218500Y-154112619D01*
X129218500Y-151828500D01*
X129151133Y-151489825D01*
X128959290Y-151202710D01*
X128959287Y-151202708D01*
X126107000Y-148350420D01*
X126107000Y-146436867D01*
X126306381Y-146919406D01*
X127091660Y-147706057D01*
X128118201Y-148132314D01*
X129229723Y-148133284D01*
X130257006Y-147708819D01*
X131043657Y-146923540D01*
X131469914Y-145896999D01*
X131470884Y-144785477D01*
X131046419Y-143758194D01*
X130261140Y-142971543D01*
X129234599Y-142545286D01*
X128123077Y-142544316D01*
X127095794Y-142968781D01*
X126309143Y-143754060D01*
X126107000Y-144240874D01*
X126107000Y-138655612D01*
X128422136Y-138655612D01*
X128653662Y-139215949D01*
X129061137Y-139624136D01*
X128655169Y-140029396D01*
X128422665Y-140589328D01*
X128422136Y-141195612D01*
X128653662Y-141755949D01*
X129081996Y-142185031D01*
X129641928Y-142417535D01*
X130248212Y-142418064D01*
X130808549Y-142186538D01*
X131237631Y-141758204D01*
X131470135Y-141198272D01*
X131470664Y-140591988D01*
X131239138Y-140031651D01*
X130831663Y-139623464D01*
X131237631Y-139218204D01*
X131470135Y-138658272D01*
X131470664Y-138051988D01*
X131239138Y-137491651D01*
X130810804Y-137062569D01*
X130783894Y-137051395D01*
X130838991Y-136885996D01*
X129946400Y-135993405D01*
X129053809Y-136885996D01*
X129108753Y-137050938D01*
X129084251Y-137061062D01*
X128655169Y-137489396D01*
X128422665Y-138049328D01*
X128422136Y-138655612D01*
X126107000Y-138655612D01*
X126107000Y-137590080D01*
X128577469Y-135119611D01*
X128410884Y-135575765D01*
X128436677Y-136181500D01*
X128618861Y-136621333D01*
X128874204Y-136706391D01*
X129766795Y-135813800D01*
X130126005Y-135813800D01*
X131018596Y-136706391D01*
X131273939Y-136621333D01*
X131481916Y-136051835D01*
X131456123Y-135446100D01*
X131273939Y-135006267D01*
X131018596Y-134921209D01*
X130126005Y-135813800D01*
X129766795Y-135813800D01*
X129752653Y-135799658D01*
X129932258Y-135620053D01*
X129946400Y-135634195D01*
X130838991Y-134741604D01*
X130787269Y-134586333D01*
X133502119Y-134586333D01*
X133749080Y-135184025D01*
X134205970Y-135641713D01*
X134803230Y-135889717D01*
X135449933Y-135890281D01*
X136047625Y-135643320D01*
X136505313Y-135186430D01*
X136753317Y-134589170D01*
X136753319Y-134586333D01*
X148742119Y-134586333D01*
X148989080Y-135184025D01*
X149445970Y-135641713D01*
X150043230Y-135889717D01*
X150689933Y-135890281D01*
X151287625Y-135643320D01*
X151745313Y-135186430D01*
X151993317Y-134589170D01*
X151993881Y-133942467D01*
X151746920Y-133344775D01*
X151325167Y-132922286D01*
X151659231Y-132588804D01*
X151891735Y-132028872D01*
X151892264Y-131422588D01*
X151660738Y-130862251D01*
X151253263Y-130454064D01*
X151659231Y-130048804D01*
X151891735Y-129488872D01*
X151892264Y-128882588D01*
X151660738Y-128322251D01*
X151253263Y-127914064D01*
X151659231Y-127508804D01*
X151891735Y-126948872D01*
X151892264Y-126342588D01*
X151660738Y-125782251D01*
X151253263Y-125374064D01*
X151659231Y-124968804D01*
X151891735Y-124408872D01*
X151892264Y-123802588D01*
X151660738Y-123242251D01*
X151253263Y-122834064D01*
X151659231Y-122428804D01*
X151891735Y-121868872D01*
X151892264Y-121262588D01*
X151660738Y-120702251D01*
X151253263Y-120294064D01*
X151659231Y-119888804D01*
X151891735Y-119328872D01*
X151892264Y-118722588D01*
X151660738Y-118162251D01*
X151253263Y-117754064D01*
X151659231Y-117348804D01*
X151891735Y-116788872D01*
X151892264Y-116182588D01*
X151660738Y-115622251D01*
X151253263Y-115214064D01*
X151659231Y-114808804D01*
X151891735Y-114248872D01*
X151892264Y-113642588D01*
X151660738Y-113082251D01*
X151253263Y-112674064D01*
X151659231Y-112268804D01*
X151891735Y-111708872D01*
X151892264Y-111102588D01*
X151660738Y-110542251D01*
X151253263Y-110134064D01*
X151659231Y-109728804D01*
X151891735Y-109168872D01*
X151892264Y-108562588D01*
X151660738Y-108002251D01*
X151253263Y-107594064D01*
X151659231Y-107188804D01*
X151891735Y-106628872D01*
X151892264Y-106022588D01*
X151660738Y-105462251D01*
X151253263Y-105054064D01*
X151659231Y-104648804D01*
X151891735Y-104088872D01*
X151892264Y-103482588D01*
X151660738Y-102922251D01*
X151253263Y-102514064D01*
X151659231Y-102108804D01*
X151891735Y-101548872D01*
X151892264Y-100942588D01*
X151660738Y-100382251D01*
X151232404Y-99953169D01*
X151205494Y-99941995D01*
X151260591Y-99776596D01*
X150368000Y-98884005D01*
X149475409Y-99776596D01*
X149530353Y-99941538D01*
X149505851Y-99951662D01*
X149076769Y-100379996D01*
X148844265Y-100939928D01*
X148843736Y-101546212D01*
X149075262Y-102106549D01*
X149482737Y-102514736D01*
X149076769Y-102919996D01*
X148844265Y-103479928D01*
X148843736Y-104086212D01*
X149075262Y-104646549D01*
X149482737Y-105054736D01*
X149076769Y-105459996D01*
X148844265Y-106019928D01*
X148843736Y-106626212D01*
X149075262Y-107186549D01*
X149482737Y-107594736D01*
X149076769Y-107999996D01*
X148844265Y-108559928D01*
X148843736Y-109166212D01*
X149075262Y-109726549D01*
X149482737Y-110134736D01*
X149076769Y-110539996D01*
X148844265Y-111099928D01*
X148843736Y-111706212D01*
X149075262Y-112266549D01*
X149482737Y-112674736D01*
X149076769Y-113079996D01*
X148844265Y-113639928D01*
X148843736Y-114246212D01*
X149075262Y-114806549D01*
X149482737Y-115214736D01*
X149076769Y-115619996D01*
X148844265Y-116179928D01*
X148843736Y-116786212D01*
X149075262Y-117346549D01*
X149482737Y-117754736D01*
X149076769Y-118159996D01*
X148844265Y-118719928D01*
X148843736Y-119326212D01*
X149075262Y-119886549D01*
X149482737Y-120294736D01*
X149076769Y-120699996D01*
X148844265Y-121259928D01*
X148843736Y-121866212D01*
X149075262Y-122426549D01*
X149482737Y-122834736D01*
X149076769Y-123239996D01*
X148844265Y-123799928D01*
X148843736Y-124406212D01*
X149075262Y-124966549D01*
X149482737Y-125374736D01*
X149076769Y-125779996D01*
X148844265Y-126339928D01*
X148843736Y-126946212D01*
X149075262Y-127506549D01*
X149482737Y-127914736D01*
X149076769Y-128319996D01*
X148844265Y-128879928D01*
X148843736Y-129486212D01*
X149075262Y-130046549D01*
X149482737Y-130454736D01*
X149076769Y-130859996D01*
X148844265Y-131419928D01*
X148843736Y-132026212D01*
X149075262Y-132586549D01*
X149410958Y-132922831D01*
X148990687Y-133342370D01*
X148742683Y-133939630D01*
X148742119Y-134586333D01*
X136753319Y-134586333D01*
X136753881Y-133942467D01*
X136506920Y-133344775D01*
X136085167Y-132922286D01*
X136419231Y-132588804D01*
X136651735Y-132028872D01*
X136652264Y-131422588D01*
X136420738Y-130862251D01*
X136013263Y-130454064D01*
X136419231Y-130048804D01*
X136651735Y-129488872D01*
X136652264Y-128882588D01*
X136420738Y-128322251D01*
X136013263Y-127914064D01*
X136419231Y-127508804D01*
X136651735Y-126948872D01*
X136652264Y-126342588D01*
X136420738Y-125782251D01*
X136013263Y-125374064D01*
X136419231Y-124968804D01*
X136651735Y-124408872D01*
X136652264Y-123802588D01*
X136420738Y-123242251D01*
X136013263Y-122834064D01*
X136419231Y-122428804D01*
X136651735Y-121868872D01*
X136652264Y-121262588D01*
X136420738Y-120702251D01*
X136013263Y-120294064D01*
X136419231Y-119888804D01*
X136651735Y-119328872D01*
X136652264Y-118722588D01*
X136420738Y-118162251D01*
X136013263Y-117754064D01*
X136419231Y-117348804D01*
X136651735Y-116788872D01*
X136652264Y-116182588D01*
X136420738Y-115622251D01*
X136013263Y-115214064D01*
X136419231Y-114808804D01*
X136651735Y-114248872D01*
X136652264Y-113642588D01*
X136420738Y-113082251D01*
X136013263Y-112674064D01*
X136419231Y-112268804D01*
X136651735Y-111708872D01*
X136652264Y-111102588D01*
X136420738Y-110542251D01*
X136013263Y-110134064D01*
X136419231Y-109728804D01*
X136651735Y-109168872D01*
X136652264Y-108562588D01*
X136420738Y-108002251D01*
X136013263Y-107594064D01*
X136419231Y-107188804D01*
X136651735Y-106628872D01*
X136652264Y-106022588D01*
X136420738Y-105462251D01*
X135992404Y-105033169D01*
X135965494Y-105021995D01*
X136020591Y-104856596D01*
X135128000Y-103964005D01*
X134235409Y-104856596D01*
X134290353Y-105021538D01*
X134265851Y-105031662D01*
X133836769Y-105459996D01*
X133604265Y-106019928D01*
X133603736Y-106626212D01*
X133835262Y-107186549D01*
X134242737Y-107594736D01*
X133836769Y-107999996D01*
X133604265Y-108559928D01*
X133603736Y-109166212D01*
X133835262Y-109726549D01*
X134242737Y-110134736D01*
X133836769Y-110539996D01*
X133604265Y-111099928D01*
X133603736Y-111706212D01*
X133835262Y-112266549D01*
X134242737Y-112674736D01*
X133836769Y-113079996D01*
X133604265Y-113639928D01*
X133603736Y-114246212D01*
X133835262Y-114806549D01*
X134242737Y-115214736D01*
X133836769Y-115619996D01*
X133604265Y-116179928D01*
X133603736Y-116786212D01*
X133835262Y-117346549D01*
X134242737Y-117754736D01*
X133836769Y-118159996D01*
X133604265Y-118719928D01*
X133603736Y-119326212D01*
X133835262Y-119886549D01*
X134242737Y-120294736D01*
X133836769Y-120699996D01*
X133604265Y-121259928D01*
X133603736Y-121866212D01*
X133835262Y-122426549D01*
X134242737Y-122834736D01*
X133836769Y-123239996D01*
X133604265Y-123799928D01*
X133603736Y-124406212D01*
X133835262Y-124966549D01*
X134242737Y-125374736D01*
X133836769Y-125779996D01*
X133604265Y-126339928D01*
X133603736Y-126946212D01*
X133835262Y-127506549D01*
X134242737Y-127914736D01*
X133836769Y-128319996D01*
X133604265Y-128879928D01*
X133603736Y-129486212D01*
X133835262Y-130046549D01*
X134242737Y-130454736D01*
X133836769Y-130859996D01*
X133604265Y-131419928D01*
X133603736Y-132026212D01*
X133835262Y-132586549D01*
X134170958Y-132922831D01*
X133750687Y-133342370D01*
X133502683Y-133939630D01*
X133502119Y-134586333D01*
X130787269Y-134586333D01*
X130784047Y-134576662D01*
X130808549Y-134566538D01*
X131237631Y-134138204D01*
X131470135Y-133578272D01*
X131470664Y-132971988D01*
X131239138Y-132411651D01*
X130831663Y-132003464D01*
X131237631Y-131598204D01*
X131470135Y-131038272D01*
X131470664Y-130431988D01*
X131239138Y-129871651D01*
X130831663Y-129463464D01*
X131237631Y-129058204D01*
X131470135Y-128498272D01*
X131470664Y-127891988D01*
X131239138Y-127331651D01*
X130810804Y-126902569D01*
X130250872Y-126670065D01*
X129644588Y-126669536D01*
X129084251Y-126901062D01*
X128655169Y-127329396D01*
X128422665Y-127889328D01*
X128422136Y-128495612D01*
X128653662Y-129055949D01*
X129061137Y-129464136D01*
X128655169Y-129869396D01*
X128422665Y-130429328D01*
X128422136Y-131035612D01*
X128653662Y-131595949D01*
X129061137Y-132004136D01*
X128655169Y-132409396D01*
X128559996Y-132638598D01*
X128545910Y-132648010D01*
X128545908Y-132648013D01*
X124596210Y-136597710D01*
X124404367Y-136884825D01*
X124404367Y-136884826D01*
X124336999Y-137223500D01*
X113191455Y-137223500D01*
X113051663Y-137083464D01*
X113457631Y-136678204D01*
X113690135Y-136118272D01*
X113690664Y-135511988D01*
X113504989Y-135062619D01*
X119430613Y-135062619D01*
X119770155Y-135884372D01*
X120398321Y-136513636D01*
X121219481Y-136854611D01*
X122108619Y-136855387D01*
X122930372Y-136515845D01*
X123559636Y-135887679D01*
X123900611Y-135066519D01*
X123901387Y-134177381D01*
X123561845Y-133355628D01*
X122933679Y-132726364D01*
X122112519Y-132385389D01*
X121223381Y-132384613D01*
X120401628Y-132724155D01*
X119772364Y-133352321D01*
X119431389Y-134173481D01*
X119430613Y-135062619D01*
X113504989Y-135062619D01*
X113459138Y-134951651D01*
X113051663Y-134543464D01*
X113457631Y-134138204D01*
X113690135Y-133578272D01*
X113690664Y-132971988D01*
X113459138Y-132411651D01*
X113051663Y-132003464D01*
X113457631Y-131598204D01*
X113690135Y-131038272D01*
X113690664Y-130431988D01*
X113459138Y-129871651D01*
X113030804Y-129442569D01*
X112470872Y-129210065D01*
X111864588Y-129209536D01*
X111304251Y-129441062D01*
X110875169Y-129869396D01*
X110642665Y-130429328D01*
X110642136Y-131035612D01*
X100226690Y-131035612D01*
X106960179Y-124302123D01*
X110641916Y-124302123D01*
X111066381Y-125329406D01*
X111851660Y-126116057D01*
X112878201Y-126542314D01*
X113989723Y-126543284D01*
X115017006Y-126118819D01*
X115803657Y-125333540D01*
X116229914Y-124306999D01*
X116229918Y-124302123D01*
X125881916Y-124302123D01*
X126306381Y-125329406D01*
X127091660Y-126116057D01*
X128118201Y-126542314D01*
X129229723Y-126543284D01*
X130257006Y-126118819D01*
X131043657Y-125333540D01*
X131469914Y-124306999D01*
X131470884Y-123195477D01*
X131046419Y-122168194D01*
X130261140Y-121381543D01*
X129234599Y-120955286D01*
X128123077Y-120954316D01*
X127095794Y-121378781D01*
X126309143Y-122164060D01*
X125882886Y-123190601D01*
X125881916Y-124302123D01*
X116229918Y-124302123D01*
X116230884Y-123195477D01*
X115806419Y-122168194D01*
X115021140Y-121381543D01*
X113994599Y-120955286D01*
X112883077Y-120954316D01*
X111855794Y-121378781D01*
X111069143Y-122164060D01*
X110642886Y-123190601D01*
X110641916Y-124302123D01*
X106960179Y-124302123D01*
X107344401Y-123917901D01*
X107509148Y-123671339D01*
X107567000Y-123380500D01*
X107567000Y-116014500D01*
X107509148Y-115723661D01*
X107344401Y-115477099D01*
X102296500Y-110429198D01*
X102296500Y-105178412D01*
X110946936Y-105178412D01*
X111178462Y-105738749D01*
X111585937Y-106146936D01*
X111179969Y-106552196D01*
X110947465Y-107112128D01*
X110946936Y-107718412D01*
X111178462Y-108278749D01*
X111585937Y-108686936D01*
X111179969Y-109092196D01*
X110947465Y-109652128D01*
X110946936Y-110258412D01*
X111178462Y-110818749D01*
X111585937Y-111226936D01*
X111179969Y-111632196D01*
X110947465Y-112192128D01*
X110946936Y-112798412D01*
X111178462Y-113358749D01*
X111606796Y-113787831D01*
X112166728Y-114020335D01*
X112773012Y-114020864D01*
X113333349Y-113789338D01*
X113762431Y-113361004D01*
X113994935Y-112801072D01*
X113995337Y-112339470D01*
X114375783Y-112339470D01*
X114742366Y-113226669D01*
X115420561Y-113906049D01*
X116307119Y-114274180D01*
X117267070Y-114275017D01*
X118154269Y-113908434D01*
X118833649Y-113230239D01*
X119201780Y-112343681D01*
X119201783Y-112339470D01*
X124535783Y-112339470D01*
X124902366Y-113226669D01*
X125580561Y-113906049D01*
X126467119Y-114274180D01*
X127427070Y-114275017D01*
X128314269Y-113908434D01*
X128993649Y-113230239D01*
X129361780Y-112343681D01*
X129362617Y-111383730D01*
X128996034Y-110496531D01*
X128317839Y-109817151D01*
X127431281Y-109449020D01*
X126471330Y-109448183D01*
X125584131Y-109814766D01*
X124904751Y-110492961D01*
X124536620Y-111379519D01*
X124535783Y-112339470D01*
X119201783Y-112339470D01*
X119202617Y-111383730D01*
X118836034Y-110496531D01*
X118157839Y-109817151D01*
X117271281Y-109449020D01*
X116311330Y-109448183D01*
X115424131Y-109814766D01*
X114744751Y-110492961D01*
X114376620Y-111379519D01*
X114375783Y-112339470D01*
X113995337Y-112339470D01*
X113995464Y-112194788D01*
X113763938Y-111634451D01*
X113356463Y-111226264D01*
X113762431Y-110821004D01*
X113994935Y-110261072D01*
X113995464Y-109654788D01*
X113763938Y-109094451D01*
X113356463Y-108686264D01*
X113762431Y-108281004D01*
X113994935Y-107721072D01*
X113995464Y-107114788D01*
X113763938Y-106554451D01*
X113356463Y-106146264D01*
X113762431Y-105741004D01*
X113994935Y-105181072D01*
X113995235Y-104836619D01*
X119430613Y-104836619D01*
X119770155Y-105658372D01*
X120398321Y-106287636D01*
X121219481Y-106628611D01*
X122108619Y-106629387D01*
X122930372Y-106289845D01*
X123559636Y-105661679D01*
X123900611Y-104840519D01*
X123901387Y-103951381D01*
X123734038Y-103546365D01*
X133592484Y-103546365D01*
X133618277Y-104152100D01*
X133800461Y-104591933D01*
X134055804Y-104676991D01*
X134948395Y-103784400D01*
X135307605Y-103784400D01*
X136200196Y-104676991D01*
X136455539Y-104591933D01*
X136663516Y-104022435D01*
X136637723Y-103416700D01*
X136455539Y-102976867D01*
X136200196Y-102891809D01*
X135307605Y-103784400D01*
X134948395Y-103784400D01*
X134055804Y-102891809D01*
X133800461Y-102976867D01*
X133592484Y-103546365D01*
X123734038Y-103546365D01*
X123561845Y-103129628D01*
X122933679Y-102500364D01*
X122112519Y-102159389D01*
X121223381Y-102158613D01*
X120401628Y-102498155D01*
X119772364Y-103126321D01*
X119431389Y-103947481D01*
X119430613Y-104836619D01*
X113995235Y-104836619D01*
X113995464Y-104574788D01*
X113763938Y-104014451D01*
X113335604Y-103585369D01*
X113308694Y-103574195D01*
X113363791Y-103408796D01*
X112471200Y-102516205D01*
X111578609Y-103408796D01*
X111633553Y-103573738D01*
X111609051Y-103583862D01*
X111179969Y-104012196D01*
X110947465Y-104572128D01*
X110946936Y-105178412D01*
X102296500Y-105178412D01*
X102296500Y-102616000D01*
X102238648Y-102325161D01*
X102087242Y-102098565D01*
X110935684Y-102098565D01*
X110961477Y-102704300D01*
X111143661Y-103144133D01*
X111399004Y-103229191D01*
X112291595Y-102336600D01*
X112650805Y-102336600D01*
X113543396Y-103229191D01*
X113798739Y-103144133D01*
X114006716Y-102574635D01*
X113980923Y-101968900D01*
X113798739Y-101529067D01*
X113543396Y-101444009D01*
X112650805Y-102336600D01*
X112291595Y-102336600D01*
X111399004Y-101444009D01*
X111143661Y-101529067D01*
X110935684Y-102098565D01*
X102087242Y-102098565D01*
X102073901Y-102078599D01*
X100219701Y-100224399D01*
X99973139Y-100059652D01*
X99682300Y-100001800D01*
X97005554Y-100001800D01*
X96811747Y-99711746D01*
X96329978Y-99389839D01*
X95761693Y-99276800D01*
X95703507Y-99276800D01*
X95135222Y-99389839D01*
X94653453Y-99711746D01*
X94331546Y-100193515D01*
X94218507Y-100761800D01*
X94331546Y-101330085D01*
X94653453Y-101811854D01*
X94982626Y-102031800D01*
X94653453Y-102251746D01*
X94331546Y-102733515D01*
X94218507Y-103301800D01*
X94331546Y-103870085D01*
X94653453Y-104351854D01*
X94982626Y-104571800D01*
X94653453Y-104791746D01*
X94331546Y-105273515D01*
X94218507Y-105841800D01*
X94331546Y-106410085D01*
X94653453Y-106891854D01*
X94695052Y-106919650D01*
X94647283Y-106928638D01*
X94431159Y-107067710D01*
X94286169Y-107279910D01*
X94235160Y-107531800D01*
X94235160Y-109231800D01*
X94279438Y-109467117D01*
X94418510Y-109683241D01*
X94630710Y-109828231D01*
X94882600Y-109879240D01*
X96582600Y-109879240D01*
X96817917Y-109834962D01*
X97034041Y-109695890D01*
X97179031Y-109483690D01*
X97230040Y-109231800D01*
X97230040Y-109141800D01*
X98287998Y-109141800D01*
X99426494Y-110280296D01*
X99426494Y-111303188D01*
X99484346Y-111594027D01*
X99649093Y-111840589D01*
X104696994Y-116888490D01*
X104696994Y-122506510D01*
X97363093Y-129840411D01*
X97198346Y-130086973D01*
X97140494Y-130377812D01*
X97140494Y-157907994D01*
X97198346Y-158198833D01*
X97363093Y-158445395D01*
X98812698Y-159895000D01*
X94234000Y-159895000D01*
X93943161Y-159952852D01*
X93696599Y-160117599D01*
X91918599Y-161895599D01*
X91753852Y-162142161D01*
X91696000Y-162433000D01*
X91696000Y-168468198D01*
X88648698Y-171515500D01*
X80832802Y-171515500D01*
X79213901Y-169896599D01*
X78967339Y-169731852D01*
X78676500Y-169674000D01*
X77276803Y-169674000D01*
X76609424Y-169006621D01*
X79857160Y-169006621D01*
X80243037Y-169940515D01*
X80956927Y-170655652D01*
X81890146Y-171043159D01*
X82900621Y-171044040D01*
X83834515Y-170658163D01*
X84549652Y-169944273D01*
X84937159Y-169011054D01*
X84938040Y-168000579D01*
X84552163Y-167066685D01*
X83838273Y-166351548D01*
X82905054Y-165964041D01*
X82208355Y-165963434D01*
X82274191Y-165765796D01*
X81381600Y-164873205D01*
X80489009Y-165765796D01*
X80574067Y-166021139D01*
X81143565Y-166229116D01*
X81263250Y-166224020D01*
X80960685Y-166349037D01*
X80245548Y-167062927D01*
X79858041Y-167996146D01*
X79857160Y-169006621D01*
X76609424Y-169006621D01*
X72825801Y-165222999D01*
X72579239Y-165058252D01*
X72288400Y-165000400D01*
X68278154Y-165000400D01*
X68084347Y-164710346D01*
X67743647Y-164482698D01*
X67801422Y-164455565D01*
X79846084Y-164455565D01*
X79871877Y-165061300D01*
X80054061Y-165501133D01*
X80309404Y-165586191D01*
X81201995Y-164693600D01*
X81561205Y-164693600D01*
X82453796Y-165586191D01*
X82709139Y-165501133D01*
X82917116Y-164931635D01*
X82891323Y-164325900D01*
X82709139Y-163886067D01*
X82453796Y-163801009D01*
X81561205Y-164693600D01*
X81201995Y-164693600D01*
X80309404Y-163801009D01*
X80054061Y-163886067D01*
X79846084Y-164455565D01*
X67801422Y-164455565D01*
X67886558Y-164415583D01*
X68276845Y-163987324D01*
X68446676Y-163577290D01*
X68325355Y-163347400D01*
X67132200Y-163347400D01*
X67132200Y-163367400D01*
X66878200Y-163367400D01*
X66878200Y-163347400D01*
X65685045Y-163347400D01*
X65563724Y-163577290D01*
X65733555Y-163987324D01*
X66123842Y-164415583D01*
X66266753Y-164482698D01*
X65926053Y-164710346D01*
X65604146Y-165192115D01*
X65491107Y-165760400D01*
X62992000Y-165760400D01*
X62992000Y-162863510D01*
X65563724Y-162863510D01*
X65685045Y-163093400D01*
X66878200Y-163093400D01*
X66878200Y-161899581D01*
X67132200Y-161899581D01*
X67132200Y-163093400D01*
X68325355Y-163093400D01*
X68446676Y-162863510D01*
X68276845Y-162453476D01*
X67886558Y-162025217D01*
X67362092Y-161778914D01*
X67132200Y-161899581D01*
X66878200Y-161899581D01*
X66648308Y-161778914D01*
X66123842Y-162025217D01*
X65733555Y-162453476D01*
X65563724Y-162863510D01*
X62992000Y-162863510D01*
X62992000Y-154112619D01*
X63804613Y-154112619D01*
X64144155Y-154934372D01*
X64772321Y-155563636D01*
X65593481Y-155904611D01*
X66482619Y-155905387D01*
X67304372Y-155565845D01*
X67933636Y-154937679D01*
X68274611Y-154116519D01*
X68275387Y-153227381D01*
X67935845Y-152405628D01*
X67307679Y-151776364D01*
X66486519Y-151435389D01*
X65597381Y-151434613D01*
X64775628Y-151774155D01*
X64146364Y-152402321D01*
X63805389Y-153223481D01*
X63804613Y-154112619D01*
X62992000Y-154112619D01*
X62992000Y-147422890D01*
X64141324Y-147422890D01*
X64311155Y-147832924D01*
X64701442Y-148261183D01*
X65225908Y-148507486D01*
X65455800Y-148386819D01*
X65455800Y-147193000D01*
X65709800Y-147193000D01*
X65709800Y-148386819D01*
X65939692Y-148507486D01*
X66464158Y-148261183D01*
X66852800Y-147834729D01*
X67241442Y-148261183D01*
X67765908Y-148507486D01*
X67995800Y-148386819D01*
X67995800Y-147193000D01*
X68249800Y-147193000D01*
X68249800Y-148386819D01*
X68479692Y-148507486D01*
X69004158Y-148261183D01*
X69394445Y-147832924D01*
X69564276Y-147422890D01*
X69442955Y-147193000D01*
X68249800Y-147193000D01*
X67995800Y-147193000D01*
X65709800Y-147193000D01*
X65455800Y-147193000D01*
X64262645Y-147193000D01*
X64141324Y-147422890D01*
X62992000Y-147422890D01*
X62992000Y-144526000D01*
X64068707Y-144526000D01*
X64181746Y-145094285D01*
X64503653Y-145576054D01*
X64844353Y-145803702D01*
X64701442Y-145870817D01*
X64311155Y-146299076D01*
X64141324Y-146709110D01*
X64262645Y-146939000D01*
X65455800Y-146939000D01*
X65455800Y-146919000D01*
X65709800Y-146919000D01*
X65709800Y-146939000D01*
X67995800Y-146939000D01*
X67995800Y-146919000D01*
X68249800Y-146919000D01*
X68249800Y-146939000D01*
X69442955Y-146939000D01*
X69564276Y-146709110D01*
X69394445Y-146299076D01*
X69004158Y-145870817D01*
X68861247Y-145803702D01*
X69201947Y-145576054D01*
X69523854Y-145094285D01*
X69604813Y-144687275D01*
X69984803Y-144687275D01*
X70157233Y-145104586D01*
X70476235Y-145424145D01*
X70893244Y-145597303D01*
X71344775Y-145597697D01*
X71762086Y-145425267D01*
X72081645Y-145106265D01*
X72254803Y-144689256D01*
X72254899Y-144579181D01*
X76698787Y-140135292D01*
X76698790Y-140135290D01*
X76890633Y-139848175D01*
X76901810Y-139791984D01*
X76958001Y-139509500D01*
X76958000Y-139509495D01*
X76958000Y-137055412D01*
X79857336Y-137055412D01*
X80088862Y-137615749D01*
X80496337Y-138023936D01*
X80090369Y-138429196D01*
X79857865Y-138989128D01*
X79857336Y-139595412D01*
X80088862Y-140155749D01*
X80496337Y-140563936D01*
X80090369Y-140969196D01*
X79857865Y-141529128D01*
X79857336Y-142135412D01*
X80088862Y-142695749D01*
X80496337Y-143103936D01*
X80090369Y-143509196D01*
X79857865Y-144069128D01*
X79857336Y-144675412D01*
X80088862Y-145235749D01*
X80496337Y-145643936D01*
X80090369Y-146049196D01*
X79857865Y-146609128D01*
X79857336Y-147215412D01*
X80088862Y-147775749D01*
X80496337Y-148183936D01*
X80090369Y-148589196D01*
X79857865Y-149149128D01*
X79857336Y-149755412D01*
X80088862Y-150315749D01*
X80496337Y-150723936D01*
X80090369Y-151129196D01*
X79857865Y-151689128D01*
X79857336Y-152295412D01*
X80088862Y-152855749D01*
X80496337Y-153263936D01*
X80090369Y-153669196D01*
X79857865Y-154229128D01*
X79857336Y-154835412D01*
X80088862Y-155395749D01*
X80496337Y-155803936D01*
X80090369Y-156209196D01*
X79857865Y-156769128D01*
X79857336Y-157375412D01*
X80088862Y-157935749D01*
X80496337Y-158343936D01*
X80090369Y-158749196D01*
X79857865Y-159309128D01*
X79857336Y-159915412D01*
X80088862Y-160475749D01*
X80496337Y-160883936D01*
X80090369Y-161289196D01*
X79857865Y-161849128D01*
X79857336Y-162455412D01*
X80088862Y-163015749D01*
X80517196Y-163444831D01*
X80544106Y-163456005D01*
X80489009Y-163621404D01*
X81381600Y-164513995D01*
X82274191Y-163621404D01*
X82219247Y-163456462D01*
X82243749Y-163446338D01*
X82672831Y-163018004D01*
X82905335Y-162458072D01*
X82905864Y-161851788D01*
X82674338Y-161291451D01*
X82266863Y-160883264D01*
X82672831Y-160478004D01*
X82905335Y-159918072D01*
X82905864Y-159311788D01*
X82674338Y-158751451D01*
X82266863Y-158343264D01*
X82672831Y-157938004D01*
X82905335Y-157378072D01*
X82905864Y-156771788D01*
X82674338Y-156211451D01*
X82266863Y-155803264D01*
X82672831Y-155398004D01*
X82905335Y-154838072D01*
X82905864Y-154231788D01*
X82674338Y-153671451D01*
X82266863Y-153263264D01*
X82672831Y-152858004D01*
X82905335Y-152298072D01*
X82905864Y-151691788D01*
X82674338Y-151131451D01*
X82266863Y-150723264D01*
X82672831Y-150318004D01*
X82905335Y-149758072D01*
X82905864Y-149151788D01*
X82674338Y-148591451D01*
X82266863Y-148183264D01*
X82672831Y-147778004D01*
X82905335Y-147218072D01*
X82905864Y-146611788D01*
X82674338Y-146051451D01*
X82266863Y-145643264D01*
X82672831Y-145238004D01*
X82905335Y-144678072D01*
X82905864Y-144071788D01*
X82674338Y-143511451D01*
X82266863Y-143103264D01*
X82672831Y-142698004D01*
X82905335Y-142138072D01*
X82905864Y-141531788D01*
X82674338Y-140971451D01*
X82266863Y-140563264D01*
X82672831Y-140158004D01*
X82905335Y-139598072D01*
X82905864Y-138991788D01*
X82674338Y-138431451D01*
X82266863Y-138023264D01*
X82672831Y-137618004D01*
X82905335Y-137058072D01*
X82905864Y-136451788D01*
X82674338Y-135891451D01*
X82246004Y-135462369D01*
X82219094Y-135451195D01*
X82274191Y-135285796D01*
X81381600Y-134393205D01*
X80489009Y-135285796D01*
X80543953Y-135450738D01*
X80519451Y-135460862D01*
X80090369Y-135889196D01*
X79857865Y-136449128D01*
X79857336Y-137055412D01*
X76958000Y-137055412D01*
X76958000Y-133975565D01*
X79846084Y-133975565D01*
X79871877Y-134581300D01*
X80054061Y-135021133D01*
X80309404Y-135106191D01*
X81201995Y-134213600D01*
X81561205Y-134213600D01*
X82453796Y-135106191D01*
X82709139Y-135021133D01*
X82917116Y-134451635D01*
X82891323Y-133845900D01*
X82709139Y-133406067D01*
X82453796Y-133321009D01*
X81561205Y-134213600D01*
X81201995Y-134213600D01*
X80309404Y-133321009D01*
X80054061Y-133406067D01*
X79846084Y-133975565D01*
X76958000Y-133975565D01*
X76958000Y-131430580D01*
X78369979Y-130018600D01*
X80111673Y-130018600D01*
X80496337Y-130403936D01*
X80090369Y-130809196D01*
X79857865Y-131369128D01*
X79857336Y-131975412D01*
X80088862Y-132535749D01*
X80517196Y-132964831D01*
X80544106Y-132976005D01*
X80489009Y-133141404D01*
X81381600Y-134033995D01*
X82274191Y-133141404D01*
X82219247Y-132976462D01*
X82243749Y-132966338D01*
X82672831Y-132538004D01*
X82905335Y-131978072D01*
X82905864Y-131371788D01*
X82674338Y-130811451D01*
X82266863Y-130403264D01*
X82401762Y-130268600D01*
X82816468Y-130268600D01*
X94055307Y-141507439D01*
X94055260Y-141561785D01*
X94265669Y-142071015D01*
X94654936Y-142460961D01*
X95163798Y-142672259D01*
X95714785Y-142672740D01*
X96224015Y-142462331D01*
X96613961Y-142073064D01*
X96825259Y-141564202D01*
X96825740Y-141013215D01*
X96615331Y-140503985D01*
X96226064Y-140114039D01*
X95717202Y-139902741D01*
X95660824Y-139902692D01*
X84089166Y-128331034D01*
X83846162Y-128168664D01*
X83720946Y-128084997D01*
X83286600Y-127998600D01*
X82401963Y-127998600D01*
X82266863Y-127863264D01*
X82672831Y-127458004D01*
X82905335Y-126898072D01*
X82905864Y-126291788D01*
X82674338Y-125731451D01*
X82267086Y-125323488D01*
X82900621Y-125324040D01*
X83834515Y-124938163D01*
X84549652Y-124224273D01*
X84937159Y-123291054D01*
X84937162Y-123286621D01*
X97637160Y-123286621D01*
X98023037Y-124220515D01*
X98736927Y-124935652D01*
X99670146Y-125323159D01*
X100680621Y-125324040D01*
X101614515Y-124938163D01*
X102329652Y-124224273D01*
X102717159Y-123291054D01*
X102718040Y-122280579D01*
X102332163Y-121346685D01*
X101618273Y-120631548D01*
X100685054Y-120244041D01*
X99674579Y-120243160D01*
X98740685Y-120629037D01*
X98025548Y-121342927D01*
X97638041Y-122276146D01*
X97637160Y-123286621D01*
X84937162Y-123286621D01*
X84938040Y-122280579D01*
X84552163Y-121346685D01*
X83838273Y-120631548D01*
X82905054Y-120244041D01*
X81894579Y-120243160D01*
X80960685Y-120629037D01*
X80245548Y-121342927D01*
X79858041Y-122276146D01*
X79857160Y-123286621D01*
X80243037Y-124220515D01*
X80956927Y-124935652D01*
X81279293Y-125069510D01*
X81079788Y-125069336D01*
X80519451Y-125300862D01*
X80090369Y-125729196D01*
X79857865Y-126289128D01*
X79857336Y-126895412D01*
X80088862Y-127455749D01*
X80496337Y-127863936D01*
X80111001Y-128248600D01*
X78003405Y-128248600D01*
X78003400Y-128248599D01*
X77720916Y-128304790D01*
X77664725Y-128315967D01*
X77377610Y-128507810D01*
X77377608Y-128507813D01*
X75447210Y-130438210D01*
X75255367Y-130725325D01*
X75255367Y-130725326D01*
X75187999Y-131064000D01*
X75188000Y-131064005D01*
X75188000Y-139142921D01*
X71003523Y-143327397D01*
X70895225Y-143327303D01*
X70477914Y-143499733D01*
X70158355Y-143818735D01*
X69985197Y-144235744D01*
X69984803Y-144687275D01*
X69604813Y-144687275D01*
X69636893Y-144526000D01*
X69523854Y-143957715D01*
X69201947Y-143475946D01*
X68872774Y-143256000D01*
X69201947Y-143036054D01*
X69523854Y-142554285D01*
X69636893Y-141986000D01*
X69523854Y-141417715D01*
X69201947Y-140935946D01*
X68720178Y-140614039D01*
X68151893Y-140501000D01*
X68093707Y-140501000D01*
X67525422Y-140614039D01*
X67043653Y-140935946D01*
X67042829Y-140937179D01*
X67035962Y-140900683D01*
X66896890Y-140684559D01*
X66684690Y-140539569D01*
X66432800Y-140488560D01*
X64732800Y-140488560D01*
X64497483Y-140532838D01*
X64281359Y-140671910D01*
X64136369Y-140884110D01*
X64085360Y-141136000D01*
X64085360Y-142836000D01*
X64129638Y-143071317D01*
X64268710Y-143287441D01*
X64480910Y-143432431D01*
X64548341Y-143446086D01*
X64503653Y-143475946D01*
X64181746Y-143957715D01*
X64068707Y-144526000D01*
X62992000Y-144526000D01*
X62992000Y-97558412D01*
X110946936Y-97558412D01*
X111178462Y-98118749D01*
X111585937Y-98526936D01*
X111179969Y-98932196D01*
X110947465Y-99492128D01*
X110946936Y-100098412D01*
X111178462Y-100658749D01*
X111606796Y-101087831D01*
X111633706Y-101099005D01*
X111578609Y-101264404D01*
X112471200Y-102156995D01*
X113363791Y-101264404D01*
X113308847Y-101099462D01*
X113333349Y-101089338D01*
X113762431Y-100661004D01*
X113994935Y-100101072D01*
X113995464Y-99494788D01*
X113763938Y-98934451D01*
X113356463Y-98526264D01*
X113513530Y-98369470D01*
X114375783Y-98369470D01*
X114742366Y-99256669D01*
X115420561Y-99936049D01*
X116307119Y-100304180D01*
X117267070Y-100305017D01*
X118154269Y-99938434D01*
X118833649Y-99260239D01*
X119201780Y-98373681D01*
X119201783Y-98369470D01*
X124535783Y-98369470D01*
X124902366Y-99256669D01*
X125580561Y-99936049D01*
X126467119Y-100304180D01*
X127427070Y-100305017D01*
X128314269Y-99938434D01*
X128993649Y-99260239D01*
X129361780Y-98373681D01*
X129362617Y-97413730D01*
X128996034Y-96526531D01*
X128317839Y-95847151D01*
X127431281Y-95479020D01*
X126471330Y-95478183D01*
X125584131Y-95844766D01*
X124904751Y-96522961D01*
X124536620Y-97409519D01*
X124535783Y-98369470D01*
X119201783Y-98369470D01*
X119202617Y-97413730D01*
X118836034Y-96526531D01*
X118157839Y-95847151D01*
X117271281Y-95479020D01*
X116311330Y-95478183D01*
X115424131Y-95844766D01*
X114744751Y-96522961D01*
X114376620Y-97409519D01*
X114375783Y-98369470D01*
X113513530Y-98369470D01*
X113762431Y-98121004D01*
X113994935Y-97561072D01*
X113995464Y-96954788D01*
X113763938Y-96394451D01*
X113335604Y-95965369D01*
X112775672Y-95732865D01*
X112169388Y-95732336D01*
X111609051Y-95963862D01*
X111179969Y-96392196D01*
X110947465Y-96952128D01*
X110946936Y-97558412D01*
X62992000Y-97558412D01*
X62992000Y-95692619D01*
X63804613Y-95692619D01*
X64144155Y-96514372D01*
X64772321Y-97143636D01*
X65593481Y-97484611D01*
X66482619Y-97485387D01*
X67304372Y-97145845D01*
X67933636Y-96517679D01*
X68274611Y-95696519D01*
X68275387Y-94807381D01*
X67935845Y-93985628D01*
X67896619Y-93946333D01*
X133502119Y-93946333D01*
X133749080Y-94544025D01*
X134170833Y-94966514D01*
X133836769Y-95299996D01*
X133604265Y-95859928D01*
X133603736Y-96466212D01*
X133835262Y-97026549D01*
X134242737Y-97434736D01*
X133836769Y-97839996D01*
X133604265Y-98399928D01*
X133603736Y-99006212D01*
X133835262Y-99566549D01*
X134242737Y-99974736D01*
X133836769Y-100379996D01*
X133604265Y-100939928D01*
X133603736Y-101546212D01*
X133835262Y-102106549D01*
X134263596Y-102535631D01*
X134290506Y-102546805D01*
X134235409Y-102712204D01*
X135128000Y-103604795D01*
X136020591Y-102712204D01*
X135965647Y-102547262D01*
X135990149Y-102537138D01*
X136419231Y-102108804D01*
X136651735Y-101548872D01*
X136652264Y-100942588D01*
X136420738Y-100382251D01*
X136013263Y-99974064D01*
X136398599Y-99589400D01*
X139293595Y-99589400D01*
X139293600Y-99589401D01*
X139576084Y-99533210D01*
X139632275Y-99522033D01*
X139919390Y-99330190D01*
X140783214Y-98466365D01*
X148832484Y-98466365D01*
X148858277Y-99072100D01*
X149040461Y-99511933D01*
X149295804Y-99596991D01*
X150188395Y-98704400D01*
X150547605Y-98704400D01*
X151440196Y-99596991D01*
X151695539Y-99511933D01*
X151903516Y-98942435D01*
X151877723Y-98336700D01*
X151695539Y-97896867D01*
X151659242Y-97884776D01*
X155064362Y-97884776D01*
X155624188Y-99239658D01*
X156659890Y-100277169D01*
X158013793Y-100839359D01*
X159479776Y-100840638D01*
X160834658Y-100280812D01*
X161328630Y-99787701D01*
X162996904Y-99787701D01*
X163345584Y-100267545D01*
X164696892Y-100835941D01*
X166162854Y-100843948D01*
X167520291Y-100290346D01*
X167554416Y-100267545D01*
X167903096Y-99787701D01*
X165450000Y-97334605D01*
X162996904Y-99787701D01*
X161328630Y-99787701D01*
X161872169Y-99245110D01*
X162099480Y-98697684D01*
X162314654Y-99225291D01*
X162337455Y-99259416D01*
X162817299Y-99608096D01*
X165270395Y-97155000D01*
X165629605Y-97155000D01*
X168082701Y-99608096D01*
X168562545Y-99259416D01*
X169130941Y-97908108D01*
X169138948Y-96442146D01*
X168585346Y-95084709D01*
X168562545Y-95050584D01*
X168082701Y-94701904D01*
X165629605Y-97155000D01*
X165270395Y-97155000D01*
X162817299Y-94701904D01*
X162337455Y-95050584D01*
X162100457Y-95614024D01*
X161875812Y-95070342D01*
X161328725Y-94522299D01*
X162996904Y-94522299D01*
X165450000Y-96975395D01*
X167903096Y-94522299D01*
X167554416Y-94042455D01*
X166203108Y-93474059D01*
X164737146Y-93466052D01*
X163379709Y-94019654D01*
X163345584Y-94042455D01*
X162996904Y-94522299D01*
X161328725Y-94522299D01*
X160840110Y-94032831D01*
X159486207Y-93470641D01*
X158020224Y-93469362D01*
X156665342Y-94029188D01*
X155627831Y-95064890D01*
X155065641Y-96418793D01*
X155064362Y-97884776D01*
X151659242Y-97884776D01*
X151440196Y-97811809D01*
X150547605Y-98704400D01*
X150188395Y-98704400D01*
X149295804Y-97811809D01*
X149040461Y-97896867D01*
X148832484Y-98466365D01*
X140783214Y-98466365D01*
X145303246Y-93946333D01*
X148742119Y-93946333D01*
X148989080Y-94544025D01*
X149410833Y-94966514D01*
X149076769Y-95299996D01*
X148844265Y-95859928D01*
X148843736Y-96466212D01*
X149075262Y-97026549D01*
X149503596Y-97455631D01*
X149530506Y-97466805D01*
X149475409Y-97632204D01*
X150368000Y-98524795D01*
X151260591Y-97632204D01*
X151205647Y-97467262D01*
X151230149Y-97457138D01*
X151659231Y-97028804D01*
X151891735Y-96468872D01*
X151892264Y-95862588D01*
X151660738Y-95302251D01*
X151325042Y-94965969D01*
X151745313Y-94546430D01*
X151993317Y-93949170D01*
X151993881Y-93302467D01*
X151931966Y-93152619D01*
X174294613Y-93152619D01*
X174634155Y-93974372D01*
X175262321Y-94603636D01*
X176083481Y-94944611D01*
X176972619Y-94945387D01*
X177794372Y-94605845D01*
X178423636Y-93977679D01*
X178764611Y-93156519D01*
X178765387Y-92267381D01*
X178425845Y-91445628D01*
X177797679Y-90816364D01*
X176976519Y-90475389D01*
X176087381Y-90474613D01*
X175265628Y-90814155D01*
X174636364Y-91442321D01*
X174295389Y-92263481D01*
X174294613Y-93152619D01*
X151931966Y-93152619D01*
X151746920Y-92704775D01*
X151290030Y-92247087D01*
X150692770Y-91999083D01*
X150046067Y-91998519D01*
X149448375Y-92245480D01*
X148990687Y-92702370D01*
X148742683Y-93299630D01*
X148742119Y-93946333D01*
X145303246Y-93946333D01*
X150889803Y-88359776D01*
X155064362Y-88359776D01*
X155624188Y-89714658D01*
X156659890Y-90752169D01*
X158013793Y-91314359D01*
X159479776Y-91315638D01*
X160834658Y-90755812D01*
X161328630Y-90262701D01*
X162996904Y-90262701D01*
X163345584Y-90742545D01*
X164696892Y-91310941D01*
X166162854Y-91318948D01*
X167520291Y-90765346D01*
X167554416Y-90742545D01*
X167903096Y-90262701D01*
X165450000Y-87809605D01*
X162996904Y-90262701D01*
X161328630Y-90262701D01*
X161872169Y-89720110D01*
X162099480Y-89172684D01*
X162314654Y-89700291D01*
X162337455Y-89734416D01*
X162817299Y-90083096D01*
X165270395Y-87630000D01*
X165629605Y-87630000D01*
X168082701Y-90083096D01*
X168562545Y-89734416D01*
X169130941Y-88383108D01*
X169138948Y-86917146D01*
X168585346Y-85559709D01*
X168562545Y-85525584D01*
X168082701Y-85176904D01*
X165629605Y-87630000D01*
X165270395Y-87630000D01*
X162817299Y-85176904D01*
X162337455Y-85525584D01*
X162100457Y-86089024D01*
X161875812Y-85545342D01*
X161328725Y-84997299D01*
X162996904Y-84997299D01*
X165450000Y-87450395D01*
X167903096Y-84997299D01*
X167554416Y-84517455D01*
X166203108Y-83949059D01*
X164737146Y-83941052D01*
X163379709Y-84494654D01*
X163345584Y-84517455D01*
X162996904Y-84997299D01*
X161328725Y-84997299D01*
X160840110Y-84507831D01*
X159486207Y-83945641D01*
X158020224Y-83944362D01*
X156665342Y-84504188D01*
X155627831Y-85539890D01*
X155065641Y-86893793D01*
X155064362Y-88359776D01*
X150889803Y-88359776D01*
X151946287Y-87303292D01*
X151946290Y-87303290D01*
X152138133Y-87016175D01*
X152157831Y-86917146D01*
X152205501Y-86677500D01*
X152205500Y-86677495D01*
X152205500Y-72517005D01*
X152205501Y-72517000D01*
X152138134Y-72178326D01*
X152074475Y-72083054D01*
X151946290Y-71891210D01*
X151946287Y-71891208D01*
X149279290Y-69224210D01*
X148992175Y-69032367D01*
X148935984Y-69021190D01*
X148653500Y-68964999D01*
X148653495Y-68965000D01*
X148001432Y-68965000D01*
X147891147Y-68799946D01*
X147561974Y-68580000D01*
X147891147Y-68360054D01*
X148213054Y-67878285D01*
X148326093Y-67310000D01*
X148213054Y-66741715D01*
X147891147Y-66259946D01*
X147561974Y-66040000D01*
X147891147Y-65820054D01*
X148213054Y-65338285D01*
X148326093Y-64770000D01*
X148213054Y-64201715D01*
X147891147Y-63719946D01*
X147561974Y-63500000D01*
X147891147Y-63280054D01*
X148213054Y-62798285D01*
X148326093Y-62230000D01*
X148213054Y-61661715D01*
X147891147Y-61179946D01*
X147847223Y-61150597D01*
X148021698Y-61078327D01*
X148200327Y-60899699D01*
X148297000Y-60666310D01*
X148297000Y-59975750D01*
X148138250Y-59817000D01*
X146939000Y-59817000D01*
X146939000Y-59837000D01*
X146685000Y-59837000D01*
X146685000Y-59817000D01*
X144399000Y-59817000D01*
X144399000Y-59837000D01*
X144145000Y-59837000D01*
X144145000Y-59817000D01*
X142951845Y-59817000D01*
X142830524Y-60046890D01*
X143000355Y-60456924D01*
X143390642Y-60885183D01*
X143533553Y-60952298D01*
X143192853Y-61179946D01*
X142870946Y-61661715D01*
X142757907Y-62230000D01*
X142870946Y-62798285D01*
X143192853Y-63280054D01*
X143522026Y-63500000D01*
X143192853Y-63719946D01*
X142870946Y-64201715D01*
X142757907Y-64770000D01*
X142870946Y-65338285D01*
X143192853Y-65820054D01*
X143522026Y-66040000D01*
X143192853Y-66259946D01*
X142870946Y-66741715D01*
X142757907Y-67310000D01*
X142870946Y-67878285D01*
X143192853Y-68360054D01*
X143522026Y-68580000D01*
X143192853Y-68799946D01*
X142870946Y-69281715D01*
X142757907Y-69850000D01*
X142870946Y-70418285D01*
X143192853Y-70900054D01*
X143522026Y-71120000D01*
X143192853Y-71339946D01*
X142870946Y-71821715D01*
X142757907Y-72390000D01*
X142870946Y-72958285D01*
X143192853Y-73440054D01*
X143522026Y-73660000D01*
X143192853Y-73879946D01*
X142870946Y-74361715D01*
X142757907Y-74930000D01*
X142870946Y-75498285D01*
X143192853Y-75980054D01*
X143533553Y-76207702D01*
X143390642Y-76274817D01*
X143000355Y-76703076D01*
X142830524Y-77113110D01*
X142951845Y-77343000D01*
X144145000Y-77343000D01*
X144145000Y-77323000D01*
X144399000Y-77323000D01*
X144399000Y-77343000D01*
X144419000Y-77343000D01*
X144419000Y-77597000D01*
X144399000Y-77597000D01*
X144399000Y-78790819D01*
X144628892Y-78911486D01*
X145153358Y-78665183D01*
X145543645Y-78236924D01*
X145543655Y-78236899D01*
X145732853Y-78520054D01*
X146214622Y-78841961D01*
X146782907Y-78955000D01*
X146841093Y-78955000D01*
X147409378Y-78841961D01*
X147891147Y-78520054D01*
X148213054Y-78038285D01*
X148326093Y-77470000D01*
X148213054Y-76901715D01*
X147891147Y-76419946D01*
X147561974Y-76200000D01*
X147891147Y-75980054D01*
X148213054Y-75498285D01*
X148326093Y-74930000D01*
X148213054Y-74361715D01*
X147891147Y-73879946D01*
X147561974Y-73660000D01*
X147891147Y-73440054D01*
X148213054Y-72958285D01*
X148326093Y-72390000D01*
X148213054Y-71821715D01*
X147891147Y-71339946D01*
X147561974Y-71120000D01*
X147891147Y-70900054D01*
X148001432Y-70735000D01*
X148286920Y-70735000D01*
X150435500Y-72883579D01*
X150435500Y-79569928D01*
X150378267Y-79431414D01*
X150059265Y-79111855D01*
X149642256Y-78938697D01*
X149190725Y-78938303D01*
X148773414Y-79110733D01*
X148453855Y-79429735D01*
X148280697Y-79846744D01*
X148280303Y-80298275D01*
X148452733Y-80715586D01*
X148530500Y-80793489D01*
X148530500Y-83707421D01*
X136958520Y-95279400D01*
X136397927Y-95279400D01*
X136085042Y-94965969D01*
X136505313Y-94546430D01*
X136753317Y-93949170D01*
X136753881Y-93302467D01*
X136506920Y-92704775D01*
X136050030Y-92247087D01*
X135452770Y-91999083D01*
X134806067Y-91998519D01*
X134208375Y-92245480D01*
X133750687Y-92702370D01*
X133502683Y-93299630D01*
X133502119Y-93946333D01*
X67896619Y-93946333D01*
X67307679Y-93356364D01*
X66486519Y-93015389D01*
X65597381Y-93014613D01*
X64775628Y-93354155D01*
X64146364Y-93982321D01*
X63805389Y-94803481D01*
X63804613Y-95692619D01*
X62992000Y-95692619D01*
X62992000Y-81659119D01*
X129273113Y-81659119D01*
X129612655Y-82480872D01*
X130240821Y-83110136D01*
X131061981Y-83451111D01*
X131951119Y-83451887D01*
X132772872Y-83112345D01*
X133402136Y-82484179D01*
X133743111Y-81663019D01*
X133743887Y-80773881D01*
X133404345Y-79952128D01*
X132776179Y-79322864D01*
X131955019Y-78981889D01*
X131065881Y-78981113D01*
X130244128Y-79320655D01*
X129614864Y-79948821D01*
X129273889Y-80769981D01*
X129273113Y-81659119D01*
X62992000Y-81659119D01*
X62992000Y-77826890D01*
X142830524Y-77826890D01*
X143000355Y-78236924D01*
X143390642Y-78665183D01*
X143915108Y-78911486D01*
X144145000Y-78790819D01*
X144145000Y-77597000D01*
X142951845Y-77597000D01*
X142830524Y-77826890D01*
X62992000Y-77826890D01*
X62992000Y-69022619D01*
X91998613Y-69022619D01*
X92338155Y-69844372D01*
X92966321Y-70473636D01*
X93787481Y-70814611D01*
X94676619Y-70815387D01*
X95498372Y-70475845D01*
X96127636Y-69847679D01*
X96468611Y-69026519D01*
X96469387Y-68137381D01*
X96129845Y-67315628D01*
X95501679Y-66686364D01*
X94680519Y-66345389D01*
X93791381Y-66344613D01*
X92969628Y-66684155D01*
X92340364Y-67312321D01*
X91999389Y-68133481D01*
X91998613Y-69022619D01*
X62992000Y-69022619D01*
X62992000Y-59333110D01*
X142830524Y-59333110D01*
X142951845Y-59563000D01*
X144145000Y-59563000D01*
X144145000Y-58369181D01*
X144399000Y-58369181D01*
X144399000Y-59563000D01*
X146685000Y-59563000D01*
X146685000Y-58363750D01*
X146939000Y-58363750D01*
X146939000Y-59563000D01*
X148138250Y-59563000D01*
X148297000Y-59404250D01*
X148297000Y-58713690D01*
X148200327Y-58480301D01*
X148021698Y-58301673D01*
X147788309Y-58205000D01*
X147097750Y-58205000D01*
X146939000Y-58363750D01*
X146685000Y-58363750D01*
X146526250Y-58205000D01*
X145835691Y-58205000D01*
X145602302Y-58301673D01*
X145423673Y-58480301D01*
X145335070Y-58694208D01*
X145153358Y-58494817D01*
X144628892Y-58248514D01*
X144399000Y-58369181D01*
X144145000Y-58369181D01*
X143915108Y-58248514D01*
X143390642Y-58494817D01*
X143000355Y-58923076D01*
X142830524Y-59333110D01*
X62992000Y-59333110D01*
X62992000Y-55052619D01*
X63804613Y-55052619D01*
X64144155Y-55874372D01*
X64772321Y-56503636D01*
X65593481Y-56844611D01*
X66482619Y-56845387D01*
X67304372Y-56505845D01*
X67551529Y-56259119D01*
X129273113Y-56259119D01*
X129612655Y-57080872D01*
X130240821Y-57710136D01*
X131061981Y-58051111D01*
X131951119Y-58051887D01*
X132772872Y-57712345D01*
X133402136Y-57084179D01*
X133743111Y-56263019D01*
X133743887Y-55373881D01*
X133611145Y-55052619D01*
X174294613Y-55052619D01*
X174634155Y-55874372D01*
X175262321Y-56503636D01*
X176083481Y-56844611D01*
X176972619Y-56845387D01*
X177794372Y-56505845D01*
X178423636Y-55877679D01*
X178764611Y-55056519D01*
X178765387Y-54167381D01*
X178425845Y-53345628D01*
X177797679Y-52716364D01*
X176976519Y-52375389D01*
X176087381Y-52374613D01*
X175265628Y-52714155D01*
X174636364Y-53342321D01*
X174295389Y-54163481D01*
X174294613Y-55052619D01*
X133611145Y-55052619D01*
X133404345Y-54552128D01*
X132776179Y-53922864D01*
X131955019Y-53581889D01*
X131065881Y-53581113D01*
X130244128Y-53920655D01*
X129614864Y-54548821D01*
X129273889Y-55369981D01*
X129273113Y-56259119D01*
X67551529Y-56259119D01*
X67933636Y-55877679D01*
X68274611Y-55056519D01*
X68275387Y-54167381D01*
X67935845Y-53345628D01*
X67307679Y-52716364D01*
X66486519Y-52375389D01*
X65597381Y-52374613D01*
X64775628Y-52714155D01*
X64146364Y-53342321D01*
X63805389Y-54163481D01*
X63804613Y-55052619D01*
X62992000Y-55052619D01*
X62992000Y-51562000D01*
X180213000Y-51562000D01*
X180213000Y-179578000D01*
M02*
